<?xml version="1.0" encoding="UTF-8" standalone="no"?>
<!-- Created with Inkscape (http://www.inkscape.org/) -->

<svg
   version="1.1"
   id="svg1"
   width="96.080002"
   height="31.879999"
   viewBox="0 0 96.080002 31.879999"
   sodipodi:docname="E6-diagram.pdf"
   xmlns:inkscape="http://www.inkscape.org/namespaces/inkscape"
   xmlns:sodipodi="http://sodipodi.sourceforge.net/DTD/sodipodi-0.dtd"
   xmlns="http://www.w3.org/2000/svg"
   xmlns:svg="http://www.w3.org/2000/svg">
  <defs
     id="defs1" />
  <sodipodi:namedview
     id="namedview1"
     pagecolor="#ffffff"
     bordercolor="#000000"
     borderopacity="0.25"
     inkscape:showpageshadow="2"
     inkscape:pageopacity="0.0"
     inkscape:pagecheckerboard="0"
     inkscape:deskcolor="#d1d1d1">
    <inkscape:page
       x="0"
       y="0"
       inkscape:label="1"
       id="page1"
       width="96.080002"
       height="31.879999"
       margin="0"
       bleed="0" />
  </sodipodi:namedview>
  <g
     id="g1"
     inkscape:groupmode="layer"
     inkscape:label="1">
    <path
       id="path1"
       d="m 78.08319,-66.50148 c 0,2.0623 1.67374,3.73604 3.73604,3.73604 2.06229,0 3.73604,-1.67374 3.73604,-3.73604 0,-2.06227 -1.67375,-3.73604 -3.73604,-3.73604 -2.0623,0 -3.73604,1.67377 -3.73604,3.73604 z"
       style="fill:#000000;fill-opacity:1;fill-rule:nonzero;stroke:#000000;stroke-width:1.49442;stroke-linecap:butt;stroke-linejoin:miter;stroke-miterlimit:10;stroke-dasharray:none;stroke-opacity:1"
       transform="matrix(1.3333333,0,0,-1.3333333,-58.84,-62.764)" />
    <path
       id="path2"
       d="m 78.08319,-51.55733 c 0,2.0623 1.67374,3.73604 3.73604,3.73604 2.06229,0 3.73604,-1.67374 3.73604,-3.73604 0,-2.06227 -1.67375,-3.73604 -3.73604,-3.73604 -2.0623,0 -3.73604,1.67377 -3.73604,3.73604 z"
       style="fill:#000000;fill-opacity:1;fill-rule:nonzero;stroke:#000000;stroke-width:1.49442;stroke-linecap:butt;stroke-linejoin:miter;stroke-miterlimit:10;stroke-dasharray:none;stroke-opacity:1"
       transform="matrix(1.3333333,0,0,-1.3333333,-58.84,-62.764)" />
    <path
       id="path3"
       d="m 93.02734,-66.50148 c 0,2.0623 1.67374,3.73604 3.73604,3.73604 2.06229,0 3.73604,-1.67374 3.73604,-3.73604 0,-2.06227 -1.67375,-3.73604 -3.73604,-3.73604 -2.0623,0 -3.73604,1.67377 -3.73604,3.73604 z"
       style="fill:#000000;fill-opacity:1;fill-rule:nonzero;stroke:#000000;stroke-width:1.49442;stroke-linecap:butt;stroke-linejoin:miter;stroke-miterlimit:10;stroke-dasharray:none;stroke-opacity:1"
       transform="matrix(1.3333333,0,0,-1.3333333,-58.84,-62.764)" />
    <path
       id="path4"
       d="m 107.9715,-66.50148 c 0,2.0623 1.67373,3.73604 3.73603,3.73604 2.06229,0 3.73604,-1.67374 3.73604,-3.73604 0,-2.06227 -1.67375,-3.73604 -3.73604,-3.73604 -2.0623,0 -3.73603,1.67377 -3.73603,3.73604 z"
       style="fill:#000000;fill-opacity:1;fill-rule:nonzero;stroke:#000000;stroke-width:1.49442;stroke-linecap:butt;stroke-linejoin:miter;stroke-miterlimit:10;stroke-dasharray:none;stroke-opacity:1"
       transform="matrix(1.3333333,0,0,-1.3333333,-58.84,-62.764)" />
    <path
       id="path5"
       d="m 63.13904,-66.50148 c 0,2.0623 1.67373,3.73604 3.73604,3.73604 2.06228,0 3.73603,-1.67374 3.73603,-3.73604 0,-2.06227 -1.67375,-3.73604 -3.73603,-3.73604 -2.06231,0 -3.73604,1.67377 -3.73604,3.73604 z"
       style="fill:#000000;fill-opacity:1;fill-rule:nonzero;stroke:#000000;stroke-width:1.49442;stroke-linecap:butt;stroke-linejoin:miter;stroke-miterlimit:10;stroke-dasharray:none;stroke-opacity:1"
       transform="matrix(1.3333333,0,0,-1.3333333,-58.84,-62.764)" />
    <path
       id="path6"
       d="m 48.19489,-66.50148 c 0,2.0623 1.67373,3.73604 3.73603,3.73604 2.06229,0 3.73604,-1.67374 3.73604,-3.73604 0,-2.06227 -1.67375,-3.73604 -3.73604,-3.73604 -2.0623,0 -3.73603,1.67377 -3.73603,3.73604 z"
       style="fill:#000000;fill-opacity:1;fill-rule:nonzero;stroke:#000000;stroke-width:1.49442;stroke-linecap:butt;stroke-linejoin:miter;stroke-miterlimit:10;stroke-dasharray:none;stroke-opacity:1"
       transform="matrix(1.3333333,0,0,-1.3333333,-58.84,-62.764)" />
    <path
       id="path7"
       d="m 51.93092,-66.50148 h 59.77661"
       style="fill:none;stroke:#000000;stroke-width:1.49442;stroke-linecap:butt;stroke-linejoin:miter;stroke-miterlimit:10;stroke-dasharray:none;stroke-opacity:1"
       transform="matrix(1.3333333,0,0,-1.3333333,-58.84,-62.764)" />
    <path
       id="path8"
       d="M 81.81923,-51.55733 V -66.50148"
       style="fill:none;stroke:#000000;stroke-width:1.49442;stroke-linecap:butt;stroke-linejoin:miter;stroke-miterlimit:10;stroke-dasharray:none;stroke-opacity:1"
       transform="matrix(1.3333333,0,0,-1.3333333,-58.84,-62.764)" />
  </g>
</svg>
