<?xml version="1.0" encoding="UTF-8" standalone="no"?>
<!-- Created with Inkscape (http://www.inkscape.org/) -->

<svg
   version="1.1"
   id="svg1"
   width="390.78668"
   height="195.66667"
   viewBox="0 0 390.78668 195.66667"
   sodipodi:docname="normal.pdf"
   xmlns:inkscape="http://www.inkscape.org/namespaces/inkscape"
   xmlns:sodipodi="http://sodipodi.sourceforge.net/DTD/sodipodi-0.dtd"
   xmlns="http://www.w3.org/2000/svg"
   xmlns:svg="http://www.w3.org/2000/svg">
  <defs
     id="defs1" />
  <sodipodi:namedview
     id="namedview1"
     pagecolor="#ffffff"
     bordercolor="#000000"
     borderopacity="0.25"
     inkscape:showpageshadow="2"
     inkscape:pageopacity="0.0"
     inkscape:pagecheckerboard="0"
     inkscape:deskcolor="#d1d1d1">
    <inkscape:page
       x="0"
       y="0"
       inkscape:label="1"
       id="page1"
       width="390.78668"
       height="195.66667"
       margin="0"
       bleed="0" />
  </sodipodi:namedview>
  <g
     id="g1"
     inkscape:groupmode="layer"
     inkscape:label="1">
    <path
       id="path1"
       d="m 30.74757,-46.32687 h 72.0682 v -145.25714 h -72.0682 z"
       style="fill:none;stroke:#000000;stroke-width:1.49442;stroke-linecap:butt;stroke-linejoin:miter;stroke-miterlimit:10;stroke-dasharray:none;stroke-opacity:1"
       transform="matrix(1.3333333,0,0,-1.3333333,-35.576,-60.772)" />
    <path
       id="path2"
       d="m 102.81577,-46.32687 h 72.07565 v -145.25714 h -72.07565 z"
       style="fill:none;stroke:#000000;stroke-width:1.49442;stroke-linecap:butt;stroke-linejoin:miter;stroke-miterlimit:10;stroke-dasharray:none;stroke-opacity:1"
       transform="matrix(1.3333333,0,0,-1.3333333,-35.576,-60.772)" />
    <path
       id="path3"
       d="m 174.89142,-46.32687 h 72.06816 v -145.25714 h -72.06816 z"
       style="fill:none;stroke:#000000;stroke-width:1.49442;stroke-linecap:butt;stroke-linejoin:miter;stroke-miterlimit:10;stroke-dasharray:none;stroke-opacity:1"
       transform="matrix(1.3333333,0,0,-1.3333333,-35.576,-60.772)" />
    <path
       id="path4"
       d="m 246.95958,-46.32687 h 72.06819 v -145.25714 h -72.06819 z"
       style="fill:none;stroke:#000000;stroke-width:1.49442;stroke-linecap:butt;stroke-linejoin:miter;stroke-miterlimit:10;stroke-dasharray:none;stroke-opacity:1"
       transform="matrix(1.3333333,0,0,-1.3333333,-35.576,-60.772)" />
    <path
       id="path5"
       d="M 74.90009,-47.07408 30.81483,-91.15933"
       style="fill:none;stroke:#000000;stroke-width:1.49442;stroke-linecap:butt;stroke-linejoin:miter;stroke-miterlimit:10;stroke-dasharray:none;stroke-opacity:1"
       transform="matrix(1.3333333,0,0,-1.3333333,-35.576,-60.772)" />
    <path
       id="path6"
       d="M 102.81577,-62.76544 30.79242,-134.79623"
       style="fill:none;stroke:#000000;stroke-width:1.49442;stroke-linecap:butt;stroke-linejoin:miter;stroke-miterlimit:10;stroke-dasharray:none;stroke-opacity:1"
       transform="matrix(1.3333333,0,0,-1.3333333,-35.576,-60.772)" />
    <path
       id="path7"
       d="M 102.81577,-112.08115 30.79242,-184.11194"
       style="fill:none;stroke:#000000;stroke-width:1.49442;stroke-linecap:butt;stroke-linejoin:miter;stroke-miterlimit:10;stroke-dasharray:none;stroke-opacity:1"
       transform="matrix(1.3333333,0,0,-1.3333333,-35.576,-60.772)" />
    <g
       id="g7"
       aria-label="[e]"
       transform="matrix(1.3333333,0,0,1.3333333,14.736,21.421333)">
      <path
         id="path8"
         d="M 2.54175,2.4965 V 2.0980625 H 1.5690937 V -7.0777188 H 2.54175 V -7.4761563 H 1.1706562 V 2.4965 Z m 0,0"
         style="fill:#000000;fill-opacity:1;fill-rule:nonzero;stroke:none" />
      <path
         id="path9"
         d="m 4.6306172,-2.2964688 c 0.2929687,0 1.03125,-0.023437 1.5234375,-0.234375 0.703125,-0.2929687 0.75,-0.890625 0.75,-1.0195312 0,-0.4453125 -0.3867188,-0.8554688 -1.0664063,-0.8554688 -1.1132812,0 -2.6132812,0.9726563 -2.6132812,2.7070313 0,1.01953125 0.5859375,1.8046875 1.5703125,1.8046875 1.4179687,0 2.2617187,-1.0546875 2.2617187,-1.171875 0,-0.058594 -0.070312,-0.1289063 -0.1289062,-0.1289063 -0.046875,0 -0.070312,0.023437 -0.1289063,0.09375 -0.7851562,0.9960938 -1.875,0.9960938 -1.9921875,0.9960938 -0.7734375,0 -0.8671875,-0.84375 -0.8671875,-1.1601563 0,-0.1171875 0.011719,-0.4335937 0.1640625,-1.03125 z m -0.46875,-0.2226562 c 0.3867187,-1.5117188 1.4179687,-1.6640625 1.6757812,-1.6640625 0.46875,0 0.7382813,0.2929687 0.7382813,0.6328125 0,1.03125 -1.59375,1.03125 -2.0039063,1.03125 z m 0,0"
         style="fill:#000000;fill-opacity:1;fill-rule:nonzero;stroke:none" />
      <path
         id="path10"
         d="m 8.9870625,-7.4761563 h -1.359375 v 0.3984375 H 8.588625 V 2.0980625 H 7.6276875 V 2.4965 h 1.359375 z m 0,0"
         style="fill:#000000;fill-opacity:1;fill-rule:nonzero;stroke:none" />
    </g>
    <path
       id="path11"
       d="m 7.5338047,-5.7527656 c 0.09375,-0.3984375 0.2695312,-0.7148438 1.0664062,-0.7382813 0.058594,0 0.1757813,-0.011719 0.1757813,-0.1992187 0,-0.011719 0,-0.1171875 -0.1289063,-0.1171875 -0.328125,0 -0.6796875,0.035156 -1.0078125,0.035156 -0.3398437,0 -0.6914062,-0.035156 -1.0195312,-0.035156 -0.058594,0 -0.1757813,0 -0.1757813,0.1992187 0,0.1171875 0.09375,0.1171875 0.1757813,0.1171875 0.5742187,0.011719 0.6796875,0.2109375 0.6796875,0.4335938 0,0.035156 -0.023437,0.1757812 -0.023437,0.2109375 l -1.125,4.4296875 -2.203125,-5.1914063 c -0.070312,-0.1875 -0.082031,-0.1992187 -0.3164063,-0.1992187 h -1.335938 c -0.1992187,0 -0.28125,0 -0.28125,0.1992187 0,0.1171875 0.082031,0.1171875 0.28125,0.1171875 0.046875,0 0.6679688,0 0.6679688,0.082031 l -1.3359375,5.3554687 c -0.09375,0.39843752 -0.2695313,0.71484377 -1.06640626,0.75000002 -0.0585938,0 -0.17578125,0 -0.17578125,0.19921875 0,0.0703125 0.046875,0.10546875 0.12890625,0.10546875 0.31640625,0 0.66796876,-0.03515625 0.99609376,-0.03515625 0.3398437,0 0.703125,0.03515625 1.03125,0.03515625 0.046875,0 0.1757812,0 0.1757812,-0.19921875 0,-0.10546875 -0.09375,-0.10546875 -0.1992187,-0.10546875 -0.5742188,-0.0234375 -0.65625,-0.24609375 -0.65625,-0.4453125 0,-0.0703125 0.011719,-0.1171875 0.035156,-0.22265625 l 1.324219,-5.26171847 c 0.035156,0.058594 0.035156,0.082031 0.082031,0.1757813 l 2.484375,5.87109372 c 0.070312,0.1640625 0.09375,0.1875 0.1875,0.1875 0.1054688,0 0.1054688,-0.03515625 0.1640625,-0.2109375 z m 0,0"
       style="fill:#000000;fill-opacity:1;fill-rule:nonzero;stroke:none"
       aria-label="N"
       transform="matrix(1.3333333,0,0,1.3333333,85.521333,184.99067)" />
    <g
       id="g11"
       aria-label="g&#10;1&#10;N"
       transform="matrix(1.3333333,0,0,1.3333333,139.08133,167.24667)">
      <path
         id="path12"
         d="m 4.6880234,-3.7504297 c 0.011719,-0.070312 0.035156,-0.1171875 0.035156,-0.1875 0,-0.1640625 -0.1171875,-0.2695312 -0.2929688,-0.2695312 -0.09375,0 -0.3632812,0.070312 -0.4101562,0.4335937 -0.1757813,-0.375 -0.5273438,-0.6328125 -0.9257813,-0.6328125 -1.1367187,0 -2.36718746,1.3945313 -2.36718746,2.8359375 0,0.98437501 0.60937496,1.5703125125 1.32421876,1.5703125125 0.5859375,0 1.0546875,-0.4687500025 1.1601562,-0.5742187525 l 0.011719,0.0117188 c -0.2109375,0.87890625 -0.328125,1.2890625 -0.328125,1.3125 -0.046875,0.0820313 -0.3867188,1.07812504 -1.4414063,1.07812504 -0.1875,0 -0.51562496,-0.011719 -0.79687496,-0.1054687 0.3046875,-0.09375 0.41015626,-0.3515625 0.41015626,-0.515625 0,-0.1640625 -0.10546876,-0.35156259 -0.37500001,-0.35156259 -0.22265625,0 -0.5390625,0.17578129 -0.5390625,0.57421879 0,0.4101563 0.36328125,0.609375 1.32421871,0.609375 1.2421875,0 1.9570313,-0.7734375 2.109375,-1.37109379 z m -1.2890625,2.4726563 c -0.058594,0.2578125 -0.2929687,0.51562496 -0.5039062,0.70312496 -0.2109375,0.17578125 -0.5273438,0.3515625 -0.8085938,0.3515625 -0.5039062,0 -0.65625,-0.515625 -0.65625,-0.91406246 0,-0.4804688 0.2929688,-1.6523438 0.5625,-2.15625 0.2695313,-0.4921875 0.703125,-0.890625 1.1132813,-0.890625 0.65625,0 0.796875,0.8085937 0.796875,0.8554687 0,0.046875 -0.011719,0.1054688 -0.023437,0.1523438 z m 0,0"
         style="fill:#000000;fill-opacity:1;fill-rule:nonzero;stroke:none" />
      <path
         id="path13"
         d="m 7.0815781,-2.9359766 c 0,-0.1875 -0.011719,-0.1992187 -0.2109375,-0.1992187 -0.4453125,0.4335937 -1.078125,0.4453125 -1.359375,0.4453125 v 0.2460937 c 0.1640625,0 0.6210938,0 1.0078125,-0.1875 v 3.55078129 c 0,0.23437501 0,0.32812501 -0.6914062,0.32812501 H 5.5581406 v 0.2460937 c 0.1289063,-0.011719 0.984375,-0.023437 1.2421875,-0.023437 0.2109375,0 1.0898438,0.011719 1.2421875,0.023437 V 1.2476172 H 7.7847031 c -0.703125,0 -0.703125,-0.09375 -0.703125,-0.32812501 z m 0,0"
         style="fill:#000000;fill-opacity:1;fill-rule:nonzero;stroke:none" />
      <path
         id="path14"
         d="m 16.755406,-5.7543359 c 0.09375,-0.3984375 0.269531,-0.7148438 1.066406,-0.7382813 0.05859,0 0.175782,-0.011719 0.175782,-0.1992187 0,-0.011719 0,-0.1171875 -0.128907,-0.1171875 -0.328125,0 -0.679687,0.035156 -1.007812,0.035156 -0.339844,0 -0.691406,-0.035156 -1.019531,-0.035156 -0.05859,0 -0.175782,0 -0.175782,0.1992187 0,0.1171875 0.09375,0.1171875 0.175782,0.1171875 0.574218,0.011719 0.679687,0.2109375 0.679687,0.4335938 0,0.035156 -0.02344,0.1757812 -0.02344,0.2109375 l -1.125,4.4296875 -2.203125,-5.1914063 c -0.07031,-0.1875 -0.08203,-0.1992187 -0.316407,-0.1992187 h -1.335937 c -0.199219,0 -0.28125,0 -0.28125,0.1992187 0,0.1171875 0.08203,0.1171875 0.28125,0.1171875 0.04687,0 0.667969,0 0.667969,0.082031 l -1.335938,5.3554687 c -0.09375,0.39843751 -0.269531,0.71484376 -1.066406,0.75000001 -0.058594,0 -0.1757813,0 -0.1757813,0.19921875 0,0.0703125 0.046875,0.1054687525 0.1289063,0.1054687525 0.316406,0 0.667969,-0.0351562525 0.996094,-0.0351562525 0.339843,0 0.703125,0.0351562525 1.03125,0.0351562525 0.04687,0 0.175781,0 0.175781,-0.1992187525 0,-0.10546875 -0.09375,-0.10546875 -0.199219,-0.10546875 -0.574219,-0.0234375 -0.65625,-0.24609375 -0.65625,-0.4453125 0,-0.0703125 0.01172,-0.1171875 0.03516,-0.22265625 L 12.442907,-6.234805 c 0.03516,0.058594 0.03516,0.082031 0.08203,0.1757813 l 2.484375,5.87109371 c 0.07031,0.1640625 0.09375,0.1875000025 0.1875,0.1875000025 0.105469,0 0.105469,-0.0351562525 0.164063,-0.2109375025 z m 0,0"
         style="fill:#000000;fill-opacity:1;fill-rule:nonzero;stroke:none" />
    </g>
    <g
       id="g14"
       aria-label="g&#10;2&#10;N"
       transform="matrix(1.3333333,0,0,1.3333333,236.408,167.24667)">
      <path
         id="path15"
         d="m 4.6861875,-3.7504297 c 0.011719,-0.070312 0.035156,-0.1171875 0.035156,-0.1875 0,-0.1640625 -0.1171875,-0.2695312 -0.2929687,-0.2695312 -0.09375,0 -0.3632813,0.070312 -0.4101563,0.4335937 -0.1757812,-0.375 -0.5273437,-0.6328125 -0.9257812,-0.6328125 -1.1367188,0 -2.3671875,1.3945313 -2.3671875,2.8359375 0,0.98437501 0.609375,1.5703125125 1.3242187,1.5703125125 0.5859375,0 1.0546875,-0.4687500025 1.1601563,-0.5742187525 l 0.011719,0.0117188 c -0.2109375,0.87890625 -0.328125,1.2890625 -0.328125,1.3125 C 2.8463437,0.83160156 2.5065,1.8276953 1.4518125,1.8276953 c -0.1875,0 -0.515625,-0.011719 -0.796875,-0.1054687 0.3046875,-0.09375 0.4101562,-0.3515625 0.4101562,-0.515625 0,-0.1640625 -0.1054687,-0.35156254 -0.37499995,-0.35156254 -0.22265625,0 -0.5390625,0.17578124 -0.5390625,0.57421874 0,0.4101563 0.36328125,0.609375 1.32421875,0.609375 1.2421875,0 1.9570312,-0.7734375 2.109375,-1.37109374 z M 3.397125,-1.2777734 c -0.058594,0.2578125 -0.2929688,0.51562496 -0.5039063,0.70312496 -0.2109375,0.17578125 -0.5273437,0.3515625 -0.8085937,0.3515625 -0.5039063,0 -0.65625,-0.515625 -0.65625,-0.91406246 0,-0.4804688 0.2929687,-1.6523438 0.5625,-2.15625 0.2695312,-0.4921875 0.703125,-0.890625 1.1132812,-0.890625 0.65625,0 0.796875,0.8085937 0.796875,0.8554687 0,0.046875 -0.011719,0.1054688 -0.023437,0.1523438 z m 0,0"
         style="fill:#000000;fill-opacity:1;fill-rule:nonzero;stroke:none" />
      <path
         id="path16"
         d="m 8.2662656,0.22808594 h -0.234375 c -0.023437,0.15234375 -0.082031,0.5625 -0.1757812,0.6328125 -0.058594,0.0351563 -0.5976563,0.0351563 -0.6914063,0.0351563 H 5.8756406 c 0.7382813,-0.64453125 0.984375,-0.84375 1.3945313,-1.171875 0.515625,-0.41015625 0.9960937,-0.84374994 0.9960937,-1.50000004 0,-0.84375 -0.7382812,-1.359375 -1.6289062,-1.359375 -0.8671875,0 -1.453125,0.609375 -1.453125,1.2421875 0,0.3632812 0.3046875,0.3984375 0.375,0.3984375 0.1640625,0 0.375,-0.1171875 0.375,-0.375 0,-0.1289063 -0.058594,-0.3632813 -0.421875,-0.3632813 0.2226562,-0.5039062 0.6914062,-0.65625 1.0195312,-0.65625 0.703125,0 1.0664063,0.5507813 1.0664063,1.1132813 0,0.609375 -0.4335938,1.08984379 -0.65625,1.33593754 l -1.6875,1.66406246 c -0.070312,0.058594 -0.070312,0.070312 -0.070312,0.2695312 h 2.8828125 z m 0,0"
         style="fill:#000000;fill-opacity:1;fill-rule:nonzero;stroke:none" />
      <path
         id="path17"
         d="m 16.7565,-5.7543359 c 0.09375,-0.3984375 0.269531,-0.7148438 1.066406,-0.7382813 0.05859,0 0.175781,-0.011719 0.175781,-0.1992187 0,-0.011719 0,-0.1171875 -0.128906,-0.1171875 -0.328125,0 -0.679687,0.035156 -1.007812,0.035156 -0.339844,0 -0.691407,-0.035156 -1.019532,-0.035156 -0.05859,0 -0.175781,0 -0.175781,0.1992187 0,0.1171875 0.09375,0.1171875 0.175781,0.1171875 0.574219,0.011719 0.679688,0.2109375 0.679688,0.4335938 0,0.035156 -0.02344,0.1757812 -0.02344,0.2109375 l -1.125,4.4296875 -2.203125,-5.1914063 c -0.07031,-0.1875 -0.08203,-0.1992187 -0.316406,-0.1992187 h -1.335937 c -0.199219,0 -0.28125,0 -0.28125,0.1992187 0,0.1171875 0.08203,0.1171875 0.28125,0.1171875 0.04687,0 0.667968,0 0.667968,0.082031 l -1.335937,5.3554687 c -0.09375,0.39843751 -0.269531,0.71484376 -1.0664063,0.75000001 -0.058594,0 -0.1757812,0 -0.1757812,0.19921875 0,0.0703125 0.046875,0.1054687525 0.1289062,0.1054687525 0.3164063,0 0.6679683,-0.0351562525 0.9960933,-0.0351562525 0.339844,0 0.703125,0.0351562525 1.03125,0.0351562525 0.04687,0 0.175782,0 0.175782,-0.1992187525 0,-0.10546875 -0.09375,-0.10546875 -0.199219,-0.10546875 -0.574219,-0.0234375 -0.65625,-0.24609375 -0.65625,-0.4453125 0,-0.0703125 0.01172,-0.1171875 0.03516,-0.22265625 L 12.444,-6.2348047 c 0.03516,0.058594 0.03516,0.082031 0.08203,0.1757813 l 2.484375,5.87109371 c 0.07031,0.1640625 0.09375,0.1875000025 0.1875,0.1875000025 0.105469,0 0.105469,-0.0351562525 0.164063,-0.2109375025 z m 0,0"
         style="fill:#000000;fill-opacity:1;fill-rule:nonzero;stroke:none" />
    </g>
    <g
       id="g17"
       aria-label="g&#10;2&#10;N"
       transform="matrix(1.3333333,0,0,1.3333333,330.48533,167.24667)">
      <path
         id="path18"
         d="m 4.6867812,-3.7504297 c 0.011719,-0.070312 0.035156,-0.1171875 0.035156,-0.1875 0,-0.1640625 -0.1171875,-0.2695312 -0.2929688,-0.2695312 -0.09375,0 -0.3632812,0.070312 -0.4101562,0.4335937 -0.1757813,-0.375 -0.5273438,-0.6328125 -0.9257813,-0.6328125 -1.1367187,0 -2.36718745,1.3945313 -2.36718745,2.8359375 0,0.98437501 0.60937495,1.5703125125 1.32421875,1.5703125125 0.5859375,0 1.0546875,-0.4687500025 1.1601562,-0.5742187525 l 0.011719,0.0117188 C 3.011,0.31597656 2.8938125,0.72613281 2.8938125,0.74957031 2.8469375,0.83160156 2.5070937,1.8276953 1.4524062,1.8276953 c -0.1875,0 -0.51562495,-0.011719 -0.79687495,-0.1054687 0.3046875,-0.09375 0.41015625,-0.3515625 0.41015625,-0.515625 0,-0.1640625 -0.10546875,-0.35156254 -0.375,-0.35156254 -0.22265625,0 -0.5390625,0.17578124 -0.5390625,0.57421874 0,0.4101563 0.36328125,0.609375 1.3242187,0.609375 1.2421875,0 1.9570313,-0.7734375 2.109375,-1.37109374 z m -1.2890625,2.4726563 c -0.058594,0.2578125 -0.2929687,0.51562496 -0.5039062,0.70312496 -0.2109375,0.17578125 -0.5273438,0.3515625 -0.8085938,0.3515625 -0.5039062,0 -0.65625,-0.515625 -0.65625,-0.91406246 0,-0.4804688 0.2929688,-1.6523438 0.5625,-2.15625 0.2695313,-0.4921875 0.703125,-0.890625 1.1132813,-0.890625 0.65625,0 0.796875,0.8085937 0.796875,0.8554687 0,0.046875 -0.011719,0.1054688 -0.023437,0.1523438 z m 0,0"
         style="fill:#000000;fill-opacity:1;fill-rule:nonzero;stroke:none" />
      <path
         id="path19"
         d="m 8.2668594,0.22808594 h -0.234375 c -0.023437,0.15234375 -0.082031,0.5625 -0.1757813,0.6328125 -0.058594,0.0351563 -0.5976562,0.0351563 -0.6914062,0.0351563 H 5.8762344 c 0.7382812,-0.64453125 0.984375,-0.84375 1.3945312,-1.171875 0.515625,-0.41015625 0.9960938,-0.84374994 0.9960938,-1.50000004 0,-0.84375 -0.7382813,-1.359375 -1.6289063,-1.359375 -0.8671875,0 -1.453125,0.609375 -1.453125,1.2421875 0,0.3632812 0.3046875,0.3984375 0.375,0.3984375 0.1640625,0 0.375,-0.1171875 0.375,-0.375 0,-0.1289063 -0.058594,-0.3632813 -0.421875,-0.3632813 0.2226563,-0.5039062 0.6914063,-0.65625 1.0195313,-0.65625 0.703125,0 1.0664062,0.5507813 1.0664062,1.1132813 0,0.609375 -0.4335937,1.08984379 -0.65625,1.33593754 l -1.6875,1.66406246 c -0.070312,0.058594 -0.070312,0.070312 -0.070312,0.2695312 h 2.8828125 z m 0,0"
         style="fill:#000000;fill-opacity:1;fill-rule:nonzero;stroke:none" />
      <path
         id="path20"
         d="m 16.757094,-5.7543359 c 0.09375,-0.3984375 0.269531,-0.7148438 1.066406,-0.7382813 0.05859,0 0.175781,-0.011719 0.175781,-0.1992187 0,-0.011719 0,-0.1171875 -0.128906,-0.1171875 -0.328125,0 -0.679688,0.035156 -1.007813,0.035156 -0.339843,0 -0.691406,-0.035156 -1.019531,-0.035156 -0.05859,0 -0.175781,0 -0.175781,0.1992187 0,0.1171875 0.09375,0.1171875 0.175781,0.1171875 0.574219,0.011719 0.679688,0.2109375 0.679688,0.4335938 0,0.035156 -0.02344,0.1757812 -0.02344,0.2109375 l -1.125,4.4296875 -2.203125,-5.1914063 c -0.07031,-0.1875 -0.08203,-0.1992187 -0.316406,-0.1992187 H 11.51881 c -0.199218,0 -0.28125,0 -0.28125,0.1992187 0,0.1171875 0.08203,0.1171875 0.28125,0.1171875 0.04687,0 0.667969,0 0.667969,0.082031 l -1.335937,5.3554687 c -0.09375,0.39843751 -0.269532,0.71484376 -1.0664065,0.75000001 -0.058594,0 -0.1757813,0 -0.1757813,0.19921875 0,0.0703125 0.046875,0.1054687525 0.1289063,0.1054687525 0.3164065,0 0.6679685,-0.0351562525 0.9960935,-0.0351562525 0.339844,0 0.703125,0.0351562525 1.03125,0.0351562525 0.04687,0 0.175781,0 0.175781,-0.1992187525 0,-0.10546875 -0.09375,-0.10546875 -0.199218,-0.10546875 -0.574219,-0.0234375 -0.65625,-0.24609375 -0.65625,-0.4453125 0,-0.0703125 0.01172,-0.1171875 0.03516,-0.22265625 L 12.444596,-6.234805 c 0.03516,0.058594 0.03516,0.082031 0.08203,0.1757813 L 15.011,-0.18792969 c 0.07031,0.1640625 0.09375,0.1875000025 0.1875,0.1875000025 0.105469,0 0.105469,-0.0351562525 0.164062,-0.2109375025 z m 0,0"
         style="fill:#000000;fill-opacity:1;fill-rule:nonzero;stroke:none" />
    </g>
    <g
       id="g20"
       aria-label="[n]"
       transform="matrix(1.3333333,0,0,1.3333333,38.646667,51.309333)">
      <path
         id="path21"
         d="M 2.5442969,2.4955391 V 2.0971016 H 1.5716406 V -7.0786797 H 2.5442969 V -7.4771172 H 1.1732031 v 9.9726563 z m 0,0"
         style="fill:#000000;fill-opacity:1;fill-rule:nonzero;stroke:none" />
      <path
         id="path22"
         d="m 3.6458594,-0.58649219 c -0.035156,0.15234375 -0.09375,0.375 -0.09375,0.421875 0,0.1875 0.140625,0.26953125 0.2929687,0.26953125 0.1171875,0 0.2929688,-0.0703125 0.3632813,-0.26953125 0.011719,-0.0234375 0.1289062,-0.4921875 0.1875,-0.73828125 L 4.6185156,-1.8052422 c 0.058594,-0.2226562 0.1171875,-0.4335937 0.1757813,-0.6679687 0.035156,-0.1640625 0.1171875,-0.4570313 0.1289062,-0.4921875 0.140625,-0.3164063 0.6679688,-1.21875 1.6171875,-1.21875 0.4453125,0 0.5390625,0.3632812 0.5390625,0.6914062 0,0.6210938 -0.4921875,1.8984375 -0.6445312,2.3320313 -0.09375,0.22265621 -0.1054688,0.33984371 -0.1054688,0.45703121 0,0.46875 0.3515625,0.80859375 0.8203125,0.80859375 0.9375,0 1.3007813,-1.45312496 1.3007813,-1.53515626 0,-0.09375 -0.082031,-0.09375 -0.1171875,-0.09375 -0.09375,0 -0.09375,0.023437 -0.1523438,0.1757813 -0.1992187,0.67968746 -0.5273437,1.24218746 -1.0078125,1.24218746 -0.1757812,0 -0.2460937,-0.10546875 -0.2460937,-0.328125 0,-0.2578125 0.09375,-0.4921875 0.1875,-0.71484376 0.1875,-0.5273437 0.5976562,-1.6171875 0.5976562,-2.1914062 0,-0.6679688 -0.421875,-1.0664063 -1.1367187,-1.0664063 -0.9023438,0 -1.3828125,0.6445313 -1.5585938,0.8671875 -0.046875,-0.5507812 -0.4570312,-0.8671875 -0.9140625,-0.8671875 -0.4570312,0 -0.6445312,0.3867188 -0.75,0.5742188 -0.1523437,0.3398437 -0.2929687,0.9257812 -0.2929687,0.9609375 0,0.1054687 0.09375,0.1054687 0.1171875,0.1054687 0.09375,0 0.1054687,-0.011719 0.1640625,-0.234375 0.1757812,-0.703125 0.375,-1.1835937 0.7265625,-1.1835937 0.1992187,0 0.3164062,0.1289062 0.3164062,0.4570312 0,0.2109375 -0.035156,0.3164063 -0.1640625,0.8320313 z m 0,0"
         style="fill:#000000;fill-opacity:1;fill-rule:nonzero;stroke:none" />
      <path
         id="path23"
         d="M 10.328477,-7.4771172 H 8.9691016 v 0.3984375 H 9.9300391 V 2.0971016 H 8.9691016 v 0.3984375 h 1.3593754 z m 0,0"
         style="fill:#000000;fill-opacity:1;fill-rule:nonzero;stroke:none" />
    </g>
    <g
       id="g23"
       aria-label="[n&#10;′&#10;]"
       transform="matrix(1.3333333,0,0,1.3333333,48.609333,101.81067)">
      <path
         id="path24"
         d="M 2.543,2.4974687 V 2.0990312 H 1.5703437 V -7.07675 H 2.543 V -7.4751875 H 1.1719062 v 9.9726562 z m 0,0"
         style="fill:#000000;fill-opacity:1;fill-rule:nonzero;stroke:none" />
      <path
         id="path25"
         d="m 3.6445625,-0.5845625 c -0.035156,0.15234375 -0.09375,0.375 -0.09375,0.421875 0,0.1875 0.140625,0.26953125 0.2929687,0.26953125 0.1171875,0 0.2929688,-0.0703125 0.3632813,-0.26953125 0.011719,-0.0234375 0.1289062,-0.4921875 0.1875,-0.73828125 L 4.6172187,-1.8033125 C 4.6758125,-2.0259688 4.7344062,-2.2369063 4.793,-2.4712813 c 0.035156,-0.1640625 0.1171875,-0.4570312 0.1289062,-0.4921875 0.140625,-0.3164062 0.6679688,-1.21875 1.6171875,-1.21875 0.4453125,0 0.5390625,0.3632813 0.5390625,0.6914063 0,0.6210937 -0.4921875,1.8984375 -0.6445312,2.3320312 -0.09375,0.2226563 -0.1054688,0.3398438 -0.1054688,0.4570313 0,0.46875 0.3515625,0.80859375 0.8203125,0.80859375 0.9375,0 1.3007813,-1.45312505 1.3007813,-1.53515625 0,-0.09375 -0.082031,-0.09375 -0.1171875,-0.09375 -0.09375,0 -0.09375,0.023437 -0.1523438,0.1757812 -0.1992187,0.67968755 -0.5273437,1.24218755 -1.0078125,1.24218755 -0.1757812,0 -0.2460937,-0.10546875 -0.2460937,-0.328125 0,-0.2578125 0.09375,-0.4921875 0.1875,-0.71484375 0.1875,-0.5273438 0.5976562,-1.6171875 0.5976562,-2.1914063 0,-0.6679687 -0.421875,-1.0664062 -1.1367187,-1.0664062 -0.9023438,0 -1.3828125,0.6445312 -1.5585938,0.8671875 C 4.9687812,-4.0884688 4.558625,-4.404875 4.1015937,-4.404875 c -0.4570312,0 -0.6445312,0.3867187 -0.75,0.5742187 C 3.19925,-3.4908125 3.058625,-2.904875 3.058625,-2.8697188 c 0,0.1054688 0.09375,0.1054688 0.1171875,0.1054688 0.09375,0 0.1054687,-0.011719 0.1640625,-0.234375 0.1757812,-0.703125 0.375,-1.1835938 0.7265625,-1.1835938 0.1992187,0 0.3164062,0.1289063 0.3164062,0.4570313 0,0.2109375 -0.035156,0.3164062 -0.1640625,0.8320312 z m 0,0"
         style="fill:#000000;fill-opacity:1;fill-rule:nonzero;stroke:none" />
      <path
         id="path26"
         d="m 10.775422,-7.4078047 c 0.04687,-0.1171875 0.05859,-0.1757812 0.05859,-0.2226562 0,-0.2109375 -0.199219,-0.3867188 -0.410157,-0.3867188 -0.269531,0 -0.351562,0.2226563 -0.386718,0.328125 l -0.9140629,3.0234375 c -0.011719,0.011719 -0.035156,0.1054688 -0.035156,0.1171875 0,0.082031 0.2109375,0.1523438 0.2695312,0.1523438 0.046875,0 0.058594,-0.023437 0.1054688,-0.1289063 z m 0,0"
         style="fill:#000000;fill-opacity:1;fill-rule:nonzero;stroke:none" />
      <path
         id="path27"
         d="M 13.125031,-7.4751875 H 11.765656 V -7.07675 h 0.960938 v 9.1757812 h -0.960938 v 0.3984375 h 1.359375 z m 0,0"
         style="fill:#000000;fill-opacity:1;fill-rule:nonzero;stroke:none" />
    </g>
    <path
       id="path28"
       d="m 1.9104531,-2.4973359 c 0,-0.28125 -0.234375,-0.5273438 -0.5273437,-0.5273438 -0.28125,0 -0.52734378,0.2460938 -0.52734378,0.5273438 0,0.2929687 0.24609378,0.5390625 0.52734378,0.5390625 0.2929687,0 0.5273437,-0.2460938 0.5273437,-0.5390625 z m 4.4121094,0 c 0,-0.28125 -0.234375,-0.5273438 -0.5273438,-0.5273438 -0.28125,0 -0.5273437,0.2460938 -0.5273437,0.5273438 0,0.2929687 0.2460937,0.5390625 0.5273437,0.5390625 0.2929688,0 0.5273438,-0.2460938 0.5273438,-0.5390625 z m 4.4238285,0 c 0,-0.28125 -0.234375,-0.5273438 -0.527344,-0.5273438 -0.2812501,0 -0.5273439,0.2460938 -0.5273439,0.5273438 0,0.2929687 0.2460938,0.5390625 0.5273439,0.5390625 0.292969,0 0.527344,-0.2460938 0.527344,-0.5390625 z m 0,0"
       style="fill:#000000;fill-opacity:1;fill-rule:nonzero;stroke:none"
       aria-label="···"
       transform="matrix(1.3333333,0,0,1.3333333,67.538667,139.904)" />
  </g>
</svg>
