<?xml version="1.0" encoding="UTF-8" standalone="no"?>
<!-- Created with Inkscape (http://www.inkscape.org/) -->

<svg
   version="1.1"
   id="svg1"
   width="252.61333"
   height="198.88"
   viewBox="0 0 252.61333 198.88"
   sodipodi:docname="poles.pdf"
   xmlns:inkscape="http://www.inkscape.org/namespaces/inkscape"
   xmlns:sodipodi="http://sodipodi.sourceforge.net/DTD/sodipodi-0.dtd"
   xmlns="http://www.w3.org/2000/svg"
   xmlns:svg="http://www.w3.org/2000/svg">
  <defs
     id="defs1" />
  <sodipodi:namedview
     id="namedview1"
     pagecolor="#ffffff"
     bordercolor="#000000"
     borderopacity="0.25"
     inkscape:showpageshadow="2"
     inkscape:pageopacity="0.0"
     inkscape:pagecheckerboard="0"
     inkscape:deskcolor="#d1d1d1">
    <inkscape:page
       x="0"
       y="0"
       inkscape:label="1"
       id="page1"
       width="252.61333"
       height="198.88"
       margin="0"
       bleed="0" />
  </sodipodi:namedview>
  <g
     id="g1"
     inkscape:groupmode="layer"
     inkscape:label="1">
    <path
       id="path1"
       d="m 74.63857,-227.52472 26.19709,37.10634"
       style="fill:none;stroke:#9b9b9b;stroke-width:0.74721;stroke-linecap:butt;stroke-linejoin:miter;stroke-miterlimit:10;stroke-dasharray:none;stroke-opacity:1"
       transform="matrix(1.3333333,0,0,-1.3333333,-79.262667,-104.98)" />
    <path
       id="path2"
       d="m 169.66096,-107.8071 c 0,0 0,0 0,0 0,-5.5144 -18.99403,-9.9827 -42.42646,-9.9827 -23.43244,0 -42.42644,4.4683 -42.42644,9.9827 h 42.42644 z"
       style="fill:none;stroke:#000000;stroke-width:0.74721;stroke-linecap:butt;stroke-linejoin:miter;stroke-miterlimit:10;stroke-dasharray:none;stroke-opacity:0"
       transform="matrix(1.3333333,0,0,-1.3333333,-79.262667,-104.98)" />
    <path
       id="path3"
       d="m 169.66096,-107.8071 c 0,0 0,0 0,0 0,-5.5144 -18.99403,-9.9827 -42.42646,-9.9827 -23.43244,0 -42.42644,4.4683 -42.42644,9.9827"
       style="fill:none;stroke:#4a90e2;stroke-width:0.74721;stroke-linecap:butt;stroke-linejoin:miter;stroke-miterlimit:10;stroke-dasharray:none;stroke-opacity:1"
       transform="matrix(1.3333333,0,0,-1.3333333,-79.262667,-104.98)" />
    <path
       id="path4"
       d="m 63.51265,-153.31953 c 0,35.0814 28.43872,63.52012 63.51265,63.52012 35.08139,0 63.51265,-28.43872 63.51265,-63.52012 0,-35.07393 -28.43126,-63.51265 -63.51265,-63.51265 -35.07393,0 -63.51265,28.43872 -63.51265,63.51265 z"
       style="fill:#4a90e2;fill-opacity:0.1;fill-rule:nonzero;stroke:#4a90e2;stroke-width:1.49442;stroke-linecap:butt;stroke-linejoin:miter;stroke-miterlimit:10;stroke-dasharray:none;stroke-opacity:1"
       transform="matrix(1.3333333,0,0,-1.3333333,-79.262667,-104.98)" />
    <path
       id="path5"
       d="m 63.51265,-153.31953 c 0,8.25665 28.43872,14.94415 63.51265,14.94415 35.08139,0 63.51265,-6.6875 63.51265,-14.94415 0,-8.24915 -28.43126,-14.94416 -63.51265,-14.94416 -35.07393,0 -63.51265,6.69501 -63.51265,14.94416 z"
       style="fill:none;stroke:#4a90e2;stroke-width:0.74721;stroke-linecap:butt;stroke-linejoin:miter;stroke-miterlimit:10;stroke-dasharray:4.48325, 4.48325;stroke-dashoffset:0;stroke-opacity:1"
       transform="matrix(1.3333333,0,0,-1.3333333,-79.262667,-104.98)" />
    <path
       id="path6"
       d="m 127.0253,-153.31953 26.1971,37.10633"
       style="fill:none;stroke:#9b9b9b;stroke-width:0.74721;stroke-linecap:butt;stroke-linejoin:miter;stroke-miterlimit:10;stroke-dasharray:none;stroke-opacity:1"
       transform="matrix(1.3333333,0,0,-1.3333333,-79.262667,-104.98)" />
    <path
       id="path7"
       d="m 84.80806,-107.8071 c 0,5.51439 18.994,9.9827 42.42644,9.9827 23.43243,0 42.42646,-4.46831 42.42646,-9.9827 0,-5.5144 -18.99403,-9.9827 -42.42646,-9.9827 -23.43244,0 -42.42644,4.4683 -42.42644,9.9827 z"
       style="fill:none;stroke:#4a90e2;stroke-width:0.74721;stroke-linecap:butt;stroke-linejoin:miter;stroke-miterlimit:10;stroke-dasharray:4.48325, 4.48325;stroke-dashoffset:0;stroke-opacity:1"
       transform="matrix(1.3333333,0,0,-1.3333333,-79.262667,-104.98)" />
    <path
       id="path8"
       d="m 190.53795,-153.31953 c 0,0 0,0 0,0 0,-8.24915 -28.43126,-14.94416 -63.51265,-14.94416 -35.07393,0 -63.51265,6.69501 -63.51265,14.94416 h 63.51265 z"
       style="fill:none;stroke:#000000;stroke-width:0.74721;stroke-linecap:butt;stroke-linejoin:miter;stroke-miterlimit:10;stroke-dasharray:none;stroke-opacity:0"
       transform="matrix(1.3333333,0,0,-1.3333333,-79.262667,-104.98)" />
    <path
       id="path9"
       d="m 190.53795,-153.31953 c 0,0 0,0 0,0 0,-8.24915 -28.43126,-14.94416 -63.51265,-14.94416 -35.07393,0 -63.51265,6.69501 -63.51265,14.94416"
       style="fill:none;stroke:#4a90e2;stroke-width:0.74721;stroke-linecap:butt;stroke-linejoin:miter;stroke-miterlimit:10;stroke-dasharray:none;stroke-opacity:1"
       transform="matrix(1.3333333,0,0,-1.3333333,-79.262667,-104.98)" />
    <path
       id="path10"
       d="m 153.2224,-116.2132 26.1971,37.10634"
       style="fill:none;stroke:#9b9b9b;stroke-width:0.74721;stroke-linecap:butt;stroke-linejoin:miter;stroke-miterlimit:10;stroke-dasharray:none;stroke-opacity:1"
       transform="matrix(1.3333333,0,0,-1.3333333,-79.262667,-104.98)" />
    <path
       id="path11"
       d="m 100.83566,-190.41838 26.18964,37.09885"
       style="fill:none;stroke:#9b9b9b;stroke-width:0.74721;stroke-linecap:butt;stroke-linejoin:miter;stroke-miterlimit:10;stroke-dasharray:none;stroke-opacity:1"
       transform="matrix(1.3333333,0,0,-1.3333333,-79.262667,-104.98)" />
    <path
       id="path12"
       d="m 84.80806,-198.59283 c 0,5.5144 18.994,9.98269 42.42644,9.98269 23.43243,0 42.42646,-4.46829 42.42646,-9.98269 0,-5.51439 -18.99403,-9.9827 -42.42646,-9.9827 -23.43244,0 -42.42644,4.46831 -42.42644,9.9827 z"
       style="fill:none;stroke:#4a90e2;stroke-width:0.74721;stroke-linecap:butt;stroke-linejoin:miter;stroke-miterlimit:10;stroke-dasharray:4.48325, 4.48325;stroke-dashoffset:0;stroke-opacity:1"
       transform="matrix(1.3333333,0,0,-1.3333333,-79.262667,-104.98)" />
    <path
       id="path13"
       d="m 169.66096,-198.59283 c 0,0 0,0 0,0 0,-5.51439 -18.99403,-9.9827 -42.42646,-9.9827 -23.43244,0 -42.42644,4.46831 -42.42644,9.9827 h 42.42644 z"
       style="fill:none;stroke:#000000;stroke-width:0.74721;stroke-linecap:butt;stroke-linejoin:miter;stroke-miterlimit:10;stroke-dasharray:none;stroke-opacity:0"
       transform="matrix(1.3333333,0,0,-1.3333333,-79.262667,-104.98)" />
    <path
       id="path14"
       d="m 169.66096,-198.59283 c 0,0 0,0 0,0 0,-5.51439 -18.99403,-9.9827 -42.42646,-9.9827 -23.43244,0 -42.42644,4.46831 -42.42644,9.9827"
       style="fill:none;stroke:#4a90e2;stroke-width:0.74721;stroke-linecap:butt;stroke-linejoin:miter;stroke-miterlimit:10;stroke-dasharray:none;stroke-opacity:1"
       transform="matrix(1.3333333,0,0,-1.3333333,-79.262667,-104.98)" />
    <path
       id="path15"
       d="m 125.15727,-153.31953 c 0,1.03115 0.83687,1.86803 1.86803,1.86803 1.03114,0 1.86801,-0.83688 1.86801,-1.86803 0,-1.03115 -0.83687,-1.86802 -1.86801,-1.86802 -1.03116,0 -1.86803,0.83687 -1.86803,1.86802 z"
       style="fill:#000000;fill-opacity:1;fill-rule:nonzero;stroke:#000000;stroke-width:0.74721;stroke-linecap:butt;stroke-linejoin:miter;stroke-miterlimit:10;stroke-dasharray:none;stroke-opacity:1"
       transform="matrix(1.3333333,0,0,-1.3333333,-79.262667,-104.98)" />
    <path
       id="path16"
       d="m 151.35437,-116.2132 c 0,1.03116 0.83687,1.86803 1.86803,1.86803 1.03114,0 1.86801,-0.83687 1.86801,-1.86803 0,-1.03114 -0.83687,-1.868 -1.86801,-1.868 -1.03116,0 -1.86803,0.83686 -1.86803,1.868 z"
       style="fill:#9013fe;fill-opacity:1;fill-rule:nonzero;stroke:#9013fe;stroke-width:0.74721;stroke-linecap:butt;stroke-linejoin:miter;stroke-miterlimit:10;stroke-dasharray:none;stroke-opacity:1"
       transform="matrix(1.3333333,0,0,-1.3333333,-79.262667,-104.98)" />
    <path
       id="path17"
       d="m 98.96764,-190.41838 c 0,1.03114 0.8294,1.86803 1.86802,1.86803 1.03114,0 1.86801,-0.83689 1.86801,-1.86803 0,-1.03861 -0.83687,-1.86801 -1.86801,-1.86801 -1.03862,0 -1.86802,0.8294 -1.86802,1.86801 z"
       style="fill:#9013fe;fill-opacity:1;fill-rule:nonzero;stroke:#9013fe;stroke-width:0.74721;stroke-linecap:butt;stroke-linejoin:miter;stroke-miterlimit:10;stroke-dasharray:none;stroke-opacity:1"
       transform="matrix(1.3333333,0,0,-1.3333333,-79.262667,-104.98)" />
    <path
       id="path18"
       d="m 127.0253,-153.31953 -34.96933,28.19215"
       style="fill:none;stroke:#9b9b9b;stroke-width:0.74721;stroke-linecap:butt;stroke-linejoin:miter;stroke-miterlimit:10;stroke-dasharray:none;stroke-opacity:1"
       transform="matrix(1.3333333,0,0,-1.3333333,-79.262667,-104.98)" />
    <path
       id="path19"
       d="m 106.9254,-138.47252 c 0,1.03116 0.83687,1.86803 1.86803,1.86803 1.03112,0 1.86801,-0.83687 1.86801,-1.86803 0,-1.03862 -0.83689,-1.86801 -1.86801,-1.86801 -1.03116,0 -1.86803,0.82939 -1.86803,1.86801 z"
       style="fill:#8b572a;fill-opacity:1;fill-rule:nonzero;stroke:#8b572a;stroke-width:0.74721;stroke-linecap:butt;stroke-linejoin:miter;stroke-miterlimit:10;stroke-dasharray:none;stroke-opacity:1"
       transform="matrix(1.3333333,0,0,-1.3333333,-79.262667,-104.98)" />
    <path
       id="path20"
       d="m 162.00208,-181.5042 -34.97678,28.18467"
       style="fill:none;stroke:#9b9b9b;stroke-width:0.74721;stroke-linecap:butt;stroke-linejoin:miter;stroke-miterlimit:10;stroke-dasharray:none;stroke-opacity:1"
       transform="matrix(1.3333333,0,0,-1.3333333,-79.262667,-104.98)" />
    <path
       id="path21"
       d="m 142.64192,-167.41185 c 0,1.03115 0.83688,1.86801 1.86801,1.86801 1.03862,0 1.86803,-0.83686 1.86803,-1.86801 0,-1.03116 -0.82941,-1.86803 -1.86803,-1.86803 -1.03113,0 -1.86801,0.83687 -1.86801,1.86803 z"
       style="fill:#8b572a;fill-opacity:1;fill-rule:nonzero;stroke:#8b572a;stroke-width:0.74721;stroke-linecap:butt;stroke-linejoin:miter;stroke-miterlimit:10;stroke-dasharray:none;stroke-opacity:1"
       transform="matrix(1.3333333,0,0,-1.3333333,-79.262667,-104.98)" />
    <g
       id="g21"
       aria-label="N&#10;g"
       transform="matrix(1.3333333,0,0,1.3333333,128.52133,63.929333)">
      <path
         id="path22"
         d="m 7.5338047,-5.7536406 c 0.09375,-0.3984375 0.2695312,-0.7148438 1.0664062,-0.7382813 0.058594,0 0.1757813,-0.011719 0.1757813,-0.1992187 0,-0.011719 0,-0.1171875 -0.1289063,-0.1171875 -0.328125,0 -0.6796875,0.035156 -1.0078125,0.035156 -0.3398437,0 -0.6914062,-0.035156 -1.0195312,-0.035156 -0.058594,0 -0.1757813,0 -0.1757813,0.1992187 0,0.1171875 0.09375,0.1171875 0.1757813,0.1171875 0.5742187,0.011719 0.6796875,0.2109375 0.6796875,0.4335938 0,0.035156 -0.023437,0.1757812 -0.023437,0.2109375 l -1.125,4.4296875 -2.203125,-5.1914063 c -0.070312,-0.1875 -0.082031,-0.1992187 -0.3164063,-0.1992187 h -1.335938 c -0.1992187,0 -0.28125,0 -0.28125,0.1992187 0,0.1171875 0.082031,0.1171875 0.28125,0.1171875 0.046875,0 0.6679688,0 0.6679688,0.082031 l -1.3359375,5.3554687 c -0.09375,0.39843753 -0.2695313,0.71484378 -1.06640626,0.75000003 -0.0585938,0 -0.17578125,0 -0.17578125,0.19921875 0,0.0703125 0.046875,0.105468745 0.12890625,0.105468745 0.31640625,0 0.66796876,-0.035156245 0.99609376,-0.035156245 0.3398437,0 0.703125,0.035156245 1.03125,0.035156245 0.046875,0 0.1757812,0 0.1757812,-0.199218745 0,-0.10546875 -0.09375,-0.10546875 -0.1992187,-0.10546875 -0.5742188,-0.0234375 -0.65625,-0.24609375 -0.65625,-0.4453125 0,-0.0703125 0.011719,-0.1171875 0.035156,-0.22265625 l 1.324219,-5.26171848 c 0.035156,0.058594 0.035156,0.082031 0.082031,0.1757813 l 2.484375,5.87109373 c 0.070312,0.1640625 0.09375,0.187499995 0.1875,0.187499995 0.1054688,0 0.1054688,-0.035156245 0.1640625,-0.210937495 z m 0,0"
         style="fill:#9013fe;fill-opacity:1;fill-rule:nonzero;stroke:none" />
      <path
         id="path23"
         d="m 11.720328,-1.0837187 c 0.02344,-0.09375 0.02344,-0.1289063 0.02344,-0.140625 0,-0.1523438 -0.128907,-0.2226563 -0.234375,-0.2226563 -0.164063,0 -0.292969,0.1289063 -0.328125,0.2695313 -0.117188,-0.1992188 -0.351563,-0.3984375 -0.714844,-0.3984375 -0.8671876,0 -1.7812501,0.9257812 -1.7812501,1.92187495 0,0.72656255 0.4804687,1.14843755 1.0546875,1.14843755 0.3281246,0 0.6328126,-0.1640625 0.8789066,-0.375 L 10.454703,1.7405 C 10.384391,2.0334688 10.337516,2.2209688 10.067984,2.4670625 9.7632969,2.724875 9.4586094,2.724875 9.2828281,2.724875 8.9664219,2.724875 8.8726719,2.7014375 8.7554844,2.678 8.9312656,2.58425 8.9781406,2.4201875 8.9781406,2.3264375 c 0,-0.1640625 -0.140625,-0.2578125 -0.2695312,-0.2578125 -0.1992188,0 -0.3984375,0.1523438 -0.3984375,0.421875 0,0.421875 0.5976562,0.421875 0.984375,0.421875 1.0898441,0 1.5585941,-0.5507812 1.6640621,-0.9492187 z M 10.747672,0.568625 c -0.02344,0.10546875 -0.02344,0.1171875 -0.140625,0.2578125 -0.246094,0.2929688 -0.574219,0.46875 -0.8437501,0.46875 -0.3515625,0 -0.5273438,-0.2929687 -0.5273438,-0.65625 0,-0.3046875 0.1875,-1.08984375 0.375,-1.39453125 0.2929688,-0.49218745 0.6210939,-0.63281245 0.8554689,-0.63281245 0.492187,0 0.621094,0.5273437 0.621094,0.5976562 0,0.0117188 0,0.0234375 -0.02344,0.10546875 z m 0,0"
         style="fill:#9013fe;fill-opacity:1;fill-rule:nonzero;stroke:none" />
    </g>
    <g
       id="g23"
       aria-label="S&#10;g"
       transform="matrix(1.3333333,0,0,1.3333333,37.372,140.22933)">
      <path
         id="path24"
         d="m 6.4211953,-6.9249297 c 0,-0.023437 -0.011719,-0.09375 -0.1054687,-0.09375 -0.046875,0 -0.058594,0.011719 -0.1757813,0.140625 l -0.4804687,0.5742188 c -0.2578125,-0.46875 -0.7734375,-0.7148438 -1.4296875,-0.7148438 -1.265625,0 -2.4609375,1.1367188 -2.4609375,2.34375 0,0.8085938 0.5273437,1.265625 1.0429687,1.4179688 l 1.0664063,0.28125 c 0.3632812,0.082031 0.9140625,0.234375 0.9140625,1.0546875 0,0.890625 -0.8203125,1.82812496 -1.7929688,1.82812496 -0.6445312,0 -1.7460937,-0.2109375 -1.7460937,-1.45312496 0,-0.234375 0.046875,-0.4804688 0.058594,-0.5390625 0.011719,-0.035156 0.023437,-0.046875 0.023437,-0.070312 0,-0.09375 -0.070312,-0.1054688 -0.1171875,-0.1054688 -0.058594,0 -0.070312,0.011719 -0.1054687,0.035156 -0.035156,0.046875 -0.59765629,2.32031246 -0.59765629,2.34374996 0,0.0585938 0.046875,0.10546875 0.1171875,0.10546875 0.046875,0 0.0585938,-0.0117188 0.17578125,-0.15234375 L 1.3001016,-0.50305469 c 0.421875,0.5859375 1.1015625,0.7265625 1.6757812,0.7265625 1.359375,0 2.53125,-1.32421871 2.53125,-2.56640621 0,-0.6796875 -0.3398437,-1.0195313 -0.4921875,-1.1601563 -0.2226562,-0.234375 -0.375,-0.2695312 -1.265625,-0.5039062 -0.2109375,-0.058594 -0.5742187,-0.1523438 -0.65625,-0.1757813 -0.2695312,-0.09375 -0.609375,-0.375 -0.609375,-0.9023437 0,-0.8085938 0.796875,-1.6523438 1.734375,-1.6523438 0.8320313,0 1.4414063,0.421875 1.4414063,1.5351563 0,0.3164062 -0.046875,0.5039062 -0.046875,0.5625 0,0.011719 0,0.09375 0.1289062,0.09375 0.09375,0 0.1054688,-0.023437 0.140625,-0.1992188 z m 0,0"
         style="fill:#9013fe;fill-opacity:1;fill-rule:nonzero;stroke:none" />
      <path
         id="path25"
         d="M 9.8225625,-1.0831328 C 9.846,-1.1768828 9.846,-1.2120391 9.846,-1.2237578 c 0,-0.1523438 -0.1289062,-0.2226563 -0.234375,-0.2226563 -0.1640625,0 -0.2929687,0.1289063 -0.328125,0.2695313 -0.1171875,-0.1992188 -0.3515625,-0.3984375 -0.7148437,-0.3984375 -0.8671875,0 -1.78125,0.92578124 -1.78125,1.92187499 0,0.72656251 0.4804687,1.14843751 1.0546875,1.14843751 0.328125,0 0.6328125,-0.1640625 0.8789062,-0.375 L 8.5569375,1.7410859 C 8.486625,2.0340547 8.43975,2.2215547 8.1702188,2.4676484 7.8655313,2.7254609 7.5608438,2.7254609 7.3850625,2.7254609 c -0.3164062,0 -0.4101562,-0.023437 -0.5273437,-0.046875 C 7.0335,2.5848359 7.080375,2.4207734 7.080375,2.3270234 c 0,-0.1640625 -0.140625,-0.2578125 -0.2695312,-0.2578125 -0.1992188,0 -0.3984375,0.1523438 -0.3984375,0.421875 0,0.421875 0.5976562,0.421875 0.984375,0.421875 1.0898437,0 1.5585937,-0.5507812 1.6640625,-0.9492187 z M 8.8499063,0.56921094 c -0.023437,0.10546875 -0.023437,0.1171875 -0.140625,0.2578125 -0.2460938,0.29296876 -0.5742188,0.46874996 -0.84375,0.46874996 -0.3515625,0 -0.5273438,-0.2929687 -0.5273438,-0.65624996 0,-0.3046875 0.1875,-1.08984375 0.375,-1.39453125 0.2929688,-0.49218749 0.6210938,-0.63281249 0.8554688,-0.63281249 0.4921875,0 0.6210937,0.52734374 0.6210937,0.59765624 0,0.0117188 0,0.0234375 -0.023437,0.10546875 z m 0,0"
         style="fill:#9013fe;fill-opacity:1;fill-rule:nonzero;stroke:none" />
    </g>
    <g
       id="g25"
       aria-label="g∈G&lt;SO(3)"
       transform="matrix(1.3333333,0,0,1.3333333,164.028,18.668)">
      <path
         id="path26"
         d="m 4.6870078,-3.7500234 c 0.011719,-0.070312 0.035156,-0.1171875 0.035156,-0.1875 0,-0.1640625 -0.1171875,-0.2695313 -0.2929688,-0.2695313 -0.09375,0 -0.3632812,0.070312 -0.4101562,0.4335938 -0.1757813,-0.375 -0.5273438,-0.6328125 -0.9257813,-0.6328125 -1.1367187,0 -2.36718749,1.3945312 -2.36718749,2.8359375 0,0.98437496 0.60937499,1.5703124625 1.32421879,1.5703124625 0.5859375,0 1.0546875,-0.4687500025 1.1601562,-0.5742187525 l 0.011719,0.0117188 c -0.2109375,0.87890625 -0.328125,1.2890625 -0.328125,1.3125 -0.046875,0.0820313 -0.3867188,1.07812509 -1.4414063,1.07812509 -0.1875,0 -0.51562499,-0.011719 -0.79687499,-0.1054688 0.3046875,-0.09375 0.41015629,-0.3515625 0.41015629,-0.515625 0,-0.1640625 -0.10546879,-0.35156254 -0.37500004,-0.35156254 -0.22265625,0 -0.5390625,0.17578134 -0.5390625,0.57421884 0,0.4101562 0.36328125,0.609375 1.32421874,0.609375 1.2421875,0 1.9570313,-0.7734375 2.109375,-1.37109384 z m -1.2890625,2.4726562 c -0.058594,0.2578125 -0.2929687,0.51562501 -0.5039062,0.70312501 -0.2109375,0.17578125 -0.5273438,0.3515625 -0.8085938,0.3515625 -0.5039062,0 -0.65625,-0.515625 -0.65625,-0.91406251 0,-0.4804687 0.2929688,-1.6523437 0.5625,-2.15625 0.2695313,-0.4921875 0.703125,-0.890625 1.1132813,-0.890625 0.65625,0 0.796875,0.8085938 0.796875,0.8554688 0,0.046875 -0.011719,0.1054687 -0.023437,0.1523437 z m 0,0"
         style="fill:#808080;fill-opacity:1;fill-rule:nonzero;stroke:none" />
      <path
         id="path27"
         d="m 13.338375,-2.2968984 c 0.164063,0 0.351563,0 0.351563,-0.1992188 0,-0.1992187 -0.1875,-0.1992187 -0.351563,-0.1992187 H 9.1079063 c 0.1289062,-1.3242188 1.2656247,-2.2851563 2.6718747,-2.2851563 h 1.558594 c 0.164063,0 0.351563,0 0.351563,-0.1992187 0,-0.1992188 -0.1875,-0.1992188 -0.351563,-0.1992188 h -1.570312 c -1.710938,0 -3.0585942,1.2890625 -3.0585942,2.8828125 0,1.59375001 1.3476562,2.89453126 3.0585942,2.89453126 h 1.570312 c 0.164063,0 0.351563,0 0.351563,-0.19921875 0,-0.1992187475 -0.1875,-0.1992187475 -0.351563,-0.1992187475 h -1.558594 c -1.40625,0 -2.5429685,-0.9609375025 -2.6718747,-2.2968749625 z m 0,0"
         style="fill:#808080;fill-opacity:1;fill-rule:nonzero;stroke:none" />
      <path
         id="path28"
         d="m 24.854977,-6.9258047 c 0,-0.023437 -0.02344,-0.09375 -0.105469,-0.09375 -0.03516,0 -0.04687,0.011719 -0.152344,0.1171875 l -0.703125,0.7617188 c -0.08203,-0.140625 -0.539062,-0.8789063 -1.652344,-0.8789063 -2.214843,0 -4.453125,2.203125 -4.453125,4.5117188 0,1.58203121 1.101563,2.73046871 2.71875,2.73046871 0.433594,0 0.878907,-0.09375 1.242188,-0.24609375 0.492187,-0.19921875 0.679687,-0.41015625 0.867187,-0.609375 0.08203,0.2578125 0.351563,0.62109375 0.445313,0.62109375 0.04687,0 0.07031,-0.0234375 0.07031,-0.03515625 0.02344,-0.0234375 0.117188,-0.3984375 0.164063,-0.609375 L 23.4956,-1.4297109 c 0.03516,-0.1640625 0.08203,-0.328125 0.128906,-0.5039063 0.105469,-0.4453125 0.117187,-0.46875 0.679687,-0.4804687 0.05859,0 0.164063,-0.011719 0.164063,-0.1992188 0,-0.070312 -0.04687,-0.1054687 -0.128906,-0.1054687 -0.234375,0 -0.820313,0.023437 -1.042969,0.023437 -0.316406,0 -1.089844,-0.023437 -1.394531,-0.023437 -0.09375,0 -0.210938,0 -0.210938,0.1992187 0,0.1054688 0.08203,0.1054688 0.292969,0.1054688 0.01172,0 0.304687,0 0.527344,0.023437 0.257812,0.035156 0.316406,0.058594 0.316406,0.1875 0,0.09375 -0.117188,0.5390625 -0.210938,0.9023437 -0.28125,1.10156251 -1.582031,1.20703126 -1.921875,1.20703126 -0.960937,0 -2.003906,-0.5625 -2.003906,-2.08593746 0,-0.3164063 0.09375,-1.9570313 1.148438,-3.2460938 0.539062,-0.6796875 1.5,-1.2890625 2.484375,-1.2890625 1.019531,0 1.605468,0.7734375 1.605468,1.921875 0,0.3984375 -0.03516,0.4101563 -0.03516,0.5039063 0,0.1054687 0.117188,0.1054687 0.152344,0.1054687 0.128906,0 0.128906,-0.023437 0.175781,-0.1992187 z m 9.74707,1.96875 c 0.117187,-0.058594 0.1875,-0.1171875 0.1875,-0.2226562 0,-0.1054688 -0.09375,-0.1992188 -0.199219,-0.1992188 -0.03516,0 -0.04687,0 -0.175781,0.070312 l -5.519531,2.6015625 c -0.117188,0.046875 -0.1875,0.09375 -0.1875,0.2109375 0,0.1289063 0.07031,0.1757813 0.1875,0.2226563 l 5.519531,2.60156246 c 0.128906,0.0703125 0.140625,0.0703125 0.175781,0.0703125 0.105469,0 0.199219,-0.09375 0.199219,-0.19921875 0,-0.10546875 -0.07031,-0.1640625 -0.1875,-0.22265625 L 29.375484,-2.4961172 Z m 10.207031,-1.96875 c 0,-0.023437 -0.01172,-0.09375 -0.105469,-0.09375 -0.04687,0 -0.05859,0.011719 -0.175781,0.140625 l -0.480469,0.5742188 c -0.257812,-0.46875 -0.773437,-0.7148438 -1.429687,-0.7148438 -1.265625,0 -2.460938,1.1367188 -2.460938,2.34375 0,0.8085938 0.527344,1.265625 1.042969,1.4179688 l 1.066406,0.28125 c 0.363282,0.082031 0.914063,0.234375 0.914063,1.0546875 0,0.890625 -0.820313,1.82812496 -1.792969,1.82812496 -0.644531,0 -1.746094,-0.2109375 -1.746094,-1.45312496 0,-0.234375 0.04687,-0.4804688 0.05859,-0.5390625 0.01172,-0.035156 0.02344,-0.046875 0.02344,-0.070312 0,-0.09375 -0.07031,-0.1054688 -0.117188,-0.1054688 -0.05859,0 -0.07031,0.011719 -0.105469,0.035156 -0.03516,0.046875 -0.597656,2.32031246 -0.597656,2.34374996 0,0.0585937 0.04687,0.10546875 0.117188,0.10546875 0.04687,0 0.05859,-0.0117188 0.175781,-0.15234375 l 0.492187,-0.57421875 c 0.421875,0.5859375 1.101563,0.7265625 1.675782,0.7265625 1.359375,0 2.53125,-1.32421871 2.53125,-2.56640621 0,-0.6796875 -0.339844,-1.0195313 -0.492188,-1.1601563 -0.222656,-0.234375 -0.375,-0.2695312 -1.265625,-0.5039062 -0.210937,-0.058594 -0.574219,-0.1523438 -0.65625,-0.1757813 -0.269531,-0.09375 -0.609375,-0.375 -0.609375,-0.9023437 0,-0.8085938 0.796875,-1.6523438 1.734375,-1.6523438 0.832031,0 1.441406,0.421875 1.441406,1.5351563 0,0.3164062 -0.04687,0.5039062 -0.04687,0.5625 0,0.011719 0,0.09375 0.128907,0.09375 0.09375,0 0.105468,-0.023437 0.140625,-0.1992188 z m 7.634766,2.578125 c 0,-1.59375 -1.054688,-2.671875 -2.542969,-2.671875 -2.144531,0 -4.335937,2.2617188 -4.335937,4.5820313 0,1.65234371 1.113281,2.66015621 2.542968,2.66015621 2.109375,0 4.335938,-2.17968751 4.335938,-4.57031251 z M 48.1665,-0.03517969 c -0.984375,0 -1.675781,-0.80859375 -1.675781,-2.12109371 0,-0.4453125 0.140625,-1.8984375 0.902344,-3.0585938 0.691406,-1.0429687 1.664062,-1.5585937 2.449218,-1.5585937 0.820313,0 1.710938,0.5625 1.710938,2.0390625 0,0.7148437 -0.269531,2.2734375 -1.253906,3.5039062 -0.480469,0.59765626 -1.289063,1.19531251 -2.132813,1.19531251 z m 0,0"
         style="fill:#808080;fill-opacity:1;fill-rule:nonzero;stroke:none" />
      <path
         id="path29"
         d="m 56.255367,2.3906016 c 0,-0.035156 0,-0.046875 -0.164062,-0.2226563 -1.242188,-1.25390624 -1.570313,-3.12890624 -1.570313,-4.6640625 0,-1.7226562 0.386719,-3.4570312 1.605469,-4.7109375 0.128906,-0.1171875 0.128906,-0.1289062 0.128906,-0.1640625 0,-0.070312 -0.03516,-0.1054687 -0.09375,-0.1054687 -0.105469,0 -0.996094,0.6796875 -1.582031,1.9453125 -0.515625,1.1015625 -0.632813,2.203125 -0.632813,3.0351562 0,0.7851563 0.117188,1.99218751 0.65625,3.11718751 0.597657,1.21874999 1.453125,1.87499999 1.558594,1.87499999 0.05859,0 0.09375,-0.035156 0.09375,-0.1054687 z m 3.465821,-5.8945313 c 0.808593,-0.2695312 1.394531,-0.9726562 1.394531,-1.7578125 0,-0.8203125 -0.878906,-1.3710937 -1.839844,-1.3710937 -1.007812,0 -1.757812,0.5976562 -1.757812,1.3476562 0,0.3398438 0.210937,0.5273438 0.503906,0.5273438 0.304687,0 0.503906,-0.2226563 0.503906,-0.515625 0,-0.4921875 -0.46875,-0.4921875 -0.609375,-0.4921875 0.304688,-0.4921875 0.960938,-0.6210938 1.324219,-0.6210938 0.410156,0 0.949219,0.2226563 0.949219,1.1132813 0,0.1289062 -0.01172,0.703125 -0.269532,1.1367187 -0.304687,0.4804688 -0.644531,0.515625 -0.890625,0.515625 -0.08203,0.011719 -0.316406,0.035156 -0.386718,0.035156 -0.08203,0.011719 -0.152344,0.023437 -0.152344,0.1171875 0,0.1171875 0.07031,0.1171875 0.234375,0.1171875 h 0.445312 c 0.808594,0 1.183594,0.6679687 1.183594,1.6523437 0,1.34765626 -0.691406,1.64062501 -1.125,1.64062501 -0.433594,0 -1.171875,-0.17578125 -1.523437,-0.76171875 0.351562,0.0585938 0.65625,-0.1640625 0.65625,-0.53906246 0,-0.3632813 -0.269532,-0.5625 -0.5625,-0.5625 -0.234375,0 -0.550782,0.140625 -0.550782,0.5742187 0,0.91406251 0.925782,1.57031251 2.003907,1.57031251 1.21875,0 2.121093,-0.9140625 2.121093,-1.92187501 0,-0.8203125 -0.621093,-1.59375 -1.652343,-1.8046872 z m 4.96875,1.0078125 c 0,-0.7734375 -0.117188,-1.9804687 -0.65625,-3.1054687 -0.597657,-1.21875 -1.464844,-1.875 -1.558594,-1.875 -0.05859,0 -0.105469,0.046875 -0.105469,0.1054687 0,0.035156 0,0.046875 0.199219,0.234375 0.972656,0.984375 1.535156,2.5664063 1.535156,4.640625 0,1.71093751 -0.363281,3.45703126 -1.59375,4.7226563 -0.140625,0.1171875 -0.140625,0.1289062 -0.140625,0.1640625 0,0.058594 0.04687,0.1054687 0.105469,0.1054687 0.09375,0 0.996094,-0.6796875 1.582031,-1.94531249 0.503906,-1.1015625 0.632813,-2.20312501 0.632813,-3.04687501 z m 0,0"
         style="fill:#808080;fill-opacity:1;fill-rule:nonzero;stroke:none" />
    </g>
    <g
       id="g29"
       aria-label="N&#10;g&#10;′"
       transform="matrix(1.3333333,0,0,1.3333333,89.484,132.19467)">
      <path
         id="path30"
         d="m 7.5354375,-5.7534219 c 0.09375,-0.3984375 0.2695313,-0.7148437 1.0664063,-0.7382812 0.058594,0 0.1757812,-0.011719 0.1757812,-0.1992188 0,-0.011719 0,-0.1171875 -0.1289062,-0.1171875 -0.328125,0 -0.6796875,0.035156 -1.0078125,0.035156 -0.3398438,0 -0.6914063,-0.035156 -1.0195313,-0.035156 -0.058594,0 -0.1757812,0 -0.1757812,0.1992188 0,0.1171875 0.09375,0.1171875 0.1757812,0.1171875 0.5742188,0.011719 0.6796875,0.2109375 0.6796875,0.4335937 0,0.035156 -0.023437,0.1757813 -0.023437,0.2109375 l -1.125,4.4296875 L 3.9495,-6.6088906 C 3.879188,-6.7963906 3.867469,-6.8081094 3.6330938,-6.8081094 H 2.2971563 c -0.1992188,0 -0.28125,0 -0.28125,0.1992188 0,0.1171875 0.082031,0.1171875 0.28125,0.1171875 0.046875,0 0.6679687,0 0.6679687,0.082031 l -1.3359375,5.3554688 c -0.09375,0.39843747 -0.2695312,0.71484372 -1.06640625,0.74999997 -0.0585938,0 -0.17578125,0 -0.17578125,0.19921875 0,0.0703125 0.046875,0.105468755 0.12890625,0.105468755 0.31640625,0 0.66796875,-0.035156255 0.99609375,-0.035156255 0.3398438,0 0.703125,0.035156255 1.03125,0.035156255 0.046875,0 0.1757813,0 0.1757813,-0.199218755 0,-0.10546875 -0.09375,-0.10546875 -0.1992188,-0.10546875 -0.5742187,-0.0234375 -0.65625,-0.24609375 -0.65625,-0.4453125 0,-0.0703125 0.011719,-0.1171875 0.035156,-0.22265625 l 1.324219,-5.26171852 c 0.035156,0.058594 0.035156,0.082031 0.082031,0.1757812 l 2.484375,5.87109377 c 0.070312,0.1640625 0.09375,0.187500005 0.1875,0.187500005 0.1054687,0 0.1054687,-0.035156255 0.1640625,-0.210937505 z m 0,0"
         style="fill:#8b572a;fill-opacity:1;fill-rule:nonzero;stroke:none" />
      <path
         id="path31"
         d="m 11.719031,-1.0835 c 0.02344,-0.09375 0.02344,-0.1289063 0.02344,-0.140625 0,-0.1523438 -0.128906,-0.2226563 -0.234375,-0.2226563 -0.164063,0 -0.292969,0.1289063 -0.328125,0.2695313 -0.117188,-0.1992188 -0.351563,-0.3984375 -0.714844,-0.3984375 -0.8671875,0 -1.78125,0.92578125 -1.78125,1.921875 0,0.7265625 0.4804688,1.1484375 1.0546875,1.1484375 0.3281255,0 0.6328125,-0.1640625 0.8789065,-0.375 L 10.453406,1.7407187 C 10.383094,2.0336875 10.336219,2.2211875 10.066688,2.4672812 9.762,2.7250937 9.4573125,2.7250937 9.2815313,2.7250937 c -0.3164063,0 -0.4101563,-0.023437 -0.5273438,-0.046875 0.1757813,-0.09375 0.2226563,-0.2578125 0.2226563,-0.3515625 0,-0.1640625 -0.140625,-0.2578125 -0.2695313,-0.2578125 -0.1992187,0 -0.3984375,0.1523438 -0.3984375,0.421875 0,0.421875 0.5976563,0.421875 0.984375,0.421875 1.089844,0 1.558594,-0.5507812 1.664063,-0.9492187 z M 10.746375,0.56884375 C 10.722938,0.6743125 10.722938,0.68603125 10.60575,0.82665625 10.359656,1.119625 10.031531,1.2954062 9.762,1.2954062 c -0.3515625,0 -0.5273437,-0.2929687 -0.5273437,-0.65624995 0,-0.3046875 0.1875,-1.08984375 0.375,-1.39453125 0.2929687,-0.4921875 0.6210937,-0.6328125 0.8554687,-0.6328125 0.492188,0 0.621094,0.52734375 0.621094,0.59765625 0,0.0117188 0,0.0234375 -0.02344,0.10546875 z m 0,0"
         style="fill:#8b572a;fill-opacity:1;fill-rule:nonzero;stroke:none" />
      <path
         id="path32"
         d="m 13.933875,-2.817875 c 0,0 0.04687,-0.09375 0.04687,-0.1757813 0,-0.1757812 -0.152344,-0.2929687 -0.304687,-0.2929687 -0.210938,0 -0.257813,0.1640625 -0.28125,0.234375 L 12.621375,-0.896 c -0.01172,0.0585938 -0.01172,0.0703125 -0.01172,0.0820313 0,0.0820313 0.199219,0.12890625 0.210938,0.12890625 0.04687,0 0.04687,-0.0234375 0.08203,-0.0820313 z m 0,0"
         style="fill:#8b572a;fill-opacity:1;fill-rule:nonzero;stroke:none" />
    </g>
    <g
       id="g32"
       aria-label="S&#10;g&#10;′"
       transform="matrix(1.3333333,0,0,1.3333333,44.389333,93.609333)">
      <path
         id="path33"
         d="m 6.4228438,-6.92575 c 0,-0.023437 -0.011719,-0.09375 -0.1054688,-0.09375 -0.046875,0 -0.058594,0.011719 -0.1757812,0.140625 L 5.661125,-6.3046562 C 5.4033125,-6.7734062 4.8876875,-7.0195 4.2314375,-7.0195 c -1.265625,0 -2.4609375,1.1367188 -2.4609375,2.34375 0,0.8085938 0.5273438,1.265625 1.0429688,1.4179688 l 1.0664062,0.28125 c 0.3632813,0.082031 0.9140625,0.234375 0.9140625,1.0546875 0,0.890625 -0.8203125,1.82812495 -1.7929687,1.82812495 -0.6445313,0 -1.7460938,-0.2109375 -1.7460938,-1.45312495 0,-0.234375 0.046875,-0.4804688 0.058594,-0.5390625 0.011719,-0.035156 0.023437,-0.046875 0.023437,-0.070312 0,-0.09375 -0.070312,-0.1054688 -0.1171875,-0.1054688 -0.058594,0 -0.070312,0.011719 -0.1054688,0.035156 -0.035156,0.046875 -0.59765625,2.32031245 -0.59765625,2.34374995 0,0.0585938 0.046875,0.10546875 0.1171875,0.10546875 0.046875,0 0.0585938,-0.0117188 0.17578125,-0.15234375 L 1.30175,-0.503875 c 0.421875,0.5859375 1.1015625,0.7265625 1.6757813,0.7265625 1.359375,0 2.53125,-1.3242187 2.53125,-2.5664062 0,-0.6796875 -0.3398438,-1.0195313 -0.4921875,-1.1601563 -0.2226563,-0.234375 -0.375,-0.2695312 -1.265625,-0.5039062 -0.2109375,-0.058594 -0.5742188,-0.1523438 -0.65625,-0.1757813 -0.2695313,-0.09375 -0.609375,-0.375 -0.609375,-0.9023437 0,-0.8085938 0.796875,-1.6523438 1.734375,-1.6523438 0.8320312,0 1.4414062,0.421875 1.4414062,1.5351563 0,0.3164062 -0.046875,0.5039062 -0.046875,0.5625 0,0.011719 0,0.09375 0.1289063,0.09375 0.09375,0 0.1054687,-0.023437 0.140625,-0.1992188 z m 0,0"
         style="fill:#8b572a;fill-opacity:1;fill-rule:nonzero;stroke:none" />
      <path
         id="path34"
         d="m 9.8242109,-1.0839531 c 0.023437,-0.09375 0.023437,-0.1289063 0.023437,-0.140625 0,-0.1523438 -0.1289062,-0.2226563 -0.234375,-0.2226563 -0.1640625,0 -0.2929687,0.1289063 -0.328125,0.2695313 -0.1171875,-0.1992188 -0.3515625,-0.3984375 -0.7148437,-0.3984375 -0.8671875,0 -1.78125,0.92578123 -1.78125,1.92187498 0,0.72656252 0.4804687,1.14843752 1.0546875,1.14843752 0.328125,0 0.6328125,-0.1640625 0.8789062,-0.375 L 8.5585859,1.7402656 C 8.4882734,2.0332344 8.4413984,2.2207344 8.1718672,2.4668281 7.8671797,2.7246406 7.5624922,2.7246406 7.3867109,2.7246406 c -0.3164062,0 -0.4101562,-0.023437 -0.5273437,-0.046875 0.1757812,-0.09375 0.2226562,-0.2578125 0.2226562,-0.3515625 0,-0.1640625 -0.140625,-0.2578125 -0.2695312,-0.2578125 -0.1992188,0 -0.3984375,0.1523438 -0.3984375,0.421875 0,0.421875 0.5976562,0.421875 0.984375,0.421875 1.0898437,0 1.5585937,-0.5507812 1.6640625,-0.9492187 z M 8.8515547,0.56839063 c -0.023437,0.10546875 -0.023437,0.1171875 -0.140625,0.2578125 -0.2460938,0.29296877 -0.5742188,0.46874997 -0.84375,0.46874997 -0.3515625,0 -0.5273438,-0.2929687 -0.5273438,-0.65624997 0,-0.3046875 0.1875,-1.08984375 0.375,-1.39453125 0.2929688,-0.49218748 0.6210938,-0.63281248 0.8554688,-0.63281248 0.4921875,0 0.6210937,0.52734373 0.6210937,0.59765623 0,0.0117188 0,0.0234375 -0.023437,0.10546875 z m 0,0"
         style="fill:#8b572a;fill-opacity:1;fill-rule:nonzero;stroke:none" />
      <path
         id="path35"
         d="m 12.039055,-2.8183281 c 0,0 0.04687,-0.09375 0.04687,-0.1757813 0,-0.1757812 -0.152344,-0.2929687 -0.304688,-0.2929687 -0.210937,0 -0.257812,0.1640625 -0.28125,0.234375 l -0.773437,2.15624998 c -0.01172,0.0585938 -0.01172,0.0703125 -0.01172,0.0820313 0,0.0820313 0.199219,0.12890625 0.210937,0.12890625 0.04687,0 0.04687,-0.0234375 0.08203,-0.0820313 z m 0,0"
         style="fill:#8b572a;fill-opacity:1;fill-rule:nonzero;stroke:none" />
    </g>
  </g>
</svg>
