<?xml version="1.0" encoding="UTF-8" standalone="no"?>
<!-- Created with Inkscape (http://www.inkscape.org/) -->

<svg
   version="1.1"
   id="svg1"
   width="280.09332"
   height="251.44"
   viewBox="0 0 280.09332 251.44"
   sodipodi:docname="tedrahedron.pdf"
   xmlns:inkscape="http://www.inkscape.org/namespaces/inkscape"
   xmlns:sodipodi="http://sodipodi.sourceforge.net/DTD/sodipodi-0.dtd"
   xmlns="http://www.w3.org/2000/svg"
   xmlns:svg="http://www.w3.org/2000/svg">
  <defs
     id="defs1" />
  <sodipodi:namedview
     id="namedview1"
     pagecolor="#ffffff"
     bordercolor="#000000"
     borderopacity="0.25"
     inkscape:showpageshadow="2"
     inkscape:pageopacity="0.0"
     inkscape:pagecheckerboard="0"
     inkscape:deskcolor="#d1d1d1">
    <inkscape:page
       x="0"
       y="0"
       inkscape:label="1"
       id="page1"
       width="280.09332"
       height="251.44"
       margin="0"
       bleed="0" />
  </sodipodi:namedview>
  <g
     id="g1"
     inkscape:groupmode="layer"
     inkscape:label="1">
    <path
       id="path1"
       d="M 109.09232,-42.45633 242.97697,-176.341 63.51265,-205.6166 Z"
       style="fill:#f5a623;fill-opacity:0.1;fill-rule:nonzero;stroke:#f5a623;stroke-width:1.49442;stroke-linecap:butt;stroke-linejoin:miter;stroke-miterlimit:10;stroke-dasharray:5.60904, 4.48325;stroke-dashoffset:0;stroke-opacity:0.5"
       transform="matrix(1.3333333,0,0,-1.3333333,-62.068,-39.658667)" />
    <path
       id="path2"
       d="M 109.09232,-42.45633 197.39731,-71.73193 63.51265,-205.6166 Z"
       style="fill:#f5a623;fill-opacity:0.1;fill-rule:nonzero;stroke:#f5a623;stroke-width:1.49442;stroke-linecap:butt;stroke-linejoin:miter;stroke-miterlimit:10;stroke-dasharray:none;stroke-opacity:1"
       transform="matrix(1.3333333,0,0,-1.3333333,-62.068,-39.658667)" />
    <path
       id="path3"
       d="M 197.39731,-71.73193 242.97697,-176.341 63.51265,-205.6166 Z"
       style="fill:#f5a623;fill-opacity:0.15;fill-rule:nonzero;stroke:#f5a623;stroke-width:1.49442;stroke-linecap:butt;stroke-linejoin:miter;stroke-miterlimit:10;stroke-dasharray:none;stroke-opacity:1"
       transform="matrix(1.3333333,0,0,-1.3333333,-62.068,-39.658667)" />
    <path
       id="path4"
       d="M 109.09232,-42.45633 H 242.97697 V -176.341 H 109.09232 Z"
       style="fill:none;stroke:#9b9b9b;stroke-width:1.49442;stroke-linecap:butt;stroke-linejoin:miter;stroke-miterlimit:10;stroke-dasharray:none;stroke-opacity:0.2"
       transform="matrix(1.3333333,0,0,-1.3333333,-62.068,-39.658667)" />
    <path
       id="path5"
       d="m 63.51265,-71.73193 45.57967,29.2756"
       style="fill:none;stroke:#9b9b9b;stroke-width:1.49442;stroke-linecap:butt;stroke-linejoin:miter;stroke-miterlimit:10;stroke-dasharray:none;stroke-opacity:0.2"
       transform="matrix(1.3333333,0,0,-1.3333333,-62.068,-39.658667)" />
    <path
       id="path6"
       d="m 197.39731,-71.73193 45.57966,29.2756"
       style="fill:none;stroke:#9b9b9b;stroke-width:1.49442;stroke-linecap:butt;stroke-linejoin:miter;stroke-miterlimit:10;stroke-dasharray:none;stroke-opacity:0.2"
       transform="matrix(1.3333333,0,0,-1.3333333,-62.068,-39.658667)" />
    <path
       id="path7"
       d="m 197.39731,-205.6166 45.57966,29.2756"
       style="fill:none;stroke:#9b9b9b;stroke-width:1.49442;stroke-linecap:butt;stroke-linejoin:miter;stroke-miterlimit:10;stroke-dasharray:none;stroke-opacity:0.2"
       transform="matrix(1.3333333,0,0,-1.3333333,-62.068,-39.658667)" />
    <path
       id="path8"
       d="m 63.51265,-205.6166 45.57967,29.2756"
       style="fill:none;stroke:#9b9b9b;stroke-width:1.49442;stroke-linecap:butt;stroke-linejoin:miter;stroke-miterlimit:10;stroke-dasharray:none;stroke-opacity:0.2"
       transform="matrix(1.3333333,0,0,-1.3333333,-62.068,-39.658667)" />
    <path
       id="path9"
       d="M 63.51265,-71.73193 H 197.39731 V -205.6166 H 63.51265 Z"
       style="fill:none;stroke:#9b9b9b;stroke-width:1.49442;stroke-linecap:butt;stroke-linejoin:miter;stroke-miterlimit:10;stroke-dasharray:none;stroke-opacity:0.2"
       transform="matrix(1.3333333,0,0,-1.3333333,-62.068,-39.658667)" />
    <path
       id="path10"
       d="M 109.09232,-42.45633 197.39731,-205.6166"
       style="fill:none;stroke:#9013fe;stroke-width:0.74721;stroke-linecap:butt;stroke-linejoin:miter;stroke-miterlimit:10;stroke-dasharray:none;stroke-opacity:1"
       transform="matrix(1.3333333,0,0,-1.3333333,-62.068,-39.658667)" />
    <path
       id="path11"
       d="M 86.30247,-124.03647 H 220.18713"
       style="fill:none;stroke:#4a90e2;stroke-width:0.74721;stroke-linecap:butt;stroke-linejoin:miter;stroke-miterlimit:10;stroke-dasharray:none;stroke-opacity:1"
       transform="matrix(1.3333333,0,0,-1.3333333,-62.068,-39.658667)" />
    <path
       id="path12"
       d="m 166.4928,-151.60095 c 0,1.03115 0.83687,1.86802 1.86802,1.86802 1.03113,0 1.86802,-0.83687 1.86802,-1.86802 0,-1.03115 -0.83689,-1.86801 -1.86802,-1.86801 -1.03115,0 -1.86802,0.83686 -1.86802,1.86801 z"
       style="fill:#000000;fill-opacity:1;fill-rule:nonzero;stroke:#000000;stroke-width:0.74721;stroke-linecap:butt;stroke-linejoin:miter;stroke-miterlimit:10;stroke-dasharray:none;stroke-opacity:1"
       transform="matrix(1.3333333,0,0,-1.3333333,-62.068,-39.658667)" />
    <path
       id="path13"
       d="m 84.43446,-124.03647 c 0,1.03116 0.83687,1.86803 1.86801,1.86803 1.03115,0 1.86803,-0.83687 1.86803,-1.86803 0,-1.03114 -0.83688,-1.86801 -1.86803,-1.86801 -1.03114,0 -1.86801,0.83687 -1.86801,1.86801 z"
       style="fill:#000000;fill-opacity:1;fill-rule:nonzero;stroke:#000000;stroke-width:0.74721;stroke-linecap:butt;stroke-linejoin:miter;stroke-miterlimit:10;stroke-dasharray:none;stroke-opacity:1"
       transform="matrix(1.3333333,0,0,-1.3333333,-62.068,-39.658667)" />
    <path
       id="path14"
       d="m 218.31912,-124.03647 c 0,1.03116 0.83687,1.86803 1.86801,1.86803 1.03116,0 1.86803,-0.83687 1.86803,-1.86803 0,-1.03114 -0.83687,-1.86801 -1.86803,-1.86801 -1.03114,0 -1.86801,0.83687 -1.86801,1.86801 z"
       style="fill:#000000;fill-opacity:1;fill-rule:nonzero;stroke:#000000;stroke-width:0.74721;stroke-linecap:butt;stroke-linejoin:miter;stroke-miterlimit:10;stroke-dasharray:none;stroke-opacity:1"
       transform="matrix(1.3333333,0,0,-1.3333333,-62.068,-39.658667)" />
    <path
       id="path15"
       d="m 151.37679,-124.03647 c 0,1.03116 0.83688,1.86803 1.86801,1.86803 1.03114,0 1.86802,-0.83687 1.86802,-1.86803 0,-1.03114 -0.83688,-1.86801 -1.86802,-1.86801 -1.03113,0 -1.86801,0.83687 -1.86801,1.86801 z"
       style="fill:#000000;fill-opacity:1;fill-rule:nonzero;stroke:#000000;stroke-width:0.74721;stroke-linecap:butt;stroke-linejoin:miter;stroke-miterlimit:10;stroke-dasharray:none;stroke-opacity:1"
       transform="matrix(1.3333333,0,0,-1.3333333,-62.068,-39.658667)" />
    <g
       id="g15"
       aria-label="V&#10;1"
       transform="matrix(1.3333333,0,0,1.3333333,66.193333,10.076)">
      <path
         id="path16"
         d="m 6.2563672,-5.6732109 c 0.4804687,-0.7734375 0.9023437,-0.8085938 1.2773437,-0.8203125 0.1171875,-0.011719 0.1289063,-0.1875 0.1289063,-0.1875 0,-0.082031 -0.058594,-0.1289063 -0.1289063,-0.1289063 -0.2578125,0 -0.5507812,0.035156 -0.8203125,0.035156 -0.328125,0 -0.6679687,-0.035156 -0.984375,-0.035156 -0.058594,0 -0.1875,0 -0.1875,0.1992188 0,0.1054687 0.082031,0.1171875 0.1523438,0.1171875 0.2695312,0.011719 0.4570312,0.1171875 0.4570312,0.328125 0,0.1523437 -0.140625,0.3632812 -0.140625,0.375 L 2.9516797,-0.92711719 2.2719922,-6.2005547 c 0,-0.1640625 0.2226562,-0.2929687 0.6796875,-0.2929687 0.140625,0 0.2578125,0 0.2578125,-0.1992188 0,-0.09375 -0.082031,-0.1171875 -0.140625,-0.1171875 -0.3984375,0 -0.8320313,0.035156 -1.2421875,0.035156 -0.1757813,0 -0.3632813,-0.011719 -0.5390625,-0.011719 -0.1875,0 -0.37500001,-0.023437 -0.53906251,-0.023437 -0.0703125,0 -0.1875,0 -0.1875,0.1992188 0,0.1171875 0.0820313,0.1171875 0.24609375,0.1171875 0.55078126,0 0.56249996,0.082031 0.59765626,0.3398437 l 0.7851562,6.14062501 c 0.035156,0.19921875 0.070312,0.234375 0.1992188,0.234375 0.1640625,0 0.1992187,-0.0585938 0.28125,-0.1875 z m 0,0"
         style="fill:#000000;fill-opacity:1;fill-rule:nonzero;stroke:none" />
      <path
         id="path17"
         d="m 8.1430859,-2.9368828 c 0,-0.1875 -0.011719,-0.1992188 -0.2109375,-0.1992188 -0.4453125,0.4335938 -1.078125,0.4453125 -1.359375,0.4453125 v 0.2460938 c 0.1640625,0 0.6210938,0 1.0078125,-0.1875 v 3.55078124 c 0,0.23437496 0,0.32812496 -0.6914062,0.32812496 H 6.6196484 v 0.2460938 c 0.1289063,-0.011719 0.984375,-0.023437 1.2421875,-0.023437 0.2109375,0 1.0898438,0.011719 1.2421875,0.023437 V 1.2467109 H 8.8462109 c -0.703125,0 -0.703125,-0.09375 -0.703125,-0.32812496 z m 0,0"
         style="fill:#000000;fill-opacity:1;fill-rule:nonzero;stroke:none" />
    </g>
    <g
       id="g17"
       aria-label="V&#10;2"
       transform="matrix(1.3333333,0,0,1.3333333,5.42,248.456)">
      <path
         id="path18"
         d="m 6.2592187,-5.6711016 c 0.4804688,-0.7734375 0.9023438,-0.8085937 1.2773438,-0.8203125 0.1171875,-0.011719 0.1289062,-0.1875 0.1289062,-0.1875 0,-0.082031 -0.058594,-0.1289062 -0.1289062,-0.1289062 -0.2578125,0 -0.5507813,0.035156 -0.8203125,0.035156 -0.328125,0 -0.6679688,-0.035156 -0.984375,-0.035156 -0.058594,0 -0.1875,0 -0.1875,0.1992187 0,0.1054688 0.082031,0.1171875 0.1523437,0.1171875 0.2695313,0.011719 0.4570313,0.1171875 0.4570313,0.328125 0,0.1523438 -0.140625,0.3632813 -0.140625,0.375 L 2.9545312,-0.92500781 2.2748437,-6.1984453 c 0,-0.1640625 0.2226563,-0.2929688 0.6796875,-0.2929688 0.140625,0 0.2578125,0 0.2578125,-0.1992187 0,-0.09375 -0.082031,-0.1171875 -0.140625,-0.1171875 -0.3984375,0 -0.8320312,0.035156 -1.2421875,0.035156 -0.1757812,0 -0.3632812,-0.011719 -0.5390625,-0.011719 -0.1875,0 -0.37499995,-0.023437 -0.53906245,-0.023437 -0.0703125,0 -0.1875,0 -0.1875,0.1992187 0,0.1171875 0.0820313,0.1171875 0.24609375,0.1171875 0.5507812,0 0.5625,0.082031 0.5976562,0.3398438 l 0.7851563,6.14062499 c 0.035156,0.19921875 0.070312,0.234375 0.1992187,0.234375 0.1640625,0 0.1992188,-0.0585938 0.28125,-0.1875 z m 0,0"
         style="fill:#000000;fill-opacity:1;fill-rule:nonzero;stroke:none" />
      <path
         id="path19"
         d="m 9.3266016,0.22928906 h -0.234375 c -0.023437,0.15234375 -0.082031,0.5625 -0.1757813,0.6328125 -0.058594,0.0351563 -0.5976562,0.0351563 -0.6914062,0.0351563 H 6.9359766 c 0.7382812,-0.64453125 0.984375,-0.84375 1.3945312,-1.171875 0.515625,-0.41015625 0.9960938,-0.84375006 0.9960938,-1.49999996 0,-0.8437501 -0.7382813,-1.3593751 -1.6289063,-1.3593751 -0.8671875,0 -1.453125,0.609375 -1.453125,1.2421876 0,0.3632812 0.3046875,0.3984375 0.375,0.3984375 0.1640625,0 0.375,-0.1171875 0.375,-0.375 0,-0.1289063 -0.058594,-0.3632813 -0.421875,-0.3632813 0.2226563,-0.5039063 0.6914063,-0.65625 1.0195313,-0.65625 0.703125,0 1.0664062,0.5507812 1.0664062,1.1132813 0,0.609375 -0.4335937,1.08984371 -0.65625,1.33593746 l -1.6875,1.66406254 c -0.070312,0.058594 -0.070312,0.070312 -0.070312,0.2695313 h 2.8828125 z m 0,0"
         style="fill:#000000;fill-opacity:1;fill-rule:nonzero;stroke:none" />
    </g>
    <g
       id="g19"
       aria-label="V&#10;3"
       transform="matrix(1.3333333,0,0,1.3333333,265.388,209.42133)">
      <path
         id="path20"
         d="m 6.2568516,-5.6714687 c 0.4804687,-0.7734375 0.9023437,-0.8085938 1.2773437,-0.8203125 0.1171875,-0.011719 0.1289063,-0.1875 0.1289063,-0.1875 0,-0.082031 -0.058594,-0.1289063 -0.1289063,-0.1289063 -0.2578125,0 -0.5507812,0.035156 -0.8203125,0.035156 -0.328125,0 -0.6679687,-0.035156 -0.984375,-0.035156 -0.058594,0 -0.1875,0 -0.1875,0.1992188 0,0.1054687 0.082031,0.1171875 0.1523438,0.1171875 0.2695312,0.011719 0.4570312,0.1171875 0.4570312,0.328125 0,0.1523437 -0.140625,0.3632812 -0.140625,0.375 L 2.9521641,-0.925375 2.2724766,-6.1988125 c 0,-0.1640625 0.2226562,-0.2929687 0.6796875,-0.2929687 0.140625,0 0.2578125,0 0.2578125,-0.1992188 0,-0.09375 -0.082031,-0.1171875 -0.140625,-0.1171875 -0.3984375,0 -0.8320313,0.035156 -1.2421875,0.035156 -0.1757813,0 -0.3632813,-0.011719 -0.5390625,-0.011719 -0.1875,0 -0.37500004,-0.023437 -0.53906254,-0.023437 -0.0703125,0 -0.1875,0 -0.1875,0.1992188 0,0.1171875 0.0820313,0.1171875 0.24609375,0.1171875 0.55078129,0 0.56249999,0.082031 0.59765629,0.3398437 l 0.7851562,6.140625 c 0.035156,0.19921875 0.070312,0.234375 0.1992188,0.234375 0.1640625,0 0.1992187,-0.0585938 0.28125,-0.1875 z m 0,0"
         style="fill:#000000;fill-opacity:1;fill-rule:nonzero;stroke:none" />
      <path
         id="path21"
         d="m 7.7099766,-0.83748437 c 0.5507812,0 0.9375,0.375 0.9375,1.125 0,0.86718747 -0.5039063,1.12499997 -0.9023438,1.12499997 -0.28125,0 -0.890625,-0.082031 -1.1835937,-0.49218747 0.328125,-0.0117188 0.3984375,-0.24609375 0.3984375,-0.38671875 0,-0.22265625 -0.1640625,-0.38671875 -0.3867188,-0.38671875 -0.1875,0 -0.3867187,0.1171875 -0.3867187,0.41015625 0,0.65625002 0.7265625,1.07812502 1.5703125,1.07812502 0.9726562,0 1.640625,-0.64453127 1.640625,-1.34765627 0,-0.5390625 -0.4453125,-1.08984375 -1.21875,-1.2421875 0.7382812,-0.26953123 0.9960937,-0.79687503 0.9960937,-1.21875003 0,-0.5507812 -0.6328125,-0.9609375 -1.40625,-0.9609375 -0.7734375,0 -1.359375,0.375 -1.359375,0.9375 0,0.234375 0.1523438,0.3632813 0.3632813,0.3632813 0.2109375,0 0.3515625,-0.1640625 0.3515625,-0.3515625 0,-0.1992188 -0.140625,-0.3515625 -0.3515625,-0.3632813 0.234375,-0.3046875 0.7148437,-0.3867187 0.9726562,-0.3867187 0.3164063,0 0.7617188,0.1523437 0.7617188,0.7617187 0,0.2929688 -0.1054688,0.609375 -0.28125,0.8320313 -0.234375,0.2578125 -0.421875,0.28125 -0.7734375,0.2929687 -0.1757813,0.023437 -0.1875,0.023437 -0.2226563,0.023437 -0.011719,0 -0.070312,0.011719 -0.070312,0.09375 0,0.09375 0.058594,0.09375 0.1757813,0.09375 z m 0,0"
         style="fill:#000000;fill-opacity:1;fill-rule:nonzero;stroke:none" />
    </g>
    <g
       id="g21"
       aria-label="V&#10;4"
       transform="matrix(1.3333333,0,0,1.3333333,204.616,69.942667)">
      <path
         id="path22"
         d="m 6.2587031,-5.6728203 c 0.4804688,-0.7734375 0.9023438,-0.8085938 1.2773438,-0.8203125 0.1171875,-0.011719 0.1289062,-0.1875 0.1289062,-0.1875 0,-0.082031 -0.058594,-0.1289063 -0.1289062,-0.1289063 -0.2578125,0 -0.5507813,0.035156 -0.8203125,0.035156 -0.328125,0 -0.6679688,-0.035156 -0.984375,-0.035156 -0.058594,0 -0.1875,0 -0.1875,0.1992188 0,0.1054687 0.082031,0.1171875 0.1523437,0.1171875 0.2695313,0.011719 0.4570313,0.1171875 0.4570313,0.328125 0,0.1523437 -0.140625,0.3632812 -0.140625,0.375 L 2.9540156,-0.92672656 2.2743281,-6.2001641 c 0,-0.1640625 0.2226563,-0.2929687 0.6796875,-0.2929687 0.140625,0 0.2578125,0 0.2578125,-0.1992188 0,-0.09375 -0.082031,-0.1171875 -0.140625,-0.1171875 -0.3984375,0 -0.8320312,0.035156 -1.2421875,0.035156 -0.1757812,0 -0.3632812,-0.011719 -0.5390625,-0.011719 -0.1875,0 -0.37499997,-0.023437 -0.53906247,-0.023437 -0.0703125,0 -0.1875,0 -0.1875,0.1992188 0,0.1171875 0.0820313,0.1171875 0.24609375,0.1171875 0.55078122,0 0.56250002,0.082031 0.59765622,0.3398437 l 0.7851563,6.14062504 c 0.035156,0.19921875 0.070312,0.234375 0.1992187,0.234375 0.1640625,0 0.1992188,-0.0585938 0.28125,-0.1875 z m 0,0"
         style="fill:#000000;fill-opacity:1;fill-rule:nonzero;stroke:none" />
      <path
         id="path23"
         d="M 9.5047969,0.34475781 V 0.09866406 H 8.7313594 V -3.0068047 c 0,-0.1523437 0,-0.1992187 -0.1523438,-0.1992187 -0.09375,0 -0.1171875,0 -0.1875,0.09375 L 6.0829219,0.09866406 v 0.24609375 h 2.0507812 v 0.57421875 c 0,0.23437504 0,0.32812504 -0.5625,0.32812504 h -0.1875 v 0.2460937 c 0.3515625,-0.011719 0.796875,-0.023437 1.0429688,-0.023437 0.2578125,0 0.703125,0.011719 1.0546875,0.023437 V 1.2471016 h -0.1875 c -0.5625,0 -0.5625,-0.09375 -0.5625,-0.32812504 V 0.34475781 Z M 8.1805781,-2.4560234 V 0.09866406 H 6.3407344 Z m 0,0"
         style="fill:#000000;fill-opacity:1;fill-rule:nonzero;stroke:none" />
    </g>
    <g
       id="g23"
       aria-label="P&#10;1"
       transform="matrix(1.3333333,0,0,1.3333333,165.9,176.43467)">
      <path
         id="path24"
         d="m 3.0222656,-3.1531484 h 1.6875 c 1.4179688,0 2.8007813,-1.03125 2.8007813,-2.1445313 0,-0.7734375 -0.65625,-1.5117187 -1.96875,-1.5117187 H 2.3191406 c -0.1875,0 -0.2929687,0 -0.2929687,0.1992187 0,0.1171875 0.082031,0.1171875 0.28125,0.1171875 0.1289062,0 0.3164062,0.011719 0.4335937,0.011719 0.1523438,0.023437 0.2109375,0.058594 0.2109375,0.1640625 0,0.035156 0,0.070312 -0.035156,0.1875 l -1.3359375,5.35546871 c -0.09375,0.38671875 -0.1171875,0.46875 -0.90234377,0.46875 -0.17578125,0 -0.28125,0 -0.28125,0.1875 0,0.1171875025 0.1171875,0.1171875025 0.15234375,0.1171875025 0.28125,0 0.98437502,-0.0351562525 1.26562502,-0.0351562525 0.2109375,0 0.421875,0.01171875 0.6328125,0.01171875 0.2226562,0 0.4453125,0.0234375025 0.6445312,0.0234375025 0.070312,0 0.1992188,0 0.1992188,-0.1992187525 0,-0.10546875 -0.082031,-0.10546875 -0.2695313,-0.10546875 -0.375,0 -0.65625,0 -0.65625,-0.1875 0,-0.0585938 0.023437,-0.10546875 0.035156,-0.1640625 z m 0.7148438,-2.9648438 c 0.082031,-0.3515625 0.1054687,-0.375 0.5390625,-0.375 h 0.9492187 c 0.8320313,0 1.359375,0.2695313 1.359375,0.9492188 0,0.3984375 -0.1992187,1.2539062 -0.5859375,1.6054687 -0.5039062,0.4453125 -1.1015625,0.5273438 -1.5351562,0.5273438 h -1.40625 z m 0,0"
         style="fill:#000000;fill-opacity:1;fill-rule:nonzero;stroke:none" />
      <path
         id="path25"
         d="m 8.7292969,-2.9363516 c 0,-0.1875 -0.011719,-0.1992187 -0.2109375,-0.1992187 -0.4453125,0.4335937 -1.078125,0.4453125 -1.359375,0.4453125 v 0.2460937 c 0.1640625,0 0.6210937,0 1.0078125,-0.1875 v 3.55078129 c 0,0.23437501 0,0.32812501 -0.6914063,0.32812501 H 7.2058594 v 0.2460937 c 0.1289062,-0.011719 0.984375,-0.023437 1.2421875,-0.023437 0.2109375,0 1.0898437,0.011719 1.2421875,0.023437 V 1.2472422 H 9.4324219 c -0.703125,0 -0.703125,-0.09375 -0.703125,-0.32812501 z m 0,0"
         style="fill:#000000;fill-opacity:1;fill-rule:nonzero;stroke:none" />
    </g>
    <g
       id="g25"
       aria-label="M&#10;34"
       transform="matrix(1.3333333,0,0,1.3333333,235.00133,129.26533)">
      <path
         id="path26"
         d="m 9.2216562,-6.0349375 c 0.09375,-0.3632813 0.1054688,-0.4570313 0.8554688,-0.4570313 0.234375,0 0.316406,0 0.316406,-0.1992187 0,-0.1171875 -0.09375,-0.1171875 -0.269531,-0.1171875 H 8.8115 c -0.2578125,0 -0.2695313,0 -0.3867188,0.1992187 L 4.7919687,-0.93728125 4.0185312,-6.574 C 3.983375,-6.808375 3.9599375,-6.808375 3.702125,-6.808375 H 2.34275 c -0.1875,0 -0.3046875,0 -0.3046875,0.1992187 0,0.1171875 0.09375,0.1171875 0.2929687,0.1171875 0.1289063,0 0.3046875,0.011719 0.421875,0.011719 0.1640625,0.023437 0.2226563,0.058594 0.2226563,0.1640625 0,0.035156 -0.011719,0.070312 -0.035156,0.1875 l -1.265625,5.0742187 c -0.105469,0.39843735 -0.2695315,0.7148436 -1.07812525,0.74999985 -0.046875,0 -0.17578125,0 -0.17578125,0.1875 0,0.08203125 0.0585938,0.1171875 0.140625,0.1171875 0.31640625,0 0.6679687,-0.03515625 0.9960937,-0.03515625 0.3398438,0 0.6914063,0.03515625 1.0195313,0.03515625 0.046875,0 0.1757812,0 0.1757812,-0.19921875 0,-0.10546875 -0.1054687,-0.10546875 -0.1757812,-0.10546875 -0.5625,-0.0117188 -0.6796875,-0.2109375 -0.6796875,-0.4453125 0,-0.0703125 0.011719,-0.1171875 0.046875,-0.22265625 l 1.3476562,-5.4375 h 0.011719 l 0.8554687,6.17578125 c 0.023437,0.12890625 0.035156,0.234375 0.1523438,0.234375 0.1054687,0 0.1757812,-0.10546875 0.2226562,-0.17578125 L 8.5536875,-6.48025 h 0.011719 L 7.135719,-0.77321875 c -0.09375,0.38671875 -0.1171875,0.46875 -0.9023437,0.46875 -0.1640625,0 -0.28125,0 -0.28125,0.1875 0,0.1171875 0.1289062,0.1171875 0.1523437,0.1171875 0.28125,0 0.9609375,-0.03515625 1.2304688,-0.03515625 0.4101562,0 0.84375,0.03515625 1.2539062,0.03515625 0.058594,0 0.1875,0 0.1875,-0.19921875 0,-0.10546875 -0.09375,-0.10546875 -0.28125,-0.10546875 -0.3632812,0 -0.6445312,0 -0.6445312,-0.1875 0,-0.0351562 0,-0.0585937 0.046875,-0.234375 z m 0,0"
         style="fill:#000000;fill-opacity:1;fill-rule:nonzero;stroke:none" />
      <path
         id="path27"
         d="m 11.562477,-0.83767188 c 0.550781,0 0.9375,0.375 0.9375,1.125 0,0.86718748 -0.503907,1.12499998 -0.902344,1.12499998 -0.28125,0 -0.890625,-0.082031 -1.183594,-0.49218748 0.328125,-0.0117188 0.398438,-0.24609375 0.398438,-0.38671875 0,-0.22265625 -0.164063,-0.38671875 -0.386719,-0.38671875 -0.1875,0 -0.386719,0.1171875 -0.386719,0.41015625 0,0.65625003 0.726563,1.07812503 1.570313,1.07812503 0.972656,0 1.640625,-0.64453128 1.640625,-1.34765628 0,-0.5390625 -0.445313,-1.08984375 -1.21875,-1.2421875 0.738281,-0.26953122 0.996093,-0.79687502 0.996093,-1.21875002 0,-0.5507812 -0.632812,-0.9609375 -1.40625,-0.9609375 -0.773437,0 -1.359375,0.375 -1.359375,0.9375 0,0.234375 0.152344,0.3632813 0.363282,0.3632813 0.210937,0 0.351562,-0.1640625 0.351562,-0.3515625 0,-0.1992188 -0.140625,-0.3515625 -0.351562,-0.3632813 0.234375,-0.3046875 0.714843,-0.3867187 0.972656,-0.3867187 0.316406,0 0.761719,0.1523437 0.761719,0.7617187 0,0.2929688 -0.105469,0.609375 -0.28125,0.8320313 -0.234375,0.2578125 -0.421875,0.28125 -0.773438,0.2929687 -0.175781,0.023437 -0.1875,0.023437 -0.222656,0.023437 -0.01172,0 -0.07031,0.011719 -0.07031,0.09375 0,0.09375 0.05859,0.09375 0.175782,0.09375 z m 5.762695,1.18359375 V 0.09982812 H 16.551734 V -3.0056406 c 0,-0.1523438 0,-0.1992188 -0.152343,-0.1992188 -0.09375,0 -0.117188,0 -0.1875,0.09375 l -2.308594,3.21093752 v 0.24609375 h 2.050781 v 0.57421875 c 0,0.23437498 0,0.32812498 -0.5625,0.32812498 h -0.1875 v 0.2460938 c 0.351563,-0.011719 0.796875,-0.023437 1.042969,-0.023437 0.257812,0 0.703125,0.011719 1.054687,0.023437 V 1.2482656 h -0.1875 c -0.5625,0 -0.5625,-0.09375 -0.5625,-0.32812498 V 0.34592187 Z M 16.000953,-2.4548594 v 2.55468752 h -1.839844 z m 0,0"
         style="fill:#000000;fill-opacity:1;fill-rule:nonzero;stroke:none" />
    </g>
    <g
       id="g27"
       aria-label="M&#10;12"
       transform="matrix(1.3333333,0,0,1.3333333,25.373333,129.26533)">
      <path
         id="path28"
         d="m 9.2239062,-6.0349375 c 0.09375,-0.3632813 0.1054688,-0.4570313 0.8554688,-0.4570313 0.234375,0 0.316406,0 0.316406,-0.1992187 0,-0.1171875 -0.09375,-0.1171875 -0.269531,-0.1171875 h -1.3125 c -0.2578125,0 -0.2695313,0 -0.3867188,0.1992187 L 4.7942187,-0.93728125 4.0207812,-6.574 C 3.985625,-6.808375 3.9621875,-6.808375 3.704375,-6.808375 H 2.345 c -0.1875,0 -0.3046875,0 -0.3046875,0.1992187 0,0.1171875 0.09375,0.1171875 0.2929687,0.1171875 0.1289063,0 0.3046875,0.011719 0.421875,0.011719 0.1640625,0.023437 0.2226563,0.058594 0.2226563,0.1640625 0,0.035156 -0.011719,0.070312 -0.035156,0.1875 l -1.265625,5.0742187 C 1.5715625,-0.65603125 1.4075,-0.339625 0.59890625,-0.30446875 c -0.046875,0 -0.17578125,0 -0.17578125,0.1875 0,0.08203125 0.0585938,0.1171875 0.140625,0.1171875 0.31640625,0 0.6679687,-0.03515625 0.9960937,-0.03515625 0.3398438,0 0.6914063,0.03515625 1.0195313,0.03515625 0.046875,0 0.1757812,0 0.1757812,-0.19921875 0,-0.10546875 -0.1054687,-0.10546875 -0.1757812,-0.10546875 -0.5625,-0.0117188 -0.6796875,-0.2109375 -0.6796875,-0.4453125 0,-0.0703125 0.011719,-0.1171875 0.046875,-0.22265625 l 1.3476562,-5.4375 h 0.011719 l 0.8554687,6.17578125 c 0.023437,0.12890625 0.035156,0.234375 0.1523438,0.234375 0.1054687,0 0.1757812,-0.10546875 0.2226562,-0.17578125 L 8.5559375,-6.48025 h 0.011719 L 7.137969,-0.77321875 c -0.09375,0.38671875 -0.1171875,0.46875 -0.9023437,0.46875 -0.1640625,0 -0.28125,0 -0.28125,0.1875 0,0.1171875 0.1289062,0.1171875 0.1523437,0.1171875 0.28125,0 0.9609375,-0.03515625 1.2304688,-0.03515625 0.4101562,0 0.84375,0.03515625 1.2539062,0.03515625 0.058594,0 0.1875,0 0.1875,-0.19921875 0,-0.10546875 -0.09375,-0.10546875 -0.28125,-0.10546875 -0.3632812,0 -0.6445312,0 -0.6445312,-0.1875 0,-0.0351562 0,-0.0585937 0.046875,-0.234375 z m 0,0"
         style="fill:#000000;fill-opacity:1;fill-rule:nonzero;stroke:none" />
      <path
         id="path29"
         d="m 11.99832,-2.9353281 c 0,-0.1875 -0.01172,-0.1992188 -0.210937,-0.1992188 -0.445313,0.4335938 -1.078125,0.4453125 -1.359375,0.4453125 v 0.2460938 c 0.164062,0 0.621094,0 1.007812,-0.1875 v 3.55078122 c 0,0.23437498 0,0.32812498 -0.691406,0.32812498 h -0.269531 v 0.2460938 c 0.128906,-0.011719 0.984375,-0.023437 1.242187,-0.023437 0.210938,0 1.089844,0.011719 1.242188,0.023437 V 1.2482656 h -0.257813 c -0.703125,0 -0.703125,-0.09375 -0.703125,-0.32812498 z m 5.150391,3.16406247 h -0.234375 c -0.02344,0.15234375 -0.08203,0.5625 -0.175781,0.6328125 -0.05859,0.0351563 -0.597657,0.0351563 -0.691407,0.0351563 h -1.289062 c 0.738281,-0.64453125 0.984375,-0.84375 1.394531,-1.171875 0.515625,-0.41015625 0.996094,-0.84374997 0.996094,-1.49999997 0,-0.8437501 -0.738281,-1.3593751 -1.628906,-1.3593751 -0.867188,0 -1.453125,0.609375 -1.453125,1.2421876 0,0.3632813 0.304687,0.3984375 0.375,0.3984375 0.164062,0 0.375,-0.1171875 0.375,-0.375 0,-0.1289062 -0.05859,-0.3632812 -0.421875,-0.3632812 0.222656,-0.5039064 0.691406,-0.65625 1.019531,-0.65625 0.703125,0 1.066406,0.5507811 1.066406,1.1132812 0,0.609375 -0.433594,1.08984372 -0.65625,1.33593747 l -1.6875,1.66406253 c -0.07031,0.058594 -0.07031,0.070312 -0.07031,0.2695313 h 2.882812 z m 0,0"
         style="fill:#000000;fill-opacity:1;fill-rule:nonzero;stroke:none" />
    </g>
    <g
       id="g29"
       aria-label="V&#10;5"
       transform="matrix(1.3333333,0,0,1.3333333,204.616,248.456)">
      <path
         id="path30"
         d="m 6.2587031,-5.6711016 c 0.4804688,-0.7734375 0.9023438,-0.8085937 1.2773438,-0.8203125 0.1171875,-0.011719 0.1289062,-0.1875 0.1289062,-0.1875 0,-0.082031 -0.058594,-0.1289062 -0.1289062,-0.1289062 -0.2578125,0 -0.5507813,0.035156 -0.8203125,0.035156 -0.328125,0 -0.6679688,-0.035156 -0.984375,-0.035156 -0.058594,0 -0.1875,0 -0.1875,0.1992187 0,0.1054688 0.082031,0.1171875 0.1523437,0.1171875 0.2695313,0.011719 0.4570313,0.1171875 0.4570313,0.328125 0,0.1523438 -0.140625,0.3632813 -0.140625,0.375 L 2.9540156,-0.92500781 2.2743281,-6.1984453 c 0,-0.1640625 0.2226563,-0.2929688 0.6796875,-0.2929688 0.140625,0 0.2578125,0 0.2578125,-0.1992187 0,-0.09375 -0.082031,-0.1171875 -0.140625,-0.1171875 -0.3984375,0 -0.8320312,0.035156 -1.2421875,0.035156 -0.1757812,0 -0.3632812,-0.011719 -0.5390625,-0.011719 -0.1875,0 -0.37499997,-0.023437 -0.53906247,-0.023437 -0.0703125,0 -0.1875,0 -0.1875,0.1992187 0,0.1171875 0.0820313,0.1171875 0.24609375,0.1171875 0.55078122,0 0.56250002,0.082031 0.59765622,0.3398438 l 0.7851563,6.14062499 c 0.035156,0.19921875 0.070312,0.234375 0.1992187,0.234375 0.1640625,0 0.1992188,-0.0585938 0.28125,-0.1875 z m 0,0"
         style="fill:#000000;fill-opacity:1;fill-rule:nonzero;stroke:none" />
      <path
         id="path31"
         d="m 6.8915156,-2.3957109 c 0.3632813,0.09375 0.5625,0.09375 0.6796875,0.09375 0.9140625,0 1.4648438,-0.6328125 1.4648438,-0.7382813 0,-0.070312 -0.046875,-0.09375 -0.082031,-0.09375 -0.011719,0 -0.035156,0 -0.058594,0.023437 -0.1640625,0.058594 -0.5390625,0.1992188 -1.0546875,0.1992188 -0.1992188,0 -0.5625,-0.011719 -1.0195313,-0.1875 -0.070312,-0.035156 -0.082031,-0.035156 -0.082031,-0.035156 -0.09375,0 -0.09375,0.070312 -0.09375,0.1875 v 2.06250001 c 0,0.1171875 0,0.19921875 0.1054687,0.19921875 0.070312,0 0.070312,-0.0117188 0.140625,-0.10546875 0.3046875,-0.37500001 0.7265625,-0.43359371 0.9726563,-0.43359371 0.421875,0 0.609375,0.33984371 0.6445312,0.38671871 0.1171875,0.234375 0.1640625,0.50390625 0.1640625,0.90234375 0,0.2109375 0,0.62109375 -0.2109375,0.92578125 -0.1757812,0.25781249 -0.46875,0.42187499 -0.8203125,0.42187499 -0.4453125,0 -0.9140625,-0.2578125 -1.0898437,-0.71484374 0.2695312,0.0234375 0.3984375,-0.15234375 0.3984375,-0.33984375 0,-0.3046875 -0.2578125,-0.3515625 -0.3515625,-0.3515625 -0.011719,0 -0.3515625,0 -0.3515625,0.375 0,0.62109379 0.5742187,1.25390629 1.4179687,1.25390629 0.890625,0 1.6640625,-0.66796879 1.6640625,-1.54687504 0,-0.78515625 -0.5976562,-1.51171876 -1.453125,-1.51171876 -0.3164062,0 -0.6796875,0.082031 -0.984375,0.3398438 z m 0,0"
         style="fill:#000000;fill-opacity:1;fill-rule:nonzero;stroke:none" />
    </g>
    <path
       id="path32"
       d="m 7.3712422,-4.3469609 c 0,-1.59375 -1.0546875,-2.671875 -2.5429688,-2.671875 -2.1445312,0 -4.33593746,2.2617187 -4.33593746,4.5820312 0,1.65234376 1.11328126,2.66015626 2.54296876,2.66015626 2.109375,0 4.3359375,-2.17968746 4.3359375,-4.57031246 z m -4.2773438,4.31249996 c -0.984375,0 -1.6757812,-0.80859375 -1.6757812,-2.12109376 0,-0.4453125 0.140625,-1.8984375 0.9023437,-3.0585937 0.6914063,-1.0429688 1.6640625,-1.5585938 2.4492188,-1.5585938 0.8203125,0 1.7109375,0.5625 1.7109375,2.0390625 0,0.7148438 -0.2695313,2.2734375 -1.2539063,3.5039063 -0.4804687,0.59765621 -1.2890625,1.19531246 -2.1328125,1.19531246 z m 0,0"
       style="fill:#000000;fill-opacity:1;fill-rule:nonzero;stroke:none"
       aria-label="O"
       transform="matrix(1.3333333,0,0,1.3333333,128.26933,139.68267)" />
  </g>
</svg>
