<?xml version="1.0" encoding="UTF-8" standalone="no"?>
<!-- Created with Inkscape (http://www.inkscape.org/) -->

<svg
   version="1.1"
   id="svg1"
   width="210.20399"
   height="77.282669"
   viewBox="0 0 210.20399 77.282669"
   sodipodi:docname="fourier-diagram-1.pdf"
   xmlns:inkscape="http://www.inkscape.org/namespaces/inkscape"
   xmlns:sodipodi="http://sodipodi.sourceforge.net/DTD/sodipodi-0.dtd"
   xmlns="http://www.w3.org/2000/svg"
   xmlns:svg="http://www.w3.org/2000/svg">
  <defs
     id="defs1" />
  <sodipodi:namedview
     id="namedview1"
     pagecolor="#ffffff"
     bordercolor="#000000"
     borderopacity="0.25"
     inkscape:showpageshadow="2"
     inkscape:pageopacity="0.0"
     inkscape:pagecheckerboard="0"
     inkscape:deskcolor="#d1d1d1">
    <inkscape:page
       x="0"
       y="0"
       inkscape:label="1"
       id="page1"
       width="210.20399"
       height="77.282669"
       margin="0"
       bleed="0" />
  </sodipodi:namedview>
  <g
     id="g1"
     inkscape:groupmode="layer"
     inkscape:label="1">
    <path
       id="path1"
       d="m 221.14357,-42.74026 h -68.7431"
       style="fill:none;stroke:#000000;stroke-width:0.74721;stroke-linecap:butt;stroke-linejoin:miter;stroke-miterlimit:10;stroke-dasharray:none;stroke-opacity:1"
       transform="matrix(1.3333333,0,0,-1.3333333,-144.98533,-40.296)" />
    <path
       id="path2"
       d="m 159.07303,-40.28197 c -2.97389,-1.41221 -5.69373,-2.23414 -8.16698,-2.45829 2.47325,-0.22416 5.19309,-1.04609 8.16698,-2.4583"
       style="fill:none;stroke:#000000;stroke-width:0.74721;stroke-linecap:butt;stroke-linejoin:miter;stroke-miterlimit:10;stroke-dasharray:none;stroke-opacity:1"
       transform="matrix(1.3333333,0,0,-1.3333333,-144.98533,-40.296)" />
    <path
       id="path3"
       d="M 165.4467,-82.79059 H 127.59315"
       style="fill:none;stroke:#000000;stroke-width:0.74721;stroke-linecap:butt;stroke-linejoin:miter;stroke-miterlimit:10;stroke-dasharray:none;stroke-opacity:1"
       transform="matrix(1.3333333,0,0,-1.3333333,-144.98533,-40.296)" />
    <path
       id="path4"
       d="m 134.26572,-80.33229 c -2.97388,-1.41221 -5.69372,-2.23415 -8.16698,-2.4583 2.47326,-0.22415 5.1931,-1.04608 8.16698,-2.4583"
       style="fill:none;stroke:#000000;stroke-width:0.74721;stroke-linecap:butt;stroke-linejoin:miter;stroke-miterlimit:10;stroke-dasharray:none;stroke-opacity:1"
       transform="matrix(1.3333333,0,0,-1.3333333,-144.98533,-40.296)" />
    <path
       id="path5"
       d="M 250.62837,-82.79059 H 205.19815"
       style="fill:none;stroke:#000000;stroke-width:0.74721;stroke-linecap:butt;stroke-linejoin:miter;stroke-miterlimit:10;stroke-dasharray:none;stroke-opacity:1"
       transform="matrix(1.3333333,0,0,-1.3333333,-144.98533,-40.296)" />
    <path
       id="path6"
       d="m 211.87071,-80.33229 c -2.97389,-1.41221 -5.69372,-2.23415 -8.16697,-2.4583 2.47325,-0.22415 5.19308,-1.04608 8.16697,-2.4583"
       style="fill:none;stroke:#000000;stroke-width:0.74721;stroke-linecap:butt;stroke-linejoin:miter;stroke-miterlimit:10;stroke-dasharray:none;stroke-opacity:1"
       transform="matrix(1.3333333,0,0,-1.3333333,-144.98533,-40.296)" />
    <g
       id="g6"
       aria-label="δ&#10;ϵ"
       transform="matrix(1.3333333,0,0,1.3333333,38.5,20.894667)">
      <path
         id="path7"
         d="m 2.625,-4.3477578 c -1.2421875,0.2929687 -2.203125,1.59375 -2.203125,2.7890625 0,0.96093749 0.6328125,1.67578124 1.5703125,1.67578124 1.1601563,0 1.9921875,-1.55859374 1.9921875,-2.94140624 0,-0.9023438 -0.3984375,-1.3945313 -0.7382812,-1.8515625 C 2.8945313,-5.1211953 2.296875,-5.8711953 2.296875,-6.3047891 c 0,-0.2226562 0.1992188,-0.4570312 0.5507813,-0.4570312 0.3046875,0 0.5039062,0.1289062 0.703125,0.2695312 C 3.75,-6.3751016 3.9492188,-6.2461953 4.1015625,-6.2461953 4.3476563,-6.2461953 4.5,-6.4805703 4.5,-6.6446328 4.5,-6.8672891 4.3476563,-6.8907266 3.984375,-6.9727578 3.46875,-7.0782266 3.328125,-7.0782266 3.1640625,-7.0782266 c -0.7734375,0 -1.1367187,0.421875 -1.1367187,1.0195313 0,0.5390625 0.2929687,1.1015625 0.5976562,1.7109375 z m 0.1289063,0.2109375 C 3,-3.6797891 3.2929688,-3.1407266 3.2929688,-2.4258828 c 0,0.6679687 -0.375,2.32031249 -1.3007813,2.32031249 -0.5507812,0 -0.9609375,-0.41015625 -0.9609375,-1.17187499 0,-0.6210938 0.375,-2.4960938 1.7226563,-2.859375 z m 0,0"
         style="fill:#000000;fill-opacity:1;fill-rule:nonzero;stroke:none" />
      <path
         id="path8"
         d="m 6.8642578,-0.06455469 c 0.1054688,0 0.234375,0 0.234375,-0.140625 0,-0.1171875 -0.1054687,-0.1171875 -0.234375,-0.1171875 H 5.6103516 C 5.8212891,-0.95517969 6.2783203,-1.2598672 6.8876953,-1.2598672 h 0.2695313 c 0.1054687,0 0.234375,0 0.234375,-0.1289062 0,-0.1171875 -0.09375,-0.1171875 -0.2226563,-0.1171875 H 6.8642578 c -0.9257812,0 -1.96875,0.64453121 -1.96875,1.69921871 0,0.82031249 0.6210938,1.37109379 1.4296875,1.37109379 0.2109375,0 0.5039063,-0.035156 0.8789063,-0.2460938 0.140625,-0.070312 0.1523437,-0.09375 0.1523437,-0.140625 0,-0.023437 0,-0.140625 -0.1054687,-0.140625 -0.023437,0 -0.046875,0.011719 -0.082031,0.035156 -0.2460937,0.1640625 -0.5390625,0.2929687 -0.8203125,0.2929687 -0.28125,0 -0.8671875,-0.140625 -0.8671875,-0.92578124 0,-0.10546875 0,-0.24609375 0.070312,-0.50390625 z m 0,0"
         style="fill:#000000;fill-opacity:1;fill-rule:nonzero;stroke:none" />
    </g>
    <g
       id="g8"
       aria-label="∆&#10;ϵ"
       transform="matrix(1.3333333,0,0,1.3333333,156.384,19.690667)">
      <path
         id="path9"
         d="m 4.4053594,-6.9486641 c -0.070312,-0.1289062 -0.09375,-0.1875 -0.2578125,-0.1875 -0.1757813,0 -0.1992188,0.058594 -0.2578125,0.1875 l -3.37500002,6.75000004 c -0.046875,0.09375 -0.046875,0.10546875 -0.046875,0.1171875 0,0.0820312475 0.0585938,0.0820312475 0.22265625,0.0820312475 H 7.6045781 c 0.1523438,0 0.2109375,0 0.2109375,-0.0820312475 0,-0.01171875 0,-0.0234375 -0.046875,-0.1171875 z m -0.5859375,0.8085938 2.6835937,5.37890624 H 1.1358281 Z m 0,0"
         style="fill:#000000;fill-opacity:1;fill-rule:nonzero;stroke:none" />
      <path
         id="path10"
         d="m 10.739344,-0.06389844 c 0.105469,0 0.234375,0 0.234375,-0.140625 0,-0.1171875 -0.105469,-0.1171875 -0.234375,-0.1171875 H 9.4854375 C 9.696375,-0.95452344 10.153406,-1.2592109 10.762781,-1.2592109 h 0.269532 c 0.105468,0 0.234375,0 0.234375,-0.1289063 0,-0.1171875 -0.09375,-0.1171875 -0.222657,-0.1171875 h -0.304687 c -0.9257815,0 -1.9687502,0.64453126 -1.9687502,1.69921876 0,0.82031254 0.6210937,1.37109374 1.4296872,1.37109374 0.210938,0 0.503907,-0.035156 0.878907,-0.2460937 0.140625,-0.070312 0.152343,-0.09375 0.152343,-0.140625 0,-0.023437 0,-0.140625 -0.105468,-0.140625 -0.02344,0 -0.04687,0.011719 -0.08203,0.035156 -0.246093,0.1640625 -0.539062,0.2929688 -0.820312,0.2929688 -0.2812502,0 -0.8671877,-0.140625 -0.8671877,-0.92578129 0,-0.10546875 0,-0.24609375 0.070312,-0.50390625 z m 0,0"
         style="fill:#000000;fill-opacity:1;fill-rule:nonzero;stroke:none" />
    </g>
    <g
       id="g10"
       aria-label="F&#10;−1"
       transform="matrix(1.3333333,0,0,1.3333333,90.48,11.808)">
      <path
         id="path11"
         d="m 8.2737891,-6.4214297 c 0,-0.4570312 -0.7734375,-0.3867187 -1.078125,-0.3867187 H 3.4339453 c -0.4921875,0 -1.3828125,0.28125 -1.5351562,0.8203125 0.011719,0.058594 0.035156,0.070312 0.09375,0.070312 0.2226562,0 0.515625,-0.1757813 0.65625,-0.328125 0.3046875,0 0.609375,-0.023437 0.9140625,-0.023437 h 0.6210937 c 0,0 -0.035156,0.1875 -0.035156,0.1875 -0.3984375,1.828125 -0.984375,3.375 -1.4179688,4.3476562 -0.058594,0.1289063 -0.5976562,1.37109376 -0.7382812,1.50000001 -0.4335938,0 -0.7617188,-0.24609375 -0.9492188,-0.6328125 -0.023437,-0.0585938 -0.023437,-0.09375 -0.09375,-0.09375 -0.234375,0 -0.78515625,0.31640625 -0.78515625,0.48046875 0,0.0234375 0.0117188,0.046875 0.0234375,0.0585938 0.17578125,0.46875 0.6328125,0.73828125 1.11328125,0.73828125 0.515625,0 1.1015625,-0.36328125 1.4179688,-0.73828125 0.328125,-0.375 0.984375,-2.00390616 1.2421875,-2.60156256 h 1.921875 c 0,0 -0.011719,0.011719 -0.011719,0.023437 0,0.046875 0.058594,0.070312 0.09375,0.070312 0.2226563,0 0.7851563,-0.28125 0.7851563,-0.5859375 0,-0.070312 -0.070312,-0.058594 -0.1875,-0.058594 h -2.390625 c 0.2578125,-0.9023438 0.5976562,-1.7695313 0.7734375,-2.6953125 h 1.3242187 c 0.2460938,0 0.9375,-0.046875 1.125,0.1757812 0.011719,0.058594 -0.011719,0.1523438 0.011719,0.2109375 0.023437,0.011719 0.058594,0.023437 0.082031,0.023437 0.2460938,0 0.7851563,-0.2929687 0.7851563,-0.5625 z m 0,0"
         style="fill:#000000;fill-opacity:1;fill-rule:nonzero;stroke:none" />
      <path
         id="path12"
         d="m 13.342148,-5.1851016 c 0.105469,0 0.269532,0 0.269532,-0.1757812 0,-0.1757813 -0.152344,-0.1757813 -0.269532,-0.1757813 H 9.1819922 c -0.1054688,0 -0.28125,0 -0.28125,0.1757813 0,0.1757812 0.1640625,0.1757812 0.28125,0.1757812 z m 0,0"
         style="fill:#000000;fill-opacity:1;fill-rule:nonzero;stroke:none" />
      <path
         id="path13"
         d="m 16.708359,-8.0444766 c 0,-0.1875 -0.01172,-0.1992187 -0.210937,-0.1992187 -0.445313,0.4335937 -1.078125,0.4453125 -1.359375,0.4453125 v 0.2460937 c 0.164062,0 0.621094,0 1.007812,-0.1875 v 3.5507813 c 0,0.234375 0,0.328125 -0.691406,0.328125 h -0.269531 v 0.2460937 c 0.128906,-0.011719 0.984375,-0.023437 1.242187,-0.023437 0.210938,0 1.089844,0.011719 1.242188,0.023437 v -0.2460937 h -0.257813 c -0.703125,0 -0.703125,-0.09375 -0.703125,-0.328125 z m 0,0"
         style="fill:#000000;fill-opacity:1;fill-rule:nonzero;stroke:none" />
    </g>
    <g
       id="g13"
       aria-label="δ&#10;ϵ"
       transform="matrix(1.3333333,0,0,1.3333333,5.424,74.293333)">
      <path
         id="path14"
         d="m 2.6263359,-4.3479297 c -1.2421875,0.2929688 -2.20312496,1.59375 -2.20312496,2.7890625 0,0.96093751 0.63281246,1.67578126 1.57031246,1.67578126 1.1601563,0 1.9921875,-1.55859376 1.9921875,-2.94140626 0,-0.9023437 -0.3984375,-1.3945312 -0.7382812,-1.8515625 -0.3515625,-0.4453125 -0.9492188,-1.1953125 -0.9492188,-1.6289062 0,-0.2226563 0.1992188,-0.4570313 0.5507813,-0.4570313 0.3046875,0 0.5039062,0.1289063 0.703125,0.2695313 0.1992187,0.1171875 0.3984375,0.2460937 0.5507812,0.2460937 0.2460938,0 0.3984375,-0.234375 0.3984375,-0.3984375 0,-0.2226562 -0.1523437,-0.2460937 -0.515625,-0.328125 -0.515625,-0.1054687 -0.65625,-0.1054687 -0.8203125,-0.1054687 -0.7734375,0 -1.1367187,0.421875 -1.1367187,1.0195312 0,0.5390625 0.2929687,1.1015625 0.5976562,1.7109375 z m 0.1289063,0.2109375 c 0.2460937,0.4570313 0.5390625,0.9960938 0.5390625,1.7109375 0,0.6679688 -0.375,2.32031251 -1.3007813,2.32031251 -0.5507812,0 -0.9609375,-0.41015625 -0.9609375,-1.17187501 0,-0.6210937 0.375,-2.4960937 1.7226563,-2.859375 z m 0,0"
         style="fill:#000000;fill-opacity:1;fill-rule:nonzero;stroke:none" />
      <path
         id="path15"
         d="m 6.8655937,-0.06472656 c 0.1054688,0 0.234375,0 0.234375,-0.140625 0,-0.1171875 -0.1054687,-0.1171875 -0.234375,-0.1171875 H 5.6116875 C 5.822625,-0.95535156 6.2796562,-1.2600391 6.8890312,-1.2600391 h 0.2695313 c 0.1054687,0 0.234375,0 0.234375,-0.1289062 0,-0.1171875 -0.09375,-0.1171875 -0.2226563,-0.1171875 H 6.8655937 c -0.9257812,0 -1.96875,0.64453124 -1.96875,1.69921874 0,0.82031246 0.6210938,1.37109376 1.4296875,1.37109376 0.2109375,0 0.5039063,-0.035156 0.8789063,-0.2460938 0.140625,-0.070312 0.1523437,-0.09375 0.1523437,-0.140625 0,-0.023437 0,-0.140625 -0.1054687,-0.140625 -0.023437,0 -0.046875,0.011719 -0.082031,0.035156 C 6.9241878,1.2360544 6.631219,1.3649606 6.349969,1.3649606 c -0.28125,0 -0.8671875,-0.140625 -0.8671875,-0.92578121 0,-0.10546875 0,-0.24609375 0.070312,-0.50390625 z m 0,0"
         style="fill:#000000;fill-opacity:1;fill-rule:nonzero;stroke:none" />
    </g>
    <g
       id="g15"
       aria-label="∆&#10;ϵ"
       transform="matrix(1.3333333,0,0,1.3333333,193.04667,73.089333)">
      <path
         id="path16"
         d="m 4.4064063,-6.9488359 c -0.070312,-0.1289063 -0.09375,-0.1875 -0.2578125,-0.1875 -0.1757813,0 -0.1992188,0.058594 -0.2578125,0.1875 l -3.37500005,6.74999996 c -0.046875,0.09375 -0.046875,0.10546875 -0.046875,0.1171875 0,0.0820312525 0.0585937,0.0820312525 0.22265625,0.0820312525 H 7.605625 c 0.1523438,0 0.2109375,0 0.2109375,-0.0820312525 0,-0.01171875 0,-0.0234375 -0.046875,-0.1171875 z m -0.5859375,0.8085937 2.6835937,5.37890626 H 1.136875 Z m 0,0"
         style="fill:#000000;fill-opacity:1;fill-rule:nonzero;stroke:none" />
      <path
         id="path17"
         d="m 10.740391,-0.06407031 c 0.105468,0 0.234375,0 0.234375,-0.140625 0,-0.1171875 -0.105469,-0.1171875 -0.234375,-0.1171875 H 9.4864844 C 9.6974219,-0.95469531 10.154453,-1.2593828 10.763828,-1.2593828 h 0.269531 c 0.105469,0 0.234375,0 0.234375,-0.1289063 0,-0.1171875 -0.09375,-0.1171875 -0.222656,-0.1171875 h -0.304687 c -0.9257816,0 -1.9687504,0.64453129 -1.9687504,1.69921879 0,0.82031251 0.6210938,1.37109371 1.4296874,1.37109371 0.210938,0 0.503906,-0.035156 0.878906,-0.2460937 0.140625,-0.070312 0.152344,-0.09375 0.152344,-0.140625 0,-0.023437 0,-0.140625 -0.105469,-0.140625 -0.02344,0 -0.04687,0.011719 -0.08203,0.035156 -0.246094,0.1640625 -0.539062,0.2929688 -0.820312,0.2929688 -0.2812504,0 -0.8671879,-0.140625 -0.8671879,-0.92578126 0,-0.10546875 0,-0.24609375 0.070312,-0.50390625 z m 0,0"
         style="fill:#000000;fill-opacity:1;fill-rule:nonzero;stroke:none" />
    </g>
    <g
       id="g17"
       aria-label="K→∞"
       transform="matrix(1.3333333,0,0,1.3333333,29.812,65.208)">
      <path
         id="path18"
         d="M 4.2777187,-3.1999453 C 4.266,-3.2233828 4.2308437,-3.3054141 4.2308437,-3.3054141 c 0,-0.023437 0.140625,-0.1171875 0.2109375,-0.1640625 0.6328125,-0.46875 1.5,-1.0898437 1.7578125,-1.2539062 0.4101563,-0.2578125 0.703125,-0.421875 1.0546875,-0.4570313 0.070312,-0.011719 0.1757813,-0.011719 0.1757813,-0.1640625 0,-0.046875 -0.046875,-0.09375 -0.1054688,-0.09375 -0.011719,0 -0.234375,0.023437 -0.2929687,0.023437 H 6.7152187 c -0.1289062,0 -0.328125,0 -0.3984375,-0.011719 -0.058594,0 -0.375,-0.011719 -0.421875,-0.011719 -0.058594,0 -0.1757812,0 -0.1757812,0.140625 0,0.011719 0.011719,0.1054688 0.1289062,0.1171875 0.070312,0.011719 0.1875,0.023437 0.1875,0.1171875 0,0.1289063 -0.1523437,0.2695313 -0.1757812,0.2695313 l -0.058594,0.058594 c -0.023437,0.023437 -0.058594,0.058594 -0.09375,0.082031 L 2.4495935,-2.2976026 3.082406,-4.8171338 c 0.070312,-0.2929688 0.09375,-0.3632813 0.6679688,-0.3632813 0.1640625,0 0.2578125,0 0.2578125,-0.1523437 0,-0.011719 -0.011719,-0.1054688 -0.140625,-0.1054688 -0.140625,0 -0.3398438,0.011719 -0.4921875,0.023437 H 2.8714687 c -0.7617187,0 -0.9609375,-0.023437 -1.0195312,-0.023437 -0.046875,0 -0.1640625,0 -0.1640625,0.140625 0,0.1171875 0.09375,0.1171875 0.234375,0.1171875 0.2578125,0 0.4921875,0 0.4921875,0.1289063 0,0.035156 -0.011719,0.035156 -0.035156,0.140625 L 1.312875,-0.63353906 c -0.070312,0.3046875 -0.082031,0.375 -0.6796875,0.375 -0.15234375,0 -0.24609375,0 -0.24609375,0.140625 0,0.03515625 0.0234375,0.1171874975 0.12890625,0.1171874975 0.15234375,0 0.33984375,-0.0117187475 0.4921875,-0.0234374975 h 1.03125 c 0.1289062,0.01171875 0.3867187,0.0234374975 0.515625,0.0234374975 0.035156,0 0.1523437,0 0.1523437,-0.1406249975 0,-0.1171875 -0.09375,-0.1171875 -0.234375,-0.1171875 -0.046875,0 -0.1640625,0 -0.2929687,-0.0234375 -0.1757813,-0.0117188 -0.1992188,-0.0351563 -0.1992188,-0.10546875 0,-0.046875 0.058594,-0.24609375 0.082031,-0.375 l 0.3046875,-1.20703129 1.2773437,-0.9257812 0.9609375,1.96874999 c 0.035156,0.0703125 0.1171875,0.24609375 0.1523438,0.31640625 0.046875,0.0703125 0.046875,0.09375 0.046875,0.12890625 0,0.2109375 -0.2929688,0.22265625 -0.3867188,0.22265625 -0.070312,0 -0.1875,0 -0.1875,0.140625 0,0.0117188 0.011719,0.1171874975 0.140625,0.1171874975 0.070312,0 0.375,-0.0117187475 0.4453125,-0.0234374975 h 0.46875 c 0.7265625,0 0.703125,0.0234374975 0.8085938,0.0234374975 0.035156,0 0.1523437,0 0.1523437,-0.1523437475 0,-0.10546875 -0.1054687,-0.10546875 -0.1523437,-0.10546875 -0.3164063,-0.0117188 -0.421875,-0.0703125 -0.5507813,-0.33984375 z m 0,0"
         style="fill:#808080;fill-opacity:1;fill-rule:nonzero;stroke:none" />
      <path
         id="path19"
         d="m 17.01893,-1.8054141 c -0.269532,0.1992188 -0.527344,0.4453125 -0.714844,0.7382813 -0.339844,0.51562499 -0.433594,1.03124999 -0.433594,1.05468749 0,0.12890625 0.117188,0.12890625 0.1875,0.12890625 0.09375,0 0.164063,0 0.1875,-0.10546875 0.199219,-0.890625 0.714844,-1.55859379 1.675781,-1.88671879 0.07031,-0.011719 0.128907,-0.035156 0.128907,-0.1171875 0,-0.082031 -0.07031,-0.1054687 -0.105469,-0.1171875 -1.054688,-0.3515625 -1.523438,-1.1015625 -1.6875,-1.8046875 -0.03516,-0.1523437 -0.03516,-0.1875 -0.199219,-0.1875 -0.07031,0 -0.1875,0 -0.1875,0.1289063 0,0.011719 0.08203,0.5390625 0.433594,1.0664062 0.234375,0.328125 0.515625,0.5742188 0.714844,0.7265625 h -6.1875 c -0.128907,0 -0.304688,0 -0.304688,0.1875 0,0.1875 0.175781,0.1875 0.304688,0.1875 z m 8.159179,-0.375 c -0.46875,-0.5742187 -0.527343,-0.6328125 -0.808593,-0.84375 -0.363282,-0.28125 -0.855469,-0.4921875 -1.382813,-0.4921875 -0.972656,0 -1.640625,0.8554688 -1.640625,1.8046875 0,0.92578129 0.667969,1.79296879 1.605469,1.79296879 0.65625,0 1.429687,-0.33984375 2.085937,-1.33593749 0.46875,0.57421874 0.539063,0.63281249 0.808594,0.84374999 0.375,0.26953125 0.855469,0.4921875 1.382813,0.4921875 0.972656,0 1.640625,-0.85546875 1.640625,-1.80468749 0,-0.9257813 -0.65625,-1.7929688 -1.605469,-1.7929688 -0.65625,0 -1.417969,0.3398438 -2.085938,1.3359375 z m 0.246094,0.2929688 c 0.292969,-0.5039063 0.949219,-1.3242188 1.886719,-1.3242188 0.855469,0 1.335937,0.7734375 1.335937,1.4882813 0,0.77343749 -0.585937,1.37109374 -1.289062,1.37109374 -0.703125,0 -1.171875,-0.5859375 -1.933594,-1.53515624 z m -0.621094,0.3398437 c -0.304687,0.5039063 -0.960937,1.32421879 -1.898437,1.32421879 -0.855469,0 -1.335938,-0.7734375 -1.335938,-1.48828129 0,-0.7734375 0.585938,-1.3710937 1.289063,-1.3710937 0.703125,0 1.171875,0.5742187 1.945312,1.5351562 z m 0,0"
         style="fill:#808080;fill-opacity:1;fill-rule:nonzero;stroke:none" />
    </g>
    <g
       id="g19"
       aria-label="R&#10;K&#10;−K&#10;dke&#10;ikx"
       transform="matrix(0.66666667,0,0,0.66666667,141.308,58.222)">
      <path
         id="path20"
         d="m 2.7196406,8.7666094 c -0.140625,1.6406246 -0.4921875,2.0859376 -1.0546875,2.0859376 -0.140625,0 -0.4453125,-0.02344 -0.65625,-0.210938 0.3046875,-0.04687 0.375,-0.28125 0.375,-0.421875 0,-0.2812496 -0.2109375,-0.3984371 -0.39843747,-0.3984371 -0.2109375,0 -0.421875,0.1171875 -0.421875,0.4218751 0,0.46875 0.49218747,0.820312 1.10156247,0.820312 0.9375,0 1.40625,-0.867187 1.640625,-1.7578121 0.1171875,-0.515625 0.4921875,-3.421875 0.5625,-4.5234375 l 0.1875,-2.484375 c 0.140625,-1.82812503 0.46875,-2.08593753 0.9375,-2.08593753 0.09375,0 0.3984375,0.0234375 0.609375,0.2109375 -0.28125,0.046875 -0.3515625,0.28125 -0.3515625,0.421875 0,0.28125003 0.2109375,0.42187503 0.3984375,0.42187503 0.1875,0 0.421875,-0.140625 0.421875,-0.44531253 0,-0.46875 -0.4921875,-0.820312495 -1.1015625,-0.820312495 -0.9375,0 -1.3359375,0.960937495 -1.5,1.734375025 -0.1171875,0.5390625 -0.46875,3.3515625 -0.5625,4.546875 z m 0,0"
         style="fill:#808080;fill-opacity:1;fill-rule:nonzero;stroke:none" />
      <path
         id="path21"
         d="m 12.288,1.5947344 c -0.02344,-0.046875 -0.02344,-0.070312 -0.02344,-0.070312 0,-0.023437 0,-0.023437 0.164062,-0.140625 L 13.13175,0.89160937 c 0.914063,-0.65625 1.359375,-0.9609375 1.851563,-1.0078125 0.07031,0 0.164062,0 0.164062,-0.140625 0,-0.0703125 -0.04687,-0.09375 -0.09375,-0.09375 -0.140625,0 -0.328125,0.0234375 -0.492187,0.0234375 -0.1875,0 -0.65625,-0.046875 -0.84375,-0.046875 -0.04687,0 -0.140625,0 -0.140625,0.1640625 0,0 0,0.09375 0.09375,0.09375 0.09375,0 0.1875,0.0234375 0.1875,0.09375 0,0.140625 -0.210938,0.28125 -0.304688,0.3515625 l -2.90625,2.06250003 0.539063,-2.20312503 c 0.07031,-0.234375 0.07031,-0.3046875 0.609375,-0.3046875 0.117187,0 0.210937,0 0.210937,-0.140625 0,-0.0703125 -0.04687,-0.1171875 -0.117187,-0.1171875 -0.1875,0 -0.703125,0.046875 -0.914063,0.046875 -0.117187,0 -0.351562,0 -0.46875,-0.0234375 -0.140625,0 -0.304687,-0.0234375 -0.445312,-0.0234375 -0.04687,0 -0.1406255,0 -0.1406255,0.1640625 0,0.09375 0.070312,0.09375 0.2343755,0.09375 0.09375,0 0.140625,0 0.257812,0.0234375 0.140625,0 0.164063,0.0234375 0.164063,0.093750005 0,0.023437495 0,0.046874995 -0.04687,0.164062495 L 9.616125,3.8681719 c -0.070312,0.234375 -0.070312,0.28125 -0.609375,0.28125 -0.140625,0 -0.2109375,0 -0.2109375,0.1640625 0,0 0,0.09375 0.09375,0.09375 0.2109375,0 0.703125,-0.023437 0.9140625,-0.023437 0.1171875,0 0.375,0 0.492188,0 0.140625,0 0.304687,0.023437 0.445312,0.023437 0.02344,0 0.140625,0 0.140625,-0.1640625 0,-0.09375 -0.09375,-0.09375 -0.234375,-0.09375 0,0 -0.140625,0 -0.257812,0 C 10.2255,4.1259844 10.2255,4.1025469 10.2255,4.0322344 c 0,-0.046875 0.07031,-0.3046875 0.328125,-1.3359375 l 1.171875,-0.8203125 1.007813,1.96875 c 0.04687,0.09375 0.04687,0.09375 0.04687,0.140625 0,0.140625 -0.1875,0.1640625 -0.328125,0.1640625 -0.07031,0 -0.164063,0 -0.164063,0.1640625 0,0 0,0.09375 0.117188,0.09375 0.1875,0 0.679687,-0.023437 0.890625,-0.023437 0.210937,0 0.492187,0.023437 0.679687,0.023437 0.09375,0 0.140625,-0.046875 0.140625,-0.140625 0,-0.1171875 -0.09375,-0.1171875 -0.164062,-0.1171875 -0.117188,0 -0.351563,0 -0.46875,-0.234375 z m 0,0"
         style="fill:#808080;fill-opacity:1;fill-rule:nonzero;stroke:none" />
      <path
         id="path22"
         d="m 13.50675,9.2002031 c 0.09375,0 0.28125,0 0.28125,-0.1875 0,-0.1640625 -0.164062,-0.1640625 -0.28125,-0.1640625 H 9.334875 c -0.1171875,0 -0.28125,0 -0.28125,0.1640625 0,0.1875 0.1640625,0.1875 0.28125,0.1875 z m 0,0"
         style="fill:#808080;fill-opacity:1;fill-rule:nonzero;stroke:none" />
      <path
         id="path23"
         d="m 18.510656,7.9580156 c -0.02344,-0.046875 -0.02344,-0.070312 -0.02344,-0.070312 0,-0.023437 0,-0.023437 0.164062,-0.140625 l 0.703125,-0.4921875 c 0.914063,-0.65625 1.359375,-0.9609375 1.851563,-1.0078125 0.07031,0 0.164062,0 0.164062,-0.140625 0,-0.070312 -0.04687,-0.09375 -0.09375,-0.09375 -0.140625,0 -0.328125,0.023437 -0.492187,0.023437 -0.1875,0 -0.65625,-0.046875 -0.84375,-0.046875 -0.04687,0 -0.140625,0 -0.140625,0.1640625 0,0 0,0.09375 0.09375,0.09375 0.09375,0 0.1875,0.023437 0.1875,0.09375 0,0.140625 -0.210938,0.28125 -0.304688,0.3515625 l -2.90625,2.0625 0.539063,-2.203125 c 0.07031,-0.234375 0.07031,-0.3046875 0.609375,-0.3046875 0.117187,0 0.210937,0 0.210937,-0.140625 0,-0.070312 -0.04687,-0.1171875 -0.117187,-0.1171875 -0.1875,0 -0.703125,0.046875 -0.914063,0.046875 -0.117187,0 -0.351562,0 -0.46875,-0.023437 -0.140625,0 -0.304687,-0.023437 -0.445312,-0.023437 -0.04687,0 -0.140625,0 -0.140625,0.1640625 0,0.09375 0.07031,0.09375 0.234375,0.09375 0.09375,0 0.140625,0 0.257812,0.023437 0.140625,0 0.164063,0.023437 0.164063,0.09375 0,0.023437 0,0.046875 -0.04687,0.1640625 l -0.914063,3.7031244 c -0.07031,0.234375 -0.07031,0.28125 -0.609375,0.28125 -0.140625,0 -0.210937,0 -0.210937,0.164063 0,0 0,0.09375 0.09375,0.09375 0.210937,0 0.703125,-0.02344 0.914062,-0.02344 0.117188,0 0.375,0 0.492188,0 0.140625,0 0.304687,0.02344 0.445312,0.02344 0.02344,0 0.140625,0 0.140625,-0.164063 0,-0.09375 -0.09375,-0.09375 -0.234375,-0.09375 0,0 -0.140625,0 -0.257812,0 -0.164063,-0.02344 -0.164063,-0.04687 -0.164063,-0.117187 0,-0.04687 0.07031,-0.304688 0.328125,-1.3359374 l 1.171875,-0.8203125 1.007813,1.9687499 c 0.04687,0.09375 0.04687,0.09375 0.04687,0.140625 0,0.140625 -0.1875,0.164062 -0.328125,0.164062 -0.07031,0 -0.164063,0 -0.164063,0.164063 0,0 0,0.09375 0.117188,0.09375 0.1875,0 0.679687,-0.02344 0.890625,-0.02344 0.210937,0 0.492187,0.02344 0.679687,0.02344 0.09375,0 0.140625,-0.04687 0.140625,-0.140625 0,-0.117188 -0.09375,-0.117188 -0.164062,-0.117188 -0.117188,0 -0.351563,0 -0.46875,-0.234375 z m 0,0"
         style="fill:#808080;fill-opacity:1;fill-rule:nonzero;stroke:none" />
      <path
         id="path24"
         d="m 27.340734,1.2314531 c 0,-0.023437 0,-0.1171875 -0.117187,-0.1171875 -0.164063,0 -1.101563,0.09375 -1.265625,0.1171875 -0.09375,0 -0.140625,0.046875 -0.140625,0.1875 0,0.1171875 0.09375,0.1171875 0.234375,0.1171875 0.46875,0 0.492187,0.070312 0.492187,0.1640625 l -0.02344,0.2109375 -0.585938,2.34375 c -0.1875,-0.3515625 -0.46875,-0.6328125 -0.9375,-0.6328125 -1.148437,0 -2.390625,1.4765625 -2.390625,2.9296875 0,0.9375 0.539063,1.59375 1.335938,1.59375 0.1875,0 0.679687,-0.046875 1.289062,-0.75 0.07031,0.421875 0.421875,0.75 0.890625,0.75 0.351563,0 0.585938,-0.234375 0.75,-0.5625 0.164063,-0.3515625 0.304688,-0.9609375 0.304688,-0.984375 0,-0.09375 -0.09375,-0.09375 -0.117188,-0.09375 -0.117187,0 -0.117187,0.046875 -0.140625,0.1875 -0.1875,0.6328125 -0.351562,1.21875 -0.773437,1.21875 -0.257813,0 -0.28125,-0.2578125 -0.28125,-0.4453125 0,-0.234375 0,-0.3046875 0.04687,-0.4921875 z m -2.0625,5.6015625 c -0.04687,0.1875 -0.04687,0.2109375 -0.210937,0.375 -0.421875,0.5625 -0.84375,0.703125 -1.125,0.703125 -0.492188,0 -0.632813,-0.5390625 -0.632813,-0.9375 0,-0.4921875 0.328125,-1.7109375 0.5625,-2.1796875 0.304688,-0.5859375 0.75,-0.9609375 1.148438,-0.9609375 0.632812,0 0.773437,0.8203125 0.773437,0.890625 0,0.046875 0,0.1171875 -0.02344,0.1640625 z m 4.97461,-5.6015625 c 0,-0.023437 0,-0.1171875 -0.140625,-0.1171875 -0.210938,0 -0.9375,0.070312 -1.195313,0.09375 -0.09375,0.023437 -0.1875,0.023437 -0.1875,0.2109375 0,0.1171875 0.07031,0.1171875 0.234375,0.1171875 0.46875,0 0.492188,0.070312 0.492188,0.1640625 l -0.02344,0.2109375 -1.453125,5.71875 c -0.04687,0.140625 -0.04687,0.1640625 -0.04687,0.234375 0,0.234375 0.210938,0.28125 0.304688,0.28125 0.117187,0 0.28125,-0.09375 0.328125,-0.2109375 0.04687,-0.09375 0.492187,-1.9453125 0.5625,-2.1796875 0.328125,0.023437 1.148437,0.1875 1.148437,0.84375 0,0.070312 0,0.09375 -0.02344,0.2109375 -0.02344,0.1171875 -0.04687,0.234375 -0.04687,0.3515625 0,0.5859375 0.398437,0.984375 0.914062,0.984375 0.304688,0 0.585938,-0.1640625 0.796875,-0.5390625 0.257813,-0.4453125 0.351563,-0.984375 0.351563,-1.0078125 0,-0.09375 -0.09375,-0.09375 -0.117188,-0.09375 -0.09375,0 -0.117187,0.046875 -0.140625,0.1875 -0.1875,0.7265625 -0.421875,1.21875 -0.867187,1.21875 -0.1875,0 -0.304688,-0.09375 -0.304688,-0.46875 0,-0.1640625 0.02344,-0.3984375 0.07031,-0.5390625 0.04687,-0.1875 0.04687,-0.2109375 0.04687,-0.328125 0,-0.6328125 -0.632813,-0.9375 -1.476563,-1.03125 0.304688,-0.1875 0.632813,-0.515625 0.84375,-0.75 0.492188,-0.515625 0.9375,-0.9609375 1.429688,-0.9609375 0.07031,0 0.07031,0 0.09375,0.023437 0.117187,0.023437 0.140625,0.023437 0.210937,0.070312 0.02344,0.023437 0.02344,0.023437 0.04687,0.046875 -0.492187,0.023437 -0.585937,0.421875 -0.585937,0.5390625 0,0.1640625 0.117187,0.3515625 0.398437,0.3515625 0.257813,0 0.539063,-0.234375 0.539063,-0.609375 0,-0.3046875 -0.234375,-0.6328125 -0.679688,-0.6328125 -0.28125,0 -0.726562,0.09375 -1.453125,0.890625 -0.328125,0.375 -0.726562,0.7734375 -1.101562,0.9140625 z m 4.488281,4.5 c 0.304688,0 1.03125,-0.023437 1.546875,-0.234375 0.679688,-0.3046875 0.726563,-0.890625 0.726563,-1.03125 0,-0.421875 -0.375,-0.84375 -1.054688,-0.84375 -1.101562,0 -2.601562,0.9609375 -2.601562,2.71875 0,1.0078125 0.585937,1.8046875 1.546875,1.8046875 1.429687,0 2.273437,-1.0546875 2.273437,-1.171875 0,-0.070312 -0.07031,-0.140625 -0.117187,-0.140625 -0.04687,0 -0.07031,0.023437 -0.140625,0.09375 -0.773438,0.984375 -1.875,0.984375 -1.992188,0.984375 -0.773437,0 -0.867187,-0.8203125 -0.867187,-1.1484375 0,-0.1171875 0.02344,-0.421875 0.164062,-1.03125 z m -0.445312,-0.234375 c 0.375,-1.5 1.40625,-1.6640625 1.664062,-1.6640625 0.46875,0 0.726563,0.3046875 0.726563,0.6328125 0,1.03125 -1.59375,1.03125 -1.992188,1.03125 z m 0,0"
         style="fill:#808080;fill-opacity:1;fill-rule:nonzero;stroke:none" />
      <path
         id="path25"
         d="m 39.809484,0.04785937 c 0,-0.1171875 -0.09375,-0.28125 -0.28125,-0.28125 -0.1875,0 -0.398437,0.1875 -0.398437,0.3984375 0,0.1171875 0.09375,0.2578125 0.28125,0.2578125 0.210937,0 0.398437,-0.1875 0.398437,-0.375 z M 38.379797,3.5869219 c -0.02344,0.09375 -0.07031,0.1875 -0.07031,0.3046875 0,0.328125 0.28125,0.5859375 0.65625,0.5859375 0.703125,0 1.007813,-0.9609375 1.007813,-1.078125 0,-0.070312 -0.09375,-0.070312 -0.09375,-0.070312 -0.117188,0 -0.117188,0.023437 -0.140625,0.1171875 -0.164063,0.5390625 -0.46875,0.84375 -0.75,0.84375 -0.140625,0 -0.164063,-0.09375 -0.164063,-0.2578125 0,-0.1640625 0.04687,-0.28125 0.117188,-0.4453125 0.07031,-0.1875 0.140625,-0.375 0.210937,-0.5625 0.07031,-0.1640625 0.328125,-0.796875 0.351563,-0.890625 0.02344,-0.070312 0.04687,-0.140625 0.04687,-0.2109375 0,-0.328125 -0.28125,-0.5859375 -0.679688,-0.5859375 -0.679687,0 -1.007812,0.9375 -1.007812,1.0546875 0,0.09375 0.09375,0.09375 0.117187,0.09375 0.09375,0 0.117188,-0.023437 0.117188,-0.1171875 0.1875,-0.5859375 0.492187,-0.84375 0.75,-0.84375 0.117187,0 0.1875,0.046875 0.1875,0.234375 0,0.1640625 -0.04687,0.28125 -0.210938,0.703125 z m 4.154297,-3.82031253 c 0.02344,0 0.02344,-0.09375 0.02344,-0.1171875 0,-0.0234375 -0.02344,-0.09375 -0.09375,-0.09375 -0.140625,0 -0.726562,0.0703125 -0.890625,0.0703125 -0.07031,0 -0.164062,0.0234375 -0.164062,0.1640625 0,0.09375 0.09375,0.09375 0.1875,0.09375 0.328125,0 0.328125,0.046875 0.328125,0.117187505 0,0.046874995 -0.02344,0.093749995 -0.02344,0.140624995 L 40.916906,4.1025469 c -0.04687,0.1171875 -0.04687,0.140625 -0.04687,0.140625 0,0.1171875 0.09375,0.234375 0.234375,0.234375 0.210938,0 0.28125,-0.140625 0.328125,-0.3046875 0.02344,-0.023437 0.328125,-1.2421875 0.351563,-1.3359375 0.492187,0.046875 0.890625,0.2109375 0.890625,0.5625 0,0.046875 0,0.070312 -0.02344,0.140625 -0.02344,0.1171875 -0.02344,0.140625 -0.02344,0.2109375 0,0.4921875 0.398437,0.7265625 0.75,0.7265625 0.679687,0 0.890625,-1.0546875 0.890625,-1.078125 0,-0.070312 -0.09375,-0.070312 -0.117188,-0.070312 -0.09375,0 -0.117187,0.023437 -0.140625,0.1640625 -0.09375,0.28125 -0.28125,0.796875 -0.609375,0.796875 -0.1875,0 -0.257812,-0.1875 -0.257812,-0.375 0,-0.1171875 0,-0.140625 0.04687,-0.3046875 0,-0.023437 0.02344,-0.140625 0.02344,-0.234375 0,-0.609375 -0.820312,-0.703125 -1.125,-0.7265625 0.210938,-0.1171875 0.46875,-0.3515625 0.585938,-0.46875 0.351562,-0.328125 0.703125,-0.65625 1.101562,-0.65625 0.07031,0 0.164063,0.023437 0.234375,0.09375 -0.304687,0.046875 -0.375,0.28125 -0.375,0.375 0,0.1640625 0.117188,0.28125 0.28125,0.28125 0.1875,0 0.398438,-0.1640625 0.398438,-0.46875 0,-0.2109375 -0.164063,-0.46875 -0.539063,-0.46875 -0.398437,0 -0.75,0.28125 -1.125,0.609375 -0.28125,0.28125 -0.515625,0.4921875 -0.796875,0.609375 z m 3.955078,3.89062503 c -0.07031,0.2578125 -0.304688,0.6328125 -0.65625,0.6328125 -0.02344,0 -0.234375,0 -0.375,-0.1171875 0.28125,-0.070312 0.304687,-0.328125 0.304687,-0.375 0,-0.140625 -0.117187,-0.2578125 -0.28125,-0.2578125 -0.1875,0 -0.398437,0.1640625 -0.398437,0.421875 0,0.3515625 0.398437,0.515625 0.75,0.515625 0.304687,0 0.609375,-0.2109375 0.773437,-0.4921875 0.164063,0.375 0.5625,0.4921875 0.820313,0.4921875 0.820312,0 1.242187,-0.8671875 1.242187,-1.078125 0,-0.070312 -0.09375,-0.070312 -0.117187,-0.070312 -0.09375,0 -0.09375,0.023437 -0.140625,0.1171875 -0.140625,0.46875 -0.5625,0.84375 -0.9375,0.84375 -0.28125,0 -0.445313,-0.1875 -0.445313,-0.46875 0,-0.1640625 0.1875,-0.8203125 0.375,-1.59375 0.140625,-0.5390625 0.445313,-0.703125 0.679688,-0.703125 0.02344,0 0.234375,0 0.375,0.09375 -0.210938,0.070312 -0.304688,0.2578125 -0.304688,0.375 0,0.1640625 0.117188,0.28125 0.28125,0.28125 0.164063,0 0.398438,-0.140625 0.398438,-0.4453125 0,-0.375 -0.445313,-0.4921875 -0.726563,-0.4921875 -0.351562,0 -0.632812,0.2109375 -0.796875,0.4921875 -0.117187,-0.28125 -0.445312,-0.4921875 -0.820312,-0.4921875 -0.796875,0 -1.242188,0.84375 -1.242188,1.0546875 0,0.09375 0.09375,0.09375 0.117188,0.09375 0.09375,0 0.09375,-0.023437 0.140625,-0.1171875 0.164062,-0.5390625 0.609375,-0.84375 0.960937,-0.84375 0.234375,0 0.421875,0.1171875 0.421875,0.46875 0,0.140625 -0.09375,0.46875 -0.164062,0.7265625 z m 0,0"
         style="fill:#808080;fill-opacity:1;fill-rule:nonzero;stroke:none" />
    </g>
    <g
       id="g25"
       aria-label="(···)"
       transform="matrix(1.0666667,0,0,1.0666667,90.522667,70.944)">
      <path
         id="path26"
         d="m 3.2966211,2.3889258 c 0,-0.029297 0,-0.043945 -0.1611328,-0.2197266 -1.2451172,-1.24511717 -1.5673828,-3.13476561 -1.5673828,-4.6582031 0,-1.7285156 0.3808593,-3.4716797 1.5966797,-4.7167969 0.1318359,-0.1171875 0.1318359,-0.1318359 0.1318359,-0.1611328 0,-0.073242 -0.043945,-0.1025391 -0.1025391,-0.1025391 -0.102539,0 -0.9960937,0.6738282 -1.5820312,1.9482422 -0.5126953,1.0839844 -0.62988283,2.1972657 -0.62988283,3.0322266 0,0.7763672 0.11718753,1.97753906 0.65917973,3.10546874 C 2.2419336,1.8469336 3.091543,2.4914648 3.194082,2.4914648 c 0.058594,0 0.1025391,-0.029297 0.1025391,-0.102539 z m 0,0"
         style="fill:#000000;fill-opacity:1;fill-rule:nonzero;stroke:none" />
      <path
         id="path27"
         d="m 5.7941797,-2.4890039 c 0,-0.2929688 -0.2490234,-0.5273438 -0.5273438,-0.5273438 -0.2929687,0 -0.5419921,0.234375 -0.5419921,0.5273438 0,0.2929687 0.2490234,0.5273437 0.5419921,0.5273437 0.2783204,0 0.5273438,-0.234375 0.5273438,-0.5273437 z m 4.4311523,0 c 0,-0.2929688 -0.2490234,-0.5273438 -0.5273437,-0.5273438 -0.2929688,0 -0.5419922,0.234375 -0.5419922,0.5273438 0,0.2929687 0.2490234,0.5273437 0.5419922,0.5273437 0.2783203,0 0.5273437,-0.234375 0.5273437,-0.5273437 z m 4.420166,0 c 0,-0.2929688 -0.249023,-0.5273438 -0.527344,-0.5273438 -0.292968,0 -0.541992,0.234375 -0.541992,0.5273438 0,0.2929687 0.249024,0.5273437 0.541992,0.5273437 0.278321,0 0.527344,-0.234375 0.527344,-0.5273437 z m 0,0"
         style="fill:#000000;fill-opacity:1;fill-rule:nonzero;stroke:none" />
      <path
         id="path28"
         d="m 20.043447,-2.4890039 c 0,-0.7763672 -0.117187,-1.9775391 -0.659179,-3.1054688 -0.600586,-1.2304687 -1.464844,-1.875 -1.552735,-1.875 -0.07324,0 -0.102539,0.043945 -0.102539,0.1025391 0,0.029297 0,0.043945 0.19043,0.2197266 0.966797,0.9960937 1.538086,2.578125 1.538086,4.6582031 0,1.69921874 -0.366211,3.45703124 -1.59668,4.7167969 -0.131836,0.1171875 -0.131836,0.1318359 -0.131836,0.1611328 0,0.058594 0.0293,0.102539 0.102539,0.102539 0.08789,0 0.996094,-0.6738281 1.582031,-1.94824214 0.498047,-1.08398438 0.629883,-2.19726566 0.629883,-3.03222656 z m 0,0"
         style="fill:#000000;fill-opacity:1;fill-rule:nonzero;stroke:none" />
    </g>
  </g>
</svg>
