<?xml version="1.0" encoding="UTF-8" standalone="no"?>
<!-- Created with Inkscape (http://www.inkscape.org/) -->

<svg
   version="1.1"
   id="svg1"
   width="130.74533"
   height="93.568001"
   viewBox="0 0 130.74533 93.568001"
   sodipodi:docname="fourier-delta-diagram.pdf"
   xmlns:inkscape="http://www.inkscape.org/namespaces/inkscape"
   xmlns:sodipodi="http://sodipodi.sourceforge.net/DTD/sodipodi-0.dtd"
   xmlns="http://www.w3.org/2000/svg"
   xmlns:svg="http://www.w3.org/2000/svg">
  <defs
     id="defs1" />
  <sodipodi:namedview
     id="namedview1"
     pagecolor="#ffffff"
     bordercolor="#000000"
     borderopacity="0.25"
     inkscape:showpageshadow="2"
     inkscape:pageopacity="0.0"
     inkscape:pagecheckerboard="0"
     inkscape:deskcolor="#d1d1d1">
    <inkscape:page
       x="0"
       y="0"
       inkscape:label="1"
       id="page1"
       width="130.74533"
       height="93.568001"
       margin="0"
       bleed="0" />
  </sodipodi:namedview>
  <g
     id="g1"
     inkscape:groupmode="layer"
     inkscape:label="1">
    <g
       id="g2"
       aria-label="δ&#10;ϵ"
       transform="matrix(1.3333333,0,0,1.3333333,20.8,18.862667)">
      <path
         id="path2"
         d="m 2.6255859,-4.3471953 c -1.2421875,0.2929687 -2.20312496,1.59375 -2.20312496,2.7890625 0,0.96093749 0.63281246,1.67578124 1.57031246,1.67578124 1.1601563,0 1.9921875,-1.55859374 1.9921875,-2.94140624 0,-0.9023438 -0.3984375,-1.3945313 -0.7382812,-1.8515625 -0.3515625,-0.4453125 -0.9492188,-1.1953125 -0.9492188,-1.6289063 0,-0.2226562 0.1992188,-0.4570312 0.5507813,-0.4570312 0.3046875,0 0.5039062,0.1289062 0.703125,0.2695312 0.1992187,0.1171875 0.3984375,0.2460938 0.5507812,0.2460938 0.2460938,0 0.3984375,-0.234375 0.3984375,-0.3984375 0,-0.2226563 -0.1523437,-0.2460938 -0.515625,-0.328125 -0.515625,-0.1054688 -0.65625,-0.1054688 -0.8203125,-0.1054688 -0.7734375,0 -1.1367187,0.421875 -1.1367187,1.0195313 0,0.5390625 0.2929687,1.1015625 0.5976562,1.7109375 z m 0.1289063,0.2109375 c 0.2460937,0.4570312 0.5390625,0.9960937 0.5390625,1.7109375 0,0.6679687 -0.375,2.32031249 -1.3007813,2.32031249 -0.5507812,0 -0.9609375,-0.41015625 -0.9609375,-1.17187499 0,-0.6210938 0.375,-2.4960938 1.7226563,-2.859375 z m 0,0"
         style="fill:#000000;fill-opacity:1;fill-rule:nonzero;stroke:none" />
      <path
         id="path3"
         d="m 6.8648438,-0.06399219 c 0.1054687,0 0.234375,0 0.234375,-0.140625 0,-0.1171875 -0.1054688,-0.1171875 -0.234375,-0.1171875 H 5.6109375 C 5.821875,-0.95461719 6.2789063,-1.2593047 6.8882813,-1.2593047 h 0.2695312 c 0.1054688,0 0.234375,0 0.234375,-0.1289062 0,-0.1171875 -0.09375,-0.1171875 -0.2226562,-0.1171875 H 6.8648438 c -0.9257813,0 -1.96875,0.64453121 -1.96875,1.69921871 0,0.82031249 0.6210937,1.37109379 1.4296875,1.37109379 0.2109375,0 0.5039062,-0.035156 0.8789062,-0.2460938 0.140625,-0.070312 0.1523438,-0.09375 0.1523438,-0.140625 0,-0.023437 0,-0.140625 -0.1054688,-0.140625 -0.023437,0 -0.046875,0.011719 -0.082031,0.035156 C 6.9234377,1.2367888 6.630469,1.365695 6.349219,1.365695 c -0.28125,0 -0.8671875,-0.140625 -0.8671875,-0.92578124 0,-0.10546875 0,-0.24609375 0.070312,-0.50390625 z m 0,0"
         style="fill:#000000;fill-opacity:1;fill-rule:nonzero;stroke:none" />
    </g>
    <g
       id="g3"
       aria-label="∆&#10;ϵ"
       transform="matrix(1.3333333,0,0,1.3333333,96.368,18.862667)">
      <path
         id="path4"
         d="m 4.4056406,-6.9487578 c -0.070312,-0.1289063 -0.09375,-0.1875 -0.2578125,-0.1875 -0.1757812,0 -0.1992187,0.058594 -0.2578125,0.1875 l -3.37499997,6.74999999 c -0.046875,0.09375 -0.046875,0.10546875 -0.046875,0.1171875 0,0.0820312475 0.0585937,0.0820312475 0.22265625,0.0820312475 H 7.6048594 c 0.1523437,0 0.2109375,0 0.2109375,-0.0820312475 0,-0.01171875 0,-0.0234375 -0.046875,-0.1171875 z m -0.5859375,0.8085937 2.6835938,5.37890629 H 1.1361094 Z m 0,0"
         style="fill:#000000;fill-opacity:1;fill-rule:nonzero;stroke:none" />
      <path
         id="path5"
         d="m 10.739625,-0.06399219 c 0.105469,0 0.234375,0 0.234375,-0.140625 0,-0.1171875 -0.105469,-0.1171875 -0.234375,-0.1171875 H 9.4857188 C 9.6966563,-0.95461719 10.153688,-1.2593047 10.763063,-1.2593047 h 0.269531 c 0.105469,0 0.234375,0 0.234375,-0.1289062 0,-0.1171875 -0.09375,-0.1171875 -0.222656,-0.1171875 h -0.304688 c -0.9257812,0 -1.96875,0.64453121 -1.96875,1.69921871 0,0.82031249 0.6210938,1.37109379 1.429688,1.37109379 0.210937,0 0.503906,-0.035156 0.878906,-0.2460938 0.140625,-0.070312 0.152344,-0.09375 0.152344,-0.140625 0,-0.023437 0,-0.140625 -0.105469,-0.140625 -0.02344,0 -0.04687,0.011719 -0.08203,0.035156 -0.246094,0.1640625 -0.539063,0.2929687 -0.820313,0.2929687 -0.28125,0 -0.8671875,-0.140625 -0.8671875,-0.92578124 0,-0.10546875 0,-0.24609375 0.070312,-0.50390625 z m 0,0"
         style="fill:#000000;fill-opacity:1;fill-rule:nonzero;stroke:none" />
    </g>
    <path
       id="path6"
       d="m 2.6253125,-4.3483984 c -1.2421875,0.2929687 -2.203125,1.59375 -2.203125,2.7890625 0,0.96093746 0.6328125,1.67578121 1.5703125,1.67578121 1.1601563,0 1.9921875,-1.55859371 1.9921875,-2.94140621 0,-0.9023438 -0.3984375,-1.3945313 -0.7382812,-1.8515625 -0.3515625,-0.4453125 -0.9492188,-1.1953125 -0.9492188,-1.6289063 0,-0.2226562 0.1992188,-0.4570312 0.5507813,-0.4570312 0.3046875,0 0.5039062,0.1289062 0.703125,0.2695312 0.1992187,0.1171875 0.3984375,0.2460938 0.5507812,0.2460938 0.2460938,0 0.3984375,-0.234375 0.3984375,-0.3984375 0,-0.2226563 -0.1523437,-0.2460938 -0.515625,-0.328125 -0.515625,-0.1054688 -0.65625,-0.1054688 -0.8203125,-0.1054688 -0.7734375,0 -1.1367187,0.421875 -1.1367187,1.0195313 0,0.5390625 0.2929687,1.1015625 0.5976562,1.7109375 z m 0.1289063,0.2109375 c 0.2460937,0.4570312 0.5390625,0.9960937 0.5390625,1.7109375 0,0.6679687 -0.375,2.32031246 -1.3007813,2.32031246 -0.5507812,0 -0.9609375,-0.41015625 -0.9609375,-1.17187496 0,-0.6210938 0.375,-2.4960938 1.7226563,-2.859375 z m 0,0"
       style="fill:#000000;fill-opacity:1;fill-rule:nonzero;stroke:none"
       aria-label="δ"
       transform="matrix(1.3333333,0,0,1.3333333,23.093333,79.653333)" />
    <path
       id="path7"
       d="m 4.4067969,-6.9499609 c -0.070312,-0.1289063 -0.09375,-0.1875 -0.2578125,-0.1875 -0.1757813,0 -0.1992188,0.058594 -0.2578125,0.1875 l -3.37500003,6.74999996 c -0.046875,0.09375 -0.046875,0.10546875 -0.046875,0.1171875 0,0.0820312525 0.0585938,0.0820312525 0.22265625,0.0820312525 H 7.6060156 c 0.1523438,0 0.2109375,0 0.2109375,-0.0820312525 0,-0.01171875 0,-0.0234375 -0.046875,-0.1171875 z m -0.5859375,0.8085937 2.6835937,5.37890626 H 1.1372656 Z m 0,0"
       style="fill:#000000;fill-opacity:1;fill-rule:nonzero;stroke:none"
       aria-label="∆"
       transform="matrix(1.3333333,0,0,1.3333333,98.913333,79.653333)" />
    <path
       id="path8"
       d="M -21.66353,24.23027 H 17.39061"
       style="fill:none;stroke:#b189c6;stroke-width:0.39848;stroke-linecap:butt;stroke-linejoin:miter;stroke-miterlimit:10;stroke-dasharray:none;stroke-opacity:1"
       transform="matrix(1.3333333,0,0,-1.3333333,66.664,44.645333)" />
    <path
       id="path9"
       d="M -2.07213,2.39091 C -1.69356,0.95633 -0.84995,0.27893 0,0 -0.84995,-0.27893 -1.69356,-0.95633 -2.07213,-2.39091"
       style="fill:none;stroke:#b189c6;stroke-width:0.39848;stroke-linecap:round;stroke-linejoin:round;stroke-miterlimit:10;stroke-dasharray:none;stroke-opacity:1"
       transform="matrix(1.3333333,0,0,-1.3333333,90.117147,12.338307)" />
    <path
       id="path10"
       d="m 6.3988828,-4.4988672 c 0,-0.2226562 -0.3515625,-0.2695312 -0.5039062,-0.2695312 h -3.234375 c -0.6679688,0 -1.0664063,0.328125 -1.1601563,0.515625 -0.011719,0.023437 -0.035156,0.058594 -0.035156,0.09375 0,0.058594 0.046875,0.058594 0.082031,0.058594 0.1523438,0 0.3515625,-0.1289062 0.4804688,-0.2226562 0.1171875,-0.023437 0.3632812,-0.023437 0.5273437,-0.023437 h 0.6679688 c -0.1992188,0.9726562 -0.3398438,1.3945312 -0.5507813,1.9921875 -0.1640625,0.5039062 -0.8085937,1.96874996 -1.0078125,2.15624996 -0.5507812,0 -0.69140624,-0.28125 -0.79687499,-0.48046875 -0.0117188,-0.0117188 -0.0351563,-0.0234375 -0.0703125,-0.0234375 -0.19921875,0 -0.5625,0.2578125 -0.5625,0.38671875 0,0.0351563 0.234375,0.55078125 0.89062499,0.55078125 0.4453125,0 0.9492188,-0.328125 1.171875,-0.66796875 0.2695313,-0.3984375 0.6328125,-1.23046876 0.8203125,-1.67578126 h 1.5 v 0.023437 c 0.011719,0.035156 0.023437,0.058594 0.070312,0.058594 0.1992188,0 0.5859375,-0.2226563 0.5859375,-0.4453125 0,-0.035156 -0.011719,-0.058594 -0.046875,-0.058594 h -1.945312 c 0.234375,-0.5859375 0.4101563,-1.1953125 0.5273438,-1.8164062 h 1.4296875 c 0.2695312,0 0.515625,0.035156 0.515625,0.1640625 0,0.023437 -0.011719,0.035156 -0.011719,0.046875 0,0.035156 0.023437,0.058594 0.09375,0.058594 0.082031,0 0.5625,-0.1757812 0.5625002,-0.4218756 z m 0,0"
       style="fill:#b189c6;fill-opacity:1;fill-rule:nonzero;stroke:none"
       aria-label="F"
       transform="matrix(1.3333333,0,0,1.3333333,59.808,9.2133333)" />
    <path
       id="path11"
       d="M -30.2756,13.99771 V -15.09364"
       style="fill:none;stroke:#4f8d63;stroke-width:0.39848;stroke-linecap:butt;stroke-linejoin:miter;stroke-miterlimit:10;stroke-dasharray:none;stroke-opacity:1"
       transform="matrix(1.3333333,0,0,-1.3333333,66.664,44.645333)" />
    <path
       id="path12"
       d="M -2.07213,2.39091 C -1.69356,0.95633 -0.84995,0.27893 0,0 -0.84995,-0.27893 -1.69356,-0.95633 -2.07213,-2.39091"
       style="fill:none;stroke:#4f8d63;stroke-width:0.39848;stroke-linecap:round;stroke-linejoin:round;stroke-miterlimit:10;stroke-dasharray:none;stroke-opacity:1"
       transform="matrix(0,1.3333333,1.3333333,0,26.296533,65.03584)" />
    <g
       id="g12"
       aria-label="ϵ→0"
       transform="matrix(1.3333333,0,0,1.3333333,2.86,48.638667)">
      <path
         id="path13"
         d="m 2.4370312,-1.5600547 c 0.1054688,0 0.234375,0 0.234375,-0.140625 0,-0.1171875 -0.1054687,-0.1171875 -0.234375,-0.1171875 H 1.183125 c 0.2109375,-0.6328125 0.6679687,-0.9375 1.2773437,-0.9375 H 2.73 c 0.1054687,0 0.234375,0 0.234375,-0.1289062 0,-0.1171875 -0.09375,-0.1171875 -0.2226563,-0.1171875 H 2.4370312 c -0.9257812,0 -1.96874995,0.6445312 -1.96874995,1.6992187 0,0.82031251 0.62109375,1.37109376 1.42968745,1.37109376 0.2109375,0 0.5039063,-0.03515625 0.8789063,-0.24609375 0.140625,-0.0703125 0.1523437,-0.09375 0.1523437,-0.140625 0,-0.0234375 0,-0.140625 -0.1054687,-0.140625 -0.023437,0 -0.046875,0.0117188 -0.082031,0.0351563 -0.2460937,0.1640625 -0.5390625,0.29296875 -0.8203125,0.29296875 -0.28125,0 -0.8671875,-0.140625 -0.8671875,-0.92578116 0,-0.1054688 0,-0.2460938 0.070312,-0.5039064 z m 0,0"
         style="fill:#4f8d63;fill-opacity:1;fill-rule:nonzero;stroke:none" />
      <path
         id="path14"
         d="m 9.7290234,-1.5717734 c -0.8789062,0.63281246 -0.9960937,1.54687496 -0.9960937,1.55859371 0,0.10546875 0.070312,0.10546875 0.1757812,0.10546875 0.1171875,0 0.140625,0 0.1757813,-0.1171875 0.046875,-0.17578125 0.1523437,-0.62109375 0.515625,-1.00781246 0.4101558,-0.421875 0.7499998,-0.5273438 1.0429688,-0.6210938 0.04687,-0.011719 0.07031,-0.058594 0.07031,-0.09375 0,-0.070312 -0.03516,-0.082031 -0.128906,-0.1054687 -1.0078123,-0.328125 -1.3593748,-1.03125 -1.5117186,-1.6523438 -0.023437,-0.082031 -0.070312,-0.082031 -0.1640625,-0.082031 -0.1054687,0 -0.1757812,0 -0.1757812,0.1054687 0,0.011719 0.070312,0.4804688 0.4101562,0.9609375 0.1640625,0.234375 0.3632813,0.4335938 0.5859375,0.5976563 H 4.1391797 c -0.1171875,0 -0.28125,0 -0.28125,0.1757812 0,0.1757813 0.1640625,0.1757813 0.28125,0.1757813 z m 0,0"
         style="fill:#4f8d63;fill-opacity:1;fill-rule:nonzero;stroke:none" />
      <path
         id="path15"
         d="m 14.861836,-2.2280234 c 0,-0.7617188 -0.09375,-1.3125 -0.410156,-1.8046875 -0.222657,-0.3164063 -0.644532,-0.5976563 -1.207032,-0.5976563 -1.617187,0 -1.617187,1.8984375 -1.617187,2.4023438 0,0.5039062 0,2.36718746 1.617187,2.36718746 1.617188,0 1.617188,-1.86328126 1.617188,-2.36718746 z m -1.617188,2.16796871 c -0.316406,0 -0.75,-0.1875 -0.890625,-0.76171875 -0.09375,-0.41015626 -0.09375,-0.98437496 -0.09375,-1.49999996 0,-0.5039063 0,-1.03125 0.105469,-1.4179688 0.152344,-0.5507812 0.597656,-0.6914062 0.878906,-0.6914062 0.375,0 0.738282,0.2226562 0.867188,0.6328125 0.105469,0.375 0.117187,0.8789062 0.117187,1.4765625 0,0.515625 0,1.0429687 -0.09375,1.47656246 -0.140625,0.6328125 -0.609375,0.78515625 -0.890625,0.78515625 z m 0,0"
         style="fill:#4f8d63;fill-opacity:1;fill-rule:nonzero;stroke:none" />
    </g>
    <path
       id="path16"
       d="M 17.7891,19.42606 H -21.26505"
       style="fill:none;stroke:#000000;stroke-width:0.39848;stroke-linecap:butt;stroke-linejoin:miter;stroke-miterlimit:10;stroke-dasharray:none;stroke-opacity:1"
       transform="matrix(1.3333333,0,0,-1.3333333,66.664,44.645333)" />
    <path
       id="path17"
       d="M -2.07213,2.39091 C -1.69356,0.95633 -0.84995,0.27893 0,0 -0.84995,-0.27893 -1.69356,-0.95633 -2.07213,-2.39091"
       style="fill:none;stroke:#000000;stroke-width:0.39848;stroke-linecap:round;stroke-linejoin:round;stroke-miterlimit:10;stroke-dasharray:none;stroke-opacity:1"
       transform="matrix(-1.3333333,0,0,1.3333333,38.044933,18.74392)" />
    <g
       id="g17"
       aria-label="F&#10;−1"
       transform="matrix(1.3333333,0,0,1.3333333,53.618667,29.917333)">
      <path
         id="path18"
         d="m 6.3973281,-4.4995234 c 0,-0.2226563 -0.3515625,-0.2695313 -0.5039062,-0.2695313 h -3.234375 c -0.6679688,0 -1.0664063,0.328125 -1.1601563,0.515625 -0.011719,0.023437 -0.035156,0.058594 -0.035156,0.09375 0,0.058594 0.046875,0.058594 0.082031,0.058594 0.1523438,0 0.3515625,-0.1289063 0.4804688,-0.2226563 0.1171875,-0.023437 0.3632812,-0.023437 0.5273437,-0.023437 h 0.6679688 c -0.1992188,0.9726563 -0.3398438,1.3945313 -0.5507813,1.9921875 -0.1640625,0.5039063 -0.8085937,1.96875001 -1.0078125,2.15625001 -0.5507812,0 -0.69140622,-0.28125 -0.79687497,-0.48046875 -0.0117188,-0.0117188 -0.0351563,-0.0234375 -0.0703125,-0.0234375 -0.19921875,0 -0.5625,0.2578125 -0.5625,0.38671875 0,0.0351563 0.234375,0.55078125 0.89062497,0.55078125 0.4453125,0 0.9492188,-0.328125 1.171875,-0.66796875 0.2695313,-0.3984375 0.6328125,-1.23046871 0.8203125,-1.67578121 h 1.5 v 0.023437 c 0.011719,0.035156 0.023437,0.058594 0.070312,0.058594 0.1992188,0 0.5859375,-0.2226562 0.5859375,-0.4453125 0,-0.035156 -0.011719,-0.058594 -0.046875,-0.058594 h -1.945312 c 0.234375,-0.5859375 0.4101563,-1.1953125 0.5273438,-1.8164063 h 1.4296875 c 0.2695312,0 0.515625,0.035156 0.515625,0.1640625 0,0.023437 -0.011719,0.035156 -0.011719,0.046875 0,0.035156 0.023437,0.058594 0.09375,0.058594 0.082031,0 0.5625,-0.1757813 0.5625002,-0.4218754 z m 0,0"
         style="fill:#000000;fill-opacity:1;fill-rule:nonzero;stroke:none" />
      <path
         id="path19"
         d="m 10.791859,-4.1069453 c 0.08203,0 0.210938,0 0.210938,-0.140625 0,-0.140625 -0.128906,-0.140625 -0.210938,-0.140625 H 7.4168594 c -0.082031,0 -0.2109375,0 -0.2109375,0.140625 0,0.140625 0.1289062,0.140625 0.2109375,0.140625 z m 0,0"
         style="fill:#000000;fill-opacity:1;fill-rule:nonzero;stroke:none" />
      <path
         id="path20"
         d="m 13.786,-6.1694453 c 0,-0.1523438 -0.01172,-0.1523438 -0.175781,-0.1523438 -0.351563,0.3164063 -0.902344,0.3164063 -1.007813,0.3164063 h -0.08203 v 0.2226562 h 0.08203 c 0.117188,0 0.433594,-0.011719 0.726563,-0.140625 v 2.484375 c 0,0.1640625 0,0.2109375 -0.527344,0.2109375 h -0.246094 v 0.2226563 c 0.269532,-0.023437 0.714844,-0.023437 1.007813,-0.023437 0.28125,0 0.726562,0 0.996094,0.023437 v -0.2226563 h -0.246094 c -0.527344,0 -0.527344,-0.046875 -0.527344,-0.2109375 z m 0,0"
         style="fill:#000000;fill-opacity:1;fill-rule:nonzero;stroke:none" />
    </g>
    <path
       id="path21"
       d="M 28.33838,13.99773 V -15.20435"
       style="fill:none;stroke:#b189c6;stroke-width:0.39848;stroke-linecap:butt;stroke-linejoin:miter;stroke-miterlimit:10;stroke-dasharray:none;stroke-opacity:1"
       transform="matrix(1.3333333,0,0,-1.3333333,66.664,44.645333)" />
    <path
       id="path22"
       d="M -2.07213,2.39091 C -1.69356,0.95633 -0.84995,0.27893 0,0 -0.84995,-0.27893 -1.69356,-0.95633 -2.07213,-2.39091"
       style="fill:none;stroke:#b189c6;stroke-width:0.39848;stroke-linecap:round;stroke-linejoin:round;stroke-miterlimit:10;stroke-dasharray:none;stroke-opacity:1"
       transform="matrix(0,1.3333333,1.3333333,0,104.44851,65.18344)" />
    <g
       id="g22"
       aria-label="ϵ→0"
       transform="matrix(1.3333333,0,0,1.3333333,107.57333,48.712)">
      <path
         id="path23"
         d="m 2.4381641,-1.5593906 c 0.1054687,0 0.234375,0 0.234375,-0.140625 0,-0.1171875 -0.1054688,-0.1171875 -0.234375,-0.1171875 H 1.1842578 c 0.2109375,-0.6328125 0.6679688,-0.9375 1.2773438,-0.9375 h 0.2695312 c 0.1054688,0 0.234375,0 0.234375,-0.1289063 0,-0.1171875 -0.09375,-0.1171875 -0.2226562,-0.1171875 H 2.4381641 c -0.9257813,0 -1.96875004,0.6445313 -1.96875004,1.6992188 0,0.82031248 0.62109374,1.37109373 1.42968754,1.37109373 0.2109375,0 0.5039062,-0.03515625 0.8789062,-0.24609375 0.140625,-0.0703125 0.1523438,-0.09375 0.1523438,-0.140625 0,-0.0234375 0,-0.140625 -0.1054688,-0.140625 -0.023437,0 -0.046875,0.0117188 -0.082031,0.0351563 -0.2460938,0.1640625 -0.5390625,0.29296875 -0.8203125,0.29296875 -0.28125,0 -0.8671875,-0.140625 -0.8671875,-0.92578133 0,-0.1054687 0,-0.2460937 0.070312,-0.5039062 z m 0,0"
         style="fill:#b189c6;fill-opacity:1;fill-rule:nonzero;stroke:none" />
      <path
         id="path24"
         d="m 9.7301563,-1.5711094 c -0.8789063,0.63281253 -0.9960938,1.54687503 -0.9960938,1.55859378 0,0.10546875 0.070312,0.10546875 0.1757813,0.10546875 0.1171875,0 0.140625,0 0.1757812,-0.1171875 0.046875,-0.17578125 0.1523438,-0.62109375 0.515625,-1.00781253 0.410156,-0.421875 0.75,-0.5273437 1.042969,-0.6210937 0.04687,-0.011719 0.07031,-0.058594 0.07031,-0.09375 0,-0.070312 -0.03516,-0.082031 -0.128906,-0.1054688 -1.0078125,-0.328125 -1.359375,-1.03125 -1.5117187,-1.6523437 -0.023437,-0.082031 -0.070312,-0.082031 -0.1640625,-0.082031 -0.1054688,0 -0.1757813,0 -0.1757813,0.1054688 0,0.011719 0.070312,0.4804687 0.4101563,0.9609375 0.1640625,0.234375 0.3632812,0.4335937 0.5859375,0.5976562 H 4.1403125 c -0.1171875,0 -0.28125,0 -0.28125,0.1757813 0,0.1757812 0.1640625,0.1757812 0.28125,0.1757812 z m 0,0"
         style="fill:#b189c6;fill-opacity:1;fill-rule:nonzero;stroke:none" />
      <path
         id="path25"
         d="m 14.860039,-2.2273594 c 0,-0.7617187 -0.09375,-1.3125 -0.410156,-1.8046875 -0.222656,-0.3164062 -0.644531,-0.5976562 -1.207031,-0.5976562 -1.617188,0 -1.617188,1.8984375 -1.617188,2.4023437 0,0.5039063 0,2.36718753 1.617188,2.36718753 1.617187,0 1.617187,-1.86328123 1.617187,-2.36718753 z m -1.617187,2.16796878 c -0.316407,0 -0.75,-0.1875 -0.890625,-0.76171875 -0.09375,-0.41015623 -0.09375,-0.98437503 -0.09375,-1.50000003 0,-0.5039062 0,-1.03125 0.105468,-1.4179687 0.152344,-0.5507813 0.597657,-0.6914063 0.878907,-0.6914063 0.375,0 0.738281,0.2226563 0.867187,0.6328125 0.105469,0.375 0.117188,0.8789063 0.117188,1.4765625 0,0.515625 0,1.0429688 -0.09375,1.47656253 -0.140625,0.6328125 -0.609375,0.78515625 -0.890625,0.78515625 z m 0,0"
         style="fill:#b189c6;fill-opacity:1;fill-rule:nonzero;stroke:none" />
    </g>
    <path
       id="path26"
       d="M -23.38435,-21.36324 H 19.29999"
       style="fill:none;stroke:#000000;stroke-width:0.39848;stroke-linecap:butt;stroke-linejoin:miter;stroke-miterlimit:10;stroke-dasharray:none;stroke-opacity:1"
       transform="matrix(1.3333333,0,0,-1.3333333,66.664,44.645333)" />
    <path
       id="path27"
       d="M -2.07213,2.39091 C -1.69356,0.95633 -0.84995,0.27893 0,0 -0.84995,-0.27893 -1.69356,-0.95633 -2.07213,-2.39091"
       style="fill:none;stroke:#000000;stroke-width:0.39848;stroke-linecap:round;stroke-linejoin:round;stroke-miterlimit:10;stroke-dasharray:none;stroke-opacity:1"
       transform="matrix(1.3333333,0,0,-1.3333333,92.66296,73.129653)" />
    <path
       id="path28"
       d="m 6.3986328,-4.5000703 c 0,-0.2226563 -0.3515625,-0.2695313 -0.5039062,-0.2695313 h -3.234375 c -0.6679688,0 -1.0664063,0.328125 -1.1601563,0.515625 -0.011719,0.023437 -0.035156,0.058594 -0.035156,0.09375 0,0.058594 0.046875,0.058594 0.082031,0.058594 0.1523438,0 0.3515625,-0.1289063 0.4804688,-0.2226563 0.1171875,-0.023437 0.3632812,-0.023437 0.5273437,-0.023437 h 0.6679688 c -0.1992188,0.9726563 -0.3398438,1.3945313 -0.5507813,1.9921875 -0.1640625,0.5039063 -0.8085937,1.96875004 -1.0078125,2.15625004 -0.5507812,0 -0.69140624,-0.28125 -0.79687499,-0.48046875 -0.0117188,-0.0117188 -0.0351563,-0.0234375 -0.0703125,-0.0234375 -0.19921875,0 -0.5625,0.2578125 -0.5625,0.38671875 0,0.0351563 0.234375,0.55078125 0.89062499,0.55078125 0.4453125,0 0.9492188,-0.328125 1.171875,-0.66796875 0.2695313,-0.3984375 0.6328125,-1.23046874 0.8203125,-1.67578124 h 1.5 v 0.023437 c 0.011719,0.035156 0.023437,0.058594 0.070312,0.058594 0.1992188,0 0.5859375,-0.2226562 0.5859375,-0.4453125 0,-0.035156 -0.011719,-0.058594 -0.046875,-0.058594 h -1.945312 c 0.234375,-0.5859375 0.4101563,-1.1953125 0.5273438,-1.8164063 h 1.4296875 c 0.2695312,0 0.515625,0.035156 0.515625,0.1640625 0,0.023437 -0.011719,0.035156 -0.011719,0.046875 0,0.035156 0.023437,0.058594 0.09375,0.058594 0.082031,0 0.5625,-0.1757813 0.5625002,-0.4218754 z m 0,0"
       style="fill:#000000;fill-opacity:1;fill-rule:nonzero;stroke:none"
       aria-label="F"
       transform="matrix(1.3333333,0,0,1.3333333,59.933333,70.004)" />
    <path
       id="path29"
       d="M 19.69846,-26.16747 H -22.98589"
       style="fill:none;stroke:#b189c6;stroke-width:0.39848;stroke-linecap:butt;stroke-linejoin:miter;stroke-miterlimit:10;stroke-dasharray:none;stroke-opacity:1"
       transform="matrix(1.3333333,0,0,-1.3333333,66.664,44.645333)" />
    <path
       id="path30"
       d="M -2.07213,2.39091 C -1.69356,0.95633 -0.84995,0.27893 0,0 -0.84995,-0.27893 -1.69356,-0.95633 -2.07213,-2.39091"
       style="fill:none;stroke:#b189c6;stroke-width:0.39848;stroke-linecap:round;stroke-linejoin:round;stroke-miterlimit:10;stroke-dasharray:none;stroke-opacity:1"
       transform="matrix(-1.3333333,0,0,1.3333333,35.750507,79.535293)" />
    <g
       id="g30"
       aria-label="F&#10;−1"
       transform="matrix(1.3333333,0,0,1.3333333,53.744,90.708)">
      <path
         id="path31"
         d="m 6.3970781,-4.5007266 c 0,-0.2226562 -0.3515625,-0.2695312 -0.5039062,-0.2695312 h -3.234375 c -0.6679688,0 -1.0664063,0.328125 -1.1601563,0.515625 -0.011719,0.023437 -0.035156,0.058594 -0.035156,0.09375 0,0.058594 0.046875,0.058594 0.082031,0.058594 0.1523438,0 0.3515625,-0.1289062 0.4804688,-0.2226562 0.1171875,-0.023437 0.3632812,-0.023437 0.5273437,-0.023437 h 0.6679688 c -0.1992188,0.9726562 -0.3398438,1.3945312 -0.5507813,1.9921875 -0.1640625,0.5039062 -0.8085937,1.96874999 -1.0078125,2.15624999 -0.5507812,0 -0.69140622,-0.28125 -0.79687497,-0.48046875 -0.0117188,-0.0117188 -0.0351563,-0.0234375 -0.0703125,-0.0234375 -0.19921875,0 -0.5625,0.2578125 -0.5625,0.38671875 0,0.0351563 0.234375,0.55078125 0.89062497,0.55078125 0.4453125,0 0.9492188,-0.328125 1.171875,-0.66796875 0.2695313,-0.3984375 0.6328125,-1.23046879 0.8203125,-1.67578129 h 1.5 v 0.023437 c 0.011719,0.035156 0.023437,0.058594 0.070312,0.058594 0.1992188,0 0.5859375,-0.2226563 0.5859375,-0.4453125 0,-0.035156 -0.011719,-0.058594 -0.046875,-0.058594 h -1.945312 c 0.234375,-0.5859375 0.4101563,-1.1953125 0.5273438,-1.8164062 h 1.4296875 c 0.2695312,0 0.515625,0.035156 0.515625,0.1640625 0,0.023437 -0.011719,0.035156 -0.011719,0.046875 0,0.035156 0.023437,0.058594 0.09375,0.058594 0.082031,0 0.5625,-0.1757812 0.5625002,-0.4218756 z m 0,0"
         style="fill:#b189c6;fill-opacity:1;fill-rule:nonzero;stroke:none" />
      <path
         id="path32"
         d="m 10.791609,-4.1081484 c 0.08203,0 0.210938,0 0.210938,-0.140625 0,-0.140625 -0.128906,-0.140625 -0.210938,-0.140625 H 7.4166094 c -0.082031,0 -0.2109375,0 -0.2109375,0.140625 0,0.140625 0.1289062,0.140625 0.2109375,0.140625 z m 0,0"
         style="fill:#b189c6;fill-opacity:1;fill-rule:nonzero;stroke:none" />
      <path
         id="path33"
         d="m 13.78575,-6.1706484 c 0,-0.1523438 -0.01172,-0.1523438 -0.175781,-0.1523438 -0.351563,0.3164063 -0.902344,0.3164063 -1.007813,0.3164063 h -0.08203 v 0.2226562 h 0.08203 c 0.117188,0 0.433594,-0.011719 0.726563,-0.140625 v 2.484375 c 0,0.1640625 0,0.2109375 -0.527344,0.2109375 h -0.246094 v 0.2226563 c 0.269532,-0.023437 0.714844,-0.023437 1.007813,-0.023437 0.28125,0 0.726562,0 0.996094,0.023437 v -0.2226563 h -0.246094 c -0.527344,0 -0.527344,-0.046875 -0.527344,-0.2109375 z m 0,0"
         style="fill:#b189c6;fill-opacity:1;fill-rule:nonzero;stroke:none" />
    </g>
  </g>
</svg>
