<?xml version="1.0" encoding="UTF-8" standalone="no"?>
<!-- Created with Inkscape (http://www.inkscape.org/) -->

<svg
   version="1.1"
   id="svg1"
   width="250.10268"
   height="103.60667"
   viewBox="0 0 250.10268 103.60667"
   sodipodi:docname="fourier-diagram-2.pdf"
   xmlns:inkscape="http://www.inkscape.org/namespaces/inkscape"
   xmlns:sodipodi="http://sodipodi.sourceforge.net/DTD/sodipodi-0.dtd"
   xmlns="http://www.w3.org/2000/svg"
   xmlns:svg="http://www.w3.org/2000/svg">
  <defs
     id="defs1" />
  <sodipodi:namedview
     id="namedview1"
     pagecolor="#ffffff"
     bordercolor="#000000"
     borderopacity="0.25"
     inkscape:showpageshadow="2"
     inkscape:pageopacity="0.0"
     inkscape:pagecheckerboard="0"
     inkscape:deskcolor="#d1d1d1">
    <inkscape:page
       x="0"
       y="0"
       inkscape:label="1"
       id="page1"
       width="250.10268"
       height="103.60667"
       margin="0"
       bleed="0" />
  </sodipodi:namedview>
  <g
     id="g1"
     inkscape:groupmode="layer"
     inkscape:label="1">
    <path
       id="path1"
       d="M 159.46904,-70.08806 H 121.6155"
       style="fill:none;stroke:#000000;stroke-width:0.74721;stroke-linecap:butt;stroke-linejoin:miter;stroke-miterlimit:10;stroke-dasharray:none;stroke-opacity:1"
       transform="matrix(1.3333333,0,0,-1.3333333,-133.02667,-71.636)" />
    <path
       id="path2"
       d="m 128.28806,-67.62976 c -2.97388,-1.41222 -5.69371,-2.23414 -8.16698,-2.4583 2.47327,-0.22415 5.1931,-1.04608 8.16698,-2.4583"
       style="fill:none;stroke:#000000;stroke-width:0.74721;stroke-linecap:butt;stroke-linejoin:miter;stroke-miterlimit:10;stroke-dasharray:none;stroke-opacity:1"
       transform="matrix(1.3333333,0,0,-1.3333333,-133.02667,-71.636)" />
    <path
       id="path3"
       d="M 244.65071,-70.08806 H 199.22049"
       style="fill:none;stroke:#000000;stroke-width:0.74721;stroke-linecap:butt;stroke-linejoin:miter;stroke-miterlimit:10;stroke-dasharray:none;stroke-opacity:1"
       transform="matrix(1.3333333,0,0,-1.3333333,-133.02667,-71.636)" />
    <path
       id="path4"
       d="m 205.89305,-67.62976 c -2.97389,-1.41222 -5.69372,-2.23414 -8.16698,-2.4583 2.47326,-0.22415 5.19309,-1.04608 8.16698,-2.4583"
       style="fill:none;stroke:#000000;stroke-width:0.74721;stroke-linecap:butt;stroke-linejoin:miter;stroke-miterlimit:10;stroke-dasharray:none;stroke-opacity:1"
       transform="matrix(1.3333333,0,0,-1.3333333,-133.02667,-71.636)" />
    <path
       id="path5"
       d="m 107.91171,-79.80176 v -28.69278"
       style="fill:none;stroke:#000000;stroke-width:0.74721;stroke-linecap:butt;stroke-linejoin:miter;stroke-miterlimit:10;stroke-dasharray:none;stroke-opacity:1"
       transform="matrix(1.3333333,0,0,-1.3333333,-133.02667,-71.636)" />
    <path
       id="path6"
       d="m 105.45341,-101.82198 c 1.41222,-2.97389 2.23415,-5.69372 2.4583,-8.16697 0.22415,2.47325 1.04607,5.19308 2.4583,8.16697"
       style="fill:none;stroke:#000000;stroke-width:0.74721;stroke-linecap:butt;stroke-linejoin:miter;stroke-miterlimit:10;stroke-dasharray:none;stroke-opacity:1"
       transform="matrix(1.3333333,0,0,-1.3333333,-133.02667,-71.636)" />
    <path
       id="path7"
       d="m 253.24359,-79.80176 17.56687,-28.53586"
       style="fill:none;stroke:#000000;stroke-width:0.74721;stroke-linecap:butt;stroke-linejoin:miter;stroke-miterlimit:10;stroke-dasharray:none;stroke-opacity:1"
       transform="matrix(1.3333333,0,0,-1.3333333,-133.02667,-71.636)" />
    <path
       id="path8"
       d="m 265.22028,-103.94992 c 2.76156,-1.7919 4.88728,-3.67696 6.37474,-5.66542 -1.10575,2.22348 -1.83173,4.97031 -2.18827,8.24292"
       style="fill:none;stroke:#000000;stroke-width:0.74721;stroke-linecap:butt;stroke-linejoin:miter;stroke-miterlimit:10;stroke-dasharray:none;stroke-opacity:1"
       transform="matrix(1.3333333,0,0,-1.3333333,-133.02667,-71.636)" />
    <path
       id="path9"
       d="m 181.88527,-79.80176 v -21.2207"
       style="fill:none;stroke:#000000;stroke-width:0.74721;stroke-linecap:butt;stroke-linejoin:miter;stroke-miterlimit:10;stroke-dasharray:none;stroke-opacity:1"
       transform="matrix(1.3333333,0,0,-1.3333333,-133.02667,-71.636)" />
    <path
       id="path10"
       d="m 179.42697,-94.3499 c 1.41222,-2.97389 2.23415,-5.69372 2.4583,-8.16698 0.22415,2.47326 1.04607,5.19309 2.4583,8.16698"
       style="fill:none;stroke:#000000;stroke-width:0.74721;stroke-linecap:butt;stroke-linejoin:miter;stroke-miterlimit:10;stroke-dasharray:none;stroke-opacity:1"
       transform="matrix(1.3333333,0,0,-1.3333333,-133.02667,-71.636)" />
    <path
       id="path11"
       d="M 250.62837,-116.41493 H 205.19815"
       style="fill:none;stroke:#000000;stroke-width:0.74721;stroke-linecap:butt;stroke-linejoin:miter;stroke-miterlimit:10;stroke-dasharray:none;stroke-opacity:1"
       transform="matrix(1.3333333,0,0,-1.3333333,-133.02667,-71.636)" />
    <path
       id="path12"
       d="m 211.87071,-113.95663 c -2.97389,-1.41222 -5.69372,-2.23415 -8.16697,-2.4583 2.47325,-0.22415 5.19308,-1.04608 8.16697,-2.4583"
       style="fill:none;stroke:#000000;stroke-width:0.74721;stroke-linecap:butt;stroke-linejoin:miter;stroke-miterlimit:10;stroke-dasharray:none;stroke-opacity:1"
       transform="matrix(1.3333333,0,0,-1.3333333,-133.02667,-71.636)" />
    <path
       id="path13"
       d="M 159.46904,-117.16214 H 121.6155"
       style="fill:none;stroke:#000000;stroke-width:0.74721;stroke-linecap:butt;stroke-linejoin:miter;stroke-miterlimit:10;stroke-dasharray:none;stroke-opacity:1"
       transform="matrix(1.3333333,0,0,-1.3333333,-133.02667,-71.636)" />
    <path
       id="path14"
       d="m 128.28806,-114.70384 c -2.97388,-1.41222 -5.69371,-2.23415 -8.16698,-2.4583 2.47327,-0.22415 5.1931,-1.04608 8.16698,-2.4583"
       style="fill:none;stroke:#000000;stroke-width:0.74721;stroke-linecap:butt;stroke-linejoin:miter;stroke-miterlimit:10;stroke-dasharray:none;stroke-opacity:1"
       transform="matrix(1.3333333,0,0,-1.3333333,-133.02667,-71.636)" />
    <g
       id="g14"
       aria-label="δ&#10;ϵ"
       transform="matrix(1.3333333,0,0,1.3333333,9.412,26.017333)">
      <path
         id="path15"
         d="m 2.6236172,-4.3489375 c -1.2421875,0.2929688 -2.20312501,1.59375 -2.20312501,2.7890625 0,0.9609375 0.63281251,1.67578125 1.57031251,1.67578125 1.1601562,0 1.9921875,-1.55859375 1.9921875,-2.94140625 0,-0.9023437 -0.3984375,-1.3945312 -0.7382813,-1.8515625 C 2.8931484,-5.122375 2.2954922,-5.872375 2.2954922,-6.3059687 2.2954922,-6.528625 2.4947109,-6.763 2.8462734,-6.763 c 0.3046875,0 0.5039063,0.1289063 0.703125,0.2695313 0.1992188,0.1171875 0.3984375,0.2460937 0.5507813,0.2460937 0.2460937,0 0.3984375,-0.234375 0.3984375,-0.3984375 0,-0.2226562 -0.1523438,-0.2460937 -0.515625,-0.328125 -0.515625,-0.1054687 -0.65625,-0.1054687 -0.8203125,-0.1054687 -0.7734375,0 -1.1367188,0.421875 -1.1367188,1.0195312 0,0.5390625 0.2929688,1.1015625 0.5976563,1.7109375 z M 2.7525234,-4.138 c 0.2460938,0.4570313 0.5390625,0.9960938 0.5390625,1.7109375 0,0.6679688 -0.375,2.3203125 -1.3007812,2.3203125 -0.5507813,0 -0.9609375,-0.41015625 -0.9609375,-1.171875 0,-0.6210937 0.375,-2.4960937 1.7226562,-2.859375 z m 0,0"
         style="fill:#000000;fill-opacity:1;fill-rule:nonzero;stroke:none" />
      <path
         id="path16"
         d="m 6.8658047,-0.06573437 c 0.1054687,0 0.234375,0 0.234375,-0.140625 0,-0.1171875 -0.1054688,-0.1171875 -0.234375,-0.1171875 H 5.6118984 C 5.8228359,-0.95635937 6.2798672,-1.2610469 6.8892422,-1.2610469 h 0.2695312 c 0.1054688,0 0.234375,0 0.234375,-0.1289062 0,-0.1171875 -0.09375,-0.1171875 -0.2226562,-0.1171875 H 6.8658047 c -0.9257813,0 -1.96875,0.64453123 -1.96875,1.69921873 0,0.82031247 0.6210937,1.37109377 1.4296875,1.37109377 0.2109375,0 0.5039062,-0.035156 0.8789062,-0.2460938 0.140625,-0.070312 0.1523438,-0.09375 0.1523438,-0.140625 0,-0.023437 0,-0.140625 -0.1054688,-0.140625 -0.023437,0 -0.046875,0.011719 -0.082031,0.035156 -0.2460938,0.1640625 -0.5390625,0.2929687 -0.8203125,0.2929687 -0.28125,0 -0.8671875,-0.140625 -0.8671875,-0.92578122 0,-0.10546875 0,-0.24609375 0.070312,-0.50390625 z m 0,0"
         style="fill:#000000;fill-opacity:1;fill-rule:nonzero;stroke:none" />
    </g>
    <g
       id="g16"
       aria-label="∆&#10;ϵ"
       transform="matrix(1.3333333,0,0,1.3333333,197.53333,24.314667)">
      <path
         id="path17"
         d="m 4.4076172,-6.9479141 c -0.070312,-0.1289062 -0.09375,-0.1875 -0.2578125,-0.1875 -0.1757813,0 -0.1992188,0.058594 -0.2578125,0.1875 l -3.37500001,6.75000004 c -0.046875,0.09375 -0.046875,0.10546875 -0.046875,0.1171875 0,0.08203125 0.0585937,0.08203125 0.22265625,0.08203125 H 7.6068359 c 0.1523438,0 0.2109375,0 0.2109375,-0.08203125 0,-0.01171875 0,-0.0234375 -0.046875,-0.1171875 z m -0.5859375,0.8085938 2.6835937,5.37890624 H 1.1380859 Z m 0,0"
         style="fill:#000000;fill-opacity:1;fill-rule:nonzero;stroke:none" />
      <path
         id="path18"
         d="m 10.738672,-0.06314844 c 0.105469,0 0.234375,0 0.234375,-0.140625 0,-0.1171875 -0.105469,-0.1171875 -0.234375,-0.1171875 H 9.4847656 C 9.6957031,-0.95377344 10.152734,-1.2584609 10.762109,-1.2584609 h 0.269532 c 0.105468,0 0.234375,0 0.234375,-0.1289063 0,-0.1171875 -0.09375,-0.1171875 -0.222657,-0.1171875 h -0.304687 c -0.9257814,0 -1.9687501,0.64453126 -1.9687501,1.69921876 0,0.82031254 0.6210937,1.37109374 1.4296871,1.37109374 0.210938,0 0.503907,-0.035156 0.878907,-0.2460937 0.140625,-0.070312 0.152343,-0.09375 0.152343,-0.140625 0,-0.023437 0,-0.140625 -0.105468,-0.140625 -0.02344,0 -0.04687,0.011719 -0.08203,0.035156 -0.246093,0.1640625 -0.539062,0.2929688 -0.820312,0.2929688 -0.2812501,0 -0.8671876,-0.140625 -0.8671876,-0.92578129 0,-0.10546875 0,-0.24609375 0.070312,-0.50390625 z m 0,0"
         style="fill:#000000;fill-opacity:1;fill-rule:nonzero;stroke:none" />
    </g>
    <g
       id="g18"
       aria-label="K→∞"
       transform="matrix(1.3333333,0,0,1.3333333,33.8,16.932)">
      <path
         id="path19"
         d="m 4.2779297,-3.1980234 c -0.011719,-0.023437 -0.046875,-0.1054688 -0.046875,-0.1054688 0,-0.023437 0.140625,-0.1171875 0.2109375,-0.1640625 0.6328125,-0.46875 1.5,-1.0898437 1.7578125,-1.2539062 0.4101562,-0.2578125 0.703125,-0.421875 1.0546875,-0.4570313 0.070312,-0.011719 0.1757812,-0.011719 0.1757812,-0.1640625 0,-0.046875 -0.046875,-0.09375 -0.1054687,-0.09375 -0.011719,0 -0.234375,0.023437 -0.2929688,0.023437 H 6.7154297 c -0.1289063,0 -0.328125,0 -0.3984375,-0.011719 -0.058594,0 -0.375,-0.011719 -0.421875,-0.011719 -0.058594,0 -0.1757813,0 -0.1757813,0.140625 0,0.011719 0.011719,0.1054688 0.1289063,0.1171875 0.070312,0.011719 0.1875,0.023437 0.1875,0.1171875 0,0.1289063 -0.1523438,0.2695313 -0.1757813,0.2695313 l -0.058594,0.058594 c -0.023437,0.023437 -0.058594,0.058594 -0.09375,0.082031 l -3.2578125,2.3554687 0.6328125,-2.5195312 c 0.070312,-0.2929688 0.09375,-0.3632813 0.6679687,-0.3632813 0.1640625,0 0.2578125,0 0.2578125,-0.1523437 0,-0.011719 -0.011719,-0.1054688 -0.140625,-0.1054688 -0.140625,0 -0.3398437,0.011719 -0.4921875,0.023437 H 2.8716797 c -0.7617188,0 -0.9609375,-0.023437 -1.0195313,-0.023437 -0.046875,0 -0.1640625,0 -0.1640625,0.140625 0,0.1171875 0.09375,0.1171875 0.234375,0.1171875 0.2578125,0 0.4921875,0 0.4921875,0.1289063 0,0.035156 -0.011719,0.035156 -0.035156,0.140625 l -1.0664063,4.27734371 c -0.070312,0.3046875 -0.082031,0.375 -0.67968746,0.375 -0.15234375,0 -0.24609375,0 -0.24609375,0.140625 0,0.03515625 0.0234375,0.1171875 0.12890625,0.1171875 0.15234375,0 0.33984375,-0.01171875 0.49218746,-0.0234375 h 1.03125 c 0.1289063,0.01171875 0.3867188,0.0234375 0.515625,0.0234375 0.035156,0 0.1523438,0 0.1523438,-0.140625 0,-0.1171875 -0.09375,-0.1171875 -0.234375,-0.1171875 -0.046875,0 -0.1640625,0 -0.2929688,-0.0234375 -0.1757812,-0.0117188 -0.1992187,-0.0351563 -0.1992187,-0.10546875 0,-0.046875 0.058594,-0.24609375 0.082031,-0.375 l 0.3046875,-1.20703126 1.2773438,-0.9257812 0.9609375,1.96874996 c 0.035156,0.0703125 0.1171875,0.24609375 0.1523437,0.31640625 0.046875,0.0703125 0.046875,0.09375 0.046875,0.12890625 0,0.2109375 -0.2929687,0.22265625 -0.3867187,0.22265625 -0.070312,0 -0.1875,0 -0.1875,0.140625 0,0.0117188 0.011719,0.1171875 0.140625,0.1171875 0.070312,0 0.375,-0.01171875 0.4453125,-0.0234375 h 0.46875 c 0.7265625,0 0.703125,0.0234375 0.8085937,0.0234375 0.035156,0 0.1523438,0 0.1523438,-0.15234375 0,-0.10546875 -0.1054688,-0.10546875 -0.1523438,-0.10546875 -0.3164062,-0.0117188 -0.421875,-0.0703125 -0.5507812,-0.33984375 z m 0,0"
         style="fill:#9b9b9b;fill-opacity:1;fill-rule:nonzero;stroke:none" />
      <path
         id="path20"
         d="m 17.019141,-1.8034922 c -0.269532,0.1992188 -0.527344,0.4453125 -0.714844,0.7382813 -0.339844,0.51562496 -0.433594,1.03124996 -0.433594,1.05468746 0,0.12890625 0.117188,0.12890625 0.1875,0.12890625 0.09375,0 0.164063,0 0.1875,-0.10546875 0.199219,-0.890625 0.714844,-1.55859376 1.675781,-1.88671876 0.07031,-0.011719 0.128907,-0.035156 0.128907,-0.1171875 0,-0.082031 -0.07031,-0.1054687 -0.105469,-0.1171875 -1.054688,-0.3515625 -1.523438,-1.1015625 -1.6875,-1.8046875 -0.03516,-0.1523437 -0.03516,-0.1875 -0.199219,-0.1875 -0.07031,0 -0.1875,0 -0.1875,0.1289063 0,0.011719 0.08203,0.5390625 0.433594,1.0664062 0.234375,0.328125 0.515625,0.5742188 0.714844,0.7265625 h -6.1875 c -0.128907,0 -0.304688,0 -0.304688,0.1875 0,0.1875 0.175781,0.1875 0.304688,0.1875 z m 8.159179,-0.375 c -0.46875,-0.5742187 -0.527343,-0.6328125 -0.808593,-0.84375 -0.363282,-0.28125 -0.855469,-0.4921875 -1.382813,-0.4921875 -0.972656,0 -1.640625,0.8554688 -1.640625,1.8046875 0,0.92578126 0.667969,1.79296876 1.605469,1.79296876 0.65625,0 1.429687,-0.33984375 2.085937,-1.33593746 0.46875,0.57421871 0.539063,0.63281246 0.808594,0.84374996 0.375,0.26953125 0.855469,0.4921875 1.382813,0.4921875 0.972656,0 1.640625,-0.85546875 1.640625,-1.80468746 0,-0.9257813 -0.65625,-1.7929688 -1.605469,-1.7929688 -0.65625,0 -1.417969,0.3398438 -2.085938,1.3359375 z m 0.246094,0.2929688 c 0.292969,-0.5039063 0.949219,-1.3242188 1.886719,-1.3242188 0.855469,0 1.335937,0.7734375 1.335937,1.4882813 0,0.77343746 -0.585937,1.37109371 -1.289062,1.37109371 -0.703125,0 -1.171875,-0.5859375 -1.933594,-1.53515621 z m -0.621094,0.3398437 c -0.304687,0.5039063 -0.960937,1.32421876 -1.898437,1.32421876 -0.855469,0 -1.335938,-0.7734375 -1.335938,-1.48828126 0,-0.7734375 0.585938,-1.3710937 1.289063,-1.3710937 0.703125,0 1.171875,0.5742187 1.945312,1.5351562 z m 0,0"
         style="fill:#9b9b9b;fill-opacity:1;fill-rule:nonzero;stroke:none" />
    </g>
    <g
       id="g20"
       aria-label="Z&#10;K&#10;−K&#10;dke&#10;ikx"
       transform="matrix(0.66666667,0,0,0.66666667,145.66533,2.0333333)">
      <path
         id="path21"
         d="m 1.0293438,21.682422 c 0.328125,-0.02344 0.4921875,-0.234375 0.4921875,-0.492188 0,-0.328125 -0.2578125,-0.46875 -0.46875,-0.46875 -0.25781255,0 -0.49218755,0.140625 -0.49218755,0.492188 0,0.515625 0.49218755,0.914062 1.10156255,0.914062 1.5234375,0 2.0859375,-2.320312 2.7890625,-5.203125 0.7734375,-3.164062 1.40625,-6.328125 1.9453125,-9.5390621 0.375,-2.109375 0.75,-4.1015625 1.078125,-5.390625 0.1171875,-0.4921875 0.46875,-1.78125002 0.84375,-1.78125002 0.3046875,0 0.5625,0.1875 0.609375,0.234375 -0.328125,0.0234375 -0.4921875,0.234375 -0.4921875,0.4921875 0,0.32812502 0.234375,0.49218752 0.46875,0.49218752 0.234375,0 0.4921875,-0.1640625 0.4921875,-0.49218752 0,-0.5390625 -0.5390625,-0.9375 -1.1015625,-0.9375 -0.75,0 -1.3125,1.07812502 -1.8515625,3.11718752 -0.023437,0.1171875 -1.3828125,5.109375 -2.484375,11.6250001 -0.2578125,1.523437 -0.5390625,3.1875 -0.8671875,4.570312 -0.1875,0.726563 -0.6328125,2.601563 -1.453125,2.601563 -0.3515625,0 -0.5859375,-0.234375 -0.609375,-0.234375 z m 0,0"
         style="fill:#9b9b9b;fill-opacity:1;fill-rule:nonzero;stroke:none" />
      <path
         id="path22"
         d="m 13.949266,-0.34882812 c -0.02344,-0.046875 -0.02344,-0.0703125 -0.02344,-0.0703125 0,-0.0234375 0,-0.0234375 0.164063,-0.140625 l 0.703125,-0.49218748 c 0.914062,-0.65625 1.359375,-0.9609375 1.851562,-1.0078125 0.07031,0 0.164063,0 0.164063,-0.140625 0,-0.070312 -0.04687,-0.09375 -0.09375,-0.09375 -0.140625,0 -0.328125,0.023437 -0.492188,0.023437 -0.1875,0 -0.65625,-0.046875 -0.84375,-0.046875 -0.04687,0 -0.140625,0 -0.140625,0.1640625 0,0 0,0.09375 0.09375,0.09375 0.09375,0 0.1875,0.023437 0.1875,0.09375 0,0.140625 -0.210937,0.28125 -0.304687,0.3515625 l -2.90625,2.06249998 0.539062,-2.20312498 c 0.07031,-0.234375 0.07031,-0.3046875 0.609375,-0.3046875 0.117188,0 0.210938,0 0.210938,-0.140625 0,-0.070312 -0.04687,-0.1171875 -0.117188,-0.1171875 -0.1875,0 -0.703125,0.046875 -0.914062,0.046875 -0.117188,0 -0.351563,0 -0.46875,-0.023437 -0.140625,0 -0.304688,-0.023437 -0.445313,-0.023437 -0.04687,0 -0.140625,0 -0.140625,0.1640625 0,0.09375 0.07031,0.09375 0.234375,0.09375 0.09375,0 0.140625,0 0.257813,0.023437 0.140625,0 0.164062,0.023437 0.164062,0.09375 0,0.023437 0,0.046875 -0.04687,0.1640625 l -0.914062,3.703125 c -0.07031,0.234375 -0.07031,0.28125 -0.609375,0.28125 -0.140625,0 -0.210938,0 -0.210938,0.1640625 0,0 0,0.09375 0.09375,0.09375 0.210938,0 0.703125,-0.023437 0.914063,-0.023437 0.117187,0 0.375,0 0.492187,0 0.140625,0 0.304688,0.023437 0.445313,0.023437 0.02344,0 0.140625,0 0.140625,-0.1640625 0,-0.09375 -0.09375,-0.09375 -0.234375,-0.09375 0,0 -0.140625,0 -0.257813,0 -0.164062,-0.023437 -0.164062,-0.046875 -0.164062,-0.1171875 0,-0.046875 0.07031,-0.3046875 0.328125,-1.33593752 l 1.171875,-0.8203125 1.007812,1.96875002 c 0.04687,0.09375 0.04687,0.09375 0.04687,0.140625 0,0.140625 -0.1875,0.1640625 -0.328125,0.1640625 -0.07031,0 -0.164062,0 -0.164062,0.1640625 0,0 0,0.09375 0.117187,0.09375 0.1875,0 0.679688,-0.023437 0.890625,-0.023437 0.210938,0 0.492188,0.023437 0.679688,0.023437 0.09375,0 0.140625,-0.046875 0.140625,-0.140625 0,-0.1171875 -0.09375,-0.1171875 -0.164063,-0.1171875 -0.117187,0 -0.351562,0 -0.46875,-0.234375 z m 0,0"
         style="fill:#9b9b9b;fill-opacity:1;fill-rule:nonzero;stroke:none" />
      <path
         id="path23"
         d="m 10.738328,21.067188 c 0.09375,0 0.28125,0 0.28125,-0.1875 0,-0.164063 -0.164062,-0.164063 -0.28125,-0.164063 H 6.5664531 c -0.1171875,0 -0.28125,0 -0.28125,0.164063 0,0.1875 0.1640625,0.1875 0.28125,0.1875 z m 0,0"
         style="fill:#9b9b9b;fill-opacity:1;fill-rule:nonzero;stroke:none" />
      <path
         id="path24"
         d="m 15.748094,19.825 c -0.02344,-0.04687 -0.02344,-0.07031 -0.02344,-0.07031 0,-0.02344 0,-0.02344 0.164063,-0.140625 l 0.703125,-0.492188 c 0.914062,-0.65625 1.359375,-0.960937 1.851562,-1.007812 0.07031,0 0.164063,0 0.164063,-0.140625 0,-0.07031 -0.04687,-0.09375 -0.09375,-0.09375 -0.140625,0 -0.328125,0.02344 -0.492188,0.02344 -0.1875,0 -0.65625,-0.04687 -0.84375,-0.04687 -0.04687,0 -0.140625,0 -0.140625,0.164063 0,0 0,0.09375 0.09375,0.09375 0.09375,0 0.1875,0.02344 0.1875,0.09375 0,0.140625 -0.210937,0.28125 -0.304687,0.351562 l -2.90625,2.0625 0.539062,-2.203125 c 0.07031,-0.234375 0.07031,-0.304687 0.609375,-0.304687 0.117188,0 0.210938,0 0.210938,-0.140625 0,-0.07031 -0.04687,-0.117188 -0.117188,-0.117188 -0.1875,0 -0.703125,0.04687 -0.914062,0.04687 -0.117188,0 -0.351563,0 -0.46875,-0.02344 -0.140625,0 -0.304688,-0.02344 -0.445313,-0.02344 -0.04687,0 -0.140625,0 -0.140625,0.164063 0,0.09375 0.07031,0.09375 0.234375,0.09375 0.09375,0 0.140625,0 0.257813,0.02344 0.140625,0 0.164062,0.02344 0.164062,0.09375 0,0.02344 0,0.04687 -0.04687,0.164063 l -0.914062,3.703125 c -0.07031,0.234375 -0.07031,0.28125 -0.609375,0.28125 -0.140625,0 -0.210938,0 -0.210938,0.164062 0,0 0,0.09375 0.09375,0.09375 0.210938,0 0.703125,-0.02344 0.914063,-0.02344 0.117187,0 0.375,0 0.492187,0 0.140625,0 0.304688,0.02344 0.445313,0.02344 0.02344,0 0.140625,0 0.140625,-0.164062 0,-0.09375 -0.09375,-0.09375 -0.234375,-0.09375 0,0 -0.140625,0 -0.257813,0 -0.164062,-0.02344 -0.164062,-0.04687 -0.164062,-0.117188 0,-0.04687 0.07031,-0.304687 0.328125,-1.335937 l 1.171875,-0.820313 1.007812,1.96875 c 0.04687,0.09375 0.04687,0.09375 0.04687,0.140625 0,0.140625 -0.1875,0.164063 -0.328125,0.164063 -0.07031,0 -0.164062,0 -0.164062,0.164062 0,0 0,0.09375 0.117187,0.09375 0.1875,0 0.679688,-0.02344 0.890625,-0.02344 0.210938,0 0.492188,0.02344 0.679688,0.02344 0.09375,0 0.140625,-0.04687 0.140625,-0.140625 0,-0.117187 -0.09375,-0.117187 -0.164063,-0.117187 -0.117187,0 -0.351562,0 -0.46875,-0.234375 z m 0,0"
         style="fill:#9b9b9b;fill-opacity:1;fill-rule:nonzero;stroke:none" />
      <path
         id="path25"
         d="m 26.236375,6.7644531 c 0,-0.023437 0,-0.1171875 -0.117187,-0.1171875 -0.164063,0 -1.101563,0.09375 -1.265625,0.1171875 -0.09375,0 -0.140625,0.046875 -0.140625,0.1875 0,0.1171875 0.09375,0.1171875 0.234375,0.1171875 0.46875,0 0.492187,0.070312 0.492187,0.1640625 l -0.02344,0.2109375 -0.585938,2.34375 c -0.1875,-0.3515625 -0.46875,-0.6328125 -0.9375,-0.6328125 -1.148437,0 -2.390625,1.4765629 -2.390625,2.9296879 0,0.9375 0.539063,1.59375 1.335938,1.59375 0.1875,0 0.679687,-0.04687 1.289062,-0.75 0.07031,0.421875 0.421875,0.75 0.890625,0.75 0.351563,0 0.585938,-0.234375 0.75,-0.5625 0.164063,-0.351563 0.304688,-0.960938 0.304688,-0.984375 0,-0.09375 -0.09375,-0.09375 -0.117188,-0.09375 -0.117187,0 -0.117187,0.04687 -0.140625,0.1875 -0.1875,0.632812 -0.351562,1.21875 -0.773437,1.21875 -0.257813,0 -0.28125,-0.257813 -0.28125,-0.445313 0,-0.234375 0,-0.304687 0.04687,-0.492187 z m -2.0625,5.6015629 c -0.04687,0.1875 -0.04687,0.210937 -0.210937,0.375 -0.421875,0.5625 -0.84375,0.703125 -1.125,0.703125 -0.492188,0 -0.632813,-0.539063 -0.632813,-0.9375 0,-0.492188 0.328125,-1.710938 0.5625,-2.179688 0.304688,-0.5859374 0.75,-0.9609374 1.148438,-0.9609374 0.632812,0 0.773437,0.8203124 0.773437,0.8906254 0,0.04687 0,0.117187 -0.02344,0.164062 z m 4.974609,-5.6015629 c 0,-0.023437 0,-0.1171875 -0.140625,-0.1171875 -0.210937,0 -0.9375,0.070312 -1.195312,0.09375 -0.09375,0.023437 -0.1875,0.023437 -0.1875,0.2109375 0,0.1171875 0.07031,0.1171875 0.234375,0.1171875 0.46875,0 0.492187,0.070312 0.492187,0.1640625 l -0.02344,0.2109375 -1.453125,5.7187504 c -0.04687,0.140625 -0.04687,0.164062 -0.04687,0.234375 0,0.234375 0.210937,0.28125 0.304687,0.28125 0.117188,0 0.28125,-0.09375 0.328125,-0.210938 0.04687,-0.09375 0.492188,-1.945312 0.5625,-2.179687 0.328125,0.02344 1.148438,0.1875 1.148438,0.84375 0,0.07031 0,0.09375 -0.02344,0.210937 -0.02344,0.117188 -0.04687,0.234375 -0.04687,0.351563 0,0.585937 0.398438,0.984375 0.914063,0.984375 0.304687,0 0.585937,-0.164063 0.796875,-0.539063 0.257812,-0.445312 0.351562,-0.984375 0.351562,-1.007812 0,-0.09375 -0.09375,-0.09375 -0.117187,-0.09375 -0.09375,0 -0.117188,0.04687 -0.140625,0.1875 -0.1875,0.726562 -0.421875,1.21875 -0.867188,1.21875 -0.1875,0 -0.304687,-0.09375 -0.304687,-0.46875 0,-0.164063 0.02344,-0.398438 0.07031,-0.539063 0.04687,-0.1875 0.04687,-0.210937 0.04687,-0.328125 0,-0.632812 -0.632812,-0.9375 -1.476562,-1.03125 0.304687,-0.1875 0.632812,-0.515625 0.84375,-0.75 0.492187,-0.5156249 0.9375,-0.9609374 1.429687,-0.9609374 0.07031,0 0.07031,0 0.09375,0.023437 0.117188,0.023437 0.140625,0.023437 0.210938,0.070312 0.02344,0.023437 0.02344,0.023437 0.04687,0.046875 -0.492188,0.023437 -0.585938,0.421875 -0.585938,0.5390624 0,0.164063 0.117188,0.351563 0.398438,0.351563 0.257812,0 0.539062,-0.234375 0.539062,-0.6093754 0,-0.3046875 -0.234375,-0.6328125 -0.679687,-0.6328125 -0.28125,0 -0.726563,0.09375 -1.453125,0.8906249 -0.328125,0.375 -0.726563,0.773438 -1.101563,0.914063 z m 4.488282,4.4999999 c 0.304687,0 1.03125,-0.02344 1.546875,-0.234375 0.679687,-0.304687 0.726562,-0.890625 0.726562,-1.0312499 0,-0.421875 -0.375,-0.84375 -1.054687,-0.84375 -1.101563,0 -2.601563,0.9609379 -2.601563,2.7187499 0,1.007813 0.585938,1.804688 1.546875,1.804688 1.429688,0 2.273438,-1.054688 2.273438,-1.171875 0,-0.07031 -0.07031,-0.140625 -0.117188,-0.140625 -0.04687,0 -0.07031,0.02344 -0.140625,0.09375 -0.773437,0.984375 -1.875,0.984375 -1.992187,0.984375 -0.773438,0 -0.867188,-0.820313 -0.867188,-1.148438 0,-0.117187 0.02344,-0.421875 0.164063,-1.03125 z m -0.445313,-0.234375 c 0.375,-1.4999999 1.40625,-1.6640624 1.664063,-1.6640624 0.46875,0 0.726562,0.3046875 0.726562,0.6328125 0,1.0312499 -1.59375,1.0312499 -1.992187,1.0312499 z m 0,0"
         style="fill:#9b9b9b;fill-opacity:1;fill-rule:nonzero;stroke:none" />
      <path
         id="path26"
         d="m 38.699266,5.0886719 c 0,-0.1171875 -0.09375,-0.28125 -0.28125,-0.28125 -0.1875,0 -0.398438,0.1875 -0.398438,0.3984375 0,0.1171875 0.09375,0.2578125 0.28125,0.2578125 0.210938,0 0.398438,-0.1875 0.398438,-0.375 z m -1.429688,3.5390625 c -0.02344,0.09375 -0.07031,0.1875 -0.07031,0.3046875 0,0.328125 0.28125,0.5859375 0.65625,0.5859375 0.703125,0 1.007812,-0.9609375 1.007812,-1.078125 0,-0.070312 -0.09375,-0.070312 -0.09375,-0.070312 -0.117187,0 -0.117187,0.023437 -0.140625,0.1171875 -0.164062,0.5390625 -0.46875,0.84375 -0.75,0.84375 -0.140625,0 -0.164062,-0.09375 -0.164062,-0.2578125 0,-0.1640625 0.04687,-0.28125 0.117187,-0.4453125 0.07031,-0.1875 0.140625,-0.375 0.210938,-0.5625 0.07031,-0.1640625 0.328125,-0.796875 0.351562,-0.890625 0.02344,-0.070312 0.04687,-0.140625 0.04687,-0.2109375 0,-0.328125 -0.28125,-0.5859375 -0.679687,-0.5859375 -0.679688,0 -1.007813,0.9375 -1.007813,1.0546875 0,0.09375 0.09375,0.09375 0.117188,0.09375 0.09375,0 0.117187,-0.023437 0.117187,-0.1171875 0.1875,-0.5859375 0.492188,-0.84375 0.75,-0.84375 0.117188,0 0.1875,0.046875 0.1875,0.234375 0,0.1640625 -0.04687,0.28125 -0.210937,0.703125 z m 4.154297,-3.8203125 c 0.02344,0 0.02344,-0.09375 0.02344,-0.1171875 0,-0.023437 -0.02344,-0.09375 -0.09375,-0.09375 -0.140625,0 -0.726563,0.070312 -0.890625,0.070312 -0.07031,0 -0.164063,0.023437 -0.164063,0.1640625 0,0.09375 0.09375,0.09375 0.1875,0.09375 0.328125,0 0.328125,0.046875 0.328125,0.1171875 0,0.046875 -0.02344,0.09375 -0.02344,0.140625 l -0.984375,3.9609375 c -0.04687,0.1171875 -0.04687,0.140625 -0.04687,0.140625 0,0.1171875 0.09375,0.234375 0.234375,0.234375 0.210937,0 0.28125,-0.140625 0.328125,-0.3046875 0.02344,-0.023437 0.328125,-1.2421875 0.351562,-1.3359375 0.492188,0.046875 0.890625,0.2109375 0.890625,0.5625 0,0.046875 0,0.070312 -0.02344,0.140625 -0.02344,0.1171875 -0.02344,0.140625 -0.02344,0.2109375 0,0.4921875 0.398438,0.7265625 0.75,0.7265625 0.679688,0 0.890625,-1.0546875 0.890625,-1.078125 0,-0.070312 -0.09375,-0.070312 -0.117187,-0.070312 -0.09375,0 -0.117188,0.023437 -0.140625,0.1640625 -0.09375,0.28125 -0.28125,0.796875 -0.609375,0.796875 -0.1875,0 -0.257813,-0.1875 -0.257813,-0.375 0,-0.1171875 0,-0.140625 0.04687,-0.3046875 0,-0.023437 0.02344,-0.140625 0.02344,-0.234375 0,-0.609375 -0.820313,-0.703125 -1.125,-0.7265625 0.210937,-0.1171875 0.46875,-0.3515625 0.585937,-0.46875 0.351563,-0.328125 0.703125,-0.65625 1.101563,-0.65625 0.07031,0 0.164062,0.023437 0.234375,0.09375 -0.304688,0.046875 -0.375,0.28125 -0.375,0.375 0,0.1640625 0.117187,0.28125 0.28125,0.28125 0.1875,0 0.398437,-0.1640625 0.398437,-0.46875 0,-0.2109375 -0.164062,-0.46875 -0.539062,-0.46875 -0.398438,0 -0.75,0.28125 -1.125,0.609375 -0.28125,0.28125 -0.515625,0.4921875 -0.796875,0.609375 z m 3.960938,3.890625 c -0.07031,0.2578125 -0.304688,0.6328125 -0.65625,0.6328125 -0.02344,0 -0.234375,0 -0.375,-0.1171875 0.28125,-0.070312 0.304687,-0.328125 0.304687,-0.375 0,-0.140625 -0.117187,-0.2578125 -0.28125,-0.2578125 -0.1875,0 -0.398437,0.1640625 -0.398437,0.421875 0,0.3515625 0.398437,0.515625 0.75,0.515625 0.304687,0 0.609375,-0.2109375 0.773437,-0.4921875 0.164063,0.375 0.5625,0.4921875 0.820313,0.4921875 0.820312,0 1.242187,-0.8671875 1.242187,-1.078125 0,-0.070312 -0.09375,-0.070312 -0.117187,-0.070312 -0.09375,0 -0.09375,0.023437 -0.140625,0.1171875 -0.140625,0.46875 -0.5625,0.84375 -0.9375,0.84375 -0.28125,0 -0.445313,-0.1875 -0.445313,-0.46875 0,-0.1640625 0.1875,-0.8203125 0.375,-1.59375 0.140625,-0.5390625 0.445313,-0.703125 0.679688,-0.703125 0.02344,0 0.234375,0 0.375,0.09375 -0.210938,0.070312 -0.304688,0.2578125 -0.304688,0.375 0,0.1640625 0.117188,0.28125 0.28125,0.28125 0.164063,0 0.398438,-0.140625 0.398438,-0.4453125 0,-0.375 -0.445313,-0.4921875 -0.726563,-0.4921875 -0.351562,0 -0.632812,0.2109375 -0.796875,0.4921875 -0.117187,-0.28125 -0.445312,-0.4921875 -0.820312,-0.4921875 -0.796875,0 -1.242188,0.84375 -1.242188,1.0546875 0,0.09375 0.09375,0.09375 0.117188,0.09375 0.09375,0 0.09375,-0.023437 0.140625,-0.1171875 0.164062,-0.5390625 0.609375,-0.84375 0.960937,-0.84375 0.234375,0 0.421875,0.1171875 0.421875,0.46875 0,0.140625 -0.09375,0.46875 -0.164062,0.7265625 z m 0,0"
         style="fill:#9b9b9b;fill-opacity:1;fill-rule:nonzero;stroke:none" />
    </g>
    <g
       id="g26"
       aria-label="(···)"
       transform="matrix(1.3333333,0,0,1.3333333,93.585333,23.330667)">
      <path
         id="path27"
         d="m 3.2934219,2.3916484 c 0,-0.035156 0,-0.046875 -0.1640625,-0.2226562 -1.2421875,-1.25390626 -1.5703125,-3.12890626 -1.5703125,-4.6640625 0,-1.7226563 0.3867187,-3.4570313 1.6054687,-4.7109375 0.1289063,-0.1171875 0.1289063,-0.1289063 0.1289063,-0.1640625 0,-0.070312 -0.035156,-0.1054688 -0.09375,-0.1054688 -0.1054688,0 -0.9960938,0.6796875 -1.5820313,1.9453125 -0.515625,1.1015625 -0.63281248,2.203125 -0.63281248,3.0351563 0,0.7851562 0.11718748,1.99218749 0.65624998,3.11718749 0.5976563,1.21875001 1.453125,1.87500001 1.5585938,1.87500001 0.058594,0 0.09375,-0.035156 0.09375,-0.1054688 z m 0,0"
         style="fill:#000000;fill-opacity:1;fill-rule:nonzero;stroke:none" />
      <path
         id="path28"
         d="m 5.7836562,-2.4950703 c 0,-0.28125 -0.234375,-0.5273438 -0.5273437,-0.5273438 -0.28125,0 -0.5273438,0.2460938 -0.5273438,0.5273438 0,0.2929687 0.2460938,0.5390625 0.5273438,0.5390625 0.2929687,0 0.5273437,-0.2460938 0.5273437,-0.5390625 z m 4.4326168,0 c 0,-0.28125 -0.2343746,-0.5273438 -0.5273433,-0.5273438 -0.28125,0 -0.5273438,0.2460938 -0.5273438,0.5273438 0,0.2929687 0.2460938,0.5390625 0.5273438,0.5390625 0.2929687,0 0.5273433,-0.2460938 0.5273433,-0.5390625 z m 4.420899,0 c 0,-0.28125 -0.234375,-0.5273438 -0.527344,-0.5273438 -0.28125,0 -0.527344,0.2460938 -0.527344,0.5273438 0,0.2929687 0.246094,0.5390625 0.527344,0.5390625 0.292969,0 0.527344,-0.2460938 0.527344,-0.5390625 z m 0,0"
         style="fill:#000000;fill-opacity:1;fill-rule:nonzero;stroke:none" />
      <path
         id="path29"
         d="m 20.039516,-2.4950703 c 0,-0.7734375 -0.117188,-1.9804688 -0.65625,-3.1054688 -0.597657,-1.21875 -1.464844,-1.875 -1.558594,-1.875 -0.05859,0 -0.105469,0.046875 -0.105469,0.1054688 0,0.035156 0,0.046875 0.199219,0.234375 0.972656,0.984375 1.535156,2.5664062 1.535156,4.640625 0,1.71093749 -0.363281,3.45703124 -1.59375,4.7226562 -0.140625,0.1171875 -0.140625,0.1289063 -0.140625,0.1640625 0,0.058594 0.04687,0.1054688 0.105469,0.1054688 0.09375,0 0.996094,-0.6796875 1.582031,-1.94531251 0.503906,-1.1015625 0.632813,-2.20312499 0.632813,-3.04687499 z m 0,0"
         style="fill:#000000;fill-opacity:1;fill-rule:nonzero;stroke:none" />
    </g>
    <path
       id="path30"
       d="m 2.6264062,-4.3491094 c -1.2421875,0.2929688 -2.20312495,1.59375 -2.20312495,2.7890625 0,0.96093753 0.63281245,1.67578128 1.57031245,1.67578128 1.1601563,0 1.9921875,-1.55859378 1.9921875,-2.94140628 0,-0.9023437 -0.3984375,-1.3945312 -0.7382812,-1.8515625 -0.3515625,-0.4453125 -0.9492188,-1.1953125 -0.9492188,-1.6289062 0,-0.2226563 0.1992188,-0.4570313 0.5507813,-0.4570313 0.3046875,0 0.5039062,0.1289063 0.703125,0.2695313 0.1992187,0.1171875 0.3984375,0.2460937 0.5507812,0.2460937 0.2460938,0 0.3984375,-0.234375 0.3984375,-0.3984375 0,-0.2226562 -0.1523437,-0.2460937 -0.515625,-0.328125 -0.515625,-0.1054687 -0.65625,-0.1054687 -0.8203125,-0.1054687 -0.7734375,0 -1.1367187,0.421875 -1.1367187,1.0195312 0,0.5390625 0.2929687,1.1015625 0.5976562,1.7109375 z m 0.1289063,0.2109375 c 0.2460937,0.4570313 0.5390625,0.9960938 0.5390625,1.7109375 0,0.6679688 -0.375,2.32031253 -1.3007813,2.32031253 -0.5507812,0 -0.9609375,-0.41015625 -0.9609375,-1.17187503 0,-0.6210937 0.375,-2.4960937 1.7226563,-2.859375 z m 0,0"
       style="fill:#000000;fill-opacity:1;fill-rule:nonzero;stroke:none"
       aria-label="δ"
       transform="matrix(1.3333333,0,0,1.3333333,6.42,90.416)" />
    <g
       id="g30"
       aria-label="ϵ→0"
       transform="matrix(1.3333333,0,0,1.3333333,13.892,52.390667)">
      <path
         id="path31"
         d="m 2.9638125,-2.2500312 c 0.1640625,0 0.3398438,0 0.3398438,-0.1757813 0,-0.1289062 -0.1171875,-0.1289062 -0.28125,-0.1289062 H 1.4052188 c 0.234375,-0.8554688 0.796875,-1.4296875 1.6992187,-1.4296875 h 0.3164063 c 0.1640625,0 0.328125,0 0.328125,-0.1640625 0,-0.140625 -0.1289063,-0.140625 -0.3046875,-0.140625 H 3.0927188 c -1.2890625,0 -2.62500005,0.9960937 -2.62500005,2.5195312 0,1.08984375 0.75000005,1.875 1.80468755,1.875 0.6445312,0 1.2890625,-0.3984375 1.2890625,-0.50390625 0,-0.0351563 -0.011719,-0.140625 -0.09375,-0.140625 -0.023437,0 -0.046875,0 -0.1289063,0.0585938 -0.3164062,0.19921875 -0.6796875,0.375 -1.0429687,0.375 -0.5859375,0 -1.078125,-0.421875 -1.078125,-1.30078125 0,-0.3515625 0.082031,-0.7265625 0.1054687,-0.84375 z m 0,0"
         style="fill:#9b9b9b;fill-opacity:1;fill-rule:nonzero;stroke:none" />
      <path
         id="path32"
         d="m 15.119086,-2.2969062 c -0.550781,0.421875 -0.820313,0.8320312 -0.902344,0.9609375 -0.445312,0.6914062 -0.527344,1.31249995 -0.527344,1.3242187 0,0.1171875 0.128907,0.1171875 0.199219,0.1171875 0.175781,0 0.1875,-0.01171875 0.222656,-0.19921875 0.234375,-0.97265625 0.820313,-1.80468745 1.945313,-2.26171875 0.117187,-0.046875 0.152344,-0.070312 0.152344,-0.140625 0,-0.058594 -0.07031,-0.09375 -0.08203,-0.1054687 -0.445312,-0.1640625 -1.640625,-0.6679688 -2.027343,-2.34375 -0.02344,-0.1171875 -0.03516,-0.140625 -0.210938,-0.140625 -0.07031,0 -0.199219,0 -0.199219,0.1171875 0,0.023437 0.09375,0.6445312 0.515625,1.3125 0.199219,0.3046875 0.480469,0.6445312 0.914063,0.9609375 H 7.7128359 c -0.1757812,0 -0.3515625,0 -0.3515625,0.1992187 0,0.1992188 0.1757813,0.1992188 0.3515625,0.1992188 z m 0,0"
         style="fill:#9b9b9b;fill-opacity:1;fill-rule:nonzero;stroke:none" />
      <path
         id="path33"
         d="m 24.122016,-3.1875312 c 0,-0.796875 -0.04687,-1.59375 -0.398438,-2.3320313 -0.457031,-0.9609375 -1.277344,-1.1132812 -1.6875,-1.1132812 -0.597656,0 -1.335937,0.2578125 -1.734375,1.1835937 -0.328125,0.6914063 -0.375,1.4648438 -0.375,2.2617188 0,0.75 0.04687,1.640625 0.445313,2.4023437 0.433593,0.80859375 1.160156,1.0078125 1.652343,1.0078125 0.539063,0 1.289063,-0.2109375 1.734375,-1.16015625 0.316407,-0.69140625 0.363282,-1.46484375 0.363282,-2.24999995 z M 22.024359,-3.125e-5 c -0.386718,0 -0.984375,-0.24609375 -1.160156,-1.20703125 -0.105469,-0.5976562 -0.105469,-1.5117187 -0.105469,-2.0976562 0,-0.6445313 0,-1.3007813 0.08203,-1.8398438 0.1875,-1.1835937 0.925781,-1.265625 1.183593,-1.265625 0.328125,0 0.984375,0.1757813 1.171875,1.1601563 0.09375,0.5625 0.09375,1.3125 0.09375,1.9453125 0,0.75 0,1.4179687 -0.105468,2.0625 C 23.03217,-0.30471875 22.46967,-3.125e-5 22.024357,-3.125e-5 Z m 0,0"
         style="fill:#9b9b9b;fill-opacity:1;fill-rule:nonzero;stroke:none" />
    </g>
    <g
       id="g33"
       aria-label="ϵ→0"
       transform="matrix(1.3333333,0,0,1.3333333,63.705333,52.390667)">
      <path
         id="path34"
         d="m 2.9661172,-2.2500312 c 0.1640625,0 0.3398437,0 0.3398437,-0.1757813 0,-0.1289062 -0.1171875,-0.1289062 -0.28125,-0.1289062 H 1.4075234 c 0.234375,-0.8554688 0.796875,-1.4296875 1.6992188,-1.4296875 h 0.3164062 c 0.1640625,0 0.328125,0 0.328125,-0.1640625 0,-0.140625 -0.1289062,-0.140625 -0.3046875,-0.140625 H 3.0950234 c -1.2890625,0 -2.62499996,0.9960937 -2.62499996,2.5195312 0,1.08984375 0.74999996,1.875 1.80468746,1.875 0.6445313,0 1.2890625,-0.3984375 1.2890625,-0.50390625 0,-0.0351563 -0.011719,-0.140625 -0.09375,-0.140625 -0.023437,0 -0.046875,0 -0.1289062,0.0585938 -0.3164063,0.19921875 -0.6796875,0.375 -1.0429688,0.375 -0.5859375,0 -1.078125,-0.421875 -1.078125,-1.30078125 0,-0.3515625 0.082031,-0.7265625 0.1054688,-0.84375 z m 0,0"
         style="fill:#9b9b9b;fill-opacity:1;fill-rule:nonzero;stroke:none" />
      <path
         id="path35"
         d="m 15.118461,-2.2969062 c -0.550781,0.421875 -0.820313,0.8320312 -0.902344,0.9609375 -0.445312,0.6914062 -0.527344,1.31249995 -0.527344,1.3242187 0,0.1171875 0.128907,0.1171875 0.199219,0.1171875 0.175781,0 0.1875,-0.01171875 0.222656,-0.19921875 0.234375,-0.97265625 0.820313,-1.80468745 1.945313,-2.26171875 0.117187,-0.046875 0.152344,-0.070312 0.152344,-0.140625 0,-0.058594 -0.07031,-0.09375 -0.08203,-0.1054687 -0.445312,-0.1640625 -1.640625,-0.6679688 -2.027343,-2.34375 -0.02344,-0.1171875 -0.03516,-0.140625 -0.210938,-0.140625 -0.07031,0 -0.199219,0 -0.199219,0.1171875 0,0.023437 0.09375,0.6445312 0.515625,1.3125 0.199219,0.3046875 0.480469,0.6445312 0.914063,0.9609375 H 7.7122109 c -0.1757812,0 -0.3515625,0 -0.3515625,0.1992187 0,0.1992188 0.1757813,0.1992188 0.3515625,0.1992188 z m 0,0"
         style="fill:#9b9b9b;fill-opacity:1;fill-rule:nonzero;stroke:none" />
      <path
         id="path36"
         d="m 24.12432,-3.1875312 c 0,-0.796875 -0.04687,-1.59375 -0.398437,-2.3320313 -0.457031,-0.9609375 -1.277344,-1.1132812 -1.6875,-1.1132812 -0.597656,0 -1.335938,0.2578125 -1.734375,1.1835937 -0.328125,0.6914063 -0.375,1.4648438 -0.375,2.2617188 0,0.75 0.04687,1.640625 0.445312,2.4023437 0.433594,0.80859375 1.160157,1.0078125 1.652344,1.0078125 0.539063,0 1.289063,-0.2109375 1.734375,-1.16015625 C 24.077445,-1.6289375 24.12432,-2.402375 24.12432,-3.1875312 Z M 22.026664,-3.125e-5 c -0.386719,0 -0.984375,-0.24609375 -1.160156,-1.20703125 -0.105469,-0.5976562 -0.105469,-1.5117187 -0.105469,-2.0976562 0,-0.6445313 0,-1.3007813 0.08203,-1.8398438 0.1875,-1.1835937 0.925782,-1.265625 1.183594,-1.265625 0.328125,0 0.984375,0.1757813 1.171875,1.1601563 0.09375,0.5625 0.09375,1.3125 0.09375,1.9453125 0,0.75 0,1.4179687 -0.105469,2.0625 -0.152343,0.93749995 -0.714843,1.24218745 -1.160156,1.24218745 z m 0,0"
         style="fill:#9b9b9b;fill-opacity:1;fill-rule:nonzero;stroke:none" />
    </g>
    <g
       id="g36"
       aria-label="ϵ→0"
       transform="matrix(1.3333333,0,0,1.3333333,163.332,52.390667)">
      <path
         id="path37"
         d="m 2.9648672,-2.2500312 c 0.1640625,0 0.3398437,0 0.3398437,-0.1757813 0,-0.1289062 -0.1171875,-0.1289062 -0.28125,-0.1289062 H 1.4062734 c 0.234375,-0.8554688 0.796875,-1.4296875 1.6992188,-1.4296875 h 0.3164062 c 0.1640625,0 0.328125,0 0.328125,-0.1640625 0,-0.140625 -0.1289062,-0.140625 -0.3046875,-0.140625 H 3.0937734 c -1.2890625,0 -2.62499996,0.9960937 -2.62499996,2.5195312 0,1.08984375 0.74999996,1.875 1.80468746,1.875 0.6445313,0 1.2890625,-0.3984375 1.2890625,-0.50390625 0,-0.0351563 -0.011719,-0.140625 -0.09375,-0.140625 -0.023437,0 -0.046875,0 -0.1289062,0.0585938 -0.3164063,0.19921875 -0.6796875,0.375 -1.0429688,0.375 -0.5859375,0 -1.078125,-0.421875 -1.078125,-1.30078125 0,-0.3515625 0.082031,-0.7265625 0.1054688,-0.84375 z m 0,0"
         style="fill:#9b9b9b;fill-opacity:1;fill-rule:nonzero;stroke:none" />
      <path
         id="path38"
         d="m 15.120141,-2.2969062 c -0.550782,0.421875 -0.820313,0.8320312 -0.902344,0.9609375 -0.445313,0.6914062 -0.527344,1.31249995 -0.527344,1.3242187 0,0.1171875 0.128906,0.1171875 0.199219,0.1171875 0.175781,0 0.1875,-0.01171875 0.222656,-0.19921875 0.234375,-0.97265625 0.820313,-1.80468745 1.945313,-2.26171875 0.117187,-0.046875 0.152343,-0.070312 0.152343,-0.140625 0,-0.058594 -0.07031,-0.09375 -0.08203,-0.1054687 -0.445312,-0.1640625 -1.640625,-0.6679688 -2.027344,-2.34375 -0.02344,-0.1171875 -0.03516,-0.140625 -0.210937,-0.140625 -0.07031,0 -0.199219,0 -0.199219,0.1171875 0,0.023437 0.09375,0.6445312 0.515625,1.3125 0.199219,0.3046875 0.480469,0.6445312 0.914063,0.9609375 H 7.7138906 c -0.1757812,0 -0.3515625,0 -0.3515625,0.1992187 0,0.1992188 0.1757813,0.1992188 0.3515625,0.1992188 z m 0,0"
         style="fill:#9b9b9b;fill-opacity:1;fill-rule:nonzero;stroke:none" />
      <path
         id="path39"
         d="m 24.12307,-3.1875312 c 0,-0.796875 -0.04687,-1.59375 -0.398437,-2.3320313 -0.457031,-0.9609375 -1.277344,-1.1132812 -1.6875,-1.1132812 -0.597656,0 -1.335938,0.2578125 -1.734375,1.1835937 -0.328125,0.6914063 -0.375,1.4648438 -0.375,2.2617188 0,0.75 0.04687,1.640625 0.445312,2.4023437 0.433594,0.80859375 1.160157,1.0078125 1.652344,1.0078125 0.539063,0 1.289063,-0.2109375 1.734375,-1.16015625 C 24.076195,-1.6289375 24.12307,-2.402375 24.12307,-3.1875312 Z M 22.025414,-3.125e-5 c -0.386719,0 -0.984375,-0.24609375 -1.160156,-1.20703125 -0.105469,-0.5976562 -0.105469,-1.5117187 -0.105469,-2.0976562 0,-0.6445313 0,-1.3007813 0.08203,-1.8398438 0.1875,-1.1835937 0.925782,-1.265625 1.183594,-1.265625 0.328125,0 0.984375,0.1757813 1.171875,1.1601563 0.09375,0.5625 0.09375,1.3125 0.09375,1.9453125 0,0.75 0,1.4179687 -0.105469,2.0625 -0.152343,0.93749995 -0.714843,1.24218745 -1.160156,1.24218745 z m 0,0"
         style="fill:#9b9b9b;fill-opacity:1;fill-rule:nonzero;stroke:none" />
    </g>
    <path
       id="path40"
       d="M 3.8803594,8.5195078 2.1225469,4.6406016 C 2.0522344,4.4882578 2.0053594,4.4882578 1.9702031,4.4882578 c -0.011719,0 -0.058594,0 -0.1640625,0.070312 l -0.94921872,0.726563 c -0.12890625,0.09375 -0.12890625,0.1289063 -0.12890625,0.1523438 0,0.046875 0.0351563,0.1054687 0.10546875,0.1054687 0.0585938,0 0.22265622,-0.1289062 0.32812502,-0.2109375 0.070312,-0.046875 0.2109375,-0.1640625 0.328125,-0.2460937 l 1.9570312,4.3125 c 0.070312,0.1640625 0.1171875,0.1640625 0.2109375,0.1640625 0.1523438,0 0.1757813,-0.058594 0.2460938,-0.1992188 L 8.4272344,-2.34375e-5 C 8.4975469,-0.14064844 8.4975469,-0.17580469 8.4975469,-0.19924219 c 0,-0.10546875 -0.082031,-0.19921875 -0.1992188,-0.19921875 -0.082031,0 -0.1523437,0.046875 -0.2226562,0.2109375 z m 0,0"
       style="fill:#000000;fill-opacity:1;fill-rule:nonzero;stroke:none"
       aria-label="√"
       transform="matrix(1.3333333,0,0,1.3333333,209.084,83.168)" />
    <path
       id="path41"
       d="M 0,0 H 11.018"
       style="fill:none;stroke:#000000;stroke-width:0.398;stroke-linecap:butt;stroke-linejoin:miter;stroke-miterlimit:10;stroke-dasharray:none;stroke-opacity:1"
       transform="matrix(1.3333333,0,0,-1.3333333,220.15467,82.902667)" />
    <g
       id="g41"
       aria-label="2π&#10;−1"
       transform="matrix(1.3333333,0,0,1.3333333,220.15467,94.157333)">
      <path
         id="path42"
         d="M 1.2668125,-0.76253125 2.3215,-1.7937812 c 1.5585938,-1.3710938 2.15625,-1.9101563 2.15625,-2.90625 0,-1.1367188 -0.9023437,-1.9335938 -2.1210937,-1.9335938 -1.125,0 -1.85156255,0.9140625 -1.85156255,1.8046875 0,0.5507813 0.4921875,0.5507813 0.52734375,0.5507813 0.1640625,0 0.515625,-0.1171875 0.515625,-0.5273438 0,-0.2578125 -0.1875,-0.515625 -0.5273437,-0.515625 -0.0820313,0 -0.1054688,0 -0.1289063,0.011719 0.2226563,-0.6445313 0.7617188,-1.0195313 1.3359375,-1.0195313 0.9140625,0 1.3359375,0.8085938 1.3359375,1.6289063 0,0.796875 -0.4921875,1.5820312 -1.0429687,2.203125 L 0.6105625,-0.36409375 C 0.50509375,-0.258625 0.50509375,-0.2351875 0.50509375,-8.125e-4 H 4.1965 l 0.28125,-1.734375 H 4.2199375 C 4.1730625,-1.4305 4.10275,-0.99690625 4.009,-0.8445625 3.938687,-0.7625312 3.2824375,-0.7625312 3.0597813,-0.7625312 Z m 0,0"
         style="fill:#000000;fill-opacity:1;fill-rule:nonzero;stroke:none" />
      <path
         id="path43"
         d="m 7.618375,-3.7156562 h 1.125 C 8.41525,-2.2390937 8.3332188,-1.8172187 8.3332188,-1.14925 c 0,0.15234375 0,0.421875 0.070312,0.76171875 0.1054687,0.43359375 0.2109375,0.4921875 0.3632812,0.4921875 0.1992188,0 0.4101563,-0.17578125 0.4101563,-0.375 0,-0.0585938 0,-0.0820313 -0.058594,-0.22265625 -0.2929687,-0.7148437 -0.2929687,-1.359375 -0.2929687,-1.640625 0,-0.5273437 0.070312,-1.0664062 0.1757812,-1.5820312 h 1.1367182 c 0.128907,0 0.492188,0 0.492188,-0.3398438 0,-0.234375 -0.210938,-0.234375 -0.398438,-0.234375 H 6.8918125 c -0.2109375,0 -0.5976562,0 -1.03125,0.46875 -0.3515625,0.3867188 -0.609375,0.84375 -0.609375,0.890625 0,0.011719 0,0.1054688 0.1171875,0.1054688 0.082031,0 0.1054688,-0.046875 0.1640625,-0.1289063 0.4804688,-0.7617187 1.0664063,-0.7617187 1.265625,-0.7617187 h 0.5625 C 7.0441563,-2.508625 6.5050938,-1.3015937 6.0832188,-0.39925 c -0.070312,0.15234375 -0.070312,0.1640625 -0.070312,0.234375 0,0.19921875 0.1523437,0.26953125 0.28125,0.26953125 0.3046875,0 0.3867187,-0.26953125 0.5039062,-0.64453125 0.140625,-0.45703125 0.140625,-0.4804687 0.2695313,-0.9726562 z m 0,0"
         style="fill:#000000;fill-opacity:1;fill-rule:nonzero;stroke:none" />
      <path
         id="path44"
         d="m 16.208219,-8.1453437 c 0.105469,0 0.269531,0 0.269531,-0.1757813 0,-0.1757812 -0.152344,-0.1757812 -0.269531,-0.1757812 h -4.160156 c -0.105469,0 -0.28125,0 -0.28125,0.1757812 0,0.1757813 0.164062,0.1757813 0.28125,0.1757813 z m 0,0"
         style="fill:#000000;fill-opacity:1;fill-rule:nonzero;stroke:none" />
      <path
         id="path45"
         d="m 19.577359,-11.004719 c 0,-0.1875 -0.01172,-0.199218 -0.210937,-0.199218 -0.445313,0.433593 -1.078125,0.445312 -1.359375,0.445312 v 0.246094 c 0.164062,0 0.621094,0 1.007812,-0.1875 v 3.550781 c 0,0.234375 0,0.328125 -0.691406,0.328125 h -0.269531 v 0.2460938 c 0.128906,-0.011719 0.984375,-0.023437 1.242187,-0.023437 0.210938,0 1.089844,0.011719 1.242188,0.023437 V -6.821125 h -0.257813 c -0.703125,0 -0.703125,-0.09375 -0.703125,-0.328125 z m 0,0"
         style="fill:#000000;fill-opacity:1;fill-rule:nonzero;stroke:none" />
    </g>
    <g
       id="g45"
       aria-label="Z&#10;K&#10;−K&#10;dke&#10;ikx"
       transform="matrix(0.66666667,0,0,0.66666667,154.632,86.716)">
      <path
         id="path46"
         d="m 1.0324688,21.677953 c 0.328125,-0.02344 0.4921875,-0.234375 0.4921875,-0.492187 0,-0.328125 -0.2578125,-0.46875 -0.46875,-0.46875 -0.25781255,0 -0.49218755,0.140625 -0.49218755,0.492187 0,0.515625 0.49218755,0.914063 1.10156255,0.914063 1.5234375,0 2.0859375,-2.320313 2.7890625,-5.203125 0.7734375,-3.164063 1.40625,-6.328125 1.9453125,-9.5390629 0.375,-2.109375 0.75,-4.1015625 1.078125,-5.390625 0.1171875,-0.4921875 0.46875,-1.78124997 0.84375,-1.78124997 0.3046875,0 0.5625,0.1875 0.609375,0.234375 -0.328125,0.0234375 -0.4921875,0.234375 -0.4921875,0.4921875 0,0.32812497 0.234375,0.49218747 0.46875,0.49218747 0.234375,0 0.4921875,-0.1640625 0.4921875,-0.49218747 0,-0.5390625 -0.5390625,-0.9375 -1.1015625,-0.9375 -0.75,0 -1.3125,1.07812497 -1.8515625,3.11718747 -0.023437,0.1171875 -1.3828125,5.109375 -2.484375,11.6249999 -0.2578125,1.523438 -0.5390625,3.1875 -0.8671875,4.570313 -0.1875,0.726562 -0.6328125,2.601562 -1.453125,2.601562 -0.3515625,0 -0.5859375,-0.234375 -0.609375,-0.234375 z m 0,0"
         style="fill:#9b9b9b;fill-opacity:1;fill-rule:nonzero;stroke:none" />
      <path
         id="path47"
         d="m 13.946531,-0.3474375 c -0.02344,-0.046875 -0.02344,-0.0703125 -0.02344,-0.0703125 0,-0.0234375 0,-0.0234375 0.164062,-0.140625 l 0.703125,-0.4921875 c 0.914063,-0.65625 1.359375,-0.9609375 1.851563,-1.0078125 0.07031,0 0.164062,0 0.164062,-0.140625 0,-0.070312 -0.04687,-0.09375 -0.09375,-0.09375 -0.140625,0 -0.328125,0.023437 -0.492187,0.023437 -0.1875,0 -0.65625,-0.046875 -0.84375,-0.046875 -0.04687,0 -0.140625,0 -0.140625,0.1640625 0,0 0,0.09375 0.09375,0.09375 0.09375,0 0.1875,0.023437 0.1875,0.09375 0,0.140625 -0.210938,0.28125 -0.304688,0.3515625 l -2.90625,2.0625 0.539063,-2.203125 c 0.07031,-0.234375 0.07031,-0.3046875 0.609375,-0.3046875 0.117187,0 0.210937,0 0.210937,-0.140625 0,-0.070312 -0.04687,-0.1171875 -0.117187,-0.1171875 -0.1875,0 -0.703125,0.046875 -0.914063,0.046875 -0.117187,0 -0.351562,0 -0.46875,-0.023437 -0.140625,0 -0.304687,-0.023437 -0.445312,-0.023437 -0.04687,0 -0.140625,0 -0.140625,0.1640625 0,0.09375 0.07031,0.09375 0.234375,0.09375 0.09375,0 0.140625,0 0.257812,0.023437 0.140625,0 0.164063,0.023437 0.164063,0.09375 0,0.023437 0,0.046875 -0.04687,0.1640625 L 11.274656,1.926 c -0.07031,0.234375 -0.07031,0.28125 -0.609375,0.28125 -0.140625,0 -0.210937,0 -0.210937,0.1640625 0,0 0,0.09375 0.09375,0.09375 0.210937,0 0.703125,-0.023437 0.914062,-0.023437 0.117188,0 0.375,0 0.492188,0 0.140625,0 0.304687,0.023437 0.445312,0.023437 0.02344,0 0.140625,0 0.140625,-0.1640625 0,-0.09375 -0.09375,-0.09375 -0.234375,-0.09375 0,0 -0.140625,0 -0.257812,0 -0.164063,-0.023437 -0.164063,-0.046875 -0.164063,-0.1171875 0,-0.046875 0.07031,-0.3046875 0.328125,-1.3359375 l 1.171875,-0.8203125 1.007813,1.96875 c 0.04687,0.09375 0.04687,0.09375 0.04687,0.140625 0,0.140625 -0.1875,0.1640625 -0.328125,0.1640625 -0.07031,0 -0.164063,0 -0.164063,0.1640625 0,0 0,0.09375 0.117188,0.09375 0.1875,0 0.679687,-0.023437 0.890625,-0.023437 0.210937,0 0.492187,0.023437 0.679687,0.023437 0.09375,0 0.140625,-0.046875 0.140625,-0.140625 0,-0.1171875 -0.09375,-0.1171875 -0.164062,-0.1171875 -0.117188,0 -0.351563,0 -0.46875,-0.234375 z m 0,0"
         style="fill:#9b9b9b;fill-opacity:1;fill-rule:nonzero;stroke:none" />
      <path
         id="path48"
         d="m 10.735594,21.068578 c 0.09375,0 0.28125,0 0.28125,-0.1875 0,-0.164062 -0.164063,-0.164062 -0.28125,-0.164062 H 6.5637188 c -0.1171875,0 -0.28125,0 -0.28125,0.164062 0,0.1875 0.1640625,0.1875 0.28125,0.1875 z m 0,0"
         style="fill:#9b9b9b;fill-opacity:1;fill-rule:nonzero;stroke:none" />
      <path
         id="path49"
         d="m 15.745359,19.826391 c -0.02344,-0.04687 -0.02344,-0.07031 -0.02344,-0.07031 0,-0.02344 0,-0.02344 0.164062,-0.140625 l 0.703125,-0.492187 c 0.914063,-0.65625 1.359375,-0.960938 1.851563,-1.007813 0.07031,0 0.164062,0 0.164062,-0.140625 0,-0.07031 -0.04687,-0.09375 -0.09375,-0.09375 -0.140625,0 -0.328125,0.02344 -0.492187,0.02344 -0.1875,0 -0.65625,-0.04687 -0.84375,-0.04687 -0.04687,0 -0.140625,0 -0.140625,0.164062 0,0 0,0.09375 0.09375,0.09375 0.09375,0 0.1875,0.02344 0.1875,0.09375 0,0.140625 -0.210938,0.28125 -0.304688,0.351563 l -2.90625,2.0625 0.539063,-2.203125 c 0.07031,-0.234375 0.07031,-0.304688 0.609375,-0.304688 0.117187,0 0.210937,0 0.210937,-0.140625 0,-0.07031 -0.04687,-0.117187 -0.117187,-0.117187 -0.1875,0 -0.703125,0.04687 -0.914063,0.04687 -0.117187,0 -0.351562,0 -0.46875,-0.02344 -0.140625,0 -0.304687,-0.02344 -0.445312,-0.02344 -0.04687,0 -0.140625,0 -0.140625,0.164062 0,0.09375 0.07031,0.09375 0.234375,0.09375 0.09375,0 0.140625,0 0.257812,0.02344 0.140625,0 0.164063,0.02344 0.164063,0.09375 0,0.02344 0,0.04687 -0.04687,0.164062 l -0.914063,3.703125 c -0.07031,0.234375 -0.07031,0.28125 -0.609375,0.28125 -0.140625,0 -0.210937,0 -0.210937,0.164063 0,0 0,0.09375 0.09375,0.09375 0.210937,0 0.703125,-0.02344 0.914062,-0.02344 0.117188,0 0.375,0 0.492188,0 0.140625,0 0.304687,0.02344 0.445312,0.02344 0.02344,0 0.140625,0 0.140625,-0.164063 0,-0.09375 -0.09375,-0.09375 -0.234375,-0.09375 0,0 -0.140625,0 -0.257812,0 -0.164063,-0.02344 -0.164063,-0.04687 -0.164063,-0.117187 0,-0.04687 0.07031,-0.304688 0.328125,-1.335938 l 1.171875,-0.820312 1.007813,1.96875 c 0.04687,0.09375 0.04687,0.09375 0.04687,0.140625 0,0.140625 -0.1875,0.164062 -0.328125,0.164062 -0.07031,0 -0.164063,0 -0.164063,0.164063 0,0 0,0.09375 0.117188,0.09375 0.1875,0 0.679687,-0.02344 0.890625,-0.02344 0.210937,0 0.492187,0.02344 0.679687,0.02344 0.09375,0 0.140625,-0.04687 0.140625,-0.140625 0,-0.117188 -0.09375,-0.117188 -0.164062,-0.117188 -0.117188,0 -0.351563,0 -0.46875,-0.234375 z m 0,0"
         style="fill:#9b9b9b;fill-opacity:1;fill-rule:nonzero;stroke:none" />
      <path
         id="path50"
         d="m 26.233641,6.7658438 c 0,-0.023437 0,-0.1171875 -0.117188,-0.1171875 -0.164062,0 -1.101562,0.09375 -1.265625,0.1171875 -0.09375,0 -0.140625,0.046875 -0.140625,0.1875 0,0.1171875 0.09375,0.1171875 0.234375,0.1171875 0.46875,0 0.492188,0.070312 0.492188,0.1640625 l -0.02344,0.2109375 -0.585937,2.34375 c -0.1875,-0.3515625 -0.46875,-0.6328125 -0.9375,-0.6328125 -1.148438,0 -2.390625,1.4765622 -2.390625,2.9296872 0,0.9375 0.539062,1.59375 1.335937,1.59375 0.1875,0 0.679688,-0.04687 1.289063,-0.75 0.07031,0.421875 0.421875,0.75 0.890625,0.75 0.351562,0 0.585937,-0.234375 0.75,-0.5625 0.164062,-0.351562 0.304687,-0.960937 0.304687,-0.984375 0,-0.09375 -0.09375,-0.09375 -0.117187,-0.09375 -0.117188,0 -0.117188,0.04687 -0.140625,0.1875 -0.1875,0.632813 -0.351563,1.21875 -0.773438,1.21875 -0.257812,0 -0.28125,-0.257812 -0.28125,-0.445312 0,-0.234375 0,-0.304688 0.04687,-0.492188 z m -2.0625,5.6015622 c -0.04687,0.1875 -0.04687,0.210938 -0.210938,0.375 -0.421875,0.5625 -0.84375,0.703125 -1.125,0.703125 -0.492187,0 -0.632812,-0.539062 -0.632812,-0.9375 0,-0.492187 0.328125,-1.710937 0.5625,-2.179687 0.304687,-0.5859377 0.75,-0.9609377 1.148437,-0.9609377 0.632813,0 0.773438,0.8203127 0.773438,0.8906247 0,0.04687 0,0.117188 -0.02344,0.164063 z M 29.14575,6.7658438 c 0,-0.023437 0,-0.1171875 -0.140625,-0.1171875 -0.210937,0 -0.9375,0.070312 -1.195312,0.09375 -0.09375,0.023437 -0.1875,0.023437 -0.1875,0.2109375 0,0.1171875 0.07031,0.1171875 0.234375,0.1171875 0.46875,0 0.492187,0.070312 0.492187,0.1640625 l -0.02344,0.2109375 -1.453125,5.7187497 c -0.04687,0.140625 -0.04687,0.164063 -0.04687,0.234375 0,0.234375 0.210937,0.28125 0.304687,0.28125 0.117188,0 0.28125,-0.09375 0.328125,-0.210937 0.04687,-0.09375 0.492188,-1.945313 0.5625,-2.179688 0.328125,0.02344 1.148438,0.1875 1.148438,0.84375 0,0.07031 0,0.09375 -0.02344,0.210938 -0.02344,0.117187 -0.04687,0.234375 -0.04687,0.351562 0,0.585938 0.398438,0.984375 0.914063,0.984375 0.304687,0 0.585937,-0.164062 0.796875,-0.539062 0.257812,-0.445313 0.351562,-0.984375 0.351562,-1.007813 0,-0.09375 -0.09375,-0.09375 -0.117187,-0.09375 -0.09375,0 -0.117188,0.04687 -0.140625,0.1875 -0.1875,0.726563 -0.421875,1.21875 -0.867188,1.21875 -0.1875,0 -0.304687,-0.09375 -0.304687,-0.46875 0,-0.164062 0.02344,-0.398437 0.07031,-0.539062 0.04687,-0.1875 0.04687,-0.210938 0.04687,-0.328125 0,-0.632813 -0.632812,-0.9375 -1.476562,-1.03125 0.304687,-0.1875 0.632812,-0.515625 0.84375,-0.75 0.492187,-0.5156252 0.9375,-0.9609377 1.429687,-0.9609377 0.07031,0 0.07031,0 0.09375,0.023437 0.117188,0.023437 0.140625,0.023437 0.210938,0.070312 0.02344,0.023437 0.02344,0.023437 0.04687,0.046875 -0.492188,0.023437 -0.585938,0.421875 -0.585938,0.5390627 0,0.164062 0.117188,0.351562 0.398438,0.351562 0.257812,0 0.539062,-0.234375 0.539062,-0.6093747 0,-0.3046875 -0.234375,-0.6328125 -0.679687,-0.6328125 -0.28125,0 -0.726563,0.09375 -1.453125,0.8906252 -0.328125,0.375 -0.726563,0.773437 -1.101563,0.914062 z m 4.488281,4.5000002 c 0.304688,0 1.03125,-0.02344 1.546875,-0.234375 0.679688,-0.304688 0.726563,-0.890625 0.726563,-1.03125 0,-0.4218752 -0.375,-0.8437502 -1.054688,-0.8437502 -1.101562,0 -2.601562,0.9609372 -2.601562,2.7187502 0,1.007812 0.585937,1.804687 1.546875,1.804687 1.429687,0 2.273437,-1.054687 2.273437,-1.171875 0,-0.07031 -0.07031,-0.140625 -0.117187,-0.140625 -0.04687,0 -0.07031,0.02344 -0.140625,0.09375 -0.773438,0.984375 -1.875,0.984375 -1.992188,0.984375 -0.773437,0 -0.867187,-0.820312 -0.867187,-1.148437 0,-0.117188 0.02344,-0.421875 0.164062,-1.03125 z m -0.445312,-0.234375 c 0.375,-1.5000002 1.40625,-1.6640627 1.664062,-1.6640627 0.46875,0 0.726563,0.3046875 0.726563,0.6328127 0,1.03125 -1.59375,1.03125 -1.992188,1.03125 z m 0,0"
         style="fill:#9b9b9b;fill-opacity:1;fill-rule:nonzero;stroke:none" />
      <path
         id="path51"
         d="m 38.702391,5.0900625 c 0,-0.1171875 -0.09375,-0.28125 -0.28125,-0.28125 -0.1875,0 -0.398438,0.1875 -0.398438,0.3984375 0,0.1171875 0.09375,0.2578125 0.28125,0.2578125 0.210938,0 0.398438,-0.1875 0.398438,-0.375 z M 37.272703,8.629125 c -0.02344,0.09375 -0.07031,0.1875 -0.07031,0.3046875 0,0.328125 0.28125,0.5859375 0.65625,0.5859375 0.703125,0 1.007812,-0.9609375 1.007812,-1.078125 0,-0.070312 -0.09375,-0.070312 -0.09375,-0.070312 -0.117187,0 -0.117187,0.023437 -0.140625,0.1171875 -0.164062,0.5390625 -0.46875,0.84375 -0.75,0.84375 -0.140625,0 -0.164062,-0.09375 -0.164062,-0.2578125 0,-0.1640625 0.04687,-0.28125 0.117187,-0.4453125 0.07031,-0.1875 0.140625,-0.375 0.210938,-0.5625 0.07031,-0.1640625 0.328125,-0.796875 0.351562,-0.890625 0.02344,-0.070312 0.04687,-0.140625 0.04687,-0.2109375 0,-0.328125 -0.28125,-0.5859375 -0.679687,-0.5859375 -0.679688,0 -1.007813,0.9375 -1.007813,1.0546875 0,0.09375 0.09375,0.09375 0.117188,0.09375 0.09375,0 0.117187,-0.023437 0.117187,-0.1171875 0.1875,-0.5859375 0.492188,-0.84375 0.75,-0.84375 0.117188,0 0.1875,0.046875 0.1875,0.234375 0,0.1640625 -0.04687,0.28125 -0.210937,0.703125 z M 41.427,4.8088125 c 0.02344,0 0.02344,-0.09375 0.02344,-0.1171875 0,-0.023437 -0.02344,-0.09375 -0.09375,-0.09375 -0.140625,0 -0.726563,0.070312 -0.890625,0.070312 -0.07031,0 -0.164063,0.023437 -0.164063,0.1640625 0,0.09375 0.09375,0.09375 0.1875,0.09375 0.328125,0 0.328125,0.046875 0.328125,0.1171875 0,0.046875 -0.02344,0.09375 -0.02344,0.140625 L 39.809813,9.14475 c -0.04687,0.1171875 -0.04687,0.140625 -0.04687,0.140625 0,0.1171875 0.09375,0.234375 0.234375,0.234375 0.210937,0 0.28125,-0.140625 0.328125,-0.3046875 0.02344,-0.023437 0.328125,-1.2421875 0.351562,-1.3359375 0.492188,0.046875 0.890625,0.2109375 0.890625,0.5625 0,0.046875 0,0.070312 -0.02344,0.140625 -0.02344,0.1171875 -0.02344,0.140625 -0.02344,0.2109375 0,0.4921875 0.398438,0.7265625 0.75,0.7265625 0.679688,0 0.890625,-1.0546875 0.890625,-1.078125 0,-0.070312 -0.09375,-0.070312 -0.117187,-0.070312 -0.09375,0 -0.117188,0.023437 -0.140625,0.1640625 -0.09375,0.28125 -0.28125,0.796875 -0.609375,0.796875 -0.1875,0 -0.257813,-0.1875 -0.257813,-0.375 0,-0.1171875 0,-0.140625 0.04687,-0.3046875 0,-0.023437 0.02344,-0.140625 0.02344,-0.234375 0,-0.609375 -0.820313,-0.703125 -1.125,-0.7265625 0.210937,-0.1171875 0.46875,-0.3515625 0.585937,-0.46875 0.351563,-0.328125 0.703125,-0.65625 1.101563,-0.65625 0.07031,0 0.164062,0.023437 0.234375,0.09375 -0.304688,0.046875 -0.375,0.28125 -0.375,0.375 0,0.1640625 0.117187,0.28125 0.28125,0.28125 0.1875,0 0.398437,-0.1640625 0.398437,-0.46875 0,-0.2109375 -0.164062,-0.46875 -0.539062,-0.46875 -0.398438,0 -0.75,0.28125 -1.125,0.609375 -0.28125,0.28125 -0.515625,0.4921875 -0.796875,0.609375 z m 3.955078,3.890625 C 45.311766,8.95725 45.077391,9.33225 44.725828,9.33225 c -0.02344,0 -0.234375,0 -0.375,-0.1171875 0.28125,-0.070312 0.304688,-0.328125 0.304688,-0.375 0,-0.140625 -0.117188,-0.2578125 -0.28125,-0.2578125 -0.1875,0 -0.398438,0.1640625 -0.398438,0.421875 0,0.3515625 0.398438,0.515625 0.75,0.515625 0.304688,0 0.609375,-0.2109375 0.773438,-0.4921875 0.164062,0.375 0.5625,0.4921875 0.820312,0.4921875 0.820313,0 1.242188,-0.8671875 1.242188,-1.078125 0,-0.070312 -0.09375,-0.070312 -0.117188,-0.070312 -0.09375,0 -0.09375,0.023437 -0.140625,0.1171875 -0.140625,0.46875 -0.5625,0.84375 -0.9375,0.84375 -0.28125,0 -0.445312,-0.1875 -0.445312,-0.46875 0,-0.1640625 0.1875,-0.8203125 0.375,-1.59375 0.140625,-0.5390625 0.445312,-0.703125 0.679687,-0.703125 0.02344,0 0.234375,0 0.375,0.09375 -0.210937,0.070312 -0.304687,0.2578125 -0.304687,0.375 0,0.1640625 0.117187,0.28125 0.28125,0.28125 0.164062,0 0.398437,-0.140625 0.398437,-0.4453125 0,-0.375 -0.445312,-0.4921875 -0.726562,-0.4921875 -0.351563,0 -0.632813,0.2109375 -0.796875,0.4921875 -0.117188,-0.28125 -0.445313,-0.4921875 -0.820313,-0.4921875 -0.796875,0 -1.242187,0.84375 -1.242187,1.0546875 0,0.09375 0.09375,0.09375 0.117187,0.09375 0.09375,0 0.09375,-0.023437 0.140625,-0.1171875 0.164063,-0.5390625 0.609375,-0.84375 0.960938,-0.84375 0.234375,0 0.421875,0.1171875 0.421875,0.46875 0,0.140625 -0.09375,0.46875 -0.164063,0.7265625 z m 0,0"
         style="fill:#9b9b9b;fill-opacity:1;fill-rule:nonzero;stroke:none" />
    </g>
    <g
       id="g51"
       aria-label="sinKx"
       transform="matrix(1.3333333,0,0,1.3333333,91.7,79.309333)">
      <path
         id="path52"
         d="m 2.0736328,-1.9341484 c 0.2226563,0.035156 1.03125,0.1992187 1.03125,0.9140625 0,0.51562496 -0.3515625,0.91406246 -1.125,0.91406246 -0.8320312,0 -1.19531249,-0.57421875 -1.38281249,-1.41796876 -0.0351563,-0.1289062 -0.0351563,-0.1757812 -0.140625,-0.1757812 -0.12890625,0 -0.12890625,0.070312 -0.12890625,0.2578125 v 1.31249996 c 0,0.1640625 0,0.234375 0.10546875,0.234375 0.0585938,0 0.0703125,0 0.2578125,-0.19921875 0.0117188,-0.01171875 0.0117188,-0.03515625 0.19921875,-0.22265625 0.43359374,0.421875 0.87890624,0.421875 1.08984374,0.421875 1.1484375,0 1.6054688,-0.66796875 1.6054688,-1.38281246 0,-0.5273438 -0.2929688,-0.8203125 -0.421875,-0.9492188 -0.328125,-0.3164062 -0.7148438,-0.3984375 -1.1367188,-0.46875 -0.5507812,-0.1171875 -1.21874999,-0.2460937 -1.21874999,-0.8203125 0,-0.3515625 0.25781249,-0.7617187 1.11328129,-0.7617187 1.1015625,0 1.1484375,0.9023437 1.171875,1.2070312 0,0.09375 0.09375,0.09375 0.1171875,0.09375 0.1289062,0 0.1289062,-0.046875 0.1289062,-0.2460937 v -0.9960938 c 0,-0.1757812 0,-0.2460937 -0.1171875,-0.2460937 -0.046875,0 -0.070312,0 -0.1992187,0.1171875 -0.023437,0.046875 -0.1289063,0.1289062 -0.1640625,0.1640625 -0.375,-0.28125 -0.7851563,-0.28125 -0.9375,-0.28125 -1.21875004,0 -1.59375004,0.6679687 -1.59375004,1.2304687 0,0.3398438 0.1640625,0.6210938 0.43359375,0.84375 0.31640629,0.2578125 0.59765629,0.3164063 1.31249999,0.4570313 z m 3.6123047,-2.4726563 -1.3945313,0.1171875 v 0.3046875 c 0.65625,0 0.7382813,0.058594 0.7382813,0.5507813 v 2.67187496 c 0,0.45703125 -0.1054688,0.45703125 -0.7734375,0.45703125 V -5.546875e-4 C 4.5726562,-0.01227344 5.1117187,-0.03571094 5.3578125,-0.03571094 c 0.3398437,0 0.6914062,0.0234375 1.03125,0.0351562525 V -0.30524219 c -0.65625,0 -0.703125,-0.0585938 -0.703125,-0.4453125 z m 0.046875,-1.734375 c 0,-0.3164062 -0.2460938,-0.5273437 -0.5273438,-0.5273437 -0.3164062,0 -0.5273437,0.2695312 -0.5273437,0.5273437 0,0.2695313 0.2109375,0.5273438 0.5273437,0.5273438 0.28125,0 0.5273438,-0.1992188 0.5273438,-0.5273438 z m 2.0654297,2.71875 v 2.66015626 c 0,0.45703125 -0.1171875,0.45703125 -0.7851563,0.45703125 v 0.3046875025 c 0.3515625,-0.0117187525 0.8554688,-0.0351562525 1.125,-0.0351562525 0.2578125,0 0.7851563,0.0234375 1.1132813,0.0351562525 V -0.30524219 c -0.65625,0 -0.7734375,0 -0.7734375,-0.45703125 V -2.5903984 c 0,-1.03125 0.7148437,-1.59375 1.3476562,-1.59375 0.6210941,0 0.7382811,0.5390625 0.7382811,1.1015625 v 2.32031246 c 0,0.45703125 -0.117187,0.45703125 -0.7734373,0.45703125 V -5.546875e-4 C 10.130273,-0.01227344 10.645898,-0.03571094 10.91543,-0.03571094 c 0.257812,0 0.773437,0.0234375 1.113281,0.0351562525 V -0.30524219 c -0.515625,0 -0.773438,0 -0.785156,-0.3046875 V -2.5083672 c 0,-0.8554687 0,-1.171875 -0.304688,-1.5234375 -0.140625,-0.1757812 -0.46875,-0.375 -1.0429686,-0.375 -0.7265625,0 -1.1953125,0.4335938 -1.4765625,1.0546875 v -1.0546875 l -1.40625,0.1171875 v 0.3046875 c 0.703125,0 0.7851563,0.070312 0.7851563,0.5625 z m 0,0"
         style="fill:#000000;fill-opacity:1;fill-rule:nonzero;stroke:none" />
      <path
         id="path53"
         d="m 18.966211,-4.0200859 c -0.01172,-0.035156 -0.05859,-0.1171875 -0.05859,-0.140625 0,-0.011719 0.1875,-0.1523438 0.292969,-0.234375 l 1.746094,-1.3476563 c 0.9375,-0.6796875 1.324218,-0.7265625 1.617187,-0.75 0.08203,-0.011719 0.1875,-0.023437 0.1875,-0.1992187 0,-0.046875 -0.03516,-0.1171875 -0.117187,-0.1171875 -0.210938,0 -0.46875,0.035156 -0.703125,0.035156 -0.363282,0 -0.75,-0.035156 -1.101563,-0.035156 -0.07031,0 -0.199219,0 -0.199219,0.1992187 0,0.070312 0.05859,0.1054688 0.128907,0.1171875 0.210937,0.011719 0.304687,0.070312 0.304687,0.2109375 0,0.1757813 -0.292969,0.3984375 -0.363281,0.4570313 l -3.878906,2.9882812 0.796875,-3.1992187 c 0.09375,-0.3632813 0.105468,-0.4570313 0.832031,-0.4570313 0.257812,0 0.339844,0 0.339844,-0.1992187 0,-0.09375 -0.08203,-0.1171875 -0.140625,-0.1171875 -0.269532,0 -0.996094,0.035156 -1.265625,0.035156 -0.292969,0 -0.996094,-0.035156 -1.289063,-0.035156 -0.07031,0 -0.199219,0 -0.199219,0.1992187 0,0.1171875 0.09375,0.1171875 0.292969,0.1171875 0.128906,0 0.304688,0.011719 0.421875,0.011719 0.164063,0.023437 0.222656,0.058594 0.222656,0.1640625 0,0.035156 -0.01172,0.070312 -0.04687,0.1875 l -1.335937,5.35546871 c -0.09375,0.38671875 -0.117188,0.46875 -0.902344,0.46875 -0.164062,0 -0.28125,0 -0.28125,0.1875 0,0.1171875025 0.128906,0.1171875025 0.152344,0.1171875025 0.28125,0 0.984375,-0.0351562525 1.265625,-0.0351562525 0.210937,0 0.433594,0.01171875 0.632812,0.01171875 0.222657,0 0.445313,0.0234375025 0.65625,0.0234375025 0.07031,0 0.199219,0 0.199219,-0.1992187525 0,-0.10546875 -0.09375,-0.10546875 -0.28125,-0.10546875 -0.375,0 -0.644531,0 -0.644531,-0.1875 0,-0.0703125 0.05859,-0.28125 0.08203,-0.43359375 0.140625,-0.51562496 0.269531,-1.04296876 0.398438,-1.57031246 l 1.488281,-1.1484375 1.160156,2.68359371 c 0.117188,0.2578125 0.117188,0.28125 0.117188,0.33984375 0,0.3046875 -0.433594,0.31640625 -0.515625,0.31640625 -0.117188,0 -0.222657,0 -0.222657,0.19921875 0,0.1054687525 0.117188,0.1054687525 0.140625,0.1054687525 0.398438,0 0.808594,-0.0351562525 1.207032,-0.0351562525 0.222656,0 0.761718,0.0351562525 0.984375,0.0351562525 0.04687,0 0.175781,0 0.175781,-0.1992187525 0,-0.10546875 -0.105469,-0.10546875 -0.199219,-0.10546875 -0.410156,-0.0117188 -0.539062,-0.10546875 -0.691406,-0.45703125 z m 7.432617,1.0078125 c 0.05859,-0.2578125 0.292969,-1.171875 0.984375,-1.171875 0.04687,0 0.292969,0 0.503906,0.1289062 -0.28125,0.046875 -0.480468,0.3046875 -0.480468,0.5390625 0,0.1640625 0.105468,0.3515625 0.375,0.3515625 0.222656,0 0.539062,-0.1875 0.539062,-0.5859375 0,-0.515625 -0.585937,-0.65625 -0.925781,-0.65625 -0.574219,0 -0.925781,0.5273438 -1.042969,0.7617188 -0.257812,-0.65625 -0.785156,-0.7617188 -1.078125,-0.7617188 -1.042969,0 -1.605469,1.2890625 -1.605469,1.5351563 0,0.1054687 0.105469,0.1054687 0.117188,0.1054687 0.08203,0 0.117187,-0.023437 0.128906,-0.1171875 0.339844,-1.0546875 0.996094,-1.3007812 1.335938,-1.3007812 0.1875,0 0.539062,0.09375 0.539062,0.6679687 0,0.3046875 -0.164062,0.9726563 -0.539062,2.3671875 -0.152344,0.62109376 -0.503907,1.04296876 -0.949219,1.04296876 -0.05859,0 -0.28125,0 -0.492188,-0.12890625 0.246094,-0.0585938 0.46875,-0.26953125 0.46875,-0.5390625 0,-0.26953121 -0.222656,-0.35156251 -0.375,-0.35156251 -0.292968,0 -0.539062,0.25781251 -0.539062,0.57421876 0,0.45703125 0.492187,0.65625 0.9375,0.65625 0.65625,0 1.007812,-0.69140625 1.042969,-0.75 0.117187,0.36328125 0.480468,0.75 1.078125,0.75 1.019531,0 1.59375,-1.27734376 1.59375,-1.53515626 0,-0.09375 -0.09375,-0.09375 -0.128907,-0.09375 -0.08203,0 -0.105468,0.035156 -0.128906,0.1054688 -0.328125,1.06640621 -0.996094,1.31249996 -1.324219,1.31249996 -0.386718,0 -0.539062,-0.328125 -0.539062,-0.65625 0,-0.22265625 0.05859,-0.44531246 0.164062,-0.87890626 z m 0,0"
         style="fill:#000000;fill-opacity:1;fill-rule:nonzero;stroke:none" />
    </g>
    <path
       id="path54"
       d="M 0,0 H 28.76"
       style="fill:none;stroke:#000000;stroke-width:0.398;stroke-linecap:butt;stroke-linejoin:miter;stroke-miterlimit:10;stroke-dasharray:none;stroke-opacity:1"
       transform="matrix(1.3333333,0,0,-1.3333333,91.7,84.974667)" />
    <path
       id="path55"
       d="m 2.6377344,-3.7151562 h 1.125 c -0.328125,1.4765625 -0.4101563,1.8984375 -0.4101563,2.5664062 0,0.15234375 0,0.421875 0.070312,0.76171875 0.1054688,0.43359375 0.2109375,0.4921875 0.3632813,0.4921875 0.1992187,0 0.4101562,-0.17578125 0.4101562,-0.375 0,-0.0585938 0,-0.0820313 -0.058594,-0.22265625 -0.2929688,-0.7148437 -0.2929688,-1.359375 -0.2929688,-1.640625 0,-0.5273437 0.070312,-1.0664062 0.1757813,-1.5820312 h 1.1367187 c 0.1289063,0 0.4921875,0 0.4921875,-0.3398438 0,-0.234375 -0.2109375,-0.234375 -0.3984375,-0.234375 H 1.9111719 c -0.2109375,0 -0.5976563,0 -1.03125003,0.46875 -0.3515625,0.3867188 -0.609375,0.84375 -0.609375,0.890625 0,0.011719 0,0.1054688 0.1171875,0.1054688 0.0820313,0 0.10546875,-0.046875 0.1640625,-0.1289063 C 1.0322656,-3.7151562 1.6182031,-3.7151562 1.8174219,-3.7151562 h 0.5625 C 2.0635156,-2.508125 1.5244531,-1.3010937 1.1025781,-0.39875 c -0.070312,0.15234375 -0.070312,0.1640625 -0.070312,0.234375 0,0.19921875 0.1523438,0.26953125 0.28125,0.26953125 0.3046875,0 0.3867188,-0.26953125 0.5039063,-0.64453125 0.140625,-0.45703125 0.140625,-0.4804687 0.2695312,-0.9726562 z m 6.7265625,0.703125 c 0.058594,-0.2578125 0.2929687,-1.171875 0.9843751,-1.171875 0.04687,0 0.292969,0 0.503906,0.1289062 -0.28125,0.046875 -0.480469,0.3046875 -0.480469,0.5390625 0,0.1640625 0.105469,0.3515625 0.375,0.3515625 0.222657,0 0.539063,-0.1875 0.539063,-0.5859375 0,-0.515625 -0.585938,-0.65625 -0.925781,-0.65625 -0.5742191,0 -0.9257816,0.5273438 -1.0429691,0.7617188 -0.2578125,-0.65625 -0.7851563,-0.7617188 -1.078125,-0.7617188 -1.0429688,0 -1.6054688,1.2890625 -1.6054688,1.5351563 0,0.1054687 0.1054688,0.1054687 0.1171875,0.1054687 0.082031,0 0.1171875,-0.023437 0.1289063,-0.1171875 0.3398437,-1.0546875 0.9960937,-1.3007812 1.3359375,-1.3007812 0.1875,0 0.5390625,0.09375 0.5390625,0.6679687 0,0.3046875 -0.1640625,0.9726563 -0.5390625,2.3671875 -0.1523438,0.62109375 -0.5039063,1.04296875 -0.9492188,1.04296875 -0.058594,0 -0.28125,0 -0.4921875,-0.12890625 0.2460938,-0.0585938 0.46875,-0.26953125 0.46875,-0.5390625 0,-0.2695312 -0.2226562,-0.3515625 -0.375,-0.3515625 -0.2929687,0 -0.5390625,0.2578125 -0.5390625,0.57421875 0,0.45703125 0.4921875,0.65625 0.9375,0.65625 0.65625,0 1.0078125,-0.69140625 1.0429688,-0.75 0.1171875,0.36328125 0.4804687,0.75 1.078125,0.75 1.0195316,0 1.5937496,-1.27734375 1.5937496,-1.53515625 0,-0.09375 -0.09375,-0.09375 -0.128906,-0.09375 -0.08203,0 -0.105469,0.035156 -0.128906,0.1054688 -0.328125,1.0664062 -0.9960939,1.31249995 -1.3242189,1.31249995 -0.3867187,0 -0.5390625,-0.328125 -0.5390625,-0.65625 0,-0.22265625 0.058594,-0.44531245 0.1640625,-0.87890625 z m 0,0"
       style="fill:#000000;fill-opacity:1;fill-rule:nonzero;stroke:none"
       aria-label="πx"
       transform="matrix(1.3333333,0,0,1.3333333,103.05333,97.406667)" />
    <g
       id="g55"
       aria-label="K→∞"
       transform="matrix(1.3333333,0,0,1.3333333,33.8,96.633333)">
      <path
         id="path56"
         d="m 4.2779297,-3.1996094 c -0.011719,-0.023437 -0.046875,-0.1054687 -0.046875,-0.1054687 0,-0.023437 0.140625,-0.1171875 0.2109375,-0.1640625 0.6328125,-0.46875 1.5,-1.0898438 1.7578125,-1.2539063 0.4101562,-0.2578125 0.703125,-0.421875 1.0546875,-0.4570312 0.070312,-0.011719 0.1757812,-0.011719 0.1757812,-0.1640625 0,-0.046875 -0.046875,-0.09375 -0.1054687,-0.09375 -0.011719,0 -0.234375,0.023437 -0.2929688,0.023437 H 6.7154297 c -0.1289063,0 -0.328125,0 -0.3984375,-0.011719 -0.058594,0 -0.375,-0.011719 -0.421875,-0.011719 -0.058594,0 -0.1757813,0 -0.1757813,0.140625 0,0.011719 0.011719,0.1054687 0.1289063,0.1171875 0.070312,0.011719 0.1875,0.023437 0.1875,0.1171875 0,0.1289062 -0.1523438,0.2695312 -0.1757813,0.2695312 l -0.058594,0.058594 c -0.023437,0.023437 -0.058594,0.058594 -0.09375,0.082031 l -3.2578125,2.3554688 0.6328125,-2.5195313 c 0.070312,-0.2929687 0.09375,-0.3632812 0.6679687,-0.3632812 0.1640625,0 0.2578125,0 0.2578125,-0.1523438 0,-0.011719 -0.011719,-0.1054687 -0.140625,-0.1054687 -0.140625,0 -0.3398437,0.011719 -0.4921875,0.023437 H 2.8716797 c -0.7617188,0 -0.9609375,-0.023437 -1.0195313,-0.023437 -0.046875,0 -0.1640625,0 -0.1640625,0.140625 0,0.1171875 0.09375,0.1171875 0.234375,0.1171875 0.2578125,0 0.4921875,0 0.4921875,0.1289062 0,0.035156 -0.011719,0.035156 -0.035156,0.140625 l -1.0664063,4.27734378 c -0.070312,0.3046875 -0.082031,0.375 -0.67968746,0.375 -0.15234375,0 -0.24609375,0 -0.24609375,0.140625 0,0.03515625 0.0234375,0.117187495 0.12890625,0.117187495 0.15234375,0 0.33984375,-0.011718745 0.49218746,-0.023437495 h 1.03125 c 0.1289063,0.01171875 0.3867188,0.023437495 0.515625,0.023437495 0.035156,0 0.1523438,0 0.1523438,-0.140624995 0,-0.1171875 -0.09375,-0.1171875 -0.234375,-0.1171875 -0.046875,0 -0.1640625,0 -0.2929688,-0.0234375 -0.1757812,-0.0117188 -0.1992187,-0.0351563 -0.1992187,-0.10546875 0,-0.046875 0.058594,-0.24609375 0.082031,-0.375 l 0.3046875,-1.20703123 1.2773438,-0.9257813 0.9609375,1.96875003 c 0.035156,0.0703125 0.1171875,0.24609375 0.1523437,0.31640625 0.046875,0.0703125 0.046875,0.09375 0.046875,0.12890625 0,0.2109375 -0.2929687,0.22265625 -0.3867187,0.22265625 -0.070312,0 -0.1875,0 -0.1875,0.140625 0,0.0117188 0.011719,0.117187495 0.140625,0.117187495 0.070312,0 0.375,-0.011718745 0.4453125,-0.023437495 h 0.46875 c 0.7265625,0 0.703125,0.023437495 0.8085937,0.023437495 0.035156,0 0.1523438,0 0.1523438,-0.152343745 0,-0.10546875 -0.1054688,-0.10546875 -0.1523438,-0.10546875 -0.3164062,-0.0117188 -0.421875,-0.0703125 -0.5507812,-0.33984375 z m 0,0"
         style="fill:#9b9b9b;fill-opacity:1;fill-rule:nonzero;stroke:none" />
      <path
         id="path57"
         d="m 17.019141,-1.8050781 c -0.269532,0.1992187 -0.527344,0.4453125 -0.714844,0.7382812 -0.339844,0.51562503 -0.433594,1.03125003 -0.433594,1.05468753 0,0.12890625 0.117188,0.12890625 0.1875,0.12890625 0.09375,0 0.164063,0 0.1875,-0.10546875 0.199219,-0.890625 0.714844,-1.55859373 1.675781,-1.88671873 0.07031,-0.011719 0.128907,-0.035156 0.128907,-0.1171875 0,-0.082031 -0.07031,-0.1054688 -0.105469,-0.1171875 -1.054688,-0.3515625 -1.523438,-1.1015625 -1.6875,-1.8046875 -0.03516,-0.1523438 -0.03516,-0.1875 -0.199219,-0.1875 -0.07031,0 -0.1875,0 -0.1875,0.1289062 0,0.011719 0.08203,0.5390625 0.433594,1.0664063 0.234375,0.328125 0.515625,0.5742187 0.714844,0.7265625 h -6.1875 c -0.128907,0 -0.304688,0 -0.304688,0.1875 0,0.1875 0.175781,0.1875 0.304688,0.1875 z m 8.159179,-0.375 c -0.46875,-0.5742188 -0.527343,-0.6328125 -0.808593,-0.84375 -0.363282,-0.28125 -0.855469,-0.4921875 -1.382813,-0.4921875 -0.972656,0 -1.640625,0.8554687 -1.640625,1.8046875 0,0.92578123 0.667969,1.79296873 1.605469,1.79296873 0.65625,0 1.429687,-0.33984375 2.085937,-1.33593753 0.46875,0.57421878 0.539063,0.63281253 0.808594,0.84375003 0.375,0.26953125 0.855469,0.4921875 1.382813,0.4921875 0.972656,0 1.640625,-0.85546875 1.640625,-1.80468753 0,-0.9257812 -0.65625,-1.7929687 -1.605469,-1.7929687 -0.65625,0 -1.417969,0.3398437 -2.085938,1.3359375 z m 0.246094,0.2929687 c 0.292969,-0.5039062 0.949219,-1.3242187 1.886719,-1.3242187 0.855469,0 1.335937,0.7734375 1.335937,1.4882812 0,0.77343753 -0.585937,1.37109378 -1.289062,1.37109378 -0.703125,0 -1.171875,-0.5859375 -1.933594,-1.53515628 z m -0.621094,0.3398438 c -0.304687,0.5039062 -0.960937,1.32421873 -1.898437,1.32421873 -0.855469,0 -1.335938,-0.7734375 -1.335938,-1.48828123 0,-0.7734375 0.585938,-1.3710938 1.289063,-1.3710938 0.703125,0 1.171875,0.5742188 1.945312,1.5351563 z m 0,0"
         style="fill:#9b9b9b;fill-opacity:1;fill-rule:nonzero;stroke:none" />
    </g>
  </g>
</svg>
