<?xml version="1.0" encoding="UTF-8" standalone="no"?>
<!-- Created with Inkscape (http://www.inkscape.org/) -->

<svg
   version="1.1"
   id="svg1"
   width="429.17334"
   height="156.12"
   viewBox="0 0 429.17334 156.12"
   sodipodi:docname="Abel.pdf"
   xmlns:inkscape="http://www.inkscape.org/namespaces/inkscape"
   xmlns:sodipodi="http://sodipodi.sourceforge.net/DTD/sodipodi-0.dtd"
   xmlns="http://www.w3.org/2000/svg"
   xmlns:svg="http://www.w3.org/2000/svg">
  <defs
     id="defs1" />
  <sodipodi:namedview
     id="namedview1"
     pagecolor="#ffffff"
     bordercolor="#000000"
     borderopacity="0.25"
     inkscape:showpageshadow="2"
     inkscape:pageopacity="0.0"
     inkscape:pagecheckerboard="0"
     inkscape:deskcolor="#d1d1d1">
    <inkscape:page
       x="0"
       y="0"
       inkscape:label="1"
       id="page1"
       width="429.17334"
       height="156.12"
       margin="0"
       bleed="0" />
  </sodipodi:namedview>
  <g
     id="g1"
     inkscape:groupmode="layer"
     inkscape:label="1">
    <path
       id="path1"
       d="m 249.69266,-116.47392 c 0,32.12449 26.04524,58.16972 58.16972,58.16972 32.1245,0 58.16972,-26.04523 58.16972,-58.16972 0,-32.12448 -26.04522,-58.16971 -58.16972,-58.16971 -32.12448,0 -58.16972,26.04523 -58.16972,58.16971 z"
       style="fill:#7ed321;fill-opacity:0.2;fill-rule:nonzero;stroke:#000000;stroke-width:0.74721;stroke-linecap:butt;stroke-linejoin:miter;stroke-miterlimit:10;stroke-dasharray:0.83687, 2.50064;stroke-dashoffset:0;stroke-opacity:1"
       transform="matrix(1.3333333,0,0,-1.3333333,-59.361333,-77.233333)" />
    <path
       id="path2"
       d="m 98.72038,-116.47392 c 0,1.48619 1.20374,2.68994 2.68993,2.68994 1.48619,0 2.68992,-1.20375 2.68992,-2.68994 0,-1.48619 -1.20373,-2.68993 -2.68992,-2.68993 -1.48619,0 -2.68993,1.20374 -2.68993,2.68993 z"
       style="fill:#000000;fill-opacity:1;fill-rule:nonzero;stroke:#000000;stroke-width:0.74721;stroke-linecap:butt;stroke-linejoin:miter;stroke-miterlimit:10;stroke-dasharray:none;stroke-opacity:1"
       transform="matrix(1.3333333,0,0,-1.3333333,-59.361333,-77.233333)" />
    <path
       id="path3"
       d="m 56.57591,-77.46994 c 0,1.48619 1.20375,2.68993 2.68994,2.68993 1.48618,0 2.68993,-1.20374 2.68993,-2.68993 0,-1.48619 -1.20375,-2.68993 -2.68993,-2.68993 -1.48619,0 -2.68994,1.20374 -2.68994,2.68993 z"
       style="fill:#000000;fill-opacity:1;fill-rule:nonzero;stroke:#000000;stroke-width:0.74721;stroke-linecap:butt;stroke-linejoin:miter;stroke-miterlimit:10;stroke-dasharray:none;stroke-opacity:1"
       transform="matrix(1.3333333,0,0,-1.3333333,-59.361333,-77.233333)" />
    <path
       id="path4"
       d="m 141.75925,-115.80142 h 64.08084"
       style="fill:none;stroke:#000000;stroke-width:1.49442;stroke-linecap:butt;stroke-linejoin:miter;stroke-miterlimit:10;stroke-dasharray:none;stroke-opacity:1"
       transform="matrix(1.3333333,0,0,-1.3333333,-59.361333,-77.233333)" />
    <path
       id="path5"
       d="m 200.7225,-119.55386 7.80751,3.75244 -7.80751,3.75244 z"
       style="fill:#000000;fill-opacity:1;fill-rule:nonzero;stroke:#000000;stroke-width:0.0797;stroke-linecap:butt;stroke-linejoin:miter;stroke-miterlimit:10;stroke-dasharray:none;stroke-opacity:0"
       transform="matrix(1.3333333,0,0,-1.3333333,-59.361333,-77.233333)" />
    <path
       id="path6"
       d="m 305.17245,-116.47392 c 0,1.48619 1.20374,2.68994 2.68993,2.68994 1.48618,0 2.68994,-1.20375 2.68994,-2.68994 0,-1.48619 -1.20376,-2.68993 -2.68994,-2.68993 -1.48619,0 -2.68993,1.20374 -2.68993,2.68993 z"
       style="fill:#000000;fill-opacity:1;fill-rule:nonzero;stroke:#000000;stroke-width:0.74721;stroke-linecap:butt;stroke-linejoin:miter;stroke-miterlimit:10;stroke-dasharray:none;stroke-opacity:1"
       transform="matrix(1.3333333,0,0,-1.3333333,-59.361333,-77.233333)" />
    <path
       id="path7"
       d="m 263.028,-77.46994 c 0,1.48619 1.20372,2.68993 2.68993,2.68993 1.48617,0 2.68992,-1.20374 2.68992,-2.68993 0,-1.48619 -1.20375,-2.68993 -2.68992,-2.68993 -1.48621,0 -2.68993,1.20374 -2.68993,2.68993 z"
       style="fill:#000000;fill-opacity:1;fill-rule:nonzero;stroke:#000000;stroke-width:0.74721;stroke-linecap:butt;stroke-linejoin:miter;stroke-miterlimit:10;stroke-dasharray:none;stroke-opacity:1"
       transform="matrix(1.3333333,0,0,-1.3333333,-59.361333,-77.233333)" />
    <path
       id="path8"
       d="m 3.9145313,-3.9721172 c -0.1875,-0.3867187 -0.4921875,-0.6679687 -0.9609375,-0.6679687 -1.2304688,0 -2.53125005,1.546875 -2.53125005,3.0703125 0,0.99609371 0.57421875,1.68749996 1.39453125,1.68749996 0.2109375,0 0.7382813,-0.046875 1.359375,-0.78515625 0.09375,0.43359375 0.4570313,0.78515625 0.9609375,0.78515625 0.3632813,0 0.609375,-0.24609375 0.7734375,-0.57421875 0.1875,-0.38671875 0.3164063,-1.01953121 0.3164063,-1.04296871 0,-0.1054688 -0.09375,-0.1054688 -0.1289063,-0.1054688 -0.1054687,0 -0.1054687,0.035156 -0.140625,0.1875 -0.1757812,0.67968751 -0.3632812,1.30078126 -0.796875,1.30078126 -0.28125,0 -0.3164062,-0.26953125 -0.3164062,-0.48046875 0,-0.234375 0.023437,-0.31640625 0.140625,-0.77343751 C 4.0903125,-1.8158672 4.11375,-1.9213359 4.2075,-2.3197734 l 0.3867188,-1.4648438 c 0.070312,-0.3046875 0.070312,-0.3164062 0.070312,-0.3632812 0,-0.1757813 -0.1289063,-0.28125 -0.3046875,-0.28125 -0.2578125,0 -0.4101563,0.234375 -0.445312,0.4570312 z m -0.6796875,2.71875 c -0.058594,0.1992188 -0.058594,0.2109375 -0.2109375,0.39843751 -0.4570313,0.57421875 -0.890625,0.73828125 -1.1835938,0.73828125 -0.5273437,0 -0.6796875,-0.57421875 -0.6796875,-0.98437496 0,-0.5273438 0.3398438,-1.8164063 0.5859375,-2.296875 0.328125,-0.6210938 0.796875,-1.0078125 1.21875,-1.0078125 0.6796875,0 0.8203125,0.8554687 0.8203125,0.9257812 0,0.058594 -0.011719,0.1171875 -0.023437,0.1757813 z m 0,0"
       style="fill:#000000;fill-opacity:1;fill-rule:nonzero;stroke:none"
       aria-label="a"
       transform="matrix(1.3333333,0,0,1.3333333,79.14,88.636)" />
    <g
       id="g8"
       aria-label="z&#10;0"
       transform="matrix(1.3333333,0,0,1.3333333,22.948,36.630667)">
      <path
         id="path9"
         d="M 1.3954453,-0.86850781 C 1.9696641,-1.4778828 2.2743516,-1.7474141 2.6493516,-2.0755391 c 0,0 0.6445312,-0.5625 1.03125,-0.9375 0.9960937,-0.9726562 1.21875,-1.4765625 1.21875,-1.5234375 0,-0.1054687 -0.09375,-0.1054687 -0.1054688,-0.1054687 -0.082031,0 -0.1054687,0.023437 -0.1640625,0.1171875 -0.3164062,0.5039062 -0.5390625,0.6679687 -0.7851562,0.6679687 -0.2578125,0 -0.375,-0.1523437 -0.5390625,-0.3398437 -0.1992188,-0.234375 -0.375,-0.4453125 -0.7265625,-0.4453125 -0.7851563,0 -1.265625,0.9726562 -1.265625,1.1953125 0,0.058594 0.035156,0.1171875 0.1289062,0.1171875 0.09375,0 0.1171875,-0.058594 0.1289063,-0.1171875 0.1992187,-0.4804688 0.8085937,-0.4921875 0.9023437,-0.4921875 0.2109375,0 0.4101563,0.070312 0.65625,0.1523437 0.421875,0.1640625 0.5390625,0.1640625 0.8085938,0.1640625 -0.375,0.4453125 -1.265625,1.2070313 -1.4648438,1.3710938 l -0.9375,0.890625 c -0.71484374,0.70312499 -1.07812499,1.30078124 -1.07812499,1.37109374 0,0.10546875 0.09375,0.10546875 0.1171875,0.10546875 0.0820313,0 0.10546875,-0.0234375 0.17578125,-0.140625 0.234375,-0.36328125 0.55078124,-0.64453125 0.89062504,-0.64453125 0.234375,0 0.3398437,0.09375 0.609375,0.3984375 0.1757812,0.22265625 0.3632812,0.38671875 0.6679687,0.38671875 1.0429688,0 1.6523438,-1.33593749 1.6523438,-1.61718749 0,-0.058594 -0.046875,-0.1054688 -0.1289063,-0.1054688 -0.09375,0 -0.1171875,0.058594 -0.1523437,0.140625 -0.234375,0.67968754 -0.9023438,0.87890629 -1.2539063,0.87890629 -0.2109375,0 -0.3984375,-0.0703125 -0.6210937,-0.140625 -0.3515625,-0.12890625 -0.515625,-0.17578125 -0.7382813,-0.17578125 -0.011719,0 -0.1875,0 -0.28125,0.0351563 z m 0,0"
         style="fill:#000000;fill-opacity:1;fill-rule:nonzero;stroke:none" />
      <path
         id="path10"
         d="m 8.4794297,-0.65171094 c 0,-0.76171876 -0.09375,-1.31249996 -0.4101563,-1.80468746 -0.2226562,-0.3164063 -0.6445312,-0.5976563 -1.2070312,-0.5976563 -1.6171875,0 -1.6171875,1.8984375 -1.6171875,2.40234376 0,0.50390625 0,2.36718754 1.6171875,2.36718754 1.6171875,0 1.6171875,-1.86328129 1.6171875,-2.36718754 z M 6.8622422,1.5162578 c -0.3164063,0 -0.75,-0.1875 -0.890625,-0.76171874 -0.09375,-0.41015625 -0.09375,-0.984375 -0.09375,-1.5 0,-0.50390626 0,-1.03124996 0.1054687,-1.41796876 0.1523438,-0.5507812 0.5976563,-0.6914062 0.8789063,-0.6914062 0.375,0 0.7382812,0.2226562 0.8671875,0.6328125 0.1054687,0.375 0.1171875,0.8789062 0.1171875,1.47656246 0,0.515625 0,1.04296875 -0.09375,1.4765625 C 7.6122422,1.3639141 7.1434922,1.5162578 6.8622422,1.5162578 Z m 0,0"
         style="fill:#000000;fill-opacity:1;fill-rule:nonzero;stroke:none" />
    </g>
    <path
       id="path11"
       d="m 3.9146797,-3.9721172 c -0.1875,-0.3867187 -0.4921875,-0.6679687 -0.9609375,-0.6679687 -1.2304688,0 -2.53125001,1.546875 -2.53125001,3.0703125 0,0.99609371 0.57421875,1.68749996 1.39453121,1.68749996 0.2109375,0 0.7382813,-0.046875 1.359375,-0.78515625 0.09375,0.43359375 0.4570313,0.78515625 0.9609375,0.78515625 0.3632813,0 0.609375,-0.24609375 0.7734375,-0.57421875 0.1875,-0.38671875 0.3164063,-1.01953121 0.3164063,-1.04296871 0,-0.1054688 -0.09375,-0.1054688 -0.1289063,-0.1054688 -0.1054687,0 -0.1054687,0.035156 -0.140625,0.1875 -0.1757812,0.67968751 -0.3632812,1.30078126 -0.796875,1.30078126 -0.28125,0 -0.3164062,-0.26953125 -0.3164062,-0.48046875 0,-0.234375 0.023437,-0.31640625 0.140625,-0.77343751 0.1054687,-0.4453125 0.1289062,-0.5507812 0.2226562,-0.9492187 l 0.3867188,-1.4648438 c 0.070312,-0.3046875 0.070312,-0.3164062 0.070312,-0.3632812 0,-0.1757813 -0.1289063,-0.28125 -0.3046875,-0.28125 -0.2578125,0 -0.4101563,0.234375 -0.445312,0.4570312 z m -0.6796875,2.71875 c -0.058594,0.1992188 -0.058594,0.2109375 -0.2109375,0.39843751 -0.4570313,0.57421875 -0.890625,0.73828125 -1.1835938,0.73828125 -0.5273437,0 -0.6796875,-0.57421875 -0.6796875,-0.98437496 0,-0.5273438 0.3398438,-1.8164063 0.5859375,-2.296875 0.328125,-0.6210938 0.796875,-1.0078125 1.21875,-1.0078125 0.6796875,0 0.8203125,0.8554687 0.8203125,0.9257812 0,0.058594 -0.011719,0.1171875 -0.023437,0.1757813 z m 0,0"
       style="fill:#000000;fill-opacity:1;fill-rule:nonzero;stroke:none"
       aria-label="a"
       transform="matrix(1.3333333,0,0,1.3333333,354.40933,88.636)" />
    <g
       id="g11"
       aria-label="z&#10;0"
       transform="matrix(1.3333333,0,0,1.3333333,298.21733,36.630667)">
      <path
         id="path12"
         d="M 1.3955937,-0.86850781 C 1.9698125,-1.4778828 2.2745,-1.7474141 2.6495,-2.0755391 c 0,0 0.6445312,-0.5625 1.03125,-0.9375 0.9960937,-0.9726562 1.21875,-1.4765625 1.21875,-1.5234375 0,-0.1054687 -0.09375,-0.1054687 -0.1054688,-0.1054687 -0.082031,0 -0.1054687,0.023437 -0.1640625,0.1171875 -0.3164062,0.5039062 -0.5390625,0.6679687 -0.7851562,0.6679687 -0.2578125,0 -0.375,-0.1523437 -0.5390625,-0.3398437 -0.1992188,-0.234375 -0.375,-0.4453125 -0.7265625,-0.4453125 -0.7851563,0 -1.265625,0.9726562 -1.265625,1.1953125 0,0.058594 0.035156,0.1171875 0.1289062,0.1171875 0.09375,0 0.1171875,-0.058594 0.1289063,-0.1171875 0.1992187,-0.4804688 0.8085937,-0.4921875 0.9023437,-0.4921875 0.2109375,0 0.4101563,0.070312 0.65625,0.1523437 0.421875,0.1640625 0.5390625,0.1640625 0.8085938,0.1640625 -0.375,0.4453125 -1.265625,1.2070313 -1.4648438,1.3710938 l -0.9375,0.890625 c -0.7148437,0.70312499 -1.07812495,1.30078124 -1.07812495,1.37109374 0,0.10546875 0.09375,0.10546875 0.1171875,0.10546875 0.0820313,0 0.10546875,-0.0234375 0.17578125,-0.140625 0.234375,-0.36328125 0.5507812,-0.64453125 0.890625,-0.64453125 0.234375,0 0.3398437,0.09375 0.609375,0.3984375 0.1757812,0.22265625 0.3632812,0.38671875 0.6679687,0.38671875 1.0429688,0 1.6523438,-1.33593749 1.6523438,-1.61718749 0,-0.058594 -0.046875,-0.1054688 -0.1289063,-0.1054688 -0.09375,0 -0.1171875,0.058594 -0.1523437,0.140625 -0.234375,0.67968754 -0.9023438,0.87890629 -1.2539063,0.87890629 -0.2109375,0 -0.3984375,-0.0703125 -0.6210937,-0.140625 C 2.0635625,-0.85678906 1.8995,-0.90366406 1.6768437,-0.90366406 c -0.011719,0 -0.1875,0 -0.28125,0.0351563 z m 0,0"
         style="fill:#000000;fill-opacity:1;fill-rule:nonzero;stroke:none" />
      <path
         id="path13"
         d="m 8.4795781,-0.65171094 c 0,-0.76171876 -0.09375,-1.31249996 -0.4101562,-1.80468746 -0.2226563,-0.3164063 -0.6445313,-0.5976563 -1.2070313,-0.5976563 -1.6171875,0 -1.6171875,1.8984375 -1.6171875,2.40234376 0,0.50390625 0,2.36718754 1.6171875,2.36718754 1.6171875,0 1.6171875,-1.86328129 1.6171875,-2.36718754 z M 6.8623906,1.5162578 c -0.3164062,0 -0.75,-0.1875 -0.890625,-0.76171874 -0.09375,-0.41015625 -0.09375,-0.984375 -0.09375,-1.5 0,-0.50390626 0,-1.03124996 0.1054688,-1.41796876 0.1523437,-0.5507812 0.5976562,-0.6914062 0.8789062,-0.6914062 0.375,0 0.7382813,0.2226562 0.8671875,0.6328125 0.1054688,0.375 0.1171875,0.8789062 0.1171875,1.47656246 0,0.515625 0,1.04296875 -0.09375,1.4765625 C 7.6123906,1.3639141 7.1436406,1.5162578 6.8623906,1.5162578 Z m 0,0"
         style="fill:#000000;fill-opacity:1;fill-rule:nonzero;stroke:none" />
    </g>
    <text
       id="text13"
       xml:space="preserve"
       transform="matrix(1.3333333,0,0,1.3333333,5.66,15.881333)"><tspan
         id="tspan13"
         style="font-variant:normal;font-weight:300;font-size:10.5px;font-family:STSong;writing-mode:lr-tb;fill:#000000;fill-opacity:1;fill-rule:nonzero;stroke:none"
         x="0"
         y="0">收敛</tspan></text>
    <text
       id="text14"
       xml:space="preserve"
       transform="matrix(1.3333333,0,0,1.3333333,309.75733,122.59333)"><tspan
         id="tspan14"
         style="font-variant:normal;font-weight:300;font-size:10.5px;font-family:STSong;writing-mode:lr-tb;fill:#000000;fill-opacity:1;fill-rule:nonzero;stroke:none"
         x="0"
         y="0">绝对内闭一致</tspan></text>
  </g>
</svg>
