<?xml version="1.0" encoding="UTF-8" standalone="no"?>
<!-- Created with Inkscape (http://www.inkscape.org/) -->

<svg
   version="1.1"
   id="svg1"
   width="260.21332"
   height="260.21332"
   viewBox="0 0 260.21332 260.21332"
   sodipodi:docname="convergence-annulus-diagram.pdf"
   xmlns:inkscape="http://www.inkscape.org/namespaces/inkscape"
   xmlns:sodipodi="http://sodipodi.sourceforge.net/DTD/sodipodi-0.dtd"
   xmlns="http://www.w3.org/2000/svg"
   xmlns:svg="http://www.w3.org/2000/svg">
  <defs
     id="defs1" />
  <sodipodi:namedview
     id="namedview1"
     pagecolor="#ffffff"
     bordercolor="#000000"
     borderopacity="0.25"
     inkscape:showpageshadow="2"
     inkscape:pageopacity="0.0"
     inkscape:pagecheckerboard="0"
     inkscape:deskcolor="#d1d1d1">
    <inkscape:page
       x="0"
       y="0"
       inkscape:label="1"
       id="page1"
       width="260.21332"
       height="260.21332"
       margin="0"
       bleed="0" />
  </sodipodi:namedview>
  <g
     id="g1"
     inkscape:groupmode="layer"
     inkscape:label="1">
    <path
       id="path1"
       d="m 38.76526,-12.70256 h 174.4886 V -187.19115 H 38.76526 Z"
       style="fill:#b8e986;fill-opacity:0.5;fill-rule:nonzero;stroke:#000000;stroke-width:0.74721;stroke-linecap:butt;stroke-linejoin:miter;stroke-miterlimit:10;stroke-dasharray:none;stroke-opacity:1"
       transform="matrix(1.3333333,0,0,-1.3333333,-37.905333,-3.1533333)" />
    <path
       id="path2"
       d="m 53.49428,-99.94685 c 0,40.05047 32.4648,72.51529 72.51527,72.51529 40.05048,0 72.51528,-32.46482 72.51528,-72.51529 0,-40.05048 -32.4648,-72.51528 -72.51528,-72.51528 -40.05047,0 -72.51527,32.4648 -72.51527,72.51528 z"
       style="fill:#ffffff;fill-opacity:1;fill-rule:nonzero;stroke:#000000;stroke-width:0.74721;stroke-linecap:butt;stroke-linejoin:miter;stroke-miterlimit:10;stroke-dasharray:0.83687, 2.50064;stroke-dashoffset:0;stroke-opacity:1"
       transform="matrix(1.3333333,0,0,-1.3333333,-37.905333,-3.1533333)" />
    <path
       id="path3"
       d="m 80.95575,-99.94685 c 0,24.88508 20.1687,45.05378 45.0538,45.05378 24.88512,0 45.0538,-20.1687 45.0538,-45.05378 0,-24.8851 -20.16868,-45.05382 -45.0538,-45.05382 -24.8851,0 -45.0538,20.16872 -45.0538,45.05382 z"
       style="fill:#7ed321;fill-opacity:0.2;fill-rule:nonzero;stroke:#000000;stroke-width:0.74721;stroke-linecap:butt;stroke-linejoin:miter;stroke-miterlimit:10;stroke-dasharray:0.83687, 2.50064;stroke-dashoffset:0;stroke-opacity:1"
       transform="matrix(1.3333333,0,0,-1.3333333,-37.905333,-3.1533333)" />
    <path
       id="path4"
       d="m 123.61848,-99.94685 c 0,1.32105 1.07001,2.39106 2.39107,2.39106 1.32108,0 2.39108,-1.07001 2.39108,-2.39106 0,-1.32108 -1.07,-2.39109 -2.39108,-2.39109 -1.32106,0 -2.39107,1.07001 -2.39107,2.39109 z"
       style="fill:#000000;fill-opacity:1;fill-rule:nonzero;stroke:#000000;stroke-width:0.74721;stroke-linecap:butt;stroke-linejoin:miter;stroke-miterlimit:10;stroke-dasharray:none;stroke-opacity:1"
       transform="matrix(1.3333333,0,0,-1.3333333,-37.905333,-3.1533333)" />
    <path
       id="path5"
       d="m 126.00955,-99.94685 36.69702,26.00889"
       style="fill:none;stroke:#000000;stroke-width:0.74721;stroke-linecap:butt;stroke-linejoin:miter;stroke-miterlimit:10;stroke-dasharray:4.48325, 4.48325;stroke-dashoffset:0;stroke-opacity:1"
       transform="matrix(1.3333333,0,0,-1.3333333,-37.905333,-3.1533333)" />
    <path
       id="path6"
       d="M 126.00955,-99.94685 75.0259,-49.13057"
       style="fill:none;stroke:#000000;stroke-width:0.74721;stroke-linecap:butt;stroke-linejoin:miter;stroke-miterlimit:10;stroke-dasharray:4.48325, 4.48325;stroke-dashoffset:0;stroke-opacity:1"
       transform="matrix(1.3333333,0,0,-1.3333333,-37.905333,-3.1533333)" />
    <path
       id="path7"
       d="m 3.7143281,-3.7603516 c -0.1757812,-0.375 -0.46875,-0.6445312 -0.9140625,-0.6445312 -1.171875,0 -2.40234373,1.4648437 -2.40234373,2.9179687 0,0.93750004 0.55078125,1.59375004 1.32421873,1.59375004 0.1992188,0 0.703125,-0.03515625 1.3007813,-0.73828125 0.070312,0.41015625 0.421875,0.73828125 0.9023437,0.73828125 0.3515625,0 0.5742188,-0.22265625 0.7382813,-0.5390625 0.1640625,-0.36328125 0.2929687,-0.97265624 0.2929687,-0.99609374 0,-0.09375 -0.082031,-0.09375 -0.1171875,-0.09375 -0.09375,0 -0.1054687,0.035156 -0.140625,0.1757812 -0.1640625,0.64453129 -0.3515625,1.24218754 -0.75,1.24218754 -0.2695312,0 -0.3046875,-0.2578125 -0.3046875,-0.45703125 0,-0.22265625 0.023437,-0.3046875 0.1289063,-0.73828129 0.1171875,-0.421875 0.1289062,-0.5273437 0.2226562,-0.9023437 l 0.3515625,-1.3945313 c 0.070312,-0.28125 0.070312,-0.2929687 0.070312,-0.3398437 0,-0.1640625 -0.1171875,-0.2695313 -0.28125,-0.2695313 -0.2460937,0 -0.3867187,0.2226563 -0.4218745,0.4453125 z m -0.6445312,2.578125 c -0.046875,0.1757813 -0.046875,0.19921879 -0.1992188,0.36328129 -0.4453125,0.55078125 -0.84375,0.71484375 -1.125,0.71484375 -0.5039062,0 -0.6445312,-0.55078125 -0.6445312,-0.93750004 0,-0.5039062 0.328125,-1.7226562 0.5507812,-2.1796875 0.3046875,-0.5976562 0.7617188,-0.9609375 1.1601563,-0.9609375 0.6445312,0 0.7851562,0.8203125 0.7851562,0.8789063 0,0.058594 -0.023437,0.1171875 -0.035156,0.1640625 z m 0,0"
       style="fill:#000000;fill-opacity:1;fill-rule:nonzero;stroke:none"
       aria-label="a"
       transform="matrix(1.3333333,0,0,1.3333333,133.196,140.03333)" />
    <g
       id="g7"
       aria-label="R&#10;1"
       transform="matrix(1.3333333,0,0,1.3333333,157.656,126.05467)">
      <path
         id="path8"
         d="m 3.7384687,-6.1171719 c 0.058594,-0.234375 0.082031,-0.3398437 0.28125,-0.3632812 0.082031,-0.011719 0.3984375,-0.011719 0.5976563,-0.011719 0.7148437,0 1.8164062,0 1.8164062,0.984375 0,0.3398438 -0.1523437,1.0195313 -0.5507812,1.4179688 -0.2578125,0.2578125 -0.7851563,0.5742187 -1.6757813,0.5742187 H 3.0939375 Z m 1.4296875,2.7304688 c 1.0078125,-0.2226563 2.1914063,-0.9140625 2.1914063,-1.921875 0,-0.8554688 -0.890625,-1.5 -2.203125,-1.5 H 2.3205 c -0.1992188,0 -0.2929688,0 -0.2929688,0.1992187 0,0.1171875 0.09375,0.1171875 0.28125,0.1171875 0.023437,0 0.2109375,0 0.3867188,0.011719 0.1757812,0.023437 0.2578125,0.035156 0.2578125,0.1640625 0,0.035156 0,0.070312 -0.035156,0.1875 L 1.582219,-0.77342167 c -0.09375,0.38671875 -0.1171875,0.46875 -0.9023437,0.46875 -0.17578125,0 -0.26953125,0 -0.26953125,0.19921875 0,0.105468745 0.1171875,0.105468745 0.140625,0.105468745 0.28125,0 0.97265625,-0.035156245 1.25390625,-0.035156245 0.28125,0 0.984375,0.035156245 1.265625,0.035156245 0.082031,0 0.1992187,0 0.1992187,-0.199218745 0,-0.10546875 -0.09375,-0.10546875 -0.28125,-0.10546875 -0.3632812,0 -0.6445312,0 -0.6445312,-0.1875 0,-0.0585937 0.011719,-0.10546875 0.023437,-0.1640625 l 0.65625,-2.63671873 h 1.1953125 c 0.9023437,0 1.078125,0.5507812 1.078125,0.9023437 0,0.1523438 -0.082031,0.4570313 -0.140625,0.6914063 -0.070312,0.2695312 -0.1523438,0.6445312 -0.1523438,0.84374998 0,1.078125 1.1953125,1.078125 1.3242188,1.078125 0.84375,0 1.1953125,-1.0078125 1.1953125,-1.1484375 0,-0.11718748 -0.1171875,-0.11718748 -0.1171875,-0.11718748 -0.09375,0 -0.1171875,0.0703125 -0.1289063,0.14062498 C 7.0197187,-0.16404687 6.5978437,1.5625e-5 6.3634687,1.5625e-5 c -0.328125,0 -0.3984375,-0.222656245 -0.3984375,-0.609374995 0,-0.3046875 0.058594,-0.82031253 0.1054688,-1.13671873 0.011719,-0.140625 0.035156,-0.328125 0.035156,-0.46875 0,-0.7617188 -0.6679687,-1.078125 -0.9374998,-1.171875 z m 0,0"
         style="fill:#000000;fill-opacity:1;fill-rule:nonzero;stroke:none" />
      <path
         id="path9"
         d="m 9.8966719,-2.9355312 c 0,-0.1875 -0.011719,-0.1992188 -0.2109375,-0.1992188 -0.4453125,0.4335938 -1.078125,0.4453125 -1.359375,0.4453125 v 0.2460938 c 0.1640625,0 0.6210937,0 1.0078125,-0.1875 v 3.5507812 c 0,0.234375 0,0.328125 -0.6914063,0.328125 H 8.3732344 v 0.2460938 c 0.1289062,-0.011719 0.984375,-0.023437 1.2421875,-0.023437 0.2109375,0 1.0898441,0.011719 1.2421871,0.023437 V 1.2480625 h -0.257812 c -0.7031251,0 -0.7031251,-0.09375 -0.7031251,-0.328125 z m 0,0"
         style="fill:#000000;fill-opacity:1;fill-rule:nonzero;stroke:none" />
    </g>
    <g
       id="g9"
       aria-label="R&#10;2"
       transform="matrix(1.3333333,0,0,1.3333333,99.210667,90.038667)">
      <path
         id="path10"
         d="m 3.7384844,-6.1168906 c 0.058594,-0.234375 0.082031,-0.3398438 0.28125,-0.3632813 0.082031,-0.011719 0.3984375,-0.011719 0.5976562,-0.011719 0.7148438,0 1.8164063,0 1.8164063,0.984375 0,0.3398437 -0.1523438,1.0195312 -0.5507813,1.4179687 -0.2578125,0.2578125 -0.7851562,0.5742188 -1.6757812,0.5742188 H 3.0939531 Z m 1.4296875,2.7304687 c 1.0078125,-0.2226562 2.1914062,-0.9140625 2.1914062,-1.921875 0,-0.8554687 -0.890625,-1.5 -2.203125,-1.5 H 2.3205156 c -0.1992187,0 -0.2929687,0 -0.2929687,0.1992188 0,0.1171875 0.09375,0.1171875 0.28125,0.1171875 0.023437,0 0.2109375,0 0.3867187,0.011719 0.1757813,0.023437 0.2578125,0.035156 0.2578125,0.1640625 0,0.035156 0,0.070312 -0.035156,0.1875 l -1.3359375,5.35546878 c -0.09375,0.38671875 -0.1171875,0.46875 -0.90234378,0.46875 -0.17578125,0 -0.26953125,0 -0.26953125,0.19921875 0,0.105468745 0.1171875,0.105468745 0.140625,0.105468745 0.28125,0 0.97265623,-0.035156245 1.25390623,-0.035156245 0.28125,0 0.984375,0.035156245 1.265625,0.035156245 0.082031,0 0.1992188,0 0.1992188,-0.199218745 0,-0.10546875 -0.09375,-0.10546875 -0.28125,-0.10546875 -0.3632813,0 -0.6445313,0 -0.6445313,-0.1875 0,-0.0585937 0.011719,-0.10546875 0.023437,-0.1640625 l 0.65625,-2.63671878 h 1.1953125 c 0.9023438,0 1.078125,0.5507813 1.078125,0.9023438 0,0.1523437 -0.082031,0.4570312 -0.140625,0.6914062 -0.070312,0.2695313 -0.1523437,0.6445313 -0.1523437,0.84375003 0,1.078125 1.1953125,1.078125 1.3242187,1.078125 0.84375,0 1.1953125,-1.0078125 1.1953125,-1.1484375 0,-0.11718753 -0.1171875,-0.11718753 -0.1171875,-0.11718753 -0.09375,0 -0.1171875,0.0703125 -0.1289062,0.14062503 -0.2578125,0.73828125 -0.6796875,0.902343745 -0.9140625,0.902343745 -0.328125,0 -0.3984375,-0.222656245 -0.3984375,-0.609374995 0,-0.3046875 0.058594,-0.82031248 0.1054687,-1.13671878 0.011719,-0.140625 0.035156,-0.328125 0.035156,-0.46875 0,-0.7617187 -0.6679688,-1.078125 -0.9374994,-1.1718753 z m 0,0"
         style="fill:#000000;fill-opacity:1;fill-rule:nonzero;stroke:none" />
      <path
         id="path11"
         d="m 11.080281,0.2288125 h -0.234375 c -0.02344,0.15234375 -0.08203,0.5625 -0.175781,0.6328125 -0.05859,0.0351563 -0.597656,0.0351563 -0.6914063,0.0351563 H 8.6896562 c 0.7382813,-0.64453125 0.984375,-0.84375 1.3945308,-1.171875 0.515625,-0.41015625 0.996094,-0.8437499 0.996094,-1.5 0,-0.84375 -0.738281,-1.359375 -1.628906,-1.359375 -0.8671875,0 -1.453125,0.609375 -1.453125,1.2421875 0,0.3632813 0.3046875,0.3984375 0.375,0.3984375 0.1640625,0 0.375,-0.1171875 0.375,-0.375 0,-0.1289062 -0.058594,-0.3632813 -0.421875,-0.3632813 0.2226562,-0.5039062 0.6914062,-0.65625 1.0195312,-0.65625 0.7031248,0 1.0664058,0.5507813 1.0664058,1.1132813 0,0.609375 -0.4335933,1.08984375 -0.6562495,1.3359375 l -1.6875,1.6640625 C 7.99825,1.2835 7.99825,1.2952188 7.99825,1.4944375 h 2.882812 z m 0,0"
         style="fill:#000000;fill-opacity:1;fill-rule:nonzero;stroke:none" />
    </g>
    <path
       id="path12"
       d="M 1.3237422,-0.83217969 C 1.8628047,-1.4063984 2.1557734,-1.6524922 2.5073359,-1.9571797 c 0,-0.011719 0.6210938,-0.5390625 0.984375,-0.9023437 0.9375,-0.9257813 1.1601563,-1.40625 1.1601563,-1.4414063 0,-0.1054687 -0.09375,-0.1054687 -0.1054688,-0.1054687 -0.070312,0 -0.1054687,0.023437 -0.1523437,0.1171875 -0.3046875,0.46875 -0.5039063,0.6328125 -0.75,0.6328125 -0.234375,0 -0.3515625,-0.1523438 -0.5039063,-0.3164063 -0.1875,-0.234375 -0.3632812,-0.4335937 -0.6914062,-0.4335937 -0.75,0 -1.2070313,0.9257812 -1.2070313,1.1367187 0,0.046875 0.035156,0.1171875 0.1171875,0.1171875 0.09375,0 0.1171875,-0.058594 0.140625,-0.1171875 0.1875,-0.4570312 0.7617188,-0.46875 0.84375,-0.46875 0.2109375,0 0.3984375,0.070312 0.6210938,0.1523438 0.3984375,0.1523437 0.515625,0.1523437 0.7734375,0.1523437 -0.3632813,0.421875 -1.1953125,1.1367188 -1.3828125,1.3007813 l -0.9023438,0.8320312 c -0.67968746,0.66796876 -1.01953121,1.24218751 -1.01953121,1.31250001 0,0.09375 0.09375,0.09375 0.1171875,0.09375 0.0820313,0 0.09375,-0.01171875 0.15234375,-0.12890625 0.234375,-0.33984375 0.52734376,-0.609375 0.85546876,-0.609375 0.2226562,0 0.328125,0.0820313 0.5742187,0.375 0.1640625,0.2109375 0.3515625,0.36328125 0.6328125,0.36328125 0.984375,0 1.5703125,-1.26562501 1.5703125,-1.53515621 0,-0.046875 -0.046875,-0.09375 -0.1171875,-0.09375 -0.09375,0 -0.1171875,0.058594 -0.140625,0.1289062 -0.234375,0.64453126 -0.8671875,0.83203126 -1.1953125,0.83203126 -0.1992187,0 -0.3867187,-0.0585938 -0.5859375,-0.12890625 -0.3398437,-0.12890625 -0.4921875,-0.1640625 -0.703125,-0.1640625 -0.023437,0 -0.1757812,0 -0.2695312,0.0234375 z m 0,0"
       style="fill:#000000;fill-opacity:1;fill-rule:nonzero;stroke:none"
       aria-label="z"
       transform="matrix(1.3333333,0,0,1.3333333,236.58267,242.23067)" />
  </g>
</svg>
