<?xml version="1.0" encoding="UTF-8" standalone="no"?>
<!-- Created with Inkscape (http://www.inkscape.org/) -->

<svg
   version="1.1"
   id="svg1"
   width="159.89333"
   height="152.81734"
   viewBox="0 0 159.89333 152.81734"
   sodipodi:docname="convergence_venn.pdf"
   xmlns:inkscape="http://www.inkscape.org/namespaces/inkscape"
   xmlns:sodipodi="http://sodipodi.sourceforge.net/DTD/sodipodi-0.dtd"
   xmlns="http://www.w3.org/2000/svg"
   xmlns:svg="http://www.w3.org/2000/svg">
  <defs
     id="defs1" />
  <sodipodi:namedview
     id="namedview1"
     pagecolor="#ffffff"
     bordercolor="#000000"
     borderopacity="0.25"
     inkscape:showpageshadow="2"
     inkscape:pageopacity="0.0"
     inkscape:pagecheckerboard="0"
     inkscape:deskcolor="#d1d1d1">
    <inkscape:page
       x="0"
       y="0"
       inkscape:label="1"
       id="page1"
       width="159.89333"
       height="152.81734"
       margin="0"
       bleed="0" />
  </sodipodi:namedview>
  <g
     id="g1"
     inkscape:groupmode="layer"
     inkscape:label="1">
    <path
       id="path1"
       d="m 69.491,-70.55803 c 0,31.53996 25.5682,57.10817 57.10817,57.10817 31.53994,0 57.10815,-25.56821 57.10815,-57.10817 0,-31.53993 -25.56821,-57.10817 -57.10815,-57.10817 -31.53997,0 -57.10817,25.56824 -57.10817,57.10817 z"
       style="fill:#f5a623;fill-opacity:0.2;fill-rule:nonzero;stroke:#000000;stroke-width:0.3985;stroke-linecap:butt;stroke-linejoin:miter;stroke-miterlimit:10;stroke-dasharray:none;stroke-opacity:1"
       transform="matrix(1.3333333,0,0,-1.3333333,-86.856,-17.668)" />
    <path
       id="path2"
       d="m 69.491,-70.55803 c 0,19.07193 15.46287,34.53481 34.53479,34.53481 19.0764,0 34.53929,-15.46288 34.53929,-34.53481 0,-19.07191 -15.46289,-34.53479 -34.53929,-34.53479 -19.07192,0 -34.53479,15.46288 -34.53479,34.53479 z"
       style="fill:#7ed321;fill-opacity:0.4;fill-rule:nonzero;stroke:#000000;stroke-width:0.3985;stroke-linecap:butt;stroke-linejoin:miter;stroke-miterlimit:10;stroke-dasharray:none;stroke-opacity:1"
       transform="matrix(1.3333333,0,0,-1.3333333,-86.856,-17.668)" />
    <path
       id="path3"
       d="m 114.63326,-70.55803 c 0,19.07193 15.46287,34.53481 34.53927,34.53481 19.07193,0 34.53479,-15.46288 34.53479,-34.53481 0,-19.07191 -15.46286,-34.53479 -34.53479,-34.53479 -19.0764,0 -34.53927,15.46288 -34.53927,34.53479 z"
       style="fill:#7ed321;fill-opacity:0.4;fill-rule:nonzero;stroke:#000000;stroke-width:0.3985;stroke-linecap:butt;stroke-linejoin:miter;stroke-miterlimit:10;stroke-dasharray:none;stroke-opacity:1"
       transform="matrix(1.3333333,0,0,-1.3333333,-86.856,-17.668)" />
    <path
       id="path4"
       d="m 7.7938125,-8.1450781 c 0,-0.2109375 0,-0.2695313 -0.1171875,-0.2695313 -0.070312,0 -0.082031,0.023437 -0.1523437,0.140625 L 6.9383438,-7.3247656 C 6.3992813,-7.9927344 5.5789688,-8.4146094 4.7235,-8.4146094 c -2.1914062,0 -4.078125,1.8867188 -4.078125,4.3242188 0,2.4726562 1.9101563,4.33593748 4.078125,4.33593748 1.9570313,0 3.0703125,-1.69921878 3.0703125,-3.02343748 0,-0.1289063 0,-0.1992188 -0.1289062,-0.1992188 -0.1171875,0 -0.1289063,0.058594 -0.1289063,0.140625 -0.1171875,1.89843753 -1.5,2.74218753 -2.6601562,2.74218753 -0.8320313,0 -3.1171875,-0.50390625 -3.1171875,-3.99609373 0,-3.4570313 2.25,-3.984375 3.1054687,-3.984375 1.2539063,0 2.3554688,1.0664062 2.5898438,2.859375 0.035156,0.1523437 0.035156,0.1875 0.1757812,0.1875 0.1640625,0 0.1640625,-0.035156 0.1640625,-0.28125 z m 6.1464845,5.5898437 c 0,-1.546875 -1.171875,-2.7773437 -2.554688,-2.7773437 -1.4296871,0 -2.5664059,1.265625 -2.5664059,2.7773437 0,1.5234375 1.1953129,2.67187503 2.5546879,2.67187503 1.40625,0 2.566406,-1.17187503 2.566406,-2.67187503 z m -2.554688,2.41406253 c -0.445312,0 -0.984375,-0.19921875 -1.324218,-0.78515625 C 9.7332656,-1.4536719 9.7215469,-2.1685156 9.7215469,-2.6607031 c 0,-0.4570313 0,-1.1835938 0.3750001,-1.7226563 0.328125,-0.515625 0.855469,-0.7148437 1.277344,-0.7148437 0.46875,0 0.972656,0.2226562 1.289062,0.6914062 0.375,0.5507813 0.375,1.3007813 0.375,1.7460938 0,0.4101562 0,1.1484375 -0.316406,1.71093748 -0.328125,0.57421875 -0.878906,0.80859375 -1.335938,0.80859375 z M 19.62975,-2.9067969 c 0,-1.1132812 0,-1.4414062 -0.28125,-1.828125 -0.339844,-0.46875 -0.902344,-0.5390625 -1.3125,-0.5390625 -1.160156,0 -1.605469,0.9960938 -1.710937,1.2304688 h -0.01172 v -1.2304688 l -1.617188,0.1289063 v 0.3515625 c 0.808594,0 0.902344,0.082031 0.902344,0.6679687 v 3.24609378 c 0,0.52734375 -0.128906,0.52734375 -0.902344,0.52734375 v 0.351562495 c 0.304688,-0.023437495 0.949219,-0.023437495 1.289063,-0.023437495 0.339844,0 0.984375,0 1.300781,0.023437495 V -0.35210937 c -0.761719,0 -0.914062,0 -0.914062,-0.52734375 V -3.1060156 c 0,-1.2539063 0.832031,-1.921875 1.570312,-1.921875 0.738281,0 0.914063,0.609375 0.914063,1.3359375 v 2.81249998 c 0,0.52734375 -0.140625,0.52734375 -0.914063,0.52734375 v 0.351562495 c 0.316406,-0.023437495 0.960938,-0.023437495 1.289063,-0.023437495 0.351562,0 0.996093,0 1.300781,0.023437495 V -0.35210937 c -0.597656,0 -0.890625,0 -0.902344,-0.3515625 z m 5.733398,-1.1132812 c 0.105469,-0.2578125 0.316407,-0.7734375 1.078125,-0.7851563 v -0.3515625 c -0.351562,0.023437 -0.515625,0.023437 -0.890625,0.023437 -0.246093,0 -0.421875,0 -0.972656,-0.023437 v 0.3515625 c 0.503906,0.023437 0.5625,0.3867188 0.5625,0.515625 0,0.1054688 -0.02344,0.1640625 -0.08203,0.3046875 l -1.21875,3.08203128 -1.347656,-3.36328128 c -0.05859,-0.1640625 -0.07031,-0.1640625 -0.07031,-0.234375 0,-0.3046875 0.457031,-0.3046875 0.667969,-0.3046875 v -0.3515625 c -0.292969,0.023437 -0.914063,0.023437 -1.242188,0.023437 -0.386718,0 -0.410156,0 -1.148437,-0.023437 v 0.3515625 c 0.667969,0 0.796875,0.046875 0.9375,0.421875 l 1.710937,4.27734378 c 0.05859,0.1640625 0.08203,0.22265625 0.222657,0.22265625 0.08203,0 0.152343,-0.0234375 0.246093,-0.22265625 z m 5.551758,1.2421875 c 0.257813,0 0.28125,0 0.28125,-0.2226563 0,-1.2070312 -0.644531,-2.3320312 -2.085937,-2.3320312 -1.371094,0 -2.414063,1.2304687 -2.414063,2.71875 0,1.5703125 1.21875,2.73046873 2.542969,2.73046873 1.417969,0 1.957031,-1.28906253 1.957031,-1.53515623 0,-0.082031 -0.05859,-0.1289063 -0.128906,-0.1289063 -0.09375,0 -0.117187,0.070312 -0.140625,0.1289063 -0.316406,0.99609373 -1.113281,1.27734373 -1.617187,1.27734373 -0.503907,0 -1.710938,-0.33984375 -1.710938,-2.40234373 v -0.234375 z m -3.304687,-0.2226563 c 0.09375,-1.875 1.148437,-2.0976562 1.488281,-2.0976562 1.277344,0 1.347656,1.6875 1.359375,2.0976562 z m 5.917969,0.2109375 c 0,-1.1601562 0.480468,-2.2382812 1.40625,-2.2382812 0.09375,0 0.117187,0 0.164062,0.011719 -0.09375,0.046875 -0.292969,0.1171875 -0.292969,0.4335938 0,0.3515625 0.28125,0.4804687 0.46875,0.4804687 0.246094,0 0.480469,-0.1523437 0.480469,-0.4804687 0,-0.3515625 -0.316406,-0.6914063 -0.832031,-0.6914063 -1.019531,0 -1.371094,1.1015625 -1.441406,1.3242188 h -0.01172 v -1.3242188 l -1.59375,0.1289063 v 0.3515625 c 0.808594,0 0.902344,0.082031 0.902344,0.6679687 v 3.24609378 c 0,0.52734375 -0.128907,0.52734375 -0.902344,0.52734375 v 0.351562495 c 0.328125,-0.023437495 0.984375,-0.023437495 1.347656,-0.023437495 0.316406,0 1.171875,0 1.441406,0.023437495 V -0.35210937 H 34.43053 c -0.878906,0 -0.902343,-0.12890625 -0.902343,-0.5625 z m 3.978515,0.6210938 c 0.5625,0.375 1.042969,0.375 1.171875,0.375 1.078125,0 1.875,-0.8085938 1.875,-1.734375 0,-0.3164063 -0.09375,-0.7734375 -0.46875,-1.1601563 0.457031,-0.4804687 1.019531,-0.4804687 1.089844,-0.4804687 0.04687,0 0.105469,0 0.152344,0.023437 -0.117188,0.046875 -0.1875,0.1757812 -0.1875,0.3046875 0,0.1640625 0.128906,0.3046875 0.316406,0.3046875 0.09375,0 0.316406,-0.058594 0.316406,-0.3164063 0,-0.2109375 -0.175781,-0.5507812 -0.585937,-0.5507812 -0.632813,0 -1.089844,0.3867187 -1.265625,0.5625 -0.351563,-0.28125 -0.773438,-0.4335938 -1.230469,-0.4335938 -1.066406,0 -1.875,0.8203125 -1.875,1.734375 0,0.6796875 0.421875,1.125 0.539062,1.2304688 -0.140625,0.1757812 -0.351562,0.5273437 -0.351562,0.9960937 0,0.69140628 0.410156,0.98437503 0.503906,1.05468753 -0.550781,0.15234375 -1.089844,0.5859375 -1.089844,1.20703125 0,0.82031252 1.113282,1.50000002 2.589844,1.50000002 1.417969,0 2.601563,-0.6328125 2.601563,-1.52343752 0,-0.3046875 -0.08203,-1.0078125 -0.796875,-1.3828125 -0.609375,-0.3046875 -1.207032,-0.3046875 -2.238282,-0.3046875 -0.726562,0 -0.808593,0 -1.03125,-0.234375 -0.117187,-0.11718748 -0.222656,-0.33984378 -0.222656,-0.59765628 0,-0.1992187 0.07031,-0.3984375 0.1875,-0.5742182 z m 1.183594,0.1289062 c -1.042969,0 -1.042969,-1.2070312 -1.042969,-1.4882812 0,-0.2109375 0,-0.703125 0.199219,-1.03125 0.222656,-0.3398438 0.585937,-0.4570313 0.832031,-0.4570313 1.054688,0 1.054688,1.2070313 1.054688,1.4765625 0,0.2109375 0,0.703125 -0.199219,1.03125 -0.234375,0.3398438 -0.585938,0.46875 -0.84375,0.46875 z m 0.328125,4.2421875 c -1.148438,0 -2.015625,-0.5859375 -2.015625,-1.26562497 0,-0.10546875 0.02344,-0.5625 0.46875,-0.87890625 0.269531,-0.1640625 0.375,-0.1640625 1.207031,-0.1640625 0.996094,0 2.34375,0 2.34375,1.04296875 0,0.70312497 -0.902344,1.26562497 -2.003906,1.26562497 z m 7.505859,-4.9804687 c 0.257813,0 0.28125,0 0.28125,-0.2226563 0,-1.2070312 -0.644531,-2.3320312 -2.085937,-2.3320312 -1.371094,0 -2.414063,1.2304687 -2.414063,2.71875 0,1.5703125 1.21875,2.73046873 2.542969,2.73046873 1.417969,0 1.957031,-1.28906253 1.957031,-1.53515623 0,-0.082031 -0.05859,-0.1289063 -0.128906,-0.1289063 -0.09375,0 -0.117187,0.070312 -0.140625,0.1289063 -0.316406,0.99609373 -1.113281,1.27734373 -1.617187,1.27734373 -0.503907,0 -1.710938,-0.33984375 -1.710938,-2.40234373 v -0.234375 z m -3.304687,-0.2226563 c 0.09375,-1.875 1.148437,-2.0976562 1.488281,-2.0976562 1.277344,0 1.347656,1.6875 1.359375,2.0976562 z m 9.246094,0.09375 c 0,-1.1132812 0,-1.4414062 -0.28125,-1.828125 -0.339844,-0.46875 -0.902344,-0.5390625 -1.3125,-0.5390625 -1.160157,0 -1.605469,0.9960938 -1.710938,1.2304688 h -0.01172 v -1.2304688 l -1.617187,0.1289063 v 0.3515625 c 0.808594,0 0.902344,0.082031 0.902344,0.6679687 v 3.24609378 c 0,0.52734375 -0.128907,0.52734375 -0.902344,0.52734375 v 0.351562495 c 0.304687,-0.023437495 0.949219,-0.023437495 1.289062,-0.023437495 0.339844,0 0.984375,0 1.300782,0.023437495 V -0.35210937 c -0.761719,0 -0.914063,0 -0.914063,-0.52734375 V -3.1060156 c 0,-1.2539063 0.832031,-1.921875 1.570313,-1.921875 0.738281,0 0.914062,0.609375 0.914062,1.3359375 v 2.81249998 c 0,0.52734375 -0.140625,0.52734375 -0.914062,0.52734375 v 0.351562495 c 0.316406,-0.023437495 0.960937,-0.023437495 1.289062,-0.023437495 0.351563,0 0.996094,0 1.300781,0.023437495 V -0.35210937 c -0.597656,0 -0.890625,0 -0.902343,-0.3515625 z m 5.504882,-1.5117187 c -0.140625,0 -0.585937,0 -0.585937,0.4804687 0,0.2929688 0.210937,0.4921875 0.492187,0.4921875 0.28125,0 0.503907,-0.1640625 0.503907,-0.515625 0,-0.796875 -0.832032,-1.3710937 -1.804688,-1.3710937 -1.394531,0 -2.507812,1.2421875 -2.507812,2.7539062 0,1.5234375 1.148437,2.69531253 2.496093,2.69531253 1.582032,0 1.933594,-1.42968753 1.933594,-1.53515623 0,-0.1171875 -0.08203,-0.1171875 -0.117187,-0.1171875 -0.105469,0 -0.117188,0.035156 -0.152344,0.1875 -0.269531,0.84374998 -0.914063,1.20703123 -1.558594,1.20703123 -0.726562,0 -1.699219,-0.6328125 -1.699219,-2.44921873 0,-1.9921875 1.019532,-2.4726563 1.617188,-2.4726563 0.457031,0 1.113281,0.1757813 1.382812,0.6445313 z m 5.460938,1.640625 c 0.257812,0 0.28125,0 0.28125,-0.2226563 0,-1.2070312 -0.644531,-2.3320312 -2.085938,-2.3320312 -1.371093,0 -2.414062,1.2304687 -2.414062,2.71875 0,1.5703125 1.21875,2.73046873 2.542969,2.73046873 1.417968,0 1.957031,-1.28906253 1.957031,-1.53515623 0,-0.082031 -0.05859,-0.1289063 -0.128906,-0.1289063 -0.09375,0 -0.117188,0.070312 -0.140625,0.1289063 -0.316407,0.99609373 -1.113282,1.27734373 -1.617188,1.27734373 -0.503906,0 -1.710937,-0.33984375 -1.710937,-2.40234373 v -0.234375 z M 60.12682,-3.0005469 c 0.09375,-1.875 1.148438,-2.0976562 1.488282,-2.0976562 1.277343,0 1.347656,1.6875 1.359375,2.0976562 z m 0,0"
       style="fill:#000000;fill-opacity:1;fill-rule:nonzero;stroke:none"
       aria-label="Convergence"
       transform="matrix(1.3333333,0,0,1.3333333,67.452,21.086667)" />
    <path
       id="path5"
       d="m 4.6289766,-8.3212578 c -0.046875,-0.140625 -0.070312,-0.2109375 -0.2460938,-0.2109375 -0.1640625,0 -0.1875,0.035156 -0.2460937,0.2226562 L 1.6406953,-1.1611016 C 1.4649141,-0.66891406 1.1367891,-0.36422656 0.37507031,-0.35250781 V -9.453125e-4 C 1.1016328,-0.02438281 1.1250703,-0.02438281 1.5235078,-0.02438281 c 0.328125,0 0.9023438,0 1.21875,0.0234374975 V -0.35250781 c -0.5039062,-0.0117188 -0.8085937,-0.2578125 -0.8085937,-0.59765625 0,-0.0703125 0,-0.09375 0.058594,-0.24609374 l 0.5507813,-1.59375 h 3.0117187 l 0.65625,1.87499999 c 0.070312,0.15234375 0.070312,0.17578125 0.070312,0.2109375 0,0.3515625 -0.6210937,0.3515625 -0.9140625,0.3515625 V -9.453125e-4 C 5.6367891,-0.02438281 6.5860078,-0.02438281 6.9258516,-0.02438281 c 0.328125,0 1.1953125,0 1.4648437,0.0234374975 V -0.35250781 c -0.7734375,0 -0.9960937,0 -1.1601562,-0.48046875 z m -0.5742188,1.2070312 1.3828125,3.984375 H 2.6602266 Z m 6.7119142,-1.1835937 -1.6523439,0.1289062 v 0.3515625 c 0.8085938,0 0.9023439,0.082031 0.9023439,0.6679688 v 7.1484374875 h 0.269531 c 0.04687,-0.0937499975 0.375,-0.6914062475 0.421875,-0.7734374975 0.28125,0.43359375 0.796875,0.890625 1.558594,0.890625 1.371094,0 2.578125,-1.16015629 2.578125,-2.69531249 0,-1.5234375 -1.125,-2.6953125 -2.449219,-2.6953125 -0.65625,0 -1.21875,0.3046875 -1.628906,0.8085937 z m 0.02344,4.4765625 c 0,-0.2226563 0,-0.2460938 0.140625,-0.4335938 0.28125,-0.4335937 0.808594,-0.7734375 1.394532,-0.7734375 0.363281,0 1.617187,0.140625 1.617187,2.4375 0,0.796875 -0.128906,1.3007813 -0.410156,1.73437504 -0.234375,0.36328125 -0.714844,0.73828125 -1.3125,0.73828125 -0.644531,0 -1.066406,-0.421875 -1.265625,-0.73828125 C 10.790109,-1.1142266 10.790109,-1.1611016 10.790109,-1.3603203 Z m 8.414063,-1.2304688 c 0,-0.2226562 0,-0.28125 -0.128906,-0.28125 -0.09375,0 -0.316407,0.2695313 -0.398438,0.375 -0.375,-0.3046875 -0.75,-0.375 -1.125,-0.375 -1.453125,0 -1.875,0.7851563 -1.875,1.4414063 0,0.140625 0,0.5507812 0.445313,0.9726562 0.386718,0.3398438 0.796875,0.421875 1.347656,0.5273438 0.65625,0.1289062 0.808594,0.1640625 1.113281,0.4101562 0.210938,0.1757813 0.363281,0.4335938 0.363281,0.7734375 0,0.51562504 -0.292968,1.08984379 -1.347656,1.08984379 -0.785156,0 -1.359375,-0.45703125 -1.628906,-1.65234379 -0.04687,-0.2109375 -0.04687,-0.2226562 -0.05859,-0.234375 -0.02344,-0.046875 -0.07031,-0.046875 -0.105469,-0.046875 -0.128906,0 -0.128906,0.058594 -0.128906,0.2695313 v 1.62890624 c 0,0.2109375 0,0.26953125 0.117188,0.26953125 0.05859,0 0.07031,-0.0117188 0.269531,-0.2578125 0.05859,-0.0820313 0.05859,-0.10546875 0.246094,-0.3046875 0.445312,0.5625 1.101562,0.5625 1.300781,0.5625 1.253906,0 1.875,-0.69140625 1.875,-1.64062499 0,-0.6445313 -0.398438,-1.0195313 -0.503906,-1.125 -0.433594,-0.375 -0.75,-0.4453125 -1.535157,-0.5859375 -0.363281,-0.082031 -1.230468,-0.2460938 -1.230468,-0.9609375 0,-0.375 0.246093,-0.9257813 1.324218,-0.9257813 1.300782,0 1.371094,1.1132813 1.394532,1.4882813 0.01172,0.09375 0.09375,0.09375 0.128906,0.09375 0.140625,0 0.140625,-0.058594 0.140625,-0.2695313 z m 6.175781,2.4960938 c 0,-1.546875 -1.171875,-2.7773438 -2.554687,-2.7773438 -1.429688,0 -2.566407,1.265625 -2.566407,2.7773438 0,1.5234375 1.195313,2.67187499 2.554688,2.67187499 1.40625,0 2.566406,-1.17187499 2.566406,-2.67187499 z m -2.554687,2.41406249 c -0.445313,0 -0.984375,-0.19921875 -1.324219,-0.78515625 -0.328125,-0.52734374 -0.339844,-1.24218754 -0.339844,-1.73437504 0,-0.4570312 0,-1.1835937 0.375,-1.7226562 0.328125,-0.515625 0.855469,-0.7148438 1.277344,-0.7148438 0.46875,0 0.972656,0.2226563 1.289062,0.6914063 0.375,0.5507812 0.375,1.3007812 0.375,1.7460937 0,0.4101563 0,1.1484375 -0.316406,1.71093754 -0.328125,0.57421875 -0.878906,0.80859375 -1.335937,0.80859375 z m 4.974609,-8.15624999 -1.652344,0.1289062 v 0.3515625 c 0.808594,0 0.902344,0.082031 0.902344,0.6679688 v 6.26953124 c 0,0.52734375 -0.128906,0.52734375 -0.902344,0.52734375 v 0.3515624975 c 0.328122,-0.0234374975 0.91406,-0.0234374975 1.277341,-0.0234374975 0.351563,0 0.949219,0 1.289063,0.0234374975 V -0.35250781 c -0.761719,0 -0.914063,0 -0.914063,-0.52734375 z m 4.833984,3.1523437 v 0.3515625 c 0.808594,0 0.914063,0.082031 0.914063,0.6679688 v 2.1445312 c 0,1.00781254 -0.539063,1.86328129 -1.441406,1.86328129 -0.972657,0 -1.042969,-0.5625 -1.042969,-1.19531249 v -3.9609375 l -1.675781,0.1289062 v 0.3515625 c 0.902343,0 0.902343,0.035156 0.902343,1.1015625 v 1.7929688 c 0,0.7382812 0,1.17187499 0.363282,1.55859374 0.28125,0.31640625 0.773437,0.45703125 1.382812,0.45703125 0.199219,0 0.585938,0 0.996094,-0.33984375 0.339844,-0.28125 0.539062,-0.73828125 0.539062,-0.73828125 v 1.078125 L 35.223703,-9.453125e-4 V -0.35250781 c -0.808594,0 -0.902344,-0.0820313 -0.902344,-0.66796879 v -4.2539062 z m 4.875,0.3398438 h 1.6875 v -0.3515625 h -1.6875 V -7.3486016 H 37.25105 c -0.01172,1.125 -0.445313,2.2617188 -1.535156,2.3085938 v 0.234375 h 1.019531 v 3.328125 c 0,1.32421874 0.890625,1.59374999 1.523437,1.59374999 0.75,0 1.148438,-0.73828125 1.148438,-1.59374999 v -0.6914063 h -0.269531 v 0.65625 c 0,0.86718754 -0.339844,1.37109379 -0.808594,1.37109379 -0.820313,0 -0.820313,-1.11328129 -0.820313,-1.31249999 z m 7.13086,2.0273437 c 0.257812,0 0.28125,0 0.28125,-0.2226562 0,-1.2070313 -0.644532,-2.3320313 -2.085938,-2.3320313 -1.371094,0 -2.414062,1.2304688 -2.414062,2.71875 0,1.5703125 1.21875,2.73046879 2.542968,2.73046879 1.417969,0 1.957032,-1.28906249 1.957032,-1.53515629 0,-0.082031 -0.05859,-0.1289062 -0.128907,-0.1289062 -0.09375,0 -0.117187,0.070312 -0.140625,0.1289062 -0.316406,0.99609379 -1.113281,1.27734379 -1.617187,1.27734379 -0.503906,0 -1.710938,-0.33984375 -1.710938,-2.40234379 v -0.234375 z m -3.304688,-0.2226562 c 0.09375,-1.875 1.148438,-2.0976563 1.488281,-2.0976563 1.277344,0 1.347657,1.6875 1.359375,2.0976563 z m 0,0"
       style="fill:#000000;fill-opacity:1;fill-rule:nonzero;stroke:none"
       aria-label="Absolute"
       transform="matrix(1.3333333,0,0,1.3333333,0.996,81.942667)" />
    <path
       id="path6"
       d="m 6.8098203,-2.7548516 c 0,1.6757813 -1.125,2.66015629 -2.25,2.66015629 -0.7265625,0 -1.96875,-0.48046875 -1.96875,-2.56640629 v -4.59375 c 0,-0.4453125 0.035156,-0.5625 0.9023438,-0.5625 h 0.234375 v -0.3515625 c -0.28125,0.023437 -1.265625,0.023437 -1.6054688,0.023437 -0.3632812,0 -1.34765624,0 -1.62890624,-0.023437 v 0.3515625 h 0.234375 c 0.86718754,0 0.90234374,0.1171875 0.90234374,0.5625 v 4.5117188 c 0,1.734375 1.3828125,2.98828124 2.90625,2.98828124 1.6523438,0 2.6015625,-1.61718754 2.6015625,-2.81250004 v -4.5234375 c 0,-0.7265625 0.9140625,-0.7265625 1.1367188,-0.7265625 v -0.3515625 c -0.3164063,0.023437 -0.9609375,0.023437 -1.2890625,0.023437 -0.3515625,0 -0.9960938,0 -1.3007813,-0.023437 v 0.3515625 c 1.125,0 1.125,0.5625 1.125,0.8789063 z m 7.2861327,-0.1523437 c 0,-1.1132813 0,-1.4414063 -0.28125,-1.828125 -0.339844,-0.46875 -0.902344,-0.5390625 -1.3125,-0.5390625 -1.160156,0 -1.605469,0.9960937 -1.710937,1.2304687 h -0.01172 v -1.2304687 l -1.6171876,0.1289062 v 0.3515625 c 0.8085937,0 0.9023436,0.082031 0.9023436,0.6679688 v 3.24609374 c 0,0.52734375 -0.1289061,0.52734375 -0.9023436,0.52734375 V -9.453125e-4 C 9.4670469,-0.02438281 10.111578,-0.02438281 10.451422,-0.02438281 c 0.339844,0 0.984375,0 1.300781,0.0234374975 V -0.35250781 c -0.761719,0 -0.914062,0 -0.914062,-0.52734375 V -3.1064141 c 0,-1.2539062 0.832031,-1.921875 1.570312,-1.921875 0.738281,0 0.914063,0.609375 0.914063,1.3359375 v 2.81250004 c 0,0.52734375 -0.140625,0.52734375 -0.914063,0.52734375 V -9.453125e-4 C 12.724859,-0.02438281 13.369391,-0.02438281 13.697516,-0.02438281 c 0.351562,0 0.996093,0 1.300781,0.0234374975 V -0.35250781 c -0.597656,0 -0.890625,0 -0.902344,-0.3515625 z m 3.257813,-4.453125 c 0,-0.3164063 -0.246094,-0.5859375 -0.574219,-0.5859375 -0.316406,0 -0.574219,0.2460937 -0.574219,0.5742187 0,0.3515625 0.28125,0.5859375 0.574219,0.5859375 0.363281,0 0.574219,-0.3164062 0.574219,-0.5742187 z m -1.640625,2.2148437 v 0.3515625 c 0.761718,0 0.867187,0.070312 0.867187,0.65625 v 3.25781254 c 0,0.52734375 -0.128906,0.52734375 -0.902344,0.52734375 V -9.453125e-4 C 16.006109,-0.02438281 16.580328,-0.02438281 16.931891,-0.02438281 c 0.128906,0 0.820312,0 1.230468,0.0234374975 V -0.35250781 c -0.773437,0 -0.832031,-0.0585938 -0.832031,-0.515625 V -5.2743828 Z m 4.86914,0.3398438 h 1.359375 v -0.3515625 h -1.382812 v -1.3945313 c 0,-1.078125 0.550781,-1.6289062 1.042968,-1.6289062 0.09375,0 0.28125,0.023437 0.421875,0.09375 -0.04687,0.011719 -0.351562,0.1289062 -0.351562,0.46875 0,0.28125 0.199219,0.46875 0.46875,0.46875 0.292969,0 0.480469,-0.1875 0.480469,-0.4804688 0,-0.4453125 -0.433594,-0.7851562 -1.007813,-0.7851562 -0.832031,0 -1.78125,0.6445312 -1.78125,1.8632812 v 1.3945313 H 18.9065 v 0.3515625 h 0.925781 v 3.92578124 c 0,0.52734375 -0.128906,0.52734375 -0.902344,0.52734375 V -9.453125e-4 C 19.258062,-0.02438281 19.914312,-0.02438281 20.277594,-0.02438281 c 0.316406,0 1.171875,0 1.441406,0.0234374975 V -0.35250781 h -0.234375 c -0.878906,0 -0.902344,-0.12890625 -0.902344,-0.5625 z m 7.010742,2.25 c 0,-1.546875 -1.171875,-2.7773438 -2.554687,-2.7773438 -1.429688,0 -2.566406,1.265625 -2.566406,2.7773438 0,1.5234375 1.195312,2.67187499 2.554687,2.67187499 1.40625,0 2.566406,-1.17187499 2.566406,-2.67187499 z m -2.554687,2.41406249 c -0.445313,0 -0.984375,-0.19921875 -1.324219,-0.78515625 -0.328125,-0.52734374 -0.339844,-1.24218754 -0.339844,-1.73437504 0,-0.4570312 0,-1.1835937 0.375,-1.7226562 0.328125,-0.515625 0.855469,-0.7148438 1.277344,-0.7148438 0.46875,0 0.972656,0.2226563 1.289063,0.6914063 0.375,0.5507812 0.375,1.3007812 0.375,1.7460937 0,0.4101563 0,1.1484375 -0.316407,1.71093754 -0.328125,0.57421875 -0.878906,0.80859375 -1.335937,0.80859375 z m 4.916016,-2.64843749 c 0,-1.1601563 0.480468,-2.2382813 1.40625,-2.2382813 0.09375,0 0.117187,0 0.164062,0.011719 -0.09375,0.046875 -0.292969,0.1171875 -0.292969,0.4335937 0,0.3515625 0.28125,0.4804688 0.46875,0.4804688 0.246094,0 0.480469,-0.1523438 0.480469,-0.4804688 0,-0.3515625 -0.316406,-0.6914062 -0.832031,-0.6914062 -1.019531,0 -1.371094,1.1015625 -1.441406,1.3242187 h -0.01172 v -1.3242187 l -1.59375,0.1289062 v 0.3515625 c 0.808594,0 0.902344,0.082031 0.902344,0.6679688 v 3.24609374 c 0,0.52734375 -0.128907,0.52734375 -0.902344,0.52734375 V -9.453125e-4 C 28.630133,-0.02438281 29.286383,-0.02438281 29.649664,-0.02438281 c 0.316406,0 1.171875,0 1.441406,0.0234374975 V -0.35250781 h -0.234375 c -0.878906,0 -0.902343,-0.12890625 -0.902343,-0.5625 z m 11.124023,-0.1171875 c 0,-1.1132813 0,-1.4414063 -0.269531,-1.828125 -0.351563,-0.46875 -0.914063,-0.5390625 -1.3125,-0.5390625 -0.996094,0 -1.5,0.7148437 -1.6875,1.1835937 -0.164063,-0.9140625 -0.808594,-1.1835937 -1.570313,-1.1835937 -1.160156,0 -1.605469,0.9960937 -1.710937,1.2304687 h -0.01172 v -1.2304687 l -1.617188,0.1289062 v 0.3515625 c 0.808594,0 0.902344,0.082031 0.902344,0.6679688 v 3.24609374 c 0,0.52734375 -0.128906,0.52734375 -0.902344,0.52734375 V -9.453125e-4 C 33.203375,-0.02438281 33.847906,-0.02438281 34.18775,-0.02438281 c 0.339844,0 0.984375,0 1.300781,0.0234374975 V -0.35250781 c -0.761719,0 -0.914062,0 -0.914062,-0.52734375 V -3.1064141 c 0,-1.2539062 0.832031,-1.921875 1.570312,-1.921875 0.738281,0 0.914063,0.609375 0.914063,1.3359375 v 2.81250004 c 0,0.52734375 -0.140625,0.52734375 -0.914063,0.52734375 V -9.453125e-4 C 36.461187,-0.02438281 37.105719,-0.02438281 37.433844,-0.02438281 c 0.351562,0 0.996093,0 1.300781,0.0234374975 V -0.35250781 c -0.761719,0 -0.902344,0 -0.902344,-0.52734375 V -3.1064141 c 0,-1.2539062 0.820313,-1.921875 1.570313,-1.921875 0.738281,0 0.902343,0.609375 0.902343,1.3359375 v 2.81250004 c 0,0.52734375 -0.128906,0.52734375 -0.902343,0.52734375 V -9.453125e-4 C 39.707281,-0.02438281 40.351812,-0.02438281 40.691656,-0.02438281 c 0.339844,0 0.984375,0 1.300781,0.0234374975 V -0.35250781 c -0.597656,0 -0.902343,0 -0.914062,-0.3515625 z m 0,0"
       style="fill:#000000;fill-opacity:1;fill-rule:nonzero;stroke:none"
       aria-label="Uniform"
       transform="matrix(1.3333333,0,0,1.3333333,102.54133,81.942667)" />
  </g>
</svg>
