<?xml version="1.0" encoding="UTF-8" standalone="no"?>
<!-- Created with Inkscape (http://www.inkscape.org/) -->

<svg
   version="1.1"
   id="svg1"
   width="152.98666"
   height="148.56"
   viewBox="0 0 152.98666 148.56"
   sodipodi:docname="ex-1.pdf"
   xmlns:inkscape="http://www.inkscape.org/namespaces/inkscape"
   xmlns:sodipodi="http://sodipodi.sourceforge.net/DTD/sodipodi-0.dtd"
   xmlns="http://www.w3.org/2000/svg"
   xmlns:svg="http://www.w3.org/2000/svg">
  <defs
     id="defs1" />
  <sodipodi:namedview
     id="namedview1"
     pagecolor="#ffffff"
     bordercolor="#000000"
     borderopacity="0.25"
     inkscape:showpageshadow="2"
     inkscape:pageopacity="0.0"
     inkscape:pagecheckerboard="0"
     inkscape:deskcolor="#d1d1d1">
    <inkscape:page
       x="0"
       y="0"
       inkscape:label="1"
       id="page1"
       width="152.98666"
       height="148.56"
       margin="0"
       bleed="0" />
  </sodipodi:namedview>
  <g
     id="g1"
     inkscape:groupmode="layer"
     inkscape:label="1">
    <path
       id="path1"
       d="M 21.08937,-29.33864 H 131.76392 V -140.01318 H 21.08937 Z"
       style="fill:#7ed321;fill-opacity:0.2;fill-rule:nonzero;stroke:#000000;stroke-width:0.74721;stroke-linecap:butt;stroke-linejoin:miter;stroke-miterlimit:10;stroke-dasharray:0.83687, 2.50064;stroke-dashoffset:0;stroke-opacity:1"
       transform="matrix(1.3333333,0,0,-1.3333333,-23.197333,-38.62)" />
    <path
       id="path2"
       d="m 41.25075,-84.6759 c 0,19.4261 15.7498,35.1759 35.1759,35.1759 19.4261,0 35.17142,-15.7498 35.17142,-35.1759 0,-19.42612 -15.74532,-35.17142 -35.17142,-35.17142 -19.4261,0 -35.1759,15.7453 -35.1759,35.17142 z"
       style="fill:#417505;fill-opacity:0.2;fill-rule:nonzero;stroke:#000000;stroke-width:0.74721;stroke-linecap:butt;stroke-linejoin:miter;stroke-miterlimit:10;stroke-dasharray:0.83687, 2.50064;stroke-dashoffset:0;stroke-opacity:1"
       transform="matrix(1.3333333,0,0,-1.3333333,-23.197333,-38.62)" />
    <path
       id="path3"
       d="m 42.05325,-97.37708 c 0,0.99082 0.80252,1.79332 1.79332,1.79332 0.9908,0 1.79333,-0.8025 1.79333,-1.79332 0,-0.99079 -0.80253,-1.7933 -1.79333,-1.7933 -0.9908,0 -1.79332,0.80251 -1.79332,1.7933 z"
       style="fill:#d0021b;fill-opacity:1;fill-rule:nonzero;stroke:#d0021b;stroke-width:0.74721;stroke-linecap:butt;stroke-linejoin:miter;stroke-miterlimit:10;stroke-dasharray:none;stroke-opacity:1"
       transform="matrix(1.3333333,0,0,-1.3333333,-23.197333,-38.62)" />
    <path
       id="path4"
       d="m 74.63333,-84.6759 c 0,0.9908 0.80251,1.7933 1.79332,1.7933 0.99082,0 1.79332,-0.8025 1.79332,-1.7933 0,-0.99082 -0.8025,-1.79332 -1.79332,-1.79332 -0.99081,0 -1.79332,0.8025 -1.79332,1.79332 z"
       style="fill:#000000;fill-opacity:1;fill-rule:nonzero;stroke:#000000;stroke-width:0.74721;stroke-linecap:butt;stroke-linejoin:miter;stroke-miterlimit:10;stroke-dasharray:none;stroke-opacity:1"
       transform="matrix(1.3333333,0,0,-1.3333333,-23.197333,-38.62)" />
    <path
       id="path5"
       d="m 3.7136875,-3.7630937 c -0.1757813,-0.375 -0.46875,-0.6445313 -0.9140625,-0.6445313 -1.171875,0 -2.40234375,1.4648438 -2.40234375,2.9179688 0,0.93749995 0.55078125,1.59374995 1.32421875,1.59374995 0.1992187,0 0.703125,-0.03515625 1.3007812,-0.73828125 0.070312,0.41015625 0.421875,0.73828125 0.9023438,0.73828125 0.3515625,0 0.5742187,-0.22265625 0.7382812,-0.5390625 C 4.8269687,-0.79825 4.955875,-1.407625 4.955875,-1.4310625 c 0,-0.09375 -0.082031,-0.09375 -0.1171875,-0.09375 -0.09375,0 -0.1054688,0.035156 -0.140625,0.1757813 C 4.534,-0.7045 4.3465,-0.10684375 3.9480625,-0.10684375 c -0.2695313,0 -0.3046875,-0.2578125 -0.3046875,-0.45703125 0,-0.22265625 0.023437,-0.3046875 0.1289062,-0.7382812 C 3.8894687,-1.7240312 3.9011875,-1.8295 3.9949375,-2.2045 L 4.3465,-3.5990312 C 4.416812,-3.8802812 4.416812,-3.892 4.416812,-3.938875 c 0,-0.1640625 -0.1171875,-0.2695312 -0.28125,-0.2695312 -0.2460938,0 -0.3867188,0.2226562 -0.4218745,0.4453125 z m -0.6445313,2.578125 c -0.046875,0.1757812 -0.046875,0.1992187 -0.1992187,0.3632812 -0.4453125,0.55078125 -0.84375,0.71484375 -1.125,0.71484375 -0.5039063,0 -0.6445313,-0.55078125 -0.6445313,-0.93749995 0,-0.5039063 0.328125,-1.7226563 0.5507813,-2.1796875 0.3046875,-0.5976563 0.7617187,-0.9609375 1.1601562,-0.9609375 0.6445313,0 0.7851563,0.8203125 0.7851563,0.8789062 0,0.058594 -0.023437,0.1171875 -0.035156,0.1640625 z m 0,0"
       style="fill:#000000;fill-opacity:1;fill-rule:nonzero;stroke:none"
       aria-label="a"
       transform="matrix(1.3333333,0,0,1.3333333,37.954667,87.689333)" />
    <path
       id="path6"
       d="m 2.3788047,-6.8072266 c 0,0 0,-0.1054687 -0.1289063,-0.1054687 -0.2226562,0 -0.9492187,0.082031 -1.21875,0.1054687 -0.0703125,0 -0.18749996,0.011719 -0.18749996,0.1992188 0,0.1171875 0.09375,0.1171875 0.24609376,0.1171875 0.46875,0 0.4921875,0.070312 0.4921875,0.1640625 0,0.070312 -0.082031,0.4101562 -0.140625,0.6210937 l -0.80859376,3.2460938 c -0.12890625,0.5039062 -0.1640625,0.65625 -0.1640625,1.0078125 0,0.94921874 0.52734375,1.55859374 1.26562496,1.55859374 1.171875,0 2.4023438,-1.47656254 2.4023438,-2.91796874 0,-0.9023438 -0.5273438,-1.59375 -1.3242188,-1.59375 -0.4570312,0 -0.8671875,0.2929687 -1.171875,0.5976562 z m -0.9375,3.7734375 c 0.058594,-0.2226562 0.058594,-0.2460937 0.1523437,-0.3515625 0.4921875,-0.6445312 0.9375,-0.796875 1.1953125,-0.796875 0.3632813,0 0.6328125,0.2929688 0.6328125,0.9375 0,0.5859375 -0.328125,1.734375 -0.515625,2.109375 -0.328125,0.66796879 -0.7851562,1.03125004 -1.171875,1.03125004 -0.3398437,0 -0.6679687,-0.26953125 -0.6679687,-1.00781254 0,-0.1875 0,-0.3867187 0.1640625,-1.0078125 z m 0,0"
       style="fill:#000000;fill-opacity:1;fill-rule:nonzero;stroke:none"
       aria-label="b"
       transform="matrix(1.3333333,0,0,1.3333333,81.394667,87.033333)" />
    <g
       id="g6"
       aria-label="|a−b|&lt;|z−b|"
       transform="matrix(1.3333333,0,0,1.3333333,31.2,137.32667)">
      <path
         id="path7"
         d="m 1.5814453,-7.1121875 c 0,-0.1757812 0,-0.3632812 -0.1992187,-0.3632812 -0.1992188,0 -0.1992188,0.1875 -0.1992188,0.3632812 v 9.2460938 c 0,0.1757812 0,0.3632812 0.1992188,0.3632812 0.1992187,0 0.1992187,-0.1875 0.1992187,-0.3632812 z m 0,0"
         style="fill:#000000;fill-opacity:1;fill-rule:nonzero;stroke:none" />
      <path
         id="path8"
         d="m 6.4828125,-3.760625 c -0.1757813,-0.375 -0.46875,-0.6445312 -0.9140625,-0.6445312 -1.171875,0 -2.4023438,1.4648437 -2.4023438,2.9179687 0,0.9375 0.5507813,1.59375 1.3242188,1.59375 0.1992187,0 0.703125,-0.03515625 1.3007812,-0.73828125 0.070312,0.41015625 0.421875,0.73828125 0.9023438,0.73828125 0.3515625,0 0.5742187,-0.22265625 0.7382812,-0.5390625 C 7.5960937,-0.79578125 7.725,-1.4051562 7.725,-1.4285937 c 0,-0.09375 -0.082031,-0.09375 -0.1171875,-0.09375 -0.09375,0 -0.1054688,0.035156 -0.140625,0.1757812 -0.1640625,0.64453125 -0.3515625,1.2421875 -0.75,1.2421875 -0.2695313,0 -0.3046875,-0.2578125 -0.3046875,-0.45703125 0,-0.22265625 0.023437,-0.3046875 0.1289062,-0.73828125 0.1171875,-0.421875 0.1289063,-0.5273437 0.2226563,-0.9023437 L 7.115625,-3.5965625 c 0.070312,-0.28125 0.070312,-0.2929687 0.070312,-0.3398437 0,-0.1640625 -0.1171875,-0.2695313 -0.28125,-0.2695313 -0.2460938,0 -0.3867188,0.2226563 -0.4218745,0.4453125 z M 5.8382812,-1.1825 c -0.046875,0.1757813 -0.046875,0.19921875 -0.1992187,0.36328125 -0.4453125,0.55078125 -0.84375,0.71484375 -1.125,0.71484375 -0.5039063,0 -0.6445313,-0.55078125 -0.6445313,-0.9375 0,-0.5039062 0.328125,-1.7226562 0.5507813,-2.1796875 C 4.725,-3.8192187 5.1820312,-4.1825 5.5804687,-4.1825 c 0.6445313,0 0.7851563,0.8203125 0.7851563,0.8789063 0,0.058594 -0.023437,0.1171875 -0.035156,0.1640625 z m 0,0"
         style="fill:#000000;fill-opacity:1;fill-rule:nonzero;stroke:none" />
      <path
         id="path9"
         d="m 16.809961,-2.2957812 c 0.175781,0 0.351562,0 0.351562,-0.1992188 0,-0.1992187 -0.175781,-0.1992187 -0.351562,-0.1992187 h -5.390625 c -0.164063,0 -0.339844,0 -0.339844,0.1992187 0,0.1992188 0.175781,0.1992188 0.339844,0.1992188 z m 0,0"
         style="fill:#000000;fill-opacity:1;fill-rule:nonzero;stroke:none" />
      <path
         id="path10"
         d="m 22.590234,-6.8075 c 0,0 0,-0.1054687 -0.128906,-0.1054687 -0.222656,0 -0.949219,0.082031 -1.21875,0.1054687 -0.07031,0 -0.1875,0.011719 -0.1875,0.1992188 0,0.1171875 0.09375,0.1171875 0.246094,0.1171875 0.46875,0 0.492187,0.070312 0.492187,0.1640625 0,0.070312 -0.08203,0.4101562 -0.140625,0.6210937 l -0.808593,3.2460938 c -0.128907,0.5039062 -0.164063,0.65625 -0.164063,1.0078125 0,0.9492187 0.527344,1.5585937 1.265625,1.5585937 1.171875,0 2.402344,-1.4765625 2.402344,-2.9179687 0,-0.9023438 -0.527344,-1.59375 -1.324219,-1.59375 -0.457031,0 -0.867187,0.2929687 -1.171875,0.5976562 z m -0.9375,3.7734375 c 0.05859,-0.2226562 0.05859,-0.2460937 0.152344,-0.3515625 0.492188,-0.6445312 0.9375,-0.796875 1.195313,-0.796875 0.363281,0 0.632812,0.2929688 0.632812,0.9375 0,0.5859375 -0.328125,1.734375 -0.515625,2.109375 -0.328125,0.66796875 -0.785156,1.03125 -1.171875,1.03125 -0.339844,0 -0.667969,-0.26953125 -0.667969,-1.0078125 0,-0.1875 0,-0.3867187 0.164063,-1.0078125 z m 0,0"
         style="fill:#000000;fill-opacity:1;fill-rule:nonzero;stroke:none" />
      <path
         id="path11"
         d="m 26.067773,-7.1121875 c 0,-0.1757812 0,-0.3632812 -0.199218,-0.3632812 -0.199219,0 -0.199219,0.1875 -0.199219,0.3632812 v 9.2460938 c 0,0.1757812 0,0.3632812 0.199219,0.3632812 0.199218,0 0.199218,-0.1875 0.199218,-0.3632812 z m 0,0"
         style="fill:#000000;fill-opacity:1;fill-rule:nonzero;stroke:none" />
      <path
         id="path12"
         d="m 36.746484,-4.9559375 c 0.117188,-0.058594 0.1875,-0.1171875 0.1875,-0.2226562 0,-0.1054688 -0.09375,-0.1992188 -0.199218,-0.1992188 -0.03516,0 -0.04687,0 -0.175782,0.070312 l -5.519531,2.6015625 c -0.117187,0.046875 -0.1875,0.09375 -0.1875,0.2109375 0,0.1289063 0.07031,0.1757813 0.1875,0.2226563 l 5.519531,2.60156245 c 0.128907,0.0703125 0.140625,0.0703125 0.175782,0.0703125 0.105468,0 0.199218,-0.09375 0.199218,-0.19921875 0,-0.10546875 -0.07031,-0.1640625 -0.1875,-0.22265625 L 31.519922,-2.495 Z m 0,0"
         style="fill:#000000;fill-opacity:1;fill-rule:nonzero;stroke:none" />
      <path
         id="path13"
         d="m 42.119531,-7.1121875 c 0,-0.1757812 0,-0.3632812 -0.199219,-0.3632812 -0.199218,0 -0.199218,0.1875 -0.199218,0.3632812 v 9.2460938 c 0,0.1757812 0,0.3632812 0.199218,0.3632812 0.199219,0 0.199219,-0.1875 0.199219,-0.3632812 z m 0,0"
         style="fill:#000000;fill-opacity:1;fill-rule:nonzero;stroke:none" />
      <path
         id="path14"
         d="m 44.627344,-0.8309375 c 0.539062,-0.5742187 0.832031,-0.8203125 1.183593,-1.125 0,-0.011719 0.621094,-0.5390625 0.984375,-0.9023437 0.9375,-0.9257813 1.160157,-1.40625 1.160157,-1.4414063 0,-0.1054687 -0.09375,-0.1054687 -0.105469,-0.1054687 -0.07031,0 -0.105469,0.023437 -0.152344,0.1171875 -0.304687,0.46875 -0.503906,0.6328125 -0.75,0.6328125 -0.234375,0 -0.351562,-0.1523438 -0.503906,-0.3164063 -0.1875,-0.234375 -0.363281,-0.4335937 -0.691406,-0.4335937 -0.75,0 -1.207032,0.9257812 -1.207032,1.1367187 0,0.046875 0.03516,0.1171875 0.117188,0.1171875 0.09375,0 0.117187,-0.058594 0.140625,-0.1171875 0.1875,-0.4570312 0.761719,-0.46875 0.84375,-0.46875 0.210937,0 0.398437,0.070312 0.621094,0.1523438 0.398437,0.1523437 0.515625,0.1523437 0.773437,0.1523437 -0.363281,0.421875 -1.195312,1.1367188 -1.382812,1.3007813 l -0.902344,0.8320312 c -0.679688,0.66796875 -1.019531,1.2421875 -1.019531,1.3125 0,0.09375 0.09375,0.09375 0.117187,0.09375 0.08203,0 0.09375,-0.01171875 0.152344,-0.12890625 0.234375,-0.33984375 0.527344,-0.609375 0.855469,-0.609375 0.222656,0 0.328125,0.0820313 0.574218,0.375 C 45.6,-0.04578125 45.7875,0.1065625 46.06875,0.1065625 c 0.984375,0 1.570312,-1.265625 1.570312,-1.5351562 0,-0.046875 -0.04687,-0.09375 -0.117187,-0.09375 -0.09375,0 -0.117188,0.058594 -0.140625,0.1289062 -0.234375,0.64453125 -0.867188,0.83203125 -1.195313,0.83203125 -0.199218,0 -0.386718,-0.0585938 -0.585937,-0.12890625 -0.339844,-0.12890625 -0.492188,-0.1640625 -0.703125,-0.1640625 -0.02344,0 -0.175781,0 -0.269531,0.0234375 z m 0,0"
         style="fill:#000000;fill-opacity:1;fill-rule:nonzero;stroke:none" />
      <path
         id="path15"
         d="m 57.151758,-2.2957812 c 0.175781,0 0.351562,0 0.351562,-0.1992188 0,-0.1992187 -0.175781,-0.1992187 -0.351562,-0.1992187 h -5.390625 c -0.164063,0 -0.339844,0 -0.339844,0.1992187 0,0.1992188 0.175781,0.1992188 0.339844,0.1992188 z m 0,0"
         style="fill:#000000;fill-opacity:1;fill-rule:nonzero;stroke:none" />
      <path
         id="path16"
         d="m 62.932031,-6.8075 c 0,0 0,-0.1054687 -0.128906,-0.1054687 -0.222656,0 -0.949219,0.082031 -1.21875,0.1054687 -0.07031,0 -0.1875,0.011719 -0.1875,0.1992188 0,0.1171875 0.09375,0.1171875 0.246094,0.1171875 0.46875,0 0.492187,0.070312 0.492187,0.1640625 0,0.070312 -0.08203,0.4101562 -0.140625,0.6210937 l -0.808594,3.2460938 c -0.128906,0.5039062 -0.164062,0.65625 -0.164062,1.0078125 0,0.9492187 0.527344,1.5585937 1.265625,1.5585937 1.171875,0 2.402344,-1.4765625 2.402344,-2.9179687 0,-0.9023438 -0.527344,-1.59375 -1.324219,-1.59375 -0.457031,0 -0.867188,0.2929687 -1.171875,0.5976562 z m -0.9375,3.7734375 c 0.05859,-0.2226562 0.05859,-0.2460937 0.152344,-0.3515625 0.492187,-0.6445312 0.9375,-0.796875 1.195312,-0.796875 0.363282,0 0.632813,0.2929688 0.632813,0.9375 0,0.5859375 -0.328125,1.734375 -0.515625,2.109375 -0.328125,0.66796875 -0.785156,1.03125 -1.171875,1.03125 -0.339844,0 -0.667969,-0.26953125 -0.667969,-1.0078125 0,-0.1875 0,-0.3867187 0.164063,-1.0078125 z m 0,0"
         style="fill:#000000;fill-opacity:1;fill-rule:nonzero;stroke:none" />
      <path
         id="path17"
         d="m 66.40957,-7.1121875 c 0,-0.1757812 0,-0.3632812 -0.199218,-0.3632812 -0.199219,0 -0.199219,0.1875 -0.199219,0.3632812 v 9.2460938 c 0,0.1757812 0,0.3632812 0.199219,0.3632812 0.199218,0 0.199218,-0.1875 0.199218,-0.3632812 z m 0,0"
         style="fill:#000000;fill-opacity:1;fill-rule:nonzero;stroke:none" />
    </g>
    <g
       id="g17"
       aria-label="|a−b|&gt;|z−b|"
       transform="matrix(1.3333333,0,0,1.3333333,49.133333,54.922667)">
      <path
         id="path18"
         d="m 1.3472656,-4.957625 c 0,-0.1054687 0,-0.2695312 -0.1640625,-0.2695312 -0.1757812,0 -0.1757812,0.1523437 -0.1757812,0.2695312 v 6.4335938 c 0,0.09375 0,0.2695312 0.1757812,0.2695312 0.1640625,0 0.1640625,-0.1640625 0.1640625,-0.2695312 z m 0,0"
         style="fill:#000000;fill-opacity:1;fill-rule:nonzero;stroke:none" />
      <path
         id="path19"
         d="m 5.3082031,-2.66075 c -0.140625,-0.234375 -0.3867187,-0.4101562 -0.7148437,-0.4101562 -0.890625,0 -1.8046875,0.9726562 -1.8046875,1.9804687 0,0.6796875 0.4570312,1.16015625 1.0546875,1.16015625 0.375,0 0.7148437,-0.2109375 0.9960937,-0.4921875 0.1289063,0.421875 0.5273438,0.4921875 0.7148438,0.4921875 0.2460937,0 0.421875,-0.15234375 0.5507812,-0.375 C 6.2574219,-0.5748125 6.3511719,-0.97325 6.3511719,-0.9966875 c 0,-0.09375 -0.09375,-0.09375 -0.1171875,-0.09375 -0.09375,0 -0.1054688,0.035156 -0.1523438,0.22265625 C 5.9996094,-0.53965625 5.8707031,-0.1295 5.5777344,-0.1295 c -0.1875,0 -0.234375,-0.15234375 -0.234375,-0.33984375 0,-0.1171875 0.058594,-0.36328125 0.1054687,-0.55078125 0.046875,-0.1875 0.1171875,-0.46875 0.1523438,-0.6210937 l 0.140625,-0.5390625 c 0.046875,-0.1757813 0.1289062,-0.5039063 0.1289062,-0.5390625 0,-0.1523438 -0.1289062,-0.2226563 -0.2460937,-0.2226563 -0.1171875,0 -0.2695313,0.082031 -0.3164063,0.28125 z m -0.4453125,1.79296875 c -0.046875,0.1875 -0.1992187,0.328125 -0.3515625,0.45703125 -0.070312,0.0585938 -0.3398437,0.28125 -0.6445312,0.28125 -0.2578125,0 -0.515625,-0.17578125 -0.515625,-0.66796875 0,-0.37499995 0.2109375,-1.13671875 0.3632812,-1.41796875 0.328125,-0.5625 0.6796875,-0.6679687 0.8789063,-0.6679687 0.4804687,0 0.6210937,0.5273437 0.6210937,0.609375 0,0.023437 -0.011719,0.082031 -0.023437,0.09375 z m 0,0"
         style="fill:#000000;fill-opacity:1;fill-rule:nonzero;stroke:none" />
      <path
         id="path20"
         d="m 11.879492,-1.5709062 c 0.105469,0 0.269531,0 0.269531,-0.1757813 0,-0.1757812 -0.152343,-0.1757812 -0.269531,-0.1757812 H 7.7193359 c -0.1054687,0 -0.28125,0 -0.28125,0.1757812 0,0.1757813 0.1640625,0.1757813 0.28125,0.1757813 z m 0,0"
         style="fill:#000000;fill-opacity:1;fill-rule:nonzero;stroke:none" />
      <path
         id="path21"
         d="m 14.753516,-4.6295 c 0.01172,-0.011719 0.02344,-0.1054687 0.02344,-0.1171875 0,-0.035156 -0.02344,-0.09375 -0.105469,-0.09375 -0.140625,0 -0.714843,0.058594 -0.890625,0.070312 -0.05859,0.011719 -0.152343,0.011719 -0.152343,0.1640625 0,0.09375 0.09375,0.09375 0.175781,0.09375 0.339844,0 0.339844,0.046875 0.339844,0.1054688 0,0.046875 -0.07031,0.328125 -0.117188,0.4921875 l -0.152344,0.6328125 c -0.07031,0.2460937 -0.457031,1.7695312 -0.46875,1.8632812 -0.03516,0.1640625 -0.03516,0.2578125 -0.03516,0.3398438 0,0.70312495 0.445313,1.14843745 1.03125,1.14843745 0.867188,0 1.792969,-0.94921875 1.792969,-1.98046875 0,-0.8203125 -0.5625,-1.1601562 -1.042969,-1.1601562 -0.363281,0 -0.667969,0.1992187 -0.878906,0.375 z m -0.351563,4.5 c -0.339844,0 -0.527344,-0.29296875 -0.527344,-0.703125 0,-0.2578125 0.05859,-0.5039062 0.257813,-1.2890625 0.03516,-0.1289062 0.03516,-0.140625 0.164062,-0.2929687 0.269532,-0.3164063 0.585938,-0.46875 0.832032,-0.46875 0.269531,0 0.515625,0.2109375 0.515625,0.6796875 0,0.28125 -0.152344,0.9960937 -0.363282,1.40624995 C 15.105078,-0.457625 14.765234,-0.1295 14.401953,-0.1295 Z m 0,0"
         style="fill:#000000;fill-opacity:1;fill-rule:nonzero;stroke:none" />
      <path
         id="path22"
         d="m 17.765234,-4.957625 c 0,-0.1054687 0,-0.2695312 -0.164062,-0.2695312 -0.175781,0 -0.175781,0.1523437 -0.175781,0.2695312 v 6.4335938 c 0,0.09375 0,0.2695312 0.175781,0.2695312 0.164062,0 0.164062,-0.1640625 0.164062,-0.2695312 z m 0,0"
         style="fill:#000000;fill-opacity:1;fill-rule:nonzero;stroke:none" />
      <path
         id="path23"
         d="m 24.093359,-1.5591875 c 0.09375,-0.046875 0.152344,-0.09375 0.152344,-0.1875 0,-0.1054687 -0.07031,-0.140625 -0.140625,-0.1757812 L 19.851172,-3.97325 c -0.09375,-0.046875 -0.128906,-0.046875 -0.140625,-0.046875 -0.09375,0 -0.175781,0.070312 -0.175781,0.1757813 0,0.09375 0.08203,0.140625 0.152343,0.1640625 l 3.996094,1.9335937 -3.996094,1.921875 c -0.08203,0.0351563 -0.152343,0.09375 -0.152343,0.17578125 0,0.10546875 0.08203,0.17578125 0.175781,0.17578125 0.01172,0 0.04687,0 0.128906,-0.0351563 z m 0,0"
         style="fill:#000000;fill-opacity:1;fill-rule:nonzero;stroke:none" />
      <path
         id="path24"
         d="m 26.358008,-4.957625 c 0,-0.1054687 0,-0.2695312 -0.164063,-0.2695312 -0.175781,0 -0.175781,0.1523437 -0.175781,0.2695312 v 6.4335938 c 0,0.09375 0,0.2695312 0.175781,0.2695312 0.164063,0 0.164063,-0.1640625 0.164063,-0.2695312 z m 0,0"
         style="fill:#000000;fill-opacity:1;fill-rule:nonzero;stroke:none" />
      <path
         id="path25"
         d="m 28.549414,-0.60996875 c 0.175781,-0.1875 0.304688,-0.31640625 0.902344,-0.79687495 0.140625,-0.1171875 0.667969,-0.5273438 0.867187,-0.7265625 0.421875,-0.421875 0.691407,-0.7734375 0.691407,-0.8554688 0,-0.082031 -0.09375,-0.082031 -0.117188,-0.082031 -0.05859,0 -0.08203,0.011719 -0.117187,0.070312 -0.222657,0.3164062 -0.363282,0.421875 -0.527344,0.421875 -0.09375,0 -0.199219,-0.011719 -0.398438,-0.2109375 -0.246093,-0.234375 -0.398437,-0.28125 -0.550781,-0.28125 -0.5625,0 -0.9375,0.5976562 -0.9375,0.8085937 0,0.070312 0.07031,0.082031 0.117188,0.082031 0.08203,0 0.09375,-0.011719 0.128906,-0.09375 0.105469,-0.2460938 0.492187,-0.2578125 0.597656,-0.2578125 0.164063,0 0.351563,0.046875 0.445313,0.058594 0.386718,0.09375 0.433593,0.09375 0.609375,0.09375 -0.1875,0.1875 -0.304688,0.3046875 -0.972657,0.84375 -0.539062,0.421875 -0.726562,0.59765625 -0.867187,0.73828125 -0.410156,0.41015625 -0.621094,0.71484375 -0.621094,0.78515625 0,0.08203125 0.09375,0.08203125 0.117188,0.08203125 0.07031,0 0.09375,-0.01171875 0.128906,-0.0703125 0.1875,-0.26953125 0.398437,-0.421875 0.632812,-0.421875 0.08203,0 0.1875,0 0.375,0.17578125 0.222657,0.2109375 0.363282,0.31640625 0.585938,0.31640625 0.738281,0 1.207031,-0.84375 1.207031,-1.07812495 0,-0.082031 -0.07031,-0.09375 -0.117187,-0.09375 -0.08203,0 -0.09375,0.035156 -0.128907,0.11718745 -0.128906,0.33984375 -0.539062,0.515625 -0.878906,0.515625 -0.164062,0 -0.339844,-0.0351562 -0.515625,-0.0820312 -0.316406,-0.0703125 -0.375,-0.0703125 -0.492187,-0.0703125 -0.02344,0 -0.117188,0 -0.164063,0.011719 z m 0,0"
         style="fill:#000000;fill-opacity:1;fill-rule:nonzero;stroke:none" />
      <path
         id="path26"
         d="m 36.661719,-1.5709062 c 0.105468,0 0.269531,0 0.269531,-0.1757813 0,-0.1757812 -0.152344,-0.1757812 -0.269531,-0.1757812 h -4.160157 c -0.105468,0 -0.28125,0 -0.28125,0.1757812 0,0.1757813 0.164063,0.1757813 0.28125,0.1757813 z m 0,0"
         style="fill:#000000;fill-opacity:1;fill-rule:nonzero;stroke:none" />
      <path
         id="path27"
         d="m 39.535742,-4.6295 c 0.01172,-0.011719 0.02344,-0.1054687 0.02344,-0.1171875 0,-0.035156 -0.02344,-0.09375 -0.105469,-0.09375 -0.140625,0 -0.714844,0.058594 -0.890625,0.070312 -0.05859,0.011719 -0.152344,0.011719 -0.152344,0.1640625 0,0.09375 0.09375,0.09375 0.175781,0.09375 0.339844,0 0.339844,0.046875 0.339844,0.1054688 0,0.046875 -0.07031,0.328125 -0.117187,0.4921875 l -0.152344,0.6328125 c -0.07031,0.2460937 -0.457031,1.7695312 -0.46875,1.8632812 -0.03516,0.1640625 -0.03516,0.2578125 -0.03516,0.3398438 0,0.70312495 0.445312,1.14843745 1.03125,1.14843745 0.867187,0 1.792968,-0.94921875 1.792968,-1.98046875 0,-0.8203125 -0.5625,-1.1601562 -1.042968,-1.1601562 -0.363282,0 -0.667969,0.1992187 -0.878907,0.375 z m -0.351562,4.5 c -0.339844,0 -0.527344,-0.29296875 -0.527344,-0.703125 0,-0.2578125 0.05859,-0.5039062 0.257812,-1.2890625 0.03516,-0.1289062 0.03516,-0.140625 0.164063,-0.2929687 0.269531,-0.3164063 0.585937,-0.46875 0.832031,-0.46875 0.269531,0 0.515625,0.2109375 0.515625,0.6796875 0,0.28125 -0.152344,0.9960937 -0.363281,1.40624995 C 39.887305,-0.457625 39.547461,-0.1295 39.18418,-0.1295 Z m 0,0"
         style="fill:#000000;fill-opacity:1;fill-rule:nonzero;stroke:none" />
      <path
         id="path28"
         d="m 42.547461,-4.957625 c 0,-0.1054687 0,-0.2695312 -0.164063,-0.2695312 -0.175781,0 -0.175781,0.1523437 -0.175781,0.2695312 v 6.4335938 c 0,0.09375 0,0.2695312 0.175781,0.2695312 0.164063,0 0.164063,-0.1640625 0.164063,-0.2695312 z m 0,0"
         style="fill:#000000;fill-opacity:1;fill-rule:nonzero;stroke:none" />
    </g>
  </g>
</svg>
