<?xml version="1.0" encoding="UTF-8" standalone="no"?>
<!-- Created with Inkscape (http://www.inkscape.org/) -->

<svg
   version="1.1"
   id="svg1"
   width="175.06667"
   height="170.65334"
   viewBox="0 0 175.06667 170.65334"
   sodipodi:docname="ex-2.pdf"
   xmlns:inkscape="http://www.inkscape.org/namespaces/inkscape"
   xmlns:sodipodi="http://sodipodi.sourceforge.net/DTD/sodipodi-0.dtd"
   xmlns="http://www.w3.org/2000/svg"
   xmlns:svg="http://www.w3.org/2000/svg">
  <defs
     id="defs1" />
  <sodipodi:namedview
     id="namedview1"
     pagecolor="#ffffff"
     bordercolor="#000000"
     borderopacity="0.25"
     inkscape:showpageshadow="2"
     inkscape:pageopacity="0.0"
     inkscape:pagecheckerboard="0"
     inkscape:deskcolor="#d1d1d1">
    <inkscape:page
       x="0"
       y="0"
       inkscape:label="1"
       id="page1"
       width="175.06667"
       height="170.65334"
       margin="0"
       bleed="0" />
  </sodipodi:namedview>
  <g
     id="g1"
     inkscape:groupmode="layer"
     inkscape:label="1">
    <path
       id="path1"
       d="M 38.28107,-49.28001 H 165.52203 V -176.52098 H 38.28107 Z"
       style="fill:#7ed321;fill-opacity:0.2;fill-rule:nonzero;stroke:#000000;stroke-width:0.74721;stroke-linecap:butt;stroke-linejoin:miter;stroke-miterlimit:10;stroke-dasharray:0.83687, 2.50064;stroke-dashoffset:0;stroke-opacity:1"
       transform="matrix(1.3333333,0,0,-1.3333333,-46.118667,-65.204)" />
    <path
       id="path2"
       d="m 55.00064,-112.9005 c 0,25.90132 20.99962,46.90091 46.90093,46.90091 25.90129,0 46.89491,-20.99959 46.89491,-46.90091 0,-25.9013 -20.99362,-46.89494 -46.89491,-46.89494 -25.90131,0 -46.90093,20.99364 -46.90093,46.89494 z"
       style="fill:#417505;fill-opacity:0.2;fill-rule:nonzero;stroke:#000000;stroke-width:0.74721;stroke-linecap:butt;stroke-linejoin:miter;stroke-miterlimit:10;stroke-dasharray:0.83687, 2.50064;stroke-dashoffset:0;stroke-opacity:1"
       transform="matrix(1.3333333,0,0,-1.3333333,-46.118667,-65.204)" />
    <path
       id="path3"
       d="m 146.40541,-112.9005 c 0,1.32108 1.07002,2.39109 2.39107,2.39109 1.32109,0 2.39108,-1.07001 2.39108,-2.39109 0,-1.32106 -1.06999,-2.39106 -2.39108,-2.39106 -1.32105,0 -2.39107,1.07 -2.39107,2.39106 z"
       style="fill:#d0021b;fill-opacity:1;fill-rule:nonzero;stroke:#d0021b;stroke-width:0.74721;stroke-linecap:butt;stroke-linejoin:miter;stroke-miterlimit:10;stroke-dasharray:none;stroke-opacity:1"
       transform="matrix(1.3333333,0,0,-1.3333333,-46.118667,-65.204)" />
    <path
       id="path4"
       d="m 99.51048,-112.9005 c 0,1.32108 1.07001,2.39109 2.39109,2.39109 1.32106,0 2.39106,-1.07001 2.39106,-2.39109 0,-1.32106 -1.07,-2.39106 -2.39106,-2.39106 -1.32108,0 -2.39109,1.07 -2.39109,2.39106 z"
       style="fill:#d0021b;fill-opacity:1;fill-rule:nonzero;stroke:#d0021b;stroke-width:0.74721;stroke-linecap:butt;stroke-linejoin:miter;stroke-miterlimit:10;stroke-dasharray:none;stroke-opacity:1"
       transform="matrix(1.3333333,0,0,-1.3333333,-46.118667,-65.204)" />
    <path
       id="path5"
       d="m 2.9310781,-6.3756875 c 0,-0.234375 0,-0.2578125 -0.234375,-0.2578125 -0.609375,0.6328125 -1.4882812,0.6328125 -1.80468747,0.6328125 v 0.3164062 c 0.19921877,0 0.78515627,0 1.30078127,-0.2578125 v 5.15625005 c 0,0.3515625 -0.035156,0.48046875 -0.9257813,0.48046875 H 0.95060938 V -6.875e-4 C 1.3021719,-0.03584375 2.1576406,-0.03584375 2.5560781,-0.03584375 c 0.3984375,0 1.265625,0 1.6171875,0.03515625 V -0.305375 H 3.8568594 c -0.9023438,0 -0.9257813,-0.1171875 -0.9257813,-0.48046875 z m 0,0"
       style="fill:#000000;fill-opacity:1;fill-rule:nonzero;stroke:none"
       aria-label="1"
       transform="matrix(1.3333333,0,0,1.3333333,155.36533,98.094667)" />
    <path
       id="path6"
       d="m 4.5829141,-3.1881875 c 0,-0.796875 -0.046875,-1.59375 -0.3984375,-2.3320313 C 3.7274453,-6.4811563 2.9071328,-6.6335 2.4969766,-6.6335 c -0.5976563,0 -1.3359375,0.2578125 -1.73437504,1.1835937 -0.328125,0.6914063 -0.375,1.4648438 -0.375,2.2617188 0,0.75 0.046875,1.640625 0.4453125,2.40234375 0.43359374,0.80859375 1.16015624,1.0078125 1.65234374,1.0078125 0.5390625,0 1.2890625,-0.2109375 1.734375,-1.16015625 0.3164063,-0.6914063 0.3632813,-1.4648438 0.3632813,-2.25 z m -2.0976563,3.1875 c -0.3867187,0 -0.984375,-0.24609375 -1.1601562,-1.2070313 C 1.2196328,-1.805375 1.2196328,-2.7194375 1.2196328,-3.305375 c 0,-0.6445313 0,-1.3007813 0.082031,-1.8398438 0.1875,-1.1835937 0.9257812,-1.265625 1.1835937,-1.265625 0.328125,0 0.984375,0.1757813 1.171875,1.1601563 0.09375,0.5625 0.09375,1.3125 0.09375,1.9453125 0,0.75 0,1.4179687 -0.1054687,2.0625 C 3.49307,-0.305375 2.93057,-6.875e-4 2.4852578,-6.875e-4 Z m 0,0"
       style="fill:#000000;fill-opacity:1;fill-rule:nonzero;stroke:none"
       aria-label="0"
       transform="matrix(1.3333333,0,0,1.3333333,92.838667,98.094667)" />
    <g
       id="g6"
       aria-label="H&#10;1"
       transform="matrix(1.3333333,0,0,1.3333333,82.812,54.68)">
      <path
         id="path7"
         d="m 7.6058438,-6.0353906 c 0.082031,-0.3632813 0.1054687,-0.4570313 0.8320312,-0.4570313 0.2578125,0 0.3398438,0 0.3398438,-0.1992187 0,-0.1171875 -0.1054688,-0.1171875 -0.140625,-0.1171875 -0.28125,0 -0.9960938,0.035156 -1.2773438,0.035156 -0.28125,0 -0.9960937,-0.035156 -1.2773437,-0.035156 -0.082031,0 -0.1992188,0 -0.1992188,0.1992187 0,0.1171875 0.09375,0.1171875 0.28125,0.1171875 0.023437,0 0.2109375,0 0.375,0.011719 0.1875,0.023437 0.2695313,0.035156 0.2695313,0.1640625 0,0.035156 0,0.058594 -0.035156,0.1875 l -0.5976562,2.4375 H 3.141 l 0.5859375,-2.34375 c 0.09375,-0.3632813 0.1171875,-0.4570313 0.8320313,-0.4570313 0.2578125,0 0.3398437,0 0.3398437,-0.1992187 0,-0.1171875 -0.1054687,-0.1171875 -0.140625,-0.1171875 -0.2695312,0 -0.9960937,0.035156 -1.265625,0.035156 -0.2929687,0 -0.9960937,-0.035156 -1.2890625,-0.035156 -0.082031,0 -0.1875,0 -0.1875,0.1992187 0,0.1171875 0.082031,0.1171875 0.28125,0.1171875 0.011719,0 0.1992188,0 0.375,0.011719 0.1757813,0.023437 0.2695313,0.035156 0.2695313,0.1640625 0,0.035156 -0.011719,0.070312 -0.046875,0.1875 l -1.3359375,5.35546872 c -0.09375,0.38671875 -0.1171875,0.46875 -0.9023438,0.46875 -0.17578125,0 -0.26953125,0 -0.26953125,0.19921875 0,0.105468755 0.1171875,0.105468755 0.140625,0.105468755 0.28125,0 0.98437505,-0.035156255 1.26562505,-0.035156255 0.2109375,0 0.4335937,0.01171875 0.6328125,0.01171875 0.2226562,0 0.4453125,0.023437505 0.65625,0.023437505 0.070312,0 0.1992187,0 0.1992187,-0.199218755 0,-0.10546875 -0.09375,-0.10546875 -0.28125,-0.10546875 -0.375,0 -0.6445312,0 -0.6445312,-0.1875 0,-0.0585938 0.011719,-0.10546875 0.023437,-0.1640625 L 3.0589688,-3.3869531 H 6.094125 c -0.4101562,1.6523437 -0.6445312,2.60156247 -0.6796875,2.75390622 -0.1054687,0.31640625 -0.2929687,0.328125 -0.9140625,0.328125 -0.1523437,0 -0.234375,0 -0.234375,0.19921875 0,0.105468755 0.1171875,0.105468755 0.140625,0.105468755 0.28125,0 0.984375,-0.035156255 1.265625,-0.035156255 0.2109375,0 0.421875,0.01171875 0.6328125,0.01171875 0.2226563,0 0.4335938,0.023437505 0.6445313,0.023437505 0.082031,0 0.1992187,0 0.1992187,-0.199218755 0,-0.10546875 -0.082031,-0.10546875 -0.2695312,-0.10546875 -0.375,0 -0.65625,0 -0.65625,-0.1875 0,-0.0585938 0.023437,-0.10546875 0.035156,-0.1640625 z m 0,0"
         style="fill:#000000;fill-opacity:1;fill-rule:nonzero;stroke:none" />
      <path
         id="path8"
         d="m 10.611703,-2.9357813 c 0,-0.1875 -0.01172,-0.1992187 -0.210937,-0.1992187 -0.4453129,0.4335937 -1.0781254,0.4453125 -1.3593754,0.4453125 v 0.2460937 c 0.1640625,0 0.6210938,0 1.0078124,-0.1875 v 3.5507813 c 0,0.234375 0,0.328125 -0.6914061,0.328125 H 9.0882656 v 0.2460937 c 0.1289063,-0.011719 0.9843754,-0.023437 1.2421874,-0.023437 0.210938,0 1.089844,0.011719 1.242188,0.023437 V 1.2478125 h -0.257813 c -0.703125,0 -0.703125,-0.09375 -0.703125,-0.328125 z m 0,0"
         style="fill:#000000;fill-opacity:1;fill-rule:nonzero;stroke:none" />
    </g>
    <g
       id="g8"
       aria-label="H&#10;2"
       transform="matrix(1.3333333,0,0,1.3333333,82.413333,163.07467)">
      <path
         id="path9"
         d="m 7.6060156,-6.0354922 c 0.082031,-0.3632812 0.1054688,-0.4570312 0.8320313,-0.4570312 0.2578125,0 0.3398437,0 0.3398437,-0.1992188 0,-0.1171875 -0.1054687,-0.1171875 -0.140625,-0.1171875 -0.28125,0 -0.9960937,0.035156 -1.2773437,0.035156 -0.28125,0 -0.9960938,-0.035156 -1.2773438,-0.035156 -0.082031,0 -0.1992187,0 -0.1992187,0.1992188 0,0.1171875 0.09375,0.1171875 0.28125,0.1171875 0.023437,0 0.2109375,0 0.375,0.011719 0.1875,0.023437 0.2695312,0.035156 0.2695312,0.1640625 0,0.035156 0,0.058594 -0.035156,0.1875 l -0.5976563,2.4375 H 3.1411719 l 0.5859375,-2.34375 c 0.09375,-0.3632812 0.1171875,-0.4570312 0.8320312,-0.4570312 0.2578125,0 0.3398438,0 0.3398438,-0.1992188 0,-0.1171875 -0.1054688,-0.1171875 -0.140625,-0.1171875 -0.2695313,0 -0.9960938,0.035156 -1.265625,0.035156 -0.2929688,0 -0.9960938,-0.035156 -1.2890625,-0.035156 -0.082031,0 -0.1875,0 -0.1875,0.1992188 0,0.1171875 0.082031,0.1171875 0.28125,0.1171875 0.011719,0 0.1992187,0 0.375,0.011719 0.1757812,0.023437 0.2695312,0.035156 0.2695312,0.1640625 0,0.035156 -0.011719,0.070312 -0.046875,0.1875 l -1.3359375,5.35546876 c -0.09375,0.38671875 -0.1171875,0.46875 -0.90234372,0.46875 -0.17578125,0 -0.26953125,0 -0.26953125,0.19921875 0,0.1054687525 0.1171875,0.1054687525 0.140625,0.1054687525 0.28125,0 0.98437497,-0.0351562525 1.26562497,-0.0351562525 0.2109375,0 0.4335938,0.01171875 0.6328125,0.01171875 0.2226563,0 0.4453125,0.0234375025 0.65625,0.0234375025 0.070312,0 0.1992188,0 0.1992188,-0.1992187525 0,-0.10546875 -0.09375,-0.10546875 -0.28125,-0.10546875 -0.375,0 -0.6445313,0 -0.6445313,-0.1875 0,-0.0585938 0.011719,-0.10546875 0.023437,-0.1640625 l 0.679688,-2.73046936 h 3.0351563 c -0.4101563,1.6523438 -0.6445313,2.60156251 -0.6796875,2.75390626 -0.1054688,0.31640625 -0.2929688,0.328125 -0.9140625,0.328125 -0.1523438,0 -0.234375,0 -0.234375,0.19921875 0,0.1054687525 0.1171875,0.1054687525 0.140625,0.1054687525 0.28125,0 0.984375,-0.0351562525 1.265625,-0.0351562525 0.2109375,0 0.421875,0.01171875 0.6328125,0.01171875 0.2226562,0 0.4335937,0.0234375025 0.6445312,0.0234375025 0.082031,0 0.1992188,0 0.1992188,-0.1992187525 0,-0.10546875 -0.082031,-0.10546875 -0.2695313,-0.10546875 -0.375,0 -0.65625,0 -0.65625,-0.1875 0,-0.0585938 0.023437,-0.10546875 0.035156,-0.1640625 z m 0,0"
         style="fill:#000000;fill-opacity:1;fill-rule:nonzero;stroke:none" />
      <path
         id="path10"
         d="m 11.795469,0.22817969 h -0.234375 c -0.02344,0.15234375 -0.08203,0.5625 -0.175781,0.6328125 -0.05859,0.0351563 -0.597657,0.0351563 -0.691407,0.0351563 H 9.4048438 c 0.7382812,-0.64453125 0.9843752,-0.84375 1.3945312,-1.171875 0.515625,-0.41015625 0.996094,-0.84374999 0.996094,-1.49999999 0,-0.8437501 -0.738281,-1.3593751 -1.628906,-1.3593751 -0.867188,0 -1.4531255,0.609375 -1.4531255,1.2421876 0,0.3632813 0.3046875,0.3984375 0.375,0.3984375 0.1640625,0 0.375,-0.1171875 0.375,-0.375 0,-0.1289062 -0.058594,-0.3632812 -0.421875,-0.3632812 0.2226563,-0.5039064 0.6914063,-0.65625 1.0195315,-0.65625 0.703125,0 1.066406,0.5507811 1.066406,1.1132812 0,0.609375 -0.433594,1.08984374 -0.65625,1.33593749 L 8.78375,1.2242734 C 8.713438,1.2828674 8.713438,1.2945854 8.713438,1.4938047 h 2.882812 z m 0,0"
         style="fill:#000000;fill-opacity:1;fill-rule:nonzero;stroke:none" />
    </g>
  </g>
</svg>
