<?xml version="1.0" encoding="UTF-8" standalone="no"?>
<!-- Created with Inkscape (http://www.inkscape.org/) -->

<svg
   version="1.1"
   id="svg1"
   width="354.79999"
   height="113.34667"
   viewBox="0 0 354.79999 113.34667"
   sodipodi:docname="ring-neighborhood.pdf"
   xmlns:inkscape="http://www.inkscape.org/namespaces/inkscape"
   xmlns:sodipodi="http://sodipodi.sourceforge.net/DTD/sodipodi-0.dtd"
   xmlns="http://www.w3.org/2000/svg"
   xmlns:svg="http://www.w3.org/2000/svg">
  <defs
     id="defs1" />
  <sodipodi:namedview
     id="namedview1"
     pagecolor="#ffffff"
     bordercolor="#000000"
     borderopacity="0.25"
     inkscape:showpageshadow="2"
     inkscape:pageopacity="0.0"
     inkscape:pagecheckerboard="0"
     inkscape:deskcolor="#d1d1d1">
    <inkscape:page
       x="0"
       y="0"
       inkscape:label="1"
       id="page1"
       width="354.79999"
       height="113.34667"
       margin="0"
       bleed="0" />
  </sodipodi:namedview>
  <g
     id="g1"
     inkscape:groupmode="layer"
     inkscape:label="1">
    <path
       id="path1"
       d="m 27.85725,-68.9109 c 14.2477,15.59715 21.61737,12.55302 43.93563,2.78782 22.31825,-9.76522 39.84018,-4.22619 52.91626,-33.51662 13.07608,-29.2904 -68.51864,-34.52084 -93.10167,-16.73736 -24.58303,17.78345 -17.99791,31.86378 -3.75022,47.46616 z"
       style="fill:#f5a623;fill-opacity:0.19;fill-rule:nonzero;stroke:#f5a623;stroke-width:0.3985;stroke-linecap:butt;stroke-linejoin:miter;stroke-miterlimit:10;stroke-dasharray:0.83687, 2.50064;stroke-dashoffset:0;stroke-opacity:1"
       transform="matrix(1.3333333,0,0,-1.3333333,-9.1,-65.797333)" />
    <path
       id="path2"
       d="m 89.43512,-83.78102 c 28.70982,-14.58768 16.9989,-41.84345 4.44586,-26.15216 -12.55304,15.6913 -16.28233,0.19353 -25.66051,1.66328 -9.38337,1.475 -7.48996,39.07656 21.21465,24.48888 z"
       style="fill:#d0021b;fill-opacity:1;fill-rule:nonzero;stroke:#d0021b;stroke-width:1.49442;stroke-linecap:butt;stroke-linejoin:miter;stroke-miterlimit:10;stroke-dasharray:none;stroke-opacity:1"
       transform="matrix(1.3333333,0,0,-1.3333333,-9.1,-65.797333)" />
    <path
       id="path3"
       d="m 21.178,-92.99702 c 0,6.67924 5.41349,12.09274 12.09275,12.09274 6.67926,0 12.09275,-5.4135 12.09275,-12.09274 0,-6.6793 -5.41349,-12.09278 -12.09275,-12.09278 -6.67926,0 -12.09275,5.41348 -12.09275,12.09278 z"
       style="fill:#7ed321;fill-opacity:0.2;fill-rule:nonzero;stroke:#7ed321;stroke-width:0.3985;stroke-linecap:butt;stroke-linejoin:miter;stroke-miterlimit:10;stroke-dasharray:4.48325, 4.48325;stroke-dashoffset:0;stroke-opacity:1"
       transform="matrix(1.3333333,0,0,-1.3333333,-9.1,-65.797333)" />
    <path
       id="path4"
       d="m 31.96313,-92.99702 c 0,0.72178 0.58582,1.30758 1.30762,1.30758 0.72179,0 1.3076,-0.5858 1.3076,-1.30758 0,-0.72182 -0.58581,-1.30762 -1.3076,-1.30762 -0.7218,0 -1.30762,0.5858 -1.30762,1.30762 z"
       style="fill:#417505;fill-opacity:1;fill-rule:nonzero;stroke:#417505;stroke-width:0.3985;stroke-linecap:butt;stroke-linejoin:miter;stroke-miterlimit:10;stroke-dasharray:none;stroke-opacity:1"
       transform="matrix(1.3333333,0,0,-1.3333333,-9.1,-65.797333)" />
    <path
       id="path5"
       d="m 162.80237,-68.9109 c 14.24769,15.59715 21.61737,12.55302 43.93562,2.78782 22.31824,-9.76522 39.8402,-4.22619 52.91626,-33.51662 13.07608,-29.2904 -68.51865,-34.52084 -93.10167,-16.73736 -24.58302,17.78345 -17.99789,31.86378 -3.75021,47.46616 z"
       style="fill:#7ed321;fill-opacity:0.2;fill-rule:nonzero;stroke:#7ed321;stroke-width:0.3985;stroke-linecap:butt;stroke-linejoin:miter;stroke-miterlimit:10;stroke-dasharray:0.83687, 2.50064;stroke-dashoffset:0;stroke-opacity:1"
       transform="matrix(1.3333333,0,0,-1.3333333,-9.1,-65.797333)" />
    <path
       id="path6"
       d="m 224.38022,-83.78102 c 28.70985,-14.58768 16.9989,-41.84345 4.44586,-26.15216 -12.55302,15.6913 -16.28232,0.19353 -25.66048,1.66328 -9.38339,1.475 -7.48999,39.07656 21.21462,24.48888 z"
       style="fill:#d0021b;fill-opacity:1;fill-rule:nonzero;stroke:#d0021b;stroke-width:1.49442;stroke-linecap:butt;stroke-linejoin:miter;stroke-miterlimit:10;stroke-dasharray:none;stroke-opacity:1"
       transform="matrix(1.3333333,0,0,-1.3333333,-9.1,-65.797333)" />
    <path
       id="path7"
       d="m 156.12311,-92.99702 c 0,6.67924 5.41348,12.09274 12.09274,12.09274 6.67929,0 12.09276,-5.4135 12.09276,-12.09274 0,-6.6793 -5.41347,-12.09278 -12.09276,-12.09278 -6.67926,0 -12.09274,5.41348 -12.09274,12.09278 z"
       style="fill:none;stroke:#7ed321;stroke-width:0.3985;stroke-linecap:butt;stroke-linejoin:miter;stroke-miterlimit:10;stroke-dasharray:4.48325, 4.48325;stroke-dashoffset:0;stroke-opacity:1"
       transform="matrix(1.3333333,0,0,-1.3333333,-9.1,-65.797333)" />
    <path
       id="path8"
       d="m 166.90825,-92.99702 c 0,0.72178 0.5858,1.30758 1.3076,1.30758 0.72182,0 1.30762,-0.5858 1.30762,-1.30758 0,-0.72182 -0.5858,-1.30762 -1.30762,-1.30762 -0.7218,0 -1.3076,0.5858 -1.3076,1.30762 z"
       style="fill:#417505;fill-opacity:1;fill-rule:nonzero;stroke:#417505;stroke-width:0.3985;stroke-linecap:butt;stroke-linejoin:miter;stroke-miterlimit:10;stroke-dasharray:none;stroke-opacity:1"
       transform="matrix(1.3333333,0,0,-1.3333333,-9.1,-65.797333)" />
    <path
       id="path9"
       d="m 2.2501016,-1.0652344 c -0.1289063,0.50390627 -0.1523438,0.65625002 -1.1601563,0.65625002 -0.26953124,0 -0.41015624,0 -0.41015624,0.2578125 0,0.15234375 0.0820313,0.15234375 0.36328124,0.15234375 h 4.546875 c 2.90625,0 5.7304687,-2.99999997 5.7304687,-6.19921877 0,-2.0625 -1.242187,-3.5976562 -3.2929687,-3.5976562 h -4.59375 c -0.28125,0 -0.4101562,0 -0.4101562,0.2695312 0,0.1523438 0.1289062,0.1523438 0.3515625,0.1523438 0.8671875,0 0.8671875,0.1054687 0.8671875,0.2695312 0,0.023437 0,0.1171875 -0.058594,0.328125 z m 3.0234375,-7.7578125 c 0.1289062,-0.5273437 0.1875,-0.5507812 0.75,-0.5507812 h 1.5820312 c 1.3476563,0 2.5781247,0.7265625 2.5781247,2.7070312 0,0.7148438 -0.2812497,3.2109375 -1.6757809,4.7929688 -0.3984375,0.46875 -1.4882813,1.46484372 -3.140625,1.46484372 h -1.640625 c -0.1992188,0 -0.2226563,0 -0.3164063,-0.0234375 -0.1523437,-0.0117188 -0.1640625,-0.0351563 -0.1640625,-0.15234375 0,-0.10546875 0.023437,-0.1875 0.058594,-0.31640625 z m 0,0"
       style="fill:#f5a623;fill-opacity:1;fill-rule:nonzero;stroke:none"
       aria-label="D"
       transform="matrix(1.3333333,0,0,1.3333333,95.605333,14.6)" />
    <path
       id="path10"
       d="m 3.7153203,-3.7616328 c -0.1757812,-0.375 -0.46875,-0.6445313 -0.9140625,-0.6445313 -1.171875,0 -2.40234374,1.4648438 -2.40234374,2.9179688 0,0.93749999 0.55078125,1.59374999 1.32421874,1.59374999 0.1992188,0 0.703125,-0.03515625 1.3007813,-0.73828125 0.070312,0.41015625 0.421875,0.73828125 0.9023437,0.73828125 0.3515625,0 0.5742188,-0.22265625 0.7382813,-0.5390625 0.1640625,-0.36328125 0.2929687,-0.97265629 0.2929687,-0.99609379 0,-0.09375 -0.082031,-0.09375 -0.1171875,-0.09375 -0.09375,0 -0.1054687,0.035156 -0.140625,0.1757813 -0.1640625,0.64453124 -0.3515625,1.24218749 -0.75,1.24218749 -0.2695312,0 -0.3046875,-0.2578125 -0.3046875,-0.45703125 0,-0.22265625 0.023437,-0.3046875 0.1289063,-0.73828124 0.1171875,-0.421875 0.1289062,-0.5273438 0.2226562,-0.9023438 l 0.3515625,-1.3945312 c 0.070312,-0.28125 0.070312,-0.2929688 0.070312,-0.3398438 0,-0.1640625 -0.1171875,-0.2695312 -0.28125,-0.2695312 -0.2460937,0 -0.3867187,0.2226562 -0.4218745,0.4453125 z m -0.6445312,2.578125 c -0.046875,0.1757812 -0.046875,0.19921874 -0.1992188,0.36328124 -0.4453125,0.55078125 -0.84375,0.71484375 -1.125,0.71484375 -0.5039062,0 -0.6445312,-0.55078125 -0.6445312,-0.93749999 0,-0.5039063 0.328125,-1.7226563 0.5507812,-2.1796875 0.3046875,-0.5976563 0.7617188,-0.9609375 1.1601563,-0.9609375 0.6445312,0 0.7851562,0.8203125 0.7851562,0.8789062 0,0.058594 -0.023437,0.1171875 -0.035156,0.1640625 z m 0,0"
       style="fill:#417505;fill-opacity:1;fill-rule:nonzero;stroke:none"
       aria-label="a"
       transform="matrix(1.3333333,0,0,1.3333333,37.917333,67.550667)" />
    <path
       id="path11"
       d="m 2.2513672,-1.0652344 c -0.1289063,0.50390627 -0.1523438,0.65625002 -1.1601563,0.65625002 -0.26953121,0 -0.41015621,0 -0.41015621,0.2578125 0,0.15234375 0.0820313,0.15234375 0.36328121,0.15234375 h 4.546875 c 2.90625,0 5.7304691,-2.99999997 5.7304691,-6.19921877 0,-2.0625 -1.242188,-3.5976562 -3.2929691,-3.5976562 h -4.59375 c -0.28125,0 -0.4101562,0 -0.4101562,0.2695312 0,0.1523438 0.1289062,0.1523438 0.3515625,0.1523438 0.8671875,0 0.8671875,0.1054687 0.8671875,0.2695312 0,0.023437 0,0.1171875 -0.058594,0.328125 z m 3.0234375,-7.7578125 c 0.1289062,-0.5273437 0.1875,-0.5507812 0.75,-0.5507812 h 1.5820312 c 1.3476563,0 2.5781251,0.7265625 2.5781251,2.7070312 0,0.7148438 -0.2812501,3.2109375 -1.6757813,4.7929688 -0.3984375,0.46875 -1.4882813,1.46484372 -3.140625,1.46484372 h -1.640625 c -0.1992188,0 -0.2226563,0 -0.3164063,-0.0234375 -0.1523437,-0.0117188 -0.1640625,-0.0351563 -0.1640625,-0.15234375 0,-0.10546875 0.023437,-0.1875 0.058594,-0.31640625 z m 0,0"
       style="fill:#f5a623;fill-opacity:1;fill-rule:nonzero;stroke:none"
       aria-label="D"
       transform="matrix(1.3333333,0,0,1.3333333,275.53333,14.6)" />
    <path
       id="path12"
       d="m 3.7146563,-3.7616328 c -0.1757813,-0.375 -0.46875,-0.6445313 -0.9140625,-0.6445313 -1.171875,0 -2.4023438,1.4648438 -2.4023438,2.9179688 0,0.93749999 0.55078125,1.59374999 1.3242188,1.59374999 0.1992187,0 0.703125,-0.03515625 1.3007812,-0.73828125 0.070312,0.41015625 0.421875,0.73828125 0.9023438,0.73828125 0.3515625,0 0.5742187,-0.22265625 0.7382812,-0.5390625 0.1640625,-0.36328125 0.2929688,-0.97265629 0.2929688,-0.99609379 0,-0.09375 -0.082031,-0.09375 -0.1171875,-0.09375 -0.09375,0 -0.1054688,0.035156 -0.140625,0.1757813 -0.1640625,0.64453124 -0.3515625,1.24218749 -0.75,1.24218749 -0.2695313,0 -0.3046875,-0.2578125 -0.3046875,-0.45703125 0,-0.22265625 0.023437,-0.3046875 0.1289062,-0.73828124 0.1171875,-0.421875 0.1289063,-0.5273438 0.2226563,-0.9023438 l 0.3515625,-1.3945312 c 0.070312,-0.28125 0.070312,-0.2929688 0.070312,-0.3398438 0,-0.1640625 -0.1171875,-0.2695312 -0.28125,-0.2695312 -0.2460938,0 -0.3867188,0.2226562 -0.4218745,0.4453125 z m -0.6445313,2.578125 c -0.046875,0.1757812 -0.046875,0.19921874 -0.1992187,0.36328124 -0.4453125,0.55078125 -0.84375,0.71484375 -1.125,0.71484375 -0.5039063,0 -0.6445313,-0.55078125 -0.6445313,-0.93749999 0,-0.5039063 0.328125,-1.7226563 0.5507813,-2.1796875 0.3046875,-0.5976563 0.7617187,-0.9609375 1.1601562,-0.9609375 0.6445313,0 0.7851563,0.8203125 0.7851563,0.8789062 0,0.058594 -0.023437,0.1171875 -0.035156,0.1640625 z m 0,0"
       style="fill:#417505;fill-opacity:1;fill-rule:nonzero;stroke:none"
       aria-label="a"
       transform="matrix(1.3333333,0,0,1.3333333,217.844,67.550667)" />
  </g>
</svg>
