<?xml version="1.0" encoding="UTF-8" standalone="no"?>
<!-- Created with Inkscape (http://www.inkscape.org/) -->

<svg
   version="1.1"
   id="svg1"
   width="282.97333"
   height="4.0133333"
   viewBox="0 0 282.97333 4.0133333"
   sodipodi:docname="ring-region.pdf"
   xmlns:inkscape="http://www.inkscape.org/namespaces/inkscape"
   xmlns:sodipodi="http://sodipodi.sourceforge.net/DTD/sodipodi-0.dtd"
   xmlns="http://www.w3.org/2000/svg"
   xmlns:svg="http://www.w3.org/2000/svg">
  <defs
     id="defs1" />
  <sodipodi:namedview
     id="namedview1"
     pagecolor="#ffffff"
     bordercolor="#000000"
     borderopacity="0.25"
     inkscape:showpageshadow="2"
     inkscape:pageopacity="0.0"
     inkscape:pagecheckerboard="0"
     inkscape:deskcolor="#d1d1d1">
    <inkscape:page
       x="0"
       y="0"
       inkscape:label="1"
       id="page1"
       width="282.97333"
       height="4.0133333"
       margin="0"
       bleed="0" />
  </sodipodi:namedview>
  <g
     id="g1"
     inkscape:groupmode="layer"
     inkscape:label="1">
    <path
       id="path1"
       d="m 106.7583,-95.45534 c 0,0.7218 0.58582,1.30759 1.3076,1.30759 0.7218,0 1.30762,-0.58579 1.30762,-1.30759 0,-0.72181 -0.58582,-1.30761 -1.30762,-1.30761 -0.72178,0 -1.3076,0.5858 -1.3076,1.30761 z"
       style="fill:#d0021b;fill-opacity:1;fill-rule:nonzero;stroke:#d0021b;stroke-width:0.3985;stroke-linecap:butt;stroke-linejoin:miter;stroke-miterlimit:10;stroke-dasharray:none;stroke-opacity:1"
       transform="matrix(1.3333333,0,0,-1.3333333,-37.469333,-125.268)" />
    <path
       id="path2"
       d="m 54.454,-95.45534 c 0,0.7218 0.58581,1.30759 1.3076,1.30759 0.7218,0 1.30761,-0.58579 1.30761,-1.30759 0,-0.72181 -0.58581,-1.30761 -1.30761,-1.30761 -0.72179,0 -1.3076,0.5858 -1.3076,1.30761 z"
       style="fill:#d0021b;fill-opacity:1;fill-rule:nonzero;stroke:#d0021b;stroke-width:0.3985;stroke-linecap:butt;stroke-linejoin:miter;stroke-miterlimit:10;stroke-dasharray:none;stroke-opacity:1"
       transform="matrix(1.3333333,0,0,-1.3333333,-37.469333,-125.268)" />
    <path
       id="path3"
       d="m 159.0626,-95.45534 c 0,0.7218 0.58582,1.30759 1.30761,1.30759 0.7218,0 1.30762,-0.58579 1.30762,-1.30759 0,-0.72181 -0.58582,-1.30761 -1.30762,-1.30761 -0.72179,0 -1.30761,0.5858 -1.30761,1.30761 z"
       style="fill:#d0021b;fill-opacity:1;fill-rule:nonzero;stroke:#d0021b;stroke-width:0.3985;stroke-linecap:butt;stroke-linejoin:miter;stroke-miterlimit:10;stroke-dasharray:none;stroke-opacity:1"
       transform="matrix(1.3333333,0,0,-1.3333333,-37.469333,-125.268)" />
    <path
       id="path4"
       d="m 211.36691,-95.45534 c 0,0.7218 0.58582,1.30759 1.3076,1.30759 0.72181,0 1.30762,-0.58579 1.30762,-1.30759 0,-0.72181 -0.58581,-1.30761 -1.30762,-1.30761 -0.72178,0 -1.3076,0.5858 -1.3076,1.30761 z"
       style="fill:#d0021b;fill-opacity:1;fill-rule:nonzero;stroke:#d0021b;stroke-width:0.3985;stroke-linecap:butt;stroke-linejoin:miter;stroke-miterlimit:10;stroke-dasharray:none;stroke-opacity:1"
       transform="matrix(1.3333333,0,0,-1.3333333,-37.469333,-125.268)" />
    <path
       id="path5"
       d="m 132.91045,-95.45534 c 0,0.7218 0.58581,1.30759 1.30761,1.30759 0.72181,0 1.30761,-0.58579 1.30761,-1.30759 0,-0.72181 -0.5858,-1.30761 -1.30761,-1.30761 -0.7218,0 -1.30761,0.5858 -1.30761,1.30761 z"
       style="fill:#d0021b;fill-opacity:1;fill-rule:nonzero;stroke:#d0021b;stroke-width:0.3985;stroke-linecap:butt;stroke-linejoin:miter;stroke-miterlimit:10;stroke-dasharray:none;stroke-opacity:1"
       transform="matrix(1.3333333,0,0,-1.3333333,-37.469333,-125.268)" />
    <path
       id="path6"
       d="m 185.21475,-95.45534 c 0,0.7218 0.58582,1.30759 1.30762,1.30759 0.7218,0 1.3076,-0.58579 1.3076,-1.30759 0,-0.72181 -0.5858,-1.30761 -1.3076,-1.30761 -0.7218,0 -1.30762,0.5858 -1.30762,1.30761 z"
       style="fill:#d0021b;fill-opacity:1;fill-rule:nonzero;stroke:#d0021b;stroke-width:0.3985;stroke-linecap:butt;stroke-linejoin:miter;stroke-miterlimit:10;stroke-dasharray:none;stroke-opacity:1"
       transform="matrix(1.3333333,0,0,-1.3333333,-37.469333,-125.268)" />
    <path
       id="path7"
       d="m 80.60614,-95.45534 c 0,0.7218 0.58582,1.30759 1.30762,1.30759 0.7218,0 1.3076,-0.58579 1.3076,-1.30759 0,-0.72181 -0.5858,-1.30761 -1.3076,-1.30761 -0.7218,0 -1.30762,0.5858 -1.30762,1.30761 z"
       style="fill:#d0021b;fill-opacity:1;fill-rule:nonzero;stroke:#d0021b;stroke-width:0.3985;stroke-linecap:butt;stroke-linejoin:miter;stroke-miterlimit:10;stroke-dasharray:none;stroke-opacity:1"
       transform="matrix(1.3333333,0,0,-1.3333333,-37.469333,-125.268)" />
    <path
       id="path8"
       d="m 28.30183,-95.45534 c 0,0.7218 0.58582,1.30759 1.30762,1.30759 0.7218,0 1.3076,-0.58579 1.3076,-1.30759 0,-0.72181 -0.5858,-1.30761 -1.3076,-1.30761 -0.7218,0 -1.30762,0.5858 -1.30762,1.30761 z"
       style="fill:#d0021b;fill-opacity:1;fill-rule:nonzero;stroke:#d0021b;stroke-width:0.3985;stroke-linecap:butt;stroke-linejoin:miter;stroke-miterlimit:10;stroke-dasharray:none;stroke-opacity:1"
       transform="matrix(1.3333333,0,0,-1.3333333,-37.469333,-125.268)" />
    <path
       id="path9"
       d="m 237.51906,-95.45534 c 0,0.7218 0.58581,1.30759 1.30762,1.30759 0.7218,0 1.3076,-0.58579 1.3076,-1.30759 0,-0.72181 -0.5858,-1.30761 -1.3076,-1.30761 -0.72181,0 -1.30762,0.5858 -1.30762,1.30761 z"
       style="fill:#d0021b;fill-opacity:1;fill-rule:nonzero;stroke:#d0021b;stroke-width:0.3985;stroke-linecap:butt;stroke-linejoin:miter;stroke-miterlimit:10;stroke-dasharray:none;stroke-opacity:1"
       transform="matrix(1.3333333,0,0,-1.3333333,-37.469333,-125.268)" />
    <path
       id="path10"
       d="m 28.30183,-95.45534 c 0,0.7218 0.58582,1.30759 1.30762,1.30759 0.7218,0 1.3076,-0.58579 1.3076,-1.30759 0,-0.72181 -0.5858,-1.30761 -1.3076,-1.30761 -0.7218,0 -1.30762,0.5858 -1.30762,1.30761 z"
       style="fill:#d0021b;fill-opacity:1;fill-rule:nonzero;stroke:#d0021b;stroke-width:0.3985;stroke-linecap:butt;stroke-linejoin:miter;stroke-miterlimit:10;stroke-dasharray:none;stroke-opacity:1"
       transform="matrix(1.3333333,0,0,-1.3333333,-37.469333,-125.268)" />
    <path
       id="path11"
       d="m 33.53227,-95.45534 c 0,0.7218 0.58582,1.30759 1.3076,1.30759 0.72181,0 1.30762,-0.58579 1.30762,-1.30759 0,-0.72181 -0.58581,-1.30761 -1.30762,-1.30761 -0.72178,0 -1.3076,0.5858 -1.3076,1.30761 z"
       style="fill:#d0021b;fill-opacity:1;fill-rule:nonzero;stroke:#d0021b;stroke-width:0.3985;stroke-linecap:butt;stroke-linejoin:miter;stroke-miterlimit:10;stroke-dasharray:none;stroke-opacity:1"
       transform="matrix(1.3333333,0,0,-1.3333333,-37.469333,-125.268)" />
  </g>
</svg>
