<?xml version="1.0" encoding="UTF-8" standalone="no"?>
<!-- Created with Inkscape (http://www.inkscape.org/) -->

<svg
   version="1.1"
   id="svg1"
   width="199.85201"
   height="173.464"
   viewBox="0 0 199.85201 173.464"
   sodipodi:docname="taylor_diagram.pdf"
   xmlns:inkscape="http://www.inkscape.org/namespaces/inkscape"
   xmlns:sodipodi="http://sodipodi.sourceforge.net/DTD/sodipodi-0.dtd"
   xmlns="http://www.w3.org/2000/svg"
   xmlns:svg="http://www.w3.org/2000/svg">
  <defs
     id="defs1" />
  <sodipodi:namedview
     id="namedview1"
     pagecolor="#ffffff"
     bordercolor="#000000"
     borderopacity="0.25"
     inkscape:showpageshadow="2"
     inkscape:pageopacity="0.0"
     inkscape:pagecheckerboard="0"
     inkscape:deskcolor="#d1d1d1">
    <inkscape:page
       x="0"
       y="0"
       inkscape:label="1"
       id="page1"
       width="199.85201"
       height="173.464"
       margin="0"
       bleed="0" />
  </sodipodi:namedview>
  <g
     id="g1"
     inkscape:groupmode="layer"
     inkscape:label="1">
    <path
       id="path1"
       d="m 126.20854,-87.45277 c 0,-35.81632 -29.03406,-64.85038 -64.85037,-64.85038 -35.81632,0 -64.85034,29.03406 -64.85034,64.85038 0,35.81631 29.03402,64.85035 64.85034,64.85035 35.81631,0 64.85037,-29.03404 64.85037,-64.85035 z"
       style="fill:#7ed321;fill-opacity:0.2;fill-rule:nonzero;stroke:#000000;stroke-width:0.3985;stroke-linecap:butt;stroke-linejoin:miter;stroke-miterlimit:10;stroke-dasharray:none;stroke-opacity:1"
       transform="matrix(1.3333333,0,0,-1.3333333,4.9213333,-29.869333)" />
    <path
       id="path2"
       d="m 111.30354,-87.45277 c 0,-0.57775 -0.46834,-1.04609 -1.04608,-1.04609 -0.57773,0 -1.04608,0.46834 -1.04608,1.04609 0,0.57772 0.46835,1.04607 1.04608,1.04607 0.57774,0 1.04608,-0.46835 1.04608,-1.04607 z"
       style="fill:#000000;fill-opacity:1;fill-rule:nonzero;stroke:#000000;stroke-width:0.3985;stroke-linecap:butt;stroke-linejoin:miter;stroke-miterlimit:10;stroke-dasharray:none;stroke-opacity:1"
       transform="matrix(1.3333333,0,0,-1.3333333,4.9213333,-29.869333)" />
    <path
       id="path3"
       d="m 3.7142188,-3.7630156 c -0.1757813,-0.375 -0.46875,-0.6445313 -0.9140625,-0.6445313 -1.171875,0 -2.4023438,1.4648438 -2.4023438,2.9179688 0,0.93749998 0.55078125,1.59374998 1.3242188,1.59374998 0.1992187,0 0.703125,-0.03515625 1.3007812,-0.73828125 0.070312,0.41015625 0.421875,0.73828125 0.9023438,0.73828125 0.3515625,0 0.5742187,-0.22265625 0.7382812,-0.5390625 C 4.8275,-0.79817187 4.9564063,-1.4075469 4.9564063,-1.4309844 c 0,-0.09375 -0.082031,-0.09375 -0.1171875,-0.09375 -0.09375,0 -0.1054688,0.035156 -0.140625,0.1757813 -0.1640625,0.64453123 -0.3515625,1.24218748 -0.75,1.24218748 -0.2695313,0 -0.3046875,-0.2578125 -0.3046875,-0.45703125 0,-0.22265625 0.023437,-0.3046875 0.1289062,-0.73828123 C 3.89,-1.7239531 3.9017188,-1.8294219 3.9954688,-2.2044219 l 0.3515625,-1.3945312 c 0.070312,-0.28125 0.070312,-0.2929688 0.070312,-0.3398438 0,-0.1640625 -0.1171875,-0.2695312 -0.28125,-0.2695312 -0.2460938,0 -0.3867188,0.2226562 -0.4218745,0.4453125 z m -0.6445313,2.578125 c -0.046875,0.1757812 -0.046875,0.19921873 -0.1992187,0.36328123 -0.4453125,0.55078125 -0.84375,0.71484375 -1.125,0.71484375 -0.5039063,0 -0.6445313,-0.55078125 -0.6445313,-0.93749998 0,-0.5039063 0.328125,-1.7226563 0.5507813,-2.1796875 0.3046875,-0.5976563 0.7617187,-0.9609375 1.1601562,-0.9609375 0.6445313,0 0.7851563,0.8203125 0.7851563,0.8789062 0,0.058594 -0.023437,0.1171875 -0.035156,0.1640625 z m 0,0"
       style="fill:#000000;fill-opacity:1;fill-rule:nonzero;stroke:none"
       aria-label="a"
       transform="matrix(1.3333333,0,0,1.3333333,149.81333,91.962667)" />
    <path
       id="path4"
       d="m 120.28769,-87.45277 c 0,-22.14689 -17.95308,-40.09996 -40.09996,-40.09996 -22.14688,0 -40.09996,17.95307 -40.09996,40.09996 0,22.14687 17.95308,40.09996 40.09996,40.09996 22.14688,0 40.09996,-17.95309 40.09996,-40.09996 z"
       style="fill:none;stroke:#f5a623;stroke-width:0.3985;stroke-linecap:butt;stroke-linejoin:miter;stroke-miterlimit:10;stroke-dasharray:none;stroke-opacity:1"
       transform="matrix(1.3333333,0,0,-1.3333333,4.9213333,-29.869333)" />
    <path
       id="path5"
       d="m 140.33241,-79.08409 c 0,-0.57773 -0.46834,-1.04608 -1.04606,-1.04608 -0.57775,0 -1.04609,0.46835 -1.04609,1.04608 0,0.57774 0.46834,1.04608 1.04609,1.04608 0.57772,0 1.04606,-0.46834 1.04606,-1.04608 z"
       style="fill:#000000;fill-opacity:1;fill-rule:nonzero;stroke:#000000;stroke-width:0.3985;stroke-linecap:butt;stroke-linejoin:miter;stroke-miterlimit:10;stroke-dasharray:none;stroke-opacity:1"
       transform="matrix(1.3333333,0,0,-1.3333333,4.9213333,-29.869333)" />
    <path
       id="path6"
       d="m 3.2222656,-5.7660469 c 0.1875,0.1757813 0.4101563,0.1757813 0.609375,0.1757813 0.2578125,0 0.890625,0 0.890625,-0.3046875 0,-0.2460938 -0.3984375,-0.2695313 -0.796875,-0.2695313 -0.1054687,0 -0.375,0 -0.6328125,0.09375 -0.058594,-0.1171875 -0.070312,-0.1640625 -0.070312,-0.375 0,-0.140625 0.046875,-0.3515625 0.046875,-0.3632812 0,-0.082031 -0.046875,-0.1289063 -0.1171875,-0.1289063 -0.1875,0 -0.1875,0.4570313 -0.1875,0.4804688 0,0.1757812 0.035156,0.3515625 0.1171875,0.5039062 -1.0546875,0.5273438 -2.62499997,2.3554688 -2.62499997,4.2890625 0,1.40625002 0.90234377,1.69921877 1.62890627,1.94531252 0.2929687,0.10546875 0.3164062,0.10546875 0.609375,0.2109375 0.1992187,0.0703125 0.609375,0.2109375 0.609375,0.66796878 0,0.2695312 -0.1875,0.6679687 -0.5507813,0.6679687 -0.2578125,0 -0.5273437,-0.1289062 -0.7382812,-0.3046875 -0.070313,-0.058594 -0.082031,-0.070312 -0.1171875,-0.070312 -0.058594,0 -0.1054688,0.046875 -0.1054688,0.1054688 0,0.1054687 0.4335938,0.4804687 0.9609375,0.4804687 0.609375,0 1.078125,-0.6328125 1.078125,-1.20703123 0,-0.375 -0.1875,-0.5859375 -0.2695312,-0.66796875 -0.1640625,-0.1875 -0.3515625,-0.24609375 -0.9375,-0.4453125 -0.7968755,-0.26953175 -0.960938,-0.31640675 -1.195313,-0.52734425 -0.421875,-0.37499997 -0.421875,-0.94921877 -0.421875,-1.13671877 0,-1.546875 1.21875,-3.28125 2.2148437,-3.8203125 z m 0.234375,-0.1171875 c 0.1523438,-0.058594 0.328125,-0.058594 0.4570313,-0.058594 0.328125,0 0.375,0 0.5507812,0.058594 -0.082031,0.023437 -0.1757812,0.070312 -0.6210937,0.070312 -0.2109375,0 -0.28125,0 -0.3867188,-0.070312 z m 0,0"
       style="fill:#000000;fill-opacity:1;fill-rule:nonzero;stroke:none"
       aria-label="ζ"
       transform="matrix(1.3333333,0,0,1.3333333,188.63333,76.524)" />
    <path
       id="path7"
       d="m 80.70552,-110.7282 c 0,-0.57772 -0.46835,-1.04608 -1.04608,-1.04608 -0.57774,0 -1.04608,0.46836 -1.04608,1.04608 0,0.57775 0.46834,1.04609 1.04608,1.04609 0.57773,0 1.04608,-0.46834 1.04608,-1.04609 z"
       style="fill:#000000;fill-opacity:1;fill-rule:nonzero;stroke:#000000;stroke-width:0.3985;stroke-linecap:butt;stroke-linejoin:miter;stroke-miterlimit:10;stroke-dasharray:none;stroke-opacity:1"
       transform="matrix(1.3333333,0,0,-1.3333333,4.9213333,-29.869333)" />
    <path
       id="path8"
       d="M 1.3255469,-0.83196094 C 1.8646094,-1.4061797 2.1575781,-1.6522734 2.5091406,-1.9569609 c 0,-0.011719 0.6210938,-0.5390625 0.984375,-0.9023438 0.9375,-0.9257812 1.1601563,-1.40625 1.1601563,-1.4414062 0,-0.1054688 -0.09375,-0.1054688 -0.1054688,-0.1054688 -0.070312,0 -0.1054687,0.023437 -0.1523437,0.1171875 -0.3046875,0.46875 -0.5039063,0.6328125 -0.75,0.6328125 -0.234375,0 -0.3515625,-0.1523437 -0.5039063,-0.3164062 -0.1875,-0.234375 -0.3632812,-0.4335938 -0.6914062,-0.4335938 -0.75,0 -1.2070313,0.9257813 -1.2070313,1.1367188 0,0.046875 0.035156,0.1171875 0.1171875,0.1171875 0.09375,0 0.1171875,-0.058594 0.140625,-0.1171875 0.1875,-0.4570313 0.7617188,-0.46875 0.84375,-0.46875 0.2109375,0 0.3984375,0.070312 0.6210938,0.1523437 0.3984375,0.1523438 0.515625,0.1523438 0.7734375,0.1523438 -0.3632813,0.421875 -1.1953125,1.1367187 -1.3828125,1.3007812 l -0.9023438,0.8320313 c -0.67968747,0.66796871 -1.01953122,1.24218746 -1.01953122,1.31249996 0,0.09375 0.09375,0.09375 0.1171875,0.09375 0.0820313,0 0.09375,-0.01171875 0.15234375,-0.12890625 0.234375,-0.33984375 0.52734377,-0.609375 0.85546877,-0.609375 0.2226562,0 0.328125,0.0820313 0.5742187,0.375 0.1640625,0.2109375 0.3515625,0.36328125 0.6328125,0.36328125 0.984375,0 1.5703125,-1.26562496 1.5703125,-1.53515626 0,-0.046875 -0.046875,-0.09375 -0.1171875,-0.09375 -0.09375,0 -0.1171875,0.058594 -0.140625,0.1289063 -0.234375,0.64453121 -0.8671875,0.83203121 -1.1953125,0.83203121 -0.1992187,0 -0.3867187,-0.0585938 -0.5859375,-0.12890625 -0.3398437,-0.12890625 -0.4921875,-0.1640625 -0.703125,-0.1640625 -0.023437,0 -0.1757812,0 -0.2695312,0.0234375 z m 0,0"
       style="fill:#000000;fill-opacity:1;fill-rule:nonzero;stroke:none"
       aria-label="z"
       transform="matrix(1.3333333,0,0,1.3333333,109.14667,122.996)" />
    <path
       id="path9"
       d="m 76.25443,-53.44975 34.00303,-34.00302"
       style="fill:none;stroke:#000000;stroke-width:0.3985;stroke-linecap:butt;stroke-linejoin:miter;stroke-miterlimit:10;stroke-dasharray:2.98883, 2.98883;stroke-dashoffset:0;stroke-opacity:0.3"
       transform="matrix(1.3333333,0,0,-1.3333333,4.9213333,-29.869333)" />
    <path
       id="path10"
       d="m 110.25746,-87.45277 29.02889,8.36868"
       style="fill:none;stroke:#000000;stroke-width:0.3985;stroke-linecap:butt;stroke-linejoin:miter;stroke-miterlimit:10;stroke-dasharray:2.98883, 2.98883;stroke-dashoffset:0;stroke-opacity:0.3"
       transform="matrix(1.3333333,0,0,-1.3333333,4.9213333,-29.869333)" />
    <path
       id="path11"
       d="m 3.7376328,-6.1158438 c 0.058594,-0.234375 0.082031,-0.3398437 0.28125,-0.3632812 0.082031,-0.011719 0.3984375,-0.011719 0.5976563,-0.011719 0.7148437,0 1.8164062,0 1.8164062,0.984375 0,0.3398438 -0.1523437,1.0195313 -0.5507812,1.4179688 -0.2578125,0.2578125 -0.7851563,0.5742187 -1.6757813,0.5742187 H 3.0931016 Z m 1.4296875,2.7304688 c 1.0078125,-0.2226563 2.1914063,-0.9140625 2.1914063,-1.921875 0,-0.8554688 -0.890625,-1.5 -2.203125,-1.5 H 2.3196641 c -0.1992188,0 -0.2929688,0 -0.2929688,0.1992187 0,0.1171875 0.09375,0.1171875 0.28125,0.1171875 0.023437,0 0.2109375,0 0.3867188,0.011719 0.1757812,0.023437 0.2578125,0.035156 0.2578125,0.1640625 0,0.035156 0,0.070312 -0.035156,0.1875 l -1.3359375,5.35546875 c -0.09375,0.38671875 -0.1171875,0.46875 -0.90234374,0.46875 -0.17578125,0 -0.26953125,0 -0.26953125,0.19921875 0,0.10546875 0.1171875,0.10546875 0.140625,0.10546875 0.28125,0 0.97265629,-0.03515625 1.25390629,-0.03515625 0.28125,0 0.984375,0.03515625 1.265625,0.03515625 0.082031,0 0.1992187,0 0.1992187,-0.19921875 0,-0.10546875 -0.09375,-0.10546875 -0.28125,-0.10546875 -0.3632812,0 -0.6445312,0 -0.6445312,-0.1875 0,-0.0585938 0.011719,-0.10546875 0.023437,-0.1640625 l 0.65625,-2.63671875 h 1.1953125 c 0.9023437,0 1.078125,0.5507812 1.078125,0.9023437 0,0.1523438 -0.082031,0.4570313 -0.140625,0.6914063 -0.070312,0.2695312 -0.1523438,0.6445312 -0.1523438,0.84375 0,1.078125 1.1953125,1.078125 1.3242188,1.078125 0.84375,0 1.1953125,-1.0078125 1.1953125,-1.1484375 0,-0.1171875 -0.1171875,-0.1171875 -0.1171875,-0.1171875 -0.09375,0 -0.1171875,0.0703125 -0.1289063,0.140625 -0.2578125,0.73828125 -0.6796875,0.90234375 -0.9140625,0.90234375 -0.328125,0 -0.3984375,-0.22265625 -0.3984375,-0.609375 0,-0.3046875 0.058594,-0.82031255 0.1054688,-1.13671875 0.011719,-0.140625 0.035156,-0.328125 0.035156,-0.46875 0,-0.7617188 -0.6679687,-1.078125 -0.9374996,-1.1718752 z m 0,0"
       style="fill:#000000;fill-opacity:0.3;fill-rule:nonzero;stroke:none"
       aria-label="R"
       transform="matrix(1.3333333,0,0,1.3333333,112.98133,80.201333)" />
    <path
       id="path12"
       d="m 0.32944531,1.7237813 c -0.0234375,0.1171875 -0.0234375,0.140625 -0.0234375,0.1640625 0,0.140625 0.10546875,0.2695312 0.26953125,0.2695312 0.2109375,0 0.328125,-0.1875 0.3515625,-0.2109375 0.046875,-0.09375 0.37500004,-1.4296875 0.63281254,-2.5078125 0.1992187,0.3984375 0.5273437,0.66796875 0.9960937,0.66796875 1.1601563,0 2.4492188,-1.40624995 2.4492188,-2.88281245 0,-1.0546875 -0.65625,-1.6289063 -1.3828125,-1.6289063 -0.9726563,0 -2.015625,0.9960938 -2.3203125,2.2148438 z M 2.5442891,-0.10434375 c -0.703125,0 -0.8554688,-0.796875 -0.8554688,-0.890625 0,-0.0351563 0.046875,-0.23437495 0.070312,-0.36328125 0.28125,-1.125 0.3867188,-1.4765625 0.5976563,-1.875 0.4335937,-0.7265625 0.9375,-0.9492187 1.2421875,-0.9492187 0.3632812,0 0.6914062,0.2929687 0.6914062,0.9726562 0,0.5507813 -0.2929687,1.6640625 -0.5625,2.15625 -0.328125,0.62109375 -0.8085937,0.94921875 -1.1835932,0.94921875 z m 0,0"
       style="fill:#000000;fill-opacity:0.3;fill-rule:nonzero;stroke:none"
       aria-label="ρ"
       transform="matrix(1.3333333,0,0,1.3333333,177.36933,93.936)" />
    <path
       id="path13"
       d="m 7.5701875,-6.9257891 c 0,-0.023437 -0.023437,-0.09375 -0.1054687,-0.09375 -0.035156,0 -0.046875,0.011719 -0.1523438,0.1171875 L 6.60925,-6.1406328 c -0.082031,-0.140625 -0.5390625,-0.8789063 -1.6523437,-0.8789063 -2.2148438,0 -4.45312505,2.203125 -4.45312505,4.5117188 0,1.64062499 1.17187505,2.73046874 2.69531255,2.73046874 0.8671875,0 1.6171875,-0.3984375 2.1445312,-0.85546875 0.9375,-0.82031249 1.1015625,-1.72265629 1.1015625,-1.75781249 0,-0.1054688 -0.1054687,-0.1054688 -0.1171875,-0.1054688 -0.058594,0 -0.1171875,0.023437 -0.1289062,0.1054688 -0.09375,0.2929687 -0.3164063,0.9960937 -1.0078125,1.57031249 -0.6914063,0.5625 -1.3125,0.7265625 -1.8398438,0.7265625 -0.890625,0 -1.9453125,-0.515625 -1.9453125,-2.06249999 0,-0.5742188 0.2109375,-2.1914063 1.2070313,-3.3515625 0.609375,-0.703125 1.5351562,-1.2070313 2.4257812,-1.2070313 1.0195313,0 1.6054688,0.7734375 1.6054688,1.921875 0,0.3984375 -0.035156,0.4101563 -0.035156,0.5039063 0,0.1054687 0.1171875,0.1054687 0.1523438,0.1054687 0.1289062,0 0.1289062,-0.023437 0.1757812,-0.1992187 z m 0,0"
       style="fill:#f5a623;fill-opacity:1;fill-rule:nonzero;stroke:none"
       aria-label="C"
       transform="matrix(1.3333333,0,0,1.3333333,176.56267,121.22267)" />
    <path
       id="path14"
       d="m 121.74348,-62.48793 -4.01696,4.2471 5.81102,0.66428 -3.35273,-1.55869 z"
       style="fill:none;stroke:#f5a623;stroke-width:0.3985;stroke-linecap:butt;stroke-linejoin:miter;stroke-miterlimit:10;stroke-dasharray:none;stroke-opacity:1"
       transform="matrix(1.3333333,0,0,-1.3333333,4.9213333,-29.869333)" />
  </g>
</svg>
