<?xml version="1.0" encoding="UTF-8" standalone="no"?>
<!-- Created with Inkscape (http://www.inkscape.org/) -->

<svg
   version="1.1"
   id="svg1"
   width="255.38667"
   height="124.58667"
   viewBox="0 0 255.38667 124.58667"
   sodipodi:docname="two-centers-expansions.pdf"
   xmlns:inkscape="http://www.inkscape.org/namespaces/inkscape"
   xmlns:sodipodi="http://sodipodi.sourceforge.net/DTD/sodipodi-0.dtd"
   xmlns="http://www.w3.org/2000/svg"
   xmlns:svg="http://www.w3.org/2000/svg">
  <defs
     id="defs1" />
  <sodipodi:namedview
     id="namedview1"
     pagecolor="#ffffff"
     bordercolor="#000000"
     borderopacity="0.25"
     inkscape:showpageshadow="2"
     inkscape:pageopacity="0.0"
     inkscape:pagecheckerboard="0"
     inkscape:deskcolor="#d1d1d1">
    <inkscape:page
       x="0"
       y="0"
       inkscape:label="1"
       id="page1"
       width="255.38667"
       height="124.58667"
       margin="0"
       bleed="0" />
  </sodipodi:namedview>
  <g
     id="g1"
     inkscape:groupmode="layer"
     inkscape:label="1">
    <path
       id="path1"
       d="m 73.4049,-35.47179 h 92.69654 v -92.69654 H 73.4049 Z"
       style="fill:#7ed321;fill-opacity:0.2;fill-rule:nonzero;stroke:#000000;stroke-width:0.74721;stroke-linecap:butt;stroke-linejoin:miter;stroke-miterlimit:10;stroke-dasharray:0.83687, 2.50064;stroke-dashoffset:0;stroke-opacity:1"
       transform="matrix(1.3333333,0,0,-1.3333333,-92.950667,-46.801333)" />
    <path
       id="path2"
       d="m 92.62926,-82.94087 c 0,14.97867 12.14524,27.12391 27.12393,27.12391 14.97867,0 27.1239,-12.14524 27.1239,-27.12391 0,-14.97869 -12.14523,-27.12392 -27.1239,-27.12392 -14.97869,0 -27.12393,12.14523 -27.12393,27.12392 z"
       style="fill:#ffffff;fill-opacity:1;fill-rule:nonzero;stroke:#417505;stroke-width:0.74721;stroke-linecap:butt;stroke-linejoin:miter;stroke-miterlimit:10;stroke-dasharray:0.83687, 2.50064;stroke-dashoffset:0;stroke-opacity:1"
       transform="matrix(1.3333333,0,0,-1.3333333,-92.950667,-46.801333)" />
    <path
       id="path3"
       d="m 118.63235,-81.82005 c 0,0.6187 0.50213,1.12082 1.12084,1.12082 0.61868,0 1.12081,-0.50212 1.12081,-1.12082 0,-0.6187 -0.50213,-1.12082 -1.12081,-1.12082 -0.61871,0 -1.12084,0.50212 -1.12084,1.12082 z"
       style="fill:#d0021b;fill-opacity:1;fill-rule:nonzero;stroke:#d0021b;stroke-width:0.74721;stroke-linecap:butt;stroke-linejoin:miter;stroke-miterlimit:10;stroke-dasharray:none;stroke-opacity:1"
       transform="matrix(1.3333333,0,0,-1.3333333,-92.950667,-46.801333)" />
    <path
       id="path4"
       d="m 91.50844,-81.82005 c 0,0.6187 0.50212,1.12082 1.12082,1.12082 0.6187,0 1.12083,-0.50212 1.12083,-1.12082 0,-0.6187 -0.50213,-1.12082 -1.12083,-1.12082 -0.6187,0 -1.12082,0.50212 -1.12082,1.12082 z"
       style="fill:#d0021b;fill-opacity:1;fill-rule:nonzero;stroke:#d0021b;stroke-width:0.74721;stroke-linecap:butt;stroke-linejoin:miter;stroke-miterlimit:10;stroke-dasharray:none;stroke-opacity:1"
       transform="matrix(1.3333333,0,0,-1.3333333,-92.950667,-46.801333)" />
    <path
       id="path5"
       d="m 181.46568,-62.4612 c -14.78588,16.09053 -24.93159,13.62023 -38.21108,13.45885"
       style="fill:none;stroke:#000000;stroke-width:0.74721;stroke-linecap:butt;stroke-linejoin:miter;stroke-miterlimit:10;stroke-dasharray:none;stroke-opacity:1"
       transform="matrix(1.3333333,0,0,-1.3333333,-92.950667,-46.801333)" />
    <path
       id="path6"
       d="m 146.8188,-46.70245 -4.80607,-2.30887 4.80607,-2.30888 -1.61398,2.30888 z"
       style="fill:#000000;fill-opacity:1;fill-rule:nonzero;stroke:#000000;stroke-width:0.0797;stroke-linecap:butt;stroke-linejoin:miter;stroke-miterlimit:10;stroke-dasharray:none;stroke-opacity:0"
       transform="matrix(1.3333333,0,0,-1.3333333,-92.950667,-46.801333)" />
    <path
       id="path7"
       d="m 2.9293047,-6.3758203 c 0,-0.234375 0,-0.2578125 -0.234375,-0.2578125 -0.609375,0.6328125 -1.4882813,0.6328125 -1.80468751,0.6328125 v 0.3164062 c 0.19921871,0 0.78515621,0 1.30078121,-0.2578125 v 5.15625004 c 0,0.3515625 -0.035156,0.48046875 -0.9257812,0.48046875 H 0.94883594 V -8.203125e-4 C 1.3003984,-0.03597656 2.1558672,-0.03597656 2.5543047,-0.03597656 c 0.3984375,0 1.265625,0 1.6171875,0.0351562475 V -0.30550781 H 3.8550859 c -0.9023437,0 -0.9257812,-0.1171875 -0.9257812,-0.48046875 z m 0,0"
       style="fill:#d0021b;fill-opacity:1;fill-rule:nonzero;stroke:none"
       aria-label="1"
       transform="matrix(1.3333333,0,0,1.3333333,69.410667,74.38)" />
    <path
       id="path8"
       d="m 4.5820234,-3.1883203 c 0,-0.796875 -0.046875,-1.59375 -0.3984375,-2.3320313 -0.4570312,-0.9609375 -1.2773437,-1.1132812 -1.6875,-1.1132812 -0.5976562,0 -1.3359375,0.2578125 -1.73437496,1.1835937 -0.328125,0.6914063 -0.375,1.4648438 -0.375,2.2617188 0,0.75 0.046875,1.640625 0.4453125,2.40234374 0.43359376,0.80859375 1.16015626,1.0078125 1.65234376,1.0078125 0.5390625,0 1.2890625,-0.2109375 1.734375,-1.16015625 C 4.5351484,-1.6297266 4.5820234,-2.4031641 4.5820234,-3.1883203 Z M 2.4843672,-8.203125e-4 c -0.3867188,0 -0.984375,-0.2460937475 -1.1601563,-1.2070312875 -0.1054687,-0.5976562 -0.1054687,-1.5117187 -0.1054687,-2.0976562 0,-0.6445313 0,-1.3007813 0.082031,-1.8398438 0.1875,-1.1835937 0.9257813,-1.265625 1.1835938,-1.265625 0.328125,0 0.984375,0.1757813 1.171875,1.1601563 0.09375,0.5625 0.09375,1.3125 0.09375,1.9453125 0,0.75 0,1.4179687 -0.1054688,2.0625 -0.1523437,0.93749999 -0.7148437,1.2421874875 -1.160156,1.2421874875 z m 0,0"
       style="fill:#d0021b;fill-opacity:1;fill-rule:nonzero;stroke:none"
       aria-label="0"
       transform="matrix(1.3333333,0,0,1.3333333,21.222667,74.38)" />
    <g
       id="g8"
       aria-label="1&lt;|z−1|&lt;+∞"
       transform="matrix(1.3333333,0,0,1.3333333,151.69333,49.969333)">
      <path
         id="path9"
         d="m 2.9282422,-6.3754375 c 0,-0.234375 0,-0.2578125 -0.234375,-0.2578125 -0.609375,0.6328125 -1.4882813,0.6328125 -1.80468751,0.6328125 v 0.3164062 c 0.19921871,0 0.78515621,0 1.30078121,-0.2578125 v 5.15625005 c 0,0.3515625 -0.035156,0.48046875 -0.9257812,0.48046875 H 0.94777344 V -4.375e-4 C 1.2993359,-0.03559375 2.1548047,-0.03559375 2.5532422,-0.03559375 c 0.3984375,0 1.265625,0 1.6171875,0.03515625 V -0.305125 H 3.8540234 c -0.9023437,0 -0.9257812,-0.1171875 -0.9257812,-0.48046875 z m 0,0"
         style="fill:#000000;fill-opacity:1;fill-rule:nonzero;stroke:none" />
      <path
         id="path10"
         d="m 14.474141,-4.9574688 c 0.117187,-0.058594 0.1875,-0.1171875 0.1875,-0.2226562 0,-0.1054688 -0.09375,-0.1992188 -0.199219,-0.1992188 -0.03516,0 -0.04687,0 -0.175781,0.070312 l -5.5195316,2.6015625 c -0.1171875,0.046875 -0.1875,0.09375 -0.1875,0.2109375 0,0.1289063 0.070312,0.1757813 0.1875,0.2226563 l 5.5195316,2.601563 C 14.415547,0.398 14.427266,0.398 14.462422,0.398 c 0.105469,0 0.199219,-0.09375 0.199219,-0.19921875 0,-0.10546875 -0.07031,-0.1640625 -0.1875,-0.22265625 L 9.2475781,-2.4965313 Z m 0,0"
         style="fill:#000000;fill-opacity:1;fill-rule:nonzero;stroke:none" />
      <path
         id="path11"
         d="m 19.847187,-7.1137188 c 0,-0.1757812 0,-0.3632812 -0.199218,-0.3632812 -0.199219,0 -0.199219,0.1875 -0.199219,0.3632812 V 2.132375 c 0,0.1757812 0,0.3632812 0.199219,0.3632812 0.199218,0 0.199218,-0.1875 0.199218,-0.3632812 z m 0,0"
         style="fill:#000000;fill-opacity:1;fill-rule:nonzero;stroke:none" />
      <path
         id="path12"
         d="m 22.355,-0.83246875 c 0.539062,-0.57421875 0.832031,-0.82031255 1.183594,-1.12500005 0,-0.011719 0.621093,-0.5390625 0.984375,-0.9023437 0.9375,-0.9257813 1.160156,-1.40625 1.160156,-1.4414063 0,-0.1054687 -0.09375,-0.1054687 -0.105469,-0.1054687 -0.07031,0 -0.105469,0.023437 -0.152344,0.1171875 -0.304687,0.46875 -0.503906,0.6328125 -0.75,0.6328125 -0.234375,0 -0.351562,-0.1523438 -0.503906,-0.3164063 -0.1875,-0.234375 -0.363281,-0.4335937 -0.691406,-0.4335937 -0.75,0 -1.207031,0.9257812 -1.207031,1.1367187 0,0.046875 0.03516,0.1171875 0.117187,0.1171875 0.09375,0 0.117188,-0.058594 0.140625,-0.1171875 0.1875,-0.4570312 0.761719,-0.46875 0.84375,-0.46875 0.210938,0 0.398438,0.070312 0.621094,0.1523438 0.398437,0.1523437 0.515625,0.1523437 0.773437,0.1523437 -0.363281,0.421875 -1.195312,1.1367188 -1.382812,1.3007813 l -0.902344,0.8320312 c -0.679687,0.6679688 -1.019531,1.24218755 -1.019531,1.31250005 0,0.09375 0.09375,0.09375 0.117187,0.09375 0.08203,0 0.09375,-0.01171875 0.152344,-0.12890625 0.234375,-0.33984375 0.527344,-0.609375 0.855469,-0.609375 0.222656,0 0.328125,0.0820313 0.574219,0.375 0.164062,0.2109375 0.351562,0.36328125 0.632812,0.36328125 0.984375,0 1.570313,-1.26562505 1.570313,-1.53515625 0,-0.046875 -0.04687,-0.09375 -0.117188,-0.09375 -0.09375,0 -0.117187,0.058594 -0.140625,0.1289062 -0.234375,0.6445313 -0.867187,0.8320313 -1.195312,0.8320313 -0.199219,0 -0.386719,-0.0585938 -0.585938,-0.12890625 -0.339844,-0.12890625 -0.492187,-0.1640625 -0.703125,-0.1640625 -0.02344,0 -0.175781,0 -0.269531,0.0234375 z m 0,0"
         style="fill:#000000;fill-opacity:1;fill-rule:nonzero;stroke:none" />
      <path
         id="path13"
         d="m 34.879414,-2.2973125 c 0.175781,0 0.351563,0 0.351563,-0.1992188 0,-0.1992187 -0.175782,-0.1992187 -0.351563,-0.1992187 h -5.390625 c -0.164062,0 -0.339844,0 -0.339844,0.1992187 0,0.1992188 0.175782,0.1992188 0.339844,0.1992188 z m 0,0"
         style="fill:#000000;fill-opacity:1;fill-rule:nonzero;stroke:none" />
      <path
         id="path14"
         d="m 41.210469,-6.3754375 c 0,-0.234375 0,-0.2578125 -0.234375,-0.2578125 -0.609375,0.6328125 -1.488282,0.6328125 -1.804688,0.6328125 v 0.3164062 c 0.199219,0 0.785156,0 1.300781,-0.2578125 v 5.15625005 c 0,0.3515625 -0.03516,0.48046875 -0.925781,0.48046875 H 39.23 v 0.3046875 c 0.351562,-0.03515625 1.207031,-0.03515625 1.605469,-0.03515625 0.398437,0 1.265625,0 1.617187,0.03515625 V -0.305125 H 42.13625 c -0.902344,0 -0.925781,-0.1171875 -0.925781,-0.48046875 z m 0,0"
         style="fill:#000000;fill-opacity:1;fill-rule:nonzero;stroke:none" />
      <path
         id="path15"
         d="m 44.843281,-7.1137188 c 0,-0.1757812 0,-0.3632812 -0.199219,-0.3632812 -0.199218,0 -0.199218,0.1875 -0.199218,0.3632812 V 2.132375 c 0,0.1757812 0,0.3632812 0.199218,0.3632812 0.199219,0 0.199219,-0.1875 0.199219,-0.3632812 z m 0,0"
         style="fill:#000000;fill-opacity:1;fill-rule:nonzero;stroke:none" />
      <path
         id="path16"
         d="m 55.521992,-4.9574688 c 0.117188,-0.058594 0.1875,-0.1171875 0.1875,-0.2226562 0,-0.1054688 -0.09375,-0.1992188 -0.199219,-0.1992188 -0.03516,0 -0.04687,0 -0.175781,0.070312 l -5.519531,2.6015625 c -0.117188,0.046875 -0.1875,0.09375 -0.1875,0.2109375 0,0.1289063 0.07031,0.1757813 0.1875,0.2226563 L 55.334492,0.327687 C 55.463398,0.398 55.475117,0.398 55.510273,0.398 c 0.105469,0 0.199219,-0.09375 0.199219,-0.19921875 0,-0.10546875 -0.07031,-0.1640625 -0.1875,-0.22265625 L 50.29543,-2.4965313 Z m 0,0"
         style="fill:#000000;fill-opacity:1;fill-rule:nonzero;stroke:none" />
      <path
         id="path17"
         d="m 63.391133,-2.2973125 h 2.777344 c 0.140625,0 0.328125,0 0.328125,-0.1992188 0,-0.1992187 -0.1875,-0.1992187 -0.328125,-0.1992187 h -2.777344 v -2.7890625 c 0,-0.1289063 0,-0.328125 -0.199219,-0.328125 -0.199219,0 -0.199219,0.1992187 -0.199219,0.328125 V -2.69575 h -2.789062 c -0.140625,0 -0.328125,0 -0.328125,0.1992187 0,0.1992188 0.1875,0.1992188 0.328125,0.1992188 h 2.789062 v 2.80078125 c 0,0.12890625 0,0.328125 0.199219,0.328125 0.199219,0 0.199219,-0.19921875 0.199219,-0.328125 z m 0,0"
         style="fill:#000000;fill-opacity:1;fill-rule:nonzero;stroke:none" />
      <path
         id="path18"
         d="m 72.124531,-2.69575 c -0.539062,-0.6796875 -0.65625,-0.8320313 -0.972656,-1.078125 -0.550781,-0.4453125 -1.113281,-0.6328125 -1.617188,-0.6328125 -1.171875,0 -1.921875,1.1015625 -1.921875,2.2617187 0,1.14843755 0.738282,2.25000005 1.875,2.25000005 1.148438,0 1.980469,-0.90234375 2.460938,-1.69921875 0.539062,0.6796875 0.65625,0.83203125 0.972656,1.078125 0.550781,0.4453125 1.113281,0.62109375 1.617188,0.62109375 1.171875,0 1.921875,-1.08984375 1.921875,-2.26171875 0,-1.1367188 -0.726563,-2.25 -1.875,-2.25 -1.148438,0 -1.980469,0.9140625 -2.460938,1.7109375 z m 0.257813,0.3398437 c 0.410156,-0.7265625 1.148437,-1.734375 2.273437,-1.734375 1.054688,0 1.59375,1.0429688 1.59375,1.9335938 0,0.984375 -0.667969,1.79296875 -1.546875,1.79296875 -0.574219,0 -1.03125,-0.421875 -1.230469,-0.6328125 C 73.214375,-1.2660625 72.991719,-1.57075 72.382344,-2.3559063 Z m -0.691407,0.421875 c -0.410156,0.7148438 -1.136718,1.7226563 -2.273437,1.7226563 -1.054688,0 -1.59375,-1.03125 -1.59375,-1.9335938 0,-0.9726562 0.667969,-1.78125 1.546875,-1.78125 0.585937,0 1.03125,0.421875 1.242187,0.6328125 0.246094,0.2695313 0.46875,0.5742188 1.078125,1.359375 z m 0,0"
         style="fill:#000000;fill-opacity:1;fill-rule:nonzero;stroke:none" />
    </g>
    <g
       id="g18"
       aria-label="&#10;&#10;&#10;1"
       transform="matrix(1.3333333,0,0,1.3333333,177.996,72.286667)">
      <path
         id="path19"
         d="m 1.4414766,5.8113672 c 0,0.1640625 0,0.375 0.2109375,0.375 0.2226562,0 0.2226562,-0.1992188 0.2226562,-0.375 V 0.16292969 c 0,-0.1640625 0,-0.375 -0.2109375,-0.375 -0.2226562,0 -0.2226562,0.19921875 -0.2226562,0.375 z m 0,5.9794918 c 0,0.164063 0,0.375 0.2109375,0.375 0.2226562,0 0.2226562,-0.199218 0.2226562,-0.375 V 6.1424219 c 0,-0.1640625 0,-0.375 -0.2109375,-0.375 -0.2226562,0 -0.2226562,0.1992187 -0.2226562,0.375 z m 0,5.976563 c 0,0.164062 0,0.375 0.2109375,0.375 0.2226562,0 0.2226562,-0.199219 0.2226562,-0.375 v -5.648438 c 0,-0.164062 0,-0.375 -0.2109375,-0.375 -0.2226562,0 -0.2226562,0.199219 -0.2226562,0.375 z m 0,0"
         style="fill:#000000;fill-opacity:1;fill-rule:nonzero;stroke:none" />
      <path
         id="path20"
         d="m 12.008859,3.1043359 c 0,-0.1875 -0.01172,-0.1992187 -0.210937,-0.1992187 -0.445313,0.4335937 -1.078125,0.4453125 -1.359375,0.4453125 v 0.2460937 c 0.164062,0 0.621094,0 1.007812,-0.1875 v 3.5507813 c 0,0.234375 0,0.328125 -0.691406,0.328125 h -0.269531 v 0.2460937 c 0.128906,-0.011719 0.984375,-0.023437 1.242187,-0.023437 0.210938,0 1.089844,0.011719 1.242188,0.023437 V 7.2879297 h -0.257813 c -0.703125,0 -0.703125,-0.09375 -0.703125,-0.328125 z m 0,0"
         style="fill:#000000;fill-opacity:1;fill-rule:nonzero;stroke:none" />
    </g>
    <path
       id="path21"
       d="m -137.196,109.588 h 14.29"
       style="fill:none;stroke:#000000;stroke-width:0.3985;stroke-linecap:butt;stroke-linejoin:miter;stroke-miterlimit:10;stroke-dasharray:none;stroke-opacity:1"
       transform="matrix(1.3333333,0,0,-1.3333333,366.94667,230.36)" />
    <g
       id="g21"
       aria-label="z−1&#10;&#10;&#10;&#10;&lt;1"
       transform="matrix(1.3333333,0,0,1.3333333,184.01867,92.144)">
      <path
         id="path22"
         d="m 1.1725234,-0.60897656 c 0.1757813,-0.1875 0.3046875,-0.31640625 0.9023438,-0.79687504 0.140625,-0.1171875 0.6679687,-0.5273437 0.8671875,-0.7265625 0.421875,-0.421875 0.6914062,-0.7734375 0.6914062,-0.8554687 0,-0.082031 -0.09375,-0.082031 -0.1171875,-0.082031 -0.058594,0 -0.082031,0.011719 -0.1171875,0.070312 -0.2226562,0.3164063 -0.3632812,0.421875 -0.5273437,0.421875 -0.09375,0 -0.1992188,-0.011719 -0.3984375,-0.2109375 -0.2460938,-0.234375 -0.3984375,-0.28125 -0.5507813,-0.28125 -0.5625,0 -0.93749996,0.5976563 -0.93749996,0.8085938 0,0.070312 0.0703125,0.082031 0.11718746,0.082031 0.082031,0 0.09375,-0.011719 0.1289063,-0.09375 0.1054687,-0.2460937 0.4921875,-0.2578125 0.5976562,-0.2578125 0.1640625,0 0.3515625,0.046875 0.4453125,0.058594 0.3867188,0.09375 0.4335938,0.09375 0.609375,0.09375 -0.1875,0.1875 -0.3046875,0.3046875 -0.9726562,0.84375 -0.5390625,0.421875 -0.7265625,0.59765624 -0.8671875,0.73828124 -0.41015626,0.41015625 -0.62109376,0.71484375 -0.62109376,0.78515625 0,0.08203125 0.09375,0.08203125 0.1171875,0.08203125 0.0703125,0 0.09375,-0.01171875 0.12890625,-0.0703125025 0.1875,-0.2695312475 0.39843751,-0.4218749975 0.63281251,-0.4218749975 0.082031,0 0.1875,0 0.375,0.17578125 0.2226562,0.2109375 0.3632812,0.31640625 0.5859375,0.31640625 0.7382812,0 1.2070312,-0.84375 1.2070312,-1.07812504 0,-0.082031 -0.070312,-0.09375 -0.1171875,-0.09375 -0.082031,0 -0.09375,0.035156 -0.1289062,0.11718754 -0.1289063,0.33984375 -0.5390625,0.515625 -0.8789063,0.515625 -0.1640625,0 -0.3398437,-0.0351563 -0.515625,-0.0820313 -0.3164062,-0.0703125 -0.375,-0.0703125 -0.4921875,-0.0703125 -0.023437,0 -0.1171875,0 -0.1640625,0.011719 z m 0,0"
         style="fill:#000000;fill-opacity:1;fill-rule:nonzero;stroke:none" />
      <path
         id="path23"
         d="m 9.2848281,-1.5699141 c 0.1054688,0 0.2695313,0 0.2695313,-0.1757812 0,-0.1757813 -0.1523438,-0.1757813 -0.2695313,-0.1757813 H 5.1246719 c -0.1054688,0 -0.28125,0 -0.28125,0.1757813 0,0.1757812 0.1640625,0.1757812 0.28125,0.1757812 z m 0,0"
         style="fill:#000000;fill-opacity:1;fill-rule:nonzero;stroke:none" />
      <path
         id="path24"
         d="m 12.651039,-4.4292891 c 0,-0.1875 -0.01172,-0.1992187 -0.210937,-0.1992187 -0.445313,0.4335937 -1.078125,0.4453125 -1.359375,0.4453125 v 0.2460937 c 0.164062,0 0.621093,0 1.007812,-0.1875 v 3.55078129 c 0,0.234375 0,0.328125 -0.691406,0.328125 H 11.127602 V 3.984375e-4 C 11.256508,-0.01132031 12.111977,-0.02303906 12.369789,-0.02303906 c 0.210938,0 1.089844,0.01171875 1.242188,0.0234374975 V -0.24569531 h -0.257813 c -0.703125,0 -0.703125,-0.09375 -0.703125,-0.328125 z m 0,0"
         style="fill:#000000;fill-opacity:1;fill-rule:nonzero;stroke:none" />
      <path
         id="path25"
         d="m 16.925453,-9.0816328 c 0,0.1640625 0,0.375 0.210938,0.375 0.222656,0 0.222656,-0.1992188 0.222656,-0.375 V -14.73007 c 0,-0.164063 0,-0.375 -0.210938,-0.375 -0.222656,0 -0.222656,0.199218 -0.222656,0.375 z m 0,5.9794922 c 0,0.1640625 0,0.375 0.210938,0.375 0.222656,0 0.222656,-0.1992188 0.222656,-0.375 v -5.6484375 c 0,-0.1640625 0,-0.375 -0.210938,-0.375 -0.222656,0 -0.222656,0.1992187 -0.222656,0.375 z m 0,5.9765625 c 0,0.1640625 0,0.375 0.210938,0.375 0.222656,0 0.222656,-0.1992188 0.222656,-0.375 v -5.6484375 c 0,-0.1640625 0,-0.375 -0.210938,-0.375 -0.222656,0 -0.222656,0.1992187 -0.222656,0.375 z m 0,0"
         style="fill:#000000;fill-opacity:1;fill-rule:nonzero;stroke:none" />
      <path
         id="path26"
         d="m 28.30143,-8.3931563 c 0.117187,-0.058594 0.1875,-0.1171875 0.1875,-0.2226562 0,-0.1054688 -0.09375,-0.1992188 -0.199219,-0.1992188 -0.03516,0 -0.04687,0 -0.175781,0.070312 l -5.519532,2.6015625 c -0.117187,0.046875 -0.1875,0.09375 -0.1875,0.2109375 0,0.1289063 0.07031,0.1757813 0.1875,0.2226563 L 28.11393,-3.108 c 0.128906,0.070312 0.140625,0.070312 0.175781,0.070312 0.105469,0 0.199219,-0.09375 0.199219,-0.1992188 0,-0.1054687 -0.07031,-0.1640625 -0.1875,-0.2226562 l -5.226563,-2.4726563 z m 0,0"
         style="fill:#000000;fill-opacity:1;fill-rule:nonzero;stroke:none" />
      <path
         id="path27"
         d="m 35.019203,-9.811125 c 0,-0.234375 0,-0.257813 -0.234375,-0.257813 -0.609375,0.632813 -1.488281,0.632813 -1.804687,0.632813 v 0.3164062 c 0.199218,0 0.785156,0 1.300781,-0.2578125 v 5.15625 c 0,0.3515625 -0.03516,0.4804688 -0.925781,0.4804688 h -0.316407 v 0.3046875 c 0.351563,-0.035156 1.207032,-0.035156 1.605469,-0.035156 0.398438,0 1.265625,0 1.617188,0.035156 v -0.3046875 h -0.316407 c -0.902343,0 -0.925781,-0.1171875 -0.925781,-0.4804688 z m 0,0"
         style="fill:#000000;fill-opacity:1;fill-rule:nonzero;stroke:none" />
    </g>
    <path
       id="path28"
       d="m 4.2057969,-6.5510156 c 0,-0.1875 0,-0.3632813 -0.1992188,-0.3632813 -0.1992187,0 -0.1992187,0.1875 -0.1992187,0.3632813 v 6.31640622 C 3.4206406,0.22242187 3.1511094,0.76148437 3.0339219,1.0192969 2.9167344,0.74976562 2.6472031,0.21070312 2.2722031,-0.23460938 V -6.5510156 c 0,-0.1875 0,-0.3632813 -0.1992187,-0.3632813 -0.1992188,0 -0.1992188,0.1757813 -0.1992188,0.3632813 v 5.84765622 C 1.4870469,-1.0549219 1.3464219,-1.1486719 1.1823594,-1.2541406 0.85423438,-1.4885156 0.47923438,-1.6994531 0.42064063,-1.6994531 c -0.1171875,0 -0.1171875,0.1171875 -0.1171875,0.1992187 0,0.140625 0,0.1640625 0.12890625,0.2226563 1.53515622,0.79687497 2.19140622,2.00390622 2.50781252,3.1171875 0.011719,0.058594 0.058594,0.082031 0.09375,0.082031 0.082031,0 0.1054687,-0.070312 0.1171875,-0.1054687 0.375,-1.31250003 1.1132812,-2.37890628 2.53125,-3.1171875 0.082031,-0.035156 0.082031,-0.082031 0.082031,-0.1992188 0,-0.082031 0,-0.1992187 -0.1054687,-0.1992187 -0.058594,0 -0.4570313,0.2226562 -0.7734375,0.4335937 -0.1992188,0.1523438 -0.3398438,0.2578125 -0.6796875,0.56250002 z m 0,0"
       style="fill:#000000;fill-opacity:1;fill-rule:nonzero;stroke:none"
       aria-label="⇓"
       transform="matrix(1.3333333,0,0,1.3333333,193.68133,65.18)" />
  </g>
</svg>
