<?xml version="1.0" encoding="UTF-8" standalone="no"?>
<!-- Created with Inkscape (http://www.inkscape.org/) -->

<svg
   version="1.1"
   id="svg1"
   width="157.94667"
   height="153.28"
   viewBox="0 0 157.94667 153.28"
   sodipodi:docname="venn.pdf"
   xmlns:inkscape="http://www.inkscape.org/namespaces/inkscape"
   xmlns:sodipodi="http://sodipodi.sourceforge.net/DTD/sodipodi-0.dtd"
   xmlns="http://www.w3.org/2000/svg"
   xmlns:svg="http://www.w3.org/2000/svg">
  <defs
     id="defs1" />
  <sodipodi:namedview
     id="namedview1"
     pagecolor="#ffffff"
     bordercolor="#000000"
     borderopacity="0.25"
     inkscape:showpageshadow="2"
     inkscape:pageopacity="0.0"
     inkscape:pagecheckerboard="0"
     inkscape:deskcolor="#d1d1d1">
    <inkscape:page
       x="0"
       y="0"
       inkscape:label="1"
       id="page1"
       width="157.94667"
       height="153.28"
       margin="0"
       bleed="0" />
  </sodipodi:namedview>
  <g
     id="g1"
     inkscape:groupmode="layer"
     inkscape:label="1">
    <path
       id="path1"
       d="m 69.491,-70.55803 c 0,31.53996 25.5682,57.10817 57.10817,57.10817 31.53994,0 57.10815,-25.56821 57.10815,-57.10817 0,-31.53993 -25.56821,-57.10817 -57.10815,-57.10817 -31.53997,0 -57.10817,25.56824 -57.10817,57.10817 z"
       style="fill:#f5a623;fill-opacity:0.2;fill-rule:nonzero;stroke:#000000;stroke-width:0.74721;stroke-linecap:butt;stroke-linejoin:miter;stroke-miterlimit:10;stroke-dasharray:none;stroke-opacity:1"
       transform="matrix(1.3333333,0,0,-1.3333333,-87.493333,-17.437333)" />
    <path
       id="path2"
       d="m 69.491,-70.55803 c 0,19.07193 15.46287,34.53481 34.53479,34.53481 19.0764,0 34.53929,-15.46288 34.53929,-34.53481 0,-19.07191 -15.46289,-34.53479 -34.53929,-34.53479 -19.07192,0 -34.53479,15.46288 -34.53479,34.53479 z"
       style="fill:#7ed321;fill-opacity:0.4;fill-rule:nonzero;stroke:#000000;stroke-width:0.74721;stroke-linecap:butt;stroke-linejoin:miter;stroke-miterlimit:10;stroke-dasharray:none;stroke-opacity:1"
       transform="matrix(1.3333333,0,0,-1.3333333,-87.493333,-17.437333)" />
    <path
       id="path3"
       d="m 114.63326,-70.55803 c 0,19.07193 15.46287,34.53481 34.53927,34.53481 19.07193,0 34.53479,-15.46288 34.53479,-34.53481 0,-19.07191 -15.46286,-34.53479 -34.53479,-34.53479 -19.0764,0 -34.53927,15.46288 -34.53927,34.53479 z"
       style="fill:#7ed321;fill-opacity:0.4;fill-rule:nonzero;stroke:#000000;stroke-width:0.74721;stroke-linecap:butt;stroke-linejoin:miter;stroke-miterlimit:10;stroke-dasharray:none;stroke-opacity:1"
       transform="matrix(1.3333333,0,0,-1.3333333,-87.493333,-17.437333)" />
    <text
       id="text3"
       xml:space="preserve"
       transform="matrix(1.3333333,0,0,1.3333333,67.049333,23.058667)"><tspan
         id="tspan3"
         style="font-variant:normal;font-weight:300;font-size:12px;font-family:STSong;writing-mode:lr-tb;fill:#000000;fill-opacity:1;fill-rule:nonzero;stroke:none"
         x="0"
         y="0">收敛</tspan></text>
    <text
       id="text4"
       xml:space="preserve"
       transform="matrix(1.3333333,0,0,1.3333333,28.473333,81.504)"><tspan
         id="tspan4"
         style="font-variant:normal;font-weight:300;font-size:12px;font-family:STSong;writing-mode:lr-tb;fill:#000000;fill-opacity:1;fill-rule:nonzero;stroke:none"
         x="0"
         y="0">绝对</tspan></text>
    <text
       id="text5"
       xml:space="preserve"
       transform="matrix(1.3333333,0,0,1.3333333,102.13733,81.392)"><tspan
         id="tspan5"
         style="font-variant:normal;font-weight:300;font-size:12px;font-family:STSong;writing-mode:lr-tb;fill:#000000;fill-opacity:1;fill-rule:nonzero;stroke:none"
         x="0"
         y="0">一致</tspan></text>
  </g>
</svg>
