<?xml version="1.0" encoding="UTF-8" standalone="no"?>
<!-- Created with Inkscape (http://www.inkscape.org/) -->

<svg
   version="1.1"
   id="svg1"
   width="410.30667"
   height="129.93333"
   viewBox="0 0 410.30667 129.93333"
   sodipodi:docname="zero-isolation-diagram.pdf"
   xmlns:inkscape="http://www.inkscape.org/namespaces/inkscape"
   xmlns:sodipodi="http://sodipodi.sourceforge.net/DTD/sodipodi-0.dtd"
   xmlns="http://www.w3.org/2000/svg"
   xmlns:svg="http://www.w3.org/2000/svg">
  <defs
     id="defs1" />
  <sodipodi:namedview
     id="namedview1"
     pagecolor="#ffffff"
     bordercolor="#000000"
     borderopacity="0.25"
     inkscape:showpageshadow="2"
     inkscape:pageopacity="0.0"
     inkscape:pagecheckerboard="0"
     inkscape:deskcolor="#d1d1d1">
    <inkscape:page
       x="0"
       y="0"
       inkscape:label="1"
       id="page1"
       width="410.30667"
       height="129.93333"
       margin="0"
       bleed="0" />
  </sodipodi:namedview>
  <g
     id="g1"
     inkscape:groupmode="layer"
     inkscape:label="1">
    <path
       id="path1"
       d="m 31.83711,-78.75597 c 16.28322,17.82546 24.70577,14.34644 50.21256,3.18612 25.50679,-11.16035 45.53201,-4.82999 60.47623,-38.30501 14.94421,-33.47504 -78.30765,-39.45272 -106.40276,-19.12859 -28.09514,20.32413 -20.56923,36.41605 -4.28603,54.24748 z"
       style="fill:#f5a623;fill-opacity:0.19;fill-rule:nonzero;stroke:#f5a623;stroke-width:0.74721;stroke-linecap:butt;stroke-linejoin:miter;stroke-miterlimit:10;stroke-dasharray:0.83687, 2.50064;stroke-dashoffset:0;stroke-opacity:1"
       transform="matrix(1.3333333,0,0,-1.3333333,-5.7826667,-74.998667)" />
    <path
       id="path2"
       d="m 102.21239,-95.75052 c 32.81154,-16.67177 19.42747,-47.82147 5.08104,-29.88843 -14.34644,17.93306 -18.60853,0.22118 -29.32653,1.9009 -10.72395,1.68573 -8.56004,44.6593 24.24549,27.98753 z"
       style="fill:#d0021b;fill-opacity:1;fill-rule:nonzero;stroke:#d0021b;stroke-width:1.49442;stroke-linecap:butt;stroke-linejoin:miter;stroke-miterlimit:10;stroke-dasharray:none;stroke-opacity:1"
       transform="matrix(1.3333333,0,0,-1.3333333,-5.7826667,-74.998667)" />
    <path
       id="path3"
       d="m 24.20363,-106.28319 c 0,7.6335 6.18689,13.82039 13.82039,13.82039 7.63351,0 13.8204,-6.18689 13.8204,-13.82039 0,-7.63353 -6.18689,-13.82041 -13.8204,-13.82041 -7.6335,0 -13.82039,6.18688 -13.82039,13.82041 z"
       style="fill:#7ed321;fill-opacity:0.2;fill-rule:nonzero;stroke:#7ed321;stroke-width:0.74721;stroke-linecap:butt;stroke-linejoin:miter;stroke-miterlimit:10;stroke-dasharray:4.48325, 4.48325;stroke-dashoffset:0;stroke-opacity:1"
       transform="matrix(1.3333333,0,0,-1.3333333,-5.7826667,-74.998667)" />
    <path
       id="path4"
       d="m 36.5296,-106.28319 c 0,0.82491 0.6695,1.49442 1.49442,1.49442 0.82493,0 1.49443,-0.66951 1.49443,-1.49442 0,-0.82492 -0.6695,-1.49443 -1.49443,-1.49443 -0.82492,0 -1.49442,0.66951 -1.49442,1.49443 z"
       style="fill:#417505;fill-opacity:1;fill-rule:nonzero;stroke:#417505;stroke-width:0.74721;stroke-linecap:butt;stroke-linejoin:miter;stroke-miterlimit:10;stroke-dasharray:none;stroke-opacity:1"
       transform="matrix(1.3333333,0,0,-1.3333333,-5.7826667,-74.998667)" />
    <path
       id="path5"
       d="m 186.06137,-78.75597 c 16.28322,17.82546 24.70577,14.34644 50.21254,3.18612 25.50678,-11.16035 45.53203,-4.82999 60.47624,-38.30501 14.9442,-33.47504 -78.30768,-39.45272 -106.40278,-19.12859 -28.09511,20.32413 -20.5692,36.41605 -4.286,54.24748 z"
       style="fill:#7ed321;fill-opacity:0.2;fill-rule:nonzero;stroke:#7ed321;stroke-width:0.74721;stroke-linecap:butt;stroke-linejoin:miter;stroke-miterlimit:10;stroke-dasharray:0.83687, 2.50064;stroke-dashoffset:0;stroke-opacity:1"
       transform="matrix(1.3333333,0,0,-1.3333333,-5.7826667,-74.998667)" />
    <path
       id="path6"
       d="m 256.43665,-95.75052 c 32.8115,-16.67177 19.42747,-47.82147 5.08103,-29.88843 -14.34645,17.93306 -18.60855,0.22118 -29.32652,1.9009 -10.72396,1.68573 -8.56004,44.6593 24.24549,27.98753 z"
       style="fill:#d0021b;fill-opacity:1;fill-rule:nonzero;stroke:#d0021b;stroke-width:1.49442;stroke-linecap:butt;stroke-linejoin:miter;stroke-miterlimit:10;stroke-dasharray:none;stroke-opacity:1"
       transform="matrix(1.3333333,0,0,-1.3333333,-5.7826667,-74.998667)" />
    <path
       id="path7"
       d="m 178.42786,-106.28319 c 0,7.6335 6.1869,13.82039 13.82042,13.82039 7.63349,0 13.8204,-6.18689 13.8204,-13.82039 0,-7.63353 -6.18691,-13.82041 -13.8204,-13.82041 -7.63352,0 -13.82042,6.18688 -13.82042,13.82041 z"
       style="fill:none;stroke:#7ed321;stroke-width:0.74721;stroke-linecap:butt;stroke-linejoin:miter;stroke-miterlimit:10;stroke-dasharray:4.48325, 4.48325;stroke-dashoffset:0;stroke-opacity:1"
       transform="matrix(1.3333333,0,0,-1.3333333,-5.7826667,-74.998667)" />
    <path
       id="path8"
       d="m 190.75386,-106.28319 c 0,0.82491 0.6695,1.49442 1.49442,1.49442 0.82492,0 1.49441,-0.66951 1.49441,-1.49442 0,-0.82492 -0.66949,-1.49443 -1.49441,-1.49443 -0.82492,0 -1.49442,0.66951 -1.49442,1.49443 z"
       style="fill:#417505;fill-opacity:1;fill-rule:nonzero;stroke:#417505;stroke-width:0.74721;stroke-linecap:butt;stroke-linejoin:miter;stroke-miterlimit:10;stroke-dasharray:none;stroke-opacity:1"
       transform="matrix(1.3333333,0,0,-1.3333333,-5.7826667,-74.998667)" />
    <path
       id="path9"
       d="m 2.2491953,-1.0656719 c -0.1289062,0.50390628 -0.1523437,0.65625003 -1.1601562,0.65625003 -0.26953129,0 -0.41015629,0 -0.41015629,0.2578125 0,0.152343745 0.0820313,0.152343745 0.36328129,0.152343745 h 4.546875 c 2.90625,0 5.7304689,-2.999999975 5.7304689,-6.199218775 0,-2.0625 -1.242188,-3.5976562 -3.2929689,-3.5976562 h -4.59375 c -0.28125,0 -0.4101563,0 -0.4101563,0.2695312 0,0.1523438 0.1289063,0.1523438 0.3515625,0.1523438 0.8671875,0 0.8671875,0.1054687 0.8671875,0.2695312 0,0.023437 0,0.1171875 -0.058594,0.328125 z m 3.0234375,-7.7578125 c 0.1289063,-0.5273437 0.1875,-0.5507812 0.75,-0.5507812 h 1.5820313 c 1.3476562,0 2.5781249,0.7265625 2.5781249,2.7070312 0,0.7148438 -0.2812499,3.2109375 -1.6757812,4.7929688 -0.3984375,0.46875 -1.4882812,1.46484373 -3.140625,1.46484373 h -1.640625 c -0.1992187,0 -0.2226562,0 -0.3164062,-0.0234375 -0.1523438,-0.0117188 -0.1640625,-0.0351563 -0.1640625,-0.15234375 0,-0.10546875 0.023437,-0.1875 0.058594,-0.31640625 z m 0,0"
       style="fill:#f5a623;fill-opacity:1;fill-rule:nonzero;stroke:none"
       aria-label="D"
       transform="matrix(1.3333333,0,0,1.3333333,113.93467,15.069333)" />
    <path
       id="path10"
       d="m 3.7147734,-3.7611797 c -0.1757812,-0.375 -0.46875,-0.6445312 -0.9140625,-0.6445312 -1.171875,0 -2.40234371,1.4648437 -2.40234371,2.9179687 0,0.93750001 0.55078125,1.59375001 1.32421871,1.59375001 0.1992188,0 0.703125,-0.03515625 1.3007813,-0.73828125 0.070312,0.41015625 0.421875,0.73828125 0.9023437,0.73828125 0.3515625,0 0.5742188,-0.22265625 0.7382813,-0.5390625 0.1640625,-0.36328125 0.2929687,-0.97265621 0.2929687,-0.99609371 0,-0.09375 -0.082031,-0.09375 -0.1171875,-0.09375 -0.09375,0 -0.1054687,0.035156 -0.140625,0.1757812 -0.1640625,0.64453126 -0.3515625,1.24218751 -0.75,1.24218751 -0.2695312,0 -0.3046875,-0.2578125 -0.3046875,-0.45703125 0,-0.22265625 0.023437,-0.3046875 0.1289063,-0.73828126 0.1171875,-0.421875 0.1289062,-0.5273437 0.2226562,-0.9023437 l 0.3515625,-1.3945313 c 0.070312,-0.28125 0.070312,-0.2929687 0.070312,-0.3398437 0,-0.1640625 -0.1171875,-0.2695313 -0.28125,-0.2695313 -0.2460937,0 -0.3867187,0.2226563 -0.4218745,0.4453125 z m -0.6445312,2.578125 c -0.046875,0.1757813 -0.046875,0.19921876 -0.1992188,0.36328126 -0.4453125,0.55078125 -0.84375,0.71484375 -1.125,0.71484375 -0.5039062,0 -0.6445312,-0.55078125 -0.6445312,-0.93750001 0,-0.5039062 0.328125,-1.7226562 0.5507812,-2.1796875 0.3046875,-0.5976562 0.7617188,-0.9609375 1.1601563,-0.9609375 0.6445312,0 0.7851562,0.8203125 0.7851562,0.8789063 0,0.058594 -0.023437,0.1171875 -0.035156,0.1640625 z m 0,0"
       style="fill:#417505;fill-opacity:1;fill-rule:nonzero;stroke:none"
       aria-label="a"
       transform="matrix(1.3333333,0,0,1.3333333,48.004,76.636)" />
    <path
       id="path11"
       d="m 2.2498047,-1.0656719 c -0.1289063,0.50390628 -0.1523438,0.65625003 -1.1601563,0.65625003 -0.26953121,0 -0.41015621,0 -0.41015621,0.2578125 0,0.152343745 0.0820313,0.152343745 0.36328121,0.152343745 h 4.546875 c 2.90625,0 5.7304686,-2.999999975 5.7304686,-6.199218775 0,-2.0625 -1.242187,-3.5976562 -3.2929686,-3.5976562 h -4.59375 c -0.28125,0 -0.4101562,0 -0.4101562,0.2695312 0,0.1523438 0.1289062,0.1523438 0.3515625,0.1523438 0.8671875,0 0.8671875,0.1054687 0.8671875,0.2695312 0,0.023437 0,0.1171875 -0.058594,0.328125 z m 3.0234375,-7.7578125 c 0.1289062,-0.5273437 0.1875,-0.5507812 0.75,-0.5507812 h 1.5820312 c 1.3476563,0 2.5781246,0.7265625 2.5781246,2.7070312 0,0.7148438 -0.2812496,3.2109375 -1.6757808,4.7929688 -0.3984375,0.46875 -1.4882813,1.46484373 -3.140625,1.46484373 h -1.640625 c -0.1992188,0 -0.2226563,0 -0.3164063,-0.0234375 -0.1523437,-0.0117188 -0.1640625,-0.0351563 -0.1640625,-0.15234375 0,-0.10546875 0.023437,-0.1875 0.058594,-0.31640625 z m 0,0"
       style="fill:#f5a623;fill-opacity:1;fill-rule:nonzero;stroke:none"
       aria-label="D"
       transform="matrix(1.3333333,0,0,1.3333333,319.56667,15.069333)" />
    <path
       id="path12"
       d="m 3.7143828,-3.7611797 c -0.1757812,-0.375 -0.46875,-0.6445312 -0.9140625,-0.6445312 -1.171875,0 -2.40234374,1.4648437 -2.40234374,2.9179687 0,0.93750001 0.55078125,1.59375001 1.32421874,1.59375001 0.1992188,0 0.703125,-0.03515625 1.3007813,-0.73828125 0.070312,0.41015625 0.421875,0.73828125 0.9023437,0.73828125 0.3515625,0 0.5742188,-0.22265625 0.7382813,-0.5390625 0.1640625,-0.36328125 0.2929687,-0.97265621 0.2929687,-0.99609371 0,-0.09375 -0.082031,-0.09375 -0.1171875,-0.09375 -0.09375,0 -0.1054687,0.035156 -0.140625,0.1757812 -0.1640625,0.64453126 -0.3515625,1.24218751 -0.75,1.24218751 -0.2695312,0 -0.3046875,-0.2578125 -0.3046875,-0.45703125 0,-0.22265625 0.023437,-0.3046875 0.1289063,-0.73828126 0.1171875,-0.421875 0.1289062,-0.5273437 0.2226562,-0.9023437 l 0.3515625,-1.3945313 c 0.070312,-0.28125 0.070312,-0.2929687 0.070312,-0.3398437 0,-0.1640625 -0.1171875,-0.2695313 -0.28125,-0.2695313 -0.2460937,0 -0.3867187,0.2226563 -0.4218745,0.4453125 z m -0.6445312,2.578125 c -0.046875,0.1757813 -0.046875,0.19921876 -0.1992188,0.36328126 -0.4453125,0.55078125 -0.84375,0.71484375 -1.125,0.71484375 -0.5039062,0 -0.6445312,-0.55078125 -0.6445312,-0.93750001 0,-0.5039062 0.328125,-1.7226562 0.5507812,-2.1796875 0.3046875,-0.5976562 0.7617188,-0.9609375 1.1601563,-0.9609375 0.6445312,0 0.7851562,0.8203125 0.7851562,0.8789063 0,0.058594 -0.023437,0.1171875 -0.035156,0.1640625 z m 0,0"
       style="fill:#417505;fill-opacity:1;fill-rule:nonzero;stroke:none"
       aria-label="a"
       transform="matrix(1.3333333,0,0,1.3333333,253.63733,76.636)" />
  </g>
</svg>
