<?xml version="1.0" encoding="UTF-8" standalone="no"?>
<!-- Created with Inkscape (http://www.inkscape.org/) -->

<svg
   version="1.1"
   id="svg1"
   width="168.44"
   height="164.01334"
   viewBox="0 0 168.44 164.01334"
   sodipodi:docname="zero-isolation.pdf"
   xmlns:inkscape="http://www.inkscape.org/namespaces/inkscape"
   xmlns:sodipodi="http://sodipodi.sourceforge.net/DTD/sodipodi-0.dtd"
   xmlns="http://www.w3.org/2000/svg"
   xmlns:svg="http://www.w3.org/2000/svg">
  <defs
     id="defs1" />
  <sodipodi:namedview
     id="namedview1"
     pagecolor="#ffffff"
     bordercolor="#000000"
     borderopacity="0.25"
     inkscape:showpageshadow="2"
     inkscape:pageopacity="0.0"
     inkscape:pagecheckerboard="0"
     inkscape:deskcolor="#d1d1d1">
    <inkscape:page
       x="0"
       y="0"
       inkscape:label="1"
       id="page1"
       width="168.44"
       height="164.01334"
       margin="0"
       bleed="0" />
  </sodipodi:namedview>
  <g
     id="g1"
     inkscape:groupmode="layer"
     inkscape:label="1">
    <path
       id="path1"
       d="M 121.80626,-99.3154 H 105.0898"
       style="fill:none;stroke:#8b572a;stroke-width:0.74721;stroke-linecap:butt;stroke-linejoin:miter;stroke-miterlimit:10;stroke-dasharray:none;stroke-opacity:1"
       transform="matrix(1.3333333,0,0,-1.3333333,-75.974667,-50.413333)" />
    <path
       id="path2"
       d="m 60.67299,-99.3154 c 0,33.76242 27.37083,61.13327 61.13327,61.13327 33.76242,0 61.13325,-27.37085 61.13325,-61.13327 0,-33.76242 -27.37083,-61.13327 -61.13325,-61.13327 -33.76244,0 -61.13327,27.37085 -61.13327,61.13327 z"
       style="fill:#7ed321;fill-opacity:0.2;fill-rule:nonzero;stroke:#000000;stroke-width:0.74721;stroke-linecap:butt;stroke-linejoin:miter;stroke-miterlimit:10;stroke-dasharray:0.83687, 2.50064;stroke-dashoffset:0;stroke-opacity:1"
       transform="matrix(1.3333333,0,0,-1.3333333,-75.974667,-50.413333)" />
    <path
       id="path3"
       d="m 119.71408,-99.3154 c 0,1.15593 0.93625,2.09218 2.09218,2.09218 1.15591,0 2.09216,-0.93625 2.09216,-2.09218 0,-1.15593 -0.93625,-2.09218 -2.09216,-2.09218 -1.15593,0 -2.09218,0.93625 -2.09218,2.09218 z"
       style="fill:#000000;fill-opacity:1;fill-rule:nonzero;stroke:#000000;stroke-width:0.74721;stroke-linecap:butt;stroke-linejoin:miter;stroke-miterlimit:10;stroke-dasharray:none;stroke-opacity:1"
       transform="matrix(1.3333333,0,0,-1.3333333,-75.974667,-50.413333)" />
    <path
       id="path4"
       d="m 93.03888,-133.83624 c 0,1.15593 0.93625,2.09216 2.09218,2.09216 1.15593,0 2.09216,-0.93623 2.09216,-2.09216 0,-1.15592 -0.93623,-2.09218 -2.09216,-2.09218 -1.15593,0 -2.09218,0.93626 -2.09218,2.09218 z"
       style="fill:#000000;fill-opacity:1;fill-rule:nonzero;stroke:#000000;stroke-width:0.74721;stroke-linecap:butt;stroke-linejoin:miter;stroke-miterlimit:10;stroke-dasharray:none;stroke-opacity:1"
       transform="matrix(1.3333333,0,0,-1.3333333,-75.974667,-50.413333)" />
    <path
       id="path5"
       d="m 161.03448,-100.88454 c 0,1.15594 0.93624,2.09218 2.09218,2.09218 1.15592,0 2.09217,-0.93624 2.09217,-2.09218 0,-1.15591 -0.93625,-2.09216 -2.09217,-2.09216 -1.15594,0 -2.09218,0.93625 -2.09218,2.09216 z"
       style="fill:#000000;fill-opacity:1;fill-rule:nonzero;stroke:#000000;stroke-width:0.74721;stroke-linecap:butt;stroke-linejoin:miter;stroke-miterlimit:10;stroke-dasharray:none;stroke-opacity:1"
       transform="matrix(1.3333333,0,0,-1.3333333,-75.974667,-50.413333)" />
    <path
       id="path6"
       d="m 105.0898,-99.3154 c 0,9.23172 7.48474,16.71646 16.71646,16.71646 9.2317,0 16.71644,-7.48474 16.71644,-16.71646 0,-9.2317 -7.48474,-16.71646 -16.71644,-16.71646 -9.23172,0 -16.71646,7.48476 -16.71646,16.71646 z"
       style="fill:#7ed321;fill-opacity:0.2;fill-rule:nonzero;stroke:#000000;stroke-width:1.49442;stroke-linecap:butt;stroke-linejoin:miter;stroke-miterlimit:10;stroke-dasharray:1.6837, 2.74971;stroke-dashoffset:0;stroke-opacity:1"
       transform="matrix(1.3333333,0,0,-1.3333333,-75.974667,-50.413333)" />
    <path
       id="path7"
       d="m 3.7160078,-3.7604063 c -0.1757812,-0.375 -0.46875,-0.6445312 -0.9140625,-0.6445312 -1.171875,0 -2.40234374,1.4648437 -2.40234374,2.9179687 0,0.93750005 0.55078125,1.59375005 1.32421874,1.59375005 0.1992188,0 0.703125,-0.03515625 1.3007813,-0.73828125 0.070312,0.41015625 0.421875,0.73828125 0.9023437,0.73828125 0.3515625,0 0.5742188,-0.22265625 0.7382813,-0.5390625 0.1640625,-0.36328125 0.2929687,-0.97265625 0.2929687,-0.99609375 0,-0.09375 -0.082031,-0.09375 -0.1171875,-0.09375 -0.09375,0 -0.1054687,0.035156 -0.140625,0.1757812 -0.1640625,0.6445313 -0.3515625,1.24218755 -0.75,1.24218755 -0.2695312,0 -0.3046875,-0.2578125 -0.3046875,-0.45703125 0,-0.22265625 0.023437,-0.3046875 0.1289063,-0.7382813 0.1171875,-0.421875 0.1289062,-0.5273437 0.2226562,-0.9023437 l 0.3515625,-1.3945313 c 0.070312,-0.28125 0.070312,-0.2929687 0.070312,-0.3398437 0,-0.1640625 -0.1171875,-0.2695313 -0.28125,-0.2695313 -0.2460937,0 -0.3867187,0.2226563 -0.4218745,0.4453125 z m -0.6445312,2.578125 C 3.0246016,-1.0065 3.0246016,-0.9830625 2.8722578,-0.819 c -0.4453125,0.55078125 -0.84375,0.71484375 -1.125,0.71484375 -0.5039062,0 -0.6445312,-0.55078125 -0.6445312,-0.93750005 0,-0.5039062 0.328125,-1.7226562 0.5507812,-2.1796875 0.3046875,-0.5976562 0.7617188,-0.9609375 1.1601563,-0.9609375 0.6445312,0 0.7851562,0.8203125 0.7851562,0.8789063 0,0.058594 -0.023437,0.1171875 -0.035156,0.1640625 z m 0,0"
       style="fill:#000000;fill-opacity:1;fill-rule:nonzero;stroke:none"
       aria-label="a"
       transform="matrix(1.3333333,0,0,1.3333333,89.322667,91.592)" />
    <path
       id="path8"
       d="m 2.9651563,-2.2505313 c 0.1640625,0 0.3398437,0 0.3398437,-0.1757812 0,-0.1289063 -0.1171875,-0.1289063 -0.28125,-0.1289063 H 1.4065625 c 0.234375,-0.8554687 0.796875,-1.4296875 1.6992188,-1.4296875 h 0.3164062 c 0.1640625,0 0.328125,0 0.328125,-0.1640625 0,-0.140625 -0.1289062,-0.140625 -0.3046875,-0.140625 H 3.0940625 c -1.2890625,0 -2.625,0.9960938 -2.625,2.5195313 0,1.08984375 0.75,1.875 1.8046875,1.875 0.6445313,0 1.2890625,-0.3984375 1.2890625,-0.50390625 0,-0.0351563 -0.011719,-0.140625 -0.09375,-0.140625 -0.023437,0 -0.046875,0 -0.1289062,0.0585938 -0.3164063,0.19921875 -0.6796875,0.375 -1.0429688,0.375 -0.5859375,0 -1.078125,-0.421875 -1.078125,-1.30078135 0,-0.3515625 0.082031,-0.7265625 0.1054688,-0.84375 z m 0,0"
       style="fill:#8b572a;fill-opacity:1;fill-rule:nonzero;stroke:none"
       aria-label="ϵ"
       transform="matrix(1.3333333,0,0,1.3333333,72.593333,78.141333)" />
  </g>
</svg>
