<?xml version="1.0" encoding="UTF-8" standalone="no"?>
<!-- Created with Inkscape (http://www.inkscape.org/) -->

<svg
   version="1.1"
   id="svg1"
   width="333.57333"
   height="253.84"
   viewBox="0 0 333.57333 253.84"
   sodipodi:docname="B3-with-NS.pdf"
   xmlns:inkscape="http://www.inkscape.org/namespaces/inkscape"
   xmlns:sodipodi="http://sodipodi.sourceforge.net/DTD/sodipodi-0.dtd"
   xmlns="http://www.w3.org/2000/svg"
   xmlns:svg="http://www.w3.org/2000/svg">
  <defs
     id="defs1" />
  <sodipodi:namedview
     id="namedview1"
     pagecolor="#ffffff"
     bordercolor="#000000"
     borderopacity="0.25"
     inkscape:showpageshadow="2"
     inkscape:pageopacity="0.0"
     inkscape:pagecheckerboard="0"
     inkscape:deskcolor="#d1d1d1">
    <inkscape:page
       x="0"
       y="0"
       inkscape:label="1"
       id="page1"
       width="333.57333"
       height="253.84"
       margin="0"
       bleed="0" />
  </sodipodi:namedview>
  <g
     id="g1"
     inkscape:groupmode="layer"
     inkscape:label="1">
    <path
       id="path1"
       d="m 144.95828,-106.10349 c 0,35.07393 28.43872,63.51265 63.51265,63.51265 35.08139,0 63.51265,-28.43872 63.51265,-63.51265 0,-35.08139 -28.43126,-63.51264 -63.51265,-63.51264 -35.07393,0 -63.51265,28.43125 -63.51265,63.51264 z"
       style="fill:#4a90e2;fill-opacity:0.1;fill-rule:nonzero;stroke:#4a90e2;stroke-width:1.49442;stroke-linecap:butt;stroke-linejoin:miter;stroke-miterlimit:10;stroke-dasharray:none;stroke-opacity:1"
       transform="matrix(1.3333333,0,0,-1.3333333,-112.63733,-13.473333)" />
    <path
       id="path2"
       d="m 177.75322,-159.6409 c 0,3.99756 13.75609,7.23297 30.71771,7.23297 16.96909,0 30.71768,-3.23541 30.71768,-7.23297 0,-3.99008 -13.74859,-7.22551 -30.71768,-7.22551 -16.96162,0 -30.71771,3.23543 -30.71771,7.22551 z"
       style="fill:#4a90e2;fill-opacity:0.2;fill-rule:nonzero;stroke:#4a90e2;stroke-width:0.74721;stroke-linecap:butt;stroke-linejoin:miter;stroke-miterlimit:10;stroke-dasharray:4.48325, 4.48325;stroke-dashoffset:0;stroke-opacity:1"
       transform="matrix(1.3333333,0,0,-1.3333333,-112.63733,-13.473333)" />
    <path
       id="path3"
       d="m 144.95828,-106.10349 c 0,8.24918 28.43872,14.94416 63.51265,14.94416 35.08139,0 63.51265,-6.69498 63.51265,-14.94416 0,-8.25661 -28.43126,-14.94415 -63.51265,-14.94415 -35.07393,0 -63.51265,6.68754 -63.51265,14.94415 z"
       style="fill:#4a90e2;fill-opacity:0.2;fill-rule:nonzero;stroke:#4a90e2;stroke-width:0.74721;stroke-linecap:butt;stroke-linejoin:miter;stroke-miterlimit:10;stroke-dasharray:4.48325, 4.48325;stroke-dashoffset:0;stroke-opacity:1"
       transform="matrix(1.3333333,0,0,-1.3333333,-112.63733,-13.473333)" />
    <path
       id="path4"
       d="m 208.47093,-106.10349 26.1971,37.09888"
       style="fill:none;stroke:#9b9b9b;stroke-width:0.74721;stroke-linecap:butt;stroke-linejoin:miter;stroke-miterlimit:10;stroke-dasharray:none;stroke-opacity:1"
       transform="matrix(1.3333333,0,0,-1.3333333,-112.63733,-13.473333)" />
    <path
       id="path5"
       d="m 208.47093,-10.47585 v -95.62764"
       style="fill:none;stroke:#9b9b9b;stroke-width:0.74721;stroke-linecap:butt;stroke-linejoin:miter;stroke-miterlimit:10;stroke-dasharray:none;stroke-opacity:1"
       transform="matrix(1.3333333,0,0,-1.3333333,-112.63733,-13.473333)" />
    <path
       id="path6"
       d="m 166.2537,-60.59853 c 0,5.51439 18.994,9.9827 42.42643,9.9827 23.43243,0 42.42647,-4.46831 42.42647,-9.9827 0,-5.51439 -18.99404,-9.98269 -42.42647,-9.98269 -23.43243,0 -42.42643,4.4683 -42.42643,9.98269 z"
       style="fill:#4a90e2;fill-opacity:0.2;fill-rule:nonzero;stroke:#4a90e2;stroke-width:0.74721;stroke-linecap:butt;stroke-linejoin:miter;stroke-miterlimit:10;stroke-dasharray:4.48325, 4.48325;stroke-dashoffset:0;stroke-opacity:1"
       transform="matrix(1.3333333,0,0,-1.3333333,-112.63733,-13.473333)" />
    <path
       id="path7"
       d="m 208.47093,-106.10349 h 99.04984"
       style="fill:none;stroke:#9b9b9b;stroke-width:0.74721;stroke-linecap:butt;stroke-linejoin:miter;stroke-miterlimit:10;stroke-dasharray:none;stroke-opacity:1"
       transform="matrix(1.3333333,0,0,-1.3333333,-112.63733,-13.473333)" />
    <path
       id="path8"
       d="m 232.8,-69.00461 c 0,1.03861 0.83687,1.86801 1.86803,1.86801 1.03114,0 1.86801,-0.8294 1.86801,-1.86801 0,-1.03114 -0.83687,-1.86802 -1.86801,-1.86802 -1.03116,0 -1.86803,0.83688 -1.86803,1.86802 z"
       style="fill:#4a90e2;fill-opacity:1;fill-rule:nonzero;stroke:#4a90e2;stroke-width:0.74721;stroke-linecap:butt;stroke-linejoin:miter;stroke-miterlimit:10;stroke-dasharray:none;stroke-opacity:1"
       transform="matrix(1.3333333,0,0,-1.3333333,-112.63733,-13.473333)" />
    <path
       id="path9"
       d="M 208.47093,-106.10349 138.11385,-176.468"
       style="fill:none;stroke:#9b9b9b;stroke-width:0.74721;stroke-linecap:butt;stroke-linejoin:miter;stroke-miterlimit:10;stroke-dasharray:none;stroke-opacity:1"
       transform="matrix(1.3333333,0,0,-1.3333333,-112.63733,-13.473333)" />
    <path
       id="path10"
       d="m 206.6029,-121.04764 c 0,1.03116 0.83687,1.86803 1.86803,1.86803 1.03115,0 1.86801,-0.83687 1.86801,-1.86803 0,-1.03114 -0.83686,-1.86801 -1.86801,-1.86801 -1.03116,0 -1.86803,0.83687 -1.86803,1.86801 z"
       style="fill:#4a90e2;fill-opacity:1;fill-rule:nonzero;stroke:#4a90e2;stroke-width:0.74721;stroke-linecap:butt;stroke-linejoin:miter;stroke-miterlimit:10;stroke-dasharray:none;stroke-opacity:1"
       transform="matrix(1.3333333,0,0,-1.3333333,-112.63733,-13.473333)" />
    <path
       id="path11"
       d="m 280.95007,-69.49031 c -13.66642,5.53682 -28.92444,5.6788 -45.04168,0.86677"
       style="fill:none;stroke:#4a90e2;stroke-width:0.74721;stroke-linecap:butt;stroke-linejoin:miter;stroke-miterlimit:10;stroke-dasharray:none;stroke-opacity:1"
       transform="matrix(1.3333333,0,0,-1.3333333,-112.63733,-13.473333)" />
    <path
       id="path12"
       d="m 241.72658,-64.21805 c -2.41576,-2.23637 -4.76548,-3.83352 -7.05855,-4.78656 2.42703,0.52526 5.26805,0.55377 8.52791,0.09496"
       style="fill:none;stroke:#4a90e2;stroke-width:0.74721;stroke-linecap:butt;stroke-linejoin:miter;stroke-miterlimit:10;stroke-dasharray:none;stroke-opacity:1"
       transform="matrix(1.3333333,0,0,-1.3333333,-112.63733,-13.473333)" />
    <path
       id="path13"
       d="m 280.95007,-69.49031 c -13.73369,5.56671 -54.55365,-36.59821 -69.71449,-50.72792"
       style="fill:none;stroke:#4a90e2;stroke-width:0.74721;stroke-linecap:butt;stroke-linejoin:miter;stroke-miterlimit:10;stroke-dasharray:none;stroke-opacity:1"
       transform="matrix(1.3333333,0,0,-1.3333333,-112.63733,-13.473333)" />
    <path
       id="path14"
       d="m 214.6864,-113.71051 c -1.23309,-3.05231 -2.67872,-5.49815 -4.34746,-7.33713 1.97214,1.509 4.5304,2.74489 7.67517,3.71826"
       style="fill:none;stroke:#4a90e2;stroke-width:0.74721;stroke-linecap:butt;stroke-linejoin:miter;stroke-miterlimit:10;stroke-dasharray:none;stroke-opacity:1"
       transform="matrix(1.3333333,0,0,-1.3333333,-112.63733,-13.473333)" />
    <path
       id="path15"
       d="m 206.6029,-106.10349 c 0,1.03116 0.83687,1.86803 1.86803,1.86803 1.03115,0 1.86801,-0.83687 1.86801,-1.86803 0,-1.03114 -0.83686,-1.86801 -1.86801,-1.86801 -1.03116,0 -1.86803,0.83687 -1.86803,1.86801 z"
       style="fill:#9013fe;fill-opacity:1;fill-rule:nonzero;stroke:#9013fe;stroke-width:0.74721;stroke-linecap:butt;stroke-linejoin:miter;stroke-miterlimit:10;stroke-dasharray:none;stroke-opacity:1"
       transform="matrix(1.3333333,0,0,-1.3333333,-112.63733,-13.473333)" />
    <path
       id="path16"
       d="m 140.06406,-76.01341 c -2.92905,-19.03887 42.93455,-33.29557 66.96476,-30.29927"
       style="fill:none;stroke:#9013fe;stroke-width:0.74721;stroke-linecap:butt;stroke-linejoin:miter;stroke-miterlimit:10;stroke-dasharray:none;stroke-opacity:1"
       transform="matrix(1.3333333,0,0,-1.3333333,-112.63733,-13.473333)" />
    <path
       id="path17"
       d="m 200.7971,-109.82487 c 2.71238,1.86561 5.26744,3.10813 7.67383,3.72138 -2.47741,-0.17063 -5.29301,0.20984 -8.45299,1.13285"
       style="fill:none;stroke:#9013fe;stroke-width:0.74721;stroke-linecap:butt;stroke-linejoin:miter;stroke-miterlimit:10;stroke-dasharray:none;stroke-opacity:1"
       transform="matrix(1.3333333,0,0,-1.3333333,-112.63733,-13.473333)" />
    <path
       id="path18"
       d="m 217.06381,-152.43036 c 0,1.03116 0.83687,1.86803 1.86803,1.86803 1.03114,0 1.86801,-0.83687 1.86801,-1.86803 0,-1.03114 -0.83687,-1.86801 -1.86801,-1.86801 -1.03116,0 -1.86803,0.83687 -1.86803,1.86801 z"
       style="fill:#4a90e2;fill-opacity:1;fill-rule:nonzero;stroke:#4a90e2;stroke-width:0.74721;stroke-linecap:butt;stroke-linejoin:miter;stroke-miterlimit:10;stroke-dasharray:none;stroke-opacity:1"
       transform="matrix(1.3333333,0,0,-1.3333333,-112.63733,-13.473333)" />
    <path
       id="path19"
       d="M 280.95007,-69.49031 219.82848,-151.2348"
       style="fill:none;stroke:#4a90e2;stroke-width:0.74721;stroke-linecap:butt;stroke-linejoin:miter;stroke-miterlimit:10;stroke-dasharray:none;stroke-opacity:1"
       transform="matrix(1.3333333,0,0,-1.3333333,-112.63733,-13.473333)" />
    <path
       id="path20"
       d="m 221.8541,-144.41798 c -0.65004,-3.22724 -1.62063,-5.89752 -2.92226,-8.01238 1.66061,1.84638 3.94763,3.53224 6.85951,5.06802"
       style="fill:none;stroke:#4a90e2;stroke-width:0.74721;stroke-linecap:butt;stroke-linejoin:miter;stroke-miterlimit:10;stroke-dasharray:none;stroke-opacity:1"
       transform="matrix(1.3333333,0,0,-1.3333333,-112.63733,-13.473333)" />
    <path
       id="path21"
       d="m 251.1066,-60.59853 c 0,-5.51439 -18.99404,-9.98269 -42.42647,-9.98269 -23.43243,0 -42.42643,4.4683 -42.42643,9.98269 h 42.42643 z"
       style="fill:none;stroke:#000000;stroke-width:0.74721;stroke-linecap:butt;stroke-linejoin:miter;stroke-miterlimit:10;stroke-dasharray:none;stroke-opacity:0"
       transform="matrix(1.3333333,0,0,-1.3333333,-112.63733,-13.473333)" />
    <path
       id="path22"
       d="m 251.1066,-60.59853 c 0,-5.51439 -18.99404,-9.98269 -42.42647,-9.98269 -23.43243,0 -42.42643,4.4683 -42.42643,9.98269"
       style="fill:none;stroke:#4a90e2;stroke-width:0.74721;stroke-linecap:butt;stroke-linejoin:miter;stroke-miterlimit:10;stroke-dasharray:none;stroke-opacity:1"
       transform="matrix(1.3333333,0,0,-1.3333333,-112.63733,-13.473333)" />
    <path
       id="path23"
       d="m 271.96115,-105.64767 c 0.0149,-0.15693 0.0224,-0.30636 0.0224,-0.45582 0,-8.25661 -28.43126,-14.94415 -63.51265,-14.94415 -35.07393,0 -63.51265,6.68754 -63.51265,14.94415 h 63.51265 l 63.49022,0.45582 z"
       style="fill:none;stroke:#000000;stroke-width:0.74721;stroke-linecap:butt;stroke-linejoin:miter;stroke-miterlimit:10;stroke-dasharray:none;stroke-opacity:0"
       transform="matrix(1.3333333,0,0,-1.3333333,-112.63733,-13.473333)" />
    <path
       id="path24"
       d="m 271.96115,-105.64767 c 0.0149,-0.15693 0.0224,-0.30636 0.0224,-0.45582 0,-8.25661 -28.43126,-14.94415 -63.51265,-14.94415 -35.07393,0 -63.51265,6.68754 -63.51265,14.94415"
       style="fill:none;stroke:#4a90e2;stroke-width:0.74721;stroke-linecap:butt;stroke-linejoin:miter;stroke-miterlimit:10;stroke-dasharray:none;stroke-opacity:1"
       transform="matrix(1.3333333,0,0,-1.3333333,-112.63733,-13.473333)" />
    <path
       id="path25"
       d="m 239.18861,-159.6409 c 0,-3.99008 -13.74859,-7.22551 -30.71768,-7.22551 -16.96162,0 -30.71771,3.23543 -30.71771,7.22551 0,0 0,0 0,0 h 30.71771 z"
       style="fill:none;stroke:#000000;stroke-width:0.74721;stroke-linecap:butt;stroke-linejoin:miter;stroke-miterlimit:10;stroke-dasharray:none;stroke-opacity:0"
       transform="matrix(1.3333333,0,0,-1.3333333,-112.63733,-13.473333)" />
    <path
       id="path26"
       d="m 239.18861,-159.6409 c 0,-3.99008 -13.74859,-7.22551 -30.71768,-7.22551 -16.96162,0 -30.71771,3.23543 -30.71771,7.22551 0,0 0,0 0,0"
       style="fill:none;stroke:#4a90e2;stroke-width:0.74721;stroke-linecap:butt;stroke-linejoin:miter;stroke-miterlimit:10;stroke-dasharray:none;stroke-opacity:1"
       transform="matrix(1.3333333,0,0,-1.3333333,-112.63733,-13.473333)" />
    <g
       id="g26"
       aria-label="x&#10;1"
       transform="matrix(1.3333333,0,0,1.3333333,64.738667,237.512)">
      <path
         id="path27"
         d="m 3.3278359,-3.0119297 c 0.058594,-0.2578125 0.2929688,-1.171875 0.984375,-1.171875 0.046875,0 0.2929688,0 0.5039063,0.1289063 -0.28125,0.046875 -0.4804688,0.3046875 -0.4804688,0.5390625 0,0.1640625 0.1054688,0.3515625 0.375,0.3515625 0.2226563,0 0.5390625,-0.1875 0.5390625,-0.5859375 0,-0.515625 -0.5859375,-0.65625 -0.9257812,-0.65625 -0.5742188,0 -0.9257813,0.5273437 -1.0429688,0.7617187 -0.2578125,-0.65625 -0.7851562,-0.7617187 -1.078125,-0.7617187 -1.0429687,0 -1.60546871,1.2890625 -1.60546871,1.5351562 0,0.1054688 0.10546875,0.1054688 0.1171875,0.1054688 0.0820313,0 0.1171875,-0.023437 0.12890625,-0.1171875 0.33984376,-1.0546875 0.99609376,-1.3007813 1.33593746,-1.3007813 0.1875,0 0.5390625,0.09375 0.5390625,0.6679688 0,0.3046875 -0.1640625,0.9726562 -0.5390625,2.3671875 -0.1523437,0.62109371 -0.5039062,1.04296871 -0.9492187,1.04296871 -0.058594,0 -0.28125001,0 -0.49218751,-0.12890625 0.24609375,-0.0585938 0.46875001,-0.26953125 0.46875001,-0.5390625 0,-0.26953126 -0.22265626,-0.35156246 -0.37500001,-0.35156246 -0.29296875,0 -0.5390625,0.25781246 -0.5390625,0.57421871 0,0.45703125 0.4921875,0.65625 0.93750001,0.65625 0.65625,0 1.0078125,-0.69140625 1.0429687,-0.75 0.1171875,0.36328125 0.4804688,0.75 1.078125,0.75 1.0195313,0 1.59375,-1.27734371 1.59375,-1.53515621 0,-0.09375 -0.09375,-0.09375 -0.1289062,-0.09375 -0.082031,0 -0.1054688,0.035156 -0.1289063,0.1054687 -0.328125,1.06640626 -0.9960937,1.31250001 -1.3242187,1.31250001 -0.3867188,0 -0.5390625,-0.328125 -0.5390625,-0.65625 0,-0.22265625 0.058594,-0.44531251 0.1640625,-0.87890621 z m 0,0"
         style="fill:#000000;fill-opacity:1;fill-rule:nonzero;stroke:none" />
      <path
         id="path28"
         d="m 8.0270547,-8.0451328 c 0,-0.1875 -0.011719,-0.1992188 -0.2109375,-0.1992188 -0.4453125,0.4335938 -1.078125,0.4453125 -1.359375,0.4453125 v 0.2460938 c 0.1640625,0 0.6210937,0 1.0078125,-0.1875 v 3.5507812 c 0,0.234375 0,0.328125 -0.6914063,0.328125 H 6.5036172 v 0.2460938 c 0.1289062,-0.011719 0.984375,-0.023437 1.2421875,-0.023437 0.2109375,0 1.0898437,0.011719 1.2421875,0.023437 V -3.8615391 H 8.7301797 c -0.703125,0 -0.703125,-0.09375 -0.703125,-0.328125 z m 0,0"
         style="fill:#000000;fill-opacity:1;fill-rule:nonzero;stroke:none" />
    </g>
    <g
       id="g28"
       aria-label="x&#10;3"
       transform="matrix(1.3333333,0,0,1.3333333,168.81067,16.189333)">
      <path
         id="path29"
         d="m 3.3295,-3.0130938 c 0.058594,-0.2578125 0.2929688,-1.171875 0.984375,-1.171875 0.046875,0 0.2929688,0 0.5039063,0.1289063 -0.28125,0.046875 -0.4804688,0.3046875 -0.4804688,0.5390625 0,0.1640625 0.1054688,0.3515625 0.375,0.3515625 0.2226563,0 0.5390625,-0.1875 0.5390625,-0.5859375 0,-0.515625 -0.5859375,-0.65625 -0.9257812,-0.65625 -0.5742188,0 -0.9257813,0.5273437 -1.0429688,0.7617187 C 3.0248125,-4.3021563 2.4974688,-4.407625 2.2045,-4.407625 c -1.0429687,0 -1.60546875,1.2890625 -1.60546875,1.5351562 0,0.1054688 0.10546875,0.1054688 0.1171875,0.1054688 0.0820313,0 0.1171875,-0.023437 0.12890625,-0.1171875 0.3398438,-1.0546875 0.9960938,-1.3007813 1.3359375,-1.3007813 0.1875,0 0.5390625,0.09375 0.5390625,0.6679688 0,0.3046875 -0.1640625,0.9726562 -0.5390625,2.3671875 -0.1523437,0.62109375 -0.5039062,1.04296875 -0.9492187,1.04296875 -0.058594,0 -0.28125005,0 -0.49218755,-0.12890625 C 0.98575,-0.2943438 1.2084063,-0.50528125 1.2084063,-0.7748125 c 0,-0.2695313 -0.2226563,-0.3515625 -0.37500005,-0.3515625 -0.29296875,0 -0.5390625,0.2578125 -0.5390625,0.57421875 0,0.45703125 0.4921875,0.65625 0.93750005,0.65625 0.65625,0 1.0078125,-0.69140625 1.0429687,-0.75 0.1171875,0.36328125 0.4804688,0.75 1.078125,0.75 1.0195313,0 1.59375,-1.27734375 1.59375,-1.53515625 0,-0.09375 -0.09375,-0.09375 -0.1289062,-0.09375 -0.082031,0 -0.1054688,0.035156 -0.1289063,0.1054687 -0.328125,1.0664063 -0.9960937,1.31250005 -1.3242187,1.31250005 -0.3867188,0 -0.5390625,-0.328125 -0.5390625,-0.65625 0,-0.22265625 0.058594,-0.44531255 0.1640625,-0.87890625 z m 0,0"
         style="fill:#000000;fill-opacity:1;fill-rule:nonzero;stroke:none" />
      <path
         id="path30"
         d="m 7.5921953,-5.9457109 c 0.5507813,0 0.9375,0.375 0.9375,1.125 0,0.8671875 -0.5039062,1.125 -0.9023437,1.125 -0.28125,0 -0.890625,-0.082031 -1.1835938,-0.4921875 0.328125,-0.011719 0.3984375,-0.2460938 0.3984375,-0.3867188 0,-0.2226562 -0.1640625,-0.3867187 -0.3867187,-0.3867187 -0.1875,0 -0.3867188,0.1171875 -0.3867188,0.4101562 0,0.65625 0.7265625,1.078125 1.5703125,1.078125 0.9726563,0 1.640625,-0.6445312 1.640625,-1.3476562 0,-0.5390625 -0.4453125,-1.0898438 -1.21875,-1.2421875 0.7382813,-0.2695313 0.9960938,-0.796875 0.9960938,-1.21875 0,-0.5507813 -0.6328125,-0.9609375 -1.40625,-0.9609375 -0.7734375,0 -1.359375,0.375 -1.359375,0.9375 0,0.234375 0.1523437,0.3632812 0.3632812,0.3632812 0.2109375,0 0.3515625,-0.1640625 0.3515625,-0.3515625 0,-0.1992187 -0.140625,-0.3515625 -0.3515625,-0.3632812 0.234375,-0.3046875 0.7148438,-0.3867188 0.9726563,-0.3867188 0.3164062,0 0.7617187,0.1523438 0.7617187,0.7617188 0,0.2929687 -0.1054687,0.609375 -0.28125,0.8320312 -0.234375,0.2578125 -0.421875,0.28125 -0.7734375,0.2929688 -0.1757812,0.023437 -0.1875,0.023437 -0.2226562,0.023437 -0.011719,0 -0.070312,0.011719 -0.070312,0.09375 0,0.09375 0.058594,0.09375 0.1757812,0.09375 z m 0,0"
         style="fill:#000000;fill-opacity:1;fill-rule:nonzero;stroke:none" />
    </g>
    <g
       id="g30"
       aria-label="B&#10;3&#10;2π&#10;⊂R&#10;3"
       transform="matrix(1.3333333,0,0,1.3333333,136.92933,249.564)">
      <path
         id="path31"
         d="m 1.5940156,-0.7745625 c -0.09375,0.38671875 -0.1171875,0.46875 -0.90234372,0.46875 -0.17578125,0 -0.26953125,0 -0.26953125,0.19921875 0,0.10546875 0.0820313,0.10546875 0.26953125,0.10546875 H 4.2424531 c 1.5703125,0 2.7539063,-1.171875 2.7539063,-2.15625 0,-0.7148438 -0.5859375,-1.2890625 -1.546875,-1.3945313 1.03125,-0.1992187 2.0859375,-0.9375 2.0859375,-1.875 0,-0.7382812 -0.65625,-1.3828125 -1.8515625,-1.3828125 H 2.3322969 c -0.1875,0 -0.2929688,0 -0.2929688,0.1992188 0,0.1171875 0.09375,0.1171875 0.28125,0.1171875 0.023437,0 0.2109375,0 0.375,0.011719 0.1875,0.023437 0.2695313,0.035156 0.2695313,0.1640625 0,0.035156 -0.011719,0.070312 -0.035156,0.1875 z m 1.5,-2.8710938 0.6210938,-2.4726562 c 0.09375,-0.3515625 0.1054687,-0.375 0.5390625,-0.375 h 1.2890625 c 0.8671875,0 1.078125,0.5859375 1.078125,1.0195312 0,0.8789063 -0.8554688,1.828125 -2.0742188,1.828125 z m -0.4453125,3.3398438 c -0.140625,0 -0.1523437,0 -0.2226562,-0.0117188 C 2.3322969,-0.32925 2.2971406,-0.34096875 2.2971406,-0.423 c 0,-0.0234375 0,-0.046875 0.058594,-0.22265625 L 3.0354219,-3.423 h 1.8867187 c 0.9609375,0 1.1484375,0.7265625 1.1484375,1.1601562 0,0.984375 -0.890625,1.9570313 -2.0625,1.9570313 z m 0,0"
         style="fill:#000000;fill-opacity:1;fill-rule:nonzero;stroke:none" />
      <path
         id="path32"
         d="m 9.9553438,-6.4464375 c 0.5507812,0 0.9375002,0.375 0.9375002,1.125 0,0.8671875 -0.503906,1.125 -0.902344,1.125 -0.28125,0 -0.890625,-0.082031 -1.1835937,-0.4921875 0.328125,-0.011719 0.3984375,-0.2460938 0.3984375,-0.3867188 0,-0.2226562 -0.1640625,-0.3867187 -0.3867188,-0.3867187 -0.1875,0 -0.3867187,0.1171875 -0.3867187,0.4101562 0,0.65625 0.7265625,1.078125 1.5703127,1.078125 0.972656,0 1.640625,-0.6445312 1.640625,-1.3476562 0,-0.5390625 -0.445313,-1.0898438 -1.21875,-1.2421875 0.738281,-0.2695313 0.996094,-0.796875 0.996094,-1.21875 0,-0.5507813 -0.632813,-0.9609375 -1.40625,-0.9609375 -0.773438,0 -1.3593755,0.375 -1.3593755,0.9375 0,0.234375 0.1523438,0.3632812 0.3632813,0.3632812 0.2109375,0 0.3515625,-0.1640625 0.3515625,-0.3515625 0,-0.1992187 -0.140625,-0.3515625 -0.3515625,-0.3632812 0.234375,-0.3046875 0.7148437,-0.3867188 0.9726562,-0.3867188 0.316406,0 0.761719,0.1523438 0.761719,0.7617188 0,0.2929687 -0.105469,0.609375 -0.28125,0.8320312 -0.234375,0.2578125 -0.421875,0.28125 -0.7734377,0.2929688 -0.1757813,0.023437 -0.1875,0.023437 -0.2226563,0.023437 -0.011719,0 -0.070312,0.011719 -0.070312,0.09375 0,0.09375 0.058594,0.09375 0.1757813,0.09375 z M 11.071555,1.1971172 H 10.83718 c -0.02344,0.1523437 -0.08203,0.5625 -0.175782,0.6328125 -0.05859,0.035156 -0.597656,0.035156 -0.6914058,0.035156 H 8.6809297 c 0.7382812,-0.6445312 0.984375,-0.84375 1.3945313,-1.17187496 0.515625,-0.41015625 0.996094,-0.84375 0.996094,-1.5 0,-0.84375004 -0.738282,-1.35937504 -1.6289066,-1.35937504 -0.8671875,0 -1.453125,0.609375 -1.453125,1.24218754 0,0.36328125 0.3046875,0.3984375 0.375,0.3984375 0.1640625,0 0.375,-0.1171875 0.375,-0.375 0,-0.12890624 -0.058594,-0.36328124 -0.421875,-0.36328124 0.2226563,-0.5039063 0.6914063,-0.65625 1.0195313,-0.65625 0.7031253,0 1.0664063,0.5507812 1.0664063,1.11328124 0,0.609375 -0.4335938,1.08984375 -0.6562501,1.3359375 l -1.6875,1.66406246 c -0.070312,0.058594 -0.070312,0.070312 -0.070312,0.2695313 h 2.8828131 z m 0,0"
         style="fill:#000000;fill-opacity:1;fill-rule:nonzero;stroke:none" />
      <path
         id="path33"
         d="m 13.696555,-0.06850781 h 0.832031 c -0.105469,0.421875 -0.257813,1.0546875 -0.257813,1.60546871 0,0.28125 0.03516,0.46875 0.07031,0.6210938 0.117187,0.3515625 0.210937,0.375 0.316406,0.375 0.164063,0 0.328125,-0.1523438 0.328125,-0.3164063 0,-0.058594 -0.01172,-0.082031 -0.05859,-0.1523437 -0.128906,-0.2578125 -0.257812,-0.65625 -0.257812,-1.23046876 0,-0.12890625 0,-0.41015625 0.105469,-0.90234375 h 0.867187 c 0.128906,0 0.1875,0 0.257813,-0.05859375 0.09375,-0.0703125 0.117187,-0.17578125 0.117187,-0.2109375 0,-0.19921875 -0.175781,-0.19921875 -0.292969,-0.19921875 H 13.08718 c -0.28125,0 -0.480469,0.0585937 -0.796875,0.3515625 -0.175782,0.1640625 -0.445313,0.5390625 -0.445313,0.59765625 0,0.0820313 0.09375,0.0820313 0.117188,0.0820313 0.07031,0 0.08203,-0.0117188 0.128906,-0.0703125 0.351562,-0.4921875 0.785156,-0.4921875 0.9375,-0.4921875 h 0.421875 c -0.210938,0.76171875 -0.585938,1.59375006 -0.796875,2.00390616 -0.04687,0.09375 -0.117188,0.2460939 -0.140625,0.2695314 0,0.023437 -0.01172,0.058594 -0.01172,0.1054687 0,0.1054688 0.08203,0.2226563 0.246094,0.2226563 0.269531,0 0.351562,-0.3164063 0.515625,-0.9375 z m 0,0"
         style="fill:#000000;fill-opacity:1;fill-rule:nonzero;stroke:none" />
      <path
         id="path34"
         d="m 26.264914,-4.9815938 c 0.175781,0 0.351563,0 0.351563,-0.1992187 0,-0.1992188 -0.175782,-0.1992188 -0.351563,-0.1992188 h -2.671875 c -1.710937,0 -3.058594,1.2890625 -3.058594,2.8828125 0,1.59375005 1.347657,2.8945313 3.058594,2.8945313 h 2.671875 c 0.175781,0 0.351563,0 0.351563,-0.19921875 0,-0.19921875 -0.175782,-0.19921875 -0.351563,-0.19921875 h -2.660156 c -1.546875,0 -2.671875,-1.1601563 -2.671875,-2.4960938 0,-1.3242187 1.125,-2.484375 2.671875,-2.484375 z m 0,0"
         style="fill:#000000;fill-opacity:1;fill-rule:nonzero;stroke:none" />
      <path
         id="path35"
         d="M 32.888938,-3.1300313 H 33.2405 l 1.5,2.3085938 c 0.09375,0.1640625 0.339844,0.55078125 0.445313,0.703125 0.07031,0.1171875 0.105468,0.1171875 0.328125,0.1171875 h 1.382812 c 0.175781,0 0.328125,0 0.328125,-0.17578125 0,-0.0820313 -0.07031,-0.15234375 -0.152344,-0.17578125 -0.375,-0.0820313 -0.855468,-0.7382813 -1.101562,-1.0546875 -0.07031,-0.09375 -0.5625,-0.75 -1.230469,-1.828125 0.890625,-0.1640625 1.746094,-0.5390625 1.746094,-1.7226563 0,-1.3828125 -1.464844,-1.8632812 -2.648438,-1.8632812 h -3.117187 c -0.1875,0 -0.339844,0 -0.339844,0.1757812 0,0.1640625 0.1875,0.1640625 0.269531,0.1640625 0.5625,0 0.609375,0.070312 0.609375,0.5742188 v 4.9921875 c 0,0.4921875 -0.04687,0.5625 -0.609375,0.5625 -0.08203,0 -0.269531,0 -0.269531,0.17578125 0,0.17578125 0.152344,0.17578125 0.339844,0.17578125 h 2.71875 c 0.1875,0 0.328125,0 0.328125,-0.17578125 0,-0.17578125 -0.164063,-0.17578125 -0.269531,-0.17578125 -0.574219,0 -0.609375,-0.0820313 -0.609375,-0.5625 z m 1.921875,-0.4921875 c 0.28125,-0.3632812 0.304687,-0.890625 0.304687,-1.3242187 0,-0.4804688 -0.05859,-1.0078125 -0.375,-1.4179688 0.410156,0.082031 1.394531,0.3984375 1.394531,1.40625 0,0.6445313 -0.304687,1.1484375 -1.324218,1.3359375 z m -1.921875,-2.3203125 c 0,-0.1992187 0,-0.5390625 0.621093,-0.5390625 0.84375,0 1.253907,0.3515625 1.253907,1.5351563 0,1.2773437 -0.304688,1.4648437 -1.875,1.4648437 z m -1.359375,5.5898438 c 0.08203,-0.17578125 0.08203,-0.45703125 0.08203,-0.55078125 V -5.9308125 c 0,-0.09375 0,-0.3632813 -0.08203,-0.5507813 h 1.136718 c -0.128906,0.1640625 -0.128906,0.3632813 -0.128906,0.515625 v 5.06250005 c 0,0.10546875 0,0.375 0.08203,0.55078125 z m 2.121093,-2.7773438 c 0.07031,-0.011719 0.117188,-0.023437 0.1875,-0.023437 0.152344,0 0.375,-0.011719 0.527344,-0.035156 0.140625,0.234375 1.21875,2.015625 2.050781,2.8359375 h -0.972656 z m 0,0"
         style="fill:#000000;fill-opacity:1;fill-rule:nonzero;stroke:none" />
      <path
         id="path36"
         d="m 39.313742,-6.4464375 c 0.550781,0 0.9375,0.375 0.9375,1.125 0,0.8671875 -0.503906,1.125 -0.902344,1.125 -0.28125,0 -0.890625,-0.082031 -1.183593,-0.4921875 0.328125,-0.011719 0.398437,-0.2460938 0.398437,-0.3867188 0,-0.2226562 -0.164062,-0.3867187 -0.386719,-0.3867187 -0.1875,0 -0.386718,0.1171875 -0.386718,0.4101562 0,0.65625 0.726562,1.078125 1.570312,1.078125 0.972656,0 1.640625,-0.6445312 1.640625,-1.3476562 0,-0.5390625 -0.445312,-1.0898438 -1.21875,-1.2421875 0.738281,-0.2695313 0.996094,-0.796875 0.996094,-1.21875 0,-0.5507813 -0.632813,-0.9609375 -1.40625,-0.9609375 -0.773438,0 -1.359375,0.375 -1.359375,0.9375 0,0.234375 0.152344,0.3632812 0.363281,0.3632812 0.210938,0 0.351563,-0.1640625 0.351563,-0.3515625 0,-0.1992187 -0.140625,-0.3515625 -0.351563,-0.3632812 0.234375,-0.3046875 0.714844,-0.3867188 0.972656,-0.3867188 0.316407,0 0.761719,0.1523438 0.761719,0.7617188 0,0.2929687 -0.105469,0.609375 -0.28125,0.8320312 -0.234375,0.2578125 -0.421875,0.28125 -0.773437,0.2929688 -0.175782,0.023437 -0.1875,0.023437 -0.222657,0.023437 -0.01172,0 -0.07031,0.011719 -0.07031,0.09375 0,0.09375 0.05859,0.09375 0.175781,0.09375 z m 0,0"
         style="fill:#000000;fill-opacity:1;fill-rule:nonzero;stroke:none" />
    </g>
    <g
       id="g36"
       aria-label="x&#10;2"
       transform="matrix(1.3333333,0,0,1.3333333,300.87733,133.404)">
      <path
         id="path37"
         d="m 3.3293047,-3.0129609 c 0.058594,-0.2578125 0.2929687,-1.171875 0.984375,-1.171875 0.046875,0 0.2929687,0 0.5039062,0.1289062 -0.28125,0.046875 -0.4804687,0.3046875 -0.4804687,0.5390625 0,0.1640625 0.1054687,0.3515625 0.375,0.3515625 0.2226562,0 0.5390625,-0.1875 0.5390625,-0.5859375 0,-0.515625 -0.5859375,-0.65625 -0.9257813,-0.65625 -0.5742187,0 -0.9257812,0.5273438 -1.0429687,0.7617188 -0.2578125,-0.65625 -0.7851563,-0.7617188 -1.078125,-0.7617188 -1.0429688,0 -1.60546876,1.2890625 -1.60546876,1.5351563 0,0.1054687 0.10546875,0.1054687 0.1171875,0.1054687 0.0820313,0 0.1171875,-0.023437 0.12890625,-0.1171875 0.33984371,-1.0546875 0.99609371,-1.3007812 1.33593751,-1.3007812 0.1875,0 0.5390625,0.09375 0.5390625,0.6679687 0,0.3046875 -0.1640625,0.9726563 -0.5390625,2.3671875 -0.1523438,0.62109376 -0.5039063,1.04296876 -0.9492188,1.04296876 -0.058594,0 -0.28124996,0 -0.49218746,-0.12890625 0.24609375,-0.0585937 0.46874996,-0.26953125 0.46874996,-0.5390625 0,-0.26953121 -0.22265621,-0.35156251 -0.37499996,-0.35156251 -0.29296875,0 -0.5390625,0.25781251 -0.5390625,0.57421876 0,0.45703125 0.4921875,0.65625 0.93749996,0.65625 0.65625,0 1.0078125,-0.69140625 1.0429688,-0.75 0.1171875,0.36328125 0.4804687,0.75 1.078125,0.75 1.0195312,0 1.59375,-1.27734376 1.59375,-1.53515626 0,-0.09375 -0.09375,-0.09375 -0.1289063,-0.09375 -0.082031,0 -0.1054687,0.035156 -0.1289062,0.1054688 -0.328125,1.06640621 -0.9960938,1.31249996 -1.3242188,1.31249996 -0.3867187,0 -0.5390625,-0.328125 -0.5390625,-0.65625 0,-0.22265625 0.058594,-0.44531246 0.1640625,-0.87890626 z m 0,0"
         style="fill:#000000;fill-opacity:1;fill-rule:nonzero;stroke:none" />
      <path
         id="path38"
         d="m 9.2091875,-4.8791719 h -0.234375 c -0.023437,0.1523438 -0.082031,0.5625 -0.1757812,0.6328125 -0.058594,0.035156 -0.5976563,0.035156 -0.6914063,0.035156 H 6.8185625 c 0.7382813,-0.6445313 0.984375,-0.84375 1.3945313,-1.171875 0.515625,-0.4101563 0.9960937,-0.84375 0.9960937,-1.5 0,-0.84375 -0.7382812,-1.359375 -1.6289062,-1.359375 -0.8671875,0 -1.453125,0.609375 -1.453125,1.2421875 0,0.3632812 0.3046875,0.3984375 0.375,0.3984375 0.1640625,0 0.375,-0.1171875 0.375,-0.375 0,-0.1289063 -0.058594,-0.3632813 -0.421875,-0.3632813 0.2226562,-0.5039062 0.6914062,-0.65625 1.0195312,-0.65625 0.703125,0 1.0664063,0.5507813 1.0664063,1.1132813 0,0.609375 -0.4335938,1.0898437 -0.65625,1.3359375 l -1.6875,1.6640625 c -0.070312,0.058594 -0.070312,0.070312 -0.070312,0.2695312 h 2.8828125 z m 0,0"
         style="fill:#000000;fill-opacity:1;fill-rule:nonzero;stroke:none" />
    </g>
    <g
       id="g38"
       aria-label="S=−1&#10;2×2"
       transform="matrix(1.3333333,0,0,1.3333333,268.43867,80.188)">
      <path
         id="path39"
         d="m 6.421,-6.9261563 c 0,-0.023437 -0.011719,-0.09375 -0.1054688,-0.09375 -0.046875,0 -0.058594,0.011719 -0.1757812,0.140625 l -0.4804688,0.5742188 c -0.2578125,-0.46875 -0.7734375,-0.7148438 -1.4296875,-0.7148438 -1.265625,0 -2.4609375,1.1367188 -2.4609375,2.34375 0,0.8085938 0.5273438,1.265625 1.0429688,1.4179688 l 1.0664062,0.28125 c 0.3632813,0.082031 0.9140625,0.234375 0.9140625,1.0546875 0,0.890625 -0.8203125,1.828125 -1.7929687,1.828125 -0.6445313,0 -1.7460938,-0.2109375 -1.7460938,-1.453125 0,-0.234375 0.046875,-0.4804688 0.058594,-0.5390625 0.011719,-0.035156 0.023437,-0.046875 0.023437,-0.070312 0,-0.09375 -0.070312,-0.1054688 -0.1171875,-0.1054688 -0.058594,0 -0.070312,0.011719 -0.1054688,0.035156 C 1.07725,-2.1800625 0.51475,0.093375 0.51475,0.1168125 c 0,0.0585938 0.046875,0.10546875 0.1171875,0.10546875 0.046875,0 0.0585938,-0.0117188 0.17578125,-0.15234375 L 1.2999062,-0.50428125 c 0.421875,0.5859375 1.1015625,0.7265625 1.6757813,0.7265625 1.359375,0 2.53125,-1.32421875 2.53125,-2.56640625 0,-0.6796875 -0.3398438,-1.0195313 -0.4921875,-1.1601563 -0.2226563,-0.234375 -0.375,-0.2695312 -1.265625,-0.5039062 -0.2109375,-0.058594 -0.5742188,-0.1523438 -0.65625,-0.1757813 -0.2695313,-0.09375 -0.609375,-0.375 -0.609375,-0.9023437 0,-0.8085938 0.796875,-1.6523438 1.734375,-1.6523438 0.8320312,0 1.4414062,0.421875 1.4414062,1.5351563 0,0.3164062 -0.046875,0.5039062 -0.046875,0.5625 0,0.011719 0,0.09375 0.1289063,0.09375 0.09375,0 0.1054687,-0.023437 0.140625,-0.1992188 z m 0,0"
         style="fill:#4a90e2;fill-opacity:1;fill-rule:nonzero;stroke:none" />
      <path
         id="path40"
         d="m 16.294047,-3.2581875 c 0.152344,0 0.339844,0 0.339844,-0.1992188 0,-0.1992187 -0.1875,-0.1992187 -0.328125,-0.1992187 h -5.964844 c -0.140625,0 -0.328125,0 -0.328125,0.1992187 0,0.1992188 0.1875,0.1992188 0.339844,0.1992188 z m 0.01172,1.9335937 c 0.140625,0 0.328125,0 0.328125,-0.1992187 0,-0.1992188 -0.1875,-0.1992188 -0.339844,-0.1992188 h -5.941406 c -0.152344,0 -0.339844,0 -0.339844,0.1992188 0,0.1992187 0.1875,0.1992187 0.328125,0.1992187 z m 0,0"
         style="fill:#4a90e2;fill-opacity:1;fill-rule:nonzero;stroke:none" />
      <path
         id="path41"
         d="m 26.527445,-2.29725 c 0.175782,0 0.351563,0 0.351563,-0.1992188 0,-0.1992187 -0.175781,-0.1992187 -0.351563,-0.1992187 H 21.13682 c -0.164062,0 -0.339843,0 -0.339843,0.1992187 0,0.1992188 0.175781,0.1992188 0.339843,0.1992188 z m 0,0"
         style="fill:#4a90e2;fill-opacity:1;fill-rule:nonzero;stroke:none" />
      <path
         id="path42"
         d="m 31.241312,-6.2113125 c 0,-0.2109375 0,-0.3164063 -0.257812,-0.3164063 -0.117188,0 -0.128906,0 -0.222656,0.070312 -0.761719,0.5742188 -1.792969,0.5742188 -2.003907,0.5742188 h -0.199218 v 0.46875 h 0.199218 c 0.164063,0 0.714844,-0.011719 1.300782,-0.1992188 v 5.1445313 h -1.382813 v 0.46875 c 0.433594,-0.03515625 1.488281,-0.03515625 1.980469,-0.03515625 0.480469,0 1.546875,0 1.980469,0.03515625 v -0.46875 h -1.394532 z m 0,0"
         style="fill:#4a90e2;fill-opacity:1;fill-rule:nonzero;stroke:none" />
      <path
         id="path43"
         d="m 36.960062,0.22814062 h -0.234375 c -0.02344,0.15234375 -0.08203,0.5625 -0.175781,0.6328125 -0.05859,0.0351563 -0.597656,0.0351563 -0.691406,0.0351563 h -1.289063 c 0.738282,-0.64453125 0.984375,-0.84375 1.394532,-1.171875 0.515625,-0.41015625 0.996093,-0.84374992 0.996093,-1.49999992 0,-0.8437501 -0.738281,-1.3593751 -1.628906,-1.3593751 -0.867187,0 -1.453125,0.609375 -1.453125,1.2421876 0,0.3632812 0.304688,0.3984375 0.375,0.3984375 0.164063,0 0.375,-0.1171875 0.375,-0.375 0,-0.1289063 -0.05859,-0.3632814 -0.421875,-0.3632814 0.222656,-0.5039062 0.691406,-0.65625 1.019531,-0.65625 0.703125,0 1.066407,0.5507813 1.066407,1.1132813 0,0.609375 -0.433594,1.08984377 -0.65625,1.33593752 l -1.6875,1.66406248 c -0.07031,0.058594 -0.07031,0.070312 -0.07031,0.2695312 h 2.882813 z m 0,0"
         style="fill:#4a90e2;fill-opacity:1;fill-rule:nonzero;stroke:none" />
      <path
         id="path44"
         d="m 42.300883,-1.7757656 c 0.07031,-0.082031 0.09375,-0.1171875 0.09375,-0.1640625 0,-0.1171875 -0.09375,-0.1757813 -0.164063,-0.1757813 -0.07031,0 -0.09375,0.023437 -0.175781,0.1054688 l -1.535156,1.51171872 -1.535156,-1.52343752 c -0.05859,-0.070312 -0.09375,-0.09375 -0.152344,-0.09375 -0.105469,0 -0.175781,0.070312 -0.175781,0.1757813 0,0.058594 0.02344,0.082031 0.105468,0.1640625 l 1.523438,1.52343747 -1.523438,1.51171873 c -0.09375,0.1054688 -0.105468,0.140625 -0.105468,0.1757813 0,0.1054687 0.07031,0.1757812 0.175781,0.1757812 0.05859,0 0.08203,-0.023437 0.152344,-0.09375 l 1.535156,-1.53515623 1.59375,1.59375003 c 0.03516,0.023437 0.07031,0.035156 0.117187,0.035156 0.07031,0 0.164063,-0.058594 0.164063,-0.1757812 0,-0.058594 -0.01172,-0.070312 -0.03516,-0.082031 -0.01172,-0.035156 -1.371094,-1.38281248 -1.59375,-1.60546873 z m 0,0"
         style="fill:#4a90e2;fill-opacity:1;fill-rule:nonzero;stroke:none" />
      <path
         id="path45"
         d="M 47.158305,0.22814062 H 46.92393 c -0.02344,0.15234375 -0.08203,0.5625 -0.175782,0.6328125 -0.05859,0.0351563 -0.597656,0.0351563 -0.691406,0.0351563 H 44.76768 c 0.738281,-0.64453125 0.984375,-0.84375 1.394531,-1.171875 0.515625,-0.41015625 0.996094,-0.84374992 0.996094,-1.49999992 0,-0.8437501 -0.738282,-1.3593751 -1.628907,-1.3593751 -0.867187,0 -1.453125,0.609375 -1.453125,1.2421876 0,0.3632812 0.304688,0.3984375 0.375,0.3984375 0.164063,0 0.375,-0.1171875 0.375,-0.375 0,-0.1289063 -0.05859,-0.3632814 -0.421875,-0.3632814 0.222657,-0.5039062 0.691407,-0.65625 1.019532,-0.65625 0.703125,0 1.066406,0.5507813 1.066406,1.1132813 0,0.609375 -0.433594,1.08984377 -0.65625,1.33593752 l -1.6875,1.66406248 c -0.07031,0.058594 -0.07031,0.070312 -0.07031,0.2695312 h 2.882813 z m 0,0"
         style="fill:#4a90e2;fill-opacity:1;fill-rule:nonzero;stroke:none" />
    </g>
    <g
       id="g45"
       aria-label="N=+1&#10;2×2"
       transform="matrix(1.3333333,0,0,1.3333333,6.4173333,77.528)">
      <path
         id="path46"
         d="m 7.5356328,-5.7543984 c 0.09375,-0.3984375 0.2695313,-0.7148438 1.0664063,-0.7382813 0.058594,0 0.1757812,-0.011719 0.1757812,-0.1992187 0,-0.011719 0,-0.1171875 -0.1289062,-0.1171875 -0.328125,0 -0.6796875,0.035156 -1.0078125,0.035156 -0.3398438,0 -0.6914063,-0.035156 -1.0195313,-0.035156 -0.058594,0 -0.1757812,0 -0.1757812,0.1992187 0,0.1171875 0.09375,0.1171875 0.1757812,0.1171875 0.5742188,0.011719 0.6796875,0.2109375 0.6796875,0.4335938 0,0.035156 -0.023437,0.1757812 -0.023437,0.2109375 l -1.125,4.4296875 -2.203125,-5.1914063 c -0.070312,-0.1875 -0.082031,-0.1992187 -0.3164062,-0.1992187 h -1.335938 c -0.1992188,0 -0.28125,0 -0.28125,0.1992187 0,0.1171875 0.082031,0.1171875 0.28125,0.1171875 0.046875,0 0.6679687,0 0.6679687,0.082031 L 1.6293828,-1.05518 c -0.09375,0.39843751 -0.2695312,0.71484376 -1.06640624,0.75000001 -0.0585938,0 -0.17578125,0 -0.17578125,0.19921875 0,0.0703125 0.046875,0.1054687525 0.12890625,0.1054687525 0.31640625,0 0.66796874,-0.0351562525 0.99609374,-0.0351562525 0.3398438,0 0.703125,0.0351562525 1.03125,0.0351562525 0.046875,0 0.1757813,0 0.1757813,-0.1992187525 0,-0.10546875 -0.09375,-0.10546875 -0.1992188,-0.10546875 -0.5742187,-0.0234375 -0.65625,-0.24609375 -0.65625,-0.4453125 0,-0.0703125 0.011719,-0.1171875 0.035156,-0.22265625 l 1.324219,-5.26171846 c 0.035156,0.058594 0.035156,0.082031 0.082031,0.1757813 l 2.484375,5.87109371 c 0.070312,0.1640625 0.09375,0.1875000025 0.1875,0.1875000025 0.1054687,0 0.1054687,-0.0351562525 0.1640625,-0.2109375025 z m 0,0"
         style="fill:#9013fe;fill-opacity:1;fill-rule:nonzero;stroke:none" />
      <path
         id="path47"
         d="m 18.700672,-3.2583047 c 0.152344,0 0.339844,0 0.339844,-0.1992187 0,-0.1992188 -0.1875,-0.1992188 -0.328125,-0.1992188 h -5.964844 c -0.140625,0 -0.328125,0 -0.328125,0.1992188 0,0.1992187 0.1875,0.1992187 0.339844,0.1992187 z m 0.01172,1.9335938 c 0.140625,0 0.328125,0 0.328125,-0.1992188 0,-0.1992187 -0.1875,-0.1992187 -0.339844,-0.1992187 h -5.941406 c -0.152344,0 -0.339844,0 -0.339844,0.1992187 0,0.1992188 0.1875,0.1992188 0.328125,0.1992188 z m 7.725586,-0.9726563 h 2.777343 c 0.140625,0 0.328125,0 0.328125,-0.1992187 0,-0.1992188 -0.1875,-0.1992188 -0.328125,-0.1992188 h -2.777343 v -2.7890625 c 0,-0.1289062 0,-0.328125 -0.199219,-0.328125 -0.199219,0 -0.199219,0.1992188 -0.199219,0.328125 v 2.7890625 h -2.789062 c -0.140625,0 -0.328125,0 -0.328125,0.1992188 0,0.1992187 0.1875,0.1992187 0.328125,0.1992187 h 2.789062 v 2.80078126 c 0,0.12890625 0,0.328125 0.199219,0.328125 0.199219,0 0.199219,-0.19921875 0.199219,-0.328125 z m 0,0"
         style="fill:#9013fe;fill-opacity:1;fill-rule:nonzero;stroke:none" />
      <path
         id="path48"
         d="m 33.650867,-6.2114297 c 0,-0.2109375 0,-0.3164062 -0.257812,-0.3164062 -0.117188,0 -0.128907,0 -0.222657,0.070312 -0.761718,0.5742187 -1.792968,0.5742187 -2.003906,0.5742187 h -0.199219 v 0.46875 h 0.199219 c 0.164063,0 0.714844,-0.011719 1.300781,-0.1992187 v 5.14453121 H 31.084461 V -4.921875e-4 C 31.518055,-0.03564844 32.572742,-0.03564844 33.06493,-0.03564844 c 0.480468,0 1.546875,0 1.980468,0.0351562525 V -0.46924219 h -1.394531 z m 0,0"
         style="fill:#9013fe;fill-opacity:1;fill-rule:nonzero;stroke:none" />
      <path
         id="path49"
         d="m 39.366688,0.22802344 h -0.234375 c -0.02344,0.15234375 -0.08203,0.5625 -0.175782,0.6328125 -0.05859,0.0351563 -0.597656,0.0351563 -0.691406,0.0351563 h -1.289062 c 0.738281,-0.64453125 0.984375,-0.84375 1.394531,-1.171875 0.515625,-0.41015625 0.996094,-0.84374994 0.996094,-1.49999994 0,-0.8437501 -0.738282,-1.3593751 -1.628907,-1.3593751 -0.867187,0 -1.453125,0.609375 -1.453125,1.2421876 0,0.3632812 0.304688,0.3984375 0.375,0.3984375 0.164063,0 0.375,-0.1171875 0.375,-0.375 0,-0.1289063 -0.05859,-0.3632814 -0.421875,-0.3632814 0.222657,-0.5039062 0.691407,-0.65625 1.019532,-0.65625 0.703125,0 1.066406,0.5507813 1.066406,1.1132813 0,0.609375 -0.433594,1.08984379 -0.65625,1.33593754 l -1.6875,1.66406246 c -0.07031,0.058594 -0.07031,0.070312 -0.07031,0.2695312 h 2.882813 z m 0,0"
         style="fill:#9013fe;fill-opacity:1;fill-rule:nonzero;stroke:none" />
      <path
         id="path50"
         d="m 44.710438,-1.7758828 c 0.07031,-0.082031 0.09375,-0.1171875 0.09375,-0.1640625 0,-0.1171875 -0.09375,-0.1757813 -0.164063,-0.1757813 -0.07031,0 -0.09375,0.023437 -0.175781,0.1054688 l -1.535156,1.51171874 -1.535157,-1.52343754 c -0.05859,-0.070312 -0.09375,-0.09375 -0.152343,-0.09375 -0.105469,0 -0.175782,0.070312 -0.175782,0.1757813 0,0.058594 0.02344,0.082031 0.105469,0.1640625 l 1.523438,1.52343749 -1.523438,1.51171871 c -0.09375,0.1054688 -0.105469,0.140625 -0.105469,0.1757813 0,0.1054687 0.07031,0.1757812 0.175782,0.1757812 0.05859,0 0.08203,-0.023437 0.152343,-0.09375 l 1.535157,-1.53515621 1.59375,1.59375001 c 0.03516,0.023437 0.07031,0.035156 0.117187,0.035156 0.07031,0 0.164063,-0.058594 0.164063,-0.1757812 0,-0.058594 -0.01172,-0.070312 -0.03516,-0.082031 -0.01172,-0.035156 -1.371093,-1.38281246 -1.59375,-1.60546871 z m 0,0"
         style="fill:#9013fe;fill-opacity:1;fill-rule:nonzero;stroke:none" />
      <path
         id="path51"
         d="m 49.56493,0.22802344 h -0.234375 c -0.02344,0.15234375 -0.08203,0.5625 -0.175782,0.6328125 -0.05859,0.0351563 -0.597656,0.0351563 -0.691406,0.0351563 h -1.289062 c 0.738281,-0.64453125 0.984375,-0.84375 1.394531,-1.171875 0.515625,-0.41015625 0.996094,-0.84374994 0.996094,-1.49999994 0,-0.8437501 -0.738282,-1.3593751 -1.628907,-1.3593751 -0.867187,0 -1.453125,0.609375 -1.453125,1.2421876 0,0.3632812 0.304688,0.3984375 0.375,0.3984375 0.164063,0 0.375,-0.1171875 0.375,-0.375 0,-0.1289063 -0.05859,-0.3632814 -0.421875,-0.3632814 0.222657,-0.5039062 0.691407,-0.65625 1.019532,-0.65625 0.703125,0 1.066406,0.5507813 1.066406,1.1132813 0,0.609375 -0.433594,1.08984379 -0.65625,1.33593754 l -1.6875,1.66406246 c -0.07031,0.058594 -0.07031,0.070312 -0.07031,0.2695312 h 2.882813 z m 0,0"
         style="fill:#9013fe;fill-opacity:1;fill-rule:nonzero;stroke:none" />
    </g>
  </g>
</svg>
