<?xml version="1.0" encoding="UTF-8" standalone="no"?>
<!-- Created with Inkscape (http://www.inkscape.org/) -->

<svg
   version="1.1"
   id="svg1"
   width="326.98666"
   height="254.84"
   viewBox="0 0 326.98666 254.84"
   sodipodi:docname="B3.pdf"
   xmlns:inkscape="http://www.inkscape.org/namespaces/inkscape"
   xmlns:sodipodi="http://sodipodi.sourceforge.net/DTD/sodipodi-0.dtd"
   xmlns="http://www.w3.org/2000/svg"
   xmlns:svg="http://www.w3.org/2000/svg">
  <defs
     id="defs1" />
  <sodipodi:namedview
     id="namedview1"
     pagecolor="#ffffff"
     bordercolor="#000000"
     borderopacity="0.25"
     inkscape:showpageshadow="2"
     inkscape:pageopacity="0.0"
     inkscape:pagecheckerboard="0"
     inkscape:deskcolor="#d1d1d1">
    <inkscape:page
       x="0"
       y="0"
       inkscape:label="1"
       id="page1"
       width="326.98666"
       height="254.84"
       margin="0"
       bleed="0" />
  </sodipodi:namedview>
  <g
     id="g1"
     inkscape:groupmode="layer"
     inkscape:label="1">
    <path
       id="path1"
       d="m 48.5685,-103.86186 c 0,35.07393 28.43872,63.51265 63.51265,63.51265 35.08139,0 63.51265,-28.43872 63.51265,-63.51265 0,-35.08139 -28.43126,-63.51265 -63.51265,-63.51265 -35.07393,0 -63.51265,28.43126 -63.51265,63.51265 z"
       style="fill:#4a90e2;fill-opacity:0.1;fill-rule:nonzero;stroke:#4a90e2;stroke-width:1.49442;stroke-linecap:butt;stroke-linejoin:miter;stroke-miterlimit:10;stroke-dasharray:none;stroke-opacity:1"
       transform="matrix(1.3333333,0,0,-1.3333333,-43.436,-10.481333)" />
    <path
       id="path2"
       d="m 48.5685,-103.86186 c 0,8.24917 28.43872,14.94415 63.51265,14.94415 35.08139,0 63.51265,-6.69498 63.51265,-14.94415 0,-8.25662 -28.43126,-14.94416 -63.51265,-14.94416 -35.07393,0 -63.51265,6.68754 -63.51265,14.94416 z"
       style="fill:#4a90e2;fill-opacity:0.2;fill-rule:nonzero;stroke:#4a90e2;stroke-width:0.74721;stroke-linecap:butt;stroke-linejoin:miter;stroke-miterlimit:10;stroke-dasharray:4.48325, 4.48325;stroke-dashoffset:0;stroke-opacity:1"
       transform="matrix(1.3333333,0,0,-1.3333333,-43.436,-10.481333)" />
    <path
       id="path3"
       d="m 112.08115,-103.86186 26.19709,37.09887"
       style="fill:none;stroke:#9b9b9b;stroke-width:0.74721;stroke-linecap:butt;stroke-linejoin:miter;stroke-miterlimit:10;stroke-dasharray:none;stroke-opacity:1"
       transform="matrix(1.3333333,0,0,-1.3333333,-43.436,-10.481333)" />
    <path
       id="path4"
       d="m 138.27824,-66.76299 v -47.44769"
       style="fill:none;stroke:#9b9b9b;stroke-width:0.74721;stroke-linecap:butt;stroke-linejoin:miter;stroke-miterlimit:10;stroke-dasharray:none;stroke-opacity:1"
       transform="matrix(1.3333333,0,0,-1.3333333,-43.436,-10.481333)" />
    <path
       id="path5"
       d="m 112.08115,-8.23422 v -95.62764"
       style="fill:none;stroke:#9b9b9b;stroke-width:0.74721;stroke-linecap:butt;stroke-linejoin:miter;stroke-miterlimit:10;stroke-dasharray:none;stroke-opacity:1"
       transform="matrix(1.3333333,0,0,-1.3333333,-43.436,-10.481333)" />
    <path
       id="path6"
       d="m 69.8639,-58.3569 c 0,5.51439 18.99401,9.9827 42.42644,9.9827 23.43244,0 42.42647,-4.46831 42.42647,-9.9827 0,-5.51439 -18.99403,-9.9827 -42.42647,-9.9827 -23.43243,0 -42.42644,4.46831 -42.42644,9.9827 z"
       style="fill:#4a90e2;fill-opacity:0.2;fill-rule:nonzero;stroke:#4a90e2;stroke-width:0.74721;stroke-linecap:butt;stroke-linejoin:miter;stroke-miterlimit:10;stroke-dasharray:4.48325, 4.48325;stroke-dashoffset:0;stroke-opacity:1"
       transform="matrix(1.3333333,0,0,-1.3333333,-43.436,-10.481333)" />
    <path
       id="path7"
       d="m 125.94931,-82.00603 c 0,1.03863 0.83687,1.86801 1.86803,1.86801 1.03114,0 1.86801,-0.82938 1.86801,-1.86801 0,-1.03116 -0.83687,-1.86802 -1.86801,-1.86802 -1.03116,0 -1.86803,0.83686 -1.86803,1.86802 z"
       style="fill:#3768a2;fill-opacity:1;fill-rule:nonzero;stroke:#366cab;stroke-width:0.74721;stroke-linecap:butt;stroke-linejoin:miter;stroke-miterlimit:10;stroke-dasharray:none;stroke-opacity:1"
       transform="matrix(1.3333333,0,0,-1.3333333,-43.436,-10.481333)" />
    <path
       id="path8"
       d="m 112.08115,-103.86186 h 99.04983"
       style="fill:none;stroke:#9b9b9b;stroke-width:0.74721;stroke-linecap:butt;stroke-linejoin:miter;stroke-miterlimit:10;stroke-dasharray:none;stroke-opacity:1"
       transform="matrix(1.3333333,0,0,-1.3333333,-43.436,-10.481333)" />
    <path
       id="path9"
       d="m 112.08115,-103.86186 26.19709,-10.34882"
       style="fill:none;stroke:#9b9b9b;stroke-width:0.74721;stroke-linecap:butt;stroke-linejoin:miter;stroke-miterlimit:10;stroke-dasharray:none;stroke-opacity:1"
       transform="matrix(1.3333333,0,0,-1.3333333,-43.436,-10.481333)" />
    <path
       id="path10"
       d="m 127.81734,-82.00603 v -28.34906"
       style="fill:none;stroke:#9b9b9b;stroke-width:0.74721;stroke-linecap:butt;stroke-linejoin:miter;stroke-miterlimit:10;stroke-dasharray:none;stroke-opacity:1"
       transform="matrix(1.3333333,0,0,-1.3333333,-43.436,-10.481333)" />
    <path
       id="path11"
       d="m 112.08115,-103.86186 14.42857,20.04011"
       style="fill:none;stroke:#000000;stroke-width:0.74721;stroke-linecap:butt;stroke-linejoin:miter;stroke-miterlimit:10;stroke-dasharray:none;stroke-opacity:1"
       transform="matrix(1.3333333,0,0,-1.3333333,-43.436,-10.481333)" />
    <path
       id="path12"
       d="m 126.90907,-87.10571 0.90827,5.09968 -4.54708,-2.48115 z"
       style="fill:#000000;fill-opacity:1;fill-rule:nonzero;stroke:#000000;stroke-width:0.0797;stroke-linecap:butt;stroke-linejoin:miter;stroke-miterlimit:10;stroke-dasharray:none;stroke-opacity:0"
       transform="matrix(1.3333333,0,0,-1.3333333,-43.436,-10.481333)" />
    <path
       id="path13"
       d="m 136.41022,-66.76299 c 0,1.03861 0.83687,1.86802 1.86802,1.86802 1.03115,0 1.86802,-0.82941 1.86802,-1.86802 0,-1.03114 -0.83687,-1.86802 -1.86802,-1.86802 -1.03115,0 -1.86802,0.83688 -1.86802,1.86802 z"
       style="fill:#9b9b9b;fill-opacity:1;fill-rule:nonzero;stroke:#9b9b9b;stroke-width:0.74721;stroke-linecap:butt;stroke-linejoin:miter;stroke-miterlimit:10;stroke-dasharray:none;stroke-opacity:1"
       transform="matrix(1.3333333,0,0,-1.3333333,-43.436,-10.481333)" />
    <path
       id="path14"
       d="m 112.49957,-72.11299 c 6.5306,-0.0822 12.58296,-2.13703 17.59673,-5.59661 l -18.01515,-26.15226 z"
       style="fill:none;stroke:#000000;stroke-width:0.74721;stroke-linecap:butt;stroke-linejoin:miter;stroke-miterlimit:10;stroke-dasharray:none;stroke-opacity:0"
       transform="matrix(1.3333333,0,0,-1.3333333,-43.436,-10.481333)" />
    <path
       id="path15"
       d="m 112.49957,-72.11299 c 6.5306,-0.0822 12.58296,-2.13703 17.59673,-5.59661"
       style="fill:none;stroke:#000000;stroke-width:0.74721;stroke-linecap:butt;stroke-linejoin:miter;stroke-miterlimit:10;stroke-dasharray:none;stroke-opacity:1"
       transform="matrix(1.3333333,0,0,-1.3333333,-43.436,-10.481333)" />
    <path
       id="path16"
       d="m 138.42767,-136.22342 c -0.97136,12.08235 -4.98387,19.47223 -19.09114,22.63292"
       style="fill:none;stroke:#000000;stroke-width:0.74721;stroke-linecap:butt;stroke-linejoin:miter;stroke-miterlimit:10;stroke-dasharray:none;stroke-opacity:1"
       transform="matrix(1.3333333,0,0,-1.3333333,-43.436,-10.481333)" />
    <path
       id="path17"
       d="m 126.48657,-112.47101 c -3.19043,-0.81157 -6.01765,-1.093 -8.48756,-0.83554 2.38338,-0.69733 4.89331,-2.02876 7.53857,-3.98839"
       style="fill:none;stroke:#000000;stroke-width:0.74721;stroke-linecap:butt;stroke-linejoin:miter;stroke-miterlimit:10;stroke-dasharray:none;stroke-opacity:1"
       transform="matrix(1.3333333,0,0,-1.3333333,-43.436,-10.481333)" />
    <path
       id="path18"
       d="M 112.08115,-103.86186 41.72406,-174.22638"
       style="fill:none;stroke:#9b9b9b;stroke-width:0.74721;stroke-linecap:butt;stroke-linejoin:miter;stroke-miterlimit:10;stroke-dasharray:none;stroke-opacity:1"
       transform="matrix(1.3333333,0,0,-1.3333333,-43.436,-10.481333)" />
    <path
       id="path19"
       d="m 127.84721,-110.01135 c -4.44589,-0.88172 -9.88556,-1.3973 -15.76606,-1.3973 -2.54052,0 -5.00631,0.0971 -7.33759,0.27648 l 7.33759,7.27031 z"
       style="fill:none;stroke:#000000;stroke-width:0.74721;stroke-linecap:butt;stroke-linejoin:miter;stroke-miterlimit:10;stroke-dasharray:none;stroke-opacity:0"
       transform="matrix(1.3333333,0,0,-1.3333333,-43.436,-10.481333)" />
    <path
       id="path20"
       d="m 127.84721,-110.01135 c -4.44589,-0.88172 -9.88556,-1.3973 -15.76606,-1.3973 -2.54052,0 -5.00631,0.0971 -7.33759,0.27648"
       style="fill:none;stroke:#000000;stroke-width:0.74721;stroke-linecap:butt;stroke-linejoin:miter;stroke-miterlimit:10;stroke-dasharray:none;stroke-opacity:1"
       transform="matrix(1.3333333,0,0,-1.3333333,-43.436,-10.481333)" />
    <path
       id="path21"
       d="m 254.0506,-103.86186 14.42857,20.04011"
       style="fill:none;stroke:#000000;stroke-width:0.74721;stroke-linecap:butt;stroke-linejoin:miter;stroke-miterlimit:10;stroke-dasharray:none;stroke-opacity:1"
       transform="matrix(1.3333333,0,0,-1.3333333,-43.436,-10.481333)" />
    <path
       id="path22"
       d="m 268.87852,-87.09824 0.90827,5.09969 -4.54707,-2.48114 z"
       style="fill:#000000;fill-opacity:1;fill-rule:nonzero;stroke:#000000;stroke-width:0.0797;stroke-linecap:butt;stroke-linejoin:miter;stroke-miterlimit:10;stroke-dasharray:none;stroke-opacity:0"
       transform="matrix(1.3333333,0,0,-1.3333333,-43.436,-10.481333)" />
    <path
       id="path23"
       d="m 154.71681,-58.3569 c 0,0 0,0 0,0 0,-5.51439 -18.99403,-9.9827 -42.42647,-9.9827 -23.43243,0 -42.42644,4.46831 -42.42644,9.9827 h 42.42644 z"
       style="fill:none;stroke:#000000;stroke-width:0.74721;stroke-linecap:butt;stroke-linejoin:miter;stroke-miterlimit:10;stroke-dasharray:none;stroke-opacity:0"
       transform="matrix(1.3333333,0,0,-1.3333333,-43.436,-10.481333)" />
    <path
       id="path24"
       d="m 154.71681,-58.3569 c 0,0 0,0 0,0 0,-5.51439 -18.99403,-9.9827 -42.42647,-9.9827 -23.43243,0 -42.42644,4.46831 -42.42644,9.9827"
       style="fill:none;stroke:#4a90e2;stroke-width:0.74721;stroke-linecap:butt;stroke-linejoin:miter;stroke-miterlimit:10;stroke-dasharray:none;stroke-opacity:1"
       transform="matrix(1.3333333,0,0,-1.3333333,-43.436,-10.481333)" />
    <path
       id="path25"
       d="m 175.5938,-103.86186 c 0,0 0,0 0,0 0,-8.25662 -28.43126,-14.94416 -63.51265,-14.94416 -35.07393,0 -63.51265,6.68754 -63.51265,14.94416 h 63.51265 z"
       style="fill:none;stroke:#000000;stroke-width:0.74721;stroke-linecap:butt;stroke-linejoin:miter;stroke-miterlimit:10;stroke-dasharray:none;stroke-opacity:0"
       transform="matrix(1.3333333,0,0,-1.3333333,-43.436,-10.481333)" />
    <path
       id="path26"
       d="m 175.5938,-103.86186 c 0,0 0,0 0,0 0,-8.25662 -28.43126,-14.94416 -63.51265,-14.94416 -35.07393,0 -63.51265,6.68754 -63.51265,14.94416"
       style="fill:none;stroke:#4a90e2;stroke-width:0.74721;stroke-linecap:butt;stroke-linejoin:miter;stroke-miterlimit:10;stroke-dasharray:none;stroke-opacity:1"
       transform="matrix(1.3333333,0,0,-1.3333333,-43.436,-10.481333)" />
    <path
       id="path27"
       d="m 4.5348047,-4.9812891 c 0,-0.65625 -0.1875,-2.0390625 -1.1953125,-2.0390625 -1.3828125,0 -2.91796876,2.8007813 -2.91796876,5.0859375 0,0.93750004 0.28125,2.03906254 1.19531246,2.03906254 1.40625,0 2.9179688,-2.85937504 2.9179688,-5.08593754 z m -3.0585938,1.359375 c 0.1640625,-0.6328125 0.3632813,-1.4296875 0.7617188,-2.1328125 0.2695312,-0.4921875 0.6445312,-1.0546875 1.0898437,-1.0546875 0.4921875,0 0.5507813,0.6445313 0.5507813,1.2070313 0,0.4921875 -0.082031,0.9960937 -0.328125,1.9804687 z m 1.9921875,0.328125 c -0.1171875,0.4570313 -0.3164062,1.3007813 -0.703125,2.015625 -0.3398437,0.67968754 -0.7265625,1.17187504 -1.1484375,1.17187504 -0.328125,0 -0.5390625,-0.29296875 -0.5390625,-1.21875004 0,-0.421875 0.058594,-0.9960937 0.3164063,-1.96875 z m 0,0"
       style="fill:#000000;fill-opacity:1;fill-rule:nonzero;stroke:none"
       aria-label="θ"
       transform="matrix(1.3333333,0,0,1.3333333,118.02,79.88)" />
    <path
       id="path28"
       d="m 1.6990391,1.6987188 c -0.046875,0.1289062 -0.058594,0.140625 -0.058594,0.1992187 0,0.2109375 0.1875,0.2695313 0.2929688,0.2695313 0.046875,0 0.2695312,-0.023437 0.3632812,-0.2578125 C 2.3318516,1.827625 2.3787266,1.4995 2.6482578,0.09325 c 0.09375,0.01171875 0.1640625,0.01171875 0.328125,0.01171875 1.6523438,0 3.1875,-1.55859375 3.1875,-3.12890625 0,-0.7851562 -0.3867187,-1.3828125 -1.1367187,-1.3828125 -1.4414063,0 -2.0390625,1.9335938 -2.6367188,3.87890625 C 1.3123203,-0.7270625 0.76153906,-1.2895625 0.76153906,-2.0044062 c 0,-0.28125 0.22265625,-1.3710938 0.82031254,-2.0625 0.082031,-0.082031 0.082031,-0.1054688 0.082031,-0.1289063 0,-0.035156 -0.023437,-0.09375 -0.1171875,-0.09375 -0.28125,0 -1.04296874,1.4414063 -1.04296874,2.390625 0,0.9375 0.65625004,1.6640625 1.72265624,1.921875 z M 3.0701328,-0.46925 c -0.082031,0 -0.1054687,0 -0.1757812,-0.0117188 -0.1289063,0 -0.140625,-0.0117188 -0.140625,-0.0351562 0,-0.0234375 0.1757812,-0.9257812 0.1992187,-1.078125 0.3164063,-1.2773437 1.0898438,-2.2265625 1.9804688,-2.2265625 0.6796875,0 0.9492187,0.5273438 0.9492187,1.0078125 0,1.125 -1.2773437,2.34375 -2.8125,2.34375 z m 0,0"
       style="fill:#000000;fill-opacity:1;fill-rule:nonzero;stroke:none"
       aria-label="φ"
       transform="matrix(1.3333333,0,0,1.3333333,144.62133,181.75067)" />
    <g
       id="g28"
       aria-label="x&#10;1"
       transform="matrix(1.3333333,0,0,1.3333333,5.42,237.51467)">
      <path
         id="path29"
         d="m 3.3295312,-3.011 c 0.058594,-0.2578125 0.2929688,-1.171875 0.984375,-1.171875 0.046875,0 0.2929688,0 0.5039063,0.1289063 -0.28125,0.046875 -0.4804688,0.3046875 -0.4804688,0.5390625 0,0.1640625 0.1054688,0.3515625 0.375,0.3515625 0.2226563,0 0.5390625,-0.1875 0.5390625,-0.5859375 0,-0.515625 -0.5859375,-0.65625 -0.9257812,-0.65625 -0.5742188,0 -0.9257813,0.5273437 -1.0429688,0.7617187 -0.2578125,-0.65625 -0.7851562,-0.7617187 -1.078125,-0.7617187 -1.0429687,0 -1.6054687,1.2890625 -1.6054687,1.5351562 0,0.1054688 0.10546875,0.1054688 0.1171875,0.1054688 0.0820313,0 0.1171875,-0.023437 0.12890625,-0.1171875 C 1.185,-3.9367812 1.84125,-4.182875 2.1810937,-4.182875 c 0.1875,0 0.5390625,0.09375 0.5390625,0.6679688 0,0.3046875 -0.1640625,0.9726562 -0.5390625,2.3671875 C 2.02875,-0.526625 1.6771875,-0.10475 1.231875,-0.10475 c -0.058594,0 -0.28125,0 -0.4921875,-0.12890625 0.24609375,-0.0585938 0.46875,-0.26953125 0.46875,-0.5390625 0,-0.26953125 -0.22265625,-0.35156245 -0.375,-0.35156245 -0.29296875,0 -0.5390625,0.25781245 -0.5390625,0.5742187 0,0.45703125 0.4921875,0.65625 0.9375,0.65625 0.65625,0 1.0078125,-0.69140625 1.0429687,-0.75 0.1171875,0.36328125 0.4804688,0.75 1.078125,0.75 1.0195313,0 1.59375,-1.2773437 1.59375,-1.5351562 0,-0.09375 -0.09375,-0.09375 -0.1289062,-0.09375 -0.082031,0 -0.1054688,0.035156 -0.1289063,0.1054687 -0.328125,1.06640625 -0.9960937,1.3125 -1.3242187,1.3125 -0.3867188,0 -0.5390625,-0.328125 -0.5390625,-0.65625 0,-0.22265625 0.058594,-0.4453125 0.1640625,-0.8789062 z m 0,0"
         style="fill:#000000;fill-opacity:1;fill-rule:nonzero;stroke:none" />
      <path
         id="path30"
         d="m 8.0258203,-8.0442031 c 0,-0.1875 -0.011719,-0.1992188 -0.2109375,-0.1992188 -0.4453125,0.4335938 -1.078125,0.4453125 -1.359375,0.4453125 v 0.2460938 c 0.1640625,0 0.6210938,0 1.0078125,-0.1875 v 3.5507812 c 0,0.234375 0,0.328125 -0.6914062,0.328125 H 6.5023828 v 0.2460938 c 0.1289063,-0.011719 0.984375,-0.023437 1.2421875,-0.023437 0.2109375,0 1.0898438,0.011719 1.2421875,0.023437 V -3.8606094 H 8.7289453 c -0.703125,0 -0.703125,-0.09375 -0.703125,-0.328125 z m 0,0"
         style="fill:#000000;fill-opacity:1;fill-rule:nonzero;stroke:none" />
    </g>
    <path
       id="path31"
       d="m 6.0244453,-3.7034687 c 0,-0.4453125 -0.1757812,-0.703125 -0.3984375,-0.703125 -0.2578125,0 -0.5273437,0.2460937 -0.5273437,0.46875 0,0.1054687 0.046875,0.2109375 0.1523437,0.3046875 0.1640625,0.140625 0.3515625,0.4101562 0.3515625,0.8320312 0,0.3984375 -0.1875,0.9726563 -0.5039062,1.4296875 -0.2929688,0.421875 -0.6679688,0.76171875 -1.1367188,0.76171875 -0.5625,0 -0.8671875,-0.3515625 -0.9609375,-0.89062495 0.1054688,-0.2578125 0.3398438,-0.9023438 0.3398438,-1.1835938 0,-0.1171875 -0.046875,-0.2109375 -0.1875,-0.2109375 -0.070312,0 -0.1875,0.011719 -0.2578125,0.1640625 -0.1171875,0.1992188 -0.234375,0.84375 -0.234375,1.2070313 -0.328125,0.46875 -0.7265625,0.91406245 -1.359375,0.91406245 -0.65625004,0 -0.86718754,-0.58593745 -0.86718754,-1.14843745 0,-1.2421875 1.01953124,-2.2851563 1.01953124,-2.4140625 0,-0.1171875 -0.082031,-0.1875 -0.1875,-0.1875 -0.1289062,0 -0.1992187,0.1289062 -0.2578125,0.2109375 -0.50390624,0.7382812 -0.89062499,1.921875 -0.89062499,2.8359375 0,0.67968745 0.234375,1.4179687 1.04296879,1.4179687 0.7148437,0 1.1835937,-0.4921875 1.5351562,-1.04296875 0.09375,0.57421875 0.4804688,1.04296875 1.1015625,1.04296875 0.7734375,0 1.2539063,-0.609375 1.6171875,-1.3476562 0.234375,-0.4921875 0.609375,-1.8515625 0.609375,-2.4609375 z m 5.6044927,-2.2265625 c -0.128907,0.1289062 -0.457032,0.4101562 -0.457032,0.5859375 0,0.1054687 0.09375,0.1992187 0.199219,0.1992187 0.08203,0 0.128906,-0.070312 0.1875,-0.1289062 0.117188,-0.140625 0.339844,-0.421875 0.785156,-0.6445313 0.07031,-0.035156 0.164063,-0.09375 0.164063,-0.2109375 0,-0.09375 -0.07031,-0.1523437 -0.140625,-0.1992187 -0.210938,-0.1523438 -0.328125,-0.328125 -0.398438,-0.5625 -0.02344,-0.09375 -0.07031,-0.2226563 -0.199218,-0.2226563 -0.140625,0 -0.199219,0.1289063 -0.199219,0.2109375 0,0.046875 0.07031,0.3632813 0.234375,0.5742188 H 8.4414375 c -0.1640625,0 -0.3398437,0 -0.3398437,0.1992187 0,0.1992188 0.1757812,0.1992188 0.3398437,0.1992188 z m -4.195313,5.34374995 c -0.035156,0.15234375 -0.09375,0.375 -0.09375,0.421875 0,0.1875 0.140625,0.26953125 0.2929688,0.26953125 0.1171875,0 0.2929687,-0.0703125 0.3632812,-0.26953125 0.011719,-0.0234375 0.1289063,-0.4921875 0.1875,-0.73828125 L 8.4062813,-1.8050312 C 8.464875,-2.0276875 8.5234688,-2.238625 8.5820625,-2.473 8.6172188,-2.6370625 8.69925,-2.9300312 8.7109688,-2.9651875 c 0.140625,-0.3164062 0.6679687,-1.21875 1.6171872,-1.21875 0.445313,0 0.539063,0.3632813 0.539063,0.6914063 0,0.6210937 -0.492188,1.8984375 -0.644531,2.3320312 -0.09375,0.22265625 -0.105469,0.33984375 -0.105469,0.45703125 0,0.46875 0.351562,0.80859375 0.820312,0.80859375 0.9375,0 1.300782,-1.453125 1.300782,-1.5351562 0,-0.09375 -0.08203,-0.09375 -0.117188,-0.09375 -0.09375,0 -0.09375,0.023437 -0.152344,0.1757812 -0.199218,0.6796875 -0.527343,1.2421875 -1.007812,1.2421875 -0.175781,0 -0.246094,-0.10546875 -0.246094,-0.328125 0,-0.2578125 0.09375,-0.4921875 0.1875,-0.7148437 0.1875,-0.5273438 0.597656,-1.6171875 0.597656,-2.1914063 0,-0.6679687 -0.421875,-1.0664062 -1.136718,-1.0664062 -0.9023442,0 -1.382813,0.6445312 -1.5585942,0.8671875 -0.046875,-0.5507813 -0.4570313,-0.8671875 -0.9140625,-0.8671875 -0.4570313,0 -0.6445313,0.3867187 -0.75,0.5742187 -0.1523438,0.3398438 -0.2929688,0.9257813 -0.2929688,0.9609375 0,0.1054688 0.09375,0.1054688 0.1171875,0.1054688 0.09375,0 0.1054688,-0.011719 0.1640625,-0.234375 0.1757813,-0.703125 0.375,-1.1835938 0.7265625,-1.1835938 0.1992188,0 0.3164063,0.1289063 0.3164063,0.4570313 0,0.2109375 -0.035156,0.3164062 -0.1640625,0.8320312 z m 0,0"
       style="fill:#000000;fill-opacity:1;fill-rule:nonzero;stroke:none"
       aria-label="ω⃗n"
       transform="matrix(1.3333333,0,0,1.3333333,309.276,127.79733)" />
    <g
       id="g31"
       aria-label="B&#10;3&#10;2π&#10;⊂R&#10;3"
       transform="matrix(1.3333333,0,0,1.3333333,71.633333,250.56267)">
      <path
         id="path32"
         d="m 1.5933594,-0.7735625 c -0.09375,0.38671875 -0.1171875,0.46875 -0.90234377,0.46875 -0.17578125,0 -0.26953125,0 -0.26953125,0.19921875 0,0.10546875 0.0820313,0.10546875 0.26953125,0.10546875 H 4.2417969 c 1.5703125,0 2.7539062,-1.171875 2.7539062,-2.15625 0,-0.7148437 -0.5859375,-1.2890625 -1.546875,-1.3945312 1.03125,-0.1992188 2.0859375,-0.9375 2.0859375,-1.875 0,-0.7382813 -0.65625,-1.3828125 -1.8515625,-1.3828125 H 2.3316406 c -0.1875,0 -0.2929687,0 -0.2929687,0.1992187 0,0.1171875 0.09375,0.1171875 0.28125,0.1171875 0.023437,0 0.2109375,0 0.375,0.011719 0.1875,0.023437 0.2695312,0.035156 0.2695312,0.1640625 0,0.035156 -0.011719,0.070312 -0.035156,0.1875 z m 1.5,-2.8710937 0.6210937,-2.4726563 c 0.09375,-0.3515625 0.1054688,-0.375 0.5390625,-0.375 h 1.2890625 c 0.8671875,0 1.078125,0.5859375 1.078125,1.0195313 0,0.8789062 -0.8554687,1.828125 -2.0742187,1.828125 z m -0.4453125,3.3398437 c -0.140625,0 -0.1523438,0 -0.2226563,-0.0117188 C 2.3316406,-0.32825 2.2964844,-0.33996875 2.2964844,-0.422 c 0,-0.0234375 0,-0.046875 0.058594,-0.22265625 L 3.0347656,-3.422 h 1.8867188 c 0.9609375,0 1.1484375,0.7265625 1.1484375,1.1601563 0,0.984375 -0.890625,1.9570312 -2.0625,1.9570312 z m 0,0"
         style="fill:#000000;fill-opacity:1;fill-rule:nonzero;stroke:none" />
      <path
         id="path33"
         d="m 9.9546875,-6.4454375 c 0.5507815,0 0.9375005,0.375 0.9375005,1.125 0,0.8671875 -0.503907,1.125 -0.9023442,1.125 -0.28125,0 -0.890625,-0.082031 -1.1835938,-0.4921875 0.328125,-0.011719 0.3984375,-0.2460937 0.3984375,-0.3867187 0,-0.2226563 -0.1640625,-0.3867188 -0.3867187,-0.3867188 -0.1875,0 -0.3867188,0.1171875 -0.3867188,0.4101563 0,0.65625 0.7265625,1.078125 1.570313,1.078125 0.972656,0 1.640625,-0.6445313 1.640625,-1.3476563 0,-0.5390625 -0.445313,-1.0898437 -1.21875,-1.2421875 0.738281,-0.2695312 0.996093,-0.796875 0.996093,-1.21875 0,-0.5507812 -0.632812,-0.9609375 -1.40625,-0.9609375 -0.7734372,0 -1.3593747,0.375 -1.3593747,0.9375 0,0.234375 0.1523437,0.3632813 0.3632812,0.3632813 0.2109375,0 0.3515625,-0.1640625 0.3515625,-0.3515625 0,-0.1992188 -0.140625,-0.3515625 -0.3515625,-0.3632813 0.234375,-0.3046875 0.7148438,-0.3867187 0.9726563,-0.3867187 0.3164062,0 0.7617192,0.1523437 0.7617192,0.7617187 0,0.2929688 -0.105469,0.609375 -0.28125,0.8320313 -0.234375,0.2578125 -0.421875,0.28125 -0.773438,0.2929687 -0.1757812,0.023437 -0.1875,0.023437 -0.2226562,0.023437 -0.011719,0 -0.070312,0.011719 -0.070312,0.09375 0,0.09375 0.058594,0.09375 0.1757812,0.09375 z m 1.1191405,7.6435547 h -0.234375 c -0.02344,0.1523437 -0.08203,0.5625 -0.175781,0.6328125 -0.05859,0.035156 -0.597656,0.035156 -0.6914064,0.035156 H 8.6832031 c 0.7382813,-0.6445312 0.984375,-0.84375 1.3945309,-1.17187496 0.515625,-0.41015625 0.996094,-0.84375 0.996094,-1.5 0,-0.84375004 -0.738281,-1.35937504 -1.6289061,-1.35937504 -0.8671875,0 -1.453125,0.609375 -1.453125,1.24218754 0,0.36328125 0.3046875,0.3984375 0.375,0.3984375 0.1640625,0 0.375,-0.1171875 0.375,-0.375 0,-0.12890624 -0.058594,-0.36328124 -0.421875,-0.36328124 0.2226562,-0.5039063 0.6914062,-0.65625 1.0195312,-0.65625 0.7031249,0 1.0664059,0.5507812 1.0664059,1.11328124 0,0.609375 -0.4335934,1.08984375 -0.6562496,1.3359375 l -1.6875,1.66406246 c -0.070313,0.058594 -0.070313,0.070312 -0.070313,0.2695313 h 2.8828116 z m 0,0"
         style="fill:#000000;fill-opacity:1;fill-rule:nonzero;stroke:none" />
      <path
         id="path34"
         d="m 13.695898,-0.06750781 h 0.832032 c -0.105469,0.421875 -0.257813,1.0546875 -0.257813,1.60546871 0,0.28125 0.03516,0.46875 0.07031,0.6210938 0.117187,0.3515625 0.210937,0.375 0.316406,0.375 0.164062,0 0.328125,-0.1523438 0.328125,-0.3164063 0,-0.058594 -0.01172,-0.082031 -0.05859,-0.1523437 -0.128906,-0.2578125 -0.257812,-0.65625 -0.257812,-1.23046876 0,-0.12890625 0,-0.41015625 0.105468,-0.90234375 h 0.867188 c 0.128906,0 0.1875,0 0.257812,-0.05859375 0.09375,-0.0703125 0.117188,-0.17578125 0.117188,-0.2109375 0,-0.19921875 -0.175781,-0.19921875 -0.292969,-0.19921875 h -2.636719 c -0.28125,0 -0.480468,0.0585937 -0.796875,0.3515625 -0.175781,0.1640625 -0.445312,0.5390625 -0.445312,0.59765625 0,0.0820313 0.09375,0.0820313 0.117187,0.0820313 0.07031,0 0.08203,-0.0117188 0.128907,-0.0703125 0.351562,-0.4921875 0.785156,-0.4921875 0.9375,-0.4921875 h 0.421875 c -0.210939,0.7617187 -0.585939,1.59374996 -0.796876,2.00390616 -0.04687,0.09375 -0.117188,0.2460938 -0.140625,0.2695313 0,0.023437 -0.01172,0.058594 -0.01172,0.1054687 0,0.1054688 0.08203,0.2226563 0.246094,0.2226563 0.269531,0 0.351562,-0.3164063 0.515625,-0.9375 z m 0,0"
         style="fill:#000000;fill-opacity:1;fill-rule:nonzero;stroke:none" />
      <path
         id="path35"
         d="m 26.264258,-4.9805937 c 0.175781,0 0.351562,0 0.351562,-0.1992188 0,-0.1992187 -0.175781,-0.1992187 -0.351562,-0.1992187 h -2.671875 c -1.710938,0 -3.058594,1.2890625 -3.058594,2.8828125 0,1.59374995 1.347656,2.8945312 3.058594,2.8945312 h 2.671875 c 0.175781,0 0.351562,0 0.351562,-0.19921875 0,-0.19921875 -0.175781,-0.19921875 -0.351562,-0.19921875 h -2.660156 c -1.546875,0 -2.671875,-1.1601562 -2.671875,-2.4960937 0,-1.3242188 1.125,-2.484375 2.671875,-2.484375 z m 0,0"
         style="fill:#000000;fill-opacity:1;fill-rule:nonzero;stroke:none" />
      <path
         id="path36"
         d="m 32.891211,-3.1290312 h 0.351562 l 1.5,2.3085937 c 0.09375,0.1640625 0.339844,0.55078125 0.445313,0.703125 0.07031,0.1171875 0.105469,0.1171875 0.328125,0.1171875 h 1.382812 c 0.175782,0 0.328125,0 0.328125,-0.17578125 0,-0.0820313 -0.07031,-0.15234375 -0.152343,-0.17578125 -0.375,-0.0820313 -0.855469,-0.7382812 -1.101563,-1.0546875 -0.07031,-0.09375 -0.5625,-0.75 -1.230469,-1.828125 0.890625,-0.1640625 1.746094,-0.5390625 1.746094,-1.7226562 0,-1.3828125 -1.464844,-1.8632813 -2.648437,-1.8632813 h -3.117188 c -0.1875,0 -0.339844,0 -0.339844,0.1757813 0,0.1640625 0.1875,0.1640625 0.269532,0.1640625 0.5625,0 0.609375,0.070312 0.609375,0.5742187 v 4.9921875 c 0,0.4921875 -0.04687,0.5625 -0.609375,0.5625 -0.08203,0 -0.269532,0 -0.269532,0.17578125 0,0.17578125 0.152344,0.17578125 0.339844,0.17578125 h 2.71875 c 0.1875,0 0.328125,0 0.328125,-0.17578125 0,-0.17578125 -0.164062,-0.17578125 -0.269531,-0.17578125 -0.574219,0 -0.609375,-0.0820313 -0.609375,-0.5625 z m 1.921875,-0.4921875 c 0.28125,-0.3632813 0.304687,-0.890625 0.304687,-1.3242188 0,-0.4804687 -0.05859,-1.0078125 -0.375,-1.4179687 0.410157,0.082031 1.394532,0.3984375 1.394532,1.40625 0,0.6445312 -0.304688,1.1484375 -1.324219,1.3359375 z m -1.921875,-2.3203125 c 0,-0.1992188 0,-0.5390625 0.621094,-0.5390625 0.84375,0 1.253906,0.3515625 1.253906,1.5351562 0,1.2773438 -0.304688,1.4648438 -1.875,1.4648438 z m -1.359375,5.5898437 c 0.08203,-0.17578125 0.08203,-0.45703125 0.08203,-0.55078125 V -5.9298125 c 0,-0.09375 0,-0.3632812 -0.08203,-0.5507812 h 1.136719 c -0.128907,0.1640625 -0.128907,0.3632812 -0.128907,0.515625 v 5.06249995 c 0,0.10546875 0,0.375 0.08203,0.55078125 z m 2.121094,-2.7773437 c 0.07031,-0.011719 0.117187,-0.023437 0.1875,-0.023437 0.152343,0 0.375,-0.011719 0.527343,-0.035156 0.140625,0.234375 1.21875,2.015625 2.050782,2.8359375 h -0.972657 z m 0,0"
         style="fill:#000000;fill-opacity:1;fill-rule:nonzero;stroke:none" />
      <path
         id="path37"
         d="m 39.313086,-6.4454375 c 0.550781,0 0.9375,0.375 0.9375,1.125 0,0.8671875 -0.503906,1.125 -0.902344,1.125 -0.28125,0 -0.890625,-0.082031 -1.183594,-0.4921875 0.328125,-0.011719 0.398438,-0.2460937 0.398438,-0.3867187 0,-0.2226563 -0.164063,-0.3867188 -0.386719,-0.3867188 -0.1875,0 -0.386719,0.1171875 -0.386719,0.4101563 0,0.65625 0.726563,1.078125 1.570313,1.078125 0.972656,0 1.640625,-0.6445313 1.640625,-1.3476563 0,-0.5390625 -0.445313,-1.0898437 -1.21875,-1.2421875 0.738281,-0.2695312 0.996094,-0.796875 0.996094,-1.21875 0,-0.5507812 -0.632813,-0.9609375 -1.40625,-0.9609375 -0.773438,0 -1.359375,0.375 -1.359375,0.9375 0,0.234375 0.152343,0.3632813 0.363281,0.3632813 0.210937,0 0.351562,-0.1640625 0.351562,-0.3515625 0,-0.1992188 -0.140625,-0.3515625 -0.351562,-0.3632813 0.234375,-0.3046875 0.714844,-0.3867187 0.972656,-0.3867187 0.316406,0 0.761719,0.1523437 0.761719,0.7617187 0,0.2929688 -0.105469,0.609375 -0.28125,0.8320313 -0.234375,0.2578125 -0.421875,0.28125 -0.773438,0.2929687 -0.175781,0.023437 -0.1875,0.023437 -0.222656,0.023437 -0.01172,0 -0.07031,0.011719 -0.07031,0.09375 0,0.09375 0.05859,0.09375 0.175781,0.09375 z m 0,0"
         style="fill:#000000;fill-opacity:1;fill-rule:nonzero;stroke:none" />
    </g>
  </g>
</svg>
