<?xml version="1.0" encoding="UTF-8" standalone="no"?>
<!-- Created with Inkscape (http://www.inkscape.org/) -->

<svg
   version="1.1"
   id="svg1"
   width="362.92001"
   height="153.05333"
   viewBox="0 0 362.92001 153.05333"
   sodipodi:docname="fusion-computation.pdf"
   xmlns:inkscape="http://www.inkscape.org/namespaces/inkscape"
   xmlns:sodipodi="http://sodipodi.sourceforge.net/DTD/sodipodi-0.dtd"
   xmlns="http://www.w3.org/2000/svg"
   xmlns:svg="http://www.w3.org/2000/svg">
  <defs
     id="defs1" />
  <sodipodi:namedview
     id="namedview1"
     pagecolor="#ffffff"
     bordercolor="#000000"
     borderopacity="0.25"
     inkscape:showpageshadow="2"
     inkscape:pageopacity="0.0"
     inkscape:pagecheckerboard="0"
     inkscape:deskcolor="#d1d1d1">
    <inkscape:page
       x="0"
       y="0"
       inkscape:label="1"
       id="page1"
       width="362.92001"
       height="153.05333"
       margin="0"
       bleed="0" />
  </sodipodi:namedview>
  <g
     id="g1"
     inkscape:groupmode="layer"
     inkscape:label="1">
    <path
       id="path1"
       d="m 195.00613,-64.65334 c 0,24.87594 20.16854,45.03924 45.03925,45.03924 24.87592,0 45.04446,-20.1633 45.04446,-45.03924 0,-24.87593 -20.16854,-45.03923 -45.04446,-45.03923 -24.87071,0 -45.03925,20.1633 -45.03925,45.03923 z"
       style="fill:none;stroke:#000000;stroke-width:0.74721;stroke-linecap:butt;stroke-linejoin:miter;stroke-miterlimit:10;stroke-dasharray:none;stroke-opacity:1"
       transform="matrix(1.3333333,0,0,-1.3333333,-61.210667,-25.637333)" />
    <path
       id="path2"
       d="m 207.90436,-67.68175 c 0,2.12877 1.72606,3.85482 3.85483,3.85482 2.12356,0 3.84961,-1.72605 3.84961,-3.85482 0,-2.12878 -1.72605,-3.84961 -3.84961,-3.84961 -2.12877,0 -3.85483,1.72083 -3.85483,3.84961 z"
       style="fill:none;stroke:#9013fe;stroke-width:1.49442;stroke-linecap:butt;stroke-linejoin:miter;stroke-miterlimit:10;stroke-dasharray:none;stroke-opacity:1"
       transform="matrix(1.3333333,0,0,-1.3333333,-61.210667,-25.637333)" />
    <path
       id="path3"
       d="m 251.06587,-44.84047 c 0,3.11734 2.52109,5.64363 5.63841,5.64363 3.11734,0 5.63843,-2.52629 5.63843,-5.64363 0,-3.11209 -2.52109,-5.6384 -5.63843,-5.6384 -3.11732,0 -5.63841,2.52631 -5.63841,5.6384 z"
       style="fill:none;stroke:#000000;stroke-width:0.74721;stroke-linecap:butt;stroke-linejoin:miter;stroke-miterlimit:10;stroke-dasharray:2.98883, 2.98883;stroke-dashoffset:0;stroke-opacity:1"
       transform="matrix(1.3333333,0,0,-1.3333333,-61.210667,-25.637333)" />
    <path
       id="path4"
       d="m 247.20584,-88.55116 c 0,3.78158 3.01795,6.84662 6.74202,6.84662 3.72928,0 6.74724,-3.06504 6.74724,-6.84662 0,-3.7816 -3.01796,-6.85187 -6.74724,-6.85187 -3.72407,0 -6.74202,3.07027 -6.74202,6.85187 z"
       style="fill:none;stroke:#000000;stroke-width:0.74721;stroke-linecap:butt;stroke-linejoin:miter;stroke-miterlimit:10;stroke-dasharray:2.98883, 2.98883;stroke-dashoffset:0;stroke-opacity:1"
       transform="matrix(1.3333333,0,0,-1.3333333,-61.210667,-25.637333)" />
    <path
       id="path5"
       d="m 254.19368,-49.71523 c 12.4955,-8.10192 22.08289,-24.14367 -2.32231,-31.98931"
       style="fill:none;stroke:#000000;stroke-width:0.74721;stroke-linecap:butt;stroke-linejoin:miter;stroke-miterlimit:10;stroke-dasharray:none;stroke-opacity:1"
       transform="matrix(1.3333333,0,0,-1.3333333,-61.210667,-25.637333)" />
    <path
       id="path6"
       d="m 256.70428,-39.19684 c 17.48011,0.73229 32.06778,-42.11018 1.53775,-55.26994"
       style="fill:none;stroke:#000000;stroke-width:0.74721;stroke-linecap:butt;stroke-linejoin:miter;stroke-miterlimit:10;stroke-dasharray:none;stroke-opacity:1"
       transform="matrix(1.3333333,0,0,-1.3333333,-61.210667,-25.637333)" />
    <path
       id="path7"
       d="m 267.09193,-68.58662 c 0,1.07225 1.78881,1.94572 3.99604,1.94572 2.20203,0 3.99081,-0.87347 3.99081,-1.94572 0,-1.07748 -1.78878,-1.94571 -3.99081,-1.94571 -2.20723,0 -3.99604,0.86823 -3.99604,1.94571 z"
       style="fill:none;stroke:#000000;stroke-width:0.74721;stroke-linecap:butt;stroke-linejoin:miter;stroke-miterlimit:10;stroke-dasharray:2.98883, 2.98883;stroke-dashoffset:0;stroke-opacity:1"
       transform="matrix(1.3333333,0,0,-1.3333333,-61.210667,-25.637333)" />
    <path
       id="path8"
       d="m 49.60016,-64.64287 c 0,24.8707 20.16853,45.03925 45.03923,45.03925 24.87595,0 45.04448,-20.16855 45.04448,-45.03925 0,-24.87593 -20.16853,-45.04448 -45.04448,-45.04448 -24.8707,0 -45.03923,20.16855 -45.03923,45.04448 z"
       style="fill:none;stroke:#000000;stroke-width:0.74721;stroke-linecap:butt;stroke-linejoin:miter;stroke-miterlimit:10;stroke-dasharray:none;stroke-opacity:1"
       transform="matrix(1.3333333,0,0,-1.3333333,-61.210667,-25.637333)" />
    <path
       id="path9"
       d="m 62.4984,-67.6713 c 0,2.12879 1.72603,3.85483 3.85483,3.85483 2.12355,0 3.84959,-1.72604 3.84959,-3.85483 0,-2.12878 -1.72604,-3.85482 -3.84959,-3.85482 -2.1288,0 -3.85483,1.72604 -3.85483,3.85482 z"
       style="fill:none;stroke:#9013fe;stroke-width:1.49442;stroke-linecap:butt;stroke-linejoin:miter;stroke-miterlimit:10;stroke-dasharray:none;stroke-opacity:1"
       transform="matrix(1.3333333,0,0,-1.3333333,-61.210667,-25.637333)" />
    <path
       id="path10"
       d="m 105.65991,-44.83 c 0,3.1121 2.52107,5.6384 5.6384,5.6384 3.11735,0 5.63841,-2.5263 5.63841,-5.6384 0,-3.11734 -2.52106,-5.6384 -5.63841,-5.6384 -3.11733,0 -5.6384,2.52106 -5.6384,5.6384 z"
       style="fill:none;stroke:#000000;stroke-width:0.74721;stroke-linecap:butt;stroke-linejoin:miter;stroke-miterlimit:10;stroke-dasharray:none;stroke-opacity:1"
       transform="matrix(1.3333333,0,0,-1.3333333,-61.210667,-25.637333)" />
    <path
       id="path11"
       d="m 102.00906,-88.54594 c 0,3.7816 3.01796,6.85185 6.74202,6.85185 3.72932,0 6.74729,-3.07025 6.74729,-6.85185 0,-3.78161 -3.01797,-6.84666 -6.74729,-6.84666 -3.72406,0 -6.74202,3.06505 -6.74202,6.84666 z"
       style="fill:none;stroke:#000000;stroke-width:0.74721;stroke-linecap:butt;stroke-linejoin:miter;stroke-miterlimit:10;stroke-dasharray:none;stroke-opacity:1"
       transform="matrix(1.3333333,0,0,-1.3333333,-61.210667,-25.637333)" />
    <path
       id="path12"
       d="m 144.98752,-50.97577 c 13.38991,-6.27652 21.34016,-23.64154 -1.2553,-32.01023"
       style="fill:none;stroke:#000000;stroke-width:0.74721;stroke-linecap:butt;stroke-linejoin:miter;stroke-miterlimit:10;stroke-dasharray:none;stroke-opacity:1"
       transform="matrix(1.3333333,0,0,-1.3333333,-61.210667,-25.637333)" />
    <path
       id="path13"
       d="m 147.70212,-40.44691 c 17.48008,0.73226 31.36688,-42.14158 0.8421,-55.30135"
       style="fill:none;stroke:#000000;stroke-width:0.74721;stroke-linecap:butt;stroke-linejoin:miter;stroke-miterlimit:10;stroke-dasharray:none;stroke-opacity:1"
       transform="matrix(1.3333333,0,0,-1.3333333,-61.210667,-25.637333)" />
    <path
       id="path14"
       d="m 158.08975,-69.8367 c 0,1.07747 1.78879,1.94574 3.99605,1.94574 2.202,0 3.99081,-0.86827 3.99081,-1.94574 0,-1.07224 -1.78881,-1.94048 -3.99081,-1.94048 -2.20726,0 -3.99605,0.86824 -3.99605,1.94048 z"
       style="fill:none;stroke:#000000;stroke-width:0.74721;stroke-linecap:butt;stroke-linejoin:miter;stroke-miterlimit:10;stroke-dasharray:none;stroke-opacity:1"
       transform="matrix(1.3333333,0,0,-1.3333333,-61.210667,-25.637333)" />
    <path
       id="path15"
       d="m 139.45895,-89.27296 c 0,3.78158 3.01795,6.84663 6.74202,6.84663 3.72931,0 6.74727,-3.06505 6.74727,-6.84663 0,-3.78161 -3.01796,-6.84665 -6.74727,-6.84665 -3.72407,0 -6.74202,3.06504 -6.74202,6.84665 z"
       style="fill:none;stroke:#000000;stroke-width:0.74721;stroke-linecap:butt;stroke-linejoin:miter;stroke-miterlimit:10;stroke-dasharray:none;stroke-opacity:1"
       transform="matrix(1.3333333,0,0,-1.3333333,-61.210667,-25.637333)" />
    <path
       id="path16"
       d="m 142.0637,-46.08531 c 0,3.11211 2.52108,5.6384 5.63842,5.6384 3.11734,0 5.6384,-2.52629 5.6384,-5.6384 0,-3.11734 -2.52106,-5.6384 -5.6384,-5.6384 -3.11734,0 -5.63842,2.52106 -5.63842,5.6384 z"
       style="fill:none;stroke:#000000;stroke-width:0.74721;stroke-linecap:butt;stroke-linejoin:miter;stroke-miterlimit:10;stroke-dasharray:none;stroke-opacity:1"
       transform="matrix(1.3333333,0,0,-1.3333333,-61.210667,-25.637333)" />
    <path
       id="path17"
       d="m 174.17332,-69.04167 h 11.88877"
       style="fill:none;stroke:#000000;stroke-width:0.74721;stroke-linecap:butt;stroke-linejoin:miter;stroke-miterlimit:10;stroke-dasharray:none;stroke-opacity:1"
       transform="matrix(1.3333333,0,0,-1.3333333,-61.210667,-25.637333)" />
    <path
       id="path18"
       d="m 182.96045,-71.28552 4.67076,2.24385 -4.67076,2.24383 z"
       style="fill:#000000;fill-opacity:1;fill-rule:nonzero;stroke:#000000;stroke-width:0.0797;stroke-linecap:butt;stroke-linejoin:miter;stroke-miterlimit:10;stroke-dasharray:none;stroke-opacity:0"
       transform="matrix(1.3333333,0,0,-1.3333333,-61.210667,-25.637333)" />
    <path
       id="path19"
       d="m 174.17332,-126.05338 h 11.88877"
       style="fill:none;stroke:#000000;stroke-width:0.74721;stroke-linecap:butt;stroke-linejoin:miter;stroke-miterlimit:10;stroke-dasharray:none;stroke-opacity:1"
       transform="matrix(1.3333333,0,0,-1.3333333,-61.210667,-25.637333)" />
    <path
       id="path20"
       d="m 182.96045,-128.29721 4.67076,2.24383 -4.67076,2.24386 z"
       style="fill:#000000;fill-opacity:1;fill-rule:nonzero;stroke:#000000;stroke-width:0.0797;stroke-linecap:butt;stroke-linejoin:miter;stroke-miterlimit:10;stroke-dasharray:none;stroke-opacity:0"
       transform="matrix(1.3333333,0,0,-1.3333333,-61.210667,-25.637333)" />
    <path
       id="path21"
       d="m 3.9505078,-6.2220156 c 0,-0.1875 -0.1289062,-0.3632813 -0.375,-0.3632813 -0.2226562,0 -0.5273437,0.234375 -0.5273437,0.5273438 0,0.1992187 0.140625,0.3632812 0.375,0.3632812 0.2695312,0 0.5273437,-0.2578125 0.5273437,-0.5273437 z M 1.9583203,0.50454688 C 1.7591016,1.2545469 1.2903516,1.8287656 0.72785156,1.8287656 c -0.0585938,0 -0.2109375,0 -0.38671875,-0.09375 0.29296875,-0.070312 0.4453125,-0.328125 0.4453125,-0.5273437 0,-0.1640625 -0.10546875,-0.35156252 -0.375,-0.35156252 -0.24609375,0 -0.5390625,0.21093752 -0.5390625,0.57421872 0,0.3984375 0.3984375,0.609375 0.87890625,0.609375 0.69140624,0 1.61718754,-0.5273437 1.87500004,-1.51171872 L 3.5403516,-3.1165469 c 0.046875,-0.1992187 0.046875,-0.3398437 0.046875,-0.375 0,-0.5625 -0.421875,-0.9140625 -0.9140625,-0.9140625 -1.0195313,0 -1.5820313,1.453125 -1.5820313,1.5351563 0,0.1054687 0.09375,0.1054687 0.1171875,0.1054687 0.09375,0 0.09375,-0.011719 0.1757813,-0.1992187 0.2460937,-0.609375 0.7148437,-1.21875 1.2539062,-1.21875 0.140625,0 0.3164063,0.035156 0.3164063,0.4570312 0,0.234375 -0.023437,0.3398438 -0.058594,0.5039063 z m 0,0"
       style="fill:#000000;fill-opacity:1;fill-rule:nonzero;stroke:none"
       aria-label="j"
       transform="matrix(1.3333333,0,0,1.3333333,26.76,53.241333)" />
    <g
       id="g21"
       aria-label="j&#10;′"
       transform="matrix(1.3333333,0,0,1.3333333,85.341333,57.256)">
      <path
         id="path22"
         d="m 3.9481016,-6.2212969 c 0,-0.1875 -0.1289063,-0.3632812 -0.375,-0.3632812 -0.2226563,0 -0.5273438,0.234375 -0.5273438,0.5273437 0,0.1992188 0.140625,0.3632813 0.375,0.3632813 0.2695313,0 0.5273438,-0.2578125 0.5273438,-0.5273438 z M 1.9559141,0.50526562 C 1.7566953,1.2552656 1.2879453,1.8294844 0.72544531,1.8294844 c -0.0585938,0 -0.2109375,0 -0.38671875,-0.09375 0.29296875,-0.070312 0.4453125,-0.328125 0.4453125,-0.5273438 0,-0.1640625 -0.10546875,-0.35156248 -0.375,-0.35156248 -0.24609375,0 -0.5390625,0.21093748 -0.5390625,0.57421878 0,0.3984375 0.3984375,0.609375 0.87890625,0.609375 0.69140629,0 1.61718749,-0.5273438 1.87499999,-1.51171878 L 3.5379453,-3.1158281 c 0.046875,-0.1992188 0.046875,-0.3398438 0.046875,-0.375 0,-0.5625 -0.421875,-0.9140625 -0.9140625,-0.9140625 -1.0195312,0 -1.5820312,1.453125 -1.5820312,1.5351562 0,0.1054688 0.09375,0.1054688 0.1171875,0.1054688 0.09375,0 0.09375,-0.011719 0.1757812,-0.1992188 0.2460938,-0.609375 0.7148438,-1.21875 1.2539063,-1.21875 0.140625,0 0.3164062,0.035156 0.3164062,0.4570313 0,0.234375 -0.023437,0.3398437 -0.058594,0.5039062 z m 0,0"
         style="fill:#000000;fill-opacity:1;fill-rule:nonzero;stroke:none" />
      <path
         id="path23"
         d="m 6.6990781,-6.9068438 c 0.046875,-0.1171875 0.058594,-0.1757812 0.058594,-0.2226562 0,-0.2109375 -0.1992188,-0.3867188 -0.4101563,-0.3867188 -0.2695312,0 -0.3515625,0.2226563 -0.3867187,0.328125 l -0.9140625,3.0234375 c -0.011719,0.011719 -0.035156,0.1054688 -0.035156,0.1171875 0,0.082031 0.2109375,0.1523438 0.2695313,0.1523438 0.046875,0 0.058594,-0.023437 0.1054687,-0.1289063 z m 0,0"
         style="fill:#000000;fill-opacity:1;fill-rule:nonzero;stroke:none" />
    </g>
    <g
       id="g23"
       aria-label="j&#10;′′"
       transform="matrix(1.3333333,0,0,1.3333333,62.326667,97.008)">
      <path
         id="path24"
         d="m 3.9503125,-6.2227969 c 0,-0.1875 -0.1289062,-0.3632812 -0.375,-0.3632812 -0.2226562,0 -0.5273437,0.234375 -0.5273437,0.5273437 0,0.1992188 0.140625,0.3632813 0.375,0.3632813 0.2695312,0 0.5273437,-0.2578125 0.5273437,-0.5273438 z M 1.958125,0.50376562 C 1.7589063,1.2537656 1.2901563,1.8279844 0.72765625,1.8279844 c -0.0585938,0 -0.2109375,0 -0.38671875,-0.09375 C 0.63390625,1.6639219 0.78625,1.4061094 0.78625,1.2068906 c 0,-0.1640625 -0.10546875,-0.35156248 -0.375,-0.35156248 -0.24609375,0 -0.5390625,0.21093748 -0.5390625,0.57421878 0,0.3984375 0.3984375,0.609375 0.87890625,0.609375 0.69140625,0 1.61718755,-0.5273438 1.87500005,-1.51171878 L 3.5401563,-3.1173281 c 0.046875,-0.1992188 0.046875,-0.3398438 0.046875,-0.375 0,-0.5625 -0.421875,-0.9140625 -0.9140625,-0.9140625 -1.0195313,0 -1.5820313,1.453125 -1.5820313,1.5351562 0,0.1054688 0.09375,0.1054688 0.1171875,0.1054688 0.09375,0 0.09375,-0.011719 0.1757813,-0.1992188 0.2460937,-0.609375 0.7148437,-1.21875 1.2539062,-1.21875 0.140625,0 0.3164063,0.035156 0.3164063,0.4570313 0,0.234375 -0.023437,0.3398437 -0.058594,0.5039062 z m 0,0"
         style="fill:#000000;fill-opacity:1;fill-rule:nonzero;stroke:none" />
      <path
         id="path25"
         d="m 6.7012891,-6.9083438 c 0.046875,-0.1171875 0.058594,-0.1757812 0.058594,-0.2226562 0,-0.2109375 -0.1992187,-0.3867188 -0.4101562,-0.3867188 -0.2695313,0 -0.3515625,0.2226563 -0.3867188,0.328125 l -0.9140625,3.0234375 c -0.011719,0.011719 -0.035156,0.1054688 -0.035156,0.1171875 0,0.082031 0.2109375,0.1523438 0.2695312,0.1523438 0.046875,0 0.058594,-0.023437 0.1054688,-0.1289063 z m 2.2939453,0 c 0.046875,-0.1171875 0.058594,-0.1757812 0.058594,-0.2226562 0,-0.2109375 -0.1992187,-0.3867188 -0.4101562,-0.3867188 -0.2695313,0 -0.3515625,0.2226563 -0.3867188,0.328125 l -0.9140625,3.0234375 c -0.011719,0.011719 -0.035156,0.1054688 -0.035156,0.1171875 0,0.082031 0.2109375,0.1523438 0.2695312,0.1523438 0.046875,0 0.058594,-0.023437 0.1054688,-0.1289063 z m 0,0"
         style="fill:#000000;fill-opacity:1;fill-rule:nonzero;stroke:none" />
    </g>
    <g
       id="g25"
       aria-label="N&#10;jj&#10;′&#10;j&#10;′′"
       transform="matrix(1.3333333,0,0,1.3333333,57.445333,146.26533)">
      <path
         id="path26"
         d="m 3.0468594,-5.7185313 c 0.1757812,0.515625 0.3984375,1.265625 0.84375,2.4960938 0.6328125,1.6875 0.9140625,2.30859375 1.5234375,3.2578125 0.1289062,0.19921875 0.140625,0.2109375 0.234375,0.2109375 0.140625,0 0.3515625,-0.1171875 0.4570312,-0.19921875 0.140625,-0.12890625 0.1523438,-0.140625 0.2578125,-0.62109375 0.5976563,-2.625 1.359375,-5.3554688 1.5585938,-5.8125 0.011719,-0.023437 0.2109375,-0.3984375 1.4296875,-0.421875 0.1992187,0 0.3867187,-0.5273438 0.3867187,-0.75 0,-0.1640625 -0.058594,-0.1640625 -0.1992187,-0.1640625 -0.9960938,0 -1.4414063,0.421875 -1.5585938,0.5507812 -0.28125,0.3632813 -0.515625,1.0898438 -0.9726562,2.7539063 -0.3515625,1.265625 -0.6679688,2.5664062 -0.984375,3.85546875 C 5.4843594,-1.3943125 5.1679531,-2.1794688 4.6874844,-3.4685313 4.1601406,-4.8865 3.8437344,-5.91775 3.5742031,-6.808375 3.5156094,-7.0075938 3.5038906,-7.0193125 3.4218594,-7.0193125 c -0.023437,0 -0.2226563,0 -0.515625,0.234375 -0.09375,0.09375 -0.1054688,0.1757812 -0.1171875,0.2929687 -0.28125,2.6484375 -1.21875,5.2617188 -1.4882813,5.74218755 -0.070312,0.15234375 -0.1992187,0.328125 -0.39843748,0.328125 -0.09375,0 -0.48046875,-0.046875 -0.73828125,-0.28125 -0.0585938,-0.046875 -0.0703125,-0.046875 -0.08203125,-0.046875 -0.1640625,0 -0.375,0.50390625 -0.375,0.73828125 0,0.31640625 0.609375,0.515625 0.890625,0.515625 0.63281248,0 1.14843748,-1.40625 1.30078128,-1.8632813 0.65625,-1.8046875 0.9609375,-3.2929687 1.1484375,-4.359375 z m 0,0"
         style="fill:#000000;fill-opacity:1;fill-rule:nonzero;stroke:none" />
      <path
         id="path27"
         d="m 11.232406,-2.8650156 c 0,-0.1171875 -0.09375,-0.2578125 -0.28125,-0.2578125 -0.199219,0 -0.386719,0.1875 -0.386719,0.375 0,0.1171875 0.08203,0.2695312 0.28125,0.2695312 0.1875,0 0.386719,-0.1875 0.386719,-0.3867187 z M 9.7558437,1.8342031 C 9.6386562,2.3146719 9.2636562,2.7248281 8.8535,2.7248281 c -0.082031,0 -0.1757813,-0.011719 -0.2460938,-0.046875 0.1757813,-0.082031 0.234375,-0.2460937 0.234375,-0.3515625 0,-0.1640625 -0.1289062,-0.2578125 -0.2695312,-0.2578125 -0.2226563,0 -0.3984375,0.1875 -0.3984375,0.4101563 0,0.2695312 0.2695312,0.4335937 0.6914062,0.4335937 0.421875,0 1.2304683,-0.2460937 1.4531253,-1.1015625 l 0.621093,-2.49609373 c 0.02344,-0.0703125 0.03516,-0.140625 0.03516,-0.234375 0,-0.38671877 -0.328125,-0.65624997 -0.738282,-0.65624997 -0.7851558,0 -1.2304683,0.96093747 -1.2304683,1.06640622 0,0.0820313 0.1054688,0.0820313 0.1289063,0.0820313 0.082031,0 0.082031,-0.0117188 0.1289062,-0.1171875 0.1757813,-0.41015625 0.5390625,-0.84375002 0.9492188,-0.84375002 0.175781,0 0.234375,0.1171875 0.234375,0.3398437 0,0.0820313 -0.01172,0.17578132 -0.02344,0.21093757 z m 5.1650393,-4.6992187 c 0,-0.1171875 -0.09375,-0.2578125 -0.28125,-0.2578125 -0.199219,0 -0.386719,0.1875 -0.386719,0.375 0,0.1171875 0.08203,0.2695312 0.28125,0.2695312 0.1875,0 0.386719,-0.1875 0.386719,-0.3867187 z M 13.44432,1.8342031 c -0.117187,0.4804688 -0.492187,0.890625 -0.902343,0.890625 -0.08203,0 -0.175782,-0.011719 -0.246094,-0.046875 0.175781,-0.082031 0.234375,-0.2460937 0.234375,-0.3515625 0,-0.1640625 -0.128906,-0.2578125 -0.269531,-0.2578125 -0.222657,0 -0.398438,0.1875 -0.398438,0.4101563 0,0.2695312 0.269531,0.4335937 0.691406,0.4335937 0.421875,0 1.230469,-0.2460937 1.453125,-1.1015625 l 0.621094,-2.49609373 c 0.02344,-0.0703125 0.03516,-0.140625 0.03516,-0.234375 0,-0.38671877 -0.328125,-0.65624997 -0.738281,-0.65624997 -0.785156,0 -1.230469,0.96093747 -1.230469,1.06640622 0,0.0820313 0.105469,0.0820313 0.128907,0.0820313 0.08203,0 0.08203,-0.0117188 0.128906,-0.1171875 0.175781,-0.41015625 0.539062,-0.84375002 0.949219,-0.84375002 0.175781,0 0.234375,0.1171875 0.234375,0.3398437 0,0.0820313 -0.01172,0.17578132 -0.02344,0.21093757 z m 0,0"
         style="fill:#000000;fill-opacity:1;fill-rule:nonzero;stroke:none" />
      <path
         id="path28"
         d="m 17.367172,-2.8181406 c 0,0 0.04687,-0.09375 0.04687,-0.1757813 0,-0.1757812 -0.152344,-0.2929687 -0.304688,-0.2929687 -0.210937,0 -0.257812,0.1640625 -0.28125,0.234375 l -0.773437,2.15624997 c -0.01172,0.0585938 -0.01172,0.0703125 -0.01172,0.0820313 0,0.0820313 0.199219,0.12890625 0.210938,0.12890625 0.04687,0 0.04687,-0.0234375 0.08203,-0.0820313 z m 0,0"
         style="fill:#000000;fill-opacity:1;fill-rule:nonzero;stroke:none" />
      <path
         id="path29"
         d="m 21.823227,-7.9743906 c 0,-0.1171875 -0.09375,-0.2578125 -0.28125,-0.2578125 -0.199219,0 -0.386719,0.1875 -0.386719,0.375 0,0.1171875 0.08203,0.2695312 0.28125,0.2695312 0.1875,0 0.386719,-0.1875 0.386719,-0.3867187 z m -1.476563,4.6992187 c -0.117187,0.4804688 -0.492187,0.890625 -0.902344,0.890625 -0.08203,0 -0.175781,-0.011719 -0.246093,-0.046875 0.175781,-0.082031 0.234375,-0.2460937 0.234375,-0.3515625 0,-0.1640625 -0.128907,-0.2578125 -0.269532,-0.2578125 -0.222656,0 -0.398437,0.1875 -0.398437,0.4101563 0,0.2695312 0.269531,0.4335937 0.691406,0.4335937 0.421875,0 1.230469,-0.2460937 1.453125,-1.1015625 l 0.621094,-2.4960937 c 0.02344,-0.070312 0.03516,-0.140625 0.03516,-0.234375 0,-0.3867188 -0.328125,-0.65625 -0.738281,-0.65625 -0.785156,0 -1.230469,0.9609375 -1.230469,1.0664062 0,0.082031 0.105469,0.082031 0.128906,0.082031 0.08203,0 0.08203,-0.011719 0.128907,-0.1171875 0.175781,-0.4101563 0.539062,-0.84375 0.949218,-0.84375 0.175782,0 0.234375,0.1171875 0.234375,0.3398437 0,0.082031 -0.01172,0.1757813 -0.02344,0.2109375 z m 0,0"
         style="fill:#000000;fill-opacity:1;fill-rule:nonzero;stroke:none" />
      <path
         id="path30"
         d="m 24.257797,-8.9411875 c 0,0 0.04687,-0.09375 0.04687,-0.1757813 0,-0.1757812 -0.152344,-0.2929687 -0.304688,-0.2929687 -0.210937,0 -0.257812,0.1640625 -0.28125,0.234375 l -0.773437,2.15625 c -0.01172,0.058594 -0.01172,0.070312 -0.01172,0.082031 0,0.082031 0.199219,0.1289063 0.210938,0.1289063 0.04687,0 0.04687,-0.023437 0.08203,-0.082031 z m 2.194336,0 c 0,0 0.04687,-0.09375 0.04687,-0.1757813 0,-0.1757812 -0.152344,-0.2929687 -0.304688,-0.2929687 -0.210937,0 -0.257812,0.1640625 -0.28125,0.234375 l -0.773437,2.15625 c -0.01172,0.058594 -0.01172,0.070312 -0.01172,0.082031 0,0.082031 0.199219,0.1289063 0.210938,0.1289063 0.04687,0 0.04687,-0.023437 0.08203,-0.082031 z m 0,0"
         style="fill:#000000;fill-opacity:1;fill-rule:nonzero;stroke:none" />
    </g>
    <g
       id="g30"
       aria-label="δ&#10;j&#10;′′&#10;j&#10;′"
       transform="matrix(1.3333333,0,0,1.3333333,133.46133,146.26533)">
      <path
         id="path31"
         d="m 2.6247031,-4.3474375 c -1.2421875,0.2929687 -2.20312497,1.59375 -2.20312497,2.7890625 0,0.9609375 0.63281247,1.67578125 1.57031247,1.67578125 1.1601563,0 1.9921875,-1.55859375 1.9921875,-2.94140625 0,-0.9023438 -0.3984375,-1.3945313 -0.7382812,-1.8515625 C 2.8942344,-5.120875 2.2965781,-5.870875 2.2965781,-6.3044688 c 0,-0.2226562 0.1992188,-0.4570312 0.5507813,-0.4570312 0.3046875,0 0.5039062,0.1289062 0.703125,0.2695312 0.1992187,0.1171875 0.3984375,0.2460938 0.5507812,0.2460938 0.2460938,0 0.3984375,-0.234375 0.3984375,-0.3984375 0,-0.2226563 -0.1523437,-0.2460938 -0.515625,-0.328125 -0.515625,-0.1054688 -0.65625,-0.1054688 -0.8203125,-0.1054688 -0.7734375,0 -1.1367187,0.421875 -1.1367187,1.0195313 0,0.5390625 0.2929687,1.1015625 0.5976562,1.7109375 z M 2.7536094,-4.1365 c 0.2460937,0.4570312 0.5390625,0.9960937 0.5390625,1.7109375 0,0.6679687 -0.375,2.3203125 -1.3007813,2.3203125 -0.5507812,0 -0.9609375,-0.41015625 -0.9609375,-1.171875 0,-0.6210938 0.375,-2.4960938 1.7226563,-2.859375 z m 0,0"
         style="fill:#000000;fill-opacity:1;fill-rule:nonzero;stroke:none" />
      <path
         id="path32"
         d="m 7.4850547,-2.8650156 c 0,-0.1171875 -0.09375,-0.2578125 -0.28125,-0.2578125 -0.1992188,0 -0.3867188,0.1875 -0.3867188,0.375 0,0.1171875 0.082031,0.2695312 0.28125,0.2695312 0.1875,0 0.3867188,-0.1875 0.3867188,-0.3867187 z M 6.0084922,1.8342031 c -0.1171875,0.4804688 -0.4921875,0.890625 -0.9023438,0.890625 -0.082031,0 -0.1757812,-0.011719 -0.2460937,-0.046875 0.1757812,-0.082031 0.234375,-0.2460937 0.234375,-0.3515625 0,-0.1640625 -0.1289063,-0.2578125 -0.2695313,-0.2578125 -0.2226562,0 -0.3984375,0.1875 -0.3984375,0.4101563 0,0.2695312 0.2695313,0.4335937 0.6914063,0.4335937 0.421875,0 1.2304687,-0.2460937 1.453125,-1.1015625 l 0.6210937,-2.49609373 c 0.023437,-0.0703125 0.035156,-0.140625 0.035156,-0.234375 0,-0.38671877 -0.328125,-0.65624997 -0.7382813,-0.65624997 -0.7851562,0 -1.2304687,0.96093747 -1.2304687,1.06640622 0,0.0820313 0.1054687,0.0820313 0.1289062,0.0820313 0.082031,0 0.082031,-0.0117188 0.1289063,-0.1171875 0.1757812,-0.41015625 0.5390625,-0.84375002 0.9492187,-0.84375002 0.1757813,0 0.234375,0.1171875 0.234375,0.3398437 0,0.0820313 -0.011719,0.17578132 -0.023437,0.21093757 z m 0,0"
         style="fill:#000000;fill-opacity:1;fill-rule:nonzero;stroke:none" />
      <path
         id="path33"
         d="m 9.919625,-2.8181406 c 0,0 0.046875,-0.09375 0.046875,-0.1757813 0,-0.1757812 -0.1523437,-0.2929687 -0.3046875,-0.2929687 -0.2109375,0 -0.2578125,0.1640625 -0.28125,0.234375 L 8.607125,-0.89626563 c -0.011719,0.0585938 -0.011719,0.0703125 -0.011719,0.0820313 0,0.0820313 0.1992187,0.12890625 0.2109375,0.12890625 0.046875,0 0.046875,-0.0234375 0.082031,-0.0820313 z m 2.191406,0 c 0,0 0.04687,-0.09375 0.04687,-0.1757813 0,-0.1757812 -0.152343,-0.2929687 -0.304687,-0.2929687 -0.210938,0 -0.257813,0.1640625 -0.28125,0.234375 l -0.773438,2.15624997 c -0.01172,0.0585938 -0.01172,0.0703125 -0.01172,0.0820313 0,0.0820313 0.199218,0.12890625 0.210937,0.12890625 0.04687,0 0.04687,-0.0234375 0.08203,-0.0820313 z m 0,0"
         style="fill:#000000;fill-opacity:1;fill-rule:nonzero;stroke:none" />
      <path
         id="path34"
         d="m 16.575875,-7.9743906 c 0,-0.1171875 -0.09375,-0.2578125 -0.28125,-0.2578125 -0.199219,0 -0.386719,0.1875 -0.386719,0.375 0,0.1171875 0.08203,0.2695312 0.28125,0.2695312 0.1875,0 0.386719,-0.1875 0.386719,-0.3867187 z m -1.476562,4.6992187 c -0.117188,0.4804688 -0.492188,0.890625 -0.902344,0.890625 -0.08203,0 -0.175781,-0.011719 -0.246094,-0.046875 0.175781,-0.082031 0.234375,-0.2460937 0.234375,-0.3515625 0,-0.1640625 -0.128906,-0.2578125 -0.269531,-0.2578125 -0.222656,0 -0.398438,0.1875 -0.398438,0.4101563 0,0.2695312 0.269532,0.4335937 0.691407,0.4335937 0.421875,0 1.230468,-0.2460937 1.453125,-1.1015625 l 0.621093,-2.4960937 c 0.02344,-0.070312 0.03516,-0.140625 0.03516,-0.234375 0,-0.3867188 -0.328125,-0.65625 -0.738282,-0.65625 -0.785156,0 -1.230468,0.9609375 -1.230468,1.0664062 0,0.082031 0.105468,0.082031 0.128906,0.082031 0.08203,0 0.08203,-0.011719 0.128906,-0.1171875 0.175781,-0.4101563 0.539063,-0.84375 0.949219,-0.84375 0.175781,0 0.234375,0.1171875 0.234375,0.3398437 0,0.082031 -0.01172,0.1757813 -0.02344,0.2109375 z m 0,0"
         style="fill:#000000;fill-opacity:1;fill-rule:nonzero;stroke:none" />
      <path
         id="path35"
         d="m 19.007516,-8.9411875 c 0,0 0.04687,-0.09375 0.04687,-0.1757813 0,-0.1757812 -0.152344,-0.2929687 -0.304688,-0.2929687 -0.210937,0 -0.257812,0.1640625 -0.28125,0.234375 l -0.773437,2.15625 c -0.01172,0.058594 -0.01172,0.070312 -0.01172,0.082031 0,0.082031 0.199219,0.1289063 0.210937,0.1289063 0.04687,0 0.04687,-0.023437 0.08203,-0.082031 z m 0,0"
         style="fill:#000000;fill-opacity:1;fill-rule:nonzero;stroke:none" />
    </g>
    <g
       id="g35"
       aria-label="dimH&#10;0&#10;j&#10;(&#10;T&#10;2&#10;)&#10;=&#10;∑&#10;j&#10;′&#10;N&#10;jj&#10;′&#10;j&#10;′"
       transform="matrix(1.3333333,0,0,1.3333333,212.964,146.26533)">
      <path
         id="path36"
         d="m 3.7857891,-0.5505625 v 0.65625 L 5.2506328,2.1875e-4 v -0.3046875 c -0.703125,0 -0.7734375,-0.0703125 -0.7734375,-0.5625 V -6.9138438 L 3.0357891,-6.808375 v 0.3164062 c 0.703125,0 0.7851562,0.070312 0.7851562,0.5507813 v 2.15625 c -0.2929687,-0.3632813 -0.7265625,-0.6210938 -1.265625,-0.6210938 -1.171875,0 -2.21484374,0.984375 -2.21484374,2.2617188 0,1.265625 0.97265624,2.25 2.10937504,2.25 0.6445312,0 1.0898437,-0.33984375 1.3359375,-0.65625 z m 0,-2.671875 v 2.0507812 c 0,0.1757813 0,0.1992188 -0.1054688,0.3632813 -0.3046875,0.48046875 -0.75,0.703125 -1.1835937,0.703125 -0.4453125,0 -0.796875,-0.2578125 -1.0429688,-0.64453125 C 1.1959453,-1.1599375 1.1607891,-1.7224375 1.1607891,-2.1325938 c 0,-0.3632812 0.023437,-0.9609375 0.3164062,-1.4179687 0.2109375,-0.3046875 0.5859375,-0.6328125 1.125,-0.6328125 0.3515625,0 0.7617188,0.1523437 1.078125,0.5976562 0.1054688,0.1640625 0.1054688,0.1875 0.1054688,0.3632813 z m 3.5009765,-1.1835938 -1.3945312,0.1171875 v 0.3046875 c 0.65625,0 0.7382812,0.058594 0.7382812,0.5507813 V -0.7615 c 0,0.45703125 -0.1054687,0.45703125 -0.7734375,0.45703125 V 2.1875e-4 C 6.1734844,-0.0115 6.7125469,-0.0349375 6.9586406,-0.0349375 c 0.3398438,0 0.6914063,0.0234375 1.03125,0.03515625 v -0.3046875 c -0.65625,0 -0.703125,-0.0585938 -0.703125,-0.4453125 z m 0.046875,-1.734375 c 0,-0.3164062 -0.2460937,-0.5273437 -0.5273437,-0.5273437 -0.3164063,0 -0.5273438,0.2695312 -0.5273438,0.5273437 0,0.2695313 0.2109375,0.5273438 0.5273438,0.5273438 0.28125,0 0.5273437,-0.1992188 0.5273437,-0.5273438 z m 2.0566406,2.71875 V -0.7615 c 0,0.45703125 -0.1171875,0.45703125 -0.7851562,0.45703125 V 2.1875e-4 C 8.9566875,-0.0115 9.4605937,-0.0349375 9.730125,-0.0349375 c 0.2578125,0 0.785156,0.0234375 1.113281,0.03515625 v -0.3046875 c -0.65625,0 -0.773437,0 -0.773437,-0.45703125 v -1.828125 c 0,-1.03125 0.714843,-1.59375 1.347656,-1.59375 0.621094,0 0.738281,0.5390625 0.738281,1.1015625 V -0.7615 c 0,0.45703125 -0.117187,0.45703125 -0.773437,0.45703125 v 0.3046875 c 0.339843,-0.01171875 0.855468,-0.03515625 1.125,-0.03515625 0.257812,0 0.773437,0.0234375 1.113281,0.03515625 v -0.3046875 c -0.667969,0 -0.785156,0 -0.785156,-0.45703125 v -1.828125 c 0,-1.03125 0.714843,-1.59375 1.347656,-1.59375 0.632812,0 0.738281,0.5390625 0.738281,1.1015625 V -0.7615 c 0,0.45703125 -0.105469,0.45703125 -0.773437,0.45703125 v 0.3046875 c 0.351562,-0.01171875 0.855468,-0.03515625 1.125,-0.03515625 0.257812,0 0.773437,0.0234375 1.113281,0.03515625 v -0.3046875 c -0.515625,0 -0.761719,0 -0.773438,-0.3046875 V -2.5075938 c 0,-0.8554687 0,-1.171875 -0.316406,-1.5234375 -0.128906,-0.1757812 -0.46875,-0.375 -1.042969,-0.375 -0.832031,0 -1.277343,0.5976563 -1.441406,0.984375 -0.140625,-0.8671875 -0.878906,-0.984375 -1.324219,-0.984375 -0.726562,0 -1.195312,0.4335938 -1.476562,1.0546875 v -1.0546875 l -1.40625,0.1171875 v 0.3046875 c 0.703125,0 0.7851562,0.070312 0.7851562,0.5625 z m 0,0"
         style="fill:#000000;fill-opacity:1;fill-rule:nonzero;stroke:none" />
      <path
         id="path37"
         d="m 21.557273,-3.339625 c 0.128907,-0.46875 0.257813,-0.9726563 0.363282,-1.453125 0.117187,-0.6679688 0.1875,-1.3359375 0.1875,-1.453125 0,-0.5625 -0.550782,-0.5625 -0.667969,-0.5625 -0.75,0 -1.429688,0.28125 -1.898438,0.5976562 -0.808593,0.5507813 -1.066406,1.21875 -1.066406,1.265625 0,0.070312 0.07031,0.070312 0.09375,0.070312 0.08203,0 0.550781,-0.1171875 0.761719,-0.4921875 0.269531,-0.515625 0.5625,-0.890625 1.453125,-0.890625 0.410156,0 0.480469,0.28125 0.480469,0.4453125 0,0 -0.03516,0.46875 -0.152344,1.1601563 -0.04687,0.28125 -0.08203,0.4570312 -0.292969,1.3125 H 20.46743 c -0.28125,0.011719 -0.738282,0.328125 -0.738282,0.4804687 0,0.058594 0.01172,0.070312 0.234375,0.070312 h 0.714844 C 20.46743,-2.0974375 20.18618,-1.1365 19.729148,0.08225 c -0.09375,0.22265625 -0.09375,0.24609375 -0.09375,0.2578125 0,0.0703125 0.08203,0.0703125 0.105469,0.0703125 0.140625,0 0.445313,-0.12890625 0.644531,-0.328125 0.04687,-0.05859375 0.07031,-0.08203125 0.105469,-0.1875 0.351563,-0.8671875 0.65625,-1.7695313 0.914063,-2.6835938 h 2.238281 c 0.105469,0 0.304687,0 0.457031,-0.1054687 -0.105469,0.421875 -0.515625,2.05078125 -0.515625,2.8359375 0,0.29296875 0.164063,0.55078125 0.597656,0.55078125 1.324219,0 2.0625,-0.83203125 2.0625,-1.1484375 0,-0.0585938 -0.04687,-0.0820313 -0.105468,-0.0820313 -0.07031,0 -0.597657,0.140625 -0.75,0.52734375 -0.04687,0.0820313 -0.04687,0.09375 -0.246094,0.1171875 -0.105469,0.0234375 -0.292969,0.03515625 -0.304688,0.03515625 -0.175781,0 -0.410156,-0.1171875 -0.410156,-0.43359375 0,-0.1171875 0.07031,-0.6679687 0.105469,-0.8789062 0.164062,-1.1132814 0.65625,-2.9765626 1.511719,-5.2500001 0.02344,-0.070312 0.02344,-0.09375 0.02344,-0.1171875 0,-0.070312 -0.05859,-0.070312 -0.09375,-0.070312 -0.152344,0 -0.433594,0.140625 -0.632812,0.3164062 0,0.011719 -0.07031,0.070312 -0.105469,0.1523438 -0.398438,0.984375 -0.703125,1.9921875 -1.007813,3 z m 0,0"
         style="fill:#000000;fill-opacity:1;fill-rule:nonzero;stroke:none" />
      <path
         id="path38"
         d="m 30.372703,-5.8415781 c 0,-0.7617188 -0.09375,-1.3125 -0.410156,-1.8046875 -0.222656,-0.3164063 -0.644531,-0.5976563 -1.207031,-0.5976563 -1.617188,0 -1.617188,1.8984375 -1.617188,2.4023438 0,0.5039062 0,2.3671875 1.617188,2.3671875 1.617187,0 1.617187,-1.8632813 1.617187,-2.3671875 z m -1.617187,2.1679687 c -0.316407,0 -0.75,-0.1875 -0.890625,-0.7617187 -0.09375,-0.4101563 -0.09375,-0.984375 -0.09375,-1.5 0,-0.5039063 0,-1.03125 0.105468,-1.4179688 0.152344,-0.5507812 0.597657,-0.6914062 0.878907,-0.6914062 0.375,0 0.738281,0.2226562 0.867187,0.6328125 0.105469,0.375 0.117188,0.8789062 0.117188,1.4765625 0,0.515625 0,1.0429687 -0.09375,1.4765625 -0.140625,0.6328125 -0.609375,0.7851562 -0.890625,0.7851562 z m 0,0"
         style="fill:#000000;fill-opacity:1;fill-rule:nonzero;stroke:none" />
      <path
         id="path39"
         d="m 29.736961,-1.7663828 c 0,-0.1171875 -0.09375,-0.2578125 -0.28125,-0.2578125 -0.199219,0 -0.386719,0.1875 -0.386719,0.375 0,0.1171875 0.08203,0.2695312 0.28125,0.2695312 0.1875,0 0.386719,-0.1875 0.386719,-0.3867187 z m -1.476563,4.6992187 c -0.117187,0.4804688 -0.492187,0.890625 -0.902343,0.890625 -0.08203,0 -0.175782,-0.011719 -0.246094,-0.046875 0.175781,-0.082031 0.234375,-0.2460937 0.234375,-0.3515625 0,-0.1640625 -0.128906,-0.2578125 -0.269531,-0.2578125 -0.222657,0 -0.398438,0.1875 -0.398438,0.4101563 0,0.2695312 0.269531,0.4335937 0.691406,0.4335937 0.421875,0 1.230469,-0.2460937 1.453125,-1.1015625 l 0.621094,-2.49609371 c 0.02344,-0.0703125 0.03516,-0.140625 0.03516,-0.234375 0,-0.38671875 -0.328125,-0.65625 -0.738281,-0.65625 -0.785156,0 -1.230469,0.9609375 -1.230469,1.06640625 0,0.0820313 0.105469,0.0820313 0.128907,0.0820313 0.08203,0 0.08203,-0.0117188 0.128906,-0.1171875 0.175781,-0.41015625 0.539062,-0.84375 0.949219,-0.84375 0.175781,0 0.234375,0.1171875 0.234375,0.33984375 0,0.08203125 -0.01172,0.17578125 -0.02344,0.2109375 z m 0,0"
         style="fill:#000000;fill-opacity:1;fill-rule:nonzero;stroke:none" />
      <path
         id="path40"
         d="m 37.017234,3.3781484 c 0,-0.046875 -0.02344,-0.058594 -0.03516,-0.09375 -0.457027,-0.4921875 -1.136715,-1.2890625 -1.55859,-2.91796871 -0.222656,-0.90234375 -0.316406,-1.93359379 -0.316406,-2.85937499 0,-2.625 0.621094,-4.453125 1.816406,-5.7421875 0.09375,-0.09375 0.09375,-0.1171875 0.09375,-0.140625 0,-0.09375 -0.08203,-0.09375 -0.117187,-0.09375 -0.152344,0 -0.691406,0.5976562 -0.820313,0.75 -1.019531,1.2070312 -1.664062,3 -1.664062,5.2148437 0,1.4179688 0.246094,3.42187504 1.558594,5.0976563 0.09375,0.1289062 0.75,0.8789062 0.925781,0.8789062 0.03516,0 0.117187,0 0.117187,-0.09375 z m 0,0"
         style="fill:#000000;fill-opacity:1;fill-rule:nonzero;stroke:none" />
      <path
         id="path41"
         d="m 41.725242,-6.0466563 c 0.07031,-0.28125 0.105469,-0.3398437 0.234375,-0.3632812 0.08203,-0.023437 0.410156,-0.023437 0.621094,-0.023437 1.007812,0 1.453125,0.035156 1.453125,0.8203125 0,0.140625 -0.03516,0.5273437 -0.08203,0.796875 0,0.035156 -0.02344,0.1523437 -0.02344,0.1875 0,0.058594 0.02344,0.1289062 0.117188,0.1289062 0.105468,0 0.128906,-0.082031 0.152343,-0.234375 l 0.269532,-1.734375 c 0.01172,-0.035156 0.01172,-0.140625 0.01172,-0.1640625 0,-0.1054687 -0.09375,-0.1054687 -0.269531,-0.1054687 h -5.519531 c -0.246094,0 -0.257813,0 -0.316406,0.1992187 L 37.776023,-4.79275 c -0.01172,0.023437 -0.07031,0.1640625 -0.07031,0.1757812 0,0.070312 0.05859,0.1171875 0.128906,0.1171875 0.09375,0 0.105469,-0.046875 0.164063,-0.2109375 0.539062,-1.546875 0.796875,-1.7226562 2.273437,-1.7226562 h 0.386719 c 0.28125,0 0.28125,0.035156 0.28125,0.1171875 0,0.058594 -0.03516,0.1757812 -0.04687,0.2109375 l -1.324219,5.3203125 c -0.09375,0.36328125 -0.128906,0.48046875 -1.195312,0.48046875 -0.351563,0 -0.410157,0 -0.410157,0.1875 0,0.1171875 0.105469,0.1171875 0.164063,0.1171875 0.269531,0 0.550781,-0.0234375 0.820312,-0.0234375 0.28125,0 0.5625,-0.01171875 0.84375,-0.01171875 0.28125,0 0.5625,0.01171875 0.832032,0.01171875 0.28125,0 0.585937,0.0234375 0.867187,0.0234375 0.09375,0 0.210938,0 0.210938,-0.19921875 0,-0.10546875 -0.08203,-0.10546875 -0.339844,-0.10546875 -0.246094,0 -0.375,0 -0.632813,-0.0234375 C 40.43618,-0.3630625 40.365867,-0.3865 40.365867,-0.5505625 c 0,-0.0117188 0,-0.0585938 0.03516,-0.2109375 z m 0,0"
         style="fill:#000000;fill-opacity:1;fill-rule:nonzero;stroke:none" />
      <path
         id="path42"
         d="m 48.191062,-4.8806406 h -0.234375 c -0.02344,0.1523437 -0.08203,0.5625 -0.175781,0.6328125 -0.05859,0.035156 -0.597656,0.035156 -0.691406,0.035156 h -1.289063 c 0.738282,-0.6445312 0.984375,-0.84375 1.394532,-1.171875 0.515625,-0.4101562 0.996093,-0.84375 0.996093,-1.5 0,-0.84375 -0.738281,-1.359375 -1.628906,-1.359375 -0.867187,0 -1.453125,0.609375 -1.453125,1.2421875 0,0.3632813 0.304688,0.3984375 0.375,0.3984375 0.164063,0 0.375,-0.1171875 0.375,-0.375 0,-0.1289062 -0.05859,-0.3632812 -0.421875,-0.3632812 0.222656,-0.5039063 0.691406,-0.65625 1.019531,-0.65625 0.703125,0 1.066407,0.5507812 1.066407,1.1132812 0,0.609375 -0.433594,1.0898438 -0.65625,1.3359375 l -1.6875,1.6640625 c -0.07031,0.058594 -0.07031,0.070312 -0.07031,0.2695313 h 2.882813 z m 0,0"
         style="fill:#000000;fill-opacity:1;fill-rule:nonzero;stroke:none" />
      <path
         id="path43"
         d="m 52.181297,-2.4929453 c 0,-1.4179688 -0.246094,-3.421875 -1.546875,-5.0976563 -0.105469,-0.1171875 -0.75,-0.8789062 -0.925781,-0.8789062 -0.05859,0 -0.128907,0.023437 -0.128907,0.09375 0,0.046875 0.02344,0.070312 0.07031,0.1054687 0.46875,0.515625 1.125,1.3242188 1.523437,2.90625 0.234375,0.9140625 0.328125,1.9335938 0.328125,2.859375 0,1.0078125 -0.09375,2.02734379 -0.351562,3.00000004 -0.375,1.39453126 -0.972656,2.19140626 -1.476563,2.75390626 -0.09375,0.082031 -0.09375,0.1054687 -0.09375,0.1289062 0,0.070312 0.07031,0.09375 0.128907,0.09375 0.140625,0 0.691406,-0.609375 0.808593,-0.75 1.019532,-1.1953125 1.664063,-2.98828121 1.664063,-5.2148437 z m 0,0"
         style="fill:#000000;fill-opacity:1;fill-rule:nonzero;stroke:none" />
      <path
         id="path44"
         d="m 63.322898,-3.2575938 c 0.152344,0 0.339844,0 0.339844,-0.1992187 0,-0.1992188 -0.1875,-0.1992188 -0.328125,-0.1992188 h -5.964844 c -0.140625,0 -0.328125,0 -0.328125,0.1992188 0,0.1992187 0.1875,0.1992187 0.339844,0.1992187 z M 63.334617,-1.324 c 0.140625,0 0.328125,0 0.328125,-0.1992188 0,-0.1992187 -0.1875,-0.1992187 -0.339844,-0.1992187 h -5.941406 c -0.152344,0 -0.339844,0 -0.339844,0.1992187 0,0.1992188 0.1875,0.1992188 0.328125,0.1992188 z m 0,0"
         style="fill:#000000;fill-opacity:1;fill-rule:nonzero;stroke:none" />
      <path
         id="path45"
         d="m 71.189109,-2.1531016 -3.539062,4.3710938 c -0.08203,0.1054687 -0.09375,0.1171875 -0.09375,0.1640625 0,0.1054687 0.09375,0.1054687 0.269531,0.1054687 h 8.261719 l 0.855469,-2.48437496 h -0.246094 c -0.246094,0.75 -0.914063,1.35937496 -1.769531,1.65234376 -0.152344,0.046875 -0.84375,0.28125 -2.308594,0.28125 h -4.230469 l 3.457031,-4.265625 c 0.07031,-0.09375 0.09375,-0.1289063 0.09375,-0.1640625 0,-0.035156 -0.01172,-0.046875 -0.07031,-0.140625 l -3.246094,-4.4414063 h 3.949219 c 1.136719,0 3.421875,0.070312 4.125,1.9335938 h 0.246094 L 76.087549,-7.4734141 H 67.82583 c -0.269531,0 -0.269531,0.011719 -0.269531,0.3164063 z m 0,0"
         style="fill:#000000;fill-opacity:1;fill-rule:nonzero;stroke:none" />
      <path
         id="path46"
         d="m 80.569969,-1.370875 c 0,-0.1171875 -0.09375,-0.2578125 -0.28125,-0.2578125 -0.199219,0 -0.386719,0.1875 -0.386719,0.375 0,0.1171875 0.08203,0.26953125 0.28125,0.26953125 0.1875,0 0.386719,-0.18750005 0.386719,-0.38671875 z m -1.476563,4.6992187 c -0.117187,0.4804688 -0.492187,0.890625 -0.902344,0.890625 -0.08203,0 -0.175781,-0.011719 -0.246093,-0.046875 0.175781,-0.082031 0.234375,-0.2460937 0.234375,-0.3515625 0,-0.1640625 -0.128907,-0.2578125 -0.269532,-0.2578125 -0.222656,0 -0.398437,0.1875 -0.398437,0.4101563 0,0.2695312 0.269531,0.4335937 0.691406,0.4335937 0.421875,0 1.230469,-0.2460937 1.453125,-1.1015625 L 80.277,0.8088125 c 0.02344,-0.0703125 0.03516,-0.140625 0.03516,-0.234375 0,-0.38671875 -0.328125,-0.65625 -0.738281,-0.65625 -0.785156,0 -1.230469,0.9609375 -1.230469,1.06640625 0,0.0820312 0.105469,0.0820312 0.128906,0.0820312 0.08203,0 0.08203,-0.011719 0.128907,-0.11718745 0.175781,-0.41015625 0.539062,-0.84375 0.949218,-0.84375 0.175782,0 0.234375,0.1171875 0.234375,0.33984375 0,0.0820313 -0.01172,0.17578125 -0.02344,0.2109375 z m 0,0"
         style="fill:#000000;fill-opacity:1;fill-rule:nonzero;stroke:none" />
      <path
         id="path47"
         d="m 83.004539,-1.324 c 0,0 0.04687,-0.09375 0.04687,-0.1757813 0,-0.1757812 -0.152344,-0.2929687 -0.304687,-0.2929687 -0.210938,0 -0.257813,0.1640625 -0.28125,0.234375 l -0.773438,2.15625 c -0.01172,0.0585938 -0.01172,0.0703125 -0.01172,0.0820313 0,0.0820313 0.199219,0.12890625 0.210938,0.12890625 0.04687,0 0.04687,-0.0234375 0.08203,-0.0820313 z m 0,0"
         style="fill:#000000;fill-opacity:1;fill-rule:nonzero;stroke:none" />
      <path
         id="path48"
         d="m 89.110008,-5.7185313 c 0.175781,0.515625 0.398437,1.265625 0.84375,2.4960938 0.632812,1.6875 0.914062,2.30859375 1.523437,3.2578125 0.128907,0.19921875 0.140625,0.2109375 0.234375,0.2109375 0.140625,0 0.351563,-0.1171875 0.457032,-0.19921875 0.140625,-0.12890625 0.152343,-0.140625 0.257812,-0.62109375 0.597656,-2.625 1.359375,-5.3554688 1.558594,-5.8125 0.01172,-0.023437 0.210937,-0.3984375 1.429687,-0.421875 0.199219,0 0.386719,-0.5273438 0.386719,-0.75 0,-0.1640625 -0.05859,-0.1640625 -0.199219,-0.1640625 -0.996093,0 -1.441406,0.421875 -1.558593,0.5507812 -0.28125,0.3632813 -0.515625,1.0898438 -0.972657,2.7539063 -0.351562,1.265625 -0.667968,2.5664062 -0.984375,3.85546875 C 91.547508,-1.3943125 91.231102,-2.1794688 90.750633,-3.4685313 90.223289,-4.8865 89.906883,-5.91775 89.637352,-6.808375 c -0.05859,-0.1992188 -0.07031,-0.2109375 -0.152344,-0.2109375 -0.02344,0 -0.222656,0 -0.515625,0.234375 -0.09375,0.09375 -0.105469,0.1757812 -0.117188,0.2929687 -0.28125,2.6484375 -1.21875,5.2617188 -1.488281,5.74218755 -0.07031,0.15234375 -0.199219,0.328125 -0.398437,0.328125 -0.09375,0 -0.480469,-0.046875 -0.738282,-0.28125 -0.05859,-0.046875 -0.07031,-0.046875 -0.08203,-0.046875 -0.164062,0 -0.375,0.50390625 -0.375,0.73828125 0,0.31640625 0.609375,0.515625 0.890625,0.515625 0.632813,0 1.148438,-1.40625 1.300781,-1.8632813 0.65625,-1.8046875 0.960938,-3.2929687 1.148438,-4.359375 z m 0,0"
         style="fill:#000000;fill-opacity:1;fill-rule:nonzero;stroke:none" />
      <path
         id="path49"
         d="m 97.295555,-2.8650156 c 0,-0.1171875 -0.09375,-0.2578125 -0.28125,-0.2578125 -0.199219,0 -0.386719,0.1875 -0.386719,0.375 0,0.1171875 0.08203,0.2695312 0.28125,0.2695312 0.1875,0 0.386719,-0.1875 0.386719,-0.3867187 z m -1.476563,4.6992187 c -0.117187,0.4804688 -0.492187,0.890625 -0.902344,0.890625 -0.08203,0 -0.175781,-0.011719 -0.246093,-0.046875 0.175781,-0.082031 0.234375,-0.2460937 0.234375,-0.3515625 0,-0.1640625 -0.128907,-0.2578125 -0.269532,-0.2578125 -0.222656,0 -0.398437,0.1875 -0.398437,0.4101563 0,0.2695312 0.269531,0.4335937 0.691406,0.4335937 0.421875,0 1.230469,-0.2460937 1.453125,-1.1015625 l 0.621094,-2.49609373 c 0.02344,-0.0703125 0.03516,-0.140625 0.03516,-0.234375 0,-0.38671877 -0.328125,-0.65624997 -0.738281,-0.65624997 -0.785156,0 -1.230469,0.96093747 -1.230469,1.06640622 0,0.0820313 0.105469,0.0820313 0.128906,0.0820313 0.08203,0 0.08203,-0.0117188 0.128907,-0.1171875 0.175781,-0.41015625 0.539062,-0.84374992 0.949218,-0.84374992 0.175782,0 0.234375,0.1171875 0.234375,0.3398437 0,0.0820313 -0.01172,0.17578122 -0.02344,0.21093747 z m 5.167968,-4.6992187 c 0,-0.1171875 -0.0937,-0.2578125 -0.28125,-0.2578125 -0.19922,0 -0.38672,0.1875 -0.38672,0.375 0,0.1171875 0.082,0.2695312 0.28125,0.2695312 0.1875,0 0.38672,-0.1875 0.38672,-0.3867187 z m -1.476562,4.6992187 c -0.117187,0.4804688 -0.492187,0.890625 -0.902343,0.890625 -0.08203,0 -0.175782,-0.011719 -0.246094,-0.046875 0.175781,-0.082031 0.234375,-0.2460937 0.234375,-0.3515625 0,-0.1640625 -0.128906,-0.2578125 -0.269531,-0.2578125 -0.222657,0 -0.398438,0.1875 -0.398438,0.4101563 0,0.2695312 0.269531,0.4335937 0.691406,0.4335937 0.421875,0 1.230469,-0.2460937 1.453127,-1.1015625 l 0.62109,-2.49609373 c 0.0234,-0.0703125 0.0352,-0.140625 0.0352,-0.234375 0,-0.38671877 -0.32813,-0.65624997 -0.738283,-0.65624997 -0.785156,0 -1.230469,0.96093747 -1.230469,1.06640622 0,0.0820313 0.105469,0.0820313 0.128907,0.0820313 0.08203,0 0.08203,-0.0117188 0.128906,-0.1171875 0.175781,-0.41015625 0.539062,-0.84374992 0.949219,-0.84374992 0.17578,0 0.23437,0.1171875 0.23437,0.3398437 0,0.0820313 -0.0117,0.17578122 -0.0234,0.21093747 z m 0,0"
         style="fill:#000000;fill-opacity:1;fill-rule:nonzero;stroke:none" />
      <path
         id="path50"
         d="m 103.43032,-2.8181406 c 0,0 0.0469,-0.09375 0.0469,-0.1757813 0,-0.1757812 -0.15235,-0.2929687 -0.30469,-0.2929687 -0.21094,0 -0.25781,0.1640625 -0.28125,0.234375 l -0.77344,2.15624997 c -0.0117,0.0585938 -0.0117,0.0703125 -0.0117,0.0820313 0,0.0820313 0.19922,0.12890625 0.21094,0.12890625 0.0469,0 0.0469,-0.0234375 0.082,-0.0820313 z m 0,0"
         style="fill:#000000;fill-opacity:1;fill-rule:nonzero;stroke:none" />
      <path
         id="path51"
         d="m 107.8893,-7.9743906 c 0,-0.1171875 -0.0937,-0.2578125 -0.28125,-0.2578125 -0.19921,0 -0.38671,0.1875 -0.38671,0.375 0,0.1171875 0.082,0.2695312 0.28125,0.2695312 0.1875,0 0.38671,-0.1875 0.38671,-0.3867187 z m -1.47656,4.6992187 c -0.11719,0.4804688 -0.49219,0.890625 -0.90234,0.890625 -0.082,0 -0.17578,-0.011719 -0.2461,-0.046875 0.17579,-0.082031 0.23438,-0.2460937 0.23438,-0.3515625 0,-0.1640625 -0.12891,-0.2578125 -0.26953,-0.2578125 -0.22266,0 -0.39844,0.1875 -0.39844,0.4101563 0,0.2695312 0.26953,0.4335937 0.69141,0.4335937 0.42187,0 1.23047,-0.2460937 1.45312,-1.1015625 l 0.6211,-2.4960937 c 0.0234,-0.070312 0.0352,-0.140625 0.0352,-0.234375 0,-0.3867188 -0.32812,-0.65625 -0.73828,-0.65625 -0.78516,0 -1.23047,0.9609375 -1.23047,1.0664062 0,0.082031 0.10547,0.082031 0.12891,0.082031 0.082,0 0.082,-0.011719 0.1289,-0.1171875 0.17579,-0.4101563 0.53907,-0.84375 0.94922,-0.84375 0.17578,0 0.23438,0.1171875 0.23438,0.3398437 0,0.082031 -0.0117,0.1757813 -0.0234,0.2109375 z m 0,0"
         style="fill:#000000;fill-opacity:1;fill-rule:nonzero;stroke:none" />
      <path
         id="path52"
         d="m 110.32387,-8.9411875 c 0,0 0.0469,-0.09375 0.0469,-0.1757813 0,-0.1757812 -0.15234,-0.2929687 -0.30469,-0.2929687 -0.21094,0 -0.25781,0.1640625 -0.28125,0.234375 l -0.77344,2.15625 c -0.0117,0.058594 -0.0117,0.070312 -0.0117,0.082031 0,0.082031 0.19921,0.1289063 0.21093,0.1289063 0.0469,0 0.0469,-0.023437 0.082,-0.082031 z m 0,0"
         style="fill:#000000;fill-opacity:1;fill-rule:nonzero;stroke:none" />
    </g>
  </g>
</svg>
