<?xml version="1.0" encoding="UTF-8" standalone="no"?>
<!-- Created with Inkscape (http://www.inkscape.org/) -->

<svg
   version="1.1"
   id="svg1"
   width="324.30667"
   height="121.10667"
   viewBox="0 0 324.30667 121.10667"
   sodipodi:docname="pants-decomposition.pdf"
   xmlns:inkscape="http://www.inkscape.org/namespaces/inkscape"
   xmlns:sodipodi="http://sodipodi.sourceforge.net/DTD/sodipodi-0.dtd"
   xmlns="http://www.w3.org/2000/svg"
   xmlns:svg="http://www.w3.org/2000/svg">
  <defs
     id="defs1" />
  <sodipodi:namedview
     id="namedview1"
     pagecolor="#ffffff"
     bordercolor="#000000"
     borderopacity="0.25"
     inkscape:showpageshadow="2"
     inkscape:pageopacity="0.0"
     inkscape:pagecheckerboard="0"
     inkscape:deskcolor="#d1d1d1">
    <inkscape:page
       x="0"
       y="0"
       inkscape:label="1"
       id="page1"
       width="324.30667"
       height="121.10667"
       margin="0"
       bleed="0" />
  </sodipodi:namedview>
  <g
     id="g1"
     inkscape:groupmode="layer"
     inkscape:label="1">
    <path
       id="path1"
       d="m 201.8057,-82.4368 c 0,24.87593 20.16853,45.03925 45.03922,45.03925 24.87594,0 45.04447,-20.16332 45.04447,-45.03925 0,-24.87591 -20.16853,-45.03923 -45.04447,-45.03923 -24.87069,0 -45.03922,20.16332 -45.03922,45.03923 z"
       style="fill:none;stroke:#000000;stroke-width:0.74721;stroke-linecap:butt;stroke-linejoin:miter;stroke-miterlimit:10;stroke-dasharray:none;stroke-opacity:1"
       transform="matrix(1.3333333,0,0,-1.3333333,-70.277333,-49.357333)" />
    <path
       id="path2"
       d="m 214.70393,-85.46521 c 0,2.12878 1.72603,3.85483 3.85483,3.85483 2.12355,0 3.8496,-1.72605 3.8496,-3.85483 0,-2.1288 -1.72605,-3.84959 -3.8496,-3.84959 -2.1288,0 -3.85483,1.72079 -3.85483,3.84959 z"
       style="fill:none;stroke:#9013fe;stroke-width:1.49442;stroke-linecap:butt;stroke-linejoin:miter;stroke-miterlimit:10;stroke-dasharray:none;stroke-opacity:1"
       transform="matrix(1.3333333,0,0,-1.3333333,-70.277333,-49.357333)" />
    <path
       id="path3"
       d="m 257.86543,-62.62392 c 0,3.11732 2.52109,5.64363 5.6384,5.64363 3.11736,0 5.63843,-2.52631 5.63843,-5.64363 0,-3.11212 -2.52107,-5.63841 -5.63843,-5.63841 -3.11731,0 -5.6384,2.52629 -5.6384,5.63841 z"
       style="fill:none;stroke:#000000;stroke-width:0.74721;stroke-linecap:butt;stroke-linejoin:miter;stroke-miterlimit:10;stroke-dasharray:2.98883, 2.98883;stroke-dashoffset:0;stroke-opacity:1"
       transform="matrix(1.3333333,0,0,-1.3333333,-70.277333,-49.357333)" />
    <path
       id="path4"
       d="m 254.0054,-106.33464 c 0,3.7816 3.01793,6.84664 6.742,6.84664 3.7293,0 6.74726,-3.06504 6.74726,-6.84664 0,-3.7816 -3.01796,-6.85186 -6.74726,-6.85186 -3.72407,0 -6.742,3.07026 -6.742,6.85186 z"
       style="fill:none;stroke:#000000;stroke-width:0.74721;stroke-linecap:butt;stroke-linejoin:miter;stroke-miterlimit:10;stroke-dasharray:2.98883, 2.98883;stroke-dashoffset:0;stroke-opacity:1"
       transform="matrix(1.3333333,0,0,-1.3333333,-70.277333,-49.357333)" />
    <path
       id="path5"
       d="m 260.99324,-67.49869 c 12.49551,-8.10193 22.08289,-24.14367 -2.32231,-31.98931"
       style="fill:none;stroke:#000000;stroke-width:0.74721;stroke-linecap:butt;stroke-linejoin:miter;stroke-miterlimit:10;stroke-dasharray:none;stroke-opacity:1"
       transform="matrix(1.3333333,0,0,-1.3333333,-70.277333,-49.357333)" />
    <path
       id="path6"
       d="m 263.50383,-56.98029 c 17.48012,0.73226 32.06779,-42.11019 1.53777,-55.26995"
       style="fill:none;stroke:#000000;stroke-width:0.74721;stroke-linecap:butt;stroke-linejoin:miter;stroke-miterlimit:10;stroke-dasharray:none;stroke-opacity:1"
       transform="matrix(1.3333333,0,0,-1.3333333,-70.277333,-49.357333)" />
    <path
       id="path7"
       d="m 273.89148,-86.37009 c 0,1.07224 1.78882,1.94573 3.99605,1.94573 2.20201,0 3.99081,-0.87349 3.99081,-1.94573 0,-1.07748 -1.7888,-1.94572 -3.99081,-1.94572 -2.20723,0 -3.99605,0.86824 -3.99605,1.94572 z"
       style="fill:none;stroke:#000000;stroke-width:0.74721;stroke-linecap:butt;stroke-linejoin:miter;stroke-miterlimit:10;stroke-dasharray:2.98883, 2.98883;stroke-dashoffset:0;stroke-opacity:1"
       transform="matrix(1.3333333,0,0,-1.3333333,-70.277333,-49.357333)" />
    <path
       id="path8"
       d="m 56.39972,-82.42633 c 0,24.87071 20.16853,45.03923 45.03924,45.03923 24.87592,0 45.04447,-20.16852 45.04447,-45.03923 0,-24.87593 -20.16855,-45.04448 -45.04447,-45.04448 -24.87071,0 -45.03924,20.16855 -45.03924,45.04448 z"
       style="fill:none;stroke:#000000;stroke-width:0.74721;stroke-linecap:butt;stroke-linejoin:miter;stroke-miterlimit:10;stroke-dasharray:none;stroke-opacity:1"
       transform="matrix(1.3333333,0,0,-1.3333333,-70.277333,-49.357333)" />
    <path
       id="path9"
       d="m 69.29796,-85.45477 c 0,2.1288 1.72603,3.85484 3.85483,3.85484 2.12353,0 3.84959,-1.72604 3.84959,-3.85484 0,-2.12877 -1.72606,-3.85483 -3.84959,-3.85483 -2.1288,0 -3.85483,1.72606 -3.85483,3.85483 z"
       style="fill:none;stroke:#9013fe;stroke-width:1.49442;stroke-linecap:butt;stroke-linejoin:miter;stroke-miterlimit:10;stroke-dasharray:none;stroke-opacity:1"
       transform="matrix(1.3333333,0,0,-1.3333333,-70.277333,-49.357333)" />
    <path
       id="path10"
       d="m 112.45947,-62.61348 c 0,3.11212 2.52106,5.63841 5.6384,5.63841 3.11734,0 5.63841,-2.52629 5.63841,-5.63841 0,-3.11731 -2.52107,-5.6384 -5.63841,-5.6384 -3.11734,0 -5.6384,2.52109 -5.6384,5.6384 z"
       style="fill:none;stroke:#000000;stroke-width:0.74721;stroke-linecap:butt;stroke-linejoin:miter;stroke-miterlimit:10;stroke-dasharray:none;stroke-opacity:1"
       transform="matrix(1.3333333,0,0,-1.3333333,-70.277333,-49.357333)" />
    <path
       id="path11"
       d="m 108.80862,-106.32939 c 0,3.78159 3.01796,6.85185 6.74204,6.85185 3.72928,0 6.74725,-3.07026 6.74725,-6.85185 0,-3.78162 -3.01797,-6.84665 -6.74725,-6.84665 -3.72408,0 -6.74204,3.06503 -6.74204,6.84665 z"
       style="fill:none;stroke:#000000;stroke-width:0.74721;stroke-linecap:butt;stroke-linejoin:miter;stroke-miterlimit:10;stroke-dasharray:none;stroke-opacity:1"
       transform="matrix(1.3333333,0,0,-1.3333333,-70.277333,-49.357333)" />
    <path
       id="path12"
       d="m 151.78708,-68.75923 c 13.38991,-6.27651 21.34016,-23.64153 -1.25531,-32.01022"
       style="fill:none;stroke:#000000;stroke-width:0.74721;stroke-linecap:butt;stroke-linejoin:miter;stroke-miterlimit:10;stroke-dasharray:none;stroke-opacity:1"
       transform="matrix(1.3333333,0,0,-1.3333333,-70.277333,-49.357333)" />
    <path
       id="path13"
       d="m 154.50166,-58.23036 c 17.48011,0.73225 31.3669,-42.14157 0.84212,-55.30135"
       style="fill:none;stroke:#000000;stroke-width:0.74721;stroke-linecap:butt;stroke-linejoin:miter;stroke-miterlimit:10;stroke-dasharray:none;stroke-opacity:1"
       transform="matrix(1.3333333,0,0,-1.3333333,-70.277333,-49.357333)" />
    <path
       id="path14"
       d="m 164.88931,-87.62015 c 0,1.07745 1.78881,1.94571 3.99604,1.94571 2.20202,0 3.99082,-0.86826 3.99082,-1.94571 0,-1.07226 -1.7888,-1.94049 -3.99082,-1.94049 -2.20723,0 -3.99604,0.86823 -3.99604,1.94049 z"
       style="fill:none;stroke:#000000;stroke-width:0.74721;stroke-linecap:butt;stroke-linejoin:miter;stroke-miterlimit:10;stroke-dasharray:none;stroke-opacity:1"
       transform="matrix(1.3333333,0,0,-1.3333333,-70.277333,-49.357333)" />
    <path
       id="path15"
       d="m 146.25851,-107.05643 c 0,3.7816 3.01796,6.84663 6.74204,6.84663 3.72929,0 6.74724,-3.06503 6.74724,-6.84663 0,-3.78161 -3.01795,-6.84665 -6.74724,-6.84665 -3.72408,0 -6.74204,3.06504 -6.74204,6.84665 z"
       style="fill:none;stroke:#000000;stroke-width:0.74721;stroke-linecap:butt;stroke-linejoin:miter;stroke-miterlimit:10;stroke-dasharray:none;stroke-opacity:1"
       transform="matrix(1.3333333,0,0,-1.3333333,-70.277333,-49.357333)" />
    <path
       id="path16"
       d="m 148.86327,-63.86876 c 0,3.11211 2.52107,5.6384 5.63839,5.6384 3.11736,0 5.6384,-2.52629 5.6384,-5.6384 0,-3.11735 -2.52104,-5.63841 -5.6384,-5.63841 -3.11732,0 -5.63839,2.52106 -5.63839,5.63841 z"
       style="fill:none;stroke:#000000;stroke-width:0.74721;stroke-linecap:butt;stroke-linejoin:miter;stroke-miterlimit:10;stroke-dasharray:none;stroke-opacity:1"
       transform="matrix(1.3333333,0,0,-1.3333333,-70.277333,-49.357333)" />
    <path
       id="path17"
       d="m 180.97289,-86.82513 h 11.88874"
       style="fill:none;stroke:#000000;stroke-width:0.74721;stroke-linecap:butt;stroke-linejoin:miter;stroke-miterlimit:10;stroke-dasharray:none;stroke-opacity:1"
       transform="matrix(1.3333333,0,0,-1.3333333,-70.277333,-49.357333)" />
    <path
       id="path18"
       d="m 189.76001,-89.06897 4.67076,2.24384 -4.67076,2.24383 z"
       style="fill:#000000;fill-opacity:1;fill-rule:nonzero;stroke:#000000;stroke-width:0.0797;stroke-linecap:butt;stroke-linejoin:miter;stroke-miterlimit:10;stroke-dasharray:none;stroke-opacity:0"
       transform="matrix(1.3333333,0,0,-1.3333333,-70.277333,-49.357333)" />
  </g>
</svg>
