<?xml version="1.0" encoding="UTF-8" standalone="no"?>
<!-- Created with Inkscape (http://www.inkscape.org/) -->

<svg
   version="1.1"
   id="svg1"
   width="599.4267"
   height="276.44"
   viewBox="0 0 599.4267 276.44"
   sodipodi:docname="R(U(1)_n).pdf"
   xmlns:inkscape="http://www.inkscape.org/namespaces/inkscape"
   xmlns:sodipodi="http://sodipodi.sourceforge.net/DTD/sodipodi-0.dtd"
   xmlns="http://www.w3.org/2000/svg"
   xmlns:svg="http://www.w3.org/2000/svg">
  <defs
     id="defs1" />
  <sodipodi:namedview
     id="namedview1"
     pagecolor="#ffffff"
     bordercolor="#000000"
     borderopacity="0.25"
     inkscape:showpageshadow="2"
     inkscape:pageopacity="0.0"
     inkscape:pagecheckerboard="0"
     inkscape:deskcolor="#d1d1d1">
    <inkscape:page
       x="0"
       y="0"
       inkscape:label="1"
       id="page1"
       width="599.4267"
       height="276.44"
       margin="0"
       bleed="0" />
  </sodipodi:namedview>
  <g
     id="g1"
     inkscape:groupmode="layer"
     inkscape:label="1">
    <path
       id="path1"
       d="m 468.46182,-134.96811 c 0,-44.71289 -36.24704,-80.95993 -80.95994,-80.95993 -44.71292,0 -80.95995,36.24704 -80.95995,80.95993 h 80.95995 z"
       style="fill:none;stroke:#000000;stroke-width:0.74721;stroke-linecap:butt;stroke-linejoin:miter;stroke-miterlimit:10;stroke-dasharray:4.48325, 4.48325;stroke-dashoffset:0;stroke-opacity:0"
       transform="matrix(1.3333333,0,0,-1.3333333,-64.318667,-53.006667)" />
    <path
       id="path2"
       d="m 468.46182,-134.96811 c 0,-44.71289 -36.24704,-80.95993 -80.95994,-80.95993 -44.71292,0 -80.95995,36.24704 -80.95995,80.95993"
       style="fill:none;stroke:#f5a623;stroke-width:0.74721;stroke-linecap:butt;stroke-linejoin:miter;stroke-miterlimit:10;stroke-dasharray:4.48325, 4.48325;stroke-dashoffset:0;stroke-opacity:0.3"
       transform="matrix(1.3333333,0,0,-1.3333333,-64.318667,-53.006667)" />
    <path
       id="path3"
       d="m 306.52696,-134.96811 c 0,0 0,0 0,0 0,44.77268 36.29936,81.07202 81.07204,81.07202 44.77269,0 81.07202,-36.29934 81.07202,-81.07202 H 387.599 Z"
       style="fill:#f5a623;fill-opacity:0.1;fill-rule:nonzero;stroke:#000000;stroke-width:1.49442;stroke-linecap:butt;stroke-linejoin:miter;stroke-miterlimit:10;stroke-dasharray:none;stroke-opacity:0"
       transform="matrix(1.3333333,0,0,-1.3333333,-64.318667,-53.006667)" />
    <path
       id="path4"
       d="m 306.52696,-134.96811 c 0,0 0,0 0,0 0,44.77268 36.29936,81.07202 81.07204,81.07202 44.77269,0 81.07202,-36.29934 81.07202,-81.07202"
       style="fill:none;stroke:#f5a623;stroke-width:1.49442;stroke-linecap:butt;stroke-linejoin:miter;stroke-miterlimit:10;stroke-dasharray:none;stroke-opacity:1"
       transform="matrix(1.3333333,0,0,-1.3333333,-64.318667,-53.006667)" />
    <path
       id="path5"
       d="m 52.30453,-134.96063 c 0,44.82498 36.33671,81.16168 81.16169,81.16168 44.82498,0 81.16169,-36.3367 81.16169,-81.16168 0,-44.82498 -36.33671,-81.1617 -81.16169,-81.1617 -44.82498,0 -81.16169,36.33672 -81.16169,81.1617 z"
       style="fill:#f5a623;fill-opacity:0.1;fill-rule:nonzero;stroke:#f5a623;stroke-width:1.49442;stroke-linecap:butt;stroke-linejoin:miter;stroke-miterlimit:10;stroke-dasharray:none;stroke-opacity:1"
       transform="matrix(1.3333333,0,0,-1.3333333,-64.318667,-53.006667)" />
    <path
       id="path6"
       d="m 133.90707,-53.99321 c 44.51862,-0.23164 80.53403,-36.39649 80.53403,-80.96742 0,-44.72037 -36.25452,-80.97489 -80.97488,-80.97489 -44.72037,0 -80.97489,36.25452 -80.97489,80.97489 0,44.72037 36.25452,80.97488 80.97489,80.97488 0.007,0 0.0224,0 0.0299,0 l -0.0299,-80.97488 z"
       style="fill:none;stroke:#000000;stroke-width:1.49442;stroke-linecap:butt;stroke-linejoin:miter;stroke-miterlimit:10;stroke-dasharray:none;stroke-opacity:0"
       transform="matrix(1.3333333,0,0,-1.3333333,-64.318667,-53.006667)" />
    <path
       id="path7"
       d="m 133.90707,-53.99321 c 44.51862,-0.23164 80.53403,-36.39649 80.53403,-80.96742 0,-44.72037 -36.25452,-80.97489 -80.97488,-80.97489 -44.72037,0 -80.97489,36.25452 -80.97489,80.97489 0,44.72037 36.25452,80.97488 80.97489,80.97488 0.007,0 0.0224,0 0.0299,0"
       style="fill:none;stroke:#9013fe;stroke-width:1.49442;stroke-linecap:butt;stroke-linejoin:miter;stroke-miterlimit:10;stroke-dasharray:none;stroke-opacity:1"
       transform="matrix(1.3333333,0,0,-1.3333333,-64.318667,-53.006667)" />
    <path
       id="path8"
       d="m 52.30453,-134.96063 c 0,2.45831 36.33671,4.44589 81.16169,4.44589 44.82498,0 81.16169,-1.98758 81.16169,-4.44589 0,-2.45832 -36.33671,-4.44589 -81.16169,-4.44589 -44.82498,0 -81.16169,1.98757 -81.16169,4.44589 z"
       style="fill:none;stroke:#f5a623;stroke-width:0.74721;stroke-linecap:butt;stroke-linejoin:miter;stroke-miterlimit:10;stroke-dasharray:none;stroke-opacity:1"
       transform="matrix(1.3333333,0,0,-1.3333333,-64.318667,-53.006667)" />
    <path
       id="path9"
       d="m 131.5982,-53.79895 c 0,1.03116 0.83687,1.86803 1.86802,1.86803 1.03116,0 1.86802,-0.83687 1.86802,-1.86803 0,-1.03115 -0.83686,-1.86801 -1.86802,-1.86801 -1.03115,0 -1.86802,0.83686 -1.86802,1.86801 z"
       style="fill:#000000;fill-opacity:1;fill-rule:nonzero;stroke:#000000;stroke-width:0.74721;stroke-linecap:butt;stroke-linejoin:miter;stroke-miterlimit:10;stroke-dasharray:none;stroke-opacity:1"
       transform="matrix(1.3333333,0,0,-1.3333333,-64.318667,-53.006667)" />
    <path
       id="path10"
       d="m 131.5982,-134.96063 c 0,1.03114 0.83687,1.86801 1.86802,1.86801 1.03116,0 1.86802,-0.83687 1.86802,-1.86801 0,-1.03116 -0.83686,-1.86803 -1.86802,-1.86803 -1.03115,0 -1.86802,0.83687 -1.86802,1.86803 z"
       style="fill:#9b9b9b;fill-opacity:1;fill-rule:nonzero;stroke:#9b9b9b;stroke-width:0.74721;stroke-linecap:butt;stroke-linejoin:miter;stroke-miterlimit:10;stroke-dasharray:none;stroke-opacity:1"
       transform="matrix(1.3333333,0,0,-1.3333333,-64.318667,-53.006667)" />
    <path
       id="path11"
       d="m 130.851,-53.79895 c 0,1.44211 1.17311,2.61523 2.61522,2.61523 1.44211,0 2.61523,-1.17312 2.61523,-2.61523 0,-1.44209 -1.17312,-2.61522 -2.61523,-2.61522 -1.44211,0 -2.61522,1.17313 -2.61522,2.61522 z"
       style="fill:#9013fe;fill-opacity:1;fill-rule:nonzero;stroke:#9013fe;stroke-width:0.74721;stroke-linecap:butt;stroke-linejoin:miter;stroke-miterlimit:10;stroke-dasharray:none;stroke-opacity:1"
       transform="matrix(1.3333333,0,0,-1.3333333,-64.318667,-53.006667)" />
    <path
       id="path12"
       d="m 214.62791,-134.96063 c 0,0 0,0 0,0 0,-2.45832 -36.33671,-4.44589 -81.16169,-4.44589 -44.82498,0 -81.16169,1.98757 -81.16169,4.44589 h 81.16169 z"
       style="fill:none;stroke:#000000;stroke-width:0.74721;stroke-linecap:butt;stroke-linejoin:miter;stroke-miterlimit:10;stroke-dasharray:none;stroke-opacity:0"
       transform="matrix(1.3333333,0,0,-1.3333333,-64.318667,-53.006667)" />
    <path
       id="path13"
       d="m 214.62791,-134.96063 c 0,0 0,0 0,0 0,-2.45832 -36.33671,-4.44589 -81.16169,-4.44589 -44.82498,0 -81.16169,1.98757 -81.16169,4.44589"
       style="fill:none;stroke:#f5a623;stroke-width:0.74721;stroke-linecap:butt;stroke-linejoin:miter;stroke-miterlimit:10;stroke-dasharray:none;stroke-opacity:1"
       transform="matrix(1.3333333,0,0,-1.3333333,-64.318667,-53.006667)" />
    <path
       id="path14"
       d="m 468.5739,-134.96811 c 0,0 0,0 0,0 0,0 0,0 0,0 0,-2.47325 -36.29935,-4.48324 -81.07202,-4.48324 -44.78017,0 -81.07204,2.00999 -81.07204,4.48324 h 81.07204 z"
       style="fill:#f5a623;fill-opacity:0.1;fill-rule:nonzero;stroke:#000000;stroke-width:1.49442;stroke-linecap:butt;stroke-linejoin:miter;stroke-miterlimit:10;stroke-dasharray:none;stroke-opacity:0"
       transform="matrix(1.3333333,0,0,-1.3333333,-64.318667,-53.006667)" />
    <path
       id="path15"
       d="m 468.5739,-134.96811 c 0,0 0,0 0,0 0,0 0,0 0,0 0,-2.47325 -36.29935,-4.48324 -81.07202,-4.48324 -44.78017,0 -81.07204,2.00999 -81.07204,4.48324"
       style="fill:none;stroke:#f5a623;stroke-width:1.49442;stroke-linecap:butt;stroke-linejoin:miter;stroke-miterlimit:10;stroke-dasharray:none;stroke-opacity:1"
       transform="matrix(1.3333333,0,0,-1.3333333,-64.318667,-53.006667)" />
    <path
       id="path16"
       d="m 306.42984,-134.96811 c 0,2.48073 36.29187,4.48325 81.07204,4.48325 44.77267,0 81.07202,-2.00252 81.07202,-4.48325 0,-2.47325 -36.29935,-4.48324 -81.07202,-4.48324 -44.78017,0 -81.07204,2.00999 -81.07204,4.48324 z"
       style="fill:none;stroke:#f5a623;stroke-width:0.74721;stroke-linecap:butt;stroke-linejoin:miter;stroke-miterlimit:10;stroke-dasharray:4.48325, 4.48325;stroke-dashoffset:0;stroke-opacity:0.5"
       transform="matrix(1.3333333,0,0,-1.3333333,-64.318667,-53.006667)" />
    <path
       id="path17"
       d="m 306.52696,-134.96811 c 0,44.72038 36.25454,80.9749 80.97492,80.9749 44.24215,0 80.20526,-35.49236 80.95994,-79.56267 l -80.95994,-1.41223 z"
       style="fill:none;stroke:#000000;stroke-width:1.49442;stroke-linecap:butt;stroke-linejoin:miter;stroke-miterlimit:10;stroke-dasharray:none;stroke-opacity:0"
       transform="matrix(1.3333333,0,0,-1.3333333,-64.318667,-53.006667)" />
    <path
       id="path18"
       d="m 306.52696,-134.96811 c 0,44.72038 36.25454,80.9749 80.97492,80.9749 44.24215,0 80.20526,-35.49236 80.95994,-79.56267"
       style="fill:none;stroke:#9013fe;stroke-width:1.49442;stroke-linecap:butt;stroke-linejoin:miter;stroke-miterlimit:10;stroke-dasharray:none;stroke-opacity:1"
       transform="matrix(1.3333333,0,0,-1.3333333,-64.318667,-53.006667)" />
    <path
       id="path19"
       d="m 466.80301,-134.96811 c 0,1.03114 0.83689,1.86801 1.86801,1.86801 1.03116,0 1.86803,-0.83687 1.86803,-1.86801 0,-1.03114 -0.83687,-1.86803 -1.86803,-1.86803 -1.03112,0 -1.86801,0.83689 -1.86801,1.86803 z"
       style="fill:#417505;fill-opacity:1;fill-rule:nonzero;stroke:#417505;stroke-width:0.74721;stroke-linecap:butt;stroke-linejoin:miter;stroke-miterlimit:10;stroke-dasharray:none;stroke-opacity:1"
       transform="matrix(1.3333333,0,0,-1.3333333,-64.318667,-53.006667)" />
    <path
       id="path20"
       d="m 304.65895,-134.96811 c 0,1.03114 0.83688,1.86801 1.86801,1.86801 1.03116,0 1.86803,-0.83687 1.86803,-1.86801 0,-1.03114 -0.83687,-1.86803 -1.86803,-1.86803 -1.03113,0 -1.86801,0.83689 -1.86801,1.86803 z"
       style="fill:#417505;fill-opacity:1;fill-rule:nonzero;stroke:#417505;stroke-width:0.74721;stroke-linecap:butt;stroke-linejoin:miter;stroke-miterlimit:10;stroke-dasharray:none;stroke-opacity:1"
       transform="matrix(1.3333333,0,0,-1.3333333,-64.318667,-53.006667)" />
    <path
       id="path21"
       d="m 385.73097,-134.96811 c 0,1.03114 0.83689,1.86801 1.86803,1.86801 1.03114,0 1.86801,-0.83687 1.86801,-1.86801 0,-1.03114 -0.83687,-1.86803 -1.86801,-1.86803 -1.03114,0 -1.86803,0.83689 -1.86803,1.86803 z"
       style="fill:#9b9b9b;fill-opacity:1;fill-rule:nonzero;stroke:#9b9b9b;stroke-width:0.74721;stroke-linecap:butt;stroke-linejoin:miter;stroke-miterlimit:10;stroke-dasharray:none;stroke-opacity:1"
       transform="matrix(1.3333333,0,0,-1.3333333,-64.318667,-53.006667)" />
    <path
       id="path22"
       d="m 130.851,-216.12233 c 0,1.44211 1.17311,2.61523 2.61522,2.61523 1.44211,0 2.61523,-1.17312 2.61523,-2.61523 0,-1.44209 -1.17312,-2.61522 -2.61523,-2.61522 -1.44211,0 -2.61522,1.17313 -2.61522,2.61522 z"
       style="fill:#9013fe;fill-opacity:1;fill-rule:nonzero;stroke:#9013fe;stroke-width:0.74721;stroke-linecap:butt;stroke-linejoin:miter;stroke-miterlimit:10;stroke-dasharray:none;stroke-opacity:1"
       transform="matrix(1.3333333,0,0,-1.3333333,-64.318667,-53.006667)" />
    <path
       id="path23"
       d="m 385.65628,-215.74872 c 0,1.44211 1.1731,2.61522 2.61522,2.61522 1.44958,0 2.61523,-1.17311 2.61523,-2.61522 0,-1.44211 -1.16565,-2.61523 -2.61523,-2.61523 -1.44212,0 -2.61522,1.17312 -2.61522,2.61523 z"
       style="fill:#9013fe;fill-opacity:0.5;fill-rule:nonzero;stroke:#9013fe;stroke-width:0.74721;stroke-linecap:butt;stroke-linejoin:miter;stroke-miterlimit:10;stroke-dasharray:none;stroke-opacity:0.5"
       transform="matrix(1.3333333,0,0,-1.3333333,-64.318667,-53.006667)" />
    <path
       id="path24"
       d="m 385.193,-53.79895 c 0,1.44211 1.17312,2.61523 2.61523,2.61523 1.44211,0 2.61522,-1.17312 2.61522,-2.61523 0,-1.44209 -1.17311,-2.61522 -2.61522,-2.61522 -1.44211,0 -2.61523,1.17313 -2.61523,2.61522 z"
       style="fill:#9013fe;fill-opacity:1;fill-rule:nonzero;stroke:#9013fe;stroke-width:0.74721;stroke-linecap:butt;stroke-linejoin:miter;stroke-miterlimit:10;stroke-dasharray:none;stroke-opacity:1"
       transform="matrix(1.3333333,0,0,-1.3333333,-64.318667,-53.006667)" />
    <g
       id="g24"
       aria-label="U(1)&#10;⃗n&#10;&lt;SU(2)⊂R&#10;4"
       transform="matrix(1.3333333,0,0,1.3333333,40.788,271.53333)">
      <path
         id="path25"
         d="m 6.3289219,-5.7525391 c 0.09375,-0.4101562 0.28125,-0.7148437 1.078125,-0.7382812 0.046875,0 0.1640625,-0.011719 0.1640625,-0.1992188 0,-0.011719 0,-0.1171875 -0.1289063,-0.1171875 -0.328125,0 -0.6796875,0.035156 -1.0195312,0.035156 -0.3398438,0 -0.703125,-0.035156 -1.03125,-0.035156 -0.058594,0 -0.1757813,0 -0.1757813,0.1992188 0,0.1171875 0.09375,0.1171875 0.1757813,0.1171875 0.5625,0.011719 0.6796875,0.2109375 0.6796875,0.4335937 0,0.035156 -0.023437,0.1757813 -0.035156,0.2109375 l -0.890625,3.5507813 c -0.3398437,1.33593749 -1.4882812,2.20312499 -2.484375,2.20312499 -0.6796875,0 -1.21875,-0.43359375 -1.21875,-1.28906249 0,-0.023437 0,-0.3398438 0.1171875,-0.7734375 l 0.9609375,-3.8789063 c 0.09375,-0.3632812 0.1054688,-0.4570312 0.8320313,-0.4570312 0.2695312,0 0.3398437,0 0.3398437,-0.1992188 0,-0.1171875 -0.1054687,-0.1171875 -0.140625,-0.1171875 -0.2695312,0 -0.9960937,0.035156 -1.265625,0.035156 -0.2929687,0 -0.9960937,-0.035156 -1.28906247,-0.035156 -0.0820313,0 -0.1875,0 -0.1875,0.1992188 0,0.1171875 0.09375,0.1171875 0.28124997,0.1171875 0.011719,0 0.2109375,0 0.375,0.011719 0.1757813,0.023437 0.2695313,0.035156 0.2695313,0.1640625 0,0.058594 -0.1054688,0.4804688 -0.1757813,0.703125 l -0.2109375,0.8789063 c -0.09375,0.3867187 -0.57421872,2.2734375 -0.60937497,2.4609375 -0.0703125,0.28125 -0.0703125,0.4335937 -0.0703125,0.5742187 0,1.21875004 0.90234377,1.92187504 1.95703127,1.92187504 1.2539062,0 2.484375,-1.125 2.8125,-2.44921874 z m 0,0"
         style="fill:#000000;fill-opacity:1;fill-rule:nonzero;stroke:none" />
      <path
         id="path26"
         d="m 11.180484,2.3919922 c 0,-0.035156 0,-0.046875 -0.164062,-0.2226563 -1.2421876,-1.25390621 -1.5703126,-3.12890621 -1.5703126,-4.6640625 0,-1.7226562 0.3867187,-3.4570312 1.6054686,-4.7109375 0.128906,-0.1171875 0.128906,-0.1289062 0.128906,-0.1640625 0,-0.070312 -0.03516,-0.1054687 -0.09375,-0.1054687 -0.105468,0 -0.996093,0.6796875 -1.5820309,1.9453125 -0.515625,1.1015625 -0.6328125,2.203125 -0.6328125,3.0351562 0,0.7851563 0.1171875,1.99218754 0.65625,3.11718754 0.5976564,1.21874996 1.4531254,1.87499996 1.5585934,1.87499996 0.05859,0 0.09375,-0.035156 0.09375,-0.1054687 z m 3.503907,-8.765625 c 0,-0.234375 0,-0.2578125 -0.234375,-0.2578125 -0.609375,0.6328125 -1.488282,0.6328125 -1.804688,0.6328125 v 0.3164062 c 0.199219,0 0.785156,0 1.300781,-0.2578125 v 5.15625004 c 0,0.3515625 -0.03516,0.48046875 -0.925781,0.48046875 h -0.316406 v 0.3046875 c 0.351562,-0.03515625 1.207031,-0.03515625 1.605469,-0.03515625 0.398437,0 1.265625,0 1.617187,0.03515625 v -0.3046875 h -0.316406 c -0.902344,0 -0.925781,-0.1171875 -0.925781,-0.48046875 z m 4.933593,3.8789062 c 0,-0.7734375 -0.117187,-1.9804687 -0.65625,-3.1054687 -0.597656,-1.21875 -1.464843,-1.875 -1.558593,-1.875 -0.05859,0 -0.105469,0.046875 -0.105469,0.1054687 0,0.035156 0,0.046875 0.199219,0.234375 0.972656,0.984375 1.535156,2.5664063 1.535156,4.640625 0,1.71093754 -0.363281,3.45703129 -1.59375,4.7226563 -0.140625,0.1171875 -0.140625,0.1289062 -0.140625,0.1640625 0,0.058594 0.04687,0.1054687 0.105469,0.1054687 0.09375,0 0.996093,-0.6796875 1.582031,-1.94531246 0.503906,-1.1015625 0.632812,-2.20312504 0.632812,-3.04687504 z m 0,0"
         style="fill:#000000;fill-opacity:1;fill-rule:nonzero;stroke:none" />
      <path
         id="path27"
         d="m 24.545719,-2.5445312 c -0.05859,0.058594 -0.304688,0.2695312 -0.304688,0.375 0,0.1054687 0.08203,0.1757812 0.175782,0.1757812 0.07031,0 0.117187,-0.046875 0.152343,-0.1054687 0.175782,-0.1992188 0.398438,-0.3398438 0.574219,-0.421875 0.105469,-0.046875 0.175781,-0.082031 0.175781,-0.1992188 0,-0.082031 -0.07031,-0.1289062 -0.128906,-0.1640625 -0.234375,-0.140625 -0.292969,-0.3164062 -0.328125,-0.3984375 -0.01172,-0.046875 -0.05859,-0.1523437 -0.175781,-0.1523437 -0.04687,0 -0.164063,0.046875 -0.164063,0.1757812 0,0.09375 0.105469,0.2929688 0.164063,0.375 h -2.507813 c -0.105468,0 -0.269531,0 -0.269531,0.1640625 0,0.1757813 0.152344,0.1757813 0.269531,0.1757813 z M 21.478336,1.146875 c -0.03516,0.082031 -0.07031,0.2578125 -0.07031,0.28125 0,0.1523438 0.117188,0.2226563 0.234375,0.2226563 0.128907,0 0.234375,-0.09375 0.269532,-0.1523438 0.03516,-0.058594 0.09375,-0.2929687 0.128906,-0.4335937 0.03516,-0.1289063 0.105469,-0.4570313 0.152344,-0.63281255 0.03516,-0.15234375 0.08203,-0.3046875 0.117187,-0.45703125 0.08203,-0.29296875 0.09375,-0.3515625 0.292969,-0.6328125 0.199219,-0.28125 0.527344,-0.6445312 1.042969,-0.6445312 0.410156,0 0.410156,0.3632812 0.410156,0.49218745 0,0.421875 -0.292969,1.1953125 -0.410156,1.48828125 -0.07031,0.1875 -0.105469,0.2578125 -0.105469,0.375 0,0.3632813 0.304687,0.5976563 0.667969,0.5976563 0.691406,0 1.007812,-0.96093755 1.007812,-1.0664063 0,-0.09375 -0.09375,-0.09375 -0.117187,-0.09375 -0.09375,0 -0.105469,0.046875 -0.128907,0.1171875 -0.164062,0.5625 -0.46875,0.84375 -0.738281,0.84375 -0.152344,0 -0.175781,-0.09375 -0.175781,-0.2460937 0,-0.1523438 0.03516,-0.2460938 0.152344,-0.56250005 0.09375,-0.2109375 0.375,-0.94921875 0.375,-1.34765625 0,-0.6679687 -0.539063,-0.7851562 -0.902344,-0.7851562 -0.585938,0 -0.972656,0.3515625 -1.183594,0.63281245 C 22.451,-1.3375 22.040839,-1.4898437 21.74787,-1.4898437 c -0.292969,0 -0.457031,0.2109375 -0.550781,0.375 -0.152344,0.25781245 -0.246094,0.65624995 -0.246094,0.6914062 0,0.0820313 0.09375,0.0820313 0.117188,0.0820313 0.09375,0 0.105468,-0.0117188 0.152343,-0.19921875 0.105469,-0.421875 0.234375,-0.76171865 0.515625,-0.76171865 0.175782,0 0.222657,0.1523437 0.222657,0.33984365 0,0.140625 -0.05859,0.3984375 -0.105469,0.5859375 -0.04687,0.1875 -0.117188,0.46875 -0.152344,0.62109375 z m 0,0"
         style="fill:#000000;fill-opacity:1;fill-rule:nonzero;stroke:none" />
      <path
         id="path28"
         d="m 35.534977,-4.9556641 c 0.117187,-0.058594 0.1875,-0.1171875 0.1875,-0.2226562 0,-0.1054688 -0.09375,-0.1992188 -0.199219,-0.1992188 -0.03516,0 -0.04687,0 -0.175781,0.070312 l -5.519532,2.6015625 c -0.117187,0.046875 -0.1875,0.09375 -0.1875,0.2109375 0,0.1289063 0.07031,0.1757813 0.1875,0.2226563 l 5.519532,2.60156249 c 0.128906,0.0703125 0.140625,0.0703125 0.175781,0.0703125 0.105469,0 0.199219,-0.09375 0.199219,-0.19921875 0,-0.10546875 -0.07031,-0.1640625 -0.1875,-0.22265625 L 30.308414,-2.4947266 Z m 10.195312,-1.96875 c 0,-0.023437 -0.01172,-0.09375 -0.105469,-0.09375 -0.04687,0 -0.05859,0.011719 -0.175781,0.140625 l -0.480469,0.5742188 c -0.257812,-0.46875 -0.773437,-0.7148438 -1.429687,-0.7148438 -1.265625,0 -2.460938,1.1367188 -2.460938,2.34375 0,0.8085938 0.527344,1.265625 1.042969,1.4179688 l 1.066406,0.28125 c 0.363282,0.082031 0.914063,0.234375 0.914063,1.0546875 0,0.890625 -0.820313,1.82812499 -1.792969,1.82812499 -0.644531,0 -1.746094,-0.2109375 -1.746094,-1.45312499 0,-0.234375 0.04687,-0.4804688 0.05859,-0.5390625 0.01172,-0.035156 0.02344,-0.046875 0.02344,-0.070312 0,-0.09375 -0.07031,-0.1054688 -0.117188,-0.1054688 -0.05859,0 -0.07031,0.011719 -0.105469,0.035156 -0.03516,0.046875 -0.597656,2.32031249 -0.597656,2.34374999 0,0.0585937 0.04687,0.10546875 0.117188,0.10546875 0.04687,0 0.05859,-0.0117188 0.175781,-0.15234375 l 0.492187,-0.57421875 c 0.421875,0.5859375 1.101563,0.7265625 1.675782,0.7265625 1.359375,0 2.53125,-1.32421874 2.53125,-2.56640624 0,-0.6796875 -0.339844,-1.0195313 -0.492188,-1.1601563 -0.222656,-0.234375 -0.375,-0.2695312 -1.265625,-0.5039062 -0.210937,-0.058594 -0.574219,-0.1523438 -0.65625,-0.1757813 -0.269531,-0.09375 -0.609375,-0.375 -0.609375,-0.9023437 0,-0.8085938 0.796875,-1.6523438 1.734375,-1.6523438 0.832031,0 1.441406,0.421875 1.441406,1.5351563 0,0.3164062 -0.04687,0.5039062 -0.04687,0.5625 0,0.011719 0,0.09375 0.128907,0.09375 0.09375,0 0.105468,-0.023437 0.140625,-0.1992188 z m 6.591797,1.171875 c 0.09375,-0.4101562 0.28125,-0.7148437 1.078125,-0.7382812 0.04687,0 0.164062,-0.011719 0.164062,-0.1992188 0,-0.011719 0,-0.1171875 -0.128906,-0.1171875 -0.328125,0 -0.679687,0.035156 -1.019531,0.035156 -0.339844,0 -0.703125,-0.035156 -1.03125,-0.035156 -0.05859,0 -0.175781,0 -0.175781,0.1992188 0,0.1171875 0.09375,0.1171875 0.175781,0.1171875 0.5625,0.011719 0.679687,0.2109375 0.679687,0.4335937 0,0.035156 -0.02344,0.1757813 -0.03516,0.2109375 l -0.890625,3.5507813 c -0.339844,1.33593749 -1.488281,2.20312499 -2.484375,2.20312499 -0.679687,0 -1.21875,-0.43359375 -1.21875,-1.28906249 0,-0.023437 0,-0.3398438 0.117188,-0.7734375 l 0.960937,-3.8789063 c 0.09375,-0.3632812 0.105469,-0.4570312 0.832031,-0.4570312 0.269532,0 0.339844,0 0.339844,-0.1992188 0,-0.1171875 -0.105469,-0.1171875 -0.140625,-0.1171875 -0.269531,0 -0.996094,0.035156 -1.265625,0.035156 -0.292969,0 -0.996094,-0.035156 -1.289062,-0.035156 -0.08203,0 -0.1875,0 -0.1875,0.1992188 0,0.1171875 0.09375,0.1171875 0.28125,0.1171875 0.01172,0 0.210937,0 0.375,0.011719 0.175781,0.023437 0.269531,0.035156 0.269531,0.1640625 0,0.058594 -0.105469,0.4804688 -0.175781,0.703125 l -0.210938,0.8789063 c -0.09375,0.3867187 -0.574219,2.2734375 -0.609375,2.4609375 -0.07031,0.28125 -0.07031,0.4335937 -0.07031,0.5742187 0,1.21875004 0.902343,1.92187504 1.957031,1.92187504 1.253906,0 2.484375,-1.125 2.8125,-2.44921874 z m 0,0"
         style="fill:#000000;fill-opacity:1;fill-rule:nonzero;stroke:none" />
      <path
         id="path29"
         d="m 57.191227,2.3919922 c 0,-0.035156 0,-0.046875 -0.164063,-0.2226563 -1.242187,-1.25390621 -1.570312,-3.12890621 -1.570312,-4.6640625 0,-1.7226562 0.386718,-3.4570312 1.605468,-4.7109375 0.128907,-0.1171875 0.128907,-0.1289062 0.128907,-0.1640625 0,-0.070312 -0.03516,-0.1054687 -0.09375,-0.1054687 -0.105469,0 -0.996094,0.6796875 -1.582032,1.9453125 -0.515625,1.1015625 -0.632812,2.203125 -0.632812,3.0351562 0,0.7851563 0.117187,1.99218754 0.65625,3.11718754 0.597656,1.21874996 1.453125,1.87499996 1.558594,1.87499996 0.05859,0 0.09375,-0.035156 0.09375,-0.1054687 z m 1.836914,-3.15234376 1.054687,-1.03125004 c 1.558594,-1.3710937 2.15625,-1.9101562 2.15625,-2.90625 0,-1.1367187 -0.902344,-1.9335937 -2.121094,-1.9335937 -1.125,0 -1.851562,0.9140625 -1.851562,1.8046875 0,0.5507812 0.492187,0.5507812 0.527344,0.5507812 0.164062,0 0.515625,-0.1171875 0.515625,-0.5273437 0,-0.2578125 -0.1875,-0.515625 -0.527344,-0.515625 -0.08203,0 -0.105469,0 -0.128906,0.011719 0.222656,-0.6445312 0.761718,-1.0195312 1.335937,-1.0195312 0.914063,0 1.335938,0.8085937 1.335938,1.6289062 0,0.796875 -0.492188,1.5820313 -1.042969,2.203125 l -1.910156,2.13281254 c -0.105469,0.10546875 -0.105469,0.12890625 -0.105469,0.36328125 h 3.691406 l 0.28125,-1.73437499 h -0.257812 c -0.04687,0.3046875 -0.117188,0.73828124 -0.210938,0.89062499 -0.07031,0.0820313 -0.726562,0.0820313 -0.949219,0.0820313 z m 6.597656,-1.73437504 c 0,-0.7734375 -0.117188,-1.9804687 -0.65625,-3.1054687 -0.597656,-1.21875 -1.464844,-1.875 -1.558594,-1.875 -0.05859,0 -0.105469,0.046875 -0.105469,0.1054687 0,0.035156 0,0.046875 0.199219,0.234375 0.972656,0.984375 1.535156,2.5664063 1.535156,4.640625 0,1.71093754 -0.363281,3.45703129 -1.59375,4.7226563 -0.140625,0.1171875 -0.140625,0.1289062 -0.140625,0.1640625 0,0.058594 0.04687,0.1054687 0.105469,0.1054687 0.09375,0 0.996094,-0.6796875 1.582031,-1.94531246 0.503907,-1.1015625 0.632813,-2.20312504 0.632813,-3.04687504 z m 0,0"
         style="fill:#000000;fill-opacity:1;fill-rule:nonzero;stroke:none" />
      <path
         id="path30"
         d="m 75.955875,-4.9791016 c 0.175781,0 0.351563,0 0.351563,-0.1992187 0,-0.1992188 -0.175782,-0.1992188 -0.351563,-0.1992188 H 73.284 c -1.710937,0 -3.058594,1.2890625 -3.058594,2.8828125 0,1.59375004 1.347657,2.89453129 3.058594,2.89453129 h 2.671875 c 0.175781,0 0.351563,0 0.351563,-0.19921875 0,-0.19921875 -0.175782,-0.19921875 -0.351563,-0.19921875 h -2.660156 c -1.546875,0 -2.671875,-1.16015629 -2.671875,-2.49609379 0,-1.3242187 1.125,-2.484375 2.671875,-2.484375 z m 0,0"
         style="fill:#000000;fill-opacity:1;fill-rule:nonzero;stroke:none" />
      <path
         id="path31"
         d="m 82.582828,-3.1275391 h 0.351563 l 1.5,2.30859379 c 0.09375,0.1640625 0.339843,0.55078125 0.445312,0.703125 0.07031,0.1171875 0.105469,0.1171875 0.328125,0.1171875 h 1.382813 c 0.175781,0 0.328125,0 0.328125,-0.17578125 0,-0.0820312 -0.07031,-0.15234375 -0.152344,-0.17578125 -0.375,-0.0820313 -0.855469,-0.73828129 -1.101563,-1.05468749 -0.07031,-0.09375 -0.5625,-0.75 -1.230468,-1.828125 0.890625,-0.1640625 1.746093,-0.5390625 1.746093,-1.7226563 0,-1.3828125 -1.464843,-1.8632812 -2.648437,-1.8632812 h -3.117188 c -0.1875,0 -0.339843,0 -0.339843,0.1757812 0,0.1640625 0.1875,0.1640625 0.269531,0.1640625 0.5625,0 0.609375,0.070312 0.609375,0.5742188 v 4.99218749 c 0,0.4921875 -0.04687,0.5625 -0.609375,0.5625 -0.08203,0 -0.269531,0 -0.269531,0.17578125 0,0.17578125 0.152343,0.17578125 0.339843,0.17578125 h 2.71875 c 0.1875,0 0.328125,0 0.328125,-0.17578125 0,-0.17578125 -0.164062,-0.17578125 -0.269531,-0.17578125 -0.574219,0 -0.609375,-0.0820313 -0.609375,-0.5625 z m 1.921875,-0.4921875 c 0.28125,-0.3632812 0.304688,-0.890625 0.304688,-1.3242187 0,-0.4804688 -0.05859,-1.0078125 -0.375,-1.4179688 0.410156,0.082031 1.394531,0.3984375 1.394531,1.40625 0,0.6445313 -0.304688,1.1484375 -1.324219,1.3359375 z m -1.921875,-2.3203125 c 0,-0.1992187 0,-0.5390625 0.621094,-0.5390625 0.84375,0 1.253906,0.3515625 1.253906,1.5351563 0,1.2773437 -0.304687,1.4648437 -1.875,1.4648437 z m -1.359375,5.58984379 c 0.08203,-0.17578125 0.08203,-0.45703125 0.08203,-0.55078125 V -5.9283203 c 0,-0.09375 0,-0.3632813 -0.08203,-0.5507813 h 1.136719 c -0.128906,0.1640625 -0.128906,0.3632813 -0.128906,0.515625 v 5.06250004 c 0,0.10546875 0,0.375 0.08203,0.55078125 z m 2.121094,-2.77734379 c 0.07031,-0.011719 0.117187,-0.023437 0.1875,-0.023437 0.152344,0 0.375,-0.011719 0.527344,-0.035156 0.140625,0.234375 1.21875,2.015625 2.050781,2.83593749 h -0.972656 z m 0,0"
         style="fill:#000000;fill-opacity:1;fill-rule:nonzero;stroke:none" />
      <path
         id="path32"
         d="m 90.797672,-4.7652344 v -0.2460937 h -0.773438 v -3.1054688 c 0,-0.1523437 0,-0.1992187 -0.152343,-0.1992187 -0.09375,0 -0.117188,0 -0.1875,0.09375 l -2.308594,3.2109375 v 0.2460937 h 2.050781 v 0.5742188 c 0,0.234375 0,0.328125 -0.5625,0.328125 h -0.1875 v 0.2460937 c 0.351563,-0.011719 0.796875,-0.023437 1.042969,-0.023437 0.257812,0 0.703125,0.011719 1.054687,0.023437 v -0.2460937 h -0.1875 c -0.5625,0 -0.5625,-0.09375 -0.5625,-0.328125 v -0.5742188 z m -1.324219,-2.8007812 v 2.5546875 h -1.839844 z m 0,0"
         style="fill:#000000;fill-opacity:1;fill-rule:nonzero;stroke:none" />
    </g>
    <g
       id="g32"
       aria-label="U(1)"
       transform="matrix(1.3333333,0,0,1.3333333,215.336,36.06)">
      <path
         id="path33"
         d="m 6.3280781,-5.7549609 c 0.09375,-0.4101563 0.28125,-0.7148438 1.078125,-0.7382813 0.046875,0 0.1640625,-0.011719 0.1640625,-0.1992187 0,-0.011719 0,-0.1171875 -0.1289062,-0.1171875 -0.328125,0 -0.6796875,0.035156 -1.0195313,0.035156 -0.3398437,0 -0.703125,-0.035156 -1.03125,-0.035156 -0.058594,0 -0.1757812,0 -0.1757812,0.1992187 0,0.1171875 0.09375,0.1171875 0.1757812,0.1171875 0.5625,0.011719 0.6796875,0.2109375 0.6796875,0.4335938 0,0.035156 -0.023437,0.1757812 -0.035156,0.2109375 l -0.890625,3.5507812 c -0.3398438,1.33593751 -1.4882813,2.20312501 -2.484375,2.20312501 -0.6796875,0 -1.21875,-0.43359375 -1.21875,-1.28906251 0,-0.023437 0,-0.3398437 0.1171875,-0.7734375 l 0.9609375,-3.8789062 c 0.09375,-0.3632813 0.1054687,-0.4570313 0.8320312,-0.4570313 0.2695313,0 0.3398438,0 0.3398438,-0.1992187 0,-0.1171875 -0.1054688,-0.1171875 -0.140625,-0.1171875 -0.2695313,0 -0.9960938,0.035156 -1.265625,0.035156 -0.2929688,0 -0.9960938,-0.035156 -1.28906252,-0.035156 -0.0820313,0 -0.1875,0 -0.1875,0.1992187 0,0.1171875 0.09375,0.1171875 0.28125002,0.1171875 0.011719,0 0.2109375,0 0.375,0.011719 0.1757812,0.023437 0.2695312,0.035156 0.2695312,0.1640625 0,0.058594 -0.1054687,0.4804687 -0.1757812,0.703125 l -0.2109375,0.8789062 c -0.09375,0.3867188 -0.57421877,2.2734375 -0.60937502,2.4609375 -0.0703125,0.28125 -0.0703125,0.4335938 -0.0703125,0.5742188 0,1.21874996 0.90234372,1.92187496 1.95703122,1.92187496 1.2539063,0 2.484375,-1.125 2.8125,-2.44921876 z m 0,0"
         style="fill:#9013fe;fill-opacity:1;fill-rule:nonzero;stroke:none" />
      <path
         id="path34"
         d="m 11.179641,2.3895703 c 0,-0.035156 0,-0.046875 -0.164063,-0.2226562 -1.2421874,-1.25390629 -1.5703124,-3.12890629 -1.5703124,-4.6640625 0,-1.7226563 0.3867188,-3.4570313 1.6054684,-4.7109375 0.128907,-0.1171875 0.128907,-0.1289063 0.128907,-0.1640625 0,-0.070312 -0.03516,-0.1054688 -0.09375,-0.1054688 -0.105469,0 -0.996094,0.6796875 -1.5820316,1.9453125 -0.515625,1.1015625 -0.6328125,2.203125 -0.6328125,3.0351563 0,0.7851562 0.1171875,1.99218746 0.65625,3.11718746 0.5976561,1.21875004 1.4531251,1.87500004 1.5585941,1.87500004 0.05859,0 0.09375,-0.035156 0.09375,-0.1054688 z m 3.503906,-8.765625 c 0,-0.234375 0,-0.2578125 -0.234375,-0.2578125 -0.609375,0.6328125 -1.488281,0.6328125 -1.804688,0.6328125 v 0.3164063 c 0.199219,0 0.785157,0 1.300782,-0.2578125 v 5.15624996 c 0,0.3515625 -0.03516,0.48046875 -0.925782,0.48046875 h -0.316406 v 0.3046875 c 0.351563,-0.03515625 1.207031,-0.03515625 1.605469,-0.03515625 0.398437,0 1.265625,0 1.617187,0.03515625 v -0.3046875 h -0.316406 c -0.902344,0 -0.925781,-0.1171875 -0.925781,-0.48046875 z m 4.933594,3.8789063 c 0,-0.7734375 -0.117188,-1.9804688 -0.65625,-3.1054688 -0.597657,-1.21875 -1.464844,-1.875 -1.558594,-1.875 -0.05859,0 -0.105469,0.046875 -0.105469,0.1054688 0,0.035156 0,0.046875 0.199219,0.234375 0.972656,0.984375 1.535156,2.5664062 1.535156,4.640625 0,1.71093746 -0.363281,3.45703121 -1.59375,4.7226562 -0.140625,0.1171875 -0.140625,0.1289063 -0.140625,0.1640625 0,0.058594 0.04687,0.1054688 0.105469,0.1054688 0.09375,0 0.996094,-0.6796875 1.582031,-1.94531254 0.503906,-1.1015625 0.632813,-2.20312496 0.632813,-3.04687496 z m 0,0"
         style="fill:#9013fe;fill-opacity:1;fill-rule:nonzero;stroke:none" />
    </g>
    <g
       id="g34"
       aria-label="ω=0"
       transform="matrix(1.3333333,0,0,1.3333333,97.086667,9.8586667)">
      <path
         id="path35"
         d="m 6.0228906,-3.7025937 c 0,-0.4453125 -0.1757812,-0.703125 -0.3984375,-0.703125 -0.2578125,0 -0.5273437,0.2460937 -0.5273437,0.46875 0,0.1054687 0.046875,0.2109375 0.1523437,0.3046875 0.1640625,0.140625 0.3515625,0.4101562 0.3515625,0.8320312 0,0.3984375 -0.1875,0.9726563 -0.5039062,1.4296875 -0.2929688,0.421875 -0.6679688,0.76171875 -1.1367188,0.76171875 -0.5625,0 -0.8671875,-0.3515625 -0.9609375,-0.89062495 0.1054688,-0.2578125 0.3398438,-0.9023438 0.3398438,-1.1835938 0,-0.1171875 -0.046875,-0.2109375 -0.1875,-0.2109375 -0.070312,0 -0.1875,0.011719 -0.2578125,0.1640625 -0.1171875,0.1992188 -0.234375,0.84375 -0.234375,1.2070313 -0.328125,0.46875 -0.7265625,0.91406245 -1.359375,0.91406245 -0.65625002,0 -0.86718752,-0.58593745 -0.86718752,-1.14843745 0,-1.2421875 1.01953122,-2.2851563 1.01953122,-2.4140625 0,-0.1171875 -0.082031,-0.1875 -0.1875,-0.1875 -0.1289062,0 -0.1992187,0.1289062 -0.2578125,0.2109375 -0.50390622,0.7382812 -0.89062497,1.921875 -0.89062497,2.8359375 0,0.67968745 0.234375,1.4179687 1.04296877,1.4179687 0.7148437,0 1.1835937,-0.4921875 1.5351562,-1.04296875 C 2.7885156,-0.36275 3.1752344,0.106 3.7963281,0.106 c 0.7734375,0 1.2539063,-0.609375 1.6171875,-1.3476562 0.234375,-0.4921875 0.609375,-1.8515625 0.609375,-2.4609375 z m 0,0"
         style="fill:#9013fe;fill-opacity:1;fill-rule:nonzero;stroke:none" />
      <path
         id="path36"
         d="m 16.168398,-3.2572812 c 0.152344,0 0.339844,0 0.339844,-0.1992188 0,-0.1992187 -0.1875,-0.1992187 -0.328125,-0.1992187 h -5.964844 c -0.140625,0 -0.3281246,0 -0.3281246,0.1992187 0,0.1992188 0.1874996,0.1992188 0.3398436,0.1992188 z m 0.01172,1.9335937 c 0.140625,0 0.328125,0 0.328125,-0.1992187 0,-0.1992188 -0.1875,-0.1992188 -0.339844,-0.1992188 h -5.941406 c -0.152344,0 -0.3398436,0 -0.3398436,0.1992188 0,0.1992187 0.1874996,0.1992187 0.3281246,0.1992187 z m 8.229492,-1.8632812 c 0,-0.796875 -0.04687,-1.59375 -0.398437,-2.3320313 -0.457031,-0.9609375 -1.277344,-1.1132812 -1.6875,-1.1132812 -0.597656,0 -1.335938,0.2578125 -1.734375,1.1835937 -0.328125,0.6914063 -0.375,1.4648438 -0.375,2.2617188 0,0.75 0.04687,1.640625 0.445312,2.4023437 0.433594,0.80859375 1.160157,1.0078125 1.652344,1.0078125 0.539063,0 1.289063,-0.2109375 1.734375,-1.16015625 C 24.362735,-1.628375 24.40961,-2.4018125 24.40961,-3.1869687 Z M 22.311953,5.3125e-4 c -0.386719,0 -0.984375,-0.24609375 -1.160156,-1.20703125 -0.105469,-0.5976562 -0.105469,-1.5117187 -0.105469,-2.0976562 0,-0.6445313 0,-1.3007813 0.08203,-1.8398438 0.1875,-1.1835937 0.925782,-1.265625 1.183594,-1.265625 0.328125,0 0.984375,0.1757813 1.171875,1.1601563 0.09375,0.5625 0.09375,1.3125 0.09375,1.9453125 0,0.75 0,1.4179687 -0.105469,2.0625 -0.152343,0.93749995 -0.714843,1.24218745 -1.160156,1.24218745 z m 0,0"
         style="fill:#9013fe;fill-opacity:1;fill-rule:nonzero;stroke:none" />
    </g>
    <g
       id="g36"
       aria-label="ω=2π"
       transform="matrix(1.3333333,0,0,1.3333333,88.230667,211.736)">
      <path
         id="path37"
         d="m 6.0232891,-3.7043437 c 0,-0.4453125 -0.1757813,-0.703125 -0.3984375,-0.703125 -0.2578125,0 -0.5273438,0.2460937 -0.5273438,0.46875 0,0.1054687 0.046875,0.2109375 0.1523438,0.3046875 0.1640625,0.140625 0.3515625,0.4101562 0.3515625,0.8320312 0,0.3984375 -0.1875,0.9726563 -0.5039063,1.4296875 -0.2929687,0.421875 -0.6679687,0.76171875 -1.1367187,0.76171875 -0.5625,0 -0.8671875,-0.3515625 -0.9609375,-0.89062495 0.1054687,-0.2578125 0.3398437,-0.9023438 0.3398437,-1.1835938 0,-0.1171875 -0.046875,-0.2109375 -0.1875,-0.2109375 -0.070312,0 -0.1875,0.011719 -0.2578125,0.1640625 -0.1171875,0.1992188 -0.234375,0.84375 -0.234375,1.2070313 -0.328125,0.46875 -0.7265625,0.91406245 -1.359375,0.91406245 -0.65624999,0 -0.86718749,-0.58593745 -0.86718749,-1.14843745 0,-1.2421875 1.01953129,-2.2851563 1.01953129,-2.4140625 0,-0.1171875 -0.082031,-0.1875 -0.1875,-0.1875 -0.1289063,0 -0.1992188,0.1289062 -0.2578125,0.2109375 -0.50390629,0.7382812 -0.89062504,1.921875 -0.89062504,2.8359375 0,0.67968745 0.234375,1.4179687 1.04296874,1.4179687 0.7148438,0 1.1835938,-0.4921875 1.5351563,-1.04296875 C 2.7889141,-0.3645 3.1756328,0.10425 3.7967266,0.10425 c 0.7734375,0 1.2539062,-0.609375 1.6171875,-1.3476562 0.234375,-0.4921875 0.609375,-1.8515625 0.609375,-2.4609375 z m 0,0"
         style="fill:#000000;fill-opacity:1;fill-rule:nonzero;stroke:none" />
      <path
         id="path38"
         d="m 16.168797,-3.2590312 c 0.152344,0 0.339844,0 0.339844,-0.1992188 0,-0.1992187 -0.1875,-0.1992187 -0.328125,-0.1992187 h -5.964844 c -0.140625,0 -0.3281251,0 -0.3281251,0.1992187 0,0.1992188 0.1875001,0.1992188 0.3398441,0.1992188 z m 0.01172,1.9335937 c 0.140625,0 0.328125,0 0.328125,-0.1992187 0,-0.1992188 -0.1875,-0.1992188 -0.339844,-0.1992188 h -5.941406 c -0.152344,0 -0.3398441,0 -0.3398441,0.1992188 0,0.1992187 0.1875001,0.1992187 0.3281251,0.1992187 z m 4.913086,0.5625 1.054687,-1.03125 c 1.558594,-1.3710937 2.15625,-1.9101562 2.15625,-2.90625 0,-1.1367187 -0.902344,-1.9335937 -2.121094,-1.9335937 -1.125,0 -1.851562,0.9140625 -1.851562,1.8046875 0,0.5507812 0.492187,0.5507812 0.527344,0.5507812 0.164062,0 0.515625,-0.1171875 0.515625,-0.5273437 0,-0.2578125 -0.1875,-0.515625 -0.527344,-0.515625 -0.08203,0 -0.105469,0 -0.128906,0.011719 0.222656,-0.6445312 0.761718,-1.0195312 1.335937,-1.0195312 0.914063,0 1.335938,0.8085937 1.335938,1.6289062 0,0.796875 -0.492188,1.5820313 -1.042969,2.203125 L 20.437352,-0.3645 c -0.105469,0.10546875 -0.105469,0.12890625 -0.105469,0.36328125 h 3.691406 l 0.28125,-1.73437495 h -0.257812 c -0.04687,0.3046875 -0.117188,0.7382812 -0.210938,0.89062495 -0.07031,0.0820313 -0.726562,0.0820313 -0.949219,0.0820313 z m 0,0"
         style="fill:#000000;fill-opacity:1;fill-rule:nonzero;stroke:none" />
      <path
         id="path39"
         d="m 27.459813,-3.7160625 h 1.125 c -0.328125,1.4765625 -0.410157,1.8984375 -0.410157,2.5664063 0,0.1523437 0,0.42187495 0.07031,0.7617187 0.105469,0.43359375 0.210937,0.4921875 0.363281,0.4921875 0.199219,0 0.410156,-0.17578125 0.410156,-0.375 0,-0.0585938 0,-0.0820313 -0.05859,-0.22265625 C 28.666844,-1.20825 28.666844,-1.8527812 28.666844,-2.1340312 c 0,-0.5273438 0.07031,-1.0664063 0.175781,-1.5820313 h 1.136719 c 0.128906,0 0.492187,0 0.492187,-0.3398437 0,-0.234375 -0.210937,-0.234375 -0.398437,-0.234375 H 26.73325 c -0.210937,0 -0.597656,0 -1.03125,0.46875 -0.351562,0.3867187 -0.609375,0.84375 -0.609375,0.890625 0,0.011719 0,0.1054687 0.117188,0.1054687 0.08203,0 0.105468,-0.046875 0.164062,-0.1289062 0.480469,-0.7617188 1.066406,-0.7617188 1.265625,-0.7617188 h 0.5625 c -0.316406,1.2070313 -0.855469,2.4140625 -1.277344,3.31640625 -0.07031,0.15234375 -0.07031,0.1640625 -0.07031,0.234375 0,0.19921875 0.152344,0.26953125 0.28125,0.26953125 0.304687,0 0.386719,-0.26953125 0.503906,-0.64453125 0.140625,-0.45703125 0.140625,-0.48046875 0.269531,-0.97265625 z m 0,0"
         style="fill:#000000;fill-opacity:1;fill-rule:nonzero;stroke:none" />
    </g>
    <g
       id="g39"
       aria-label="SO(2)&#10;⃗n&#10;&lt;SO(3)⊂R&#10;4"
       transform="matrix(1.3333333,0,0,1.3333333,375.20933,272.128)">
      <path
         id="path40"
         d="m 6.4230781,-6.9251016 c 0,-0.023437 -0.011719,-0.09375 -0.1054687,-0.09375 -0.046875,0 -0.058594,0.011719 -0.1757813,0.140625 l -0.4804687,0.5742188 c -0.2578125,-0.46875 -0.7734375,-0.7148438 -1.4296875,-0.7148438 -1.265625,0 -2.4609375,1.1367188 -2.4609375,2.34375 0,0.8085938 0.5273437,1.265625 1.0429687,1.4179688 l 1.0664063,0.28125 c 0.3632812,0.082031 0.9140625,0.234375 0.9140625,1.0546875 0,0.890625 -0.8203125,1.82812499 -1.7929688,1.82812499 -0.6445312,0 -1.7460937,-0.2109375 -1.7460937,-1.45312499 0,-0.234375 0.046875,-0.4804688 0.058594,-0.5390625 0.011719,-0.035156 0.023437,-0.046875 0.023437,-0.070312 0,-0.09375 -0.070312,-0.1054688 -0.1171875,-0.1054688 -0.058594,0 -0.070312,0.011719 -0.1054687,0.035156 -0.035156,0.046875 -0.59765628,2.32031249 -0.59765628,2.34374999 0,0.0585938 0.046875,0.10546875 0.1171875,0.10546875 0.046875,0 0.0585938,-0.0117188 0.17578125,-0.15234375 L 1.3019844,-0.50322656 c 0.421875,0.5859375 1.1015625,0.7265625 1.6757812,0.7265625 1.359375,0 2.53125,-1.32421874 2.53125,-2.56640624 0,-0.6796875 -0.3398437,-1.0195313 -0.4921875,-1.1601563 -0.2226562,-0.234375 -0.375,-0.2695312 -1.265625,-0.5039062 -0.2109375,-0.058594 -0.5742187,-0.1523438 -0.65625,-0.1757813 -0.2695312,-0.09375 -0.609375,-0.375 -0.609375,-0.9023437 0,-0.8085938 0.796875,-1.6523438 1.734375,-1.6523438 0.8320313,0 1.4414063,0.421875 1.4414063,1.5351563 0,0.3164062 -0.046875,0.5039062 -0.046875,0.5625 0,0.011719 0,0.09375 0.1289062,0.09375 0.09375,0 0.1054688,-0.023437 0.140625,-0.1992188 z m 7.6230469,2.578125 c 0,-1.59375 -1.054688,-2.671875 -2.542969,-2.671875 -2.144531,0 -4.3359373,2.2617188 -4.3359373,4.5820313 0,1.65234374 1.1132813,2.66015624 2.5429688,2.66015624 2.1093745,0 4.3359375,-2.17968754 4.3359375,-4.57031254 z m -4.2773438,4.31250004 c -0.984375,0 -1.6757812,-0.80859375 -1.6757812,-2.12109374 0,-0.4453125 0.140625,-1.8984375 0.9023437,-3.0585938 0.6914063,-1.0429687 1.6640623,-1.5585937 2.4492183,-1.5585937 0.820313,0 1.710938,0.5625 1.710938,2.0390625 0,0.7148437 -0.269531,2.2734375 -1.253906,3.5039062 -0.480469,0.59765629 -1.289063,1.19531254 -2.1328128,1.19531254 z m 0,0"
         style="fill:#000000;fill-opacity:1;fill-rule:nonzero;stroke:none" />
      <path
         id="path41"
         d="m 17.851789,2.3913047 c 0,-0.035156 0,-0.046875 -0.164062,-0.2226563 -1.242188,-1.25390621 -1.570313,-3.12890621 -1.570313,-4.6640625 0,-1.7226562 0.386719,-3.4570312 1.605469,-4.7109375 0.128906,-0.1171875 0.128906,-0.1289062 0.128906,-0.1640625 0,-0.070312 -0.03516,-0.1054687 -0.09375,-0.1054687 -0.105469,0 -0.996094,0.6796875 -1.582031,1.9453125 -0.515625,1.1015625 -0.632813,2.203125 -0.632813,3.0351562 0,0.7851563 0.117188,1.99218754 0.65625,3.11718754 0.597657,1.21874996 1.453125,1.87499996 1.558594,1.87499996 0.05859,0 0.09375,-0.035156 0.09375,-0.1054687 z m 1.836914,-3.15234376 1.054688,-1.03125004 c 1.558593,-1.3710937 2.15625,-1.9101562 2.15625,-2.90625 0,-1.1367187 -0.902344,-1.9335937 -2.121094,-1.9335937 -1.125,0 -1.851563,0.9140625 -1.851563,1.8046875 0,0.5507812 0.492188,0.5507812 0.527344,0.5507812 0.164063,0 0.515625,-0.1171875 0.515625,-0.5273437 0,-0.2578125 -0.1875,-0.515625 -0.527344,-0.515625 -0.08203,0 -0.105468,0 -0.128906,0.011719 0.222656,-0.6445312 0.761719,-1.0195312 1.335938,-1.0195312 0.914062,0 1.335937,0.8085937 1.335937,1.6289062 0,0.796875 -0.492187,1.5820313 -1.042969,2.203125 l -1.910156,2.13281254 c -0.105469,0.10546875 -0.105469,0.12890625 -0.105469,0.3632812475 h 3.691407 L 22.899641,-1.7336953 h -0.257813 c -0.04687,0.3046875 -0.117187,0.73828124 -0.210937,0.89062499 -0.07031,0.0820313 -0.726563,0.0820313 -0.949219,0.0820313 z m 6.600586,-1.73437504 c 0,-0.7734375 -0.117187,-1.9804687 -0.65625,-3.1054687 -0.597656,-1.21875 -1.464844,-1.875 -1.558594,-1.875 -0.05859,0 -0.105468,0.046875 -0.105468,0.1054687 0,0.035156 0,0.046875 0.199218,0.234375 0.972657,0.984375 1.535157,2.5664063 1.535157,4.640625 0,1.71093754 -0.363282,3.45703129 -1.59375,4.7226563 -0.140625,0.1171875 -0.140625,0.1289062 -0.140625,0.1640625 0,0.058594 0.04687,0.1054687 0.105468,0.1054687 0.09375,0 0.996094,-0.6796875 1.582032,-1.94531246 0.503906,-1.1015625 0.632812,-2.20312504 0.632812,-3.04687504 z m 0,0"
         style="fill:#000000;fill-opacity:1;fill-rule:nonzero;stroke:none" />
      <path
         id="path42"
         d="m 31.217023,-2.5452188 c -0.05859,0.058594 -0.304687,0.2695313 -0.304687,0.375 0,0.1054688 0.08203,0.1757813 0.175781,0.1757813 0.07031,0 0.117188,-0.046875 0.152344,-0.1054688 0.175781,-0.1992187 0.398437,-0.3398437 0.574219,-0.421875 0.105468,-0.046875 0.175781,-0.082031 0.175781,-0.1992187 0,-0.082031 -0.07031,-0.1289063 -0.128906,-0.1640625 -0.234375,-0.140625 -0.292969,-0.3164063 -0.328125,-0.3984375 -0.01172,-0.046875 -0.05859,-0.1523438 -0.175782,-0.1523438 -0.04687,0 -0.164062,0.046875 -0.164062,0.1757813 0,0.09375 0.105469,0.2929687 0.164062,0.375 h -2.507812 c -0.105469,0 -0.269531,0 -0.269531,0.1640625 0,0.1757812 0.152343,0.1757812 0.269531,0.1757812 z m -3.070312,3.6914063 c -0.03516,0.082031 -0.07031,0.2578125 -0.07031,0.28125 0,0.1523437 0.117188,0.2226562 0.234375,0.2226562 0.128907,0 0.234375,-0.09375 0.269532,-0.1523437 0.03516,-0.058594 0.09375,-0.2929688 0.128906,-0.4335938 C 28.744367,0.93525 28.81468,0.607125 28.861555,0.43134375 28.896711,0.279 28.943586,0.12665625 28.978742,-0.0256875 c 0.08203,-0.29296875 0.09375,-0.3515625 0.292969,-0.6328125 0.199219,-0.28125 0.527344,-0.6445313 1.042969,-0.6445313 0.410156,0 0.410156,0.3632813 0.410156,0.49218755 0,0.421875 -0.292969,1.1953125 -0.410156,1.48828125 -0.07031,0.1875 -0.105469,0.2578125 -0.105469,0.375 0,0.3632812 0.304687,0.5976562 0.667969,0.5976562 0.691406,0 1.007812,-0.96093745 1.007812,-1.0664062 0,-0.09375 -0.09375,-0.09375 -0.117187,-0.09375 -0.09375,0 -0.105469,0.046875 -0.128907,0.1171875 -0.164062,0.5625 -0.46875,0.84375 -0.738281,0.84375 -0.152344,0 -0.175781,-0.09375 -0.175781,-0.2460938 0,-0.1523437 0.03516,-0.2460937 0.152344,-0.56249995 0.09375,-0.2109375 0.375,-0.94921875 0.375,-1.34765625 0,-0.6679688 -0.539063,-0.7851563 -0.902344,-0.7851563 -0.585938,0 -0.972656,0.3515625 -1.183594,0.63281255 -0.04687,-0.48046875 -0.457031,-0.63281255 -0.75,-0.63281255 -0.292969,0 -0.457031,0.2109375 -0.550781,0.375 -0.152344,0.25781255 -0.246094,0.65625005 -0.246094,0.6914063 0,0.0820313 0.09375,0.0820313 0.117188,0.0820313 0.09375,0 0.105468,-0.0117188 0.152343,-0.19921875 0.105469,-0.421875 0.234375,-0.76171885 0.515625,-0.76171885 0.175782,0 0.222657,0.1523438 0.222657,0.33984385 0,0.140625 -0.05859,0.3984375 -0.105469,0.5859375 -0.04687,0.1875 -0.117188,0.46875 -0.152344,0.62109375 z m 0,0"
         style="fill:#000000;fill-opacity:1;fill-rule:nonzero;stroke:none" />
      <path
         id="path43"
         d="m 42.206281,-4.9563516 c 0.117188,-0.058594 0.1875,-0.1171875 0.1875,-0.2226562 0,-0.1054688 -0.09375,-0.1992188 -0.199219,-0.1992188 -0.03516,0 -0.04687,0 -0.175781,0.070312 l -5.519531,2.6015625 c -0.117188,0.046875 -0.1875,0.09375 -0.1875,0.2109375 0,0.1289063 0.07031,0.1757813 0.1875,0.2226563 l 5.519531,2.60156249 c 0.128906,0.0703125 0.140625,0.0703125 0.175781,0.0703125 0.105469,0 0.199219,-0.09375 0.199219,-0.19921875 0,-0.10546875 -0.07031,-0.1640625 -0.1875,-0.22265625 L 36.979719,-2.4954141 Z m 10.195313,-1.96875 c 0,-0.023437 -0.01172,-0.09375 -0.105469,-0.09375 -0.04687,0 -0.05859,0.011719 -0.175781,0.140625 l -0.480469,0.5742188 c -0.257813,-0.46875 -0.773438,-0.7148438 -1.429688,-0.7148438 -1.265625,0 -2.460937,1.1367188 -2.460937,2.34375 0,0.8085938 0.527344,1.265625 1.042969,1.4179688 l 1.066406,0.28125 c 0.363281,0.082031 0.914062,0.234375 0.914062,1.0546875 0,0.890625 -0.820312,1.82812499 -1.792968,1.82812499 -0.644532,0 -1.746094,-0.2109375 -1.746094,-1.45312499 0,-0.234375 0.04687,-0.4804688 0.05859,-0.5390625 0.01172,-0.035156 0.02344,-0.046875 0.02344,-0.070312 0,-0.09375 -0.07031,-0.1054688 -0.117187,-0.1054688 -0.05859,0 -0.07031,0.011719 -0.105469,0.035156 -0.03516,0.046875 -0.597656,2.32031249 -0.597656,2.34374999 0,0.0585938 0.04687,0.10546875 0.117187,0.10546875 0.04687,0 0.05859,-0.0117188 0.175781,-0.15234375 L 47.2805,-0.50322656 c 0.421875,0.5859375 1.101562,0.7265625 1.675781,0.7265625 1.359375,0 2.53125,-1.32421874 2.53125,-2.56640624 0,-0.6796875 -0.339844,-1.0195313 -0.492187,-1.1601563 -0.222657,-0.234375 -0.375,-0.2695312 -1.265625,-0.5039062 -0.210938,-0.058594 -0.574219,-0.1523438 -0.65625,-0.1757813 -0.269532,-0.09375 -0.609375,-0.375 -0.609375,-0.9023437 0,-0.8085938 0.796875,-1.6523438 1.734375,-1.6523438 0.832031,0 1.441406,0.421875 1.441406,1.5351563 0,0.3164062 -0.04687,0.5039062 -0.04687,0.5625 0,0.011719 0,0.09375 0.128906,0.09375 0.09375,0 0.105469,-0.023437 0.140625,-0.1992188 z m 7.634765,2.578125 c 0,-1.59375 -1.054687,-2.671875 -2.542968,-2.671875 -2.144532,0 -4.335938,2.2617188 -4.335938,4.5820313 0,1.65234374 1.113281,2.66015624 2.542969,2.66015624 2.109375,0 4.335937,-2.17968754 4.335937,-4.57031254 z m -4.277343,4.31250004 c -0.984375,0 -1.675782,-0.80859375 -1.675782,-2.12109374 0,-0.4453125 0.140625,-1.8984375 0.902344,-3.0585938 0.691406,-1.0429687 1.664063,-1.5585937 2.449219,-1.5585937 0.820312,0 1.710937,0.5625 1.710937,2.0390625 0,0.7148437 -0.269531,2.2734375 -1.253906,3.5039062 -0.480469,0.59765629 -1.289062,1.19531254 -2.132812,1.19531254 z m 0,0"
         style="fill:#000000;fill-opacity:1;fill-rule:nonzero;stroke:none" />
      <path
         id="path44"
         d="m 63.847883,2.3913047 c 0,-0.035156 0,-0.046875 -0.164063,-0.2226563 -1.242187,-1.25390621 -1.570312,-3.12890621 -1.570312,-4.6640625 0,-1.7226562 0.386719,-3.4570312 1.605469,-4.7109375 0.128906,-0.1171875 0.128906,-0.1289062 0.128906,-0.1640625 0,-0.070312 -0.03516,-0.1054687 -0.09375,-0.1054687 -0.105469,0 -0.996094,0.6796875 -1.582031,1.9453125 -0.515625,1.1015625 -0.632813,2.203125 -0.632813,3.0351562 0,0.7851563 0.117188,1.99218754 0.65625,3.11718754 0.597656,1.21874996 1.453125,1.87499996 1.558594,1.87499996 0.05859,0 0.09375,-0.035156 0.09375,-0.1054687 z m 3.46582,-5.8945313 c 0.808594,-0.2695312 1.394531,-0.9726562 1.394531,-1.7578125 0,-0.8203125 -0.878906,-1.3710937 -1.839843,-1.3710937 -1.007813,0 -1.757813,0.5976562 -1.757813,1.3476562 0,0.3398438 0.210938,0.5273438 0.503906,0.5273438 0.304688,0 0.503907,-0.2226563 0.503907,-0.515625 0,-0.4921875 -0.46875,-0.4921875 -0.609375,-0.4921875 0.304687,-0.4921875 0.960937,-0.6210938 1.324218,-0.6210938 0.410157,0 0.949219,0.2226563 0.949219,1.1132813 0,0.1289062 -0.01172,0.703125 -0.269531,1.1367187 -0.304688,0.4804688 -0.644531,0.515625 -0.890625,0.515625 -0.08203,0.011719 -0.316406,0.035156 -0.386719,0.035156 -0.08203,0.011719 -0.152344,0.023437 -0.152344,0.1171875 0,0.1171875 0.07031,0.1171875 0.234375,0.1171875 h 0.445313 c 0.808594,0 1.183594,0.6679687 1.183594,1.6523437 0,1.34765629 -0.691407,1.64062504 -1.125,1.64062504 -0.433594,0 -1.171875,-0.17578125 -1.523438,-0.76171875 0.351563,0.0585938 0.65625,-0.1640625 0.65625,-0.53906249 0,-0.3632813 -0.269531,-0.5625 -0.5625,-0.5625 -0.234375,0 -0.550781,0.140625 -0.550781,0.5742187 0,0.91406254 0.925781,1.57031254 2.003906,1.57031254 1.21875,0 2.121094,-0.9140625 2.121094,-1.92187504 0,-0.8203125 -0.621094,-1.59375 -1.652344,-1.8046872 z m 4.97168,1.0078125 c 0,-0.7734375 -0.117188,-1.9804687 -0.65625,-3.1054687 -0.597656,-1.21875 -1.464844,-1.875 -1.558594,-1.875 -0.05859,0 -0.105469,0.046875 -0.105469,0.1054687 0,0.035156 0,0.046875 0.199219,0.234375 0.972656,0.984375 1.535156,2.5664063 1.535156,4.640625 0,1.71093754 -0.363281,3.45703129 -1.59375,4.7226563 -0.140625,0.1171875 -0.140625,0.1289062 -0.140625,0.1640625 0,0.058594 0.04687,0.1054687 0.105469,0.1054687 0.09375,0 0.996094,-0.6796875 1.582031,-1.94531246 0.503907,-1.1015625 0.632813,-2.20312504 0.632813,-3.04687504 z m 0,0"
         style="fill:#000000;fill-opacity:1;fill-rule:nonzero;stroke:none" />
      <path
         id="path45"
         d="m 82.615461,-4.9797891 c 0.175781,0 0.351562,0 0.351562,-0.1992187 0,-0.1992188 -0.175781,-0.1992188 -0.351562,-0.1992188 h -2.671875 c -1.710938,0 -3.058594,1.2890625 -3.058594,2.8828125 0,1.59375004 1.347656,2.89453129 3.058594,2.89453129 h 2.671875 c 0.175781,0 0.351562,0 0.351562,-0.19921875 0,-0.1992187525 -0.175781,-0.1992187525 -0.351562,-0.1992187525 h -2.660156 c -1.546875,0 -2.671875,-1.1601562875 -2.671875,-2.4960937875 0,-1.3242187 1.125,-2.484375 2.671875,-2.484375 z m 0,0"
         style="fill:#000000;fill-opacity:1;fill-rule:nonzero;stroke:none" />
      <path
         id="path46"
         d="m 89.239484,-3.1282266 h 0.351563 l 1.5,2.30859379 c 0.09375,0.1640625 0.339844,0.55078125 0.445312,0.703125 0.07031,0.1171874975 0.105469,0.1171874975 0.328125,0.1171874975 h 1.382813 c 0.175781,0 0.328125,0 0.328125,-0.1757812475 0,-0.0820313 -0.07031,-0.15234375 -0.152344,-0.17578125 -0.375,-0.0820313 -0.855469,-0.73828129 -1.101562,-1.05468749 -0.07031,-0.09375 -0.5625,-0.75 -1.230469,-1.828125 0.890625,-0.1640625 1.746094,-0.5390625 1.746094,-1.7226563 0,-1.3828125 -1.464844,-1.8632812 -2.648438,-1.8632812 h -3.117187 c -0.1875,0 -0.339844,0 -0.339844,0.1757812 0,0.1640625 0.1875,0.1640625 0.269531,0.1640625 0.5625,0 0.609375,0.070312 0.609375,0.5742188 v 4.99218749 c 0,0.4921875 -0.04687,0.5625 -0.609375,0.5625 -0.08203,0 -0.269531,0 -0.269531,0.17578125 0,0.1757812475 0.152344,0.1757812475 0.339844,0.1757812475 h 2.71875 c 0.1875,0 0.328125,0 0.328125,-0.1757812475 0,-0.17578125 -0.164063,-0.17578125 -0.269532,-0.17578125 -0.574218,0 -0.609375,-0.0820313 -0.609375,-0.5625 z m 1.921875,-0.4921875 c 0.28125,-0.3632812 0.304688,-0.890625 0.304688,-1.3242187 0,-0.4804688 -0.05859,-1.0078125 -0.375,-1.4179688 0.410156,0.082031 1.394531,0.3984375 1.394531,1.40625 0,0.6445313 -0.304687,1.1484375 -1.324219,1.3359375 z m -1.921875,-2.3203125 c 0,-0.1992187 0,-0.5390625 0.621094,-0.5390625 0.84375,0 1.253906,0.3515625 1.253906,1.5351563 0,1.2773437 -0.304687,1.4648437 -1.875,1.4648437 z m -1.359375,5.58984379 c 0.08203,-0.17578125 0.08203,-0.45703125 0.08203,-0.55078125 V -5.9290078 c 0,-0.09375 0,-0.3632813 -0.08203,-0.5507813 h 1.136719 c -0.128906,0.1640625 -0.128906,0.3632813 -0.128906,0.515625 v 5.06250004 c 0,0.10546875 0,0.375 0.08203,0.55078125 z m 2.121094,-2.77734379 c 0.07031,-0.011719 0.117188,-0.023437 0.1875,-0.023437 0.152344,0 0.375,-0.011719 0.527344,-0.035156 0.140625,0.234375 1.21875,2.015625 2.050781,2.83593749 h -0.972656 z m 0,0"
         style="fill:#000000;fill-opacity:1;fill-rule:nonzero;stroke:none" />
      <path
         id="path47"
         d="m 97.454328,-5.2610391 v -0.2460937 h -0.773437 v -3.1054688 c 0,-0.1523437 0,-0.1992187 -0.152344,-0.1992187 -0.09375,0 -0.117188,0 -0.1875,0.09375 l -2.308594,3.2109375 v 0.2460937 h 2.050781 v 0.5742188 c 0,0.234375 0,0.328125 -0.5625,0.328125 h -0.1875 v 0.2460937 c 0.351563,-0.011719 0.796875,-0.023437 1.042969,-0.023437 0.257813,0 0.703125,0.011719 1.054688,0.023437 v -0.2460937 h -0.1875 c -0.5625,0 -0.5625,-0.09375 -0.5625,-0.328125 v -0.5742188 z m -1.324219,-2.8007812 v 2.5546875 h -1.839843 z m 0,0"
         style="fill:#000000;fill-opacity:1;fill-rule:nonzero;stroke:none" />
    </g>
    <g
       id="g47"
       aria-label="ω=π"
       transform="matrix(1.3333333,0,0,1.3333333,563.93333,137.552)">
      <path
         id="path48"
         d="m 6.0236328,-3.7040391 c 0,-0.4453125 -0.1757812,-0.703125 -0.3984375,-0.703125 -0.2578125,0 -0.5273437,0.2460938 -0.5273437,0.46875 0,0.1054688 0.046875,0.2109375 0.1523437,0.3046875 0.1640625,0.140625 0.3515625,0.4101563 0.3515625,0.8320313 0,0.3984375 -0.1875,0.9726562 -0.5039062,1.4296875 -0.2929688,0.42187499 -0.6679688,0.76171874 -1.1367188,0.76171874 -0.5625,0 -0.8671875,-0.3515625 -0.9609375,-0.89062504 0.1054688,-0.2578125 0.3398438,-0.9023437 0.3398438,-1.1835937 0,-0.1171875 -0.046875,-0.2109375 -0.1875,-0.2109375 -0.070312,0 -0.1875,0.011719 -0.2578125,0.1640625 -0.1171875,0.1992187 -0.234375,0.84375 -0.234375,1.2070312 -0.328125,0.46875 -0.7265625,0.91406254 -1.359375,0.91406254 -0.65625004,0 -0.86718754,-0.58593754 -0.86718754,-1.14843754 0,-1.2421875 1.01953124,-2.2851562 1.01953124,-2.4140625 0,-0.1171875 -0.082031,-0.1875 -0.1875,-0.1875 -0.1289062,0 -0.1992187,0.1289063 -0.2578125,0.2109375 -0.50390624,0.7382813 -0.89062499,1.921875 -0.89062499,2.8359375 0,0.67968754 0.234375,1.41796879 1.04296879,1.41796879 0.7148437,0 1.1835937,-0.4921875 1.5351562,-1.04296875 0.09375,0.57421875 0.4804688,1.04296875 1.1015625,1.04296875 0.7734375,0 1.2539063,-0.609375 1.6171875,-1.34765629 0.234375,-0.4921875 0.609375,-1.8515625 0.609375,-2.4609375 z m 0,0"
         style="fill:#417505;fill-opacity:1;fill-rule:nonzero;stroke:none" />
      <path
         id="path49"
         d="m 16.169141,-3.2587266 c 0.152343,0 0.339843,0 0.339843,-0.1992187 0,-0.1992188 -0.1875,-0.1992188 -0.328125,-0.1992188 h -5.964843 c -0.140625,0 -0.3281254,0 -0.3281254,0.1992188 0,0.1992187 0.1875004,0.1992187 0.3398434,0.1992187 z m 0.01172,1.9335938 c 0.140625,0 0.328125,0 0.328125,-0.1992188 0,-0.1992187 -0.1875,-0.1992187 -0.339843,-0.1992187 h -5.941407 c -0.152343,0 -0.3398434,0 -0.3398434,0.1992187 0,0.1992188 0.1875004,0.1992188 0.3281254,0.1992188 z m 0,0"
         style="fill:#417505;fill-opacity:1;fill-rule:nonzero;stroke:none" />
      <path
         id="path50"
         d="m 22.479688,-3.7157578 h 1.125 c -0.328125,1.4765625 -0.410157,1.8984375 -0.410157,2.5664062 0,0.15234379 0,0.42187504 0.07031,0.76171879 0.105469,0.43359375 0.210937,0.4921875 0.363281,0.4921875 0.199219,0 0.410156,-0.17578125 0.410156,-0.375 0,-0.0585938 0,-0.0820313 -0.05859,-0.22265625 -0.292969,-0.71484374 -0.292969,-1.35937504 -0.292969,-1.64062504 0,-0.5273437 0.07031,-1.0664062 0.175781,-1.5820312 h 1.136719 c 0.128906,0 0.492187,0 0.492187,-0.3398438 0,-0.234375 -0.210937,-0.234375 -0.398437,-0.234375 h -3.339844 c -0.210937,0 -0.597656,0 -1.03125,0.46875 -0.351562,0.3867188 -0.609375,0.84375 -0.609375,0.890625 0,0.011719 0,0.1054688 0.117188,0.1054688 0.08203,0 0.105468,-0.046875 0.164062,-0.1289063 0.480469,-0.7617187 1.066406,-0.7617187 1.265625,-0.7617187 h 0.5625 c -0.316406,1.2070312 -0.855469,2.4140625 -1.277344,3.31640624 -0.07031,0.15234375 -0.07031,0.1640625 -0.07031,0.234375 0,0.19921875 0.152344,0.26953125 0.28125,0.26953125 0.304687,0 0.386719,-0.26953125 0.503906,-0.64453125 C 21.8,-0.99700781 21.8,-1.0204453 21.928906,-1.5126328 Z m 0,0"
         style="fill:#417505;fill-opacity:1;fill-rule:nonzero;stroke:none" />
    </g>
    <g
       id="g50"
       aria-label="ω=π"
       transform="matrix(1.3333333,0,0,1.3333333,306.392,137.552)">
      <path
         id="path51"
         d="m 6.0224063,-3.7040391 c 0,-0.4453125 -0.1757813,-0.703125 -0.3984375,-0.703125 -0.2578125,0 -0.5273438,0.2460938 -0.5273438,0.46875 0,0.1054688 0.046875,0.2109375 0.1523438,0.3046875 0.1640625,0.140625 0.3515625,0.4101563 0.3515625,0.8320313 0,0.3984375 -0.1875,0.9726562 -0.5039063,1.4296875 -0.2929687,0.42187499 -0.6679687,0.76171874 -1.1367187,0.76171874 -0.5625,0 -0.8671875,-0.3515625 -0.9609375,-0.89062504 0.1054687,-0.2578125 0.3398437,-0.9023437 0.3398437,-1.1835937 0,-0.1171875 -0.046875,-0.2109375 -0.1875,-0.2109375 -0.070312,0 -0.1875,0.011719 -0.2578125,0.1640625 -0.1171875,0.1992187 -0.234375,0.84375 -0.234375,1.2070312 -0.328125,0.46875 -0.7265625,0.91406254 -1.359375,0.91406254 -0.65625,0 -0.8671875,-0.58593754 -0.8671875,-1.14843754 0,-1.2421875 1.0195313,-2.2851562 1.0195313,-2.4140625 0,-0.1171875 -0.082031,-0.1875 -0.1875,-0.1875 -0.1289063,0 -0.1992188,0.1289063 -0.2578125,0.2109375 -0.5039063,0.7382813 -0.89062505,1.921875 -0.89062505,2.8359375 0,0.67968754 0.234375,1.41796879 1.04296875,1.41796879 0.7148438,0 1.1835938,-0.4921875 1.5351563,-1.04296875 0.09375,0.57421875 0.4804687,1.04296875 1.1015625,1.04296875 0.7734375,0 1.2539062,-0.609375 1.6171875,-1.34765629 0.234375,-0.4921875 0.609375,-1.8515625 0.609375,-2.4609375 z m 0,0"
         style="fill:#417505;fill-opacity:1;fill-rule:nonzero;stroke:none" />
      <path
         id="path52"
         d="m 16.170844,-3.2587266 c 0.152344,0 0.339844,0 0.339844,-0.1992187 0,-0.1992188 -0.1875,-0.1992188 -0.328125,-0.1992188 h -5.964844 c -0.140625,0 -0.3281252,0 -0.3281252,0.1992188 0,0.1992187 0.1875002,0.1992187 0.3398442,0.1992187 z m 0.01172,1.9335938 c 0.140625,0 0.328125,0 0.328125,-0.1992188 0,-0.1992187 -0.1875,-0.1992187 -0.339844,-0.1992187 h -5.941406 c -0.152344,0 -0.3398442,0 -0.3398442,0.1992187 0,0.1992188 0.1875002,0.1992188 0.3281252,0.1992188 z m 0,0"
         style="fill:#417505;fill-opacity:1;fill-rule:nonzero;stroke:none" />
      <path
         id="path53"
         d="m 22.478461,-3.7157578 h 1.125 c -0.328125,1.4765625 -0.410156,1.8984375 -0.410156,2.5664062 0,0.15234379 0,0.42187504 0.07031,0.76171879 0.105469,0.43359375 0.210938,0.4921875 0.363281,0.4921875 0.199219,0 0.410157,-0.17578125 0.410157,-0.375 0,-0.0585938 0,-0.0820313 -0.05859,-0.22265625 -0.292969,-0.71484374 -0.292969,-1.35937504 -0.292969,-1.64062504 0,-0.5273437 0.07031,-1.0664062 0.175781,-1.5820312 h 1.136719 c 0.128906,0 0.492188,0 0.492188,-0.3398438 0,-0.234375 -0.210938,-0.234375 -0.398438,-0.234375 H 21.7519 c -0.210937,0 -0.597656,0 -1.03125,0.46875 -0.351562,0.3867188 -0.609375,0.84375 -0.609375,0.890625 0,0.011719 0,0.1054688 0.117188,0.1054688 0.08203,0 0.105469,-0.046875 0.164062,-0.1289063 0.480469,-0.7617187 1.066407,-0.7617187 1.265625,-0.7617187 h 0.5625 c -0.316406,1.2070312 -0.855468,2.4140625 -1.277343,3.31640624 -0.07031,0.15234375 -0.07031,0.1640625 -0.07031,0.234375 0,0.19921875 0.152344,0.26953125 0.28125,0.26953125 0.304688,0 0.386719,-0.26953125 0.503906,-0.64453125 0.140625,-0.45703125 0.140625,-0.48046874 0.269532,-0.97265624 z m 0,0"
         style="fill:#417505;fill-opacity:1;fill-rule:nonzero;stroke:none" />
    </g>
    <g
       id="g53"
       aria-label="ω=2π∼0"
       transform="matrix(1.3333333,0,0,1.3333333,419.7,9.56)">
      <path
         id="path54"
         d="m 6.0228516,-3.7041797 c 0,-0.4453125 -0.1757813,-0.703125 -0.3984375,-0.703125 -0.2578125,0 -0.5273438,0.2460938 -0.5273438,0.46875 0,0.1054688 0.046875,0.2109375 0.1523438,0.3046875 0.1640625,0.140625 0.3515625,0.4101563 0.3515625,0.8320313 0,0.3984375 -0.1875,0.9726562 -0.5039063,1.4296875 -0.2929687,0.42187496 -0.6679687,0.76171871 -1.1367187,0.76171871 -0.5625,0 -0.8671875,-0.3515625 -0.9609375,-0.89062501 0.1054687,-0.2578125 0.3398437,-0.9023437 0.3398437,-1.1835937 0,-0.1171875 -0.046875,-0.2109375 -0.1875,-0.2109375 -0.070312,0 -0.1875,0.011719 -0.2578125,0.1640625 -0.1171875,0.1992187 -0.234375,0.84375 -0.234375,1.2070312 -0.328125,0.46875 -0.7265625,0.91406251 -1.359375,0.91406251 -0.65624999,0 -0.86718749,-0.58593751 -0.86718749,-1.14843751 0,-1.2421875 1.01953129,-2.2851562 1.01953129,-2.4140625 0,-0.1171875 -0.082031,-0.1875 -0.1875,-0.1875 -0.1289063,0 -0.1992188,0.1289063 -0.2578125,0.2109375 -0.50390629,0.7382813 -0.89062504,1.921875 -0.89062504,2.8359375 0,0.67968751 0.234375,1.41796876 1.04296874,1.41796876 0.7148438,0 1.1835938,-0.4921875 1.5351563,-1.04296875 0.09375,0.57421875 0.4804687,1.04296875 1.1015625,1.04296875 0.7734375,0 1.2539062,-0.609375 1.6171875,-1.34765626 0.234375,-0.4921875 0.609375,-1.8515625 0.609375,-2.4609375 z m 0,0"
         style="fill:#9013fe;fill-opacity:1;fill-rule:nonzero;stroke:none" />
      <path
         id="path55"
         d="m 16.168359,-3.2588672 c 0.152344,0 0.339844,0 0.339844,-0.1992187 0,-0.1992188 -0.1875,-0.1992188 -0.328125,-0.1992188 h -5.964844 c -0.140625,0 -0.3281246,0 -0.3281246,0.1992188 0,0.1992187 0.1874996,0.1992187 0.3398436,0.1992187 z m 0.01172,1.9335938 c 0.140625,0 0.328125,0 0.328125,-0.1992188 0,-0.1992187 -0.1875,-0.1992187 -0.339844,-0.1992187 h -5.941406 c -0.152344,0 -0.3398436,0 -0.3398436,0.1992187 0,0.1992188 0.1874996,0.1992188 0.3281246,0.1992188 z m 4.913086,0.56249996 1.054688,-1.03124996 c 1.558593,-1.3710938 2.15625,-1.9101563 2.15625,-2.90625 0,-1.1367188 -0.902344,-1.9335938 -2.121094,-1.9335938 -1.125,0 -1.851563,0.9140625 -1.851563,1.8046875 0,0.5507813 0.492188,0.5507813 0.527344,0.5507813 0.164063,0 0.515625,-0.1171875 0.515625,-0.5273438 0,-0.2578125 -0.1875,-0.515625 -0.527344,-0.515625 -0.08203,0 -0.105468,0 -0.128906,0.011719 0.222656,-0.6445313 0.761719,-1.0195313 1.335938,-1.0195313 0.914062,0 1.335937,0.8085938 1.335937,1.6289063 0,0.796875 -0.492187,1.5820312 -1.042969,2.203125 l -1.910156,2.13281246 c -0.105469,0.10546875 -0.105469,0.12890625 -0.105469,0.36328125 h 3.691407 l 0.28125,-1.73437501 H 24.04629 c -0.04687,0.3046875 -0.117187,0.73828126 -0.210937,0.89062501 -0.07031,0.0820313 -0.726563,0.0820313 -0.949219,0.0820313 z m 0,0"
         style="fill:#9013fe;fill-opacity:1;fill-rule:nonzero;stroke:none" />
      <path
         id="path56"
         d="m 27.459375,-3.7158984 h 1.125 c -0.328125,1.4765625 -0.410156,1.8984375 -0.410156,2.5664062 0,0.15234376 0,0.42187501 0.07031,0.76171876 0.105469,0.43359375 0.210938,0.4921875 0.363282,0.4921875 0.199218,0 0.410156,-0.17578125 0.410156,-0.375 0,-0.0585938 0,-0.0820313 -0.05859,-0.22265625 -0.292969,-0.71484371 -0.292969,-1.35937501 -0.292969,-1.64062501 0,-0.5273437 0.07031,-1.0664062 0.175782,-1.5820312 h 1.136718 c 0.128907,0 0.492188,0 0.492188,-0.3398438 0,-0.234375 -0.210938,-0.234375 -0.398438,-0.234375 h -3.339843 c -0.210938,0 -0.597657,0 -1.03125,0.46875 -0.351563,0.3867188 -0.609375,0.84375 -0.609375,0.890625 0,0.011719 0,0.1054688 0.117187,0.1054688 0.08203,0 0.105469,-0.046875 0.164063,-0.1289063 0.480468,-0.7617187 1.066406,-0.7617187 1.265625,-0.7617187 h 0.5625 c -0.316407,1.2070312 -0.855469,2.4140625 -1.277344,3.31640621 -0.07031,0.15234375 -0.07031,0.1640625 -0.07031,0.234375 0,0.19921875 0.152344,0.26953125 0.28125,0.26953125 0.304688,0 0.386719,-0.26953125 0.503907,-0.64453125 0.140625,-0.45703125 0.140625,-0.48046871 0.269531,-0.97265621 z m 0,0"
         style="fill:#9013fe;fill-opacity:1;fill-rule:nonzero;stroke:none" />
      <path
         id="path57"
         d="m 40.82168,-3.3291797 c 0,-0.2226562 -0.05859,-0.3164062 -0.140625,-0.3164062 -0.04687,0 -0.128907,0.070312 -0.140625,0.2578125 -0.03516,0.9609375 -0.703125,1.5 -1.394532,1.5 -0.632812,0 -1.101562,-0.421875 -1.59375,-0.8554688 -0.503906,-0.4570312 -1.03125,-0.9140625 -1.699218,-0.9140625 -1.089844,0 -1.675782,1.1015625 -1.675782,2.0039063 0,0.3164062 0.128907,0.3164062 0.140625,0.3164062 0.105469,0 0.140625,-0.1992187 0.140625,-0.2226562 0.03516,-1.1015625 0.785157,-1.5351563 1.394532,-1.5351563 0.621093,0 1.101562,0.421875 1.59375,0.8554688 0.503906,0.4570312 1.019531,0.9140625 1.699218,0.9140625 1.089844,0 1.675782,-1.1015625 1.675782,-2.0039063 z m 0,0"
         style="fill:#9013fe;fill-opacity:1;fill-rule:nonzero;stroke:none" />
      <path
         id="path58"
         d="m 48.725977,-3.1885547 c 0,-0.796875 -0.04687,-1.59375 -0.398438,-2.3320312 -0.457031,-0.9609375 -1.277344,-1.1132813 -1.6875,-1.1132813 -0.597656,0 -1.335937,0.2578125 -1.734375,1.1835938 -0.328125,0.6914062 -0.375,1.4648437 -0.375,2.2617187 0,0.75 0.04687,1.640625 0.445313,2.40234376 0.433593,0.80859375 1.160156,1.0078125 1.652343,1.0078125 0.539063,0 1.289063,-0.2109375 1.734375,-1.16015625 0.316407,-0.69140621 0.363282,-1.46484371 0.363282,-2.25000001 z m -2.097657,3.18750001 c -0.386718,0 -0.984375,-0.24609375 -1.160156,-1.20703121 -0.105469,-0.5976563 -0.105469,-1.5117188 -0.105469,-2.0976563 0,-0.6445312 0,-1.3007812 0.08203,-1.8398437 0.1875,-1.1835938 0.925781,-1.265625 1.183593,-1.265625 0.328125,0 0.984375,0.1757812 1.171875,1.1601562 0.09375,0.5625 0.09375,1.3125 0.09375,1.9453125 0,0.75 0,1.4179688 -0.105468,2.0625 -0.152344,0.93750001 -0.714844,1.24218751 -1.160157,1.24218751 z m 0,0"
         style="fill:#9013fe;fill-opacity:1;fill-rule:nonzero;stroke:none" />
    </g>
  </g>
</svg>
