<?xml version="1.0" encoding="UTF-8" standalone="no"?>
<!-- Created with Inkscape (http://www.inkscape.org/) -->

<svg
   version="1.1"
   id="svg1"
   width="432.32001"
   height="215.96001"
   viewBox="0 0 432.32001 215.96001"
   sodipodi:docname="R(Z2).pdf"
   xmlns:inkscape="http://www.inkscape.org/namespaces/inkscape"
   xmlns:sodipodi="http://sodipodi.sourceforge.net/DTD/sodipodi-0.dtd"
   xmlns="http://www.w3.org/2000/svg"
   xmlns:svg="http://www.w3.org/2000/svg">
  <defs
     id="defs1" />
  <sodipodi:namedview
     id="namedview1"
     pagecolor="#ffffff"
     bordercolor="#000000"
     borderopacity="0.25"
     inkscape:showpageshadow="2"
     inkscape:pageopacity="0.0"
     inkscape:pagecheckerboard="0"
     inkscape:deskcolor="#d1d1d1">
    <inkscape:page
       x="0"
       y="0"
       inkscape:label="1"
       id="page1"
       width="432.32001"
       height="215.96001"
       margin="0"
       bleed="0" />
  </sodipodi:namedview>
  <g
     id="g1"
     inkscape:groupmode="layer"
     inkscape:label="1">
    <path
       id="path1"
       d="m 327.92184,-94.47726 c 0,-31.29888 -25.37281,-56.6717 -56.67172,-56.6717 -31.2989,0 -56.67171,25.37282 -56.67171,56.6717 h 56.67171 z"
       style="fill:none;stroke:#000000;stroke-width:0.74721;stroke-linecap:butt;stroke-linejoin:miter;stroke-miterlimit:10;stroke-dasharray:4.48325, 4.48325;stroke-dashoffset:0;stroke-opacity:0"
       transform="matrix(1.3333333,0,0,-1.3333333,-43.397333,-33.786667)" />
    <path
       id="path2"
       d="m 327.92184,-94.47726 c 0,-31.29888 -25.37281,-56.6717 -56.67172,-56.6717 -31.2989,0 -56.67171,25.37282 -56.67171,56.6717"
       style="fill:none;stroke:#f5a623;stroke-width:0.74721;stroke-linecap:butt;stroke-linejoin:miter;stroke-miterlimit:10;stroke-dasharray:4.48325, 4.48325;stroke-dashoffset:0;stroke-opacity:0.3"
       transform="matrix(1.3333333,0,0,-1.3333333,-43.397333,-33.786667)" />
    <path
       id="path3"
       d="m 214.56793,-94.47726 c 0,0 0,0 0,0 0,31.34074 25.40944,56.75018 56.75017,56.75018 31.34076,0 56.75018,-25.40944 56.75018,-56.75018 H 271.3181 Z"
       style="fill:#f5a623;fill-opacity:0.1;fill-rule:nonzero;stroke:#000000;stroke-width:1.49442;stroke-linecap:butt;stroke-linejoin:miter;stroke-miterlimit:10;stroke-dasharray:none;stroke-opacity:0"
       transform="matrix(1.3333333,0,0,-1.3333333,-43.397333,-33.786667)" />
    <path
       id="path4"
       d="m 214.56793,-94.47726 c 0,0 0,0 0,0 0,31.34074 25.40944,56.75018 56.75017,56.75018 31.34076,0 56.75018,-25.40944 56.75018,-56.75018"
       style="fill:none;stroke:#f5a623;stroke-width:1.49442;stroke-linecap:butt;stroke-linejoin:miter;stroke-miterlimit:10;stroke-dasharray:none;stroke-opacity:1"
       transform="matrix(1.3333333,0,0,-1.3333333,-43.397333,-33.786667)" />
    <path
       id="path5"
       d="m 36.613,-94.47202 c 0,31.37734 25.43558,56.81293 56.81293,56.81293 31.37735,0 56.81293,-25.43559 56.81293,-56.81293 0,-31.37735 -25.43558,-56.81294 -56.81293,-56.81294 -31.37735,0 -56.81293,25.43559 -56.81293,56.81294 z"
       style="fill:#f5a623;fill-opacity:0.1;fill-rule:nonzero;stroke:#f5a623;stroke-width:1.49442;stroke-linecap:butt;stroke-linejoin:miter;stroke-miterlimit:10;stroke-dasharray:none;stroke-opacity:1"
       transform="matrix(1.3333333,0,0,-1.3333333,-43.397333,-33.786667)" />
    <path
       id="path6"
       d="m 93.73454,-37.79507 c 31.16289,-0.16214 56.37357,-25.47742 56.37357,-56.67695 0,-31.30412 -25.37804,-56.68217 -56.68218,-56.68217 -31.30412,0 -56.68216,25.37805 -56.68216,56.68217 0,31.30412 25.37804,56.68218 56.68216,56.68218 0.0052,0 0.01571,0 0.02092,0 l -0.02092,-56.68218 z"
       style="fill:none;stroke:#000000;stroke-width:1.49442;stroke-linecap:butt;stroke-linejoin:miter;stroke-miterlimit:10;stroke-dasharray:none;stroke-opacity:0"
       transform="matrix(1.3333333,0,0,-1.3333333,-43.397333,-33.786667)" />
    <path
       id="path7"
       d="m 93.73454,-37.79507 c 31.16289,-0.16214 56.37357,-25.47742 56.37357,-56.67695 0,-31.30412 -25.37804,-56.68217 -56.68218,-56.68217 -31.30412,0 -56.68216,25.37805 -56.68216,56.68217 0,31.30412 25.37804,56.68218 56.68216,56.68218 0.0052,0 0.01571,0 0.02092,0"
       style="fill:none;stroke:#9013fe;stroke-width:1.49442;stroke-linecap:butt;stroke-linejoin:miter;stroke-miterlimit:10;stroke-dasharray:none;stroke-opacity:1"
       transform="matrix(1.3333333,0,0,-1.3333333,-43.397333,-33.786667)" />
    <path
       id="path8"
       d="m 36.613,-94.47202 c 0,1.7208 25.43558,3.11211 56.81293,3.11211 31.37735,0 56.81293,-1.39131 56.81293,-3.11211 0,-1.72082 -25.43558,-3.11212 -56.81293,-3.11212 -31.37735,0 -56.81293,1.3913 -56.81293,3.11212 z"
       style="fill:none;stroke:#f5a623;stroke-width:0.74721;stroke-linecap:butt;stroke-linejoin:miter;stroke-miterlimit:10;stroke-dasharray:none;stroke-opacity:1"
       transform="matrix(1.3333333,0,0,-1.3333333,-43.397333,-33.786667)" />
    <path
       id="path9"
       d="m 92.11833,-37.65909 c 0,0.7218 0.5858,1.3076 1.3076,1.3076 0.72182,0 1.30761,-0.5858 1.30761,-1.3076 0,-0.7218 -0.58579,-1.3076 -1.30761,-1.3076 -0.7218,0 -1.3076,0.5858 -1.3076,1.3076 z"
       style="fill:#000000;fill-opacity:1;fill-rule:nonzero;stroke:#000000;stroke-width:0.74721;stroke-linecap:butt;stroke-linejoin:miter;stroke-miterlimit:10;stroke-dasharray:none;stroke-opacity:1"
       transform="matrix(1.3333333,0,0,-1.3333333,-43.397333,-33.786667)" />
    <path
       id="path10"
       d="m 92.11833,-94.47202 c 0,0.72181 0.5858,1.30761 1.3076,1.30761 0.72182,0 1.30761,-0.5858 1.30761,-1.30761 0,-0.7218 -0.58579,-1.30761 -1.30761,-1.30761 -0.7218,0 -1.3076,0.58581 -1.3076,1.30761 z"
       style="fill:#9b9b9b;fill-opacity:1;fill-rule:nonzero;stroke:#9b9b9b;stroke-width:0.74721;stroke-linecap:butt;stroke-linejoin:miter;stroke-miterlimit:10;stroke-dasharray:none;stroke-opacity:1"
       transform="matrix(1.3333333,0,0,-1.3333333,-43.397333,-33.786667)" />
    <path
       id="path11"
       d="m 91.59529,-37.65909 c 0,1.00946 0.82118,1.83064 1.83064,1.83064 1.00948,0 1.83066,-0.82118 1.83066,-1.83064 0,-1.00946 -0.82118,-1.83064 -1.83066,-1.83064 -1.00946,0 -1.83064,0.82118 -1.83064,1.83064 z"
       style="fill:#9013fe;fill-opacity:1;fill-rule:nonzero;stroke:#9013fe;stroke-width:0.74721;stroke-linecap:butt;stroke-linejoin:miter;stroke-miterlimit:10;stroke-dasharray:none;stroke-opacity:1"
       transform="matrix(1.3333333,0,0,-1.3333333,-43.397333,-33.786667)" />
    <path
       id="path12"
       d="m 150.23886,-94.47202 c 0,0 0,0 0,0 0,-1.72082 -25.43558,-3.11212 -56.81293,-3.11212 -31.37735,0 -56.81293,1.3913 -56.81293,3.11212 h 56.81293 z"
       style="fill:none;stroke:#000000;stroke-width:0.74721;stroke-linecap:butt;stroke-linejoin:miter;stroke-miterlimit:10;stroke-dasharray:none;stroke-opacity:0"
       transform="matrix(1.3333333,0,0,-1.3333333,-43.397333,-33.786667)" />
    <path
       id="path13"
       d="m 150.23886,-94.47202 c 0,0 0,0 0,0 0,-1.72082 -25.43558,-3.11212 -56.81293,-3.11212 -31.37735,0 -56.81293,1.3913 -56.81293,3.11212"
       style="fill:none;stroke:#f5a623;stroke-width:0.74721;stroke-linecap:butt;stroke-linejoin:miter;stroke-miterlimit:10;stroke-dasharray:none;stroke-opacity:1"
       transform="matrix(1.3333333,0,0,-1.3333333,-43.397333,-33.786667)" />
    <path
       id="path14"
       d="m 328.00029,-94.47726 c 0,0 0,0 0,0 0,0 0,0 0,0 0,-1.73127 -25.40944,-3.13825 -56.75017,-3.13825 -31.34598,0 -56.75018,1.40698 -56.75018,3.13825 h 56.75018 z"
       style="fill:#f5a623;fill-opacity:0.1;fill-rule:nonzero;stroke:#000000;stroke-width:1.49442;stroke-linecap:butt;stroke-linejoin:miter;stroke-miterlimit:10;stroke-dasharray:none;stroke-opacity:0"
       transform="matrix(1.3333333,0,0,-1.3333333,-43.397333,-33.786667)" />
    <path
       id="path15"
       d="m 328.00029,-94.47726 c 0,0 0,0 0,0 0,0 0,0 0,0 0,-1.73127 -25.40944,-3.13825 -56.75017,-3.13825 -31.34598,0 -56.75018,1.40698 -56.75018,3.13825"
       style="fill:none;stroke:#f5a623;stroke-width:1.49442;stroke-linecap:butt;stroke-linejoin:miter;stroke-miterlimit:10;stroke-dasharray:none;stroke-opacity:1"
       transform="matrix(1.3333333,0,0,-1.3333333,-43.397333,-33.786667)" />
    <path
       id="path16"
       d="m 214.49994,-94.47726 c 0,1.73651 25.4042,3.13827 56.75018,3.13827 31.34073,0 56.75017,-1.40176 56.75017,-3.13827 0,-1.73127 -25.40944,-3.13825 -56.75017,-3.13825 -31.34598,0 -56.75018,1.40698 -56.75018,3.13825 z"
       style="fill:none;stroke:#f5a623;stroke-width:0.74721;stroke-linecap:butt;stroke-linejoin:miter;stroke-miterlimit:10;stroke-dasharray:4.48325, 4.48325;stroke-dashoffset:0;stroke-opacity:0.5"
       transform="matrix(1.3333333,0,0,-1.3333333,-43.397333,-33.786667)" />
    <path
       id="path17"
       d="m 214.56793,-94.47726 c 0,31.30413 25.37807,56.68219 56.68219,56.68219 30.96938,0 56.14345,-24.84455 56.67172,-55.69363 l -56.67172,-0.98856 z"
       style="fill:none;stroke:#000000;stroke-width:1.49442;stroke-linecap:butt;stroke-linejoin:miter;stroke-miterlimit:10;stroke-dasharray:none;stroke-opacity:0"
       transform="matrix(1.3333333,0,0,-1.3333333,-43.397333,-33.786667)" />
    <path
       id="path18"
       d="m 214.56793,-94.47726 c 0,31.30413 25.37807,56.68219 56.68219,56.68219 30.96938,0 56.14345,-24.84455 56.67172,-55.69363"
       style="fill:none;stroke:#9013fe;stroke-width:1.49442;stroke-linecap:butt;stroke-linejoin:miter;stroke-miterlimit:10;stroke-dasharray:none;stroke-opacity:1"
       transform="matrix(1.3333333,0,0,-1.3333333,-43.397333,-33.786667)" />
    <path
       id="path19"
       d="m 326.76067,-94.47726 c 0,0.7218 0.58581,1.30761 1.30761,1.30761 0.7218,0 1.30761,-0.58581 1.30761,-1.30761 0,-0.72179 -0.58581,-1.30761 -1.30761,-1.30761 -0.7218,0 -1.30761,0.58582 -1.30761,1.30761 z"
       style="fill:#417505;fill-opacity:1;fill-rule:nonzero;stroke:#417505;stroke-width:0.74721;stroke-linecap:butt;stroke-linejoin:miter;stroke-miterlimit:10;stroke-dasharray:none;stroke-opacity:1"
       transform="matrix(1.3333333,0,0,-1.3333333,-43.397333,-33.786667)" />
    <path
       id="path20"
       d="m 213.26033,-94.47726 c 0,0.7218 0.58582,1.30761 1.3076,1.30761 0.7218,0 1.3076,-0.58581 1.3076,-1.30761 0,-0.72179 -0.5858,-1.30761 -1.3076,-1.30761 -0.72178,0 -1.3076,0.58582 -1.3076,1.30761 z"
       style="fill:#417505;fill-opacity:1;fill-rule:nonzero;stroke:#417505;stroke-width:0.74721;stroke-linecap:butt;stroke-linejoin:miter;stroke-miterlimit:10;stroke-dasharray:none;stroke-opacity:1"
       transform="matrix(1.3333333,0,0,-1.3333333,-43.397333,-33.786667)" />
    <path
       id="path21"
       d="m 270.0105,-94.47726 c 0,0.7218 0.58581,1.30761 1.3076,1.30761 0.72182,0 1.30762,-0.58581 1.30762,-1.30761 0,-0.72179 -0.5858,-1.30761 -1.30762,-1.30761 -0.72179,0 -1.3076,0.58582 -1.3076,1.30761 z"
       style="fill:#9b9b9b;fill-opacity:1;fill-rule:nonzero;stroke:#9b9b9b;stroke-width:0.74721;stroke-linecap:butt;stroke-linejoin:miter;stroke-miterlimit:10;stroke-dasharray:none;stroke-opacity:1"
       transform="matrix(1.3333333,0,0,-1.3333333,-43.397333,-33.786667)" />
    <path
       id="path22"
       d="m 91.59529,-151.28496 c 0,1.00948 0.82118,1.83066 1.83064,1.83066 1.00948,0 1.83066,-0.82118 1.83066,-1.83066 0,-1.00947 -0.82118,-1.83066 -1.83066,-1.83066 -1.00946,0 -1.83064,0.82119 -1.83064,1.83066 z"
       style="fill:#9013fe;fill-opacity:1;fill-rule:nonzero;stroke:#9013fe;stroke-width:0.74721;stroke-linecap:butt;stroke-linejoin:miter;stroke-miterlimit:10;stroke-dasharray:none;stroke-opacity:1"
       transform="matrix(1.3333333,0,0,-1.3333333,-43.397333,-33.786667)" />
    <path
       id="path23"
       d="m 269.9582,-151.02344 c 0,1.00948 0.82117,1.83066 1.83065,1.83066 1.01472,0 1.83065,-0.82118 1.83065,-1.83066 0,-1.00947 -0.81593,-1.83066 -1.83065,-1.83066 -1.00948,0 -1.83065,0.82119 -1.83065,1.83066 z"
       style="fill:#9013fe;fill-opacity:0.5;fill-rule:nonzero;stroke:#9013fe;stroke-width:0.74721;stroke-linecap:butt;stroke-linejoin:miter;stroke-miterlimit:10;stroke-dasharray:none;stroke-opacity:0.5"
       transform="matrix(1.3333333,0,0,-1.3333333,-43.397333,-33.786667)" />
    <path
       id="path24"
       d="m 269.63391,-37.65909 c 0,1.00946 0.82119,1.83064 1.83066,1.83064 1.00946,0 1.83064,-0.82118 1.83064,-1.83064 0,-1.00946 -0.82118,-1.83064 -1.83064,-1.83064 -1.00947,0 -1.83066,0.82118 -1.83066,1.83064 z"
       style="fill:#9013fe;fill-opacity:1;fill-rule:nonzero;stroke:#9013fe;stroke-width:0.74721;stroke-linecap:butt;stroke-linejoin:miter;stroke-miterlimit:10;stroke-dasharray:none;stroke-opacity:1"
       transform="matrix(1.3333333,0,0,-1.3333333,-43.397333,-33.786667)" />
    <g
       id="g24"
       aria-label="b&#10;Z&#10;2&#10;≤SU(2)⊂R&#10;4"
       transform="matrix(1.3333333,0,0,1.3333333,53.681333,206.324)">
      <path
         id="path25"
         d="m 2.7526719,-6.8201484 2.71875,1.21875 0.1171875,-0.2109375 -2.8242188,-1.59375 -2.81249997,1.59375 0.10546875,0.2109375 z m 0,0"
         style="fill:#000000;fill-opacity:1;fill-rule:nonzero;stroke:none" />
      <path
         id="path26"
         d="m 5.3864609,-3.8933906 c 0.082031,-0.1289063 0.082031,-0.140625 0.082031,-0.1757813 0,-0.1757812 -0.140625,-0.1757812 -0.328125,-0.1757812 H 0.58177344 c -0.31640625,0 -0.31640625,0.023437 -0.3515625,0.28125 l -0.15234375,1.3476562 -0.01171875,0.1289063 c 0,0.140625 0.10546875,0.1875 0.17578125,0.1875 0.09375,0 0.15234375,-0.070312 0.1640625,-0.140625 0.046875,-0.2460938 0.140625,-0.6796875 0.73828121,-1.0664063 0.5742188,-0.3632812 1.265625,-0.3984375 1.6054688,-0.3984375 h 0.8085937 l -3.74999996,6.1171875 c -0.0820313,0.1289063 -0.0820313,0.1523438 -0.0820313,0.1875 0,0.1757813 0.15234375,0.1757813 0.33984375,0.1757813 H 5.1755234 c 0.2929688,0 0.2929688,-0.023437 0.3398438,-0.28125 L 5.7848984,0.33707813 c 0,-0.1171875 -0.09375,-0.1875 -0.1757812,-0.1875 -0.1523438,0 -0.1640625,0.10546875 -0.1992188,0.3046875 C 5.2458359,1.2745781 4.4606797,2.2237969 3.0544297,2.2237969 H 1.6364609 Z M 0.57005469,-3.9051094 H 1.0973984 v 0.011719 c -0.26953121,0.1523437 -0.45703121,0.328125 -0.57421871,0.4453125 z m 3.39843751,0 H 4.9880234 L 1.2263047,2.2237969 H 0.20677344 Z m 0.5273437,6.1171875 c 0.28125,-0.1523437 0.5390625,-0.375 0.7617188,-0.65625 -0.011719,0.1992188 -0.035156,0.3164063 -0.082031,0.6679688 H 4.4958359 Z m 0,0"
         style="fill:#000000;fill-opacity:1;fill-rule:nonzero;stroke:none" />
      <path
         id="path27"
         d="M 9.6022813,2.803875 H 9.3679063 C 9.3444688,2.9562188 9.285875,3.366375 9.192125,3.4366875 9.1335313,3.4718438 8.5944688,3.4718438 8.5007188,3.4718438 H 7.2116563 c 0.7382812,-0.6445313 0.984375,-0.84375 1.3945312,-1.171875 0.515625,-0.4101563 0.9960938,-0.84375 0.9960938,-1.50000005 0,-0.84375 -0.7382813,-1.359375 -1.6289063,-1.359375 -0.8671875,0 -1.453125,0.609375 -1.453125,1.2421875 0,0.36328125 0.3046875,0.39843755 0.375,0.39843755 0.1640625,0 0.375,-0.11718755 0.375,-0.37500005 0,-0.12890625 -0.058594,-0.36328125 -0.421875,-0.36328125 0.2226563,-0.50390625 0.6914063,-0.65625 1.0195313,-0.65625 0.703125,0 1.0664062,0.55078125 1.0664062,1.11328125 0,0.60937505 -0.4335937,1.08984375 -0.65625,1.33593755 l -1.6875,1.6640625 C 6.52025,3.8585625 6.52025,3.8702813 6.52025,4.0695 h 2.8828125 z m 0,0"
         style="fill:#000000;fill-opacity:1;fill-rule:nonzero;stroke:none" />
      <path
         id="path28"
         d="m 20.052477,-3.3426094 c 0.105468,-0.046875 0.1875,-0.09375 0.1875,-0.2226562 0,-0.1054688 -0.08203,-0.1992188 -0.199219,-0.1992188 -0.04687,0 -0.140625,0.046875 -0.175781,0.058594 l -5.507813,2.6015625 c -0.175781,0.082031 -0.199219,0.15234373 -0.199219,0.23437498 0,0.09375 0.05859,0.15234375 0.199219,0.22265625 l 5.507813,2.58984377 c 0.128906,0.070312 0.140625,0.070312 0.175781,0.070312 0.105469,0 0.199219,-0.09375 0.199219,-0.1992188 0,-0.09375 -0.03516,-0.1523437 -0.210938,-0.234375 l -5.203125,-2.44921872 z m -0.164063,7.2773438 c 0.175781,0 0.351563,0 0.351563,-0.1992188 0,-0.1992187 -0.210938,-0.1992187 -0.363282,-0.1992187 h -5.367187 c -0.152344,0 -0.351563,0 -0.351563,0.1992187 0,0.1992188 0.175782,0.1992188 0.339844,0.1992188 z m 0,0"
         style="fill:#000000;fill-opacity:1;fill-rule:nonzero;stroke:none" />
      <path
         id="path29"
         d="m 30.262438,-4.3504219 c 0,-0.023437 -0.01172,-0.09375 -0.105469,-0.09375 -0.04687,0 -0.05859,0.011719 -0.175781,0.140625 l -0.480469,0.5742188 c -0.257813,-0.46875 -0.773438,-0.7148438 -1.429688,-0.7148438 -1.265625,0 -2.460937,1.1367188 -2.460937,2.34375 0,0.8085938 0.527344,1.26562503 1.042969,1.41796878 l 1.066406,0.28125 c 0.363281,0.0820313 0.914062,0.234375 0.914062,1.0546875 0,0.89062502 -0.820312,1.82812502 -1.792968,1.82812502 -0.644532,0 -1.746094,-0.2109375 -1.746094,-1.453125 0,-0.23437502 0.04687,-0.48046877 0.05859,-0.53906252 0.01172,-0.0351563 0.02344,-0.046875 0.02344,-0.0703125 0,-0.09375 -0.07031,-0.10546875 -0.117187,-0.10546875 -0.05859,0 -0.07031,0.0117188 -0.105469,0.0351563 -0.03516,0.046875 -0.597656,2.32031257 -0.597656,2.34375007 0,0.058594 0.04687,0.1054687 0.117187,0.1054687 0.04687,0 0.05859,-0.011719 0.175781,-0.1523437 l 0.492188,-0.5742188 c 0.421875,0.5859375 1.101562,0.7265625 1.675781,0.7265625 1.359375,0 2.53125,-1.3242187 2.53125,-2.56640627 0,-0.6796875 -0.339844,-1.01953125 -0.492187,-1.16015625 -0.222657,-0.23437498 -0.375,-0.26953118 -1.265625,-0.50390618 -0.210938,-0.058594 -0.574219,-0.1523438 -0.65625,-0.1757813 -0.269532,-0.09375 -0.609375,-0.375 -0.609375,-0.9023438 0,-0.8085938 0.796875,-1.6523437 1.734375,-1.6523437 0.832031,0 1.441406,0.4218749 1.441406,1.5351562 0,0.3164062 -0.04687,0.5039062 -0.04687,0.5625 0,0.011719 0,0.09375 0.128906,0.09375 0.09375,0 0.105469,-0.023437 0.140625,-0.1992188 z m 6.583007,1.171875 c 0.09375,-0.4101562 0.28125,-0.7148437 1.078125,-0.7382812 0.04687,0 0.164063,-0.011719 0.164063,-0.1992188 0,-0.011719 0,-0.1171875 -0.128906,-0.1171875 -0.328125,0 -0.679688,0.035156 -1.019532,0.035156 -0.339843,0 -0.703125,-0.035156 -1.03125,-0.035156 -0.05859,0 -0.175781,0 -0.175781,0.1992188 0,0.1171875 0.09375,0.1171875 0.175781,0.1171875 0.5625,0.011719 0.679688,0.2109375 0.679688,0.4335937 0,0.035156 -0.02344,0.1757813 -0.03516,0.2109375 L 35.661852,0.27848438 C 35.322008,1.6144219 34.17357,2.4816094 33.177477,2.4816094 c -0.679688,0 -1.21875,-0.4335938 -1.21875,-1.2890625 0,-0.023437 0,-0.33984377 0.117187,-0.77343752 l 0.960938,-3.87890628 c 0.09375,-0.3632812 0.105468,-0.4570312 0.832031,-0.4570312 0.269531,0 0.339844,0 0.339844,-0.1992188 0,-0.1171875 -0.105469,-0.1171875 -0.140625,-0.1171875 -0.269532,0 -0.996094,0.035156 -1.265625,0.035156 -0.292969,0 -0.996094,-0.035156 -1.289063,-0.035156 -0.08203,0 -0.1875,0 -0.1875,0.1992188 0,0.1171875 0.09375,0.1171875 0.28125,0.1171875 0.01172,0 0.210938,0 0.375,0.011719 0.175781,0.023437 0.269531,0.035156 0.269531,0.1640625 0,0.058594 -0.105468,0.4804688 -0.175781,0.703125 l -0.210937,0.8789063 c -0.09375,0.3867187 -0.574219,2.27343748 -0.609375,2.46093748 -0.07031,0.28125 -0.07031,0.43359375 -0.07031,0.57421875 0,1.21874997 0.902344,1.92187497 1.957031,1.92187497 1.253907,0 2.484375,-1.125 2.8125,-2.44921872 z m 0,0"
         style="fill:#000000;fill-opacity:1;fill-rule:nonzero;stroke:none" />
      <path
         id="path30"
         d="m 41.705797,4.9659844 c 0,-0.035156 0,-0.046875 -0.164063,-0.2226563 -1.242187,-1.2539062 -1.570312,-3.1289062 -1.570312,-4.66406247 0,-1.72265623 0.386719,-3.45703123 1.605469,-4.71093753 0.128906,-0.1171875 0.128906,-0.1289062 0.128906,-0.1640625 0,-0.070312 -0.03516,-0.1054687 -0.09375,-0.1054687 -0.105469,0 -0.996094,0.6796875 -1.582031,1.9453125 -0.515625,1.1015625 -0.632813,2.20312498 -0.632813,3.03515623 0,0.78515625 0.117188,1.99218747 0.65625,3.11718747 0.597656,1.21875 1.453125,1.875 1.558594,1.875 0.05859,0 0.09375,-0.035156 0.09375,-0.1054687 z m 1.836914,-3.1523438 1.054687,-1.03124997 c 1.558594,-1.37109375 2.15625,-1.91015623 2.15625,-2.90625003 0,-1.1367187 -0.902343,-1.9335937 -2.121093,-1.9335937 -1.125,0 -1.851563,0.9140625 -1.851563,1.8046875 0,0.5507812 0.492188,0.5507812 0.527344,0.5507812 0.164062,0 0.515625,-0.1171875 0.515625,-0.5273437 0,-0.2578125 -0.1875,-0.515625 -0.527344,-0.515625 -0.08203,0 -0.105469,0 -0.128906,0.011719 0.222656,-0.6445312 0.761719,-1.0195312 1.335937,-1.0195312 0.914063,0 1.335938,0.8085937 1.335938,1.6289062 0,0.796875 -0.492188,1.58203128 -1.042969,2.20312503 L 42.886461,2.2120781 c -0.105469,0.1054688 -0.105469,0.1289063 -0.105469,0.3632813 h 3.691406 l 0.28125,-1.73437502 h -0.257812 c -0.04687,0.30468752 -0.117188,0.73828122 -0.210938,0.89062502 -0.07031,0.082031 -0.726562,0.082031 -0.949218,0.082031 z m 6.597656,-1.73437497 c 0,-0.7734375 -0.117187,-1.98046873 -0.65625,-3.10546873 -0.597656,-1.21875 -1.464844,-1.875 -1.558594,-1.875 -0.05859,0 -0.105468,0.046875 -0.105468,0.1054687 0,0.035156 0,0.046875 0.199218,0.234375 0.972657,0.984375 1.535157,2.5664063 1.535157,4.64062503 0,1.71093747 -0.363282,3.45703127 -1.59375,4.72265627 -0.140625,0.1171875 -0.140625,0.1289062 -0.140625,0.1640625 0,0.058594 0.04687,0.1054687 0.105468,0.1054687 0.09375,0 0.996094,-0.6796875 1.582032,-1.9453125 0.503906,-1.1015625 0.632812,-2.20312497 0.632812,-3.04687497 z m 0,0"
         style="fill:#000000;fill-opacity:1;fill-rule:nonzero;stroke:none" />
      <path
         id="path31"
         d="m 60.473375,-2.4051094 c 0.175781,0 0.351563,0 0.351563,-0.1992187 0,-0.1992188 -0.175782,-0.1992188 -0.351563,-0.1992188 H 57.8015 c -1.710937,0 -3.058594,1.2890625 -3.058594,2.88281253 0,1.59374997 1.347657,2.89453127 3.058594,2.89453127 h 2.671875 c 0.175781,0 0.351563,0 0.351563,-0.1992188 0,-0.1992187 -0.175782,-0.1992187 -0.351563,-0.1992187 h -2.660156 c -1.546875,0 -2.671875,-1.1601563 -2.671875,-2.49609377 0,-1.32421873 1.125,-2.48437503 2.671875,-2.48437503 z m 0,0"
         style="fill:#000000;fill-opacity:1;fill-rule:nonzero;stroke:none" />
      <path
         id="path32"
         d="m 67.097398,-0.55354687 h 0.351563 l 1.5,2.30859377 c 0.09375,0.1640625 0.339844,0.5507812 0.445312,0.703125 0.07031,0.1171875 0.105469,0.1171875 0.328125,0.1171875 h 1.382813 c 0.175781,0 0.328125,0 0.328125,-0.1757813 0,-0.082031 -0.07031,-0.1523437 -0.152344,-0.1757812 -0.375,-0.082031 -0.855469,-0.7382813 -1.101562,-1.0546875 -0.07031,-0.09375 -0.5625,-0.75000002 -1.230469,-1.82812502 0.890625,-0.1640625 1.746094,-0.53906248 1.746094,-1.72265628 0,-1.3828125 -1.464844,-1.8632812 -2.648438,-1.8632812 H 64.92943 c -0.1875,0 -0.339844,0 -0.339844,0.1757812 0,0.1640625 0.1875,0.1640625 0.269531,0.1640625 0.5625,0 0.609375,0.070312 0.609375,0.5742188 v 4.9921875 c 0,0.4921875 -0.04687,0.5625 -0.609375,0.5625 -0.08203,0 -0.269531,0 -0.269531,0.1757812 0,0.1757813 0.152344,0.1757813 0.339844,0.1757813 h 2.71875 c 0.1875,0 0.328125,0 0.328125,-0.1757813 0,-0.1757812 -0.164063,-0.1757812 -0.269532,-0.1757812 -0.574218,0 -0.609375,-0.082031 -0.609375,-0.5625 z m 1.921875,-0.49218753 c 0.28125,-0.3632812 0.304688,-0.890625 0.304688,-1.3242187 0,-0.4804688 -0.05859,-1.0078125 -0.375,-1.4179688 0.410156,0.082031 1.394531,0.3984375 1.394531,1.40625 0,0.6445313 -0.304687,1.1484375 -1.324219,1.3359375 z m -1.921875,-2.3203125 c 0,-0.1992187 0,-0.5390625 0.621094,-0.5390625 0.84375,0 1.253906,0.3515625 1.253906,1.5351563 0,1.2773437 -0.304687,1.46484373 -1.875,1.46484373 z m -1.359375,5.5898438 c 0.08203,-0.1757813 0.08203,-0.4570313 0.08203,-0.5507813 v -5.0273437 c 0,-0.09375 0,-0.3632813 -0.08203,-0.5507813 h 1.136719 c -0.128906,0.1640625 -0.128906,0.3632813 -0.128906,0.515625 v 5.0625 c 0,0.1054688 0,0.375 0.08203,0.5507813 z m 2.121094,-2.77734377 c 0.07031,-0.0117188 0.117188,-0.0234375 0.1875,-0.0234375 0.152344,0 0.375,-0.0117188 0.527344,-0.0351563 0.140625,0.234375 1.21875,2.01562497 2.050781,2.83593747 h -0.972656 z m 0,0"
         style="fill:#000000;fill-opacity:1;fill-rule:nonzero;stroke:none" />
      <path
         id="path33"
         d="M 75.312242,-2.1883125 V -2.4344062 H 74.538805 V -5.539875 c 0,-0.1523437 0,-0.1992187 -0.152344,-0.1992187 -0.09375,0 -0.117188,0 -0.1875,0.09375 l -2.308594,3.2109375 v 0.2460937 h 2.050781 v 0.5742188 c 0,0.234375 0,0.328125 -0.5625,0.328125 h -0.1875 v 0.2460937 c 0.351563,-0.011719 0.796875,-0.023437 1.042969,-0.023437 0.257813,0 0.703125,0.011719 1.054688,0.023437 v -0.2460937 h -0.1875 c -0.5625,0 -0.5625,-0.09375 -0.5625,-0.328125 v -0.5742188 z m -1.324219,-2.8007812 v 2.5546875 H 72.14818 Z m 0,0"
         style="fill:#000000;fill-opacity:1;fill-rule:nonzero;stroke:none" />
    </g>
    <g
       id="g33"
       aria-label="U(1)"
       transform="matrix(1.3333333,0,0,1.3333333,152.808,31.997333)">
      <path
         id="path34"
         d="m 6.3285703,-5.7548359 c 0.09375,-0.4101563 0.28125,-0.7148438 1.078125,-0.7382813 0.046875,0 0.1640625,-0.011719 0.1640625,-0.1992187 0,-0.011719 0,-0.1171875 -0.1289062,-0.1171875 -0.328125,0 -0.6796875,0.035156 -1.0195313,0.035156 -0.3398437,0 -0.703125,-0.035156 -1.03125,-0.035156 -0.058594,0 -0.1757812,0 -0.1757812,0.1992187 0,0.1171875 0.09375,0.1171875 0.1757812,0.1171875 0.5625,0.011719 0.6796875,0.2109375 0.6796875,0.4335938 0,0.035156 -0.023437,0.1757812 -0.035156,0.2109375 l -0.890625,3.5507812 c -0.3398438,1.33593751 -1.4882813,2.20312501 -2.484375,2.20312501 -0.6796875,0 -1.21875,-0.43359375 -1.21875,-1.28906251 0,-0.023437 0,-0.3398437 0.1171875,-0.7734375 l 0.9609375,-3.8789062 c 0.09375,-0.3632813 0.1054687,-0.4570313 0.8320312,-0.4570313 0.2695313,0 0.3398438,0 0.3398438,-0.1992187 0,-0.1171875 -0.1054688,-0.1171875 -0.140625,-0.1171875 -0.2695313,0 -0.9960938,0.035156 -1.265625,0.035156 -0.2929688,0 -0.9960938,-0.035156 -1.28906254,-0.035156 -0.0820313,0 -0.1875,0 -0.1875,0.1992187 0,0.1171875 0.09375,0.1171875 0.28125004,0.1171875 0.011719,0 0.2109375,0 0.375,0.011719 0.1757812,0.023437 0.2695312,0.035156 0.2695312,0.1640625 0,0.058594 -0.1054687,0.4804687 -0.1757812,0.703125 l -0.2109375,0.8789062 c -0.09375,0.3867188 -0.57421879,2.2734375 -0.60937504,2.4609375 -0.0703125,0.28125 -0.0703125,0.4335938 -0.0703125,0.5742188 0,1.21874996 0.90234374,1.92187496 1.95703124,1.92187496 1.2539063,0 2.484375,-1.125 2.8125,-2.44921876 z m 0,0"
         style="fill:#9013fe;fill-opacity:1;fill-rule:nonzero;stroke:none" />
      <path
         id="path35"
         d="m 11.183063,2.3896953 c 0,-0.035156 0,-0.046875 -0.164063,-0.2226562 -1.2421875,-1.25390629 -1.5703125,-3.12890629 -1.5703125,-4.6640625 0,-1.7226563 0.3867188,-3.4570313 1.6054685,-4.7109375 0.128907,-0.1171875 0.128907,-0.1289063 0.128907,-0.1640625 0,-0.070312 -0.03516,-0.1054688 -0.09375,-0.1054688 -0.105469,0 -0.996094,0.6796875 -1.5820317,1.9453125 -0.515625,1.1015625 -0.6328125,2.203125 -0.6328125,3.0351563 0,0.7851562 0.1171875,1.99218746 0.65625,3.11718746 0.5976562,1.21875004 1.4531252,1.87500004 1.5585942,1.87500004 0.05859,0 0.09375,-0.035156 0.09375,-0.1054688 z m 3.500976,-8.765625 c 0,-0.234375 0,-0.2578125 -0.234375,-0.2578125 -0.609375,0.6328125 -1.488281,0.6328125 -1.804687,0.6328125 v 0.3164063 c 0.199218,0 0.785156,0 1.300781,-0.2578125 v 5.15624996 c 0,0.3515625 -0.03516,0.48046875 -0.925781,0.48046875 H 12.70357 V -9.296875e-4 C 13.055133,-0.03608594 13.910602,-0.03608594 14.309039,-0.03608594 c 0.398438,0 1.265625,0 1.617188,0.0351562525 V -0.30561719 H 15.60982 c -0.902343,0 -0.925781,-0.1171875 -0.925781,-0.48046875 z m 4.933594,3.8789063 c 0,-0.7734375 -0.117188,-1.9804688 -0.65625,-3.1054688 -0.597656,-1.21875 -1.464844,-1.875 -1.558594,-1.875 -0.05859,0 -0.105469,0.046875 -0.105469,0.1054688 0,0.035156 0,0.046875 0.199219,0.234375 0.972656,0.984375 1.535156,2.5664062 1.535156,4.640625 0,1.71093746 -0.363281,3.45703121 -1.59375,4.7226562 -0.140625,0.1171875 -0.140625,0.1289063 -0.140625,0.1640625 0,0.058594 0.04687,0.1054688 0.105469,0.1054688 0.09375,0 0.996094,-0.6796875 1.582031,-1.94531254 0.503907,-1.1015625 0.632813,-2.20312496 0.632813,-3.04687496 z m 0,0"
         style="fill:#9013fe;fill-opacity:1;fill-rule:nonzero;stroke:none" />
    </g>
    <g
       id="g35"
       aria-label="ω=0"
       transform="matrix(1.3333333,0,0,1.3333333,64.621333,9.7706667)">
      <path
         id="path36"
         d="m 6.0232578,-3.7039766 c 0,-0.4453125 -0.1757812,-0.703125 -0.3984375,-0.703125 -0.2578125,0 -0.5273437,0.2460938 -0.5273437,0.46875 0,0.1054688 0.046875,0.2109375 0.1523437,0.3046875 0.1640625,0.140625 0.3515625,0.4101563 0.3515625,0.8320313 0,0.3984375 -0.1875,0.9726562 -0.5039062,1.4296875 -0.2929688,0.42187499 -0.6679688,0.76171874 -1.1367188,0.76171874 -0.5625,0 -0.8671875,-0.3515625 -0.9609375,-0.89062504 0.1054688,-0.2578125 0.3398438,-0.9023437 0.3398438,-1.1835937 0,-0.1171875 -0.046875,-0.2109375 -0.1875,-0.2109375 -0.070312,0 -0.1875,0.011719 -0.2578125,0.1640625 -0.1171875,0.1992187 -0.234375,0.84375 -0.234375,1.2070312 -0.328125,0.46875 -0.7265625,0.91406254 -1.359375,0.91406254 -0.65625004,0 -0.86718754,-0.58593754 -0.86718754,-1.14843754 0,-1.2421875 1.01953124,-2.2851562 1.01953124,-2.4140625 0,-0.1171875 -0.082031,-0.1875 -0.1875,-0.1875 -0.1289062,0 -0.1992187,0.1289063 -0.2578125,0.2109375 -0.50390624,0.7382813 -0.89062499,1.921875 -0.89062499,2.8359375 0,0.67968754 0.234375,1.41796879 1.04296879,1.41796879 0.7148437,0 1.1835937,-0.4921875 1.5351562,-1.04296875 0.09375,0.57421875 0.4804688,1.04296875 1.1015625,1.04296875 0.7734375,0 1.2539063,-0.609375 1.6171875,-1.34765629 0.234375,-0.4921875 0.609375,-1.8515625 0.609375,-2.4609375 z m 0,0"
         style="fill:#9013fe;fill-opacity:1;fill-rule:nonzero;stroke:none" />
      <path
         id="path37"
         d="m 16.168766,-3.2586641 c 0.152343,0 0.339843,0 0.339843,-0.1992187 0,-0.1992188 -0.1875,-0.1992188 -0.328125,-0.1992188 h -5.964843 c -0.140625,0 -0.3281254,0 -0.3281254,0.1992188 0,0.1992187 0.1875004,0.1992187 0.3398434,0.1992187 z m 0.01172,1.9335938 c 0.140625,0 0.328125,0 0.328125,-0.1992188 0,-0.1992187 -0.1875,-0.1992187 -0.339843,-0.1992187 h -5.941407 c -0.152343,0 -0.3398434,0 -0.3398434,0.1992187 0,0.1992188 0.1875004,0.1992188 0.3281254,0.1992188 z m 8.229493,-1.8632813 c 0,-0.796875 -0.04687,-1.59375 -0.398438,-2.3320312 -0.457031,-0.9609375 -1.277344,-1.1132813 -1.6875,-1.1132813 -0.597656,0 -1.335937,0.2578125 -1.734375,1.1835938 -0.328125,0.6914062 -0.375,1.4648437 -0.375,2.2617187 0,0.75 0.04687,1.640625 0.445313,2.40234379 0.433593,0.80859375 1.160156,1.0078125 1.652343,1.0078125 0.539063,0 1.289063,-0.2109375 1.734375,-1.16015625 0.316407,-0.69140624 0.363282,-1.46484374 0.363282,-2.25000004 z M 22.31232,-8.515625e-4 c -0.386718,0 -0.984375,-0.2460937475 -1.160156,-1.2070312375 -0.105469,-0.5976563 -0.105469,-1.5117188 -0.105469,-2.0976563 0,-0.6445312 0,-1.3007812 0.08203,-1.8398437 0.1875,-1.1835938 0.925781,-1.265625 1.183593,-1.265625 0.328125,0 0.984375,0.1757812 1.171875,1.1601562 0.09375,0.5625 0.09375,1.3125 0.09375,1.9453125 0,0.75 0,1.4179688 -0.105468,2.0625 -0.152344,0.93750004 -0.714844,1.2421875375 -1.160157,1.2421875375 z m 0,0"
         style="fill:#9013fe;fill-opacity:1;fill-rule:nonzero;stroke:none" />
    </g>
    <g
       id="g37"
       aria-label="ω=2π"
       transform="matrix(1.3333333,0,0,1.3333333,84.06,180.35333)">
      <path
         id="path38"
         d="m 6.0223828,-3.7044531 c 0,-0.4453125 -0.1757812,-0.703125 -0.3984375,-0.703125 -0.2578125,0 -0.5273437,0.2460937 -0.5273437,0.46875 0,0.1054687 0.046875,0.2109375 0.1523437,0.3046875 0.1640625,0.140625 0.3515625,0.4101562 0.3515625,0.8320312 0,0.3984375 -0.1875,0.9726563 -0.5039062,1.4296875 -0.2929688,0.42187503 -0.6679688,0.76171878 -1.1367188,0.76171878 -0.5625,0 -0.8671875,-0.3515625 -0.9609375,-0.89062498 0.1054688,-0.2578125 0.3398438,-0.9023438 0.3398438,-1.1835938 0,-0.1171875 -0.046875,-0.2109375 -0.1875,-0.2109375 -0.070312,0 -0.1875,0.011719 -0.2578125,0.1640625 -0.1171875,0.1992188 -0.234375,0.84375 -0.234375,1.2070313 -0.328125,0.46875 -0.7265625,0.91406248 -1.359375,0.91406248 -0.65625004,0 -0.86718754,-0.58593748 -0.86718754,-1.14843748 0,-1.2421875 1.01953124,-2.2851563 1.01953124,-2.4140625 0,-0.1171875 -0.082031,-0.1875 -0.1875,-0.1875 -0.1289062,0 -0.1992187,0.1289062 -0.2578125,0.2109375 -0.50390624,0.7382812 -0.89062499,1.921875 -0.89062499,2.8359375 0,0.67968748 0.234375,1.41796873 1.04296879,1.41796873 0.7148437,0 1.1835937,-0.4921875 1.5351562,-1.04296875 0.09375,0.57421875 0.4804688,1.04296875 1.1015625,1.04296875 0.7734375,0 1.2539063,-0.609375 1.6171875,-1.34765623 0.234375,-0.4921875 0.609375,-1.8515625 0.609375,-2.4609375 z m 0,0"
         style="fill:#000000;fill-opacity:1;fill-rule:nonzero;stroke:none" />
      <path
         id="path39"
         d="m 16.17082,-3.2591406 c 0.152344,0 0.339844,0 0.339844,-0.1992188 0,-0.1992187 -0.1875,-0.1992187 -0.328125,-0.1992187 h -5.964844 c -0.140625,0 -0.3281247,0 -0.3281247,0.1992187 0,0.1992188 0.1874997,0.1992188 0.3398437,0.1992188 z m 0.01172,1.9335937 c 0.140625,0 0.328125,0 0.328125,-0.1992187 0,-0.1992188 -0.1875,-0.1992188 -0.339844,-0.1992188 h -5.941406 c -0.152344,0 -0.3398437,0 -0.3398437,0.1992188 0,0.1992187 0.1874997,0.1992187 0.3281247,0.1992187 z m 4.910156,0.56250003 1.054688,-1.03125003 c 1.558594,-1.3710937 2.15625,-1.9101562 2.15625,-2.90625 0,-1.1367187 -0.902344,-1.9335937 -2.121094,-1.9335937 -1.125,0 -1.851562,0.9140625 -1.851562,1.8046875 0,0.5507812 0.492187,0.5507812 0.527343,0.5507812 0.164063,0 0.515625,-0.1171875 0.515625,-0.5273437 0,-0.2578125 -0.1875,-0.515625 -0.527343,-0.515625 -0.08203,0 -0.105469,0 -0.128907,0.011719 0.222657,-0.6445312 0.761719,-1.0195312 1.335938,-1.0195312 0.914062,0 1.335937,0.8085937 1.335937,1.6289062 0,0.796875 -0.492187,1.5820313 -1.042968,2.203125 l -1.910157,2.13281253 c -0.105468,0.10546875 -0.105468,0.12890625 -0.105468,0.36328125 h 3.691406 l 0.28125,-1.73437498 H 24.04582 c -0.04687,0.3046875 -0.117187,0.73828123 -0.210937,0.89062498 -0.07031,0.0820313 -0.726563,0.0820313 -0.949219,0.0820313 z m 0,0"
         style="fill:#000000;fill-opacity:1;fill-rule:nonzero;stroke:none" />
      <path
         id="path40"
         d="m 27.461836,-3.7161719 h 1.125 c -0.328125,1.4765625 -0.410156,1.8984375 -0.410156,2.5664063 0,0.15234373 0,0.42187498 0.07031,0.76171873 0.105469,0.43359375 0.210938,0.4921875 0.363281,0.4921875 0.199219,0 0.410157,-0.17578125 0.410157,-0.375 0,-0.0585938 0,-0.0820313 -0.05859,-0.22265625 -0.292969,-0.71484378 -0.292969,-1.35937498 -0.292969,-1.64062498 0,-0.5273438 0.07031,-1.0664063 0.175781,-1.5820313 h 1.136719 c 0.128906,0 0.492188,0 0.492188,-0.3398437 0,-0.234375 -0.210938,-0.234375 -0.398438,-0.234375 h -3.339844 c -0.210937,0 -0.597656,0 -1.03125,0.46875 -0.351562,0.3867187 -0.609375,0.84375 -0.609375,0.890625 0,0.011719 0,0.1054687 0.117188,0.1054687 0.08203,0 0.105469,-0.046875 0.164062,-0.1289062 0.480469,-0.7617188 1.066407,-0.7617188 1.265625,-0.7617188 h 0.5625 c -0.316406,1.2070313 -0.855468,2.4140625 -1.277343,3.31640628 -0.07031,0.15234375 -0.07031,0.1640625 -0.07031,0.234375 0,0.19921875 0.152344,0.26953125 0.28125,0.26953125 0.304688,0 0.386719,-0.26953125 0.503906,-0.64453125 0.140625,-0.45703125 0.140625,-0.48046878 0.269532,-0.97265628 z m 0,0"
         style="fill:#000000;fill-opacity:1;fill-rule:nonzero;stroke:none" />
    </g>
    <g
       id="g40"
       aria-label="{1}≤SO(3)⊂R&#10;4"
       transform="matrix(1.3333333,0,0,1.3333333,291.91733,211.64667)">
      <path
         id="path41"
         d="m 2.8246953,-6.1392969 c 0,-0.3984375 0.2578125,-1.0429687 1.3359375,-1.1132812 0.058594,-0.011719 0.09375,-0.046875 0.09375,-0.1054688 0,-0.1171875 -0.082031,-0.1171875 -0.1875,-0.1171875 -0.9960937,0 -1.9101562,0.515625 -1.9101562,1.2539063 v 2.2734375 c 0,0.3867187 0,0.703125 -0.3984375,1.03125 -0.3515625,0.2929687 -0.7265625,0.3046875 -0.94921879,0.3164062 -0.046875,0.011719 -0.09375,0.046875 -0.09375,0.1054688 0,0.1054687 0.0585938,0.1054687 0.1640625,0.1171875 0.65624999,0.035156 1.13671879,0.3984375 1.24218749,0.8789062 0.035156,0.1171875 0.035156,0.140625 0.035156,0.4921875 v 1.96875003 c 0,0.42187497 0,0.73828127 0.46875,1.12499997 0.3984375,0.2929688 1.0546875,0.4101563 1.4414062,0.4101563 0.1054688,0 0.1875,0 0.1875,-0.1171875 0,-0.09375 -0.058594,-0.09375 -0.1640625,-0.1054688 C 3.4692266,2.2278906 2.9770391,1.9114844 2.8481328,1.4075781 2.8246953,1.3138281 2.8246953,1.3021094 2.8246953,0.93882813 V -1.1588281 c 0,-0.4570313 -0.082031,-0.6210938 -0.3984375,-0.9375 C 2.2153203,-2.3072656 1.9223516,-2.4127344 1.6411016,-2.4947656 2.4614141,-2.7174219 2.8246953,-3.1744531 2.8246953,-3.7486719 Z m 0,0"
         style="fill:#000000;fill-opacity:1;fill-rule:nonzero;stroke:none" />
      <path
         id="path42"
         d="m 8.5082891,-6.2096094 c 0,-0.2109375 0,-0.3164062 -0.2578125,-0.3164062 -0.1171875,0 -0.1289063,0 -0.2226563,0.070312 -0.7617187,0.5742187 -1.7929687,0.5742187 -2.0039062,0.5742187 H 5.8246953 v 0.46875 h 0.1992188 c 0.1640625,0 0.7148437,-0.011719 1.3007812,-0.1992187 v 5.14453123 H 5.9418828 v 0.46875 c 0.4335938,-0.03515625 1.4882813,-0.03515625 1.9804688,-0.03515625 0.4804687,0 1.546875,0 1.9804687,0.03515625 v -0.46875 H 8.5082891 Z m 0,0"
         style="fill:#000000;fill-opacity:1;fill-rule:nonzero;stroke:none" />
      <path
         id="path43"
         d="m 12.867664,1.1614844 c 0,0.3984375 -0.257812,1.0429687 -1.347656,1.1132812 -0.04687,0.011719 -0.09375,0.046875 -0.09375,0.1054688 0,0.1171875 0.117187,0.1171875 0.199219,0.1171875 0.972656,0 1.898437,-0.4921875 1.910156,-1.2539063 v -2.2734375 c 0,-0.3867187 0,-0.703125 0.398437,-1.03125 0.339844,-0.2929687 0.726563,-0.3046875 0.9375,-0.3164062 0.05859,-0.011719 0.09375,-0.046875 0.09375,-0.1171875 0,-0.09375 -0.05859,-0.09375 -0.164062,-0.1054688 -0.65625,-0.035156 -1.136719,-0.3984375 -1.242188,-0.890625 -0.02344,-0.1054687 -0.02344,-0.1289062 -0.02344,-0.4804687 v -1.96875 c 0,-0.421875 0,-0.7382813 -0.480469,-1.125 -0.398437,-0.3046875 -1.089844,-0.4101563 -1.429687,-0.4101563 -0.08203,0 -0.199219,0 -0.199219,0.1171875 0,0.09375 0.05859,0.09375 0.164062,0.1054688 0.621094,0.046875 1.113282,0.3632812 1.242188,0.8671875 0.03516,0.09375 0.03516,0.1054687 0.03516,0.46875 v 2.0976562 c 0,0.4570313 0.07031,0.6210938 0.398438,0.9375 0.199218,0.2109375 0.492187,0.3164063 0.773437,0.3867188 -0.820312,0.234375 -1.171875,0.6914062 -1.171875,1.265625 z m 12.310547,-7.078125 c 0.105469,-0.046875 0.1875,-0.09375 0.1875,-0.2226563 0,-0.1054687 -0.08203,-0.1992187 -0.199219,-0.1992187 -0.04687,0 -0.140625,0.046875 -0.175781,0.058594 l -5.507813,2.6015625 c -0.175781,0.082031 -0.199218,0.1523438 -0.199218,0.234375 0,0.09375 0.05859,0.1523438 0.199218,0.2226563 l 5.507813,2.58984373 c 0.128906,0.0703125 0.140625,0.0703125 0.175781,0.0703125 0.105469,0 0.199219,-0.09375 0.199219,-0.19921875 0,-0.09375 -0.03516,-0.15234375 -0.210938,-0.234375 L 19.951648,-3.4439844 Z m -0.164063,7.2773437 c 0.175782,0 0.351563,0 0.351563,-0.1992187 0,-0.19921877 -0.210938,-0.19921877 -0.363281,-0.19921877 h -5.367188 c -0.152344,0 -0.351562,0 -0.351562,0.19921877 0,0.1992187 0.175781,0.1992187 0.339843,0.1992187 z m 0,0"
         style="fill:#000000;fill-opacity:1;fill-rule:nonzero;stroke:none" />
      <path
         id="path44"
         d="m 35.396961,-6.9244531 c 0,-0.023437 -0.01172,-0.09375 -0.105469,-0.09375 -0.04687,0 -0.05859,0.011719 -0.175781,0.140625 l -0.480469,0.5742187 c -0.257812,-0.46875 -0.773437,-0.7148437 -1.429687,-0.7148437 -1.265625,0 -2.460938,1.1367187 -2.460938,2.34375 0,0.8085937 0.527344,1.265625 1.042969,1.4179687 l 1.066406,0.28125 c 0.363281,0.082031 0.914063,0.234375 0.914063,1.0546875 0,0.890625 -0.820313,1.82812503 -1.792969,1.82812503 -0.644531,0 -1.746094,-0.2109375 -1.746094,-1.45312503 0,-0.234375 0.04687,-0.4804687 0.05859,-0.5390625 0.01172,-0.035156 0.02344,-0.046875 0.02344,-0.070312 0,-0.09375 -0.07031,-0.1054687 -0.117187,-0.1054687 -0.05859,0 -0.07031,0.011719 -0.105469,0.035156 -0.03516,0.046875 -0.597656,2.32031253 -0.597656,2.34375003 0,0.0585938 0.04687,0.10546875 0.117187,0.10546875 0.04687,0 0.05859,-0.0117188 0.175782,-0.15234375 l 0.492187,-0.57421875 c 0.421875,0.5859375 1.101563,0.7265625 1.675781,0.7265625 1.359375,0 2.53125,-1.32421878 2.53125,-2.56640628 0,-0.6796875 -0.339843,-1.0195312 -0.492187,-1.1601562 -0.222656,-0.234375 -0.375,-0.2695313 -1.265625,-0.5039063 -0.210938,-0.058594 -0.574219,-0.1523437 -0.65625,-0.1757812 -0.269531,-0.09375 -0.609375,-0.375 -0.609375,-0.9023438 0,-0.8085937 0.796875,-1.6523437 1.734375,-1.6523437 0.832031,0 1.441406,0.421875 1.441406,1.5351562 0,0.3164063 -0.04687,0.5039063 -0.04687,0.5625 0,0.011719 0,0.09375 0.128906,0.09375 0.09375,0 0.105469,-0.023437 0.140625,-0.1992187 z m 7.623047,2.578125 c 0,-1.59375 -1.054688,-2.671875 -2.542969,-2.671875 -2.144531,0 -4.335937,2.2617187 -4.335937,4.5820312 0,1.65234378 1.113281,2.66015628 2.542968,2.66015628 2.109375,0 4.335938,-2.17968748 4.335938,-4.57031248 z m -4.277344,4.31249998 c -0.984375,0 -1.675781,-0.80859375 -1.675781,-2.12109378 0,-0.4453125 0.140625,-1.8984375 0.902344,-3.0585937 0.691406,-1.0429688 1.664062,-1.5585938 2.449218,-1.5585938 0.820313,0 1.710938,0.5625 1.710938,2.0390625 0,0.7148438 -0.269531,2.2734375 -1.253906,3.5039063 -0.480469,0.59765623 -1.289063,1.19531248 -2.132813,1.19531248 z m 0,0"
         style="fill:#000000;fill-opacity:1;fill-rule:nonzero;stroke:none" />
      <path
         id="path45"
         d="m 46.825672,2.3919531 c 0,-0.035156 0,-0.046875 -0.164063,-0.2226562 -1.242187,-1.25390627 -1.570312,-3.12890627 -1.570312,-4.6640625 0,-1.7226563 0.386719,-3.4570313 1.605469,-4.7109375 0.128906,-0.1171875 0.128906,-0.1289063 0.128906,-0.1640625 0,-0.070312 -0.03516,-0.1054688 -0.09375,-0.1054688 -0.105469,0 -0.996094,0.6796875 -1.582031,1.9453125 -0.515625,1.1015625 -0.632813,2.203125 -0.632813,3.0351563 0,0.7851562 0.117188,1.99218748 0.65625,3.11718748 0.597656,1.21875002 1.453125,1.87500002 1.558594,1.87500002 0.05859,0 0.09375,-0.035156 0.09375,-0.1054688 z m 3.46875,-5.8945312 c 0.808594,-0.2695313 1.394531,-0.9726563 1.394531,-1.7578125 0,-0.8203125 -0.878906,-1.3710938 -1.839844,-1.3710938 -1.007812,0 -1.757812,0.5976563 -1.757812,1.3476563 0,0.3398437 0.210937,0.5273437 0.503906,0.5273437 0.304688,0 0.503906,-0.2226562 0.503906,-0.515625 0,-0.4921875 -0.46875,-0.4921875 -0.609375,-0.4921875 0.304688,-0.4921875 0.960938,-0.6210937 1.324219,-0.6210937 0.410156,0 0.949219,0.2226562 0.949219,1.1132812 0,0.1289063 -0.01172,0.703125 -0.269531,1.1367188 -0.304688,0.4804687 -0.644532,0.515625 -0.890625,0.515625 -0.08203,0.011719 -0.316407,0.035156 -0.386719,0.035156 -0.08203,0.011719 -0.152344,0.023437 -0.152344,0.1171875 0,0.1171875 0.07031,0.1171875 0.234375,0.1171875 h 0.445313 c 0.808593,0 1.183593,0.6679688 1.183593,1.6523438 0,1.34765623 -0.691406,1.64062498 -1.125,1.64062498 -0.433593,0 -1.171875,-0.17578125 -1.523437,-0.76171875 0.351562,0.0585938 0.65625,-0.1640625 0.65625,-0.53906253 0,-0.3632812 -0.269531,-0.5625 -0.5625,-0.5625 -0.234375,0 -0.550781,0.140625 -0.550781,0.5742188 0,0.91406248 0.925781,1.57031248 2.003906,1.57031248 1.21875,0 2.121094,-0.9140625 2.121094,-1.92187498 0,-0.8203125 -0.621094,-1.59375 -1.652344,-1.8046873 z m 4.96875,1.0078125 c 0,-0.7734375 -0.117188,-1.9804688 -0.65625,-3.1054688 -0.597656,-1.21875 -1.464844,-1.875 -1.558594,-1.875 -0.05859,0 -0.105469,0.046875 -0.105469,0.1054688 0,0.035156 0,0.046875 0.199219,0.234375 0.972656,0.984375 1.535156,2.5664062 1.535156,4.640625 0,1.71093748 -0.363281,3.45703123 -1.59375,4.7226562 -0.140625,0.1171875 -0.140625,0.1289063 -0.140625,0.1640625 0,0.058594 0.04687,0.1054688 0.105469,0.1054688 0.09375,0 0.996094,-0.6796875 1.582031,-1.94531252 0.503907,-1.1015625 0.632813,-2.20312498 0.632813,-3.04687498 z m 0,0"
         style="fill:#000000;fill-opacity:1;fill-rule:nonzero;stroke:none" />
      <path
         id="path46"
         d="m 65.59325,-4.9791406 c 0.175781,0 0.351563,0 0.351563,-0.1992188 0,-0.1992187 -0.175782,-0.1992187 -0.351563,-0.1992187 h -2.671875 c -1.710937,0 -3.058594,1.2890625 -3.058594,2.8828125 0,1.59374998 1.347657,2.89453123 3.058594,2.89453123 h 2.671875 c 0.175781,0 0.351563,0 0.351563,-0.19921875 0,-0.19921875 -0.175782,-0.19921875 -0.351563,-0.19921875 h -2.660156 c -1.546875,0 -2.671875,-1.16015623 -2.671875,-2.49609373 0,-1.3242188 1.125,-2.484375 2.671875,-2.484375 z m 0,0"
         style="fill:#000000;fill-opacity:1;fill-rule:nonzero;stroke:none" />
      <path
         id="path47"
         d="m 72.220203,-3.1275781 h 0.351563 l 1.5,2.30859373 c 0.09375,0.1640625 0.339843,0.55078125 0.445312,0.703125 0.07031,0.1171875 0.105469,0.1171875 0.328125,0.1171875 h 1.382813 c 0.175781,0 0.328125,0 0.328125,-0.17578125 0,-0.0820313 -0.07031,-0.15234375 -0.152344,-0.17578125 -0.375,-0.0820313 -0.855469,-0.73828123 -1.101563,-1.05468753 -0.07031,-0.09375 -0.5625,-0.75 -1.230468,-1.828125 0.890625,-0.1640625 1.746093,-0.5390625 1.746093,-1.7226562 0,-1.3828125 -1.464843,-1.8632813 -2.648437,-1.8632813 h -3.117188 c -0.1875,0 -0.339843,0 -0.339843,0.1757813 0,0.1640625 0.1875,0.1640625 0.269531,0.1640625 0.5625,0 0.609375,0.070312 0.609375,0.5742187 v 4.99218753 c 0,0.4921875 -0.04687,0.5625 -0.609375,0.5625 -0.08203,0 -0.269531,0 -0.269531,0.17578125 0,0.17578125 0.152343,0.17578125 0.339843,0.17578125 h 2.71875 c 0.1875,0 0.328125,0 0.328125,-0.17578125 0,-0.17578125 -0.164062,-0.17578125 -0.269531,-0.17578125 -0.574219,0 -0.609375,-0.0820313 -0.609375,-0.5625 z m 1.921875,-0.4921875 c 0.28125,-0.3632813 0.304688,-0.890625 0.304688,-1.3242188 0,-0.4804687 -0.05859,-1.0078125 -0.375,-1.4179687 0.410156,0.082031 1.394531,0.3984375 1.394531,1.40625 0,0.6445312 -0.304688,1.1484375 -1.324219,1.3359375 z m -1.921875,-2.3203125 c 0,-0.1992188 0,-0.5390625 0.621094,-0.5390625 0.84375,0 1.253906,0.3515625 1.253906,1.5351562 0,1.2773438 -0.304687,1.4648438 -1.875,1.4648438 z m -1.359375,5.58984373 c 0.08203,-0.17578125 0.08203,-0.45703125 0.08203,-0.55078125 V -5.9283594 c 0,-0.09375 0,-0.3632812 -0.08203,-0.5507812 h 1.136719 c -0.128906,0.1640625 -0.128906,0.3632812 -0.128906,0.515625 v 5.06249998 c 0,0.10546875 0,0.375 0.08203,0.55078125 z m 2.121094,-2.77734373 c 0.07031,-0.011719 0.117187,-0.023437 0.1875,-0.023437 0.152344,0 0.375,-0.011719 0.527344,-0.035156 0.140625,0.234375 1.21875,2.015625 2.050781,2.83593753 h -0.972656 z m 0,0"
         style="fill:#000000;fill-opacity:1;fill-rule:nonzero;stroke:none" />
      <path
         id="path48"
         d="m 80.435047,-5.2603906 v -0.2460938 h -0.773438 v -3.1054687 c 0,-0.1523438 0,-0.1992188 -0.152343,-0.1992188 -0.09375,0 -0.117188,0 -0.1875,0.09375 l -2.308594,3.2109375 v 0.2460938 h 2.050781 v 0.5742187 c 0,0.234375 0,0.328125 -0.5625,0.328125 h -0.1875 v 0.2460938 c 0.351563,-0.011719 0.796875,-0.023437 1.042969,-0.023437 0.257812,0 0.703125,0.011719 1.054687,0.023437 v -0.2460938 h -0.1875 c -0.5625,0 -0.5625,-0.09375 -0.5625,-0.328125 v -0.5742187 z m -1.324219,-2.8007813 v 2.5546875 h -1.839844 z m 0,0"
         style="fill:#000000;fill-opacity:1;fill-rule:nonzero;stroke:none" />
    </g>
    <g
       id="g48"
       aria-label="ω=π"
       transform="matrix(1.3333333,0,0,1.3333333,396.82533,101.768)">
      <path
         id="path49"
         d="m 6.0226016,-3.7019766 c 0,-0.4453125 -0.1757813,-0.703125 -0.3984375,-0.703125 -0.2578125,0 -0.5273438,0.2460938 -0.5273438,0.46875 0,0.1054688 0.046875,0.2109375 0.1523438,0.3046875 0.1640625,0.140625 0.3515625,0.4101563 0.3515625,0.8320313 0,0.3984375 -0.1875,0.9726562 -0.5039063,1.4296875 -0.2929687,0.42187499 -0.6679687,0.76171874 -1.1367187,0.76171874 -0.5625,0 -0.8671875,-0.3515625 -0.9609375,-0.89062504 0.1054687,-0.2578125 0.3398437,-0.9023437 0.3398437,-1.1835937 0,-0.1171875 -0.046875,-0.2109375 -0.1875,-0.2109375 -0.070312,0 -0.1875,0.011719 -0.2578125,0.1640625 -0.1171875,0.1992187 -0.234375,0.84375 -0.234375,1.2070312 -0.328125,0.46875 -0.7265625,0.91406254 -1.359375,0.91406254 -0.65624999,0 -0.86718749,-0.58593754 -0.86718749,-1.14843754 0,-1.2421875 1.01953129,-2.2851562 1.01953129,-2.4140625 0,-0.1171875 -0.082031,-0.1875 -0.1875,-0.1875 -0.1289063,0 -0.1992188,0.1289063 -0.2578125,0.2109375 -0.50390629,0.7382813 -0.89062504,1.921875 -0.89062504,2.8359375 0,0.67968754 0.234375,1.41796879 1.04296874,1.41796879 0.7148438,0 1.1835938,-0.4921875 1.5351563,-1.04296875 0.09375,0.57421875 0.4804687,1.04296875 1.1015625,1.04296875 0.7734375,0 1.2539062,-0.609375 1.6171875,-1.34765629 0.234375,-0.4921875 0.609375,-1.8515625 0.609375,-2.4609375 z m 0,0"
         style="fill:#417505;fill-opacity:1;fill-rule:nonzero;stroke:none" />
      <path
         id="path50"
         d="m 16.171039,-3.2566641 c 0.152344,0 0.339844,0 0.339844,-0.1992187 0,-0.1992188 -0.1875,-0.1992188 -0.328125,-0.1992188 h -5.964844 c -0.140625,0 -0.3281249,0 -0.3281249,0.1992188 0,0.1992187 0.1874999,0.1992187 0.3398439,0.1992187 z m 0.01172,1.9335938 c 0.140625,0 0.328125,0 0.328125,-0.1992188 0,-0.1992187 -0.1875,-0.1992187 -0.339844,-0.1992187 h -5.941406 c -0.152344,0 -0.3398439,0 -0.3398439,0.1992187 0,0.1992188 0.1874999,0.1992188 0.3281249,0.1992188 z m 0,0"
         style="fill:#417505;fill-opacity:1;fill-rule:nonzero;stroke:none" />
      <path
         id="path51"
         d="m 22.478656,-3.7136953 h 1.125 c -0.328125,1.4765625 -0.410156,1.8984375 -0.410156,2.5664062 0,0.15234379 0,0.42187504 0.07031,0.76171879 0.105469,0.43359375 0.210938,0.4921875 0.363282,0.4921875 0.199218,0 0.410156,-0.17578125 0.410156,-0.375 0,-0.0585938 0,-0.0820313 -0.05859,-0.22265625 -0.292969,-0.71484374 -0.292969,-1.35937504 -0.292969,-1.64062504 0,-0.5273437 0.07031,-1.0664062 0.175782,-1.5820312 h 1.136718 c 0.128907,0 0.492188,0 0.492188,-0.3398438 0,-0.234375 -0.210938,-0.234375 -0.398438,-0.234375 h -3.339843 c -0.210938,0 -0.597657,0 -1.03125,0.46875 -0.351563,0.3867188 -0.609375,0.84375 -0.609375,0.890625 0,0.011719 0,0.1054688 0.117187,0.1054688 0.08203,0 0.105469,-0.046875 0.164063,-0.1289063 0.480468,-0.7617187 1.066406,-0.7617187 1.265625,-0.7617187 h 0.5625 c -0.316407,1.2070312 -0.855469,2.4140625 -1.277344,3.31640624 -0.07031,0.15234375 -0.07031,0.1640625 -0.07031,0.234375 0,0.19921875 0.152344,0.26953125 0.28125,0.26953125 0.304688,0 0.386719,-0.26953125 0.503907,-0.64453125 0.140625,-0.45703125 0.140625,-0.48046874 0.269531,-0.97265624 z m 0,0"
         style="fill:#417505;fill-opacity:1;fill-rule:nonzero;stroke:none" />
    </g>
    <g
       id="g51"
       aria-label="ω=π"
       transform="matrix(1.3333333,0,0,1.3333333,205.29867,101.768)">
      <path
         id="path52"
         d="m 6.0220937,-3.7019766 c 0,-0.4453125 -0.1757812,-0.703125 -0.3984375,-0.703125 -0.2578125,0 -0.5273437,0.2460938 -0.5273437,0.46875 0,0.1054688 0.046875,0.2109375 0.1523437,0.3046875 0.1640625,0.140625 0.3515625,0.4101563 0.3515625,0.8320313 0,0.3984375 -0.1875,0.9726562 -0.5039062,1.4296875 -0.2929688,0.42187499 -0.6679688,0.76171874 -1.1367188,0.76171874 -0.5625,0 -0.8671875,-0.3515625 -0.9609375,-0.89062504 C 3.104125,-1.7566641 3.3385,-2.4011953 3.3385,-2.6824453 c 0,-0.1171875 -0.046875,-0.2109375 -0.1875,-0.2109375 -0.070312,0 -0.1875,0.011719 -0.2578125,0.1640625 -0.1171875,0.1992187 -0.234375,0.84375 -0.234375,1.2070312 -0.328125,0.46875 -0.7265625,0.91406254 -1.359375,0.91406254 -0.65625,0 -0.8671875,-0.58593754 -0.8671875,-1.14843754 0,-1.2421875 1.0195312,-2.2851562 1.0195312,-2.4140625 0,-0.1171875 -0.082031,-0.1875 -0.1875,-0.1875 -0.1289062,0 -0.1992187,0.1289063 -0.2578125,0.2109375 -0.5039062,0.7382813 -0.89062495,1.921875 -0.89062495,2.8359375 0,0.67968754 0.234375,1.41796879 1.04296875,1.41796879 0.7148437,0 1.1835937,-0.4921875 1.5351562,-1.04296875 0.09375,0.57421875 0.4804688,1.04296875 1.1015625,1.04296875 0.7734375,0 1.2539063,-0.609375 1.6171875,-1.34765629 0.234375,-0.4921875 0.609375,-1.8515625 0.609375,-2.4609375 z m 0,0"
         style="fill:#417505;fill-opacity:1;fill-rule:nonzero;stroke:none" />
      <path
         id="path53"
         d="m 16.170531,-3.2566641 c 0.152344,0 0.339844,0 0.339844,-0.1992187 0,-0.1992188 -0.1875,-0.1992188 -0.328125,-0.1992188 h -5.964844 c -0.140625,0 -0.3281248,0 -0.3281248,0.1992188 0,0.1992187 0.1874998,0.1992187 0.3398438,0.1992187 z m 0.01172,1.9335938 c 0.140625,0 0.328125,0 0.328125,-0.1992188 0,-0.1992187 -0.1875,-0.1992187 -0.339844,-0.1992187 h -5.941406 c -0.152344,0 -0.3398438,0 -0.3398438,0.1992187 0,0.1992188 0.1874998,0.1992188 0.3281248,0.1992188 z m 0,0"
         style="fill:#417505;fill-opacity:1;fill-rule:nonzero;stroke:none" />
      <path
         id="path54"
         d="m 22.478148,-3.7136953 h 1.125 c -0.328125,1.4765625 -0.410156,1.8984375 -0.410156,2.5664062 0,0.15234379 0,0.42187504 0.07031,0.76171879 0.105468,0.43359375 0.210937,0.4921875 0.363281,0.4921875 0.199219,0 0.410156,-0.17578125 0.410156,-0.375 0,-0.0585938 0,-0.0820313 -0.05859,-0.22265625 C 23.68518,-1.2058828 23.68518,-1.8504141 23.68518,-2.1316641 c 0,-0.5273437 0.07031,-1.0664062 0.175781,-1.5820312 h 1.136719 c 0.128906,0 0.492187,0 0.492187,-0.3398438 0,-0.234375 -0.210937,-0.234375 -0.398437,-0.234375 h -3.339844 c -0.210938,0 -0.597656,0 -1.03125,0.46875 -0.351563,0.3867188 -0.609375,0.84375 -0.609375,0.890625 0,0.011719 0,0.1054688 0.117187,0.1054688 0.08203,0 0.105469,-0.046875 0.164063,-0.1289063 0.480469,-0.7617187 1.066406,-0.7617187 1.265625,-0.7617187 h 0.5625 c -0.316406,1.2070312 -0.855469,2.4140625 -1.277344,3.31640624 -0.07031,0.15234375 -0.07031,0.1640625 -0.07031,0.234375 0,0.19921875 0.152343,0.26953125 0.28125,0.26953125 0.304687,0 0.386718,-0.26953125 0.503906,-0.64453125 0.140625,-0.45703125 0.140625,-0.48046874 0.269531,-0.97265624 z m 0,0"
         style="fill:#417505;fill-opacity:1;fill-rule:nonzero;stroke:none" />
    </g>
    <g
       id="g54"
       aria-label="ω=2π∼0"
       transform="matrix(1.3333333,0,0,1.3333333,285.58933,9.5613333)">
      <path
         id="path55"
         d="m 6.0238203,-3.70225 c 0,-0.4453125 -0.1757812,-0.703125 -0.3984375,-0.703125 -0.2578125,0 -0.5273437,0.2460938 -0.5273437,0.46875 0,0.1054688 0.046875,0.2109375 0.1523437,0.3046875 0.1640625,0.140625 0.3515625,0.4101563 0.3515625,0.8320313 0,0.3984375 -0.1875,0.9726562 -0.5039062,1.4296875 C 4.8050703,-0.94834375 4.4300703,-0.6085 3.9613203,-0.6085 c -0.5625,0 -0.8671875,-0.3515625 -0.9609375,-0.890625 0.1054688,-0.2578125 0.3398438,-0.9023437 0.3398438,-1.1835937 0,-0.1171875 -0.046875,-0.2109375 -0.1875,-0.2109375 -0.070312,0 -0.1875,0.011719 -0.2578125,0.1640625 -0.1171875,0.1992187 -0.234375,0.84375 -0.234375,1.2070312 -0.328125,0.46875 -0.7265625,0.9140625 -1.359375,0.9140625 -0.65625004,0 -0.86718754,-0.5859375 -0.86718754,-1.1484375 0,-1.2421875 1.01953124,-2.2851562 1.01953124,-2.4140625 0,-0.1171875 -0.082031,-0.1875 -0.1875,-0.1875 -0.1289062,0 -0.1992187,0.1289063 -0.2578125,0.2109375 -0.50390624,0.7382813 -0.89062499,1.921875 -0.89062499,2.8359375 0,0.6796875 0.234375,1.41796875 1.04296879,1.41796875 0.7148437,0 1.1835937,-0.4921875 1.5351562,-1.04296875 0.09375,0.57421875 0.4804688,1.04296875 1.1015625,1.04296875 0.7734375,0 1.2539063,-0.609375 1.6171875,-1.34765625 C 5.6488203,-1.7335 6.0238203,-3.092875 6.0238203,-3.70225 Z m 0,0"
         style="fill:#9013fe;fill-opacity:1;fill-rule:nonzero;stroke:none" />
      <path
         id="path56"
         d="m 16.169328,-3.2569375 c 0.152344,0 0.339844,0 0.339844,-0.1992187 0,-0.1992188 -0.1875,-0.1992188 -0.328125,-0.1992188 h -5.964844 c -0.140625,0 -0.3281249,0 -0.3281249,0.1992188 0,0.1992187 0.1874999,0.1992187 0.3398439,0.1992187 z m 0.01172,1.9335938 c 0.140625,0 0.328125,0 0.328125,-0.1992188 0,-0.1992187 -0.1875,-0.1992187 -0.339844,-0.1992187 h -5.941406 c -0.152344,0 -0.3398439,0 -0.3398439,0.1992187 0,0.1992188 0.1874999,0.1992188 0.3281249,0.1992188 z m 4.910156,0.56249995 1.054688,-1.03124995 c 1.558593,-1.3710938 2.15625,-1.9101563 2.15625,-2.90625 0,-1.1367188 -0.902344,-1.9335938 -2.121094,-1.9335938 -1.125,0 -1.851563,0.9140625 -1.851563,1.8046875 0,0.5507813 0.492188,0.5507813 0.527344,0.5507813 0.164063,0 0.515625,-0.1171875 0.515625,-0.5273438 0,-0.2578125 -0.1875,-0.515625 -0.527344,-0.515625 -0.08203,0 -0.105468,0 -0.128906,0.011719 0.222656,-0.6445313 0.761719,-1.0195313 1.335938,-1.0195313 0.914062,0 1.335937,0.8085938 1.335937,1.6289063 0,0.796875 -0.492187,1.5820312 -1.042969,2.203125 l -1.910156,2.13281245 C 20.329484,-0.2569375 20.329484,-0.2335 20.329484,8.75e-4 h 3.691407 l 0.28125,-1.734375 h -0.257813 c -0.04687,0.3046875 -0.117187,0.73828125 -0.210937,0.890625 -0.07031,0.0820313 -0.726563,0.0820313 -0.949219,0.0820313 z m 0,0"
         style="fill:#9013fe;fill-opacity:1;fill-rule:nonzero;stroke:none" />
      <path
         id="path57"
         d="m 27.460344,-3.7139687 h 1.125 c -0.328125,1.4765625 -0.410156,1.8984375 -0.410156,2.5664062 0,0.15234375 0,0.421875 0.07031,0.76171875 0.105469,0.43359375 0.210938,0.4921875 0.363281,0.4921875 0.199219,0 0.410157,-0.17578125 0.410157,-0.375 0,-0.0585938 0,-0.0820313 -0.05859,-0.22265625 -0.292969,-0.7148437 -0.292969,-1.359375 -0.292969,-1.640625 0,-0.5273437 0.07031,-1.0664062 0.175781,-1.5820312 h 1.136719 c 0.128906,0 0.492188,0 0.492188,-0.3398438 0,-0.234375 -0.210938,-0.234375 -0.398438,-0.234375 h -3.339844 c -0.210937,0 -0.597656,0 -1.03125,0.46875 -0.351562,0.3867188 -0.609375,0.84375 -0.609375,0.890625 0,0.011719 0,0.1054688 0.117188,0.1054688 0.08203,0 0.105469,-0.046875 0.164062,-0.1289063 0.480469,-0.7617187 1.066407,-0.7617187 1.265625,-0.7617187 h 0.5625 c -0.316406,1.2070312 -0.855468,2.4140625 -1.277343,3.3164062 -0.07031,0.15234375 -0.07031,0.1640625 -0.07031,0.234375 0,0.19921875 0.152344,0.26953125 0.28125,0.26953125 0.304688,0 0.386719,-0.26953125 0.503906,-0.64453125 0.140625,-0.45703125 0.140625,-0.4804687 0.269532,-0.9726562 z m 0,0"
         style="fill:#9013fe;fill-opacity:1;fill-rule:nonzero;stroke:none" />
      <path
         id="path58"
         d="m 40.822648,-3.32725 c 0,-0.2226562 -0.05859,-0.3164062 -0.140625,-0.3164062 -0.04687,0 -0.128906,0.070312 -0.140625,0.2578125 -0.03516,0.9609375 -0.703125,1.5 -1.394531,1.5 -0.632812,0 -1.101562,-0.421875 -1.59375,-0.8554688 -0.503906,-0.4570312 -1.03125,-0.9140625 -1.699219,-0.9140625 -1.089843,0 -1.675781,1.1015625 -1.675781,2.0039063 0,0.3164062 0.128906,0.3164062 0.140625,0.3164062 0.105469,0 0.140625,-0.1992187 0.140625,-0.2226562 0.03516,-1.1015625 0.785156,-1.5351563 1.394531,-1.5351563 0.621094,0 1.101563,0.421875 1.59375,0.8554688 0.503907,0.4570312 1.019532,0.9140625 1.699219,0.9140625 1.089844,0 1.675781,-1.1015625 1.675781,-2.0039063 z m 0,0"
         style="fill:#9013fe;fill-opacity:1;fill-rule:nonzero;stroke:none" />
      <path
         id="path59"
         d="m 48.726945,-3.186625 c 0,-0.796875 -0.04687,-1.59375 -0.398437,-2.3320312 -0.457031,-0.9609375 -1.277344,-1.1132813 -1.6875,-1.1132813 -0.597656,0 -1.335938,0.2578125 -1.734375,1.1835938 -0.328125,0.6914062 -0.375,1.4648437 -0.375,2.2617187 0,0.75 0.04687,1.640625 0.445312,2.40234375 0.433594,0.80859375 1.160157,1.0078125 1.652344,1.0078125 0.539063,0 1.289063,-0.2109375 1.734375,-1.16015625 0.316406,-0.6914062 0.363281,-1.4648437 0.363281,-2.25 z m -2.097656,3.1875 c -0.386719,0 -0.984375,-0.24609375 -1.160156,-1.2070312 -0.105469,-0.5976563 -0.105469,-1.5117188 -0.105469,-2.0976563 0,-0.6445312 0,-1.3007812 0.08203,-1.8398437 0.1875,-1.1835938 0.925782,-1.265625 1.183594,-1.265625 0.328125,0 0.984375,0.1757812 1.171875,1.1601562 0.09375,0.5625 0.09375,1.3125 0.09375,1.9453125 0,0.75 0,1.4179688 -0.105469,2.0625 -0.152343,0.9375 -0.714843,1.2421875 -1.160155,1.2421875 z m 0,0"
         style="fill:#9013fe;fill-opacity:1;fill-rule:nonzero;stroke:none" />
    </g>
  </g>
</svg>
