<?xml version="1.0" encoding="UTF-8" standalone="no"?>
<!-- Created with Inkscape (http://www.inkscape.org/) -->

<svg
   version="1.1"
   id="svg1"
   width="291.94666"
   height="251.08"
   viewBox="0 0 291.94666 251.08"
   sodipodi:docname="S3-with-NS.pdf"
   xmlns:inkscape="http://www.inkscape.org/namespaces/inkscape"
   xmlns:sodipodi="http://sodipodi.sourceforge.net/DTD/sodipodi-0.dtd"
   xmlns="http://www.w3.org/2000/svg"
   xmlns:svg="http://www.w3.org/2000/svg">
  <defs
     id="defs1" />
  <sodipodi:namedview
     id="namedview1"
     pagecolor="#ffffff"
     bordercolor="#000000"
     borderopacity="0.25"
     inkscape:showpageshadow="2"
     inkscape:pageopacity="0.0"
     inkscape:pagecheckerboard="0"
     inkscape:deskcolor="#d1d1d1">
    <inkscape:page
       x="0"
       y="0"
       inkscape:label="1"
       id="page1"
       width="291.94666"
       height="251.08"
       margin="0"
       bleed="0" />
  </sodipodi:namedview>
  <g
     id="g1"
     inkscape:groupmode="layer"
     inkscape:label="1">
    <path
       id="path1"
       d="m 112.08115,-103.86186 v -72.778"
       style="fill:none;stroke:#9b9b9b;stroke-width:0.74721;stroke-linecap:butt;stroke-linejoin:miter;stroke-miterlimit:10;stroke-dasharray:none;stroke-opacity:1"
       transform="matrix(1.3333333,0,0,-1.3333333,-46.496,-10.481333)" />
    <path
       id="path2"
       d="m 48.5685,-103.86186 c 0,35.07393 28.43872,63.51265 63.51265,63.51265 35.08139,0 63.51265,-28.43872 63.51265,-63.51265 0,-35.08139 -28.43126,-63.51265 -63.51265,-63.51265 -35.07393,0 -63.51265,28.43126 -63.51265,63.51265 z"
       style="fill:#f5a623;fill-opacity:0.05;fill-rule:nonzero;stroke:#f5a623;stroke-width:1.49442;stroke-linecap:butt;stroke-linejoin:miter;stroke-miterlimit:10;stroke-dasharray:none;stroke-opacity:1"
       transform="matrix(1.3333333,0,0,-1.3333333,-46.496,-10.481333)" />
    <path
       id="path3"
       d="m 48.5685,-103.86186 c 0,8.24917 28.43872,14.94415 63.51265,14.94415 35.08139,0 63.51265,-6.69498 63.51265,-14.94415 0,-8.25662 -28.43126,-14.94416 -63.51265,-14.94416 -35.07393,0 -63.51265,6.68754 -63.51265,14.94416 z"
       style="fill:none;stroke:#f5a623;stroke-width:0.74721;stroke-linecap:butt;stroke-linejoin:miter;stroke-miterlimit:10;stroke-dasharray:4.48325, 4.48325;stroke-dashoffset:0;stroke-opacity:0.5"
       transform="matrix(1.3333333,0,0,-1.3333333,-46.496,-10.481333)" />
    <path
       id="path4"
       d="m 112.08115,-8.23422 v -95.62764"
       style="fill:none;stroke:#9b9b9b;stroke-width:0.74721;stroke-linecap:butt;stroke-linejoin:miter;stroke-miterlimit:10;stroke-dasharray:none;stroke-opacity:1"
       transform="matrix(1.3333333,0,0,-1.3333333,-46.496,-10.481333)" />
    <path
       id="path5"
       d="m 69.8639,-58.3569 c 0,5.51439 18.99401,9.9827 42.42644,9.9827 23.43244,0 42.42647,-4.46831 42.42647,-9.9827 0,-5.51439 -18.99403,-9.9827 -42.42647,-9.9827 -23.43243,0 -42.42644,4.46831 -42.42644,9.9827 z"
       style="fill:none;stroke:#f5a623;stroke-width:0.74721;stroke-linecap:butt;stroke-linejoin:miter;stroke-miterlimit:10;stroke-dasharray:4.48325, 4.48325;stroke-dashoffset:0;stroke-opacity:0.5"
       transform="matrix(1.3333333,0,0,-1.3333333,-46.496,-10.481333)" />
    <path
       id="path6"
       d="m 110.1085,-44.64565 c 0,1.03862 0.83687,1.86802 1.86802,1.86802 1.03116,0 1.86802,-0.8294 1.86802,-1.86802 0,-1.03115 -0.83686,-1.86802 -1.86802,-1.86802 -1.03115,0 -1.86802,0.83687 -1.86802,1.86802 z"
       style="fill:#9013fe;fill-opacity:1;fill-rule:nonzero;stroke:#9013fe;stroke-width:0.74721;stroke-linecap:butt;stroke-linejoin:miter;stroke-miterlimit:10;stroke-dasharray:none;stroke-opacity:1"
       transform="matrix(1.3333333,0,0,-1.3333333,-46.496,-10.481333)" />
    <path
       id="path7"
       d="m 112.08115,-103.86186 h 99.04983"
       style="fill:none;stroke:#9b9b9b;stroke-width:0.74721;stroke-linecap:butt;stroke-linejoin:miter;stroke-miterlimit:10;stroke-dasharray:none;stroke-opacity:1"
       transform="matrix(1.3333333,0,0,-1.3333333,-46.496,-10.481333)" />
    <path
       id="path8"
       d="m 110.1085,-163.07806 c 0,1.03863 0.83687,1.86802 1.86802,1.86802 1.03116,0 1.86802,-0.82939 1.86802,-1.86802 0,-1.03114 -0.83686,-1.86802 -1.86802,-1.86802 -1.03115,0 -1.86802,0.83688 -1.86802,1.86802 z"
       style="fill:#4a90e2;fill-opacity:1;fill-rule:nonzero;stroke:#4a90e2;stroke-width:0.74721;stroke-linecap:butt;stroke-linejoin:miter;stroke-miterlimit:10;stroke-dasharray:none;stroke-opacity:1"
       transform="matrix(1.3333333,0,0,-1.3333333,-46.496,-10.481333)" />
    <path
       id="path9"
       d="m 38.56337,-177.38707 73.51778,73.52521"
       style="fill:none;stroke:#9b9b9b;stroke-width:0.74721;stroke-linecap:butt;stroke-linejoin:miter;stroke-miterlimit:10;stroke-dasharray:none;stroke-opacity:1"
       transform="matrix(1.3333333,0,0,-1.3333333,-46.496,-10.481333)" />
    <path
       id="path10"
       d="m 152.60968,-28.69275 -37.3828,-15.37753"
       style="fill:#9013fe;fill-opacity:1;fill-rule:nonzero;stroke:#9013fe;stroke-width:0.74721;stroke-linecap:butt;stroke-linejoin:miter;stroke-miterlimit:10;stroke-dasharray:none;stroke-opacity:1"
       transform="matrix(1.3333333,0,0,-1.3333333,-46.496,-10.481333)" />
    <path
       id="path11"
       d="m 120.461,-39.26451 c -2.21251,-2.43759 -4.41477,-4.23269 -6.61646,-5.38114 2.3723,0.73394 5.20011,1.00895 8.48749,0.8348"
       style="fill:none;stroke:#9013fe;stroke-width:0.74721;stroke-linecap:butt;stroke-linejoin:miter;stroke-miterlimit:10;stroke-dasharray:none;stroke-opacity:1"
       transform="matrix(1.3333333,0,0,-1.3333333,-46.496,-10.481333)" />
    <path
       id="path12"
       d="m 148.87364,-170.6622 -35.43258,7.28526"
       style="fill:none;stroke:#4a90e2;stroke-width:0.74721;stroke-linecap:butt;stroke-linejoin:miter;stroke-miterlimit:10;stroke-dasharray:none;stroke-opacity:1"
       transform="matrix(1.3333333,0,0,-1.3333333,-46.496,-10.481333)" />
    <path
       id="path13"
       d="m 120.47086,-162.3151 c -3.19726,-0.78427 -6.02676,-1.04153 -8.49434,-0.76296 2.37732,-0.71766 4.87574,-2.07047 7.50413,-4.05262"
       style="fill:none;stroke:#4a90e2;stroke-width:0.74721;stroke-linecap:butt;stroke-linejoin:miter;stroke-miterlimit:10;stroke-dasharray:none;stroke-opacity:1"
       transform="matrix(1.3333333,0,0,-1.3333333,-46.496,-10.481333)" />
    <g
       id="g13"
       aria-label="x&#10;4"
       transform="matrix(1.3333333,0,0,1.3333333,106.432,16.192)">
      <path
         id="path14"
         d="m 3.3293203,-3.0121641 c 0.058594,-0.2578125 0.2929688,-1.171875 0.984375,-1.171875 0.046875,0 0.2929688,0 0.5039063,0.1289063 -0.28125,0.046875 -0.4804688,0.3046875 -0.4804688,0.5390625 0,0.1640625 0.1054688,0.3515625 0.375,0.3515625 0.2226563,0 0.5390625,-0.1875 0.5390625,-0.5859375 0,-0.515625 -0.5859375,-0.65625 -0.9257812,-0.65625 -0.5742188,0 -0.9257813,0.5273437 -1.0429688,0.7617187 -0.2578125,-0.65625 -0.7851562,-0.7617187 -1.078125,-0.7617187 -1.0429687,0 -1.60546874,1.2890625 -1.60546874,1.5351562 0,0.1054688 0.10546875,0.1054688 0.1171875,0.1054688 0.0820313,0 0.1171875,-0.023437 0.12890625,-0.1171875 0.33984379,-1.0546875 0.99609379,-1.3007813 1.33593749,-1.3007813 0.1875,0 0.5390625,0.09375 0.5390625,0.6679688 0,0.3046875 -0.1640625,0.9726562 -0.5390625,2.3671875 -0.1523437,0.62109374 -0.5039062,1.04296874 -0.9492187,1.04296874 -0.058594,0 -0.28125004,0 -0.49218754,-0.12890625 0.24609375,-0.0585937 0.46875004,-0.26953125 0.46875004,-0.5390625 0,-0.26953129 -0.22265629,-0.35156249 -0.37500004,-0.35156249 -0.29296875,0 -0.5390625,0.25781249 -0.5390625,0.57421874 0,0.45703125 0.4921875,0.65625 0.93750004,0.65625 0.65625,0 1.0078125,-0.69140625 1.0429687,-0.75 0.1171875,0.36328125 0.4804688,0.75 1.078125,0.75 1.0195313,0 1.59375,-1.27734374 1.59375,-1.53515624 0,-0.09375 -0.09375,-0.09375 -0.1289062,-0.09375 -0.082031,0 -0.1054688,0.035156 -0.1289063,0.1054687 -0.328125,1.06640629 -0.9960937,1.31250004 -1.3242187,1.31250004 -0.3867188,0 -0.5390625,-0.328125 -0.5390625,-0.65625 0,-0.22265625 0.058594,-0.44531254 0.1640625,-0.87890624 z m 0,0"
         style="fill:#000000;fill-opacity:1;fill-rule:nonzero;stroke:none" />
      <path
         id="path15"
         d="M 9.3849844,-4.7641172 V -5.0102109 H 8.6115469 v -3.1054688 c 0,-0.1523437 0,-0.1992187 -0.1523438,-0.1992187 -0.09375,0 -0.1171875,0 -0.1875,0.09375 l -2.3085937,3.2109375 v 0.2460937 h 2.0507812 v 0.5742188 c 0,0.234375 0,0.328125 -0.5625,0.328125 h -0.1875 v 0.2460937 c 0.3515625,-0.011719 0.796875,-0.023437 1.0429688,-0.023437 0.2578125,0 0.703125,0.011719 1.0546875,0.023437 v -0.2460937 h -0.1875 c -0.5625,0 -0.5625,-0.09375 -0.5625,-0.328125 V -4.7641172 Z M 8.0607656,-7.5648984 v 2.5546875 H 6.2209219 Z m 0,0"
         style="fill:#000000;fill-opacity:1;fill-rule:nonzero;stroke:none" />
    </g>
    <g
       id="g15"
       aria-label="S&#10;3&#10;⊂R&#10;4"
       transform="matrix(1.3333333,0,0,1.3333333,74.552,249.56667)">
      <path
         id="path16"
         d="m 6.4209609,-6.9259766 c 0,-0.023437 -0.011719,-0.09375 -0.1054687,-0.09375 -0.046875,0 -0.058594,0.011719 -0.1757813,0.140625 l -0.4804687,0.5742188 c -0.2578125,-0.46875 -0.7734375,-0.7148438 -1.4296875,-0.7148438 -1.265625,0 -2.4609375,1.1367188 -2.4609375,2.34375 0,0.8085938 0.5273437,1.265625 1.0429687,1.4179688 l 1.0664063,0.28125 c 0.3632812,0.082031 0.9140625,0.234375 0.9140625,1.0546875 0,0.890625 -0.8203125,1.82812499 -1.7929688,1.82812499 -0.6445312,0 -1.7460937,-0.2109375 -1.7460937,-1.45312499 0,-0.234375 0.046875,-0.4804688 0.058594,-0.5390625 0.011719,-0.035156 0.023437,-0.046875 0.023437,-0.070312 0,-0.09375 -0.070312,-0.1054688 -0.1171875,-0.1054688 -0.058594,0 -0.070312,0.011719 -0.1054687,0.035156 -0.035156,0.046875 -0.59765626,2.32031249 -0.59765626,2.34374999 0,0.0585938 0.046875,0.10546875 0.1171875,0.10546875 0.046875,0 0.0585938,-0.0117188 0.17578125,-0.15234375 L 1.2998672,-0.50410156 c 0.421875,0.5859375 1.1015625,0.7265625 1.6757812,0.7265625 1.359375,0 2.53125,-1.32421874 2.53125,-2.56640624 0,-0.6796875 -0.3398437,-1.0195313 -0.4921875,-1.1601563 -0.2226562,-0.234375 -0.375,-0.2695312 -1.265625,-0.5039062 -0.2109375,-0.058594 -0.5742187,-0.1523438 -0.65625,-0.1757813 -0.2695312,-0.09375 -0.609375,-0.375 -0.609375,-0.9023437 0,-0.8085938 0.796875,-1.6523438 1.734375,-1.6523438 0.8320313,0 1.4414063,0.421875 1.4414063,1.5351563 0,0.3164062 -0.046875,0.5039062 -0.046875,0.5625 0,0.011719 0,0.09375 0.1289062,0.09375 0.09375,0 0.1054688,-0.023437 0.140625,-0.1992188 z m 0,0"
         style="fill:#000000;fill-opacity:1;fill-rule:nonzero;stroke:none" />
      <path
         id="path17"
         d="m 8.5830703,-6.4455078 c 0.5507813,0 0.9375,0.375 0.9375,1.125 0,0.8671875 -0.5039062,1.125 -0.9023437,1.125 -0.28125,0 -0.890625,-0.082031 -1.1835938,-0.4921875 0.328125,-0.011719 0.3984375,-0.2460938 0.3984375,-0.3867188 0,-0.2226562 -0.1640625,-0.3867187 -0.3867187,-0.3867187 -0.1875,0 -0.3867188,0.1171875 -0.3867188,0.4101562 0,0.65625 0.7265625,1.078125 1.5703125,1.078125 0.9726563,0 1.6406247,-0.6445312 1.6406247,-1.3476562 0,-0.5390625 -0.4453122,-1.0898438 -1.2187497,-1.2421875 0.7382813,-0.2695313 0.9960937,-0.796875 0.9960937,-1.21875 0,-0.5507813 -0.6328124,-0.9609375 -1.4062499,-0.9609375 -0.7734375,0 -1.359375,0.375 -1.359375,0.9375 0,0.234375 0.1523437,0.3632812 0.3632812,0.3632812 0.2109375,0 0.3515625,-0.1640625 0.3515625,-0.3515625 0,-0.1992187 -0.140625,-0.3515625 -0.3515625,-0.3632812 0.234375,-0.3046875 0.7148438,-0.3867188 0.9726563,-0.3867188 0.3164062,0 0.7617187,0.1523438 0.7617187,0.7617188 0,0.2929687 -0.1054687,0.609375 -0.28125,0.8320312 -0.234375,0.2578125 -0.421875,0.28125 -0.7734375,0.2929688 -0.1757812,0.023437 -0.1875,0.023437 -0.2226562,0.023437 -0.011719,0 -0.070312,0.011719 -0.070312,0.09375 0,0.09375 0.058594,0.09375 0.1757812,0.09375 z m 0,0"
         style="fill:#000000;fill-opacity:1;fill-rule:nonzero;stroke:none" />
      <path
         id="path18"
         d="m 20.483461,-4.9806641 c 0.175781,0 0.351562,0 0.351562,-0.1992187 0,-0.1992188 -0.175781,-0.1992188 -0.351562,-0.1992188 h -2.671875 c -1.710938,0 -3.058594,1.2890625 -3.058594,2.8828125 0,1.59375004 1.347656,2.89453129 3.058594,2.89453129 h 2.671875 c 0.175781,0 0.351562,0 0.351562,-0.19921875 0,-0.1992187525 -0.175781,-0.1992187525 -0.351562,-0.1992187525 h -2.660156 c -1.546875,0 -2.671875,-1.1601562875 -2.671875,-2.4960937875 0,-1.3242187 1.125,-2.484375 2.671875,-2.484375 z m 0,0"
         style="fill:#000000;fill-opacity:1;fill-rule:nonzero;stroke:none" />
      <path
         id="path19"
         d="m 27.107484,-3.1291016 h 0.351563 l 1.5,2.30859379 c 0.09375,0.1640625 0.339844,0.55078125 0.445312,0.703125 0.07031,0.1171874975 0.105469,0.1171874975 0.328125,0.1171874975 h 1.382813 c 0.175781,0 0.328125,0 0.328125,-0.1757812475 0,-0.0820313 -0.07031,-0.15234375 -0.152344,-0.17578125 -0.375,-0.0820313 -0.855469,-0.73828129 -1.101562,-1.05468749 -0.07031,-0.09375 -0.5625,-0.75 -1.230469,-1.828125 0.890625,-0.1640625 1.746094,-0.5390625 1.746094,-1.7226563 0,-1.3828125 -1.464844,-1.8632812 -2.648438,-1.8632812 h -3.117187 c -0.1875,0 -0.339844,0 -0.339844,0.1757812 0,0.1640625 0.1875,0.1640625 0.269531,0.1640625 0.5625,0 0.609375,0.070312 0.609375,0.5742188 v 4.99218749 c 0,0.4921875 -0.04687,0.5625 -0.609375,0.5625 -0.08203,0 -0.269531,0 -0.269531,0.17578125 0,0.1757812475 0.152344,0.1757812475 0.339844,0.1757812475 h 2.71875 c 0.1875,0 0.328125,0 0.328125,-0.1757812475 0,-0.17578125 -0.164063,-0.17578125 -0.269532,-0.17578125 -0.574218,0 -0.609375,-0.0820313 -0.609375,-0.5625 z m 1.921875,-0.4921875 c 0.28125,-0.3632812 0.304688,-0.890625 0.304688,-1.3242187 0,-0.4804688 -0.05859,-1.0078125 -0.375,-1.4179688 0.410156,0.082031 1.394531,0.3984375 1.394531,1.40625 0,0.6445313 -0.304687,1.1484375 -1.324219,1.3359375 z m -1.921875,-2.3203125 c 0,-0.1992187 0,-0.5390625 0.621094,-0.5390625 0.84375,0 1.253906,0.3515625 1.253906,1.5351563 0,1.2773437 -0.304687,1.4648437 -1.875,1.4648437 z m -1.359375,5.58984379 c 0.08203,-0.17578125 0.08203,-0.45703125 0.08203,-0.55078125 V -5.9298828 c 0,-0.09375 0,-0.3632813 -0.08203,-0.5507813 h 1.136719 c -0.128906,0.1640625 -0.128906,0.3632813 -0.128906,0.515625 v 5.06250004 c 0,0.10546875 0,0.375 0.08203,0.55078125 z m 2.121094,-2.77734379 c 0.07031,-0.011719 0.117188,-0.023437 0.1875,-0.023437 0.152344,0 0.375,-0.011719 0.527344,-0.035156 0.140625,0.234375 1.21875,2.015625 2.050781,2.83593749 h -0.972656 z m 0,0"
         style="fill:#000000;fill-opacity:1;fill-rule:nonzero;stroke:none" />
      <path
         id="path20"
         d="m 35.322328,-5.2619141 v -0.2460937 h -0.773437 v -3.1054688 c 0,-0.1523437 0,-0.1992187 -0.152344,-0.1992187 -0.09375,0 -0.117188,0 -0.1875,0.09375 l -2.308594,3.2109375 v 0.2460937 h 2.050781 v 0.5742188 c 0,0.234375 0,0.328125 -0.5625,0.328125 h -0.1875 v 0.2460937 c 0.351563,-0.011719 0.796875,-0.023437 1.042969,-0.023437 0.257813,0 0.703125,0.011719 1.054688,0.023437 v -0.2460937 h -0.1875 c -0.5625,0 -0.5625,-0.09375 -0.5625,-0.328125 v -0.5742188 z m -1.324219,-2.8007812 v 2.5546875 h -1.839843 z m 0,0"
         style="fill:#000000;fill-opacity:1;fill-rule:nonzero;stroke:none" />
    </g>
    <g
       id="g20"
       aria-label="x&#10;1&#10;,x&#10;2&#10;,x&#10;3"
       transform="matrix(1.3333333,0,0,1.3333333,238.49867,132.116)">
      <path
         id="path21"
         d="m 3.329125,-3.0108281 c 0.058594,-0.2578125 0.2929688,-1.171875 0.984375,-1.171875 0.046875,0 0.2929688,0 0.5039063,0.1289062 -0.28125,0.046875 -0.4804688,0.3046875 -0.4804688,0.5390625 0,0.1640625 0.1054688,0.3515625 0.375,0.3515625 0.2226563,0 0.5390625,-0.1875 0.5390625,-0.5859375 0,-0.515625 -0.5859375,-0.65625 -0.9257812,-0.65625 -0.5742188,0 -0.9257813,0.5273438 -1.0429688,0.7617188 -0.2578125,-0.65625 -0.7851562,-0.7617188 -1.078125,-0.7617188 -1.0429687,0 -1.60546875,1.2890625 -1.60546875,1.5351563 0,0.1054687 0.10546875,0.1054687 0.1171875,0.1054687 0.0820313,0 0.1171875,-0.023437 0.12890625,-0.1171875 0.3398438,-1.0546875 0.9960938,-1.3007812 1.3359375,-1.3007812 0.1875,0 0.5390625,0.09375 0.5390625,0.6679687 0,0.3046875 -0.1640625,0.9726563 -0.5390625,2.3671875 -0.1523437,0.62109378 -0.5039062,1.04296878 -0.9492187,1.04296878 -0.058594,0 -0.28125005,0 -0.49218755,-0.12890625 0.24609375,-0.0585938 0.46875005,-0.26953125 0.46875005,-0.5390625 0,-0.26953123 -0.2226563,-0.35156253 -0.37500005,-0.35156253 -0.29296875,0 -0.5390625,0.25781253 -0.5390625,0.57421878 0,0.45703125 0.4921875,0.65625 0.93750005,0.65625 0.65625,0 1.0078125,-0.69140625 1.0429687,-0.75 0.1171875,0.36328125 0.4804688,0.75 1.078125,0.75 1.0195313,0 1.59375,-1.27734378 1.59375,-1.53515628 0,-0.09375 -0.09375,-0.09375 -0.1289062,-0.09375 -0.082031,0 -0.1054688,0.035156 -0.1289063,0.1054688 -0.328125,1.06640623 -0.9960937,1.31249998 -1.3242187,1.31249998 -0.3867188,0 -0.5390625,-0.328125 -0.5390625,-0.65625 0,-0.22265625 0.058594,-0.44531248 0.1640625,-0.87890628 z m 0,0"
         style="fill:#000000;fill-opacity:1;fill-rule:nonzero;stroke:none" />
      <path
         id="path22"
         d="m 8.0254141,-8.0440312 c 0,-0.1875 -0.011719,-0.1992188 -0.2109375,-0.1992188 -0.4453125,0.4335938 -1.078125,0.4453125 -1.359375,0.4453125 v 0.2460938 c 0.1640625,0 0.6210937,0 1.0078125,-0.1875 v 3.5507812 c 0,0.234375 0,0.328125 -0.6914063,0.328125 H 6.5019766 v 0.2460938 c 0.1289062,-0.011719 0.984375,-0.023437 1.2421875,-0.023437 0.2109375,0 1.0898437,0.011719 1.2421875,0.023437 V -3.8604375 H 8.7285391 c -0.703125,0 -0.703125,-0.09375 -0.703125,-0.328125 z m 0,0"
         style="fill:#000000;fill-opacity:1;fill-rule:nonzero;stroke:none" />
      <path
         id="path23"
         d="m 12.19143,-0.01082812 c 0,-0.65625 -0.257813,-1.04296878 -0.644532,-1.04296878 -0.328125,0 -0.527343,0.24609378 -0.527343,0.52734378 0,0.26953125 0.199218,0.527343745 0.527343,0.527343745 0.117188,0 0.246094,-0.035156245 0.351563,-0.128906245 0.02344,-0.0234375 0.03516,-0.0351563 0.04687,-0.0351563 0.01172,0 0.02344,0.0117188 0.02344,0.15234375 0,0.73828125 -0.351562,1.33593757 -0.679687,1.66406257 -0.105469,0.1054687 -0.105469,0.1289062 -0.105469,0.1640625 0,0.070312 0.04687,0.1054687 0.09375,0.1054687 0.117188,0 0.914063,-0.7617187 0.914063,-1.93359377 z m 5.71289,-2.99999998 c 0.05859,-0.2578125 0.292969,-1.171875 0.984375,-1.171875 0.04687,0 0.292969,0 0.503907,0.1289062 -0.28125,0.046875 -0.480469,0.3046875 -0.480469,0.5390625 0,0.1640625 0.105469,0.3515625 0.375,0.3515625 0.222656,0 0.539062,-0.1875 0.539062,-0.5859375 0,-0.515625 -0.585937,-0.65625 -0.925781,-0.65625 -0.574219,0 -0.925781,0.5273438 -1.042969,0.7617188 -0.257812,-0.65625 -0.785156,-0.7617188 -1.078125,-0.7617188 -1.042968,0 -1.605468,1.2890625 -1.605468,1.5351563 0,0.1054687 0.105468,0.1054687 0.117187,0.1054687 0.08203,0 0.117188,-0.023437 0.128906,-0.1171875 0.339844,-1.0546875 0.996094,-1.3007812 1.335938,-1.3007812 0.1875,0 0.539062,0.09375 0.539062,0.6679687 0,0.3046875 -0.164062,0.9726563 -0.539062,2.3671875 -0.152344,0.62109378 -0.503906,1.04296878 -0.949219,1.04296878 -0.05859,0 -0.28125,0 -0.492187,-0.12890625 0.246093,-0.0585938 0.46875,-0.26953125 0.46875,-0.5390625 0,-0.26953123 -0.222657,-0.35156253 -0.375,-0.35156253 -0.292969,0 -0.539063,0.25781253 -0.539063,0.57421878 0,0.45703125 0.492188,0.65625 0.9375,0.65625 0.65625,0 1.007813,-0.69140625 1.042969,-0.75 0.117187,0.36328125 0.480469,0.75 1.078125,0.75 1.019531,0 1.59375,-1.27734378 1.59375,-1.53515628 0,-0.09375 -0.09375,-0.09375 -0.128906,-0.09375 -0.08203,0 -0.105469,0.035156 -0.128907,0.1054688 -0.328125,1.06640623 -0.996093,1.31249998 -1.324218,1.31249998 -0.386719,0 -0.539063,-0.328125 -0.539063,-0.65625 0,-0.22265625 0.05859,-0.44531248 0.164063,-0.87890628 z m 0,0"
         style="fill:#000000;fill-opacity:1;fill-rule:nonzero;stroke:none" />
      <path
         id="path24"
         d="m 23.801781,-4.8799687 h -0.234375 c -0.02344,0.1523437 -0.08203,0.5625 -0.175781,0.6328125 C 23.333031,-4.212 22.793969,-4.212 22.700219,-4.212 h -1.289063 c 0.738282,-0.6445312 0.984375,-0.84375 1.394532,-1.171875 0.515625,-0.4101562 0.996093,-0.84375 0.996093,-1.5 0,-0.84375 -0.738281,-1.359375 -1.628906,-1.359375 -0.867187,0 -1.453125,0.609375 -1.453125,1.2421875 0,0.3632813 0.304688,0.3984375 0.375,0.3984375 0.164063,0 0.375,-0.1171875 0.375,-0.375 0,-0.1289062 -0.05859,-0.3632812 -0.421875,-0.3632812 0.222656,-0.5039063 0.691406,-0.65625 1.019531,-0.65625 0.703125,0 1.066407,0.5507812 1.066407,1.1132812 0,0.609375 -0.433594,1.0898438 -0.65625,1.3359375 l -1.6875,1.6640625 c -0.07031,0.058594 -0.07031,0.070312 -0.07031,0.2695313 h 2.882813 z m 0,0"
         style="fill:#000000;fill-opacity:1;fill-rule:nonzero;stroke:none" />
      <path
         id="path25"
         d="m 26.781273,-0.01082812 c 0,-0.65625 -0.257812,-1.04296878 -0.644531,-1.04296878 -0.328125,0 -0.527344,0.24609378 -0.527344,0.52734378 0,0.26953125 0.199219,0.527343745 0.527344,0.527343745 0.117188,0 0.246094,-0.035156245 0.351563,-0.128906245 0.02344,-0.0234375 0.03516,-0.0351563 0.04687,-0.0351563 0.01172,0 0.02344,0.0117188 0.02344,0.15234375 0,0.73828125 -0.351562,1.33593757 -0.679687,1.66406257 -0.105469,0.1054687 -0.105469,0.1289062 -0.105469,0.1640625 0,0.070312 0.04687,0.1054687 0.09375,0.1054687 0.117187,0 0.914062,-0.7617187 0.914062,-1.93359377 z m 5.715821,-2.99999998 c 0.05859,-0.2578125 0.292969,-1.171875 0.984375,-1.171875 0.04687,0 0.292969,0 0.503906,0.1289062 -0.28125,0.046875 -0.480469,0.3046875 -0.480469,0.5390625 0,0.1640625 0.105469,0.3515625 0.375,0.3515625 0.222657,0 0.539063,-0.1875 0.539063,-0.5859375 0,-0.515625 -0.585938,-0.65625 -0.925781,-0.65625 -0.574219,0 -0.925782,0.5273438 -1.042969,0.7617188 -0.257813,-0.65625 -0.785156,-0.7617188 -1.078125,-0.7617188 -1.042969,0 -1.605469,1.2890625 -1.605469,1.5351563 0,0.1054687 0.105469,0.1054687 0.117188,0.1054687 0.08203,0 0.117187,-0.023437 0.128906,-0.1171875 0.339844,-1.0546875 0.996094,-1.3007812 1.335937,-1.3007812 0.1875,0 0.539063,0.09375 0.539063,0.6679687 0,0.3046875 -0.164063,0.9726563 -0.539063,2.3671875 -0.152343,0.62109378 -0.503906,1.04296878 -0.949218,1.04296878 -0.05859,0 -0.28125,0 -0.492188,-0.12890625 0.246094,-0.0585938 0.46875,-0.26953125 0.46875,-0.5390625 0,-0.26953123 -0.222656,-0.35156253 -0.375,-0.35156253 -0.292969,0 -0.539062,0.25781253 -0.539062,0.57421878 0,0.45703125 0.492187,0.65625 0.9375,0.65625 0.65625,0 1.007812,-0.69140625 1.042968,-0.75 0.117188,0.36328125 0.480469,0.75 1.078125,0.75 1.019532,0 1.59375,-1.27734378 1.59375,-1.53515628 0,-0.09375 -0.09375,-0.09375 -0.128906,-0.09375 -0.08203,0 -0.105469,0.035156 -0.128906,0.1054688 -0.328125,1.06640623 -0.996094,1.31249998 -1.324219,1.31249998 -0.386719,0 -0.539062,-0.328125 -0.539062,-0.65625 0,-0.22265625 0.05859,-0.44531248 0.164062,-0.87890628 z m 0,0"
         style="fill:#000000;fill-opacity:1;fill-rule:nonzero;stroke:none" />
      <path
         id="path26"
         d="m 36.774438,-5.946375 c 0.550781,0 0.9375,0.375 0.9375,1.125 0,0.8671875 -0.503907,1.125 -0.902344,1.125 -0.28125,0 -0.890625,-0.082031 -1.183594,-0.4921875 0.328125,-0.011719 0.398438,-0.2460937 0.398438,-0.3867187 0,-0.2226563 -0.164063,-0.3867188 -0.386719,-0.3867188 -0.1875,0 -0.386719,0.1171875 -0.386719,0.4101563 0,0.65625 0.726563,1.078125 1.570313,1.078125 0.972656,0 1.640625,-0.6445313 1.640625,-1.3476563 0,-0.5390625 -0.445313,-1.0898437 -1.21875,-1.2421875 0.738281,-0.2695312 0.996093,-0.796875 0.996093,-1.21875 0,-0.5507812 -0.632812,-0.9609375 -1.40625,-0.9609375 -0.773437,0 -1.359375,0.375 -1.359375,0.9375 0,0.234375 0.152344,0.3632813 0.363282,0.3632813 0.210937,0 0.351562,-0.1640625 0.351562,-0.3515625 0,-0.1992188 -0.140625,-0.3515625 -0.351562,-0.3632813 0.234375,-0.3046875 0.714843,-0.3867187 0.972656,-0.3867187 0.316406,0 0.761719,0.1523437 0.761719,0.7617187 0,0.2929688 -0.105469,0.609375 -0.28125,0.8320313 -0.234375,0.2578125 -0.421875,0.28125 -0.773438,0.2929687 -0.175781,0.023437 -0.1875,0.023437 -0.222656,0.023437 -0.01172,0 -0.07031,0.011719 -0.07031,0.09375 0,0.09375 0.05859,0.09375 0.175782,0.09375 z m 0,0"
         style="fill:#000000;fill-opacity:1;fill-rule:nonzero;stroke:none" />
    </g>
    <g
       id="g26"
       aria-label="N=+1&#10;2×2&#10;,ω=0"
       transform="matrix(1.3333333,0,0,1.3333333,164.216,27.388)">
      <path
         id="path27"
         d="m 7.5342891,-5.7548672 c 0.09375,-0.3984375 0.2695312,-0.7148437 1.0664062,-0.7382812 0.058594,0 0.1757813,-0.011719 0.1757813,-0.1992188 0,-0.011719 0,-0.1171875 -0.1289063,-0.1171875 -0.328125,0 -0.6796875,0.035156 -1.0078125,0.035156 -0.3398437,0 -0.6914062,-0.035156 -1.0195312,-0.035156 -0.058594,0 -0.1757813,0 -0.1757813,0.1992188 0,0.1171875 0.09375,0.1171875 0.1757813,0.1171875 0.5742187,0.011719 0.6796875,0.2109375 0.6796875,0.4335937 0,0.035156 -0.023437,0.1757813 -0.023437,0.2109375 l -1.125,4.4296875 -2.203125,-5.1914062 c -0.070312,-0.1875 -0.082031,-0.1992188 -0.3164063,-0.1992188 h -1.335938 c -0.1992187,0 -0.28125,0 -0.28125,0.1992188 0,0.1171875 0.082031,0.1171875 0.28125,0.1171875 0.046875,0 0.6679688,0 0.6679688,0.082031 l -1.3359375,5.3554688 c -0.09375,0.39843746 -0.2695313,0.71484371 -1.06640629,0.74999996 -0.0585938,0 -0.17578125,0 -0.17578125,0.19921875 0,0.0703125 0.046875,0.1054687525 0.12890625,0.1054687525 0.31640625,0 0.66796879,-0.0351562525 0.99609379,-0.0351562525 0.3398437,0 0.703125,0.0351562525 1.03125,0.0351562525 0.046875,0 0.1757812,0 0.1757812,-0.1992187525 0,-0.10546875 -0.09375,-0.10546875 -0.1992187,-0.10546875 -0.5742188,-0.0234375 -0.65625,-0.24609375 -0.65625,-0.4453125 0,-0.0703125 0.011719,-0.1171875 0.035156,-0.22265625 l 1.324219,-5.26171851 c 0.035156,0.058594 0.035156,0.082031 0.082031,0.1757812 l 2.484375,5.87109376 c 0.070312,0.1640625 0.09375,0.1875000025 0.1875,0.1875000025 0.1054688,0 0.1054688,-0.0351562525 0.1640625,-0.2109375025 z m 0,0"
         style="fill:#9013fe;fill-opacity:1;fill-rule:nonzero;stroke:none" />
      <path
         id="path28"
         d="m 18.702258,-3.2587734 c 0.152344,0 0.339844,0 0.339844,-0.1992188 0,-0.1992187 -0.1875,-0.1992187 -0.328125,-0.1992187 h -5.964844 c -0.140625,0 -0.328125,0 -0.328125,0.1992187 0,0.1992188 0.1875,0.1992188 0.339844,0.1992188 z m 0.01172,1.9335937 c 0.140625,0 0.328125,0 0.328125,-0.1992187 0,-0.1992188 -0.1875,-0.1992188 -0.339844,-0.1992188 h -5.941406 c -0.152344,0 -0.339844,0 -0.339844,0.1992188 0,0.1992187 0.1875,0.1992187 0.328125,0.1992187 z m 7.722656,-0.9726562 h 2.777344 c 0.140625,0 0.328125,0 0.328125,-0.1992188 0,-0.1992187 -0.1875,-0.1992187 -0.328125,-0.1992187 h -2.777344 v -2.7890625 c 0,-0.1289063 0,-0.328125 -0.199219,-0.328125 -0.199219,0 -0.199219,0.1992187 -0.199219,0.328125 v 2.7890625 h -2.789062 c -0.140625,0 -0.328125,0 -0.328125,0.1992187 0,0.1992188 0.1875,0.1992188 0.328125,0.1992188 h 2.789062 v 2.80078121 c 0,0.12890625 0,0.328125 0.199219,0.328125 0.199219,0 0.199219,-0.19921875 0.199219,-0.328125 z m 0,0"
         style="fill:#9013fe;fill-opacity:1;fill-rule:nonzero;stroke:none" />
      <path
         id="path29"
         d="m 33.649523,-6.2118984 c 0,-0.2109375 0,-0.3164063 -0.257812,-0.3164063 -0.117188,0 -0.128906,0 -0.222656,0.070312 -0.761719,0.5742188 -1.792969,0.5742188 -2.003907,0.5742188 H 30.96593 v 0.46875 h 0.199218 c 0.164063,0 0.714844,-0.011719 1.300782,-0.1992188 v 5.14453126 H 31.083117 V -9.609375e-4 C 31.516711,-0.03611719 32.571398,-0.03611719 33.063586,-0.03611719 c 0.480469,0 1.546875,0 1.980469,0.0351562525 V -0.46971094 h -1.394532 z m 0,0"
         style="fill:#9013fe;fill-opacity:1;fill-rule:nonzero;stroke:none" />
      <path
         id="path30"
         d="m 39.368273,0.23048438 h -0.234375 c -0.02344,0.15234375 -0.08203,0.5625 -0.175781,0.6328125 -0.05859,0.0351563 -0.597656,0.0351563 -0.691406,0.0351563 h -1.289063 c 0.738282,-0.64453125 0.984375,-0.84375 1.394532,-1.171875 0.515625,-0.41015625 0.996093,-0.84374998 0.996093,-1.49999998 0,-0.8437501 -0.738281,-1.3593751 -1.628906,-1.3593751 -0.867187,0 -1.453125,0.609375 -1.453125,1.2421876 0,0.3632812 0.304688,0.3984375 0.375,0.3984375 0.164063,0 0.375,-0.1171875 0.375,-0.375 0,-0.1289063 -0.05859,-0.3632813 -0.421875,-0.3632813 0.222656,-0.5039063 0.691406,-0.65625 1.019531,-0.65625 0.703125,0 1.066407,0.5507812 1.066407,1.1132813 0,0.609375 -0.433594,1.08984373 -0.65625,1.33593748 l -1.6875,1.66406252 c -0.07031,0.058594 -0.07031,0.070312 -0.07031,0.2695313 h 2.882813 z m 0,0"
         style="fill:#9013fe;fill-opacity:1;fill-rule:nonzero;stroke:none" />
      <path
         id="path31"
         d="m 44.709094,-1.7734219 c 0.07031,-0.082031 0.09375,-0.1171875 0.09375,-0.1640625 0,-0.1171875 -0.09375,-0.1757812 -0.164063,-0.1757812 -0.07031,0 -0.09375,0.023437 -0.175781,0.1054687 l -1.535156,1.51171878 -1.535157,-1.52343748 c -0.05859,-0.070312 -0.09375,-0.09375 -0.152343,-0.09375 -0.105469,0 -0.175782,0.070312 -0.175782,0.1757812 0,0.058594 0.02344,0.082031 0.105469,0.1640625 l 1.523438,1.52343753 -1.523438,1.51171877 c -0.09375,0.1054687 -0.105469,0.140625 -0.105469,0.1757812 0,0.1054688 0.07031,0.1757813 0.175782,0.1757813 0.05859,0 0.08203,-0.023437 0.152343,-0.09375 l 1.535157,-1.53515627 1.59375,1.59374997 c 0.03516,0.023437 0.07031,0.035156 0.117187,0.035156 0.07031,0 0.164063,-0.058594 0.164063,-0.1757813 0,-0.058594 -0.01172,-0.070312 -0.03516,-0.082031 -0.01172,-0.035156 -1.371093,-1.38281252 -1.59375,-1.60546877 z m 0,0"
         style="fill:#9013fe;fill-opacity:1;fill-rule:nonzero;stroke:none" />
      <path
         id="path32"
         d="m 49.566516,0.23048438 h -0.234375 c -0.02344,0.15234375 -0.08203,0.5625 -0.175782,0.6328125 -0.05859,0.0351563 -0.597656,0.0351563 -0.691406,0.0351563 h -1.289062 c 0.738281,-0.64453125 0.984375,-0.84375 1.394531,-1.171875 0.515625,-0.41015625 0.996094,-0.84374998 0.996094,-1.49999998 0,-0.8437501 -0.738282,-1.3593751 -1.628907,-1.3593751 -0.867187,0 -1.453125,0.609375 -1.453125,1.2421876 0,0.3632812 0.304688,0.3984375 0.375,0.3984375 0.164063,0 0.375,-0.1171875 0.375,-0.375 0,-0.1289063 -0.05859,-0.3632813 -0.421875,-0.3632813 0.222657,-0.5039063 0.691407,-0.65625 1.019532,-0.65625 0.703125,0 1.066406,0.5507812 1.066406,1.1132813 0,0.609375 -0.433594,1.08984373 -0.65625,1.33593748 l -1.6875,1.66406252 c -0.07031,0.058594 -0.07031,0.070312 -0.07031,0.2695313 H 49.3673 Z m 0,0"
         style="fill:#9013fe;fill-opacity:1;fill-rule:nonzero;stroke:none" />
      <path
         id="path33"
         d="m 52.546008,-0.01267969 c 0,-0.65625 -0.257813,-1.04296871 -0.644531,-1.04296871 -0.328125,0 -0.527344,0.24609371 -0.527344,0.52734371 0,0.26953125 0.199219,0.5273437525 0.527344,0.5273437525 0.117187,0 0.246093,-0.0351562525 0.351562,-0.1289062525 0.02344,-0.0234375 0.03516,-0.0351563 0.04687,-0.0351563 0.01172,0 0.02344,0.0117188 0.02344,0.15234375 0,0.73828125 -0.351563,1.33593754 -0.679688,1.66406254 -0.105469,0.1054688 -0.105469,0.1289063 -0.105469,0.1640625 0,0.070312 0.04687,0.1054688 0.09375,0.1054688 0.117188,0 0.914063,-0.7617188 0.914063,-1.93359384 z M 64.273547,-3.7040859 c 0,-0.4453125 -0.175781,-0.703125 -0.398438,-0.703125 -0.257812,0 -0.527343,0.2460937 -0.527343,0.46875 0,0.1054687 0.04687,0.2109375 0.152343,0.3046875 0.164063,0.140625 0.351563,0.4101562 0.351563,0.8320312 0,0.3984375 -0.1875,0.9726563 -0.503906,1.4296875 -0.292969,0.42187501 -0.667969,0.76171876 -1.136719,0.76171876 -0.5625,0 -0.867188,-0.3515625 -0.960938,-0.89062496 0.105469,-0.2578125 0.339844,-0.9023438 0.339844,-1.1835938 0,-0.1171875 -0.04687,-0.2109375 -0.1875,-0.2109375 -0.07031,0 -0.1875,0.011719 -0.257812,0.1640625 -0.117188,0.1992188 -0.234375,0.84375 -0.234375,1.2070313 -0.328125,0.46875 -0.726563,0.91406246 -1.359375,0.91406246 -0.65625,0 -0.867188,-0.58593746 -0.867188,-1.14843746 0,-1.2421875 1.019531,-2.2851563 1.019531,-2.4140625 0,-0.1171875 -0.08203,-0.1875 -0.1875,-0.1875 -0.128906,0 -0.199218,0.1289062 -0.257812,0.2109375 -0.503906,0.7382812 -0.890625,1.921875 -0.890625,2.8359375 0,0.67968746 0.234375,1.41796871 1.042969,1.41796871 0.714843,0 1.183593,-0.4921875 1.535156,-1.04296875 0.09375,0.57421875 0.480469,1.04296875 1.101562,1.04296875 0.773438,0 1.253907,-0.609375 1.617188,-1.34765621 0.234375,-0.4921875 0.609375,-1.8515625 0.609375,-2.4609375 z m 0,0"
         style="fill:#9013fe;fill-opacity:1;fill-rule:nonzero;stroke:none" />
      <path
         id="path34"
         d="m 74.433703,-3.2587734 c 0.152344,0 0.339844,0 0.339844,-0.1992188 0,-0.1992187 -0.1875,-0.1992187 -0.328125,-0.1992187 h -5.964844 c -0.140625,0 -0.328125,0 -0.328125,0.1992187 0,0.1992188 0.1875,0.1992188 0.339844,0.1992188 z m 0.01172,1.9335937 c 0.140625,0 0.328125,0 0.328125,-0.1992187 0,-0.1992188 -0.1875,-0.1992188 -0.339844,-0.1992188 h -5.941406 c -0.152344,0 -0.339844,0 -0.339844,0.1992188 0,0.1992187 0.1875,0.1992187 0.328125,0.1992187 z m 8.229492,-1.8632812 c 0,-0.796875 -0.04687,-1.59375 -0.398437,-2.3320313 -0.457032,-0.9609375 -1.277344,-1.1132812 -1.6875,-1.1132812 -0.597657,0 -1.335938,0.2578125 -1.734375,1.1835937 -0.328125,0.6914063 -0.375,1.4648438 -0.375,2.2617188 0,0.75 0.04687,1.640625 0.445312,2.40234371 0.433594,0.80859375 1.160156,1.0078125 1.652344,1.0078125 0.539062,0 1.289062,-0.2109375 1.734375,-1.16015625 0.316406,-0.69140626 0.363281,-1.46484376 0.363281,-2.24999996 z m -2.097656,3.1874999625 c -0.386719,0 -0.984375,-0.2460937525 -1.160156,-1.2070312625 -0.105469,-0.5976562 -0.105469,-1.5117187 -0.105469,-2.0976562 0,-0.6445313 0,-1.3007813 0.08203,-1.8398438 0.1875,-1.1835937 0.925781,-1.265625 1.183594,-1.265625 0.328125,0 0.984375,0.1757813 1.171875,1.1601563 0.09375,0.5625 0.09375,1.3125 0.09375,1.9453125 0,0.75 0,1.4179687 -0.105469,2.0625 -0.152344,0.93749996 -0.714844,1.2421874625 -1.160155,1.2421874625 z m 0,0"
         style="fill:#9013fe;fill-opacity:1;fill-rule:nonzero;stroke:none" />
    </g>
    <g
       id="g34"
       aria-label="S=−1&#10;2×2&#10;,ω=2π"
       transform="matrix(1.3333333,0,0,1.3333333,162.224,218.67333)">
      <path
         id="path35"
         d="m 6.4208672,-6.926875 c 0,-0.023437 -0.011719,-0.09375 -0.1054688,-0.09375 -0.046875,0 -0.058594,0.011719 -0.1757812,0.140625 L 5.6591484,-6.3057812 C 5.4013359,-6.7745312 4.8857109,-7.020625 4.2294609,-7.020625 c -1.265625,0 -2.4609375,1.1367188 -2.4609375,2.34375 0,0.8085938 0.5273438,1.265625 1.0429688,1.4179688 l 1.0664062,0.28125 c 0.3632813,0.082031 0.9140625,0.234375 0.9140625,1.0546875 0,0.890625 -0.8203125,1.82812495 -1.7929687,1.82812495 -0.6445313,0 -1.7460938,-0.2109375 -1.7460938,-1.45312495 0,-0.234375 0.046875,-0.4804688 0.058594,-0.5390625 0.011719,-0.035156 0.023437,-0.046875 0.023437,-0.070312 0,-0.09375 -0.070312,-0.1054688 -0.1171875,-0.1054688 -0.058594,0 -0.070312,0.011719 -0.1054688,0.035156 -0.035156,0.046875 -0.59765621,2.32031245 -0.59765621,2.34374995 0,0.0585938 0.046875,0.10546875 0.1171875,0.10546875 0.046875,0 0.0585938,-0.0117188 0.17578125,-0.15234375 L 1.2997734,-0.505 c 0.421875,0.5859375 1.1015625,0.7265625 1.6757813,0.7265625 1.359375,0 2.53125,-1.3242187 2.53125,-2.5664062 0,-0.6796875 -0.3398438,-1.0195313 -0.4921875,-1.1601563 -0.2226563,-0.234375 -0.375,-0.2695312 -1.265625,-0.5039062 C 3.5380547,-4.0675 3.1747734,-4.16125 3.0927422,-4.1846875 c -0.2695313,-0.09375 -0.609375,-0.375 -0.609375,-0.9023437 0,-0.8085938 0.796875,-1.6523438 1.734375,-1.6523438 0.8320312,0 1.4414062,0.421875 1.4414062,1.5351563 0,0.3164062 -0.046875,0.5039062 -0.046875,0.5625 0,0.011719 0,0.09375 0.1289063,0.09375 0.09375,0 0.1054687,-0.023437 0.140625,-0.1992188 z m 0,0"
         style="fill:#4a90e2;fill-opacity:1;fill-rule:nonzero;stroke:none" />
      <path
         id="path36"
         d="m 16.293914,-3.2589062 c 0.152344,0 0.339844,0 0.339844,-0.1992188 0,-0.1992187 -0.1875,-0.1992187 -0.328125,-0.1992187 h -5.964844 c -0.140625,0 -0.328125,0 -0.328125,0.1992187 0,0.1992188 0.1875,0.1992188 0.339844,0.1992188 z m 0.01172,1.9335937 c 0.140625,0 0.328125,0 0.328125,-0.1992187 0,-0.1992188 -0.1875,-0.1992188 -0.339844,-0.1992188 h -5.941406 c -0.152344,0 -0.339844,0 -0.339844,0.1992188 0,0.1992187 0.1875,0.1992187 0.328125,0.1992187 z m 0,0"
         style="fill:#4a90e2;fill-opacity:1;fill-rule:nonzero;stroke:none" />
      <path
         id="path37"
         d="m 26.530242,-2.2979687 c 0.175781,0 0.351563,0 0.351563,-0.1992188 0,-0.1992187 -0.175782,-0.1992187 -0.351563,-0.1992187 h -5.390625 c -0.164062,0 -0.339844,0 -0.339844,0.1992187 0,0.1992188 0.175782,0.1992188 0.339844,0.1992188 z m 0,0"
         style="fill:#4a90e2;fill-opacity:1;fill-rule:nonzero;stroke:none" />
      <path
         id="path38"
         d="m 31.244109,-6.2120312 c 0,-0.2109375 0,-0.3164063 -0.257812,-0.3164063 -0.117188,0 -0.128906,0 -0.222656,0.070312 -0.761719,0.5742188 -1.792969,0.5742188 -2.003907,0.5742188 h -0.199218 v 0.46875 h 0.199218 c 0.164063,0 0.714844,-0.011719 1.300782,-0.1992188 v 5.14453125 h -1.382813 v 0.46875 C 29.111297,-0.03625 30.165984,-0.03625 30.658172,-0.03625 c 0.480469,0 1.546875,0 1.980469,0.03515625 v -0.46875 h -1.394532 z m 0,0"
         style="fill:#4a90e2;fill-opacity:1;fill-rule:nonzero;stroke:none" />
      <path
         id="path39"
         d="m 36.95993,0.23035156 h -0.234375 c -0.02344,0.15234375 -0.08203,0.5625 -0.175782,0.6328125 -0.05859,0.0351563 -0.597656,0.0351563 -0.691406,0.0351563 h -1.289062 c 0.738281,-0.64453125 0.984375,-0.84375 1.394531,-1.171875 0.515625,-0.41015625 0.996094,-0.84374996 0.996094,-1.49999996 0,-0.8437501 -0.738282,-1.3593751 -1.628907,-1.3593751 -0.867187,0 -1.453125,0.609375 -1.453125,1.2421876 0,0.3632813 0.304688,0.3984375 0.375,0.3984375 0.164063,0 0.375,-0.1171875 0.375,-0.375 0,-0.1289062 -0.05859,-0.3632812 -0.421875,-0.3632812 0.222657,-0.5039064 0.691407,-0.65625 1.019532,-0.65625 0.703125,0 1.066406,0.5507811 1.066406,1.1132812 0,0.609375 -0.433594,1.08984371 -0.65625,1.33593746 l -1.6875,1.66406254 c -0.07031,0.058594 -0.07031,0.070312 -0.07031,0.2695313 h 2.882813 z m 0,0"
         style="fill:#4a90e2;fill-opacity:1;fill-rule:nonzero;stroke:none" />
      <path
         id="path40"
         d="m 42.30075,-1.7735547 c 0.07031,-0.082031 0.09375,-0.1171875 0.09375,-0.1640625 0,-0.1171875 -0.09375,-0.1757812 -0.164062,-0.1757812 -0.07031,0 -0.09375,0.023437 -0.175782,0.1054687 L 40.5195,-0.49621094 38.984344,-2.0196484 c -0.05859,-0.070312 -0.09375,-0.09375 -0.152344,-0.09375 -0.105469,0 -0.175781,0.070312 -0.175781,0.1757812 0,0.058594 0.02344,0.082031 0.105469,0.1640625 l 1.523437,1.52343751 -1.523437,1.51171879 c -0.09375,0.1054687 -0.105469,0.140625 -0.105469,0.1757812 0,0.1054688 0.07031,0.1757813 0.175781,0.1757813 0.05859,0 0.08203,-0.023437 0.152344,-0.09375 L 40.5195,-0.01574219 42.11325,1.5780078 c 0.03516,0.023437 0.07031,0.035156 0.117188,0.035156 0.07031,0 0.164062,-0.058594 0.164062,-0.1757813 0,-0.058594 -0.01172,-0.070312 -0.03516,-0.082031 -0.01172,-0.035156 -1.371094,-1.38281254 -1.59375,-1.60546879 z m 0,0"
         style="fill:#4a90e2;fill-opacity:1;fill-rule:nonzero;stroke:none" />
      <path
         id="path41"
         d="m 47.158172,0.23035156 h -0.234375 c -0.02344,0.15234375 -0.08203,0.5625 -0.175781,0.6328125 -0.05859,0.0351563 -0.597657,0.0351563 -0.691407,0.0351563 h -1.289062 c 0.738281,-0.64453125 0.984375,-0.84375 1.394531,-1.171875 0.515625,-0.41015625 0.996094,-0.84374996 0.996094,-1.49999996 0,-0.8437501 -0.738281,-1.3593751 -1.628906,-1.3593751 -0.867188,0 -1.453125,0.609375 -1.453125,1.2421876 0,0.3632813 0.304687,0.3984375 0.375,0.3984375 0.164062,0 0.375,-0.1171875 0.375,-0.375 0,-0.1289062 -0.05859,-0.3632812 -0.421875,-0.3632812 0.222656,-0.5039064 0.691406,-0.65625 1.019531,-0.65625 0.703125,0 1.066406,0.5507811 1.066406,1.1132812 0,0.609375 -0.433594,1.08984371 -0.65625,1.33593746 l -1.6875,1.66406254 c -0.07031,0.058594 -0.07031,0.070312 -0.07031,0.2695313 h 2.882812 z m 0,0"
         style="fill:#4a90e2;fill-opacity:1;fill-rule:nonzero;stroke:none" />
      <path
         id="path42"
         d="m 50.137664,-0.0128125 c 0,-0.65625 -0.257812,-1.0429687 -0.644531,-1.0429687 -0.328125,0 -0.527344,0.2460937 -0.527344,0.5273437 0,0.26953125 0.199219,0.52734375 0.527344,0.52734375 0.117187,0 0.246094,-0.03515625 0.351562,-0.12890625 0.02344,-0.0234375 0.03516,-0.0351563 0.04687,-0.0351563 0.01172,0 0.02344,0.0117188 0.02344,0.15234375 0,0.73828125 -0.351563,1.33593745 -0.679688,1.66406245 -0.105468,0.1054688 -0.105468,0.1289063 -0.105468,0.1640625 0,0.070312 0.04687,0.1054688 0.09375,0.1054688 0.117187,0 0.914062,-0.7617188 0.914062,-1.93359375 z m 11.727539,-3.6914062 c 0,-0.4453125 -0.175781,-0.703125 -0.398437,-0.703125 -0.257813,0 -0.527344,0.2460937 -0.527344,0.46875 0,0.1054687 0.04687,0.2109375 0.152344,0.3046875 0.164062,0.140625 0.351562,0.4101562 0.351562,0.8320312 0,0.3984375 -0.1875,0.9726563 -0.503906,1.4296875 -0.292969,0.421875 -0.667969,0.76171875 -1.136719,0.76171875 -0.5625,0 -0.867187,-0.3515625 -0.960937,-0.89062495 0.105468,-0.2578125 0.339843,-0.9023438 0.339843,-1.1835938 0,-0.1171875 -0.04687,-0.2109375 -0.1875,-0.2109375 -0.07031,0 -0.1875,0.011719 -0.257812,0.1640625 -0.117188,0.1992188 -0.234375,0.84375 -0.234375,1.2070313 -0.328125,0.46875 -0.726563,0.91406245 -1.359375,0.91406245 -0.65625,0 -0.867188,-0.58593745 -0.867188,-1.14843745 0,-1.2421875 1.019532,-2.2851563 1.019532,-2.4140625 0,-0.1171875 -0.08203,-0.1875 -0.1875,-0.1875 -0.128907,0 -0.199219,0.1289062 -0.257813,0.2109375 -0.503906,0.7382812 -0.890625,1.921875 -0.890625,2.8359375 0,0.67968745 0.234375,1.4179687 1.042969,1.4179687 0.714844,0 1.183594,-0.4921875 1.535156,-1.04296875 0.09375,0.57421875 0.480469,1.04296875 1.101563,1.04296875 0.773437,0 1.253906,-0.609375 1.617187,-1.3476562 0.234375,-0.4921875 0.609375,-1.8515625 0.609375,-2.4609375 z m 0,0"
         style="fill:#4a90e2;fill-opacity:1;fill-rule:nonzero;stroke:none" />
      <path
         id="path43"
         d="m 72.025359,-3.2589062 c 0.152344,0 0.339844,0 0.339844,-0.1992188 0,-0.1992187 -0.1875,-0.1992187 -0.328125,-0.1992187 h -5.964844 c -0.140625,0 -0.328125,0 -0.328125,0.1992187 0,0.1992188 0.1875,0.1992188 0.339844,0.1992188 z m 0.01172,1.9335937 c 0.140625,0 0.328125,0 0.328125,-0.1992187 0,-0.1992188 -0.1875,-0.1992188 -0.339844,-0.1992188 h -5.941406 c -0.152344,0 -0.339844,0 -0.339844,0.1992188 0,0.1992187 0.1875,0.1992187 0.328125,0.1992187 z m 4.913086,0.5625 1.054688,-1.03125 c 1.558593,-1.3710937 2.15625,-1.9101562 2.15625,-2.90625 0,-1.1367187 -0.902344,-1.9335937 -2.121094,-1.9335937 -1.125,0 -1.851563,0.9140625 -1.851563,1.8046875 0,0.5507812 0.492188,0.5507812 0.527344,0.5507812 0.164063,0 0.515625,-0.1171875 0.515625,-0.5273437 0,-0.2578125 -0.1875,-0.515625 -0.527344,-0.515625 -0.08203,0 -0.105468,0 -0.128906,0.011719 0.222656,-0.6445312 0.761719,-1.0195312 1.335938,-1.0195312 0.914062,0 1.335937,0.8085937 1.335937,1.6289062 0,0.796875 -0.492187,1.5820313 -1.042969,2.203125 l -1.910156,2.1328125 c -0.105469,0.10546875 -0.105469,0.12890625 -0.105469,0.36328125 h 3.691407 l 0.28125,-1.73437495 H 79.90329 c -0.04687,0.3046875 -0.117187,0.7382812 -0.210937,0.89062495 -0.07031,0.0820313 -0.726563,0.0820313 -0.949219,0.0820313 z m 0,0"
         style="fill:#4a90e2;fill-opacity:1;fill-rule:nonzero;stroke:none" />
      <path
         id="path44"
         d="m 83.316375,-3.7159375 h 1.125 c -0.328125,1.4765625 -0.410156,1.8984375 -0.410156,2.5664063 0,0.1523437 0,0.42187495 0.07031,0.7617187 0.105469,0.43359375 0.210938,0.4921875 0.363282,0.4921875 0.199218,0 0.410156,-0.17578125 0.410156,-0.375 0,-0.0585938 0,-0.0820313 -0.05859,-0.22265625 -0.292969,-0.71484375 -0.292969,-1.35937495 -0.292969,-1.64062495 0,-0.5273438 0.07031,-1.0664063 0.175782,-1.5820313 h 1.136718 c 0.128907,0 0.492188,0 0.492188,-0.3398437 0,-0.234375 -0.210938,-0.234375 -0.398438,-0.234375 h -3.339843 c -0.210938,0 -0.597657,0 -1.03125,0.46875 -0.351563,0.3867187 -0.609375,0.84375 -0.609375,0.890625 0,0.011719 0,0.1054687 0.117187,0.1054687 0.08203,0 0.105469,-0.046875 0.164063,-0.1289062 0.480468,-0.7617188 1.066406,-0.7617188 1.265625,-0.7617188 h 0.5625 c -0.316407,1.2070313 -0.855469,2.4140625 -1.277344,3.31640625 -0.07031,0.15234375 -0.07031,0.1640625 -0.07031,0.234375 0,0.19921875 0.152344,0.26953125 0.28125,0.26953125 0.304688,0 0.386719,-0.26953125 0.503907,-0.64453125 0.140625,-0.45703125 0.140625,-0.48046875 0.269531,-0.97265625 z m 0,0"
         style="fill:#4a90e2;fill-opacity:1;fill-rule:nonzero;stroke:none" />
    </g>
  </g>
</svg>
