<?xml version="1.0" encoding="UTF-8" standalone="no"?>
<!-- Created with Inkscape (http://www.inkscape.org/) -->

<svg
   version="1.1"
   id="svg1"
   width="615.90668"
   height="199.73334"
   viewBox="0 0 615.90668 199.73334"
   sodipodi:docname="tensor-product-Young-diagram-2.pdf"
   xmlns:inkscape="http://www.inkscape.org/namespaces/inkscape"
   xmlns:sodipodi="http://sodipodi.sourceforge.net/DTD/sodipodi-0.dtd"
   xmlns="http://www.w3.org/2000/svg"
   xmlns:svg="http://www.w3.org/2000/svg">
  <defs
     id="defs1" />
  <sodipodi:namedview
     id="namedview1"
     pagecolor="#ffffff"
     bordercolor="#000000"
     borderopacity="0.25"
     inkscape:showpageshadow="2"
     inkscape:pageopacity="0.0"
     inkscape:pagecheckerboard="0"
     inkscape:deskcolor="#d1d1d1">
    <inkscape:page
       x="0"
       y="0"
       inkscape:label="1"
       id="page1"
       width="615.90668"
       height="199.73334"
       margin="0"
       bleed="0" />
  </sodipodi:namedview>
  <g
     id="g1"
     inkscape:groupmode="layer"
     inkscape:label="1">
    <path
       id="path1"
       d="M 37.36038,-53.79895 H 60.70314 V -77.14171 H 37.36038 Z"
       style="fill:#f5a623;fill-opacity:0.2;fill-rule:nonzero;stroke:#000000;stroke-width:0.74721;stroke-linecap:butt;stroke-linejoin:miter;stroke-miterlimit:10;stroke-dasharray:none;stroke-opacity:1"
       transform="matrix(1.3333333,0,0,-1.3333333,-2.052,-71.230667)" />
    <path
       id="path2"
       d="M 60.70314,-53.79895 H 84.0459 V -77.14171 H 60.70314 Z"
       style="fill:#f5a623;fill-opacity:0.2;fill-rule:nonzero;stroke:#000000;stroke-width:0.74721;stroke-linecap:butt;stroke-linejoin:miter;stroke-miterlimit:10;stroke-dasharray:none;stroke-opacity:1"
       transform="matrix(1.3333333,0,0,-1.3333333,-2.052,-71.230667)" />
    <path
       id="path3"
       d="m 84.0459,-53.79895 h 23.34277 V -77.14171 H 84.0459 Z"
       style="fill:#f5a623;fill-opacity:0.2;fill-rule:nonzero;stroke:#000000;stroke-width:0.74721;stroke-linecap:butt;stroke-linejoin:miter;stroke-miterlimit:10;stroke-dasharray:none;stroke-opacity:1"
       transform="matrix(1.3333333,0,0,-1.3333333,-2.052,-71.230667)" />
    <path
       id="path4"
       d="m 107.38867,-53.79895 h 23.34278 v -23.34276 h -23.34278 z"
       style="fill:#f5a623;fill-opacity:0.2;fill-rule:nonzero;stroke:#000000;stroke-width:0.74721;stroke-linecap:butt;stroke-linejoin:miter;stroke-miterlimit:10;stroke-dasharray:none;stroke-opacity:1"
       transform="matrix(1.3333333,0,0,-1.3333333,-2.052,-71.230667)" />
    <path
       id="path5"
       d="m 169.4069,-53.79895 h 23.34278 V -77.14171 H 169.4069 Z"
       style="fill:#f5a623;fill-opacity:0.2;fill-rule:nonzero;stroke:#000000;stroke-width:0.74721;stroke-linecap:butt;stroke-linejoin:miter;stroke-miterlimit:10;stroke-dasharray:none;stroke-opacity:1"
       transform="matrix(1.3333333,0,0,-1.3333333,-2.052,-71.230667)" />
    <path
       id="path6"
       d="m 37.36038,-106.10349 h 23.34276 v -23.34275 H 37.36038 Z"
       style="fill:#f5a623;fill-opacity:0.2;fill-rule:nonzero;stroke:#000000;stroke-width:0.74721;stroke-linecap:butt;stroke-linejoin:miter;stroke-miterlimit:10;stroke-dasharray:none;stroke-opacity:1"
       transform="matrix(1.3333333,0,0,-1.3333333,-2.052,-71.230667)" />
    <path
       id="path7"
       d="M 60.70314,-106.10349 H 84.0459 v -23.34275 H 60.70314 Z"
       style="fill:#f5a623;fill-opacity:0.2;fill-rule:nonzero;stroke:#000000;stroke-width:0.74721;stroke-linecap:butt;stroke-linejoin:miter;stroke-miterlimit:10;stroke-dasharray:none;stroke-opacity:1"
       transform="matrix(1.3333333,0,0,-1.3333333,-2.052,-71.230667)" />
    <path
       id="path8"
       d="m 84.0459,-106.10349 h 23.34277 v -23.34275 H 84.0459 Z"
       style="fill:#f5a623;fill-opacity:0.2;fill-rule:nonzero;stroke:#000000;stroke-width:0.74721;stroke-linecap:butt;stroke-linejoin:miter;stroke-miterlimit:10;stroke-dasharray:none;stroke-opacity:1"
       transform="matrix(1.3333333,0,0,-1.3333333,-2.052,-71.230667)" />
    <path
       id="path9"
       d="m 107.38867,-106.10349 h 23.34278 v -23.34275 h -23.34278 z"
       style="fill:#f5a623;fill-opacity:0.2;fill-rule:nonzero;stroke:#000000;stroke-width:0.74721;stroke-linecap:butt;stroke-linejoin:miter;stroke-miterlimit:10;stroke-dasharray:none;stroke-opacity:1"
       transform="matrix(1.3333333,0,0,-1.3333333,-2.052,-71.230667)" />
    <path
       id="path10"
       d="m 169.4069,-106.10349 h 23.34278 v -23.34275 H 169.4069 Z"
       style="fill:#f5a623;fill-opacity:0.2;fill-rule:nonzero;stroke:#000000;stroke-width:0.74721;stroke-linecap:butt;stroke-linejoin:miter;stroke-miterlimit:10;stroke-dasharray:none;stroke-opacity:1"
       transform="matrix(1.3333333,0,0,-1.3333333,-2.052,-71.230667)" />
    <path
       id="path11"
       d="M 5.23045,-118.80602 H 20.74246"
       style="fill:none;stroke:#000000;stroke-width:0.74721;stroke-linecap:butt;stroke-linejoin:miter;stroke-miterlimit:10;stroke-dasharray:none;stroke-opacity:1"
       transform="matrix(1.3333333,0,0,-1.3333333,-2.052,-71.230667)" />
    <path
       id="path12"
       d="m 14.97403,-122.65411 8.01006,3.84809 -8.01006,3.84812 2.68994,-3.84812 z"
       style="fill:#000000;fill-opacity:1;fill-rule:nonzero;stroke:#000000;stroke-width:0.0797;stroke-linecap:butt;stroke-linejoin:miter;stroke-miterlimit:10;stroke-dasharray:none;stroke-opacity:0"
       transform="matrix(1.3333333,0,0,-1.3333333,-2.052,-71.230667)" />
    <path
       id="path13"
       d="m 37.36038,-156.1664 h 23.34276 v -23.34276 H 37.36038 Z"
       style="fill:#f5a623;fill-opacity:0.2;fill-rule:nonzero;stroke:#000000;stroke-width:0.74721;stroke-linecap:butt;stroke-linejoin:miter;stroke-miterlimit:10;stroke-dasharray:none;stroke-opacity:1"
       transform="matrix(1.3333333,0,0,-1.3333333,-2.052,-71.230667)" />
    <path
       id="path14"
       d="M 60.70314,-156.1664 H 84.0459 v -23.34276 H 60.70314 Z"
       style="fill:#f5a623;fill-opacity:0.2;fill-rule:nonzero;stroke:#000000;stroke-width:0.74721;stroke-linecap:butt;stroke-linejoin:miter;stroke-miterlimit:10;stroke-dasharray:none;stroke-opacity:1"
       transform="matrix(1.3333333,0,0,-1.3333333,-2.052,-71.230667)" />
    <path
       id="path15"
       d="m 84.0459,-156.1664 h 23.34277 v -23.34276 H 84.0459 Z"
       style="fill:#f5a623;fill-opacity:0.2;fill-rule:nonzero;stroke:#000000;stroke-width:0.74721;stroke-linecap:butt;stroke-linejoin:miter;stroke-miterlimit:10;stroke-dasharray:none;stroke-opacity:1"
       transform="matrix(1.3333333,0,0,-1.3333333,-2.052,-71.230667)" />
    <path
       id="path16"
       d="m 107.38867,-156.1664 h 23.34278 v -23.34276 h -23.34278 z"
       style="fill:#f5a623;fill-opacity:0.2;fill-rule:nonzero;stroke:#000000;stroke-width:0.74721;stroke-linecap:butt;stroke-linejoin:miter;stroke-miterlimit:10;stroke-dasharray:none;stroke-opacity:1"
       transform="matrix(1.3333333,0,0,-1.3333333,-2.052,-71.230667)" />
    <path
       id="path17"
       d="m 37.36038,-179.50916 h 23.34276 v -23.34275 H 37.36038 Z"
       style="fill:#f5a623;fill-opacity:0.2;fill-rule:nonzero;stroke:#000000;stroke-width:0.74721;stroke-linecap:butt;stroke-linejoin:miter;stroke-miterlimit:10;stroke-dasharray:none;stroke-opacity:1"
       transform="matrix(1.3333333,0,0,-1.3333333,-2.052,-71.230667)" />
    <path
       id="path18"
       d="m 171.11055,-156.1664 h 23.34276 v -23.34276 h -23.34276 z"
       style="fill:#f5a623;fill-opacity:0.2;fill-rule:nonzero;stroke:#000000;stroke-width:0.74721;stroke-linecap:butt;stroke-linejoin:miter;stroke-miterlimit:10;stroke-dasharray:none;stroke-opacity:1"
       transform="matrix(1.3333333,0,0,-1.3333333,-2.052,-71.230667)" />
    <path
       id="path19"
       d="m 194.45331,-156.1664 h 23.34276 v -23.34276 h -23.34276 z"
       style="fill:#f5a623;fill-opacity:0.2;fill-rule:nonzero;stroke:#000000;stroke-width:0.74721;stroke-linecap:butt;stroke-linejoin:miter;stroke-miterlimit:10;stroke-dasharray:none;stroke-opacity:1"
       transform="matrix(1.3333333,0,0,-1.3333333,-2.052,-71.230667)" />
    <path
       id="path20"
       d="m 217.79607,-156.1664 h 23.34277 v -23.34276 h -23.34277 z"
       style="fill:#f5a623;fill-opacity:0.2;fill-rule:nonzero;stroke:#000000;stroke-width:0.74721;stroke-linecap:butt;stroke-linejoin:miter;stroke-miterlimit:10;stroke-dasharray:none;stroke-opacity:1"
       transform="matrix(1.3333333,0,0,-1.3333333,-2.052,-71.230667)" />
    <path
       id="path21"
       d="m 241.13884,-156.1664 h 23.34277 v -23.34276 h -23.34277 z"
       style="fill:#f5a623;fill-opacity:0.2;fill-rule:nonzero;stroke:#000000;stroke-width:0.74721;stroke-linecap:butt;stroke-linejoin:miter;stroke-miterlimit:10;stroke-dasharray:none;stroke-opacity:1"
       transform="matrix(1.3333333,0,0,-1.3333333,-2.052,-71.230667)" />
    <path
       id="path22"
       d="m 264.48161,-156.1664 h 23.35024 v -23.34276 h -23.35024 z"
       style="fill:#f5a623;fill-opacity:0.2;fill-rule:nonzero;stroke:#000000;stroke-width:0.74721;stroke-linecap:butt;stroke-linejoin:miter;stroke-miterlimit:10;stroke-dasharray:none;stroke-opacity:1"
       transform="matrix(1.3333333,0,0,-1.3333333,-2.052,-71.230667)" />
    <path
       id="path23"
       d="M 5.23045,-180.07704 H 20.74246"
       style="fill:none;stroke:#000000;stroke-width:0.74721;stroke-linecap:butt;stroke-linejoin:miter;stroke-miterlimit:10;stroke-dasharray:none;stroke-opacity:1"
       transform="matrix(1.3333333,0,0,-1.3333333,-2.052,-71.230667)" />
    <path
       id="path24"
       d="m 14.97403,-183.92514 8.01006,3.8481 -8.01006,3.84811 2.68994,-3.84811 z"
       style="fill:#000000;fill-opacity:1;fill-rule:nonzero;stroke:#000000;stroke-width:0.0797;stroke-linecap:butt;stroke-linejoin:miter;stroke-miterlimit:10;stroke-dasharray:none;stroke-opacity:0"
       transform="matrix(1.3333333,0,0,-1.3333333,-2.052,-71.230667)" />
    <path
       id="path25"
       d="m 192.74968,-53.79895 h 23.35023 v -23.34276 h -23.35023 z"
       style="fill:#f5a623;fill-opacity:0.2;fill-rule:nonzero;stroke:#000000;stroke-width:0.74721;stroke-linecap:butt;stroke-linejoin:miter;stroke-miterlimit:10;stroke-dasharray:none;stroke-opacity:1"
       transform="matrix(1.3333333,0,0,-1.3333333,-2.052,-71.230667)" />
    <path
       id="path26"
       d="m 192.74968,-106.10349 h 23.35023 v -23.34275 h -23.35023 z"
       style="fill:#f5a623;fill-opacity:0.2;fill-rule:nonzero;stroke:#000000;stroke-width:0.74721;stroke-linecap:butt;stroke-linejoin:miter;stroke-miterlimit:10;stroke-dasharray:none;stroke-opacity:1"
       transform="matrix(1.3333333,0,0,-1.3333333,-2.052,-71.230667)" />
    <path
       id="path27"
       d="M 60.70314,-179.50916 H 84.0459 v -23.34275 H 60.70314 Z"
       style="fill:#f5a623;fill-opacity:0.2;fill-rule:nonzero;stroke:#000000;stroke-width:0.74721;stroke-linecap:butt;stroke-linejoin:miter;stroke-miterlimit:10;stroke-dasharray:none;stroke-opacity:1"
       transform="matrix(1.3333333,0,0,-1.3333333,-2.052,-71.230667)" />
    <path
       id="path28"
       d="m 171.11055,-179.50916 h 23.34276 v -23.34275 h -23.34276 z"
       style="fill:#f5a623;fill-opacity:0.2;fill-rule:nonzero;stroke:#000000;stroke-width:0.74721;stroke-linecap:butt;stroke-linejoin:miter;stroke-miterlimit:10;stroke-dasharray:none;stroke-opacity:1"
       transform="matrix(1.3333333,0,0,-1.3333333,-2.052,-71.230667)" />
    <path
       id="path29"
       d="m 323.04027,-156.271 h 23.34277 v -23.34277 h -23.34277 z"
       style="fill:#f5a623;fill-opacity:0.2;fill-rule:nonzero;stroke:#000000;stroke-width:0.74721;stroke-linecap:butt;stroke-linejoin:miter;stroke-miterlimit:10;stroke-dasharray:none;stroke-opacity:1"
       transform="matrix(1.3333333,0,0,-1.3333333,-2.052,-71.230667)" />
    <path
       id="path30"
       d="m 346.38304,-156.271 h 23.35024 v -23.34277 h -23.35024 z"
       style="fill:#f5a623;fill-opacity:0.2;fill-rule:nonzero;stroke:#000000;stroke-width:0.74721;stroke-linecap:butt;stroke-linejoin:miter;stroke-miterlimit:10;stroke-dasharray:none;stroke-opacity:1"
       transform="matrix(1.3333333,0,0,-1.3333333,-2.052,-71.230667)" />
    <path
       id="path31"
       d="m 369.73328,-156.271 h 23.34277 v -23.34277 h -23.34277 z"
       style="fill:#f5a623;fill-opacity:0.2;fill-rule:nonzero;stroke:#000000;stroke-width:0.74721;stroke-linecap:butt;stroke-linejoin:miter;stroke-miterlimit:10;stroke-dasharray:none;stroke-opacity:1"
       transform="matrix(1.3333333,0,0,-1.3333333,-2.052,-71.230667)" />
    <path
       id="path32"
       d="m 393.07605,-156.271 h 23.34276 v -23.34277 h -23.34276 z"
       style="fill:#f5a623;fill-opacity:0.2;fill-rule:nonzero;stroke:#000000;stroke-width:0.74721;stroke-linecap:butt;stroke-linejoin:miter;stroke-miterlimit:10;stroke-dasharray:none;stroke-opacity:1"
       transform="matrix(1.3333333,0,0,-1.3333333,-2.052,-71.230667)" />
    <path
       id="path33"
       d="m 416.41881,-156.271 h 23.34276 v -23.34277 h -23.34276 z"
       style="fill:#f5a623;fill-opacity:0.2;fill-rule:nonzero;stroke:#000000;stroke-width:0.74721;stroke-linecap:butt;stroke-linejoin:miter;stroke-miterlimit:10;stroke-dasharray:none;stroke-opacity:1"
       transform="matrix(1.3333333,0,0,-1.3333333,-2.052,-71.230667)" />
    <path
       id="path34"
       d="m 439.76157,-156.271 h 23.34277 v -23.34277 h -23.34277 z"
       style="fill:#f5a623;fill-opacity:0.2;fill-rule:nonzero;stroke:#000000;stroke-width:0.74721;stroke-linecap:butt;stroke-linejoin:miter;stroke-miterlimit:10;stroke-dasharray:none;stroke-opacity:1"
       transform="matrix(1.3333333,0,0,-1.3333333,-2.052,-71.230667)" />
    <path
       id="path35"
       d="m 7.1942344,-2.4953438 c 0,-1.828125 -1.5,-3.3164062 -3.3164063,-3.3164062 -1.8515625,0 -3.32812497,1.5117187 -3.32812497,3.3164062 0,1.8398438 1.48828127,3.32812505 3.31640627,3.32812505 1.8515625,0 3.328125,-1.51171875 3.328125,-3.32812505 z m -5.296875,-2.1328125 c -0.023437,-0.023437 -0.09375,-0.09375 -0.09375,-0.1171875 0,-0.035156 0.8085937,-0.8085937 2.0625,-0.8085937 0.3515625,0 1.265625,0.046875 2.0742187,0.8085937 l -2.0625,2.0859375 z M 1.6043906,-0.40940625 C 0.99501563,-1.0890938 0.79579688,-1.8508125 0.79579688,-2.4953438 c 0,-0.7617187 0.29296872,-1.4882812 0.80859372,-2.0742187 l 2.0859375,2.0742187 z M 6.1278281,-4.5695625 c 0.4804688,0.5039062 0.8085938,1.265625 0.8085938,2.0742187 0,0.7734375 -0.28125,1.50000005 -0.796875,2.08593755 L 4.0536094,-2.4953438 Z m -0.28125,4.21875 c 0.023437,0.0234375 0.09375,0.09375 0.09375,0.1171875 0,0.0351563 -0.8085937,0.80859375 -2.0625,0.80859375 -0.3515625,0 -1.265625,-0.046875 -2.0859375,-0.80859375 l 2.0742188,-2.0859375 z m 0,0"
       style="fill:#000000;fill-opacity:1;fill-rule:nonzero;stroke:none"
       aria-label="⊗"
       transform="matrix(1.3333333,0,0,1.3333333,190.728,15.124)" />
    <path
       id="path36"
       d="m 7.1942344,-2.4966328 c 0,-1.828125 -1.5,-3.3164063 -3.3164063,-3.3164063 -1.8515625,0 -3.32812497,1.5117188 -3.32812497,3.3164063 0,1.83984374 1.48828127,3.32812499 3.31640627,3.32812499 1.8515625,0 3.328125,-1.51171875 3.328125,-3.32812499 z m -5.296875,-2.1328125 c -0.023437,-0.023437 -0.09375,-0.09375 -0.09375,-0.1171875 0,-0.035156 0.8085937,-0.8085938 2.0625,-0.8085938 0.3515625,0 1.265625,0.046875 2.0742187,0.8085938 l -2.0625,2.0859375 z M 1.6043906,-0.41069531 C 0.99501563,-1.0903828 0.79579688,-1.8521016 0.79579688,-2.4966328 c 0,-0.7617188 0.29296872,-1.4882813 0.80859372,-2.0742188 l 2.0859375,2.0742188 z M 6.1278281,-4.5708516 c 0.4804688,0.5039063 0.8085938,1.265625 0.8085938,2.0742188 0,0.7734375 -0.28125,1.49999999 -0.796875,2.08593749 L 4.0536094,-2.4966328 Z m -0.28125,4.21875004 c 0.023437,0.0234375 0.09375,0.09375 0.09375,0.1171875 0,0.0351563 -0.8085937,0.80859375 -2.0625,0.80859375 -0.3515625,0 -1.265625,-0.046875 -2.0859375,-0.80859375 L 3.8661094,-2.3208516 Z m 0,0"
       style="fill:#000000;fill-opacity:1;fill-rule:nonzero;stroke:none"
       aria-label="⊗"
       transform="matrix(1.3333333,0,0,1.3333333,190.728,84.864)" />
    <path
       id="path37"
       d="m 2.9304922,-6.3754766 c 0,-0.234375 0,-0.2578125 -0.234375,-0.2578125 -0.609375,0.6328125 -1.4882813,0.6328125 -1.80468751,0.6328125 v 0.3164063 c 0.19921871,0 0.78515621,0 1.30078121,-0.2578125 v 5.15624999 c 0,0.3515625 -0.035156,0.48046875 -0.9257812,0.48046875 H 0.95002344 V -4.765625e-4 C 1.3015859,-0.03563281 2.1570547,-0.03563281 2.5554922,-0.03563281 c 0.3984375,0 1.265625,0 1.6171875,0.0351562475 V -0.30516406 H 3.8562734 c -0.9023437,0 -0.9257812,-0.1171875 -0.9257812,-0.48046875 z m 0,0"
       style="fill:#000000;fill-opacity:1;fill-rule:nonzero;stroke:none"
       aria-label="1"
       transform="matrix(1.3333333,0,0,1.3333333,236.06533,90.082667)" />
    <path
       id="path38"
       d="m 5.9402109,-5.6719375 0.140625,-0.140625 c 0.3046875,-0.2929688 0.6328125,-0.6328125 1.3125,-0.6796875 0.1054688,-0.011719 0.1992188,-0.011719 0.1992188,-0.1875 0,-0.082031 -0.058594,-0.1289063 -0.1289063,-0.1289063 -0.2578125,0 -0.5507812,0.035156 -0.8203125,0.035156 -0.328125,0 -0.6796875,-0.035156 -0.9960937,-0.035156 -0.058594,0 -0.1875,0 -0.1875,0.1992188 0,0.1054687 0.09375,0.1171875 0.1523437,0.1171875 0.070312,0 0.3515625,0.011719 0.3515625,0.2226562 0,0.1757813 -0.2226562,0.4335938 -0.2695312,0.4804688 l -2.3085938,2.6601562 -1.0898437,-2.953125 c -0.070312,-0.140625 -0.070312,-0.1640625 -0.070312,-0.1757812 0,-0.234375 0.4921875,-0.234375 0.5976562,-0.234375 0.1289063,0 0.234375,0 0.234375,-0.1992188 0,-0.1171875 -0.1171875,-0.1171875 -0.1523437,-0.1171875 -0.28125,0 -0.9726563,0.035156 -1.2539063,0.035156 -0.2460937,0 -0.86718746,-0.035156 -1.11328121,-0.035156 -0.0585938,0 -0.1875,0 -0.1875,0.1992188 0,0.1171875 0.09375,0.1171875 0.22265625,0.1171875 0.59765626,0 0.64453126,0.082031 0.72656246,0.3398437 l 1.2304688,3.2695313 c 0.011719,0.035156 0.035156,0.140625 0.035156,0.1757812 0,0.023437 -0.3984375,1.6289063 -0.4453125,1.80468755 -0.1289062,0.55078125 -0.140625,0.5859375 -0.9375,0.59765625 -0.18749996,0 -0.26953121,0 -0.26953121,0.19921875 0,0.10546875 0.11718751,0.10546875 0.14062501,0.10546875 0.28125,0 0.9726562,-0.03515625 1.2539062,-0.03515625 0.28125,0 0.9960938,0.03515625 1.2773438,0.03515625 0.070312,0 0.1875,0 0.1875,-0.19921875 0,-0.10546875 -0.082031,-0.10546875 -0.28125,-0.10546875 -0.011719,0 -0.1992188,0 -0.375,-0.0234375 C 2.9050547,-0.351625 2.8464609,-0.36334375 2.8464609,-0.49225 c 0,-0.0703125 0.09375,-0.41015625 0.140625,-0.6210938 l 0.3515625,-1.40625 c 0.046875,-0.1875 0.058594,-0.2226562 0.140625,-0.3046875 z m 0,0"
       style="fill:#000000;fill-opacity:1;fill-rule:nonzero;stroke:none"
       aria-label="Y"
       transform="matrix(1.3333333,0,0,1.3333333,233.568,62.281333)" />
    <path
       id="path39"
       d="m 2.9306172,-6.3752266 c 0,-0.234375 0,-0.2578125 -0.234375,-0.2578125 -0.609375,0.6328125 -1.4882813,0.6328125 -1.80468751,0.6328125 v 0.3164063 c 0.19921871,0 0.78515621,0 1.30078121,-0.2578125 v 5.15624999 c 0,0.3515625 -0.035156,0.48046875 -0.9257812,0.48046875 H 0.95014844 V -2.265625e-4 C 1.3017109,-0.03538281 2.1571797,-0.03538281 2.5556172,-0.03538281 c 0.3984375,0 1.265625,0 1.6171875,0.0351562475 V -0.30491406 H 3.8563984 c -0.9023437,0 -0.9257812,-0.1171875 -0.9257812,-0.48046875 z m 0,0"
       style="fill:#000000;fill-opacity:1;fill-rule:nonzero;stroke:none"
       aria-label="1"
       transform="matrix(1.3333333,0,0,1.3333333,60.002667,187.95733)" />
    <path
       id="path40"
       d="m 2.9285703,-6.3759766 c 0,-0.234375 0,-0.2578125 -0.234375,-0.2578125 -0.609375,0.6328125 -1.4882812,0.6328125 -1.80468749,0.6328125 v 0.3164063 c 0.19921879,0 0.78515629,0 1.30078129,-0.2578125 v 5.15624999 c 0,0.3515625 -0.035156,0.48046875 -0.9257813,0.48046875 H 0.94810156 V -9.765625e-4 C 1.2996641,-0.03613281 2.1551328,-0.03613281 2.5535703,-0.03613281 c 0.3984375,0 1.265625,0 1.6171875,0.0351562475 V -0.30566406 H 3.8543516 c -0.9023438,0 -0.9257813,-0.1171875 -0.9257813,-0.48046875 z m 0,0"
       style="fill:#000000;fill-opacity:1;fill-rule:nonzero;stroke:none"
       aria-label="1"
       transform="matrix(1.3333333,0,0,1.3333333,362.84133,156.83333)" />
    <path
       id="path41"
       d="m 7.1951641,-2.4968672 c 0,-1.828125 -1.5,-3.3164062 -3.3164063,-3.3164062 -1.8515625,0 -3.32812499,1.5117187 -3.32812499,3.3164062 0,1.83984376 1.48828129,3.32812501 3.31640629,3.32812501 1.8515625,0 3.328125,-1.51171875 3.328125,-3.32812501 z M 0.79672656,-2.6257734 C 0.90219531,-4.2898359 2.1912578,-5.4851484 3.7498516,-5.5554609 v 2.9296875 z M 3.9959453,-5.5554609 c 1.5585938,0.070312 2.8476563,1.265625 2.9414063,2.9296875 H 3.9959453 Z M 3.7498516,0.57344531 C 2.2029766,0.50313281 0.90219531,-0.66874219 0.79672656,-2.3679609 H 3.7498516 Z m 3.1875,-2.94140621 c -0.09375,1.69921871 -1.40625,2.87109371 -2.9414063,2.94140621 V -2.3679609 Z m 0,0"
       style="fill:#000000;fill-opacity:1;fill-rule:nonzero;stroke:none"
       aria-label="⊕"
       transform="matrix(1.3333333,0,0,1.3333333,189.73067,170.544)" />
    <path
       id="path42"
       d="m 2.9301016,-6.3754766 c 0,-0.234375 0,-0.2578125 -0.234375,-0.2578125 -0.609375,0.6328125 -1.4882813,0.6328125 -1.80468754,0.6328125 v 0.3164063 c 0.19921874,0 0.78515624,0 1.30078124,-0.2578125 v 5.15624999 c 0,0.3515625 -0.035156,0.48046875 -0.9257812,0.48046875 H 0.94963281 V -4.765625e-4 C 1.3011953,-0.03563281 2.1566641,-0.03563281 2.5551016,-0.03563281 c 0.3984375,0 1.265625,0 1.6171875,0.0351562475 V -0.30516406 H 3.8558828 c -0.9023437,0 -0.9257812,-0.1171875 -0.9257812,-0.48046875 z m 0,0"
       style="fill:#000000;fill-opacity:1;fill-rule:nonzero;stroke:none"
       aria-label="1"
       transform="matrix(1.3333333,0,0,1.3333333,267.19867,90.082667)" />
    <path
       id="path43"
       d="m 2.9284375,-6.3752266 c 0,-0.234375 0,-0.2578125 -0.234375,-0.2578125 -0.609375,0.6328125 -1.4882812,0.6328125 -1.8046875,0.6328125 v 0.3164063 c 0.1992188,0 0.7851563,0 1.3007813,-0.2578125 v 5.15624999 c 0,0.3515625 -0.035156,0.48046875 -0.9257813,0.48046875 H 0.94796875 V -2.265625e-4 C 1.2995313,-0.03538281 2.155,-0.03538281 2.5534375,-0.03538281 c 0.3984375,0 1.265625,0 1.6171875,0.0351562475 V -0.30491406 H 3.8542188 c -0.9023438,0 -0.9257813,-0.1171875 -0.9257813,-0.48046875 z m 0,0"
       style="fill:#000000;fill-opacity:1;fill-rule:nonzero;stroke:none"
       aria-label="1"
       transform="matrix(1.3333333,0,0,1.3333333,91.126667,187.95733)" />
    <path
       id="path44"
       d="m 2.9296406,-6.3752266 c 0,-0.234375 0,-0.2578125 -0.234375,-0.2578125 -0.609375,0.6328125 -1.4882812,0.6328125 -1.80468747,0.6328125 v 0.3164063 c 0.19921877,0 0.78515627,0 1.30078127,-0.2578125 v 5.15624999 c 0,0.3515625 -0.035156,0.48046875 -0.9257813,0.48046875 H 0.94917188 V -2.265625e-4 C 1.3007344,-0.03538281 2.1562031,-0.03538281 2.5546406,-0.03538281 c 0.3984375,0 1.265625,0 1.6171875,0.0351562475 V -0.30491406 H 3.8554219 c -0.9023438,0 -0.9257813,-0.1171875 -0.9257813,-0.48046875 z m 0,0"
       style="fill:#000000;fill-opacity:1;fill-rule:nonzero;stroke:none"
       aria-label="1"
       transform="matrix(1.3333333,0,0,1.3333333,238.336,187.95733)" />
    <path
       id="path45"
       d="m 2.9302344,-6.3755078 c 0,-0.234375 0,-0.2578125 -0.234375,-0.2578125 -0.609375,0.6328125 -1.4882813,0.6328125 -1.80468752,0.6328125 v 0.3164062 c 0.19921872,0 0.78515622,0 1.30078122,-0.2578125 v 5.15625004 c 0,0.3515625 -0.035156,0.48046875 -0.9257812,0.48046875 H 0.94976563 V -5.078125e-4 C 1.3013281,-0.03566406 2.1567969,-0.03566406 2.5552344,-0.03566406 c 0.3984375,0 1.265625,0 1.6171875,0.0351562475 V -0.30519531 H 3.8560156 c -0.9023437,0 -0.9257812,-0.1171875 -0.9257812,-0.48046875 z m 0,0"
       style="fill:#000000;fill-opacity:1;fill-rule:nonzero;stroke:none"
       aria-label="1"
       transform="matrix(1.3333333,0,0,1.3333333,565.41333,156.97333)" />
    <path
       id="path46"
       d="m 2.9309844,-6.3755078 c 0,-0.234375 0,-0.2578125 -0.234375,-0.2578125 -0.609375,0.6328125 -1.4882813,0.6328125 -1.80468753,0.6328125 v 0.3164062 c 0.19921873,0 0.78515623,0 1.30078123,-0.2578125 v 5.15625004 c 0,0.3515625 -0.035156,0.48046875 -0.9257812,0.48046875 H 0.95051562 V -5.078125e-4 C 1.3020781,-0.03566406 2.1575469,-0.03566406 2.5559844,-0.03566406 c 0.3984375,0 1.265625,0 1.6171875,0.0351562475 V -0.30519531 H 3.8567656 c -0.9023437,0 -0.9257812,-0.1171875 -0.9257812,-0.48046875 z m 0,0"
       style="fill:#000000;fill-opacity:1;fill-rule:nonzero;stroke:none"
       aria-label="1"
       transform="matrix(1.3333333,0,0,1.3333333,596.53733,156.97333)" />
    <path
       id="path47"
       d="m 7.1951562,-2.4968672 c 0,-1.828125 -1.5,-3.3164062 -3.3164062,-3.3164062 -1.8515625,0 -3.328125,1.5117187 -3.328125,3.3164062 0,1.83984376 1.4882812,3.32812501 3.3164062,3.32812501 1.8515625,0 3.328125,-1.51171875 3.328125,-3.32812501 z M 0.79671875,-2.6257734 C 0.9021875,-4.2898359 2.19125,-5.4851484 3.7498437,-5.5554609 v 2.9296875 z M 3.9959375,-5.5554609 c 1.5585937,0.070312 2.8476562,1.265625 2.9414062,2.9296875 H 3.9959375 Z M 3.7498437,0.57344531 C 2.2029687,0.50313281 0.9021875,-0.66874219 0.79671875,-2.3679609 H 3.7498437 Z m 3.1875,-2.94140621 c -0.09375,1.69921871 -1.40625,2.87109371 -2.9414062,2.94140621 V -2.3679609 Z m 0,0"
       style="fill:#000000;fill-opacity:1;fill-rule:nonzero;stroke:none"
       aria-label="⊕"
       transform="matrix(1.3333333,0,0,1.3333333,397.95333,170.544)" />
  </g>
</svg>
