<?xml version="1.0" encoding="UTF-8" standalone="no"?>
<!-- Created with Inkscape (http://www.inkscape.org/) -->

<svg
   version="1.1"
   id="svg1"
   width="225.30667"
   height="150.03999"
   viewBox="0 0 225.30667 150.03999"
   sodipodi:docname="Young-diagrams-SU(N).pdf"
   xmlns:inkscape="http://www.inkscape.org/namespaces/inkscape"
   xmlns:sodipodi="http://sodipodi.sourceforge.net/DTD/sodipodi-0.dtd"
   xmlns="http://www.w3.org/2000/svg"
   xmlns:svg="http://www.w3.org/2000/svg">
  <defs
     id="defs1" />
  <sodipodi:namedview
     id="namedview1"
     pagecolor="#ffffff"
     bordercolor="#000000"
     borderopacity="0.25"
     inkscape:showpageshadow="2"
     inkscape:pageopacity="0.0"
     inkscape:pagecheckerboard="0"
     inkscape:deskcolor="#d1d1d1">
    <inkscape:page
       x="0"
       y="0"
       inkscape:label="1"
       id="page1"
       width="225.30667"
       height="150.03999"
       margin="0"
       bleed="0" />
  </sodipodi:namedview>
  <g
     id="g1"
     inkscape:groupmode="layer"
     inkscape:label="1">
    <path
       id="path1"
       d="M 50.81029,-43.03932 H 69.48457 V -61.7136 H 50.81029 Z"
       style="fill:#f5a623;fill-opacity:0.2;fill-rule:nonzero;stroke:#000000;stroke-width:0.74721;stroke-linecap:butt;stroke-linejoin:miter;stroke-miterlimit:10;stroke-dasharray:none;stroke-opacity:1"
       transform="matrix(1.3333333,0,0,-1.3333333,-34.929333,-32.345333)" />
    <path
       id="path2"
       d="M 69.48457,-43.03932 H 88.15884 V -61.7136 H 69.48457 Z"
       style="fill:#f5a623;fill-opacity:0.2;fill-rule:nonzero;stroke:#000000;stroke-width:0.74721;stroke-linecap:butt;stroke-linejoin:miter;stroke-miterlimit:10;stroke-dasharray:none;stroke-opacity:1"
       transform="matrix(1.3333333,0,0,-1.3333333,-34.929333,-32.345333)" />
    <path
       id="path3"
       d="m 88.15884,-43.03932 h 18.67431 V -61.7136 H 88.15884 Z"
       style="fill:#f5a623;fill-opacity:0.2;fill-rule:nonzero;stroke:#000000;stroke-width:0.74721;stroke-linecap:butt;stroke-linejoin:miter;stroke-miterlimit:10;stroke-dasharray:none;stroke-opacity:1"
       transform="matrix(1.3333333,0,0,-1.3333333,-34.929333,-32.345333)" />
    <path
       id="path4"
       d="m 106.83315,-43.03932 h 18.67428 V -61.7136 h -18.67428 z"
       style="fill:#f5a623;fill-opacity:0.2;fill-rule:nonzero;stroke:#000000;stroke-width:0.74721;stroke-linecap:butt;stroke-linejoin:miter;stroke-miterlimit:10;stroke-dasharray:none;stroke-opacity:1"
       transform="matrix(1.3333333,0,0,-1.3333333,-34.929333,-32.345333)" />
    <path
       id="path5"
       d="M 125.50743,-43.03932 H 144.1877 V -61.7136 h -18.68027 z"
       style="fill:#f5a623;fill-opacity:0.2;fill-rule:nonzero;stroke:#000000;stroke-width:0.74721;stroke-linecap:butt;stroke-linejoin:miter;stroke-miterlimit:10;stroke-dasharray:none;stroke-opacity:1"
       transform="matrix(1.3333333,0,0,-1.3333333,-34.929333,-32.345333)" />
    <path
       id="path6"
       d="m 144.1877,-43.03932 h 18.67428 V -61.7136 H 144.1877 Z"
       style="fill:#f5a623;fill-opacity:0.2;fill-rule:nonzero;stroke:#000000;stroke-width:0.74721;stroke-linecap:butt;stroke-linejoin:miter;stroke-miterlimit:10;stroke-dasharray:none;stroke-opacity:1"
       transform="matrix(1.3333333,0,0,-1.3333333,-34.929333,-32.345333)" />
    <path
       id="path7"
       d="M 50.81029,-61.7136 H 69.48457 V -80.38788 H 50.81029 Z"
       style="fill:#f5a623;fill-opacity:0.2;fill-rule:nonzero;stroke:#000000;stroke-width:0.74721;stroke-linecap:butt;stroke-linejoin:miter;stroke-miterlimit:10;stroke-dasharray:none;stroke-opacity:1"
       transform="matrix(1.3333333,0,0,-1.3333333,-34.929333,-32.345333)" />
    <path
       id="path8"
       d="M 69.48457,-61.7136 H 88.15884 V -80.38788 H 69.48457 Z"
       style="fill:#f5a623;fill-opacity:0.2;fill-rule:nonzero;stroke:#000000;stroke-width:0.74721;stroke-linecap:butt;stroke-linejoin:miter;stroke-miterlimit:10;stroke-dasharray:none;stroke-opacity:1"
       transform="matrix(1.3333333,0,0,-1.3333333,-34.929333,-32.345333)" />
    <path
       id="path9"
       d="m 88.15884,-61.7136 h 18.67431 V -80.38788 H 88.15884 Z"
       style="fill:#f5a623;fill-opacity:0.2;fill-rule:nonzero;stroke:#000000;stroke-width:0.74721;stroke-linecap:butt;stroke-linejoin:miter;stroke-miterlimit:10;stroke-dasharray:none;stroke-opacity:1"
       transform="matrix(1.3333333,0,0,-1.3333333,-34.929333,-32.345333)" />
    <path
       id="path10"
       d="m 106.83315,-61.7136 h 18.67428 v -18.67428 h -18.67428 z"
       style="fill:#f5a623;fill-opacity:0.2;fill-rule:nonzero;stroke:#000000;stroke-width:0.74721;stroke-linecap:butt;stroke-linejoin:miter;stroke-miterlimit:10;stroke-dasharray:none;stroke-opacity:1"
       transform="matrix(1.3333333,0,0,-1.3333333,-34.929333,-32.345333)" />
    <path
       id="path11"
       d="M 52.6036,-36.46385 H 161.06868"
       style="fill:none;stroke:#000000;stroke-width:0.74721;stroke-linecap:butt;stroke-linejoin:miter;stroke-miterlimit:10;stroke-dasharray:none;stroke-opacity:1"
       transform="matrix(1.3333333,0,0,-1.3333333,-34.929333,-32.345333)" />
    <path
       id="path12"
       d="m 157.52393,-39.02826 5.33805,2.56441 -5.33805,2.56441 z"
       style="fill:#000000;fill-opacity:1;fill-rule:nonzero;stroke:#000000;stroke-width:0.0797;stroke-linecap:butt;stroke-linejoin:miter;stroke-miterlimit:10;stroke-dasharray:none;stroke-opacity:0"
       transform="matrix(1.3333333,0,0,-1.3333333,-34.929333,-32.345333)" />
    <path
       id="path13"
       d="m 56.14835,-33.89944 -5.33806,-2.56441 5.33806,-2.56441 z"
       style="fill:#000000;fill-opacity:1;fill-rule:nonzero;stroke:#000000;stroke-width:0.0797;stroke-linecap:butt;stroke-linejoin:miter;stroke-miterlimit:10;stroke-dasharray:none;stroke-opacity:0"
       transform="matrix(1.3333333,0,0,-1.3333333,-34.929333,-32.345333)" />
    <path
       id="path14"
       d="M 50.81029,-80.38788 H 69.48457 V -99.06216 H 50.81029 Z"
       style="fill:#f5a623;fill-opacity:0.2;fill-rule:nonzero;stroke:#000000;stroke-width:0.74721;stroke-linecap:butt;stroke-linejoin:miter;stroke-miterlimit:10;stroke-dasharray:none;stroke-opacity:1"
       transform="matrix(1.3333333,0,0,-1.3333333,-34.929333,-32.345333)" />
    <path
       id="path15"
       d="M 69.48457,-80.38788 H 88.15884 V -99.06216 H 69.48457 Z"
       style="fill:#f5a623;fill-opacity:0.2;fill-rule:nonzero;stroke:#000000;stroke-width:0.74721;stroke-linecap:butt;stroke-linejoin:miter;stroke-miterlimit:10;stroke-dasharray:none;stroke-opacity:1"
       transform="matrix(1.3333333,0,0,-1.3333333,-34.929333,-32.345333)" />
    <path
       id="path16"
       d="m 50.81029,-99.06216 h 18.67428 v -18.67427 H 50.81029 Z"
       style="fill:#f5a623;fill-opacity:0.2;fill-rule:nonzero;stroke:#000000;stroke-width:0.74721;stroke-linecap:butt;stroke-linejoin:miter;stroke-miterlimit:10;stroke-dasharray:none;stroke-opacity:1"
       transform="matrix(1.3333333,0,0,-1.3333333,-34.929333,-32.345333)" />
    <path
       id="path17"
       d="M 50.81029,-117.73643 H 69.48457 V -136.4167 H 50.81029 Z"
       style="fill:#f5a623;fill-opacity:0.2;fill-rule:nonzero;stroke:#000000;stroke-width:0.74721;stroke-linecap:butt;stroke-linejoin:miter;stroke-miterlimit:10;stroke-dasharray:none;stroke-opacity:1"
       transform="matrix(1.3333333,0,0,-1.3333333,-34.929333,-32.345333)" />
    <g
       id="g17"
       aria-label="Y&#10;1"
       transform="matrix(1.3333333,0,0,1.3333333,6.416,41.509333)">
      <path
         id="path18"
         d="m 5.9399531,-5.6730156 0.140625,-0.140625 c 0.3046875,-0.2929688 0.6328125,-0.6328125 1.3125,-0.6796875 0.1054688,-0.011719 0.1992188,-0.011719 0.1992188,-0.1875 0,-0.082031 -0.058594,-0.1289063 -0.1289063,-0.1289063 -0.2578125,0 -0.5507812,0.035156 -0.8203125,0.035156 -0.328125,0 -0.6796875,-0.035156 -0.9960937,-0.035156 -0.058594,0 -0.1875,0 -0.1875,0.1992188 0,0.1054687 0.09375,0.1171875 0.1523437,0.1171875 0.070312,0 0.3515625,0.011719 0.3515625,0.2226562 0,0.1757813 -0.2226562,0.4335938 -0.2695312,0.4804688 l -2.3085938,2.6601562 -1.0898437,-2.953125 c -0.070312,-0.140625 -0.070312,-0.1640625 -0.070312,-0.1757812 0,-0.234375 0.4921875,-0.234375 0.5976562,-0.234375 0.1289063,0 0.234375,0 0.234375,-0.1992188 0,-0.1171875 -0.1171875,-0.1171875 -0.1523437,-0.1171875 -0.28125,0 -0.9726563,0.035156 -1.2539063,0.035156 -0.2460937,0 -0.86718747,-0.035156 -1.11328122,-0.035156 -0.0585938,0 -0.1875,0 -0.1875,0.1992188 0,0.1171875 0.09375,0.1171875 0.22265625,0.1171875 0.59765627,0 0.64453127,0.082031 0.72656247,0.3398437 l 1.2304688,3.2695313 c 0.011719,0.035156 0.035156,0.140625 0.035156,0.1757812 0,0.023437 -0.3984375,1.6289063 -0.4453125,1.80468753 -0.1289062,0.55078125 -0.140625,0.5859375 -0.9375,0.59765625 -0.18749997,0 -0.26953122,0 -0.26953122,0.19921875 0,0.10546875 0.11718752,0.10546875 0.14062502,0.10546875 0.28125,0 0.9726562,-0.03515625 1.2539062,-0.03515625 0.28125,0 0.9960938,0.03515625 1.2773438,0.03515625 0.070312,0 0.1875,0 0.1875,-0.19921875 0,-0.10546875 -0.082031,-0.10546875 -0.28125,-0.10546875 -0.011719,0 -0.1992188,0 -0.375,-0.0234375 -0.2109375,-0.0234375 -0.2695313,-0.0351563 -0.2695313,-0.1640625 0,-0.0703125 0.09375,-0.41015625 0.140625,-0.62109378 l 0.3515625,-1.40625 c 0.046875,-0.1875 0.058594,-0.2226562 0.140625,-0.3046875 z m 0,0"
         style="fill:#000000;fill-opacity:1;fill-rule:nonzero;stroke:none" />
      <path
         id="path19"
         d="m 8.1167109,-2.9337578 c 0,-0.1875 -0.011719,-0.1992188 -0.2109375,-0.1992188 -0.4453125,0.4335938 -1.078125,0.4453125 -1.359375,0.4453125 v 0.2460938 c 0.1640625,0 0.6210938,0 1.0078125,-0.1875 v 3.55078124 c 0,0.23437496 0,0.32812496 -0.6914062,0.32812496 H 6.5932734 v 0.2460938 c 0.1289063,-0.011719 0.984375,-0.023437 1.2421875,-0.023437 0.2109375,0 1.0898438,0.011719 1.2421875,0.023437 V 1.2498359 H 8.8198359 c -0.703125,0 -0.703125,-0.09375 -0.703125,-0.32812496 z m 0,0"
         style="fill:#000000;fill-opacity:1;fill-rule:nonzero;stroke:none" />
    </g>
    <g
       id="g19"
       aria-label="Y&#10;2"
       transform="matrix(1.3333333,0,0,1.3333333,6.416,67.812)">
      <path
         id="path20"
         d="m 5.9399531,-5.6715 0.140625,-0.140625 c 0.3046875,-0.2929687 0.6328125,-0.6328125 1.3125,-0.6796875 0.1054688,-0.011719 0.1992188,-0.011719 0.1992188,-0.1875 0,-0.082031 -0.058594,-0.1289062 -0.1289063,-0.1289062 -0.2578125,0 -0.5507812,0.035156 -0.8203125,0.035156 -0.328125,0 -0.6796875,-0.035156 -0.9960937,-0.035156 -0.058594,0 -0.1875,0 -0.1875,0.1992187 0,0.1054688 0.09375,0.1171875 0.1523437,0.1171875 0.070312,0 0.3515625,0.011719 0.3515625,0.2226563 0,0.1757812 -0.2226562,0.4335937 -0.2695312,0.4804687 l -2.3085938,2.6601563 -1.0898437,-2.953125 c -0.070312,-0.140625 -0.070312,-0.1640625 -0.070312,-0.1757813 0,-0.234375 0.4921875,-0.234375 0.5976562,-0.234375 0.1289063,0 0.234375,0 0.234375,-0.1992187 0,-0.1171875 -0.1171875,-0.1171875 -0.1523437,-0.1171875 -0.28125,0 -0.9726563,0.035156 -1.2539063,0.035156 -0.2460937,0 -0.86718747,-0.035156 -1.11328122,-0.035156 -0.0585938,0 -0.1875,0 -0.1875,0.1992187 0,0.1171875 0.09375,0.1171875 0.22265625,0.1171875 0.59765627,0 0.64453127,0.082031 0.72656247,0.3398438 l 1.2304688,3.2695312 c 0.011719,0.035156 0.035156,0.140625 0.035156,0.1757813 0,0.023437 -0.3984375,1.6289062 -0.4453125,1.80468745 -0.1289062,0.55078125 -0.140625,0.5859375 -0.9375,0.59765625 -0.18749997,0 -0.26953122,0 -0.26953122,0.19921875 0,0.10546875 0.11718752,0.10546875 0.14062502,0.10546875 0.28125,0 0.9726562,-0.03515625 1.2539062,-0.03515625 0.28125,0 0.9960938,0.03515625 1.2773438,0.03515625 0.070312,0 0.1875,0 0.1875,-0.19921875 0,-0.10546875 -0.082031,-0.10546875 -0.28125,-0.10546875 -0.011719,0 -0.1992188,0 -0.375,-0.0234375 -0.2109375,-0.0234375 -0.2695313,-0.0351563 -0.2695313,-0.1640625 0,-0.0703125 0.09375,-0.41015625 0.140625,-0.6210937 l 0.3515625,-1.40625 c 0.046875,-0.1875 0.058594,-0.2226563 0.140625,-0.3046875 z m 0,0"
         style="fill:#000000;fill-opacity:1;fill-rule:nonzero;stroke:none" />
      <path
         id="path21"
         d="m 9.3003047,0.22889063 h -0.234375 c -0.023437,0.15234375 -0.082031,0.5625 -0.1757813,0.6328125 -0.058594,0.0351563 -0.5976562,0.0351563 -0.6914062,0.0351563 H 6.9096797 c 0.7382812,-0.64453125 0.984375,-0.84375 1.3945312,-1.171875 0.515625,-0.41015625 0.9960938,-0.84374993 0.9960938,-1.49999993 0,-0.8437501 -0.7382813,-1.3593751 -1.6289063,-1.3593751 -0.8671875,0 -1.453125,0.609375 -1.453125,1.2421876 0,0.3632812 0.3046875,0.3984375 0.375,0.3984375 0.1640625,0 0.375,-0.1171875 0.375,-0.375 0,-0.1289063 -0.058594,-0.3632814 -0.421875,-0.3632814 0.2226563,-0.5039062 0.6914063,-0.65625 1.0195313,-0.65625 0.703125,0 1.0664062,0.5507813 1.0664062,1.1132813 0,0.609375 -0.4335937,1.08984378 -0.65625,1.33593753 l -1.6875,1.66406247 c -0.070312,0.058594 -0.070312,0.070312 -0.070312,0.2695312 h 2.8828125 z m 0,0"
         style="fill:#000000;fill-opacity:1;fill-rule:nonzero;stroke:none" />
    </g>
    <g
       id="g21"
       aria-label="Y&#10;r"
       transform="matrix(1.3333333,0,0,1.3333333,100.71733,10.076)">
      <path
         id="path22"
         d="m 5.9424688,-5.6732109 0.140625,-0.140625 c 0.3046875,-0.2929688 0.6328125,-0.6328125 1.3125,-0.6796875 0.1054687,-0.011719 0.1992187,-0.011719 0.1992187,-0.1875 0,-0.082031 -0.058594,-0.1289063 -0.1289062,-0.1289063 -0.2578125,0 -0.5507813,0.035156 -0.8203125,0.035156 -0.328125,0 -0.6796875,-0.035156 -0.9960938,-0.035156 -0.058594,0 -0.1875,0 -0.1875,0.1992188 0,0.1054687 0.09375,0.1171875 0.1523438,0.1171875 0.070312,0 0.3515625,0.011719 0.3515625,0.2226562 0,0.1757813 -0.2226563,0.4335938 -0.2695313,0.4804688 l -2.3085937,2.6601562 -1.0898438,-2.953125 c -0.070312,-0.140625 -0.070312,-0.1640625 -0.070312,-0.1757812 0,-0.234375 0.4921875,-0.234375 0.5976563,-0.234375 0.1289062,0 0.234375,0 0.234375,-0.1992188 0,-0.1171875 -0.1171875,-0.1171875 -0.1523438,-0.1171875 -0.28125,0 -0.9726562,0.035156 -1.2539062,0.035156 -0.2460938,0 -0.86718755,-0.035156 -1.1132813,-0.035156 -0.0585937,0 -0.1875,0 -0.1875,0.1992188 0,0.1171875 0.09375,0.1171875 0.22265625,0.1171875 0.59765625,0 0.64453125,0.082031 0.72656255,0.3398437 l 1.2304687,3.2695313 c 0.011719,0.035156 0.035156,0.140625 0.035156,0.1757812 0,0.023437 -0.3984375,1.6289063 -0.4453125,1.80468751 -0.1289063,0.55078125 -0.140625,0.5859375 -0.9375,0.59765625 -0.18750005,0 -0.2695313,0 -0.2695313,0.19921875 0,0.10546875 0.1171875,0.10546875 0.140625,0.10546875 0.28125,0 0.9726563,-0.03515625 1.2539063,-0.03515625 0.28125,0 0.9960937,0.03515625 1.2773437,0.03515625 0.070312,0 0.1875,0 0.1875,-0.19921875 0,-0.10546875 -0.082031,-0.10546875 -0.28125,-0.10546875 -0.011719,0 -0.1992187,0 -0.375,-0.0234375 -0.2109375,-0.0234375 -0.2695312,-0.0351563 -0.2695312,-0.1640625 0,-0.0703125 0.09375,-0.41015625 0.140625,-0.62109376 l 0.3515625,-1.40625 c 0.046875,-0.1875 0.058594,-0.2226562 0.140625,-0.3046875 z m 0,0"
         style="fill:#000000;fill-opacity:1;fill-rule:nonzero;stroke:none" />
      <path
         id="path23"
         d="m 7.4248906,0.08948438 c 0,-0.046875 0.1640625,-0.66796875 0.1757813,-0.703125 0.011719,-0.0585938 0.2226562,-0.41015628 0.4453125,-0.57421878 0.070312,-0.058594 0.2578125,-0.1992187 0.5625,-0.1992187 0.070312,0 0.2460937,0.011719 0.3867187,0.1054687 -0.2226562,0.058594 -0.3046875,0.2578125 -0.3046875,0.37500003 0,0.15234375 0.1171875,0.2578125 0.2695313,0.2578125 0.1640625,0 0.3984375,-0.12890625 0.3984375,-0.42187503 0,-0.3632812 -0.3867188,-0.5039062 -0.7382813,-0.5039062 -0.3632812,0 -0.6796875,0.140625 -0.984375,0.4921875 -0.1289062,-0.421875 -0.5507812,-0.4921875 -0.7265625,-0.4921875 -0.2578125,0 -0.421875,0.1523437 -0.5390625,0.3515625 -0.1640625,0.26953123 -0.2578125,0.67968748 -0.2578125,0.71484373 0,0.0820312 0.09375,0.0820312 0.1171875,0.0820312 0.09375,0 0.1054688,-0.0117188 0.1523438,-0.19921875 0.1054687,-0.43359378 0.234375,-0.76171878 0.515625,-0.76171878 0.1757812,0 0.2226562,0.1523437 0.2226562,0.3398437 0,0.14062508 -0.058594,0.39843758 -0.1054687,0.58593758 -0.046875,0.1875 -0.1171875,0.46875 -0.1523438,0.62109375 L 6.6397344,1.0621406 c -0.035156,0.082031 -0.070312,0.2578125 -0.070312,0.28125 0,0.1523438 0.1171875,0.2226563 0.234375,0.2226563 0.1054687,0 0.2460937,-0.058594 0.2929687,-0.1992188 0.023437,-0.046875 0.09375,-0.3515625 0.140625,-0.52734372 z m 0,0"
         style="fill:#000000;fill-opacity:1;fill-rule:nonzero;stroke:none" />
    </g>
    <path
       id="path24"
       d="m 1.9106016,-0.52810937 c 0,-0.29296875 -0.234375,-0.52734373 -0.5273438,-0.52734373 -0.28125,0 -0.52734374,0.23437498 -0.52734374,0.52734373 0,0.29296875 0.24609374,0.527343745 0.52734374,0.527343745 0.2929688,0 0.5273438,-0.234374995 0.5273438,-0.527343745 z m 0,3.98437497 c 0,-0.2929687 -0.234375,-0.5273437 -0.5273438,-0.5273437 -0.28125,0 -0.52734374,0.234375 -0.52734374,0.5273437 0,0.2929688 0.24609374,0.5273438 0.52734374,0.5273438 0.2929688,0 0.5273438,-0.234375 0.5273438,-0.5273438 z m 0,3.9873047 c 0,-0.2929687 -0.234375,-0.5273437 -0.5273438,-0.5273437 -0.28125,0 -0.52734374,0.234375 -0.52734374,0.5273437 0,0.2929688 0.24609374,0.5273438 0.52734374,0.5273438 0.2929688,0 0.5273438,-0.234375 0.5273438,-0.5273438 z m 0,0"
       style="fill:#000000;fill-opacity:1;fill-rule:nonzero;stroke:none"
       aria-label=".&#10;.&#10;."
       transform="matrix(1.3333333,0,0,1.3333333,8.808,92.821333)" />
    <g
       id="g24"
       aria-label="Y&#10;N"
       transform="matrix(1.3333333,0,0,1.3333333,6.416,141.93467)">
      <path
         id="path25"
         d="m 5.9399531,-5.6726797 0.140625,-0.140625 c 0.3046875,-0.2929687 0.6328125,-0.6328125 1.3125,-0.6796875 0.1054688,-0.011719 0.1992188,-0.011719 0.1992188,-0.1875 0,-0.082031 -0.058594,-0.1289062 -0.1289063,-0.1289062 -0.2578125,0 -0.5507812,0.035156 -0.8203125,0.035156 -0.328125,0 -0.6796875,-0.035156 -0.9960937,-0.035156 -0.058594,0 -0.1875,0 -0.1875,0.1992187 0,0.1054688 0.09375,0.1171875 0.1523437,0.1171875 0.070312,0 0.3515625,0.011719 0.3515625,0.2226563 0,0.1757812 -0.2226562,0.4335937 -0.2695312,0.4804687 l -2.3085938,2.6601563 -1.0898437,-2.953125 c -0.070312,-0.140625 -0.070312,-0.1640625 -0.070312,-0.1757813 0,-0.234375 0.4921875,-0.234375 0.5976562,-0.234375 0.1289063,0 0.234375,0 0.234375,-0.1992187 0,-0.1171875 -0.1171875,-0.1171875 -0.1523437,-0.1171875 -0.28125,0 -0.9726563,0.035156 -1.2539063,0.035156 -0.2460937,0 -0.86718747,-0.035156 -1.11328122,-0.035156 -0.0585938,0 -0.1875,0 -0.1875,0.1992187 0,0.1171875 0.09375,0.1171875 0.22265625,0.1171875 0.59765627,0 0.64453127,0.082031 0.72656247,0.3398438 l 1.2304688,3.2695312 c 0.011719,0.035156 0.035156,0.140625 0.035156,0.1757813 0,0.023437 -0.3984375,1.6289062 -0.4453125,1.80468746 -0.1289062,0.55078125 -0.140625,0.5859375 -0.9375,0.59765625 -0.18749997,0 -0.26953122,0 -0.26953122,0.19921875 0,0.1054687525 0.11718752,0.1054687525 0.14062502,0.1054687525 0.28125,0 0.9726562,-0.0351562525 1.2539062,-0.0351562525 0.28125,0 0.9960938,0.0351562525 1.2773438,0.0351562525 0.070312,0 0.1875,0 0.1875,-0.1992187525 0,-0.10546875 -0.082031,-0.10546875 -0.28125,-0.10546875 -0.011719,0 -0.1992188,0 -0.375,-0.0234375 -0.2109375,-0.0234375 -0.2695313,-0.0351563 -0.2695313,-0.1640625 0,-0.0703125 0.09375,-0.41015625 0.140625,-0.62109371 l 0.3515625,-1.40625 c 0.046875,-0.1875 0.058594,-0.2226563 0.140625,-0.3046875 z m 0,0"
         style="fill:#000000;fill-opacity:1;fill-rule:nonzero;stroke:none" />
      <path
         id="path26"
         d="m 11.59718,-2.5115469 c 0.07031,-0.2578125 0.1875,-0.4921875 0.738281,-0.5039062 0.03516,0 0.140625,-0.011719 0.140625,-0.1523438 0,-0.046875 -0.03516,-0.09375 -0.105469,-0.09375 -0.222656,0 -0.480469,0.023437 -0.726562,0.023437 -0.164063,0 -0.5625,-0.023437 -0.738282,-0.023437 -0.03516,0 -0.140625,0 -0.140625,0.1523438 0,0.082031 0.09375,0.09375 0.164063,0.09375 0.316406,0.011719 0.445312,0.1171875 0.445312,0.28125 0,0.058594 -0.01172,0.09375 -0.03516,0.1757812 L 10.577648,0.47673438 8.8081172,-3.1443594 C 8.7495234,-3.2615469 8.7378047,-3.2615469 8.5737422,-3.2615469 H 7.6128047 c -0.1289063,0 -0.2226563,0 -0.2226563,0.1523438 0,0.09375 0.09375,0.09375 0.234375,0.09375 0.1523438,0 0.3046875,0.011719 0.4453125,0.035156 l -0.9375,3.72656253 C 7.0737422,1.0157969 6.9565547,1.2267344 6.4174922,1.2501719 c -0.058594,0 -0.1523438,0 -0.1523438,0.140625 0,0.082031 0.058594,0.1054687 0.1054688,0.1054687 0.234375,0 0.4921875,-0.023437 0.7265625,-0.023437 0.1640625,0 0.5742187,0.023437 0.7382812,0.023437 0.070312,0 0.140625,-0.035156 0.140625,-0.140625 0,-0.1054687 -0.082031,-0.1054687 -0.1640625,-0.1054687 C 7.3784297,1.2267344 7.3784297,1.0509531 7.3784297,0.95720313 c 0,-0.0351563 0,-0.0703125 0.023437,-0.17578125 l 0.890625,-3.57421878 2.0390623,4.171875 c 0.05859,0.1054688 0.08203,0.1171875 0.152343,0.1171875 0.117189,0 0.117189,-0.023437 0.152344,-0.140625 z m 0,0"
         style="fill:#000000;fill-opacity:1;fill-rule:nonzero;stroke:none" />
    </g>
    <g
       id="g26"
       aria-label="Y&#10;1&#10;≥Y&#10;2&#10;≥···≥Y&#10;N&#10;≥0"
       transform="matrix(1.3333333,0,0,1.3333333,77.352,141.93467)">
      <path
         id="path27"
         d="m 5.9410781,-5.6726797 0.140625,-0.140625 c 0.3046875,-0.2929687 0.6328125,-0.6328125 1.3125,-0.6796875 0.1054688,-0.011719 0.1992188,-0.011719 0.1992188,-0.1875 0,-0.082031 -0.058594,-0.1289062 -0.1289063,-0.1289062 -0.2578125,0 -0.5507812,0.035156 -0.8203125,0.035156 -0.328125,0 -0.6796875,-0.035156 -0.9960937,-0.035156 -0.058594,0 -0.1875,0 -0.1875,0.1992187 0,0.1054688 0.09375,0.1171875 0.1523437,0.1171875 0.070312,0 0.3515625,0.011719 0.3515625,0.2226563 0,0.1757812 -0.2226562,0.4335937 -0.2695312,0.4804687 l -2.3085938,2.6601563 -1.0898437,-2.953125 c -0.070312,-0.140625 -0.070312,-0.1640625 -0.070312,-0.1757813 0,-0.234375 0.4921875,-0.234375 0.5976562,-0.234375 0.1289063,0 0.234375,0 0.234375,-0.1992187 0,-0.1171875 -0.1171875,-0.1171875 -0.1523437,-0.1171875 -0.28125,0 -0.9726563,0.035156 -1.2539063,0.035156 -0.2460937,0 -0.86718748,-0.035156 -1.11328123,-0.035156 -0.0585938,0 -0.1875,0 -0.1875,0.1992187 0,0.1171875 0.09375,0.1171875 0.22265625,0.1171875 0.59765628,0 0.64453128,0.082031 0.72656248,0.3398438 l 1.2304688,3.2695312 c 0.011719,0.035156 0.035156,0.140625 0.035156,0.1757813 0,0.023437 -0.3984375,1.6289062 -0.4453125,1.80468746 -0.1289062,0.55078125 -0.140625,0.5859375 -0.9375,0.59765625 -0.18749998,0 -0.26953123,0 -0.26953123,0.19921875 0,0.1054687525 0.11718753,0.1054687525 0.14062503,0.1054687525 0.28125,0 0.9726562,-0.0351562525 1.2539062,-0.0351562525 0.28125,0 0.9960938,0.0351562525 1.2773438,0.0351562525 0.070312,0 0.1875,0 0.1875,-0.1992187525 0,-0.10546875 -0.082031,-0.10546875 -0.28125,-0.10546875 -0.011719,0 -0.1992188,0 -0.375,-0.0234375 -0.2109375,-0.0234375 -0.2695313,-0.0351563 -0.2695313,-0.1640625 0,-0.0703125 0.09375,-0.41015625 0.140625,-0.62109371 l 0.3515625,-1.40625 c 0.046875,-0.1875 0.058594,-0.2226563 0.140625,-0.3046875 z m 0,0"
         style="fill:#000000;fill-opacity:1;fill-rule:nonzero;stroke:none" />
      <path
         id="path28"
         d="m 8.1149062,-2.9334219 c 0,-0.1875 -0.011719,-0.1992187 -0.2109375,-0.1992187 -0.4453125,0.4335937 -1.078125,0.4453125 -1.359375,0.4453125 v 0.2460937 c 0.1640625,0 0.6210938,0 1.0078125,-0.1875 v 3.55078128 c 0,0.23437502 0,0.32812502 -0.6914062,0.32812502 H 6.5914687 v 0.2460937 c 0.1289063,-0.011719 0.984375,-0.023437 1.2421875,-0.023437 0.2109375,0 1.0898438,0.011719 1.2421875,0.023437 V 1.2501719 H 8.8180312 c -0.703125,0 -0.703125,-0.09375 -0.703125,-0.32812502 z m 0,0"
         style="fill:#000000;fill-opacity:1;fill-rule:nonzero;stroke:none" />
      <path
         id="path29"
         d="m 19.736977,-3.2234609 c 0.140625,-0.070312 0.199218,-0.1289063 0.199218,-0.2226563 0,-0.1054687 -0.03516,-0.1640625 -0.199218,-0.234375 l -5.484375,-2.5898437 c -0.140625,-0.070312 -0.1875,-0.070312 -0.199219,-0.070312 -0.128906,0 -0.199219,0.09375 -0.199219,0.1992187 0,0.1289063 0.07031,0.1757813 0.1875,0.2226563 l 5.226563,2.4609375 -5.214844,2.46093746 c -0.199219,0.09375 -0.199219,0.1640625 -0.199219,0.234375 0,0.10546875 0.08203,0.19921875 0.199219,0.19921875 0.02344,0 0.04687,0 0.175781,-0.0703125 z m -0.152344,4.5820312 c 0.175781,0 0.351562,0 0.351562,-0.1992187 0,-0.19921879 -0.210937,-0.19921879 -0.363281,-0.19921879 h -5.367187 c -0.152344,0 -0.351563,0 -0.351563,0.19921879 0,0.1992187 0.175781,0.1992187 0.339844,0.1992187 z m 0,0"
         style="fill:#000000;fill-opacity:1;fill-rule:nonzero;stroke:none" />
      <path
         id="path30"
         d="m 29.478187,-5.6726797 0.140625,-0.140625 c 0.304688,-0.2929687 0.632813,-0.6328125 1.3125,-0.6796875 0.105469,-0.011719 0.199219,-0.011719 0.199219,-0.1875 0,-0.082031 -0.05859,-0.1289062 -0.128906,-0.1289062 -0.257813,0 -0.550781,0.035156 -0.820313,0.035156 -0.328125,0 -0.679687,-0.035156 -0.996093,-0.035156 -0.05859,0 -0.1875,0 -0.1875,0.1992187 0,0.1054688 0.09375,0.1171875 0.152343,0.1171875 0.07031,0 0.351563,0.011719 0.351563,0.2226563 0,0.1757812 -0.222656,0.4335937 -0.269531,0.4804687 l -2.308594,2.6601563 -1.089844,-2.953125 c -0.07031,-0.140625 -0.07031,-0.1640625 -0.07031,-0.1757813 0,-0.234375 0.492187,-0.234375 0.597656,-0.234375 0.128906,0 0.234375,0 0.234375,-0.1992187 0,-0.1171875 -0.117188,-0.1171875 -0.152344,-0.1171875 -0.28125,0 -0.972656,0.035156 -1.253906,0.035156 -0.246094,0 -0.867188,-0.035156 -1.113281,-0.035156 -0.05859,0 -0.1875,0 -0.1875,0.1992187 0,0.1171875 0.09375,0.1171875 0.222656,0.1171875 0.597656,0 0.644531,0.082031 0.726562,0.3398438 l 1.230469,3.2695312 c 0.01172,0.035156 0.03516,0.140625 0.03516,0.1757813 0,0.023437 -0.398437,1.6289062 -0.445312,1.80468746 -0.128906,0.55078125 -0.140625,0.5859375 -0.9375,0.59765625 -0.1875,0 -0.269531,0 -0.269531,0.19921875 0,0.1054687525 0.117187,0.1054687525 0.140625,0.1054687525 0.28125,0 0.972656,-0.0351562525 1.253906,-0.0351562525 0.28125,0 0.996094,0.0351562525 1.277344,0.0351562525 0.07031,0 0.1875,0 0.1875,-0.1992187525 0,-0.10546875 -0.08203,-0.10546875 -0.28125,-0.10546875 -0.01172,0 -0.199219,0 -0.375,-0.0234375 -0.210938,-0.0234375 -0.269532,-0.0351563 -0.269532,-0.1640625 0,-0.0703125 0.09375,-0.41015625 0.140625,-0.62109371 l 0.351563,-1.40625 c 0.04687,-0.1875 0.05859,-0.2226563 0.140625,-0.3046875 z m 0,0"
         style="fill:#000000;fill-opacity:1;fill-rule:nonzero;stroke:none" />
      <path
         id="path31"
         d="m 32.835609,0.23064063 h -0.234375 c -0.02344,0.15234375 -0.08203,0.5625 -0.175781,0.6328125 -0.05859,0.0351563 -0.597656,0.0351563 -0.691406,0.0351563 h -1.289063 c 0.738282,-0.64453125 0.984375,-0.84375 1.394532,-1.171875 0.515625,-0.41015625 0.996093,-0.84374993 0.996093,-1.49999993 0,-0.84375 -0.738281,-1.359375 -1.628906,-1.359375 -0.867187,0 -1.453125,0.609375 -1.453125,1.2421875 0,0.3632812 0.304688,0.3984375 0.375,0.3984375 0.164063,0 0.375,-0.1171875 0.375,-0.375 0,-0.1289063 -0.05859,-0.3632813 -0.421875,-0.3632813 0.222656,-0.5039062 0.691406,-0.65625 1.019531,-0.65625 0.703125,0 1.066407,0.5507813 1.066407,1.1132813 0,0.609375 -0.433594,1.08984368 -0.65625,1.33593743 l -1.6875,1.66406257 c -0.07031,0.058594 -0.07031,0.070312 -0.07031,0.2695312 h 2.882813 z m 0,0"
         style="fill:#000000;fill-opacity:1;fill-rule:nonzero;stroke:none" />
      <path
         id="path32"
         d="m 43.271156,-3.2234609 c 0.140625,-0.070312 0.199219,-0.1289063 0.199219,-0.2226563 0,-0.1054687 -0.03516,-0.1640625 -0.199219,-0.234375 l -5.484375,-2.5898437 c -0.140625,-0.070312 -0.1875,-0.070312 -0.199219,-0.070312 -0.128906,0 -0.199218,0.09375 -0.199218,0.1992187 0,0.1289063 0.07031,0.1757813 0.1875,0.2226563 l 5.226562,2.4609375 -5.214844,2.46093746 c -0.199218,0.09375 -0.199218,0.1640625 -0.199218,0.234375 0,0.10546875 0.08203,0.19921875 0.199218,0.19921875 0.02344,0 0.04687,0 0.175782,-0.0703125 z m -0.152344,4.5820312 c 0.175782,0 0.351563,0 0.351563,-0.1992187 0,-0.19921879 -0.210938,-0.19921879 -0.363281,-0.19921879 h -5.367188 c -0.152344,0 -0.351562,0 -0.351562,0.19921879 0,0.1992187 0.175781,0.1992187 0.339843,0.1992187 z m 9.166993,-3.8554687 c 0,-0.28125 -0.234375,-0.5273438 -0.527344,-0.5273438 -0.28125,0 -0.527344,0.2460938 -0.527344,0.5273438 0,0.2929687 0.246094,0.5390625 0.527344,0.5390625 0.292969,0 0.527344,-0.2460938 0.527344,-0.5390625 z m 4.423828,0 c 0,-0.28125 -0.234375,-0.5273438 -0.527344,-0.5273438 -0.28125,0 -0.527344,0.2460938 -0.527344,0.5273438 0,0.2929687 0.246094,0.5390625 0.527344,0.5390625 0.292969,0 0.527344,-0.2460938 0.527344,-0.5390625 z m 4.423828,0 c 0,-0.28125 -0.234375,-0.5273438 -0.527344,-0.5273438 -0.28125,0 -0.527344,0.2460938 -0.527344,0.5273438 0,0.2929687 0.246094,0.5390625 0.527344,0.5390625 0.292969,0 0.527344,-0.2460938 0.527344,-0.5390625 z m 13.640625,-0.7265625 c 0.140625,-0.070312 0.199219,-0.1289063 0.199219,-0.2226563 0,-0.1054687 -0.03516,-0.1640625 -0.199219,-0.234375 l -5.484375,-2.5898437 c -0.140625,-0.070312 -0.1875,-0.070312 -0.199219,-0.070312 -0.128906,0 -0.199219,0.09375 -0.199219,0.1992187 0,0.1289063 0.07031,0.1757813 0.1875,0.2226563 l 5.226563,2.4609375 -5.214844,2.46093746 c -0.199219,0.09375 -0.199219,0.1640625 -0.199219,0.234375 0,0.10546875 0.08203,0.19921875 0.199219,0.19921875 0.02344,0 0.04687,0 0.175781,-0.0703125 z m -0.152344,4.5820312 c 0.175781,0 0.351563,0 0.351563,-0.1992187 0,-0.19921879 -0.210938,-0.19921879 -0.363282,-0.19921879 h -5.367187 c -0.152344,0 -0.351563,0 -0.351563,0.19921879 0,0.1992187 0.175782,0.1992187 0.339844,0.1992187 z m 0,0"
         style="fill:#000000;fill-opacity:1;fill-rule:nonzero;stroke:none" />
      <path
         id="path33"
         d="m 84.556312,-5.6726797 0.140625,-0.140625 c 0.304688,-0.2929687 0.632813,-0.6328125 1.3125,-0.6796875 0.105469,-0.011719 0.199219,-0.011719 0.199219,-0.1875 0,-0.082031 -0.05859,-0.1289062 -0.128906,-0.1289062 -0.257813,0 -0.550781,0.035156 -0.820313,0.035156 -0.328125,0 -0.679687,-0.035156 -0.996093,-0.035156 -0.05859,0 -0.1875,0 -0.1875,0.1992187 0,0.1054688 0.09375,0.1171875 0.152343,0.1171875 0.07031,0 0.351563,0.011719 0.351563,0.2226563 0,0.1757812 -0.222656,0.4335937 -0.269531,0.4804687 l -2.308594,2.6601563 -1.089844,-2.953125 c -0.07031,-0.140625 -0.07031,-0.1640625 -0.07031,-0.1757813 0,-0.234375 0.492187,-0.234375 0.597656,-0.234375 0.128906,0 0.234375,0 0.234375,-0.1992187 0,-0.1171875 -0.117188,-0.1171875 -0.152344,-0.1171875 -0.28125,0 -0.972656,0.035156 -1.253906,0.035156 -0.246094,0 -0.867188,-0.035156 -1.113281,-0.035156 -0.05859,0 -0.1875,0 -0.1875,0.1992187 0,0.1171875 0.09375,0.1171875 0.222656,0.1171875 0.597656,0 0.644531,0.082031 0.726562,0.3398438 l 1.230469,3.2695312 c 0.01172,0.035156 0.03516,0.140625 0.03516,0.1757813 0,0.023437 -0.398437,1.6289062 -0.445312,1.80468746 -0.128906,0.55078125 -0.140625,0.5859375 -0.9375,0.59765625 -0.1875,0 -0.269531,0 -0.269531,0.19921875 0,0.1054687525 0.117187,0.1054687525 0.140625,0.1054687525 0.28125,0 0.972656,-0.0351562525 1.253906,-0.0351562525 0.28125,0 0.996094,0.0351562525 1.277344,0.0351562525 0.07031,0 0.1875,0 0.1875,-0.1992187525 0,-0.10546875 -0.08203,-0.10546875 -0.28125,-0.10546875 -0.01172,0 -0.199219,0 -0.375,-0.0234375 -0.210938,-0.0234375 -0.269532,-0.0351563 -0.269532,-0.1640625 0,-0.0703125 0.09375,-0.41015625 0.140625,-0.62109371 l 0.351563,-1.40625 c 0.04687,-0.1875 0.05859,-0.2226563 0.140625,-0.3046875 z m 0,0"
         style="fill:#000000;fill-opacity:1;fill-rule:nonzero;stroke:none" />
      <path
         id="path34"
         d="m 90.210609,-2.5115469 c 0.07031,-0.2578125 0.1875,-0.4921875 0.738282,-0.5039062 0.03516,0 0.140625,-0.011719 0.140625,-0.1523438 0,-0.046875 -0.03516,-0.09375 -0.105469,-0.09375 -0.222656,0 -0.480469,0.023437 -0.726563,0.023437 -0.164062,0 -0.5625,-0.023437 -0.738281,-0.023437 -0.03516,0 -0.140625,0 -0.140625,0.1523438 0,0.082031 0.09375,0.09375 0.164063,0.09375 0.316406,0.011719 0.445312,0.1171875 0.445312,0.28125 0,0.058594 -0.01172,0.09375 -0.03516,0.1757812 L 89.191078,0.47673438 87.421547,-3.1443594 c -0.05859,-0.1171875 -0.07031,-0.1171875 -0.234375,-0.1171875 h -0.960938 c -0.128906,0 -0.222656,0 -0.222656,0.1523438 0,0.09375 0.09375,0.09375 0.234375,0.09375 0.152344,0 0.304688,0.011719 0.445313,0.035156 l -0.9375,3.72656253 c -0.05859,0.26953127 -0.175782,0.48046877 -0.714844,0.50390627 -0.05859,0 -0.152344,0 -0.152344,0.140625 0,0.082031 0.05859,0.1054687 0.105469,0.1054687 0.234375,0 0.492187,-0.023437 0.726562,-0.023437 0.164063,0 0.574219,0.023437 0.738282,0.023437 0.07031,0 0.140625,-0.035156 0.140625,-0.140625 0,-0.1054687 -0.08203,-0.1054687 -0.164063,-0.1054687 -0.433594,-0.023437 -0.433594,-0.1992188 -0.433594,-0.29296877 0,-0.0351563 0,-0.0703125 0.02344,-0.17578125 l 0.890625,-3.57421878 2.039062,4.171875 c 0.05859,0.1054688 0.08203,0.1171875 0.152344,0.1171875 0.117188,0 0.117188,-0.023437 0.152344,-0.140625 z m 0,0"
         style="fill:#000000;fill-opacity:1;fill-rule:nonzero;stroke:none" />
      <path
         id="path35"
         d="m 101.43717,-3.2234609 c 0.14063,-0.070312 0.19922,-0.1289063 0.19922,-0.2226563 0,-0.1054687 -0.0352,-0.1640625 -0.19922,-0.234375 l -5.484373,-2.5898437 c -0.140625,-0.070312 -0.1875,-0.070312 -0.199219,-0.070312 -0.128906,0 -0.199219,0.09375 -0.199219,0.1992187 0,0.1289063 0.07031,0.1757813 0.1875,0.2226563 l 5.226561,2.4609375 -5.214842,2.46093746 c -0.199219,0.09375 -0.199219,0.1640625 -0.199219,0.234375 0,0.10546875 0.08203,0.19921875 0.199219,0.19921875 0.02344,0 0.04687,0 0.175781,-0.0703125 z m -0.15234,4.5820312 c 0.17578,0 0.35156,0 0.35156,-0.1992187 0,-0.19921879 -0.21094,-0.19921879 -0.36328,-0.19921879 h -5.367188 c -0.152344,0 -0.351563,0 -0.351563,0.19921879 0,0.1992187 0.175782,0.1992187 0.339844,0.1992187 z m 0,0"
         style="fill:#000000;fill-opacity:1;fill-rule:nonzero;stroke:none" />
      <path
         id="path36"
         d="m 109.82194,-3.1883047 c 0,-0.796875 -0.0469,-1.59375 -0.39844,-2.3320312 -0.45703,-0.9609375 -1.27734,-1.1132813 -1.6875,-1.1132813 -0.59766,0 -1.33594,0.2578125 -1.73438,1.1835938 -0.32812,0.6914062 -0.375,1.4648437 -0.375,2.2617187 0,0.75 0.0469,1.640625 0.44532,2.40234376 0.43359,0.80859375 1.16015,1.0078125 1.65234,1.0078125 0.53906,0 1.28906,-0.2109375 1.73438,-1.16015625 0.3164,-0.69140621 0.36328,-1.46484371 0.36328,-2.25000001 z m -2.09766,3.1875000125 c -0.38672,0 -0.98437,-0.2460937525 -1.16016,-1.2070312125 -0.10546,-0.5976563 -0.10546,-1.5117188 -0.10546,-2.0976563 0,-0.6445312 0,-1.3007812 0.082,-1.8398437 0.1875,-1.1835938 0.92578,-1.265625 1.18359,-1.265625 0.32813,0 0.98438,0.1757812 1.17188,1.1601562 0.0937,0.5625 0.0937,1.3125 0.0937,1.9453125 0,0.75 0,1.4179688 -0.10547,2.0625 -0.15235,0.93750001 -0.71485,1.2421875125 -1.16016,1.2421875125 z m 0,0"
         style="fill:#000000;fill-opacity:1;fill-rule:nonzero;stroke:none" />
    </g>
  </g>
</svg>
