<?xml version="1.0" encoding="UTF-8" standalone="no"?>
<!-- Created with Inkscape (http://www.inkscape.org/) -->

<svg
   version="1.1"
   id="svg1"
   width="393.09332"
   height="30.813334"
   viewBox="0 0 393.09332 30.813334"
   sodipodi:docname="4Z+2inZ.pdf"
   xmlns:inkscape="http://www.inkscape.org/namespaces/inkscape"
   xmlns:sodipodi="http://sodipodi.sourceforge.net/DTD/sodipodi-0.dtd"
   xmlns="http://www.w3.org/2000/svg"
   xmlns:svg="http://www.w3.org/2000/svg">
  <defs
     id="defs1" />
  <sodipodi:namedview
     id="namedview1"
     pagecolor="#ffffff"
     bordercolor="#000000"
     borderopacity="0.25"
     inkscape:showpageshadow="2"
     inkscape:pageopacity="0.0"
     inkscape:pagecheckerboard="0"
     inkscape:deskcolor="#d1d1d1">
    <inkscape:page
       x="0"
       y="0"
       inkscape:label="1"
       id="page1"
       width="393.09332"
       height="30.813334"
       margin="0"
       bleed="0" />
  </sodipodi:namedview>
  <g
     id="g1"
     inkscape:groupmode="layer"
     inkscape:label="1">
    <path
       id="path1"
       d="M 65.38037,-14.6452 H 87.7457 V -37.0105 H 65.38037 Z"
       style="fill:none;stroke:#000000;stroke-width:0.74721;stroke-linecap:butt;stroke-linejoin:miter;stroke-miterlimit:10;stroke-dasharray:none;stroke-opacity:1"
       transform="matrix(1.3333333,0,0,-1.3333333,-22.610667,-19.030667)" />
    <path
       id="path2"
       d="m 87.7457,-14.6452 h 22.36531 V -37.0105 H 87.7457 Z"
       style="fill:none;stroke:#000000;stroke-width:0.74721;stroke-linecap:butt;stroke-linejoin:miter;stroke-miterlimit:10;stroke-dasharray:none;stroke-opacity:1"
       transform="matrix(1.3333333,0,0,-1.3333333,-22.610667,-19.030667)" />
    <path
       id="path3"
       d="m 110.11101,-14.6452 h 22.36531 v -22.3653 h -22.36531 z"
       style="fill:#f5a623;fill-opacity:0.3;fill-rule:nonzero;stroke:#000000;stroke-width:0.74721;stroke-linecap:butt;stroke-linejoin:miter;stroke-miterlimit:10;stroke-dasharray:none;stroke-opacity:1"
       transform="matrix(1.3333333,0,0,-1.3333333,-22.610667,-19.030667)" />
    <path
       id="path4"
       d="m 132.47632,-14.6452 h 22.36532 v -22.3653 h -22.36532 z"
       style="fill:none;stroke:#000000;stroke-width:0.74721;stroke-linecap:butt;stroke-linejoin:miter;stroke-miterlimit:10;stroke-dasharray:none;stroke-opacity:1"
       transform="matrix(1.3333333,0,0,-1.3333333,-22.610667,-19.030667)" />
    <path
       id="path5"
       d="m 154.84164,-14.6452 h 22.36533 v -22.3653 h -22.36533 z"
       style="fill:none;stroke:#000000;stroke-width:0.74721;stroke-linecap:butt;stroke-linejoin:miter;stroke-miterlimit:10;stroke-dasharray:none;stroke-opacity:1"
       transform="matrix(1.3333333,0,0,-1.3333333,-22.610667,-19.030667)" />
    <path
       id="path6"
       d="M 177.20697,-14.6452 H 199.5723 V -37.0105 H 177.20697 Z"
       style="fill:none;stroke:#000000;stroke-width:0.74721;stroke-linecap:butt;stroke-linejoin:miter;stroke-miterlimit:10;stroke-dasharray:none;stroke-opacity:1"
       transform="matrix(1.3333333,0,0,-1.3333333,-22.610667,-19.030667)" />
    <path
       id="path7"
       d="m 199.5723,-14.6452 h 22.36532 V -37.0105 H 199.5723 Z"
       style="fill:#f5a623;fill-opacity:0.3;fill-rule:nonzero;stroke:#000000;stroke-width:0.74721;stroke-linecap:butt;stroke-linejoin:miter;stroke-miterlimit:10;stroke-dasharray:none;stroke-opacity:1"
       transform="matrix(1.3333333,0,0,-1.3333333,-22.610667,-19.030667)" />
    <path
       id="path8"
       d="m 221.93762,-14.6452 h 22.37055 v -22.3653 h -22.37055 z"
       style="fill:none;stroke:#000000;stroke-width:0.74721;stroke-linecap:butt;stroke-linejoin:miter;stroke-miterlimit:10;stroke-dasharray:none;stroke-opacity:1"
       transform="matrix(1.3333333,0,0,-1.3333333,-22.610667,-19.030667)" />
    <path
       id="path9"
       d="M 244.30817,-14.6452 H 266.6735 V -37.0105 H 244.30817 Z"
       style="fill:none;stroke:#000000;stroke-width:0.74721;stroke-linecap:butt;stroke-linejoin:miter;stroke-miterlimit:10;stroke-dasharray:none;stroke-opacity:1"
       transform="matrix(1.3333333,0,0,-1.3333333,-22.610667,-19.030667)" />
    <path
       id="path10"
       d="m 266.6735,-14.6452 h 22.3653 v -22.3653 h -22.3653 z"
       style="fill:none;stroke:#000000;stroke-width:0.74721;stroke-linecap:butt;stroke-linejoin:miter;stroke-miterlimit:10;stroke-dasharray:none;stroke-opacity:1"
       transform="matrix(1.3333333,0,0,-1.3333333,-22.610667,-19.030667)" />
    <path
       id="path11"
       d="M 43.01505,-14.6452 H 65.38037 V -37.0105 H 43.01505 Z"
       style="fill:none;stroke:#000000;stroke-width:0.74721;stroke-linecap:butt;stroke-linejoin:miter;stroke-miterlimit:10;stroke-dasharray:none;stroke-opacity:1"
       transform="matrix(1.3333333,0,0,-1.3333333,-22.610667,-19.030667)" />
    <path
       id="path12"
       d="M 20.64972,-14.6452 H 43.01505 V -37.0105 H 20.64972 Z"
       style="fill:#f5a623;fill-opacity:0.3;fill-rule:nonzero;stroke:#000000;stroke-width:0.74721;stroke-linecap:butt;stroke-linejoin:miter;stroke-miterlimit:10;stroke-dasharray:none;stroke-opacity:1"
       transform="matrix(1.3333333,0,0,-1.3333333,-22.610667,-19.030667)" />
    <path
       id="path13"
       d="m 289.0388,-14.6452 h 22.36533 V -37.0105 H 289.0388 Z"
       style="fill:#f5a623;fill-opacity:0.3;fill-rule:nonzero;stroke:#000000;stroke-width:0.74721;stroke-linecap:butt;stroke-linejoin:miter;stroke-miterlimit:10;stroke-dasharray:none;stroke-opacity:1"
       transform="matrix(1.3333333,0,0,-1.3333333,-22.610667,-19.030667)" />
    <path
       id="path14"
       d="m 4.5812266,-3.186875 c 0,-0.796875 -0.046875,-1.59375 -0.3984375,-2.3320313 -0.4570313,-0.9609375 -1.2773438,-1.1132812 -1.6875,-1.1132812 -0.5976563,0 -1.3359375,0.2578125 -1.73437504,1.1835937 -0.328125,0.6914063 -0.375,1.4648438 -0.375,2.2617188 0,0.75 0.046875,1.640625 0.4453125,2.40234375 0.43359374,0.80859375 1.16015624,1.0078125 1.65234374,1.0078125 0.5390625,0 1.2890625,-0.2109375 1.734375,-1.16015625 0.3164063,-0.6914063 0.3632813,-1.4648438 0.3632813,-2.25 z m -2.0976563,3.1875 c -0.3867187,0 -0.984375,-0.24609375 -1.1601562,-1.2070313 -0.1054688,-0.5976562 -0.1054688,-1.5117187 -0.1054688,-2.0976562 0,-0.6445313 0,-1.3007813 0.082031,-1.8398438 0.1875,-1.1835937 0.9257812,-1.265625 1.1835937,-1.265625 0.328125,0 0.984375,0.1757813 1.171875,1.1601563 0.09375,0.5625 0.09375,1.3125 0.09375,1.9453125 0,0.75 0,1.4179687 -0.1054687,2.0625 -0.1523435,0.9375 -0.7148435,1.2421875 -1.160156,1.2421875 z m 0,0"
       style="fill:#000000;fill-opacity:1;fill-rule:nonzero;stroke:none"
       aria-label="0"
       transform="matrix(1.3333333,0,0,1.3333333,195.43467,19.686667)" />
    <path
       id="path15"
       d="m 2.9291172,-6.374375 c 0,-0.234375 0,-0.2578125 -0.234375,-0.2578125 -0.609375,0.6328125 -1.4882813,0.6328125 -1.80468751,0.6328125 v 0.3164062 c 0.19921871,0 0.78515621,0 1.30078121,-0.2578125 v 5.15625005 c 0,0.3515625 -0.035156,0.48046875 -0.9257812,0.48046875 H 0.94864844 V 6.25e-4 C 1.3002109,-0.03453125 2.1556797,-0.03453125 2.5541172,-0.03453125 c 0.3984375,0 1.265625,0 1.6171875,0.03515625 V -0.3040625 H 3.8548984 c -0.9023437,0 -0.9257812,-0.1171875 -0.9257812,-0.48046875 z m 0,0"
       style="fill:#000000;fill-opacity:1;fill-rule:nonzero;stroke:none"
       aria-label="1"
       transform="matrix(1.3333333,0,0,1.3333333,225.25467,19.686667)" />
    <path
       id="path16"
       d="M 1.2652891,-0.76109375 2.3199766,-1.7923438 c 1.5585937,-1.3710937 2.15625,-1.9101562 2.15625,-2.90625 0,-1.1367187 -0.9023438,-1.9335937 -2.1210938,-1.9335937 -1.125,0 -1.85156249,0.9140625 -1.85156249,1.8046875 0,0.5507812 0.4921875,0.5507812 0.52734379,0.5507812 0.1640625,0 0.515625,-0.1171875 0.515625,-0.5273437 0,-0.2578125 -0.1875,-0.515625 -0.5273438,-0.515625 -0.0820312,0 -0.10546874,0 -0.12890624,0.011719 C 1.1129453,-5.9525 1.6520078,-6.3275 2.2262266,-6.3275 c 0.9140625,0 1.3359375,0.8085937 1.3359375,1.6289062 0,0.796875 -0.4921875,1.5820313 -1.0429688,2.203125 L 0.60903906,-0.36265625 C 0.50357031,-0.2571875 0.50357031,-0.23375 0.50357031,6.25e-4 H 4.1949766 l 0.28125,-1.734375 H 4.2184141 c -0.046875,0.3046875 -0.1171875,0.73828125 -0.2109375,0.890625 -0.070313,0.0820313 -0.7265625,0.0820313 -0.9492188,0.0820313 z m 0,0"
       style="fill:#000000;fill-opacity:1;fill-rule:nonzero;stroke:none"
       aria-label="2"
       transform="matrix(1.3333333,0,0,1.3333333,255.07467,19.686667)" />
    <path
       id="path17"
       d="m 2.8934297,-3.5032813 c 0.8085937,-0.2695312 1.3945312,-0.9726562 1.3945312,-1.7578125 0,-0.8203125 -0.8789062,-1.3710937 -1.8398437,-1.3710937 -1.0078125,0 -1.75781251,0.5976562 -1.75781251,1.3476562 0,0.3398438 0.2109375,0.5273438 0.50390621,0.5273438 0.3046875,0 0.5039063,-0.2226563 0.5039063,-0.515625 0,-0.4921875 -0.46875,-0.4921875 -0.609375,-0.4921875 0.3046875,-0.4921875 0.9609375,-0.6210938 1.3242187,-0.6210938 0.4101563,0 0.9492188,0.2226563 0.9492188,1.1132813 0,0.1289062 -0.011719,0.703125 -0.2695313,1.1367187 -0.3046875,0.4804688 -0.6445312,0.515625 -0.890625,0.515625 -0.082031,0.011719 -0.3164062,0.035156 -0.3867187,0.035156 -0.082031,0.011719 -0.1523438,0.023437 -0.1523438,0.1171875 0,0.1171875 0.070312,0.1171875 0.234375,0.1171875 h 0.4453125 c 0.8085938,0 1.1835938,0.6679687 1.1835938,1.6523437 0,1.3476563 -0.6914063,1.64062505 -1.125,1.64062505 -0.4335938,0 -1.171875,-0.17578125 -1.52343751,-0.76171875 0.35156251,0.058594 0.65625001,-0.1640622 0.65625001,-0.5390622 0,-0.3632813 -0.2695313,-0.5625 -0.56250001,-0.5625 -0.234375,0 -0.55078125,0.140625 -0.55078125,0.5742187 0,0.91406255 0.92578126,1.57031255 2.00390626,1.57031255 1.21875,0 2.1210937,-0.9140625 2.1210937,-1.92187505 0,-0.8203125 -0.6210937,-1.59375 -1.6523437,-1.8046875 z m 0,0"
       style="fill:#000000;fill-opacity:1;fill-rule:nonzero;stroke:none"
       aria-label="3"
       transform="matrix(1.3333333,0,0,1.3333333,284.896,19.686667)" />
    <path
       id="path18"
       d="m 2.9296797,-1.64 v 0.8671875 c 0,0.3515625 -0.023437,0.46875 -0.7617188,0.46875 H 1.9570234 V 6.25e-4 c 0.4101563,-0.03515625 0.9375,-0.03515625 1.3476563,-0.03515625 0.421875,0 0.9492187,0 1.359375,0.03515625 V -0.3040625 H 4.4531172 c -0.7382813,0 -0.7617188,-0.1171875 -0.7617188,-0.46875 V -1.64 H 4.6874922 V -1.9564063 H 3.6913984 v -4.5234375 c 0,-0.1992187 0,-0.2578125 -0.1523437,-0.2578125 -0.09375,0 -0.1171875,0 -0.1992188,0.1171875 L 0.28124219,-1.9564063 V -1.64 Z m 0.058594,-0.3164063 H 0.56249219 L 2.9882734,-5.67125 Z m 0,0"
       style="fill:#000000;fill-opacity:1;fill-rule:nonzero;stroke:none"
       aria-label="4"
       transform="matrix(1.3333333,0,0,1.3333333,314.72267,19.686667)" />
    <path
       id="path19"
       d="m 4.4767891,-2.0032813 c 0,-1.1835937 -0.8203125,-2.1796875 -1.8984375,-2.1796875 -0.4804688,0 -0.9023438,0.1640625 -1.265625,0.5039063 v -1.9335938 c 0.1992187,0.058594 0.5273437,0.1289063 0.84375,0.1289063 1.2304687,0 1.9335937,-0.9140625 1.9335937,-1.0429688 0,-0.058594 -0.035156,-0.1054687 -0.1054687,-0.1054687 -0.011719,0 -0.035156,0 -0.082031,0.023437 -0.1992187,0.09375 -0.6796875,0.2929687 -1.3476562,0.2929687 -0.3984375,0 -0.8554688,-0.070312 -1.3242188,-0.28125 -0.082031,-0.023437 -0.1054687,-0.023437 -0.1289062,-0.023437 -0.09375,0 -0.09375,0.082031 -0.09375,0.234375 v 2.953125 c 0,0.1757813 0,0.2578125 0.140625,0.2578125 0.070312,0 0.082031,-0.035156 0.1289062,-0.09375 0.1054688,-0.1523437 0.4804688,-0.6914062 1.2773438,-0.6914062 0.5273437,0 0.7734375,0.4570312 0.8554687,0.6328125 0.1523438,0.375 0.1757813,0.7617187 0.1757813,1.2539062 0,0.3515625 0,0.9492188 -0.234375,1.3710938 -0.2460938,0.38671875 -0.609375,0.64453125 -1.0664063,0.64453125 -0.7265625,0 -1.30078124,-0.52734375 -1.46484374,-1.11328125 0.0234375,0.011719 0.0585938,0.011719 0.1640625,0.011719 0.32812504,0 0.50390624,-0.2460937 0.50390624,-0.4804687 0,-0.2460938 -0.1757812,-0.4921875 -0.50390624,-0.4921875 -0.140625,0 -0.48046875,0.070312 -0.48046875,0.5273437 0,0.8554688 0.67968749,1.82812505 1.79296879,1.82812505 1.1601562,0 2.1796875,-0.9609375 2.1796872,-2.22656285 z m 0,0"
       style="fill:#000000;fill-opacity:1;fill-rule:nonzero;stroke:none"
       aria-label="5"
       transform="matrix(1.3333333,0,0,1.3333333,344.54267,19.686667)" />
    <g
       id="g19"
       aria-label="−1"
       transform="matrix(1.3333333,0,0,1.3333333,160.448,19.133333)">
      <path
         id="path20"
         d="m 6.5634141,-2.2972656 c 0.1757812,0 0.3515625,0 0.3515625,-0.1992188 0,-0.1992187 -0.1757813,-0.1992187 -0.3515625,-0.1992187 h -5.390625 c -0.1640625,0 -0.33984379,0 -0.33984379,0.1992187 0,0.1992188 0.17578129,0.1992188 0.33984379,0.1992188 z m 0,0"
         style="fill:#000000;fill-opacity:1;fill-rule:nonzero;stroke:none" />
      <path
         id="path21"
         d="m 10.676695,-6.3753906 c 0,-0.234375 0,-0.2578125 -0.234375,-0.2578125 -0.6093747,0.6328125 -1.4882809,0.6328125 -1.8046872,0.6328125 v 0.3164062 c 0.1992188,0 0.7851563,0 1.3007813,-0.2578125 v 5.15625002 c 0,0.3515625 -0.035156,0.48046875 -0.9257813,0.48046875 H 8.6962266 V -3.90625e-4 C 9.0477891,-0.03554688 9.9032578,-0.03554688 10.301695,-0.03554688 c 0.398438,0 1.265625,0 1.617188,0.035156255 V -0.30507813 h -0.316406 c -0.902344,0 -0.925782,-0.1171875 -0.925782,-0.48046875 z m 0,0"
         style="fill:#000000;fill-opacity:1;fill-rule:nonzero;stroke:none" />
    </g>
    <g
       id="g21"
       aria-label="−2"
       transform="matrix(1.3333333,0,0,1.3333333,130.628,19.133333)">
      <path
         id="path22"
         d="m 6.5631797,-2.2972656 c 0.1757812,0 0.3515625,0 0.3515625,-0.1992188 0,-0.1992187 -0.1757813,-0.1992187 -0.3515625,-0.1992187 h -5.390625 c -0.1640625,0 -0.33984376,0 -0.33984376,0.1992187 0,0.1992188 0.17578126,0.1992188 0.33984376,0.1992188 z m 0,0"
         style="fill:#000000;fill-opacity:1;fill-rule:nonzero;stroke:none" />
      <path
         id="path23"
         d="M 9.0123984,-0.76210938 10.067086,-1.7933594 c 1.558594,-1.3710937 2.15625,-1.9101562 2.15625,-2.90625 0,-1.1367187 -0.902344,-1.9335937 -2.121094,-1.9335937 -1.1249998,0 -1.8515623,0.9140625 -1.8515623,1.8046875 0,0.5507812 0.4921875,0.5507812 0.5273437,0.5507812 0.1640625,0 0.515625,-0.1171875 0.515625,-0.5273437 0,-0.2578125 -0.1875,-0.515625 -0.5273437,-0.515625 -0.082031,0 -0.1054688,0 -0.1289063,0.011719 0.2226563,-0.6445312 0.7617188,-1.0195312 1.3359375,-1.0195312 0.9140621,0 1.3359371,0.8085937 1.3359371,1.6289062 0,0.796875 -0.492187,1.5820313 -1.042968,2.203125 L 8.3561484,-0.36367188 C 8.2506797,-0.25820313 8.2506797,-0.23476563 8.2506797,-3.90625e-4 h 3.6914063 l 0.28125,-1.734374975 h -0.257813 c -0.04687,0.3046875 -0.117187,0.73828122 -0.210937,0.89062497 -0.07031,0.0820313 -0.726563,0.0820313 -0.949219,0.0820313 z m 0,0"
         style="fill:#000000;fill-opacity:1;fill-rule:nonzero;stroke:none" />
    </g>
    <g
       id="g23"
       aria-label="−3"
       transform="matrix(1.3333333,0,0,1.3333333,100.80667,19.133333)">
      <path
         id="path24"
         d="m 6.5639453,-2.2972656 c 0.1757813,0 0.3515625,0 0.3515625,-0.1992188 0,-0.1992187 -0.1757812,-0.1992187 -0.3515625,-0.1992187 h -5.390625 c -0.1640625,0 -0.33984374,0 -0.33984374,0.1992187 0,0.1992188 0.17578124,0.1992188 0.33984374,0.1992188 z m 0,0"
         style="fill:#000000;fill-opacity:1;fill-rule:nonzero;stroke:none" />
      <path
         id="path25"
         d="m 10.64207,-3.5042969 c 0.808594,-0.2695312 1.394532,-0.9726562 1.394532,-1.7578125 0,-0.8203125 -0.878907,-1.3710937 -1.839844,-1.3710937 -1.0078127,0 -1.7578127,0.5976562 -1.7578127,1.3476562 0,0.3398438 0.2109375,0.5273438 0.5039063,0.5273438 0.3046875,0 0.5039062,-0.2226563 0.5039062,-0.515625 0,-0.4921875 -0.46875,-0.4921875 -0.609375,-0.4921875 0.3046875,-0.4921875 0.9609375,-0.6210938 1.3242192,-0.6210938 0.410156,0 0.949218,0.2226563 0.949218,1.1132813 0,0.1289062 -0.01172,0.703125 -0.269531,1.1367187 -0.304687,0.4804688 -0.644531,0.515625 -0.8906249,0.515625 -0.082031,0.011719 -0.3164063,0.035156 -0.3867188,0.035156 -0.082031,0.011719 -0.1523437,0.023437 -0.1523437,0.1171875 0,0.1171875 0.070312,0.1171875 0.234375,0.1171875 h 0.4453124 c 0.808594,0 1.183594,0.6679687 1.183594,1.6523437 0,1.34765627 -0.691406,1.64062502 -1.125,1.64062502 -0.4335939,0 -1.1718752,-0.17578125 -1.5234377,-0.76171875 0.3515625,0.0585938 0.65625,-0.1640625 0.65625,-0.53906247 0,-0.3632813 -0.2695312,-0.5625 -0.5625,-0.5625 -0.234375,0 -0.5507812,0.140625 -0.5507812,0.5742187 0,0.91406252 0.9257812,1.57031252 2.0039059,1.57031252 1.21875,0 2.121094,-0.9140625 2.121094,-1.92187502 0,-0.8203125 -0.621094,-1.59375 -1.652344,-1.8046872 z m 0,0"
         style="fill:#000000;fill-opacity:1;fill-rule:nonzero;stroke:none" />
    </g>
    <g
       id="g25"
       aria-label="−4"
       transform="matrix(1.3333333,0,0,1.3333333,70.986667,19.133333)">
      <path
         id="path26"
         d="m 6.5637109,-2.2972656 c 0.1757813,0 0.3515625,0 0.3515625,-0.1992188 0,-0.1992187 -0.1757812,-0.1992187 -0.3515625,-0.1992187 h -5.390625 c -0.1640625,0 -0.33984371,0 -0.33984371,0.1992187 0,0.1992188 0.17578121,0.1992188 0.33984371,0.1992188 z m 0,0"
         style="fill:#000000;fill-opacity:1;fill-rule:nonzero;stroke:none" />
      <path
         id="path27"
         d="m 10.676992,-1.6410156 v 0.86718747 c 0,0.3515625 -0.02344,0.46875 -0.7617186,0.46875 H 9.7043359 V -3.90625e-4 C 10.114492,-0.03554688 10.641836,-0.03554688 11.051992,-0.03554688 c 0.421875,0 0.949219,0 1.359375,0.035156255 V -0.30507813 H 12.20043 c -0.738282,0 -0.761719,-0.1171875 -0.761719,-0.46875 V -1.6410156 h 0.996094 v -0.3164063 h -0.996094 v -4.5234375 c 0,-0.1992187 0,-0.2578125 -0.152344,-0.2578125 -0.09375,0 -0.117187,0 -0.199219,0.1171875 l -3.0585933,4.6640625 v 0.3164063 z m 0.05859,-0.3164063 H 8.3098047 l 2.4257813,-3.7148437 z m 0,0"
         style="fill:#000000;fill-opacity:1;fill-rule:nonzero;stroke:none" />
    </g>
    <g
       id="g27"
       aria-label="−5"
       transform="matrix(1.3333333,0,0,1.3333333,41.166667,19.133333)">
      <path
         id="path28"
         d="m 6.5634766,-2.2972656 c 0.1757812,0 0.3515625,0 0.3515625,-0.1992188 0,-0.1992187 -0.1757813,-0.1992187 -0.3515625,-0.1992187 h -5.390625 c -0.1640625,0 -0.33984379,0 -0.33984379,0.1992187 0,0.1992188 0.17578129,0.1992188 0.33984379,0.1992188 z m 0,0"
         style="fill:#000000;fill-opacity:1;fill-rule:nonzero;stroke:none" />
      <path
         id="path29"
         d="m 12.223633,-2.0042969 c 0,-1.1835937 -0.820313,-2.1796875 -1.898438,-2.1796875 -0.4804684,0 -0.9023434,0.1640625 -1.2656247,0.5039063 v -1.9335938 c 0.1992188,0.058594 0.5273438,0.1289063 0.84375,0.1289063 1.2304687,0 1.9335937,-0.9140625 1.9335937,-1.0429688 0,-0.058594 -0.03516,-0.1054687 -0.105469,-0.1054687 -0.01172,0 -0.03516,0 -0.08203,0.023437 -0.199219,0.09375 -0.679687,0.2929687 -1.347656,0.2929687 -0.3984377,0 -0.8554689,-0.070312 -1.3242189,-0.28125 -0.082031,-0.023437 -0.1054688,-0.023437 -0.1289063,-0.023437 -0.09375,0 -0.09375,0.082031 -0.09375,0.234375 v 2.953125 c 0,0.1757813 0,0.2578125 0.140625,0.2578125 0.070312,0 0.082031,-0.035156 0.1289063,-0.09375 0.1054687,-0.1523437 0.4804687,-0.6914062 1.2773439,-0.6914062 0.527344,0 0.773437,0.4570312 0.855469,0.6328125 0.152343,0.375 0.175781,0.7617187 0.175781,1.2539062 0,0.3515625 0,0.9492188 -0.234375,1.37109377 -0.246094,0.38671875 -0.609375,0.64453125 -1.066406,0.64453125 -0.7265629,0 -1.3007817,-0.52734375 -1.4648442,-1.11328122 0.023437,0.011719 0.058594,0.011719 0.1640625,0.011719 0.328125,0 0.5039063,-0.2460937 0.5039063,-0.4804687 0,-0.2460938 -0.1757813,-0.4921875 -0.5039063,-0.4921875 -0.140625,0 -0.4804687,0.070312 -0.4804687,0.5273437 0,0.85546877 0.6796875,1.82812502 1.7929684,1.82812502 1.160157,0 2.179688,-0.9609375 2.179688,-2.22656252 z m 0,0"
         style="fill:#000000;fill-opacity:1;fill-rule:nonzero;stroke:none" />
    </g>
    <g
       id="g29"
       aria-label="−6"
       transform="matrix(1.3333333,0,0,1.3333333,11.345333,19.133333)">
      <path
         id="path30"
         d="m 6.5613125,-2.2972656 c 0.1757813,0 0.3515625,0 0.3515625,-0.1992188 0,-0.1992187 -0.1757812,-0.1992187 -0.3515625,-0.1992187 h -5.390625 c -0.1640625,0 -0.33984375,0 -0.33984375,0.1992187 0,0.1992188 0.17578125,0.1992188 0.33984375,0.1992188 z m 0,0"
         style="fill:#000000;fill-opacity:1;fill-rule:nonzero;stroke:none" />
      <path
         id="path31"
         d="m 9.0603359,-3.2699219 v -0.234375 c 0,-2.5195312 1.2421871,-2.8828125 1.7460941,-2.8828125 0.234375,0 0.65625,0.058594 0.878906,0.3984375 -0.152344,0 -0.550781,0 -0.550781,0.4453125 0,0.3164063 0.234375,0.4570313 0.457031,0.4570313 0.164062,0 0.457031,-0.082031 0.457031,-0.46875 0,-0.5976563 -0.433594,-1.078125 -1.265625,-1.078125 -1.2773436,0 -2.6132811,1.2890625 -2.6132811,3.4804687 0,2.66015627 1.1484375,3.37500002 2.0742191,3.37500002 1.113281,0 2.050781,-0.9375 2.050781,-2.25000002 0,-1.265625 -0.878906,-2.2265625 -1.992188,-2.2265625 -0.6679683,0 -1.0429683,0.5039063 -1.2421871,0.984375 z m 1.1835941,3.21093752 c -0.6210941,0 -0.9257816,-0.59765625 -0.9843753,-0.75 C 9.0837734,-1.2777344 9.0837734,-2.0746094 9.0837734,-2.2503906 c 0,-0.7734375 0.3164063,-1.7695313 1.2187496,-1.7695313 0.152344,0 0.609375,0 0.925782,0.609375 0.175781,0.375 0.175781,0.8789063 0.175781,1.3710938 0,0.4804687 0,0.9726562 -0.164063,1.33593747 -0.304687,0.59765625 -0.761718,0.64453125 -0.996093,0.64453125 z m 0,0"
         style="fill:#000000;fill-opacity:1;fill-rule:nonzero;stroke:none" />
    </g>
    <path
       id="path32"
       d="m 1.3119609,-3.2689063 v -0.234375 c 0,-2.5195312 1.2421875,-2.8828125 1.7460938,-2.8828125 0.234375,0 0.65625,0.058594 0.8789062,0.3984375 -0.1523437,0 -0.5507812,0 -0.5507812,0.4453125 0,0.3164063 0.234375,0.4570313 0.4570312,0.4570313 0.1640625,0 0.4570313,-0.082031 0.4570313,-0.46875 0,-0.5976563 -0.4335938,-1.078125 -1.265625,-1.078125 -1.2773438,0 -2.61328126,1.2890625 -2.61328126,3.4804687 0,2.6601563 1.14843746,3.37500005 2.07421876,3.37500005 1.1132812,0 2.0507812,-0.9375 2.0507812,-2.25000005 0,-1.265625 -0.8789062,-2.2265625 -1.9921875,-2.2265625 -0.6679687,0 -1.0429687,0.5039063 -1.2421875,0.984375 z m 1.1835938,3.21093755 c -0.6210938,0 -0.9257813,-0.59765625 -0.984375,-0.75 C 1.3353984,-1.2767188 1.3353984,-2.0735938 1.3353984,-2.249375 c 0,-0.7734375 0.3164063,-1.7695313 1.21875,-1.7695313 0.1523438,0 0.609375,0 0.9257813,0.609375 0.1757812,0.375 0.1757812,0.8789063 0.1757812,1.3710938 0,0.4804687 0,0.9726562 -0.1640625,1.3359375 -0.3046875,0.59765625 -0.7617187,0.64453125 -0.9960937,0.64453125 z m 0,0"
       style="fill:#000000;fill-opacity:1;fill-rule:nonzero;stroke:none"
       aria-label="6"
       transform="matrix(1.3333333,0,0,1.3333333,374.364,19.686667)" />
  </g>
</svg>
