<?xml version="1.0" encoding="UTF-8" standalone="no"?>
<!-- Created with Inkscape (http://www.inkscape.org/) -->

<svg
   version="1.1"
   id="svg1"
   width="178.17332"
   height="164.14667"
   viewBox="0 0 178.17332 164.14667"
   sodipodi:docname="A4.pdf"
   xmlns:inkscape="http://www.inkscape.org/namespaces/inkscape"
   xmlns:sodipodi="http://sodipodi.sourceforge.net/DTD/sodipodi-0.dtd"
   xmlns="http://www.w3.org/2000/svg"
   xmlns:svg="http://www.w3.org/2000/svg">
  <defs
     id="defs1" />
  <sodipodi:namedview
     id="namedview1"
     pagecolor="#ffffff"
     bordercolor="#000000"
     borderopacity="0.25"
     inkscape:showpageshadow="2"
     inkscape:pageopacity="0.0"
     inkscape:pagecheckerboard="0"
     inkscape:deskcolor="#d1d1d1">
    <inkscape:page
       x="0"
       y="0"
       inkscape:label="1"
       id="page1"
       width="178.17332"
       height="164.14667"
       margin="0"
       bleed="0" />
  </sodipodi:namedview>
  <g
     id="g1"
     inkscape:groupmode="layer"
     inkscape:label="1">
    <path
       id="path1"
       d="m 30.2619,-40.72281 h 74.72077 v -82.19284 H 30.2619 Z"
       style="fill:none;stroke:#000000;stroke-width:0.74721;stroke-linecap:butt;stroke-linejoin:miter;stroke-miterlimit:10;stroke-dasharray:4.48325, 4.48325;stroke-dashoffset:0;stroke-opacity:1"
       transform="matrix(1.3333333,0,0,-1.3333333,-18.730667,-14.993333)" />
    <path
       id="path2"
       d="m 30.2619,-40.72281 29.79863,18.04132"
       style="fill:none;stroke:#000000;stroke-width:0.74721;stroke-linecap:butt;stroke-linejoin:miter;stroke-miterlimit:10;stroke-dasharray:4.48325, 4.48325;stroke-dashoffset:0;stroke-opacity:1"
       transform="matrix(1.3333333,0,0,-1.3333333,-18.730667,-14.993333)" />
    <path
       id="path3"
       d="m 104.98267,-40.72281 29.79863,18.04132"
       style="fill:#000000;fill-opacity:1;fill-rule:nonzero;stroke:#000000;stroke-width:0.74721;stroke-linecap:butt;stroke-linejoin:miter;stroke-miterlimit:10;stroke-dasharray:4.48325, 4.48325;stroke-dashoffset:0;stroke-opacity:1"
       transform="matrix(1.3333333,0,0,-1.3333333,-18.730667,-14.993333)" />
    <path
       id="path4"
       d="m 104.98267,-122.91565 29.79863,18.04132"
       style="fill:none;stroke:#000000;stroke-width:0.74721;stroke-linecap:butt;stroke-linejoin:miter;stroke-miterlimit:10;stroke-dasharray:4.48325, 4.48325;stroke-dashoffset:0;stroke-opacity:1"
       transform="matrix(1.3333333,0,0,-1.3333333,-18.730667,-14.993333)" />
    <path
       id="path5"
       d="M 60.06053,-22.68149 H 134.7813"
       style="fill:none;stroke:#000000;stroke-width:0.74721;stroke-linecap:butt;stroke-linejoin:miter;stroke-miterlimit:10;stroke-dasharray:4.48325, 4.48325;stroke-dashoffset:0;stroke-opacity:1"
       transform="matrix(1.3333333,0,0,-1.3333333,-18.730667,-14.993333)" />
    <path
       id="path6"
       d="m 134.7813,-22.68149 v -82.19284"
       style="fill:none;stroke:#000000;stroke-width:0.74721;stroke-linecap:butt;stroke-linejoin:miter;stroke-miterlimit:10;stroke-dasharray:4.48325, 4.48325;stroke-dashoffset:0;stroke-opacity:1"
       transform="matrix(1.3333333,0,0,-1.3333333,-18.730667,-14.993333)" />
    <path
       id="path7"
       d="m 60.06053,-22.68149 v -82.19284"
       style="fill:none;stroke:#9b9b9b;stroke-width:0.74721;stroke-linecap:butt;stroke-linejoin:miter;stroke-miterlimit:10;stroke-dasharray:4.48325, 4.48325;stroke-dashoffset:0;stroke-opacity:0.5"
       transform="matrix(1.3333333,0,0,-1.3333333,-18.730667,-14.993333)" />
    <path
       id="path8"
       d="m 30.2619,-122.91565 29.79863,18.04132"
       style="fill:none;stroke:#9b9b9b;stroke-width:0.74721;stroke-linecap:butt;stroke-linejoin:miter;stroke-miterlimit:10;stroke-dasharray:4.48325, 4.48325;stroke-dashoffset:0;stroke-opacity:0.5"
       transform="matrix(1.3333333,0,0,-1.3333333,-18.730667,-14.993333)" />
    <path
       id="path9"
       d="M 60.06053,-104.87433 H 134.7813"
       style="fill:none;stroke:#9b9b9b;stroke-width:0.74721;stroke-linecap:butt;stroke-linejoin:miter;stroke-miterlimit:10;stroke-dasharray:4.48325, 4.48325;stroke-dashoffset:0;stroke-opacity:0.5"
       transform="matrix(1.3333333,0,0,-1.3333333,-18.730667,-14.993333)" />
    <path
       id="path10"
       d="M 60.06053,-22.68149 30.2619,-122.91565"
       style="fill:none;stroke:#bd10e0;stroke-width:1.49442;stroke-linecap:butt;stroke-linejoin:miter;stroke-miterlimit:10;stroke-dasharray:none;stroke-opacity:1"
       transform="matrix(1.3333333,0,0,-1.3333333,-18.730667,-14.993333)" />
    <path
       id="path11"
       d="m 60.06053,-22.68149 74.72077,-82.19284"
       style="fill:none;stroke:#bd10e0;stroke-width:1.49442;stroke-linecap:butt;stroke-linejoin:miter;stroke-miterlimit:10;stroke-dasharray:none;stroke-opacity:0.25"
       transform="matrix(1.3333333,0,0,-1.3333333,-18.730667,-14.993333)" />
    <path
       id="path12"
       d="m 30.2619,-122.91565 104.5194,18.04132"
       style="fill:none;stroke:#bd10e0;stroke-width:1.49442;stroke-linecap:butt;stroke-linejoin:miter;stroke-miterlimit:10;stroke-dasharray:none;stroke-opacity:1"
       transform="matrix(1.3333333,0,0,-1.3333333,-18.730667,-14.993333)" />
    <path
       id="path13"
       d="m 60.06053,-22.68149 44.92214,-18.04132"
       style="fill:none;stroke:#bd10e0;stroke-width:1.49442;stroke-linecap:butt;stroke-linejoin:miter;stroke-miterlimit:10;stroke-dasharray:none;stroke-opacity:1"
       transform="matrix(1.3333333,0,0,-1.3333333,-18.730667,-14.993333)" />
    <path
       id="path14"
       d="M 104.98267,-40.72281 30.2619,-122.91565"
       style="fill:none;stroke:#bd10e0;stroke-width:1.49442;stroke-linecap:butt;stroke-linejoin:miter;stroke-miterlimit:10;stroke-dasharray:none;stroke-opacity:1"
       transform="matrix(1.3333333,0,0,-1.3333333,-18.730667,-14.993333)" />
    <path
       id="path15"
       d="m 104.98267,-40.72281 29.79863,-64.15152"
       style="fill:none;stroke:#bd10e0;stroke-width:1.49442;stroke-linecap:butt;stroke-linejoin:miter;stroke-miterlimit:10;stroke-dasharray:none;stroke-opacity:1"
       transform="matrix(1.3333333,0,0,-1.3333333,-18.730667,-14.993333)" />
    <path
       id="path16"
       d="m 45.16122,-72.80043 h 74.72077"
       style="fill:none;stroke:#f5a623;stroke-width:1.49442;stroke-linecap:butt;stroke-linejoin:miter;stroke-miterlimit:10;stroke-dasharray:1.6837, 2.74971;stroke-dashoffset:0;stroke-opacity:0.75"
       transform="matrix(1.3333333,0,0,-1.3333333,-18.730667,-14.993333)" />
    <path
       id="path17"
       d="m 43.66681,-72.80043 c 0,0.82567 0.66873,1.49441 1.49441,1.49441 0.82566,0 1.49442,-0.66874 1.49442,-1.49441 0,-0.82193 -0.66876,-1.49442 -1.49442,-1.49442 -0.82568,0 -1.49441,0.67249 -1.49441,1.49442 z"
       style="fill:#f5a623;fill-opacity:1;fill-rule:nonzero;stroke:#000000;stroke-width:0.74721;stroke-linecap:butt;stroke-linejoin:miter;stroke-miterlimit:10;stroke-dasharray:none;stroke-opacity:1"
       transform="matrix(1.3333333,0,0,-1.3333333,-18.730667,-14.993333)" />
    <path
       id="path18"
       d="m 118.38757,-72.80043 c 0,0.82567 0.66873,1.49441 1.49442,1.49441 0.82565,0 1.49441,-0.66874 1.49441,-1.49441 0,-0.82193 -0.66876,-1.49442 -1.49441,-1.49442 -0.82569,0 -1.49442,0.67249 -1.49442,1.49442 z"
       style="fill:#f5a623;fill-opacity:1;fill-rule:nonzero;stroke:#000000;stroke-width:0.74721;stroke-linecap:butt;stroke-linejoin:miter;stroke-miterlimit:10;stroke-dasharray:none;stroke-opacity:1"
       transform="matrix(1.3333333,0,0,-1.3333333,-18.730667,-14.993333)" />
    <path
       id="path19"
       d="m 58.56612,-22.68149 c 0,0.82567 0.66874,1.49442 1.49441,1.49442 0.82567,0 1.49442,-0.66875 1.49442,-1.49442 0,-0.82564 -0.66875,-1.49441 -1.49442,-1.49441 -0.82567,0 -1.49441,0.66877 -1.49441,1.49441 z"
       style="fill:#000000;fill-opacity:1;fill-rule:nonzero;stroke:#000000;stroke-width:0.74721;stroke-linecap:butt;stroke-linejoin:miter;stroke-miterlimit:10;stroke-dasharray:none;stroke-opacity:1"
       transform="matrix(1.3333333,0,0,-1.3333333,-18.730667,-14.993333)" />
    <path
       id="path20"
       d="m 28.76749,-122.91565 c 0,0.82568 0.66873,1.49442 1.49441,1.49442 0.82567,0 1.49442,-0.66874 1.49442,-1.49442 0,-0.82567 -0.66875,-1.49441 -1.49442,-1.49441 -0.82568,0 -1.49441,0.66874 -1.49441,1.49441 z"
       style="fill:#000000;fill-opacity:1;fill-rule:nonzero;stroke:#000000;stroke-width:0.74721;stroke-linecap:butt;stroke-linejoin:miter;stroke-miterlimit:10;stroke-dasharray:none;stroke-opacity:1"
       transform="matrix(1.3333333,0,0,-1.3333333,-18.730667,-14.993333)" />
    <path
       id="path21"
       d="m 133.28688,-104.87433 c 0,0.82567 0.66875,1.49442 1.49442,1.49442 0.82566,0 1.49441,-0.66875 1.49441,-1.49442 0,-0.82564 -0.66875,-1.49441 -1.49441,-1.49441 -0.82567,0 -1.49442,0.66877 -1.49442,1.49441 z"
       style="fill:#000000;fill-opacity:1;fill-rule:nonzero;stroke:#000000;stroke-width:0.74721;stroke-linecap:butt;stroke-linejoin:miter;stroke-miterlimit:10;stroke-dasharray:none;stroke-opacity:1"
       transform="matrix(1.3333333,0,0,-1.3333333,-18.730667,-14.993333)" />
    <path
       id="path22"
       d="m 103.48825,-40.72281 c 0,0.82568 0.66873,1.49441 1.49442,1.49441 0.82566,0 1.49441,-0.66873 1.49441,-1.49441 0,-0.82567 -0.66875,-1.49441 -1.49441,-1.49441 -0.82569,0 -1.49442,0.66874 -1.49442,1.49441 z"
       style="fill:#000000;fill-opacity:1;fill-rule:nonzero;stroke:#000000;stroke-width:0.74721;stroke-linecap:butt;stroke-linejoin:miter;stroke-miterlimit:10;stroke-dasharray:none;stroke-opacity:1"
       transform="matrix(1.3333333,0,0,-1.3333333,-18.730667,-14.993333)" />
    <path
       id="path23"
       d="m 81.02719,-72.80043 c 0,0.82567 0.66873,1.49441 1.49441,1.49441 0.82566,0 1.49442,-0.66874 1.49442,-1.49441 0,-0.82193 -0.66876,-1.49442 -1.49442,-1.49442 -0.82568,0 -1.49441,0.67249 -1.49441,1.49442 z"
       style="fill:#000000;fill-opacity:1;fill-rule:nonzero;stroke:#000000;stroke-width:0.74721;stroke-linecap:butt;stroke-linejoin:miter;stroke-miterlimit:10;stroke-dasharray:none;stroke-opacity:1"
       transform="matrix(1.3333333,0,0,-1.3333333,-18.730667,-14.993333)" />
    <g
       id="g23"
       aria-label="M&#10;12"
       transform="matrix(1.3333333,0,0,1.3333333,26.834667,73.681333)">
      <path
         id="path24"
         d="m 9.2236094,-6.0363906 c 0.09375,-0.3632813 0.1054687,-0.4570313 0.8554686,-0.4570313 0.234375,0 0.316406,0 0.316406,-0.1992187 0,-0.1171875 -0.09375,-0.1171875 -0.269531,-0.1171875 H 8.8134531 c -0.2578125,0 -0.2695312,0 -0.3867187,0.1992187 L 4.7939219,-0.93873437 4.0204844,-6.5754531 c -0.035156,-0.234375 -0.058594,-0.234375 -0.3164063,-0.234375 h -1.359375 c -0.1875,0 -0.3046875,0 -0.3046875,0.1992187 0,0.1171875 0.09375,0.1171875 0.2929688,0.1171875 0.1289062,0 0.3046875,0.011719 0.421875,0.011719 0.1640625,0.023437 0.2226562,0.058594 0.2226562,0.1640625 0,0.035156 -0.011719,0.070312 -0.035156,0.1875 l -1.265625,5.0742187 c -0.1054688,0.39843753 -0.2695313,0.71484378 -1.07812503,0.75000003 -0.046875,0 -0.17578125,0 -0.17578125,0.1875 0,0.08203125 0.0585938,0.1171875 0.140625,0.1171875 0.31640625,0 0.66796878,-0.03515625 0.99609378,-0.03515625 0.3398437,0 0.6914062,0.03515625 1.0195312,0.03515625 0.046875,0 0.1757813,0 0.1757813,-0.19921875 0,-0.10546875 -0.1054688,-0.10546875 -0.1757813,-0.10546875 -0.5625,-0.0117188 -0.6796875,-0.2109375 -0.6796875,-0.4453125 0,-0.0703125 0.011719,-0.1171875 0.046875,-0.22265625 L 3.2939219,-6.4113906 h 0.011719 l 0.8554688,6.17578123 c 0.023437,0.12890625 0.035156,0.234375 0.1523437,0.234375 0.1054688,0 0.1757813,-0.10546875 0.2226563,-0.17578125 L 8.5556406,-6.4817031 h 0.011719 l -1.4296875,5.70703123 c -0.09375,0.38671875 -0.1171875,0.46875 -0.9023438,0.46875 -0.1640625,0 -0.28125,0 -0.28125,0.1875 0,0.1171875 0.1289063,0.1171875 0.1523438,0.1171875 0.28125,0 0.9609375,-0.03515625 1.2304687,-0.03515625 0.4101563,0 0.84375,0.03515625 1.2539063,0.03515625 0.058594,0 0.1875,0 0.1875,-0.19921875 0,-0.10546875 -0.09375,-0.10546875 -0.28125,-0.10546875 -0.3632813,0 -0.6445313,0 -0.6445313,-0.1875 0,-0.0351563 0,-0.0585938 0.046875,-0.234375 z m 0,0"
         style="fill:#f5a623;fill-opacity:1;fill-rule:nonzero;stroke:none" />
      <path
         id="path25"
         d="m 11.998023,-2.9338516 c 0,-0.1875 -0.01172,-0.1992187 -0.210937,-0.1992187 -0.445313,0.4335937 -1.078125,0.4453125 -1.359375,0.4453125 v 0.2460937 c 0.164062,0 0.621094,0 1.007812,-0.1875 v 3.55078129 c 0,0.23437501 0,0.32812501 -0.691406,0.32812501 h -0.269531 v 0.2460937 c 0.128906,-0.011719 0.984375,-0.023437 1.242187,-0.023437 0.210938,0 1.089844,0.011719 1.242188,0.023437 V 1.2497422 h -0.257813 c -0.703125,0 -0.703125,-0.09375 -0.703125,-0.32812501 z m 5.150391,3.16406254 h -0.234375 c -0.02344,0.15234375 -0.08203,0.5625 -0.175781,0.6328125 -0.05859,0.0351563 -0.597656,0.0351563 -0.691406,0.0351563 h -1.289063 c 0.738281,-0.64453125 0.984375,-0.84375 1.394531,-1.171875 0.515625,-0.41015625 0.996094,-0.84374994 0.996094,-1.49999994 0,-0.84375 -0.738281,-1.359375 -1.628906,-1.359375 -0.867188,0 -1.453125,0.609375 -1.453125,1.2421875 0,0.3632812 0.304687,0.3984375 0.375,0.3984375 0.164062,0 0.375,-0.1171875 0.375,-0.375 0,-0.1289063 -0.05859,-0.3632814 -0.421875,-0.3632814 0.222656,-0.5039061 0.691406,-0.65625 1.019531,-0.65625 0.703125,0 1.066406,0.5507814 1.066406,1.1132814 0,0.609375 -0.433593,1.08984369 -0.65625,1.33593744 l -1.6875,1.66406246 c -0.07031,0.058594 -0.07031,0.070312 -0.07031,0.2695312 h 2.882812 z m 0,0"
         style="fill:#f5a623;fill-opacity:1;fill-rule:nonzero;stroke:none" />
    </g>
    <g
       id="g25"
       aria-label="M&#10;34"
       transform="matrix(1.3333333,0,0,1.3333333,143.648,77.004)">
      <path
         id="path26"
         d="m 9.2229844,-6.0352266 c 0.09375,-0.3632812 0.1054687,-0.4570312 0.8554686,-0.4570312 0.234375,0 0.316406,0 0.316406,-0.1992188 0,-0.1171875 -0.09375,-0.1171875 -0.269531,-0.1171875 H 8.8128281 c -0.2578125,0 -0.2695312,0 -0.3867187,0.1992188 L 4.7932969,-0.93757031 4.0198594,-6.5742891 c -0.035156,-0.234375 -0.058594,-0.234375 -0.3164063,-0.234375 h -1.359375 c -0.1875,0 -0.3046875,0 -0.3046875,0.1992188 0,0.1171875 0.09375,0.1171875 0.2929688,0.1171875 0.1289062,0 0.3046875,0.011719 0.421875,0.011719 0.1640625,0.023437 0.2226562,0.058594 0.2226562,0.1640625 0,0.035156 -0.011719,0.070312 -0.035156,0.1875 l -1.265625,5.0742188 c -0.1054688,0.39843749 -0.2695313,0.71484374 -1.07812503,0.74999999 -0.046875,0 -0.17578125,0 -0.17578125,0.1875 0,0.08203125 0.0585938,0.1171874975 0.140625,0.1171874975 0.31640625,0 0.66796878,-0.0351562475 0.99609378,-0.0351562475 0.3398437,0 0.6914062,0.0351562475 1.0195312,0.0351562475 0.046875,0 0.1757813,0 0.1757813,-0.1992187475 0,-0.10546875 -0.1054688,-0.10546875 -0.1757813,-0.10546875 -0.5625,-0.0117188 -0.6796875,-0.2109375 -0.6796875,-0.4453125 0,-0.0703125 0.011719,-0.1171875 0.046875,-0.22265625 L 3.2932969,-6.4102266 h 0.011719 l 0.8554688,6.17578129 c 0.023437,0.12890625 0.035156,0.2343749975 0.1523437,0.2343749975 0.1054688,0 0.1757813,-0.1054687475 0.2226563,-0.1757812475 L 8.5550156,-6.4805391 h 0.011719 l -1.4296875,5.70703129 c -0.09375,0.38671875 -0.1171875,0.46875 -0.9023438,0.46875 -0.1640625,0 -0.28125,0 -0.28125,0.1875 0,0.1171874975 0.1289063,0.1171874975 0.1523438,0.1171874975 0.28125,0 0.9609375,-0.0351562475 1.2304687,-0.0351562475 0.4101563,0 0.84375,0.0351562475 1.2539063,0.0351562475 0.058594,0 0.1875,0 0.1875,-0.1992187475 0,-0.10546875 -0.09375,-0.10546875 -0.28125,-0.10546875 -0.3632813,0 -0.6445313,0 -0.6445313,-0.1875 0,-0.0351563 0,-0.0585938 0.046875,-0.234375 z m 0,0"
         style="fill:#f5a623;fill-opacity:1;fill-rule:nonzero;stroke:none" />
      <path
         id="path27"
         d="m 11.563805,-0.83796094 c 0.550781,0 0.9375,0.375 0.9375,1.125 0,0.86718754 -0.503907,1.12500004 -0.902344,1.12500004 -0.28125,0 -0.890625,-0.082031 -1.183594,-0.49218754 0.328125,-0.0117188 0.398438,-0.24609375 0.398438,-0.38671875 0,-0.22265625 -0.164063,-0.38671875 -0.386719,-0.38671875 -0.1875,0 -0.386719,0.1171875 -0.386719,0.41015625 0,0.65624999 0.726563,1.07812499 1.570313,1.07812499 0.972656,0 1.640625,-0.64453124 1.640625,-1.34765624 0,-0.5390625 -0.445313,-1.08984375 -1.21875,-1.2421875 0.738281,-0.26953126 0.996093,-0.79687496 0.996093,-1.21874996 0,-0.5507813 -0.632812,-0.9609375 -1.40625,-0.9609375 -0.773437,0 -1.359375,0.375 -1.359375,0.9375 0,0.234375 0.152344,0.3632812 0.363282,0.3632812 0.210937,0 0.351562,-0.1640625 0.351562,-0.3515625 0,-0.1992187 -0.140625,-0.3515625 -0.351562,-0.3632812 0.234375,-0.3046875 0.714843,-0.3867188 0.972656,-0.3867188 0.316406,0 0.761719,0.1523438 0.761719,0.7617188 0,0.2929687 -0.105469,0.609375 -0.28125,0.8320312 -0.234375,0.2578125 -0.421875,0.28125 -0.773438,0.2929688 -0.175781,0.023437 -0.1875,0.023437 -0.222656,0.023437 -0.01172,0 -0.07031,0.011719 -0.07031,0.09375 0,0.09375 0.05859,0.09375 0.175782,0.09375 z M 17.32357,0.34563281 V 0.09953906 H 16.550133 V -3.0059297 c 0,-0.1523437 0,-0.1992187 -0.152344,-0.1992187 -0.09375,0 -0.117187,0 -0.1875,0.09375 l -2.308594,3.21093746 v 0.24609375 h 2.050782 v 0.57421875 c 0,0.23437504 0,0.32812504 -0.5625,0.32812504 h -0.1875 v 0.2460937 c 0.351562,-0.011719 0.796875,-0.023437 1.042968,-0.023437 0.257813,0 0.703125,0.011719 1.054688,0.023437 V 1.2479766 h -0.1875 c -0.5625,0 -0.5625,-0.09375 -0.5625,-0.32812504 V 0.34563281 Z M 15.999352,-2.4551484 v 2.55468746 h -1.839844 z m 0,0"
         style="fill:#f5a623;fill-opacity:1;fill-rule:nonzero;stroke:none" />
    </g>
    <path
       id="path28"
       d="m 7.3708906,-4.3467734 c 0,-1.59375 -1.0546875,-2.671875 -2.5429687,-2.671875 -2.1445313,0 -4.33593752,2.2617187 -4.33593752,4.5820312 0,1.65234376 1.11328122,2.66015626 2.54296872,2.66015626 2.109375,0 4.3359375,-2.17968746 4.3359375,-4.57031246 z m -4.2773437,4.31249996 c -0.984375,0 -1.6757813,-0.80859375 -1.6757813,-2.12109376 0,-0.4453125 0.140625,-1.8984375 0.9023438,-3.0585937 0.6914062,-1.0429688 1.6640625,-1.5585938 2.4492187,-1.5585938 0.8203125,0 1.7109375,0.5625 1.7109375,2.0390625 0,0.7148438 -0.2695312,2.2734375 -1.2539062,3.5039063 -0.4804688,0.59765621 -1.2890625,1.19531246 -2.1328125,1.19531246 z m 0,0"
       style="fill:#000000;fill-opacity:1;fill-rule:nonzero;stroke:none"
       aria-label="O"
       transform="matrix(1.3333333,0,0,1.3333333,93.789333,94.338667)" />
    <g
       id="g28"
       aria-label="V&#10;1"
       transform="matrix(1.3333333,0,0,1.3333333,45.150667,10.068)">
      <path
         id="path29"
         d="m 6.2590703,-5.6730703 c 0.4804688,-0.7734375 0.9023438,-0.8085938 1.2773438,-0.8203125 0.1171875,-0.011719 0.1289062,-0.1875 0.1289062,-0.1875 0,-0.082031 -0.058594,-0.1289063 -0.1289062,-0.1289063 -0.2578125,0 -0.5507813,0.035156 -0.8203125,0.035156 -0.328125,0 -0.6679688,-0.035156 -0.984375,-0.035156 -0.058594,0 -0.1875,0 -0.1875,0.1992188 0,0.1054687 0.082031,0.1171875 0.1523437,0.1171875 0.2695313,0.011719 0.4570313,0.1171875 0.4570313,0.328125 0,0.1523437 -0.140625,0.3632812 -0.140625,0.375 L 2.9543828,-0.92697656 2.2746953,-6.2004141 c 0,-0.1640625 0.2226563,-0.2929687 0.6796875,-0.2929687 0.140625,0 0.2578125,0 0.2578125,-0.1992188 0,-0.09375 -0.082031,-0.1171875 -0.140625,-0.1171875 -0.3984375,0 -0.8320312,0.035156 -1.2421875,0.035156 -0.1757812,0 -0.3632812,-0.011719 -0.5390625,-0.011719 -0.1875,0 -0.37499999,-0.023437 -0.53906249,-0.023437 -0.0703125,0 -0.1875,0 -0.1875,0.1992188 0,0.1171875 0.0820313,0.1171875 0.24609375,0.1171875 0.55078124,0 0.56250004,0.082031 0.59765624,0.3398437 l 0.7851563,6.14062504 c 0.035156,0.19921875 0.070312,0.234375 0.1992187,0.234375 0.1640625,0 0.1992188,-0.0585938 0.28125,-0.1875 z m 0,0"
         style="fill:#000000;fill-opacity:1;fill-rule:nonzero;stroke:none" />
      <path
         id="path30"
         d="m 8.1428594,-2.9338125 c 0,-0.1875 -0.011719,-0.1992187 -0.2109375,-0.1992187 -0.4453125,0.4335937 -1.078125,0.4453125 -1.359375,0.4453125 v 0.2460937 c 0.1640625,0 0.6210937,0 1.0078125,-0.1875 v 3.55078125 c 0,0.23437505 0,0.32812505 -0.6914063,0.32812505 H 6.6194219 V 1.495875 c 0.1289062,-0.011719 0.984375,-0.023437 1.2421875,-0.023437 0.2109375,0 1.0898437,0.011719 1.2421875,0.023437 V 1.2497813 H 8.8459844 c -0.703125,0 -0.703125,-0.09375 -0.703125,-0.32812505 z m 0,0"
         style="fill:#000000;fill-opacity:1;fill-rule:nonzero;stroke:none" />
    </g>
    <g
       id="g30"
       aria-label="V&#10;3"
       transform="matrix(1.3333333,0,0,1.3333333,163.468,137.104)">
      <path
         id="path31"
         d="m 6.258375,-5.6707734 c 0.4804688,-0.7734375 0.9023438,-0.8085938 1.2773438,-0.8203125 0.1171875,-0.011719 0.1289062,-0.1875 0.1289062,-0.1875 0,-0.082031 -0.058594,-0.1289063 -0.1289062,-0.1289063 -0.2578125,0 -0.5507813,0.035156 -0.8203125,0.035156 -0.328125,0 -0.6679688,-0.035156 -0.984375,-0.035156 -0.058594,0 -0.1875,0 -0.1875,0.1992188 0,0.1054687 0.082031,0.1171875 0.1523437,0.1171875 0.2695313,0.011719 0.4570313,0.1171875 0.4570313,0.328125 0,0.1523437 -0.140625,0.3632812 -0.140625,0.375 L 2.9536875,-0.92467969 2.274,-6.1981172 c 0,-0.1640625 0.2226563,-0.2929687 0.6796875,-0.2929687 0.140625,0 0.2578125,0 0.2578125,-0.1992188 0,-0.09375 -0.082031,-0.1171875 -0.140625,-0.1171875 -0.3984375,0 -0.8320312,0.035156 -1.2421875,0.035156 -0.1757812,0 -0.3632812,-0.011719 -0.5390625,-0.011719 -0.1875,0 -0.375,-0.023437 -0.5390625,-0.023437 -0.0703125,0 -0.1875,0 -0.1875,0.1992188 0,0.1171875 0.0820313,0.1171875 0.24609375,0.1171875 0.55078125,0 0.56250005,0.082031 0.59765625,0.3398437 l 0.7851563,6.14062501 c 0.035156,0.19921875 0.070312,0.234375 0.1992187,0.234375 0.1640625,0 0.1992188,-0.0585938 0.28125,-0.1875 z m 0,0"
         style="fill:#000000;fill-opacity:1;fill-rule:nonzero;stroke:none" />
      <path
         id="path32"
         d="m 7.7115,-0.83678906 c 0.5507813,0 0.9375,0.375 0.9375,1.125 0,0.86718746 -0.5039062,1.12499996 -0.9023437,1.12499996 -0.28125,0 -0.890625,-0.082031 -1.1835938,-0.49218746 C 6.8911875,0.90930469 6.9615,0.67492969 6.9615,0.53430469 c 0,-0.22265625 -0.1640625,-0.38671875 -0.3867187,-0.38671875 -0.1875,0 -0.3867188,0.1171875 -0.3867188,0.41015625 0,0.65625001 0.7265625,1.07812501 1.5703125,1.07812501 0.9726563,0 1.640625,-0.64453126 1.640625,-1.34765626 0,-0.5390625 -0.4453125,-1.08984375 -1.21875,-1.2421875 0.7382813,-0.26953124 0.9960938,-0.79687504 0.9960938,-1.21875004 0,-0.5507812 -0.6328125,-0.9609375 -1.40625,-0.9609375 -0.7734375,0 -1.359375,0.375 -1.359375,0.9375 0,0.234375 0.1523437,0.3632813 0.3632812,0.3632813 0.2109375,0 0.3515625,-0.1640625 0.3515625,-0.3515625 0,-0.1992188 -0.140625,-0.3515625 -0.3515625,-0.3632813 0.234375,-0.3046875 0.7148438,-0.3867187 0.9726563,-0.3867187 0.3164062,0 0.7617187,0.1523437 0.7617187,0.7617187 0,0.2929688 -0.1054687,0.609375 -0.28125,0.8320313 -0.234375,0.2578125 -0.421875,0.28125 -0.7734375,0.2929687 -0.1757812,0.023437 -0.1875,0.023437 -0.2226562,0.023437 -0.011719,0 -0.070312,0.011719 -0.070312,0.09375 0,0.09375 0.058594,0.09375 0.1757812,0.09375 z m 0,0"
         style="fill:#000000;fill-opacity:1;fill-rule:nonzero;stroke:none" />
    </g>
    <g
       id="g32"
       aria-label="V&#10;2"
       transform="matrix(1.3333333,0,0,1.3333333,5.42,161.16)">
      <path
         id="path33"
         d="m 6.2592187,-5.6717578 c 0.4804688,-0.7734375 0.9023438,-0.8085938 1.2773438,-0.8203125 0.1171875,-0.011719 0.1289062,-0.1875 0.1289062,-0.1875 0,-0.082031 -0.058594,-0.1289063 -0.1289062,-0.1289063 -0.2578125,0 -0.5507813,0.035156 -0.8203125,0.035156 -0.328125,0 -0.6679688,-0.035156 -0.984375,-0.035156 -0.058594,0 -0.1875,0 -0.1875,0.1992188 0,0.1054687 0.082031,0.1171875 0.1523437,0.1171875 0.2695313,0.011719 0.4570313,0.1171875 0.4570313,0.328125 0,0.1523437 -0.140625,0.3632812 -0.140625,0.375 L 2.9545312,-0.92566406 2.2748437,-6.1991016 c 0,-0.1640625 0.2226563,-0.2929687 0.6796875,-0.2929687 0.140625,0 0.2578125,0 0.2578125,-0.1992188 0,-0.09375 -0.082031,-0.1171875 -0.140625,-0.1171875 -0.3984375,0 -0.8320312,0.035156 -1.2421875,0.035156 -0.1757812,0 -0.3632812,-0.011719 -0.5390625,-0.011719 -0.1875,0 -0.37499995,-0.023437 -0.53906245,-0.023437 -0.0703125,0 -0.1875,0 -0.1875,0.1992188 0,0.1171875 0.0820313,0.1171875 0.24609375,0.1171875 0.5507812,0 0.5625,0.082031 0.5976562,0.3398437 l 0.7851563,6.14062504 c 0.035156,0.19921875 0.070312,0.234375 0.1992187,0.234375 0.1640625,0 0.1992188,-0.0585938 0.28125,-0.1875 z m 0,0"
         style="fill:#000000;fill-opacity:1;fill-rule:nonzero;stroke:none" />
      <path
         id="path34"
         d="m 9.3266016,0.22863281 h -0.234375 c -0.023437,0.15234375 -0.082031,0.5625 -0.1757813,0.6328125 -0.058594,0.0351563 -0.5976562,0.0351563 -0.6914062,0.0351563 H 6.9359766 c 0.7382812,-0.64453125 0.984375,-0.84375 1.3945312,-1.171875 0.515625,-0.41015625 0.9960938,-0.84374991 0.9960938,-1.49999991 0,-0.8437501 -0.7382813,-1.3593751 -1.6289063,-1.3593751 -0.8671875,0 -1.453125,0.609375 -1.453125,1.2421876 0,0.3632812 0.3046875,0.3984375 0.375,0.3984375 0.1640625,0 0.375,-0.1171875 0.375,-0.375 0,-0.1289063 -0.058594,-0.3632814 -0.421875,-0.3632814 0.2226563,-0.5039062 0.6914063,-0.65625 1.0195313,-0.65625 0.703125,0 1.0664062,0.5507813 1.0664062,1.1132813 0,0.609375 -0.4335937,1.08984376 -0.65625,1.33593751 l -1.6875,1.66406249 c -0.070312,0.058594 -0.070312,0.070312 -0.070312,0.2695312 h 2.8828125 z m 0,0"
         style="fill:#000000;fill-opacity:1;fill-rule:nonzero;stroke:none" />
    </g>
    <g
       id="g34"
       aria-label="V&#10;4"
       transform="matrix(1.3333333,0,0,1.3333333,114.392,31.134667)">
      <path
         id="path35"
         d="M 6.2567813,-5.6732656 C 6.73725,-6.4467031 7.159125,-6.4818594 7.534125,-6.4935781 c 0.1171875,-0.011719 0.1289063,-0.1875 0.1289063,-0.1875 0,-0.082031 -0.058594,-0.1289063 -0.1289063,-0.1289063 -0.2578125,0 -0.5507812,0.035156 -0.8203125,0.035156 -0.328125,0 -0.6679687,-0.035156 -0.984375,-0.035156 -0.058594,0 -0.1875,0 -0.1875,0.1992188 0,0.1054687 0.082031,0.1171875 0.1523438,0.1171875 0.2695312,0.011719 0.4570312,0.1171875 0.4570312,0.328125 0,0.1523437 -0.140625,0.3632812 -0.140625,0.375 L 2.9520938,-0.92717187 2.2724063,-6.2006094 c 0,-0.1640625 0.2226562,-0.2929687 0.6796875,-0.2929687 0.140625,0 0.2578125,0 0.2578125,-0.1992188 0,-0.09375 -0.082031,-0.1171875 -0.140625,-0.1171875 -0.3984375,0 -0.8320313,0.035156 -1.2421875,0.035156 -0.1757813,0 -0.3632813,-0.011719 -0.5390625,-0.011719 -0.1875,0 -0.37500005,-0.023437 -0.53906255,-0.023437 -0.0703125,0 -0.1875,0 -0.1875,0.1992188 0,0.1171875 0.0820313,0.1171875 0.24609375,0.1171875 0.5507813,0 0.5625,0.082031 0.5976563,0.3398437 l 0.7851562,6.14062503 c 0.035156,0.19921875 0.070312,0.234375 0.1992188,0.234375 0.1640625,0 0.1992187,-0.0585938 0.28125,-0.1875 z m 0,0"
         style="fill:#000000;fill-opacity:1;fill-rule:nonzero;stroke:none" />
      <path
         id="path36"
         d="M 9.502875,0.34724219 V 0.10114844 H 8.7294375 V -3.0043203 c 0,-0.1523438 0,-0.1992188 -0.1523437,-0.1992188 -0.09375,0 -0.1171875,0 -0.1875,0.09375 L 6.081,0.10114844 v 0.24609375 h 2.0507813 v 0.57421875 c 0,0.23437496 0,0.32812496 -0.5625,0.32812496 h -0.1875 v 0.2460938 c 0.3515625,-0.011719 0.796875,-0.023437 1.0429687,-0.023437 0.2578125,0 0.703125,0.011719 1.0546875,0.023437 V 1.2495859 h -0.1875 c -0.5625,0 -0.5625,-0.09375 -0.5625,-0.32812496 V 0.34724219 Z M 8.1786563,-2.4535391 V 0.10114844 H 6.3388125 Z m 0,0"
         style="fill:#000000;fill-opacity:1;fill-rule:nonzero;stroke:none" />
    </g>
  </g>
</svg>
