<?xml version="1.0" encoding="UTF-8" standalone="no"?>
<!-- Created with Inkscape (http://www.inkscape.org/) -->

<svg
   version="1.1"
   id="svg1"
   width="463.64001"
   height="109.05333"
   viewBox="0 0 463.64001 109.05333"
   sodipodi:docname="centralizer.pdf"
   xmlns:inkscape="http://www.inkscape.org/namespaces/inkscape"
   xmlns:sodipodi="http://sodipodi.sourceforge.net/DTD/sodipodi-0.dtd"
   xmlns="http://www.w3.org/2000/svg"
   xmlns:svg="http://www.w3.org/2000/svg">
  <defs
     id="defs1" />
  <sodipodi:namedview
     id="namedview1"
     pagecolor="#ffffff"
     bordercolor="#000000"
     borderopacity="0.25"
     inkscape:showpageshadow="2"
     inkscape:pageopacity="0.0"
     inkscape:pagecheckerboard="0"
     inkscape:deskcolor="#d1d1d1">
    <inkscape:page
       x="0"
       y="0"
       inkscape:label="1"
       id="page1"
       width="463.64001"
       height="109.05333"
       margin="0"
       bleed="0" />
  </sodipodi:namedview>
  <g
     id="g1"
     inkscape:groupmode="layer"
     inkscape:label="1">
    <path
       id="path1"
       d="m 30.26169,-45.0563 h 39.83784 v -80.29438 H 30.26169 Z"
       style="fill:none;stroke:#000000;stroke-width:1.49442;stroke-linecap:butt;stroke-linejoin:miter;stroke-miterlimit:10;stroke-dasharray:none;stroke-opacity:1"
       transform="matrix(1.3333333,0,0,-1.3333333,-34.929333,-59.076)" />
    <path
       id="path2"
       d="m 70.09953,-45.0563 h 39.83787 v -80.29438 H 70.09953 Z"
       style="fill:none;stroke:#000000;stroke-width:1.49442;stroke-linecap:butt;stroke-linejoin:miter;stroke-miterlimit:10;stroke-dasharray:none;stroke-opacity:1"
       transform="matrix(1.3333333,0,0,-1.3333333,-34.929333,-59.076)" />
    <path
       id="path3"
       d="m 109.9374,-45.0563 h 39.83784 v -80.29438 H 109.9374 Z"
       style="fill:none;stroke:#000000;stroke-width:1.49442;stroke-linecap:butt;stroke-linejoin:miter;stroke-miterlimit:10;stroke-dasharray:none;stroke-opacity:1"
       transform="matrix(1.3333333,0,0,-1.3333333,-34.929333,-59.076)" />
    <path
       id="path4"
       d="m 149.77524,-45.0563 h 39.83786 v -80.29438 h -39.83786 z"
       style="fill:none;stroke:#000000;stroke-width:1.49442;stroke-linecap:butt;stroke-linejoin:miter;stroke-miterlimit:10;stroke-dasharray:none;stroke-opacity:1"
       transform="matrix(1.3333333,0,0,-1.3333333,-34.929333,-59.076)" />
    <path
       id="path5"
       d="m 213.82246,-45.0563 h 159.35813 v -80.29438 H 213.82246 Z"
       style="fill:none;stroke:#000000;stroke-width:1.49442;stroke-linecap:butt;stroke-linejoin:miter;stroke-miterlimit:10;stroke-dasharray:none;stroke-opacity:1"
       transform="matrix(1.3333333,0,0,-1.3333333,-34.929333,-59.076)" />
    <path
       id="path6"
       d="m 1.8627344,-2.2971172 c 0.2929687,0 1.03125,-0.023437 1.5234375,-0.234375 0.703125,-0.2929687 0.75,-0.890625 0.75,-1.0195312 0,-0.4453125 -0.3867188,-0.8554688 -1.0664063,-0.8554688 -1.1132812,0 -2.61328123,0.9726563 -2.61328123,2.7070313 0,1.01953121 0.58593753,1.80468746 1.57031253,1.80468746 1.4179687,0 2.2617187,-1.0546875 2.2617187,-1.17187496 0,-0.058594 -0.070312,-0.1289063 -0.1289062,-0.1289063 -0.046875,0 -0.070312,0.023437 -0.1289063,0.09375 -0.7851562,0.99609376 -1.875,0.99609376 -1.9921875,0.99609376 -0.7734375,0 -0.8671875,-0.84375 -0.8671875,-1.16015626 0,-0.1171875 0.011719,-0.4335937 0.1640625,-1.03125 z m -0.46875,-0.2226562 c 0.3867187,-1.5117188 1.4179687,-1.6640625 1.6757812,-1.6640625 0.46875,0 0.7382813,0.2929687 0.7382813,0.6328125 0,1.03125 -1.59375,1.03125 -2.0039063,1.03125 z m 0,0"
       style="fill:#000000;fill-opacity:1;fill-rule:nonzero;stroke:none"
       aria-label="e"
       transform="matrix(1.3333333,0,0,1.3333333,14.086667,10.902667)" />
    <path
       id="path7"
       d="m 4.6869531,-3.7508672 c 0.011719,-0.070312 0.035156,-0.1171875 0.035156,-0.1875 0,-0.1640625 -0.1171875,-0.2695312 -0.2929688,-0.2695312 -0.09375,0 -0.3632812,0.070312 -0.4101562,0.4335937 -0.1757813,-0.375 -0.5273438,-0.6328125 -0.9257813,-0.6328125 -1.1367187,0 -2.36718748,1.3945313 -2.36718748,2.8359375 0,0.98437501 0.60937498,1.5703125125 1.32421878,1.5703125125 0.5859375,0 1.0546875,-0.4687500025 1.1601562,-0.5742187525 l 0.011719,0.0117188 c -0.2109375,0.87890625 -0.328125,1.2890625 -0.328125,1.3125 -0.046875,0.0820313 -0.3867188,1.07812504 -1.4414063,1.07812504 -0.1875,0 -0.51562498,-0.011719 -0.79687498,-0.1054688 0.3046875,-0.09375 0.41015628,-0.3515625 0.41015628,-0.515625 0,-0.1640625 -0.10546878,-0.35156249 -0.37500003,-0.35156249 -0.22265625,0 -0.5390625,0.17578119 -0.5390625,0.57421879 0,0.4101562 0.36328125,0.609375 1.32421873,0.609375 1.2421875,0 1.9570313,-0.7734376 2.109375,-1.37109379 z m -1.2890625,2.4726563 c -0.058594,0.2578125 -0.2929687,0.51562496 -0.5039062,0.70312496 -0.2109375,0.17578125 -0.5273438,0.3515625 -0.8085938,0.3515625 -0.5039062,0 -0.65625,-0.515625 -0.65625,-0.91406246 0,-0.4804688 0.2929688,-1.6523438 0.5625,-2.15625 0.2695313,-0.4921875 0.703125,-0.890625 1.1132813,-0.890625 0.65625,0 0.796875,0.8085937 0.796875,0.8554687 0,0.046875 -0.011719,0.1054688 -0.023437,0.1523438 z m 0,0"
       style="fill:#000000;fill-opacity:1;fill-rule:nonzero;stroke:none"
       aria-label="g"
       transform="matrix(1.3333333,0,0,1.3333333,14.086667,34.216)" />
    <g
       id="g7"
       aria-label="C(g)"
       transform="matrix(1.3333333,0,0,1.3333333,19.466667,95.844)">
      <path
         id="path8"
         d="m 7.5689453,-6.9259687 c 0,-0.023437 -0.023437,-0.09375 -0.1054687,-0.09375 -0.035156,0 -0.046875,0.011719 -0.1523438,0.1171875 l -0.703125,0.7617187 c -0.082031,-0.140625 -0.5390625,-0.8789062 -1.6523437,-0.8789062 -2.2148438,0 -4.45312504,2.203125 -4.45312504,4.5117187 0,1.640625 1.17187504,2.73046875 2.69531254,2.73046875 0.8671875,0 1.6171875,-0.3984375 2.1445312,-0.85546875 0.9375,-0.8203125 1.1015625,-1.7226562 1.1015625,-1.7578125 0,-0.1054687 -0.1054687,-0.1054687 -0.1171875,-0.1054687 -0.058594,0 -0.1171875,0.023437 -0.1289062,0.1054687 -0.09375,0.2929688 -0.3164063,0.9960938 -1.0078125,1.5703125 -0.6914063,0.5625 -1.3125,0.7265625 -1.8398438,0.7265625 -0.890625,0 -1.9453125,-0.515625 -1.9453125,-2.0625 0,-0.5742187 0.2109375,-2.1914062 1.2070313,-3.3515625 0.609375,-0.703125 1.5351562,-1.2070312 2.4257812,-1.2070312 1.0195313,0 1.6054688,0.7734375 1.6054688,1.921875 0,0.3984375 -0.035156,0.4101562 -0.035156,0.5039062 0,0.1054688 0.1171875,0.1054688 0.1523438,0.1054688 0.1289062,0 0.1289062,-0.023437 0.1757812,-0.1992188 z m 0,0"
         style="fill:#000000;fill-opacity:1;fill-rule:nonzero;stroke:none" />
      <path
         id="path9"
         d="m 11.125586,2.3904375 c 0,-0.035156 0,-0.046875 -0.164063,-0.2226562 C 9.7193359,0.913875 9.3912109,-0.961125 9.3912109,-2.4962812 c 0,-1.7226563 0.3867188,-3.4570313 1.6054691,-4.7109375 0.128906,-0.1171875 0.128906,-0.1289063 0.128906,-0.1640625 0,-0.070312 -0.03516,-0.1054688 -0.09375,-0.1054688 -0.105469,0 -0.996094,0.6796875 -1.5820313,1.9453125 -0.515625,1.1015625 -0.6328125,2.203125 -0.6328125,3.0351563 0,0.7851562 0.1171875,1.99218745 0.65625,3.11718745 0.5976558,1.21875005 1.4531248,1.87500005 1.5585938,1.87500005 0.05859,0 0.09375,-0.035156 0.09375,-0.1054688 z m 0,0"
         style="fill:#000000;fill-opacity:1;fill-rule:nonzero;stroke:none" />
      <path
         id="path10"
         d="m 16.396094,-3.7501875 c 0.01172,-0.070312 0.03516,-0.1171875 0.03516,-0.1875 0,-0.1640625 -0.117188,-0.2695312 -0.292969,-0.2695312 -0.09375,0 -0.363281,0.070312 -0.410156,0.4335937 -0.175781,-0.375 -0.527344,-0.6328125 -0.925781,-0.6328125 -1.136719,0 -2.367188,1.3945313 -2.367188,2.8359375 0,0.984375 0.609375,1.5703125 1.324219,1.5703125 0.585937,0 1.054687,-0.46875 1.160156,-0.57421875 l 0.01172,0.0117188 c -0.210938,0.87890625 -0.328125,1.2890625 -0.328125,1.3125 -0.04687,0.0820313 -0.386719,1.07812495 -1.441406,1.07812495 -0.1875,0 -0.515625,-0.011719 -0.796875,-0.1054687 0.304687,-0.09375 0.410156,-0.3515625 0.410156,-0.515625 0,-0.1640625 -0.105469,-0.3515625 -0.375,-0.3515625 -0.222656,0 -0.539063,0.1757812 -0.539063,0.5742187 0,0.4101563 0.363282,0.609375 1.324219,0.609375 1.242188,0 1.957031,-0.7734375 2.109375,-1.3710937 z m -1.289063,2.4726563 c -0.05859,0.2578125 -0.292969,0.51562495 -0.503906,0.70312495 -0.210938,0.17578125 -0.527344,0.3515625 -0.808594,0.3515625 -0.503906,0 -0.65625,-0.515625 -0.65625,-0.91406245 0,-0.4804688 0.292969,-1.6523438 0.5625,-2.15625 0.269531,-0.4921875 0.703125,-0.890625 1.113281,-0.890625 0.65625,0 0.796875,0.8085937 0.796875,0.8554687 0,0.046875 -0.01172,0.1054688 -0.02344,0.1523438 z m 0,0"
         style="fill:#000000;fill-opacity:1;fill-rule:nonzero;stroke:none" />
      <path
         id="path11"
         d="m 19.700781,-2.4962812 c 0,-0.7734375 -0.117187,-1.9804688 -0.65625,-3.1054688 -0.597656,-1.21875 -1.464844,-1.875 -1.558594,-1.875 -0.05859,0 -0.105468,0.046875 -0.105468,0.1054688 0,0.035156 0,0.046875 0.199218,0.234375 0.972657,0.984375 1.535157,2.5664062 1.535157,4.640625 0,1.71093745 -0.363282,3.4570312 -1.59375,4.7226562 -0.140625,0.1171875 -0.140625,0.1289063 -0.140625,0.1640625 0,0.058594 0.04687,0.1054688 0.105468,0.1054688 0.09375,0 0.996094,-0.6796875 1.582032,-1.94531255 0.503906,-1.1015625 0.632812,-2.20312495 0.632812,-3.04687495 z m 0,0"
         style="fill:#000000;fill-opacity:1;fill-rule:nonzero;stroke:none" />
    </g>
    <g
       id="g11"
       aria-label="g&#10;1&#10;C(g)"
       transform="matrix(1.3333333,0,0,1.3333333,64.748,95.396)">
      <path
         id="path12"
         d="m 4.6860703,-3.7511016 c 0.011719,-0.070312 0.035156,-0.1171875 0.035156,-0.1875 0,-0.1640625 -0.1171875,-0.2695312 -0.2929688,-0.2695312 -0.09375,0 -0.3632812,0.070312 -0.4101562,0.4335937 -0.1757813,-0.375 -0.5273438,-0.6328125 -0.9257813,-0.6328125 -1.1367187,0 -2.36718749,1.3945313 -2.36718749,2.8359375 0,0.98437504 0.60937499,1.57031254 1.32421879,1.57031254 0.5859375,0 1.0546875,-0.46875 1.1601562,-0.57421875 l 0.011719,0.0117188 c -0.2109375,0.87890625 -0.328125,1.2890625 -0.328125,1.3125 -0.046875,0.0820313 -0.3867188,1.07812491 -1.4414063,1.07812491 -0.1875,0 -0.51562499,-0.011719 -0.79687499,-0.1054687 0.3046875,-0.09375 0.41015629,-0.3515625 0.41015629,-0.515625 0,-0.1640625 -0.10546879,-0.35156246 -0.37500004,-0.35156246 -0.22265625,0 -0.5390625,0.17578116 -0.5390625,0.57421866 0,0.4101563 0.36328125,0.6093751 1.32421874,0.6093751 1.2421875,0 1.9570313,-0.7734376 2.109375,-1.37109376 z m -1.2890625,2.4726563 c -0.058594,0.2578125 -0.2929687,0.51562499 -0.5039062,0.70312499 -0.2109375,0.17578125 -0.5273438,0.3515625 -0.8085938,0.3515625 -0.5039062,0 -0.65625,-0.515625 -0.65625,-0.91406249 0,-0.4804688 0.2929688,-1.6523438 0.5625,-2.15625 0.2695313,-0.4921875 0.703125,-0.890625 1.1132813,-0.890625 0.65625,0 0.796875,0.8085937 0.796875,0.8554687 0,0.046875 -0.011719,0.1054688 -0.023437,0.1523438 z m 0,0"
         style="fill:#000000;fill-opacity:1;fill-rule:nonzero;stroke:none" />
      <path
         id="path13"
         d="m 7.0854844,-2.9337187 c 0,-0.1875 -0.011719,-0.1992188 -0.2109375,-0.1992188 -0.4453125,0.4335938 -1.078125,0.4453125 -1.359375,0.4453125 v 0.2460938 c 0.1640625,0 0.6210937,0 1.0078125,-0.1875 V 0.92175 c 0,0.234375 0,0.328125 -0.6914063,0.328125 H 5.5620469 v 0.2460938 c 0.1289062,-0.011719 0.984375,-0.023437 1.2421875,-0.023437 0.2109375,0 1.0898437,0.011719 1.2421875,0.023437 V 1.249875 H 7.7886094 c -0.703125,0 -0.703125,-0.09375 -0.703125,-0.328125 z m 0,0"
         style="fill:#000000;fill-opacity:1;fill-rule:nonzero;stroke:none" />
      <path
         id="path14"
         d="m 16.791539,-6.9268828 c 0,-0.023437 -0.02344,-0.09375 -0.105469,-0.09375 -0.03516,0 -0.04687,0.011719 -0.152343,0.1171875 l -0.703125,0.7617187 c -0.08203,-0.140625 -0.539063,-0.8789062 -1.652344,-0.8789062 -2.214844,0 -4.4531252,2.203125 -4.4531252,4.5117187 0,1.64062504 1.1718752,2.73046879 2.6953122,2.73046879 0.867188,0 1.617188,-0.3984375 2.144532,-0.85546875 0.9375,-0.82031254 1.101562,-1.72265624 1.101562,-1.75781254 0,-0.1054687 -0.105469,-0.1054687 -0.117187,-0.1054687 -0.05859,0 -0.117188,0.023437 -0.128907,0.1054687 -0.09375,0.2929688 -0.316406,0.9960938 -1.007812,1.57031254 -0.691406,0.5625 -1.3125,0.7265625 -1.839844,0.7265625 -0.890625,0 -1.945312,-0.515625 -1.945312,-2.06250004 0,-0.5742187 0.210937,-2.1914062 1.207031,-3.3515625 0.609375,-0.703125 1.535156,-1.2070312 2.425781,-1.2070312 1.019531,0 1.605469,0.7734375 1.605469,1.921875 0,0.3984375 -0.03516,0.4101562 -0.03516,0.5039062 0,0.1054688 0.117187,0.1054688 0.152343,0.1054688 0.128907,0 0.128907,-0.023437 0.175782,-0.1992188 z m 0,0"
         style="fill:#000000;fill-opacity:1;fill-rule:nonzero;stroke:none" />
      <path
         id="path15"
         d="m 20.34818,2.3895234 c 0,-0.035156 0,-0.046875 -0.164063,-0.2226562 -1.242187,-1.25390626 -1.570312,-3.12890626 -1.570312,-4.6640625 0,-1.7226563 0.386718,-3.4570313 1.605468,-4.7109375 0.128907,-0.1171875 0.128907,-0.1289063 0.128907,-0.1640625 0,-0.070312 -0.03516,-0.1054688 -0.09375,-0.1054688 -0.105469,0 -0.996094,0.6796875 -1.582032,1.9453125 -0.515625,1.1015625 -0.632812,2.203125 -0.632812,3.0351563 0,0.7851562 0.117187,1.99218749 0.65625,3.11718749 0.597656,1.21875001 1.453125,1.87500001 1.558594,1.87500001 0.05859,0 0.09375,-0.035156 0.09375,-0.1054688 z m 0,0"
         style="fill:#000000;fill-opacity:1;fill-rule:nonzero;stroke:none" />
      <path
         id="path16"
         d="m 25.615758,-3.7511016 c 0.01172,-0.070312 0.03516,-0.1171875 0.03516,-0.1875 0,-0.1640625 -0.117187,-0.2695312 -0.292969,-0.2695312 -0.09375,0 -0.363281,0.070312 -0.410156,0.4335937 -0.175781,-0.375 -0.527344,-0.6328125 -0.925781,-0.6328125 -1.136719,0 -2.367188,1.3945313 -2.367188,2.8359375 0,0.98437504 0.609375,1.57031254 1.324219,1.57031254 0.585938,0 1.054688,-0.46875 1.160156,-0.57421875 l 0.01172,0.0117188 c -0.210937,0.87890625 -0.328125,1.2890625 -0.328125,1.3125 -0.04687,0.0820313 -0.386719,1.07812491 -1.441406,1.07812491 -0.1875,0 -0.515625,-0.011719 -0.796875,-0.1054687 0.304687,-0.09375 0.410156,-0.3515625 0.410156,-0.515625 0,-0.1640625 -0.105469,-0.35156246 -0.375,-0.35156246 -0.222656,0 -0.539062,0.17578116 -0.539062,0.57421866 0,0.4101563 0.363281,0.6093751 1.324218,0.6093751 1.242188,0 1.957032,-0.7734376 2.109375,-1.37109376 z m -1.289063,2.4726563 c -0.05859,0.2578125 -0.292968,0.51562499 -0.503906,0.70312499 -0.210937,0.17578125 -0.527344,0.3515625 -0.808594,0.3515625 -0.503906,0 -0.65625,-0.515625 -0.65625,-0.91406249 0,-0.4804688 0.292969,-1.6523438 0.5625,-2.15625 0.269532,-0.4921875 0.703125,-0.890625 1.113282,-0.890625 0.65625,0 0.796875,0.8085937 0.796875,0.8554687 0,0.046875 -0.01172,0.1054688 -0.02344,0.1523438 z m 0,0"
         style="fill:#000000;fill-opacity:1;fill-rule:nonzero;stroke:none" />
      <path
         id="path17"
         d="m 28.920445,-2.4971953 c 0,-0.7734375 -0.117187,-1.9804688 -0.65625,-3.1054688 -0.597656,-1.21875 -1.464843,-1.875 -1.558593,-1.875 -0.05859,0 -0.105469,0.046875 -0.105469,0.1054688 0,0.035156 0,0.046875 0.199219,0.234375 0.972656,0.984375 1.535156,2.5664062 1.535156,4.640625 0,1.71093749 -0.363281,3.45703124 -1.59375,4.7226562 -0.140625,0.1171875 -0.140625,0.1289063 -0.140625,0.1640625 0,0.058594 0.04687,0.1054688 0.105469,0.1054688 0.09375,0 0.996093,-0.6796875 1.582031,-1.94531251 0.503906,-1.1015625 0.632812,-2.20312499 0.632812,-3.04687499 z m 0,0"
         style="fill:#000000;fill-opacity:1;fill-rule:nonzero;stroke:none" />
    </g>
    <g
       id="g17"
       aria-label="g&#10;k"
       transform="matrix(1.3333333,0,0,1.3333333,14.086667,64.648)">
      <path
         id="path18"
         d="m 4.6869531,-3.7496719 c 0.011719,-0.070312 0.035156,-0.1171875 0.035156,-0.1875 0,-0.1640625 -0.1171875,-0.2695312 -0.2929688,-0.2695312 -0.09375,0 -0.3632812,0.070312 -0.4101562,0.4335937 -0.1757813,-0.375 -0.5273438,-0.6328125 -0.9257813,-0.6328125 -1.1367187,0 -2.36718748,1.3945313 -2.36718748,2.8359375 0,0.98437502 0.60937498,1.570312525 1.32421878,1.570312525 0.5859375,0 1.0546875,-0.468750005 1.1601562,-0.574218755 l 0.011719,0.0117188 c -0.2109375,0.87890625 -0.328125,1.2890625 -0.328125,1.3125 -0.046875,0.0820313 -0.3867188,1.07812493 -1.4414063,1.07812493 -0.1875,0 -0.51562498,-0.011719 -0.79687498,-0.1054687 0.3046875,-0.09375 0.41015628,-0.3515625 0.41015628,-0.515625 0,-0.1640625 -0.10546878,-0.35156248 -0.37500003,-0.35156248 -0.22265625,0 -0.5390625,0.17578118 -0.5390625,0.57421868 0,0.4101563 0.36328125,0.609375 1.32421873,0.609375 1.2421875,0 1.9570313,-0.7734375 2.109375,-1.37109368 z m -1.2890625,2.4726563 c -0.058594,0.2578125 -0.2929687,0.51562497 -0.5039062,0.70312497 -0.2109375,0.17578125 -0.5273438,0.3515625 -0.8085938,0.3515625 -0.5039062,0 -0.65625,-0.515625 -0.65625,-0.91406247 0,-0.4804688 0.2929688,-1.6523438 0.5625,-2.15625 0.2695313,-0.4921875 0.703125,-0.890625 1.1132813,-0.890625 0.65625,0 0.796875,0.8085937 0.796875,0.8554687 0,0.046875 -0.011719,0.1054688 -0.023437,0.1523438 z m 0,0"
         style="fill:#000000;fill-opacity:1;fill-rule:nonzero;stroke:none" />
      <path
         id="path19"
         d="m 7.2885156,-8.7418594 c 0.011719,-0.011719 0.035156,-0.1054687 0.035156,-0.1171875 0,-0.035156 -0.035156,-0.09375 -0.1171875,-0.09375 -0.140625,0 -0.7148438,0.058594 -0.890625,0.070312 -0.058594,0.011719 -0.1523438,0.011719 -0.1523438,0.1640625 0,0.09375 0.09375,0.09375 0.1757813,0.09375 0.3398437,0 0.3398437,0.046875 0.3398437,0.1054688 0,0.046875 -0.011719,0.09375 -0.035156,0.1523437 L 5.671328,-4.4176411 c -0.035156,0.1289062 -0.035156,0.140625 -0.035156,0.1523437 0,0.1054688 0.082031,0.2226563 0.234375,0.2226563 0.1875,0 0.28125,-0.140625 0.3164062,-0.2929688 0.011719,-0.023437 0.3164063,-1.2539062 0.3398438,-1.3476562 0.5039062,0.046875 0.9023437,0.1992187 0.9023437,0.5625 0,0.035156 0,0.070312 -0.023437,0.140625 -0.023437,0.1054687 -0.023437,0.140625 -0.023437,0.2226562 0,0.4921875 0.3984375,0.7148438 0.7382813,0.7148438 0.6796875,0 0.890625,-1.0546875 0.890625,-1.0664063 0,-0.09375 -0.09375,-0.09375 -0.1171875,-0.09375 -0.09375,0 -0.1054688,0.035156 -0.140625,0.1640625 -0.082031,0.3046875 -0.2695313,0.796875 -0.609375,0.796875 -0.1875,0 -0.2460938,-0.1757812 -0.2460938,-0.3632812 0,-0.1171875 0,-0.1289063 0.046875,-0.3046875 0,-0.023437 0.035156,-0.140625 0.035156,-0.2226563 0,-0.6210937 -0.84375,-0.7148437 -1.1367188,-0.7382812 0.1992188,-0.1289063 0.4570313,-0.3515625 0.5859375,-0.4570313 0.3515625,-0.3398437 0.703125,-0.6679687 1.0898438,-0.6679687 0.082031,0 0.1757812,0.023437 0.234375,0.09375 -0.3046875,0.046875 -0.3632813,0.28125 -0.3632813,0.3867187 0,0.1523438 0.1171875,0.2578125 0.2695313,0.2578125 0.1992187,0 0.3984375,-0.1523437 0.3984375,-0.4453125 0,-0.2226562 -0.1640625,-0.4804687 -0.5273438,-0.4804687 -0.3984375,0 -0.7617187,0.28125 -1.125,0.609375 -0.2929687,0.28125 -0.515625,0.4921875 -0.8085937,0.609375 z m 0,0"
         style="fill:#000000;fill-opacity:1;fill-rule:nonzero;stroke:none" />
    </g>
    <path
       id="path20"
       d="m 4.6886484,-3.7508672 c 0.011719,-0.070312 0.035156,-0.1171875 0.035156,-0.1875 0,-0.1640625 -0.1171875,-0.2695312 -0.2929688,-0.2695312 -0.09375,0 -0.3632812,0.070312 -0.4101562,0.4335937 -0.1757813,-0.375 -0.5273438,-0.6328125 -0.9257813,-0.6328125 -1.1367187,0 -2.36718746,1.3945313 -2.36718746,2.8359375 0,0.98437501 0.60937496,1.5703125125 1.32421876,1.5703125125 0.5859375,0 1.0546875,-0.4687500025 1.1601562,-0.5742187525 l 0.011719,0.0117188 c -0.2109375,0.87890625 -0.328125,1.2890625 -0.328125,1.3125 -0.046875,0.0820313 -0.3867188,1.07812504 -1.4414063,1.07812504 -0.1875,0 -0.51562496,-0.011719 -0.79687496,-0.1054688 0.3046875,-0.09375 0.41015626,-0.3515625 0.41015626,-0.515625 0,-0.1640625 -0.10546876,-0.35156249 -0.37500001,-0.35156249 -0.22265625,0 -0.5390625,0.17578119 -0.5390625,0.57421879 0,0.4101562 0.36328125,0.609375 1.32421871,0.609375 1.2421875,0 1.9570313,-0.7734376 2.109375,-1.37109379 z m -1.2890625,2.4726563 c -0.058594,0.2578125 -0.2929687,0.51562496 -0.5039062,0.70312496 -0.2109375,0.17578125 -0.5273438,0.3515625 -0.8085938,0.3515625 -0.5039062,0 -0.65625,-0.515625 -0.65625,-0.91406246 0,-0.4804688 0.2929688,-1.6523438 0.5625,-2.15625 0.2695313,-0.4921875 0.703125,-0.890625 1.1132813,-0.890625 0.65625,0 0.796875,0.8085937 0.796875,0.8554687 0,0.046875 -0.011719,0.1054688 -0.023437,0.1523438 z m 0,0"
       style="fill:#000000;fill-opacity:1;fill-rule:nonzero;stroke:none"
       aria-label="g"
       transform="matrix(1.3333333,0,0,1.3333333,259.768,34.216)" />
    <g
       id="g20"
       aria-label="g&#10;1&#10;gg&#10;−1&#10;1"
       transform="matrix(1.3333333,0,0,1.3333333,379.91733,91.28)">
      <path
         id="path21"
         d="m 4.6879766,-3.7490625 c 0.011719,-0.070312 0.035156,-0.1171875 0.035156,-0.1875 0,-0.1640625 -0.1171875,-0.2695313 -0.2929687,-0.2695313 -0.09375,0 -0.3632813,0.070312 -0.4101563,0.4335938 -0.1757812,-0.375 -0.5273437,-0.6328125 -0.9257812,-0.6328125 -1.1367188,0 -2.36718754,1.3945312 -2.36718754,2.8359375 0,0.984375 0.60937504,1.5703125 1.32421874,1.5703125 0.5859375,0 1.0546875,-0.46875 1.1601563,-0.57421875 l 0.011719,0.0117188 c -0.2109375,0.87890625 -0.328125,1.2890625 -0.328125,1.3125 -0.046875,0.0820313 -0.3867187,1.07812505 -1.4414062,1.07812505 -0.1875,0 -0.51562504,-0.011719 -0.79687504,-0.1054688 0.3046875,-0.09375 0.41015624,-0.3515625 0.41015624,-0.515625 0,-0.1640625 -0.10546874,-0.3515625 -0.37499999,-0.3515625 -0.22265625,0 -0.5390625,0.1757813 -0.5390625,0.5742188 0,0.4101562 0.36328125,0.609375 1.32421879,0.609375 1.2421875,0 1.9570312,-0.7734375 2.109375,-1.3710938 z m -1.2890625,2.4726562 c -0.058594,0.2578125 -0.2929688,0.51562505 -0.5039063,0.70312505 -0.2109375,0.17578125 -0.5273437,0.3515625 -0.8085937,0.3515625 -0.5039063,0 -0.65625,-0.515625 -0.65625,-0.91406255 0,-0.4804687 0.2929687,-1.6523437 0.5625,-2.15625 0.2695312,-0.4921875 0.703125,-0.890625 1.1132812,-0.890625 0.65625,0 0.796875,0.8085938 0.796875,0.8554688 0,0.046875 -0.011719,0.1054687 -0.023437,0.1523437 z m 0,0"
         style="fill:#000000;fill-opacity:1;fill-rule:nonzero;stroke:none" />
      <path
         id="path22"
         d="m 7.0844609,-2.9346094 c 0,-0.1875 -0.011719,-0.1992187 -0.2109375,-0.1992187 -0.4453125,0.4335937 -1.078125,0.4453125 -1.359375,0.4453125 v 0.2460937 c 0.1640625,0 0.6210938,0 1.0078125,-0.1875 v 3.55078127 c 0,0.23437503 0,0.32812503 -0.6914062,0.32812503 H 5.5610234 v 0.2460937 c 0.1289063,-0.011719 0.984375,-0.023437 1.2421875,-0.023437 0.2109375,0 1.0898438,0.011719 1.2421875,0.023437 V 1.2489844 H 7.7875859 c -0.703125,0 -0.703125,-0.09375 -0.703125,-0.32812503 z m 0,0"
         style="fill:#000000;fill-opacity:1;fill-rule:nonzero;stroke:none" />
      <path
         id="path23"
         d="m 13.910633,-3.7490625 c 0.01172,-0.070312 0.03516,-0.1171875 0.03516,-0.1875 0,-0.1640625 -0.117187,-0.2695313 -0.292969,-0.2695313 -0.09375,0 -0.363281,0.070312 -0.410156,0.4335938 -0.175781,-0.375 -0.527344,-0.6328125 -0.925781,-0.6328125 -1.136719,0 -2.3671877,1.3945312 -2.3671877,2.8359375 0,0.984375 0.6093747,1.5703125 1.3242187,1.5703125 0.585938,0 1.054688,-0.46875 1.160156,-0.57421875 l 0.01172,0.0117188 c -0.210937,0.87890625 -0.328125,1.2890625 -0.328125,1.3125 -0.04687,0.0820313 -0.386719,1.07812505 -1.441406,1.07812505 -0.1875,0 -0.515625,-0.011719 -0.7968752,-0.1054688 0.3046872,-0.09375 0.4101562,-0.3515625 0.4101562,-0.515625 0,-0.1640625 -0.105469,-0.3515625 -0.3749999,-0.3515625 -0.2226563,0 -0.5390625,0.1757813 -0.5390625,0.5742188 0,0.4101562 0.3632812,0.609375 1.3242184,0.609375 1.242188,0 1.957032,-0.7734375 2.109375,-1.3710938 z m -1.289063,2.4726562 c -0.05859,0.2578125 -0.292968,0.51562505 -0.503906,0.70312505 -0.210937,0.17578125 -0.527344,0.3515625 -0.808594,0.3515625 -0.503906,0 -0.65625,-0.515625 -0.65625,-0.91406255 0,-0.4804687 0.292969,-1.6523437 0.5625,-2.15625 0.269532,-0.4921875 0.703125,-0.890625 1.113282,-0.890625 0.65625,0 0.796875,0.8085938 0.796875,0.8554688 0,0.046875 -0.01172,0.1054687 -0.02344,0.1523437 z m 6.37793,-2.4726562 c 0.01172,-0.070312 0.03516,-0.1171875 0.03516,-0.1875 0,-0.1640625 -0.117187,-0.2695313 -0.292968,-0.2695313 -0.09375,0 -0.363282,0.070312 -0.410157,0.4335938 -0.175781,-0.375 -0.527343,-0.6328125 -0.925781,-0.6328125 -1.136719,0 -2.367187,1.3945312 -2.367187,2.8359375 0,0.984375 0.609375,1.5703125 1.324218,1.5703125 0.585938,0 1.054688,-0.46875 1.160157,-0.57421875 l 0.01172,0.0117188 c -0.210937,0.87890625 -0.328125,1.2890625 -0.328125,1.3125 -0.04687,0.0820313 -0.386718,1.07812505 -1.441406,1.07812505 -0.1875,0 -0.515625,-0.011719 -0.796875,-0.1054688 0.304688,-0.09375 0.410156,-0.3515625 0.410156,-0.515625 0,-0.1640625 -0.105468,-0.3515625 -0.375,-0.3515625 -0.222656,0 -0.539062,0.1757813 -0.539062,0.5742188 0,0.4101562 0.363281,0.609375 1.324219,0.609375 1.242187,0 1.957031,-0.7734375 2.109375,-1.3710938 z m -1.289062,2.4726562 c -0.05859,0.2578125 -0.292969,0.51562505 -0.503907,0.70312505 -0.210937,0.17578125 -0.527343,0.3515625 -0.808593,0.3515625 -0.503907,0 -0.65625,-0.515625 -0.65625,-0.91406255 0,-0.4804687 0.292968,-1.6523437 0.5625,-2.15625 0.269531,-0.4921875 0.703125,-0.890625 1.113281,-0.890625 0.65625,0 0.796875,0.8085938 0.796875,0.8554688 0,0.046875 -0.01172,0.1054687 -0.02344,0.1523437 z m 0,0"
         style="fill:#000000;fill-opacity:1;fill-rule:nonzero;stroke:none" />
      <path
         id="path24"
         d="m 24.630359,-5.8320703 c 0.105469,0 0.269532,0 0.269532,-0.1757813 0,-0.1757812 -0.152344,-0.1757812 -0.269532,-0.1757812 h -4.160156 c -0.105469,0 -0.28125,0 -0.28125,0.1757812 0,0.1757813 0.164063,0.1757813 0.28125,0.1757813 z m 0,0"
         style="fill:#000000;fill-opacity:1;fill-rule:nonzero;stroke:none" />
      <path
         id="path25"
         d="m 27.9995,-8.6914453 c 0,-0.1875 -0.01172,-0.1992188 -0.210937,-0.1992188 -0.445313,0.4335938 -1.078125,0.4453125 -1.359375,0.4453125 v 0.2460938 c 0.164062,0 0.621093,0 1.007812,-0.1875 v 3.5507812 c 0,0.234375 0,0.328125 -0.691406,0.328125 h -0.269531 v 0.2460938 c 0.128906,-0.011719 0.984375,-0.023437 1.242187,-0.023437 0.210938,0 1.089844,0.011719 1.242188,0.023437 v -0.2460938 h -0.257813 c -0.703125,0 -0.703125,-0.09375 -0.703125,-0.328125 z m -6.583008,6.9199219 c 0,-0.1875 -0.01172,-0.1992188 -0.210937,-0.1992188 -0.445313,0.4335938 -1.078125,0.4453125 -1.359375,0.4453125 v 0.2460938 c 0.164062,0 0.621093,0 1.007812,-0.1875 v 3.5507812 c 0,0.234375 0,0.328125 -0.691406,0.328125 h -0.269531 v 0.2460938 c 0.128906,-0.011719 0.984375,-0.023437 1.242187,-0.023437 0.210938,0 1.089844,0.011719 1.242188,0.023437 V 2.4120703 h -0.257813 c -0.703125,0 -0.703125,-0.09375 -0.703125,-0.328125 z m 0,0"
         style="fill:#000000;fill-opacity:1;fill-rule:nonzero;stroke:none" />
    </g>
    <g
       id="g25"
       aria-label="g&#10;2&#10;gg&#10;−1&#10;2"
       transform="matrix(1.3333333,0,0,1.3333333,304.6,68.864)">
      <path
         id="path26"
         d="m 4.6886719,-3.7505391 c 0.011719,-0.070312 0.035156,-0.1171875 0.035156,-0.1875 0,-0.1640625 -0.1171875,-0.2695312 -0.2929687,-0.2695312 -0.09375,0 -0.3632813,0.070312 -0.4101563,0.4335937 -0.1757812,-0.375 -0.5273437,-0.6328125 -0.9257812,-0.6328125 -1.1367188,0 -2.36718752,1.3945313 -2.36718752,2.8359375 0,0.98437504 0.60937502,1.5703125375 1.32421872,1.5703125375 0.5859375,0 1.0546875,-0.4687499975 1.1601563,-0.5742187475 l 0.011719,0.0117188 c -0.2109375,0.87890625 -0.328125,1.2890625 -0.328125,1.3125 -0.046875,0.0820313 -0.3867187,1.07812491 -1.4414062,1.07812491 -0.1875,0 -0.51562502,-0.011719 -0.79687502,-0.1054687 0.3046875,-0.09375 0.41015622,-0.3515625 0.41015622,-0.515625 0,-0.1640625 -0.10546872,-0.35156246 -0.37499997,-0.35156246 -0.22265625,0 -0.5390625,0.17578116 -0.5390625,0.57421866 0,0.4101563 0.36328125,0.609375 1.32421877,0.609375 1.2421875,0 1.9570312,-0.7734375 2.109375,-1.37109366 z m -1.2890625,2.4726563 c -0.058594,0.2578125 -0.2929688,0.51562499 -0.5039063,0.70312499 -0.2109375,0.17578125 -0.5273437,0.3515625 -0.8085937,0.3515625 -0.5039063,0 -0.65625,-0.515625 -0.65625,-0.91406249 0,-0.4804688 0.2929687,-1.6523438 0.5625,-2.15625 0.2695312,-0.4921875 0.703125,-0.890625 1.1132812,-0.890625 0.65625,0 0.796875,0.8085937 0.796875,0.8554687 0,0.046875 -0.011719,0.1054688 -0.023437,0.1523438 z m 0,0"
         style="fill:#000000;fill-opacity:1;fill-rule:nonzero;stroke:none" />
      <path
         id="path27"
         d="M 8.26875,0.22797656 H 8.034375 C 8.010938,0.38032031 7.952344,0.79047656 7.8585938,0.86078906 7.8,0.89594531 7.2609375,0.89594531 7.1671875,0.89594531 H 5.878125 C 6.6164063,0.25141406 6.8625,0.05219531 7.2726563,-0.27592969 7.7882813,-0.68608594 8.26875,-1.1196797 8.26875,-1.7759297 c 0,-0.84375 -0.7382812,-1.359375 -1.6289062,-1.359375 -0.8671875,0 -1.453125,0.609375 -1.453125,1.2421875 0,0.3632813 0.3046875,0.3984375 0.375,0.3984375 0.1640625,0 0.375,-0.1171875 0.375,-0.375 0,-0.1289062 -0.058594,-0.3632812 -0.421875,-0.3632812 0.2226562,-0.5039063 0.6914062,-0.65625 1.0195312,-0.65625 0.703125,0 1.0664063,0.5507812 1.0664063,1.1132812 0,0.609375 -0.4335938,1.08984376 -0.65625,1.33593751 l -1.6875,1.66406249 c -0.070312,0.058594 -0.070312,0.070312 -0.070312,0.2695313 h 2.8828125 z m 0,0"
         style="fill:#000000;fill-opacity:1;fill-rule:nonzero;stroke:none" />
      <path
         id="path28"
         d="m 13.908398,-3.7505391 c 0.01172,-0.070312 0.03516,-0.1171875 0.03516,-0.1875 0,-0.1640625 -0.117188,-0.2695312 -0.292969,-0.2695312 -0.09375,0 -0.363281,0.070312 -0.410156,0.4335937 -0.175782,-0.375 -0.527344,-0.6328125 -0.925782,-0.6328125 -1.136718,0 -2.3671871,1.3945313 -2.3671871,2.8359375 0,0.98437504 0.6093751,1.5703125375 1.3242191,1.5703125375 0.585937,0 1.054687,-0.4687499975 1.160156,-0.5742187475 l 0.01172,0.0117188 c -0.210938,0.87890625 -0.328125,1.2890625 -0.328125,1.3125 -0.04687,0.0820313 -0.386719,1.07812491 -1.441407,1.07812491 -0.1875,0 -0.515625,-0.011719 -0.7968746,-0.1054687 0.3046876,-0.09375 0.4101566,-0.3515625 0.4101566,-0.515625 0,-0.1640625 -0.105469,-0.35156246 -0.3750003,-0.35156246 -0.2226563,0 -0.5390625,0.17578116 -0.5390625,0.57421866 0,0.4101563 0.3632812,0.609375 1.3242188,0.609375 1.242187,0 1.957031,-0.7734375 2.109375,-1.37109366 z m -1.289062,2.4726563 c -0.05859,0.2578125 -0.292969,0.51562499 -0.503906,0.70312499 -0.210938,0.17578125 -0.527344,0.3515625 -0.808594,0.3515625 -0.503906,0 -0.65625,-0.515625 -0.65625,-0.91406249 0,-0.4804688 0.292969,-1.6523438 0.5625,-2.15625 0.269531,-0.4921875 0.703125,-0.890625 1.113281,-0.890625 0.65625,0 0.796875,0.8085937 0.796875,0.8554687 0,0.046875 -0.01172,0.1054688 -0.02344,0.1523438 z m 6.380859,-2.4726563 c 0.01172,-0.070312 0.03516,-0.1171875 0.03516,-0.1875 0,-0.1640625 -0.117188,-0.2695312 -0.292969,-0.2695312 -0.09375,0 -0.363281,0.070312 -0.410156,0.4335937 -0.175782,-0.375 -0.527344,-0.6328125 -0.925782,-0.6328125 -1.136718,0 -2.367187,1.3945313 -2.367187,2.8359375 0,0.98437504 0.609375,1.5703125375 1.324219,1.5703125375 0.585937,0 1.054687,-0.4687499975 1.160156,-0.5742187475 l 0.01172,0.0117188 c -0.210938,0.87890625 -0.328125,1.2890625 -0.328125,1.3125 -0.04687,0.0820313 -0.386719,1.07812491 -1.441407,1.07812491 -0.1875,0 -0.515625,-0.011719 -0.796875,-0.1054687 0.304688,-0.09375 0.410157,-0.3515625 0.410157,-0.515625 0,-0.1640625 -0.105469,-0.35156246 -0.375,-0.35156246 -0.222657,0 -0.539063,0.17578116 -0.539063,0.57421866 0,0.4101563 0.363281,0.609375 1.324219,0.609375 1.242187,0 1.957031,-0.7734375 2.109375,-1.37109366 z m -1.289062,2.4726563 c -0.05859,0.2578125 -0.292969,0.51562499 -0.503906,0.70312499 -0.210938,0.17578125 -0.527344,0.3515625 -0.808594,0.3515625 -0.503906,0 -0.65625,-0.515625 -0.65625,-0.91406249 0,-0.4804688 0.292969,-1.6523438 0.5625,-2.15625 0.269531,-0.4921875 0.703125,-0.890625 1.113281,-0.890625 0.65625,0 0.796875,0.8085937 0.796875,0.8554687 0,0.046875 -0.01172,0.1054688 -0.02344,0.1523438 z m 0,0"
         style="fill:#000000;fill-opacity:1;fill-rule:nonzero;stroke:none" />
      <path
         id="path29"
         d="m 24.631055,-5.8306172 c 0.105468,0 0.269531,0 0.269531,-0.1757812 0,-0.1757813 -0.152344,-0.1757813 -0.269531,-0.1757813 h -4.160157 c -0.105468,0 -0.28125,0 -0.28125,0.1757813 0,0.1757812 0.164063,0.1757812 0.28125,0.1757812 z m 0,0"
         style="fill:#000000;fill-opacity:1;fill-rule:nonzero;stroke:none" />
      <path
         id="path30"
         d="m 28.000195,-8.6899922 c 0,-0.1875 -0.01172,-0.1992187 -0.210937,-0.1992187 -0.445313,0.4335937 -1.078125,0.4453125 -1.359375,0.4453125 v 0.2460937 c 0.164062,0 0.621094,0 1.007812,-0.1875 v 3.5507813 c 0,0.234375 0,0.328125 -0.691406,0.328125 h -0.269531 v 0.2460937 c 0.128906,-0.011719 0.984375,-0.023437 1.242187,-0.023437 0.210938,0 1.089844,0.011719 1.242188,0.023437 V -4.5063984 H 28.70332 c -0.703125,0 -0.703125,-0.09375 -0.703125,-0.328125 z M 22.597852,1.3910625 h -0.234375 c -0.02344,0.1523437 -0.08203,0.5625 -0.175782,0.6328125 -0.05859,0.035156 -0.597656,0.035156 -0.691406,0.035156 h -1.289062 c 0.738281,-0.6445312 0.984375,-0.84375 1.394531,-1.17187495 0.515625,-0.41015625 0.996094,-0.84375 0.996094,-1.5 0,-0.84375005 -0.738282,-1.35937505 -1.628907,-1.35937505 -0.867187,0 -1.453125,0.609375 -1.453125,1.24218755 0,0.36328125 0.304688,0.3984375 0.375,0.3984375 0.164063,0 0.375,-0.1171875 0.375,-0.375 0,-0.12890625 -0.05859,-0.36328125 -0.421875,-0.36328125 0.222657,-0.5039063 0.691407,-0.65625 1.019532,-0.65625 0.703125,0 1.066406,0.5507812 1.066406,1.11328125 0,0.609375 -0.433594,1.08984375 -0.65625,1.3359375 l -1.6875,1.66406245 c -0.07031,0.058594 -0.07031,0.070312 -0.07031,0.2695313 h 2.882813 z m 0,0"
         style="fill:#000000;fill-opacity:1;fill-rule:nonzero;stroke:none" />
    </g>
    <g
       id="g30"
       aria-label="g&#10;3&#10;gg&#10;−1&#10;3"
       transform="matrix(1.3333333,0,0,1.3333333,303.70267,26.721333)">
      <path
         id="path31"
         d="m 4.6878438,-3.7490078 c 0.011719,-0.070312 0.035156,-0.1171875 0.035156,-0.1875 0,-0.1640625 -0.1171875,-0.2695313 -0.2929687,-0.2695313 -0.09375,0 -0.3632813,0.070312 -0.4101563,0.4335938 -0.1757812,-0.375 -0.5273437,-0.6328125 -0.9257812,-0.6328125 -1.1367188,0 -2.36718755,1.3945312 -2.36718755,2.8359375 0,0.98437499 0.60937505,1.5703124875 1.32421875,1.5703124875 0.5859375,0 1.0546875,-0.4687499975 1.1601563,-0.5742187475 L 3.223,-0.56150781 C 3.0120625,0.31739844 2.894875,0.72755469 2.894875,0.75099219 2.848,0.83302344 2.5081563,1.8291172 1.4534688,1.8291172 c -0.1875,0 -0.51562505,-0.011719 -0.79687505,-0.1054688 C 0.96128125,1.6298984 1.06675,1.3720859 1.06675,1.2080234 c 0,-0.1640625 -0.10546875,-0.35156246 -0.375,-0.35156246 -0.22265625,0 -0.5390625,0.17578126 -0.5390625,0.57421876 0,0.4101562 0.36328125,0.609375 1.3242188,0.609375 1.2421875,0 1.9570312,-0.7734375 2.109375,-1.37109376 z m -1.2890625,2.4726562 c -0.058594,0.2578125 -0.2929688,0.51562504 -0.5039063,0.70312504 -0.2109375,0.17578125 -0.5273437,0.3515625 -0.8085937,0.3515625 -0.5039063,0 -0.65625,-0.515625 -0.65625,-0.91406254 0,-0.4804687 0.2929687,-1.6523437 0.5625,-2.15625 0.2695312,-0.4921875 0.703125,-0.890625 1.1132812,-0.890625 0.65625,0 0.796875,0.8085938 0.796875,0.8554688 0,0.046875 -0.011719,0.1054687 -0.023437,0.1523437 z m 0,0"
         style="fill:#000000;fill-opacity:1;fill-rule:nonzero;stroke:none" />
      <path
         id="path32"
         d="m 6.6507344,-0.83689844 c 0.5507812,0 0.9375,0.375 0.9375,1.125 0,0.86718754 -0.5039063,1.12500004 -0.9023438,1.12500004 -0.28125,0 -0.890625,-0.082031 -1.1835937,-0.49218754 0.328125,-0.0117188 0.3984375,-0.24609375 0.3984375,-0.38671875 0,-0.22265625 -0.1640625,-0.38671875 -0.3867188,-0.38671875 -0.1875,0 -0.3867187,0.1171875 -0.3867187,0.41015625 0,0.65624999 0.7265625,1.07812499 1.5703125,1.07812499 0.9726562,0 1.640625,-0.64453124 1.640625,-1.34765624 0,-0.5390625 -0.4453125,-1.08984375 -1.21875,-1.2421875 0.7382812,-0.26953126 0.9960937,-0.79687496 0.9960937,-1.21874996 0,-0.5507813 -0.6328125,-0.9609375 -1.40625,-0.9609375 -0.7734375,0 -1.359375,0.375 -1.359375,0.9375 0,0.234375 0.1523438,0.3632812 0.3632813,0.3632812 0.2109375,0 0.3515625,-0.1640625 0.3515625,-0.3515625 0,-0.1992187 -0.140625,-0.3515625 -0.3515625,-0.3632812 0.234375,-0.3046875 0.7148437,-0.3867188 0.9726562,-0.3867188 0.3164063,0 0.7617188,0.1523438 0.7617188,0.7617188 0,0.2929687 -0.1054688,0.609375 -0.28125,0.8320312 -0.234375,0.2578125 -0.421875,0.28125 -0.7734375,0.2929688 -0.1757813,0.023437 -0.1875,0.023437 -0.2226563,0.023437 -0.011719,0 -0.070312,0.011719 -0.070312,0.09375 0,0.09375 0.058594,0.09375 0.1757813,0.09375 z m 0,0"
         style="fill:#000000;fill-opacity:1;fill-rule:nonzero;stroke:none" />
      <path
         id="path33"
         d="m 13.9105,-3.7490078 c 0.01172,-0.070312 0.03516,-0.1171875 0.03516,-0.1875 0,-0.1640625 -0.117187,-0.2695313 -0.292968,-0.2695313 -0.09375,0 -0.363282,0.070312 -0.410157,0.4335938 -0.175781,-0.375 -0.527343,-0.6328125 -0.925781,-0.6328125 -1.136719,0 -2.3671875,1.3945312 -2.3671875,2.8359375 0,0.98437499 0.6093755,1.5703124875 1.3242185,1.5703124875 0.585938,0 1.054688,-0.4687499975 1.160157,-0.5742187475 l 0.01172,0.0117188 c -0.210937,0.87890625 -0.328125,1.2890625 -0.328125,1.3125 -0.04687,0.0820313 -0.386718,1.07812506 -1.441406,1.07812506 -0.1875,0 -0.515625,-0.011719 -0.796875,-0.1054688 0.304688,-0.09375 0.410156,-0.3515625 0.410156,-0.515625 0,-0.1640625 -0.105468,-0.35156251 -0.3749997,-0.35156251 -0.2226563,0 -0.5390625,0.17578131 -0.5390625,0.57421881 0,0.4101562 0.3632812,0.609375 1.3242192,0.609375 1.242187,0 1.957031,-0.7734375 2.109375,-1.37109381 z m -1.289062,2.4726562 c -0.05859,0.2578125 -0.292969,0.51562504 -0.503907,0.70312504 -0.210937,0.17578125 -0.527343,0.3515625 -0.808593,0.3515625 -0.503907,0 -0.65625,-0.515625 -0.65625,-0.91406254 0,-0.4804687 0.292968,-1.6523437 0.5625,-2.15625 0.269531,-0.4921875 0.703125,-0.890625 1.113281,-0.890625 0.65625,0 0.796875,0.8085938 0.796875,0.8554688 0,0.046875 -0.01172,0.1054687 -0.02344,0.1523437 z m 6.377929,-2.4726562 c 0.01172,-0.070312 0.03516,-0.1171875 0.03516,-0.1875 0,-0.1640625 -0.117187,-0.2695313 -0.292968,-0.2695313 -0.09375,0 -0.363282,0.070312 -0.410157,0.4335938 -0.175781,-0.375 -0.527343,-0.6328125 -0.925781,-0.6328125 -1.136719,0 -2.367187,1.3945312 -2.367187,2.8359375 0,0.98437499 0.609375,1.5703124875 1.324218,1.5703124875 0.585938,0 1.054688,-0.4687499975 1.160157,-0.5742187475 l 0.01172,0.0117188 c -0.210937,0.87890625 -0.328125,1.2890625 -0.328125,1.3125 -0.04687,0.0820313 -0.386718,1.07812506 -1.441406,1.07812506 -0.1875,0 -0.515625,-0.011719 -0.796875,-0.1054688 0.304688,-0.09375 0.410156,-0.3515625 0.410156,-0.515625 0,-0.1640625 -0.105468,-0.35156251 -0.375,-0.35156251 -0.222656,0 -0.539062,0.17578131 -0.539062,0.57421881 0,0.4101562 0.363281,0.609375 1.324219,0.609375 1.242187,0 1.957031,-0.7734375 2.109375,-1.37109381 z m -1.289062,2.4726562 c -0.05859,0.2578125 -0.292969,0.51562504 -0.503907,0.70312504 -0.210937,0.17578125 -0.527343,0.3515625 -0.808593,0.3515625 -0.503907,0 -0.65625,-0.515625 -0.65625,-0.91406254 0,-0.4804687 0.292968,-1.6523437 0.5625,-2.15625 0.269531,-0.4921875 0.703125,-0.890625 1.113281,-0.890625 0.65625,0 0.796875,0.8085938 0.796875,0.8554688 0,0.046875 -0.01172,0.1054687 -0.02344,0.1523437 z m 0,0"
         style="fill:#000000;fill-opacity:1;fill-rule:nonzero;stroke:none" />
      <path
         id="path34"
         d="m 24.630227,-5.8320156 c 0.105468,0 0.269531,0 0.269531,-0.1757813 0,-0.1757812 -0.152344,-0.1757812 -0.269531,-0.1757812 H 20.47007 c -0.105468,0 -0.28125,0 -0.28125,0.1757812 0,0.1757813 0.164063,0.1757813 0.28125,0.1757813 z m 0,0"
         style="fill:#000000;fill-opacity:1;fill-rule:nonzero;stroke:none" />
      <path
         id="path35"
         d="m 27.999367,-8.6913906 c 0,-0.1875 -0.01172,-0.1992188 -0.210937,-0.1992188 -0.445313,0.4335938 -1.078125,0.4453125 -1.359375,0.4453125 v 0.2460938 c 0.164062,0 0.621093,0 1.007812,-0.1875 v 3.5507812 c 0,0.234375 0,0.328125 -0.691406,0.328125 H 26.47593 v 0.2460938 c 0.128906,-0.011719 0.984375,-0.023437 1.242187,-0.023437 0.210938,0 1.089844,0.011719 1.242188,0.023437 v -0.2460938 h -0.257813 c -0.703125,0 -0.703125,-0.09375 -0.703125,-0.328125 z m -7.016601,9.0175781 c 0.550781,0 0.9375,0.375 0.9375,1.125 0,0.8671875 -0.503907,1.125 -0.902344,1.125 -0.28125,0 -0.890625,-0.082031 -1.183594,-0.4921875 0.328125,-0.011719 0.398438,-0.2460938 0.398438,-0.3867188 0,-0.2226562 -0.164063,-0.3867187 -0.386719,-0.3867187 -0.1875,0 -0.386719,0.1171875 -0.386719,0.4101562 0,0.65625 0.726563,1.078125 1.570313,1.078125 0.972656,0 1.640625,-0.6445312 1.640625,-1.3476562 0,-0.5390625 -0.445313,-1.08984375 -1.21875,-1.2421875 0.738281,-0.26953125 0.996093,-0.796875 0.996093,-1.21875 0,-0.5507813 -0.632812,-0.9609375 -1.40625,-0.9609375 -0.773437,0 -1.359375,0.375 -1.359375,0.9375 0,0.234375 0.152344,0.36328125 0.363282,0.36328125 0.210937,0 0.351562,-0.1640625 0.351562,-0.35156255 0,-0.1992187 -0.140625,-0.3515625 -0.351562,-0.3632812 0.234375,-0.3046875 0.714843,-0.3867188 0.972656,-0.3867188 0.316406,0 0.761719,0.1523438 0.761719,0.7617188 0,0.29296875 -0.105469,0.609375 -0.28125,0.83203125 -0.234375,0.2578125 -0.421875,0.28125 -0.773438,0.29296875 -0.175781,0.0234375 -0.1875,0.0234375 -0.222656,0.0234375 -0.01172,0 -0.07031,0.0117188 -0.07031,0.09375 0,0.09375 0.05859,0.09375 0.175782,0.09375 z m 0,0"
         style="fill:#000000;fill-opacity:1;fill-rule:nonzero;stroke:none" />
    </g>
    <g
       id="g35"
       aria-label="g&#10;2&#10;C(g)"
       transform="matrix(1.3333333,0,0,1.3333333,118.54667,95.396)">
      <path
         id="path36"
         d="m 4.6876562,-3.7511016 c 0.011719,-0.070312 0.035156,-0.1171875 0.035156,-0.1875 0,-0.1640625 -0.1171875,-0.2695312 -0.2929688,-0.2695312 -0.09375,0 -0.3632812,0.070312 -0.4101562,0.4335937 -0.1757813,-0.375 -0.5273438,-0.6328125 -0.9257813,-0.6328125 -1.1367187,0 -2.36718745,1.3945313 -2.36718745,2.8359375 0,0.98437504 0.60937495,1.57031254 1.32421875,1.57031254 0.5859375,0 1.0546875,-0.46875 1.1601562,-0.57421875 l 0.011719,0.0117188 c -0.2109375,0.87890625 -0.328125,1.2890625 -0.328125,1.3125 -0.046875,0.0820313 -0.3867188,1.07812491 -1.4414063,1.07812491 -0.1875,0 -0.51562495,-0.011719 -0.79687495,-0.1054687 0.3046875,-0.09375 0.41015625,-0.3515625 0.41015625,-0.515625 0,-0.1640625 -0.10546875,-0.35156246 -0.375,-0.35156246 -0.22265625,0 -0.5390625,0.17578116 -0.5390625,0.57421866 0,0.4101563 0.36328125,0.6093751 1.3242187,0.6093751 1.2421875,0 1.9570313,-0.7734376 2.109375,-1.37109376 z M 3.3985937,-1.2784453 C 3.34,-1.0206328 3.105625,-0.76282031 2.8946875,-0.57532031 c -0.2109375,0.17578125 -0.5273438,0.3515625 -0.8085938,0.3515625 -0.5039062,0 -0.65625,-0.515625 -0.65625,-0.91406249 0,-0.4804688 0.2929688,-1.6523438 0.5625,-2.15625 0.2695313,-0.4921875 0.703125,-0.890625 1.1132813,-0.890625 0.65625,0 0.796875,0.8085937 0.796875,0.8554687 0,0.046875 -0.011719,0.1054688 -0.023437,0.1523438 z m 0,0"
         style="fill:#000000;fill-opacity:1;fill-rule:nonzero;stroke:none" />
      <path
         id="path37"
         d="m 8.2677344,0.23034375 h -0.234375 c -0.023437,0.15234375 -0.082031,0.5625 -0.1757813,0.6328125 C 7.7989844,0.8983125 7.2599219,0.8983125 7.1661719,0.8983125 H 5.8771094 c 0.7382812,-0.64453125 0.984375,-0.84375 1.3945312,-1.171875 0.515625,-0.41015625 0.9960938,-0.84375 0.9960938,-1.5 0,-0.84375 -0.7382813,-1.359375 -1.6289063,-1.359375 -0.8671875,0 -1.453125,0.609375 -1.453125,1.2421875 0,0.3632813 0.3046875,0.3984375 0.375,0.3984375 0.1640625,0 0.375,-0.1171875 0.375,-0.375 0,-0.1289062 -0.058594,-0.3632812 -0.421875,-0.3632812 0.2226563,-0.5039063 0.6914063,-0.65625 1.0195313,-0.65625 0.703125,0 1.0664062,0.5507812 1.0664062,1.1132812 0,0.609375 -0.4335937,1.08984375 -0.65625,1.3359375 l -1.6875,1.6640625 c -0.070312,0.058594 -0.070312,0.070312 -0.070312,0.2695313 h 2.8828125 z m 0,0"
         style="fill:#000000;fill-opacity:1;fill-rule:nonzero;stroke:none" />
      <path
         id="path38"
         d="m 16.793125,-6.9268828 c 0,-0.023437 -0.02344,-0.09375 -0.105469,-0.09375 -0.03516,0 -0.04687,0.011719 -0.152344,0.1171875 l -0.703125,0.7617187 c -0.08203,-0.140625 -0.539062,-0.8789062 -1.652343,-0.8789062 -2.214844,0 -4.4531253,2.203125 -4.4531253,4.5117187 0,1.64062504 1.1718753,2.73046879 2.6953123,2.73046879 0.867188,0 1.617188,-0.3984375 2.144531,-0.85546875 0.9375,-0.82031254 1.101563,-1.72265624 1.101563,-1.75781254 0,-0.1054687 -0.105469,-0.1054687 -0.117188,-0.1054687 -0.05859,0 -0.117187,0.023437 -0.128906,0.1054687 -0.09375,0.2929688 -0.316406,0.9960938 -1.007812,1.57031254 -0.691407,0.5625 -1.3125,0.7265625 -1.839844,0.7265625 -0.890625,0 -1.945313,-0.515625 -1.945313,-2.06250004 0,-0.5742187 0.210938,-2.1914062 1.207032,-3.3515625 0.609375,-0.703125 1.535156,-1.2070312 2.425781,-1.2070312 1.019531,0 1.605469,0.7734375 1.605469,1.921875 0,0.3984375 -0.03516,0.4101562 -0.03516,0.5039062 0,0.1054688 0.117188,0.1054688 0.152344,0.1054688 0.128906,0 0.128906,-0.023437 0.175781,-0.1992188 z m 0,0"
         style="fill:#000000;fill-opacity:1;fill-rule:nonzero;stroke:none" />
      <path
         id="path39"
         d="m 20.346836,2.3895234 c 0,-0.035156 0,-0.046875 -0.164063,-0.2226562 -1.242187,-1.25390626 -1.570312,-3.12890626 -1.570312,-4.6640625 0,-1.7226563 0.386719,-3.4570313 1.605469,-4.7109375 0.128906,-0.1171875 0.128906,-0.1289063 0.128906,-0.1640625 0,-0.070312 -0.03516,-0.1054688 -0.09375,-0.1054688 -0.105469,0 -0.996094,0.6796875 -1.582031,1.9453125 -0.515625,1.1015625 -0.632813,2.203125 -0.632813,3.0351563 0,0.7851562 0.117188,1.99218749 0.65625,3.11718749 0.597656,1.21875001 1.453125,1.87500001 1.558594,1.87500001 0.05859,0 0.09375,-0.035156 0.09375,-0.1054688 z m 0,0"
         style="fill:#000000;fill-opacity:1;fill-rule:nonzero;stroke:none" />
      <path
         id="path40"
         d="m 25.617344,-3.7511016 c 0.01172,-0.070312 0.03516,-0.1171875 0.03516,-0.1875 0,-0.1640625 -0.117188,-0.2695312 -0.292969,-0.2695312 -0.09375,0 -0.363281,0.070312 -0.410156,0.4335937 -0.175781,-0.375 -0.527344,-0.6328125 -0.925781,-0.6328125 -1.136719,0 -2.367188,1.3945313 -2.367188,2.8359375 0,0.98437504 0.609375,1.57031254 1.324219,1.57031254 0.585937,0 1.054687,-0.46875 1.160156,-0.57421875 l 0.01172,0.0117188 c -0.210938,0.87890625 -0.328125,1.2890625 -0.328125,1.3125 -0.04687,0.0820313 -0.386719,1.07812491 -1.441406,1.07812491 -0.1875,0 -0.515625,-0.011719 -0.796875,-0.1054687 0.304687,-0.09375 0.410156,-0.3515625 0.410156,-0.515625 0,-0.1640625 -0.105469,-0.35156246 -0.375,-0.35156246 -0.222656,0 -0.539063,0.17578116 -0.539063,0.57421866 0,0.4101563 0.363282,0.6093751 1.324219,0.6093751 1.242188,0 1.957031,-0.7734376 2.109375,-1.37109376 z m -1.289063,2.4726563 c -0.05859,0.2578125 -0.292969,0.51562499 -0.503906,0.70312499 -0.210938,0.17578125 -0.527344,0.3515625 -0.808594,0.3515625 -0.503906,0 -0.65625,-0.515625 -0.65625,-0.91406249 0,-0.4804688 0.292969,-1.6523438 0.5625,-2.15625 0.269531,-0.4921875 0.703125,-0.890625 1.113281,-0.890625 0.65625,0 0.796875,0.8085937 0.796875,0.8554687 0,0.046875 -0.01172,0.1054688 -0.02344,0.1523438 z m 0,0"
         style="fill:#000000;fill-opacity:1;fill-rule:nonzero;stroke:none" />
      <path
         id="path41"
         d="m 28.922031,-2.4971953 c 0,-0.7734375 -0.117187,-1.9804688 -0.65625,-3.1054688 -0.597656,-1.21875 -1.464844,-1.875 -1.558594,-1.875 -0.05859,0 -0.105468,0.046875 -0.105468,0.1054688 0,0.035156 0,0.046875 0.199218,0.234375 0.972657,0.984375 1.535157,2.5664062 1.535157,4.640625 0,1.71093749 -0.363282,3.45703124 -1.59375,4.7226562 -0.140625,0.1171875 -0.140625,0.1289063 -0.140625,0.1640625 0,0.058594 0.04687,0.1054688 0.105468,0.1054688 0.09375,0 0.996094,-0.6796875 1.582032,-1.94531251 0.503906,-1.1015625 0.632812,-2.20312499 0.632812,-3.04687499 z m 0,0"
         style="fill:#000000;fill-opacity:1;fill-rule:nonzero;stroke:none" />
    </g>
    <g
       id="g41"
       aria-label="g&#10;2&#10;C(g)"
       transform="matrix(1.3333333,0,0,1.3333333,170.552,95.396)">
      <path
         id="path42"
         d="m 4.6865859,-3.7511016 c 0.011719,-0.070312 0.035156,-0.1171875 0.035156,-0.1875 0,-0.1640625 -0.1171875,-0.2695312 -0.2929688,-0.2695312 -0.09375,0 -0.3632812,0.070312 -0.4101562,0.4335937 -0.1757813,-0.375 -0.5273438,-0.6328125 -0.9257813,-0.6328125 -1.1367187,0 -2.36718746,1.3945313 -2.36718746,2.8359375 0,0.98437504 0.60937496,1.57031254 1.32421876,1.57031254 0.5859375,0 1.0546875,-0.46875 1.1601562,-0.57421875 l 0.011719,0.0117188 c -0.2109375,0.87890625 -0.328125,1.2890625 -0.328125,1.3125 -0.046875,0.0820313 -0.3867188,1.07812491 -1.4414063,1.07812491 -0.1875,0 -0.51562496,-0.011719 -0.79687496,-0.1054687 0.3046875,-0.09375 0.41015626,-0.3515625 0.41015626,-0.515625 0,-0.1640625 -0.10546876,-0.35156246 -0.37500001,-0.35156246 -0.22265625,0 -0.5390625,0.17578116 -0.5390625,0.57421866 0,0.4101563 0.36328125,0.6093751 1.32421871,0.6093751 1.2421875,0 1.9570313,-0.7734376 2.109375,-1.37109376 z m -1.2890625,2.4726563 c -0.058594,0.2578125 -0.2929687,0.51562499 -0.5039062,0.70312499 -0.2109375,0.17578125 -0.5273438,0.3515625 -0.8085938,0.3515625 -0.5039062,0 -0.65625,-0.515625 -0.65625,-0.91406249 0,-0.4804688 0.2929688,-1.6523438 0.5625,-2.15625 0.2695313,-0.4921875 0.703125,-0.890625 1.1132813,-0.890625 0.65625,0 0.796875,0.8085937 0.796875,0.8554687 0,0.046875 -0.011719,0.1054688 -0.023437,0.1523438 z m 0,0"
         style="fill:#000000;fill-opacity:1;fill-rule:nonzero;stroke:none" />
      <path
         id="path43"
         d="m 8.2666641,0.23034375 h -0.234375 c -0.023437,0.15234375 -0.082031,0.5625 -0.1757813,0.6328125 C 7.7979141,0.8983125 7.2588516,0.8983125 7.1651016,0.8983125 H 5.8760391 c 0.7382812,-0.64453125 0.984375,-0.84375 1.3945312,-1.171875 0.515625,-0.41015625 0.9960938,-0.84375 0.9960938,-1.5 0,-0.84375 -0.7382813,-1.359375 -1.6289063,-1.359375 -0.8671875,0 -1.453125,0.609375 -1.453125,1.2421875 0,0.3632813 0.3046875,0.3984375 0.375,0.3984375 0.1640625,0 0.375,-0.1171875 0.375,-0.375 0,-0.1289062 -0.058594,-0.3632812 -0.421875,-0.3632812 0.2226563,-0.5039063 0.6914063,-0.65625 1.0195313,-0.65625 0.703125,0 1.0664062,0.5507812 1.0664062,1.1132812 0,0.609375 -0.4335937,1.08984375 -0.65625,1.3359375 l -1.6875,1.6640625 c -0.070312,0.058594 -0.070312,0.070312 -0.070312,0.2695313 h 2.8828125 z m 0,0"
         style="fill:#000000;fill-opacity:1;fill-rule:nonzero;stroke:none" />
      <path
         id="path44"
         d="m 16.792055,-6.9268828 c 0,-0.023437 -0.02344,-0.09375 -0.105469,-0.09375 -0.03516,0 -0.04687,0.011719 -0.152344,0.1171875 l -0.703125,0.7617187 c -0.08203,-0.140625 -0.539062,-0.8789062 -1.652344,-0.8789062 -2.214843,0 -4.4531246,2.203125 -4.4531246,4.5117187 0,1.64062504 1.1718746,2.73046879 2.6953126,2.73046879 0.867187,0 1.617187,-0.3984375 2.144531,-0.85546875 0.9375,-0.82031254 1.101563,-1.72265624 1.101563,-1.75781254 0,-0.1054687 -0.105469,-0.1054687 -0.117188,-0.1054687 -0.05859,0 -0.117187,0.023437 -0.128906,0.1054687 -0.09375,0.2929688 -0.316406,0.9960938 -1.007813,1.57031254 -0.691406,0.5625 -1.3125,0.7265625 -1.839843,0.7265625 -0.890625,0 -1.945313,-0.515625 -1.945313,-2.06250004 0,-0.5742187 0.210938,-2.1914062 1.207031,-3.3515625 0.609375,-0.703125 1.535157,-1.2070312 2.425782,-1.2070312 1.019531,0 1.605468,0.7734375 1.605468,1.921875 0,0.3984375 -0.03516,0.4101562 -0.03516,0.5039062 0,0.1054688 0.117188,0.1054688 0.152344,0.1054688 0.128906,0 0.128906,-0.023437 0.175781,-0.1992188 z m 0,0"
         style="fill:#000000;fill-opacity:1;fill-rule:nonzero;stroke:none" />
      <path
         id="path45"
         d="m 20.348695,2.3895234 c 0,-0.035156 0,-0.046875 -0.164062,-0.2226562 -1.242188,-1.25390626 -1.570313,-3.12890626 -1.570313,-4.6640625 0,-1.7226563 0.386719,-3.4570313 1.605469,-4.7109375 0.128906,-0.1171875 0.128906,-0.1289063 0.128906,-0.1640625 0,-0.070312 -0.03516,-0.1054688 -0.09375,-0.1054688 -0.105468,0 -0.996093,0.6796875 -1.582031,1.9453125 -0.515625,1.1015625 -0.632812,2.203125 -0.632812,3.0351563 0,0.7851562 0.117187,1.99218749 0.65625,3.11718749 0.597656,1.21875001 1.453125,1.87500001 1.558593,1.87500001 0.05859,0 0.09375,-0.035156 0.09375,-0.1054688 z m 0,0"
         style="fill:#000000;fill-opacity:1;fill-rule:nonzero;stroke:none" />
      <path
         id="path46"
         d="m 25.616273,-3.7511016 c 0.01172,-0.070312 0.03516,-0.1171875 0.03516,-0.1875 0,-0.1640625 -0.117188,-0.2695312 -0.292969,-0.2695312 -0.09375,0 -0.363281,0.070312 -0.410156,0.4335937 -0.175782,-0.375 -0.527344,-0.6328125 -0.925782,-0.6328125 -1.136718,0 -2.367187,1.3945313 -2.367187,2.8359375 0,0.98437504 0.609375,1.57031254 1.324219,1.57031254 0.585937,0 1.054687,-0.46875 1.160156,-0.57421875 l 0.01172,0.0117188 c -0.210938,0.87890625 -0.328125,1.2890625 -0.328125,1.3125 -0.04687,0.0820313 -0.386719,1.07812491 -1.441407,1.07812491 -0.1875,0 -0.515625,-0.011719 -0.796875,-0.1054687 0.304688,-0.09375 0.410157,-0.3515625 0.410157,-0.515625 0,-0.1640625 -0.105469,-0.35156246 -0.375,-0.35156246 -0.222657,0 -0.539063,0.17578116 -0.539063,0.57421866 0,0.4101563 0.363281,0.6093751 1.324219,0.6093751 1.242187,0 1.957031,-0.7734376 2.109375,-1.37109376 z m -1.289062,2.4726563 c -0.05859,0.2578125 -0.292969,0.51562499 -0.503906,0.70312499 -0.210938,0.17578125 -0.527344,0.3515625 -0.808594,0.3515625 -0.503906,0 -0.65625,-0.515625 -0.65625,-0.91406249 0,-0.4804688 0.292969,-1.6523438 0.5625,-2.15625 0.269531,-0.4921875 0.703125,-0.890625 1.113281,-0.890625 0.65625,0 0.796875,0.8085937 0.796875,0.8554687 0,0.046875 -0.01172,0.1054688 -0.02344,0.1523438 z m 0,0"
         style="fill:#000000;fill-opacity:1;fill-rule:nonzero;stroke:none" />
      <path
         id="path47"
         d="m 28.920961,-2.4971953 c 0,-0.7734375 -0.117188,-1.9804688 -0.65625,-3.1054688 -0.597656,-1.21875 -1.464844,-1.875 -1.558594,-1.875 -0.05859,0 -0.105469,0.046875 -0.105469,0.1054688 0,0.035156 0,0.046875 0.199219,0.234375 0.972656,0.984375 1.535156,2.5664062 1.535156,4.640625 0,1.71093749 -0.363281,3.45703124 -1.59375,4.7226562 -0.140625,0.1171875 -0.140625,0.1289063 -0.140625,0.1640625 0,0.058594 0.04687,0.1054688 0.105469,0.1054688 0.09375,0 0.996094,-0.6796875 1.582031,-1.94531251 0.503907,-1.1015625 0.632813,-2.20312499 0.632813,-3.04687499 z m 0,0"
         style="fill:#000000;fill-opacity:1;fill-rule:nonzero;stroke:none" />
    </g>
  </g>
</svg>
