<?xml version="1.0" encoding="UTF-8" standalone="no"?>
<!-- Created with Inkscape (http://www.inkscape.org/) -->

<svg
   version="1.1"
   id="svg1"
   width="258.25333"
   height="161.39999"
   viewBox="0 0 258.25333 161.39999"
   sodipodi:docname="conjugacy.pdf"
   xmlns:inkscape="http://www.inkscape.org/namespaces/inkscape"
   xmlns:sodipodi="http://sodipodi.sourceforge.net/DTD/sodipodi-0.dtd"
   xmlns="http://www.w3.org/2000/svg"
   xmlns:svg="http://www.w3.org/2000/svg">
  <defs
     id="defs1" />
  <sodipodi:namedview
     id="namedview1"
     pagecolor="#ffffff"
     bordercolor="#000000"
     borderopacity="0.25"
     inkscape:showpageshadow="2"
     inkscape:pageopacity="0.0"
     inkscape:pagecheckerboard="0"
     inkscape:deskcolor="#d1d1d1">
    <inkscape:page
       x="0"
       y="0"
       inkscape:label="1"
       id="page1"
       width="258.25333"
       height="161.39999"
       margin="0"
       bleed="0" />
  </sodipodi:namedview>
  <g
     id="g1"
     inkscape:groupmode="layer"
     inkscape:label="1">
    <path
       id="path1"
       d="M 72.92773,-28.69287 H 96.83847 V -52.6036 H 72.92773 Z"
       style="fill:none;stroke:#000000;stroke-width:1.49442;stroke-linecap:butt;stroke-linejoin:miter;stroke-miterlimit:10;stroke-dasharray:none;stroke-opacity:1"
       transform="matrix(1.3333333,0,0,-1.3333333,-91.816,-37.256)" />
    <path
       id="path2"
       d="M 72.92773,-52.6036 H 96.83847 V -76.51434 H 72.92773 Z"
       style="fill:none;stroke:#000000;stroke-width:1.49442;stroke-linecap:butt;stroke-linejoin:miter;stroke-miterlimit:10;stroke-dasharray:none;stroke-opacity:1"
       transform="matrix(1.3333333,0,0,-1.3333333,-91.816,-37.256)" />
    <path
       id="path3"
       d="m 72.92773,-76.51434 h 23.91074 v -23.91074 H 72.92773 Z"
       style="fill:none;stroke:#000000;stroke-width:1.49442;stroke-linecap:butt;stroke-linejoin:miter;stroke-miterlimit:10;stroke-dasharray:none;stroke-opacity:1"
       transform="matrix(1.3333333,0,0,-1.3333333,-91.816,-37.256)" />
    <path
       id="path4"
       d="m 72.92773,-100.42508 h 95.64295 v -23.91074 H 72.92773 Z"
       style="fill:none;stroke:#000000;stroke-width:1.49442;stroke-linecap:butt;stroke-linejoin:miter;stroke-miterlimit:10;stroke-dasharray:none;stroke-opacity:1"
       transform="matrix(1.3333333,0,0,-1.3333333,-91.816,-37.256)" />
    <path
       id="path5"
       d="m 72.92773,-124.33582 h 143.46441 v -23.91073 H 72.92773 Z"
       style="fill:none;stroke:#000000;stroke-width:1.49442;stroke-linecap:butt;stroke-linejoin:miter;stroke-miterlimit:10;stroke-dasharray:none;stroke-opacity:1"
       transform="matrix(1.3333333,0,0,-1.3333333,-91.816,-37.256)" />
    <path
       id="path6"
       d="m 107.144,-91.09988 c 2.79156,0 4.18437,1.39279 4.18437,4.18438 v 16.73752 c 0,3.98711 1.39281,5.97768 4.18437,5.97768 -2.79156,0 -4.18437,1.99055 -4.18437,5.97769 m 0,-1.79332 v 18.53084 c 0,2.79156 -1.39281,4.18437 -4.18437,4.18437"
       style="fill:none;stroke:#000000;stroke-width:1.49442;stroke-linecap:butt;stroke-linejoin:miter;stroke-miterlimit:10;stroke-dasharray:none;stroke-opacity:1"
       transform="matrix(1.3333333,0,0,-1.3333333,-91.816,-37.256)" />
    <path
       id="path7"
       d="m 240.44633,-134.73697 c 2.7916,0 4.18439,1.39277 4.18439,4.18437 v 38.55608 c 0,3.98711 1.39279,5.97768 4.18438,5.97768 -2.79159,0 -4.18438,1.99055 -4.18438,5.97769 m 0,-1.79331 v 40.34937 c 0,2.79156 -1.39279,4.18437 -4.18439,4.18437"
       style="fill:none;stroke:#000000;stroke-width:1.49442;stroke-linecap:butt;stroke-linejoin:miter;stroke-miterlimit:10;stroke-dasharray:none;stroke-opacity:1"
       transform="matrix(1.3333333,0,0,-1.3333333,-91.816,-37.256)" />
    <path
       id="path8"
       d="m 1.8639453,-2.2955937 c 0.2929688,0 1.03125,-0.023437 1.5234375,-0.234375 0.703125,-0.2929688 0.75,-0.890625 0.75,-1.0195313 0,-0.4453125 -0.3867187,-0.8554687 -1.0664062,-0.8554687 -1.1132813,0 -2.61328129,0.9726562 -2.61328129,2.7070312 0,1.01953125 0.58593749,1.8046875 1.57031249,1.8046875 1.4179688,0 2.2617188,-1.0546875 2.2617188,-1.171875 0,-0.058594 -0.070312,-0.1289062 -0.1289063,-0.1289062 -0.046875,0 -0.070312,0.023437 -0.1289062,0.09375 -0.7851563,0.9960937 -1.875,0.9960937 -1.9921875,0.9960937 -0.7734375,0 -0.8671875,-0.84375 -0.8671875,-1.1601562 0,-0.1171875 0.011719,-0.4335938 0.1640625,-1.03125 z M 1.3951953,-2.51825 c 0.3867188,-1.5117187 1.4179688,-1.6640625 1.6757813,-1.6640625 0.46875,0 0.7382812,0.2929688 0.7382812,0.6328125 0,1.03125 -1.59375,1.03125 -2.0039062,1.03125 z m 0,0"
       style="fill:#000000;fill-opacity:1;fill-rule:nonzero;stroke:none"
       aria-label="e"
       transform="matrix(1.3333333,0,0,1.3333333,18.073333,16.982667)" />
    <g
       id="g8"
       aria-label="c&#10;1"
       transform="matrix(1.3333333,0,0,1.3333333,17.277333,48.862667)">
      <path
         id="path9"
         d="m 3.9492266,-3.7846953 c -0.1640625,0 -0.3046875,0 -0.4453125,0.140625 -0.1523438,0.1523437 -0.1757813,0.3164062 -0.1757813,0.3867187 0,0.234375 0.1757813,0.3515625 0.3632813,0.3515625 0.2929687,0 0.5625,-0.2460937 0.5625,-0.6445312 0,-0.4804688 -0.46875,-0.8554688 -1.171875,-0.8554688 -1.3476563,0 -2.67187504,1.4296875 -2.67187504,2.8359375 0,0.89062504 0.57421875,1.67578129 1.61718754,1.67578129 1.4179687,0 2.2617187,-1.0546875 2.2617187,-1.17187499 0,-0.058594 -0.070312,-0.1289063 -0.1289062,-0.1289063 -0.046875,0 -0.070312,0.023437 -0.1289063,0.09375 -0.7851562,0.99609379 -1.875,0.99609379 -1.9921875,0.99609379 -0.6210937,0 -0.890625,-0.4921875 -0.890625,-1.08984379 0,-0.4101562 0.1992188,-1.3710937 0.5390625,-1.9921875 0.3046875,-0.5625 0.8554688,-0.9960937 1.40625,-0.9960937 0.328125,0 0.7148438,0.1289062 0.8554688,0.3984375 z m 0,0"
         style="fill:#000000;fill-opacity:1;fill-rule:nonzero;stroke:none" />
      <path
         id="path10"
         d="m 6.6416094,-2.9350859 c 0,-0.1875 -0.011719,-0.1992188 -0.2109375,-0.1992188 -0.4453125,0.4335938 -1.078125,0.4453125 -1.359375,0.4453125 v 0.2460938 c 0.1640625,0 0.6210937,0 1.0078125,-0.1875 v 3.55078121 c 0,0.23437499 0,0.32812499 -0.6914063,0.32812499 H 5.1181719 v 0.2460938 c 0.1289062,-0.011719 0.984375,-0.023437 1.2421875,-0.023437 0.2109375,0 1.0898437,0.011719 1.2421875,0.023437 V 1.2485078 H 7.3447344 c -0.703125,0 -0.703125,-0.09375 -0.703125,-0.32812499 z m 0,0"
         style="fill:#000000;fill-opacity:1;fill-rule:nonzero;stroke:none" />
    </g>
    <g
       id="g10"
       aria-label="c&#10;2"
       transform="matrix(1.3333333,0,0,1.3333333,17.277333,79.150667)">
      <path
         id="path11"
         d="m 3.9492266,-3.7838984 c -0.1640625,0 -0.3046875,0 -0.4453125,0.140625 -0.1523438,0.1523437 -0.1757813,0.3164062 -0.1757813,0.3867187 0,0.234375 0.1757813,0.3515625 0.3632813,0.3515625 0.2929687,0 0.5625,-0.2460937 0.5625,-0.6445312 0,-0.4804688 -0.46875,-0.8554688 -1.171875,-0.8554688 -1.3476563,0 -2.67187504,1.4296875 -2.67187504,2.8359375 0,0.89062501 0.57421875,1.67578126 1.61718754,1.67578126 1.4179687,0 2.2617187,-1.0546875 2.2617187,-1.17187496 0,-0.058594 -0.070312,-0.1289063 -0.1289062,-0.1289063 -0.046875,0 -0.070312,0.023437 -0.1289063,0.09375 -0.7851562,0.99609376 -1.875,0.99609376 -1.9921875,0.99609376 -0.6210937,0 -0.890625,-0.4921875 -0.890625,-1.08984376 0,-0.4101562 0.1992188,-1.3710937 0.5390625,-1.9921875 0.3046875,-0.5625 0.8554688,-0.9960937 1.40625,-0.9960937 0.328125,0 0.7148438,0.1289062 0.8554688,0.3984375 z m 0,0"
         style="fill:#000000;fill-opacity:1;fill-rule:nonzero;stroke:none" />
      <path
         id="path12"
         d="m 7.8252031,0.22977344 h -0.234375 c -0.023437,0.15234375 -0.082031,0.5625 -0.1757812,0.6328125 -0.058594,0.0351563 -0.5976563,0.0351563 -0.6914063,0.0351563 H 5.4345781 c 0.7382813,-0.64453125 0.984375,-0.84375 1.3945313,-1.171875 0.515625,-0.41015625 0.9960937,-0.84374994 0.9960937,-1.50000004 0,-0.84375 -0.7382812,-1.359375 -1.6289062,-1.359375 -0.8671875,0 -1.453125,0.609375 -1.453125,1.2421875 0,0.3632813 0.3046875,0.3984375 0.375,0.3984375 0.1640625,0 0.375,-0.1171875 0.375,-0.375 0,-0.1289062 -0.058594,-0.3632813 -0.421875,-0.3632813 0.2226562,-0.5039062 0.6914062,-0.65625 1.0195312,-0.65625 0.703125,0 1.0664063,0.5507813 1.0664063,1.1132813 0,0.609375 -0.4335938,1.08984379 -0.65625,1.33593754 l -1.6875,1.66406246 c -0.070312,0.058594 -0.070312,0.070312 -0.070312,0.2695312 h 2.8828125 z m 0,0"
         style="fill:#000000;fill-opacity:1;fill-rule:nonzero;stroke:none" />
    </g>
    <g
       id="g12"
       aria-label="C(G)"
       transform="matrix(1.3333333,0,0,1.3333333,68.286667,53.106667)">
      <path
         id="path13"
         d="m 7.5691797,-6.9266797 c 0,-0.023437 -0.023437,-0.09375 -0.1054688,-0.09375 -0.035156,0 -0.046875,0.011719 -0.1523437,0.1171875 l -0.703125,0.7617188 c -0.082031,-0.140625 -0.5390625,-0.8789063 -1.6523438,-0.8789063 -2.2148437,0 -4.45312496,2.203125 -4.45312496,4.5117188 0,1.64062496 1.17187496,2.73046871 2.69531246,2.73046871 0.8671875,0 1.6171875,-0.3984375 2.1445313,-0.85546875 0.9375,-0.82031246 1.1015625,-1.72265626 1.1015625,-1.75781246 0,-0.1054688 -0.1054688,-0.1054688 -0.1171875,-0.1054688 -0.058594,0 -0.1171875,0.023437 -0.1289063,0.1054688 -0.09375,0.2929687 -0.3164062,0.9960937 -1.0078125,1.57031246 -0.6914062,0.5625 -1.3125,0.7265625 -1.8398437,0.7265625 -0.890625,0 -1.9453125,-0.515625 -1.9453125,-2.06249996 0,-0.5742188 0.2109375,-2.1914063 1.2070312,-3.3515625 0.609375,-0.703125 1.5351563,-1.2070313 2.4257813,-1.2070313 1.0195312,0 1.6054687,0.7734375 1.6054687,1.921875 0,0.3984375 -0.035156,0.4101563 -0.035156,0.5039063 0,0.1054687 0.1171875,0.1054687 0.1523437,0.1054687 0.1289063,0 0.1289063,-0.023437 0.1757813,-0.1992187 z m 0,0"
         style="fill:#000000;fill-opacity:1;fill-rule:nonzero;stroke:none" />
      <path
         id="path14"
         d="m 11.12582,2.3897266 c 0,-0.035156 0,-0.046875 -0.164062,-0.2226563 -1.2421877,-1.25390624 -1.5703127,-3.12890624 -1.5703127,-4.6640625 0,-1.7226562 0.3867188,-3.4570312 1.6054687,-4.7109375 0.128906,-0.1171875 0.128906,-0.1289062 0.128906,-0.1640625 0,-0.070312 -0.03516,-0.1054687 -0.09375,-0.1054687 -0.105468,0 -0.996093,0.6796875 -1.5820309,1.9453125 -0.515625,1.1015625 -0.6328125,2.203125 -0.6328125,3.0351562 0,0.7851563 0.1171875,1.99218751 0.65625,3.11718751 0.5976564,1.21874999 1.4531254,1.87499999 1.5585934,1.87499999 0.05859,0 0.09375,-0.035156 0.09375,-0.1054687 z m 0,0"
         style="fill:#000000;fill-opacity:1;fill-rule:nonzero;stroke:none" />
      <path
         id="path15"
         d="m 19.276211,-6.9266797 c 0,-0.023437 -0.02344,-0.09375 -0.105469,-0.09375 -0.03516,0 -0.04687,0.011719 -0.152344,0.1171875 l -0.703125,0.7617188 c -0.08203,-0.140625 -0.539062,-0.8789063 -1.652343,-0.8789063 -2.214844,0 -4.453125,2.203125 -4.453125,4.5117188 0,1.58203121 1.101562,2.73046871 2.71875,2.73046871 0.433593,0 0.878906,-0.09375 1.242187,-0.24609375 0.492188,-0.19921875 0.679688,-0.41015625 0.867188,-0.609375 0.08203,0.2578125 0.351562,0.62109375 0.445312,0.62109375 0.04687,0 0.07031,-0.0234375 0.07031,-0.03515625 0.02344,-0.0234375 0.117187,-0.3984375 0.164062,-0.609375 l 0.199219,-0.77343746 c 0.03516,-0.1640625 0.08203,-0.328125 0.128906,-0.5039063 0.105469,-0.4453125 0.117188,-0.46875 0.679688,-0.4804687 0.05859,0 0.164062,-0.011719 0.164062,-0.1992188 0,-0.070312 -0.04687,-0.1054687 -0.128906,-0.1054687 -0.234375,0 -0.820313,0.023437 -1.042969,0.023437 -0.316406,0 -1.089844,-0.023437 -1.394531,-0.023437 -0.09375,0 -0.210938,0 -0.210938,0.1992187 0,0.1054688 0.08203,0.1054688 0.292969,0.1054688 0.01172,0 0.304688,0 0.527344,0.023437 0.257812,0.035156 0.316406,0.058594 0.316406,0.1875 0,0.09375 -0.117187,0.5390625 -0.210937,0.9023437 -0.28125,1.10156251 -1.582032,1.20703126 -1.921875,1.20703126 -0.960938,0 -2.003907,-0.5625 -2.003907,-2.08593746 0,-0.3164063 0.09375,-1.9570313 1.148438,-3.2460938 0.539062,-0.6796875 1.5,-1.2890625 2.484375,-1.2890625 1.019531,0 1.605469,0.7734375 1.605469,1.921875 0,0.3984375 -0.03516,0.4101563 -0.03516,0.5039063 0,0.1054687 0.117188,0.1054687 0.152344,0.1054687 0.128906,0 0.128906,-0.023437 0.175781,-0.1992187 z m 0,0"
         style="fill:#000000;fill-opacity:1;fill-rule:nonzero;stroke:none" />
      <path
         id="path16"
         d="m 22.422695,-2.4969922 c 0,-0.7734375 -0.117187,-1.9804687 -0.65625,-3.1054687 -0.597656,-1.21875 -1.464843,-1.875 -1.558593,-1.875 -0.05859,0 -0.105469,0.046875 -0.105469,0.1054687 0,0.035156 0,0.046875 0.199219,0.234375 0.972656,0.984375 1.535156,2.5664063 1.535156,4.640625 0,1.71093751 -0.363281,3.45703126 -1.59375,4.7226563 -0.140625,0.1171875 -0.140625,0.1289062 -0.140625,0.1640625 0,0.058594 0.04687,0.1054687 0.105469,0.1054687 0.09375,0 0.996093,-0.6796875 1.582031,-1.94531249 0.503906,-1.1015625 0.632812,-2.20312501 0.632812,-3.04687501 z m 0,0"
         style="fill:#000000;fill-opacity:1;fill-rule:nonzero;stroke:none" />
    </g>
    <g
       id="g16"
       aria-label="[g&#10;1&#10;]"
       transform="matrix(1.3333333,0,0,1.3333333,57.128,116.868)">
      <path
         id="path17"
         d="M 2.5436484,2.4954844 V 2.0970469 H 1.5709922 V -7.0787344 H 2.5436484 V -7.4771719 H 1.1725547 v 9.9726563 z m 0,0"
         style="fill:#000000;fill-opacity:1;fill-rule:nonzero;stroke:none" />
      <path
         id="path18"
         d="m 7.4538047,-3.7506094 c 0.011719,-0.070312 0.035156,-0.1171875 0.035156,-0.1875 0,-0.1640625 -0.1171875,-0.2695312 -0.2929687,-0.2695312 -0.09375,0 -0.3632813,0.070312 -0.4101563,0.4335937 -0.1757812,-0.375 -0.5273437,-0.6328125 -0.9257812,-0.6328125 -1.1367188,0 -2.3671875,1.3945313 -2.3671875,2.8359375 0,0.98437503 0.609375,1.570312525 1.3242187,1.570312525 0.5859375,0 1.0546875,-0.468749995 1.1601563,-0.574218745 l 0.011719,0.0117188 c -0.2109375,0.87890625 -0.328125,1.2890625 -0.328125,1.3125 -0.046875,0.0820313 -0.3867187,1.07812502 -1.4414062,1.07812502 -0.1875,0 -0.515625,-0.011719 -0.796875,-0.1054688 0.3046875,-0.09375 0.4101562,-0.3515625 0.4101562,-0.515625 0,-0.1640625 -0.1054687,-0.35156247 -0.375,-0.35156247 -0.2226562,0 -0.5390625,0.17578117 -0.5390625,0.57421877 0,0.4101562 0.3632813,0.609375 1.3242188,0.609375 1.2421875,0 1.9570312,-0.7734376 2.109375,-1.37109377 z m -1.2890625,2.4726563 c -0.058594,0.2578125 -0.2929688,0.51562498 -0.5039063,0.70312498 -0.2109375,0.17578125 -0.5273437,0.3515625 -0.8085937,0.3515625 -0.5039063,0 -0.65625,-0.515625 -0.65625,-0.91406248 0,-0.4804688 0.2929687,-1.6523438 0.5625,-2.15625 0.2695312,-0.4921875 0.703125,-0.890625 1.1132812,-0.890625 0.65625,0 0.796875,0.8085937 0.796875,0.8554687 0,0.046875 -0.011719,0.1054688 -0.023437,0.1523438 z m 0,0"
         style="fill:#000000;fill-opacity:1;fill-rule:nonzero;stroke:none" />
      <path
         id="path19"
         d="m 9.8502891,-2.9361562 c 0,-0.1875 -0.011719,-0.1992188 -0.2109375,-0.1992188 -0.4453125,0.4335938 -1.078125,0.4453125 -1.359375,0.4453125 v 0.2460938 c 0.1640625,0 0.6210937,0 1.0078125,-0.1875 v 3.5507812 c 0,0.234375 0,0.328125 -0.6914063,0.328125 H 8.3268516 v 0.2460938 c 0.1289062,-0.011719 0.984375,-0.023437 1.2421875,-0.023437 0.2109375,0 1.0898439,0.011719 1.2421879,0.023437 V 1.2474375 h -0.257813 c -0.7031249,0 -0.7031249,-0.09375 -0.7031249,-0.328125 z m 0,0"
         style="fill:#000000;fill-opacity:1;fill-rule:nonzero;stroke:none" />
      <path
         id="path20"
         d="m 13.570992,-7.4771719 h -1.359375 v 0.3984375 h 0.960938 v 9.1757813 h -0.960938 v 0.3984375 h 1.359375 z m 0,0"
         style="fill:#000000;fill-opacity:1;fill-rule:nonzero;stroke:none" />
    </g>
    <g
       id="g20"
       aria-label="[g&#10;2&#10;]"
       transform="matrix(1.3333333,0,0,1.3333333,89.009333,148.74933)">
      <path
         id="path21"
         d="M 2.5418281,2.4965938 V 2.0981563 H 1.5691719 V -7.077625 H 2.5418281 V -7.4760625 H 1.1707344 v 9.9726563 z m 0,0"
         style="fill:#000000;fill-opacity:1;fill-rule:nonzero;stroke:none" />
      <path
         id="path22"
         d="m 7.4549141,-3.7495 c 0.011719,-0.070312 0.035156,-0.1171875 0.035156,-0.1875 0,-0.1640625 -0.1171875,-0.2695312 -0.2929687,-0.2695312 -0.09375,0 -0.3632813,0.070312 -0.4101563,0.4335937 -0.1757812,-0.375 -0.5273437,-0.6328125 -0.9257812,-0.6328125 -1.1367188,0 -2.3671875,1.3945313 -2.3671875,2.8359375 0,0.984375 0.609375,1.5703125 1.3242187,1.5703125 0.5859375,0 1.0546875,-0.46875 1.1601563,-0.57421875 L 5.9900703,-0.562 C 5.7791328,0.31690625 5.6619453,0.7270625 5.6619453,0.7505 5.6150703,0.8325313 5.2752266,1.828625 4.2205391,1.828625 c -0.1875,0 -0.515625,-0.011719 -0.796875,-0.1054687 0.3046875,-0.09375 0.4101562,-0.3515625 0.4101562,-0.515625 0,-0.1640625 -0.1054687,-0.35156255 -0.375,-0.35156255 -0.2226562,0 -0.5390625,0.17578125 -0.5390625,0.57421875 0,0.4101563 0.3632813,0.609375 1.3242188,0.609375 1.2421875,0 1.9570312,-0.7734375 2.109375,-1.37109375 z m -1.2890625,2.4726563 c -0.058594,0.2578125 -0.2929688,0.51562495 -0.5039063,0.70312495 -0.2109375,0.17578125 -0.5273437,0.3515625 -0.8085937,0.3515625 -0.5039063,0 -0.65625,-0.515625 -0.65625,-0.91406245 0,-0.4804688 0.2929687,-1.6523438 0.5625,-2.15625 0.2695312,-0.4921875 0.703125,-0.890625 1.1132812,-0.890625 0.65625,0 0.796875,0.8085937 0.796875,0.8554687 0,0.046875 -0.011719,0.1054688 -0.023437,0.1523438 z m 0,0"
         style="fill:#000000;fill-opacity:1;fill-rule:nonzero;stroke:none" />
      <path
         id="path23"
         d="m 11.034992,0.22901563 h -0.234375 c -0.02344,0.15234375 -0.08203,0.5625 -0.175781,0.6328125 -0.05859,0.0351563 -0.597656,0.0351563 -0.6914063,0.0351563 H 8.6443672 c 0.7382812,-0.64453125 0.984375,-0.84375 1.3945308,-1.171875 0.515625,-0.41015625 0.996094,-0.84374993 0.996094,-1.49999993 0,-0.84375 -0.738281,-1.359375 -1.6289061,-1.359375 -0.8671875,0 -1.453125,0.609375 -1.453125,1.2421875 0,0.3632812 0.3046875,0.3984375 0.375,0.3984375 0.1640625,0 0.375,-0.1171875 0.375,-0.375 0,-0.1289063 -0.058594,-0.3632814 -0.421875,-0.3632814 0.2226563,-0.5039061 0.6914063,-0.65625 1.0195313,-0.65625 0.7031248,0 1.0664058,0.5507814 1.0664058,1.1132814 0,0.609375 -0.4335933,1.08984368 -0.6562496,1.33593743 l -1.6875,1.66406247 c -0.070313,0.058594 -0.070313,0.070312 -0.070313,0.2695312 h 2.8828116 z m 0,0"
         style="fill:#000000;fill-opacity:1;fill-rule:nonzero;stroke:none" />
      <path
         id="path24"
         d="m 13.572102,-7.4760625 h -1.359375 v 0.3984375 h 0.960937 v 9.1757813 h -0.960937 v 0.3984375 h 1.359375 z m 0,0"
         style="fill:#000000;fill-opacity:1;fill-rule:nonzero;stroke:none" />
    </g>
    <path
       id="path25"
       d="m 7.5705469,-6.9252344 c 0,-0.023437 -0.023437,-0.09375 -0.1054688,-0.09375 -0.035156,0 -0.046875,0.011719 -0.1523437,0.1171875 l -0.703125,0.7617188 c -0.082031,-0.140625 -0.5390625,-0.8789063 -1.6523438,-0.8789063 -2.2148437,0 -4.45312497,2.203125 -4.45312497,4.5117188 0,1.58203123 1.10156247,2.73046873 2.71874997,2.73046873 0.4335938,0 0.8789063,-0.09375 1.2421875,-0.24609375 0.4921875,-0.19921875 0.6796875,-0.41015625 0.8671875,-0.609375 0.082031,0.2578125 0.3515625,0.62109375 0.4453125,0.62109375 0.046875,0 0.070312,-0.0234375 0.070312,-0.03515625 0.023437,-0.0234375 0.1171875,-0.3984375 0.1640625,-0.609375 L 6.2111719,-1.4291406 c 0.035156,-0.1640625 0.082031,-0.328125 0.1289062,-0.5039063 0.1054688,-0.4453125 0.1171875,-0.46875 0.6796875,-0.4804687 0.058594,0 0.1640625,-0.011719 0.1640625,-0.1992188 0,-0.070312 -0.046875,-0.1054687 -0.1289062,-0.1054687 -0.234375,0 -0.8203125,0.023437 -1.0429688,0.023437 -0.3164062,0 -1.0898437,-0.023437 -1.3945312,-0.023437 -0.09375,0 -0.2109375,0 -0.2109375,0.1992187 0,0.1054688 0.082031,0.1054688 0.2929687,0.1054688 0.011719,0 0.3046875,0 0.5273438,0.023437 0.2578125,0.035156 0.3164062,0.058594 0.3164062,0.1875 0,0.09375 -0.1171875,0.5390625 -0.2109375,0.9023437 -0.28125,1.10156253 -1.5820312,1.20703128 -1.921875,1.20703128 -0.9609375,0 -2.0039062,-0.5625 -2.0039062,-2.08593748 0,-0.3164063 0.09375,-1.9570313 1.1484375,-3.2460938 0.5390625,-0.6796875 1.5,-1.2890625 2.484375,-1.2890625 1.0195312,0 1.6054687,0.7734375 1.6054687,1.921875 0,0.3984375 -0.035156,0.4101563 -0.035156,0.5039063 0,0.1054687 0.1171875,0.1054687 0.1523437,0.1054687 0.1289063,0 0.1289063,-0.023437 0.1757813,-0.1992187 z m 0,0"
       style="fill:#000000;fill-opacity:1;fill-rule:nonzero;stroke:none"
       aria-label="G"
       transform="matrix(1.3333333,0,0,1.3333333,246.82,80.913333)" />
  </g>
</svg>
