<?xml version="1.0" encoding="UTF-8" standalone="no"?>
<!-- Created with Inkscape (http://www.inkscape.org/) -->

<svg
   version="1.1"
   id="svg1"
   width="185.87334"
   height="128.97067"
   viewBox="0 0 185.87334 128.97067"
   sodipodi:docname="D2.pdf"
   xmlns:inkscape="http://www.inkscape.org/namespaces/inkscape"
   xmlns:sodipodi="http://sodipodi.sourceforge.net/DTD/sodipodi-0.dtd"
   xmlns="http://www.w3.org/2000/svg"
   xmlns:svg="http://www.w3.org/2000/svg">
  <defs
     id="defs1" />
  <sodipodi:namedview
     id="namedview1"
     pagecolor="#ffffff"
     bordercolor="#000000"
     borderopacity="0.25"
     inkscape:showpageshadow="2"
     inkscape:pageopacity="0.0"
     inkscape:pagecheckerboard="0"
     inkscape:deskcolor="#d1d1d1">
    <inkscape:page
       x="0"
       y="0"
       inkscape:label="1"
       id="page1"
       width="185.87334"
       height="128.97067"
       margin="0"
       bleed="0" />
  </sodipodi:namedview>
  <g
     id="g1"
     inkscape:groupmode="layer"
     inkscape:label="1">
    <path
       id="path1"
       d="m 41.84363,-54.54616 c 0,1.65136 1.33747,2.98883 2.98883,2.98883 1.65132,0 2.98883,-1.33747 2.98883,-2.98883 0,-1.65132 -1.33751,-2.98883 -2.98883,-2.98883 -1.65136,0 -2.98883,1.33751 -2.98883,2.98883 z"
       style="fill:#000000;fill-opacity:1;fill-rule:nonzero;stroke:#000000;stroke-width:0.74721;stroke-linecap:butt;stroke-linejoin:miter;stroke-miterlimit:10;stroke-dasharray:none;stroke-opacity:1"
       transform="matrix(1.3333333,0,0,-1.3333333,-22.272,-68.244)" />
    <path
       id="path2"
       d="m 41.84363,-123.85712 c 0,1.65132 1.33747,2.98883 2.98883,2.98883 1.65132,0 2.98883,-1.33751 2.98883,-2.98883 0,-1.65133 -1.33751,-2.98883 -2.98883,-2.98883 -1.65136,0 -2.98883,1.3375 -2.98883,2.98883 z"
       style="fill:#000000;fill-opacity:1;fill-rule:nonzero;stroke:#000000;stroke-width:0.74721;stroke-linecap:butt;stroke-linejoin:miter;stroke-miterlimit:10;stroke-dasharray:none;stroke-opacity:1"
       transform="matrix(1.3333333,0,0,-1.3333333,-22.272,-68.244)" />
    <path
       id="path3"
       d="m 25.41252,-100.40976 c -1.90538,3.2952 -2.99629,7.1209 -2.99629,11.20812 0,4.08723 1.09091,7.91294 2.99629,11.20811 l 19.41994,-11.20811 z"
       style="fill:none;stroke:#000000;stroke-width:0.74721;stroke-linecap:butt;stroke-linejoin:miter;stroke-miterlimit:10;stroke-dasharray:none;stroke-opacity:0"
       transform="matrix(1.3333333,0,0,-1.3333333,-22.272,-68.244)" />
    <path
       id="path4"
       d="m 25.41252,-100.40976 c -1.90538,3.2952 -2.99629,7.1209 -2.99629,11.20812 0,4.08723 1.09091,7.91294 2.99629,11.20811"
       style="fill:none;stroke:#9b9b9b;stroke-width:0.74721;stroke-linecap:butt;stroke-linejoin:miter;stroke-miterlimit:10;stroke-dasharray:none;stroke-opacity:1"
       transform="matrix(1.3333333,0,0,-1.3333333,-22.272,-68.244)" />
    <path
       id="path5"
       d="m 64.25237,-77.99353 c 1.90538,-3.29517 2.99632,-7.12088 2.99632,-11.20811 0,-4.08722 -1.09094,-7.91292 -2.99632,-11.20812 l -19.41991,11.20812 z"
       style="fill:none;stroke:#000000;stroke-width:0.74721;stroke-linecap:butt;stroke-linejoin:miter;stroke-miterlimit:10;stroke-dasharray:none;stroke-opacity:0"
       transform="matrix(1.3333333,0,0,-1.3333333,-22.272,-68.244)" />
    <path
       id="path6"
       d="m 64.25237,-77.99353 c 1.90538,-3.29517 2.99632,-7.12088 2.99632,-11.20811 0,-4.08722 -1.09094,-7.91292 -2.99632,-11.20812"
       style="fill:none;stroke:#9b9b9b;stroke-width:0.74721;stroke-linecap:butt;stroke-linejoin:miter;stroke-miterlimit:10;stroke-dasharray:none;stroke-opacity:1"
       transform="matrix(1.3333333,0,0,-1.3333333,-22.272,-68.244)" />
    <path
       id="path7"
       d="m 25.94304,-94.64131 -0.55295,-6.65762 -4.99133,4.43841 3.88548,-1.66626 z"
       style="fill:#9b9b9b;fill-opacity:1;fill-rule:nonzero;stroke:#9b9b9b;stroke-width:0.74721;stroke-linecap:butt;stroke-linejoin:miter;stroke-miterlimit:10;stroke-dasharray:none;stroke-opacity:1"
       transform="matrix(1.3333333,0,0,-1.3333333,-22.272,-68.244)" />
    <path
       id="path8"
       d="m 62.73555,-81.66978 0.44084,6.67256 5.06607,-4.35622 -3.9079,1.59901 z"
       style="fill:#9b9b9b;fill-opacity:1;fill-rule:nonzero;stroke:#9b9b9b;stroke-width:0.74721;stroke-linecap:butt;stroke-linejoin:miter;stroke-miterlimit:10;stroke-dasharray:none;stroke-opacity:1"
       transform="matrix(1.3333333,0,0,-1.3333333,-22.272,-68.244)" />
    <path
       id="path9"
       d="m 139.33179,-54.55362 c 0,1.65134 1.34498,2.99629 3.00378,2.99629 1.65133,0 2.99631,-1.34495 2.99631,-2.99629 0,-1.65878 -1.34498,-3.00377 -2.99631,-3.00377 -1.6588,0 -3.00378,1.34499 -3.00378,3.00377 z"
       style="fill:#000000;fill-opacity:1;fill-rule:nonzero;stroke:#000000;stroke-width:0.74721;stroke-linecap:butt;stroke-linejoin:miter;stroke-miterlimit:10;stroke-dasharray:none;stroke-opacity:1"
       transform="matrix(1.3333333,0,0,-1.3333333,-22.272,-68.244)" />
    <path
       id="path10"
       d="m 139.35422,-123.85712 c 0,1.65132 1.33748,2.98883 2.98883,2.98883 1.65133,0 2.98883,-1.33751 2.98883,-2.98883 0,-1.65133 -1.3375,-2.98883 -2.98883,-2.98883 -1.65135,0 -2.98883,1.3375 -2.98883,2.98883 z"
       style="fill:#000000;fill-opacity:1;fill-rule:nonzero;stroke:#000000;stroke-width:0.74721;stroke-linecap:butt;stroke-linejoin:miter;stroke-miterlimit:10;stroke-dasharray:none;stroke-opacity:1"
       transform="matrix(1.3333333,0,0,-1.3333333,-22.272,-68.244)" />
    <path
       id="path11"
       d="m 142.33557,-75.47543 v -27.69899"
       style="fill:none;stroke:#9b9b9b;stroke-width:0.74721;stroke-linecap:butt;stroke-linejoin:miter;stroke-miterlimit:10;stroke-dasharray:none;stroke-opacity:1"
       transform="matrix(1.3333333,0,0,-1.3333333,-22.272,-68.244)" />
    <path
       id="path12"
       d="m 138.48746,-97.40599 3.84811,-8.01006 3.8481,8.01006 -3.8481,-2.68994 z"
       style="fill:#9b9b9b;fill-opacity:1;fill-rule:nonzero;stroke:#000000;stroke-width:0.0797;stroke-linecap:butt;stroke-linejoin:miter;stroke-miterlimit:10;stroke-dasharray:none;stroke-opacity:0"
       transform="matrix(1.3333333,0,0,-1.3333333,-22.272,-68.244)" />
    <path
       id="path13"
       d="m 146.18367,-81.24387 -3.8481,8.01006 -3.84811,-8.01006 3.84811,2.68995 z"
       style="fill:#9b9b9b;fill-opacity:1;fill-rule:nonzero;stroke:#000000;stroke-width:0.0797;stroke-linecap:butt;stroke-linejoin:miter;stroke-miterlimit:10;stroke-dasharray:none;stroke-opacity:0"
       transform="matrix(1.3333333,0,0,-1.3333333,-22.272,-68.244)" />
    <path
       id="path14"
       d="m 104.21303,-54.55362 c 0,1.65134 1.34498,2.99629 3.00378,2.99629 1.65132,0 2.99631,-1.34495 2.99631,-2.99629 0,-1.65878 -1.34499,-3.00377 -2.99631,-3.00377 -1.6588,0 -3.00378,1.34499 -3.00378,3.00377 z"
       style="fill:#000000;fill-opacity:1;fill-rule:nonzero;stroke:#000000;stroke-width:0.74721;stroke-linecap:butt;stroke-linejoin:miter;stroke-miterlimit:10;stroke-dasharray:none;stroke-opacity:1"
       transform="matrix(1.3333333,0,0,-1.3333333,-22.272,-68.244)" />
    <path
       id="path15"
       d="m 104.23546,-123.85712 c 0,1.65132 1.33748,2.98883 2.98883,2.98883 1.65134,0 2.98883,-1.33751 2.98883,-2.98883 0,-1.65133 -1.33749,-2.98883 -2.98883,-2.98883 -1.65135,0 -2.98883,1.3375 -2.98883,2.98883 z"
       style="fill:#000000;fill-opacity:1;fill-rule:nonzero;stroke:#000000;stroke-width:0.74721;stroke-linecap:butt;stroke-linejoin:miter;stroke-miterlimit:10;stroke-dasharray:none;stroke-opacity:1"
       transform="matrix(1.3333333,0,0,-1.3333333,-22.272,-68.244)" />
    <path
       id="path16"
       d="M 120.76369,-89.32866 H 93.66246"
       style="fill:none;stroke:#9b9b9b;stroke-width:0.74721;stroke-linecap:butt;stroke-linejoin:miter;stroke-miterlimit:10;stroke-dasharray:none;stroke-opacity:1"
       transform="matrix(1.3333333,0,0,-1.3333333,-22.272,-68.244)" />
    <path
       id="path17"
       d="m 99.43091,-85.48055 -8.01007,-3.84811 8.01007,-3.8481 -2.68996,3.8481 z"
       style="fill:#9b9b9b;fill-opacity:1;fill-rule:nonzero;stroke:#000000;stroke-width:0.0797;stroke-linecap:butt;stroke-linejoin:miter;stroke-miterlimit:10;stroke-dasharray:none;stroke-opacity:0"
       transform="matrix(1.3333333,0,0,-1.3333333,-22.272,-68.244)" />
    <path
       id="path18"
       d="m 114.99525,-93.17676 8.01006,3.8481 -8.01006,3.84811 2.68995,-3.84811 z"
       style="fill:#9b9b9b;fill-opacity:1;fill-rule:nonzero;stroke:#000000;stroke-width:0.0797;stroke-linecap:butt;stroke-linejoin:miter;stroke-miterlimit:10;stroke-dasharray:none;stroke-opacity:0"
       transform="matrix(1.3333333,0,0,-1.3333333,-22.272,-68.244)" />
    <path
       id="path19"
       d="m 44.83246,-54.54616 c 1.7634,0 3.19803,-15.5195 3.19803,-34.65548 0,-19.14347 -1.43463,-34.65548 -3.19803,-34.65548 -1.76343,0 -3.19806,15.51201 -3.19806,34.65548 0,19.13598 1.43463,34.65548 3.19806,34.65548 z"
       style="fill:none;stroke:#000000;stroke-width:0.74721;stroke-linecap:butt;stroke-linejoin:miter;stroke-miterlimit:10;stroke-dasharray:none;stroke-opacity:1"
       transform="matrix(1.3333333,0,0,-1.3333333,-22.272,-68.244)" />
    <path
       id="path20"
       d="m 107.22429,-54.54616 c 1.7634,0 3.19804,-15.5195 3.19804,-34.65548 0,-19.14347 -1.43464,-34.65548 -3.19804,-34.65548 -1.76341,0 -3.19806,15.51201 -3.19806,34.65548 0,19.13598 1.43465,34.65548 3.19806,34.65548 z"
       style="fill:none;stroke:#000000;stroke-width:0.74721;stroke-linecap:butt;stroke-linejoin:miter;stroke-miterlimit:10;stroke-dasharray:none;stroke-opacity:1"
       transform="matrix(1.3333333,0,0,-1.3333333,-22.272,-68.244)" />
    <path
       id="path21"
       d="m 142.34305,-54.54616 c 1.7634,0 3.19804,-15.5195 3.19804,-34.65548 0,-19.14347 -1.43464,-34.65548 -3.19804,-34.65548 -1.76341,0 -3.19806,15.51201 -3.19806,34.65548 0,19.13598 1.43465,34.65548 3.19806,34.65548 z"
       style="fill:none;stroke:#000000;stroke-width:0.74721;stroke-linecap:butt;stroke-linejoin:miter;stroke-miterlimit:10;stroke-dasharray:none;stroke-opacity:1"
       transform="matrix(1.3333333,0,0,-1.3333333,-22.272,-68.244)" />
    <g
       id="g21"
       aria-label="r&#10;1"
       transform="matrix(1.3333333,0,0,1.3333333,29.036,123.84133)">
      <path
         id="path22"
         d="m 8.0384297,-8.4503359 c -0.6445313,0.1289062 -0.9726563,0.5742187 -0.9726563,1.03125 0,0.4921875 0.3867188,0.65625 0.6796875,0.65625 0.5742188,0 1.0546875,-0.4921875 1.0546875,-1.1132813 0,-0.65625 -0.6445312,-1.2304687 -1.6757812,-1.2304687 -0.8203125,0 -1.7695313,0.3632812 -2.6367188,1.6289062 -0.1523437,-1.1015625 -0.9726562,-1.6289062 -1.8046875,-1.6289062 -0.8085937,0 -1.21875,0.609375 -1.4648437,1.0664062 -0.35156251,0.75 -0.65625001,1.9804688 -0.65625001,2.0859375 0,0.082031 0.0820313,0.1875 0.22265625,0.1875 0.1640625,0 0.1875,-0.023437 0.30468746,-0.4921875 0.3164063,-1.2421875 0.703125,-2.4375 1.5351563,-2.4375 0.4921875,0 0.6445312,0.3515625 0.6445312,0.9492188 0,0.4570312 -0.2109375,1.2539062 -0.3515625,1.8984375 l -0.5859375,2.2265625 c -0.082031,0.3984375 -0.3046875,1.3242187 -0.4101562,1.6992187 -0.140625,0.5390625 -0.375,1.51171876 -0.375,1.61718751 0,0.28125 0.234375,0.515625 0.5390625,0.515625 0.2226562,0 0.6210937,-0.15234375 0.75,-0.5625 0.058594,-0.1640625 0.8203125,-3.28125001 0.9492187,-3.76171871 0.09375,-0.4570313 0.2226563,-0.890625 0.328125,-1.3359375 0.082031,-0.2929688 0.1640625,-0.6210938 0.2226563,-0.890625 0.070312,-0.1875 0.6210937,-1.1953125 1.1367187,-1.6523438 0.2460938,-0.234375 0.7851563,-0.703125 1.6289063,-0.703125 0.3398437,0 0.6679687,0.058594 0.9375,0.2460938 z m 0,0"
         style="fill:#9b9b9b;fill-opacity:1;fill-rule:nonzero;stroke:none" />
      <path
         id="path23"
         d="m 13.253273,-6.0977969 c 0,-0.328125 0,-0.3398437 -0.292968,-0.3398437 -0.339844,0.3867187 -1.066407,0.9140625 -2.542969,0.9140625 v 0.421875 c 0.339844,0 1.054687,0 1.839844,-0.375 v 7.4765625 c 0,0.515625 -0.04687,0.6914062 -1.300782,0.6914062 h -0.445312 v 0.4101563 c 0.386719,-0.023437 1.78125,-0.023437 2.25,-0.023437 0.46875,0 1.851562,0 2.238281,0.023437 V 2.6912656 h -0.445312 c -1.265625,0 -1.300782,-0.1757812 -1.300782,-0.6914062 z m 0,0"
         style="fill:#9b9b9b;fill-opacity:1;fill-rule:nonzero;stroke:none" />
    </g>
    <g
       id="g23"
       aria-label="π&#10;1"
       transform="matrix(1.3333333,0,0,1.3333333,159.54667,123.84133)">
      <path
         id="path24"
         d="m 5.355625,-7.7940859 h 2.3320312 c -0.5625,2.3203125 -0.9140625,3.8320312 -0.9140625,5.484375 0,0.28125 0,2.51953121 0.8554688,2.51953121 0.4335937,0 0.796875,-0.3984375 0.796875,-0.75 0,-0.10546875 0,-0.140625 -0.140625,-0.45703125 -0.5625,-1.41796876 -0.5625,-3.19921876 -0.5625,-3.33984376 0,-0.1289062 0,-1.59375 0.4335937,-3.4570312 h 2.3203128 c 0.269531,0 0.949218,0 0.949218,-0.65625 0,-0.4570313 -0.398437,-0.4570313 -0.761718,-0.4570313 H 3.8673437 c -0.4804687,0 -1.1835937,0 -2.1328125,1.0195313 -0.5390625,0.5976562 -1.19531245,1.6875 -1.19531245,1.8164062 0,0.1171875 0.10546875,0.1640625 0.22265625,0.1640625 0.15234375,0 0.1640625,-0.070312 0.2695312,-0.1875 1.078125,-1.6992187 2.15625,-1.6992187 2.671875,-1.6992187 h 1.171875 C 4.418125,-6.2354922 3.9025,-4.4425234 2.215,-0.83314844 c -0.1640625,0.33984375 -0.1640625,0.375 -0.1640625,0.50390625 0,0.43359375 0.3632812,0.5390625 0.5507812,0.5390625 0.5976563,0 0.7617188,-0.5390625 1.0195313,-1.40625001 0.328125,-1.0546875 0.328125,-1.1015625 0.5273437,-1.921875 z m 0,0"
         style="fill:#9b9b9b;fill-opacity:1;fill-rule:nonzero;stroke:none" />
      <path
         id="path25"
         d="m 15.612461,-6.0977969 c 0,-0.328125 0,-0.3398437 -0.292969,-0.3398437 -0.339844,0.3867187 -1.066406,0.9140625 -2.542969,0.9140625 v 0.421875 c 0.339844,0 1.054688,0 1.839844,-0.375 v 7.4765625 c 0,0.515625 -0.04687,0.6914062 -1.300781,0.6914062 h -0.445313 v 0.4101563 c 0.386719,-0.023437 1.78125,-0.023437 2.25,-0.023437 0.46875,0 1.851563,0 2.238282,0.023437 V 2.6912656 h -0.445313 c -1.265625,0 -1.300781,-0.1757812 -1.300781,-0.6914062 z m 0,0"
         style="fill:#9b9b9b;fill-opacity:1;fill-rule:nonzero;stroke:none" />
    </g>
    <g
       id="g25"
       aria-label="π&#10;0"
       transform="matrix(1.3333333,0,0,1.3333333,112.224,123.84133)">
      <path
         id="path26"
         d="m 5.3544609,-7.7940859 h 2.3320313 c -0.5625,2.3203125 -0.9140625,3.8320312 -0.9140625,5.484375 0,0.28125 0,2.51953121 0.8554687,2.51953121 0.4335938,0 0.796875,-0.3984375 0.796875,-0.75 0,-0.10546875 0,-0.140625 -0.140625,-0.45703125 -0.5625,-1.41796876 -0.5625,-3.19921876 -0.5625,-3.33984376 0,-0.1289062 0,-1.59375 0.4335938,-3.4570312 h 2.3203128 c 0.269531,0 0.949218,0 0.949218,-0.65625 0,-0.4570313 -0.398437,-0.4570313 -0.761718,-0.4570313 H 3.8661797 c -0.4804688,0 -1.1835938,0 -2.1328125,1.0195313 -0.5390625,0.5976562 -1.19531251,1.6875 -1.19531251,1.8164062 0,0.1171875 0.10546875,0.1640625 0.22265625,0.1640625 0.15234375,0 0.1640625,-0.070312 0.26953126,-0.1875 1.078125,-1.6992187 2.15625,-1.6992187 2.671875,-1.6992187 h 1.171875 c -0.4570313,1.5585937 -0.9726563,3.3515625 -2.6601563,6.96093746 -0.1640625,0.33984375 -0.1640625,0.375 -0.1640625,0.50390625 0,0.43359375 0.3632813,0.5390625 0.5507813,0.5390625 0.5976562,0 0.7617187,-0.5390625 1.0195312,-1.40625001 0.328125,-1.0546875 0.328125,-1.1015625 0.5273438,-1.921875 z m 0,0"
         style="fill:#9b9b9b;fill-opacity:1;fill-rule:nonzero;stroke:none" />
      <path
         id="path27"
         d="m 17.896453,-1.4923281 c 0,-1.1835938 -0.07031,-2.34375 -0.585937,-3.4335938 -0.585938,-1.1953125 -1.617188,-1.5117187 -2.320313,-1.5117187 -0.832031,0 -1.851562,0.421875 -2.378906,1.6054687 -0.410156,0.9023438 -0.550781,1.7929688 -0.550781,3.3398438 0,1.39453122 0.105468,2.43749997 0.621093,3.4570312 0.5625,1.0898438 1.546875,1.4414063 2.296875,1.4414063 1.242188,0 1.957032,-0.75 2.378907,-1.5820313 0.515625,-1.07812498 0.539062,-2.48437498 0.539062,-3.3164062 z m -2.917969,4.6054687 c -0.46875,0 -1.394531,-0.2578125 -1.664062,-1.8164062 -0.164063,-0.86718753 -0.164063,-1.95703128 -0.164063,-2.953125 0,-1.1835938 0,-2.2382813 0.234375,-3.09375 0.246094,-0.9609375 0.972657,-1.3945313 1.59375,-1.3945313 0.539063,0 1.371094,0.328125 1.640625,1.5585938 0.1875,0.8203125 0.1875,1.9453125 0.1875,2.9296875 0,0.96093747 0,2.05078122 -0.152343,2.9179687 -0.269532,1.5820313 -1.183594,1.8515625 -1.675782,1.8515625 z m 0,0"
         style="fill:#9b9b9b;fill-opacity:1;fill-rule:nonzero;stroke:none" />
    </g>
  </g>
</svg>
