<?xml version="1.0" encoding="UTF-8" standalone="no"?>
<!-- Created with Inkscape (http://www.inkscape.org/) -->

<svg
   version="1.1"
   id="svg1"
   width="185.02667"
   height="190.09332"
   viewBox="0 0 185.02667 190.09332"
   sodipodi:docname="D3asS3.pdf"
   xmlns:inkscape="http://www.inkscape.org/namespaces/inkscape"
   xmlns:sodipodi="http://sodipodi.sourceforge.net/DTD/sodipodi-0.dtd"
   xmlns="http://www.w3.org/2000/svg"
   xmlns:svg="http://www.w3.org/2000/svg">
  <defs
     id="defs1" />
  <sodipodi:namedview
     id="namedview1"
     pagecolor="#ffffff"
     bordercolor="#000000"
     borderopacity="0.25"
     inkscape:showpageshadow="2"
     inkscape:pageopacity="0.0"
     inkscape:pagecheckerboard="0"
     inkscape:deskcolor="#d1d1d1">
    <inkscape:page
       x="0"
       y="0"
       inkscape:label="1"
       id="page1"
       width="185.02667"
       height="190.09332"
       margin="0"
       bleed="0" />
  </sodipodi:namedview>
  <g
     id="g1"
     inkscape:groupmode="layer"
     inkscape:label="1">
    <path
       id="path1"
       d="M 108.1133,-69.36967 82.06606,-84.40926 v 30.07915 z"
       style="fill:#f8e71c;fill-opacity:0.22;fill-rule:nonzero;stroke:#000000;stroke-width:1.49442;stroke-linecap:butt;stroke-linejoin:miter;stroke-miterlimit:10;stroke-dasharray:none;stroke-opacity:1"
       transform="matrix(1.3333333,0,0,-1.3333333,-27.872,-1.2293333)" />
    <path
       id="path2"
       d="M 153.24394,-37.38968 127.1967,-52.42924 v 30.07913 z"
       style="fill:none;stroke:#000000;stroke-width:1.49442;stroke-linecap:butt;stroke-linejoin:miter;stroke-miterlimit:10;stroke-dasharray:none;stroke-opacity:1"
       transform="matrix(1.3333333,0,0,-1.3333333,-27.872,-1.2293333)" />
    <path
       id="path3"
       d="M 108.1133,-23.34239 82.06606,-38.38196 v 30.07913 z"
       style="fill:none;stroke:#000000;stroke-width:1.49442;stroke-linecap:butt;stroke-linejoin:miter;stroke-miterlimit:10;stroke-dasharray:none;stroke-opacity:1"
       transform="matrix(1.3333333,0,0,-1.3333333,-27.872,-1.2293333)" />
    <path
       id="path4"
       d="m 56.70619,-94.47546 -26.04724,-15.03959 v 30.07914 z"
       style="fill:none;stroke:#000000;stroke-width:1.49442;stroke-linecap:butt;stroke-linejoin:miter;stroke-miterlimit:10;stroke-dasharray:none;stroke-opacity:1"
       transform="matrix(1.3333333,0,0,-1.3333333,-27.872,-1.2293333)" />
    <path
       id="path5"
       d="m 153.24394,-94.1766 -26.04724,-15.03956 v 30.07914 z"
       style="fill:none;stroke:#000000;stroke-width:1.49442;stroke-linecap:butt;stroke-linejoin:miter;stroke-miterlimit:10;stroke-dasharray:none;stroke-opacity:1"
       transform="matrix(1.3333333,0,0,-1.3333333,-27.872,-1.2293333)" />
    <path
       id="path6"
       d="m 108.1133,-121.07567 -26.04724,-15.03955 v 30.07913 z"
       style="fill:none;stroke:#000000;stroke-width:1.49442;stroke-linecap:butt;stroke-linejoin:miter;stroke-miterlimit:10;stroke-dasharray:none;stroke-opacity:1"
       transform="matrix(1.3333333,0,0,-1.3333333,-27.872,-1.2293333)" />
    <path
       id="path7"
       d="M 56.70619,-43.43301 30.65895,-58.47258 v 30.07913 z"
       style="fill:none;stroke:#000000;stroke-width:1.49442;stroke-linecap:butt;stroke-linejoin:miter;stroke-miterlimit:10;stroke-dasharray:none;stroke-opacity:1"
       transform="matrix(1.3333333,0,0,-1.3333333,-27.872,-1.2293333)" />
    <path
       id="path8"
       d="m 2.3317656,-4.4295859 c 0,-0.1875 -0.011719,-0.1992188 -0.2109375,-0.1992188 -0.4453125,0.4335938 -1.078125,0.4453125 -1.35937497,0.4453125 v 0.2460938 c 0.1640625,0 0.62109377,0 1.00781247,-0.1875 v 3.55078121 c 0,0.234375 0,0.328125 -0.6914062,0.328125 H 0.80832813 V 1.015625e-4 C 0.93723438,-0.01161719 1.7927031,-0.02333594 2.0505156,-0.02333594 c 0.2109375,0 1.0898438,0.01171875 1.2421875,0.0234375025 V -0.24599219 H 3.0348906 c -0.703125,0 -0.703125,-0.09375 -0.703125,-0.328125 z m 0,0"
       style="fill:#000000;fill-opacity:1;fill-rule:nonzero;stroke:none"
       aria-label="1"
       transform="matrix(1.3333333,0,0,1.3333333,118.57067,100.10533)" />
    <path
       id="path9"
       d="m 3.5143281,-1.2641641 h -0.234375 c -0.023437,0.1523438 -0.082031,0.56250004 -0.1757812,0.63281254 -0.058594,0.0351563 -0.5976563,0.0351563 -0.6914063,0.0351563 H 1.1237031 c 0.7382813,-0.64453124 0.984375,-0.84374994 1.3945313,-1.17187494 0.515625,-0.4101564 0.9960937,-0.8437501 0.9960937,-1.5000001 0,-0.8437499 -0.7382812,-1.3593749 -1.6289062,-1.3593749 -0.8671875,0 -1.45312502,0.609375 -1.45312502,1.2421874 0,0.3632812 0.3046875,0.3984375 0.375,0.3984375 0.1640625,0 0.37500002,-0.1171875 0.37500002,-0.375 0,-0.1289063 -0.058594,-0.3632813 -0.42187502,-0.3632813 0.22265625,-0.5039061 0.69140622,-0.6562499 1.01953122,-0.6562499 0.703125,0 1.0664063,0.5507813 1.0664063,1.1132812 0,0.609375 -0.4335938,1.0898438 -0.65625,1.3359376 l -1.68750002,1.66406244 c -0.0703125,0.0585937 -0.0703125,0.0703125 -0.0703125,0.26953125 H 3.3151094 Z m 0,0"
       style="fill:#000000;fill-opacity:1;fill-rule:nonzero;stroke:none"
       aria-label="2"
       transform="matrix(1.3333333,0,0,1.3333333,73.962667,68.361333)" />
    <path
       id="path10"
       d="m 1.8971406,-2.3309141 c 0.5507813,0 0.9375,0.375 0.9375,1.125 0,0.86718754 -0.5039062,1.12500004 -0.9023437,1.12500004 -0.28125,0 -0.890625,-0.08203125 -1.18359377,-0.4921875 0.32812497,-0.0117188 0.39843747,-0.24609375 0.39843747,-0.38671875 0,-0.22265629 -0.16406247,-0.38671879 -0.38671872,-0.38671879 -0.1875,0 -0.38671875,0.1171875 -0.38671875,0.41015629 0,0.65625 0.72656247,1.078125 1.57031247,1.078125 0.9726563,0 1.640625,-0.64453125 1.640625,-1.34765629 0,-0.5390625 -0.4453125,-1.0898437 -1.21875,-1.2421875 0.7382813,-0.2695312 0.9960938,-0.796875 0.9960938,-1.21875 0,-0.5507812 -0.6328125,-0.9609375 -1.40625,-0.9609375 -0.7734375,0 -1.35937502,0.375 -1.35937502,0.9375 0,0.234375 0.15234375,0.3632813 0.36328125,0.3632813 0.21093747,0 0.35156247,-0.1640625 0.35156247,-0.3515625 0,-0.1992188 -0.140625,-0.3515625 -0.35156247,-0.3632813 0.23437497,-0.3046875 0.71484377,-0.3867187 0.97265627,-0.3867187 0.3164062,0 0.7617187,0.1523437 0.7617187,0.7617187 0,0.2929688 -0.1054687,0.609375 -0.28125,0.8320313 -0.234375,0.2578125 -0.421875,0.28125 -0.7734375,0.2929687 -0.1757812,0.023437 -0.1875,0.023437 -0.2226562,0.023437 -0.011719,0 -0.070312,0.011719 -0.070312,0.09375 0,0.09375 0.058594,0.09375 0.1757812,0.09375 z m 0,0"
       style="fill:#000000;fill-opacity:1;fill-rule:nonzero;stroke:none"
       aria-label="3"
       transform="matrix(1.3333333,0,0,1.3333333,73.962667,120.15867)" />
    <path
       id="path11"
       d="m 2.3315703,-4.4286953 c 0,-0.1875 -0.011719,-0.1992188 -0.2109375,-0.1992188 -0.4453125,0.4335938 -1.078125,0.4453125 -1.35937499,0.4453125 v 0.2460938 c 0.1640625,0 0.62109379,0 1.00781249,-0.1875 v 3.55078124 c 0,0.234375 0,0.328125 -0.6914062,0.328125 H 0.80813281 V 9.921875e-4 C 0.93703906,-0.01072656 1.7925078,-0.02244531 2.0503203,-0.02244531 c 0.2109375,0 1.0898438,0.01171875 1.2421875,0.0234374975 V -0.24510156 H 3.0346953 c -0.703125,0 -0.703125,-0.09375 -0.703125,-0.328125 z m 0,0"
       style="fill:#000000;fill-opacity:1;fill-rule:nonzero;stroke:none"
       aria-label="1"
       transform="matrix(1.3333333,0,0,1.3333333,134.13733,25.721333)" />
    <path
       id="path12"
       d="m 3.5151641,-1.2649766 h -0.234375 c -0.023437,0.1523438 -0.082031,0.56250004 -0.1757813,0.63281254 -0.058594,0.0351563 -0.5976562,0.0351563 -0.6914062,0.0351563 H 1.1245391 c 0.7382812,-0.64453134 0.984375,-0.84374994 1.3945312,-1.17187494 0.515625,-0.4101564 0.9960938,-0.8437501 0.9960938,-1.5000001 0,-0.8437499 -0.7382813,-1.3593749 -1.6289063,-1.3593749 -0.8671875,0 -1.45312499,0.609375 -1.45312499,1.2421875 0,0.3632812 0.3046875,0.3984375 0.375,0.3984375 0.1640625,0 0.37499999,-0.1171875 0.37499999,-0.375 0,-0.1289063 -0.058594,-0.3632813 -0.42187499,-0.3632813 0.22265625,-0.5039062 0.69140629,-0.65625 1.01953129,-0.65625 0.703125,0 1.0664062,0.5507812 1.0664062,1.1132812 0,0.609375 -0.4335937,1.0898437 -0.65625,1.3359375 l -1.68749999,1.66406254 c -0.0703125,0.0585938 -0.0703125,0.0703125 -0.0703125,0.2695312475 H 3.3159453 Z m 0,0"
       style="fill:#000000;fill-opacity:1;fill-rule:nonzero;stroke:none"
       aria-label="2"
       transform="matrix(1.3333333,0,0,1.3333333,134.13733,77.518667)" />
    <path
       id="path13"
       d="m 1.8990078,-2.3323984 c 0.5507813,0 0.9375,0.375 0.9375,1.125 0,0.86718746 -0.5039062,1.12499996 -0.9023437,1.12499996 -0.28125,0 -0.890625,-0.08203125 -1.18359379,-0.4921875 0.32812499,-0.0117188 0.39843749,-0.24609375 0.39843749,-0.38671875 0,-0.22265621 -0.16406249,-0.38671871 -0.38671874,-0.38671871 -0.1875,0 -0.38671875,0.1171875 -0.38671875,0.41015621 0,0.65625 0.72656249,1.078125 1.57031249,1.078125 0.9726563,0 1.640625,-0.64453125 1.640625,-1.34765621 0,-0.5390625 -0.4453125,-1.0898438 -1.21875,-1.2421875 0.7382813,-0.2695313 0.9960938,-0.796875 0.9960938,-1.21875 0,-0.5507813 -0.6328125,-0.9609375 -1.40625,-0.9609375 -0.7734375,0 -1.35937504,0.375 -1.35937504,0.9375 0,0.234375 0.15234375,0.3632812 0.36328125,0.3632812 0.21093749,0 0.35156249,-0.1640625 0.35156249,-0.3515625 0,-0.1992187 -0.140625,-0.3515625 -0.35156249,-0.3632812 0.23437499,-0.3046875 0.71484379,-0.3867188 0.97265629,-0.3867188 0.3164062,0 0.7617187,0.1523438 0.7617187,0.7617188 0,0.2929687 -0.1054687,0.609375 -0.28125,0.8320312 -0.234375,0.2578125 -0.421875,0.28125 -0.7734375,0.2929688 -0.1757812,0.023437 -0.1875,0.023437 -0.2226562,0.023437 -0.011719,0 -0.070312,0.011719 -0.070312,0.09375 0,0.09375 0.058594,0.09375 0.1757812,0.09375 z m 0,0"
       style="fill:#000000;fill-opacity:1;fill-rule:nonzero;stroke:none"
       aria-label="3"
       transform="matrix(1.3333333,0,0,1.3333333,178.74533,57.465333)" />
    <path
       id="path14"
       d="m 1.8971406,-2.3318906 c 0.5507813,0 0.9375,0.375 0.9375,1.125 0,0.86718748 -0.5039062,1.12499998 -0.9023437,1.12499998 -0.28125,0 -0.890625,-0.08203125 -1.18359377,-0.4921875 0.32812497,-0.0117188 0.39843747,-0.24609375 0.39843747,-0.38671875 0,-0.22265623 -0.16406247,-0.38671873 -0.38671872,-0.38671873 -0.1875,0 -0.38671875,0.1171875 -0.38671875,0.41015623 0,0.65625 0.72656247,1.078125 1.57031247,1.078125 0.9726563,0 1.640625,-0.64453125 1.640625,-1.34765623 0,-0.5390625 -0.4453125,-1.0898438 -1.21875,-1.2421875 0.7382813,-0.2695313 0.9960938,-0.796875 0.9960938,-1.21875 0,-0.5507813 -0.6328125,-0.9609375 -1.40625,-0.9609375 -0.7734375,0 -1.35937502,0.375 -1.35937502,0.9375 0,0.234375 0.15234375,0.3632812 0.36328125,0.3632812 0.21093747,0 0.35156247,-0.1640625 0.35156247,-0.3515625 0,-0.1992187 -0.140625,-0.3515625 -0.35156247,-0.3632812 0.23437497,-0.3046875 0.71484377,-0.3867188 0.97265627,-0.3867188 0.3164062,0 0.7617187,0.1523438 0.7617187,0.7617188 0,0.2929687 -0.1054687,0.609375 -0.28125,0.8320312 -0.234375,0.2578125 -0.421875,0.28125 -0.7734375,0.2929688 -0.1757812,0.023437 -0.1875,0.023437 -0.2226562,0.023437 -0.011719,0 -0.070312,0.011719 -0.070312,0.09375 0,0.09375 0.058594,0.09375 0.1757812,0.09375 z m 0,0"
       style="fill:#000000;fill-opacity:1;fill-rule:nonzero;stroke:none"
       aria-label="3"
       transform="matrix(1.3333333,0,0,1.3333333,73.962667,6.992)" />
    <path
       id="path15"
       d="m 2.3307344,-4.4288906 c 0,-0.1875 -0.011719,-0.1992188 -0.2109375,-0.1992188 -0.4453125,0.4335938 -1.078125,0.4453125 -1.35937502,0.4453125 v 0.2460938 c 0.1640625,0 0.62109372,0 1.00781252,-0.1875 v 3.55078123 c 0,0.234375 0,0.328125 -0.6914063,0.328125 H 0.80729688 V 7.96875e-4 C 0.93620313,-0.01092187 1.7916719,-0.02264062 2.0494844,-0.02264062 c 0.2109375,0 1.0898437,0.01171875 1.2421875,0.023437495 V -0.24529687 H 3.0338594 c -0.703125,0 -0.703125,-0.09375 -0.703125,-0.328125 z m 0,0"
       style="fill:#000000;fill-opacity:1;fill-rule:nonzero;stroke:none"
       aria-label="1"
       transform="matrix(1.3333333,0,0,1.3333333,73.962667,58.788)" />
    <path
       id="path16"
       d="M 3.5153594,-1.2668437 H 3.2809844 C 3.2575469,-1.1145 3.1989531,-0.70434375 3.1052031,-0.63403125 3.0466094,-0.598875 2.5075469,-0.598875 2.4137969,-0.598875 H 1.1247344 c 0.7382812,-0.6445312 0.984375,-0.84375 1.3945312,-1.171875 0.515625,-0.4101562 0.9960938,-0.84375 0.9960938,-1.5 0,-0.84375 -0.7382813,-1.359375 -1.6289063,-1.359375 -0.8671875,0 -1.45312497,0.609375 -1.45312497,1.2421875 0,0.3632813 0.3046875,0.3984375 0.375,0.3984375 0.1640625,0 0.37499997,-0.1171875 0.37499997,-0.375 0,-0.1289062 -0.058594,-0.3632812 -0.42187497,-0.3632812 0.22265625,-0.5039063 0.69140627,-0.65625 1.01953127,-0.65625 0.703125,0 1.0664062,0.5507812 1.0664062,1.1132812 0,0.609375 -0.4335937,1.0898438 -0.65625,1.3359375 L 0.50364063,-0.27075 c -0.0703125,0.0585938 -0.0703125,0.0703125 -0.0703125,0.26953125 H 3.3161406 Z m 0,0"
       style="fill:#000000;fill-opacity:1;fill-rule:nonzero;stroke:none"
       aria-label="2"
       transform="matrix(1.3333333,0,0,1.3333333,118.57067,38.736)" />
    <path
       id="path17"
       d="m 1.8998438,-2.3320781 c 0.5507812,0 0.9375,0.375 0.9375,1.125 0,0.86718748 -0.5039063,1.12499998 -0.9023438,1.12499998 -0.28125,0 -0.890625,-0.08203125 -1.18359375,-0.4921875 0.32812505,-0.0117188 0.39843755,-0.24609375 0.39843755,-0.38671875 0,-0.22265623 -0.16406255,-0.38671873 -0.3867188,-0.38671873 -0.1875,0 -0.38671875,0.1171875 -0.38671875,0.41015623 0,0.65625 0.72656255,1.078125 1.57031255,1.078125 0.9726562,0 1.640625,-0.64453125 1.640625,-1.34765623 0,-0.5390625 -0.4453125,-1.0898438 -1.21875,-1.2421875 0.7382812,-0.2695313 0.9960937,-0.796875 0.9960937,-1.21875 0,-0.5507813 -0.6328125,-0.9609375 -1.40625,-0.9609375 -0.7734375,0 -1.359375,0.375 -1.359375,0.9375 0,0.234375 0.15234375,0.3632812 0.36328125,0.3632812 0.21093755,0 0.35156255,-0.1640625 0.35156255,-0.3515625 0,-0.1992187 -0.140625,-0.3515625 -0.35156255,-0.3632812 C 1.1967188,-4.3477031 1.6771875,-4.4297344 1.935,-4.4297344 c 0.3164063,0 0.7617188,0.1523438 0.7617188,0.7617188 0,0.2929687 -0.1054688,0.609375 -0.28125,0.8320312 -0.234375,0.2578125 -0.421875,0.28125 -0.7734375,0.2929688 -0.1757813,0.023437 -0.1875,0.023437 -0.2226563,0.023437 -0.011719,0 -0.070312,0.011719 -0.070312,0.09375 0,0.09375 0.058594,0.09375 0.1757813,0.09375 z m 0,0"
       style="fill:#000000;fill-opacity:1;fill-rule:nonzero;stroke:none"
       aria-label="3"
       transform="matrix(1.3333333,0,0,1.3333333,5.42,101.836)" />
    <path
       id="path18"
       d="m 3.5170313,-1.2650156 h -0.234375 c -0.023437,0.1523437 -0.082031,0.56249998 -0.1757813,0.63281248 -0.058594,0.0351563 -0.5976562,0.0351563 -0.6914062,0.0351563 H 1.1264063 C 1.8646875,-1.241578 2.1107813,-1.4407968 2.5209375,-1.7689218 c 0.515625,-0.4101562 0.9960938,-0.8437501 0.9960938,-1.5000001 0,-0.8437499 -0.7382813,-1.3593749 -1.6289063,-1.3593749 -0.8671875,0 -1.453125,0.609375 -1.453125,1.2421874 0,0.3632814 0.3046875,0.3984375 0.375,0.3984375 0.1640625,0 0.375,-0.1171875 0.375,-0.375 0,-0.1289061 -0.058594,-0.3632811 -0.421875,-0.3632811 0.22265625,-0.5039063 0.6914063,-0.65625 1.0195313,-0.65625 0.703125,0 1.0664062,0.5507812 1.0664062,1.1132812 0,0.609375 -0.4335937,1.0898438 -0.65625,1.3359375 l -1.6875,1.66406248 C 0.435,-0.21032812 0.435,-0.19860937 0.435,6.09375e-4 h 2.8828125 z m 0,0"
       style="fill:#000000;fill-opacity:1;fill-rule:nonzero;stroke:none"
       aria-label="2"
       transform="matrix(1.3333333,0,0,1.3333333,5.42,153.632)" />
    <path
       id="path19"
       d="m 2.3315391,-4.4310937 c 0,-0.1875 -0.011719,-0.1992188 -0.2109375,-0.1992188 C 1.6752891,-4.1967187 1.0424766,-4.185 0.76122656,-4.185 v 0.2460938 c 0.1640625,0 0.62109374,0 1.00781254,-0.1875 v 3.5507812 c 0,0.234375 0,0.328125 -0.6914063,0.328125 H 0.80810156 v 0.24609375 c 0.12890625,-0.01171875 0.98437504,-0.0234375 1.24218754,-0.0234375 0.2109375,0 1.0898437,0.01171875 1.2421875,0.0234375 V -0.2475 H 3.0346641 c -0.703125,0 -0.703125,-0.09375 -0.703125,-0.328125 z m 0,0"
       style="fill:#000000;fill-opacity:1;fill-rule:nonzero;stroke:none"
       aria-label="1"
       transform="matrix(1.3333333,0,0,1.3333333,50.028,133.58)" />
    <path
       id="path20"
       d="m 2.3315703,-4.4295625 c 0,-0.1875 -0.011719,-0.1992187 -0.2109375,-0.1992187 -0.4453125,0.4335937 -1.078125,0.4453125 -1.35937499,0.4453125 v 0.2460937 c 0.1640625,0 0.62109379,0 1.00781249,-0.1875 v 3.55078125 c 0,0.234375 0,0.328125 -0.6914062,0.328125 H 0.80813281 V 1.25e-4 c 0.12890625,-0.01171875 0.98437499,-0.0234375 1.24218749,-0.0234375 0.2109375,0 1.0898438,0.01171875 1.2421875,0.0234375 V -0.24596875 H 3.0346953 c -0.703125,0 -0.703125,-0.09375 -0.703125,-0.328125 z m 0,0"
       style="fill:#000000;fill-opacity:1;fill-rule:nonzero;stroke:none"
       aria-label="1"
       transform="matrix(1.3333333,0,0,1.3333333,134.13733,101.43733)" />
    <path
       id="path21"
       d="m 1.8979766,-2.33125 c 0.5507812,0 0.9375,0.375 0.9375,1.125 0,0.8671875 -0.5039063,1.125 -0.9023438,1.125 -0.28125,0 -0.890625,-0.08203125 -1.18359374,-0.4921875 0.32812504,-0.0117188 0.39843754,-0.24609375 0.39843754,-0.38671875 0,-0.22265625 -0.16406254,-0.38671875 -0.38671879,-0.38671875 -0.1875,0 -0.38671875,0.1171875 -0.38671875,0.41015625 0,0.65625 0.72656254,1.078125 1.57031254,1.078125 0.9726562,0 1.640625,-0.64453125 1.640625,-1.34765625 0,-0.5390625 -0.4453125,-1.0898437 -1.21875,-1.2421875 0.7382812,-0.2695312 0.9960937,-0.796875 0.9960937,-1.21875 0,-0.5507812 -0.6328125,-0.9609375 -1.40625,-0.9609375 -0.7734375,0 -1.35937499,0.375 -1.35937499,0.9375 0,0.234375 0.15234375,0.3632813 0.36328125,0.3632813 0.21093754,0 0.35156254,-0.1640625 0.35156254,-0.3515625 0,-0.1992188 -0.140625,-0.3515625 -0.35156254,-0.3632813 0.23437504,-0.3046875 0.71484374,-0.3867187 0.97265624,-0.3867187 0.3164063,0 0.7617188,0.1523437 0.7617188,0.7617187 0,0.2929688 -0.1054688,0.609375 -0.28125,0.8320313 -0.234375,0.2578125 -0.421875,0.28125 -0.7734375,0.2929687 -0.1757813,0.023437 -0.1875,0.023437 -0.2226563,0.023437 -0.011719,0 -0.070312,0.011719 -0.070312,0.09375 0,0.09375 0.058594,0.09375 0.1757813,0.09375 z m 0,0"
       style="fill:#000000;fill-opacity:1;fill-rule:nonzero;stroke:none"
       aria-label="3"
       transform="matrix(1.3333333,0,0,1.3333333,134.13733,153.23333)" />
    <path
       id="path22"
       d="m 3.5161953,-1.2668594 h -0.234375 c -0.023437,0.1523438 -0.082031,0.56250003 -0.1757812,0.63281253 -0.058594,0.0351563 -0.5976563,0.0351563 -0.6914063,0.0351563 H 1.1255703 c 0.7382813,-0.64453123 0.984375,-0.84374993 1.3945313,-1.17187493 0.515625,-0.4101563 0.9960937,-0.84375 0.9960937,-1.5 0,-0.84375 -0.7382812,-1.359375 -1.6289062,-1.359375 -0.8671875,0 -1.45312504,0.609375 -1.45312504,1.2421874 0,0.3632812 0.3046875,0.3984375 0.375,0.3984375 0.1640625,0 0.37500004,-0.1171875 0.37500004,-0.375 0,-0.1289063 -0.058594,-0.3632813 -0.42187504,-0.3632813 0.22265625,-0.5039061 0.69140624,-0.65625 1.01953124,-0.65625 0.703125,0 1.0664063,0.5507813 1.0664063,1.1132813 0,0.609375 -0.4335938,1.0898437 -0.65625,1.3359375 l -1.68750004,1.66406253 c -0.0703125,0.0585937 -0.0703125,0.0703125 -0.0703125,0.26953125 H 3.3169766 Z m 0,0"
       style="fill:#000000;fill-opacity:1;fill-rule:nonzero;stroke:none"
       aria-label="2"
       transform="matrix(1.3333333,0,0,1.3333333,178.74533,133.18133)" />
    <path
       id="path23"
       d="m 3.5143281,-1.2670391 h -0.234375 c -0.023437,0.1523438 -0.082031,0.56250004 -0.1757812,0.63281254 -0.058594,0.0351563 -0.5976563,0.0351563 -0.6914063,0.0351563 H 1.1237031 c 0.7382813,-0.64453134 0.984375,-0.84374994 1.3945313,-1.17187494 0.515625,-0.4101564 0.9960937,-0.8437501 0.9960937,-1.5000001 0,-0.84375 -0.7382812,-1.359375 -1.6289062,-1.359375 -0.8671875,0 -1.45312502,0.609375 -1.45312502,1.2421875 0,0.3632812 0.3046875,0.3984375 0.375,0.3984375 0.1640625,0 0.37500002,-0.1171875 0.37500002,-0.375 0,-0.1289063 -0.058594,-0.3632813 -0.42187502,-0.3632813 0.22265625,-0.5039062 0.69140622,-0.65625 1.01953122,-0.65625 0.703125,0 1.0664063,0.5507813 1.0664063,1.1132813 0,0.609375 -0.4335938,1.0898437 -0.65625,1.3359375 l -1.68750002,1.66406254 c -0.0703125,0.0585938 -0.0703125,0.0703125 -0.0703125,0.26953125 H 3.3151094 Z m 0,0"
       style="fill:#000000;fill-opacity:1;fill-rule:nonzero;stroke:none"
       aria-label="2"
       transform="matrix(1.3333333,0,0,1.3333333,73.962667,137.30267)" />
    <path
       id="path24"
       d="m 2.3307344,-4.4285156 c 0,-0.1875 -0.011719,-0.1992188 -0.2109375,-0.1992188 -0.4453125,0.4335938 -1.078125,0.4453125 -1.35937502,0.4453125 v 0.2460938 c 0.1640625,0 0.62109372,0 1.00781252,-0.1875 v 3.55078123 c 0,0.234375 0,0.328125 -0.6914063,0.328125 H 0.80729688 v 0.24609375 c 0.12890625,-0.01171875 0.98437502,-0.0234375 1.24218752,-0.0234375 0.2109375,0 1.0898437,0.01171875 1.2421875,0.0234375 V -0.24492187 H 3.0338594 c -0.703125,0 -0.703125,-0.09375 -0.703125,-0.328125 z m 0,0"
       style="fill:#000000;fill-opacity:1;fill-rule:nonzero;stroke:none"
       aria-label="1"
       transform="matrix(1.3333333,0,0,1.3333333,73.962667,189.1)" />
    <path
       id="path25"
       d="m 1.8981719,-2.331875 c 0.5507812,0 0.9375,0.375 0.9375,1.125 0,0.8671875 -0.5039063,1.125 -0.9023438,1.125 -0.28125,0 -0.890625,-0.08203125 -1.18359372,-0.4921875 C 1.0778594,-0.58578125 1.1481719,-0.82015625 1.1481719,-0.96078125 1.1481719,-1.1834375 0.98410938,-1.3475 0.76145313,-1.3475 c -0.1875,0 -0.38671875,0.1171875 -0.38671875,0.41015625 0,0.65625 0.72656252,1.078125 1.57031252,1.078125 0.9726562,0 1.640625,-0.64453125 1.640625,-1.34765625 0,-0.5390625 -0.4453125,-1.0898437 -1.21875,-1.2421875 0.7382812,-0.2695312 0.9960937,-0.796875 0.9960937,-1.21875 0,-0.5507812 -0.6328125,-0.9609375 -1.40625,-0.9609375 -0.7734375,0 -1.35937497,0.375 -1.35937497,0.9375 0,0.234375 0.15234375,0.3632813 0.36328125,0.3632813 0.21093752,0 0.35156252,-0.1640625 0.35156252,-0.3515625 0,-0.1992188 -0.140625,-0.3515625 -0.35156252,-0.3632813 C 1.1950469,-4.3475 1.6755156,-4.4295312 1.9333281,-4.4295312 c 0.3164063,0 0.7617188,0.1523437 0.7617188,0.7617187 0,0.2929688 -0.1054688,0.609375 -0.28125,0.8320313 -0.234375,0.2578125 -0.421875,0.28125 -0.7734375,0.2929687 -0.1757813,0.023437 -0.1875,0.023437 -0.2226563,0.023437 -0.011719,0 -0.070312,0.011719 -0.070312,0.09375 0,0.09375 0.058594,0.09375 0.1757813,0.09375 z m 0,0"
       style="fill:#000000;fill-opacity:1;fill-rule:nonzero;stroke:none"
       aria-label="3"
       transform="matrix(1.3333333,0,0,1.3333333,118.57067,169.04667)" />
    <path
       id="path26"
       d="m 3.5170313,-1.2666172 h -0.234375 c -0.023437,0.1523438 -0.082031,0.56250001 -0.1757813,0.63281251 -0.058594,0.0351563 -0.5976562,0.0351563 -0.6914062,0.0351563 H 1.1264063 c 0.7382812,-0.64453121 0.984375,-0.84374991 1.3945312,-1.17187491 0.515625,-0.4101564 0.9960938,-0.8437501 0.9960938,-1.5000001 0,-0.8437499 -0.7382813,-1.3593749 -1.6289063,-1.3593749 -0.8671875,0 -1.453125,0.609375 -1.453125,1.2421875 0,0.3632812 0.3046875,0.3984375 0.375,0.3984375 0.1640625,0 0.375,-0.1171875 0.375,-0.375 0,-0.1289063 -0.058594,-0.3632813 -0.421875,-0.3632813 0.22265625,-0.5039062 0.6914063,-0.65625 1.0195313,-0.65625 0.703125,0 1.0664062,0.5507812 1.0664062,1.1132812 0,0.609375 -0.4335937,1.0898437 -0.65625,1.3359375 l -1.6875,1.66406251 C 0.435,-0.21192969 0.435,-0.20021094 0.435,-9.921875e-4 h 2.8828125 z m 0,0"
       style="fill:#000000;fill-opacity:1;fill-rule:nonzero;stroke:none"
       aria-label="2"
       transform="matrix(1.3333333,0,0,1.3333333,5.42,33.778667)" />
    <path
       id="path27"
       d="m 1.8998438,-2.3333672 c 0.5507812,0 0.9375,0.375 0.9375,1.125 0,0.86718751 -0.5039063,1.12500001 -0.9023438,1.12500001 -0.28125,0 -0.890625,-0.08203125 -1.18359375,-0.4921875 0.32812505,-0.0117188 0.39843755,-0.24609375 0.39843755,-0.38671875 0,-0.22265626 -0.16406255,-0.38671876 -0.3867188,-0.38671876 -0.1875,0 -0.38671875,0.1171875 -0.38671875,0.41015626 0,0.65625 0.72656255,1.078125 1.57031255,1.078125 0.9726562,0 1.640625,-0.64453125 1.640625,-1.34765626 0,-0.5390625 -0.4453125,-1.0898437 -1.21875,-1.2421875 0.7382812,-0.2695312 0.9960937,-0.796875 0.9960937,-1.21875 0,-0.5507812 -0.6328125,-0.9609375 -1.40625,-0.9609375 -0.7734375,0 -1.359375,0.375 -1.359375,0.9375 0,0.234375 0.15234375,0.3632813 0.36328125,0.3632813 0.21093755,0 0.35156255,-0.1640625 0.35156255,-0.3515625 0,-0.1992188 -0.140625,-0.3515625 -0.35156255,-0.3632813 C 1.1967188,-4.3489922 1.6771875,-4.4310234 1.935,-4.4310234 c 0.3164063,0 0.7617188,0.1523437 0.7617188,0.7617187 0,0.2929688 -0.1054688,0.609375 -0.28125,0.8320313 -0.234375,0.2578125 -0.421875,0.28125 -0.7734375,0.2929687 -0.1757813,0.023437 -0.1875,0.023437 -0.2226563,0.023437 -0.011719,0 -0.070312,0.011719 -0.070312,0.09375 0,0.09375 0.058594,0.09375 0.1757813,0.09375 z m 0,0"
       style="fill:#000000;fill-opacity:1;fill-rule:nonzero;stroke:none"
       aria-label="3"
       transform="matrix(1.3333333,0,0,1.3333333,5.42,85.576)" />
    <path
       id="path28"
       d="m 2.3315391,-4.4291094 c 0,-0.1875 -0.011719,-0.1992187 -0.2109375,-0.1992187 -0.4453125,0.4335937 -1.078125,0.4453125 -1.35937504,0.4453125 v 0.2460937 c 0.1640625,0 0.62109374,0 1.00781254,-0.1875 v 3.55078128 c 0,0.234375 0,0.328125 -0.6914063,0.328125 H 0.80810156 V 5.78125e-4 C 0.93700781,-0.01114062 1.7924766,-0.02285937 2.0502891,-0.02285937 c 0.2109375,0 1.0898437,0.01171875 1.2421875,0.023437495 V -0.24551562 H 3.0346641 c -0.703125,0 -0.703125,-0.09375 -0.703125,-0.328125 z m 0,0"
       style="fill:#000000;fill-opacity:1;fill-rule:nonzero;stroke:none"
       aria-label="1"
       transform="matrix(1.3333333,0,0,1.3333333,50.028,65.522667)" />
  </g>
</svg>
