<?xml version="1.0" encoding="UTF-8" standalone="no"?>
<!-- Created with Inkscape (http://www.inkscape.org/) -->

<svg
   version="1.1"
   id="svg1"
   width="231.42667"
   height="186.21333"
   viewBox="0 0 231.42667 186.21333"
   sodipodi:docname="D3inSO(3).pdf"
   xmlns:inkscape="http://www.inkscape.org/namespaces/inkscape"
   xmlns:sodipodi="http://sodipodi.sourceforge.net/DTD/sodipodi-0.dtd"
   xmlns="http://www.w3.org/2000/svg"
   xmlns:svg="http://www.w3.org/2000/svg">
  <defs
     id="defs1" />
  <sodipodi:namedview
     id="namedview1"
     pagecolor="#ffffff"
     bordercolor="#000000"
     borderopacity="0.25"
     inkscape:showpageshadow="2"
     inkscape:pageopacity="0.0"
     inkscape:pagecheckerboard="0"
     inkscape:deskcolor="#d1d1d1">
    <inkscape:page
       x="0"
       y="0"
       inkscape:label="1"
       id="page1"
       width="231.42667"
       height="186.21333"
       margin="0"
       bleed="0" />
  </sodipodi:namedview>
  <g
     id="g1"
     inkscape:groupmode="layer"
     inkscape:label="1">
    <path
       id="path1"
       d="m 47.5969,-70.91939 c 0,27.61144 22.38624,49.99767 49.99767,49.99767 27.61147,0 49.9977,-22.38623 49.9977,-49.99767 0,-27.61145 -22.38623,-49.99768 -49.9977,-49.99768 -27.61143,0 -49.99767,22.38623 -49.99767,49.99768 z"
       style="fill:#f5a623;fill-opacity:0.1;fill-rule:nonzero;stroke:#f5a623;stroke-width:1.49442;stroke-linecap:butt;stroke-linejoin:miter;stroke-miterlimit:10;stroke-dasharray:none;stroke-opacity:1"
       transform="matrix(1.3333333,0,0,-1.3333333,-12.198667,-9.924)" />
    <path
       id="path2"
       d="m 47.5969,-70.91939 c 0,5.77963 22.38624,10.46088 49.99767,10.46088 27.61147,0 49.9977,-4.68125 49.9977,-10.46088 0,-5.7744 -22.38623,-10.46086 -49.9977,-10.46086 -27.61143,0 -49.99767,4.68646 -49.99767,10.46086 z"
       style="fill:#f5a623;fill-opacity:0.1;fill-rule:nonzero;stroke:#f5a623;stroke-width:0.74721;stroke-linecap:butt;stroke-linejoin:miter;stroke-miterlimit:10;stroke-dasharray:4.48325, 4.48325;stroke-dashoffset:0;stroke-opacity:1"
       transform="matrix(1.3333333,0,0,-1.3333333,-12.198667,-9.924)" />
    <path
       id="path3"
       d="m 76.93962,-61.43663 c 0,0.7218 0.58582,1.30762 1.3076,1.30762 0.72179,0 1.30762,-0.58582 1.30762,-1.30762 0,-0.72179 -0.58583,-1.3076 -1.30762,-1.3076 -0.72178,0 -1.3076,0.58581 -1.3076,1.3076 z"
       style="fill:#4a90e2;fill-opacity:1;fill-rule:nonzero;stroke:#4a90e2;stroke-width:0.74721;stroke-linecap:butt;stroke-linejoin:miter;stroke-miterlimit:10;stroke-dasharray:none;stroke-opacity:1"
       transform="matrix(1.3333333,0,0,-1.3333333,-12.198667,-9.924)" />
    <path
       id="path4"
       d="m 138.66393,-76.44795 c 0,0.7218 0.58581,1.3076 1.30761,1.3076 0.72179,0 1.3076,-0.5858 1.3076,-1.3076 0,-0.7218 -0.58581,-1.3076 -1.3076,-1.3076 -0.7218,0 -1.30761,0.5858 -1.30761,1.3076 z"
       style="fill:#4a90e2;fill-opacity:1;fill-rule:nonzero;stroke:#4a90e2;stroke-width:0.74721;stroke-linecap:butt;stroke-linejoin:miter;stroke-miterlimit:10;stroke-dasharray:none;stroke-opacity:1"
       transform="matrix(1.3333333,0,0,-1.3333333,-12.198667,-9.924)" />
    <path
       id="path5"
       d="m 60.65205,-78.47214 c 0,0.7218 0.58582,1.30762 1.30762,1.30762 0.72179,0 1.30762,-0.58582 1.30762,-1.30762 0,-0.7218 -0.58583,-1.30758 -1.30762,-1.30758 -0.7218,0 -1.30762,0.58578 -1.30762,1.30758 z"
       style="fill:#4a90e2;fill-opacity:1;fill-rule:nonzero;stroke:#4a90e2;stroke-width:0.74721;stroke-linecap:butt;stroke-linejoin:miter;stroke-miterlimit:10;stroke-dasharray:none;stroke-opacity:1"
       transform="matrix(1.3333333,0,0,-1.3333333,-12.198667,-9.924)" />
    <path
       id="path6"
       d="m 78.24722,-61.43663 61.72432,-15.01132 -78.01187,-2.02419 z"
       style="fill:#4a90e2;fill-opacity:0.1;fill-rule:nonzero;stroke:#4a90e2;stroke-width:0.74721;stroke-linecap:butt;stroke-linejoin:miter;stroke-miterlimit:10;stroke-dasharray:none;stroke-opacity:1"
       transform="matrix(1.3333333,0,0,-1.3333333,-12.198667,-9.924)" />
    <path
       id="path7"
       d="m 78.24722,-61.43663 19.34735,-9.48276"
       style="fill:none;stroke:#9b9b9b;stroke-width:0.74721;stroke-linecap:butt;stroke-linejoin:miter;stroke-miterlimit:10;stroke-dasharray:none;stroke-opacity:1"
       transform="matrix(1.3333333,0,0,-1.3333333,-12.198667,-9.924)" />
    <path
       id="path8"
       d="m 97.59457,-70.91939 19.34739,-9.48277"
       style="fill:none;stroke:#9b9b9b;stroke-width:0.74721;stroke-linecap:butt;stroke-linejoin:miter;stroke-miterlimit:10;stroke-dasharray:none;stroke-opacity:1"
       transform="matrix(1.3333333,0,0,-1.3333333,-12.198667,-9.924)" />
    <path
       id="path9"
       d="m 116.94196,-80.40216 19.34213,-9.48277"
       style="fill:none;stroke:#9b9b9b;stroke-width:0.74721;stroke-linecap:butt;stroke-linejoin:miter;stroke-miterlimit:10;stroke-dasharray:none;stroke-opacity:1"
       transform="matrix(1.3333333,0,0,-1.3333333,-12.198667,-9.924)" />
    <path
       id="path10"
       d="m 58.89986,-51.95384 19.34736,-9.48279"
       style="fill:none;stroke:#9b9b9b;stroke-width:0.74721;stroke-linecap:butt;stroke-linejoin:miter;stroke-miterlimit:10;stroke-dasharray:none;stroke-opacity:1"
       transform="matrix(1.3333333,0,0,-1.3333333,-12.198667,-9.924)" />
    <path
       id="path11"
       d="m 96.28699,-70.91939 c 0,0.7218 0.5858,1.3076 1.30758,1.3076 0.72182,0 1.30762,-0.5858 1.30762,-1.3076 0,-0.7218 -0.5858,-1.3076 -1.30762,-1.3076 -0.72178,0 -1.30758,0.5858 -1.30758,1.3076 z"
       style="fill:#000000;fill-opacity:1;fill-rule:nonzero;stroke:#000000;stroke-width:0.74721;stroke-linecap:butt;stroke-linejoin:miter;stroke-miterlimit:10;stroke-dasharray:none;stroke-opacity:1"
       transform="matrix(1.3333333,0,0,-1.3333333,-12.198667,-9.924)" />
    <path
       id="path12"
       d="m 61.95967,-78.47214 35.6349,7.55275"
       style="fill:none;stroke:#9b9b9b;stroke-width:0.74721;stroke-linecap:butt;stroke-linejoin:miter;stroke-miterlimit:10;stroke-dasharray:none;stroke-opacity:1"
       transform="matrix(1.3333333,0,0,-1.3333333,-12.198667,-9.924)" />
    <path
       id="path13"
       d="m 97.59457,-70.91939 35.63493,7.55275"
       style="fill:none;stroke:#9b9b9b;stroke-width:0.74721;stroke-linecap:butt;stroke-linejoin:miter;stroke-miterlimit:10;stroke-dasharray:none;stroke-opacity:1"
       transform="matrix(1.3333333,0,0,-1.3333333,-12.198667,-9.924)" />
    <path
       id="path14"
       d="m 26.32474,-86.02487 35.63493,7.55273"
       style="fill:none;stroke:#9b9b9b;stroke-width:0.74721;stroke-linecap:butt;stroke-linejoin:miter;stroke-miterlimit:10;stroke-dasharray:none;stroke-opacity:1"
       transform="matrix(1.3333333,0,0,-1.3333333,-12.198667,-9.924)" />
    <path
       id="path15"
       d="m 133.2295,-63.36664 35.63494,7.55797"
       style="fill:none;stroke:#9b9b9b;stroke-width:0.74721;stroke-linecap:butt;stroke-linejoin:miter;stroke-miterlimit:10;stroke-dasharray:none;stroke-opacity:1"
       transform="matrix(1.3333333,0,0,-1.3333333,-12.198667,-9.924)" />
    <path
       id="path16"
       d="m 139.97154,-76.44795 -42.37697,5.52856"
       style="fill:none;stroke:#9b9b9b;stroke-width:0.74721;stroke-linecap:butt;stroke-linejoin:miter;stroke-miterlimit:10;stroke-dasharray:none;stroke-opacity:1"
       transform="matrix(1.3333333,0,0,-1.3333333,-12.198667,-9.924)" />
    <path
       id="path17"
       d="m 97.59457,-70.91939 -42.37692,5.52855"
       style="fill:none;stroke:#9b9b9b;stroke-width:0.74721;stroke-linecap:butt;stroke-linejoin:miter;stroke-miterlimit:10;stroke-dasharray:none;stroke-opacity:1"
       transform="matrix(1.3333333,0,0,-1.3333333,-12.198667,-9.924)" />
    <path
       id="path18"
       d="m 182.3485,-81.9765 -42.37696,5.52855"
       style="fill:none;stroke:#9b9b9b;stroke-width:0.74721;stroke-linecap:butt;stroke-linejoin:miter;stroke-miterlimit:10;stroke-dasharray:none;stroke-opacity:1"
       transform="matrix(1.3333333,0,0,-1.3333333,-12.198667,-9.924)" />
    <path
       id="path19"
       d="M 55.21765,-65.39084 12.8407,-59.86227"
       style="fill:none;stroke:#9b9b9b;stroke-width:0.74721;stroke-linecap:butt;stroke-linejoin:miter;stroke-miterlimit:10;stroke-dasharray:none;stroke-opacity:1"
       transform="matrix(1.3333333,0,0,-1.3333333,-12.198667,-9.924)" />
    <path
       id="path20"
       d="m 131.9219,-63.36664 c 0,0.72179 0.5858,1.30759 1.3076,1.30759 0.72181,0 1.30762,-0.5858 1.30762,-1.30759 0,-0.7218 -0.58581,-1.30762 -1.30762,-1.30762 -0.7218,0 -1.3076,0.58582 -1.3076,1.30762 z"
       style="fill:#9013fe;fill-opacity:1;fill-rule:nonzero;stroke:#9013fe;stroke-width:0.74721;stroke-linecap:butt;stroke-linejoin:miter;stroke-miterlimit:10;stroke-dasharray:none;stroke-opacity:1"
       transform="matrix(1.3333333,0,0,-1.3333333,-12.198667,-9.924)" />
    <path
       id="path21"
       d="m 115.63434,-80.40216 c 0,0.7218 0.58581,1.30762 1.30762,1.30762 0.7218,0 1.3076,-0.58582 1.3076,-1.30762 0,-0.7218 -0.5858,-1.30762 -1.3076,-1.30762 -0.72181,0 -1.30762,0.58582 -1.30762,1.30762 z"
       style="fill:#9013fe;fill-opacity:1;fill-rule:nonzero;stroke:#9013fe;stroke-width:0.74721;stroke-linecap:butt;stroke-linejoin:miter;stroke-miterlimit:10;stroke-dasharray:none;stroke-opacity:1"
       transform="matrix(1.3333333,0,0,-1.3333333,-12.198667,-9.924)" />
    <path
       id="path22"
       d="m 53.91003,-65.39084 c 0,0.72182 0.58582,1.30762 1.30762,1.30762 0.72179,0 1.3076,-0.5858 1.3076,-1.30762 0,-0.72179 -0.58581,-1.30759 -1.3076,-1.30759 -0.7218,0 -1.30762,0.5858 -1.30762,1.30759 z"
       style="fill:#9013fe;fill-opacity:1;fill-rule:nonzero;stroke:#9013fe;stroke-width:0.74721;stroke-linecap:butt;stroke-linejoin:miter;stroke-miterlimit:10;stroke-dasharray:none;stroke-opacity:1"
       transform="matrix(1.3333333,0,0,-1.3333333,-12.198667,-9.924)" />
    <path
       id="path23"
       d="M 97.59457,-7.81425 V -70.91939"
       style="fill:none;stroke:#9b9b9b;stroke-width:0.74721;stroke-linecap:butt;stroke-linejoin:miter;stroke-miterlimit:10;stroke-dasharray:none;stroke-opacity:1"
       transform="matrix(1.3333333,0,0,-1.3333333,-12.198667,-9.924)" />
    <path
       id="path24"
       d="m 97.59457,-70.91939 v -63.10515"
       style="fill:none;stroke:#9b9b9b;stroke-width:0.74721;stroke-linecap:butt;stroke-linejoin:miter;stroke-miterlimit:10;stroke-dasharray:none;stroke-opacity:1"
       transform="matrix(1.3333333,0,0,-1.3333333,-12.198667,-9.924)" />
    <path
       id="path25"
       d="m 96.28175,-24.43655 c 0,0.72181 0.5858,1.3076 1.30762,1.3076 0.72179,0 1.30759,-0.58579 1.30759,-1.3076 0,-0.72181 -0.5858,-1.30761 -1.30759,-1.30761 -0.72182,0 -1.30762,0.5858 -1.30762,1.30761 z"
       style="fill:#417505;fill-opacity:1;fill-rule:nonzero;stroke:#417505;stroke-width:0.74721;stroke-linecap:butt;stroke-linejoin:miter;stroke-miterlimit:10;stroke-dasharray:none;stroke-opacity:1"
       transform="matrix(1.3333333,0,0,-1.3333333,-12.198667,-9.924)" />
    <path
       id="path26"
       d="m 96.28175,-117.14594 c 0,0.72181 0.5858,1.30762 1.30762,1.30762 0.72179,0 1.30759,-0.58581 1.30759,-1.30762 0,-0.7218 -0.5858,-1.30761 -1.30759,-1.30761 -0.72182,0 -1.30762,0.58581 -1.30762,1.30761 z"
       style="fill:#417505;fill-opacity:1;fill-rule:nonzero;stroke:#417505;stroke-width:0.74721;stroke-linecap:butt;stroke-linejoin:miter;stroke-miterlimit:10;stroke-dasharray:none;stroke-opacity:1"
       transform="matrix(1.3333333,0,0,-1.3333333,-12.198667,-9.924)" />
    <g
       id="g26"
       aria-label="n=3"
       transform="matrix(1.3333333,0,0,1.3333333,105.06267,185.21867)">
      <path
         id="path27"
         d="m 0.87878125,-0.585875 c -0.0351563,0.15234375 -0.09375,0.375 -0.09375,0.421875 0,0.1875 0.140625,0.26953125 0.29296875,0.26953125 0.1171875,0 0.2929688,-0.0703125 0.3632813,-0.26953125 0.011719,-0.0234375 0.1289062,-0.4921875 0.1875,-0.73828125 L 1.8514375,-1.804625 c 0.058594,-0.2226562 0.1171875,-0.4335937 0.1757813,-0.6679687 0.035156,-0.1640625 0.1171875,-0.4570313 0.1289062,-0.4921875 0.140625,-0.3164063 0.6679688,-1.21875 1.6171875,-1.21875 0.4453125,0 0.5390625,0.3632812 0.5390625,0.6914062 0,0.6210938 -0.4921875,1.8984375 -0.6445312,2.3320313 -0.09375,0.2226562 -0.1054688,0.3398437 -0.1054688,0.4570312 0,0.46875 0.3515625,0.80859375 0.8203125,0.80859375 0.9375,0 1.3007813,-1.45312495 1.3007813,-1.53515625 0,-0.09375 -0.082031,-0.09375 -0.1171875,-0.09375 -0.09375,0 -0.09375,0.023437 -0.1523438,0.1757813 -0.1992187,0.67968745 -0.5273437,1.24218745 -1.0078125,1.24218745 -0.1757812,0 -0.2460937,-0.10546875 -0.2460937,-0.328125 0,-0.2578125 0.09375,-0.4921875 0.1875,-0.71484375 0.1875,-0.5273437 0.5976562,-1.6171875 0.5976562,-2.1914062 0,-0.6679688 -0.421875,-1.0664063 -1.1367187,-1.0664063 -0.9023438,0 -1.3828125,0.6445313 -1.5585938,0.8671875 C 2.203,-4.0897812 1.7928438,-4.4061875 1.3358125,-4.4061875 c -0.45703125,0 -0.64453125,0.3867188 -0.75,0.5742188 -0.15234375,0.3398437 -0.29296875,0.9257812 -0.29296875,0.9609375 0,0.1054687 0.09375,0.1054687 0.1171875,0.1054687 0.09375,0 0.10546875,-0.011719 0.1640625,-0.234375 0.17578125,-0.703125 0.375,-1.1835937 0.72656255,-1.1835937 0.1992187,0 0.3164062,0.1289062 0.3164062,0.4570312 0,0.2109375 -0.035156,0.3164063 -0.1640625,0.8320313 z m 0,0"
         style="fill:#000000;fill-opacity:1;fill-rule:nonzero;stroke:none" />
      <path
         id="path28"
         d="m 15.591672,-3.25775 c 0.152344,0 0.339844,0 0.339844,-0.1992187 0,-0.1992188 -0.1875,-0.1992188 -0.328125,-0.1992188 H 9.6385469 c -0.140625,0 -0.328125,0 -0.328125,0.1992188 0,0.1992187 0.1875,0.1992187 0.3398437,0.1992187 z m 0.01172,1.9335938 c 0.140625,0 0.328125,0 0.328125,-0.1992188 0,-0.1992187 -0.1875,-0.1992187 -0.339844,-0.1992187 H 9.6502656 c -0.1523437,0 -0.3398437,0 -0.3398437,0.1992187 0,0.1992188 0.1875,0.1992188 0.328125,0.1992188 z m 6.539062,-2.1796875 c 0.808594,-0.2695313 1.394531,-0.9726563 1.394531,-1.7578125 0,-0.8203125 -0.878906,-1.3710938 -1.839843,-1.3710938 -1.007813,0 -1.757813,0.5976563 -1.757813,1.3476563 0,0.3398437 0.210938,0.5273437 0.503906,0.5273437 0.304688,0 0.503907,-0.2226562 0.503907,-0.515625 0,-0.4921875 -0.46875,-0.4921875 -0.609375,-0.4921875 0.304687,-0.4921875 0.960937,-0.6210937 1.324218,-0.6210937 0.410157,0 0.949219,0.2226562 0.949219,1.1132812 0,0.1289063 -0.01172,0.703125 -0.269531,1.1367188 -0.304688,0.4804687 -0.644531,0.515625 -0.890625,0.515625 -0.08203,0.011719 -0.316406,0.035156 -0.386719,0.035156 -0.08203,0.011719 -0.152344,0.023437 -0.152344,0.1171875 0,0.1171875 0.07031,0.1171875 0.234375,0.1171875 h 0.445313 c 0.808594,0 1.183594,0.6679688 1.183594,1.6523438 0,1.3476562 -0.691407,1.64062495 -1.125,1.64062495 -0.433594,0 -1.171875,-0.17578125 -1.523438,-0.76171875 0.351563,0.0585938 0.65625,-0.1640625 0.65625,-0.5390625 0,-0.3632812 -0.269531,-0.5625 -0.5625,-0.5625 -0.234375,0 -0.550781,0.140625 -0.550781,0.5742188 0,0.91406245 0.925781,1.57031245 2.003906,1.57031245 1.21875,0 2.121094,-0.9140625 2.121094,-1.92187495 0,-0.8203125 -0.621094,-1.59375 -1.652344,-1.8046873 z m 0,0"
         style="fill:#000000;fill-opacity:1;fill-rule:nonzero;stroke:none" />
    </g>
  </g>
</svg>
