<?xml version="1.0" encoding="UTF-8" standalone="no"?>
<!-- Created with Inkscape (http://www.inkscape.org/) -->

<svg
   version="1.1"
   id="svg1"
   width="393.09332"
   height="120.77333"
   viewBox="0 0 393.09332 120.77333"
   sodipodi:docname="divide.pdf"
   xmlns:inkscape="http://www.inkscape.org/namespaces/inkscape"
   xmlns:sodipodi="http://sodipodi.sourceforge.net/DTD/sodipodi-0.dtd"
   xmlns="http://www.w3.org/2000/svg"
   xmlns:svg="http://www.w3.org/2000/svg">
  <defs
     id="defs1" />
  <sodipodi:namedview
     id="namedview1"
     pagecolor="#ffffff"
     bordercolor="#000000"
     borderopacity="0.25"
     inkscape:showpageshadow="2"
     inkscape:pageopacity="0.0"
     inkscape:pagecheckerboard="0"
     inkscape:deskcolor="#d1d1d1">
    <inkscape:page
       x="0"
       y="0"
       inkscape:label="1"
       id="page1"
       width="393.09332"
       height="120.77333"
       margin="0"
       bleed="0" />
  </sodipodi:namedview>
  <g
     id="g1"
     inkscape:groupmode="layer"
     inkscape:label="1">
    <path
       id="path1"
       d="m 70.08775,-86.82513 h 22.36533 v -22.36531 H 70.08775 Z"
       style="fill:none;stroke:#000000;stroke-width:0.74721;stroke-linecap:butt;stroke-linejoin:miter;stroke-miterlimit:10;stroke-dasharray:none;stroke-opacity:1"
       transform="matrix(1.3333333,0,0,-1.3333333,-28.888,-25.310667)" />
    <path
       id="path2"
       d="m 92.45308,-86.82513 h 22.36531 v -22.36531 H 92.45308 Z"
       style="fill:none;stroke:#000000;stroke-width:0.74721;stroke-linecap:butt;stroke-linejoin:miter;stroke-miterlimit:10;stroke-dasharray:none;stroke-opacity:1"
       transform="matrix(1.3333333,0,0,-1.3333333,-28.888,-25.310667)" />
    <path
       id="path3"
       d="m 114.81839,-86.82513 h 22.36533 v -22.36531 h -22.36533 z"
       style="fill:none;stroke:#000000;stroke-width:0.74721;stroke-linecap:butt;stroke-linejoin:miter;stroke-miterlimit:10;stroke-dasharray:none;stroke-opacity:1"
       transform="matrix(1.3333333,0,0,-1.3333333,-28.888,-25.310667)" />
    <path
       id="path4"
       d="m 137.18372,-86.82513 h 22.36531 v -22.36531 h -22.36531 z"
       style="fill:#f5a623;fill-opacity:1;fill-rule:nonzero;stroke:#000000;stroke-width:0.74721;stroke-linecap:butt;stroke-linejoin:miter;stroke-miterlimit:10;stroke-dasharray:none;stroke-opacity:1"
       transform="matrix(1.3333333,0,0,-1.3333333,-28.888,-25.310667)" />
    <path
       id="path5"
       d="m 159.54903,-86.82513 h 22.36534 v -22.36531 h -22.36534 z"
       style="fill:none;stroke:#000000;stroke-width:0.74721;stroke-linecap:butt;stroke-linejoin:miter;stroke-miterlimit:10;stroke-dasharray:none;stroke-opacity:1"
       transform="matrix(1.3333333,0,0,-1.3333333,-28.888,-25.310667)" />
    <path
       id="path6"
       d="m 181.91437,-86.82513 h 22.36531 v -22.36531 h -22.36531 z"
       style="fill:none;stroke:#000000;stroke-width:0.74721;stroke-linecap:butt;stroke-linejoin:miter;stroke-miterlimit:10;stroke-dasharray:none;stroke-opacity:1"
       transform="matrix(1.3333333,0,0,-1.3333333,-28.888,-25.310667)" />
    <path
       id="path7"
       d="M 204.27968,-86.82513 H 226.645 v -22.36531 h -22.36532 z"
       style="fill:none;stroke:#000000;stroke-width:0.74721;stroke-linecap:butt;stroke-linejoin:miter;stroke-miterlimit:10;stroke-dasharray:none;stroke-opacity:1"
       transform="matrix(1.3333333,0,0,-1.3333333,-28.888,-25.310667)" />
    <path
       id="path8"
       d="m 226.645,-86.82513 h 22.37056 v -22.36531 H 226.645 Z"
       style="fill:#f5a623;fill-opacity:1;fill-rule:nonzero;stroke:#000000;stroke-width:0.74721;stroke-linecap:butt;stroke-linejoin:miter;stroke-miterlimit:10;stroke-dasharray:none;stroke-opacity:1"
       transform="matrix(1.3333333,0,0,-1.3333333,-28.888,-25.310667)" />
    <path
       id="path9"
       d="m 249.01556,-86.82513 h 22.36531 v -22.36531 h -22.36531 z"
       style="fill:none;stroke:#000000;stroke-width:0.74721;stroke-linecap:butt;stroke-linejoin:miter;stroke-miterlimit:10;stroke-dasharray:none;stroke-opacity:1"
       transform="matrix(1.3333333,0,0,-1.3333333,-28.888,-25.310667)" />
    <path
       id="path10"
       d="m 271.38087,-86.82513 h 22.36533 v -22.36531 h -22.36533 z"
       style="fill:none;stroke:#000000;stroke-width:0.74721;stroke-linecap:butt;stroke-linejoin:miter;stroke-miterlimit:10;stroke-dasharray:none;stroke-opacity:1"
       transform="matrix(1.3333333,0,0,-1.3333333,-28.888,-25.310667)" />
    <path
       id="path11"
       d="m 47.72243,-86.82513 h 22.36532 v -22.36531 H 47.72243 Z"
       style="fill:#f5a623;fill-opacity:1;fill-rule:nonzero;stroke:#000000;stroke-width:0.74721;stroke-linecap:butt;stroke-linejoin:miter;stroke-miterlimit:10;stroke-dasharray:none;stroke-opacity:1"
       transform="matrix(1.3333333,0,0,-1.3333333,-28.888,-25.310667)" />
    <path
       id="path12"
       d="m 25.3571,-86.82513 h 22.36533 v -22.36531 H 25.3571 Z"
       style="fill:none;stroke:#000000;stroke-width:0.74721;stroke-linecap:butt;stroke-linejoin:miter;stroke-miterlimit:10;stroke-dasharray:none;stroke-opacity:1"
       transform="matrix(1.3333333,0,0,-1.3333333,-28.888,-25.310667)" />
    <path
       id="path13"
       d="m 293.7462,-86.82513 h 22.36533 v -22.36531 H 293.7462 Z"
       style="fill:none;stroke:#000000;stroke-width:0.74721;stroke-linecap:butt;stroke-linejoin:miter;stroke-miterlimit:10;stroke-dasharray:none;stroke-opacity:1"
       transform="matrix(1.3333333,0,0,-1.3333333,-28.888,-25.310667)" />
    <path
       id="path14"
       d="M 70.08775,-64.33427 H 92.45308 V -86.6996 H 70.08775 Z"
       style="fill:none;stroke:#000000;stroke-width:0.74721;stroke-linecap:butt;stroke-linejoin:miter;stroke-miterlimit:10;stroke-dasharray:none;stroke-opacity:1"
       transform="matrix(1.3333333,0,0,-1.3333333,-28.888,-25.310667)" />
    <path
       id="path15"
       d="m 92.45308,-64.33427 h 22.36531 V -86.6996 H 92.45308 Z"
       style="fill:none;stroke:#000000;stroke-width:0.74721;stroke-linecap:butt;stroke-linejoin:miter;stroke-miterlimit:10;stroke-dasharray:none;stroke-opacity:1"
       transform="matrix(1.3333333,0,0,-1.3333333,-28.888,-25.310667)" />
    <path
       id="path16"
       d="m 114.81839,-64.33427 h 22.36533 V -86.6996 h -22.36533 z"
       style="fill:#f5a623;fill-opacity:0.3;fill-rule:nonzero;stroke:#000000;stroke-width:0.74721;stroke-linecap:butt;stroke-linejoin:miter;stroke-miterlimit:10;stroke-dasharray:none;stroke-opacity:1"
       transform="matrix(1.3333333,0,0,-1.3333333,-28.888,-25.310667)" />
    <path
       id="path17"
       d="m 137.18372,-64.33427 h 22.36531 V -86.6996 h -22.36531 z"
       style="fill:none;stroke:#000000;stroke-width:0.74721;stroke-linecap:butt;stroke-linejoin:miter;stroke-miterlimit:10;stroke-dasharray:none;stroke-opacity:1"
       transform="matrix(1.3333333,0,0,-1.3333333,-28.888,-25.310667)" />
    <path
       id="path18"
       d="m 159.54903,-64.33427 h 22.36534 V -86.6996 h -22.36534 z"
       style="fill:none;stroke:#000000;stroke-width:0.74721;stroke-linecap:butt;stroke-linejoin:miter;stroke-miterlimit:10;stroke-dasharray:none;stroke-opacity:1"
       transform="matrix(1.3333333,0,0,-1.3333333,-28.888,-25.310667)" />
    <path
       id="path19"
       d="m 181.91437,-64.33427 h 22.36531 V -86.6996 h -22.36531 z"
       style="fill:none;stroke:#000000;stroke-width:0.74721;stroke-linecap:butt;stroke-linejoin:miter;stroke-miterlimit:10;stroke-dasharray:none;stroke-opacity:1"
       transform="matrix(1.3333333,0,0,-1.3333333,-28.888,-25.310667)" />
    <path
       id="path20"
       d="M 204.27968,-64.33427 H 226.645 V -86.6996 h -22.36532 z"
       style="fill:#f5a623;fill-opacity:0.3;fill-rule:nonzero;stroke:#000000;stroke-width:0.74721;stroke-linecap:butt;stroke-linejoin:miter;stroke-miterlimit:10;stroke-dasharray:none;stroke-opacity:1"
       transform="matrix(1.3333333,0,0,-1.3333333,-28.888,-25.310667)" />
    <path
       id="path21"
       d="m 226.645,-64.33427 h 22.37056 V -86.6996 H 226.645 Z"
       style="fill:none;stroke:#000000;stroke-width:0.74721;stroke-linecap:butt;stroke-linejoin:miter;stroke-miterlimit:10;stroke-dasharray:none;stroke-opacity:1"
       transform="matrix(1.3333333,0,0,-1.3333333,-28.888,-25.310667)" />
    <path
       id="path22"
       d="m 249.01556,-64.33427 h 22.36531 V -86.6996 h -22.36531 z"
       style="fill:none;stroke:#000000;stroke-width:0.74721;stroke-linecap:butt;stroke-linejoin:miter;stroke-miterlimit:10;stroke-dasharray:none;stroke-opacity:1"
       transform="matrix(1.3333333,0,0,-1.3333333,-28.888,-25.310667)" />
    <path
       id="path23"
       d="M 271.38087,-64.33427 H 293.7462 V -86.6996 h -22.36533 z"
       style="fill:none;stroke:#000000;stroke-width:0.74721;stroke-linecap:butt;stroke-linejoin:miter;stroke-miterlimit:10;stroke-dasharray:none;stroke-opacity:1"
       transform="matrix(1.3333333,0,0,-1.3333333,-28.888,-25.310667)" />
    <path
       id="path24"
       d="M 47.72243,-64.33427 H 70.08775 V -86.6996 H 47.72243 Z"
       style="fill:none;stroke:#000000;stroke-width:0.74721;stroke-linecap:butt;stroke-linejoin:miter;stroke-miterlimit:10;stroke-dasharray:none;stroke-opacity:1"
       transform="matrix(1.3333333,0,0,-1.3333333,-28.888,-25.310667)" />
    <path
       id="path25"
       d="M 25.3571,-64.33427 H 47.72243 V -86.6996 H 25.3571 Z"
       style="fill:#f5a623;fill-opacity:0.3;fill-rule:nonzero;stroke:#000000;stroke-width:0.74721;stroke-linecap:butt;stroke-linejoin:miter;stroke-miterlimit:10;stroke-dasharray:none;stroke-opacity:1"
       transform="matrix(1.3333333,0,0,-1.3333333,-28.888,-25.310667)" />
    <path
       id="path26"
       d="m 293.7462,-64.33427 h 22.36533 V -86.6996 H 293.7462 Z"
       style="fill:#f5a623;fill-opacity:0.3;fill-rule:nonzero;stroke:#000000;stroke-width:0.74721;stroke-linecap:butt;stroke-linejoin:miter;stroke-miterlimit:10;stroke-dasharray:none;stroke-opacity:1"
       transform="matrix(1.3333333,0,0,-1.3333333,-28.888,-25.310667)" />
    <path
       id="path27"
       d="m 70.08775,-41.84344 h 22.36533 v -22.3653 H 70.08775 Z"
       style="fill:none;stroke:#000000;stroke-width:0.74721;stroke-linecap:butt;stroke-linejoin:miter;stroke-miterlimit:10;stroke-dasharray:none;stroke-opacity:1"
       transform="matrix(1.3333333,0,0,-1.3333333,-28.888,-25.310667)" />
    <path
       id="path28"
       d="m 92.45308,-41.84344 h 22.36531 v -22.3653 H 92.45308 Z"
       style="fill:#8b572a;fill-opacity:0.2;fill-rule:nonzero;stroke:#000000;stroke-width:0.74721;stroke-linecap:butt;stroke-linejoin:miter;stroke-miterlimit:10;stroke-dasharray:none;stroke-opacity:1"
       transform="matrix(1.3333333,0,0,-1.3333333,-28.888,-25.310667)" />
    <path
       id="path29"
       d="m 114.81839,-41.84344 h 22.36533 v -22.3653 h -22.36533 z"
       style="fill:none;stroke:#000000;stroke-width:0.74721;stroke-linecap:butt;stroke-linejoin:miter;stroke-miterlimit:10;stroke-dasharray:none;stroke-opacity:1"
       transform="matrix(1.3333333,0,0,-1.3333333,-28.888,-25.310667)" />
    <path
       id="path30"
       d="m 137.18372,-41.84344 h 22.36531 v -22.3653 h -22.36531 z"
       style="fill:none;stroke:#000000;stroke-width:0.74721;stroke-linecap:butt;stroke-linejoin:miter;stroke-miterlimit:10;stroke-dasharray:none;stroke-opacity:1"
       transform="matrix(1.3333333,0,0,-1.3333333,-28.888,-25.310667)" />
    <path
       id="path31"
       d="m 159.54903,-41.84344 h 22.36534 v -22.3653 h -22.36534 z"
       style="fill:none;stroke:#000000;stroke-width:0.74721;stroke-linecap:butt;stroke-linejoin:miter;stroke-miterlimit:10;stroke-dasharray:none;stroke-opacity:1"
       transform="matrix(1.3333333,0,0,-1.3333333,-28.888,-25.310667)" />
    <path
       id="path32"
       d="m 181.91437,-41.84344 h 22.36531 v -22.3653 h -22.36531 z"
       style="fill:#8b572a;fill-opacity:0.2;fill-rule:nonzero;stroke:#000000;stroke-width:0.74721;stroke-linecap:butt;stroke-linejoin:miter;stroke-miterlimit:10;stroke-dasharray:none;stroke-opacity:1"
       transform="matrix(1.3333333,0,0,-1.3333333,-28.888,-25.310667)" />
    <path
       id="path33"
       d="M 204.27968,-41.84344 H 226.645 v -22.3653 h -22.36532 z"
       style="fill:none;stroke:#000000;stroke-width:0.74721;stroke-linecap:butt;stroke-linejoin:miter;stroke-miterlimit:10;stroke-dasharray:none;stroke-opacity:1"
       transform="matrix(1.3333333,0,0,-1.3333333,-28.888,-25.310667)" />
    <path
       id="path34"
       d="m 226.645,-41.84344 h 22.37056 v -22.3653 H 226.645 Z"
       style="fill:none;stroke:#000000;stroke-width:0.74721;stroke-linecap:butt;stroke-linejoin:miter;stroke-miterlimit:10;stroke-dasharray:none;stroke-opacity:1"
       transform="matrix(1.3333333,0,0,-1.3333333,-28.888,-25.310667)" />
    <path
       id="path35"
       d="m 249.01556,-41.84344 h 22.36531 v -22.3653 h -22.36531 z"
       style="fill:none;stroke:#000000;stroke-width:0.74721;stroke-linecap:butt;stroke-linejoin:miter;stroke-miterlimit:10;stroke-dasharray:none;stroke-opacity:1"
       transform="matrix(1.3333333,0,0,-1.3333333,-28.888,-25.310667)" />
    <path
       id="path36"
       d="m 271.38087,-41.84344 h 22.36533 v -22.3653 h -22.36533 z"
       style="fill:#8b572a;fill-opacity:0.2;fill-rule:nonzero;stroke:#000000;stroke-width:0.74721;stroke-linecap:butt;stroke-linejoin:miter;stroke-miterlimit:10;stroke-dasharray:none;stroke-opacity:1"
       transform="matrix(1.3333333,0,0,-1.3333333,-28.888,-25.310667)" />
    <path
       id="path37"
       d="m 47.72243,-41.84344 h 22.36532 v -22.3653 H 47.72243 Z"
       style="fill:none;stroke:#000000;stroke-width:0.74721;stroke-linecap:butt;stroke-linejoin:miter;stroke-miterlimit:10;stroke-dasharray:none;stroke-opacity:1"
       transform="matrix(1.3333333,0,0,-1.3333333,-28.888,-25.310667)" />
    <path
       id="path38"
       d="m 25.3571,-41.84344 h 22.36533 v -22.3653 H 25.3571 Z"
       style="fill:none;stroke:#000000;stroke-width:0.74721;stroke-linecap:butt;stroke-linejoin:miter;stroke-miterlimit:10;stroke-dasharray:none;stroke-opacity:1"
       transform="matrix(1.3333333,0,0,-1.3333333,-28.888,-25.310667)" />
    <path
       id="path39"
       d="m 293.7462,-41.84344 h 22.36533 v -22.3653 H 293.7462 Z"
       style="fill:none;stroke:#000000;stroke-width:0.74721;stroke-linecap:butt;stroke-linejoin:miter;stroke-miterlimit:10;stroke-dasharray:none;stroke-opacity:1"
       transform="matrix(1.3333333,0,0,-1.3333333,-28.888,-25.310667)" />
    <path
       id="path40"
       d="M 70.08775,-19.35258 H 92.45308 V -41.7179 H 70.08775 Z"
       style="fill:#417505;fill-opacity:0.2;fill-rule:nonzero;stroke:#000000;stroke-width:0.74721;stroke-linecap:butt;stroke-linejoin:miter;stroke-miterlimit:10;stroke-dasharray:none;stroke-opacity:1"
       transform="matrix(1.3333333,0,0,-1.3333333,-28.888,-25.310667)" />
    <path
       id="path41"
       d="m 92.45308,-19.35258 h 22.36531 V -41.7179 H 92.45308 Z"
       style="fill:none;stroke:#000000;stroke-width:0.74721;stroke-linecap:butt;stroke-linejoin:miter;stroke-miterlimit:10;stroke-dasharray:none;stroke-opacity:1"
       transform="matrix(1.3333333,0,0,-1.3333333,-28.888,-25.310667)" />
    <path
       id="path42"
       d="m 114.81839,-19.35258 h 22.36533 V -41.7179 h -22.36533 z"
       style="fill:none;stroke:#000000;stroke-width:0.74721;stroke-linecap:butt;stroke-linejoin:miter;stroke-miterlimit:10;stroke-dasharray:none;stroke-opacity:1"
       transform="matrix(1.3333333,0,0,-1.3333333,-28.888,-25.310667)" />
    <path
       id="path43"
       d="m 137.18372,-19.35258 h 22.36531 V -41.7179 h -22.36531 z"
       style="fill:none;stroke:#000000;stroke-width:0.74721;stroke-linecap:butt;stroke-linejoin:miter;stroke-miterlimit:10;stroke-dasharray:none;stroke-opacity:1"
       transform="matrix(1.3333333,0,0,-1.3333333,-28.888,-25.310667)" />
    <path
       id="path44"
       d="m 159.54903,-19.35258 h 22.36534 V -41.7179 h -22.36534 z"
       style="fill:#417505;fill-opacity:0.2;fill-rule:nonzero;stroke:#000000;stroke-width:0.74721;stroke-linecap:butt;stroke-linejoin:miter;stroke-miterlimit:10;stroke-dasharray:none;stroke-opacity:1"
       transform="matrix(1.3333333,0,0,-1.3333333,-28.888,-25.310667)" />
    <path
       id="path45"
       d="m 181.91437,-19.35258 h 22.36531 V -41.7179 h -22.36531 z"
       style="fill:none;stroke:#000000;stroke-width:0.74721;stroke-linecap:butt;stroke-linejoin:miter;stroke-miterlimit:10;stroke-dasharray:none;stroke-opacity:1"
       transform="matrix(1.3333333,0,0,-1.3333333,-28.888,-25.310667)" />
    <path
       id="path46"
       d="M 204.27968,-19.35258 H 226.645 V -41.7179 h -22.36532 z"
       style="fill:none;stroke:#000000;stroke-width:0.74721;stroke-linecap:butt;stroke-linejoin:miter;stroke-miterlimit:10;stroke-dasharray:none;stroke-opacity:1"
       transform="matrix(1.3333333,0,0,-1.3333333,-28.888,-25.310667)" />
    <path
       id="path47"
       d="m 226.645,-19.35258 h 22.37056 V -41.7179 H 226.645 Z"
       style="fill:none;stroke:#000000;stroke-width:0.74721;stroke-linecap:butt;stroke-linejoin:miter;stroke-miterlimit:10;stroke-dasharray:none;stroke-opacity:1"
       transform="matrix(1.3333333,0,0,-1.3333333,-28.888,-25.310667)" />
    <path
       id="path48"
       d="m 249.01556,-19.35258 h 22.36531 V -41.7179 h -22.36531 z"
       style="fill:#417505;fill-opacity:0.2;fill-rule:nonzero;stroke:#000000;stroke-width:0.74721;stroke-linecap:butt;stroke-linejoin:miter;stroke-miterlimit:10;stroke-dasharray:none;stroke-opacity:1"
       transform="matrix(1.3333333,0,0,-1.3333333,-28.888,-25.310667)" />
    <path
       id="path49"
       d="M 271.38087,-19.35258 H 293.7462 V -41.7179 h -22.36533 z"
       style="fill:none;stroke:#000000;stroke-width:0.74721;stroke-linecap:butt;stroke-linejoin:miter;stroke-miterlimit:10;stroke-dasharray:none;stroke-opacity:1"
       transform="matrix(1.3333333,0,0,-1.3333333,-28.888,-25.310667)" />
    <path
       id="path50"
       d="M 47.72243,-19.35258 H 70.08775 V -41.7179 H 47.72243 Z"
       style="fill:none;stroke:#000000;stroke-width:0.74721;stroke-linecap:butt;stroke-linejoin:miter;stroke-miterlimit:10;stroke-dasharray:none;stroke-opacity:1"
       transform="matrix(1.3333333,0,0,-1.3333333,-28.888,-25.310667)" />
    <path
       id="path51"
       d="M 25.3571,-19.35258 H 47.72243 V -41.7179 H 25.3571 Z"
       style="fill:none;stroke:#000000;stroke-width:0.74721;stroke-linecap:butt;stroke-linejoin:miter;stroke-miterlimit:10;stroke-dasharray:none;stroke-opacity:1"
       transform="matrix(1.3333333,0,0,-1.3333333,-28.888,-25.310667)" />
    <path
       id="path52"
       d="m 293.7462,-19.35258 h 22.36533 V -41.7179 H 293.7462 Z"
       style="fill:none;stroke:#000000;stroke-width:0.74721;stroke-linecap:butt;stroke-linejoin:miter;stroke-miterlimit:10;stroke-dasharray:none;stroke-opacity:1"
       transform="matrix(1.3333333,0,0,-1.3333333,-28.888,-25.310667)" />
    <path
       id="path53"
       d="m 4.5822266,-3.1861719 c 0,-0.796875 -0.046875,-1.59375 -0.3984375,-2.3320312 -0.4570313,-0.9609375 -1.2773438,-1.1132813 -1.6875,-1.1132813 -0.5976563,0 -1.3359375,0.2578125 -1.73437504,1.1835938 -0.328125,0.6914062 -0.375,1.4648437 -0.375,2.2617187 0,0.75 0.046875,1.640625 0.4453125,2.40234377 0.43359374,0.80859375 1.16015624,1.0078125 1.65234374,1.0078125 0.5390625,0 1.2890625,-0.2109375 1.734375,-1.16015625 C 4.5353516,-1.6275781 4.5822266,-2.4010156 4.5822266,-3.1861719 Z M 2.4845703,0.00132812 c -0.3867187,0 -0.984375,-0.24609375 -1.1601562,-1.20703122 -0.1054688,-0.5976563 -0.1054688,-1.5117188 -0.1054688,-2.0976563 0,-0.6445312 0,-1.3007812 0.082031,-1.8398437 0.1875,-1.1835938 0.9257812,-1.265625 1.1835937,-1.265625 0.328125,0 0.984375,0.1757812 1.171875,1.1601562 0.09375,0.5625 0.09375,1.3125 0.09375,1.9453125 0,0.75 0,1.4179688 -0.1054687,2.0625 -0.1523438,0.93750002 -0.7148438,1.24218752 -1.160156,1.24218752 z m 0,0"
       style="fill:#000000;fill-opacity:1;fill-rule:nonzero;stroke:none"
       aria-label="0"
       transform="matrix(1.3333333,0,0,1.3333333,195.43333,109.64667)" />
    <path
       id="path54"
       d="m 2.9301172,-6.3736719 c 0,-0.234375 0,-0.2578125 -0.234375,-0.2578125 -0.609375,0.6328125 -1.4882813,0.6328125 -1.80468751,0.6328125 v 0.3164063 c 0.19921871,0 0.78515621,0 1.30078121,-0.2578125 v 5.15624997 c 0,0.3515625 -0.035156,0.48046875 -0.9257812,0.48046875 H 0.94964844 v 0.3046875 C 1.3012109,-0.03382813 2.1566797,-0.03382813 2.5551172,-0.03382813 c 0.3984375,0 1.265625,0 1.6171875,0.03515625 v -0.3046875 H 3.8558984 c -0.9023437,0 -0.9257812,-0.1171875 -0.9257812,-0.48046875 z m 0,0"
       style="fill:#000000;fill-opacity:1;fill-rule:nonzero;stroke:none"
       aria-label="1"
       transform="matrix(1.3333333,0,0,1.3333333,225.25333,109.64667)" />
    <path
       id="path55"
       d="M 1.2652891,-0.76039063 2.3199766,-1.7916406 c 1.5585937,-1.3710938 2.15625,-1.9101563 2.15625,-2.90625 0,-1.1367188 -0.9023438,-1.9335938 -2.1210938,-1.9335938 -1.125,0 -1.85156249,0.9140625 -1.85156249,1.8046875 0,0.5507813 0.4921875,0.5507813 0.52734379,0.5507813 0.1640625,0 0.515625,-0.1171875 0.515625,-0.5273438 0,-0.2578125 -0.1875,-0.515625 -0.5273438,-0.515625 -0.0820312,0 -0.10546874,0 -0.12890624,0.011719 0.22265624,-0.6445313 0.76171874,-1.0195313 1.33593754,-1.0195313 0.9140625,0 1.3359375,0.8085938 1.3359375,1.6289063 0,0.796875 -0.4921875,1.5820312 -1.0429688,2.203125 L 0.60903906,-0.36195313 C 0.50357031,-0.25648438 0.50357031,-0.23304688 0.50357031,0.00132812 H 4.1949766 l 0.28125,-1.73437502 H 4.2184141 c -0.046875,0.3046875 -0.1171875,0.73828127 -0.2109375,0.89062502 -0.070313,0.0820313 -0.7265625,0.0820313 -0.9492188,0.0820313 z m 0,0"
       style="fill:#000000;fill-opacity:1;fill-rule:nonzero;stroke:none"
       aria-label="2"
       transform="matrix(1.3333333,0,0,1.3333333,255.07467,109.64667)" />
    <path
       id="path56"
       d="m 2.8944297,-3.5025781 c 0.8085937,-0.2695313 1.3945312,-0.9726563 1.3945312,-1.7578125 0,-0.8203125 -0.8789062,-1.3710938 -1.8398437,-1.3710938 -1.0078125,0 -1.75781251,0.5976563 -1.75781251,1.3476563 0,0.3398437 0.2109375,0.5273437 0.50390621,0.5273437 0.3046875,0 0.5039063,-0.2226562 0.5039063,-0.515625 0,-0.4921875 -0.46875,-0.4921875 -0.609375,-0.4921875 0.3046875,-0.4921875 0.9609375,-0.6210937 1.3242187,-0.6210937 0.4101563,0 0.9492188,0.2226562 0.9492188,1.1132812 0,0.1289063 -0.011719,0.703125 -0.2695313,1.1367188 -0.3046875,0.4804687 -0.6445312,0.515625 -0.890625,0.515625 -0.082031,0.011719 -0.3164062,0.035156 -0.3867187,0.035156 -0.082031,0.011719 -0.1523438,0.023437 -0.1523438,0.1171875 0,0.1171875 0.070312,0.1171875 0.234375,0.1171875 h 0.4453125 c 0.8085938,0 1.1835938,0.6679688 1.1835938,1.6523438 0,1.34765622 -0.6914063,1.64062497 -1.125,1.64062497 -0.4335938,0 -1.171875,-0.17578125 -1.52343751,-0.76171875 0.35156251,0.0585938 0.65625001,-0.1640625 0.65625001,-0.53906252 0,-0.3632812 -0.2695313,-0.5625 -0.56250001,-0.5625 -0.234375,0 -0.55078125,0.140625 -0.55078125,0.5742188 0,0.91406247 0.92578126,1.57031247 2.00390626,1.57031247 1.21875,0 2.1210937,-0.9140625 2.1210937,-1.92187497 0,-0.8203125 -0.6210937,-1.59375 -1.6523437,-1.8046873 z m 0,0"
       style="fill:#000000;fill-opacity:1;fill-rule:nonzero;stroke:none"
       aria-label="3"
       transform="matrix(1.3333333,0,0,1.3333333,284.89467,109.64667)" />
    <path
       id="path57"
       d="m 2.9296797,-1.6392969 v 0.86718752 c 0,0.3515625 -0.023437,0.46875 -0.7617188,0.46875 H 1.9570234 v 0.3046875 c 0.4101563,-0.03515625 0.9375,-0.03515625 1.3476563,-0.03515625 0.421875,0 0.9492187,0 1.359375,0.03515625 v -0.3046875 H 4.4531172 c -0.7382813,0 -0.7617188,-0.1171875 -0.7617188,-0.46875 V -1.6392969 H 4.6874922 V -1.9557031 H 3.6913984 v -4.5234375 c 0,-0.1992188 0,-0.2578125 -0.1523437,-0.2578125 -0.09375,0 -0.1171875,0 -0.1992188,0.1171875 l -3.05859371,4.6640625 v 0.3164062 z m 0.058594,-0.3164062 H 0.56249219 L 2.9882734,-5.6705469 Z m 0,0"
       style="fill:#000000;fill-opacity:1;fill-rule:nonzero;stroke:none"
       aria-label="4"
       transform="matrix(1.3333333,0,0,1.3333333,314.72267,109.64667)" />
    <path
       id="path58"
       d="m 4.4767891,-2.0025781 c 0,-1.1835938 -0.8203125,-2.1796875 -1.8984375,-2.1796875 -0.4804688,0 -0.9023438,0.1640625 -1.265625,0.5039062 v -1.9335937 c 0.1992187,0.058594 0.5273437,0.1289062 0.84375,0.1289062 1.2304687,0 1.9335937,-0.9140625 1.9335937,-1.0429687 0,-0.058594 -0.035156,-0.1054688 -0.1054687,-0.1054688 -0.011719,0 -0.035156,0 -0.082031,0.023437 -0.1992187,0.09375 -0.6796875,0.2929688 -1.3476562,0.2929688 -0.3984375,0 -0.8554688,-0.070312 -1.3242188,-0.28125 -0.082031,-0.023437 -0.1054687,-0.023437 -0.1289062,-0.023437 -0.09375,0 -0.09375,0.082031 -0.09375,0.234375 v 2.953125 c 0,0.1757812 0,0.2578125 0.140625,0.2578125 0.070312,0 0.082031,-0.035156 0.1289062,-0.09375 0.1054688,-0.1523438 0.4804688,-0.6914063 1.2773438,-0.6914063 0.5273437,0 0.7734375,0.4570313 0.8554687,0.6328125 0.1523438,0.375 0.1757813,0.7617188 0.1757813,1.2539063 0,0.3515625 0,0.9492187 -0.234375,1.37109372 -0.2460938,0.38671875 -0.609375,0.64453125 -1.0664063,0.64453125 -0.7265625,0 -1.30078124,-0.52734375 -1.46484374,-1.11328127 0.0234375,0.011719 0.0585938,0.011719 0.1640625,0.011719 0.32812504,0 0.50390624,-0.2460938 0.50390624,-0.4804688 0,-0.2460937 -0.1757812,-0.4921875 -0.50390624,-0.4921875 -0.140625,0 -0.48046875,0.070312 -0.48046875,0.5273438 0,0.85546872 0.67968749,1.82812497 1.79296879,1.82812497 1.1601562,0 2.1796875,-0.9609375 2.1796872,-2.22656267 z m 0,0"
       style="fill:#000000;fill-opacity:1;fill-rule:nonzero;stroke:none"
       aria-label="5"
       transform="matrix(1.3333333,0,0,1.3333333,344.54267,109.64667)" />
    <g
       id="g58"
       aria-label="−1"
       transform="matrix(1.3333333,0,0,1.3333333,160.44667,109.09333)">
      <path
         id="path59"
         d="m 6.5614844,-2.2965625 c 0.1757812,0 0.3515625,0 0.3515625,-0.1992187 C 6.9130469,-2.695 6.7372656,-2.695 6.5614844,-2.695 h -5.390625 c -0.1640625,0 -0.33984377,0 -0.33984377,0.1992188 0,0.1992187 0.17578127,0.1992187 0.33984377,0.1992187 z m 0,0"
         style="fill:#000000;fill-opacity:1;fill-rule:nonzero;stroke:none" />
      <path
         id="path60"
         d="m 10.677695,-6.3746875 c 0,-0.234375 0,-0.2578125 -0.234375,-0.2578125 -0.6093747,0.6328125 -1.4882809,0.6328125 -1.8046872,0.6328125 v 0.3164063 c 0.1992188,0 0.7851563,0 1.3007813,-0.2578125 v 5.15624995 c 0,0.3515625 -0.035156,0.48046875 -0.9257813,0.48046875 H 8.6972266 V 3.125e-4 c 0.3515625,-0.03515625 1.2070312,-0.03515625 1.6054684,-0.03515625 0.398438,0 1.265625,0 1.617188,0.03515625 V -0.304375 h -0.316406 c -0.902344,0 -0.925782,-0.1171875 -0.925782,-0.48046875 z m 0,0"
         style="fill:#000000;fill-opacity:1;fill-rule:nonzero;stroke:none" />
    </g>
    <g
       id="g60"
       aria-label="−2"
       transform="matrix(1.3333333,0,0,1.3333333,130.62667,109.09333)">
      <path
         id="path61"
         d="m 6.56125,-2.2965625 c 0.1757813,0 0.3515625,0 0.3515625,-0.1992187 C 6.9128125,-2.695 6.7370313,-2.695 6.56125,-2.695 H 1.170625 c -0.1640625,0 -0.33984375,0 -0.33984375,0.1992188 0,0.1992187 0.17578125,0.1992187 0.33984375,0.1992187 z m 0,0"
         style="fill:#000000;fill-opacity:1;fill-rule:nonzero;stroke:none" />
      <path
         id="path62"
         d="M 9.0133984,-0.76140625 10.068086,-1.7926562 c 1.558594,-1.3710938 2.15625,-1.9101563 2.15625,-2.90625 0,-1.1367188 -0.902344,-1.9335938 -2.121094,-1.9335938 -1.1249998,0 -1.8515623,0.9140625 -1.8515623,1.8046875 0,0.5507813 0.4921875,0.5507813 0.5273437,0.5507813 0.1640625,0 0.515625,-0.1171875 0.515625,-0.5273438 0,-0.2578125 -0.1875,-0.515625 -0.5273437,-0.515625 -0.082031,0 -0.1054688,0 -0.1289063,0.011719 0.2226563,-0.6445313 0.7617188,-1.0195313 1.3359375,-1.0195313 0.9140621,0 1.3359371,0.8085938 1.3359371,1.6289063 0,0.796875 -0.492187,1.5820312 -1.042968,2.203125 L 8.3571484,-0.36296875 C 8.2516797,-0.2575 8.2516797,-0.2340625 8.2516797,3.125e-4 h 3.6914063 l 0.28125,-1.734375 h -0.257813 c -0.04687,0.3046875 -0.117187,0.73828125 -0.210937,0.890625 -0.07031,0.0820313 -0.726563,0.0820313 -0.949219,0.0820313 z m 0,0"
         style="fill:#000000;fill-opacity:1;fill-rule:nonzero;stroke:none" />
    </g>
    <g
       id="g62"
       aria-label="−3"
       transform="matrix(1.3333333,0,0,1.3333333,100.80667,109.09333)">
      <path
         id="path63"
         d="m 6.5639453,-2.2965625 c 0.1757813,0 0.3515625,0 0.3515625,-0.1992187 C 6.9155078,-2.695 6.7397266,-2.695 6.5639453,-2.695 h -5.390625 c -0.1640625,0 -0.33984374,0 -0.33984374,0.1992188 0,0.1992187 0.17578124,0.1992187 0.33984374,0.1992187 z m 0,0"
         style="fill:#000000;fill-opacity:1;fill-rule:nonzero;stroke:none" />
      <path
         id="path64"
         d="m 10.64207,-3.5035937 c 0.808594,-0.2695313 1.394532,-0.9726563 1.394532,-1.7578125 0,-0.8203125 -0.878907,-1.3710938 -1.839844,-1.3710938 -1.0078127,0 -1.7578127,0.5976563 -1.7578127,1.3476563 0,0.3398437 0.2109375,0.5273437 0.5039063,0.5273437 0.3046875,0 0.5039062,-0.2226562 0.5039062,-0.515625 0,-0.4921875 -0.46875,-0.4921875 -0.609375,-0.4921875 0.3046875,-0.4921875 0.9609375,-0.6210937 1.3242192,-0.6210937 0.410156,0 0.949218,0.2226562 0.949218,1.1132812 0,0.1289063 -0.01172,0.703125 -0.269531,1.1367188 -0.304687,0.4804687 -0.644531,0.515625 -0.8906249,0.515625 -0.082031,0.011719 -0.3164063,0.035156 -0.3867188,0.035156 -0.082031,0.011719 -0.1523437,0.023437 -0.1523437,0.1171875 0,0.1171875 0.070312,0.1171875 0.234375,0.1171875 h 0.4453124 c 0.808594,0 1.183594,0.6679688 1.183594,1.6523438 0,1.3476562 -0.691406,1.64062495 -1.125,1.64062495 -0.4335939,0 -1.1718752,-0.17578125 -1.5234377,-0.76171875 0.3515625,0.0585938 0.65625,-0.1640625 0.65625,-0.5390625 0,-0.3632812 -0.2695312,-0.5625 -0.5625,-0.5625 -0.234375,0 -0.5507812,0.140625 -0.5507812,0.5742188 0,0.91406245 0.9257812,1.57031245 2.0039059,1.57031245 1.21875,0 2.121094,-0.9140625 2.121094,-1.92187495 0,-0.8203125 -0.621094,-1.59375 -1.652344,-1.8046873 z m 0,0"
         style="fill:#000000;fill-opacity:1;fill-rule:nonzero;stroke:none" />
    </g>
    <g
       id="g64"
       aria-label="−4"
       transform="matrix(1.3333333,0,0,1.3333333,70.985333,109.09333)">
      <path
         id="path65"
         d="m 6.5617812,-2.2965625 c 0.1757813,0 0.3515625,0 0.3515625,-0.1992187 C 6.9133437,-2.695 6.7375625,-2.695 6.5617812,-2.695 h -5.390625 c -0.1640625,0 -0.3398437,0 -0.3398437,0.1992188 0,0.1992187 0.1757812,0.1992187 0.3398437,0.1992187 z m 0,0"
         style="fill:#000000;fill-opacity:1;fill-rule:nonzero;stroke:none" />
      <path
         id="path66"
         d="m 10.677992,-1.6403125 v 0.8671875 c 0,0.3515625 -0.02344,0.46875 -0.7617186,0.46875 H 9.7053359 V 3.125e-4 c 0.4101561,-0.03515625 0.9375001,-0.03515625 1.3476561,-0.03515625 0.421875,0 0.949219,0 1.359375,0.03515625 V -0.304375 H 12.20143 c -0.738282,0 -0.761719,-0.1171875 -0.761719,-0.46875 v -0.8671875 h 0.996094 v -0.3164062 h -0.996094 v -4.5234375 c 0,-0.1992188 0,-0.2578125 -0.152344,-0.2578125 -0.09375,0 -0.117187,0 -0.199219,0.1171875 l -3.0585933,4.6640625 v 0.3164062 z m 0.05859,-0.3164062 H 8.3108047 l 2.4257813,-3.7148438 z m 0,0"
         style="fill:#000000;fill-opacity:1;fill-rule:nonzero;stroke:none" />
    </g>
    <g
       id="g66"
       aria-label="−5"
       transform="matrix(1.3333333,0,0,1.3333333,41.165333,109.09333)">
      <path
         id="path67"
         d="m 6.5615469,-2.2965625 c 0.1757812,0 0.3515625,0 0.3515625,-0.1992187 C 6.9131094,-2.695 6.7373281,-2.695 6.5615469,-2.695 h -5.390625 c -0.1640625,0 -0.33984378,0 -0.33984378,0.1992188 0,0.1992187 0.17578128,0.1992187 0.33984378,0.1992187 z m 0,0"
         style="fill:#000000;fill-opacity:1;fill-rule:nonzero;stroke:none" />
      <path
         id="path68"
         d="m 12.224633,-2.0035937 c 0,-1.1835938 -0.820313,-2.1796875 -1.898438,-2.1796875 -0.4804684,0 -0.9023434,0.1640625 -1.2656247,0.5039062 v -1.9335937 c 0.1992188,0.058594 0.5273438,0.1289062 0.84375,0.1289062 1.2304687,0 1.9335937,-0.9140625 1.9335937,-1.0429687 0,-0.058594 -0.03516,-0.1054688 -0.105469,-0.1054688 -0.01172,0 -0.03516,0 -0.08203,0.023437 -0.199219,0.09375 -0.679687,0.2929688 -1.347656,0.2929688 -0.3984377,0 -0.8554689,-0.070312 -1.3242189,-0.28125 -0.082031,-0.023437 -0.1054688,-0.023437 -0.1289063,-0.023437 -0.09375,0 -0.09375,0.082031 -0.09375,0.234375 v 2.953125 c 0,0.1757812 0,0.2578125 0.140625,0.2578125 0.070312,0 0.082031,-0.035156 0.1289063,-0.09375 0.1054687,-0.1523438 0.4804687,-0.6914063 1.2773439,-0.6914063 0.527344,0 0.773437,0.4570313 0.855469,0.6328125 0.152343,0.375 0.175781,0.7617188 0.175781,1.2539063 0,0.3515625 0,0.9492187 -0.234375,1.3710937 -0.246094,0.38671875 -0.609375,0.64453125 -1.066406,0.64453125 -0.7265629,0 -1.3007817,-0.52734375 -1.4648442,-1.11328125 0.023437,0.011719 0.058594,0.011719 0.1640625,0.011719 0.328125,0 0.5039063,-0.2460938 0.5039063,-0.4804688 0,-0.2460937 -0.1757813,-0.4921875 -0.5039063,-0.4921875 -0.140625,0 -0.4804687,0.070312 -0.4804687,0.5273438 0,0.8554687 0.6796875,1.82812495 1.7929684,1.82812495 1.160157,0 2.179688,-0.9609375 2.179688,-2.22656245 z m 0,0"
         style="fill:#000000;fill-opacity:1;fill-rule:nonzero;stroke:none" />
    </g>
    <g
       id="g68"
       aria-label="−6"
       transform="matrix(1.3333333,0,0,1.3333333,11.345333,109.09333)">
      <path
         id="path69"
         d="m 6.5613125,-2.2965625 c 0.1757812,0 0.3515625,0 0.3515625,-0.1992187 C 6.912875,-2.695 6.7370937,-2.695 6.5613125,-2.695 h -5.390625 c -0.1640625,0 -0.33984375,0 -0.33984375,0.1992188 0,0.1992187 0.17578125,0.1992187 0.33984375,0.1992187 z m 0,0"
         style="fill:#000000;fill-opacity:1;fill-rule:nonzero;stroke:none" />
      <path
         id="path70"
         d="m 9.0603359,-3.2692187 v -0.234375 c 0,-2.5195313 1.2421871,-2.8828125 1.7460941,-2.8828125 0.234375,0 0.65625,0.058594 0.878906,0.3984375 -0.152344,0 -0.550781,0 -0.550781,0.4453125 0,0.3164062 0.234375,0.4570312 0.457031,0.4570312 0.164062,0 0.457031,-0.082031 0.457031,-0.46875 0,-0.5976562 -0.433594,-1.078125 -1.265625,-1.078125 -1.2773436,0 -2.6132811,1.2890625 -2.6132811,3.4804688 0,2.6601562 1.1484375,3.37499995 2.0742191,3.37499995 1.113281,0 2.050781,-0.9375 2.050781,-2.24999995 0,-1.265625 -0.878906,-2.2265625 -1.992188,-2.2265625 -0.6679683,0 -1.0429683,0.5039062 -1.2421871,0.984375 z m 1.1835941,3.21093745 c -0.6210941,0 -0.9257816,-0.59765625 -0.9843753,-0.75 C 9.0837734,-1.2770312 9.0837734,-2.0739062 9.0837734,-2.2496875 c 0,-0.7734375 0.3164063,-1.7695312 1.2187496,-1.7695312 0.152344,0 0.609375,0 0.925782,0.609375 0.175781,0.375 0.175781,0.8789062 0.175781,1.3710937 0,0.4804688 0,0.9726563 -0.164063,1.3359375 -0.304687,0.59765625 -0.761718,0.64453125 -0.996093,0.64453125 z m 0,0"
         style="fill:#000000;fill-opacity:1;fill-rule:nonzero;stroke:none" />
    </g>
    <path
       id="path71"
       d="m 1.3129609,-3.2682031 v -0.234375 c 0,-2.5195313 1.2421875,-2.8828125 1.7460938,-2.8828125 0.234375,0 0.65625,0.058594 0.8789062,0.3984375 -0.1523437,0 -0.5507812,0 -0.5507812,0.4453125 0,0.3164062 0.234375,0.4570312 0.4570312,0.4570312 0.1640625,0 0.4570313,-0.082031 0.4570313,-0.46875 0,-0.5976562 -0.4335938,-1.078125 -1.265625,-1.078125 -1.2773438,0 -2.61328126,1.2890625 -2.61328126,3.4804688 0,2.66015622 1.14843746,3.37499997 2.07421876,3.37499997 1.1132812,0 2.0507812,-0.9375 2.0507812,-2.24999997 0,-1.265625 -0.8789062,-2.2265625 -1.9921875,-2.2265625 -0.6679687,0 -1.0429687,0.5039062 -1.2421875,0.984375 z m 1.1835938,3.21093747 c -0.6210938,0 -0.9257813,-0.59765625 -0.984375,-0.75 C 1.3363984,-1.2760156 1.3363984,-2.0728906 1.3363984,-2.2486719 c 0,-0.7734375 0.3164063,-1.7695312 1.21875,-1.7695312 0.1523438,0 0.609375,0 0.9257813,0.609375 0.1757812,0.375 0.1757812,0.8789062 0.1757812,1.3710937 0,0.4804688 0,0.9726563 -0.1640625,1.33593752 -0.3046875,0.59765625 -0.7617187,0.64453125 -0.9960937,0.64453125 z m 0,0"
       style="fill:#000000;fill-opacity:1;fill-rule:nonzero;stroke:none"
       aria-label="6"
       transform="matrix(1.3333333,0,0,1.3333333,374.36267,109.64667)" />
    <path
       id="path72"
       d="m 4.5822266,-3.1863828 c 0,-0.796875 -0.046875,-1.59375 -0.3984375,-2.3320313 -0.4570313,-0.9609375 -1.2773438,-1.1132812 -1.6875,-1.1132812 -0.5976563,0 -1.3359375,0.2578125 -1.73437504,1.1835937 -0.328125,0.6914063 -0.375,1.4648438 -0.375,2.2617188 0,0.75 0.046875,1.640625 0.4453125,2.40234374 0.43359374,0.80859375 1.16015624,1.0078125 1.65234374,1.0078125 0.5390625,0 1.2890625,-0.2109375 1.734375,-1.16015625 C 4.5353516,-1.6277891 4.5822266,-2.4012266 4.5822266,-3.1863828 Z M 2.4845703,0.00111719 c -0.3867187,0 -0.984375,-0.24609375 -1.1601562,-1.20703129 -0.1054688,-0.5976562 -0.1054688,-1.5117187 -0.1054688,-2.0976562 0,-0.6445313 0,-1.3007813 0.082031,-1.8398438 0.1875,-1.1835937 0.9257812,-1.265625 1.1835937,-1.265625 0.328125,0 0.984375,0.1757813 1.171875,1.1601563 0.09375,0.5625 0.09375,1.3125 0.09375,1.9453125 0,0.75 0,1.4179687 -0.1054687,2.0625 -0.1523438,0.93749999 -0.7148438,1.24218749 -1.160156,1.24218749 z m 0,0"
       style="fill:#000000;fill-opacity:1;fill-rule:nonzero;stroke:none"
       aria-label="0"
       transform="matrix(1.3333333,0,0,1.3333333,195.43333,79.658667)" />
    <path
       id="path73"
       d="m 2.9301172,-6.3738828 c 0,-0.234375 0,-0.2578125 -0.234375,-0.2578125 -0.609375,0.6328125 -1.4882813,0.6328125 -1.80468751,0.6328125 v 0.3164062 c 0.19921871,0 0.78515621,0 1.30078121,-0.2578125 v 5.15625004 c 0,0.3515625 -0.035156,0.48046875 -0.9257812,0.48046875 H 0.94964844 v 0.3046875 C 1.3012109,-0.03403906 2.1566797,-0.03403906 2.5551172,-0.03403906 c 0.3984375,0 1.265625,0 1.6171875,0.03515625 v -0.3046875 H 3.8558984 c -0.9023437,0 -0.9257812,-0.1171875 -0.9257812,-0.48046875 z m 0,0"
       style="fill:#000000;fill-opacity:1;fill-rule:nonzero;stroke:none"
       aria-label="1"
       transform="matrix(1.3333333,0,0,1.3333333,225.25333,79.658667)" />
    <path
       id="path74"
       d="M 1.2652891,-0.76060156 2.3199766,-1.7918516 c 1.5585937,-1.3710937 2.15625,-1.9101562 2.15625,-2.90625 0,-1.1367187 -0.9023438,-1.9335937 -2.1210938,-1.9335937 -1.125,0 -1.85156249,0.9140625 -1.85156249,1.8046875 0,0.5507812 0.4921875,0.5507812 0.52734379,0.5507812 0.1640625,0 0.515625,-0.1171875 0.515625,-0.5273437 0,-0.2578125 -0.1875,-0.515625 -0.5273438,-0.515625 -0.0820312,0 -0.10546874,0 -0.12890624,0.011719 0.22265624,-0.6445312 0.76171874,-1.0195312 1.33593754,-1.0195312 0.9140625,0 1.3359375,0.8085937 1.3359375,1.6289062 0,0.796875 -0.4921875,1.5820313 -1.0429688,2.203125 L 0.60903906,-0.36216406 C 0.50357031,-0.25669531 0.50357031,-0.23325781 0.50357031,0.00111719 H 4.1949766 l 0.28125,-1.73437499 H 4.2184141 c -0.046875,0.3046875 -0.1171875,0.73828124 -0.2109375,0.89062499 -0.070313,0.0820313 -0.7265625,0.0820313 -0.9492188,0.0820313 z m 0,0"
       style="fill:#000000;fill-opacity:1;fill-rule:nonzero;stroke:none"
       aria-label="2"
       transform="matrix(1.3333333,0,0,1.3333333,255.07467,79.658667)" />
    <path
       id="path75"
       d="m 2.8944297,-3.5027891 c 0.8085937,-0.2695312 1.3945312,-0.9726562 1.3945312,-1.7578125 0,-0.8203125 -0.8789062,-1.3710937 -1.8398437,-1.3710937 -1.0078125,0 -1.75781251,0.5976562 -1.75781251,1.3476562 0,0.3398438 0.2109375,0.5273438 0.50390621,0.5273438 0.3046875,0 0.5039063,-0.2226563 0.5039063,-0.515625 0,-0.4921875 -0.46875,-0.4921875 -0.609375,-0.4921875 0.3046875,-0.4921875 0.9609375,-0.6210938 1.3242187,-0.6210938 0.4101563,0 0.9492188,0.2226563 0.9492188,1.1132813 0,0.1289062 -0.011719,0.703125 -0.2695313,1.1367187 -0.3046875,0.4804688 -0.6445312,0.515625 -0.890625,0.515625 -0.082031,0.011719 -0.3164062,0.035156 -0.3867187,0.035156 -0.082031,0.011719 -0.1523438,0.023437 -0.1523438,0.1171875 0,0.1171875 0.070312,0.1171875 0.234375,0.1171875 h 0.4453125 c 0.8085938,0 1.1835938,0.6679687 1.1835938,1.6523437 0,1.34765629 -0.6914063,1.64062504 -1.125,1.64062504 -0.4335938,0 -1.171875,-0.17578125 -1.52343751,-0.76171875 0.35156251,0.0585938 0.65625001,-0.1640625 0.65625001,-0.53906249 0,-0.3632813 -0.2695313,-0.5625 -0.56250001,-0.5625 -0.234375,0 -0.55078125,0.140625 -0.55078125,0.5742187 0,0.91406254 0.92578126,1.57031254 2.00390626,1.57031254 1.21875,0 2.1210937,-0.9140625 2.1210937,-1.92187504 0,-0.8203125 -0.6210937,-1.59375 -1.6523437,-1.8046872 z m 0,0"
       style="fill:#000000;fill-opacity:1;fill-rule:nonzero;stroke:none"
       aria-label="3"
       transform="matrix(1.3333333,0,0,1.3333333,284.89467,79.658667)" />
    <path
       id="path76"
       d="m 2.9296797,-1.6395078 v 0.86718749 c 0,0.3515625 -0.023437,0.46875 -0.7617188,0.46875 H 1.9570234 v 0.3046875 c 0.4101563,-0.03515625 0.9375,-0.03515625 1.3476563,-0.03515625 0.421875,0 0.9492187,0 1.359375,0.03515625 v -0.3046875 H 4.4531172 c -0.7382813,0 -0.7617188,-0.1171875 -0.7617188,-0.46875 V -1.6395078 H 4.6874922 V -1.9559141 H 3.6913984 v -4.5234375 c 0,-0.1992187 0,-0.2578125 -0.1523437,-0.2578125 -0.09375,0 -0.1171875,0 -0.1992188,0.1171875 l -3.05859371,4.6640625 v 0.3164063 z m 0.058594,-0.3164063 H 0.56249219 L 2.9882734,-5.6707578 Z m 0,0"
       style="fill:#000000;fill-opacity:1;fill-rule:nonzero;stroke:none"
       aria-label="4"
       transform="matrix(1.3333333,0,0,1.3333333,314.72267,79.658667)" />
    <path
       id="path77"
       d="m 4.4767891,-2.0027891 c 0,-1.1835937 -0.8203125,-2.1796875 -1.8984375,-2.1796875 -0.4804688,0 -0.9023438,0.1640625 -1.265625,0.5039063 v -1.9335938 c 0.1992187,0.058594 0.5273437,0.1289063 0.84375,0.1289063 1.2304687,0 1.9335937,-0.9140625 1.9335937,-1.0429688 0,-0.058594 -0.035156,-0.1054687 -0.1054687,-0.1054687 -0.011719,0 -0.035156,0 -0.082031,0.023437 -0.1992187,0.09375 -0.6796875,0.2929687 -1.3476562,0.2929687 -0.3984375,0 -0.8554688,-0.070312 -1.3242188,-0.28125 -0.082031,-0.023437 -0.1054687,-0.023437 -0.1289062,-0.023437 -0.09375,0 -0.09375,0.082031 -0.09375,0.234375 v 2.953125 c 0,0.1757813 0,0.2578125 0.140625,0.2578125 0.070312,0 0.082031,-0.035156 0.1289062,-0.09375 0.1054688,-0.1523437 0.4804688,-0.6914062 1.2773438,-0.6914062 0.5273437,0 0.7734375,0.4570312 0.8554687,0.6328125 0.1523438,0.375 0.1757813,0.7617187 0.1757813,1.2539062 0,0.3515625 0,0.9492188 -0.234375,1.37109379 -0.2460938,0.38671875 -0.609375,0.64453125 -1.0664063,0.64453125 -0.7265625,0 -1.30078124,-0.52734375 -1.46484374,-1.11328124 0.0234375,0.011719 0.0585938,0.011719 0.1640625,0.011719 0.32812504,0 0.50390624,-0.2460937 0.50390624,-0.4804687 0,-0.2460938 -0.1757812,-0.4921875 -0.50390624,-0.4921875 -0.140625,0 -0.48046875,0.070312 -0.48046875,0.5273437 0,0.85546879 0.67968749,1.82812504 1.79296879,1.82812504 1.1601562,0 2.1796875,-0.9609375 2.1796872,-2.22656284 z m 0,0"
       style="fill:#000000;fill-opacity:1;fill-rule:nonzero;stroke:none"
       aria-label="5"
       transform="matrix(1.3333333,0,0,1.3333333,344.54267,79.658667)" />
    <g
       id="g77"
       aria-label="−1"
       transform="matrix(1.3333333,0,0,1.3333333,160.44667,79.105333)">
      <path
         id="path78"
         d="m 6.5614844,-2.2967734 c 0.1757812,0 0.3515625,0 0.3515625,-0.1992188 0,-0.1992187 -0.1757813,-0.1992187 -0.3515625,-0.1992187 h -5.390625 c -0.1640625,0 -0.33984377,0 -0.33984377,0.1992187 0,0.1992188 0.17578127,0.1992188 0.33984377,0.1992188 z m 0,0"
         style="fill:#000000;fill-opacity:1;fill-rule:nonzero;stroke:none" />
      <path
         id="path79"
         d="m 10.677695,-6.3748984 c 0,-0.234375 0,-0.2578125 -0.234375,-0.2578125 -0.6093747,0.6328125 -1.4882809,0.6328125 -1.8046872,0.6328125 v 0.3164062 c 0.1992188,0 0.7851563,0 1.3007813,-0.2578125 v 5.15625001 c 0,0.3515625 -0.035156,0.48046875 -0.9257813,0.48046875 H 8.6972266 V 1.015625e-4 C 9.0487891,-0.03505469 9.9042578,-0.03505469 10.302695,-0.03505469 c 0.398438,0 1.265625,0 1.617188,0.0351562525 V -0.30458594 h -0.316406 c -0.902344,0 -0.925782,-0.1171875 -0.925782,-0.48046875 z m 0,0"
         style="fill:#000000;fill-opacity:1;fill-rule:nonzero;stroke:none" />
    </g>
    <g
       id="g79"
       aria-label="−2"
       transform="matrix(1.3333333,0,0,1.3333333,130.62667,79.105333)">
      <path
         id="path80"
         d="m 6.56125,-2.2967734 c 0.1757813,0 0.3515625,0 0.3515625,-0.1992188 0,-0.1992187 -0.1757812,-0.1992187 -0.3515625,-0.1992187 H 1.170625 c -0.1640625,0 -0.33984375,0 -0.33984375,0.1992187 0,0.1992188 0.17578125,0.1992188 0.33984375,0.1992188 z m 0,0"
         style="fill:#000000;fill-opacity:1;fill-rule:nonzero;stroke:none" />
      <path
         id="path81"
         d="M 9.0133984,-0.76161719 10.068086,-1.7928672 c 1.558594,-1.3710937 2.15625,-1.9101562 2.15625,-2.90625 0,-1.1367187 -0.902344,-1.9335937 -2.121094,-1.9335937 -1.1249998,0 -1.8515623,0.9140625 -1.8515623,1.8046875 0,0.5507812 0.4921875,0.5507812 0.5273437,0.5507812 0.1640625,0 0.515625,-0.1171875 0.515625,-0.5273437 0,-0.2578125 -0.1875,-0.515625 -0.5273437,-0.515625 -0.082031,0 -0.1054688,0 -0.1289063,0.011719 0.2226563,-0.6445312 0.7617188,-1.0195312 1.3359375,-1.0195312 0.9140621,0 1.3359371,0.8085937 1.3359371,1.6289062 0,0.796875 -0.492187,1.5820313 -1.042968,2.203125 L 8.3571484,-0.36317969 C 8.2516797,-0.25771094 8.2516797,-0.23427344 8.2516797,1.015625e-4 H 11.943086 L 12.224336,-1.7342734 h -0.257813 c -0.04687,0.3046875 -0.117187,0.73828121 -0.210937,0.89062496 -0.07031,0.0820313 -0.726563,0.0820313 -0.949219,0.0820313 z m 0,0"
         style="fill:#000000;fill-opacity:1;fill-rule:nonzero;stroke:none" />
    </g>
    <g
       id="g81"
       aria-label="−3"
       transform="matrix(1.3333333,0,0,1.3333333,100.80667,79.105333)">
      <path
         id="path82"
         d="m 6.5639453,-2.2967734 c 0.1757813,0 0.3515625,0 0.3515625,-0.1992188 0,-0.1992187 -0.1757812,-0.1992187 -0.3515625,-0.1992187 h -5.390625 c -0.1640625,0 -0.33984374,0 -0.33984374,0.1992187 0,0.1992188 0.17578124,0.1992188 0.33984374,0.1992188 z m 0,0"
         style="fill:#000000;fill-opacity:1;fill-rule:nonzero;stroke:none" />
      <path
         id="path83"
         d="m 10.64207,-3.5038047 c 0.808594,-0.2695312 1.394532,-0.9726562 1.394532,-1.7578125 0,-0.8203125 -0.878907,-1.3710937 -1.839844,-1.3710937 -1.0078127,0 -1.7578127,0.5976562 -1.7578127,1.3476562 0,0.3398438 0.2109375,0.5273438 0.5039063,0.5273438 0.3046875,0 0.5039062,-0.2226563 0.5039062,-0.515625 0,-0.4921875 -0.46875,-0.4921875 -0.609375,-0.4921875 0.3046875,-0.4921875 0.9609375,-0.6210938 1.3242192,-0.6210938 0.410156,0 0.949218,0.2226563 0.949218,1.1132813 0,0.1289062 -0.01172,0.703125 -0.269531,1.1367187 -0.304687,0.4804688 -0.644531,0.515625 -0.8906249,0.515625 -0.082031,0.011719 -0.3164063,0.035156 -0.3867188,0.035156 -0.082031,0.011719 -0.1523437,0.023437 -0.1523437,0.1171875 0,0.1171875 0.070312,0.1171875 0.234375,0.1171875 h 0.4453124 c 0.808594,0 1.183594,0.6679687 1.183594,1.6523437 0,1.34765626 -0.691406,1.64062501 -1.125,1.64062501 -0.4335939,0 -1.1718752,-0.17578125 -1.5234377,-0.76171875 0.3515625,0.0585938 0.65625,-0.1640625 0.65625,-0.53906246 0,-0.3632813 -0.2695312,-0.5625 -0.5625,-0.5625 -0.234375,0 -0.5507812,0.140625 -0.5507812,0.5742187 0,0.91406251 0.9257812,1.57031251 2.0039059,1.57031251 1.21875,0 2.121094,-0.9140625 2.121094,-1.92187501 0,-0.8203125 -0.621094,-1.59375 -1.652344,-1.8046872 z m 0,0"
         style="fill:#000000;fill-opacity:1;fill-rule:nonzero;stroke:none" />
    </g>
    <g
       id="g83"
       aria-label="−4"
       transform="matrix(1.3333333,0,0,1.3333333,70.985333,79.105333)">
      <path
         id="path84"
         d="m 6.5617812,-2.2967734 c 0.1757813,0 0.3515625,0 0.3515625,-0.1992188 0,-0.1992187 -0.1757812,-0.1992187 -0.3515625,-0.1992187 h -5.390625 c -0.1640625,0 -0.3398437,0 -0.3398437,0.1992187 0,0.1992188 0.1757812,0.1992188 0.3398437,0.1992188 z m 0,0"
         style="fill:#000000;fill-opacity:1;fill-rule:nonzero;stroke:none" />
      <path
         id="path85"
         d="m 10.677992,-1.6405234 v 0.86718746 c 0,0.3515625 -0.02344,0.46875 -0.7617186,0.46875 H 9.7053359 V 1.015625e-4 C 10.115492,-0.03505469 10.642836,-0.03505469 11.052992,-0.03505469 c 0.421875,0 0.949219,0 1.359375,0.0351562525 V -0.30458594 H 12.20143 c -0.738282,0 -0.761719,-0.1171875 -0.761719,-0.46875 V -1.6405234 h 0.996094 v -0.3164063 h -0.996094 v -4.5234375 c 0,-0.1992187 0,-0.2578125 -0.152344,-0.2578125 -0.09375,0 -0.117187,0 -0.199219,0.1171875 l -3.0585933,4.6640625 v 0.3164063 z m 0.05859,-0.3164063 H 8.3108047 l 2.4257813,-3.7148437 z m 0,0"
         style="fill:#000000;fill-opacity:1;fill-rule:nonzero;stroke:none" />
    </g>
    <g
       id="g85"
       aria-label="−5"
       transform="matrix(1.3333333,0,0,1.3333333,41.165333,79.105333)">
      <path
         id="path86"
         d="m 6.5615469,-2.2967734 c 0.1757812,0 0.3515625,0 0.3515625,-0.1992188 0,-0.1992187 -0.1757813,-0.1992187 -0.3515625,-0.1992187 h -5.390625 c -0.1640625,0 -0.33984378,0 -0.33984378,0.1992187 0,0.1992188 0.17578128,0.1992188 0.33984378,0.1992188 z m 0,0"
         style="fill:#000000;fill-opacity:1;fill-rule:nonzero;stroke:none" />
      <path
         id="path87"
         d="m 12.224633,-2.0038047 c 0,-1.1835937 -0.820313,-2.1796875 -1.898438,-2.1796875 -0.4804684,0 -0.9023434,0.1640625 -1.2656247,0.5039063 v -1.9335938 c 0.1992188,0.058594 0.5273438,0.1289063 0.84375,0.1289063 1.2304687,0 1.9335937,-0.9140625 1.9335937,-1.0429688 0,-0.058594 -0.03516,-0.1054687 -0.105469,-0.1054687 -0.01172,0 -0.03516,0 -0.08203,0.023437 -0.199219,0.09375 -0.679687,0.2929687 -1.347656,0.2929687 -0.3984377,0 -0.8554689,-0.070312 -1.3242189,-0.28125 -0.082031,-0.023437 -0.1054688,-0.023437 -0.1289063,-0.023437 -0.09375,0 -0.09375,0.082031 -0.09375,0.234375 v 2.953125 c 0,0.1757813 0,0.2578125 0.140625,0.2578125 0.070312,0 0.082031,-0.035156 0.1289063,-0.09375 0.1054687,-0.1523437 0.4804687,-0.6914062 1.2773439,-0.6914062 0.527344,0 0.773437,0.4570312 0.855469,0.6328125 0.152343,0.375 0.175781,0.7617187 0.175781,1.2539062 0,0.3515625 0,0.9492188 -0.234375,1.37109376 -0.246094,0.38671875 -0.609375,0.64453125 -1.066406,0.64453125 -0.7265629,0 -1.3007817,-0.52734375 -1.4648442,-1.11328121 0.023437,0.011719 0.058594,0.011719 0.1640625,0.011719 0.328125,0 0.5039063,-0.2460937 0.5039063,-0.4804687 0,-0.2460938 -0.1757813,-0.4921875 -0.5039063,-0.4921875 -0.140625,0 -0.4804687,0.070312 -0.4804687,0.5273437 0,0.85546876 0.6796875,1.82812501 1.7929684,1.82812501 1.160157,0 2.179688,-0.9609375 2.179688,-2.22656251 z m 0,0"
         style="fill:#000000;fill-opacity:1;fill-rule:nonzero;stroke:none" />
    </g>
    <g
       id="g87"
       aria-label="−6"
       transform="matrix(1.3333333,0,0,1.3333333,11.345333,79.105333)">
      <path
         id="path88"
         d="m 6.5613125,-2.2967734 c 0.1757812,0 0.3515625,0 0.3515625,-0.1992188 0,-0.1992187 -0.1757813,-0.1992187 -0.3515625,-0.1992187 h -5.390625 c -0.1640625,0 -0.33984375,0 -0.33984375,0.1992187 0,0.1992188 0.17578125,0.1992188 0.33984375,0.1992188 z m 0,0"
         style="fill:#000000;fill-opacity:1;fill-rule:nonzero;stroke:none" />
      <path
         id="path89"
         d="m 9.0603359,-3.2694297 v -0.234375 c 0,-2.5195312 1.2421871,-2.8828125 1.7460941,-2.8828125 0.234375,0 0.65625,0.058594 0.878906,0.3984375 -0.152344,0 -0.550781,0 -0.550781,0.4453125 0,0.3164063 0.234375,0.4570313 0.457031,0.4570313 0.164062,0 0.457031,-0.082031 0.457031,-0.46875 0,-0.5976563 -0.433594,-1.078125 -1.265625,-1.078125 -1.2773436,0 -2.6132811,1.2890625 -2.6132811,3.4804687 0,2.66015626 1.1484375,3.37500001 2.0742191,3.37500001 1.113281,0 2.050781,-0.9375 2.050781,-2.25000001 0,-1.265625 -0.878906,-2.2265625 -1.992188,-2.2265625 -0.6679683,0 -1.0429683,0.5039063 -1.2421871,0.984375 z m 1.1835941,3.21093751 c -0.6210941,0 -0.9257816,-0.59765625 -0.9843753,-0.75 C 9.0837734,-1.2772422 9.0837734,-2.0741172 9.0837734,-2.2498984 c 0,-0.7734375 0.3164063,-1.7695313 1.2187496,-1.7695313 0.152344,0 0.609375,0 0.925782,0.609375 0.175781,0.375 0.175781,0.8789063 0.175781,1.3710938 0,0.4804687 0,0.9726562 -0.164063,1.33593746 -0.304687,0.59765625 -0.761718,0.64453125 -0.996093,0.64453125 z m 0,0"
         style="fill:#000000;fill-opacity:1;fill-rule:nonzero;stroke:none" />
    </g>
    <path
       id="path90"
       d="m 1.3129609,-3.2684141 v -0.234375 c 0,-2.5195312 1.2421875,-2.8828125 1.7460938,-2.8828125 0.234375,0 0.65625,0.058594 0.8789062,0.3984375 -0.1523437,0 -0.5507812,0 -0.5507812,0.4453125 0,0.3164063 0.234375,0.4570313 0.4570312,0.4570313 0.1640625,0 0.4570313,-0.082031 0.4570313,-0.46875 0,-0.5976563 -0.4335938,-1.078125 -1.265625,-1.078125 -1.2773438,0 -2.61328126,1.2890625 -2.61328126,3.4804687 0,2.66015629 1.14843746,3.37500004 2.07421876,3.37500004 1.1132812,0 2.0507812,-0.9375 2.0507812,-2.25000004 0,-1.265625 -0.8789062,-2.2265625 -1.9921875,-2.2265625 -0.6679687,0 -1.0429687,0.5039063 -1.2421875,0.984375 z m 1.1835938,3.21093754 c -0.6210938,0 -0.9257813,-0.59765625 -0.984375,-0.75 C 1.3363984,-1.2762266 1.3363984,-2.0731016 1.3363984,-2.2488828 c 0,-0.7734375 0.3164063,-1.7695313 1.21875,-1.7695313 0.1523438,0 0.609375,0 0.9257813,0.609375 0.1757812,0.375 0.1757812,0.8789063 0.1757812,1.3710938 0,0.4804687 0,0.9726562 -0.1640625,1.33593749 -0.3046875,0.59765625 -0.7617187,0.64453125 -0.9960937,0.64453125 z m 0,0"
       style="fill:#000000;fill-opacity:1;fill-rule:nonzero;stroke:none"
       aria-label="6"
       transform="matrix(1.3333333,0,0,1.3333333,374.36267,79.658667)" />
    <path
       id="path91"
       d="m 4.5822266,-3.1865938 c 0,-0.796875 -0.046875,-1.59375 -0.3984375,-2.3320312 -0.4570313,-0.9609375 -1.2773438,-1.1132813 -1.6875,-1.1132813 -0.5976563,0 -1.3359375,0.2578125 -1.73437504,1.1835938 -0.328125,0.6914062 -0.375,1.4648437 -0.375,2.2617187 0,0.75 0.046875,1.640625 0.4453125,2.4023438 0.43359374,0.80859375 1.16015624,1.0078125 1.65234374,1.0078125 0.5390625,0 1.2890625,-0.2109375 1.734375,-1.16015625 C 4.5353516,-1.628 4.5822266,-2.4014375 4.5822266,-3.1865938 Z M 2.4845703,9.0625e-4 c -0.3867187,0 -0.984375,-0.24609375 -1.1601562,-1.20703125 -0.1054688,-0.5976563 -0.1054688,-1.5117188 -0.1054688,-2.0976563 0,-0.6445312 0,-1.3007812 0.082031,-1.8398437 0.1875,-1.1835938 0.9257812,-1.265625 1.1835937,-1.265625 0.328125,0 0.984375,0.1757812 1.171875,1.1601562 0.09375,0.5625 0.09375,1.3125 0.09375,1.9453125 0,0.75 0,1.4179688 -0.1054687,2.0625 C 3.4923828,-0.30378125 2.9298828,9.0625e-4 2.4845703,9.0625e-4 Z m 0,0"
       style="fill:#000000;fill-opacity:1;fill-rule:nonzero;stroke:none"
       aria-label="0"
       transform="matrix(1.3333333,0,0,1.3333333,195.43333,49.670667)" />
    <path
       id="path92"
       d="m 2.9301172,-6.3740938 c 0,-0.234375 0,-0.2578125 -0.234375,-0.2578125 -0.609375,0.6328125 -1.4882813,0.6328125 -1.80468751,0.6328125 v 0.3164063 c 0.19921871,0 0.78515621,0 1.30078121,-0.2578125 v 5.15625 c 0,0.3515625 -0.035156,0.48046875 -0.9257812,0.48046875 H 0.94964844 V 9.0625e-4 C 1.3012109,-0.03425 2.1566797,-0.03425 2.5551172,-0.03425 c 0.3984375,0 1.265625,0 1.6171875,0.03515625 v -0.3046875 H 3.8558984 c -0.9023437,0 -0.9257812,-0.1171875 -0.9257812,-0.48046875 z m 0,0"
       style="fill:#000000;fill-opacity:1;fill-rule:nonzero;stroke:none"
       aria-label="1"
       transform="matrix(1.3333333,0,0,1.3333333,225.25333,49.670667)" />
    <path
       id="path93"
       d="m 1.2652891,-0.7608125 1.0546875,-1.03125 c 1.5585937,-1.3710938 2.15625,-1.9101563 2.15625,-2.90625 0,-1.1367188 -0.9023438,-1.9335938 -2.1210938,-1.9335938 -1.125,0 -1.85156249,0.9140625 -1.85156249,1.8046875 0,0.5507813 0.4921875,0.5507813 0.52734379,0.5507813 0.1640625,0 0.515625,-0.1171875 0.515625,-0.5273438 0,-0.2578125 -0.1875,-0.515625 -0.5273438,-0.515625 -0.0820312,0 -0.10546874,0 -0.12890624,0.011719 0.22265624,-0.6445313 0.76171874,-1.0195313 1.33593754,-1.0195313 0.9140625,0 1.3359375,0.8085938 1.3359375,1.6289063 0,0.796875 -0.4921875,1.5820312 -1.0429688,2.203125 L 0.60903906,-0.362375 C 0.50357031,-0.25690625 0.50357031,-0.23346875 0.50357031,9.0625e-4 H 4.1949766 l 0.28125,-1.73437505 H 4.2184141 c -0.046875,0.3046875 -0.1171875,0.7382813 -0.2109375,0.89062505 -0.070313,0.0820313 -0.7265625,0.0820313 -0.9492188,0.0820313 z m 0,0"
       style="fill:#000000;fill-opacity:1;fill-rule:nonzero;stroke:none"
       aria-label="2"
       transform="matrix(1.3333333,0,0,1.3333333,255.07467,49.670667)" />
    <path
       id="path94"
       d="m 2.8944297,-3.503 c 0.8085937,-0.2695313 1.3945312,-0.9726563 1.3945312,-1.7578125 0,-0.8203125 -0.8789062,-1.3710938 -1.8398437,-1.3710938 -1.0078125,0 -1.75781251,0.5976563 -1.75781251,1.3476563 0,0.3398437 0.2109375,0.5273437 0.50390621,0.5273437 0.3046875,0 0.5039063,-0.2226562 0.5039063,-0.515625 0,-0.4921875 -0.46875,-0.4921875 -0.609375,-0.4921875 0.3046875,-0.4921875 0.9609375,-0.6210937 1.3242187,-0.6210937 0.4101563,0 0.9492188,0.2226562 0.9492188,1.1132812 0,0.1289063 -0.011719,0.703125 -0.2695313,1.1367188 -0.3046875,0.4804687 -0.6445312,0.515625 -0.890625,0.515625 -0.082031,0.011719 -0.3164062,0.035156 -0.3867187,0.035156 -0.082031,0.011719 -0.1523438,0.023437 -0.1523438,0.1171875 0,0.1171875 0.070312,0.1171875 0.234375,0.1171875 h 0.4453125 c 0.8085938,0 1.1835938,0.6679688 1.1835938,1.6523438 0,1.34765625 -0.6914063,1.640625 -1.125,1.640625 -0.4335938,0 -1.171875,-0.17578125 -1.52343751,-0.76171875 0.35156251,0.0585938 0.65625001,-0.1640625 0.65625001,-0.53906255 0,-0.3632812 -0.2695313,-0.5625 -0.56250001,-0.5625 -0.234375,0 -0.55078125,0.140625 -0.55078125,0.5742188 0,0.9140625 0.92578126,1.5703125 2.00390626,1.5703125 1.21875,0 2.1210937,-0.9140625 2.1210937,-1.921875 0,-0.8203125 -0.6210937,-1.59375 -1.6523437,-1.8046873 z m 0,0"
       style="fill:#000000;fill-opacity:1;fill-rule:nonzero;stroke:none"
       aria-label="3"
       transform="matrix(1.3333333,0,0,1.3333333,284.89467,49.670667)" />
    <path
       id="path95"
       d="m 2.9296797,-1.6397188 v 0.86718755 c 0,0.3515625 -0.023437,0.46875 -0.7617188,0.46875 H 1.9570234 V 9.0625e-4 C 2.3671797,-0.03425 2.8945234,-0.03425 3.3046797,-0.03425 c 0.421875,0 0.9492187,0 1.359375,0.03515625 v -0.3046875 H 4.4531172 c -0.7382813,0 -0.7617188,-0.1171875 -0.7617188,-0.46875 V -1.6397188 H 4.6874922 V -1.956125 H 3.6913984 v -4.5234375 c 0,-0.1992188 0,-0.2578125 -0.1523437,-0.2578125 -0.09375,0 -0.1171875,0 -0.1992188,0.1171875 L 0.28124219,-1.956125 v 0.3164062 z M 2.9882734,-1.956125 H 0.56249219 L 2.9882734,-5.6709688 Z m 0,0"
       style="fill:#000000;fill-opacity:1;fill-rule:nonzero;stroke:none"
       aria-label="4"
       transform="matrix(1.3333333,0,0,1.3333333,314.72267,49.670667)" />
    <path
       id="path96"
       d="m 4.4767891,-2.003 c 0,-1.1835938 -0.8203125,-2.1796875 -1.8984375,-2.1796875 -0.4804688,0 -0.9023438,0.1640625 -1.265625,0.5039062 V -5.612375 c 0.1992187,0.058594 0.5273437,0.1289062 0.84375,0.1289062 1.2304687,0 1.9335937,-0.9140625 1.9335937,-1.0429687 0,-0.058594 -0.035156,-0.1054688 -0.1054687,-0.1054688 -0.011719,0 -0.035156,0 -0.082031,0.023437 -0.1992187,0.09375 -0.6796875,0.2929688 -1.3476562,0.2929688 -0.3984375,0 -0.8554688,-0.070312 -1.3242188,-0.28125 -0.082031,-0.023437 -0.1054687,-0.023437 -0.1289062,-0.023437 -0.09375,0 -0.09375,0.082031 -0.09375,0.234375 v 2.953125 c 0,0.1757812 0,0.2578125 0.140625,0.2578125 0.070312,0 0.082031,-0.035156 0.1289062,-0.09375 0.1054688,-0.1523438 0.4804688,-0.6914063 1.2773438,-0.6914063 0.5273437,0 0.7734375,0.4570313 0.8554687,0.6328125 0.1523438,0.375 0.1757813,0.7617188 0.1757813,1.2539063 0,0.3515625 0,0.9492187 -0.234375,1.37109375 C 3.1056953,-0.3155 2.7424141,-0.0576875 2.2853828,-0.0576875 c -0.7265625,0 -1.30078124,-0.52734375 -1.46484374,-1.1132813 0.0234375,0.011719 0.0585938,0.011719 0.1640625,0.011719 0.32812504,0 0.50390624,-0.2460938 0.50390624,-0.4804688 0,-0.2460937 -0.1757812,-0.4921875 -0.50390624,-0.4921875 -0.140625,0 -0.48046875,0.070312 -0.48046875,0.5273438 0,0.85546875 0.67968749,1.828125 1.79296879,1.828125 1.1601562,0 2.1796875,-0.9609375 2.1796875,-2.2265627 z m 0,0"
       style="fill:#000000;fill-opacity:1;fill-rule:nonzero;stroke:none"
       aria-label="5"
       transform="matrix(1.3333333,0,0,1.3333333,344.54267,49.670667)" />
    <g
       id="g96"
       aria-label="−1"
       transform="matrix(1.3333333,0,0,1.3333333,160.44667,49.117333)">
      <path
         id="path97"
         d="m 6.5614844,-2.2969844 c 0.1757812,0 0.3515625,0 0.3515625,-0.1992187 0,-0.1992188 -0.1757813,-0.1992188 -0.3515625,-0.1992188 h -5.390625 c -0.1640625,0 -0.33984377,0 -0.33984377,0.1992188 0,0.1992187 0.17578127,0.1992187 0.33984377,0.1992187 z m 0,0"
         style="fill:#000000;fill-opacity:1;fill-rule:nonzero;stroke:none" />
      <path
         id="path98"
         d="m 10.677695,-6.3751094 c 0,-0.234375 0,-0.2578125 -0.234375,-0.2578125 -0.6093747,0.6328125 -1.4882809,0.6328125 -1.8046872,0.6328125 v 0.3164063 c 0.1992188,0 0.7851563,0 1.3007813,-0.2578125 v 5.15624997 c 0,0.3515625 -0.035156,0.48046875 -0.9257813,0.48046875 H 8.6972266 V -1.09375e-4 C 9.0487891,-0.03526563 9.9042578,-0.03526563 10.302695,-0.03526563 c 0.398438,0 1.265625,0 1.617188,0.035156255 V -0.30479688 h -0.316406 c -0.902344,0 -0.925782,-0.1171875 -0.925782,-0.48046875 z m 0,0"
         style="fill:#000000;fill-opacity:1;fill-rule:nonzero;stroke:none" />
    </g>
    <g
       id="g98"
       aria-label="−2"
       transform="matrix(1.3333333,0,0,1.3333333,130.62667,49.117333)">
      <path
         id="path99"
         d="m 6.56125,-2.2969844 c 0.1757813,0 0.3515625,0 0.3515625,-0.1992187 0,-0.1992188 -0.1757812,-0.1992188 -0.3515625,-0.1992188 H 1.170625 c -0.1640625,0 -0.33984375,0 -0.33984375,0.1992188 0,0.1992187 0.17578125,0.1992187 0.33984375,0.1992187 z m 0,0"
         style="fill:#000000;fill-opacity:1;fill-rule:nonzero;stroke:none" />
      <path
         id="path100"
         d="M 9.0133984,-0.76182813 10.068086,-1.7930781 c 1.558594,-1.3710938 2.15625,-1.9101563 2.15625,-2.90625 0,-1.1367188 -0.902344,-1.9335938 -2.121094,-1.9335938 -1.1249998,0 -1.8515623,0.9140625 -1.8515623,1.8046875 0,0.5507813 0.4921875,0.5507813 0.5273437,0.5507813 0.1640625,0 0.515625,-0.1171875 0.515625,-0.5273438 0,-0.2578125 -0.1875,-0.515625 -0.5273437,-0.515625 -0.082031,0 -0.1054688,0 -0.1289063,0.011719 0.2226563,-0.6445313 0.7617188,-1.0195313 1.3359375,-1.0195313 0.9140621,0 1.3359371,0.8085938 1.3359371,1.6289063 0,0.796875 -0.492187,1.5820312 -1.042968,2.203125 L 8.3571484,-0.36339063 C 8.2516797,-0.25792188 8.2516797,-0.23448438 8.2516797,-1.09375e-4 h 3.6914063 l 0.28125,-1.734375025 h -0.257813 c -0.04687,0.3046875 -0.117187,0.73828127 -0.210937,0.89062502 -0.07031,0.0820313 -0.726563,0.0820313 -0.949219,0.0820313 z m 0,0"
         style="fill:#000000;fill-opacity:1;fill-rule:nonzero;stroke:none" />
    </g>
    <g
       id="g100"
       aria-label="−3"
       transform="matrix(1.3333333,0,0,1.3333333,100.80667,49.117333)">
      <path
         id="path101"
         d="m 6.5639453,-2.2969844 c 0.1757813,0 0.3515625,0 0.3515625,-0.1992187 0,-0.1992188 -0.1757812,-0.1992188 -0.3515625,-0.1992188 h -5.390625 c -0.1640625,0 -0.33984374,0 -0.33984374,0.1992188 0,0.1992187 0.17578124,0.1992187 0.33984374,0.1992187 z m 0,0"
         style="fill:#000000;fill-opacity:1;fill-rule:nonzero;stroke:none" />
      <path
         id="path102"
         d="m 10.64207,-3.5040156 c 0.808594,-0.2695313 1.394532,-0.9726563 1.394532,-1.7578125 0,-0.8203125 -0.878907,-1.3710938 -1.839844,-1.3710938 -1.0078127,0 -1.7578127,0.5976563 -1.7578127,1.3476563 0,0.3398437 0.2109375,0.5273437 0.5039063,0.5273437 0.3046875,0 0.5039062,-0.2226562 0.5039062,-0.515625 0,-0.4921875 -0.46875,-0.4921875 -0.609375,-0.4921875 0.3046875,-0.4921875 0.9609375,-0.6210937 1.3242192,-0.6210937 0.410156,0 0.949218,0.2226562 0.949218,1.1132812 0,0.1289063 -0.01172,0.703125 -0.269531,1.1367188 -0.304687,0.4804687 -0.644531,0.515625 -0.8906249,0.515625 -0.082031,0.011719 -0.3164063,0.035156 -0.3867188,0.035156 -0.082031,0.011719 -0.1523437,0.023437 -0.1523437,0.1171875 0,0.1171875 0.070312,0.1171875 0.234375,0.1171875 h 0.4453124 c 0.808594,0 1.183594,0.6679688 1.183594,1.6523438 0,1.34765622 -0.691406,1.64062497 -1.125,1.64062497 -0.4335939,0 -1.1718752,-0.17578125 -1.5234377,-0.76171875 0.3515625,0.0585938 0.65625,-0.1640625 0.65625,-0.53906252 0,-0.3632812 -0.2695312,-0.5625 -0.5625,-0.5625 -0.234375,0 -0.5507812,0.140625 -0.5507812,0.5742188 0,0.91406247 0.9257812,1.57031247 2.0039059,1.57031247 1.21875,0 2.121094,-0.9140625 2.121094,-1.92187497 0,-0.8203125 -0.621094,-1.59375 -1.652344,-1.8046873 z m 0,0"
         style="fill:#000000;fill-opacity:1;fill-rule:nonzero;stroke:none" />
    </g>
    <g
       id="g102"
       aria-label="−4"
       transform="matrix(1.3333333,0,0,1.3333333,70.985333,49.117333)">
      <path
         id="path103"
         d="m 6.5617812,-2.2969844 c 0.1757813,0 0.3515625,0 0.3515625,-0.1992187 0,-0.1992188 -0.1757812,-0.1992188 -0.3515625,-0.1992188 h -5.390625 c -0.1640625,0 -0.3398437,0 -0.3398437,0.1992188 0,0.1992187 0.1757812,0.1992187 0.3398437,0.1992187 z m 0,0"
         style="fill:#000000;fill-opacity:1;fill-rule:nonzero;stroke:none" />
      <path
         id="path104"
         d="m 10.677992,-1.6407344 v 0.86718752 c 0,0.3515625 -0.02344,0.46875 -0.7617186,0.46875 H 9.7053359 V -1.09375e-4 C 10.115492,-0.03526563 10.642836,-0.03526563 11.052992,-0.03526563 c 0.421875,0 0.949219,0 1.359375,0.035156255 V -0.30479688 H 12.20143 c -0.738282,0 -0.761719,-0.1171875 -0.761719,-0.46875 V -1.6407344 h 0.996094 v -0.3164062 h -0.996094 v -4.5234375 c 0,-0.1992188 0,-0.2578125 -0.152344,-0.2578125 -0.09375,0 -0.117187,0 -0.199219,0.1171875 l -3.0585933,4.6640625 v 0.3164062 z m 0.05859,-0.3164062 H 8.3108047 l 2.4257813,-3.7148438 z m 0,0"
         style="fill:#000000;fill-opacity:1;fill-rule:nonzero;stroke:none" />
    </g>
    <g
       id="g104"
       aria-label="−5"
       transform="matrix(1.3333333,0,0,1.3333333,41.165333,49.117333)">
      <path
         id="path105"
         d="m 6.5615469,-2.2969844 c 0.1757812,0 0.3515625,0 0.3515625,-0.1992187 0,-0.1992188 -0.1757813,-0.1992188 -0.3515625,-0.1992188 h -5.390625 c -0.1640625,0 -0.33984378,0 -0.33984378,0.1992188 0,0.1992187 0.17578128,0.1992187 0.33984378,0.1992187 z m 0,0"
         style="fill:#000000;fill-opacity:1;fill-rule:nonzero;stroke:none" />
      <path
         id="path106"
         d="m 12.224633,-2.0040156 c 0,-1.1835938 -0.820313,-2.1796875 -1.898438,-2.1796875 -0.4804684,0 -0.9023434,0.1640625 -1.2656247,0.5039062 v -1.9335937 c 0.1992188,0.058594 0.5273438,0.1289062 0.84375,0.1289062 1.2304687,0 1.9335937,-0.9140625 1.9335937,-1.0429687 0,-0.058594 -0.03516,-0.1054688 -0.105469,-0.1054688 -0.01172,0 -0.03516,0 -0.08203,0.023437 -0.199219,0.09375 -0.679687,0.2929688 -1.347656,0.2929688 -0.3984377,0 -0.8554689,-0.070312 -1.3242189,-0.28125 -0.082031,-0.023437 -0.1054688,-0.023437 -0.1289063,-0.023437 -0.09375,0 -0.09375,0.082031 -0.09375,0.234375 v 2.953125 c 0,0.1757812 0,0.2578125 0.140625,0.2578125 0.070312,0 0.082031,-0.035156 0.1289063,-0.09375 0.1054687,-0.1523438 0.4804687,-0.6914063 1.2773439,-0.6914063 0.527344,0 0.773437,0.4570313 0.855469,0.6328125 0.152343,0.375 0.175781,0.7617188 0.175781,1.2539063 0,0.3515625 0,0.9492187 -0.234375,1.37109372 -0.246094,0.38671875 -0.609375,0.64453125 -1.066406,0.64453125 -0.7265629,0 -1.3007817,-0.52734375 -1.4648442,-1.11328127 0.023437,0.011719 0.058594,0.011719 0.1640625,0.011719 0.328125,0 0.5039063,-0.2460938 0.5039063,-0.4804688 0,-0.2460937 -0.1757813,-0.4921875 -0.5039063,-0.4921875 -0.140625,0 -0.4804687,0.070312 -0.4804687,0.5273438 0,0.85546872 0.6796875,1.82812497 1.7929684,1.82812497 1.160157,0 2.179688,-0.9609375 2.179688,-2.22656247 z m 0,0"
         style="fill:#000000;fill-opacity:1;fill-rule:nonzero;stroke:none" />
    </g>
    <g
       id="g106"
       aria-label="−6"
       transform="matrix(1.3333333,0,0,1.3333333,11.345333,49.117333)">
      <path
         id="path107"
         d="m 6.5613125,-2.2969844 c 0.1757812,0 0.3515625,0 0.3515625,-0.1992187 0,-0.1992188 -0.1757813,-0.1992188 -0.3515625,-0.1992188 h -5.390625 c -0.1640625,0 -0.33984375,0 -0.33984375,0.1992188 0,0.1992187 0.17578125,0.1992187 0.33984375,0.1992187 z m 0,0"
         style="fill:#000000;fill-opacity:1;fill-rule:nonzero;stroke:none" />
      <path
         id="path108"
         d="m 9.0603359,-3.2696406 v -0.234375 c 0,-2.5195313 1.2421871,-2.8828125 1.7460941,-2.8828125 0.234375,0 0.65625,0.058594 0.878906,0.3984375 -0.152344,0 -0.550781,0 -0.550781,0.4453125 0,0.3164062 0.234375,0.4570312 0.457031,0.4570312 0.164062,0 0.457031,-0.082031 0.457031,-0.46875 0,-0.5976562 -0.433594,-1.078125 -1.265625,-1.078125 -1.2773436,0 -2.6132811,1.2890625 -2.6132811,3.4804688 0,2.66015622 1.1484375,3.37499997 2.0742191,3.37499997 1.113281,0 2.050781,-0.9375 2.050781,-2.24999997 0,-1.265625 -0.878906,-2.2265625 -1.992188,-2.2265625 -0.6679683,0 -1.0429683,0.5039062 -1.2421871,0.984375 z m 1.1835941,3.21093747 c -0.6210941,0 -0.9257816,-0.59765625 -0.9843753,-0.75 C 9.0837734,-1.2774531 9.0837734,-2.0743281 9.0837734,-2.2501094 c 0,-0.7734375 0.3164063,-1.7695312 1.2187496,-1.7695312 0.152344,0 0.609375,0 0.925782,0.609375 0.175781,0.375 0.175781,0.8789062 0.175781,1.3710937 0,0.4804688 0,0.9726563 -0.164063,1.33593752 -0.304687,0.59765625 -0.761718,0.64453125 -0.996093,0.64453125 z m 0,0"
         style="fill:#000000;fill-opacity:1;fill-rule:nonzero;stroke:none" />
    </g>
    <path
       id="path109"
       d="M 1.3129609,-3.268625 V -3.503 c 0,-2.5195313 1.2421875,-2.8828125 1.7460938,-2.8828125 0.234375,0 0.65625,0.058594 0.8789062,0.3984375 -0.1523437,0 -0.5507812,0 -0.5507812,0.4453125 0,0.3164062 0.234375,0.4570312 0.4570312,0.4570312 0.1640625,0 0.4570313,-0.082031 0.4570313,-0.46875 0,-0.5976562 -0.4335938,-1.078125 -1.265625,-1.078125 -1.2773438,0 -2.61328126,1.2890625 -2.61328126,3.4804688 0,2.66015625 1.14843746,3.375 2.07421876,3.375 1.1132812,0 2.0507812,-0.9375 2.0507812,-2.25 0,-1.265625 -0.8789062,-2.2265625 -1.9921875,-2.2265625 -0.6679687,0 -1.0429687,0.5039062 -1.2421875,0.984375 z m 1.1835938,3.2109375 c -0.6210938,0 -0.9257813,-0.59765625 -0.984375,-0.75 -0.1757813,-0.46875 -0.1757813,-1.265625 -0.1757813,-1.4414063 0,-0.7734375 0.3164063,-1.7695312 1.21875,-1.7695312 0.1523438,0 0.609375,0 0.9257813,0.609375 0.1757812,0.375 0.1757812,0.8789062 0.1757812,1.3710937 0,0.4804688 0,0.9726563 -0.1640625,1.33593755 C 3.1879609,-0.1045625 2.7309297,-0.0576875 2.4965547,-0.0576875 Z m 0,0"
       style="fill:#000000;fill-opacity:1;fill-rule:nonzero;stroke:none"
       aria-label="6"
       transform="matrix(1.3333333,0,0,1.3333333,374.36267,49.670667)" />
    <path
       id="path110"
       d="m 4.5822266,-3.1868047 c 0,-0.796875 -0.046875,-1.59375 -0.3984375,-2.3320312 -0.4570313,-0.9609375 -1.2773438,-1.1132813 -1.6875,-1.1132813 -0.5976563,0 -1.3359375,0.2578125 -1.73437504,1.1835938 -0.328125,0.6914062 -0.375,1.4648437 -0.375,2.2617187 0,0.75 0.046875,1.640625 0.4453125,2.40234376 0.43359374,0.80859375 1.16015624,1.0078125 1.65234374,1.0078125 0.5390625,0 1.2890625,-0.2109375 1.734375,-1.16015625 C 4.5353516,-1.6282109 4.5822266,-2.4016484 4.5822266,-3.1868047 Z M 2.4845703,6.953125e-4 c -0.3867187,0 -0.984375,-0.2460937525 -1.1601562,-1.2070312125 -0.1054688,-0.5976563 -0.1054688,-1.5117188 -0.1054688,-2.0976563 0,-0.6445312 0,-1.3007812 0.082031,-1.8398437 0.1875,-1.1835938 0.9257812,-1.265625 1.1835937,-1.265625 0.328125,0 0.984375,0.1757812 1.171875,1.1601562 0.09375,0.5625 0.09375,1.3125 0.09375,1.9453125 0,0.75 0,1.4179688 -0.1054687,2.0625 C 3.4923828,-0.30399219 2.9298828,6.953125e-4 2.4845703,6.953125e-4 Z m 0,0"
       style="fill:#000000;fill-opacity:1;fill-rule:nonzero;stroke:none"
       aria-label="0"
       transform="matrix(1.3333333,0,0,1.3333333,195.43333,19.682667)" />
    <path
       id="path111"
       d="m 2.9301172,-6.3743047 c 0,-0.234375 0,-0.2578125 -0.234375,-0.2578125 -0.609375,0.6328125 -1.4882813,0.6328125 -1.80468751,0.6328125 v 0.3164063 c 0.19921871,0 0.78515621,0 1.30078121,-0.2578125 v 5.15624996 c 0,0.3515625 -0.035156,0.48046875 -0.9257812,0.48046875 H 0.94964844 V 6.953125e-4 C 1.3012109,-0.03446094 2.1566797,-0.03446094 2.5551172,-0.03446094 c 0.3984375,0 1.265625,0 1.6171875,0.0351562525 V -0.30399219 H 3.8558984 c -0.9023437,0 -0.9257812,-0.1171875 -0.9257812,-0.48046875 z m 0,0"
       style="fill:#000000;fill-opacity:1;fill-rule:nonzero;stroke:none"
       aria-label="1"
       transform="matrix(1.3333333,0,0,1.3333333,225.25333,19.682667)" />
    <path
       id="path112"
       d="M 1.2652891,-0.76102344 2.3199766,-1.7922734 c 1.5585937,-1.3710938 2.15625,-1.9101563 2.15625,-2.90625 0,-1.1367188 -0.9023438,-1.9335938 -2.1210938,-1.9335938 -1.125,0 -1.85156249,0.9140625 -1.85156249,1.8046875 0,0.5507813 0.4921875,0.5507813 0.52734379,0.5507813 0.1640625,0 0.515625,-0.1171875 0.515625,-0.5273438 0,-0.2578125 -0.1875,-0.515625 -0.5273438,-0.515625 -0.0820312,0 -0.10546874,0 -0.12890624,0.011719 0.22265624,-0.6445313 0.76171874,-1.0195313 1.33593754,-1.0195313 0.9140625,0 1.3359375,0.8085938 1.3359375,1.6289063 0,0.796875 -0.4921875,1.5820312 -1.0429688,2.203125 L 0.60903906,-0.36258594 C 0.50357031,-0.25711719 0.50357031,-0.23367969 0.50357031,6.953125e-4 H 4.1949766 L 4.4762266,-1.7336797 H 4.2184141 c -0.046875,0.3046875 -0.1171875,0.73828126 -0.2109375,0.89062501 -0.070313,0.0820313 -0.7265625,0.0820313 -0.9492188,0.0820313 z m 0,0"
       style="fill:#000000;fill-opacity:1;fill-rule:nonzero;stroke:none"
       aria-label="2"
       transform="matrix(1.3333333,0,0,1.3333333,255.07467,19.682667)" />
    <path
       id="path113"
       d="m 2.8944297,-3.5032109 c 0.8085937,-0.2695313 1.3945312,-0.9726563 1.3945312,-1.7578125 0,-0.8203125 -0.8789062,-1.3710938 -1.8398437,-1.3710938 -1.0078125,0 -1.75781251,0.5976563 -1.75781251,1.3476563 0,0.3398437 0.2109375,0.5273437 0.50390621,0.5273437 0.3046875,0 0.5039063,-0.2226562 0.5039063,-0.515625 0,-0.4921875 -0.46875,-0.4921875 -0.609375,-0.4921875 0.3046875,-0.4921875 0.9609375,-0.6210937 1.3242187,-0.6210937 0.4101563,0 0.9492188,0.2226562 0.9492188,1.1132812 0,0.1289063 -0.011719,0.703125 -0.2695313,1.1367188 -0.3046875,0.4804687 -0.6445312,0.515625 -0.890625,0.515625 -0.082031,0.011719 -0.3164062,0.035156 -0.3867187,0.035156 -0.082031,0.011719 -0.1523438,0.023437 -0.1523438,0.1171875 0,0.1171875 0.070312,0.1171875 0.234375,0.1171875 h 0.4453125 c 0.8085938,0 1.1835938,0.6679688 1.1835938,1.6523438 0,1.34765621 -0.6914063,1.64062496 -1.125,1.64062496 -0.4335938,0 -1.171875,-0.17578125 -1.52343751,-0.76171875 0.35156251,0.0585938 0.65625001,-0.1640625 0.65625001,-0.53906251 0,-0.3632812 -0.2695313,-0.5625 -0.56250001,-0.5625 -0.234375,0 -0.55078125,0.140625 -0.55078125,0.5742188 0,0.91406246 0.92578126,1.57031246 2.00390626,1.57031246 1.21875,0 2.1210937,-0.9140625 2.1210937,-1.92187496 0,-0.8203125 -0.6210937,-1.59375 -1.6523437,-1.8046873 z m 0,0"
       style="fill:#000000;fill-opacity:1;fill-rule:nonzero;stroke:none"
       aria-label="3"
       transform="matrix(1.3333333,0,0,1.3333333,284.89467,19.682667)" />
    <path
       id="path114"
       d="m 2.9296797,-1.6399297 v 0.86718751 c 0,0.3515625 -0.023437,0.46875 -0.7617188,0.46875 H 1.9570234 V 6.953125e-4 C 2.3671797,-0.03446094 2.8945234,-0.03446094 3.3046797,-0.03446094 c 0.421875,0 0.9492187,0 1.359375,0.0351562525 V -0.30399219 H 4.4531172 c -0.7382813,0 -0.7617188,-0.1171875 -0.7617188,-0.46875 V -1.6399297 H 4.6874922 V -1.9563359 H 3.6913984 v -4.5234375 c 0,-0.1992188 0,-0.2578125 -0.1523437,-0.2578125 -0.09375,0 -0.1171875,0 -0.1992188,0.1171875 l -3.05859371,4.6640625 v 0.3164062 z m 0.058594,-0.3164062 H 0.56249219 L 2.9882734,-5.6711797 Z m 0,0"
       style="fill:#000000;fill-opacity:1;fill-rule:nonzero;stroke:none"
       aria-label="4"
       transform="matrix(1.3333333,0,0,1.3333333,314.72267,19.682667)" />
    <path
       id="path115"
       d="m 4.4767891,-2.0032109 c 0,-1.1835938 -0.8203125,-2.1796875 -1.8984375,-2.1796875 -0.4804688,0 -0.9023438,0.1640625 -1.265625,0.5039062 v -1.9335937 c 0.1992187,0.058594 0.5273437,0.1289062 0.84375,0.1289062 1.2304687,0 1.9335937,-0.9140625 1.9335937,-1.0429687 0,-0.058594 -0.035156,-0.1054688 -0.1054687,-0.1054688 -0.011719,0 -0.035156,0 -0.082031,0.023437 -0.1992187,0.09375 -0.6796875,0.2929688 -1.3476562,0.2929688 -0.3984375,0 -0.8554688,-0.070312 -1.3242188,-0.28125 -0.082031,-0.023437 -0.1054687,-0.023437 -0.1289062,-0.023437 -0.09375,0 -0.09375,0.082031 -0.09375,0.234375 v 2.953125 c 0,0.1757812 0,0.2578125 0.140625,0.2578125 0.070312,0 0.082031,-0.035156 0.1289062,-0.09375 0.1054688,-0.1523438 0.4804688,-0.6914063 1.2773438,-0.6914063 0.5273437,0 0.7734375,0.4570313 0.8554687,0.6328125 0.1523438,0.375 0.1757813,0.7617188 0.1757813,1.2539063 0,0.3515625 0,0.9492187 -0.234375,1.37109371 -0.2460938,0.38671875 -0.609375,0.64453125 -1.0664063,0.64453125 -0.7265625,0 -1.30078124,-0.52734375 -1.46484374,-1.11328126 0.0234375,0.011719 0.0585938,0.011719 0.1640625,0.011719 0.32812504,0 0.50390624,-0.2460938 0.50390624,-0.4804688 0,-0.2460937 -0.1757812,-0.4921875 -0.50390624,-0.4921875 -0.140625,0 -0.48046875,0.070312 -0.48046875,0.5273438 0,0.85546871 0.67968749,1.82812496 1.79296879,1.82812496 1.1601562,0 2.1796875,-0.9609375 2.1796872,-2.22656266 z m 0,0"
       style="fill:#000000;fill-opacity:1;fill-rule:nonzero;stroke:none"
       aria-label="5"
       transform="matrix(1.3333333,0,0,1.3333333,344.54267,19.682667)" />
    <g
       id="g115"
       aria-label="−1"
       transform="matrix(1.3333333,0,0,1.3333333,160.44667,19.129333)">
      <path
         id="path116"
         d="m 6.5614844,-2.2971953 c 0.1757812,0 0.3515625,0 0.3515625,-0.1992188 0,-0.1992187 -0.1757813,-0.1992187 -0.3515625,-0.1992187 h -5.390625 c -0.1640625,0 -0.33984377,0 -0.33984377,0.1992187 0,0.1992188 0.17578127,0.1992188 0.33984377,0.1992188 z m 0,0"
         style="fill:#000000;fill-opacity:1;fill-rule:nonzero;stroke:none" />
      <path
         id="path117"
         d="m 10.677695,-6.3753203 c 0,-0.234375 0,-0.2578125 -0.234375,-0.2578125 -0.6093747,0.6328125 -1.4882809,0.6328125 -1.8046872,0.6328125 v 0.3164062 c 0.1992188,0 0.7851563,0 1.3007813,-0.2578125 v 5.15625004 c 0,0.3515625 -0.035156,0.48046875 -0.9257813,0.48046875 H 8.6972266 V -3.203125e-4 C 9.0487891,-0.03547656 9.9042578,-0.03547656 10.302695,-0.03547656 c 0.398438,0 1.265625,0 1.617188,0.0351562475 V -0.30500781 h -0.316406 c -0.902344,0 -0.925782,-0.1171875 -0.925782,-0.48046875 z m 0,0"
         style="fill:#000000;fill-opacity:1;fill-rule:nonzero;stroke:none" />
    </g>
    <g
       id="g117"
       aria-label="−2"
       transform="matrix(1.3333333,0,0,1.3333333,130.62667,19.129333)">
      <path
         id="path118"
         d="m 6.56125,-2.2971953 c 0.1757813,0 0.3515625,0 0.3515625,-0.1992188 0,-0.1992187 -0.1757812,-0.1992187 -0.3515625,-0.1992187 H 1.170625 c -0.1640625,0 -0.33984375,0 -0.33984375,0.1992187 0,0.1992188 0.17578125,0.1992188 0.33984375,0.1992188 z m 0,0"
         style="fill:#000000;fill-opacity:1;fill-rule:nonzero;stroke:none" />
      <path
         id="path119"
         d="M 9.0133984,-0.76203906 10.068086,-1.7932891 c 1.558594,-1.3710937 2.15625,-1.9101562 2.15625,-2.90625 0,-1.1367187 -0.902344,-1.9335937 -2.121094,-1.9335937 -1.1249998,0 -1.8515623,0.9140625 -1.8515623,1.8046875 0,0.5507812 0.4921875,0.5507812 0.5273437,0.5507812 0.1640625,0 0.515625,-0.1171875 0.515625,-0.5273437 0,-0.2578125 -0.1875,-0.515625 -0.5273437,-0.515625 -0.082031,0 -0.1054688,0 -0.1289063,0.011719 0.2226563,-0.6445312 0.7617188,-1.0195312 1.3359375,-1.0195312 0.9140621,0 1.3359371,0.8085937 1.3359371,1.6289062 0,0.796875 -0.492187,1.5820313 -1.042968,2.203125 L 8.3571484,-0.36360156 C 8.2516797,-0.25813281 8.2516797,-0.23469531 8.2516797,-3.203125e-4 H 11.943086 L 12.224336,-1.7346953 h -0.257813 c -0.04687,0.3046875 -0.117187,0.73828124 -0.210937,0.89062499 -0.07031,0.0820313 -0.726563,0.0820313 -0.949219,0.0820313 z m 0,0"
         style="fill:#000000;fill-opacity:1;fill-rule:nonzero;stroke:none" />
    </g>
    <g
       id="g119"
       aria-label="−3"
       transform="matrix(1.3333333,0,0,1.3333333,100.80667,19.129333)">
      <path
         id="path120"
         d="m 6.5639453,-2.2971953 c 0.1757813,0 0.3515625,0 0.3515625,-0.1992188 0,-0.1992187 -0.1757812,-0.1992187 -0.3515625,-0.1992187 h -5.390625 c -0.1640625,0 -0.33984374,0 -0.33984374,0.1992187 0,0.1992188 0.17578124,0.1992188 0.33984374,0.1992188 z m 0,0"
         style="fill:#000000;fill-opacity:1;fill-rule:nonzero;stroke:none" />
      <path
         id="path121"
         d="m 10.64207,-3.5042266 c 0.808594,-0.2695312 1.394532,-0.9726562 1.394532,-1.7578125 0,-0.8203125 -0.878907,-1.3710937 -1.839844,-1.3710937 -1.0078127,0 -1.7578127,0.5976562 -1.7578127,1.3476562 0,0.3398438 0.2109375,0.5273438 0.5039063,0.5273438 0.3046875,0 0.5039062,-0.2226563 0.5039062,-0.515625 0,-0.4921875 -0.46875,-0.4921875 -0.609375,-0.4921875 0.3046875,-0.4921875 0.9609375,-0.6210938 1.3242192,-0.6210938 0.410156,0 0.949218,0.2226563 0.949218,1.1132813 0,0.1289062 -0.01172,0.703125 -0.269531,1.1367187 -0.304687,0.4804688 -0.644531,0.515625 -0.8906249,0.515625 -0.082031,0.011719 -0.3164063,0.035156 -0.3867188,0.035156 -0.082031,0.011719 -0.1523437,0.023437 -0.1523437,0.1171875 0,0.1171875 0.070312,0.1171875 0.234375,0.1171875 h 0.4453124 c 0.808594,0 1.183594,0.6679687 1.183594,1.6523437 0,1.34765629 -0.691406,1.64062504 -1.125,1.64062504 -0.4335939,0 -1.1718752,-0.17578125 -1.5234377,-0.76171875 0.3515625,0.0585938 0.65625,-0.1640625 0.65625,-0.53906249 0,-0.3632813 -0.2695312,-0.5625 -0.5625,-0.5625 -0.234375,0 -0.5507812,0.140625 -0.5507812,0.5742187 0,0.91406254 0.9257812,1.57031254 2.0039059,1.57031254 1.21875,0 2.121094,-0.9140625 2.121094,-1.92187504 0,-0.8203125 -0.621094,-1.59375 -1.652344,-1.8046872 z m 0,0"
         style="fill:#000000;fill-opacity:1;fill-rule:nonzero;stroke:none" />
    </g>
    <g
       id="g121"
       aria-label="−4"
       transform="matrix(1.3333333,0,0,1.3333333,70.985333,19.129333)">
      <path
         id="path122"
         d="m 6.5617812,-2.2971953 c 0.1757813,0 0.3515625,0 0.3515625,-0.1992188 0,-0.1992187 -0.1757812,-0.1992187 -0.3515625,-0.1992187 h -5.390625 c -0.1640625,0 -0.3398437,0 -0.3398437,0.1992187 0,0.1992188 0.1757812,0.1992188 0.3398437,0.1992188 z m 0,0"
         style="fill:#000000;fill-opacity:1;fill-rule:nonzero;stroke:none" />
      <path
         id="path123"
         d="m 10.677992,-1.6409453 v 0.86718749 c 0,0.3515625 -0.02344,0.46875 -0.7617186,0.46875 H 9.7053359 V -3.203125e-4 C 10.115492,-0.03547656 10.642836,-0.03547656 11.052992,-0.03547656 c 0.421875,0 0.949219,0 1.359375,0.0351562475 V -0.30500781 H 12.20143 c -0.738282,0 -0.761719,-0.1171875 -0.761719,-0.46875 V -1.6409453 h 0.996094 v -0.3164063 h -0.996094 v -4.5234375 c 0,-0.1992187 0,-0.2578125 -0.152344,-0.2578125 -0.09375,0 -0.117187,0 -0.199219,0.1171875 l -3.0585933,4.6640625 v 0.3164063 z m 0.05859,-0.3164063 H 8.3108047 l 2.4257813,-3.7148437 z m 0,0"
         style="fill:#000000;fill-opacity:1;fill-rule:nonzero;stroke:none" />
    </g>
    <g
       id="g123"
       aria-label="−5"
       transform="matrix(1.3333333,0,0,1.3333333,41.165333,19.129333)">
      <path
         id="path124"
         d="m 6.5615469,-2.2971953 c 0.1757812,0 0.3515625,0 0.3515625,-0.1992188 0,-0.1992187 -0.1757813,-0.1992187 -0.3515625,-0.1992187 h -5.390625 c -0.1640625,0 -0.33984378,0 -0.33984378,0.1992187 0,0.1992188 0.17578128,0.1992188 0.33984378,0.1992188 z m 0,0"
         style="fill:#000000;fill-opacity:1;fill-rule:nonzero;stroke:none" />
      <path
         id="path125"
         d="m 12.224633,-2.0042266 c 0,-1.1835937 -0.820313,-2.1796875 -1.898438,-2.1796875 -0.4804684,0 -0.9023434,0.1640625 -1.2656247,0.5039063 v -1.9335938 c 0.1992188,0.058594 0.5273438,0.1289063 0.84375,0.1289063 1.2304687,0 1.9335937,-0.9140625 1.9335937,-1.0429688 0,-0.058594 -0.03516,-0.1054687 -0.105469,-0.1054687 -0.01172,0 -0.03516,0 -0.08203,0.023437 -0.199219,0.09375 -0.679687,0.2929687 -1.347656,0.2929687 -0.3984377,0 -0.8554689,-0.070312 -1.3242189,-0.28125 -0.082031,-0.023437 -0.1054688,-0.023437 -0.1289063,-0.023437 -0.09375,0 -0.09375,0.082031 -0.09375,0.234375 v 2.953125 c 0,0.1757813 0,0.2578125 0.140625,0.2578125 0.070312,0 0.082031,-0.035156 0.1289063,-0.09375 0.1054687,-0.1523437 0.4804687,-0.6914062 1.2773439,-0.6914062 0.527344,0 0.773437,0.4570312 0.855469,0.6328125 0.152343,0.375 0.175781,0.7617187 0.175781,1.2539062 0,0.3515625 0,0.9492188 -0.234375,1.37109379 -0.246094,0.38671875 -0.609375,0.64453125 -1.066406,0.64453125 -0.7265629,0 -1.3007817,-0.52734375 -1.4648442,-1.11328124 0.023437,0.011719 0.058594,0.011719 0.1640625,0.011719 0.328125,0 0.5039063,-0.2460937 0.5039063,-0.4804687 0,-0.2460938 -0.1757813,-0.4921875 -0.5039063,-0.4921875 -0.140625,0 -0.4804687,0.070312 -0.4804687,0.5273437 0,0.85546879 0.6796875,1.82812504 1.7929684,1.82812504 1.160157,0 2.179688,-0.9609375 2.179688,-2.22656254 z m 0,0"
         style="fill:#000000;fill-opacity:1;fill-rule:nonzero;stroke:none" />
    </g>
    <g
       id="g125"
       aria-label="−6"
       transform="matrix(1.3333333,0,0,1.3333333,11.345333,19.129333)">
      <path
         id="path126"
         d="m 6.5613125,-2.2971953 c 0.1757812,0 0.3515625,0 0.3515625,-0.1992188 0,-0.1992187 -0.1757813,-0.1992187 -0.3515625,-0.1992187 h -5.390625 c -0.1640625,0 -0.33984375,0 -0.33984375,0.1992187 0,0.1992188 0.17578125,0.1992188 0.33984375,0.1992188 z m 0,0"
         style="fill:#000000;fill-opacity:1;fill-rule:nonzero;stroke:none" />
      <path
         id="path127"
         d="m 9.0603359,-3.2698516 v -0.234375 c 0,-2.5195312 1.2421871,-2.8828125 1.7460941,-2.8828125 0.234375,0 0.65625,0.058594 0.878906,0.3984375 -0.152344,0 -0.550781,0 -0.550781,0.4453125 0,0.3164063 0.234375,0.4570313 0.457031,0.4570313 0.164062,0 0.457031,-0.082031 0.457031,-0.46875 0,-0.5976563 -0.433594,-1.078125 -1.265625,-1.078125 -1.2773436,0 -2.6132811,1.2890625 -2.6132811,3.4804687 0,2.66015629 1.1484375,3.37500004 2.0742191,3.37500004 1.113281,0 2.050781,-0.9375 2.050781,-2.25000004 0,-1.265625 -0.878906,-2.2265625 -1.992188,-2.2265625 -0.6679683,0 -1.0429683,0.5039063 -1.2421871,0.984375 z m 1.1835941,3.21093754 c -0.6210941,0 -0.9257816,-0.59765625 -0.9843753,-0.75 C 9.0837734,-1.2776641 9.0837734,-2.0745391 9.0837734,-2.2503203 c 0,-0.7734375 0.3164063,-1.7695313 1.2187496,-1.7695313 0.152344,0 0.609375,0 0.925782,0.609375 0.175781,0.375 0.175781,0.8789063 0.175781,1.3710938 0,0.4804687 0,0.9726562 -0.164063,1.33593749 -0.304687,0.59765625 -0.761718,0.64453125 -0.996093,0.64453125 z m 0,0"
         style="fill:#000000;fill-opacity:1;fill-rule:nonzero;stroke:none" />
    </g>
    <path
       id="path128"
       d="m 1.3129609,-3.2688359 v -0.234375 c 0,-2.5195313 1.2421875,-2.8828125 1.7460938,-2.8828125 0.234375,0 0.65625,0.058594 0.8789062,0.3984375 -0.1523437,0 -0.5507812,0 -0.5507812,0.4453125 0,0.3164062 0.234375,0.4570312 0.4570312,0.4570312 0.1640625,0 0.4570313,-0.082031 0.4570313,-0.46875 0,-0.5976562 -0.4335938,-1.078125 -1.265625,-1.078125 -1.2773438,0 -2.61328126,1.2890625 -2.61328126,3.4804688 0,2.66015621 1.14843746,3.37499996 2.07421876,3.37499996 1.1132812,0 2.0507812,-0.9375 2.0507812,-2.24999996 0,-1.265625 -0.8789062,-2.2265625 -1.9921875,-2.2265625 -0.6679687,0 -1.0429687,0.5039062 -1.2421875,0.984375 z m 1.1835938,3.21093746 c -0.6210938,0 -0.9257813,-0.59765625 -0.984375,-0.75 C 1.3363984,-1.2766484 1.3363984,-2.0735234 1.3363984,-2.2493047 c 0,-0.7734375 0.3164063,-1.7695312 1.21875,-1.7695312 0.1523438,0 0.609375,0 0.9257813,0.609375 0.1757812,0.375 0.1757812,0.8789062 0.1757812,1.3710937 0,0.4804688 0,0.9726563 -0.1640625,1.33593751 -0.3046875,0.59765625 -0.7617187,0.64453125 -0.9960937,0.64453125 z m 0,0"
       style="fill:#000000;fill-opacity:1;fill-rule:nonzero;stroke:none"
       aria-label="6"
       transform="matrix(1.3333333,0,0,1.3333333,374.36267,19.682667)" />
  </g>
</svg>
