<?xml version="1.0" encoding="UTF-8" standalone="no"?>
<!-- Created with Inkscape (http://www.inkscape.org/) -->

<svg
   version="1.1"
   id="svg1"
   width="193.70667"
   height="68.386665"
   viewBox="0 0 193.70667 68.386665"
   sodipodi:docname="Dn-Dynkin-diagram.pdf"
   xmlns:inkscape="http://www.inkscape.org/namespaces/inkscape"
   xmlns:sodipodi="http://sodipodi.sourceforge.net/DTD/sodipodi-0.dtd"
   xmlns="http://www.w3.org/2000/svg"
   xmlns:svg="http://www.w3.org/2000/svg">
  <defs
     id="defs1" />
  <sodipodi:namedview
     id="namedview1"
     pagecolor="#ffffff"
     bordercolor="#000000"
     borderopacity="0.25"
     inkscape:showpageshadow="2"
     inkscape:pageopacity="0.0"
     inkscape:pagecheckerboard="0"
     inkscape:deskcolor="#d1d1d1">
    <inkscape:page
       x="0"
       y="0"
       inkscape:label="1"
       id="page1"
       width="193.70667"
       height="68.386665"
       margin="0"
       bleed="0" />
  </sodipodi:namedview>
  <g
     id="g1"
     inkscape:groupmode="layer"
     inkscape:label="1">
    <path
       id="path1"
       d="m 43.57309,-35.86632 c 0,2.47478 2.00851,4.48329 4.48329,4.48329 2.47926,0 4.48329,-2.00851 4.48329,-4.48329 0,-2.47478 -2.00403,-4.48329 -4.48329,-4.48329 -2.47478,0 -4.48329,2.00851 -4.48329,4.48329 z"
       style="fill:#000000;fill-opacity:1;fill-rule:nonzero;stroke:#000000;stroke-width:1.49442;stroke-linecap:butt;stroke-linejoin:miter;stroke-miterlimit:10;stroke-dasharray:none;stroke-opacity:1"
       transform="matrix(1.3333333,0,0,-1.3333333,-52.677333,-40.848)" />
    <path
       id="path2"
       d="m 43.57309,-73.44078 c 0,2.47926 2.00851,4.48329 4.48329,4.48329 2.47926,0 4.48329,-2.00403 4.48329,-4.48329 0,-2.47478 -2.00403,-4.48329 -4.48329,-4.48329 -2.47478,0 -4.48329,2.00851 -4.48329,4.48329 z"
       style="fill:#000000;fill-opacity:1;fill-rule:nonzero;stroke:#000000;stroke-width:1.49442;stroke-linecap:butt;stroke-linejoin:miter;stroke-miterlimit:10;stroke-dasharray:none;stroke-opacity:1"
       transform="matrix(1.3333333,0,0,-1.3333333,-52.677333,-40.848)" />
    <path
       id="path3"
       d="M 47.9712,-34.96967 66.84586,-54.6513"
       style="fill:none;stroke:#000000;stroke-width:1.49442;stroke-linecap:butt;stroke-linejoin:miter;stroke-miterlimit:10;stroke-dasharray:none;stroke-opacity:1"
       transform="matrix(1.3333333,0,0,-1.3333333,-52.677333,-40.848)" />
    <path
       id="path4"
       d="M 47.9712,-73.52597 66.84586,-54.6513"
       style="fill:none;stroke:#000000;stroke-width:1.49442;stroke-linecap:butt;stroke-linejoin:miter;stroke-miterlimit:10;stroke-dasharray:none;stroke-opacity:1"
       transform="matrix(1.3333333,0,0,-1.3333333,-52.677333,-40.848)" />
    <path
       id="path5"
       d="m 62.36256,-54.6513 c 0,2.47477 2.00404,4.48329 4.4833,4.48329 2.47477,0 4.48329,-2.00852 4.48329,-4.48329 0,-2.47927 -2.00852,-4.4833 -4.48329,-4.4833 -2.47926,0 -4.4833,2.00403 -4.4833,4.4833 z"
       style="fill:#000000;fill-opacity:1;fill-rule:nonzero;stroke:#000000;stroke-width:1.49442;stroke-linecap:butt;stroke-linejoin:miter;stroke-miterlimit:10;stroke-dasharray:none;stroke-opacity:1"
       transform="matrix(1.3333333,0,0,-1.3333333,-52.677333,-40.848)" />
    <path
       id="path6"
       d="m 99.93254,-54.6513 c 0,2.47477 2.00853,4.48329 4.48329,4.48329 2.47928,0 4.48329,-2.00852 4.48329,-4.48329 0,-2.47927 -2.00401,-4.4833 -4.48329,-4.4833 -2.47476,0 -4.48329,2.00403 -4.48329,4.4833 z"
       style="fill:#000000;fill-opacity:1;fill-rule:nonzero;stroke:#000000;stroke-width:1.49442;stroke-linecap:butt;stroke-linejoin:miter;stroke-miterlimit:10;stroke-dasharray:none;stroke-opacity:1"
       transform="matrix(1.3333333,0,0,-1.3333333,-52.677333,-40.848)" />
    <path
       id="path7"
       d="m 175.077,-54.6513 c 0,2.47477 2.00851,4.48329 4.48329,4.48329 2.47926,0 4.48329,-2.00852 4.48329,-4.48329 0,-2.47927 -2.00403,-4.4833 -4.48329,-4.4833 -2.47478,0 -4.48329,2.00403 -4.48329,4.4833 z"
       style="fill:#000000;fill-opacity:1;fill-rule:nonzero;stroke:#000000;stroke-width:1.49442;stroke-linecap:butt;stroke-linejoin:miter;stroke-miterlimit:10;stroke-dasharray:none;stroke-opacity:1"
       transform="matrix(1.3333333,0,0,-1.3333333,-52.677333,-40.848)" />
    <path
       id="path8"
       d="m 66.84586,-54.6513 h 37.56997"
       style="fill:none;stroke:#000000;stroke-width:1.49442;stroke-linecap:butt;stroke-linejoin:miter;stroke-miterlimit:10;stroke-dasharray:none;stroke-opacity:1"
       transform="matrix(1.3333333,0,0,-1.3333333,-52.677333,-40.848)" />
    <path
       id="path9"
       d="m 160.8291,-54.6513 h 18.73119"
       style="fill:none;stroke:#000000;stroke-width:1.49442;stroke-linecap:butt;stroke-linejoin:miter;stroke-miterlimit:10;stroke-dasharray:none;stroke-opacity:1"
       transform="matrix(1.3333333,0,0,-1.3333333,-52.677333,-40.848)" />
    <path
       id="path10"
       d="m 104.41583,-54.6513 h 18.75362"
       style="fill:none;stroke:#000000;stroke-width:1.49442;stroke-linecap:butt;stroke-linejoin:miter;stroke-miterlimit:10;stroke-dasharray:none;stroke-opacity:1"
       transform="matrix(1.3333333,0,0,-1.3333333,-52.677333,-40.848)" />
    <path
       id="path11"
       d="m 105.35733,-65.0077 c 0,-2.09371 1.0446,-3.13833 3.13832,-3.13833 h 29.7511 c 2.99035,0 4.48329,-1.0446 4.48329,-3.13829 0,2.09369 1.49295,3.13829 4.48329,3.13829 m -1.34497,0 h 31.10059 c 2.09369,0 3.13829,1.04462 3.13829,3.13833"
       style="fill:none;stroke:#000000;stroke-width:1.49442;stroke-linecap:butt;stroke-linejoin:miter;stroke-miterlimit:10;stroke-dasharray:none;stroke-opacity:1"
       transform="matrix(1.3333333,0,0,-1.3333333,-52.677333,-40.848)" />
    <path
       id="path12"
       d="m 2.753875,-3.5867891 c 0,-0.4101562 -0.3398438,-0.7617187 -0.7617188,-0.7617187 -0.4101562,0 -0.7617187,0.3515625 -0.7617187,0.7617187 0,0.4101563 0.3515625,0.7617188 0.7617187,0.7617188 0.421875,0 0.7617188,-0.3515625 0.7617188,-0.7617188 z m 6.3544922,0 c 0,-0.4101562 -0.3398438,-0.7617187 -0.7617188,-0.7617187 -0.4101562,0 -0.7617187,0.3515625 -0.7617187,0.7617187 0,0.4101563 0.3515625,0.7617188 0.7617187,0.7617188 0.421875,0 0.7617188,-0.3515625 0.7617188,-0.7617188 z m 6.3720698,0 c 0,-0.4101562 -0.339843,-0.7617187 -0.761718,-0.7617187 -0.410157,0 -0.761719,0.3515625 -0.761719,0.7617187 0,0.4101563 0.351562,0.7617188 0.761719,0.7617188 0.421875,0 0.761718,-0.3515625 0.761718,-0.7617188 z m 0,0"
       style="fill:#000000;fill-opacity:1;fill-rule:nonzero;stroke:none"
       aria-label="···"
       transform="matrix(1.3333333,0,0,1.3333333,123.89067,36.270667)" />
    <g
       id="g12"
       aria-label="n−1"
       transform="matrix(1.3333333,0,0,1.3333333,135.32267,66.285333)">
      <path
         id="path13"
         d="m 0.88007031,-0.58607031 c -0.0351563,0.15234375 -0.09375,0.375 -0.09375,0.421875 0,0.1875 0.140625,0.26953125 0.29296879,0.26953125 0.1171875,0 0.2929687,-0.0703125 0.3632812,-0.26953125 0.011719,-0.0234375 0.1289063,-0.4921875 0.1875,-0.73828125 L 1.8527266,-1.8048203 c 0.058594,-0.2226563 0.1171875,-0.4335938 0.1757812,-0.6679688 0.035156,-0.1640625 0.1171875,-0.4570312 0.1289063,-0.4921875 0.140625,-0.3164062 0.6679687,-1.21875 1.6171875,-1.21875 0.4453125,0 0.5390625,0.3632813 0.5390625,0.6914063 0,0.6210937 -0.4921875,1.8984375 -0.6445313,2.3320312 -0.09375,0.22265629 -0.1054687,0.33984379 -0.1054687,0.45703129 0,0.46875 0.3515625,0.80859375 0.8203125,0.80859375 0.9375,0 1.3007812,-1.45312504 1.3007812,-1.53515624 0,-0.09375 -0.082031,-0.09375 -0.1171875,-0.09375 -0.09375,0 -0.09375,0.023437 -0.1523437,0.1757812 -0.1992188,0.67968754 -0.5273438,1.24218754 -1.0078125,1.24218754 -0.1757813,0 -0.2460938,-0.10546875 -0.2460938,-0.328125 0,-0.2578125 0.09375,-0.4921875 0.1875,-0.71484374 0.1875,-0.5273438 0.5976563,-1.6171875 0.5976563,-2.1914063 0,-0.6679687 -0.421875,-1.0664062 -1.1367188,-1.0664062 -0.9023437,0 -1.3828125,0.6445312 -1.5585937,0.8671875 -0.046875,-0.5507813 -0.4570313,-0.8671875 -0.9140625,-0.8671875 -0.45703129,0 -0.64453129,0.3867187 -0.75000004,0.5742187 -0.15234375,0.3398438 -0.29296875,0.9257813 -0.29296875,0.9609375 0,0.1054688 0.09375,0.1054688 0.1171875,0.1054688 0.09375,0 0.10546875,-0.011719 0.1640625,-0.234375 0.17578125,-0.703125 0.375,-1.1835938 0.72656249,-1.1835938 0.1992188,0 0.3164063,0.1289063 0.3164063,0.4570313 0,0.2109375 -0.035156,0.3164062 -0.1640625,0.8320312 z m 0,0"
         style="fill:#000000;fill-opacity:1;fill-rule:nonzero;stroke:none" />
      <path
         id="path14"
         d="m 14.75507,-2.2970078 c 0.175782,0 0.351563,0 0.351563,-0.1992188 0,-0.1992187 -0.175781,-0.1992187 -0.351563,-0.1992187 H 9.3644453 c -0.1640625,0 -0.3398437,0 -0.3398437,0.1992187 0,0.1992188 0.1757812,0.1992188 0.3398437,0.1992188 z m 0,0"
         style="fill:#000000;fill-opacity:1;fill-rule:nonzero;stroke:none" />
      <path
         id="path15"
         d="m 21.086125,-6.3751328 c 0,-0.234375 0,-0.2578125 -0.234375,-0.2578125 -0.609375,0.6328125 -1.488281,0.6328125 -1.804688,0.6328125 v 0.3164062 c 0.199219,0 0.785157,0 1.300782,-0.2578125 v 5.15625004 c 0,0.3515625 -0.03516,0.48046875 -0.925782,0.48046875 H 19.105656 V -1.328125e-4 C 19.457219,-0.03528906 20.312687,-0.03528906 20.711125,-0.03528906 c 0.398437,0 1.265625,0 1.617187,0.0351562475 V -0.30482031 h -0.316406 c -0.902344,0 -0.925781,-0.1171875 -0.925781,-0.48046875 z m 0,0"
         style="fill:#000000;fill-opacity:1;fill-rule:nonzero;stroke:none" />
    </g>
  </g>
</svg>
