<?xml version="1.0" encoding="UTF-8" standalone="no"?>
<!-- Created with Inkscape (http://www.inkscape.org/) -->

<svg
   version="1.1"
   id="svg1"
   width="396.95999"
   height="108.85333"
   viewBox="0 0 396.95999 108.85333"
   sodipodi:docname="quotient.pdf"
   xmlns:inkscape="http://www.inkscape.org/namespaces/inkscape"
   xmlns:sodipodi="http://sodipodi.sourceforge.net/DTD/sodipodi-0.dtd"
   xmlns="http://www.w3.org/2000/svg"
   xmlns:svg="http://www.w3.org/2000/svg">
  <defs
     id="defs1" />
  <sodipodi:namedview
     id="namedview1"
     pagecolor="#ffffff"
     bordercolor="#000000"
     borderopacity="0.25"
     inkscape:showpageshadow="2"
     inkscape:pageopacity="0.0"
     inkscape:pagecheckerboard="0"
     inkscape:deskcolor="#d1d1d1">
    <inkscape:page
       x="0"
       y="0"
       inkscape:label="1"
       id="page1"
       width="396.95999"
       height="108.85333"
       margin="0"
       bleed="0" />
  </sodipodi:namedview>
  <g
     id="g1"
     inkscape:groupmode="layer"
     inkscape:label="1">
    <path
       id="path1"
       d="m 50.21254,-92.0085 c 0,33.31961 27.00716,60.3268 60.32676,60.3268 33.31963,0 60.32679,-27.00719 60.32679,-60.3268 H 110.5393 Z"
       style="fill:none;stroke:#000000;stroke-width:1.49442;stroke-linecap:butt;stroke-linejoin:miter;stroke-miterlimit:10;stroke-dasharray:none;stroke-opacity:0"
       transform="matrix(1.3333333,0,0,-1.3333333,-59.238667,-41.24)" />
    <path
       id="path2"
       d="m 50.21254,-92.0085 c 0,33.31961 27.00716,60.3268 60.32676,60.3268 33.31963,0 60.32679,-27.00719 60.32679,-60.3268"
       style="fill:none;stroke:#000000;stroke-width:1.49442;stroke-linecap:butt;stroke-linejoin:miter;stroke-miterlimit:10;stroke-dasharray:none;stroke-opacity:1"
       transform="matrix(1.3333333,0,0,-1.3333333,-59.238667,-41.24)" />
    <path
       id="path3"
       d="m 110.5393,-92.0085 h 86.10854"
       style="fill:none;stroke:#9b9b9b;stroke-width:0.74721;stroke-linecap:butt;stroke-linejoin:miter;stroke-miterlimit:10;stroke-dasharray:4.48325, 4.48325;stroke-dashoffset:0;stroke-opacity:1"
       transform="matrix(1.3333333,0,0,-1.3333333,-59.238667,-41.24)" />
    <path
       id="path4"
       d="m 110.5393,-92.0085 47.77366,37.02579"
       style="fill:none;stroke:#f5a623;stroke-width:0.74721;stroke-linecap:butt;stroke-linejoin:miter;stroke-miterlimit:10;stroke-dasharray:none;stroke-opacity:1"
       transform="matrix(1.3333333,0,0,-1.3333333,-59.238667,-41.24)" />
    <path
       id="path5"
       d="m 156.22076,-54.98271 c 0,1.15368 0.93851,2.09219 2.0922,2.09219 1.1537,0 2.09218,-0.93851 2.09218,-2.09219 0,-1.1537 -0.93848,-2.09218 -2.09218,-2.09218 -1.15369,0 -2.0922,0.93848 -2.0922,2.09218 z"
       style="fill:#f5a623;fill-opacity:1;fill-rule:nonzero;stroke:#f5a623;stroke-width:0.74721;stroke-linecap:butt;stroke-linejoin:miter;stroke-miterlimit:10;stroke-dasharray:none;stroke-opacity:1"
       transform="matrix(1.3333333,0,0,-1.3333333,-59.238667,-41.24)" />
    <path
       id="path6"
       d="m 124.88574,-81.24866 c 2.16991,-2.88724 3.485,-6.44994 3.58066,-10.31749 l -17.9271,-0.44235 z"
       style="fill:none;stroke:#000000;stroke-width:0.74721;stroke-linecap:butt;stroke-linejoin:miter;stroke-miterlimit:10;stroke-dasharray:none;stroke-opacity:0"
       transform="matrix(1.3333333,0,0,-1.3333333,-59.238667,-41.24)" />
    <path
       id="path7"
       d="m 124.88574,-81.24866 c 2.16991,-2.88724 3.485,-6.44994 3.58066,-10.31749"
       style="fill:none;stroke:#000000;stroke-width:0.74721;stroke-linecap:butt;stroke-linejoin:miter;stroke-miterlimit:10;stroke-dasharray:none;stroke-opacity:1"
       transform="matrix(1.3333333,0,0,-1.3333333,-59.238667,-41.24)" />
    <path
       id="path8"
       d="m 168.77391,-92.0085 c 0,1.1537 0.93849,2.09221 2.09218,2.09221 1.1537,0 2.09219,-0.93851 2.09219,-2.09221 0,-1.15369 -0.93849,-2.09218 -2.09219,-2.09218 -1.15369,0 -2.09218,0.93849 -2.09218,2.09218 z"
       style="fill:#9013fe;fill-opacity:1;fill-rule:nonzero;stroke:#9013fe;stroke-width:0.74721;stroke-linecap:butt;stroke-linejoin:miter;stroke-miterlimit:10;stroke-dasharray:none;stroke-opacity:1"
       transform="matrix(1.3333333,0,0,-1.3333333,-59.238667,-41.24)" />
    <path
       id="path9"
       d="m 48.12033,-92.0085 c 0,1.1537 0.93851,2.09221 2.09221,2.09221 1.15367,0 2.09218,-0.93851 2.09218,-2.09221 0,-1.15369 -0.93851,-2.09218 -2.09218,-2.09218 -1.1537,0 -2.09221,0.93849 -2.09221,2.09218 z"
       style="fill:#9013fe;fill-opacity:1;fill-rule:nonzero;stroke:#9013fe;stroke-width:0.74721;stroke-linecap:butt;stroke-linejoin:miter;stroke-miterlimit:10;stroke-dasharray:none;stroke-opacity:1"
       transform="matrix(1.3333333,0,0,-1.3333333,-59.238667,-41.24)" />
    <path
       id="path10"
       d="m 236.8956,-72.8799 c 0,21.50769 17.43689,38.94461 38.94461,38.94461 21.50769,0 38.94461,-17.43692 38.94461,-38.94461 0,-21.5077 -17.43692,-38.94462 -38.94461,-38.94462 -21.50772,0 -38.94461,17.43692 -38.94461,38.94462 z"
       style="fill:none;stroke:#000000;stroke-width:1.49442;stroke-linecap:butt;stroke-linejoin:miter;stroke-miterlimit:10;stroke-dasharray:none;stroke-opacity:1"
       transform="matrix(1.3333333,0,0,-1.3333333,-59.238667,-41.24)" />
    <path
       id="path11"
       d="m 312.69263,-72.8799 c 0,1.15369 0.93849,2.0922 2.09219,2.0922 1.15368,0 2.09219,-0.93851 2.09219,-2.0922 0,-1.1537 -0.93851,-2.09219 -2.09219,-2.09219 -1.1537,0 -2.09219,0.93849 -2.09219,2.09219 z"
       style="fill:#9013fe;fill-opacity:1;fill-rule:nonzero;stroke:#9013fe;stroke-width:0.74721;stroke-linecap:butt;stroke-linejoin:miter;stroke-miterlimit:10;stroke-dasharray:none;stroke-opacity:1"
       transform="matrix(1.3333333,0,0,-1.3333333,-59.238667,-41.24)" />
    <path
       id="path12"
       d="m 263.01808,-35.85411 c 0,1.15367 0.93849,2.09218 2.0922,2.09218 1.15966,0 2.09217,-0.93851 2.09217,-2.09218 0,-1.15372 -0.93251,-2.09219 -2.09217,-2.09219 -1.15371,0 -2.0922,0.93847 -2.0922,2.09219 z"
       style="fill:#f5a623;fill-opacity:1;fill-rule:nonzero;stroke:#f5a623;stroke-width:0.74721;stroke-linecap:butt;stroke-linejoin:miter;stroke-miterlimit:10;stroke-dasharray:none;stroke-opacity:1"
       transform="matrix(1.3333333,0,0,-1.3333333,-59.238667,-41.24)" />
    <path
       id="path13"
       d="m 4.5344375,-4.9805156 c 0,-0.65625 -0.1875,-2.0390625 -1.1953125,-2.0390625 -1.3828125,0 -2.91796875,2.8007812 -2.91796875,5.0859375 0,0.93749998 0.28125,2.03906248 1.19531245,2.03906248 1.40625,0 2.9179688,-2.85937498 2.9179688,-5.08593748 z m -3.0585938,1.359375 c 0.1640625,-0.6328125 0.3632813,-1.4296875 0.7617188,-2.1328125 0.2695312,-0.4921875 0.6445312,-1.0546875 1.0898437,-1.0546875 0.4921875,0 0.5507813,0.6445312 0.5507813,1.2070312 0,0.4921875 -0.082031,0.9960938 -0.328125,1.9804688 z m 1.9921875,0.328125 c -0.1171875,0.4570312 -0.3164062,1.3007812 -0.703125,2.015625 -0.3398437,0.67968748 -0.7265625,1.17187498 -1.1484375,1.17187498 -0.328125,0 -0.5390625,-0.29296875 -0.5390625,-1.21874998 0,-0.421875 0.058594,-0.9960938 0.3164063,-1.96875 z m 0,0"
       style="fill:#000000;fill-opacity:1;fill-rule:nonzero;stroke:none"
       aria-label="θ"
       transform="matrix(1.3333333,0,0,1.3333333,121.98533,76.336)" />
    <path
       id="path14"
       d="m 4.5829375,-3.1871562 c 0,-0.796875 -0.046875,-1.59375 -0.3984375,-2.3320313 C 3.7274687,-6.480125 2.9071562,-6.6324687 2.497,-6.6324687 c -0.5976563,0 -1.3359375,0.2578125 -1.734375,1.1835937 -0.328125,0.6914063 -0.375,1.4648438 -0.375,2.2617188 0,0.75 0.046875,1.640625 0.4453125,2.4023437 C 1.2665312,0.02378125 1.9930937,0.223 2.4852812,0.223 3.0243437,0.223 3.7743437,0.0120625 4.2196562,-0.93715625 4.5360625,-1.6285625 4.5829375,-2.402 4.5829375,-3.1871562 Z M 2.4852812,3.4375e-4 c -0.3867187,0 -0.984375,-0.24609375 -1.1601562,-1.20703125 -0.1054688,-0.5976562 -0.1054688,-1.5117187 -0.1054688,-2.0976562 0,-0.6445313 0,-1.3007813 0.082031,-1.8398438 0.1875,-1.1835937 0.9257812,-1.265625 1.1835937,-1.265625 0.328125,0 0.984375,0.1757813 1.171875,1.1601563 0.09375,0.5625 0.09375,1.3125 0.09375,1.9453125 0,0.75 0,1.4179687 -0.1054687,2.0625 C 3.4930937,-0.30434375 2.9305937,3.4375e-4 2.4852812,3.4375e-4 Z m 0,0"
       style="fill:#000000;fill-opacity:1;fill-rule:nonzero;stroke:none"
       aria-label="0"
       transform="matrix(1.3333333,0,0,1.3333333,171.67067,94.202667)" />
    <path
       id="path15"
       d="m 2.6373047,-3.7133828 h 1.125 c -0.328125,1.4765625 -0.4101563,1.8984375 -0.4101563,2.5664062 0,0.15234379 0,0.42187504 0.070312,0.76171879 0.1054688,0.43359375 0.2109375,0.4921875 0.3632813,0.4921875 0.1992187,0 0.4101562,-0.17578125 0.4101562,-0.375 0,-0.0585938 0,-0.0820313 -0.058594,-0.22265625 -0.292968,-0.71484374 -0.292968,-1.35937504 -0.292968,-1.64062504 0,-0.5273437 0.070312,-1.0664062 0.1757813,-1.5820312 h 1.1367187 c 0.1289063,0 0.4921875,0 0.4921875,-0.3398438 0,-0.234375 -0.2109375,-0.234375 -0.3984375,-0.234375 H 1.9107422 c -0.2109375,0 -0.5976563,0 -1.03125001,0.46875 -0.3515625,0.3867188 -0.609375,0.84375 -0.609375,0.890625 0,0.011719 0,0.1054688 0.1171875,0.1054688 0.0820313,0 0.10546875,-0.046875 0.1640625,-0.1289063 C 1.0318359,-3.7133828 1.6177734,-3.7133828 1.8169922,-3.7133828 h 0.5625 c -0.3164063,1.2070312 -0.8554688,2.4140625 -1.2773438,3.31640624 -0.070312,0.15234375 -0.070312,0.1640625 -0.070312,0.234375 0,0.19921875 0.1523438,0.26953125 0.28125,0.26953125 0.3046875,0 0.3867188,-0.26953125 0.5039063,-0.64453125 0.140625,-0.45703125 0.140625,-0.48046874 0.2695312,-0.97265624 z m 0,0"
       style="fill:#000000;fill-opacity:1;fill-rule:nonzero;stroke:none"
       aria-label="π"
       transform="matrix(1.3333333,0,0,1.3333333,10.8,91.361333)" />
    <g
       id="g15"
       aria-label="0∼π"
       transform="matrix(1.3333333,0,0,1.3333333,363.56267,68.698667)">
      <path
         id="path16"
         d="m 4.5819062,-3.1870859 c 0,-0.796875 -0.046875,-1.59375 -0.3984375,-2.3320313 -0.4570312,-0.9609375 -1.2773437,-1.1132812 -1.6875,-1.1132812 -0.5976562,0 -1.3359375,0.2578125 -1.73437495,1.1835937 -0.328125,0.6914063 -0.375,1.4648438 -0.375,2.2617188 0,0.75 0.046875,1.640625 0.4453125,2.40234371 C 1.2655,0.02385156 1.9920625,0.22307031 2.48425,0.22307031 c 0.5390625,0 1.2890625,-0.2109375 1.734375,-1.16015625 C 4.5350312,-1.6284922 4.5819062,-2.4019297 4.5819062,-3.1870859 Z M 2.48425,4.140625e-4 C 2.0975312,4.140625e-4 1.499875,-0.24567969 1.3240937,-1.2066172 1.218625,-1.8042734 1.218625,-2.7183359 1.218625,-3.3042734 c 0,-0.6445313 0,-1.3007813 0.082031,-1.8398438 0.1875,-1.1835937 0.9257813,-1.265625 1.1835938,-1.265625 0.328125,0 0.984375,0.1757813 1.171875,1.1601563 0.09375,0.5625 0.09375,1.3125 0.09375,1.9453125 0,0.75 0,1.4179687 -0.1054688,2.0625 C 3.4920625,-0.30427344 2.9295625,4.140625e-4 2.48425,4.140625e-4 Z m 0,0"
         style="fill:#000000;fill-opacity:1;fill-rule:nonzero;stroke:none" />
      <path
         id="path17"
         d="m 14.944211,-3.3277109 c 0,-0.2226563 -0.05859,-0.3164063 -0.140625,-0.3164063 -0.04687,0 -0.128906,0.070312 -0.140625,0.2578125 -0.03516,0.9609375 -0.703125,1.5 -1.394531,1.5 -0.632813,0 -1.101563,-0.421875 -1.59375,-0.8554687 -0.503907,-0.4570313 -1.03125,-0.9140625 -1.6992191,-0.9140625 -1.0898437,0 -1.6757812,1.1015625 -1.6757812,2.0039062 0,0.3164063 0.1289062,0.3164063 0.140625,0.3164063 0.1054687,0 0.140625,-0.1992188 0.140625,-0.2226563 0.035156,-1.1015625 0.7851562,-1.5351562 1.3945312,-1.5351562 0.6210941,0 1.1015621,0.421875 1.5937501,0.8554687 0.503906,0.4570313 1.019531,0.9140625 1.699219,0.9140625 1.089843,0 1.675781,-1.1015625 1.675781,-2.0039062 z m 0,0"
         style="fill:#000000;fill-opacity:1;fill-rule:nonzero;stroke:none" />
      <path
         id="path18"
         d="m 20.900266,-3.7144297 h 1.125 c -0.328125,1.4765625 -0.410157,1.8984375 -0.410157,2.5664063 0,0.15234371 0,0.42187496 0.07031,0.76171871 0.105469,0.43359375 0.210937,0.4921875 0.363281,0.4921875 0.199219,0 0.410156,-0.17578125 0.410156,-0.375 0,-0.0585938 0,-0.0820313 -0.05859,-0.22265625 -0.292969,-0.71484376 -0.292969,-1.35937496 -0.292969,-1.64062496 0,-0.5273438 0.07031,-1.0664063 0.175781,-1.5820313 h 1.136719 c 0.128906,0 0.492187,0 0.492187,-0.3398437 0,-0.234375 -0.210937,-0.234375 -0.398437,-0.234375 h -3.339844 c -0.210937,0 -0.597656,0 -1.03125,0.46875 -0.351562,0.3867187 -0.609375,0.84375 -0.609375,0.890625 0,0.011719 0,0.1054687 0.117188,0.1054687 0.08203,0 0.105468,-0.046875 0.164062,-0.1289062 0.480469,-0.7617188 1.066406,-0.7617188 1.265625,-0.7617188 h 0.5625 c -0.316406,1.2070313 -0.855469,2.4140625 -1.277344,3.31640626 -0.07031,0.15234375 -0.07031,0.1640625 -0.07031,0.234375 0,0.19921875 0.152344,0.26953125 0.28125,0.26953125 0.304687,0 0.386719,-0.26953125 0.503906,-0.64453125 0.140625,-0.45703125 0.140625,-0.48046876 0.269531,-0.97265626 z m 0,0"
         style="fill:#000000;fill-opacity:1;fill-rule:nonzero;stroke:none" />
    </g>
  </g>
</svg>
