<?xml version="1.0" encoding="UTF-8" standalone="no"?>
<!-- Created with Inkscape (http://www.inkscape.org/) -->

<svg
   version="1.1"
   id="svg1"
   width="280.67999"
   height="91.09333"
   viewBox="0 0 280.67999 91.09333"
   sodipodi:docname="RtoU(1).pdf"
   xmlns:inkscape="http://www.inkscape.org/namespaces/inkscape"
   xmlns:sodipodi="http://sodipodi.sourceforge.net/DTD/sodipodi-0.dtd"
   xmlns="http://www.w3.org/2000/svg"
   xmlns:svg="http://www.w3.org/2000/svg">
  <defs
     id="defs1" />
  <sodipodi:namedview
     id="namedview1"
     pagecolor="#ffffff"
     bordercolor="#000000"
     borderopacity="0.25"
     inkscape:showpageshadow="2"
     inkscape:pageopacity="0.0"
     inkscape:pagecheckerboard="0"
     inkscape:deskcolor="#d1d1d1">
    <inkscape:page
       x="0"
       y="0"
       inkscape:label="1"
       id="page1"
       width="280.67999"
       height="91.09333"
       margin="0"
       bleed="0" />
  </sodipodi:namedview>
  <g
     id="g1"
     inkscape:groupmode="layer"
     inkscape:label="1">
    <path
       id="path1"
       d="m 146.54619,-88.59302 c 0,18.66217 15.13164,33.78859 33.79381,33.78859 18.65695,0 33.78859,-15.12642 33.78859,-33.78859 0,-18.66217 -15.13164,-33.78857 -33.78859,-33.78857 -18.66217,0 -33.79381,15.1264 -33.79381,33.78857 z"
       style="fill:none;stroke:#000000;stroke-width:0.74721;stroke-linecap:butt;stroke-linejoin:miter;stroke-miterlimit:10;stroke-dasharray:none;stroke-opacity:1"
       transform="matrix(1.3333333,0,0,-1.3333333,-6.5986667,-72.577333)" />
    <path
       id="path2"
       d="m 8.64066,-88.59302 h 62.76516 56.83387 m -98.67731,2.09218 v -4.18436 m 20.92172,4.18436 v -4.18436 m 20.92172,4.18436 v -4.18436 m 20.92173,4.18436 v -4.18436 m 20.92172,4.18436 v -4.18436"
       style="fill:none;stroke:#000000;stroke-width:0.74721;stroke-linecap:butt;stroke-linejoin:miter;stroke-miterlimit:10;stroke-dasharray:none;stroke-opacity:1"
       transform="matrix(1.3333333,0,0,-1.3333333,-6.5986667,-72.577333)" />
    <path
       id="path3"
       d="m 213.17142,-88.59302 c 0,0.52828 0.42889,0.95719 0.95717,0.95719 0.52826,0 0.95715,-0.42891 0.95715,-0.95719 0,-0.52827 -0.42889,-0.95718 -0.95715,-0.95718 -0.52828,0 -0.95717,0.42891 -0.95717,0.95718 z"
       style="fill:#070000;fill-opacity:1;fill-rule:nonzero;stroke:#000000;stroke-width:0.74721;stroke-linecap:butt;stroke-linejoin:miter;stroke-miterlimit:10;stroke-dasharray:none;stroke-opacity:1"
       transform="matrix(1.3333333,0,0,-1.3333333,-6.5986667,-72.577333)" />
    <path
       id="path4"
       d="m 71.40582,-88.59302 c 28.14495,23.10282 121.84288,17.25519 138.90978,3.19579"
       style="fill:none;stroke:#000000;stroke-width:0.74721;stroke-linecap:butt;stroke-linejoin:miter;stroke-miterlimit:10;stroke-dasharray:none;stroke-opacity:1"
       transform="matrix(1.3333333,0,0,-1.3333333,-6.5986667,-72.577333)" />
    <path
       id="path5"
       d="m 206.40448,-84.46275 4.85783,-1.80272 -1.62878,4.91888 z"
       style="fill:#000000;fill-opacity:1;fill-rule:nonzero;stroke:#000000;stroke-width:0.0797;stroke-linecap:butt;stroke-linejoin:miter;stroke-miterlimit:10;stroke-dasharray:none;stroke-opacity:0"
       transform="matrix(1.3333333,0,0,-1.3333333,-6.5986667,-72.577333)" />
    <path
       id="path6"
       d="m 81.36456,-88.59302 c 0,0.52828 0.4289,0.95719 0.95717,0.95719 0.52827,0 0.95717,-0.42891 0.95717,-0.95719 0,-0.52827 -0.4289,-0.95718 -0.95717,-0.95718 -0.52827,0 -0.95717,0.42891 -0.95717,0.95718 z"
       style="fill:#070000;fill-opacity:1;fill-rule:nonzero;stroke:#000000;stroke-width:0.74721;stroke-linecap:butt;stroke-linejoin:miter;stroke-miterlimit:10;stroke-dasharray:none;stroke-opacity:1"
       transform="matrix(1.3333333,0,0,-1.3333333,-6.5986667,-72.577333)" />
    <path
       id="path7"
       d="m 82.32173,-88.59302 c 12.92961,-11.72137 42.70123,-15.61282 63.59679,-0.46551"
       style="fill:none;stroke:#000000;stroke-width:0.74721;stroke-linecap:butt;stroke-linejoin:miter;stroke-miterlimit:10;stroke-dasharray:none;stroke-opacity:1"
       transform="matrix(1.3333333,0,0,-1.3333333,-6.5986667,-72.577333)" />
    <path
       id="path8"
       d="m 143.00536,-93.39943 c 1.07217,2.03973 2.25003,3.64223 3.54083,4.80641 -1.47907,-0.91316 -3.34728,-1.59515 -5.60564,-2.0533"
       style="fill:none;stroke:#000000;stroke-width:0.74721;stroke-linecap:butt;stroke-linejoin:miter;stroke-miterlimit:10;stroke-dasharray:none;stroke-opacity:1"
       transform="matrix(1.3333333,0,0,-1.3333333,-6.5986667,-72.577333)" />
    <path
       id="path9"
       d="m 145.58902,-88.59302 c 0,0.52828 0.42889,0.95719 0.95717,0.95719 0.52827,0 0.95717,-0.42891 0.95717,-0.95719 0,-0.52827 -0.4289,-0.95718 -0.95717,-0.95718 -0.52828,0 -0.95717,0.42891 -0.95717,0.95718 z"
       style="fill:#070000;fill-opacity:1;fill-rule:nonzero;stroke:#000000;stroke-width:0.74721;stroke-linecap:butt;stroke-linejoin:miter;stroke-miterlimit:10;stroke-dasharray:none;stroke-opacity:1"
       transform="matrix(1.3333333,0,0,-1.3333333,-6.5986667,-72.577333)" />
    <path
       id="path10"
       d="m 4.5812109,-3.1876484 c 0,-0.796875 -0.046875,-1.59375 -0.3984375,-2.3320313 -0.4570312,-0.9609375 -1.2773437,-1.1132812 -1.6875,-1.1132812 -0.5976562,0 -1.3359375,0.2578125 -1.73437496,1.1835937 -0.328125,0.6914063 -0.375,1.4648438 -0.375,2.2617188 0,0.75 0.046875,1.640625 0.4453125,2.40234371 0.43359376,0.80859375 1.16015626,1.0078125 1.65234376,1.0078125 0.5390625,0 1.2890625,-0.2109375 1.734375,-1.16015625 C 4.5343359,-1.6290547 4.5812109,-2.4024922 4.5812109,-3.1876484 Z M 3.7491797,-3.3048359 c 0,0.75 0,1.4179687 -0.1054688,2.0625 -0.1523437,0.93749996 -0.7148437,1.2421874625 -1.1601562,1.2421874625 -0.3867188,0 -0.984375,-0.2460937525 -1.1601563,-1.2070312625 -0.1054687,-0.5976562 -0.1054687,-1.5117187 -0.1054687,-2.0976562 0,-0.6445313 0,-1.3007813 0.082031,-1.8398438 0.1875,-1.1835937 0.9257813,-1.265625 1.1835938,-1.265625 0.328125,0 0.984375,0.1757813 1.171875,1.1601563 0.09375,0.5625 0.09375,1.3125 0.09375,1.9453125 z m 0,0"
       style="fill:#000000;fill-opacity:1;fill-rule:nonzero;stroke:none"
       aria-label="0"
       transform="matrix(1.3333333,0,0,1.3333333,86.38,61.230667)" />
    <path
       id="path11"
       d="m 4.1730313,3.4375e-4 v -0.3046875 H 3.856625 c -0.9023437,0 -0.9257812,-0.1171875 -0.9257812,-0.48046875 v -5.5898437 c 0,-0.234375 0,-0.2578125 -0.234375,-0.2578125 -0.609375,0.6328125 -1.4882813,0.6328125 -1.80468755,0.6328125 V -5.68325 c 0.19921875,0 0.78515625,0 1.30078125,-0.2578125 v 5.15625 c 0,0.3515625 -0.035156,0.48046875 -0.9257812,0.48046875 H 0.950375 V 3.4375e-4 C 1.3019375,-0.0348125 2.1574063,-0.0348125 2.5558438,-0.0348125 c 0.3984375,0 1.265625,0 1.6171875,0.03515625 z m 0,0"
       style="fill:#000000;fill-opacity:1;fill-rule:nonzero;stroke:none"
       aria-label="1"
       transform="matrix(1.3333333,0,0,1.3333333,114.04533,61.202667)" />
    <path
       id="path12"
       d="M 4.4776172,-1.7340312 H 4.2198047 C 4.1729297,-1.4293437 4.1026172,-0.99575 4.0088672,-0.84340625 3.9385547,-0.761375 3.2823047,-0.761375 3.0596484,-0.761375 H 1.2666797 l 1.0546875,-1.03125 c 1.5585937,-1.3710937 2.15625,-1.9101562 2.15625,-2.90625 0,-1.1367187 -0.9023438,-1.9335937 -2.1210938,-1.9335937 -1.125,0 -1.85156246,0.9140625 -1.85156246,1.8046875 0,0.5507812 0.4921875,0.5507812 0.52734376,0.5507812 0.1640625,0 0.515625,-0.1171875 0.515625,-0.5273437 0,-0.2578125 -0.1875,-0.515625 -0.5273438,-0.515625 -0.0820312,0 -0.10546871,0 -0.12890621,0.011719 0.22265621,-0.6445312 0.76171871,-1.0195312 1.33593751,-1.0195312 0.9140625,0 1.3359375,0.8085937 1.3359375,1.6289062 0,0.796875 -0.4921875,1.5820313 -1.0429688,2.203125 L 0.61042969,-0.3629375 C 0.50496094,-0.25746875 0.50496094,-0.23403125 0.50496094,3.4375e-4 H 4.1963672 Z m 0,0"
       style="fill:#000000;fill-opacity:1;fill-rule:nonzero;stroke:none"
       aria-label="2"
       transform="matrix(1.3333333,0,0,1.3333333,141.94,61.202667)" />
    <path
       id="path13"
       d="M 2.7541875,-1.8629375 V -2.4371562 H 0.10575 v 0.5742187 z m 4.734375,1.86328125 v -0.3046875 H 7.1721563 c -0.9023438,0 -0.9257813,-0.1171875 -0.9257813,-0.48046875 v -5.5898437 c 0,-0.234375 0,-0.2578125 -0.234375,-0.2578125 -0.609375,0.6328125 -1.4882812,0.6328125 -1.8046875,0.6328125 V -5.68325 c 0.1992188,0 0.7851563,0 1.3007813,-0.2578125 v 5.15625 c 0,0.3515625 -0.035156,0.48046875 -0.9257813,0.48046875 H 4.2659063 V 3.4375e-4 C 4.6174688,-0.0348125 5.4729375,-0.0348125 5.871375,-0.0348125 c 0.3984375,0 1.265625,0 1.6171875,0.03515625 z m 0,0"
       style="fill:#000000;fill-opacity:1;fill-rule:nonzero;stroke:none"
       aria-label="-1"
       transform="matrix(1.3333333,0,0,1.3333333,58.484,61.202667)" />
    <path
       id="path14"
       d="M 2.7546875,-1.8629375 V -2.4371562 H 0.10625 v 0.5742187 z M 7.79375,-1.7340312 H 7.5359375 C 7.4890625,-1.4293437 7.41875,-0.99575 7.325,-0.84340625 7.2546875,-0.761375 6.5984375,-0.761375 6.3757813,-0.761375 H 4.5828125 L 5.6375,-1.792625 c 1.5585938,-1.3710937 2.15625,-1.9101562 2.15625,-2.90625 0,-1.1367187 -0.9023437,-1.9335937 -2.1210937,-1.9335937 -1.125,0 -1.8515625,0.9140625 -1.8515625,1.8046875 0,0.5507812 0.4921875,0.5507812 0.5273437,0.5507812 0.1640625,0 0.515625,-0.1171875 0.515625,-0.5273437 0,-0.2578125 -0.1875,-0.515625 -0.5273437,-0.515625 -0.082031,0 -0.1054688,0 -0.1289063,0.011719 0.2226563,-0.6445312 0.7617188,-1.0195312 1.3359375,-1.0195312 0.9140625,0 1.3359375,0.8085937 1.3359375,1.6289062 0,0.796875 -0.4921875,1.5820313 -1.0429687,2.203125 L 3.9265625,-0.3629375 C 3.8210938,-0.25746875 3.8210938,-0.23403125 3.8210938,3.4375e-4 H 7.5125 Z m 0,0"
       style="fill:#000000;fill-opacity:1;fill-rule:nonzero;stroke:none"
       aria-label="-2"
       transform="matrix(1.3333333,0,0,1.3333333,28.733333,61.202667)" />
  </g>
</svg>
