<?xml version="1.0" encoding="UTF-8" standalone="no"?>
<!-- Created with Inkscape (http://www.inkscape.org/) -->

<svg
   version="1.1"
   id="svg1"
   width="201.61333"
   height="183.30667"
   viewBox="0 0 201.61333 183.30667"
   sodipodi:docname="three-leg-diagram.pdf"
   xmlns:inkscape="http://www.inkscape.org/namespaces/inkscape"
   xmlns:sodipodi="http://sodipodi.sourceforge.net/DTD/sodipodi-0.dtd"
   xmlns="http://www.w3.org/2000/svg"
   xmlns:svg="http://www.w3.org/2000/svg">
  <defs
     id="defs1" />
  <sodipodi:namedview
     id="namedview1"
     pagecolor="#ffffff"
     bordercolor="#000000"
     borderopacity="0.25"
     inkscape:showpageshadow="2"
     inkscape:pageopacity="0.0"
     inkscape:pagecheckerboard="0"
     inkscape:deskcolor="#d1d1d1">
    <inkscape:page
       x="0"
       y="0"
       inkscape:label="1"
       id="page1"
       width="201.61333"
       height="183.30667"
       margin="0"
       bleed="0" />
  </sodipodi:namedview>
  <g
     id="g1"
     inkscape:groupmode="layer"
     inkscape:label="1">
    <path
       id="path1"
       d="m 103.65666,-59.34967 c 0,2.88719 2.34324,5.23042 5.23042,5.23042 2.88721,0 5.23044,-2.34323 5.23044,-5.23042 0,-2.89244 -2.34323,-5.23044 -5.23044,-5.23044 -2.88718,0 -5.23042,2.338 -5.23042,5.23044 z"
       style="fill:#000000;fill-opacity:1;fill-rule:nonzero;stroke:#000000;stroke-width:1.49442;stroke-linecap:butt;stroke-linejoin:miter;stroke-miterlimit:10;stroke-dasharray:none;stroke-opacity:1"
       transform="matrix(1.3333333,0,0,-1.3333333,-63.114667,-15.376)" />
    <path
       id="path2"
       d="m 103.65666,-101.19312 c 0,2.8872 2.34324,5.23043 5.23042,5.23043 2.88721,0 5.23044,-2.34323 5.23044,-5.23043 0,-2.89244 -2.34323,-5.23043 -5.23044,-5.23043 -2.88718,0 -5.23042,2.33799 -5.23042,5.23043 z"
       style="fill:#000000;fill-opacity:1;fill-rule:nonzero;stroke:#000000;stroke-width:1.49442;stroke-linecap:butt;stroke-linejoin:miter;stroke-miterlimit:10;stroke-dasharray:none;stroke-opacity:1"
       transform="matrix(1.3333333,0,0,-1.3333333,-63.114667,-15.376)" />
    <path
       id="path3"
       d="M 108.88708,-59.34967 129.8088,-80.2714"
       style="fill:none;stroke:#000000;stroke-width:1.49442;stroke-linecap:butt;stroke-linejoin:miter;stroke-miterlimit:10;stroke-dasharray:none;stroke-opacity:1"
       transform="matrix(1.3333333,0,0,-1.3333333,-63.114667,-15.376)" />
    <path
       id="path4"
       d="M 108.88708,-101.19312 129.8088,-80.2714"
       style="fill:none;stroke:#000000;stroke-width:1.49442;stroke-linecap:butt;stroke-linejoin:miter;stroke-miterlimit:10;stroke-dasharray:none;stroke-opacity:1"
       transform="matrix(1.3333333,0,0,-1.3333333,-63.114667,-15.376)" />
    <path
       id="path5"
       d="m 124.57838,-80.2714 c 0,2.8872 2.34324,5.23043 5.23042,5.23043 2.88721,0 5.23045,-2.34323 5.23045,-5.23043 0,-2.89243 -2.34324,-5.23043 -5.23045,-5.23043 -2.88718,0 -5.23042,2.338 -5.23042,5.23043 z"
       style="fill:#000000;fill-opacity:1;fill-rule:nonzero;stroke:#000000;stroke-width:1.49442;stroke-linecap:butt;stroke-linejoin:miter;stroke-miterlimit:10;stroke-dasharray:none;stroke-opacity:1"
       transform="matrix(1.3333333,0,0,-1.3333333,-63.114667,-15.376)" />
    <path
       id="path6"
       d="m 145.5001,-80.2714 c 0,2.8872 2.34324,5.23043 5.23043,5.23043 2.88721,0 5.23044,-2.34323 5.23044,-5.23043 0,-2.89243 -2.34323,-5.23043 -5.23044,-5.23043 -2.88719,0 -5.23043,2.338 -5.23043,5.23043 z"
       style="fill:#000000;fill-opacity:1;fill-rule:nonzero;stroke:#000000;stroke-width:1.49442;stroke-linecap:butt;stroke-linejoin:miter;stroke-miterlimit:10;stroke-dasharray:none;stroke-opacity:1"
       transform="matrix(1.3333333,0,0,-1.3333333,-63.114667,-15.376)" />
    <path
       id="path7"
       d="m 129.8088,-80.2714 h 32.95173"
       style="fill:none;stroke:#000000;stroke-width:1.49442;stroke-linecap:butt;stroke-linejoin:miter;stroke-miterlimit:10;stroke-dasharray:none;stroke-opacity:1"
       transform="matrix(1.3333333,0,0,-1.3333333,-63.114667,-15.376)" />
    <path
       id="path8"
       d="m 187.34355,-80.2714 c 0,2.8872 2.34323,5.23043 5.23042,5.23043 2.88721,0 5.23044,-2.34323 5.23044,-5.23043 0,-2.89243 -2.34323,-5.23043 -5.23044,-5.23043 -2.88719,0 -5.23042,2.338 -5.23042,5.23043 z"
       style="fill:#000000;fill-opacity:1;fill-rule:nonzero;stroke:#000000;stroke-width:1.49442;stroke-linecap:butt;stroke-linejoin:miter;stroke-miterlimit:10;stroke-dasharray:none;stroke-opacity:1"
       transform="matrix(1.3333333,0,0,-1.3333333,-63.114667,-15.376)" />
    <path
       id="path9"
       d="m 61.81322,-143.03656 c 0,2.88719 2.34323,5.23042 5.23042,5.23042 2.88721,0 5.23044,-2.34323 5.23044,-5.23042 0,-2.89244 -2.34323,-5.23044 -5.23044,-5.23044 -2.88719,0 -5.23042,2.338 -5.23042,5.23044 z"
       style="fill:#000000;fill-opacity:1;fill-rule:nonzero;stroke:#000000;stroke-width:1.49442;stroke-linecap:butt;stroke-linejoin:miter;stroke-miterlimit:10;stroke-dasharray:none;stroke-opacity:1"
       transform="matrix(1.3333333,0,0,-1.3333333,-63.114667,-15.376)" />
    <path
       id="path10"
       d="m 61.81322,-17.50623 c 0,2.8872 2.34323,5.23043 5.23042,5.23043 2.88721,0 5.23044,-2.34323 5.23044,-5.23043 0,-2.89244 -2.34323,-5.23043 -5.23044,-5.23043 -2.88719,0 -5.23042,2.33799 -5.23042,5.23043 z"
       style="fill:#000000;fill-opacity:1;fill-rule:nonzero;stroke:#000000;stroke-width:1.49442;stroke-linecap:butt;stroke-linejoin:miter;stroke-miterlimit:10;stroke-dasharray:none;stroke-opacity:1"
       transform="matrix(1.3333333,0,0,-1.3333333,-63.114667,-15.376)" />
    <path
       id="path11"
       d="M 67.04364,-17.50623 87.96536,-38.42795"
       style="fill:none;stroke:#000000;stroke-width:1.49442;stroke-linecap:butt;stroke-linejoin:miter;stroke-miterlimit:10;stroke-dasharray:none;stroke-opacity:1"
       transform="matrix(1.3333333,0,0,-1.3333333,-63.114667,-15.376)" />
    <path
       id="path12"
       d="m 182.11311,-80.2714 h 10.46086"
       style="fill:none;stroke:#000000;stroke-width:1.49442;stroke-linecap:butt;stroke-linejoin:miter;stroke-miterlimit:10;stroke-dasharray:none;stroke-opacity:1"
       transform="matrix(1.3333333,0,0,-1.3333333,-63.114667,-15.376)" />
    <path
       id="path13"
       d="m 67.04364,-143.03656 20.92172,20.92172"
       style="fill:none;stroke:#000000;stroke-width:1.49442;stroke-linecap:butt;stroke-linejoin:miter;stroke-miterlimit:10;stroke-dasharray:none;stroke-opacity:1"
       transform="matrix(1.3333333,0,0,-1.3333333,-63.114667,-15.376)" />
    <path
       id="path14"
       d="m 130.33186,-92.05557 c 0,-2.4426 1.21868,-3.66129 3.66129,-3.66129 h 22.37056 c 3.48869,0 5.23042,-1.2187 5.23042,-3.66131 0,2.44261 1.74175,3.66131 5.23044,3.66131 m -1.56914,0 h 23.94492 c 2.44261,0 3.66128,1.21869 3.66128,3.66129"
       style="fill:none;stroke:#000000;stroke-width:1.49442;stroke-linecap:butt;stroke-linejoin:miter;stroke-miterlimit:10;stroke-dasharray:none;stroke-opacity:1"
       transform="matrix(1.3333333,0,0,-1.3333333,-63.114667,-15.376)" />
    <path
       id="path15"
       d="m 60.67299,-24.58301 c -1.72604,-1.72603 -1.72604,-3.45207 0,-5.17813 l 19.84947,-19.84947 c 2.46354,-2.46355 2.83489,-4.56094 1.10886,-6.28699 1.72603,1.72605 3.82345,1.35469 6.2922,-1.10884 m -1.11407,1.10884 20.96356,-20.96356 c 1.72604,-1.72606 3.45207,-1.72606 5.17812,0"
       style="fill:none;stroke:#000000;stroke-width:1.49442;stroke-linecap:butt;stroke-linejoin:miter;stroke-miterlimit:10;stroke-dasharray:none;stroke-opacity:1"
       transform="matrix(1.3333333,0,0,-1.3333333,-63.114667,-15.376)" />
    <path
       id="path16"
       d="m 113.07143,-79.20439 c -1.72603,1.72604 -3.45209,1.72604 -5.17813,0 L 86.0981,-100.9996 c -2.46355,-2.46353 -4.56093,-2.83489 -6.28697,-1.10884 1.72604,-1.72605 1.35467,-3.82346 -1.10886,-6.28698 m 1.10886,1.10884 -22.89883,-22.90405 c -1.72604,-1.72606 -1.72604,-3.45209 0,-5.17813"
       style="fill:none;stroke:#000000;stroke-width:1.49442;stroke-linecap:butt;stroke-linejoin:miter;stroke-miterlimit:10;stroke-dasharray:none;stroke-opacity:1"
       transform="matrix(1.3333333,0,0,-1.3333333,-63.114667,-15.376)" />
    <path
       id="path17"
       d="m 2.7548359,-3.5861797 c 0,-0.4101562 -0.3398437,-0.7617187 -0.7617187,-0.7617187 -0.4101563,0 -0.7617188,0.3515625 -0.7617188,0.7617187 0,0.4101563 0.3515625,0.7617188 0.7617188,0.7617188 0.421875,0 0.7617187,-0.3515625 0.7617187,-0.7617188 z m 6.3544922,0 c 0,-0.4101562 -0.3398437,-0.7617187 -0.7617187,-0.7617187 -0.4101563,0 -0.7617188,0.3515625 -0.7617188,0.7617187 0,0.4101563 0.3515625,0.7617188 0.7617188,0.7617188 0.421875,0 0.7617187,-0.3515625 0.7617187,-0.7617188 z m 6.3691409,0 c 0,-0.4101562 -0.339844,-0.7617187 -0.761719,-0.7617187 -0.410156,0 -0.761719,0.3515625 -0.761719,0.7617187 0,0.4101563 0.351563,0.7617188 0.761719,0.7617188 0.421875,0 0.761719,-0.3515625 0.761719,-0.7617188 z m 0,0"
       style="fill:#000000;fill-opacity:1;fill-rule:nonzero;stroke:none"
       aria-label="···"
       transform="matrix(1.3333333,0,0,1.3333333,153.00267,95.902667)" />
    <path
       id="path18"
       d="m 2.7509442,-3.5796017 c 0,-0.4143243 -0.3314595,-0.7623568 -0.7623568,-0.7623568 -0.4143244,0 -0.7623568,0.3480325 -0.7623568,0.7623568 0,0.3977514 0.3480324,0.7623568 0.7623568,0.7623568 0.4308973,0 0.7623568,-0.3646054 0.7623568,-0.7623568 z m 6.3557356,0 c 0,-0.4143243 -0.3314595,-0.7623568 -0.7623569,-0.7623568 -0.4143243,0 -0.7623568,0.3480325 -0.7623568,0.7623568 0,0.3977514 0.3480325,0.7623568 0.7623568,0.7623568 0.4308974,0 0.7623569,-0.3646054 0.7623569,-0.7623568 z m 6.3681652,0 c 0,-0.4143243 -0.331459,-0.7623568 -0.762357,-0.7623568 -0.414324,0 -0.762357,0.3480325 -0.762357,0.7623568 0,0.3977514 0.348033,0.7623568 0.762357,0.7623568 0.430898,0 0.762357,-0.3646054 0.762357,-0.7623568 z m 0,0"
       style="fill:#000000;fill-opacity:1;fill-rule:nonzero;stroke:none"
       aria-label="···"
       transform="matrix(0.9428,0.9428,-0.9428,0.9428,54.004218,41.007821)" />
    <path
       id="path19"
       d="m 2.7503034,-3.5787509 c 0,-0.4143244 -0.3314595,-0.7623569 -0.7623568,-0.7623569 -0.4143244,0 -0.7623569,0.3480325 -0.7623569,0.7623569 0,0.3977513 0.3480325,0.7623568 0.7623569,0.7623568 0.4308973,0 0.7623568,-0.3646055 0.7623568,-0.7623568 z m 6.3557355,0 c 0,-0.4143244 -0.3314594,-0.7623569 -0.7623568,-0.7623569 -0.4143243,0 -0.7623568,0.3480325 -0.7623568,0.7623569 0,0.3977513 0.3480325,0.7623568 0.7623568,0.7623568 0.4308974,0 0.7623568,-0.3646055 0.7623568,-0.7623568 z m 6.3702371,-0.00207 c 0,-0.4143243 -0.33146,-0.7623568 -0.762357,-0.7623568 -0.414324,0 -0.762357,0.3480325 -0.762357,0.7623568 0,0.3977514 0.348033,0.7623568 0.762357,0.7623568 0.430897,0 0.762357,-0.3646054 0.762357,-0.7623568 z m 0,0"
       style="fill:#000000;fill-opacity:1;fill-rule:nonzero;stroke:none"
       aria-label="···"
       transform="matrix(-0.9428,0.9428,-0.9428,-0.9428,76.222846,123.56422)" />
    <g
       id="g19"
       aria-label="|G&#10;p&#10;1&#10;|"
       transform="matrix(0.9428,0.9428,-0.9428,0.9428,13.362884,54.855821)">
      <path
         id="path20"
         d="m 2.2870943,-10.242495 c 0,-0.265168 0,-0.513762 -0.2983136,-0.513762 -0.2817405,0 -0.2817405,0.248594 -0.2817405,0.513762 V 3.065603 c 0,0.2651676 0,0.5137622 0.2817405,0.5137622 0.2983136,0 0.2983136,-0.2485946 0.2983136,-0.5137622 z m 0,0"
         style="fill:#000000;fill-opacity:1;fill-rule:nonzero;stroke:none" />
      <path
         id="path21"
         d="m 14.691965,-9.9773277 c 0,-0.1325833 -0.09944,-0.1325833 -0.132583,-0.1325833 -0.03315,0 -0.08286,0 -0.198876,0.1657293 l -0.994379,1.1766812 c -0.08286,-0.1160109 -0.364605,-0.6132001 -0.911513,-0.9446596 -0.6132,-0.3977509 -1.242973,-0.3977509 -1.441849,-0.3977509 -3.0825731,0 -6.314303,3.1322917 -6.314303,6.5297514 0,2.3533623 1.6407244,3.8780759 3.7952111,3.8780759 1.0275244,0 2.3367889,-0.34803246 3.0494269,-1.24297306 0.16573,0.54690814 0.464044,0.92808655 0.580054,0.92808655 0.06629,0 0.08286,-0.04971893 0.09944,-0.04971893 0.01657,-0.01657297 0.132584,-0.51376219 0.198876,-0.77892978 l 0.23202,-0.92808658 c 0.11601,-0.4640432 0.165729,-0.6629189 0.28174,-1.0938163 0.132584,-0.5469081 0.149157,-0.596627 0.94466,-0.596627 0.04972,0 0.232021,0 0.232021,-0.2817406 0,-0.1491568 -0.149156,-0.1491568 -0.182302,-0.1491568 -0.248595,0 -0.513763,0.033146 -0.77893,0.033146 h -0.77893 c -0.596627,0 -1.2264,-0.033146 -1.806454,-0.033146 -0.132584,0 -0.314887,0 -0.314887,0.2651676 0,0.1491568 0.116011,0.1491568 0.116011,0.1657298 h 0.364606 c 1.126962,0 1.126962,0.1160108 1.126962,0.3148865 0,0.016573 -0.265168,1.4749947 -0.546908,1.905892 -0.546908,0.79550276 -1.6738707,1.12696224 -2.5190924,1.12696224 -1.1103893,0 -2.9002705,-0.58005409 -2.9002705,-3.06600024 0,-0.9612325 0.3480325,-3.1488651 1.7401623,-4.7564435 0.8949406,-1.0440974 2.2373515,-1.7401623 3.4968976,-1.7401623 1.690443,0 2.28707,1.4418487 2.28707,2.7676867 0,0.2320216 -0.04972,0.5469081 -0.04972,0.7457838 0,0.1325838 0.149157,0.1325838 0.182303,0.1325838 0.16573,0 0.182303,-0.033146 0.232022,-0.2817406 z m 0,0"
         style="fill:#000000;fill-opacity:1;fill-rule:nonzero;stroke:none" />
      <path
         id="path22"
         d="m 15.512328,3.3763462 c -0.08286,0.3314595 -0.09944,0.3977514 -0.546909,0.3977514 -0.11601,0 -0.215448,0 -0.215448,0.1988757 0,0.082865 0.04972,0.1160108 0.132584,0.1160108 0.265167,0 0.546908,-0.033146 0.828648,-0.033146 0.33146,0 0.662919,0.033146 0.977806,0.033146 0.06629,0 0.198875,0 0.198875,-0.1988757 0,-0.1160108 -0.11601,-0.1160108 -0.248594,-0.1160108 -0.497189,0 -0.497189,-0.066292 -0.497189,-0.1657297 0,-0.1160108 0.430897,-1.7401623 0.480616,-1.9887569 0.149157,0.2983135 0.414324,0.629773 0.928086,0.629773 1.143536,0 2.403082,-1.44184875 2.403082,-2.91684345 0,-0.92808655 -0.580054,-1.59100555 -1.342411,-1.59100555 -0.480616,0 -0.961233,0.3646055 -1.292692,0.7457839 -0.09944,-0.5303352 -0.530335,-0.7457839 -0.894941,-0.7457839 -0.464043,0 -0.662919,0.3811784 -0.745784,0.5800541 -0.182302,0.3314595 -0.314886,0.92808658 -0.314886,0.96123253 0,0.0994378 0.116011,0.0994378 0.132584,0.0994378 0.09944,0 0.11601,-0.016573 0.165729,-0.23202164 0.16573,-0.69606499 0.364606,-1.17668119 0.729211,-1.17668119 0.182303,0 0.298314,0.082865 0.298314,0.4474704 0,0.2320215 -0.01657,0.3480324 -0.06629,0.5137621 z m 1.756735,-4.32554621 c 0.06629,-0.28174059 0.331459,-0.56348109 0.513762,-0.71263789 0.348033,-0.2983135 0.629773,-0.3646054 0.812076,-0.3646054 0.397751,0 0.629773,0.3480324 0.629773,0.9280865 0,0.58005412 -0.33146,1.74016231 -0.497189,2.1047677 -0.348033,0.7126379 -0.828649,1.0440974 -1.193255,1.0440974 -0.646346,0 -0.778929,-0.8452217 -0.778929,-0.8949406 0,-0.033146 0,-0.033146 0.01657,-0.16572974 z m 0,0"
         style="fill:#000000;fill-opacity:1;fill-rule:nonzero;stroke:none" />
      <path
         id="path23"
         d="m 22.414971,-0.77932702 c 0,-0.19887569 -0.01657,-0.19887569 -0.215448,-0.19887569 -0.447471,0.43089733 -1.077244,0.4474703 -1.358984,0.4474703 v 0.23202164 c 0.16573,0 0.6132,0 1.010951,-0.18230272 V 3.065603 c 0,0.2320216 0,0.3314595 -0.696065,0.3314595 h -0.265167 v 0.2485946 c 0.132584,-0.016573 0.977805,-0.016573 1.242973,-0.016573 0.198875,0 1.093816,0 1.242973,0.016573 V 3.3970625 h -0.265168 c -0.696065,0 -0.696065,-0.099438 -0.696065,-0.3314595 z m 0,0"
         style="fill:#000000;fill-opacity:1;fill-rule:nonzero;stroke:none" />
      <path
         id="path24"
         d="m 27.333001,-10.242495 c 0,-0.265168 0,-0.513762 -0.298313,-0.513762 -0.281741,0 -0.281741,0.248594 -0.281741,0.513762 V 3.065603 c 0,0.2651676 0,0.5137622 0.281741,0.5137622 0.298313,0 0.298313,-0.2485946 0.298313,-0.5137622 z m 0,0"
         style="fill:#000000;fill-opacity:1;fill-rule:nonzero;stroke:none" />
    </g>
    <g
       id="g24"
       aria-label="|G&#10;p&#10;2&#10;|"
       transform="matrix(0.9428,-0.9428,0.9428,0.9428,17.181154,136.06645)">
      <path
         id="path25"
         d="m 2.2863153,-10.242899 c 0,-0.265167 0,-0.513762 -0.2983135,-0.513762 -0.2817406,0 -0.2817406,0.248595 -0.2817406,0.513762 V 3.0651997 c 0,0.2651676 0,0.5137622 0.2817406,0.5137622 0.2983135,0 0.2983135,-0.2485946 0.2983135,-0.5137622 z m 0,0"
         style="fill:#000000;fill-opacity:1;fill-rule:nonzero;stroke:none" />
      <path
         id="path26"
         d="m 14.691186,-9.9777309 c 0,-0.1325841 -0.09944,-0.1325841 -0.132583,-0.1325841 -0.03315,0 -0.08286,0 -0.198876,0.16573 l -0.994378,1.1766812 c -0.08286,-0.1160108 -0.364606,-0.6132001 -0.911514,-0.9446595 -0.6132,-0.3977517 -1.242973,-0.3977517 -1.441849,-0.3977517 -3.082573,0 -6.3143029,3.1322924 -6.3143029,6.5297521 0,2.3533623 1.6407244,3.87807592 3.795211,3.87807592 1.0275244,0 2.3367889,-0.34803246 3.0494269,-1.24297306 0.16573,0.54690815 0.464044,0.92808655 0.580054,0.92808655 0.06629,0 0.08286,-0.04971892 0.09944,-0.04971892 0.01657,-0.01657298 0.132584,-0.5137622 0.198876,-0.77892978 l 0.232022,-0.92808651 c 0.11601,-0.4640433 0.165729,-0.662919 0.28174,-1.0938163 0.132584,-0.5469082 0.149157,-0.5966271 0.94466,-0.5966271 0.04972,0 0.232021,0 0.232021,-0.2817406 0,-0.1491567 -0.149156,-0.1491567 -0.182302,-0.1491567 -0.248595,0 -0.513763,0.033146 -0.77893,0.033146 h -0.77893 c -0.596627,0 -1.2264,-0.033146 -1.806454,-0.033146 -0.132584,0 -0.314887,0 -0.314887,0.2651676 0,0.1491567 0.116011,0.1491567 0.116011,0.1657297 h 0.364606 c 1.126962,0 1.126962,0.1160108 1.126962,0.3148865 0,0.016573 -0.265168,1.4749947 -0.546908,1.905892 -0.546908,0.79550278 -1.6738706,1.12696227 -2.5190923,1.12696227 -1.1103893,0 -2.9002705,-0.5800541 -2.9002705,-3.06600017 0,-0.9612325 0.3480325,-3.1488651 1.7401623,-4.7564436 0.8949406,-1.0440974 2.2373515,-1.7401623 3.4968975,-1.7401623 1.690443,0 2.28707,1.4418487 2.28707,2.7676867 0,0.2320216 -0.04972,0.5469081 -0.04972,0.7457838 0,0.1325838 0.149156,0.1325838 0.182302,0.1325838 0.16573,0 0.182303,-0.033146 0.232022,-0.2817406 z m 0,0"
         style="fill:#000000;fill-opacity:1;fill-rule:nonzero;stroke:none" />
      <path
         id="path27"
         d="m 15.51362,3.3780146 c -0.08286,0.3314595 -0.09944,0.3977514 -0.546908,0.3977514 -0.116011,0 -0.215449,0 -0.215449,0.1988757 0,0.082865 0.04972,0.1160108 0.132584,0.1160108 0.265168,0 0.546908,-0.033146 0.828649,-0.033146 0.331459,0 0.662919,0.033146 0.977805,0.033146 0.06629,0 0.198876,0 0.198876,-0.1988757 0,-0.1160108 -0.116011,-0.1160108 -0.248594,-0.1160108 -0.49719,0 -0.49719,-0.066292 -0.49719,-0.1657298 0,-0.1160108 0.430898,-1.7401623 0.480617,-1.9887569 0.149156,0.2983136 0.414324,0.629773 0.928086,0.629773 1.143535,0 2.403081,-1.4418487 2.403081,-2.9168434 0,-0.9280866 -0.580054,-1.5910055 -1.342411,-1.5910055 -0.480616,0 -0.961232,0.3646054 -1.292692,0.7457838 -0.09944,-0.5303352 -0.530335,-0.7457838 -0.89494,-0.7457838 -0.464043,0 -0.662919,0.3811784 -0.745784,0.5800541 -0.182303,0.3314595 -0.314886,0.92808653 -0.314886,0.96123248 0,0.0994378 0.11601,0.0994378 0.132583,0.0994378 0.09944,0 0.116011,-0.016573 0.16573,-0.23202164 0.16573,-0.69606484 0.364605,-1.17668114 0.729211,-1.17668114 0.182303,0 0.298313,0.082865 0.298313,0.4474703 0,0.2320217 -0.01657,0.3480325 -0.06629,0.5137622 z m 1.756736,-4.32554626 c 0.06629,-0.28174054 0.331459,-0.56348114 0.513762,-0.71263784 0.348032,-0.2983136 0.629773,-0.3646055 0.812075,-0.3646055 0.397752,0 0.629774,0.3480325 0.629774,0.9280866 0,0.58005407 -0.33146,1.74016225 -0.49719,2.1047677 -0.348032,0.7126379 -0.828648,1.0440974 -1.193254,1.0440974 -0.646346,0 -0.77893,-0.8452217 -0.77893,-0.8949406 0,-0.033146 0,-0.033146 0.01657,-0.16572979 z m 0,0"
         style="fill:#000000;fill-opacity:1;fill-rule:nonzero;stroke:none" />
      <path
         id="path28"
         d="m 23.590874,2.3857078 h -0.232022 c -0.01657,0.1491567 -0.08286,0.5634811 -0.182303,0.629773 -0.04972,0.033146 -0.596627,0.033146 -0.679492,0.033146 h -1.292692 c 0.729211,-0.646346 0.977806,-0.8452217 1.39213,-1.1766811 0.513762,-0.4143244 0.994379,-0.8452217 0.994379,-1.49156771 0,-0.84522168 -0.729211,-1.35898388 -1.624152,-1.35898388 -0.861795,0 -1.458422,0.59662707 -1.458422,1.24297306 0,0.36460543 0.314887,0.39775138 0.381179,0.39775138 0.16573,0 0.364605,-0.11601082 0.364605,-0.3811784 0,-0.1325838 -0.04972,-0.36460544 -0.414324,-0.36460544 0.215449,-0.49718922 0.696065,-0.64634599 1.010951,-0.64634599 0.712638,0 1.077244,0.54690815 1.077244,1.11038927 0,0.59662707 -0.430898,1.07724331 -0.662919,1.32583791 L 20.574592,3.3800862 C 20.5083,3.4298051 20.5083,3.4463781 20.5083,3.6452538 h 2.883698 z m 0,0"
         style="fill:#000000;fill-opacity:1;fill-rule:nonzero;stroke:none" />
      <path
         id="path29"
         d="m 27.332222,-10.242899 c 0,-0.265167 0,-0.513762 -0.298313,-0.513762 -0.281741,0 -0.281741,0.248595 -0.281741,0.513762 V 3.0651997 c 0,0.2651676 0,0.5137622 0.281741,0.5137622 0.298313,0 0.298313,-0.2485946 0.298313,-0.5137622 z m 0,0"
         style="fill:#000000;fill-opacity:1;fill-rule:nonzero;stroke:none" />
    </g>
    <g
       id="g29"
       aria-label="|G&#10;p&#10;3&#10;|"
       transform="matrix(1.3333333,0,0,1.3333333,149.076,135.472)">
      <path
         id="path30"
         d="m 2.2838203,-10.241695 c 0,-0.257813 0,-0.515625 -0.2929687,-0.515625 -0.28125,0 -0.28125,0.257812 -0.28125,0.515625 V 3.0708047 c 0,0.2578125 0,0.515625 0.28125,0.515625 0.2929687,0 0.2929687,-0.2578125 0.2929687,-0.515625 z m 0,0"
         style="fill:#000000;fill-opacity:1;fill-rule:nonzero;stroke:none" />
      <path
         id="path31"
         d="m 14.685188,-9.9721641 c 0,-0.1289059 -0.09375,-0.1289059 -0.128907,-0.1289059 -0.02344,0 -0.08203,0 -0.199218,0.1523434 l -0.996094,1.1835938 C 13.290656,-8.8823203 13.009406,-9.3745078 12.446906,-9.7143516 11.837531,-10.10107 11.216438,-10.10107 11.0055,-10.10107 c -3.0703125,0 -6.3046875,3.1289059 -6.3046875,6.5156247 0,2.3671875 1.640625,3.89062499 3.7851563,3.89062499 1.03125,0 2.3437502,-0.3515625 3.0585942,-1.25390625 0.164062,0.55078125 0.46875,0.9375 0.574218,0.9375 0.07031,0 0.08203,-0.046875 0.105469,-0.046875 0.01172,-0.0234375 0.128906,-0.52734375 0.199219,-0.78515625 l 0.222656,-0.92578129 c 0.117188,-0.46875 0.175781,-0.6679687 0.28125,-1.1015625 0.140625,-0.5390625 0.164063,-0.5859375 0.960938,-0.5976562 0.04687,0 0.222656,0 0.222656,-0.2695313 0,-0.1523437 -0.140625,-0.1523437 -0.1875,-0.1523437 -0.246094,0 -0.515625,0.035156 -0.773438,0.035156 h -0.773437 c -0.597656,0 -1.230469,-0.035156 -1.816406,-0.035156 -0.128907,0 -0.304688,0 -0.304688,0.2578125 0,0.1523437 0.117188,0.1523437 0.117188,0.1640625 h 0.351562 c 1.136719,0 1.136719,0.1171875 1.136719,0.328125 0,0.011719 -0.269531,1.4648437 -0.550781,1.8984375 -0.539063,0.79687499 -1.6757817,1.12499999 -2.5195317,1.12499999 -1.1015625,0 -2.8945313,-0.57421875 -2.8945313,-3.05859379 0,-0.9609375 0.3398438,-3.1523437 1.734375,-4.7695312 0.9023438,-1.03125 2.2382813,-1.734375 3.503906,-1.734375 1.6875,0 2.285157,1.4414062 2.285157,2.765625 0,0.234375 -0.05859,0.5507812 -0.05859,0.75 0,0.1289062 0.152344,0.1289062 0.1875,0.1289062 0.164062,0 0.175781,-0.023437 0.234375,-0.28125 z m 0,0"
         style="fill:#000000;fill-opacity:1;fill-rule:nonzero;stroke:none" />
      <path
         id="path32"
         d="m 15.511359,3.3696328 c -0.08203,0.3398438 -0.09375,0.4101563 -0.539062,0.4101563 -0.117188,0 -0.222656,0 -0.222656,0.1875 0,0.082031 0.04687,0.1171875 0.128906,0.1171875 0.269531,0 0.550781,-0.035156 0.832031,-0.035156 0.328125,0 0.667969,0.035156 0.984375,0.035156 0.05859,0 0.1875,0 0.1875,-0.1992188 0,-0.1054687 -0.105469,-0.1054687 -0.246094,-0.1054687 -0.492187,0 -0.492187,-0.070312 -0.492187,-0.1640625 0,-0.1171875 0.421875,-1.7460938 0.480469,-1.9921875 0.140625,0.2929687 0.410156,0.6328125 0.925781,0.6328125 1.148437,0 2.402344,-1.45312504 2.402344,-2.91796879 0,-0.93750001 -0.574219,-1.59375001 -1.335938,-1.59375001 -0.492187,0 -0.972656,0.3632813 -1.300781,0.75 -0.09375,-0.5390625 -0.527344,-0.75 -0.890625,-0.75 -0.457031,0 -0.65625,0.3867188 -0.738281,0.5742188 -0.1875,0.3398437 -0.316407,0.93749996 -0.316407,0.96093746 0,0.10546875 0.105469,0.10546875 0.128907,0.10546875 0.09375,0 0.105468,-0.0117188 0.164062,-0.234375 0.164063,-0.70312501 0.363281,-1.18359371 0.726563,-1.18359371 0.175781,0 0.304687,0.082031 0.304687,0.4570312 0,0.234375 -0.02344,0.3398438 -0.07031,0.5039063 z m 1.757813,-4.32421874 c 0.07031,-0.26953126 0.339844,-0.55078126 0.515625,-0.70312496 0.351562,-0.3046875 0.632812,-0.375 0.808594,-0.375 0.398437,0 0.632812,0.3515625 0.632812,0.9375 0,0.58593746 -0.328125,1.73437496 -0.503906,2.109375 -0.339844,0.703125 -0.820313,1.03125 -1.183594,1.03125 -0.65625,0 -0.785156,-0.8320313 -0.785156,-0.890625 0,-0.023437 0,-0.035156 0.02344,-0.16406254 z m 0,0"
         style="fill:#000000;fill-opacity:1;fill-rule:nonzero;stroke:none" />
      <path
         id="path33"
         d="m 21.97718,1.3129922 c 0.550781,0 0.9375,0.375 0.9375,1.125 0,0.8671875 -0.503907,1.125 -0.902344,1.125 -0.28125,0 -0.890625,-0.082031 -1.183594,-0.4921875 0.328125,-0.011719 0.398438,-0.2460938 0.398438,-0.3867188 0,-0.2226562 -0.164063,-0.3867187 -0.386719,-0.3867187 -0.1875,0 -0.386719,0.1171875 -0.386719,0.4101562 0,0.65625 0.726563,1.078125 1.570313,1.078125 0.972656,0 1.640625,-0.6445312 1.640625,-1.3476562 0,-0.5390625 -0.445313,-1.0898438 -1.21875,-1.2421875 0.738281,-0.26953126 0.996093,-0.79687501 0.996093,-1.21875001 0,-0.55078125 -0.632812,-0.9609375 -1.40625,-0.9609375 -0.773437,0 -1.359375,0.375 -1.359375,0.9375 0,0.234375 0.152344,0.36328125 0.363282,0.36328125 0.210937,0 0.351562,-0.1640625 0.351562,-0.3515625 0,-0.19921875 -0.140625,-0.3515625 -0.351562,-0.36328125 0.234375,-0.3046875 0.714843,-0.38671875 0.972656,-0.38671875 0.316406,0 0.761719,0.15234375 0.761719,0.76171875 0,0.29296875 -0.105469,0.609375 -0.28125,0.83203125 C 22.25843,1.0668984 22.07093,1.0903359 21.719367,1.1020547 c -0.175781,0.023437 -0.1875,0.023437 -0.222656,0.023437 -0.01172,0 -0.07031,0.011719 -0.07031,0.09375 0,0.09375 0.05859,0.09375 0.175782,0.09375 z m 0,0"
         style="fill:#000000;fill-opacity:1;fill-rule:nonzero;stroke:none" />
      <path
         id="path34"
         d="m 27.329719,-10.241695 c 0,-0.257813 0,-0.515625 -0.292969,-0.515625 -0.28125,0 -0.28125,0.257812 -0.28125,0.515625 V 3.0708047 c 0,0.2578125 0,0.515625 0.28125,0.515625 0.292969,0 0.292969,-0.2578125 0.292969,-0.515625 z m 0,0"
         style="fill:#000000;fill-opacity:1;fill-rule:nonzero;stroke:none" />
    </g>
  </g>
</svg>
