<?xml version="1.0" encoding="UTF-8" standalone="no"?>
<!-- Created with Inkscape (http://www.inkscape.org/) -->

<svg
   version="1.1"
   id="svg1"
   width="172.10667"
   height="113.17333"
   viewBox="0 0 172.10667 113.17333"
   sodipodi:docname="ex-1.pdf"
   xmlns:inkscape="http://www.inkscape.org/namespaces/inkscape"
   xmlns:sodipodi="http://sodipodi.sourceforge.net/DTD/sodipodi-0.dtd"
   xmlns="http://www.w3.org/2000/svg"
   xmlns:svg="http://www.w3.org/2000/svg">
  <defs
     id="defs1" />
  <sodipodi:namedview
     id="namedview1"
     pagecolor="#ffffff"
     bordercolor="#000000"
     borderopacity="0.25"
     inkscape:showpageshadow="2"
     inkscape:pageopacity="0.0"
     inkscape:pagecheckerboard="0"
     inkscape:deskcolor="#d1d1d1">
    <inkscape:page
       x="0"
       y="0"
       inkscape:label="1"
       id="page1"
       width="172.10667"
       height="113.17333"
       margin="0"
       bleed="0" />
  </sodipodi:namedview>
  <g
     id="g1"
     inkscape:groupmode="layer"
     inkscape:label="1">
    <path
       id="path1"
       d="m 140.19109,-93.86421 h 83.32113"
       style="fill:none;stroke:#9b9b9b;stroke-width:0.74721;stroke-linecap:butt;stroke-linejoin:miter;stroke-miterlimit:10;stroke-dasharray:4.48325, 4.48325;stroke-dashoffset:0;stroke-opacity:1"
       transform="matrix(1.3333333,0,0,-1.3333333,-126.40533,-68.068)" />
    <path
       id="path2"
       d="M 169.48163,-64.1926 140.19109,-93.86421"
       style="fill:none;stroke:#9b9b9b;stroke-width:0.74721;stroke-linecap:butt;stroke-linejoin:miter;stroke-miterlimit:10;stroke-dasharray:4.48325, 4.48325;stroke-dashoffset:0;stroke-opacity:1"
       transform="matrix(1.3333333,0,0,-1.3333333,-126.40533,-68.068)" />
    <path
       id="path3"
       d="m 100.91037,-79.86154 39.28072,-14.00267"
       style="fill:none;stroke:#9b9b9b;stroke-width:0.74721;stroke-linecap:butt;stroke-linejoin:miter;stroke-miterlimit:10;stroke-dasharray:4.48325, 4.48325;stroke-dashoffset:0;stroke-opacity:1"
       transform="matrix(1.3333333,0,0,-1.3333333,-126.40533,-68.068)" />
    <path
       id="path4"
       d="m 98.4969,-93.86421 c 0,23.02894 18.66524,41.69418 41.69419,41.69418 23.02894,0 41.69418,-18.66524 41.69418,-41.69418 0,-23.02895 -18.66524,-41.69419 -41.69418,-41.69419 -23.02895,0 -41.69419,18.66524 -41.69419,41.69419 z"
       style="fill:none;stroke:#f5a623;stroke-width:0.74721;stroke-linecap:butt;stroke-linejoin:miter;stroke-miterlimit:10;stroke-dasharray:4.48325, 4.48325;stroke-dashoffset:0;stroke-opacity:1"
       transform="matrix(1.3333333,0,0,-1.3333333,-126.40533,-68.068)" />
    <path
       id="path5"
       d="m 138.32307,-93.86421 c 0,1.03114 0.83687,1.86801 1.86802,1.86801 1.03115,0 1.86802,-0.83687 1.86802,-1.86801 0,-1.03116 -0.83687,-1.86803 -1.86802,-1.86803 -1.03115,0 -1.86802,0.83687 -1.86802,1.86803 z"
       style="fill:#000000;fill-opacity:1;fill-rule:nonzero;stroke:#000000;stroke-width:0.74721;stroke-linecap:butt;stroke-linejoin:miter;stroke-miterlimit:10;stroke-dasharray:none;stroke-opacity:1"
       transform="matrix(1.3333333,0,0,-1.3333333,-126.40533,-68.068)" />
    <path
       id="path6"
       d="m 100.91037,-79.86154 c 5.75351,16.13969 21.16841,27.69151 39.28072,27.69151 11.41732,0 21.75868,-4.58786 29.29054,-12.02257 l -29.29054,-29.67161 z"
       style="fill:none;stroke:#000000;stroke-width:2.24162;stroke-linecap:butt;stroke-linejoin:miter;stroke-miterlimit:10;stroke-dasharray:none;stroke-opacity:0"
       transform="matrix(1.3333333,0,0,-1.3333333,-126.40533,-68.068)" />
    <path
       id="path7"
       d="m 100.91037,-79.86154 c 5.75351,16.13969 21.16841,27.69151 39.28072,27.69151 11.41732,0 21.75868,-4.58786 29.29054,-12.02257"
       style="fill:none;stroke:#f5a623;stroke-width:2.24162;stroke-linecap:butt;stroke-linejoin:miter;stroke-miterlimit:10;stroke-dasharray:none;stroke-opacity:1"
       transform="matrix(1.3333333,0,0,-1.3333333,-126.40533,-68.068)" />
    <path
       id="path8"
       d="m 167.61362,-64.1926 c 0,1.03115 0.83687,1.86803 1.86801,1.86803 1.03114,0 1.86803,-0.83688 1.86803,-1.86803 0,-1.03112 -0.83689,-1.86801 -1.86803,-1.86801 -1.03114,0 -1.86801,0.83689 -1.86801,1.86801 z"
       style="fill:#9b9b9b;fill-opacity:1;fill-rule:nonzero;stroke:#9b9b9b;stroke-width:0.74721;stroke-linecap:butt;stroke-linejoin:miter;stroke-miterlimit:10;stroke-dasharray:none;stroke-opacity:1"
       transform="matrix(1.3333333,0,0,-1.3333333,-126.40533,-68.068)" />
    <path
       id="path9"
       d="m 99.04236,-79.86154 c 0,1.03114 0.83687,1.86801 1.86801,1.86801 1.03116,0 1.86803,-0.83687 1.86803,-1.86801 0,-1.03114 -0.83687,-1.86803 -1.86803,-1.86803 -1.03114,0 -1.86801,0.83689 -1.86801,1.86803 z"
       style="fill:#9b9b9b;fill-opacity:1;fill-rule:nonzero;stroke:#9b9b9b;stroke-width:0.74721;stroke-linecap:butt;stroke-linejoin:miter;stroke-miterlimit:10;stroke-dasharray:none;stroke-opacity:1"
       transform="matrix(1.3333333,0,0,-1.3333333,-126.40533,-68.068)" />
    <path
       id="path10"
       d="m 156.07672,-78.04582 c 4.02745,-4.04987 6.52312,-9.6315 6.5306,-15.79598 l -22.41623,-0.02241 z"
       style="fill:none;stroke:#000000;stroke-width:0.74721;stroke-linecap:butt;stroke-linejoin:miter;stroke-miterlimit:10;stroke-dasharray:none;stroke-opacity:0"
       transform="matrix(1.3333333,0,0,-1.3333333,-126.40533,-68.068)" />
    <path
       id="path11"
       d="m 156.07672,-78.04582 c 4.02745,-4.04987 6.52312,-9.6315 6.5306,-15.79598"
       style="fill:none;stroke:#8b572a;stroke-width:0.74721;stroke-linecap:butt;stroke-linejoin:miter;stroke-miterlimit:10;stroke-dasharray:none;stroke-opacity:1"
       transform="matrix(1.3333333,0,0,-1.3333333,-126.40533,-68.068)" />
    <path
       id="path12"
       d="m 125.40385,-88.06587 c 2.31633,5.90292 8.06237,10.08729 14.78724,10.08729 8.76474,0 15.87815,-7.10594 15.88563,-15.87069 l -15.88563,-0.01494 z"
       style="fill:none;stroke:#000000;stroke-width:0.74721;stroke-linecap:butt;stroke-linejoin:miter;stroke-miterlimit:10;stroke-dasharray:none;stroke-opacity:0"
       transform="matrix(1.3333333,0,0,-1.3333333,-126.40533,-68.068)" />
    <path
       id="path13"
       d="m 125.40385,-88.06587 c 2.31633,5.90292 8.06237,10.08729 14.78724,10.08729 8.76474,0 15.87815,-7.10594 15.88563,-15.87069"
       style="fill:none;stroke:#4a90e2;stroke-width:0.74721;stroke-linecap:butt;stroke-linejoin:miter;stroke-miterlimit:10;stroke-dasharray:none;stroke-opacity:1"
       transform="matrix(1.3333333,0,0,-1.3333333,-126.40533,-68.068)" />
    <path
       id="path14"
       d="m 3.7157734,-3.7630234 c -0.1757812,-0.375 -0.46875,-0.6445313 -0.9140625,-0.6445313 -1.171875,0 -2.40234371,1.4648438 -2.40234371,2.9179688 0,0.93749996 0.55078125,1.59374996 1.32421871,1.59374996 0.1992188,0 0.703125,-0.03515625 1.3007813,-0.73828125 0.070312,0.41015625 0.421875,0.73828125 0.9023437,0.73828125 0.3515625,0 0.5742188,-0.22265625 0.7382813,-0.5390625 0.1640625,-0.36328125 0.2929687,-0.97265626 0.2929687,-0.99609376 0,-0.09375 -0.082031,-0.09375 -0.1171875,-0.09375 -0.09375,0 -0.1054687,0.035156 -0.140625,0.1757813 -0.1640625,0.64453121 -0.3515625,1.24218746 -0.75,1.24218746 -0.2695312,0 -0.3046875,-0.2578125 -0.3046875,-0.45703125 0,-0.22265625 0.023437,-0.3046875 0.1289063,-0.73828121 0.1171875,-0.421875 0.1289062,-0.5273438 0.2226562,-0.9023438 l 0.3515625,-1.3945312 c 0.070312,-0.28125 0.070312,-0.2929688 0.070312,-0.3398438 0,-0.1640625 -0.1171875,-0.2695312 -0.28125,-0.2695312 -0.2460937,0 -0.3867187,0.2226562 -0.4218745,0.4453125 z m -0.6445312,2.578125 c -0.046875,0.1757812 -0.046875,0.19921871 -0.1992188,0.36328121 -0.4453125,0.55078125 -0.84375,0.71484375 -1.125,0.71484375 -0.5039062,0 -0.6445312,-0.55078125 -0.6445312,-0.93749996 0,-0.5039063 0.328125,-1.7226563 0.5507812,-2.1796875 0.3046875,-0.5976563 0.7617188,-0.9609375 1.1601563,-0.9609375 0.6445312,0 0.7851562,0.8203125 0.7851562,0.8789062 0,0.058594 -0.023437,0.1171875 -0.035156,0.1640625 z m 0,0"
       style="fill:#000000;fill-opacity:1;fill-rule:nonzero;stroke:none"
       aria-label="a"
       transform="matrix(1.3333333,0,0,1.3333333,64.002667,67.685333)" />
    <g
       id="g14"
       aria-label="θ&#10;1"
       transform="matrix(1.3333333,0,0,1.3333333,91.550667,43.394667)">
      <path
         id="path15"
         d="m 4.5352422,-4.9805703 c 0,-0.65625 -0.1875,-2.0390625 -1.1953125,-2.0390625 -1.3828125,0 -2.91796876,2.8007812 -2.91796876,5.0859375 0,0.93749999 0.28125,2.03906249 1.19531246,2.03906249 1.40625,0 2.9179688,-2.85937499 2.9179688,-5.08593749 z m -3.0585938,1.359375 c 0.1640625,-0.6328125 0.3632813,-1.4296875 0.7617188,-2.1328125 0.2695312,-0.4921875 0.6445312,-1.0546875 1.0898437,-1.0546875 0.4921875,0 0.5507813,0.6445312 0.5507813,1.2070312 0,0.4921875 -0.082031,0.9960938 -0.328125,1.9804688 z m 1.9921875,0.328125 c -0.1171875,0.4570312 -0.3164062,1.3007812 -0.703125,2.015625 -0.3398437,0.67968749 -0.7265625,1.17187499 -1.1484375,1.17187499 -0.328125,0 -0.5390625,-0.29296875 -0.5390625,-1.21874999 0,-0.421875 0.058594,-0.9960938 0.3164063,-1.96875 z m 0,0"
         style="fill:#8b572a;fill-opacity:1;fill-rule:nonzero;stroke:none" />
      <path
         id="path16"
         d="m 7.0078984,-2.9356484 c 0,-0.1875 -0.011719,-0.1992188 -0.2109375,-0.1992188 -0.4453125,0.4335938 -1.078125,0.4453125 -1.359375,0.4453125 v 0.2460938 c 0.1640625,0 0.6210938,0 1.0078125,-0.1875 v 3.55078121 c 0,0.23437499 0,0.32812499 -0.6914062,0.32812499 H 5.4844609 v 0.2460938 c 0.1289063,-0.011719 0.984375,-0.023437 1.2421875,-0.023437 0.2109375,0 1.0898438,0.011719 1.2421875,0.023437 V 1.2479453 H 7.7110234 c -0.703125,0 -0.703125,-0.09375 -0.703125,-0.32812499 z m 0,0"
         style="fill:#8b572a;fill-opacity:1;fill-rule:nonzero;stroke:none" />
    </g>
    <g
       id="g16"
       aria-label="θ&#10;2"
       transform="matrix(1.3333333,0,0,1.3333333,39.454667,24.037333)">
      <path
         id="path17"
         d="m 4.534,-4.9791719 c 0,-0.65625 -0.1875,-2.0390625 -1.1953125,-2.0390625 -1.3828125,0 -2.91796875,2.8007813 -2.91796875,5.0859375 0,0.93750003 0.28125,2.03906253 1.19531245,2.03906253 1.40625,0 2.9179688,-2.85937503 2.9179688,-5.08593753 z m -3.0585938,1.359375 c 0.1640625,-0.6328125 0.3632813,-1.4296875 0.7617188,-2.1328125 0.2695312,-0.4921875 0.6445312,-1.0546875 1.0898437,-1.0546875 0.4921875,0 0.5507813,0.6445313 0.5507813,1.2070313 0,0.4921875 -0.082031,0.9960937 -0.328125,1.9804687 z m 1.9921875,0.328125 c -0.1171875,0.4570313 -0.3164062,1.3007813 -0.703125,2.015625 -0.3398437,0.67968753 -0.7265625,1.17187503 -1.1484375,1.17187503 -0.328125,0 -0.5390625,-0.29296875 -0.5390625,-1.21875003 0,-0.421875 0.058594,-0.9960937 0.3164063,-1.96875 z m 0,0"
         style="fill:#4a90e2;fill-opacity:1;fill-rule:nonzero;stroke:none" />
      <path
         id="path18"
         d="M 8.19025,0.2298125 H 7.955875 C 7.9324375,0.38215625 7.8738437,0.7923125 7.7800937,0.862625 7.7215,0.89778125 7.1824375,0.89778125 7.0886875,0.89778125 H 5.799625 C 6.5379062,0.25325 6.784,0.05403125 7.1941562,-0.27409375 7.7097812,-0.68425 8.19025,-1.1178437 8.19025,-1.7740937 c 0,-0.84375 -0.7382813,-1.359375 -1.6289063,-1.359375 -0.8671875,0 -1.453125,0.609375 -1.453125,1.2421875 0,0.3632812 0.3046875,0.3984375 0.375,0.3984375 0.1640625,0 0.375,-0.1171875 0.375,-0.375 0,-0.1289063 -0.058594,-0.3632813 -0.421875,-0.3632813 C 5.659,-2.7350312 6.12775,-2.887375 6.455875,-2.887375 c 0.703125,0 1.0664062,0.5507813 1.0664062,1.1132813 0,0.609375 -0.4335937,1.0898437 -0.65625,1.33593745 l -1.6875,1.66406255 C 5.1082187,1.2845 5.1082187,1.2962188 5.1082187,1.4954375 h 2.8828125 z m 0,0"
         style="fill:#4a90e2;fill-opacity:1;fill-rule:nonzero;stroke:none" />
    </g>
  </g>
</svg>
