<?xml version="1.0" encoding="UTF-8" standalone="no"?>
<!-- Created with Inkscape (http://www.inkscape.org/) -->

<svg
   version="1.1"
   id="svg1"
   width="346.38666"
   height="208.61333"
   viewBox="0 0 346.38666 208.61333"
   sodipodi:docname="improper-integral-1.pdf"
   xmlns:inkscape="http://www.inkscape.org/namespaces/inkscape"
   xmlns:sodipodi="http://sodipodi.sourceforge.net/DTD/sodipodi-0.dtd"
   xmlns="http://www.w3.org/2000/svg"
   xmlns:svg="http://www.w3.org/2000/svg">
  <defs
     id="defs1" />
  <sodipodi:namedview
     id="namedview1"
     pagecolor="#ffffff"
     bordercolor="#000000"
     borderopacity="0.25"
     inkscape:showpageshadow="2"
     inkscape:pageopacity="0.0"
     inkscape:pagecheckerboard="0"
     inkscape:deskcolor="#d1d1d1">
    <inkscape:page
       x="0"
       y="0"
       inkscape:label="1"
       id="page1"
       width="346.38666"
       height="208.61333"
       margin="0"
       bleed="0" />
  </sodipodi:namedview>
  <g
     id="g1"
     inkscape:groupmode="layer"
     inkscape:label="1">
    <path
       id="path1"
       d="m 101.39606,-146.67685 c 0,0 0,0 0,0 0,58.44658 47.37297,105.82703 105.80461,105.82703 58.4391,0 105.80459,-47.38045 105.80459,-105.82703 0,-0.0374 0,-0.0673 0,-0.10461 l -105.80459,0.10461 z"
       style="fill:none;stroke:#000000;stroke-width:1.49442;stroke-linecap:butt;stroke-linejoin:miter;stroke-miterlimit:10;stroke-dasharray:none;stroke-opacity:0"
       transform="matrix(1.3333333,0,0,-1.3333333,-98.689333,-34.374667)" />
    <path
       id="path2"
       d="m 101.39606,-146.67685 c 0,0 0,0 0,0 0,58.44658 47.37297,105.82703 105.80461,105.82703 58.4391,0 105.80459,-47.38045 105.80459,-105.82703 0,-0.0374 0,-0.0673 0,-0.10461"
       style="fill:none;stroke:#e0737d;stroke-width:1.49442;stroke-linecap:butt;stroke-linejoin:miter;stroke-miterlimit:10;stroke-dasharray:none;stroke-opacity:1"
       transform="matrix(1.3333333,0,0,-1.3333333,-98.689333,-34.374667)" />
    <path
       id="path3"
       d="M 77.7096,-146.67685 H 333.43393 M 206.19194,-26.15227 v -155.71805 m 122.01154,38.92951 5.23045,-3.73604 -5.23045,-3.73604 m -125.74758,119.03017 3.73604,5.23045 3.73604,-5.23045"
       style="fill:none;stroke:#000000;stroke-width:0.74721;stroke-linecap:butt;stroke-linejoin:miter;stroke-miterlimit:10;stroke-dasharray:none;stroke-opacity:1"
       transform="matrix(1.3333333,0,0,-1.3333333,-98.689333,-34.374667)" />
    <path
       id="path4"
       d="M 206.19194,-146.67685 H 310.98035"
       style="fill:none;stroke:#000000;stroke-width:1.49442;stroke-linecap:butt;stroke-linejoin:miter;stroke-miterlimit:10;stroke-dasharray:none;stroke-opacity:1"
       transform="matrix(1.3333333,0,0,-1.3333333,-98.689333,-34.374667)" />
    <path
       id="path5"
       d="M 101.39606,-146.67685 H 206.19194"
       style="fill:none;stroke:#000000;stroke-width:1.49442;stroke-linecap:butt;stroke-linejoin:miter;stroke-miterlimit:10;stroke-dasharray:none;stroke-opacity:1"
       transform="matrix(1.3333333,0,0,-1.3333333,-98.689333,-34.374667)" />
    <path
       id="path6"
       d="m 310.98035,-146.67685 c 0,1.03116 0.83686,1.86803 1.86801,1.86803 1.03116,0 1.86802,-0.83687 1.86802,-1.86803 0,-1.03115 -0.83686,-1.86801 -1.86802,-1.86801 -1.03115,0 -1.86801,0.83686 -1.86801,1.86801 z"
       style="fill:#000000;fill-opacity:1;fill-rule:nonzero;stroke:#000000;stroke-width:0.74721;stroke-linecap:butt;stroke-linejoin:miter;stroke-miterlimit:10;stroke-dasharray:none;stroke-opacity:1"
       transform="matrix(1.3333333,0,0,-1.3333333,-98.689333,-34.374667)" />
    <path
       id="path7"
       d="m 99.52805,-146.67685 c 0,1.03116 0.83688,1.86803 1.86801,1.86803 1.03862,0 1.86802,-0.83687 1.86802,-1.86803 0,-1.03115 -0.8294,-1.86801 -1.86802,-1.86801 -1.03113,0 -1.86801,0.83686 -1.86801,1.86801 z"
       style="fill:#000000;fill-opacity:1;fill-rule:nonzero;stroke:#000000;stroke-width:0.74721;stroke-linecap:butt;stroke-linejoin:miter;stroke-miterlimit:10;stroke-dasharray:none;stroke-opacity:1"
       transform="matrix(1.3333333,0,0,-1.3333333,-98.689333,-34.374667)" />
    <path
       id="path8"
       d="m 210.05501,-44.83246 -7.47208,3.73604 7.47208,3.73604 -2.01747,-3.73604 z"
       style="fill:#4a90e2;fill-opacity:1;fill-rule:nonzero;stroke:#4a90e2;stroke-width:0.74721;stroke-linecap:butt;stroke-linejoin:miter;stroke-miterlimit:10;stroke-dasharray:none;stroke-opacity:1"
       transform="matrix(1.3333333,0,0,-1.3333333,-98.689333,-34.374667)" />
    <path
       id="path9"
       d="m 202.58293,-142.71666 7.47208,-3.73604 -7.47208,-3.73604 2.01746,3.73604 z"
       style="fill:#000000;fill-opacity:1;fill-rule:nonzero;stroke:#000000;stroke-width:0.74721;stroke-linecap:butt;stroke-linejoin:miter;stroke-miterlimit:10;stroke-dasharray:none;stroke-opacity:1"
       transform="matrix(1.3333333,0,0,-1.3333333,-98.689333,-34.374667)" />
    <path
       id="path10"
       d="m 179.4718,-78.68095 c 0,1.03115 0.83687,1.86802 1.86801,1.86802 1.03116,0 1.86803,-0.83687 1.86803,-1.86802 0,-1.03115 -0.83687,-1.86802 -1.86803,-1.86802 -1.03114,0 -1.86801,0.83687 -1.86801,1.86802 z"
       style="fill:#d0021b;fill-opacity:1;fill-rule:nonzero;stroke:#d0021b;stroke-width:0.74721;stroke-linecap:butt;stroke-linejoin:miter;stroke-miterlimit:10;stroke-dasharray:none;stroke-opacity:1"
       transform="matrix(1.3333333,0,0,-1.3333333,-98.689333,-34.374667)" />
    <path
       id="path11"
       d="m 258.67581,-109.31647 c 0,1.03116 0.83687,1.86803 1.86801,1.86803 1.03116,0 1.86803,-0.83687 1.86803,-1.86803 0,-1.03114 -0.83687,-1.86801 -1.86803,-1.86801 -1.03114,0 -1.86801,0.83687 -1.86801,1.86801 z"
       style="fill:#d0021b;fill-opacity:1;fill-rule:nonzero;stroke:#d0021b;stroke-width:0.74721;stroke-linecap:butt;stroke-linejoin:miter;stroke-miterlimit:10;stroke-dasharray:none;stroke-opacity:1"
       transform="matrix(1.3333333,0,0,-1.3333333,-98.689333,-34.374667)" />
    <path
       id="path12"
       d="m 148.83629,-104.83322 c 0,1.03116 0.83687,1.86802 1.86801,1.86802 1.03116,0 1.86803,-0.83686 1.86803,-1.86802 0,-1.03114 -0.83687,-1.86801 -1.86803,-1.86801 -1.03114,0 -1.86801,0.83687 -1.86801,1.86801 z"
       style="fill:#d0021b;fill-opacity:1;fill-rule:nonzero;stroke:#d0021b;stroke-width:0.74721;stroke-linecap:butt;stroke-linejoin:miter;stroke-miterlimit:10;stroke-dasharray:none;stroke-opacity:1"
       transform="matrix(1.3333333,0,0,-1.3333333,-98.689333,-34.374667)" />
    <g
       id="g12"
       aria-label="−R"
       transform="matrix(1.3333333,0,0,1.3333333,39.992,175.15333)">
      <path
         id="path13"
         d="m 6.5626406,-2.2976172 c 0.1757813,0 0.3515625,0 0.3515625,-0.1992187 0,-0.1992188 -0.1757812,-0.1992188 -0.3515625,-0.1992188 h -5.390625 c -0.1640625,0 -0.33984373,0 -0.33984373,0.1992188 0,0.1992187 0.17578123,0.1992187 0.33984373,0.1992187 z m 0,0"
         style="fill:#000000;fill-opacity:1;fill-rule:nonzero;stroke:none" />
      <path
         id="path14"
         d="m 11.487445,-6.1179297 c 0.05859,-0.234375 0.08203,-0.3398437 0.28125,-0.3632812 0.08203,-0.011719 0.398438,-0.011719 0.597657,-0.011719 0.714843,0 1.816406,0 1.816406,0.984375 0,0.3398438 -0.152344,1.0195313 -0.550781,1.4179688 -0.257813,0.2578125 -0.785157,0.5742187 -1.675782,0.5742187 h -1.113281 z m 1.429688,2.7304688 c 1.007812,-0.2226563 2.191406,-0.9140625 2.191406,-1.921875 0,-0.8554688 -0.890625,-1.5 -2.203125,-1.5 h -2.835937 c -0.1992192,0 -0.2929692,0 -0.2929692,0.1992187 0,0.1171875 0.09375,0.1171875 0.2812502,0.1171875 0.02344,0 0.210937,0 0.386719,0.011719 0.175781,0.023437 0.257812,0.035156 0.257812,0.1640625 0,0.035156 0,0.070312 -0.03516,0.1875 l -1.3359377,5.35546871 c -0.09375,0.38671875 -0.1171875,0.46875 -0.9023437,0.46875 -0.1757813,0 -0.2695313,0 -0.2695313,0.19921875 0,0.1054687525 0.1171875,0.1054687525 0.140625,0.1054687525 0.28125,0 0.9726563,-0.0351562525 1.2539063,-0.0351562525 0.28125,0 0.9843754,0.0351562525 1.2656254,0.0351562525 0.08203,0 0.199218,0 0.199218,-0.1992187525 0,-0.10546875 -0.09375,-0.10546875 -0.28125,-0.10546875 -0.363281,0 -0.644531,0 -0.644531,-0.1875 0,-0.0585938 0.01172,-0.10546875 0.02344,-0.1640625 L 10.7726,-3.2937107 h 1.195312 c 0.902344,0 1.078125,0.5507812 1.078125,0.9023437 0,0.1523438 -0.08203,0.4570313 -0.140625,0.6914063 -0.07031,0.2695312 -0.152344,0.6445312 -0.152344,0.84374996 0,1.078125 1.195313,1.078125 1.324219,1.078125 0.84375,0 1.195313,-1.0078125 1.195313,-1.1484375 0,-0.11718746 -0.117188,-0.11718746 -0.117188,-0.11718746 -0.09375,0 -0.117187,0.0703125 -0.128906,0.14062496 -0.257813,0.73828125 -0.679688,0.9023437525 -0.914063,0.9023437525 -0.328125,0 -0.398437,-0.2226562525 -0.398437,-0.6093750025 0,-0.3046875 0.05859,-0.82031251 0.105469,-1.13671871 0.01172,-0.140625 0.03516,-0.328125 0.03516,-0.46875 0,-0.7617188 -0.667969,-1.078125 -0.9375,-1.171875 z m 0,0"
         style="fill:#000000;fill-opacity:1;fill-rule:nonzero;stroke:none" />
    </g>
    <g
       id="g14"
       aria-label="+R"
       transform="matrix(1.3333333,0,0,1.3333333,322.13733,175.29333)">
      <path
         id="path15"
         d="m 4.0776641,-2.2971484 h 2.7773437 c 0.140625,0 0.328125,0 0.328125,-0.1992188 0,-0.1992187 -0.1875,-0.1992187 -0.328125,-0.1992187 H 4.0776641 v -2.7890625 c 0,-0.1289063 0,-0.328125 -0.1992188,-0.328125 -0.1992187,0 -0.1992187,0.1992187 -0.1992187,0.328125 v 2.7890625 H 0.89016406 c -0.140625,0 -0.328125,0 -0.328125,0.1992187 0,0.1992188 0.1875,0.1992188 0.328125,0.1992188 H 3.6792266 v 2.80078121 c 0,0.12890625 0,0.328125 0.1992187,0.328125 0.1992188,0 0.1992188,-0.19921875 0.1992188,-0.328125 z m 0,0"
         style="fill:#000000;fill-opacity:1;fill-rule:nonzero;stroke:none" />
      <path
         id="path16"
         d="m 11.486844,-6.1174609 c 0.05859,-0.234375 0.08203,-0.3398438 0.28125,-0.3632813 0.08203,-0.011719 0.398437,-0.011719 0.597656,-0.011719 0.714844,0 1.816406,0 1.816406,0.984375 0,0.3398437 -0.152343,1.0195312 -0.550781,1.4179687 -0.257812,0.2578125 -0.785156,0.5742188 -1.675781,0.5742188 h -1.113281 z m 1.429687,2.7304687 c 1.007813,-0.2226562 2.191407,-0.9140625 2.191407,-1.921875 0,-0.8554687 -0.890625,-1.5 -2.203125,-1.5 h -2.835938 c -0.1992187,0 -0.2929687,0 -0.2929687,0.1992188 0,0.1171875 0.09375,0.1171875 0.2812497,0.1171875 0.02344,0 0.210938,0 0.386719,0.011719 0.175781,0.023437 0.257813,0.035156 0.257813,0.1640625 0,0.035156 0,0.070312 -0.03516,0.1875 l -1.3359372,5.35546876 c -0.09375,0.38671875 -0.1171875,0.46875 -0.9023438,0.46875 -0.1757812,0 -0.2695312,0 -0.2695312,0.19921875 0,0.1054687525 0.1171875,0.1054687525 0.140625,0.1054687525 0.28125,0 0.9726562,-0.0351562525 1.2539062,-0.0351562525 0.28125,0 0.984375,0.0351562525 1.265625,0.0351562525 0.08203,0 0.199219,0 0.199219,-0.1992187525 0,-0.10546875 -0.09375,-0.10546875 -0.28125,-0.10546875 -0.363281,0 -0.644531,0 -0.644531,-0.1875 0,-0.0585937 0.01172,-0.10546875 0.02344,-0.1640625 L 10.772,-3.2932422 h 1.195313 c 0.902343,0 1.078125,0.5507813 1.078125,0.9023438 0,0.1523437 -0.08203,0.4570312 -0.140625,0.6914062 -0.07031,0.2695313 -0.152344,0.6445313 -0.152344,0.84375001 0,1.078125 1.195312,1.078125 1.324219,1.078125 0.84375,0 1.195312,-1.0078125 1.195312,-1.1484375 0,-0.11718751 -0.117187,-0.11718751 -0.117187,-0.11718751 -0.09375,0 -0.117188,0.0703125 -0.128907,0.14062501 -0.257812,0.73828125 -0.679687,0.9023437525 -0.914062,0.9023437525 -0.328125,0 -0.398438,-0.2226562525 -0.398438,-0.6093750025 0,-0.3046875 0.05859,-0.82031246 0.105469,-1.13671876 0.01172,-0.140625 0.03516,-0.328125 0.03516,-0.46875 0,-0.7617187 -0.667968,-1.078125 -0.9375,-1.171875 z m 0,0"
         style="fill:#000000;fill-opacity:1;fill-rule:nonzero;stroke:none" />
    </g>
    <g
       id="g16"
       aria-label="Γ&#10;R"
       transform="matrix(1.3333333,0,0,1.3333333,303.428,80.208)">
      <path
         id="path17"
         d="M 5.5207969,-6.7741641 H 0.32939063 v 0.3046875 h 0.234375 c 0.77343747,0 0.79687497,0.1171875 0.79687497,0.46875 v 5.22656254 c 0,0.3515625 -0.023437,0.46875 -0.79687497,0.46875 h -0.234375 V -7.265625e-4 C 0.68095313,-0.03588281 1.4543906,-0.03588281 1.8411094,-0.03588281 c 0.4101562,0 1.3125,0 1.6757812,0.0351562475 V -0.30541406 h -0.328125 c -0.9492187,0 -0.9492187,-0.12890625 -0.9492187,-0.48046875 V -6.0710391 c 0,-0.328125 0.023437,-0.3984375 0.4921875,-0.3984375 h 1.0195312 c 1.4296875,0 1.640625,0.5859375 1.7929688,1.9335938 h 0.2578125 z m 0,0"
         style="fill:#000000;fill-opacity:1;fill-rule:nonzero;stroke:none" />
      <path
         id="path18"
         d="m 9.1096641,-2.7839297 c 0.046875,-0.1875 0.058594,-0.2109375 0.2109375,-0.234375 h 0.4453125 c 0.6562499,0 1.4531249,0 1.4531249,0.7148438 0,0.2929687 -0.128906,0.7265625 -0.457031,0.984375 -0.292969,0.2226562 -0.726563,0.32812496 -1.2070314,0.32812496 h -0.890625 z m 1.2539059,1.91015626 c 0.832032,-0.19921876 1.570313,-0.70312496 1.570313,-1.32421876 0,-0.5976562 -0.703125,-1.0664062 -1.722656,-1.0664062 H 8.0784141 c -0.140625,0 -0.2226563,0 -0.2226563,0.1523437 0,0.09375 0.082031,0.09375 0.2226563,0.09375 0,0 0.140625,0 0.2578125,0.011719 0.1523437,0.011719 0.1640625,0.035156 0.1640625,0.1054687 0,0.011719 0,0.046875 -0.023437,0.1523438 l -0.9375,3.70312496 C 7.4924766,1.1887266 7.4807578,1.2473203 6.9299766,1.2473203 c -0.1171875,0 -0.2109375,0 -0.2109375,0.140625 0,0.070312 0.046875,0.1054688 0.1171875,0.1054688 0.1289062,0 0.2929687,-0.023437 0.4335937,-0.023437 0.1289063,0 0.328125,0 0.4570313,0 0.140625,0 0.3046875,0 0.4453125,0 0.1523437,0 0.3164062,0.023437 0.46875,0.023437 0.035156,0 0.140625,0 0.140625,-0.140625 0,-0.1054688 -0.070312,-0.1054688 -0.2226563,-0.1054688 -0.1171875,0 -0.140625,0 -0.2695312,-0.023437 -0.1523438,-0.011719 -0.1523438,-0.035156 -0.1523438,-0.1054687 0,0 0,-0.046875 0.023437,-0.15234379 l 0.4453125,-1.7578125 h 0.9492188 c 0.5976559,0 0.8554679,0.29296875 0.8554679,0.62109375 0,0.09375 -0.05859,0.328125 -0.09375,0.4921875 -0.08203,0.31640625 -0.117187,0.421875 -0.117187,0.5390625 0,0.55078124 0.515625,0.77343754 1.03125,0.77343754 0.632812,0 0.914062,-0.67968754 0.914062,-0.80859379 0,-0.0234375 -0.01172,-0.09375 -0.117187,-0.09375 -0.09375,0 -0.105468,0.046875 -0.128906,0.1171875 -0.09375,0.30468749 -0.351563,0.58593749 -0.644532,0.58593749 -0.175781,0 -0.316406,-0.070312 -0.316406,-0.44531249 0,-0.17578125 0.04687,-0.5390625 0.07031,-0.7265625 0.03516,-0.1875 0.03516,-0.2578125 0.03516,-0.328125 0,-0.08203125 0,-0.3046875 -0.199219,-0.515625 -0.128906,-0.15234375 -0.316406,-0.24609375 -0.480469,-0.29296925 z m 0,0"
         style="fill:#000000;fill-opacity:1;fill-rule:nonzero;stroke:none" />
    </g>
    <g
       id="g18"
       aria-label="a&#10;1"
       transform="matrix(1.3333333,0,0,1.3333333,146.584,81.134667)">
      <path
         id="path19"
         d="m 3.7162969,-3.7631094 c -0.1757813,-0.375 -0.46875,-0.6445312 -0.9140625,-0.6445312 -1.171875,0 -2.40234378,1.4648437 -2.40234378,2.9179687 0,0.93750002 0.55078125,1.59375002 1.32421878,1.59375002 0.1992187,0 0.703125,-0.03515625 1.3007812,-0.73828125 0.070312,0.41015625 0.421875,0.73828125 0.9023438,0.73828125 0.3515625,0 0.5742187,-0.22265625 0.7382812,-0.5390625 0.1640625,-0.36328125 0.2929688,-0.97265622 0.2929688,-0.99609372 0,-0.09375 -0.082031,-0.09375 -0.1171875,-0.09375 -0.09375,0 -0.1054688,0.035156 -0.140625,0.1757812 -0.1640625,0.64453127 -0.3515625,1.24218752 -0.75,1.24218752 -0.2695313,0 -0.3046875,-0.2578125 -0.3046875,-0.45703125 0,-0.22265625 0.023437,-0.3046875 0.1289062,-0.73828127 0.1171875,-0.421875 0.1289063,-0.5273437 0.2226563,-0.9023437 l 0.3515625,-1.3945313 c 0.070312,-0.28125 0.070312,-0.2929687 0.070312,-0.3398437 0,-0.1640625 -0.1171875,-0.2695313 -0.28125,-0.2695313 -0.2460938,0 -0.3867188,0.2226563 -0.4218745,0.4453125 z m -0.6445313,2.578125 c -0.046875,0.1757813 -0.046875,0.19921877 -0.1992187,0.36328127 -0.4453125,0.55078125 -0.84375,0.71484375 -1.125,0.71484375 -0.5039063,0 -0.6445313,-0.55078125 -0.6445313,-0.93750002 0,-0.5039062 0.328125,-1.7226562 0.5507813,-2.1796875 0.3046875,-0.5976562 0.7617187,-0.9609375 1.1601562,-0.9609375 0.6445313,0 0.7851563,0.8203125 0.7851563,0.8789063 0,0.058594 -0.023437,0.1171875 -0.035156,0.1640625 z m 0,0"
         style="fill:#d0021b;fill-opacity:1;fill-rule:nonzero;stroke:none" />
      <path
         id="path20"
         d="m 7.5981328,-2.9369375 c 0,-0.1875 -0.011719,-0.1992188 -0.2109375,-0.1992188 -0.4453125,0.4335938 -1.078125,0.4453125 -1.359375,0.4453125 V -2.44475 c 0.1640625,0 0.6210938,0 1.0078125,-0.1875 v 3.55078125 c 0,0.23437495 0,0.32812495 -0.6914062,0.32812495 H 6.0746953 V 1.49275 c 0.1289063,-0.011719 0.984375,-0.023437 1.2421875,-0.023437 0.2109375,0 1.0898438,0.011719 1.2421875,0.023437 V 1.2466562 H 8.3012578 c -0.703125,0 -0.703125,-0.09375 -0.703125,-0.32812495 z m 0,0"
         style="fill:#d0021b;fill-opacity:1;fill-rule:nonzero;stroke:none" />
    </g>
    <g
       id="g20"
       aria-label="a&#10;2"
       transform="matrix(1.3333333,0,0,1.3333333,252.18933,121.98133)">
      <path
         id="path21"
         d="m 3.7134687,-3.7623672 c -0.1757812,-0.375 -0.46875,-0.6445312 -0.9140625,-0.6445312 -1.171875,0 -2.4023437,1.4648437 -2.4023437,2.9179687 0,0.93750001 0.55078125,1.59375001 1.3242187,1.59375001 0.1992188,0 0.703125,-0.03515625 1.3007813,-0.73828125 0.070312,0.41015625 0.421875,0.73828125 0.9023437,0.73828125 0.3515625,0 0.5742188,-0.22265625 0.7382813,-0.5390625 0.1640625,-0.36328125 0.2929687,-0.97265621 0.2929687,-0.99609371 0,-0.09375 -0.082031,-0.09375 -0.1171875,-0.09375 -0.09375,0 -0.1054687,0.035156 -0.140625,0.1757812 -0.1640625,0.64453126 -0.3515625,1.24218751 -0.75,1.24218751 -0.2695312,0 -0.3046875,-0.2578125 -0.3046875,-0.45703125 0,-0.22265625 0.023437,-0.3046875 0.1289063,-0.73828126 0.1171875,-0.421875 0.1289062,-0.5273437 0.2226562,-0.9023437 l 0.3515625,-1.3945313 c 0.070312,-0.28125 0.070312,-0.2929687 0.070312,-0.3398437 0,-0.1640625 -0.1171875,-0.2695313 -0.28125,-0.2695313 -0.2460937,0 -0.3867187,0.2226563 -0.4218745,0.4453125 z m -0.6445312,2.578125 c -0.046875,0.1757813 -0.046875,0.19921876 -0.1992188,0.36328126 -0.4453125,0.55078125 -0.84375,0.71484375 -1.125,0.71484375 -0.5039062,0 -0.6445312,-0.55078125 -0.6445312,-0.93750001 0,-0.5039062 0.328125,-1.7226562 0.5507812,-2.1796875 0.3046875,-0.5976562 0.7617188,-0.9609375 1.1601563,-0.9609375 0.6445312,0 0.7851562,0.8203125 0.7851562,0.8789063 0,0.058594 -0.023437,0.1171875 -0.035156,0.1640625 z m 0,0"
         style="fill:#d0021b;fill-opacity:1;fill-rule:nonzero;stroke:none" />
      <path
         id="path22"
         d="m 8.7818281,0.22786719 h -0.234375 c -0.023437,0.15234375 -0.082031,0.5625 -0.1757812,0.6328125 -0.058594,0.0351563 -0.5976563,0.0351563 -0.6914063,0.0351563 H 6.3912031 c 0.7382813,-0.64453125 0.984375,-0.84375 1.3945313,-1.171875 0.515625,-0.41015625 0.9960937,-0.84374999 0.9960937,-1.50000009 0,-0.84375 -0.7382812,-1.359375 -1.6289062,-1.359375 -0.8671875,0 -1.453125,0.609375 -1.453125,1.2421875 0,0.3632813 0.3046875,0.3984375 0.375,0.3984375 0.1640625,0 0.375,-0.1171875 0.375,-0.375 0,-0.1289061 -0.058594,-0.3632812 -0.421875,-0.3632812 0.2226562,-0.5039063 0.6914062,-0.6562499 1.0195312,-0.6562499 0.703125,0 1.0664063,0.5507811 1.0664063,1.1132812 0,0.609375 -0.4335938,1.08984374 -0.65625,1.33593749 l -1.6875,1.66406251 c -0.070312,0.058594 -0.070312,0.070312 -0.070312,0.2695312 h 2.8828125 z m 0,0"
         style="fill:#d0021b;fill-opacity:1;fill-rule:nonzero;stroke:none" />
    </g>
    <g
       id="g22"
       aria-label="a&#10;3"
       transform="matrix(1.3333333,0,0,1.3333333,105.73733,116.004)">
      <path
         id="path23"
         d="m 3.7155547,-3.7617891 c -0.1757813,-0.375 -0.46875,-0.6445312 -0.9140625,-0.6445312 -1.171875,0 -2.40234376,1.4648437 -2.40234376,2.9179687 0,0.93750004 0.55078125,1.59375004 1.32421876,1.59375004 0.1992187,0 0.703125,-0.03515625 1.3007812,-0.73828125 0.070312,0.41015625 0.421875,0.73828125 0.9023438,0.73828125 0.3515625,0 0.5742187,-0.22265625 0.7382812,-0.5390625 0.1640625,-0.36328125 0.2929688,-0.97265624 0.2929688,-0.99609374 0,-0.09375 -0.082031,-0.09375 -0.1171875,-0.09375 -0.09375,0 -0.1054688,0.035156 -0.140625,0.1757812 -0.1640625,0.64453129 -0.3515625,1.24218754 -0.75,1.24218754 -0.2695313,0 -0.3046875,-0.2578125 -0.3046875,-0.45703125 0,-0.22265625 0.023437,-0.3046875 0.1289062,-0.73828129 0.1171875,-0.421875 0.1289063,-0.5273437 0.2226563,-0.9023437 l 0.3515625,-1.3945313 c 0.070312,-0.28125 0.070312,-0.2929687 0.070312,-0.3398437 0,-0.1640625 -0.1171875,-0.2695313 -0.28125,-0.2695313 -0.2460938,0 -0.3867188,0.2226563 -0.4218745,0.4453125 z m -0.6445313,2.578125 c -0.046875,0.1757813 -0.046875,0.19921879 -0.1992187,0.36328129 -0.4453125,0.55078125 -0.84375,0.71484375 -1.125,0.71484375 -0.5039063,0 -0.6445313,-0.55078125 -0.6445313,-0.93750004 0,-0.5039062 0.328125,-1.7226562 0.5507813,-2.1796875 0.3046875,-0.5976562 0.7617187,-0.9609375 1.1601562,-0.9609375 0.6445313,0 0.7851563,0.8203125 0.7851563,0.8789063 0,0.058594 -0.023437,0.1171875 -0.035156,0.1640625 z m 0,0"
         style="fill:#d0021b;fill-opacity:1;fill-rule:nonzero;stroke:none" />
      <path
         id="path24"
         d="m 7.1637969,-0.83796094 c 0.5507812,0 0.9375,0.375 0.9375,1.125 0,0.86718754 -0.5039063,1.12500004 -0.9023438,1.12500004 -0.28125,0 -0.890625,-0.082031 -1.1835937,-0.49218754 0.328125,-0.0117188 0.3984375,-0.24609375 0.3984375,-0.38671875 0,-0.22265625 -0.1640625,-0.38671875 -0.3867188,-0.38671875 -0.1875,0 -0.3867187,0.1171875 -0.3867187,0.41015625 0,0.65624999 0.7265625,1.07812499 1.5703125,1.07812499 0.9726562,0 1.640625,-0.64453124 1.640625,-1.34765624 0,-0.5390625 -0.4453125,-1.08984375 -1.21875,-1.2421875 0.7382812,-0.26953126 0.9960937,-0.79687496 0.9960937,-1.21874996 0,-0.5507813 -0.6328125,-0.9609375 -1.40625,-0.9609375 -0.7734375,0 -1.359375,0.375 -1.359375,0.9375 0,0.234375 0.1523438,0.3632812 0.3632813,0.3632812 0.2109375,0 0.3515625,-0.1640625 0.3515625,-0.3515625 0,-0.1992187 -0.140625,-0.3515625 -0.3515625,-0.3632812 0.234375,-0.3046875 0.7148437,-0.3867188 0.9726562,-0.3867188 0.3164063,0 0.7617188,0.1523438 0.7617188,0.7617188 0,0.2929687 -0.1054688,0.609375 -0.28125,0.8320312 -0.234375,0.2578125 -0.421875,0.28125 -0.7734375,0.2929688 -0.1757813,0.023437 -0.1875,0.023437 -0.2226563,0.023437 -0.011719,0 -0.070312,0.011719 -0.070312,0.09375 0,0.09375 0.058594,0.09375 0.1757813,0.09375 z m 0,0"
         style="fill:#d0021b;fill-opacity:1;fill-rule:nonzero;stroke:none" />
    </g>
  </g>
</svg>
