<?xml version="1.0" encoding="UTF-8" standalone="no"?>
<!-- Created with Inkscape (http://www.inkscape.org/) -->

<svg
   version="1.1"
   id="svg1"
   width="280.50668"
   height="167.09332"
   viewBox="0 0 280.50668 167.09332"
   sodipodi:docname="improper-integral-2.pdf"
   xmlns:inkscape="http://www.inkscape.org/namespaces/inkscape"
   xmlns:sodipodi="http://sodipodi.sourceforge.net/DTD/sodipodi-0.dtd"
   xmlns="http://www.w3.org/2000/svg"
   xmlns:svg="http://www.w3.org/2000/svg">
  <defs
     id="defs1" />
  <sodipodi:namedview
     id="namedview1"
     pagecolor="#ffffff"
     bordercolor="#000000"
     borderopacity="0.25"
     inkscape:showpageshadow="2"
     inkscape:pageopacity="0.0"
     inkscape:pagecheckerboard="0"
     inkscape:deskcolor="#d1d1d1">
    <inkscape:page
       x="0"
       y="0"
       inkscape:label="1"
       id="page1"
       width="280.50668"
       height="167.09332"
       margin="0"
       bleed="0" />
  </sodipodi:namedview>
  <g
     id="g1"
     inkscape:groupmode="layer"
     inkscape:label="1">
    <path
       id="path1"
       d="m 62.16791,-117.34192 h 204.58024 m -101.79399,96.42004 v -124.57493 m 97.60962,31.14374 4.18437,-2.98885 -4.18437,-2.98883 m -100.59846,95.22449 2.98884,4.18438 2.98885,-4.18438"
       style="fill:none;stroke:#9b9b9b;stroke-width:0.74721;stroke-linecap:butt;stroke-linejoin:miter;stroke-miterlimit:10;stroke-dasharray:none;stroke-opacity:1"
       transform="matrix(1.3333333,0,0,-1.3333333,-77.968,-27.398667)" />
    <path
       id="path2"
       d="m 248.78522,-117.34192 c 0,0.82494 0.66949,1.49443 1.49441,1.49443 0.82492,0 1.49442,-0.66949 1.49442,-1.49443 0,-0.82492 -0.6695,-1.49441 -1.49442,-1.49441 -0.82492,0 -1.49441,0.66949 -1.49441,1.49441 z"
       style="fill:#000000;fill-opacity:1;fill-rule:nonzero;stroke:#000000;stroke-width:0.74721;stroke-linecap:butt;stroke-linejoin:miter;stroke-miterlimit:10;stroke-dasharray:none;stroke-opacity:1"
       transform="matrix(1.3333333,0,0,-1.3333333,-77.968,-27.398667)" />
    <path
       id="path3"
       d="m 79.62273,-117.34192 c 0,0.82494 0.66951,1.49443 1.49443,1.49443 0.83088,0 1.49441,-0.66949 1.49441,-1.49443 0,-0.82492 -0.66353,-1.49441 -1.49441,-1.49441 -0.82492,0 -1.49443,0.66949 -1.49443,1.49441 z"
       style="fill:#000000;fill-opacity:1;fill-rule:nonzero;stroke:#000000;stroke-width:0.74721;stroke-linecap:butt;stroke-linejoin:miter;stroke-miterlimit:10;stroke-dasharray:none;stroke-opacity:1"
       transform="matrix(1.3333333,0,0,-1.3333333,-77.968,-27.398667)" />
    <path
       id="path4"
       d="m 81.11716,-117.34192 c 0,0 0,0 0,0 0,46.75743 37.89851,84.66194 84.64399,84.66194 46.75147,0 84.644,-37.90451 84.644,-84.66194 0,-0.0299 0,-0.0538 0,-0.0837 l -84.644,0.0837 z"
       style="fill:none;stroke:#000000;stroke-width:1.49442;stroke-linecap:butt;stroke-linejoin:miter;stroke-miterlimit:10;stroke-dasharray:none;stroke-opacity:0"
       transform="matrix(1.3333333,0,0,-1.3333333,-77.968,-27.398667)" />
    <path
       id="path5"
       d="m 81.11716,-117.34192 c 0,0 0,0 0,0 0,46.75743 37.89851,84.66194 84.64399,84.66194 46.75147,0 84.644,-37.90451 84.644,-84.66194 0,-0.0299 0,-0.0538 0,-0.0837"
       style="fill:none;stroke:#4a90e2;stroke-width:1.49442;stroke-linecap:butt;stroke-linejoin:miter;stroke-miterlimit:10;stroke-dasharray:none;stroke-opacity:1"
       transform="matrix(1.3333333,0,0,-1.3333333,-77.968,-27.398667)" />
    <path
       id="path6"
       d="m 168.04463,-35.86609 -5.97769,2.98885 5.97769,2.98884 -1.61398,-2.98884 z"
       style="fill:#4a90e2;fill-opacity:1;fill-rule:nonzero;stroke:#4a90e2;stroke-width:0.74721;stroke-linecap:butt;stroke-linejoin:miter;stroke-miterlimit:10;stroke-dasharray:none;stroke-opacity:1"
       transform="matrix(1.3333333,0,0,-1.3333333,-77.968,-27.398667)" />
    <path
       id="path7"
       d="m 162.06694,-114.17375 5.97769,-2.98885 -5.97769,-2.98883 1.61398,2.98883 z"
       style="fill:#000000;fill-opacity:1;fill-rule:nonzero;stroke:#000000;stroke-width:0.74721;stroke-linecap:butt;stroke-linejoin:miter;stroke-miterlimit:10;stroke-dasharray:none;stroke-opacity:1"
       transform="matrix(1.3333333,0,0,-1.3333333,-77.968,-27.398667)" />
    <path
       id="path8"
       d="m 143.57799,-62.94499 c 0,0.82492 0.66949,1.49441 1.49441,1.49441 0.82492,0 1.49442,-0.66949 1.49442,-1.49441 0,-0.82492 -0.6695,-1.49443 -1.49442,-1.49443 -0.82492,0 -1.49441,0.66951 -1.49441,1.49443 z"
       style="fill:#d0021b;fill-opacity:1;fill-rule:nonzero;stroke:#d0021b;stroke-width:0.74721;stroke-linecap:butt;stroke-linejoin:miter;stroke-miterlimit:10;stroke-dasharray:none;stroke-opacity:1"
       transform="matrix(1.3333333,0,0,-1.3333333,-77.968,-27.398667)" />
    <path
       id="path9"
       d="m 206.94142,-87.45349 c 0,0.82492 0.6695,1.49441 1.49443,1.49441 0.82492,0 1.49442,-0.66949 1.49442,-1.49441 0,-0.82492 -0.6695,-1.49441 -1.49442,-1.49441 -0.82493,0 -1.49443,0.66949 -1.49443,1.49441 z"
       style="fill:#d0021b;fill-opacity:1;fill-rule:nonzero;stroke:#d0021b;stroke-width:0.74721;stroke-linecap:butt;stroke-linejoin:miter;stroke-miterlimit:10;stroke-dasharray:none;stroke-opacity:1"
       transform="matrix(1.3333333,0,0,-1.3333333,-77.968,-27.398667)" />
    <path
       id="path10"
       d="m 119.06947,-83.8669 c 0,0.82494 0.6695,1.49443 1.49442,1.49443 0.82493,0 1.49443,-0.66949 1.49443,-1.49443 0,-0.8249 -0.6695,-1.49441 -1.49443,-1.49441 -0.82492,0 -1.49442,0.66951 -1.49442,1.49441 z"
       style="fill:#d0021b;fill-opacity:1;fill-rule:nonzero;stroke:#d0021b;stroke-width:0.74721;stroke-linecap:butt;stroke-linejoin:miter;stroke-miterlimit:10;stroke-dasharray:none;stroke-opacity:1"
       transform="matrix(1.3333333,0,0,-1.3333333,-77.968,-27.398667)" />
    <path
       id="path11"
       d="m 131.02484,-117.34192 c 0,0.82494 0.6695,1.49443 1.49442,1.49443 0.82494,0 1.49443,-0.66949 1.49443,-1.49443 0,-0.82492 -0.66949,-1.49441 -1.49443,-1.49441 -0.82492,0 -1.49442,0.66949 -1.49442,1.49441 z"
       style="fill:#d0021b;fill-opacity:1;fill-rule:nonzero;stroke:#d0021b;stroke-width:0.74721;stroke-linecap:butt;stroke-linejoin:miter;stroke-miterlimit:10;stroke-dasharray:none;stroke-opacity:1"
       transform="matrix(1.3333333,0,0,-1.3333333,-77.968,-27.398667)" />
    <path
       id="path12"
       d="m 81.11716,-117.34192 42.32797,-0.10161"
       style="fill:none;stroke:#000000;stroke-width:1.49442;stroke-linecap:butt;stroke-linejoin:miter;stroke-miterlimit:10;stroke-dasharray:none;stroke-opacity:1"
       transform="matrix(1.3333333,0,0,-1.3333333,-77.968,-27.398667)" />
    <path
       id="path13"
       d="m 142.227,-117.34192 h 22.72716"
       style="fill:none;stroke:#000000;stroke-width:1.49442;stroke-linecap:butt;stroke-linejoin:miter;stroke-miterlimit:10;stroke-dasharray:none;stroke-opacity:1"
       transform="matrix(1.3333333,0,0,-1.3333333,-77.968,-27.398667)" />
    <path
       id="path14"
       d="m 123.17017,-117.43158 c 0,-1.29715 0.6456,-1.94873 1.94273,-1.94873 v 0 c 1.85309,0 2.77963,-0.64559 2.77963,-1.94275 0,1.29716 0.92655,1.94275 2.77364,1.94275 m -0.8309,0 h 0.8309 c 1.29716,0 1.94874,0.65158 1.94874,1.94873"
       style="fill:none;stroke:#000000;stroke-width:0.74721;stroke-linecap:butt;stroke-linejoin:miter;stroke-miterlimit:10;stroke-dasharray:none;stroke-opacity:1"
       transform="matrix(1.3333333,0,0,-1.3333333,-77.968,-27.398667)" />
    <path
       id="path15"
       d="m 132.73445,-117.6707 c 0,-1.36292 0.68146,-2.04436 2.03839,-2.04436 v 0 c 1.94873,0 2.92308,-0.68145 2.92308,-2.04437 0,1.36292 0.97437,2.04437 2.91712,2.04437 m -0.87873,0 h 0.87873 c 1.36291,0 2.04436,0.68144 2.04436,2.04436"
       style="fill:none;stroke:#000000;stroke-width:0.74721;stroke-linecap:butt;stroke-linejoin:miter;stroke-miterlimit:10;stroke-dasharray:none;stroke-opacity:1"
       transform="matrix(1.3333333,0,0,-1.3333333,-77.968,-27.398667)" />
    <path
       id="path16"
       d="m 218.49629,-117.34192 c 0,0.82494 0.6695,1.49443 1.49441,1.49443 0.82491,0 1.49442,-0.66949 1.49442,-1.49443 0,-0.82492 -0.66951,-1.49441 -1.49442,-1.49441 -0.82491,0 -1.49441,0.66949 -1.49441,1.49441 z"
       style="fill:#d0021b;fill-opacity:1;fill-rule:nonzero;stroke:#d0021b;stroke-width:0.74721;stroke-linecap:butt;stroke-linejoin:miter;stroke-miterlimit:10;stroke-dasharray:none;stroke-opacity:1"
       transform="matrix(1.3333333,0,0,-1.3333333,-77.968,-27.398667)" />
    <path
       id="path17"
       d="m 164.95416,-117.34192 h 47.0922"
       style="fill:none;stroke:#000000;stroke-width:1.49442;stroke-linecap:butt;stroke-linejoin:miter;stroke-miterlimit:10;stroke-dasharray:none;stroke-opacity:1"
       transform="matrix(1.3333333,0,0,-1.3333333,-77.968,-27.398667)" />
    <path
       id="path18"
       d="m 228.22795,-117.34192 h 22.05168"
       style="fill:none;stroke:#000000;stroke-width:1.49442;stroke-linecap:butt;stroke-linejoin:miter;stroke-miterlimit:10;stroke-dasharray:none;stroke-opacity:1"
       transform="matrix(1.3333333,0,0,-1.3333333,-77.968,-27.398667)" />
    <g
       id="g18"
       aria-label="−R"
       transform="matrix(1.3333333,0,0,1.3333333,33.276,142.33867)">
      <path
         id="path19"
         d="m 6.5635078,-2.2959922 c 0.1757813,0 0.3515625,0 0.3515625,-0.1992187 0,-0.1992188 -0.1757812,-0.1992188 -0.3515625,-0.1992188 h -5.390625 c -0.1640625,0 -0.33984374,0 -0.33984374,0.1992188 0,0.1992187 0.17578124,0.1992187 0.33984374,0.1992187 z m 0,0"
         style="fill:#000000;fill-opacity:1;fill-rule:nonzero;stroke:none" />
      <path
         id="path20"
         d="m 11.488312,-6.1163047 c 0.05859,-0.234375 0.08203,-0.3398437 0.28125,-0.3632812 0.08203,-0.011719 0.398438,-0.011719 0.597657,-0.011719 0.714843,0 1.816406,0 1.816406,0.984375 0,0.3398438 -0.152344,1.0195313 -0.550781,1.4179688 -0.257813,0.2578125 -0.785157,0.5742187 -1.675782,0.5742187 H 10.843781 Z M 12.918,-3.3858359 c 1.007812,-0.2226563 2.191406,-0.9140625 2.191406,-1.921875 0,-0.8554688 -0.890625,-1.5 -2.203125,-1.5 h -2.835937 c -0.199219,0 -0.292969,0 -0.292969,0.1992187 0,0.1171875 0.09375,0.1171875 0.28125,0.1171875 0.02344,0 0.210937,0 0.386719,0.011719 0.175781,0.023437 0.257812,0.035156 0.257812,0.1640625 0,0.035156 0,0.070312 -0.03516,0.1875 l -1.3359375,5.35546871 c -0.09375,0.38671875 -0.1171875,0.46875 -0.9023438,0.46875 -0.1757812,0 -0.2695312,0 -0.2695312,0.19921875 0,0.1054687525 0.1171875,0.1054687525 0.140625,0.1054687525 0.28125,0 0.9726562,-0.0351562525 1.2539062,-0.0351562525 0.28125,0 0.9843753,0.0351562525 1.2656253,0.0351562525 0.08203,0 0.199218,0 0.199218,-0.1992187525 0,-0.10546875 -0.09375,-0.10546875 -0.28125,-0.10546875 -0.363281,0 -0.644531,0 -0.644531,-0.1875 0,-0.0585938 0.01172,-0.10546875 0.02344,-0.1640625 l 0.65625,-2.63671871 h 1.195312 c 0.902344,0 1.078125,0.5507812 1.078125,0.9023437 0,0.1523438 -0.08203,0.4570313 -0.140625,0.6914063 -0.07031,0.2695312 -0.152344,0.6445312 -0.152344,0.84374996 0,1.078125 1.195313,1.078125 1.324219,1.078125 0.84375,0 1.195313,-1.0078125 1.195313,-1.1484375 0,-0.11718746 -0.117188,-0.11718746 -0.117188,-0.11718746 -0.09375,0 -0.117187,0.0703125 -0.128906,0.14062496 -0.257813,0.73828125 -0.679688,0.9023437525 -0.914063,0.9023437525 -0.328125,0 -0.398437,-0.2226562525 -0.398437,-0.6093750025 0,-0.3046875 0.05859,-0.82031251 0.105469,-1.13671871 0.01172,-0.140625 0.03516,-0.328125 0.03516,-0.46875 0,-0.7617188 -0.667969,-1.078125 -0.9375,-1.171875 z m 0,0"
         style="fill:#000000;fill-opacity:1;fill-rule:nonzero;stroke:none" />
    </g>
    <g
       id="g20"
       aria-label="+R"
       transform="matrix(1.3333333,0,0,1.3333333,258.99333,142.45067)">
      <path
         id="path21"
         d="m 4.0772656,-2.2979609 h 2.7773438 c 0.140625,0 0.328125,0 0.328125,-0.1992188 0,-0.1992187 -0.1875,-0.1992187 -0.328125,-0.1992187 H 4.0772656 v -2.7890625 c 0,-0.1289063 0,-0.328125 -0.1992187,-0.328125 -0.1992188,0 -0.1992188,0.1992187 -0.1992188,0.328125 v 2.7890625 H 0.88976562 c -0.140625,0 -0.328125,0 -0.328125,0.1992187 0,0.1992188 0.1875,0.1992188 0.328125,0.1992188 H 3.6788281 v 2.80078121 c 0,0.12890625 0,0.328125 0.1992188,0.328125 0.1992187,0 0.1992187,-0.19921875 0.1992187,-0.328125 z m 0,0"
         style="fill:#000000;fill-opacity:1;fill-rule:nonzero;stroke:none" />
      <path
         id="path22"
         d="m 11.486445,-6.1182734 c 0.05859,-0.234375 0.08203,-0.3398438 0.28125,-0.3632813 0.08203,-0.011719 0.398438,-0.011719 0.597657,-0.011719 0.714843,0 1.816406,0 1.816406,0.984375 0,0.3398437 -0.152344,1.0195312 -0.550781,1.4179687 -0.257813,0.2578125 -0.785157,0.5742188 -1.675782,0.5742188 h -1.113281 z m 1.429688,2.7304687 c 1.007812,-0.2226562 2.191406,-0.9140625 2.191406,-1.921875 0,-0.8554687 -0.890625,-1.5 -2.203125,-1.5 h -2.835937 c -0.1992192,0 -0.2929692,0 -0.2929692,0.1992188 0,0.1171875 0.09375,0.1171875 0.2812502,0.1171875 0.02344,0 0.210937,0 0.386719,0.011719 0.175781,0.023437 0.257812,0.035156 0.257812,0.1640625 0,0.035156 0,0.070312 -0.03516,0.1875 l -1.3359377,5.35546876 c -0.09375,0.38671875 -0.1171875,0.46875 -0.9023437,0.46875 -0.1757813,0 -0.2695313,0 -0.2695313,0.19921875 0,0.10546875 0.1171875,0.10546875 0.140625,0.10546875 0.28125,0 0.9726563,-0.03515625 1.2539063,-0.03515625 0.28125,0 0.9843754,0.03515625 1.2656254,0.03515625 0.08203,0 0.199218,0 0.199218,-0.19921875 0,-0.10546875 -0.09375,-0.10546875 -0.28125,-0.10546875 -0.363281,0 -0.644531,0 -0.644531,-0.1875 0,-0.0585937 0.01172,-0.10546875 0.02344,-0.1640625 L 10.7716,-3.2940544 h 1.195312 c 0.902344,0 1.078125,0.5507813 1.078125,0.9023438 0,0.1523437 -0.08203,0.4570312 -0.140625,0.6914062 -0.07031,0.2695313 -0.152344,0.6445313 -0.152344,0.84375001 0,1.078125 1.195313,1.078125 1.324219,1.078125 0.84375,0 1.195313,-1.0078125 1.195313,-1.1484375 0,-0.11718751 -0.117188,-0.11718751 -0.117188,-0.11718751 -0.09375,0 -0.117187,0.0703125 -0.128906,0.14062501 -0.257813,0.73828125 -0.679688,0.90234375 -0.914063,0.90234375 -0.328125,0 -0.398437,-0.22265625 -0.398437,-0.609375 0,-0.3046875 0.05859,-0.82031246 0.105469,-1.13671876 0.01172,-0.140625 0.03516,-0.328125 0.03516,-0.46875 0,-0.7617187 -0.667969,-1.078125 -0.9375,-1.171875 z m 0,0"
         style="fill:#000000;fill-opacity:1;fill-rule:nonzero;stroke:none" />
    </g>
    <g
       id="g22"
       aria-label="Γ&#10;R"
       transform="matrix(1.3333333,0,0,1.3333333,244.02533,66.382667)">
      <path
         id="path23"
         d="M 5.5181094,-6.7733281 H 0.32670312 v 0.3046875 h 0.234375 c 0.77343748,0 0.79687498,0.1171875 0.79687498,0.46875 v 5.22656248 c 0,0.3515625 -0.023437,0.46875 -0.79687498,0.46875 h -0.234375 V 1.09375e-4 C 0.67826562,-0.03504687 1.4517031,-0.03504687 1.8384219,-0.03504687 c 0.4101562,0 1.3125,0 1.6757812,0.035156245 V -0.30457812 h -0.328125 c -0.9492187,0 -0.9492187,-0.12890625 -0.9492187,-0.48046875 V -6.0702031 c 0,-0.328125 0.023437,-0.3984375 0.4921875,-0.3984375 h 1.0195312 c 1.4296875,0 1.640625,0.5859375 1.7929688,1.9335937 h 0.2578125 z m 0,0"
         style="fill:#000000;fill-opacity:1;fill-rule:nonzero;stroke:none" />
      <path
         id="path24"
         d="m 9.1099062,-2.7830937 c 0.046875,-0.1875 0.058594,-0.2109375 0.2109375,-0.234375 h 0.4453125 c 0.6562498,0 1.4531248,0 1.4531248,0.7148437 0,0.2929688 -0.128906,0.7265625 -0.457031,0.984375 -0.292969,0.2226563 -0.726563,0.328125 -1.2070313,0.328125 h -0.890625 z m 1.2539058,1.9101562 c 0.832032,-0.1992187 1.570313,-0.703125 1.570313,-1.3242187 0,-0.5976563 -0.703125,-1.0664063 -1.722656,-1.0664063 H 8.0786562 c -0.140625,0 -0.2226562,0 -0.2226562,0.1523438 0,0.09375 0.082031,0.09375 0.2226562,0.09375 0,0 0.140625,0 0.2578125,0.011719 0.1523438,0.011719 0.1640625,0.035156 0.1640625,0.1054688 0,0.011719 0,0.046875 -0.023437,0.1523437 l -0.9375,3.703125 C 7.4927187,1.1895625 7.481,1.2481563 6.9302187,1.2481563 c -0.1171875,0 -0.2109375,0 -0.2109375,0.140625 0,0.070312 0.046875,0.1054687 0.1171875,0.1054687 0.1289063,0 0.2929688,-0.023437 0.4335938,-0.023437 0.1289062,0 0.328125,0 0.4570312,0 0.140625,0 0.3046875,0 0.4453125,0 0.1523438,0 0.3164063,0.023437 0.46875,0.023437 0.035156,0 0.140625,0 0.140625,-0.140625 0,-0.1054687 -0.070312,-0.1054687 -0.2226562,-0.1054687 -0.1171875,0 -0.140625,0 -0.2695313,-0.023437 C 8.13725,1.213 8.13725,1.1895625 8.13725,1.11925 c 0,0 0,-0.046875 0.023437,-0.15234375 L 8.606,-0.79090625 h 0.9492187 c 0.5976563,0 0.8554683,0.29296875 0.8554683,0.62109375 0,0.09375 -0.05859,0.328125 -0.09375,0.4921875 -0.08203,0.31640625 -0.117187,0.421875 -0.117187,0.5390625 0,0.5507813 0.515625,0.7734375 1.03125,0.7734375 0.632812,0 0.914062,-0.6796875 0.914062,-0.80859375 0,-0.0234375 -0.01172,-0.09375 -0.117187,-0.09375 -0.09375,0 -0.105469,0.046875 -0.128906,0.1171875 -0.09375,0.30468755 -0.351563,0.58593755 -0.644532,0.58593755 -0.175781,0 -0.316406,-0.070312 -0.316406,-0.44531255 0,-0.17578125 0.04687,-0.5390625 0.07031,-0.7265625 0.03516,-0.1875 0.03516,-0.2578125 0.03516,-0.328125 0,-0.08203125 0,-0.3046875 -0.199219,-0.515625 -0.128907,-0.15234375 -0.316407,-0.24609375 -0.48047,-0.29296875 z m 0,0"
         style="fill:#000000;fill-opacity:1;fill-rule:nonzero;stroke:none" />
    </g>
    <g
       id="g24"
       aria-label="a&#10;1"
       transform="matrix(1.3333333,0,0,1.3333333,118.55067,66.452)">
      <path
         id="path25"
         d="m 3.7149297,-3.760875 c -0.1757813,-0.375 -0.46875,-0.6445312 -0.9140625,-0.6445312 -1.171875,0 -2.40234376,1.4648437 -2.40234376,2.9179687 0,0.9375 0.55078125,1.59375 1.32421876,1.59375 0.1992187,0 0.703125,-0.03515625 1.3007812,-0.73828125 0.070312,0.41015625 0.421875,0.73828125 0.9023438,0.73828125 0.3515625,0 0.5742187,-0.22265625 0.7382812,-0.5390625 0.1640625,-0.36328125 0.2929688,-0.9726562 0.2929688,-0.9960937 0,-0.09375 -0.082031,-0.09375 -0.1171875,-0.09375 -0.09375,0 -0.1054688,0.035156 -0.140625,0.1757812 -0.1640625,0.64453125 -0.3515625,1.2421875 -0.75,1.2421875 -0.2695313,0 -0.3046875,-0.2578125 -0.3046875,-0.45703125 0,-0.22265625 0.023437,-0.3046875 0.1289062,-0.73828125 0.1171875,-0.421875 0.1289063,-0.5273437 0.2226563,-0.9023437 l 0.3515625,-1.3945313 c 0.070312,-0.28125 0.070312,-0.2929687 0.070312,-0.3398437 0,-0.1640625 -0.1171875,-0.2695313 -0.28125,-0.2695313 -0.2460938,0 -0.3867188,0.2226563 -0.4218745,0.4453125 z M 3.0703984,-1.18275 c -0.046875,0.1757813 -0.046875,0.19921875 -0.1992187,0.36328125 -0.4453125,0.55078125 -0.84375,0.71484375 -1.125,0.71484375 -0.5039063,0 -0.6445313,-0.55078125 -0.6445313,-0.9375 0,-0.5039062 0.328125,-1.7226562 0.5507813,-2.1796875 0.3046875,-0.5976562 0.7617187,-0.9609375 1.1601562,-0.9609375 0.6445313,0 0.7851563,0.8203125 0.7851563,0.8789063 0,0.058594 -0.023437,0.1171875 -0.035156,0.1640625 z m 0,0"
         style="fill:#d0021b;fill-opacity:1;fill-rule:nonzero;stroke:none" />
      <path
         id="path26"
         d="m 7.5967656,-2.9347031 c 0,-0.1875 -0.011719,-0.1992188 -0.2109375,-0.1992188 -0.4453125,0.4335938 -1.078125,0.4453125 -1.359375,0.4453125 v 0.2460938 c 0.1640625,0 0.6210938,0 1.0078125,-0.1875 v 3.55078123 c 0,0.23437497 0,0.32812497 -0.6914062,0.32812497 H 6.0733281 v 0.2460938 c 0.1289063,-0.011719 0.984375,-0.023437 1.2421875,-0.023437 0.2109375,0 1.0898438,0.011719 1.2421875,0.023437 V 1.2488906 H 8.2998906 c -0.703125,0 -0.703125,-0.09375 -0.703125,-0.32812497 z m 0,0"
         style="fill:#d0021b;fill-opacity:1;fill-rule:nonzero;stroke:none" />
    </g>
    <g
       id="g26"
       aria-label="a&#10;2"
       transform="matrix(1.3333333,0,0,1.3333333,203.03467,99.129333)">
      <path
         id="path27"
         d="m 3.7152109,-3.7620391 c -0.1757812,-0.375 -0.46875,-0.6445312 -0.9140625,-0.6445312 -1.171875,0 -2.40234371,1.4648437 -2.40234371,2.9179687 0,0.93750004 0.55078125,1.59375004 1.32421871,1.59375004 0.1992188,0 0.703125,-0.03515625 1.3007813,-0.73828125 0.070312,0.41015625 0.421875,0.73828125 0.9023437,0.73828125 0.3515625,0 0.5742188,-0.22265625 0.7382813,-0.5390625 0.1640625,-0.36328125 0.2929687,-0.97265624 0.2929687,-0.99609374 0,-0.09375 -0.082031,-0.09375 -0.1171875,-0.09375 -0.09375,0 -0.1054687,0.035156 -0.140625,0.1757812 -0.1640625,0.64453129 -0.3515625,1.24218754 -0.75,1.24218754 -0.2695312,0 -0.3046875,-0.2578125 -0.3046875,-0.45703125 0,-0.22265625 0.023437,-0.3046875 0.1289063,-0.73828129 0.1171875,-0.421875 0.1289062,-0.5273437 0.2226562,-0.9023437 l 0.3515625,-1.3945313 c 0.070312,-0.28125 0.070312,-0.2929687 0.070312,-0.3398437 0,-0.1640625 -0.1171875,-0.2695313 -0.28125,-0.2695313 -0.2460937,0 -0.3867187,0.2226563 -0.4218745,0.4453125 z m -0.6445312,2.578125 c -0.046875,0.1757813 -0.046875,0.19921879 -0.1992188,0.36328129 -0.4453125,0.55078125 -0.84375,0.71484375 -1.125,0.71484375 -0.5039062,0 -0.6445312,-0.55078125 -0.6445312,-0.93750004 0,-0.5039062 0.328125,-1.7226562 0.5507812,-2.1796875 0.3046875,-0.5976562 0.7617188,-0.9609375 1.1601563,-0.9609375 0.6445312,0 0.7851562,0.8203125 0.7851562,0.8789063 0,0.058594 -0.023437,0.1171875 -0.035156,0.1640625 z m 0,0"
         style="fill:#d0021b;fill-opacity:1;fill-rule:nonzero;stroke:none" />
      <path
         id="path28"
         d="m 8.7806406,0.22819531 h -0.234375 c -0.023437,0.15234375 -0.082031,0.5625 -0.1757812,0.6328125 -0.058594,0.0351563 -0.5976563,0.0351563 -0.6914063,0.0351563 H 6.3900156 c 0.7382813,-0.64453125 0.984375,-0.84375 1.3945313,-1.171875 0.515625,-0.41015625 0.9960937,-0.84374991 0.9960937,-1.49999991 0,-0.84375 -0.7382812,-1.359375 -1.6289062,-1.359375 -0.8671875,0 -1.453125,0.609375 -1.453125,1.2421875 0,0.3632812 0.3046875,0.3984375 0.375,0.3984375 0.1640625,0 0.375,-0.1171875 0.375,-0.375 0,-0.1289063 -0.058594,-0.3632814 -0.421875,-0.3632814 0.2226562,-0.5039061 0.6914062,-0.65625 1.0195312,-0.65625 0.703125,0 1.0664063,0.5507814 1.0664063,1.1132814 0,0.609375 -0.4335938,1.08984366 -0.65625,1.33593741 l -1.6875,1.66406249 c -0.070312,0.058594 -0.070312,0.070312 -0.070312,0.2695312 h 2.8828125 z m 0,0"
         style="fill:#d0021b;fill-opacity:1;fill-rule:nonzero;stroke:none" />
    </g>
    <g
       id="g28"
       aria-label="a&#10;3"
       transform="matrix(1.3333333,0,0,1.3333333,85.872,94.348)">
      <path
         id="path29"
         d="m 3.7141641,-3.7619766 c -0.1757813,-0.375 -0.46875,-0.6445312 -0.9140625,-0.6445312 -1.171875,0 -2.40234379,1.4648437 -2.40234379,2.9179687 0,0.93750004 0.55078125,1.59375004 1.32421879,1.59375004 0.1992187,0 0.703125,-0.03515625 1.3007812,-0.73828125 0.070312,0.41015625 0.421875,0.73828125 0.9023438,0.73828125 0.3515625,0 0.5742187,-0.22265625 0.7382812,-0.5390625 0.1640625,-0.36328125 0.2929688,-0.97265624 0.2929688,-0.99609374 0,-0.09375 -0.082031,-0.09375 -0.1171875,-0.09375 -0.09375,0 -0.1054688,0.035156 -0.140625,0.1757812 -0.1640625,0.64453129 -0.3515625,1.24218754 -0.75,1.24218754 -0.2695313,0 -0.3046875,-0.2578125 -0.3046875,-0.45703125 0,-0.22265625 0.023437,-0.3046875 0.1289062,-0.73828129 0.1171875,-0.421875 0.1289063,-0.5273437 0.2226563,-0.9023437 l 0.3515625,-1.3945313 c 0.070312,-0.28125 0.070312,-0.2929687 0.070312,-0.3398437 0,-0.1640625 -0.1171875,-0.2695313 -0.28125,-0.2695313 -0.2460938,0 -0.3867188,0.2226563 -0.4218745,0.4453125 z m -0.6445313,2.578125 c -0.046875,0.1757813 -0.046875,0.19921879 -0.1992187,0.36328129 -0.4453125,0.55078125 -0.84375,0.71484375 -1.125,0.71484375 -0.5039063,0 -0.6445313,-0.55078125 -0.6445313,-0.93750004 0,-0.5039062 0.328125,-1.7226562 0.5507813,-2.1796875 0.3046875,-0.5976562 0.7617187,-0.9609375 1.1601562,-0.9609375 0.6445313,0 0.7851563,0.8203125 0.7851563,0.8789063 0,0.058594 -0.023437,0.1171875 -0.035156,0.1640625 z m 0,0"
         style="fill:#d0021b;fill-opacity:1;fill-rule:nonzero;stroke:none" />
      <path
         id="path30"
         d="m 7.1653359,-0.83814844 c 0.5507813,0 0.9375,0.375 0.9375,1.125 0,0.86718754 -0.5039062,1.12500004 -0.9023437,1.12500004 -0.28125,0 -0.890625,-0.082031 -1.1835938,-0.49218754 0.328125,-0.0117188 0.3984375,-0.24609375 0.3984375,-0.38671875 0,-0.22265625 -0.1640625,-0.38671875 -0.3867187,-0.38671875 -0.1875,0 -0.3867188,0.1171875 -0.3867188,0.41015625 0,0.65624999 0.7265625,1.07812499 1.5703125,1.07812499 0.9726563,0 1.640625,-0.64453124 1.640625,-1.34765624 0,-0.5390625 -0.4453125,-1.08984375 -1.21875,-1.2421875 0.7382813,-0.26953126 0.9960938,-0.79687496 0.9960938,-1.21874996 0,-0.5507813 -0.6328125,-0.9609375 -1.40625,-0.9609375 -0.7734375,0 -1.359375,0.375 -1.359375,0.9375 0,0.234375 0.1523437,0.3632812 0.3632812,0.3632812 0.2109375,0 0.3515625,-0.1640625 0.3515625,-0.3515625 0,-0.1992187 -0.140625,-0.3515625 -0.3515625,-0.3632812 0.234375,-0.3046875 0.7148438,-0.3867188 0.9726563,-0.3867188 0.3164062,0 0.7617187,0.1523438 0.7617187,0.7617188 0,0.2929687 -0.1054687,0.609375 -0.28125,0.8320312 -0.234375,0.2578125 -0.421875,0.28125 -0.7734375,0.2929688 -0.1757812,0.023437 -0.1875,0.023437 -0.2226562,0.023437 -0.011719,0 -0.070312,0.011719 -0.070312,0.09375 0,0.09375 0.058594,0.09375 0.1757812,0.09375 z m 0,0"
         style="fill:#d0021b;fill-opacity:1;fill-rule:nonzero;stroke:none" />
    </g>
    <path
       id="path31"
       d="m 2.9659766,-2.2509687 c 0.1640625,0 0.3398437,0 0.3398437,-0.1757813 0,-0.1289062 -0.1171875,-0.1289062 -0.28125,-0.1289062 H 1.4073828 c 0.234375,-0.8554688 0.796875,-1.4296875 1.6992188,-1.4296875 h 0.3164062 c 0.1640625,0 0.328125,0 0.328125,-0.1640625 0,-0.140625 -0.1289062,-0.140625 -0.3046875,-0.140625 H 3.0948828 c -1.2890625,0 -2.62499999,0.9960937 -2.62499999,2.5195312 0,1.08984375 0.74999999,1.875 1.80468749,1.875 0.6445313,0 1.2890625,-0.3984375 1.2890625,-0.50390625 0,-0.0351563 -0.011719,-0.140625 -0.09375,-0.140625 -0.023437,0 -0.046875,0 -0.1289062,0.0585937 -0.3164063,0.19921875 -0.6796875,0.375 -1.0429688,0.375 -0.5859375,0 -1.078125,-0.421875 -1.078125,-1.30078115 0,-0.3515625 0.082031,-0.7265625 0.1054688,-0.84375 z m 0,0"
       style="fill:#000000;fill-opacity:1;fill-rule:nonzero;stroke:none"
       aria-label="ϵ"
       transform="matrix(1.3333333,0,0,1.3333333,89.713333,141.61067)" />
    <path
       id="path32"
       d="m 2.9643594,-2.2509687 c 0.1640625,0 0.3398437,0 0.3398437,-0.1757813 0,-0.1289062 -0.1171875,-0.1289062 -0.28125,-0.1289062 H 1.4057656 c 0.234375,-0.8554688 0.796875,-1.4296875 1.6992188,-1.4296875 h 0.3164062 c 0.1640625,0 0.328125,0 0.328125,-0.1640625 0,-0.140625 -0.1289062,-0.140625 -0.3046875,-0.140625 H 3.0932656 c -1.2890625,0 -2.62499997,0.9960937 -2.62499997,2.5195312 0,1.08984375 0.74999997,1.875 1.80468747,1.875 0.6445313,0 1.2890625,-0.3984375 1.2890625,-0.50390625 0,-0.0351563 -0.011719,-0.140625 -0.09375,-0.140625 -0.023437,0 -0.046875,0 -0.1289062,0.0585937 -0.3164063,0.19921875 -0.6796875,0.375 -1.0429688,0.375 -0.5859375,0 -1.078125,-0.421875 -1.078125,-1.30078115 0,-0.3515625 0.082031,-0.7265625 0.1054688,-0.84375 z m 0,0"
       style="fill:#000000;fill-opacity:1;fill-rule:nonzero;stroke:none"
       aria-label="ϵ"
       transform="matrix(1.3333333,0,0,1.3333333,103.80533,141.61067)" />
    <g
       id="g32"
       aria-label="b&#10;1"
       transform="matrix(1.3333333,0,0,1.3333333,101.81333,124.952)">
      <path
         id="path33"
         d="m 2.3782812,-6.80775 c 0,0 0,-0.1054687 -0.1289062,-0.1054687 -0.2226563,0 -0.9492188,0.082031 -1.21875,0.1054687 -0.0703125,0 -0.1875,0.011719 -0.1875,0.1992188 0,0.1171875 0.09375,0.1171875 0.2460937,0.1171875 0.46875,0 0.4921875,0.070312 0.4921875,0.1640625 0,0.070312 -0.082031,0.4101562 -0.140625,0.6210937 l -0.8085937,3.2460938 c -0.12890625,0.5039062 -0.1640625,0.65625 -0.1640625,1.0078125 0,0.9492187 0.52734375,1.5585937 1.265625,1.5585937 1.171875,0 2.4023437,-1.4765625 2.4023437,-2.9179687 0,-0.9023438 -0.5273437,-1.59375 -1.3242187,-1.59375 -0.4570313,0 -0.8671875,0.2929687 -1.171875,0.5976562 z m -0.9375,3.7734375 c 0.058594,-0.2226562 0.058594,-0.2460937 0.1523438,-0.3515625 0.4921875,-0.6445312 0.9375,-0.796875 1.1953125,-0.796875 0.3632812,0 0.6328125,0.2929688 0.6328125,0.9375 0,0.5859375 -0.328125,1.734375 -0.515625,2.109375 -0.328125,0.66796875 -0.7851563,1.03125 -1.171875,1.03125 -0.3398438,0 -0.6679688,-0.26953125 -0.6679688,-1.0078125 0,-0.1875 0,-0.3867187 0.1640625,-1.0078125 z m 0,0"
         style="fill:#d0021b;fill-opacity:1;fill-rule:nonzero;stroke:none" />
      <path
         id="path34"
         d="m 6.60875,-2.9347031 c 0,-0.1875 -0.011719,-0.1992188 -0.2109375,-0.1992188 -0.4453125,0.4335938 -1.078125,0.4453125 -1.359375,0.4453125 v 0.2460938 c 0.1640625,0 0.6210937,0 1.0078125,-0.1875 v 3.55078123 c 0,0.23437497 0,0.32812497 -0.6914063,0.32812497 H 5.0853125 v 0.2460938 c 0.1289062,-0.011719 0.984375,-0.023437 1.2421875,-0.023437 0.2109375,0 1.0898437,0.011719 1.2421875,0.023437 V 1.2488906 H 7.311875 c -0.703125,0 -0.703125,-0.09375 -0.703125,-0.32812497 z m 0,0"
         style="fill:#d0021b;fill-opacity:1;fill-rule:nonzero;stroke:none" />
    </g>
    <g
       id="g34"
       aria-label="b&#10;2"
       transform="matrix(1.3333333,0,0,1.3333333,218.44133,142.48667)">
      <path
         id="path35"
         d="m 2.3789609,-6.8073828 c 0,0 0,-0.1054688 -0.1289062,-0.1054688 -0.2226563,0 -0.9492188,0.082031 -1.21875,0.1054688 -0.0703125,0 -0.18750001,0.011719 -0.18750001,0.1992187 0,0.1171875 0.09375,0.1171875 0.24609371,0.1171875 0.46875,0 0.4921875,0.070312 0.4921875,0.1640625 0,0.070312 -0.082031,0.4101563 -0.140625,0.6210938 l -0.80859371,3.2460937 c -0.12890625,0.5039063 -0.1640625,0.65625 -0.1640625,1.0078125 0,0.94921879 0.52734375,1.55859379 1.26562501,1.55859379 1.171875,0 2.4023437,-1.47656249 2.4023437,-2.91796879 0,-0.9023437 -0.5273437,-1.59375 -1.3242187,-1.59375 -0.4570313,0 -0.8671875,0.2929688 -1.171875,0.5976563 z m -0.9375,3.7734375 c 0.058594,-0.2226563 0.058594,-0.2460938 0.1523438,-0.3515625 0.4921875,-0.6445313 0.9375,-0.796875 1.1953125,-0.796875 0.3632812,0 0.6328125,0.2929687 0.6328125,0.9375 0,0.5859375 -0.328125,1.734375 -0.515625,2.109375 -0.328125,0.66796874 -0.7851563,1.03124999 -1.171875,1.03124999 -0.3398438,0 -0.6679688,-0.26953125 -0.6679688,-1.00781249 0,-0.1875 0,-0.3867188 0.1640625,-1.0078125 z m 0,0"
         style="fill:#d0021b;fill-opacity:1;fill-rule:nonzero;stroke:none" />
      <path
         id="path36"
         d="m 7.7930234,0.22972656 h -0.234375 c -0.023437,0.15234375 -0.082031,0.5625 -0.1757812,0.6328125 -0.058594,0.0351563 -0.5976563,0.0351563 -0.6914063,0.0351563 H 5.4023984 c 0.7382813,-0.64453125 0.984375,-0.84375 1.3945313,-1.171875 0.515625,-0.41015625 0.9960937,-0.84374996 0.9960937,-1.49999996 0,-0.84375 -0.7382812,-1.359375 -1.6289062,-1.359375 -0.8671875,0 -1.453125,0.609375 -1.453125,1.2421875 0,0.3632813 0.3046875,0.3984375 0.375,0.3984375 0.1640625,0 0.375,-0.1171875 0.375,-0.375 0,-0.1289062 -0.058594,-0.3632812 -0.421875,-0.3632812 0.2226562,-0.5039063 0.6914062,-0.65625 1.0195312,-0.65625 0.703125,0 1.0664063,0.5507812 1.0664063,1.1132812 0,0.609375 -0.4335938,1.08984371 -0.65625,1.33593746 l -1.6875,1.66406254 c -0.070312,0.058594 -0.070312,0.070312 -0.070312,0.2695313 h 2.8828125 z m 0,0"
         style="fill:#d0021b;fill-opacity:1;fill-rule:nonzero;stroke:none" />
    </g>
  </g>
</svg>
