<?xml version="1.0" encoding="UTF-8" standalone="no"?>
<!-- Created with Inkscape (http://www.inkscape.org/) -->

<svg
   version="1.1"
   id="svg1"
   width="202.12"
   height="186.26666"
   viewBox="0 0 202.12 186.26666"
   sodipodi:docname="multi-value-contour.pdf"
   xmlns:inkscape="http://www.inkscape.org/namespaces/inkscape"
   xmlns:sodipodi="http://sodipodi.sourceforge.net/DTD/sodipodi-0.dtd"
   xmlns="http://www.w3.org/2000/svg"
   xmlns:svg="http://www.w3.org/2000/svg">
  <defs
     id="defs1" />
  <sodipodi:namedview
     id="namedview1"
     pagecolor="#ffffff"
     bordercolor="#000000"
     borderopacity="0.25"
     inkscape:showpageshadow="2"
     inkscape:pageopacity="0.0"
     inkscape:pagecheckerboard="0"
     inkscape:deskcolor="#d1d1d1">
    <inkscape:page
       x="0"
       y="0"
       inkscape:label="1"
       id="page1"
       width="202.12"
       height="186.26666"
       margin="0"
       bleed="0" />
  </sodipodi:namedview>
  <g
     id="g1"
     inkscape:groupmode="layer"
     inkscape:label="1">
    <path
       id="path1"
       d="M 125.15475,-48.92134 172.4741,-96.24069"
       style="fill:none;stroke:#000000;stroke-width:0.74721;stroke-linecap:butt;stroke-linejoin:miter;stroke-miterlimit:10;stroke-dasharray:4.48325, 4.48325;stroke-dashoffset:0;stroke-opacity:1"
       transform="matrix(1.3333333,0,0,-1.3333333,-118.528,-32.621333)" />
    <path
       id="path2"
       d="M 92.58833,-96.24069 H 172.4741"
       style="fill:none;stroke:#000000;stroke-width:0.74721;stroke-linecap:butt;stroke-linejoin:miter;stroke-miterlimit:10;stroke-dasharray:0.83687, 2.50064;stroke-dashoffset:0;stroke-opacity:1"
       transform="matrix(1.3333333,0,0,-1.3333333,-118.528,-32.621333)" />
    <path
       id="path3"
       d="m 172.4741,-96.24069 h 64.53507"
       style="fill:none;stroke:#d0021b;stroke-width:0.74721;stroke-linecap:butt;stroke-linejoin:miter;stroke-miterlimit:10;stroke-dasharray:0.83687, 2.50064;stroke-dashoffset:0;stroke-opacity:1"
       transform="matrix(1.3333333,0,0,-1.3333333,-118.528,-32.621333)" />
    <path
       id="path4"
       d="m 188.20139,-90.8608 h 51.91618"
       style="fill:none;stroke:#000000;stroke-width:0.74721;stroke-linecap:butt;stroke-linejoin:miter;stroke-miterlimit:10;stroke-dasharray:none;stroke-opacity:1"
       transform="matrix(1.3333333,0,0,-1.3333333,-118.528,-32.621333)" />
    <path
       id="path5"
       d="m 188.35681,-101.39944 c -2.17587,-6.695 -8.4644,-11.53692 -15.88271,-11.53692 -9.22357,0 -16.69567,7.4721 -16.69567,16.69567 0,9.22355 7.4721,16.69566 16.69567,16.69566 7.41831,0 13.70684,-4.8419 15.88271,-11.53691 l -15.88271,-5.15875 z"
       style="fill:none;stroke:#000000;stroke-width:0.74721;stroke-linecap:butt;stroke-linejoin:miter;stroke-miterlimit:10;stroke-dasharray:none;stroke-opacity:0"
       transform="matrix(1.3333333,0,0,-1.3333333,-118.528,-32.621333)" />
    <path
       id="path6"
       d="m 188.35681,-101.39944 c -2.17587,-6.695 -8.4644,-11.53692 -15.88271,-11.53692 -9.22357,0 -16.69567,7.4721 -16.69567,16.69567 0,9.22355 7.4721,16.69566 16.69567,16.69566 7.41831,0 13.70684,-4.8419 15.88271,-11.53691"
       style="fill:none;stroke:#d0021b;stroke-width:0.74721;stroke-linecap:butt;stroke-linejoin:miter;stroke-miterlimit:10;stroke-dasharray:none;stroke-opacity:1"
       transform="matrix(1.3333333,0,0,-1.3333333,-118.528,-32.621333)" />
    <path
       id="path7"
       d="m 188.37474,-101.6206 h 51.46188"
       style="fill:none;stroke:#000000;stroke-width:0.74721;stroke-linecap:butt;stroke-linejoin:miter;stroke-miterlimit:10;stroke-dasharray:none;stroke-opacity:1"
       transform="matrix(1.3333333,0,0,-1.3333333,-118.528,-32.621333)" />
    <path
       id="path8"
       d="m 239.83662,-101.35161 c -2.61225,-34.92163 -31.77737,-62.44289 -67.36252,-62.44289 -37.30674,0 -67.55381,30.24709 -67.55381,67.55381 0,37.30673 30.24707,67.5538 67.55381,67.5538 35.45363,0 64.52311,-27.31204 67.32664,-62.04237 l -67.32664,-5.51143 z"
       style="fill:none;stroke:#000000;stroke-width:0.74721;stroke-linecap:butt;stroke-linejoin:miter;stroke-miterlimit:10;stroke-dasharray:none;stroke-opacity:0"
       transform="matrix(1.3333333,0,0,-1.3333333,-118.528,-32.621333)" />
    <path
       id="path9"
       d="m 239.83662,-101.35161 c -2.61225,-34.92163 -31.77737,-62.44289 -67.36252,-62.44289 -37.30674,0 -67.55381,30.24709 -67.55381,67.55381 0,37.30673 30.24707,67.5538 67.55381,67.5538 35.45363,0 64.52311,-27.31204 67.32664,-62.04237"
       style="fill:none;stroke:#d0021b;stroke-width:0.74721;stroke-linecap:butt;stroke-linejoin:miter;stroke-miterlimit:10;stroke-dasharray:none;stroke-opacity:1"
       transform="matrix(1.3333333,0,0,-1.3333333,-118.528,-32.621333)" />
    <path
       id="path10"
       d="m 194.47795,-86.85573 7.87261,-3.9393 -7.87261,-3.9333 3.9393,3.9333 z"
       style="fill:#000000;fill-opacity:1;fill-rule:nonzero;stroke:#000000;stroke-width:0.74721;stroke-linecap:butt;stroke-linejoin:miter;stroke-miterlimit:10;stroke-dasharray:none;stroke-opacity:1"
       transform="matrix(1.3333333,0,0,-1.3333333,-118.528,-32.621333)" />
    <path
       id="path11"
       d="m 175.60042,-32.70985 -7.87261,3.9333 7.87261,3.93928 -3.93332,-3.93928 z"
       style="fill:#000000;fill-opacity:1;fill-rule:nonzero;stroke:#000000;stroke-width:0.74721;stroke-linecap:butt;stroke-linejoin:miter;stroke-miterlimit:10;stroke-dasharray:none;stroke-opacity:1"
       transform="matrix(1.3333333,0,0,-1.3333333,-118.528,-32.621333)" />
    <path
       id="path12"
       d="m 130.14015,-96.24069 c 0,1.32107 1.07001,2.39107 2.39107,2.39107 1.32104,0 2.39107,-1.07 2.39107,-2.39107 0,-1.32106 -1.07003,-2.39107 -2.39107,-2.39107 -1.32106,0 -2.39107,1.07001 -2.39107,2.39107 z"
       style="fill:#bd10e0;fill-opacity:1;fill-rule:nonzero;stroke:#bd10e0;stroke-width:0.74721;stroke-linecap:butt;stroke-linejoin:miter;stroke-miterlimit:10;stroke-dasharray:none;stroke-opacity:1"
       transform="matrix(1.3333333,0,0,-1.3333333,-118.528,-32.621333)" />
    <path
       id="path13"
       d="m 203.14558,-105.7213 -7.81282,4.05884 7.93238,3.81376 -3.99906,-3.87353 z"
       style="fill:#000000;fill-opacity:1;fill-rule:nonzero;stroke:#000000;stroke-width:0.74721;stroke-linecap:butt;stroke-linejoin:miter;stroke-miterlimit:10;stroke-dasharray:none;stroke-opacity:1"
       transform="matrix(1.3333333,0,0,-1.3333333,-118.528,-32.621333)" />
    <path
       id="path14"
       d="m 172.4741,-96.24069 v -16.29517"
       style="fill:none;stroke:#000000;stroke-width:0.74721;stroke-linecap:butt;stroke-linejoin:miter;stroke-miterlimit:10;stroke-dasharray:4.48325, 4.48325;stroke-dashoffset:0;stroke-opacity:1"
       transform="matrix(1.3333333,0,0,-1.3333333,-118.528,-32.621333)" />
    <path
       id="path15"
       d="m 170.08302,-96.24069 c 0,1.32107 1.07001,2.39107 2.39108,2.39107 1.32107,0 2.39107,-1.07 2.39107,-2.39107 0,-1.32106 -1.07,-2.39107 -2.39107,-2.39107 -1.32107,0 -2.39108,1.07001 -2.39108,2.39107 z"
       style="fill:#d0021b;fill-opacity:1;fill-rule:nonzero;stroke:#d0021b;stroke-width:0.74721;stroke-linecap:butt;stroke-linejoin:miter;stroke-miterlimit:10;stroke-dasharray:none;stroke-opacity:1"
       transform="matrix(1.3333333,0,0,-1.3333333,-118.528,-32.621333)" />
    <g
       id="g15"
       aria-label="C&#10;1"
       transform="matrix(1.3333333,0,0,1.3333333,158.872,75.156)">
      <path
         id="path16"
         d="m 7.5696328,-6.9255937 c 0,-0.023437 -0.023437,-0.09375 -0.1054687,-0.09375 -0.035156,0 -0.046875,0.011719 -0.1523438,0.1171875 l -0.703125,0.7617187 c -0.082031,-0.140625 -0.5390625,-0.8789062 -1.6523437,-0.8789062 -2.2148438,0 -4.45312504,2.203125 -4.45312504,4.5117187 0,1.640625 1.17187504,2.73046875 2.69531254,2.73046875 0.8671875,0 1.6171875,-0.3984375 2.1445312,-0.85546875 0.9375,-0.8203125 1.1015625,-1.7226562 1.1015625,-1.7578125 0,-0.1054687 -0.1054687,-0.1054687 -0.1171875,-0.1054687 -0.058594,0 -0.1171875,0.023437 -0.1289062,0.1054687 -0.09375,0.2929688 -0.3164063,0.9960938 -1.0078125,1.5703125 -0.6914063,0.5625 -1.3125,0.7265625 -1.8398438,0.7265625 -0.890625,0 -1.9453125,-0.515625 -1.9453125,-2.0625 0,-0.5742187 0.2109375,-2.1914062 1.2070313,-3.3515625 0.609375,-0.703125 1.5351562,-1.2070312 2.4257812,-1.2070312 1.0195313,0 1.6054688,0.7734375 1.6054688,1.921875 0,0.3984375 -0.035156,0.4101562 -0.035156,0.5039062 0,0.1054688 0.1171875,0.1054688 0.1523438,0.1054688 0.1289062,0 0.1289062,-0.023437 0.1757812,-0.1992188 z m 0,0"
         style="fill:#000000;fill-opacity:1;fill-rule:nonzero;stroke:none" />
      <path
         id="path17"
         d="m 9.4534219,-2.9353594 c 0,-0.1875 -0.011719,-0.1992187 -0.2109375,-0.1992187 -0.4453125,0.4335937 -1.078125,0.4453125 -1.359375,0.4453125 v 0.2460937 c 0.1640625,0 0.6210937,0 1.0078125,-0.1875 v 3.55078128 c 0,0.23437502 0,0.32812502 -0.6914063,0.32812502 H 7.9299844 v 0.2460937 c 0.1289062,-0.011719 0.984375,-0.023437 1.2421875,-0.023437 0.2109375,0 1.0898441,0.011719 1.2421871,0.023437 V 1.2482344 h -0.257812 c -0.7031251,0 -0.7031251,-0.09375 -0.7031251,-0.32812502 z m 0,0"
         style="fill:#000000;fill-opacity:1;fill-rule:nonzero;stroke:none" />
    </g>
    <g
       id="g17"
       aria-label="C&#10;2"
       transform="matrix(1.3333333,0,0,1.3333333,158.944,123.328)">
      <path
         id="path18"
         d="m 7.5712969,-6.9256875 c 0,-0.023437 -0.023437,-0.09375 -0.1054688,-0.09375 -0.035156,0 -0.046875,0.011719 -0.1523437,0.1171875 l -0.703125,0.7617188 c -0.082031,-0.140625 -0.5390625,-0.8789063 -1.6523438,-0.8789063 -2.2148437,0 -4.45312497,2.203125 -4.45312497,4.5117188 0,1.64062495 1.17187497,2.7304687 2.69531247,2.7304687 0.8671875,0 1.6171875,-0.3984375 2.1445313,-0.85546875 C 6.2822344,-1.4530312 6.4462969,-2.355375 6.4462969,-2.3905312 6.4462969,-2.496 6.3408281,-2.496 6.3291094,-2.496 c -0.058594,0 -0.1171875,0.023437 -0.1289063,0.1054688 -0.09375,0.2929687 -0.3164062,0.9960937 -1.0078125,1.57031245 -0.6914062,0.5625 -1.3125,0.7265625 -1.8398437,0.7265625 -0.890625,0 -1.9453125,-0.515625 -1.9453125,-2.06249995 0,-0.5742188 0.2109375,-2.1914063 1.2070312,-3.3515625 0.609375,-0.703125 1.5351563,-1.2070313 2.4257813,-1.2070313 1.0195312,0 1.6054687,0.7734375 1.6054687,1.921875 0,0.3984375 -0.035156,0.4101563 -0.035156,0.5039063 0,0.1054687 0.1171875,0.1054687 0.1523437,0.1054687 0.1289063,0 0.1289063,-0.023437 0.1757813,-0.1992187 z m 0,0"
         style="fill:#000000;fill-opacity:1;fill-rule:nonzero;stroke:none" />
      <path
         id="path19"
         d="m 10.63575,0.22860938 h -0.234375 c -0.02344,0.15234375 -0.08203,0.5625 -0.175781,0.6328125 -0.05859,0.0351563 -0.5976565,0.0351563 -0.6914065,0.0351563 H 8.245125 C 8.9834063,0.25204688 9.2295,0.05282813 9.6396563,-0.27529687 10.155281,-0.68545312 10.63575,-1.1190469 10.63575,-1.7752969 c 0,-0.84375 -0.7382812,-1.359375 -1.6289062,-1.359375 -0.8671875,0 -1.453125,0.609375 -1.453125,1.2421875 0,0.3632813 0.3046875,0.3984375 0.375,0.3984375 0.1640625,0 0.375,-0.1171875 0.375,-0.375 0,-0.1289062 -0.058594,-0.3632812 -0.421875,-0.3632812 0.2226562,-0.5039063 0.6914062,-0.65625 1.0195312,-0.65625 0.703125,0 1.0664063,0.5507812 1.0664063,1.1132812 0,0.609375 -0.4335938,1.08984378 -0.65625,1.33593753 l -1.6875,1.66406247 c -0.070312,0.058594 -0.070312,0.070312 -0.070312,0.2695313 h 2.8828127 z m 0,0"
         style="fill:#000000;fill-opacity:1;fill-rule:nonzero;stroke:none" />
    </g>
    <g
       id="g19"
       aria-label="R→∞"
       transform="matrix(1.3333333,0,0,1.3333333,82.98,59.949333)">
      <path
         id="path20"
         d="m 3.7386328,-6.1172734 c 0.058594,-0.234375 0.082031,-0.3398438 0.28125,-0.3632813 0.082031,-0.011719 0.3984375,-0.011719 0.5976563,-0.011719 0.7148437,0 1.8164062,0 1.8164062,0.984375 0,0.3398437 -0.1523437,1.0195312 -0.5507812,1.4179687 -0.2578125,0.2578125 -0.7851563,0.5742188 -1.6757813,0.5742188 H 3.0941016 Z m 1.4296875,2.7304687 c 1.0078125,-0.2226562 2.1914063,-0.9140625 2.1914063,-1.921875 0,-0.8554687 -0.890625,-1.5 -2.203125,-1.5 H 2.3206641 c -0.1992188,0 -0.2929688,0 -0.2929688,0.1992188 0,0.1171875 0.09375,0.1171875 0.28125,0.1171875 0.023437,0 0.2109375,0 0.3867188,0.011719 0.1757812,0.023437 0.2578125,0.035156 0.2578125,0.1640625 0,0.035156 0,0.070312 -0.035156,0.1875 l -1.3359375,5.35546876 c -0.09375,0.38671875 -0.1171875,0.46875 -0.90234374,0.46875 -0.17578125,0 -0.26953125,0 -0.26953125,0.19921875 0,0.1054687525 0.1171875,0.1054687525 0.140625,0.1054687525 0.28125,0 0.97265629,-0.0351562525 1.25390629,-0.0351562525 0.28125,0 0.984375,0.0351562525 1.265625,0.0351562525 0.082031,0 0.1992187,0 0.1992187,-0.1992187525 0,-0.10546875 -0.09375,-0.10546875 -0.28125,-0.10546875 -0.3632812,0 -0.6445312,0 -0.6445312,-0.1875 0,-0.0585937 0.011719,-0.10546875 0.023437,-0.1640625 l 0.65625,-2.63671876 h 1.1953125 c 0.9023437,0 1.078125,0.5507813 1.078125,0.9023438 0,0.1523437 -0.082031,0.4570312 -0.140625,0.6914062 -0.070312,0.2695313 -0.1523438,0.6445313 -0.1523438,0.84375001 0,1.078125 1.1953125,1.078125 1.3242188,1.078125 0.84375,0 1.1953125,-1.0078125 1.1953125,-1.1484375 0,-0.11718751 -0.1171875,-0.11718751 -0.1171875,-0.11718751 -0.09375,0 -0.1171875,0.0703125 -0.1289063,0.14062501 -0.2578125,0.73828125 -0.6796875,0.9023437525 -0.9140625,0.9023437525 -0.328125,0 -0.3984375,-0.2226562525 -0.3984375,-0.6093750025 0,-0.3046875 0.058594,-0.82031246 0.1054688,-1.13671876 0.011719,-0.140625 0.035156,-0.328125 0.035156,-0.46875 0,-0.7617187 -0.6679687,-1.078125 -0.9374996,-1.1718753 z m 0,0"
         style="fill:#000000;fill-opacity:1;fill-rule:nonzero;stroke:none" />
      <path
         id="path21"
         d="m 18.718125,-2.2969609 c -0.550781,0.421875 -0.820312,0.8320312 -0.902344,0.9609375 -0.445312,0.69140621 -0.527343,1.31249996 -0.527343,1.32421871 0,0.1171875 0.128906,0.1171875 0.199218,0.1171875 0.175782,0 0.1875,-0.01171875 0.222657,-0.19921875 0.234375,-0.97265626 0.820312,-1.80468746 1.945312,-2.26171876 0.117188,-0.046875 0.152344,-0.070312 0.152344,-0.140625 0,-0.058594 -0.07031,-0.09375 -0.08203,-0.1054687 -0.445313,-0.1640625 -1.640625,-0.6679688 -2.027344,-2.34375 -0.02344,-0.1171875 -0.03516,-0.140625 -0.210938,-0.140625 -0.07031,0 -0.199218,0 -0.199218,0.1171875 0,0.023437 0.09375,0.6445312 0.515625,1.3125 0.199218,0.3046875 0.480468,0.6445312 0.914062,0.9609375 h -7.40625 c -0.175781,0 -0.351562,0 -0.351562,0.1992187 0,0.1992188 0.175781,0.1992188 0.351562,0.1992188 z m 9.474609,-0.3984375 c -0.539062,-0.6796875 -0.65625,-0.8320313 -0.972656,-1.078125 -0.550781,-0.4453125 -1.113281,-0.6328125 -1.617187,-0.6328125 -1.171875,0 -1.921875,1.1015625 -1.921875,2.2617187 0,1.14843751 0.738281,2.25000001 1.875,2.25000001 1.148437,0 1.980468,-0.90234375 2.460937,-1.69921871 0.539063,0.67968746 0.65625,0.83203121 0.972656,1.07812496 0.550782,0.4453125 1.113282,0.62109375 1.617188,0.62109375 1.171875,0 1.921875,-1.08984375 1.921875,-2.26171871 0,-1.1367188 -0.726563,-2.25 -1.875,-2.25 -1.148438,0 -1.980469,0.9140625 -2.460938,1.7109375 z m 0.257813,0.3398437 c 0.410156,-0.7265625 1.148437,-1.734375 2.273437,-1.734375 1.054688,0 1.59375,1.0429688 1.59375,1.9335938 0,0.984375 -0.667968,1.79296871 -1.546875,1.79296871 -0.574218,0 -1.03125,-0.421875 -1.230468,-0.6328125 C 29.282578,-1.2657109 29.059922,-1.5703984 28.450547,-2.3555547 Z m -0.691406,0.421875 c -0.410157,0.7148438 -1.136719,1.72265626 -2.273438,1.72265626 -1.054687,0 -1.59375,-1.03124996 -1.59375,-1.93359376 0,-0.9726562 0.667969,-1.78125 1.546875,-1.78125 0.585938,0 1.03125,0.421875 1.242188,0.6328125 0.246093,0.2695313 0.46875,0.5742188 1.078125,1.359375 z m 0,0"
         style="fill:#000000;fill-opacity:1;fill-rule:nonzero;stroke:none" />
    </g>
    <g
       id="g21"
       aria-label="−1"
       transform="matrix(1.3333333,0,0,1.3333333,61.269333,108.464)">
      <path
         id="path22"
         d="m 6.5626484,-2.2962422 c 0.1757813,0 0.3515625,0 0.3515625,-0.1992187 0,-0.1992188 -0.1757812,-0.1992188 -0.3515625,-0.1992188 h -5.390625 c -0.1640625,0 -0.33984371,0 -0.33984371,0.1992188 0,0.1992187 0.17578121,0.1992187 0.33984371,0.1992187 z m 0,0"
         style="fill:#bd10e0;fill-opacity:1;fill-rule:nonzero;stroke:none" />
      <path
         id="path23"
         d="m 10.678859,-6.3743672 c 0,-0.234375 0,-0.2578125 -0.234375,-0.2578125 -0.6093746,0.6328125 -1.4882809,0.6328125 -1.8046871,0.6328125 v 0.3164063 c 0.1992187,0 0.7851562,0 1.3007812,-0.2578125 v 5.15624996 c 0,0.3515625 -0.035156,0.48046875 -0.9257812,0.48046875 H 8.6983906 V 6.328125e-4 C 9.0499531,-0.03452344 9.9054219,-0.03452344 10.303859,-0.03452344 c 0.398438,0 1.265625,0 1.617188,0.0351562525 V -0.30405469 h -0.316406 c -0.902344,0 -0.925782,-0.1171875 -0.925782,-0.48046875 z m 0,0"
         style="fill:#bd10e0;fill-opacity:1;fill-rule:nonzero;stroke:none" />
    </g>
    <g
       id="g23"
       aria-label="(−1)&#10;1/3&#10;=e&#10;πi"
       transform="matrix(1.3333333,0,0,1.3333333,32.576,81.473333)">
      <path
         id="path24"
         d="m 2.6471016,1.9916797 c 0.070312,0 0.1640625,0 0.1640625,-0.09375 0,-0.035156 -0.011719,-0.046875 -0.1054688,-0.140625 -1.1015625,-1.03125001 -1.3710937,-2.51953126 -1.3710937,-3.75 0,-2.296875 0.9492187,-3.375 1.359375,-3.7382813 0.1054687,-0.1054687 0.1171875,-0.1054687 0.1171875,-0.1523437 0,-0.035156 -0.035156,-0.09375 -0.1054688,-0.09375 -0.1289062,0 -0.5273437,0.4101562 -0.5976562,0.4804687 -1.0664063,1.1132813 -1.28906254,2.5429688 -1.28906254,3.5039063 0,1.78124999 0.75000004,3.2226562 1.82812504,3.984375 z m 0,0"
         style="fill:#bd10e0;fill-opacity:1;fill-rule:nonzero;stroke:none" />
      <path
         id="path25"
         d="m 8.8580391,-1.8051953 c 0.1289062,0 0.3046875,0 0.3046875,-0.1875 0,-0.1875 -0.1757813,-0.1875 -0.3046875,-0.1875 H 4.2994453 c -0.1289062,0 -0.3046875,0 -0.3046875,0.1875 0,0.1875 0.1757813,0.1875 0.3046875,0.1875 z m 0,0"
         style="fill:#bd10e0;fill-opacity:1;fill-rule:nonzero;stroke:none" />
      <path
         id="path26"
         d="m 12.388313,-5.0747266 c 0,-0.2226562 -0.02344,-0.2226562 -0.234375,-0.2226562 -0.328125,0.3164062 -0.75,0.5039062 -1.511719,0.5039062 v 0.2695313 c 0.222656,0 0.644531,0 1.113281,-0.2226563 v 4.08984379 c 0,0.29296875 -0.02344,0.3984375 -0.785156,0.3984375 h -0.28125 V -5.078125e-4 C 11.017219,-0.02394531 11.708625,-0.02394531 12.060188,-0.02394531 c 0.363281,0 1.054687,0 1.382812,0.0234374975 V -0.25832031 h -0.28125 c -0.75,0 -0.773437,-0.10546875 -0.773437,-0.3984375 z m 4.183593,3.0820313 c 0,-0.7617188 -0.128906,-1.6640625 -0.621093,-2.6015625 -0.386719,-0.7382813 -1.113282,-1.3828125 -1.253907,-1.3828125 -0.08203,0 -0.105468,0.058594 -0.105468,0.09375 0,0.035156 0,0.046875 0.09375,0.140625 1.113281,1.0664062 1.371093,2.5195312 1.371093,3.75 0,2.28515624 -0.949218,3.375 -1.359375,3.7382812 -0.105468,0.1054688 -0.105468,0.1054688 -0.105468,0.1523438 0,0.035156 0.02344,0.09375 0.105468,0.09375 0.128907,0 0.527344,-0.4101563 0.585938,-0.4804688 1.066406,-1.11328121 1.289062,-2.5429687 1.289062,-3.5039062 z m 0,0"
         style="fill:#bd10e0;fill-opacity:1;fill-rule:nonzero;stroke:none" />
      <path
         id="path27"
         d="m 19.551398,-6.6098828 c 0,-0.1757813 -0.02344,-0.1757813 -0.199218,-0.1757813 -0.398438,0.375 -1.007813,0.375 -1.21875,0.375 v 0.234375 c 0.152343,0 0.550781,0 0.902343,-0.1640625 v 3.0234375 c 0,0.1875 0,0.2695313 -0.609375,0.2695313 h -0.257812 v 0.234375 c 0.328125,-0.023437 0.796875,-0.023437 1.125,-0.023437 0.339844,0 0.796875,0 1.136719,0.023437 v -0.234375 h -0.257813 c -0.621094,0 -0.621094,-0.082031 -0.621094,-0.2695313 z m 0,0"
         style="fill:#bd10e0;fill-opacity:1;fill-rule:nonzero;stroke:none" />
      <path
         id="path28"
         d="m 24.271125,-7.0083203 c 0.04687,-0.09375 0.04687,-0.1054688 0.04687,-0.1289063 0,-0.082031 -0.07031,-0.1523437 -0.152344,-0.1523437 -0.105468,0 -0.140625,0.070312 -0.175781,0.1523437 l -2.332031,5.53125 c -0.04687,0.09375 -0.04687,0.1054688 -0.04687,0.1289063 0,0.082031 0.08203,0.1523437 0.164062,0.1523437 0.09375,0 0.128907,-0.070312 0.164063,-0.1523437 z m 0,0"
         style="fill:#bd10e0;fill-opacity:1;fill-rule:nonzero;stroke:none" />
      <path
         id="path29"
         d="m 26.635383,-4.7934766 c 0.503906,0 0.84375,0.3398438 0.84375,0.9492188 0,0.65625 -0.386719,0.9375 -0.832031,0.9375 -0.152344,0 -0.773438,-0.035156 -1.042969,-0.375 0.234375,-0.023437 0.328125,-0.1875 0.328125,-0.3398438 0,-0.2109375 -0.140625,-0.3398437 -0.339844,-0.3398437 -0.164062,0 -0.339844,0.09375 -0.339844,0.3515625 0,0.5859375 0.65625,0.9257812 1.417969,0.9257812 0.878906,0 1.476563,-0.5742187 1.476563,-1.1601562 0,-0.4335938 -0.339844,-0.9023438 -1.042969,-1.078125 0.46875,-0.1523438 0.855469,-0.5390625 0.855469,-1.03125 0,-0.4804688 -0.5625,-0.8320313 -1.277344,-0.8320313 -0.703125,0 -1.242188,0.3164063 -1.242188,0.8085938 0,0.2578125 0.199219,0.328125 0.316407,0.328125 0.164062,0 0.328125,-0.1054688 0.328125,-0.3164063 0,-0.1875 -0.140625,-0.2929687 -0.292969,-0.3164062 0.269531,-0.3046875 0.820312,-0.3046875 0.867187,-0.3046875 0.304688,0 0.691407,0.140625 0.691407,0.6328125 0,0.328125 -0.1875,0.9023437 -0.785157,0.9375 -0.105468,0.011719 -0.269531,0.023437 -0.316406,0.023437 -0.05859,0 -0.128906,0.011719 -0.128906,0.1054687 0,0.09375 0.07031,0.09375 0.164062,0.09375 z m 0,0"
         style="fill:#bd10e0;fill-opacity:1;fill-rule:nonzero;stroke:none" />
      <path
         id="path30"
         d="m 37.205695,-2.6489453 c 0.117188,0 0.28125,0 0.28125,-0.1875 0,-0.1875 -0.1875,-0.1875 -0.316406,-0.1875 h -5.003906 c -0.128906,0 -0.316406,0 -0.316406,0.1875 0,0.1875 0.164062,0.1875 0.28125,0.1875 z m -0.03516,1.68749999 c 0.128906,0 0.316406,0 0.316406,-0.18749999 0,-0.1875 -0.164062,-0.1875 -0.28125,-0.1875 h -5.074218 c -0.117188,0 -0.28125,0 -0.28125,0.1875 0,0.18749999 0.1875,0.18749999 0.316406,0.18749999 z m 0,0"
         style="fill:#bd10e0;fill-opacity:1;fill-rule:nonzero;stroke:none" />
      <path
         id="path31"
         d="m 41.925422,-1.8169141 c 0.175781,0 0.773437,-0.011719 1.195312,-0.1640625 0.691407,-0.234375 0.714844,-0.7148437 0.714844,-0.8320312 0,-0.4453125 -0.421875,-0.703125 -0.9375,-0.703125 -0.902344,0 -2.191406,0.7148437 -2.191406,2.1210937 0,0.80859379 0.492187,1.47656254 1.371094,1.47656254 1.242187,0 1.910156,-0.796875 1.910156,-0.9140625 0,-0.0703125 -0.07031,-0.12890625 -0.117188,-0.12890625 -0.04687,0 -0.08203,0.0234375 -0.117187,0.0820313 -0.632813,0.73828125 -1.523438,0.73828125 -1.652344,0.73828125 -0.585937,0 -0.761719,-0.4921875 -0.761719,-0.93749994 0,-0.2460938 0.07031,-0.5976563 0.105469,-0.7382813 z m -0.421875,-0.2226562 c 0.257812,-0.9726563 0.984375,-1.2539063 1.394531,-1.2539063 0.316406,0 0.621094,0.1640625 0.621094,0.4804688 0,0.7734375 -1.3125,0.7734375 -1.640625,0.7734375 z m 0,0"
         style="fill:#bd10e0;fill-opacity:1;fill-rule:nonzero;stroke:none" />
      <path
         id="path32"
         d="m 48.959602,-7.5385937 c 0.08203,0 0.140625,0 0.199218,-0.046875 0.03516,-0.035156 0.08203,-0.1054688 0.08203,-0.1757813 0,-0.1523437 -0.140625,-0.1523437 -0.234375,-0.1523437 h -2.132813 c -0.105469,0 -0.328125,0 -0.632812,0.2460937 -0.128907,0.1171875 -0.351563,0.375 -0.351563,0.4335938 0,0.070312 0.07031,0.070312 0.09375,0.070312 0.07031,0 0.07031,0 0.117188,-0.046875 0.164062,-0.2226563 0.410156,-0.328125 0.703125,-0.328125 h 0.363281 c -0.1875,0.6210937 -0.433594,1.1367187 -0.609375,1.453125 -0.08203,0.1289062 -0.08203,0.140625 -0.08203,0.1875 0,0.1171875 0.09375,0.1875 0.199218,0.1875 0.199219,0 0.269532,-0.234375 0.386719,-0.6328125 0.117188,-0.3867188 0.210938,-0.75 0.316406,-1.1953125 h 0.65625 c -0.02344,0.070312 -0.164062,0.6210937 -0.164062,1.0078125 0,0.3515625 0.128906,0.8203125 0.351562,0.8203125 0.117188,0 0.257813,-0.1171875 0.257813,-0.2460938 0,-0.058594 -0.02344,-0.082031 -0.05859,-0.140625 -0.222656,-0.375 -0.222656,-0.8085937 -0.222656,-0.9023437 0,-0.1640625 0.02344,-0.3632813 0.04687,-0.5390625 z m 2.768554,-1.3359375 c 0,-0.1171875 -0.08203,-0.2109375 -0.210937,-0.2109375 -0.140625,0 -0.304688,0.1289062 -0.304688,0.2929687 0,0.140625 0.105469,0.2109375 0.210938,0.2109375 0.164062,0 0.304687,-0.140625 0.304687,-0.2929687 z m 0.234375,2.390625 c 0,-0.070312 -0.08203,-0.070312 -0.105468,-0.070312 -0.08203,0 -0.08203,0.023437 -0.117188,0.1171875 -0.08203,0.2695312 -0.304687,0.5507812 -0.550781,0.5507812 -0.117188,0 -0.152344,-0.082031 -0.152344,-0.1875 0,-0.1054687 0.02344,-0.1640625 0.05859,-0.2578125 0.04687,-0.09375 0.08203,-0.1992187 0.105469,-0.2695312 0.02344,-0.035156 0.222656,-0.5039063 0.28125,-0.6796875 0.04687,-0.1054688 0.07031,-0.1640625 0.07031,-0.2460938 0,-0.2460937 -0.222656,-0.4453125 -0.539062,-0.4453125 -0.527344,0 -0.796875,0.6445313 -0.796875,0.7734375 0,0.070312 0.07031,0.070312 0.105468,0.070312 0.08203,0 0.08203,-0.023437 0.105469,-0.1054687 0.117188,-0.3515625 0.351563,-0.5625 0.5625,-0.5625 0.09375,0 0.152344,0.046875 0.152344,0.1875 0,0.011719 0,0.082031 -0.02344,0.1757812 -0.03516,0.09375 -0.257812,0.6210938 -0.328125,0.796875 -0.03516,0.082031 -0.03516,0.09375 -0.117187,0.2578125 -0.02344,0.070312 -0.04687,0.140625 -0.04687,0.2226563 0,0.2578125 0.234375,0.4453125 0.539062,0.4453125 0.515625,0 0.796875,-0.65625 0.796875,-0.7734375 z m 0,0"
         style="fill:#bd10e0;fill-opacity:1;fill-rule:nonzero;stroke:none" />
    </g>
    <path
       id="path33"
       d="m -115.451,101.382 h 6.977"
       style="fill:none;stroke:#bd10e0;stroke-width:0.2903;stroke-linecap:butt;stroke-linejoin:miter;stroke-miterlimit:10;stroke-dasharray:none;stroke-opacity:1"
       transform="matrix(1.3333333,0,0,-1.3333333,247.104,210.09067)" />
    <path
       id="path34"
       d="m 1.6415,-1.65325 c 0.4570313,0 0.7617188,0.2929688 0.7617188,0.78515625 0,0.50390625 -0.3046875,0.7734375 -0.75,0.7734375 -0.058594,0 -0.65625005,0 -0.9023438,-0.2578125 0.19921875,-0.0351563 0.2578125,-0.1875 0.2578125,-0.3046875 0,-0.1875 -0.140625,-0.3046875 -0.3046875,-0.3046875 -0.15234375,0 -0.3046875,0.10546875 -0.3046875,0.31640625 0,0.515625 0.5859375,0.75 1.265625,0.75 0.8203125,0 1.3242188,-0.4921875 1.3242188,-0.97265625 0,-0.41015625 -0.3632813,-0.76171875 -0.9257813,-0.89062495 0.5976563,-0.1875 0.75,-0.5625 0.75,-0.84375 0,-0.4101563 -0.5039062,-0.7148438 -1.1367187,-0.7148438 -0.609375,0 -1.10156255,0.2578125 -1.10156255,0.703125 0,0.234375 0.1875,0.2929688 0.28125,0.2929688 0.140625,0 0.28125005,-0.1054688 0.28125005,-0.28125 0,-0.1171875 -0.058594,-0.2578125 -0.23437505,-0.28125 0.21093755,-0.234375 0.65625005,-0.2460938 0.76171875,-0.2460938 0.3632813,0 0.6210938,0.1875 0.6210938,0.5273438 0,0.28125 -0.1875,0.7382812 -0.7148438,0.7734375 -0.140625,0 -0.1523437,0 -0.28125,0.011719 -0.058594,0 -0.1171875,0.011719 -0.1171875,0.082031 0,0.082031 0.058594,0.082031 0.140625,0.082031 z m 0,0"
       style="fill:#bd10e0;fill-opacity:1;fill-rule:nonzero;stroke:none"
       aria-label="3"
       transform="matrix(1.3333333,0,0,1.3333333,95.561333,80.329333)" />
    <path
       id="path35"
       d="m 0.87748438,-0.5855625 c -0.0351563,0.15234375 -0.09375,0.375 -0.09375,0.421875 0,0.1875 0.140625,0.26953125 0.29296872,0.26953125 0.1171875,0 0.2929688,-0.0703125 0.3632813,-0.26953125 0.023437,-0.046875 0.3632812,-1.3945312 0.3984375,-1.5820312 0.082031,-0.328125 0.2578125,-1.0195313 0.3164062,-1.2890625 0.046875,-0.1289063 0.328125,-0.5976563 0.5625,-0.8203125 0.082031,-0.070312 0.375,-0.328125 0.796875,-0.328125 0.2578125,0 0.4101563,0.1171875 0.421875,0.1171875 -0.3046875,0.046875 -0.515625,0.2929687 -0.515625,0.5507812 0,0.1640625 0.1054688,0.3515625 0.375,0.3515625 0.2695313,0 0.5507813,-0.234375 0.5507813,-0.5859375 0,-0.3515625 -0.328125,-0.65625 -0.8320313,-0.65625 -0.6445312,0 -1.0898437,0.4921875 -1.2773437,0.7734375 -0.082031,-0.4570312 -0.4335938,-0.7734375 -0.9023438,-0.7734375 -0.45703122,0 -0.64453122,0.3867188 -0.73828122,0.5742188 -0.17578125,0.3398437 -0.3046875,0.9375 -0.3046875,0.9609375 0,0.1054687 0.09375,0.1054687 0.1171875,0.1054687 0.09375,0 0.10546875,-0.011719 0.1640625,-0.234375 0.17578125,-0.703125 0.375,-1.1835937 0.72656252,-1.1835937 0.1757812,0 0.3164062,0.082031 0.3164062,0.4570312 0,0.2109375 -0.035156,0.3164063 -0.1640625,0.8320313 z m 0,0"
       style="fill:#000000;fill-opacity:1;fill-rule:nonzero;stroke:none"
       aria-label="r"
       transform="matrix(1.3333333,0,0,1.3333333,114.52533,108.812)" />
  </g>
</svg>
