<?xml version="1.0" encoding="UTF-8" standalone="no"?>
<!-- Created with Inkscape (http://www.inkscape.org/) -->

<svg
   version="1.1"
   id="svg1"
   width="215.96001"
   height="107.42667"
   viewBox="0 0 215.96001 107.42667"
   sodipodi:docname="phase-difference.pdf"
   xmlns:inkscape="http://www.inkscape.org/namespaces/inkscape"
   xmlns:sodipodi="http://sodipodi.sourceforge.net/DTD/sodipodi-0.dtd"
   xmlns="http://www.w3.org/2000/svg"
   xmlns:svg="http://www.w3.org/2000/svg">
  <defs
     id="defs1" />
  <sodipodi:namedview
     id="namedview1"
     pagecolor="#ffffff"
     bordercolor="#000000"
     borderopacity="0.25"
     inkscape:showpageshadow="2"
     inkscape:pageopacity="0.0"
     inkscape:pagecheckerboard="0"
     inkscape:deskcolor="#d1d1d1">
    <inkscape:page
       x="0"
       y="0"
       inkscape:label="1"
       id="page1"
       width="215.96001"
       height="107.42667"
       margin="0"
       bleed="0" />
  </sodipodi:namedview>
  <g
     id="g1"
     inkscape:groupmode="layer"
     inkscape:label="1">
    <path
       id="path1"
       d="M 161.11649,-108.79384 H 278.2492"
       style="fill:none;stroke:#d0021b;stroke-width:0.74721;stroke-linecap:butt;stroke-linejoin:miter;stroke-miterlimit:10;stroke-dasharray:0.83687, 2.50064;stroke-dashoffset:0;stroke-opacity:1"
       transform="matrix(1.3333333,0,0,-1.3333333,-156.68133,-91.344)" />
    <path
       id="path2"
       d="m 158.72542,-108.79384 c 0,1.32109 1.07002,2.39108 2.39107,2.39108 1.32107,0 2.39108,-1.06999 2.39108,-2.39108 0,-1.32106 -1.07001,-2.39106 -2.39108,-2.39106 -1.32105,0 -2.39107,1.07 -2.39107,2.39106 z"
       style="fill:#d16b77;fill-opacity:1;fill-rule:nonzero;stroke:#d06774;stroke-width:0.74721;stroke-linecap:butt;stroke-linejoin:miter;stroke-miterlimit:10;stroke-dasharray:none;stroke-opacity:1"
       transform="matrix(1.3333333,0,0,-1.3333333,-156.68133,-91.344)" />
    <path
       id="path3"
       d="M 178.91803,-107.00053 H 279.04425"
       style="fill:none;stroke:#000000;stroke-width:0.74721;stroke-linecap:butt;stroke-linejoin:miter;stroke-miterlimit:10;stroke-dasharray:none;stroke-opacity:1"
       transform="matrix(1.3333333,0,0,-1.3333333,-156.68133,-91.344)" />
    <path
       id="path4"
       d="m 178.98378,-110.35399 c -0.79503,-9.17576 -8.4883,-16.37291 -17.86729,-16.37291 -9.90502,0 -17.93305,8.02803 -17.93305,17.93306 0,9.90504 8.02803,17.93304 17.93305,17.93304 9.1638,0 16.72557,-6.87432 17.80154,-15.74519 l -17.80154,-2.18785 z"
       style="fill:none;stroke:#000000;stroke-width:0.74721;stroke-linecap:butt;stroke-linejoin:miter;stroke-miterlimit:10;stroke-dasharray:none;stroke-opacity:0"
       transform="matrix(1.3333333,0,0,-1.3333333,-156.68133,-91.344)" />
    <path
       id="path5"
       d="m 178.98378,-110.35399 c -0.79503,-9.17576 -8.4883,-16.37291 -17.86729,-16.37291 -9.90502,0 -17.93305,8.02803 -17.93305,17.93306 0,9.90504 8.02803,17.93304 17.93305,17.93304 9.1638,0 16.72557,-6.87432 17.80154,-15.74519"
       style="fill:none;stroke:#d06774;stroke-width:0.74721;stroke-linecap:butt;stroke-linejoin:miter;stroke-miterlimit:10;stroke-dasharray:none;stroke-opacity:1"
       transform="matrix(1.3333333,0,0,-1.3333333,-156.68133,-91.344)" />
    <path
       id="path6"
       d="M 178.98378,-110.35399 H 279.10999"
       style="fill:none;stroke:#000000;stroke-width:0.74721;stroke-linecap:butt;stroke-linejoin:miter;stroke-miterlimit:10;stroke-dasharray:none;stroke-opacity:1"
       transform="matrix(1.3333333,0,0,-1.3333333,-156.68133,-91.344)" />
    <path
       id="path7"
       d="m 238.39001,-79.65263 c 5.40981,-1.83515 6.73087,-11.60865 1.20751,-23.38468"
       style="fill:none;stroke:#000000;stroke-width:0.74721;stroke-linecap:butt;stroke-linejoin:miter;stroke-miterlimit:10;stroke-dasharray:none;stroke-opacity:1"
       transform="matrix(1.3333333,0,0,-1.3333333,-156.68133,-91.344)" />
    <path
       id="path8"
       d="m 239.01392,-98.59972 -0.14568,-5.92006 4.71251,3.58618 z"
       style="fill:#000000;fill-opacity:1;fill-rule:nonzero;stroke:#000000;stroke-width:0.0797;stroke-linecap:butt;stroke-linejoin:miter;stroke-miterlimit:10;stroke-dasharray:none;stroke-opacity:0"
       transform="matrix(1.3333333,0,0,-1.3333333,-156.68133,-91.344)" />
    <path
       id="path9"
       d="m 200.9458,-111.41803 c -1.35097,-20.82028 -18.6683,-37.28879 -39.82931,-37.28879 -22.0457,0 -39.913,17.8673 -39.913,39.91298 0,22.0457 17.8673,39.91301 39.913,39.91301 21.30445,0 38.71147,-16.68968 39.85324,-37.71321 l -39.85324,-2.1998 z"
       style="fill:none;stroke:#000000;stroke-width:0.74721;stroke-linecap:butt;stroke-linejoin:miter;stroke-miterlimit:10;stroke-dasharray:4.48325, 4.48325;stroke-dashoffset:0;stroke-opacity:0"
       transform="matrix(1.3333333,0,0,-1.3333333,-156.68133,-91.344)" />
    <path
       id="path10"
       d="m 200.9458,-111.41803 c -1.35097,-20.82028 -18.6683,-37.28879 -39.82931,-37.28879 -22.0457,0 -39.913,17.8673 -39.913,39.91298 0,22.0457 17.8673,39.91301 39.913,39.91301 21.30445,0 38.71147,-16.68968 39.85324,-37.71321"
       style="fill:none;stroke:#9b9b9b;stroke-width:0.74721;stroke-linecap:butt;stroke-linejoin:miter;stroke-miterlimit:10;stroke-dasharray:4.48325, 4.48325;stroke-dashoffset:0;stroke-opacity:1"
       transform="matrix(1.3333333,0,0,-1.3333333,-156.68133,-91.344)" />
    <path
       id="path11"
       d="m 161.11649,-108.79384 -12.81615,12.1646"
       style="fill:none;stroke:#d06774;stroke-width:0.74721;stroke-linecap:butt;stroke-linejoin:miter;stroke-miterlimit:10;stroke-dasharray:none;stroke-opacity:1"
       transform="matrix(1.3333333,0,0,-1.3333333,-156.68133,-91.344)" />
    <path
       id="path12"
       d="m 4.5828828,-3.1861484 c 0,-0.796875 -0.046875,-1.59375 -0.3984375,-2.3320313 -0.4570312,-0.9609375 -1.2773437,-1.1132812 -1.6875,-1.1132812 -0.5976562,0 -1.3359375,0.2578125 -1.73437499,1.1835937 -0.328125,0.6914063 -0.375,1.4648438 -0.375,2.2617188 0,0.75 0.046875,1.640625 0.4453125,2.40234371 0.43359379,0.80859375 1.16015629,1.0078125 1.65234379,1.0078125 0.5390625,0 1.2890625,-0.2109375 1.734375,-1.16015625 C 4.5360078,-1.6275547 4.5828828,-2.4009922 4.5828828,-3.1861484 Z M 2.4852266,0.00135156 c -0.3867188,0 -0.984375,-0.24609375 -1.1601563,-1.20703126 -0.1054687,-0.5976562 -0.1054687,-1.5117187 -0.1054687,-2.0976562 0,-0.6445313 0,-1.3007813 0.082031,-1.8398438 0.1875,-1.1835937 0.9257813,-1.265625 1.1835938,-1.265625 0.328125,0 0.984375,0.1757813 1.171875,1.1601563 0.09375,0.5625 0.09375,1.3125 0.09375,1.9453125 0,0.75 0,1.4179687 -0.1054688,2.0625 -0.1523437,0.93749996 -0.7148437,1.24218746 -1.160156,1.24218746 z m 0,0"
       style="fill:#000000;fill-opacity:1;fill-rule:nonzero;stroke:none"
       aria-label="0"
       transform="matrix(1.3333333,0,0,1.3333333,61.229333,66.478667)" />
    <g
       id="g12"
       aria-label="x&#10;1/3"
       transform="matrix(1.3333333,0,0,1.3333333,126.31067,23.232)">
      <path
         id="path13"
         d="m 1.73575,-0.73942969 c -0.070312,0.234375 -0.2929687,0.609375 -0.65625,0.609375 -0.023437,0 -0.22265625,0 -0.375,-0.09375 0.28125,-0.09375 0.3046875,-0.33984375 0.3046875,-0.38671875 0,-0.15234375 -0.1171875,-0.2578125 -0.28125,-0.2578125 -0.1875,0 -0.38671875,0.1640625 -0.38671875,0.43359375 0,0.33984375 0.38671875,0.50390625 0.72656255,0.50390625 0.3164062,0 0.609375,-0.19921875 0.7851562,-0.4921875 0.1640625,0.36328125 0.5507813,0.4921875 0.8203125,0.4921875 0.8085938,0 1.2304688,-0.8671875 1.2304688,-1.06640625 0,-0.09375 -0.09375,-0.09375 -0.1054688,-0.09375 -0.1054687,0 -0.1054687,0.035156 -0.140625,0.11718752 -0.140625,0.48046875 -0.5625,0.84375 -0.9492187,0.84375 -0.28125,0 -0.421875,-0.1875 -0.421875,-0.4453125 0,-0.1875 0.1640625,-0.82031252 0.3632812,-1.59375002 0.1289063,-0.5390625 0.4453125,-0.7148437 0.6796875,-0.7148437 0.011719,0 0.2226563,0 0.375,0.1054687 -0.2226562,0.058594 -0.3046875,0.2578125 -0.3046875,0.375 0,0.1523438 0.1171875,0.2578125 0.28125,0.2578125 0.1523438,0 0.3867188,-0.1289062 0.3867188,-0.421875 0,-0.3867187 -0.4453125,-0.5039062 -0.7265625,-0.5039062 -0.3515625,0 -0.6328125,0.2226562 -0.7851563,0.4921875 C 2.438875,-2.8722422 2.11075,-3.0714609 1.7240313,-3.0714609 c -0.7851563,0 -1.2304688,0.8554687 -1.2304688,1.0664062 0,0.082031 0.10546875,0.082031 0.1171875,0.082031 0.09375,0 0.10546875,-0.023437 0.140625,-0.1171875 0.17578125,-0.5390625 0.609375,-0.84375 0.9492188,-0.84375 0.234375,0 0.421875,0.1289062 0.421875,0.46875 0,0.1289062 -0.082031,0.4804687 -0.1523438,0.7148437 z m 0,0"
         style="fill:#000000;fill-opacity:1;fill-rule:nonzero;stroke:none" />
      <path
         id="path14"
         d="m 6.4994219,-6.1710703 c 0,-0.1523438 -0.011719,-0.1523438 -0.1757813,-0.1523438 -0.3515625,0.3164063 -0.9023437,0.3164063 -1.0078125,0.3164063 h -0.082031 v 0.2226562 h 0.082031 c 0.1171875,0 0.4335938,-0.011719 0.7265625,-0.140625 v 2.484375 c 0,0.1640625 0,0.2109375 -0.5273437,0.2109375 H 5.2689531 v 0.2226563 c 0.2695313,-0.023437 0.7148438,-0.023437 1.0078125,-0.023437 0.28125,0 0.7265625,0 0.9960938,0.023437 V -3.2296641 H 7.0267656 c -0.5273437,0 -0.5273437,-0.046875 -0.5273437,-0.2109375 z m 0,0"
         style="fill:#000000;fill-opacity:1;fill-rule:nonzero;stroke:none" />
      <path
         id="path15"
         d="m 10.92032,-6.4991953 c 0.03516,-0.070312 0.03516,-0.09375 0.03516,-0.1054688 0,-0.070312 -0.07031,-0.140625 -0.140625,-0.140625 -0.08203,0 -0.117188,0.058594 -0.152344,0.1289063 l -2.0976564,4.6054687 c -0.035156,0.070312 -0.035156,0.09375 -0.035156,0.1054688 0,0.082031 0.070312,0.140625 0.140625,0.140625 0.082031,0 0.1171875,-0.046875 0.1523438,-0.1171875 z m 0,0"
         style="fill:#000000;fill-opacity:1;fill-rule:nonzero;stroke:none" />
      <path
         id="path16"
         d="m 13.214266,-4.6593516 c 0.457031,0 0.761718,0.2929688 0.761718,0.7851563 0,0.5039062 -0.304687,0.7734375 -0.75,0.7734375 -0.05859,0 -0.65625,0 -0.902343,-0.2578125 0.199218,-0.035156 0.257812,-0.1875 0.257812,-0.3046875 0,-0.1875 -0.140625,-0.3046875 -0.304687,-0.3046875 -0.152344,0 -0.304688,0.1054687 -0.304688,0.3164062 0,0.515625 0.585938,0.75 1.265625,0.75 0.820313,0 1.324219,-0.4921875 1.324219,-0.9726562 0,-0.4101563 -0.363281,-0.7617188 -0.925781,-0.890625 0.597656,-0.1875 0.75,-0.5625 0.75,-0.84375 0,-0.4101563 -0.503907,-0.7148438 -1.136719,-0.7148438 -0.609375,0 -1.101563,0.2578125 -1.101563,0.703125 0,0.234375 0.1875,0.2929688 0.28125,0.2929688 0.140625,0 0.28125,-0.1054688 0.28125,-0.28125 0,-0.1171875 -0.05859,-0.2578125 -0.234375,-0.28125 0.210938,-0.234375 0.65625,-0.2460938 0.761719,-0.2460938 0.363281,0 0.621094,0.1875 0.621094,0.5273438 0,0.28125 -0.1875,0.7382812 -0.714844,0.7734375 -0.140625,0 -0.152344,0 -0.28125,0.011719 -0.05859,0 -0.117187,0.011719 -0.117187,0.082031 0,0.082031 0.05859,0.082031 0.140625,0.082031 z m 0,0"
         style="fill:#000000;fill-opacity:1;fill-rule:nonzero;stroke:none" />
    </g>
    <path
       id="path17"
       d="m -188.315,142.997 h 18.493"
       style="fill:none;stroke:#000000;stroke-width:0.3985;stroke-linecap:butt;stroke-linejoin:miter;stroke-miterlimit:10;stroke-dasharray:none;stroke-opacity:1"
       transform="matrix(1.3333333,0,0,-1.3333333,375.37733,215.804)" />
    <g
       id="g17"
       aria-label="x&#10;2&#10;+1"
       transform="matrix(1.3333333,0,0,1.3333333,124.29067,33.042667)">
      <path
         id="path18"
         d="m 1.7331719,-0.73805469 c -0.070312,0.234375 -0.2929688,0.609375 -0.65625,0.609375 -0.023437,0 -0.22265627,0 -0.37500002,-0.09375 0.28125,-0.09375 0.30468752,-0.33984375 0.30468752,-0.38671875 0,-0.15234375 -0.11718752,-0.2578125 -0.28125002,-0.2578125 -0.1875,0 -0.38671875,0.1640625 -0.38671875,0.43359375 0,0.33984375 0.38671875,0.50390625 0.72656247,0.50390625 0.3164063,0 0.609375,-0.19921875 0.7851563,-0.4921875 0.1640625,0.36328125 0.5507812,0.4921875 0.8203125,0.4921875 0.8085937,0 1.2304687,-0.8671875 1.2304687,-1.06640625 0,-0.09375 -0.09375,-0.09375 -0.1054687,-0.09375 -0.1054688,0 -0.1054688,0.035156 -0.140625,0.11718752 -0.140625,0.48046875 -0.5625,0.84375 -0.9492188,0.84375 -0.28125,0 -0.421875,-0.1875 -0.421875,-0.4453125 0,-0.1875 0.1640625,-0.82031252 0.3632813,-1.59375002 0.1289062,-0.5390625 0.4453125,-0.7148437 0.6796875,-0.7148437 0.011719,0 0.2226562,0 0.375,0.1054687 -0.2226563,0.058594 -0.3046875,0.2578125 -0.3046875,0.375 0,0.1523438 0.1171875,0.2578125 0.28125,0.2578125 0.1523437,0 0.3867187,-0.1289062 0.3867187,-0.421875 0,-0.3867187 -0.4453125,-0.5039062 -0.7265625,-0.5039062 -0.3515625,0 -0.6328125,0.2226562 -0.7851562,0.4921875 -0.1171875,-0.2929688 -0.4453125,-0.4921875 -0.8320313,-0.4921875 -0.78515622,0 -1.23046872,0.8554687 -1.23046872,1.0664062 0,0.082031 0.10546875,0.082031 0.1171875,0.082031 0.09375,0 0.10546875,-0.023437 0.140625,-0.1171875 0.17578125,-0.5390625 0.60937502,-0.84375 0.94921872,-0.84375 0.234375,0 0.421875,0.1289062 0.421875,0.46875 0,0.1289062 -0.082031,0.4804687 -0.1523437,0.7148437 z m 0,0"
         style="fill:#000000;fill-opacity:1;fill-rule:nonzero;stroke:none" />
      <path
         id="path19"
         d="M 7.4489922,-2.9528984 H 7.2380547 c -0.011719,0.09375 -0.058594,0.3984375 -0.140625,0.4570312 -0.035156,0.023437 -0.4570313,0.023437 -0.5273438,0.023437 h -0.984375 c 0.328125,-0.2460937 0.703125,-0.515625 0.9960938,-0.7148437 0.4570312,-0.3164063 0.8671875,-0.5976563 0.8671875,-1.125 0,-0.6445313 -0.5976563,-0.9960938 -1.3125,-0.9960938 -0.6679688,0 -1.1601563,0.3867188 -1.1601563,0.8789063 0,0.2578125 0.2109375,0.3046875 0.28125,0.3046875 0.140625,0 0.2929688,-0.09375 0.2929688,-0.2929688 0,-0.1875 -0.1289063,-0.28125 -0.28125,-0.2929687 0.140625,-0.234375 0.4335937,-0.375 0.7617187,-0.375 0.4804688,0 0.890625,0.28125 0.890625,0.7734375 0,0.421875 -0.2929687,0.7382812 -0.6796875,1.0546875 l -1.2070312,1.03125 c -0.046875,0.046875 -0.058594,0.046875 -0.058594,0.082031 v 0.1523438 h 2.3085938 z m 0,0"
         style="fill:#000000;fill-opacity:1;fill-rule:nonzero;stroke:none" />
      <path
         id="path20"
         d="m 11.629656,-1.5700859 h 2.144532 c 0.08203,0 0.257812,0 0.257812,-0.1757813 0,-0.1757812 -0.164062,-0.1757812 -0.257812,-0.1757812 h -2.144532 v -2.1328125 c 0,-0.09375 0,-0.2578125 -0.164062,-0.2578125 -0.175781,0 -0.175781,0.1523437 -0.175781,0.2578125 v 2.1328125 H 9.157 c -0.09375,0 -0.2578125,0 -0.2578125,0.1757812 0,0.1757813 0.1523438,0.1757813 0.2578125,0.1757813 h 2.132813 v 2.13281246 c 0,0.09375 0,0.2578125 0.175781,0.2578125 0.164062,0 0.164062,-0.15234375 0.164062,-0.2578125 z m 5.223633,-2.859375 c 0,-0.1875 -0.01172,-0.1992188 -0.210937,-0.1992188 -0.445313,0.4335938 -1.078125,0.4453125 -1.359375,0.4453125 v 0.2460938 c 0.164062,0 0.621093,0 1.007812,-0.1875 v 3.55078121 c 0,0.234375 0,0.328125 -0.691406,0.328125 H 15.329852 V 2.265625e-4 C 15.458758,-0.01149219 16.314227,-0.02321094 16.572039,-0.02321094 c 0.210938,0 1.089844,0.01171875 1.242188,0.0234375025 V -0.24586719 h -0.257813 c -0.703125,0 -0.703125,-0.09375 -0.703125,-0.328125 z m 0,0"
         style="fill:#000000;fill-opacity:1;fill-rule:nonzero;stroke:none" />
    </g>
    <g
       id="g20"
       aria-label="e&#10;2πi"
       transform="matrix(1.3333333,0,0,1.3333333,121.89867,76.284)">
      <path
         id="path21"
         d="m 1.8631094,-2.2960078 c 0.2929687,0 1.03125,-0.023437 1.5234375,-0.234375 0.703125,-0.2929688 0.75,-0.890625 0.75,-1.0195313 0,-0.4453125 -0.3867188,-0.8554687 -1.0664063,-0.8554687 -1.1132812,0 -2.61328122,0.9726562 -2.61328122,2.7070312 0,1.01953129 0.58593752,1.80468754 1.57031252,1.80468754 1.4179687,0 2.2617187,-1.0546875 2.2617187,-1.17187504 0,-0.058594 -0.070312,-0.1289062 -0.1289062,-0.1289062 -0.046875,0 -0.070312,0.023437 -0.1289063,0.09375 -0.7851562,0.99609374 -1.875,0.99609374 -1.9921875,0.99609374 -0.7734375,0 -0.8671875,-0.84375 -0.8671875,-1.16015624 0,-0.1171875 0.011719,-0.4335938 0.1640625,-1.03125 z m -0.46875,-0.2226563 c 0.3867187,-1.5117187 1.4179687,-1.6640625 1.6757812,-1.6640625 0.46875,0 0.7382813,0.2929688 0.7382813,0.6328125 0,1.03125 -1.59375,1.03125 -2.0039063,1.03125 z m 0,0"
         style="fill:#000000;fill-opacity:1;fill-rule:nonzero;stroke:none" />
      <path
         id="path22"
         d="M 8.7654531,-7.2530391 H 8.5545156 c -0.011719,0.09375 -0.058594,0.3984375 -0.140625,0.4570313 -0.035156,0.023437 -0.4570312,0.023437 -0.5273437,0.023437 h -0.984375 c 0.328125,-0.2460938 0.703125,-0.515625 0.9960937,-0.7148438 0.4570313,-0.3164062 0.8671875,-0.5976562 0.8671875,-1.125 0,-0.6445312 -0.5976562,-0.9960937 -1.3125,-0.9960937 -0.6679687,0 -1.1601562,0.3867187 -1.1601562,0.8789062 0,0.2578125 0.2109375,0.3046875 0.28125,0.3046875 0.140625,0 0.2929687,-0.09375 0.2929687,-0.2929687 0,-0.1875 -0.1289062,-0.28125 -0.28125,-0.2929688 0.140625,-0.234375 0.4335938,-0.375 0.7617188,-0.375 0.4804687,0 0.890625,0.28125 0.890625,0.7734375 0,0.421875 -0.2929688,0.7382813 -0.6796875,1.0546875 l -1.2070313,1.03125 c -0.046875,0.046875 -0.058594,0.046875 -0.058594,0.082031 v 0.1523437 h 2.3085937 z m 0,0"
         style="fill:#000000;fill-opacity:1;fill-rule:nonzero;stroke:none" />
      <path
         id="path23"
         d="m 12.741039,-8.0616328 c 0.08203,0 0.140625,0 0.199219,-0.046875 0.03516,-0.035156 0.08203,-0.1054688 0.08203,-0.1757813 0,-0.1523437 -0.140625,-0.1523437 -0.234375,-0.1523437 h -2.132812 c -0.105469,0 -0.328125,0 -0.632813,0.2460937 -0.1289062,0.1171875 -0.3515624,0.375 -0.3515624,0.4335938 0,0.070312 0.070312,0.070312 0.09375,0.070312 0.070312,0 0.070312,0 0.1171875,-0.046875 0.1640629,-0.2226563 0.4101559,-0.328125 0.7031249,-0.328125 h 0.363281 c -0.1875,0.6210937 -0.433593,1.1367187 -0.609375,1.453125 -0.08203,0.1289062 -0.08203,0.140625 -0.08203,0.1875 0,0.1171875 0.09375,0.1875 0.199219,0.1875 0.199219,0 0.269531,-0.234375 0.386719,-0.6328125 0.117187,-0.3867188 0.210937,-0.75 0.316406,-1.1953125 h 0.65625 c -0.02344,0.070312 -0.164063,0.6210937 -0.164063,1.0078125 0,0.3515625 0.128907,0.8203125 0.351563,0.8203125 0.117187,0 0.257812,-0.1171875 0.257812,-0.2460938 0,-0.058594 -0.02344,-0.082031 -0.05859,-0.140625 -0.222657,-0.375 -0.222657,-0.8085937 -0.222657,-0.9023437 0,-0.1640625 0.02344,-0.3632813 0.04687,-0.5390625 z m 2.765625,-1.3359375 c 0,-0.1171875 -0.08203,-0.2109375 -0.210937,-0.2109375 -0.140625,0 -0.304688,0.1289062 -0.304688,0.2929687 0,0.140625 0.105469,0.2109375 0.210938,0.2109375 0.164062,0 0.304687,-0.140625 0.304687,-0.2929687 z m 0.234375,2.390625 c 0,-0.070312 -0.08203,-0.070312 -0.105469,-0.070312 -0.08203,0 -0.08203,0.023437 -0.117187,0.1171875 -0.08203,0.2695312 -0.304688,0.5507812 -0.550781,0.5507812 -0.117188,0 -0.152344,-0.082031 -0.152344,-0.1875 0,-0.1054687 0.02344,-0.1640625 0.05859,-0.2578125 0.04687,-0.09375 0.08203,-0.1992187 0.105468,-0.2695312 0.02344,-0.035156 0.222657,-0.5039063 0.28125,-0.6796875 0.04687,-0.1054688 0.07031,-0.1640625 0.07031,-0.2460938 0,-0.2460937 -0.222656,-0.4453125 -0.539063,-0.4453125 -0.527343,0 -0.796875,0.6445313 -0.796875,0.7734375 0,0.070312 0.07031,0.070312 0.105469,0.070312 0.08203,0 0.08203,-0.023437 0.105469,-0.1054687 0.117187,-0.3515625 0.351562,-0.5625 0.5625,-0.5625 0.09375,0 0.152344,0.046875 0.152344,0.1875 0,0.011719 0,0.082031 -0.02344,0.1757812 -0.03516,0.09375 -0.257812,0.6210938 -0.328125,0.796875 -0.03516,0.082031 -0.03516,0.09375 -0.117187,0.2578125 -0.02344,0.070312 -0.04687,0.140625 -0.04687,0.2226563 0,0.2578125 0.234375,0.4453125 0.539062,0.4453125 0.515625,0 0.796875,-0.65625 0.796875,-0.7734375 z m 0,0"
         style="fill:#000000;fill-opacity:1;fill-rule:nonzero;stroke:none" />
    </g>
    <path
       id="path24"
       d="m -183.676,145.865 h 10.367"
       style="fill:none;stroke:#000000;stroke-width:0.3387;stroke-linecap:butt;stroke-linejoin:miter;stroke-miterlimit:10;stroke-dasharray:none;stroke-opacity:1"
       transform="matrix(1.3333333,0,0,-1.3333333,374.58,263.62533)" />
    <g
       id="g24"
       aria-label="3&#10;x&#10;1/3"
       transform="matrix(1.3333333,0,0,1.3333333,134.32933,74.664)">
      <path
         id="path25"
         d="m 1.6397188,-1.6522969 c 0.4570312,0 0.7617187,0.2929688 0.7617187,0.78515628 0,0.50390625 -0.3046875,0.7734375 -0.75,0.7734375 -0.058594,0 -0.65625,0 -0.90234375,-0.2578125 0.19921875,-0.0351563 0.25781255,-0.1875 0.25781255,-0.3046875 0,-0.1875 -0.14062505,-0.3046875 -0.30468755,-0.3046875 -0.15234375,0 -0.3046875,0.10546875 -0.3046875,0.31640625 0,0.515625 0.5859375,0.75 1.26562505,0.75 0.8203125,0 1.3242187,-0.4921875 1.3242187,-0.97265625 0,-0.41015628 -0.3632812,-0.76171878 -0.9257812,-0.89062498 0.5976562,-0.1875 0.75,-0.5625 0.75,-0.84375 0,-0.4101563 -0.5039063,-0.7148438 -1.1367188,-0.7148438 -0.609375,0 -1.1015625,0.2578125 -1.1015625,0.703125 0,0.234375 0.1875,0.2929688 0.28125,0.2929688 0.140625,0 0.28125,-0.1054688 0.28125,-0.28125 0,-0.1171875 -0.058594,-0.2578125 -0.234375,-0.28125 0.2109375,-0.234375 0.65625,-0.2460938 0.7617188,-0.2460938 0.3632812,0 0.6210937,0.1875 0.6210937,0.5273438 0,0.28125 -0.1875,0.7382812 -0.7148437,0.7734375 -0.140625,0 -0.1523438,0 -0.28125,0.011719 -0.058594,0 -0.1171875,0.011719 -0.1171875,0.082031 0,0.082031 0.058594,0.082031 0.140625,0.082031 z m 0,0"
         style="fill:#000000;fill-opacity:1;fill-rule:nonzero;stroke:none" />
      <path
         id="path26"
         d="m 13.018625,-3.4452656 c -0.07031,0.234375 -0.292969,0.609375 -0.65625,0.609375 -0.02344,0 -0.222656,0 -0.375,-0.09375 0.28125,-0.09375 0.304688,-0.3398438 0.304688,-0.3867188 0,-0.1523437 -0.117188,-0.2578125 -0.28125,-0.2578125 -0.1875,0 -0.386719,0.1640625 -0.386719,0.4335938 0,0.3398437 0.386719,0.5039062 0.726562,0.5039062 0.316407,0 0.609375,-0.1992187 0.785157,-0.4921875 0.164062,0.3632813 0.550781,0.4921875 0.820312,0.4921875 0.808594,0 1.230469,-0.8671875 1.230469,-1.0664062 0,-0.09375 -0.09375,-0.09375 -0.105469,-0.09375 -0.105469,0 -0.105469,0.035156 -0.140625,0.1171875 -0.140625,0.4804687 -0.5625,0.84375 -0.949219,0.84375 -0.28125,0 -0.421875,-0.1875 -0.421875,-0.4453125 0,-0.1875 0.164063,-0.8203125 0.363282,-1.59375 0.128906,-0.5390625 0.445312,-0.7148438 0.679687,-0.7148438 0.01172,0 0.222656,0 0.375,0.1054688 -0.222656,0.058594 -0.304687,0.2578125 -0.304687,0.375 0,0.1523437 0.117187,0.2578125 0.28125,0.2578125 0.152343,0 0.386718,-0.1289063 0.386718,-0.421875 0,-0.3867188 -0.445312,-0.5039063 -0.726562,-0.5039063 -0.351563,0 -0.632813,0.2226563 -0.785156,0.4921875 -0.117188,-0.2929687 -0.445313,-0.4921875 -0.832032,-0.4921875 -0.785156,0 -1.230468,0.8554688 -1.230468,1.0664063 0,0.082031 0.105468,0.082031 0.117187,0.082031 0.09375,0 0.105469,-0.023437 0.140625,-0.1171875 0.175781,-0.5390625 0.609375,-0.84375 0.949219,-0.84375 0.234375,0 0.421875,0.1289063 0.421875,0.46875 0,0.1289063 -0.08203,0.4804688 -0.152344,0.7148438 z m 0,0"
         style="fill:#000000;fill-opacity:1;fill-rule:nonzero;stroke:none" />
      <path
         id="path27"
         d="m 17.782297,-8.8769062 c 0,-0.1523438 -0.01172,-0.1523438 -0.175781,-0.1523438 -0.351563,0.3164063 -0.902344,0.3164063 -1.007813,0.3164063 h -0.08203 v 0.2226562 h 0.08203 c 0.117188,0 0.433594,-0.011719 0.726563,-0.140625 v 2.484375 c 0,0.1640625 0,0.2109375 -0.527344,0.2109375 h -0.246094 v 0.2226563 c 0.269531,-0.023437 0.714844,-0.023437 1.007813,-0.023437 0.28125,0 0.726562,0 0.996093,0.023437 V -5.9355 h -0.246093 c -0.527344,0 -0.527344,-0.046875 -0.527344,-0.2109375 z m 0,0"
         style="fill:#000000;fill-opacity:1;fill-rule:nonzero;stroke:none" />
      <path
         id="path28"
         d="m 22.203195,-9.2050312 c 0.03516,-0.070312 0.03516,-0.09375 0.03516,-0.1054688 0,-0.070312 -0.07031,-0.140625 -0.140625,-0.140625 -0.08203,0 -0.117188,0.058594 -0.152344,0.1289063 L 19.847727,-4.71675 c -0.03516,0.070312 -0.03516,0.09375 -0.03516,0.1054688 0,0.082031 0.07031,0.140625 0.140625,0.140625 0.08203,0 0.117188,-0.046875 0.152344,-0.1171875 z m 0,0"
         style="fill:#000000;fill-opacity:1;fill-rule:nonzero;stroke:none" />
      <path
         id="path29"
         d="m 24.50007,-7.3651875 c 0.457032,0 0.761719,0.2929688 0.761719,0.7851563 0,0.5039062 -0.304687,0.7734375 -0.75,0.7734375 -0.05859,0 -0.65625,0 -0.902344,-0.2578125 0.199219,-0.035156 0.257813,-0.1875 0.257813,-0.3046875 0,-0.1875 -0.140625,-0.3046875 -0.304688,-0.3046875 -0.152343,0 -0.304687,0.1054687 -0.304687,0.3164062 0,0.515625 0.585937,0.75 1.265625,0.75 0.820312,0 1.324219,-0.4921875 1.324219,-0.9726562 0,-0.4101563 -0.363282,-0.7617188 -0.925782,-0.890625 0.597657,-0.1875 0.75,-0.5625 0.75,-0.84375 0,-0.4101563 -0.503906,-0.7148438 -1.136718,-0.7148438 -0.609375,0 -1.101563,0.2578125 -1.101563,0.703125 0,0.234375 0.1875,0.2929688 0.28125,0.2929688 0.140625,0 0.28125,-0.1054688 0.28125,-0.28125 0,-0.1171875 -0.05859,-0.2578125 -0.234375,-0.28125 0.210938,-0.234375 0.65625,-0.2460938 0.761719,-0.2460938 0.363281,0 0.621094,0.1875 0.621094,0.5273438 0,0.28125 -0.1875,0.7382812 -0.714844,0.7734375 -0.140625,0 -0.152344,0 -0.28125,0.011719 -0.05859,0 -0.117188,0.011719 -0.117188,0.082031 0,0.082031 0.05859,0.082031 0.140625,0.082031 z m 0,0"
         style="fill:#000000;fill-opacity:1;fill-rule:nonzero;stroke:none" />
    </g>
    <path
       id="path30"
       d="m -170.42,142.997 h 18.493"
       style="fill:none;stroke:#000000;stroke-width:0.3985;stroke-linecap:butt;stroke-linejoin:miter;stroke-miterlimit:10;stroke-dasharray:none;stroke-opacity:1"
       transform="matrix(1.3333333,0,0,-1.3333333,374.58,263.62533)" />
    <g
       id="g30"
       aria-label="x&#10;2&#10;+1"
       transform="matrix(1.3333333,0,0,1.3333333,147.35333,80.864)">
      <path
         id="path31"
         d="m 1.7330469,-0.73882031 c -0.070312,0.234375 -0.2929688,0.609375 -0.65625,0.609375 -0.023437,0 -0.22265627,0 -0.37500002,-0.09375 0.28125,-0.09375 0.30468752,-0.33984375 0.30468752,-0.38671875 0,-0.15234375 -0.11718752,-0.2578125 -0.28125002,-0.2578125 -0.1875,0 -0.38671875,0.1640625 -0.38671875,0.43359375 0,0.33984375 0.38671875,0.50390625 0.72656247,0.50390625 0.3164063,0 0.609375,-0.19921875 0.7851563,-0.4921875 0.1640625,0.36328125 0.5507812,0.4921875 0.8203125,0.4921875 0.8085937,0 1.2304687,-0.8671875 1.2304687,-1.06640625 0,-0.09375 -0.09375,-0.09375 -0.1054687,-0.09375 -0.1054688,0 -0.1054688,0.035156 -0.140625,0.11718748 -0.140625,0.48046875 -0.5625,0.84375 -0.9492188,0.84375 -0.28125,0 -0.421875,-0.1875 -0.421875,-0.4453125 0,-0.1875 0.1640625,-0.82031248 0.3632813,-1.59374998 0.1289062,-0.5390625 0.4453125,-0.7148438 0.6796875,-0.7148438 0.011719,0 0.2226562,0 0.375,0.1054688 -0.2226563,0.058594 -0.3046875,0.2578125 -0.3046875,0.375 0,0.1523437 0.1171875,0.2578125 0.28125,0.2578125 0.1523437,0 0.3867187,-0.1289063 0.3867187,-0.421875 0,-0.3867188 -0.4453125,-0.5039063 -0.7265625,-0.5039063 -0.3515625,0 -0.6328125,0.2226563 -0.7851562,0.4921875 -0.1171875,-0.2929687 -0.4453125,-0.4921875 -0.8320313,-0.4921875 -0.78515622,0 -1.23046872,0.8554688 -1.23046872,1.0664063 0,0.082031 0.10546875,0.082031 0.1171875,0.082031 0.09375,0 0.10546875,-0.023437 0.140625,-0.1171875 0.17578125,-0.5390625 0.60937502,-0.84375 0.94921872,-0.84375 0.234375,0 0.421875,0.1289063 0.421875,0.46875 0,0.1289063 -0.082031,0.4804688 -0.1523437,0.7148438 z m 0,0"
         style="fill:#000000;fill-opacity:1;fill-rule:nonzero;stroke:none" />
      <path
         id="path32"
         d="M 7.4459375,-2.9536641 H 7.235 c -0.011719,0.09375 -0.058594,0.3984375 -0.140625,0.4570313 -0.035156,0.023437 -0.4570312,0.023437 -0.5273437,0.023437 h -0.984375 c 0.328125,-0.2460938 0.703125,-0.515625 0.9960937,-0.7148438 0.4570313,-0.3164062 0.8671875,-0.5976562 0.8671875,-1.125 0,-0.6445312 -0.5976562,-0.9960937 -1.3125,-0.9960937 -0.6679687,0 -1.1601562,0.3867187 -1.1601562,0.8789062 0,0.2578125 0.2109375,0.3046875 0.28125,0.3046875 0.140625,0 0.2929687,-0.09375 0.2929687,-0.2929687 0,-0.1875 -0.1289062,-0.28125 -0.28125,-0.2929688 0.140625,-0.234375 0.4335938,-0.375 0.7617188,-0.375 0.4804687,0 0.890625,0.28125 0.890625,0.7734375 0,0.421875 -0.2929688,0.7382813 -0.6796875,1.0546875 l -1.2070313,1.03125 c -0.046875,0.046875 -0.058594,0.046875 -0.058594,0.082031 v 0.1523437 h 2.308594 z m 0,0"
         style="fill:#000000;fill-opacity:1;fill-rule:nonzero;stroke:none" />
      <path
         id="path33"
         d="m 11.629531,-1.5708516 h 2.144532 c 0.08203,0 0.257812,0 0.257812,-0.1757812 0,-0.1757813 -0.164062,-0.1757813 -0.257812,-0.1757813 h -2.144532 v -2.1328125 c 0,-0.09375 0,-0.2578125 -0.164062,-0.2578125 -0.175781,0 -0.175781,0.1523438 -0.175781,0.2578125 v 2.1328125 H 9.156875 c -0.09375,0 -0.2578125,0 -0.2578125,0.1757813 0,0.1757812 0.1523438,0.1757812 0.2578125,0.1757812 h 2.132813 v 2.13281254 c 0,0.09375 0,0.2578125 0.175781,0.2578125 0.164062,0 0.164062,-0.15234375 0.164062,-0.2578125 z m 5.223633,-2.859375 c 0,-0.1875 -0.01172,-0.1992187 -0.210937,-0.1992187 -0.445313,0.4335937 -1.078125,0.4453125 -1.359375,0.4453125 v 0.2460937 c 0.164062,0 0.621093,0 1.007812,-0.1875 v 3.55078129 c 0,0.234375 0,0.328125 -0.691406,0.328125 H 15.329727 V -5.390625e-4 C 15.458633,-0.01225781 16.314102,-0.02397656 16.571914,-0.02397656 c 0.210938,0 1.089844,0.01171875 1.242188,0.0234374975 V -0.24663281 h -0.257813 c -0.703125,0 -0.703125,-0.09375 -0.703125,-0.328125 z m 0,0"
         style="fill:#000000;fill-opacity:1;fill-rule:nonzero;stroke:none" />
    </g>
    <path
       id="path34"
       d="m 0.87805469,-0.5860625 c -0.0351563,0.15234375 -0.09375,0.375 -0.09375,0.421875 0,0.1875 0.140625,0.26953125 0.29296871,0.26953125 0.1171875,0 0.2929688,-0.0703125 0.3632813,-0.26953125 0.023437,-0.046875 0.3632812,-1.3945312 0.3984375,-1.5820312 0.082031,-0.328125 0.2578125,-1.0195313 0.3164062,-1.2890625 0.046875,-0.1289063 0.328125,-0.5976563 0.5625,-0.8203125 0.082031,-0.070312 0.375,-0.328125 0.796875,-0.328125 0.2578125,0 0.4101563,0.1171875 0.421875,0.1171875 -0.3046875,0.046875 -0.515625,0.2929687 -0.515625,0.5507812 0,0.1640625 0.1054688,0.3515625 0.375,0.3515625 0.2695313,0 0.5507813,-0.234375 0.5507813,-0.5859375 0,-0.3515625 -0.328125,-0.65625 -0.8320313,-0.65625 -0.6445312,0 -1.0898437,0.4921875 -1.2773437,0.7734375 -0.082031,-0.4570312 -0.4335938,-0.7734375 -0.9023438,-0.7734375 -0.45703121,0 -0.64453121,0.3867188 -0.73828121,0.5742188 -0.17578125,0.3398437 -0.3046875,0.9375 -0.3046875,0.9609375 0,0.1054687 0.09375,0.1054687 0.1171875,0.1054687 0.09375,0 0.10546875,-0.011719 0.1640625,-0.234375 0.17578125,-0.703125 0.375,-1.1835937 0.72656251,-1.1835937 0.1757812,0 0.3164062,0.082031 0.3164062,0.4570312 0,0.2109375 -0.035156,0.3164063 -0.1640625,0.8320313 z m 0,0"
       style="fill:#d26774;fill-opacity:1;fill-rule:nonzero;stroke:none"
       aria-label="r"
       transform="matrix(1.3333333,0,0,1.3333333,52.270667,44.062667)" />
  </g>
</svg>
