<?xml version="1.0" encoding="UTF-8" standalone="no"?>
<!-- Created with Inkscape (http://www.inkscape.org/) -->

<svg
   version="1.1"
   id="svg1"
   width="159.44"
   height="155.01334"
   viewBox="0 0 159.44 155.01334"
   sodipodi:docname="question-2.pdf"
   xmlns:inkscape="http://www.inkscape.org/namespaces/inkscape"
   xmlns:sodipodi="http://sodipodi.sourceforge.net/DTD/sodipodi-0.dtd"
   xmlns="http://www.w3.org/2000/svg"
   xmlns:svg="http://www.w3.org/2000/svg">
  <defs
     id="defs1" />
  <sodipodi:namedview
     id="namedview1"
     pagecolor="#ffffff"
     bordercolor="#000000"
     borderopacity="0.25"
     inkscape:showpageshadow="2"
     inkscape:pageopacity="0.0"
     inkscape:pagecheckerboard="0"
     inkscape:deskcolor="#d1d1d1">
    <inkscape:page
       x="0"
       y="0"
       inkscape:label="1"
       id="page1"
       width="159.44"
       height="155.01334"
       margin="0"
       bleed="0" />
  </sodipodi:namedview>
  <g
     id="g1"
     inkscape:groupmode="layer"
     inkscape:label="1">
    <path
       id="path1"
       d="m 184.11266,-85.25371 c 0,31.89693 25.85944,57.75638 57.75637,57.75638 31.89692,0 57.75638,-25.85945 57.75638,-57.75638 0,-31.89691 -25.85946,-57.75639 -57.75638,-57.75639 -31.89693,0 -57.75637,25.85948 -57.75637,57.75639 z"
       style="fill:#b8e986;fill-opacity:1;fill-rule:nonzero;stroke:#000000;stroke-width:0.74721;stroke-linecap:butt;stroke-linejoin:miter;stroke-miterlimit:10;stroke-dasharray:2.98883, 2.98883;stroke-dashoffset:0;stroke-opacity:1"
       transform="matrix(1.3333333,0,0,-1.3333333,-240.55867,-36.161333)" />
    <path
       id="path2"
       d="m 208.51357,-85.25371 c 0,18.42322 14.93223,33.35547 33.35546,33.35547 18.42322,0 33.35547,-14.93225 33.35547,-33.35547 0,-18.42323 -14.93225,-33.35547 -33.35547,-33.35547 -18.42323,0 -33.35546,14.93224 -33.35546,33.35547 z"
       style="fill:none;stroke:#f5a623;stroke-width:0.74721;stroke-linecap:butt;stroke-linejoin:miter;stroke-miterlimit:10;stroke-dasharray:4.48325, 4.48325;stroke-dashoffset:0;stroke-opacity:1"
       transform="matrix(1.3333333,0,0,-1.3333333,-240.55867,-36.161333)" />
    <path
       id="path3"
       d="m 216.39214,-45.72926 c 0,0.82492 0.66951,1.49441 1.49441,1.49441 0.82494,0 1.49443,-0.66949 1.49443,-1.49441 0,-0.82494 -0.66949,-1.49444 -1.49443,-1.49444 -0.8249,0 -1.49441,0.6695 -1.49441,1.49444 z"
       style="fill:#000000;fill-opacity:1;fill-rule:nonzero;stroke:#000000;stroke-width:0.74721;stroke-linecap:butt;stroke-linejoin:miter;stroke-miterlimit:10;stroke-dasharray:none;stroke-opacity:1"
       transform="matrix(1.3333333,0,0,-1.3333333,-240.55867,-36.161333)" />
    <path
       id="path4"
       d="m 240.3746,-85.25371 c 0,0.82492 0.66951,1.49441 1.49443,1.49441 0.82492,0 1.49442,-0.66949 1.49442,-1.49441 0,-0.82493 -0.6695,-1.49443 -1.49442,-1.49443 -0.82492,0 -1.49443,0.6695 -1.49443,1.49443 z"
       style="fill:#000000;fill-opacity:1;fill-rule:nonzero;stroke:#000000;stroke-width:0.74721;stroke-linecap:butt;stroke-linejoin:miter;stroke-miterlimit:10;stroke-dasharray:none;stroke-opacity:1"
       transform="matrix(1.3333333,0,0,-1.3333333,-240.55867,-36.161333)" />
    <path
       id="path5"
       d="m 247.4761,-64.26009 c 0,0.82494 0.6695,1.49443 1.49442,1.49443 0.82494,0 1.49443,-0.66949 1.49443,-1.49443 0,-0.82491 -0.66949,-1.49441 -1.49443,-1.49441 -0.82492,0 -1.49442,0.6695 -1.49442,1.49441 z"
       style="fill:#000000;fill-opacity:1;fill-rule:nonzero;stroke:#000000;stroke-width:0.74721;stroke-linecap:butt;stroke-linejoin:miter;stroke-miterlimit:10;stroke-dasharray:none;stroke-opacity:1"
       transform="matrix(1.3333333,0,0,-1.3333333,-240.55867,-36.161333)" />
    <path
       id="path6"
       d="m 273.73009,-84.35706 c 0,0.82494 0.66949,1.49443 1.49441,1.49443 0.82492,0 1.49442,-0.66949 1.49442,-1.49443 0,-0.82492 -0.6695,-1.49441 -1.49442,-1.49441 -0.82492,0 -1.49441,0.66949 -1.49441,1.49441 z"
       style="fill:#d0021b;fill-opacity:1;fill-rule:nonzero;stroke:#d0021b;stroke-width:0.74721;stroke-linecap:butt;stroke-linejoin:miter;stroke-miterlimit:10;stroke-dasharray:none;stroke-opacity:1"
       transform="matrix(1.3333333,0,0,-1.3333333,-240.55867,-36.161333)" />
    <g
       id="g6"
       aria-label="z&#10;′"
       transform="matrix(1.3333333,0,0,1.3333333,35.909333,36.212)">
      <path
         id="path7"
         d="M 1.3248359,-0.83282812 C 1.8638984,-1.4070469 2.1568672,-1.6531406 2.5084297,-1.9578281 c 0,-0.011719 0.6210937,-0.5390625 0.984375,-0.9023438 0.9375,-0.9257812 1.1601562,-1.40625 1.1601562,-1.4414062 0,-0.1054688 -0.09375,-0.1054688 -0.1054687,-0.1054688 -0.070312,0 -0.1054688,0.023437 -0.1523438,0.1171875 -0.3046875,0.46875 -0.5039062,0.6328125 -0.75,0.6328125 -0.234375,0 -0.3515625,-0.1523437 -0.5039062,-0.3164062 -0.1875,-0.234375 -0.3632813,-0.4335938 -0.6914063,-0.4335938 -0.75,0 -1.2070312,0.9257813 -1.2070312,1.1367188 0,0.046875 0.035156,0.1171875 0.1171875,0.1171875 0.09375,0 0.1171875,-0.058594 0.140625,-0.1171875 0.1875,-0.4570313 0.7617187,-0.46875 0.84375,-0.46875 0.2109375,0 0.3984375,0.070312 0.6210937,0.1523437 0.3984375,0.1523438 0.515625,0.1523438 0.7734375,0.1523438 -0.3632812,0.421875 -1.1953125,1.1367187 -1.3828125,1.3007812 l -0.9023437,0.8320313 c -0.67968751,0.66796873 -1.01953126,1.24218748 -1.01953126,1.31249998 0,0.09375 0.09375,0.09375 0.1171875,0.09375 0.0820313,0 0.09375,-0.01171875 0.15234375,-0.12890625 0.234375,-0.33984375 0.52734371,-0.609375 0.85546871,-0.609375 0.2226563,0 0.328125,0.0820313 0.5742188,0.375 0.1640625,0.2109375 0.3515625,0.36328125 0.6328125,0.36328125 0.984375,0 1.5703125,-1.26562498 1.5703125,-1.53515628 0,-0.046875 -0.046875,-0.09375 -0.1171875,-0.09375 -0.09375,0 -0.1171875,0.058594 -0.140625,0.1289063 -0.234375,0.64453123 -0.8671875,0.83203123 -1.1953125,0.83203123 -0.1992188,0 -0.3867188,-0.0585938 -0.5859375,-0.12890625 -0.3398438,-0.12890625 -0.4921875,-0.1640625 -0.703125,-0.1640625 -0.023437,0 -0.1757813,0 -0.2695313,0.0234375 z m 0,0"
         style="fill:#000000;fill-opacity:1;fill-rule:nonzero;stroke:none" />
      <path
         id="path8"
         d="m 7.09925,-6.909 c 0.046875,-0.1171875 0.058594,-0.1757812 0.058594,-0.2226562 0,-0.2109375 -0.1992187,-0.3867188 -0.4101562,-0.3867188 -0.2695313,0 -0.3515625,0.2226563 -0.3867188,0.328125 l -0.9140625,3.0234375 c -0.011719,0.011719 -0.035156,0.1054688 -0.035156,0.1171875 0,0.082031 0.2109375,0.1523438 0.2695312,0.1523438 0.046875,0 0.058594,-0.023437 0.1054688,-0.1289063 z m 0,0"
         style="fill:#000000;fill-opacity:1;fill-rule:nonzero;stroke:none" />
    </g>
    <path
       id="path9"
       d="m 3.7134922,-3.7615234 c -0.1757813,-0.375 -0.46875,-0.6445313 -0.9140625,-0.6445313 -1.171875,0 -2.40234376,1.4648438 -2.40234376,2.9179688 0,0.93749996 0.55078125,1.59374996 1.32421876,1.59374996 0.1992187,0 0.703125,-0.03515625 1.3007812,-0.73828125 0.070312,0.41015625 0.421875,0.73828125 0.9023438,0.73828125 0.3515625,0 0.5742187,-0.22265625 0.7382812,-0.5390625 0.1640625,-0.36328125 0.2929688,-0.97265626 0.2929688,-0.99609376 0,-0.09375 -0.082031,-0.09375 -0.1171875,-0.09375 -0.09375,0 -0.1054688,0.035156 -0.140625,0.1757813 -0.1640625,0.64453121 -0.3515625,1.24218746 -0.75,1.24218746 -0.2695313,0 -0.3046875,-0.2578125 -0.3046875,-0.45703125 0,-0.22265625 0.023437,-0.3046875 0.1289062,-0.73828121 0.1171875,-0.421875 0.1289063,-0.5273438 0.2226563,-0.9023438 l 0.3515625,-1.3945312 c 0.070312,-0.28125 0.070312,-0.2929688 0.070312,-0.3398438 0,-0.1640625 -0.1171875,-0.2695312 -0.28125,-0.2695312 -0.2460938,0 -0.3867188,0.2226562 -0.4218745,0.4453125 z m -0.6445313,2.578125 c -0.046875,0.1757812 -0.046875,0.19921871 -0.1992187,0.36328121 -0.4453125,0.55078125 -0.84375,0.71484375 -1.125,0.71484375 -0.5039063,0 -0.6445313,-0.55078125 -0.6445313,-0.93749996 0,-0.5039063 0.328125,-1.7226563 0.5507813,-2.1796875 0.3046875,-0.5976563 0.7617187,-0.9609375 1.1601562,-0.9609375 0.6445313,0 0.7851563,0.8203125 0.7851563,0.8789062 0,0.058594 -0.023437,0.1171875 -0.035156,0.1640625 z m 0,0"
       style="fill:#000000;fill-opacity:1;fill-rule:nonzero;stroke:none"
       aria-label="a"
       transform="matrix(1.3333333,0,0,1.3333333,85.021333,87.433333)" />
    <path
       id="path10"
       d="M 1.3253594,-0.83297656 C 1.8644219,-1.4071953 2.1573906,-1.6532891 2.5089531,-1.9579766 c 0,-0.011719 0.6210938,-0.5390625 0.984375,-0.9023437 0.9375,-0.9257813 1.1601563,-1.40625 1.1601563,-1.4414063 0,-0.1054687 -0.09375,-0.1054687 -0.1054688,-0.1054687 -0.070312,0 -0.1054687,0.023437 -0.1523437,0.1171875 -0.3046875,0.46875 -0.5039063,0.6328125 -0.75,0.6328125 -0.234375,0 -0.3515625,-0.1523438 -0.5039063,-0.3164063 -0.1875,-0.234375 -0.3632812,-0.4335937 -0.6914062,-0.4335937 -0.75,0 -1.2070313,0.9257812 -1.2070313,1.1367187 0,0.046875 0.035156,0.1171875 0.1171875,0.1171875 0.09375,0 0.1171875,-0.058594 0.140625,-0.1171875 0.1875,-0.4570312 0.7617188,-0.46875 0.84375,-0.46875 0.2109375,0 0.3984375,0.070312 0.6210938,0.1523438 0.3984375,0.1523437 0.515625,0.1523437 0.7734375,0.1523437 -0.3632813,0.421875 -1.1953125,1.1367188 -1.3828125,1.3007813 l -0.9023438,0.8320312 c -0.67968748,0.66796879 -1.01953123,1.24218754 -1.01953123,1.31250004 0,0.09375 0.09375,0.09375 0.1171875,0.09375 0.0820313,0 0.09375,-0.01171875 0.15234375,-0.12890625 0.234375,-0.33984375 0.52734378,-0.609375 0.85546878,-0.609375 0.2226562,0 0.328125,0.0820313 0.5742187,0.375 0.1640625,0.2109375 0.3515625,0.36328125 0.6328125,0.36328125 0.984375,0 1.5703125,-1.26562504 1.5703125,-1.53515624 0,-0.046875 -0.046875,-0.09375 -0.1171875,-0.09375 -0.09375,0 -0.1171875,0.058594 -0.140625,0.1289062 -0.234375,0.64453129 -0.8671875,0.83203129 -1.1953125,0.83203129 -0.1992187,0 -0.3867187,-0.0585938 -0.5859375,-0.12890625 -0.3398437,-0.12890625 -0.4921875,-0.1640625 -0.703125,-0.1640625 -0.023437,0 -0.1757812,0 -0.2695312,0.0234375 z m 0,0"
       style="fill:#000000;fill-opacity:1;fill-rule:nonzero;stroke:none"
       aria-label="z"
       transform="matrix(1.3333333,0,0,1.3333333,94.490667,59.442667)" />
  </g>
</svg>
