<?xml version="1.0" encoding="UTF-8" standalone="no"?>
<!-- Created with Inkscape (http://www.inkscape.org/) -->

<svg
   version="1.1"
   id="svg1"
   width="269.892"
   height="162.25067"
   viewBox="0 0 269.892 162.25067"
   sodipodi:docname="residue-def-tikz.pdf"
   xmlns:inkscape="http://www.inkscape.org/namespaces/inkscape"
   xmlns:sodipodi="http://sodipodi.sourceforge.net/DTD/sodipodi-0.dtd"
   xmlns="http://www.w3.org/2000/svg"
   xmlns:svg="http://www.w3.org/2000/svg">
  <defs
     id="defs1" />
  <sodipodi:namedview
     id="namedview1"
     pagecolor="#ffffff"
     bordercolor="#000000"
     borderopacity="0.25"
     inkscape:showpageshadow="2"
     inkscape:pageopacity="0.0"
     inkscape:pagecheckerboard="0"
     inkscape:deskcolor="#d1d1d1">
    <inkscape:page
       x="0"
       y="0"
       inkscape:label="1"
       id="page1"
       width="269.892"
       height="162.25067"
       margin="0"
       bleed="0" />
  </sodipodi:namedview>
  <g
     id="g1"
     inkscape:groupmode="layer"
     inkscape:label="1">
    <path
       id="path1"
       d="m 40.79735,-47.07387 c 16.08879,25.83834 85.90458,25.41991 93.75023,-14.85441 7.84565,-40.27431 57.01169,-19.87563 64.85734,-49.68909 7.84564,-29.81345 -119.25381,-14.6452 -142.26772,-4.70738 -23.0139,9.93782 -32.42867,43.41258 -16.33985,69.25088 z"
       style="fill:#f5a623;fill-opacity:0.14;fill-rule:nonzero;stroke:#f5a623;stroke-width:1.49442;stroke-linecap:butt;stroke-linejoin:miter;stroke-miterlimit:10;stroke-dasharray:none;stroke-opacity:1"
       transform="matrix(1.3333333,0,0,-1.3333333,-27.52,-27.317333)" />
    <path
       id="path2"
       d="m 98.9545,-73.90596 c 0,0.7218 0.58581,1.3076 1.30762,1.3076 0.72178,0 1.3076,-0.5858 1.3076,-1.3076 0,-0.7218 -0.58582,-1.30762 -1.3076,-1.30762 -0.72181,0 -1.30762,0.58582 -1.30762,1.30762 z"
       style="fill:#d0021b;fill-opacity:1;fill-rule:nonzero;stroke:#d0021b;stroke-width:0.74721;stroke-linecap:butt;stroke-linejoin:miter;stroke-miterlimit:10;stroke-dasharray:none;stroke-opacity:1"
       transform="matrix(1.3333333,0,0,-1.3333333,-27.52,-27.317333)" />
    <path
       id="path3"
       d="m 148.6436,-107.90376 c 0,0.7218 0.5858,1.3076 1.3076,1.3076 0.7218,0 1.3076,-0.5858 1.3076,-1.3076 0,-0.7218 -0.5858,-1.3076 -1.3076,-1.3076 -0.7218,0 -1.3076,0.5858 -1.3076,1.3076 z"
       style="fill:#d0021b;fill-opacity:1;fill-rule:nonzero;stroke:#d0021b;stroke-width:0.74721;stroke-linecap:butt;stroke-linejoin:miter;stroke-miterlimit:10;stroke-dasharray:none;stroke-opacity:1"
       transform="matrix(1.3333333,0,0,-1.3333333,-27.52,-27.317333)" />
    <path
       id="path4"
       d="m 71.75627,-102.1503 c 0,0.72182 0.5858,1.30762 1.3076,1.30762 0.72181,0 1.30761,-0.5858 1.30761,-1.30762 0,-0.72179 -0.5858,-1.30759 -1.30761,-1.30759 -0.7218,0 -1.3076,0.5858 -1.3076,1.30759 z"
       style="fill:#d0021b;fill-opacity:1;fill-rule:nonzero;stroke:#d0021b;stroke-width:0.74721;stroke-linecap:butt;stroke-linejoin:miter;stroke-miterlimit:10;stroke-dasharray:none;stroke-opacity:1"
       transform="matrix(1.3333333,0,0,-1.3333333,-27.52,-27.317333)" />
    <path
       id="path5"
       d="m 42.47108,-76.78271 c 0,7.22323 5.85285,13.07609 13.07607,13.07609 7.22322,0 13.07608,-5.85286 13.07608,-13.07609 0,-7.22321 -5.85286,-13.07607 -13.07608,-13.07607 -7.22322,0 -13.07607,5.85286 -13.07607,13.07607 z"
       style="fill:#ffffff;fill-opacity:1;fill-rule:nonzero;stroke:#f5a623;stroke-width:1.49442;stroke-linecap:butt;stroke-linejoin:miter;stroke-miterlimit:10;stroke-dasharray:none;stroke-opacity:1"
       transform="matrix(1.3333333,0,0,-1.3333333,-27.52,-27.317333)" />
    <path
       id="path6"
       d="m 110.36208,-109.316 c 0,7.22323 5.85284,13.07609 13.07608,13.07609 7.22322,0 13.07608,-5.85286 13.07608,-13.07609 0,-7.22322 -5.85286,-13.07606 -13.07608,-13.07606 -7.22324,0 -13.07608,5.85284 -13.07608,13.07606 z"
       style="fill:#ffffff;fill-opacity:1;fill-rule:nonzero;stroke:#f5a623;stroke-width:1.49442;stroke-linecap:butt;stroke-linejoin:miter;stroke-miterlimit:10;stroke-dasharray:none;stroke-opacity:1"
       transform="matrix(1.3333333,0,0,-1.3333333,-27.52,-27.317333)" />
    <path
       id="path7"
       d="m 81.3018,-73.90596 c 0,10.47131 8.48899,18.9603 18.96032,18.9603 10.47132,0 18.95508,-8.48899 18.95508,-18.9603 0,-10.46611 -8.48376,-18.95508 -18.95508,-18.95508 -10.47133,0 -18.96032,8.48897 -18.96032,18.95508 z"
       style="fill:none;stroke:#000000;stroke-width:0.74721;stroke-linecap:butt;stroke-linejoin:miter;stroke-miterlimit:10;stroke-dasharray:4.48325, 4.48325;stroke-dashoffset:0;stroke-opacity:1"
       transform="matrix(1.3333333,0,0,-1.3333333,-27.52,-27.317333)" />
    <path
       id="path8"
       d="m 85.54892,-73.90596 c 0,8.12808 6.5851,14.71321 14.7132,14.71321 8.12284,0 14.70796,-6.58513 14.70796,-14.71321 0,-8.12288 -6.58512,-14.70798 -14.70796,-14.70798 -8.1281,0 -14.7132,6.5851 -14.7132,14.70798 z"
       style="fill:none;stroke:#8b572a;stroke-width:1.49442;stroke-linecap:butt;stroke-linejoin:miter;stroke-miterlimit:10;stroke-dasharray:none;stroke-opacity:1"
       transform="matrix(1.3333333,0,0,-1.3333333,-27.52,-27.317333)" />
    <path
       id="path9"
       d="m 112.34964,-75.84123 2.6152,5.23043 2.61522,-5.23043 -2.61522,2.6152 z"
       style="fill:#8b572a;fill-opacity:1;fill-rule:nonzero;stroke:#8b572a;stroke-width:0.74721;stroke-linecap:butt;stroke-linejoin:miter;stroke-miterlimit:10;stroke-dasharray:none;stroke-opacity:1"
       transform="matrix(1.3333333,0,0,-1.3333333,-27.52,-27.317333)" />
    <path
       id="path10"
       d="m 3.5977422,-1.4190547 c -0.058594,0.1992188 -0.058594,0.2226563 -0.2226563,0.44531251 -0.2695312,0.33984375 -0.796875,0.85546875 -1.359375,0.85546875 -0.4804687,0 -0.7617187,-0.4453125 -0.7617187,-1.14843746 0,-0.65625 0.375,-1.9921875 0.5976562,-2.4960938 0.4101563,-0.84375 0.9726563,-1.265625 1.4414063,-1.265625 0.7851562,0 0.9375,0.9726563 0.9375,1.0664063 0,0.011719 -0.035156,0.1757812 -0.046875,0.1992187 z M 4.3594609,-4.4893672 C 4.2305547,-4.7940547 3.9141484,-5.2745234 3.2930547,-5.2745234 c -1.359375,0 -2.81250001,1.7460937 -2.81250001,3.515625 0,1.18359371 0.69140621,1.87499996 1.50000001,1.87499996 0.65625,0 1.21875,-0.515625 1.5585937,-0.90234375 0.1171875,0.703125 0.6796875,0.90234375 1.0429688,0.90234375 0.3515625,0 0.6445312,-0.2109375 0.8554687,-0.64453125 0.1875,-0.41015625 0.3632813,-1.13671871 0.3632813,-1.18359371 0,-0.058594 -0.046875,-0.1054688 -0.1171875,-0.1054688 -0.1171875,0 -0.1289063,0.058594 -0.1757813,0.234375 -0.1757812,0.71484376 -0.3984375,1.46484376 -0.890625,1.46484376 -0.3515625,0 -0.375,-0.31640625 -0.375,-0.55078125 0,-0.28125 0.035156,-0.41015621 0.140625,-0.87890621 0.082031,-0.2929688 0.1523438,-0.5625 0.2460938,-0.9023438 0.4335937,-1.7929687 0.5507812,-2.2265625 0.5507812,-2.296875 0,-0.1640625 -0.140625,-0.2929687 -0.3164062,-0.2929687 -0.375,0 -0.4804688,0.4101562 -0.5039063,0.5507812 z m 0,0"
       style="fill:#d0021b;fill-opacity:1;fill-rule:nonzero;stroke:none"
       aria-label="a"
       transform="matrix(1.3333333,0,0,1.3333333,109.05067,81.950667)" />
    <path
       id="path11"
       d="m 2.2504219,-1.0668047 c -0.1289063,0.50390626 -0.1523438,0.65625001 -1.1601563,0.65625001 -0.26953122,0 -0.41015622,0 -0.41015622,0.2578125 0,0.1523437525 0.0820313,0.1523437525 0.36328122,0.1523437525 h 4.546875 c 2.90625,0 5.7304684,-2.9999999625 5.7304684,-6.1992187625 0,-2.0625 -1.242187,-3.5976562 -3.2929684,-3.5976562 h -4.59375 c -0.28125,0 -0.4101562,0 -0.4101562,0.2695312 0,0.1523438 0.1289062,0.1523438 0.3515625,0.1523438 0.8671875,0 0.8671875,0.1054687 0.8671875,0.2695312 0,0.023437 0,0.1171875 -0.058594,0.328125 z m 3.0234375,-7.7578125 c 0.1289062,-0.5273437 0.1875,-0.5507812 0.75,-0.5507812 h 1.5820312 c 1.3476563,0 2.5781254,0.7265625 2.5781254,2.7070312 0,0.7148438 -0.2812504,3.2109375 -1.6757816,4.7929688 -0.3984375,0.46875 -1.4882813,1.46484371 -3.140625,1.46484371 h -1.640625 c -0.1992188,0 -0.2226563,0 -0.3164063,-0.0234375 -0.1523437,-0.0117188 -0.1640625,-0.0351563 -0.1640625,-0.15234375 0,-0.10546875 0.023437,-0.1875 0.058594,-0.31640625 z m 0,0"
       style="fill:#9c6101;fill-opacity:1;fill-rule:nonzero;stroke:none"
       aria-label="D"
       transform="matrix(1.3333333,0,0,1.3333333,79.976,32.856)" />
    <g
       id="g11"
       aria-label="=Res&#10;z=a&#10;f(z)"
       transform="matrix(1.3333333,0,0,1.3333333,186.676,73.682667)">
      <path
         id="path12"
         d="m 6.8435859,-3.2571172 c 0.1523438,0 0.3398438,0 0.3398438,-0.1992187 0,-0.1992188 -0.1875,-0.1992188 -0.328125,-0.1992188 H 0.89046094 c -0.140625,0 -0.328125,0 -0.328125,0.1992188 0,0.1992187 0.1875,0.1992187 0.33984375,0.1992187 z m 0.011719,1.9335938 c 0.140625,0 0.328125,0 0.328125,-0.1992188 0,-0.1992187 -0.1875,-0.1992187 -0.3398438,-0.1992187 H 0.90217969 c -0.15234375,0 -0.33984375,0 -0.33984375,0.1992187 0,0.1992188 0.1875,0.1992188 0.328125,0.1992188 z m 5.8886721,-2.1914063 v -2.578125 c 0,-0.234375 0,-0.3515625 0.222656,-0.3867187 0.105469,-0.011719 0.386719,-0.011719 0.585937,-0.011719 0.902344,0 2.015625,0.035156 2.015625,1.4765625 0,0.6914063 -0.234375,1.5 -1.710937,1.5 z m 2.109375,0.1289063 c 0.960937,-0.234375 1.746093,-0.84375 1.746093,-1.6289063 0,-0.9492187 -1.136718,-1.7929687 -2.601562,-1.7929687 h -3.128906 v 0.3164062 h 0.234375 c 0.773437,0 0.785156,0.1054688 0.785156,0.46875 v 5.25000001 c 0,0.3515625 -0.01172,0.46875 -0.785156,0.46875 H 10.868977 V 6.953125e-4 C 11.220539,-0.03446094 11.935383,-0.03446094 12.322102,-0.03446094 c 0.386718,0 1.089843,0 1.453125,0.0351562525 V -0.30399219 h -0.234375 c -0.773438,0 -0.796875,-0.1171875 -0.796875,-0.46875 V -3.2922734 h 1.148437 c 0.164063,0 0.574219,0 0.925781,0.3398437 0.386719,0.3515625 0.386719,0.65625 0.386719,1.3242188 0,0.65624996 0,1.05468746 0.398438,1.42968746 0.410156,0.36328125 0.960937,0.421875 1.253906,0.421875 0.785156,0 0.949219,-0.8203125 0.949219,-1.1015625 0,-0.0585938 0,-0.16406246 -0.128907,-0.16406246 -0.105468,0 -0.105468,0.0820312 -0.117187,0.15234371 -0.05859,0.71484375 -0.410156,0.8906250025 -0.65625,0.8906250025 -0.492188,0 -0.574219,-0.5039062525 -0.703125,-1.4296875125 l -0.140625,-0.796875 c -0.175781,-0.6445312 -0.65625,-0.9726562 -1.207031,-1.1601562 z m 4.113281,0.8789062 c 0.05859,-1.4882812 0.902344,-1.734375 1.242187,-1.734375 1.019532,0 1.125,1.3476563 1.125,1.734375 z m -0.01172,0.2109375 h 2.789063 c 0.210937,0 0.246093,0 0.246093,-0.2109375 0,-0.984375 -0.539062,-1.9570312 -1.78125,-1.9570312 -1.160156,0 -2.074218,1.03125 -2.074218,2.2734375 0,1.33593746 1.042968,2.29687496 2.191406,2.29687496 1.21875,0 1.664062,-1.1015625 1.664062,-1.28906246 0,-0.1054688 -0.08203,-0.1171875 -0.128906,-0.1171875 -0.09375,0 -0.117187,0.058594 -0.128906,0.140625 -0.351563,1.01953121 -1.253906,1.01953121 -1.347656,1.01953121 -0.503907,0 -0.902344,-0.29296875 -1.125,-0.66796875 C 18.954914,-1.2883672 18.954914,-1.9446172 18.954913,-2.2961797 Z m 5.399414,0.3632813 c 0.222656,0.035156 1.03125,0.1992187 1.03125,0.9140625 0,0.51562496 -0.351562,0.91406246 -1.125,0.91406246 -0.832031,0 -1.195312,-0.57421875 -1.382812,-1.41796876 -0.03516,-0.1289062 -0.03516,-0.1757812 -0.140625,-0.1757812 -0.128907,0 -0.128907,0.070312 -0.128907,0.2578125 v 1.31249996 c 0,0.1640625 0,0.234375 0.105469,0.234375 0.05859,0 0.07031,0 0.257813,-0.19921875 0.01172,-0.01171875 0.01172,-0.03515625 0.199218,-0.22265625 0.433594,0.421875 0.878907,0.421875 1.089844,0.421875 1.148438,0 1.605469,-0.66796875 1.605469,-1.38281246 0,-0.5273438 -0.292969,-0.8203125 -0.421875,-0.9492188 -0.328125,-0.3164062 -0.714844,-0.3984375 -1.136719,-0.46875 -0.550781,-0.1171875 -1.21875,-0.2460937 -1.21875,-0.8203125 0,-0.3515625 0.257813,-0.7617187 1.113281,-0.7617187 1.101563,0 1.148438,0.9023437 1.171875,1.2070312 0,0.09375 0.09375,0.09375 0.117188,0.09375 0.128906,0 0.128906,-0.046875 0.128906,-0.2460937 v -0.9960938 c 0,-0.1757812 0,-0.2460937 -0.117187,-0.2460937 -0.04687,0 -0.07031,0 -0.199219,0.1171875 -0.02344,0.046875 -0.128906,0.1289062 -0.164063,0.1640625 -0.375,-0.28125 -0.785156,-0.28125 -0.9375,-0.28125 -1.21875,0 -1.59375,0.6679687 -1.59375,1.2304687 0,0.3398438 0.164063,0.6210938 0.433594,0.84375 0.316406,0.2578125 0.597656,0.3164063 1.3125,0.4570313 z m 0,0"
         style="fill:#8b572a;fill-opacity:1;fill-rule:nonzero;stroke:none" />
      <path
         id="path13"
         d="m 27.377766,0.88546094 c 0.175781,-0.1875 0.304687,-0.31640625 0.902343,-0.796875 0.140625,-0.1171875 0.667969,-0.52734375 0.867188,-0.7265625 0.421875,-0.42187504 0.691406,-0.77343754 0.691406,-0.85546874 0,-0.082031 -0.09375,-0.082031 -0.117187,-0.082031 -0.05859,0 -0.08203,0.011719 -0.117188,0.070312 -0.222656,0.3164063 -0.363281,0.421875 -0.527344,0.421875 -0.09375,0 -0.199218,-0.011719 -0.398437,-0.2109375 -0.246094,-0.234375 -0.398438,-0.28125 -0.550781,-0.28125 -0.5625,0 -0.9375,0.59765629 -0.9375,0.80859379 0,0.0703125 0.07031,0.0820313 0.117187,0.0820313 0.08203,0 0.09375,-0.0117188 0.128906,-0.09375 0.105469,-0.24609369 0.492188,-0.25781249 0.597657,-0.25781249 0.164062,0 0.351562,0.046875 0.445312,0.0585938 0.386719,0.09375 0.433594,0.09375 0.609375,0.09375 -0.1875,0.1875 -0.304687,0.3046875 -0.972656,0.84375 -0.539063,0.421875 -0.726563,0.59765625 -0.867188,0.73828125 -0.410156,0.4101563 -0.621093,0.7148438 -0.621093,0.7851563 0,0.082031 0.09375,0.082031 0.117187,0.082031 0.07031,0 0.09375,-0.011719 0.128906,-0.070312 0.1875,-0.2695312 0.398438,-0.421875 0.632813,-0.421875 0.08203,0 0.1875,0 0.375,0.1757813 0.222656,0.2109375 0.363281,0.3164062 0.585937,0.3164062 0.738282,0 1.207032,-0.84375 1.207032,-1.078125 0,-0.0820313 -0.07031,-0.09375 -0.117188,-0.09375 -0.08203,0 -0.09375,0.0351563 -0.128906,0.1171875 -0.128906,0.33984375 -0.539063,0.515625 -0.878906,0.515625 -0.164063,0 -0.339844,-0.0351562 -0.515625,-0.0820312 -0.316407,-0.0703125 -0.375,-0.0703125 -0.492188,-0.0703125 -0.02344,0 -0.117187,0 -0.164062,0.0117186 z m 0,0"
         style="fill:#8b572a;fill-opacity:1;fill-rule:nonzero;stroke:none" />
      <path
         id="path14"
         d="m 35.654133,-0.84891406 c 0.105469,0 0.269531,0 0.269531,-0.17578124 0,-0.1640625 -0.175781,-0.1640625 -0.257812,-0.1640625 h -4.617188 c -0.09375,0 -0.257812,0 -0.257812,0.1640625 0,0.17578124 0.152343,0.17578124 0.257812,0.17578124 z m 0.01172,1.53515625 c 0.08203,0 0.257812,0 0.257812,-0.1640625 0,-0.17578125 -0.164062,-0.17578125 -0.269531,-0.17578125 h -4.605469 c -0.105469,0 -0.257812,0 -0.257812,0.17578125 0,0.1640625 0.164062,0.1640625 0.257812,0.1640625 z m 0,0"
         style="fill:#8b572a;fill-opacity:1;fill-rule:nonzero;stroke:none" />
      <path
         id="path15"
         d="m 39.357258,-1.1653203 c -0.140625,-0.234375 -0.386719,-0.4101563 -0.714844,-0.4101563 -0.890625,0 -1.804687,0.97265629 -1.804687,1.98046879 0,0.67968751 0.457031,1.16015621 1.054687,1.16015621 0.375,0 0.714844,-0.2109375 0.996094,-0.4921875 0.128906,0.421875 0.527344,0.4921875 0.714844,0.4921875 0.246093,0 0.421875,-0.1523437 0.550781,-0.375 0.152344,-0.26953121 0.246094,-0.66796871 0.246094,-0.69140621 0,-0.09375 -0.09375,-0.09375 -0.117188,-0.09375 -0.09375,0 -0.105469,0.0351563 -0.152344,0.22265625 -0.08203,0.328125 -0.210937,0.73828126 -0.503906,0.73828126 -0.1875,0 -0.234375,-0.1523438 -0.234375,-0.3398438 0,-0.11718746 0.05859,-0.36328121 0.105469,-0.55078121 0.04687,-0.1875 0.117187,-0.46875 0.152344,-0.62109375 l 0.140625,-0.5390625 c 0.04687,-0.17578125 0.128906,-0.50390624 0.128906,-0.53906254 0,-0.1523437 -0.128906,-0.2226562 -0.246094,-0.2226562 -0.117187,0 -0.269531,0.082031 -0.316406,0.28125 z m -0.445313,1.79296874 c -0.04687,0.1875 -0.199218,0.328125 -0.351562,0.45703126 -0.07031,0.058594 -0.339844,0.28125 -0.644531,0.28125 -0.257813,0 -0.515625,-0.1757813 -0.515625,-0.66796876 0,-0.375 0.210937,-1.13671875 0.363281,-1.41796875 0.328125,-0.56249999 0.679687,-0.66796879 0.878906,-0.66796879 0.480469,0 0.621094,0.52734379 0.621094,0.60937504 0,0.0234375 -0.01172,0.0820313 -0.02344,0.09375 z m 0,0"
         style="fill:#8b572a;fill-opacity:1;fill-rule:nonzero;stroke:none" />
      <path
         id="path16"
         d="m 46.55257,-3.9836797 h 0.855469 c 0.199219,0 0.304688,0 0.304688,-0.1992187 0,-0.1054688 -0.105469,-0.1054688 -0.269532,-0.1054688 h -0.832031 l 0.210938,-1.1367187 c 0.03516,-0.2109375 0.175781,-0.9140625 0.234375,-1.0429688 0.09375,-0.1875 0.257812,-0.3398437 0.46875,-0.3398437 0.04687,0 0.304687,0 0.492187,0.1875 -0.433594,0.035156 -0.539062,0.3867187 -0.539062,0.5390625 0,0.2226562 0.175781,0.3398437 0.363281,0.3398437 0.269531,0 0.550781,-0.2109375 0.550781,-0.5976562 0,-0.4570313 -0.457031,-0.6796875 -0.867187,-0.6796875 -0.339844,0 -0.960938,0.1757812 -1.265625,1.1601562 -0.05859,0.2109375 -0.08203,0.3164063 -0.328125,1.5703125 h -0.679688 c -0.199219,0 -0.304687,0 -0.304687,0.1875 0,0.1171875 0.09375,0.1171875 0.28125,0.1171875 h 0.65625 l -0.75,3.93750001 c -0.175782,0.9609375 -0.339844,1.87499999 -0.867188,1.87499999 -0.03516,0 -0.28125,0 -0.46875,-0.1875 0.457031,-0.023437 0.539063,-0.3867187 0.539063,-0.5390625 0,-0.22265624 -0.175782,-0.33984374 -0.363282,-0.33984374 -0.257812,0 -0.550781,0.2109375 -0.550781,0.59765624 0,0.4453125 0.433594,0.6796875 0.84375,0.6796875 0.550781,0 0.949219,-0.5859375 1.125,-0.9609375 0.328125,-0.63281249 0.550781,-1.83984374 0.5625,-1.91015624 z m 0,0"
         style="fill:#8b572a;fill-opacity:1;fill-rule:nonzero;stroke:none" />
      <path
         id="path17"
         d="m 52.136555,2.3913203 c 0,-0.035156 0,-0.046875 -0.164063,-0.2226562 -1.242187,-1.25390629 -1.570312,-3.12890629 -1.570312,-4.6640625 0,-1.7226563 0.386718,-3.4570313 1.605468,-4.7109375 0.128907,-0.1171875 0.128907,-0.1289063 0.128907,-0.1640625 0,-0.070312 -0.03516,-0.1054688 -0.09375,-0.1054688 -0.105469,0 -0.996094,0.6796875 -1.582032,1.9453125 -0.515625,1.1015625 -0.632812,2.203125 -0.632812,3.0351563 0,0.7851562 0.117187,1.99218746 0.65625,3.11718746 0.597656,1.21875004 1.453125,1.87500004 1.558594,1.87500004 0.05859,0 0.09375,-0.035156 0.09375,-0.1054688 z m 0,0"
         style="fill:#8b572a;fill-opacity:1;fill-rule:nonzero;stroke:none" />
      <path
         id="path18"
         d="m 54.043781,-0.83133594 c 0.539063,-0.57421876 0.832032,-0.82031246 1.183594,-1.12499996 0,-0.011719 0.621094,-0.5390625 0.984375,-0.9023438 0.9375,-0.9257812 1.160156,-1.40625 1.160156,-1.4414062 0,-0.1054688 -0.09375,-0.1054688 -0.105468,-0.1054688 -0.07031,0 -0.105469,0.023437 -0.152344,0.1171875 -0.304688,0.46875 -0.503906,0.6328125 -0.75,0.6328125 -0.234375,0 -0.351563,-0.1523437 -0.503906,-0.3164062 -0.1875,-0.234375 -0.363282,-0.4335938 -0.691407,-0.4335938 -0.75,0 -1.207031,0.9257813 -1.207031,1.1367188 0,0.046875 0.03516,0.1171875 0.117188,0.1171875 0.09375,0 0.117187,-0.058594 0.140625,-0.1171875 0.1875,-0.4570313 0.761718,-0.46875 0.84375,-0.46875 0.210937,0 0.398437,0.070312 0.621093,0.1523437 0.398438,0.1523438 0.515625,0.1523438 0.773438,0.1523438 -0.363281,0.421875 -1.195313,1.1367187 -1.382813,1.3007812 l -0.902343,0.8320313 c -0.679688,0.66796871 -1.019532,1.24218746 -1.019532,1.31249996 0,0.09375 0.09375,0.09375 0.117188,0.09375 0.08203,0 0.09375,-0.01171875 0.152344,-0.12890625 0.234375,-0.33984375 0.527343,-0.609375 0.855468,-0.609375 0.222657,0 0.328125,0.0820313 0.574219,0.375 0.164063,0.2109375 0.351563,0.36328125 0.632813,0.36328125 0.984375,0 1.570312,-1.26562496 1.570312,-1.53515626 0,-0.046875 -0.04687,-0.09375 -0.117187,-0.09375 -0.09375,0 -0.117188,0.058594 -0.140625,0.1289063 -0.234375,0.64453121 -0.867188,0.83203121 -1.195313,0.83203121 -0.199219,0 -0.386719,-0.0585938 -0.585937,-0.12890625 -0.339844,-0.12890625 -0.492188,-0.1640625 -0.703125,-0.1640625 -0.02344,0 -0.175782,0 -0.269532,0.0234375 z m 0,0"
         style="fill:#8b572a;fill-opacity:1;fill-rule:nonzero;stroke:none" />
      <path
         id="path19"
         d="m 60.673664,-2.4953984 c 0,-0.7734375 -0.117187,-1.9804688 -0.65625,-3.1054688 -0.597656,-1.21875 -1.464844,-1.875 -1.558594,-1.875 -0.05859,0 -0.105468,0.046875 -0.105468,0.1054688 0,0.035156 0,0.046875 0.199218,0.234375 0.972657,0.984375 1.535157,2.5664062 1.535157,4.640625 0,1.71093746 -0.363282,3.45703121 -1.59375,4.7226562 -0.140625,0.1171875 -0.140625,0.1289063 -0.140625,0.1640625 0,0.058594 0.04687,0.1054688 0.105468,0.1054688 0.09375,0 0.996094,-0.6796875 1.582032,-1.94531254 0.503906,-1.1015625 0.632812,-2.20312496 0.632812,-3.04687496 z m 0,0"
         style="fill:#8b572a;fill-opacity:1;fill-rule:nonzero;stroke:none" />
    </g>
  </g>
</svg>
