<?xml version="1.0" encoding="UTF-8" standalone="no"?>
<!-- Created with Inkscape (http://www.inkscape.org/) -->

<svg
   version="1.1"
   id="svg1"
   width="354.10666"
   height="230.93333"
   viewBox="0 0 354.10666 230.93333"
   sodipodi:docname="Residue-theorem-4.pdf"
   xmlns:inkscape="http://www.inkscape.org/namespaces/inkscape"
   xmlns:sodipodi="http://sodipodi.sourceforge.net/DTD/sodipodi-0.dtd"
   xmlns="http://www.w3.org/2000/svg"
   xmlns:svg="http://www.w3.org/2000/svg">
  <defs
     id="defs1" />
  <sodipodi:namedview
     id="namedview1"
     pagecolor="#ffffff"
     bordercolor="#000000"
     borderopacity="0.25"
     inkscape:showpageshadow="2"
     inkscape:pageopacity="0.0"
     inkscape:pagecheckerboard="0"
     inkscape:deskcolor="#d1d1d1">
    <inkscape:page
       x="0"
       y="0"
       inkscape:label="1"
       id="page1"
       width="354.10666"
       height="230.93333"
       margin="0"
       bleed="0" />
  </sodipodi:namedview>
  <g
     id="g1"
     inkscape:groupmode="layer"
     inkscape:label="1">
    <path
       id="path1"
       d="m 133.14493,-105.58043 c 0,1.03116 0.83687,1.86803 1.86801,1.86803 1.03116,0 1.86803,-0.83687 1.86803,-1.86803 0,-1.03114 -0.83687,-1.86801 -1.86803,-1.86801 -1.03114,0 -1.86801,0.83687 -1.86801,1.86801 z"
       style="fill:#d0021b;fill-opacity:1;fill-rule:nonzero;stroke:#d0021b;stroke-width:0.74721;stroke-linecap:butt;stroke-linejoin:miter;stroke-miterlimit:10;stroke-dasharray:none;stroke-opacity:1"
       transform="matrix(1.3333333,0,0,-1.3333333,-41.644,-39.452)" />
    <path
       id="path2"
       d="m 212.34894,-136.21594 c 0,1.03116 0.83686,1.86802 1.86801,1.86802 1.03116,0 1.86803,-0.83686 1.86803,-1.86802 0,-1.03115 -0.83687,-1.86801 -1.86803,-1.86801 -1.03115,0 -1.86801,0.83686 -1.86801,1.86801 z"
       style="fill:#d0021b;fill-opacity:1;fill-rule:nonzero;stroke:#d0021b;stroke-width:0.74721;stroke-linecap:butt;stroke-linejoin:miter;stroke-miterlimit:10;stroke-dasharray:none;stroke-opacity:1"
       transform="matrix(1.3333333,0,0,-1.3333333,-41.644,-39.452)" />
    <path
       id="path3"
       d="m 102.50941,-131.7327 c 0,1.03116 0.83687,1.86803 1.86802,1.86803 1.03115,0 1.86802,-0.83687 1.86802,-1.86803 0,-1.03114 -0.83687,-1.86801 -1.86802,-1.86801 -1.03115,0 -1.86802,0.83687 -1.86802,1.86801 z"
       style="fill:#d0021b;fill-opacity:1;fill-rule:nonzero;stroke:#d0021b;stroke-width:0.74721;stroke-linecap:butt;stroke-linejoin:miter;stroke-miterlimit:10;stroke-dasharray:none;stroke-opacity:1"
       transform="matrix(1.3333333,0,0,-1.3333333,-41.644,-39.452)" />
    <path
       id="path4"
       d="m 58.2822,-67.24869 c 22.98408,36.91207 122.72137,36.31432 133.92949,-21.22067 11.20811,-57.53499 81.44563,-28.39389 92.65374,-70.98473 11.20812,-42.59083 -170.36334,-20.92181 -203.24048,-6.72487 -32.87713,14.19695 -46.32687,62.01824 -23.34275,98.93027 z"
       style="fill:#f5a623;fill-opacity:0.14;fill-rule:nonzero;stroke:#f5a623;stroke-width:1.49442;stroke-linecap:butt;stroke-linejoin:miter;stroke-miterlimit:10;stroke-dasharray:none;stroke-opacity:0.5"
       transform="matrix(1.3333333,0,0,-1.3333333,-41.644,-39.452)" />
    <path
       id="path5"
       d="m 77.7096,-95.64258 c 0,10.31894 8.36125,18.68019 18.68019,18.68019 10.31892,0 18.68019,-8.36125 18.68019,-18.68019 0,-10.31892 -8.36127,-18.68019 -18.68019,-18.68019 -10.31894,0 -18.68019,8.36127 -18.68019,18.68019 z"
       style="fill:#7d7d7d;fill-opacity:1;fill-rule:nonzero;stroke:#f5a623;stroke-width:1.49442;stroke-linecap:butt;stroke-linejoin:miter;stroke-miterlimit:10;stroke-dasharray:none;stroke-opacity:0.5"
       transform="matrix(1.3333333,0,0,-1.3333333,-41.644,-39.452)" />
    <path
       id="path6"
       d="m 153.17757,-153.17757 c 0,10.31894 8.36125,18.68019 18.68019,18.68019 10.31892,0 18.68019,-8.36125 18.68019,-18.68019 0,-10.31892 -8.36127,-18.68019 -18.68019,-18.68019 -10.31894,0 -18.68019,8.36127 -18.68019,18.68019 z"
       style="fill:#7d7d7d;fill-opacity:1;fill-rule:nonzero;stroke:#f5a623;stroke-width:1.49442;stroke-linecap:butt;stroke-linejoin:miter;stroke-miterlimit:10;stroke-dasharray:none;stroke-opacity:0.5"
       transform="matrix(1.3333333,0,0,-1.3333333,-41.644,-39.452)" />
    <path
       id="path7"
       d="m 114.39748,-88.83551 67.80162,21.25806"
       style="fill:none;stroke:#f5a623;stroke-width:1.49442;stroke-linecap:butt;stroke-linejoin:miter;stroke-miterlimit:10;stroke-dasharray:none;stroke-opacity:0.28"
       transform="matrix(1.3333333,0,0,-1.3333333,-41.644,-39.452)" />
    <path
       id="path8"
       d="m 81.62495,-166.17896 14.76484,51.85619"
       style="fill:none;stroke:#f5a623;stroke-width:1.49442;stroke-linecap:butt;stroke-linejoin:miter;stroke-miterlimit:10;stroke-dasharray:none;stroke-opacity:0.28"
       transform="matrix(1.3333333,0,0,-1.3333333,-41.644,-39.452)" />
    <path
       id="path9"
       d="m 110.21312,-107.77722 42.96445,-45.40035"
       style="fill:none;stroke:#f5a623;stroke-width:1.49442;stroke-linecap:butt;stroke-linejoin:miter;stroke-miterlimit:10;stroke-dasharray:none;stroke-opacity:0.28"
       transform="matrix(1.3333333,0,0,-1.3333333,-41.644,-39.452)" />
    <path
       id="path10"
       d="m 198.92906,-106.01381 -27.0713,-28.48357"
       style="fill:none;stroke:#f5a623;stroke-width:1.49442;stroke-linecap:butt;stroke-linejoin:miter;stroke-miterlimit:10;stroke-dasharray:none;stroke-opacity:0.28"
       transform="matrix(1.3333333,0,0,-1.3333333,-41.644,-39.452)" />
    <path
       id="path11"
       d="m 171.48415,-181.30244 0.37361,9.44468"
       style="fill:none;stroke:#f5a623;stroke-width:1.49442;stroke-linecap:butt;stroke-linejoin:miter;stroke-miterlimit:10;stroke-dasharray:none;stroke-opacity:0.28"
       transform="matrix(1.3333333,0,0,-1.3333333,-41.644,-39.452)" />
    <path
       id="path12"
       d="m 128.38521,-105.58043 c 0,3.66133 2.9664,6.62773 6.62773,6.62773 3.65384,0 6.62773,-2.9664 6.62773,-6.62773 0,-3.65385 -2.97389,-6.62025 -6.62773,-6.62025 -3.66133,0 -6.62773,2.9664 -6.62773,6.62025 z"
       style="fill:none;stroke:#8b572a;stroke-width:1.49442;stroke-linecap:butt;stroke-linejoin:miter;stroke-miterlimit:10;stroke-dasharray:none;stroke-opacity:1"
       transform="matrix(1.3333333,0,0,-1.3333333,-41.644,-39.452)" />
    <path
       id="path13"
       d="m 207.58922,-136.21594 c 0,3.66133 2.9664,6.62773 6.62773,6.62773 3.65384,0 6.62773,-2.9664 6.62773,-6.62773 0,-3.65386 -2.97389,-6.62026 -6.62773,-6.62026 -3.66133,0 -6.62773,2.9664 -6.62773,6.62026 z"
       style="fill:none;stroke:#8b572a;stroke-width:1.49442;stroke-linecap:butt;stroke-linejoin:miter;stroke-miterlimit:10;stroke-dasharray:none;stroke-opacity:1"
       transform="matrix(1.3333333,0,0,-1.3333333,-41.644,-39.452)" />
    <path
       id="path14"
       d="m 97.7497,-131.7327 c 0,3.66133 2.9664,6.62773 6.62773,6.62773 3.65384,0 6.62773,-2.9664 6.62773,-6.62773 0,-3.65385 -2.97389,-6.62025 -6.62773,-6.62025 -3.66133,0 -6.62773,2.9664 -6.62773,6.62025 z"
       style="fill:none;stroke:#8b572a;stroke-width:1.49442;stroke-linecap:butt;stroke-linejoin:miter;stroke-miterlimit:10;stroke-dasharray:none;stroke-opacity:1"
       transform="matrix(1.3333333,0,0,-1.3333333,-41.644,-39.452)" />
    <g
       id="g14"
       aria-label="a&#10;1"
       transform="matrix(1.3333333,0,0,1.3333333,151.82267,113.06667)">
      <path
         id="path15"
         d="m 3.5988203,-1.4181641 c -0.058594,0.1992188 -0.058594,0.2226563 -0.2226562,0.44531254 -0.2695313,0.33984375 -0.796875,0.85546875 -1.359375,0.85546875 -0.4804688,0 -0.7617188,-0.4453125 -0.7617188,-1.14843749 0,-0.65625 0.375,-1.9921875 0.5976563,-2.4960938 0.4101562,-0.84375 0.9726562,-1.265625 1.4414062,-1.265625 0.7851563,0 0.9375,0.9726563 0.9375,1.0664063 0,0.011719 -0.035156,0.1757812 -0.046875,0.1992187 z M 4.3605391,-4.4884766 C 4.2316328,-4.7931641 3.9152266,-5.2736328 3.2941328,-5.2736328 c -1.359375,0 -2.81249999,1.7460937 -2.81249999,3.515625 0,1.18359374 0.69140629,1.87499999 1.49999999,1.87499999 0.65625,0 1.21875,-0.515625 1.5585938,-0.90234375 0.1171875,0.703125 0.6796875,0.90234375 1.0429687,0.90234375 0.3515625,0 0.6445313,-0.2109375 0.8554688,-0.64453125 0.1875,-0.41015625 0.3632812,-1.13671874 0.3632812,-1.18359374 0,-0.058594 -0.046875,-0.1054688 -0.1171875,-0.1054688 -0.1171875,0 -0.1289062,0.058594 -0.1757812,0.234375 -0.1757813,0.71484379 -0.3984375,1.46484379 -0.890625,1.46484379 -0.3515625,0 -0.375,-0.31640625 -0.375,-0.55078125 0,-0.28125 0.035156,-0.41015624 0.140625,-0.87890624 0.082031,-0.2929688 0.1523437,-0.5625 0.2460937,-0.9023438 0.4335938,-1.7929687 0.5507813,-2.2265625 0.5507813,-2.296875 0,-0.1640625 -0.140625,-0.2929687 -0.3164063,-0.2929687 -0.375,0 -0.4804687,0.4101562 -0.5039062,0.5507812 z m 0,0"
         style="fill:#d0021b;fill-opacity:1;fill-rule:nonzero;stroke:none" />
      <path
         id="path16"
         d="m 8.6525313,-3.2814453 c 0,-0.2226563 -0.023437,-0.2226563 -0.234375,-0.2226563 -0.328125,0.3164063 -0.75,0.5039063 -1.5117188,0.5039063 v 0.2695312 c 0.2226563,0 0.6445313,0 1.1132813,-0.2226562 v 4.0898437 c 0,0.2929688 -0.023437,0.3984375 -0.7851563,0.3984375 h -0.28125 v 0.2578125 c 0.328125,-0.023437 1.0195313,-0.023437 1.3710938,-0.023437 0.3632812,0 1.0546875,0 1.3828125,0.023437 V 1.5349609 h -0.28125 c -0.75,0 -0.7734375,-0.1054687 -0.7734375,-0.3984375 z m 0,0"
         style="fill:#d0021b;fill-opacity:1;fill-rule:nonzero;stroke:none" />
    </g>
    <g
       id="g16"
       aria-label="a&#10;2"
       transform="matrix(1.3333333,0,0,1.3333333,257.428,153.91467)">
      <path
         id="path17"
         d="m 3.5989219,-1.4184219 c -0.058594,0.1992188 -0.058594,0.2226563 -0.2226563,0.44531252 -0.2695312,0.33984375 -0.796875,0.85546875 -1.359375,0.85546875 -0.4804687,0 -0.7617187,-0.4453125 -0.7617187,-1.14843747 0,-0.65625 0.375,-1.9921875 0.5976562,-2.4960938 0.4101563,-0.84375 0.9726563,-1.265625 1.4414063,-1.265625 0.7851562,0 0.9375,0.9726563 0.9375,1.0664063 0,0.011719 -0.035156,0.1757812 -0.046875,0.1992187 z M 4.3606406,-4.4887344 C 4.2317344,-4.7934219 3.9153281,-5.2738906 3.2942344,-5.2738906 c -1.359375,0 -2.81250002,1.7460937 -2.81250002,3.515625 0,1.18359372 0.69140622,1.87499997 1.50000002,1.87499997 0.65625,0 1.21875,-0.515625 1.5585937,-0.90234375 0.1171875,0.703125 0.6796875,0.90234375 1.0429688,0.90234375 0.3515625,0 0.6445312,-0.2109375 0.8554687,-0.64453125 0.1875,-0.41015625 0.3632813,-1.13671872 0.3632813,-1.18359372 0,-0.058594 -0.046875,-0.1054688 -0.1171875,-0.1054688 -0.1171875,0 -0.1289063,0.058594 -0.1757813,0.234375 -0.1757812,0.71484377 -0.3984375,1.46484377 -0.890625,1.46484377 -0.3515625,0 -0.375,-0.31640625 -0.375,-0.55078125 0,-0.28125 0.035156,-0.41015622 0.140625,-0.87890622 0.082031,-0.2929688 0.1523438,-0.5625 0.2460938,-0.9023438 0.4335937,-1.7929687 0.5507812,-2.2265625 0.5507812,-2.296875 0,-0.1640625 -0.140625,-0.2929687 -0.3164062,-0.2929687 -0.375,0 -0.4804688,0.4101562 -0.5039063,0.5507812 z m 0,0"
         style="fill:#d0021b;fill-opacity:1;fill-rule:nonzero;stroke:none" />
      <path
         id="path18"
         d="m 8.3948203,0.16360937 c 0.1289063,-0.1171875 0.4570313,-0.375 0.5859375,-0.4921875 0.4921875,-0.45703125 0.9609375,-0.89062497 0.9609375,-1.61718747 0,-0.9492188 -0.796875,-1.5585938 -1.7929687,-1.5585938 -0.9492188,0 -1.5820313,0.7265625 -1.5820313,1.4296875 0,0.3984375 0.3164063,0.4453125 0.421875,0.4453125 0.1640625,0 0.4101563,-0.1171875 0.4101563,-0.421875 0,-0.4101562 -0.3984375,-0.4101562 -0.4921875,-0.4101562 0.234375,-0.5859375 0.7734375,-0.7851563 1.1601562,-0.7851563 0.7382813,0 1.125,0.6328125 1.125,1.3007813 0,0.8320312 -0.5859375,1.42968747 -1.5234375,2.40234372 L 6.6604453,1.4878281 c -0.09375,0.09375 -0.09375,0.1054688 -0.09375,0.3046875 H 9.7190391 L 9.9416953,0.36282812 H 9.6956016 c -0.023437,0.1640625 -0.082031,0.5625 -0.1757813,0.71484378 -0.046875,0.058594 -0.65625,0.058594 -0.7851562,0.058594 H 7.3166953 Z m 0,0"
         style="fill:#d0021b;fill-opacity:1;fill-rule:nonzero;stroke:none" />
    </g>
    <g
       id="g18"
       aria-label="a&#10;3"
       transform="matrix(1.3333333,0,0,1.3333333,110.976,147.936)">
      <path
         id="path19"
         d="m 3.5980781,-1.4168437 c -0.058594,0.1992187 -0.058594,0.2226562 -0.2226562,0.44531245 -0.2695313,0.33984375 -0.796875,0.85546875 -1.359375,0.85546875 -0.4804688,0 -0.7617188,-0.4453125 -0.7617188,-1.1484375 0,-0.65625 0.375,-1.9921875 0.5976563,-2.4960937 0.4101562,-0.84375 0.9726562,-1.265625 1.4414062,-1.265625 0.7851563,0 0.9375,0.9726562 0.9375,1.0664062 0,0.011719 -0.035156,0.1757813 -0.046875,0.1992188 z M 4.3597969,-4.4871562 C 4.2308906,-4.7918437 3.9144844,-5.2723125 3.2933906,-5.2723125 c -1.359375,0 -2.81249997,1.7460938 -2.81249997,3.515625 0,1.18359375 0.69140627,1.875 1.49999997,1.875 0.65625,0 1.21875,-0.515625 1.5585938,-0.90234375 0.1171875,0.703125 0.6796875,0.90234375 1.0429687,0.90234375 0.3515625,0 0.6445313,-0.2109375 0.8554688,-0.64453125 0.1875,-0.41015625 0.3632812,-1.13671875 0.3632812,-1.18359375 0,-0.058594 -0.046875,-0.1054687 -0.1171875,-0.1054687 -0.1171875,0 -0.1289062,0.058594 -0.1757812,0.234375 -0.1757813,0.7148437 -0.3984375,1.4648437 -0.890625,1.4648437 -0.3515625,0 -0.375,-0.31640625 -0.375,-0.55078125 0,-0.28125 0.035156,-0.41015625 0.140625,-0.87890625 0.082031,-0.2929687 0.1523437,-0.5625 0.2460937,-0.9023437 0.4335938,-1.7929688 0.5507813,-2.2265625 0.5507813,-2.296875 0,-0.1640625 -0.140625,-0.2929688 -0.3164063,-0.2929688 -0.375,0 -0.4804687,0.4101563 -0.5039062,0.5507813 z m 0,0"
         style="fill:#d0021b;fill-opacity:1;fill-rule:nonzero;stroke:none" />
      <path
         id="path20"
         d="m 8.1596016,-0.8660625 c 0.6328125,0 1.03125,0.45703125 1.03125,1.30078125 0,0.99609375 -0.5742188,1.28906255 -0.9960938,1.28906255 -0.4335937,0 -1.03125,-0.1640625 -1.3125,-0.5859375 0.2929688,0 0.4921875,-0.1757813 0.4921875,-0.44531255 0,-0.2578125 -0.1875,-0.43359375 -0.4453125,-0.43359375 -0.2109375,0 -0.4335937,0.12890625 -0.4335937,0.45703125 0,0.75000005 0.8085937,1.24218755 1.7226562,1.24218755 1.0546875,0 1.7929687,-0.7265625 1.7929687,-1.52343755 0,-0.66796875 -0.5156249,-1.265625 -1.3359374,-1.44140625 0.6328125,-0.2226562 1.1015625,-0.7734375 1.1015625,-1.40625 0,-0.6328125 -0.7148438,-1.0898437 -1.546875,-1.0898437 -0.8554688,0 -1.5,0.4570312 -1.5,1.0664062 0,0.2929688 0.1992187,0.421875 0.4101562,0.421875 0.2460938,0 0.4101563,-0.1757812 0.4101563,-0.4101562 0,-0.2929688 -0.2578125,-0.3984375 -0.4335938,-0.4101563 0.3398438,-0.4335937 0.9492188,-0.46875 1.0898438,-0.46875 0.2109375,0 0.8085937,0.070312 0.8085937,0.890625 0,0.5625 -0.2226562,0.890625 -0.3398437,1.0195313 -0.234375,0.2460937 -0.421875,0.2578125 -0.9023438,0.2929687 -0.1523437,0.011719 -0.2226562,0.023437 -0.2226562,0.1171875 0,0.1171875 0.070312,0.1171875 0.2109375,0.1171875 z m 0,0"
         style="fill:#d0021b;fill-opacity:1;fill-rule:nonzero;stroke:none" />
    </g>
  </g>
</svg>
