<?xml version="1.0" encoding="UTF-8" standalone="no"?>
<!-- Created with Inkscape (http://www.inkscape.org/) -->

<svg
   version="1.1"
   id="svg1"
   width="115.58667"
   height="126.62667"
   viewBox="0 0 115.58667 126.62667"
   sodipodi:docname="small-arc.pdf"
   xmlns:inkscape="http://www.inkscape.org/namespaces/inkscape"
   xmlns:sodipodi="http://sodipodi.sourceforge.net/DTD/sodipodi-0.dtd"
   xmlns="http://www.w3.org/2000/svg"
   xmlns:svg="http://www.w3.org/2000/svg">
  <defs
     id="defs1" />
  <sodipodi:namedview
     id="namedview1"
     pagecolor="#ffffff"
     bordercolor="#000000"
     borderopacity="0.25"
     inkscape:showpageshadow="2"
     inkscape:pageopacity="0.0"
     inkscape:pagecheckerboard="0"
     inkscape:deskcolor="#d1d1d1">
    <inkscape:page
       x="0"
       y="0"
       inkscape:label="1"
       id="page1"
       width="115.58667"
       height="126.62667"
       margin="0"
       bleed="0" />
  </sodipodi:namedview>
  <g
     id="g1"
     inkscape:groupmode="layer"
     inkscape:label="1">
    <path
       id="path1"
       d="m 129.71573,-79.37764 c 0,22.763 18.45909,41.22209 41.22807,41.22209 22.76302,0 41.22212,-18.45909 41.22212,-41.22209 0,-22.76901 -18.4591,-41.22809 -41.22212,-41.22809 -22.76898,0 -41.22807,18.45908 -41.22807,41.22809 z"
       style="fill:none;stroke:#000000;stroke-width:0.74721;stroke-linecap:butt;stroke-linejoin:miter;stroke-miterlimit:10;stroke-dasharray:0.83687, 2.50064;stroke-dashoffset:0;stroke-opacity:1"
       transform="matrix(1.3333333,0,0,-1.3333333,-167.792,-34.677333)" />
    <path
       id="path2"
       d="m 168.55273,-79.37764 c 0,1.31509 1.07001,2.39107 2.39107,2.39107 1.32108,0 2.39108,-1.07598 2.39108,-2.39107 0,-1.32108 -1.07,-2.39106 -2.39108,-2.39106 -1.32106,0 -2.39107,1.06998 -2.39107,2.39106 z"
       style="fill:#d0021b;fill-opacity:1;fill-rule:nonzero;stroke:#d0021b;stroke-width:0.74721;stroke-linecap:butt;stroke-linejoin:miter;stroke-miterlimit:10;stroke-dasharray:none;stroke-opacity:1"
       transform="matrix(1.3333333,0,0,-1.3333333,-167.792,-34.677333)" />
    <path
       id="path3"
       d="m 146.34566,-46.29715 c 6.86236,5.1169 15.37457,8.1416 24.59814,8.1416 15.64958,0 29.26076,-8.72142 36.24271,-21.56747 L 170.9438,-79.37764 Z"
       style="fill:#f5a623;fill-opacity:0.2;fill-rule:nonzero;stroke:#000000;stroke-width:0.74721;stroke-linecap:butt;stroke-linejoin:miter;stroke-miterlimit:10;stroke-dasharray:none;stroke-opacity:0"
       transform="matrix(1.3333333,0,0,-1.3333333,-167.792,-34.677333)" />
    <path
       id="path4"
       d="m 146.34566,-46.29715 c 6.86236,5.1169 15.37457,8.1416 24.59814,8.1416 15.64958,0 29.26076,-8.72142 36.24271,-21.56747"
       style="fill:none;stroke:#000000;stroke-width:0.74721;stroke-linecap:butt;stroke-linejoin:miter;stroke-miterlimit:10;stroke-dasharray:none;stroke-opacity:1"
       transform="matrix(1.3333333,0,0,-1.3333333,-167.792,-34.677333)" />
    <path
       id="path5"
       d="M 146.34566,-46.29715 170.9438,-79.37764"
       style="fill:none;stroke:#000000;stroke-width:0.74721;stroke-linecap:butt;stroke-linejoin:miter;stroke-miterlimit:10;stroke-dasharray:4.48325, 4.48325;stroke-dashoffset:0;stroke-opacity:1"
       transform="matrix(1.3333333,0,0,-1.3333333,-167.792,-34.677333)" />
    <path
       id="path6"
       d="M 207.18651,-59.72302 170.9438,-79.37764"
       style="fill:none;stroke:#000000;stroke-width:0.74721;stroke-linecap:butt;stroke-linejoin:miter;stroke-miterlimit:10;stroke-dasharray:4.48325, 4.48325;stroke-dashoffset:0;stroke-opacity:1"
       transform="matrix(1.3333333,0,0,-1.3333333,-167.792,-34.677333)" />
    <path
       id="path7"
       d="m 160.90129,-65.88005 c 2.80353,2.08623 6.27658,3.32361 10.04251,3.32361 6.38417,0 11.93746,-3.55673 14.7888,-8.80513 l -14.7888,-8.01607 z"
       style="fill:none;stroke:#000000;stroke-width:0.74721;stroke-linecap:butt;stroke-linejoin:miter;stroke-miterlimit:10;stroke-dasharray:none;stroke-opacity:0"
       transform="matrix(1.3333333,0,0,-1.3333333,-167.792,-34.677333)" />
    <path
       id="path8"
       d="m 160.90129,-65.88005 c 2.80353,2.08623 6.27658,3.32361 10.04251,3.32361 6.38417,0 11.93746,-3.55673 14.7888,-8.80513"
       style="fill:none;stroke:#000000;stroke-width:0.74721;stroke-linecap:butt;stroke-linejoin:miter;stroke-miterlimit:10;stroke-dasharray:none;stroke-opacity:1"
       transform="matrix(1.3333333,0,0,-1.3333333,-167.792,-34.677333)" />
    <path
       id="path9"
       d="m 169.12659,-64.8997 -5.08702,0.83688 3.7241,3.56868 -1.51832,-2.88722 z"
       style="fill:#000000;fill-opacity:1;fill-rule:nonzero;stroke:#000000;stroke-width:0.74721;stroke-linecap:butt;stroke-linejoin:miter;stroke-miterlimit:10;stroke-dasharray:none;stroke-opacity:1"
       transform="matrix(1.3333333,0,0,-1.3333333,-167.792,-34.677333)" />
    <path
       id="path10"
       d="m 164.34445,-40.58846 -5.08703,0.83687 3.7241,3.56869 -1.51832,-2.88723 z"
       style="fill:#000000;fill-opacity:1;fill-rule:nonzero;stroke:#000000;stroke-width:0.74721;stroke-linecap:butt;stroke-linejoin:miter;stroke-miterlimit:10;stroke-dasharray:none;stroke-opacity:1"
       transform="matrix(1.3333333,0,0,-1.3333333,-167.792,-34.677333)" />
    <g
       id="g10"
       aria-label="θ&#10;2&#10;−θ&#10;1"
       transform="matrix(1.3333333,0,0,1.3333333,46.508,42.198667)">
      <path
         id="path11"
         d="m 4.7811094,-5.2495859 c 0,-0.6914063 -0.1875,-2.15625 -1.265625,-2.15625 -1.453125,0 -3.07031252,2.9648437 -3.07031252,5.3671875 0,0.984375 0.3046875,2.15624996 1.25390622,2.15624996 1.4765625,0 3.0820313,-3.01171876 3.0820313,-5.36718746 z m -3.2226563,1.4414062 c 0.1757813,-0.6796875 0.3867188,-1.5117187 0.8085938,-2.2617187 0.28125,-0.515625 0.6679687,-1.1015625 1.1367187,-1.1015625 0.515625,0 0.5859375,0.6679687 0.5859375,1.265625 0,0.515625 -0.09375,1.0546875 -0.3398437,2.0976562 z m 2.0976563,0.328125 c -0.1171875,0.4921875 -0.3398438,1.3828125 -0.7382813,2.1328125 -0.3632812,0.71484376 -0.7617187,1.23046876 -1.21875,1.23046876 -0.3398437,0 -0.5625,-0.3046875 -0.5625,-1.27734376 0,-0.4453125 0.058594,-1.0546875 0.328125,-2.0859375 z m 0,0"
         style="fill:#000000;fill-opacity:1;fill-rule:nonzero;stroke:none" />
      <path
         id="path12"
         d="M 8.4432188,0.30803125 H 8.2088438 C 8.1854063,0.460375 8.1268125,0.87053125 8.0330625,0.94084375 7.9744688,0.976 7.4354063,0.976 7.3416563,0.976 H 6.0525938 C 6.790875,0.33146875 7.0369688,0.13225 7.447125,-0.195875 c 0.515625,-0.41015625 0.9960938,-0.84375 0.9960938,-1.5 0,-0.84375 -0.7382813,-1.359375 -1.6289063,-1.359375 -0.8671875,0 -1.453125,0.609375 -1.453125,1.2421875 0,0.3632812 0.3046875,0.3984375 0.375,0.3984375 0.1640625,0 0.375,-0.1171875 0.375,-0.375 0,-0.1289063 -0.058594,-0.3632813 -0.421875,-0.3632813 0.2226563,-0.5039062 0.6914063,-0.65625 1.0195313,-0.65625 0.703125,0 1.0664062,0.5507813 1.0664062,1.1132813 0,0.609375 -0.4335937,1.08984375 -0.65625,1.3359375 L 5.4315,1.304125 C 5.361188,1.362719 5.361188,1.374437 5.361188,1.5736562 H 8.244 Z m 0,0"
         style="fill:#000000;fill-opacity:1;fill-rule:nonzero;stroke:none" />
      <path
         id="path13"
         d="m 18.64732,-2.4136484 c 0.1875,0 0.375,0 0.375,-0.2109375 0,-0.2109375 -0.1875,-0.2109375 -0.375,-0.2109375 h -5.671875 c -0.1875,0 -0.375,0 -0.375,0.2109375 0,0.2109375 0.1875,0.2109375 0.375,0.2109375 z m 0,0"
         style="fill:#000000;fill-opacity:1;fill-rule:nonzero;stroke:none" />
      <path
         id="path14"
         d="m 27.014508,-5.2495859 c 0,-0.6914063 -0.1875,-2.15625 -1.265625,-2.15625 -1.453125,0 -3.070313,2.9648437 -3.070313,5.3671875 0,0.984375 0.304688,2.15624996 1.253907,2.15624996 1.476562,0 3.082031,-3.01171876 3.082031,-5.36718746 z m -3.222656,1.4414062 c 0.175781,-0.6796875 0.386718,-1.5117187 0.808593,-2.2617187 0.28125,-0.515625 0.667969,-1.1015625 1.136719,-1.1015625 0.515625,0 0.585938,0.6679687 0.585938,1.265625 0,0.515625 -0.09375,1.0546875 -0.339844,2.0976562 z m 2.097656,0.328125 c -0.117188,0.4921875 -0.339844,1.3828125 -0.738281,2.1328125 -0.363282,0.71484376 -0.761719,1.23046876 -1.21875,1.23046876 -0.339844,0 -0.5625,-0.3046875 -0.5625,-1.27734376 0,-0.4453125 0.05859,-1.0546875 0.328125,-2.0859375 z m 0,0"
         style="fill:#000000;fill-opacity:1;fill-rule:nonzero;stroke:none" />
      <path
         id="path15"
         d="m 29.493023,-2.8560313 c 0,-0.1875 -0.01172,-0.1992187 -0.210937,-0.1992187 -0.445313,0.4335937 -1.078125,0.4453125 -1.359375,0.4453125 v 0.2460937 c 0.164062,0 0.621094,0 1.007812,-0.1875 v 3.5507813 c 0,0.234375 0,0.328125 -0.691406,0.328125 h -0.269531 v 0.2460937 c 0.128906,-0.011719 0.984375,-0.023437 1.242187,-0.023437 0.210938,0 1.089844,0.011719 1.242188,0.023437 V 1.3275625 h -0.257813 c -0.703125,0 -0.703125,-0.09375 -0.703125,-0.328125 z m 0,0"
         style="fill:#000000;fill-opacity:1;fill-rule:nonzero;stroke:none" />
    </g>
    <g
       id="g15"
       aria-label="C&#10;ϵ"
       transform="matrix(1.3333333,0,0,1.3333333,65.094667,11.556)">
      <path
         id="path16"
         d="m 7.9797812,-7.3017656 c 0,-0.023437 -0.023437,-0.1054688 -0.1171875,-0.1054688 -0.035156,0 -0.035156,0.011719 -0.1523437,0.1289063 l -0.7382813,0.8085937 c -0.09375,-0.140625 -0.5742187,-0.9375 -1.7460937,-0.9375 -2.34375,0 -4.69921875,2.3203125 -4.69921875,4.7578125 0,1.73437503 1.24218745,2.88281253 2.84765625,2.88281253 0.9140625,0 1.7109375,-0.421875 2.2617187,-0.90234375 0.9726563,-0.86718748 1.1601563,-1.81640628 1.1601563,-1.85156248 0,-0.1054688 -0.1054688,-0.1054688 -0.1289063,-0.1054688 -0.058594,0 -0.1171875,0.023437 -0.140625,0.1054688 -0.09375,0.3046875 -0.328125,1.0546875 -1.0546875,1.66406248 -0.7265625,0.5859375 -1.3828125,0.76171875 -1.9335937,0.76171875 -0.9492188,0 -2.0625,-0.55078125 -2.0625,-2.17968753 0,-0.609375 0.2226562,-2.3085937 1.2773437,-3.5273437 0.6328125,-0.75 1.6289063,-1.2773438 2.5546875,-1.2773438 1.078125,0 1.6992188,0.8085938 1.6992188,2.0273438 0,0.421875 -0.035156,0.4335937 -0.035156,0.5390625 0,0.1054687 0.1171875,0.1054687 0.1523438,0.1054687 0.140625,0 0.140625,-0.023437 0.1992187,-0.2109375 z m 0,0"
         style="fill:#000000;fill-opacity:1;fill-rule:nonzero;stroke:none" />
      <path
         id="path17"
         d="m 9.9426719,0.01659375 c 0.1054691,0 0.2343751,0 0.2343751,-0.140625 0,-0.1171875 -0.105469,-0.1171875 -0.2343751,-0.1171875 H 8.6887656 C 8.8997031,-0.87403125 9.3567344,-1.1787187 9.9661094,-1.1787187 h 0.2695316 c 0.105468,0 0.234375,0 0.234375,-0.1289063 0,-0.1171875 -0.09375,-0.1171875 -0.222657,-0.1171875 H 9.9426719 c -0.9257813,0 -1.96875,0.64453125 -1.96875,1.69921875 0,0.82031255 0.6210937,1.37109375 1.4296875,1.37109375 0.2109375,0 0.5039062,-0.035156 0.8789066,-0.2460937 0.140625,-0.070312 0.152343,-0.09375 0.152343,-0.140625 0,-0.023437 0,-0.140625 -0.105468,-0.140625 -0.02344,0 -0.04687,0.011719 -0.08203,0.035156 -0.246093,0.1640625 -0.5390621,0.2929688 -0.8203121,0.2929688 -0.28125,0 -0.8671875,-0.140625 -0.8671875,-0.9257813 0,-0.10546875 0,-0.24609375 0.070312,-0.50390625 z m 0,0"
         style="fill:#000000;fill-opacity:1;fill-rule:nonzero;stroke:none" />
    </g>
  </g>
</svg>
