<?xml version="1.0" encoding="UTF-8" standalone="no"?>
<!-- Created with Inkscape (http://www.inkscape.org/) -->

<svg
   version="1.1"
   id="svg1"
   width="216.86667"
   height="133.02667"
   viewBox="0 0 216.86667 133.02667"
   sodipodi:docname="three-points.pdf"
   xmlns:inkscape="http://www.inkscape.org/namespaces/inkscape"
   xmlns:sodipodi="http://sodipodi.sourceforge.net/DTD/sodipodi-0.dtd"
   xmlns="http://www.w3.org/2000/svg"
   xmlns:svg="http://www.w3.org/2000/svg">
  <defs
     id="defs1" />
  <sodipodi:namedview
     id="namedview1"
     pagecolor="#ffffff"
     bordercolor="#000000"
     borderopacity="0.25"
     inkscape:showpageshadow="2"
     inkscape:pageopacity="0.0"
     inkscape:pagecheckerboard="0"
     inkscape:deskcolor="#d1d1d1">
    <inkscape:page
       x="0"
       y="0"
       inkscape:label="1"
       id="page1"
       width="216.86667"
       height="133.02667"
       margin="0"
       bleed="0" />
  </sodipodi:namedview>
  <g
     id="g1"
     inkscape:groupmode="layer"
     inkscape:label="1">
    <path
       id="path1"
       d="m 194.0313,-108.26964 h 72.60119"
       style="fill:none;stroke:#d0021b;stroke-width:0.74721;stroke-linecap:butt;stroke-linejoin:miter;stroke-miterlimit:10;stroke-dasharray:0.83687, 2.50064;stroke-dashoffset:0;stroke-opacity:1"
       transform="matrix(1.3333333,0,0,-1.3333333,-139.13467,-73.338667)" />
    <path
       id="path2"
       d="m 227.59491,-110.2871 c -1.04236,-17.63246 -15.66885,-31.60665 -33.56361,-31.60665 -18.56725,0 -33.62412,15.05688 -33.62412,33.62411 0,18.56724 15.05687,33.62412 33.62412,33.62412 17.80061,0 32.37329,-13.83968 33.55014,-31.34439 l -33.55014,-2.27973 z"
       style="fill:none;stroke:#000000;stroke-width:0.74721;stroke-linecap:butt;stroke-linejoin:miter;stroke-miterlimit:10;stroke-dasharray:4.48325, 4.48325;stroke-dashoffset:0;stroke-opacity:0"
       transform="matrix(1.3333333,0,0,-1.3333333,-139.13467,-73.338667)" />
    <path
       id="path3"
       d="m 227.59491,-110.2871 c -1.04236,-17.63246 -15.66885,-31.60665 -33.56361,-31.60665 -18.56725,0 -33.62412,15.05688 -33.62412,33.62411 0,18.56724 15.05687,33.62412 33.62412,33.62412 17.80061,0 32.37329,-13.83968 33.55014,-31.34439"
       style="fill:none;stroke:#8b572a;stroke-width:0.74721;stroke-linecap:butt;stroke-linejoin:miter;stroke-miterlimit:10;stroke-dasharray:4.48325, 4.48325;stroke-dashoffset:0;stroke-opacity:1"
       transform="matrix(1.3333333,0,0,-1.3333333,-139.13467,-73.338667)" />
    <path
       id="path4"
       d="m 191.34137,-108.26964 c 0,1.48621 1.20377,2.68993 2.68993,2.68993 1.48619,0 2.68992,-1.20372 2.68992,-2.68993 0,-1.48619 -1.20373,-2.68992 -2.68992,-2.68992 -1.48616,0 -2.68993,1.20373 -2.68993,2.68992 z"
       style="fill:#d0021b;fill-opacity:1;fill-rule:nonzero;stroke:#d0021b;stroke-width:0.74721;stroke-linecap:butt;stroke-linejoin:miter;stroke-miterlimit:10;stroke-dasharray:none;stroke-opacity:1"
       transform="matrix(1.3333333,0,0,-1.3333333,-139.13467,-73.338667)" />
    <path
       id="path5"
       d="m 191.34137,-74.64552 c 0,1.4862 1.20377,2.68992 2.68993,2.68992 1.48619,0 2.68992,-1.20372 2.68992,-2.68992 0,-1.48619 -1.20373,-2.68993 -2.68992,-2.68993 -1.48616,0 -2.68993,1.20374 -2.68993,2.68993 z"
       style="fill:#8b572a;fill-opacity:1;fill-rule:nonzero;stroke:#8b572a;stroke-width:0.74721;stroke-linecap:butt;stroke-linejoin:miter;stroke-miterlimit:10;stroke-dasharray:none;stroke-opacity:1"
       transform="matrix(1.3333333,0,0,-1.3333333,-139.13467,-73.338667)" />
    <path
       id="path6"
       d="m 191.34137,-141.89375 c 0,1.4862 1.20377,2.68992 2.68993,2.68992 1.48619,0 2.68992,-1.20372 2.68992,-2.68992 0,-1.48619 -1.20373,-2.68993 -2.68992,-2.68993 -1.48616,0 -2.68993,1.20374 -2.68993,2.68993 z"
       style="fill:#8b572a;fill-opacity:1;fill-rule:nonzero;stroke:#8b572a;stroke-width:0.74721;stroke-linecap:butt;stroke-linejoin:miter;stroke-miterlimit:10;stroke-dasharray:none;stroke-opacity:1"
       transform="matrix(1.3333333,0,0,-1.3333333,-139.13467,-73.338667)" />
    <path
       id="path7"
       d="m 157.71725,-108.26964 c 0,1.48621 1.20377,2.68993 2.68993,2.68993 1.48619,0 2.68992,-1.20372 2.68992,-2.68993 0,-1.48619 -1.20373,-2.68992 -2.68992,-2.68992 -1.48616,0 -2.68993,1.20373 -2.68993,2.68992 z"
       style="fill:#14572a;fill-opacity:1;fill-rule:nonzero;stroke:#14572a;stroke-width:0.74721;stroke-linecap:butt;stroke-linejoin:miter;stroke-miterlimit:10;stroke-dasharray:none;stroke-opacity:1"
       transform="matrix(1.3333333,0,0,-1.3333333,-139.13467,-73.338667)" />
    <g
       id="g7"
       aria-label="z&#10;1/3&#10;=e&#10;1"
       transform="matrix(1.3333333,0,0,1.3333333,122.86133,14.472)">
      <path
         id="path8"
         d="M 1.3256797,-0.83153906 C 1.8647422,-1.4057578 2.1577109,-1.6518516 2.5092734,-1.9565391 c 0,-0.011719 0.6210938,-0.5390625 0.984375,-0.9023437 0.9375,-0.9257813 1.1601563,-1.40625 1.1601563,-1.4414063 0,-0.1054687 -0.09375,-0.1054687 -0.1054688,-0.1054687 -0.070312,0 -0.1054687,0.023437 -0.1523437,0.1171875 -0.3046875,0.46875 -0.5039063,0.6328125 -0.75,0.6328125 -0.234375,0 -0.3515625,-0.1523438 -0.5039063,-0.3164063 -0.1875,-0.234375 -0.3632812,-0.4335937 -0.6914062,-0.4335937 -0.75,0 -1.2070313,0.9257812 -1.2070313,1.1367187 0,0.046875 0.035156,0.1171875 0.1171875,0.1171875 0.09375,0 0.1171875,-0.058594 0.140625,-0.1171875 0.1875,-0.4570312 0.7617188,-0.46875 0.84375,-0.46875 0.2109375,0 0.3984375,0.070312 0.6210938,0.1523438 0.3984375,0.1523437 0.515625,0.1523437 0.7734375,0.1523437 -0.3632813,0.421875 -1.1953125,1.1367188 -1.3828125,1.3007813 l -0.9023438,0.8320312 c -0.67968746,0.66796879 -1.01953121,1.24218754 -1.01953121,1.31250004 0,0.09375 0.09375,0.09375 0.1171875,0.09375 0.0820313,0 0.09375,-0.01171875 0.15234375,-0.12890625 0.234375,-0.33984375 0.52734376,-0.609375 0.85546876,-0.609375 0.2226562,0 0.328125,0.0820313 0.5742187,0.375 0.1640625,0.2109375 0.3515625,0.36328125 0.6328125,0.36328125 0.984375,0 1.5703125,-1.26562504 1.5703125,-1.53515624 0,-0.046875 -0.046875,-0.09375 -0.1171875,-0.09375 -0.09375,0 -0.1171875,0.058594 -0.140625,0.1289062 -0.234375,0.64453129 -0.8671875,0.83203129 -1.1953125,0.83203129 -0.1992187,0 -0.3867187,-0.0585938 -0.5859375,-0.12890625 -0.3398437,-0.12890625 -0.4921875,-0.1640625 -0.703125,-0.1640625 -0.023437,0 -0.1757812,0 -0.2695312,0.0234375 z m 0,0"
         style="fill:#8b572a;fill-opacity:1;fill-rule:nonzero;stroke:none" />
      <path
         id="path9"
         d="m 7.4018516,-8.5424766 c 0,-0.1875 -0.011719,-0.1992187 -0.2109375,-0.1992187 -0.4453125,0.4335937 -1.078125,0.4453125 -1.359375,0.4453125 v 0.2460937 c 0.1640625,0 0.6210937,0 1.0078125,-0.1875 v 3.5507813 c 0,0.234375 0,0.328125 -0.6914063,0.328125 H 5.8784141 v 0.2460937 c 0.1289062,-0.011719 0.984375,-0.023437 1.2421875,-0.023437 0.2109375,0 1.0898437,0.011719 1.2421875,0.023437 V -4.3588828 H 8.1049766 c -0.703125,0 -0.703125,-0.09375 -0.703125,-0.328125 z m 0,0"
         style="fill:#8b572a;fill-opacity:1;fill-rule:nonzero;stroke:none" />
      <path
         id="path10"
         d="m 12.534664,-9.0346641 c 0.04687,-0.09375 0.04687,-0.1054687 0.04687,-0.1289062 0,-0.1171875 -0.09375,-0.1757813 -0.175781,-0.1757813 -0.117188,0 -0.152344,0.082031 -0.1875,0.1757813 l -2.6015627,6.4921875 c -0.035156,0.082031 -0.035156,0.09375 -0.035156,0.1289062 0,0.1054688 0.09375,0.1757813 0.1640625,0.1757813 0.1171875,0 0.1523437,-0.082031 0.1875,-0.1757813 z m 0,0"
         style="fill:#8b572a;fill-opacity:1;fill-rule:nonzero;stroke:none" />
      <path
         id="path11"
         d="m 15.021969,-6.4448203 c 0.550781,0 0.9375,0.375 0.9375,1.125 0,0.8671875 -0.503906,1.125 -0.902344,1.125 -0.28125,0 -0.890625,-0.082031 -1.183594,-0.4921875 0.328125,-0.011719 0.398438,-0.2460938 0.398438,-0.3867188 0,-0.2226562 -0.164063,-0.3867187 -0.386719,-0.3867187 -0.1875,0 -0.386719,0.1171875 -0.386719,0.4101562 0,0.65625 0.726563,1.078125 1.570313,1.078125 0.972656,0 1.640625,-0.6445312 1.640625,-1.3476562 0,-0.5390625 -0.445313,-1.0898438 -1.21875,-1.2421875 0.738281,-0.2695313 0.996094,-0.796875 0.996094,-1.21875 0,-0.5507813 -0.632813,-0.9609375 -1.40625,-0.9609375 -0.773438,0 -1.359375,0.375 -1.359375,0.9375 0,0.234375 0.152343,0.3632812 0.363281,0.3632812 0.210937,0 0.351562,-0.1640625 0.351562,-0.3515625 0,-0.1992187 -0.140625,-0.3515625 -0.351562,-0.3632812 0.234375,-0.3046875 0.714844,-0.3867188 0.972656,-0.3867188 0.316406,0 0.761719,0.1523438 0.761719,0.7617188 0,0.2929687 -0.105469,0.609375 -0.28125,0.8320312 -0.234375,0.2578125 -0.421875,0.28125 -0.773438,0.2929688 -0.175781,0.023437 -0.1875,0.023437 -0.222656,0.023437 -0.01172,0 -0.07031,0.011719 -0.07031,0.09375 0,0.09375 0.05859,0.09375 0.175781,0.09375 z m 0,0"
         style="fill:#8b572a;fill-opacity:1;fill-rule:nonzero;stroke:none" />
      <path
         id="path12"
         d="m 27.203609,-3.2573203 c 0.152344,0 0.339844,0 0.339844,-0.1992188 0,-0.1992187 -0.1875,-0.1992187 -0.328125,-0.1992187 h -5.964844 c -0.140625,0 -0.328125,0 -0.328125,0.1992187 0,0.1992188 0.1875,0.1992188 0.339844,0.1992188 z m 0.01172,1.9335937 c 0.140625,0 0.328125,0 0.328125,-0.1992187 0,-0.1992188 -0.1875,-0.1992188 -0.339844,-0.1992188 h -5.941406 c -0.152344,0 -0.339844,0 -0.339844,0.1992188 0,0.1992187 0.1875,0.1992187 0.328125,0.1992187 z m 0,0"
         style="fill:#8b572a;fill-opacity:1;fill-rule:nonzero;stroke:none" />
      <path
         id="path13"
         d="m 32.740719,-2.2963828 c 0.292969,0 1.03125,-0.023437 1.523437,-0.234375 0.703125,-0.2929688 0.75,-0.890625 0.75,-1.0195313 0,-0.4453125 -0.386718,-0.8554687 -1.066406,-0.8554687 -1.113281,0 -2.613281,0.9726562 -2.613281,2.7070312 0,1.01953129 0.585937,1.80468754 1.570312,1.80468754 1.417969,0 2.261719,-1.0546875 2.261719,-1.17187504 0,-0.058594 -0.07031,-0.1289062 -0.128906,-0.1289062 -0.04687,0 -0.07031,0.023437 -0.128906,0.09375 -0.785157,0.99609374 -1.875,0.99609374 -1.992188,0.99609374 -0.773437,0 -0.867187,-0.84375 -0.867187,-1.16015624 0,-0.1171875 0.01172,-0.4335938 0.164062,-1.03125 z m -0.46875,-0.2226563 c 0.386719,-1.5117187 1.417969,-1.6640625 1.675781,-1.6640625 0.46875,0 0.738281,0.2929688 0.738281,0.6328125 0,1.03125 -1.59375,1.03125 -2.003906,1.03125 z m 0,0"
         style="fill:#8b572a;fill-opacity:1;fill-rule:nonzero;stroke:none" />
      <path
         id="path14"
         d="m 38.690914,-9.9545859 c 0,-0.1523441 -0.01172,-0.1523441 -0.175781,-0.1523441 -0.351563,0.3164066 -0.902344,0.3164066 -1.007813,0.3164066 h -0.08203 v 0.2226562 h 0.08203 c 0.117188,0 0.433594,-0.011719 0.726563,-0.140625 v 2.484375 c 0,0.1640625 0,0.2109375 -0.527344,0.2109375 h -0.246094 v 0.2226563 c 0.269532,-0.023437 0.714844,-0.023437 1.007813,-0.023437 0.28125,0 0.726562,0 0.996094,0.023437 v -0.2226563 h -0.246094 c -0.527344,0 -0.527344,-0.046875 -0.527344,-0.2109375 z m 0,0"
         style="fill:#8b572a;fill-opacity:1;fill-rule:nonzero;stroke:none" />
    </g>
    <path
       id="path15"
       d="m -139.64,132.857 h 3.39"
       style="fill:none;stroke:#8b572a;stroke-width:0.3387;stroke-linecap:butt;stroke-linejoin:miter;stroke-miterlimit:10;stroke-dasharray:none;stroke-opacity:1"
       transform="matrix(1.3333333,0,0,-1.3333333,357.996,183.80533)" />
    <g
       id="g15"
       aria-label="3&#10;πi"
       transform="matrix(1.3333333,0,0,1.3333333,171.80933,12.188)">
      <path
         id="path16"
         d="m 1.6400703,-1.6527188 c 0.4570313,0 0.7617188,0.2929688 0.7617188,0.7851563 0,0.50390625 -0.3046875,0.7734375 -0.75,0.7734375 -0.058594,0 -0.65625004,0 -0.90234379,-0.2578125 0.19921875,-0.0351563 0.25781249,-0.1875 0.25781249,-0.3046875 0,-0.1875 -0.14062499,-0.3046875 -0.30468749,-0.3046875 -0.15234375,0 -0.3046875,0.10546875 -0.3046875,0.31640625 0,0.515625 0.5859375,0.75 1.26562499,0.75 0.8203125,0 1.3242188,-0.4921875 1.3242188,-0.97265625 0,-0.4101563 -0.3632813,-0.7617188 -0.9257813,-0.890625 0.5976563,-0.1875 0.75,-0.5625 0.75,-0.84375 0,-0.4101563 -0.5039062,-0.7148438 -1.1367187,-0.7148438 -0.609375,0 -1.10156254,0.2578125 -1.10156254,0.703125 0,0.234375 0.1875,0.2929688 0.28125,0.2929688 0.140625,0 0.28125004,-0.1054688 0.28125004,-0.28125 0,-0.1171875 -0.058594,-0.2578125 -0.23437504,-0.28125 0.21093754,-0.234375 0.65625004,-0.2460938 0.76171874,-0.2460938 0.3632813,0 0.6210938,0.1875 0.6210938,0.5273438 0,0.28125 -0.1875,0.7382812 -0.7148438,0.7734375 -0.140625,0 -0.1523437,0 -0.28125,0.011719 -0.058594,0 -0.1171875,0.011719 -0.1171875,0.082031 0,0.082031 0.058594,0.082031 0.140625,0.082031 z m 0,0"
         style="fill:#8b572a;fill-opacity:1;fill-rule:nonzero;stroke:none" />
      <path
         id="path17"
         d="m 9.2953438,-6.8470547 c 0.082031,0 0.140625,0 0.1992187,-0.046875 0.035156,-0.035156 0.082031,-0.1054687 0.082031,-0.1757812 0,-0.1523438 -0.140625,-0.1523438 -0.234375,-0.1523438 H 7.2094063 c -0.1054688,0 -0.328125,0 -0.6328125,0.2460938 -0.1289063,0.1171875 -0.3515625,0.375 -0.3515625,0.4335937 0,0.070312 0.070312,0.070312 0.09375,0.070312 0.070312,0 0.070312,0 0.1171875,-0.046875 0.1640625,-0.2226562 0.4101562,-0.328125 0.703125,-0.328125 H 7.502375 c -0.1875,0.6210938 -0.4335937,1.1367188 -0.609375,1.453125 -0.082031,0.1289063 -0.082031,0.140625 -0.082031,0.1875 0,0.1171875 0.09375,0.1875 0.1992187,0.1875 0.1992188,0 0.2695313,-0.234375 0.3867188,-0.6328125 0.1171875,-0.3867187 0.2109375,-0.75 0.3164062,-1.1953125 h 0.65625 C 8.346125,-6.7767422 8.2055,-6.2259609 8.2055,-5.8392422 c 0,0.3515625 0.1289063,0.8203125 0.3515625,0.8203125 0.1171875,0 0.2578125,-0.1171875 0.2578125,-0.2460937 0,-0.058594 -0.023437,-0.082031 -0.058594,-0.140625 -0.2226563,-0.375 -0.2226563,-0.8085938 -0.2226563,-0.9023438 0,-0.1640625 0.023437,-0.3632812 0.046875,-0.5390625 z m 2.7685542,-1.3359375 c 0,-0.1171875 -0.08203,-0.2109375 -0.210937,-0.2109375 -0.140625,0 -0.304688,0.1289063 -0.304688,0.2929688 0,0.140625 0.105469,0.2109375 0.210938,0.2109375 0.164062,0 0.304687,-0.140625 0.304687,-0.2929688 z m 0.234375,2.390625 c 0,-0.070312 -0.08203,-0.070312 -0.105468,-0.070312 -0.08203,0 -0.08203,0.023437 -0.117188,0.1171875 -0.08203,0.2695313 -0.304687,0.5507813 -0.550781,0.5507813 -0.117188,0 -0.152344,-0.082031 -0.152344,-0.1875 0,-0.1054688 0.02344,-0.1640625 0.05859,-0.2578125 0.04687,-0.09375 0.08203,-0.1992188 0.105469,-0.2695313 0.02344,-0.035156 0.222656,-0.5039062 0.28125,-0.6796875 0.04687,-0.1054687 0.07031,-0.1640625 0.07031,-0.2460937 0,-0.2460938 -0.222656,-0.4453125 -0.539062,-0.4453125 -0.527344,0 -0.796875,0.6445312 -0.796875,0.7734375 0,0.070312 0.07031,0.070312 0.105468,0.070312 0.08203,0 0.08203,-0.023437 0.105469,-0.1054688 0.117188,-0.3515625 0.351563,-0.5625 0.5625,-0.5625 0.09375,0 0.152344,0.046875 0.152344,0.1875 0,0.011719 0,0.082031 -0.02344,0.1757813 -0.03516,0.09375 -0.257812,0.6210937 -0.328125,0.796875 -0.03516,0.082031 -0.03516,0.09375 -0.117187,0.2578125 -0.02344,0.070312 -0.04687,0.140625 -0.04687,0.2226562 0,0.2578125 0.234375,0.4453125 0.539062,0.4453125 0.515625,0 0.796875,-0.65625 0.796875,-0.7734375 z m 0,0"
         style="fill:#8b572a;fill-opacity:1;fill-rule:nonzero;stroke:none" />
    </g>
    <path
       id="path18"
       d="m -133.859,132.857 h 6.977"
       style="fill:none;stroke:#8b572a;stroke-width:0.3387;stroke-linecap:butt;stroke-linejoin:miter;stroke-miterlimit:10;stroke-dasharray:none;stroke-opacity:1"
       transform="matrix(1.3333333,0,0,-1.3333333,357.996,183.80533)" />
    <path
       id="path19"
       d="M 2.9303047,-0.9613125 H 2.7193672 c -0.011719,0.09375 -0.058594,0.3984375 -0.140625,0.45703125 -0.035156,0.0234375 -0.4570313,0.0234375 -0.5273438,0.0234375 h -0.984375 c 0.328125,-0.24609375 0.703125,-0.515625 0.9960938,-0.71484375 0.4570312,-0.3164063 0.8671875,-0.5976563 0.8671875,-1.125 0,-0.6445313 -0.5976563,-0.9960938 -1.3125,-0.9960938 -0.66796876,0 -1.16015626,0.3867188 -1.16015626,0.8789063 0,0.2578125 0.2109375,0.3046875 0.28125,0.3046875 0.140625,0 0.29296876,-0.09375 0.29296876,-0.2929688 0,-0.1875 -0.12890626,-0.28125 -0.28125001,-0.2929687 0.140625,-0.234375 0.43359371,-0.375 0.76171871,-0.375 0.4804688,0 0.890625,0.28125 0.890625,0.7734375 0,0.421875 -0.2929687,0.7382812 -0.6796875,1.0546875 l -1.20703121,1.03125 c -0.046875,0.046875 -0.0585938,0.046875 -0.0585938,0.0820313 V -3.75e-4 H 2.7662422 Z m 0,0"
       style="fill:#8b572a;fill-opacity:1;fill-rule:nonzero;stroke:none"
       aria-label="2"
       transform="matrix(1.3333333,0,0,1.3333333,181.90933,12.188)" />
    <g
       id="g19"
       aria-label="z&#10;1/3&#10;=e&#10;1"
       transform="matrix(1.3333333,0,0,1.3333333,122.86133,131.036)">
      <path
         id="path20"
         d="M 1.3256797,-0.83266406 C 1.8647422,-1.4068828 2.1577109,-1.6529766 2.5092734,-1.9576641 c 0,-0.011719 0.6210938,-0.5390625 0.984375,-0.9023437 0.9375,-0.9257813 1.1601563,-1.40625 1.1601563,-1.4414063 0,-0.1054687 -0.09375,-0.1054687 -0.1054688,-0.1054687 -0.070312,0 -0.1054687,0.023437 -0.1523437,0.1171875 -0.3046875,0.46875 -0.5039063,0.6328125 -0.75,0.6328125 -0.234375,0 -0.3515625,-0.1523438 -0.5039063,-0.3164063 -0.1875,-0.234375 -0.3632812,-0.4335937 -0.6914062,-0.4335937 -0.75,0 -1.2070313,0.9257812 -1.2070313,1.1367187 0,0.046875 0.035156,0.1171875 0.1171875,0.1171875 0.09375,0 0.1171875,-0.058594 0.140625,-0.1171875 0.1875,-0.4570312 0.7617188,-0.46875 0.84375,-0.46875 0.2109375,0 0.3984375,0.070312 0.6210938,0.1523438 0.3984375,0.1523437 0.515625,0.1523437 0.7734375,0.1523437 -0.3632813,0.421875 -1.1953125,1.1367188 -1.3828125,1.3007813 l -0.9023438,0.8320312 c -0.67968746,0.66796879 -1.01953121,1.24218754 -1.01953121,1.31250004 0,0.09375 0.09375,0.09375 0.1171875,0.09375 0.0820313,0 0.09375,-0.01171875 0.15234375,-0.12890625 0.234375,-0.33984375 0.52734376,-0.609375 0.85546876,-0.609375 0.2226562,0 0.328125,0.0820313 0.5742187,0.375 0.1640625,0.2109375 0.3515625,0.36328125 0.6328125,0.36328125 0.984375,0 1.5703125,-1.26562504 1.5703125,-1.53515624 0,-0.046875 -0.046875,-0.09375 -0.1171875,-0.09375 -0.09375,0 -0.1171875,0.058594 -0.140625,0.1289062 -0.234375,0.64453129 -0.8671875,0.83203129 -1.1953125,0.83203129 -0.1992187,0 -0.3867187,-0.0585938 -0.5859375,-0.12890625 -0.3398437,-0.12890625 -0.4921875,-0.1640625 -0.703125,-0.1640625 -0.023437,0 -0.1757812,0 -0.2695312,0.0234375 z m 0,0"
         style="fill:#8b572a;fill-opacity:1;fill-rule:nonzero;stroke:none" />
      <path
         id="path21"
         d="m 7.4018516,-8.5436016 c 0,-0.1875 -0.011719,-0.1992187 -0.2109375,-0.1992187 -0.4453125,0.4335937 -1.078125,0.4453125 -1.359375,0.4453125 v 0.2460937 c 0.1640625,0 0.6210937,0 1.0078125,-0.1875 v 3.5507813 c 0,0.234375 0,0.328125 -0.6914063,0.328125 H 5.8784141 v 0.2460937 c 0.1289062,-0.011719 0.984375,-0.023437 1.2421875,-0.023437 0.2109375,0 1.0898437,0.011719 1.2421875,0.023437 V -4.3600078 H 8.1049766 c -0.703125,0 -0.703125,-0.09375 -0.703125,-0.328125 z m 0,0"
         style="fill:#8b572a;fill-opacity:1;fill-rule:nonzero;stroke:none" />
      <path
         id="path22"
         d="m 12.534664,-9.0357891 c 0.04687,-0.09375 0.04687,-0.1054687 0.04687,-0.1289062 0,-0.1171875 -0.09375,-0.1757813 -0.175781,-0.1757813 -0.117188,0 -0.152344,0.082031 -0.1875,0.1757813 l -2.6015627,6.4921875 c -0.035156,0.082031 -0.035156,0.09375 -0.035156,0.1289062 0,0.1054688 0.09375,0.1757813 0.1640625,0.1757813 0.1171875,0 0.1523437,-0.082031 0.1875,-0.1757813 z m 0,0"
         style="fill:#8b572a;fill-opacity:1;fill-rule:nonzero;stroke:none" />
      <path
         id="path23"
         d="m 15.021969,-6.4459453 c 0.550781,0 0.9375,0.375 0.9375,1.125 0,0.8671875 -0.503906,1.125 -0.902344,1.125 -0.28125,0 -0.890625,-0.082031 -1.183594,-0.4921875 0.328125,-0.011719 0.398438,-0.2460938 0.398438,-0.3867188 0,-0.2226562 -0.164063,-0.3867187 -0.386719,-0.3867187 -0.1875,0 -0.386719,0.1171875 -0.386719,0.4101562 0,0.65625 0.726563,1.078125 1.570313,1.078125 0.972656,0 1.640625,-0.6445312 1.640625,-1.3476562 0,-0.5390625 -0.445313,-1.0898438 -1.21875,-1.2421875 0.738281,-0.2695313 0.996094,-0.796875 0.996094,-1.21875 0,-0.5507813 -0.632813,-0.9609375 -1.40625,-0.9609375 -0.773438,0 -1.359375,0.375 -1.359375,0.9375 0,0.234375 0.152343,0.3632812 0.363281,0.3632812 0.210937,0 0.351562,-0.1640625 0.351562,-0.3515625 0,-0.1992187 -0.140625,-0.3515625 -0.351562,-0.3632812 0.234375,-0.3046875 0.714844,-0.3867188 0.972656,-0.3867188 0.316406,0 0.761719,0.1523438 0.761719,0.7617188 0,0.2929687 -0.105469,0.609375 -0.28125,0.8320312 -0.234375,0.2578125 -0.421875,0.28125 -0.773438,0.2929688 -0.175781,0.023437 -0.1875,0.023437 -0.222656,0.023437 -0.01172,0 -0.07031,0.011719 -0.07031,0.09375 0,0.09375 0.05859,0.09375 0.175781,0.09375 z m 0,0"
         style="fill:#8b572a;fill-opacity:1;fill-rule:nonzero;stroke:none" />
      <path
         id="path24"
         d="m 27.203609,-3.2584453 c 0.152344,0 0.339844,0 0.339844,-0.1992188 0,-0.1992187 -0.1875,-0.1992187 -0.328125,-0.1992187 h -5.964844 c -0.140625,0 -0.328125,0 -0.328125,0.1992187 0,0.1992188 0.1875,0.1992188 0.339844,0.1992188 z m 0.01172,1.9335937 c 0.140625,0 0.328125,0 0.328125,-0.1992187 0,-0.1992188 -0.1875,-0.1992188 -0.339844,-0.1992188 h -5.941406 c -0.152344,0 -0.339844,0 -0.339844,0.1992188 0,0.1992187 0.1875,0.1992187 0.328125,0.1992187 z m 0,0"
         style="fill:#8b572a;fill-opacity:1;fill-rule:nonzero;stroke:none" />
      <path
         id="path25"
         d="m 32.740719,-2.2975078 c 0.292969,0 1.03125,-0.023437 1.523437,-0.234375 0.703125,-0.2929688 0.75,-0.890625 0.75,-1.0195313 0,-0.4453125 -0.386718,-0.8554687 -1.066406,-0.8554687 -1.113281,0 -2.613281,0.9726562 -2.613281,2.7070312 0,1.01953129 0.585937,1.80468754 1.570312,1.80468754 1.417969,0 2.261719,-1.0546875 2.261719,-1.17187504 0,-0.058594 -0.07031,-0.1289062 -0.128906,-0.1289062 -0.04687,0 -0.07031,0.023437 -0.128906,0.09375 -0.785157,0.99609374 -1.875,0.99609374 -1.992188,0.99609374 -0.773437,0 -0.867187,-0.84375 -0.867187,-1.16015624 0,-0.1171875 0.01172,-0.4335938 0.164062,-1.03125 z m -0.46875,-0.2226563 c 0.386719,-1.5117187 1.417969,-1.6640625 1.675781,-1.6640625 0.46875,0 0.738281,0.2929688 0.738281,0.6328125 0,1.03125 -1.59375,1.03125 -2.003906,1.03125 z m 0,0"
         style="fill:#8b572a;fill-opacity:1;fill-rule:nonzero;stroke:none" />
      <path
         id="path26"
         d="m 38.690914,-9.9527813 c 0,-0.1523437 -0.01172,-0.1523437 -0.175781,-0.1523437 -0.351563,0.3164062 -0.902344,0.3164062 -1.007813,0.3164062 h -0.08203 v 0.2226563 h 0.08203 c 0.117188,0 0.433594,-0.011719 0.726563,-0.140625 v 2.484375 c 0,0.1640625 0,0.2109375 -0.527344,0.2109375 h -0.246094 v 0.2226562 c 0.269532,-0.023437 0.714844,-0.023437 1.007813,-0.023437 0.28125,0 0.726562,0 0.996094,0.023437 V -7.011375 h -0.246094 c -0.527344,0 -0.527344,-0.046875 -0.527344,-0.2109375 z m 0,0"
         style="fill:#8b572a;fill-opacity:1;fill-rule:nonzero;stroke:none" />
    </g>
    <path
       id="path27"
       d="m -139.64,132.857 h 3.39"
       style="fill:none;stroke:#8b572a;stroke-width:0.3387;stroke-linecap:butt;stroke-linejoin:miter;stroke-miterlimit:10;stroke-dasharray:none;stroke-opacity:1"
       transform="matrix(1.3333333,0,0,-1.3333333,357.996,300.36933)" />
    <g
       id="g27"
       aria-label="3&#10;3&#10;πi"
       transform="matrix(1.3333333,0,0,1.3333333,171.80933,128.752)">
      <path
         id="path28"
         d="m 1.6400703,-1.6509141 c 0.4570313,0 0.7617188,0.2929688 0.7617188,0.78515629 0,0.50390625 -0.3046875,0.7734375 -0.75,0.7734375 -0.058594,0 -0.65625004,0 -0.90234379,-0.2578125 0.19921875,-0.0351563 0.25781249,-0.1875 0.25781249,-0.3046875 0,-0.1875 -0.14062499,-0.3046875 -0.30468749,-0.3046875 -0.15234375,0 -0.3046875,0.10546875 -0.3046875,0.31640625 0,0.515625 0.5859375,0.75 1.26562499,0.75 0.8203125,0 1.3242188,-0.4921875 1.3242188,-0.97265625 0,-0.41015629 -0.3632813,-0.76171879 -0.9257813,-0.89062499 0.5976563,-0.1875 0.75,-0.5625 0.75,-0.84375 0,-0.4101563 -0.5039062,-0.7148438 -1.1367187,-0.7148438 -0.609375,0 -1.10156254,0.2578125 -1.10156254,0.703125 0,0.234375 0.1875,0.2929688 0.28125,0.2929688 0.140625,0 0.28125004,-0.1054688 0.28125004,-0.28125 0,-0.1171875 -0.058594,-0.2578125 -0.23437504,-0.28125 0.21093754,-0.234375 0.65625004,-0.2460938 0.76171874,-0.2460938 0.3632813,0 0.6210938,0.1875 0.6210938,0.5273438 0,0.28125 -0.1875,0.7382812 -0.7148438,0.7734375 -0.140625,0 -0.1523437,0 -0.28125,0.011719 -0.058594,0 -0.1171875,0.011719 -0.1171875,0.082031 0,0.082031 0.058594,0.082031 0.140625,0.082031 z m 5.7802735,-5.0800781 c 0.4570312,0 0.7617187,0.2929688 0.7617187,0.7851563 0,0.5039062 -0.3046875,0.7734375 -0.75,0.7734375 -0.058594,0 -0.65625,0 -0.9023437,-0.2578125 0.1992187,-0.035156 0.2578125,-0.1875 0.2578125,-0.3046875 0,-0.1875 -0.140625,-0.3046875 -0.3046875,-0.3046875 -0.1523438,0 -0.3046875,0.1054687 -0.3046875,0.3164062 0,0.515625 0.5859375,0.75 1.265625,0.75 0.8203125,0 1.3242187,-0.4921875 1.3242187,-0.9726562 0,-0.4101563 -0.3632812,-0.7617188 -0.9257812,-0.890625 0.5976562,-0.1875 0.75,-0.5625 0.75,-0.84375 0,-0.4101563 -0.5039063,-0.7148438 -1.1367188,-0.7148438 -0.609375,0 -1.1015625,0.2578125 -1.1015625,0.703125 0,0.234375 0.1875,0.2929688 0.28125,0.2929688 0.140625,0 0.28125,-0.1054688 0.28125,-0.28125 0,-0.1171875 -0.058594,-0.2578125 -0.234375,-0.28125 0.2109375,-0.234375 0.65625,-0.2460938 0.7617188,-0.2460938 0.3632812,0 0.6210937,0.1875 0.6210937,0.5273438 0,0.28125 -0.1875,0.7382812 -0.7148437,0.7734375 -0.140625,0 -0.1523438,0 -0.28125,0.011719 -0.058594,0 -0.1171875,0.011719 -0.1171875,0.082031 0,0.082031 0.058594,0.082031 0.140625,0.082031 z m 0,0"
         style="fill:#8b572a;fill-opacity:1;fill-rule:nonzero;stroke:none" />
      <path
         id="path29"
         d="m 12.687922,-6.84525 c 0.08203,0 0.140625,0 0.199219,-0.046875 0.03516,-0.035156 0.08203,-0.1054688 0.08203,-0.1757813 0,-0.1523437 -0.140625,-0.1523437 -0.234375,-0.1523437 h -2.132813 c -0.105468,0 -0.328125,0 -0.6328121,0.2460937 -0.1289063,0.1171875 -0.3515625,0.375 -0.3515625,0.4335938 0,0.070312 0.070312,0.070312 0.09375,0.070312 0.070312,0 0.070312,0 0.1171875,-0.046875 0.1640625,-0.2226563 0.4101561,-0.328125 0.7031251,-0.328125 h 0.363281 c -0.1875,0.6210937 -0.433594,1.1367187 -0.609375,1.453125 -0.08203,0.1289062 -0.08203,0.140625 -0.08203,0.1875 0,0.1171875 0.09375,0.1875 0.199219,0.1875 0.199218,0 0.269531,-0.234375 0.386718,-0.6328125 0.117188,-0.3867188 0.210938,-0.75 0.316407,-1.1953125 h 0.65625 c -0.02344,0.070312 -0.164063,0.6210937 -0.164063,1.0078125 0,0.3515625 0.128906,0.8203125 0.351563,0.8203125 0.117187,0 0.257812,-0.1171875 0.257812,-0.2460938 0,-0.058594 -0.02344,-0.082031 -0.05859,-0.140625 -0.222656,-0.375 -0.222656,-0.8085937 -0.222656,-0.9023437 0,-0.1640625 0.02344,-0.3632813 0.04687,-0.5390625 z m 2.765625,-1.3359375 c 0,-0.1171875 -0.08203,-0.2109375 -0.210938,-0.2109375 -0.140625,0 -0.304687,0.1289062 -0.304687,0.2929687 0,0.140625 0.105469,0.2109375 0.210937,0.2109375 0.164063,0 0.304688,-0.140625 0.304688,-0.2929687 z m 0.234375,2.390625 c 0,-0.070312 -0.08203,-0.070312 -0.105469,-0.070312 -0.08203,0 -0.08203,0.023437 -0.117187,0.1171875 -0.08203,0.2695312 -0.304688,0.5507812 -0.550782,0.5507812 -0.117187,0 -0.152343,-0.082031 -0.152343,-0.1875 0,-0.1054687 0.02344,-0.1640625 0.05859,-0.2578125 0.04687,-0.09375 0.08203,-0.1992187 0.105469,-0.2695312 0.02344,-0.035156 0.222656,-0.5039063 0.28125,-0.6796875 0.04687,-0.1054688 0.07031,-0.1640625 0.07031,-0.2460938 0,-0.2460937 -0.222657,-0.4453125 -0.539063,-0.4453125 -0.527344,0 -0.796875,0.6445313 -0.796875,0.7734375 0,0.070312 0.07031,0.070312 0.105469,0.070312 0.08203,0 0.08203,-0.023437 0.105469,-0.1054687 0.117187,-0.3515625 0.351562,-0.5625 0.5625,-0.5625 0.09375,0 0.152343,0.046875 0.152343,0.1875 0,0.011719 0,0.082031 -0.02344,0.1757812 -0.03516,0.09375 -0.257813,0.6210938 -0.328125,0.796875 -0.03516,0.082031 -0.03516,0.09375 -0.117188,0.2578125 -0.02344,0.070312 -0.04687,0.140625 -0.04687,0.2226563 0,0.2578125 0.234375,0.4453125 0.539063,0.4453125 0.515625,0 0.796875,-0.65625 0.796875,-0.7734375 z m 0,0"
         style="fill:#8b572a;fill-opacity:1;fill-rule:nonzero;stroke:none" />
    </g>
    <path
       id="path30"
       d="m -133.859,132.857 h 10.367"
       style="fill:none;stroke:#8b572a;stroke-width:0.3387;stroke-linecap:butt;stroke-linejoin:miter;stroke-miterlimit:10;stroke-dasharray:none;stroke-opacity:1"
       transform="matrix(1.3333333,0,0,-1.3333333,357.996,300.36933)" />
    <path
       id="path31"
       d="M 2.9286641,-0.95950781 H 2.7177266 c -0.011719,0.09375 -0.058594,0.3984375 -0.140625,0.45703125 -0.035156,0.0234375 -0.4570313,0.0234375 -0.5273438,0.0234375 h -0.984375 c 0.328125,-0.24609375 0.703125,-0.515625 0.9960938,-0.71484374 0.4570312,-0.3164063 0.8671875,-0.5976563 0.8671875,-1.125 0,-0.6445313 -0.5976563,-0.9960938 -1.3125,-0.9960938 -0.66796879,0 -1.16015629,0.3867188 -1.16015629,0.8789063 0,0.2578125 0.2109375,0.3046875 0.28125,0.3046875 0.140625,0 0.29296879,-0.09375 0.29296879,-0.2929688 0,-0.1875 -0.12890629,-0.28125 -0.28125004,-0.2929687 0.140625,-0.234375 0.43359374,-0.375 0.76171874,-0.375 0.4804688,0 0.890625,0.28125 0.890625,0.7734375 0,0.421875 -0.2929687,0.7382812 -0.6796875,1.0546875 l -1.20703124,1.03124999 c -0.046875,0.046875 -0.0585938,0.046875 -0.0585938,0.0820313 v 0.1523437 H 2.7646016 Z m 0,0"
       style="fill:#8b572a;fill-opacity:1;fill-rule:nonzero;stroke:none"
       aria-label="2"
       transform="matrix(1.3333333,0,0,1.3333333,184.16933,128.752)" />
    <g
       id="g31"
       aria-label="z&#10;1/3&#10;=e&#10;1"
       transform="matrix(1.3333333,0,0,1.3333333,5.4226667,66.477333)">
      <path
         id="path32"
         d="M 1.323625,-0.83260937 C 1.8626875,-1.4068281 2.1556563,-1.6529219 2.5072188,-1.9576094 c 0,-0.011719 0.6210937,-0.5390625 0.984375,-0.9023437 0.9375,-0.9257813 1.1601562,-1.40625 1.1601562,-1.4414063 0,-0.1054687 -0.09375,-0.1054687 -0.1054687,-0.1054687 -0.070312,0 -0.1054688,0.023437 -0.1523438,0.1171875 -0.3046875,0.46875 -0.5039062,0.6328125 -0.75,0.6328125 -0.234375,0 -0.3515625,-0.1523438 -0.5039062,-0.3164063 -0.1875,-0.234375 -0.3632813,-0.4335937 -0.6914063,-0.4335937 -0.75,0 -1.2070312,0.9257812 -1.2070312,1.1367187 0,0.046875 0.035156,0.1171875 0.1171875,0.1171875 0.09375,0 0.1171875,-0.058594 0.140625,-0.1171875 0.1875,-0.4570312 0.7617187,-0.46875 0.84375,-0.46875 0.2109375,0 0.3984375,0.070312 0.6210937,0.1523438 0.3984375,0.1523437 0.515625,0.1523437 0.7734375,0.1523437 -0.3632812,0.421875 -1.1953125,1.1367188 -1.3828125,1.3007813 L 1.4525313,-1.3013594 C 0.77284375,-0.63339062 0.433,-0.05917187 0.433,0.01114063 c 0,0.09375 0.09375,0.09375 0.1171875,0.09375 0.0820313,0 0.09375,-0.01171875 0.15234375,-0.12890625 0.234375,-0.33984375 0.52734375,-0.609375 0.85546875,-0.609375 0.2226563,0 0.328125,0.0820313 0.5742188,0.375 0.1640625,0.2109375 0.3515625,0.36328125 0.6328125,0.36328125 0.984375,0 1.5703125,-1.26562503 1.5703125,-1.53515623 0,-0.046875 -0.046875,-0.09375 -0.1171875,-0.09375 -0.09375,0 -0.1171875,0.058594 -0.140625,0.1289062 -0.234375,0.64453128 -0.8671875,0.83203128 -1.1953125,0.83203128 -0.1992188,0 -0.3867188,-0.0585938 -0.5859375,-0.12890625 -0.3398438,-0.12890625 -0.4921875,-0.1640625 -0.703125,-0.1640625 -0.023437,0 -0.1757813,0 -0.2695313,0.0234375 z m 0,0"
         style="fill:#8b572a;fill-opacity:1;fill-rule:nonzero;stroke:none" />
      <path
         id="path33"
         d="m 7.4027266,-8.5435469 c 0,-0.1875 -0.011719,-0.1992187 -0.2109375,-0.1992187 -0.4453125,0.4335937 -1.078125,0.4453125 -1.359375,0.4453125 v 0.2460937 c 0.1640625,0 0.6210937,0 1.0078125,-0.1875 v 3.5507813 c 0,0.234375 0,0.328125 -0.6914063,0.328125 H 5.8792891 v 0.2460937 c 0.1289062,-0.011719 0.984375,-0.023437 1.2421875,-0.023437 0.2109375,0 1.0898437,0.011719 1.2421875,0.023437 V -4.3599531 H 8.1058516 c -0.703125,0 -0.703125,-0.09375 -0.703125,-0.328125 z m 0,0"
         style="fill:#8b572a;fill-opacity:1;fill-rule:nonzero;stroke:none" />
      <path
         id="path34"
         d="m 12.535539,-9.0357344 c 0.04687,-0.09375 0.04687,-0.1054687 0.04687,-0.1289062 0,-0.1171875 -0.09375,-0.1757813 -0.175781,-0.1757813 -0.117188,0 -0.152344,0.082031 -0.1875,0.1757813 l -2.6015627,6.4921875 c -0.035156,0.082031 -0.035156,0.09375 -0.035156,0.1289062 0,0.1054688 0.09375,0.1757813 0.1640625,0.1757813 0.1171875,0 0.1523437,-0.082031 0.1875,-0.1757813 z m 0,0"
         style="fill:#8b572a;fill-opacity:1;fill-rule:nonzero;stroke:none" />
      <path
         id="path35"
         d="m 15.022844,-6.4458906 c 0.550781,0 0.9375,0.375 0.9375,1.125 0,0.8671875 -0.503906,1.125 -0.902344,1.125 -0.28125,0 -0.890625,-0.082031 -1.183594,-0.4921875 0.328125,-0.011719 0.398438,-0.2460938 0.398438,-0.3867188 0,-0.2226562 -0.164063,-0.3867187 -0.386719,-0.3867187 -0.1875,0 -0.386719,0.1171875 -0.386719,0.4101562 0,0.65625 0.726563,1.078125 1.570313,1.078125 0.972656,0 1.640625,-0.6445312 1.640625,-1.3476562 0,-0.5390625 -0.445313,-1.0898438 -1.21875,-1.2421875 0.738281,-0.2695313 0.996094,-0.796875 0.996094,-1.21875 0,-0.5507813 -0.632813,-0.9609375 -1.40625,-0.9609375 -0.773438,0 -1.359375,0.375 -1.359375,0.9375 0,0.234375 0.152343,0.3632812 0.363281,0.3632812 0.210937,0 0.351562,-0.1640625 0.351562,-0.3515625 0,-0.1992187 -0.140625,-0.3515625 -0.351562,-0.3632812 0.234375,-0.3046875 0.714844,-0.3867188 0.972656,-0.3867188 0.316406,0 0.761719,0.1523438 0.761719,0.7617188 0,0.2929687 -0.105469,0.609375 -0.28125,0.8320312 -0.234375,0.2578125 -0.421875,0.28125 -0.773438,0.2929688 -0.175781,0.023437 -0.1875,0.023437 -0.222656,0.023437 -0.01172,0 -0.07031,0.011719 -0.07031,0.09375 0,0.09375 0.05859,0.09375 0.175781,0.09375 z m 0,0"
         style="fill:#8b572a;fill-opacity:1;fill-rule:nonzero;stroke:none" />
      <path
         id="path36"
         d="m 27.204484,-3.2583906 c 0.152344,0 0.339844,0 0.339844,-0.1992188 0,-0.1992187 -0.1875,-0.1992187 -0.328125,-0.1992187 h -5.964844 c -0.140625,0 -0.328125,0 -0.328125,0.1992187 0,0.1992188 0.1875,0.1992188 0.339844,0.1992188 z m 0.01172,1.9335937 c 0.140625,0 0.328125,0 0.328125,-0.1992187 0,-0.1992188 -0.1875,-0.1992188 -0.339844,-0.1992188 h -5.941406 c -0.152344,0 -0.339844,0 -0.339844,0.1992188 0,0.1992187 0.1875,0.1992187 0.328125,0.1992187 z m 0,0"
         style="fill:#8b572a;fill-opacity:1;fill-rule:nonzero;stroke:none" />
      <path
         id="path37"
         d="m 32.741594,-2.2974531 c 0.292969,0 1.03125,-0.023437 1.523437,-0.234375 0.703125,-0.2929688 0.75,-0.890625 0.75,-1.0195313 0,-0.4453125 -0.386718,-0.8554687 -1.066406,-0.8554687 -1.113281,0 -2.613281,0.9726562 -2.613281,2.7070312 0,1.01953128 0.585937,1.80468753 1.570312,1.80468753 1.417969,0 2.261719,-1.0546875 2.261719,-1.17187503 0,-0.058594 -0.07031,-0.1289062 -0.128906,-0.1289062 -0.04687,0 -0.07031,0.023437 -0.128906,0.09375 -0.785157,0.99609373 -1.875,0.99609373 -1.992188,0.99609373 -0.773437,0 -0.867187,-0.84375 -0.867187,-1.16015623 0,-0.1171875 0.01172,-0.4335938 0.164062,-1.03125 z m -0.46875,-0.2226563 c 0.386719,-1.5117187 1.417969,-1.6640625 1.675781,-1.6640625 0.46875,0 0.738281,0.2929688 0.738281,0.6328125 0,1.03125 -1.59375,1.03125 -2.003906,1.03125 z m 0,0"
         style="fill:#8b572a;fill-opacity:1;fill-rule:nonzero;stroke:none" />
      <path
         id="path38"
         d="m 38.691789,-9.9527266 c 0,-0.1523434 -0.01172,-0.1523434 -0.175781,-0.1523434 -0.351563,0.3164059 -0.902344,0.3164059 -1.007813,0.3164059 h -0.08203 v 0.2226563 h 0.08203 c 0.117188,0 0.433594,-0.011719 0.726563,-0.140625 v 2.484375 c 0,0.1640625 0,0.2109375 -0.527344,0.2109375 H 37.46132 v 0.2226562 c 0.269532,-0.023437 0.714844,-0.023437 1.007813,-0.023437 0.28125,0 0.726562,0 0.996094,0.023437 v -0.2226562 h -0.246094 c -0.527344,0 -0.527344,-0.046875 -0.527344,-0.2109375 z m 0,0"
         style="fill:#8b572a;fill-opacity:1;fill-rule:nonzero;stroke:none" />
    </g>
    <path
       id="path39"
       d="m -139.64,132.857 h 3.39"
       style="fill:none;stroke:#8b572a;stroke-width:0.3387;stroke-linecap:butt;stroke-linejoin:miter;stroke-miterlimit:10;stroke-dasharray:none;stroke-opacity:1"
       transform="matrix(1.3333333,0,0,-1.3333333,240.55733,235.81067)" />
    <g
       id="g39"
       aria-label="3&#10;πi"
       transform="matrix(1.3333333,0,0,1.3333333,54.370667,64.193333)">
      <path
         id="path40"
         d="m 1.6409453,-1.6537891 c 0.4570313,0 0.7617188,0.2929688 0.7617188,0.78515629 0,0.50390625 -0.3046875,0.7734375 -0.75,0.7734375 -0.058594,0 -0.65625004,0 -0.90234379,-0.2578125 0.19921875,-0.0351563 0.25781249,-0.1875 0.25781249,-0.3046875 0,-0.1875 -0.14062499,-0.3046875 -0.30468749,-0.3046875 -0.15234375,0 -0.3046875,0.10546875 -0.3046875,0.31640625 0,0.515625 0.5859375,0.75 1.26562499,0.75 0.8203125,0 1.3242188,-0.4921875 1.3242188,-0.97265625 0,-0.41015629 -0.3632813,-0.76171879 -0.9257813,-0.89062499 0.5976563,-0.1875 0.75,-0.5625 0.75,-0.84375 0,-0.4101563 -0.5039062,-0.7148438 -1.1367187,-0.7148438 -0.609375,0 -1.10156254,0.2578125 -1.10156254,0.703125 0,0.234375 0.1875,0.2929688 0.28125,0.2929688 0.140625,0 0.28125004,-0.1054688 0.28125004,-0.28125 0,-0.1171875 -0.058594,-0.2578125 -0.23437504,-0.28125 0.21093754,-0.234375 0.65625004,-0.2460938 0.76171874,-0.2460938 0.3632813,0 0.6210938,0.1875 0.6210938,0.5273438 0,0.28125 -0.1875,0.7382812 -0.7148438,0.7734375 -0.140625,0 -0.1523437,0 -0.28125,0.011719 -0.058594,0 -0.1171875,0.011719 -0.1171875,0.082031 0,0.082031 0.058594,0.082031 0.140625,0.082031 z m 0,0"
         style="fill:#8b572a;fill-opacity:1;fill-rule:nonzero;stroke:none" />
      <path
         id="path41"
         d="m 6.75325,-4.9321094 h 0.8320312 c -0.1054687,0.421875 -0.2578125,1.0546875 -0.2578125,1.6054688 0,0.28125 0.035156,0.46875 0.070312,0.6210937 0.1171875,0.3515625 0.2109375,0.375 0.3164063,0.375 0.1640625,0 0.328125,-0.1523437 0.328125,-0.3164062 0,-0.058594 -0.011719,-0.082031 -0.058594,-0.1523438 -0.1289062,-0.2578125 -0.2578125,-0.65625 -0.2578125,-1.2304687 0,-0.1289063 0,-0.4101563 0.1054688,-0.9023438 h 0.8671875 c 0.1289062,0 0.1875,0 0.2578125,-0.058594 0.09375,-0.070312 0.1171875,-0.1757813 0.1171875,-0.2109375 0,-0.1992188 -0.1757813,-0.1992188 -0.2929688,-0.1992188 H 6.143875 c -0.28125,0 -0.4804688,0.058594 -0.796875,0.3515625 -0.1757813,0.1640625 -0.4453125,0.5390625 -0.4453125,0.5976563 0,0.082031 0.09375,0.082031 0.1171875,0.082031 0.070312,0 0.082031,-0.011719 0.1289062,-0.070312 0.3515625,-0.4921875 0.7851563,-0.4921875 0.9375,-0.4921875 h 0.421875 c -0.2109375,0.7617188 -0.5859375,1.59375 -0.796875,2.0039063 -0.046875,0.09375 -0.1171875,0.2460937 -0.140625,0.2695312 0,0.023437 -0.011719,0.058594 -0.011719,0.1054688 0,0.1054687 0.082031,0.2226562 0.2460937,0.2226562 0.2695313,0 0.3515625,-0.3164062 0.515625,-0.9375 z m 4.998047,-1.828125 c 0,-0.1054687 -0.08203,-0.2578125 -0.28125,-0.2578125 -0.1875,0 -0.386719,0.1757813 -0.386719,0.375 0,0.1171875 0.08203,0.2695313 0.269531,0.2695313 0.210938,0 0.398438,-0.1992188 0.398438,-0.3867188 z m -1.429688,3.5390625 c -0.02344,0.09375 -0.05859,0.1757813 -0.05859,0.2929688 0,0.328125 0.28125,0.5976562 0.667968,0.5976562 0.691407,0 0.996094,-0.9609375 0.996094,-1.0664062 0,-0.09375 -0.08203,-0.09375 -0.105469,-0.09375 -0.105468,0 -0.105468,0.046875 -0.140625,0.1171875 -0.152343,0.5625 -0.457031,0.84375 -0.738281,0.84375 -0.140625,0 -0.175781,-0.082031 -0.175781,-0.2460938 0,-0.1523437 0.05859,-0.2929687 0.117187,-0.4453125 0.07031,-0.1875 0.140625,-0.375 0.222657,-0.5507812 0.05859,-0.1640625 0.316406,-0.8085938 0.339843,-0.890625 0.02344,-0.070312 0.04687,-0.1523438 0.04687,-0.2226563 0,-0.328125 -0.28125,-0.5859375 -0.667968,-0.5859375 -0.691407,0 -1.0078129,0.9492188 -1.0078129,1.0664063 0,0.082031 0.09375,0.082031 0.1171875,0.082031 0.09375,0 0.1054684,-0.035156 0.1289064,-0.1054687 0.175781,-0.5976563 0.480469,-0.8554688 0.738281,-0.8554688 0.117188,0 0.175781,0.058594 0.175781,0.2460938 0,0.1640625 -0.03516,0.2695312 -0.210937,0.703125 z m 0,0"
         style="fill:#8b572a;fill-opacity:1;fill-rule:nonzero;stroke:none" />
    </g>
  </g>
</svg>
