<?xml version="1.0" encoding="UTF-8" standalone="no"?>
<!-- Created with Inkscape (http://www.inkscape.org/) -->

<svg
   version="1.1"
   id="svg1"
   width="297.61334"
   height="104.32"
   viewBox="0 0 297.61334 104.32"
   sodipodi:docname="1d-heat-conducter.pdf"
   xmlns:inkscape="http://www.inkscape.org/namespaces/inkscape"
   xmlns:sodipodi="http://sodipodi.sourceforge.net/DTD/sodipodi-0.dtd"
   xmlns="http://www.w3.org/2000/svg"
   xmlns:svg="http://www.w3.org/2000/svg">
  <defs
     id="defs1" />
  <sodipodi:namedview
     id="namedview1"
     pagecolor="#ffffff"
     bordercolor="#000000"
     borderopacity="0.25"
     inkscape:showpageshadow="2"
     inkscape:pageopacity="0.0"
     inkscape:pagecheckerboard="0"
     inkscape:deskcolor="#d1d1d1">
    <inkscape:page
       x="0"
       y="0"
       inkscape:label="1"
       id="page1"
       width="297.61334"
       height="104.32"
       margin="0"
       bleed="0" />
  </sodipodi:namedview>
  <g
     id="g1"
     inkscape:groupmode="layer"
     inkscape:label="1">
    <path
       id="path1"
       d="m 20.1746,-90.41212 h 187.83304 v -13.7486 H 20.1746 Z"
       style="fill:#f5a623;fill-opacity:1;fill-rule:nonzero;stroke:#f5a623;stroke-width:0.74721;stroke-linecap:butt;stroke-linejoin:miter;stroke-miterlimit:10;stroke-dasharray:none;stroke-opacity:1"
       transform="matrix(1.3333333,0,0,-1.3333333,-21.738667,-85.32)" />
    <path
       id="path2"
       d="M 20.1746,-133.30182 H 206.88683"
       style="fill:none;stroke:#9b9b9b;stroke-width:0.74721;stroke-linecap:butt;stroke-linejoin:miter;stroke-miterlimit:10;stroke-dasharray:none;stroke-opacity:1"
       transform="matrix(1.3333333,0,0,-1.3333333,-21.738667,-85.32)" />
    <path
       id="path3"
       d="m 204.00262,-137.14993 4.00502,3.84811 -4.00502,3.8481 1.34496,-3.8481 z"
       style="fill:#9b9b9b;fill-opacity:1;fill-rule:nonzero;stroke:#000000;stroke-width:0.0797;stroke-linecap:butt;stroke-linejoin:miter;stroke-miterlimit:10;stroke-dasharray:none;stroke-opacity:0"
       transform="matrix(1.3333333,0,0,-1.3333333,-21.738667,-85.32)" />
    <path
       id="path4"
       d="m 208.00764,-92.65375 v -9.26535"
       style="fill:none;stroke:#8b572a;stroke-width:0.74721;stroke-linecap:butt;stroke-linejoin:miter;stroke-miterlimit:10;stroke-dasharray:none;stroke-opacity:1"
       transform="matrix(1.3333333,0,0,-1.3333333,-21.738667,-85.32)" />
    <path
       id="path5"
       d="m 206.56554,-98.1532 1.4421,-6.00752 1.44211,6.00752 -1.44211,-2.01745 z"
       style="fill:#8b572a;fill-opacity:1;fill-rule:nonzero;stroke:#000000;stroke-width:0.0797;stroke-linecap:butt;stroke-linejoin:miter;stroke-miterlimit:10;stroke-dasharray:none;stroke-opacity:0"
       transform="matrix(1.3333333,0,0,-1.3333333,-21.738667,-85.32)" />
    <path
       id="path6"
       d="m 209.44975,-96.41965 -1.44211,6.00753 -1.4421,-6.00753 1.4421,2.01746 z"
       style="fill:#8b572a;fill-opacity:1;fill-rule:nonzero;stroke:#000000;stroke-width:0.0797;stroke-linecap:butt;stroke-linejoin:miter;stroke-miterlimit:10;stroke-dasharray:none;stroke-opacity:0"
       transform="matrix(1.3333333,0,0,-1.3333333,-21.738667,-85.32)" />
    <path
       id="path7"
       d="M 21.66902,-77.7096 H 206.51323"
       style="fill:none;stroke:#417505;stroke-width:1.49442;stroke-linecap:butt;stroke-linejoin:miter;stroke-miterlimit:10;stroke-dasharray:none;stroke-opacity:1"
       transform="matrix(1.3333333,0,0,-1.3333333,-21.738667,-85.32)" />
    <path
       id="path8"
       d="m 203.00136,-82.51413 5.00628,4.80453 -5.00628,4.81203 1.68121,-4.81203 z"
       style="fill:#417505;fill-opacity:1;fill-rule:nonzero;stroke:#000000;stroke-width:0.0797;stroke-linecap:butt;stroke-linejoin:miter;stroke-miterlimit:10;stroke-dasharray:none;stroke-opacity:0"
       transform="matrix(1.3333333,0,0,-1.3333333,-21.738667,-85.32)" />
    <path
       id="path9"
       d="m 25.18088,-72.90504 -5.00628,-4.80456 5.00628,-4.812 -1.68122,4.812 z"
       style="fill:#417505;fill-opacity:1;fill-rule:nonzero;stroke:#000000;stroke-width:0.0797;stroke-linecap:butt;stroke-linejoin:miter;stroke-miterlimit:10;stroke-dasharray:none;stroke-opacity:0"
       transform="matrix(1.3333333,0,0,-1.3333333,-21.738667,-85.32)" />
    <path
       id="path10"
       d="m 3.5051484,-3.1766172 c 0.070312,-0.2695312 0.3046875,-1.2304687 1.0429688,-1.2304687 0.046875,0 0.3046875,0 0.5273437,0.1289062 -0.2929687,0.058594 -0.5039062,0.3164063 -0.5039062,0.5742188 0,0.1640625 0.1171875,0.3632812 0.3984375,0.3632812 0.234375,0 0.5625,-0.1875 0.5625,-0.609375 0,-0.5390625 -0.6210938,-0.6914062 -0.9726563,-0.6914062 -0.609375,0 -0.9726562,0.5507812 -1.1015625,0.796875 -0.2695312,-0.6914063 -0.8320312,-0.796875 -1.1367187,-0.796875 -1.0898438,0 -1.68750001,1.359375 -1.68750001,1.6171875 0,0.1054687 0.10546875,0.1054687 0.12890625,0.1054687 0.0820313,0 0.10546875,-0.023437 0.12890625,-0.1171875 0.36328121,-1.1132812 1.05468751,-1.3710937 1.40625001,-1.3710937 0.1992187,0 0.5742187,0.09375 0.5742187,0.703125 0,0.3164062 -0.1875,1.03125 -0.5742187,2.4960937 -0.1640625,0.65625001 -0.5273438,1.08984376 -0.9960938,1.08984376 -0.058594,0 -0.30468746,0 -0.52734371,-0.140625 0.26953121,-0.046875 0.49218751,-0.26953125 0.49218751,-0.5625 0,-0.28124996 -0.2226563,-0.36328126 -0.38671876,-0.36328126 -0.31640625,0 -0.57421875,0.26953126 -0.57421875,0.60937501 0,0.48046875 0.52734375,0.69140625 0.98437501,0.69140625 0.6914062,0 1.078125,-0.73828125 1.1015625,-0.796875 0.1289062,0.38671875 0.5039062,0.796875 1.1367187,0.796875 1.078125,0 1.6757813,-1.35937496 1.6757813,-1.61718746 0,-0.1054688 -0.09375,-0.1054688 -0.1171875,-0.1054688 -0.09375,0 -0.1171875,0.035156 -0.140625,0.1171875 -0.3515625,1.12500001 -1.0546875,1.37109376 -1.3945313,1.37109376 -0.4101562,0 -0.5742187,-0.33984375 -0.5742187,-0.69140625 0,-0.23437501 0.058594,-0.45703121 0.1757812,-0.92578121 z m 0,0"
       style="fill:#9b9b9b;fill-opacity:1;fill-rule:nonzero;stroke:none"
       aria-label="x"
       transform="matrix(1.3333333,0,0,1.3333333,258.096,103.32533)" />
    <path
       id="path11"
       d="m 5.8485469,-5.9881641 c -0.2988281,0.65625 -0.703125,1.3681641 -1.21875,2.1328125 -0.2197266,-0.1552734 -0.515625,-0.2929687 -0.890625,-0.4101562 0.3984375,-0.3808594 0.7910156,-0.9785156 1.1835937,-1.7929688 0.3896485,-0.8115234 0.6386719,-1.6318359 0.75,-2.4609375 0.3896485,0.1259766 0.7998047,0.2197266 1.2304688,0.28125 0.076172,0.00879 0.1171875,0.032227 0.1171875,0.070312 0,0.041016 -0.052734,0.09082 -0.1523438,0.1523438 -0.09375,0.055664 -0.1875,0.1699219 -0.28125,0.3398437 -0.087891,0.1728516 -0.2197265,0.4892579 -0.3984375,0.9492188 h 1.8984375 c 0.5214844,0 1.0371094,-0.029297 1.546875,-0.09375 L 9.4227656,-0.67957031 C 9.4051875,-0.18738281 9.3465938,0.16710938 9.2469844,0.38683594 9.1444453,0.60363281 8.9422969,0.76476563 8.6376094,0.86730469 8.3387813,0.97570313 7.8319453,1.0606641 7.1141719,1.1251172 7.0585078,0.72667969 6.8944453,0.33996094 6.6219844,-0.03503906 c 0.328125,0.03222656 0.5917969,0.046875 0.796875,0.046875 0.3896484,0 0.6708984,-0.05273438 0.84375,-0.1640625 0.1699219,-0.1171875 0.2607422,-0.41015625 0.2695312,-0.87890624 l 0.1757813,-4.9570313 z m -3.0703125,4.2421875 c 0.4980469,-0.1464843 0.9433594,-0.3105468 1.3359375,-0.4921875 -0.046875,0.2109375 -0.070312,0.3925782 -0.070312,0.5390625 0,0.140625 0.00586,0.2783204 0.023437,0.4101563 -1.1191406,0.2753906 -2.203125,0.69140624 -3.25781252,1.25390624 -0.046875,-0.42773438 -0.17285157,-0.83203125 -0.375,-1.20703124 0.41308593,-0.038086 0.89648442,-0.1230469 1.45312502,-0.2578125 v -3.515625 c -0.5097656,0 -0.90820315,0.020508 -1.19531252,0.058594 v -0.9140625 c 0.2578125,0.041016 0.65625002,0.064453 1.19531252,0.070312 0,-1.265625 -0.020508,-2.0654296 -0.058594,-2.4023437 0.1640625,0.032227 0.5097657,0.046875 1.0429688,0.046875 0.084961,0 0.1289062,0.020508 0.1289062,0.058594 0,0.041016 -0.041016,0.079102 -0.1171875,0.1171875 -0.070312,0.041016 -0.1054687,0.1259766 -0.1054687,0.2578125 v 1.921875 c 0.5214844,0 0.9257812,-0.023437 1.2070312,-0.070312 v 0.9140625 C 3.7186641,-4.995 3.3172969,-5.0184375 2.7782344,-5.0272266 Z M 7.2430781,-3.4920703 6.3407344,-3.0819141 C 6.1063594,-3.6971484 5.8280391,-4.1893359 5.5087031,-4.5584766 l 0.8789063,-0.4453125 c 0.2871094,0.5625 0.5742187,1.0664063 0.8554687,1.5117188 z m 0.7734375,1.3945312 C 6.7801875,-1.6112109 5.7372188,-1.1629687 4.8876094,-0.74988281 4.7850703,-1.0692187 4.6415156,-1.4178516 4.4540156,-1.7928516 5.6083125,-2.041875 6.7860469,-2.46375 7.9813594,-3.0584766 c -0.017578,0.1259766 -0.023437,0.2636719 -0.023437,0.4101563 0,0.1494141 0.017578,0.3339844 0.058593,0.5507812 z m 5.8359374,-4.1953125 c -0.392578,0.75 -0.861328,1.5292969 -1.40625,2.3320313 -0.257812,-0.1699219 -0.585937,-0.328125 -0.984375,-0.46875 0.421875,-0.3808594 0.834961,-0.9375 1.242188,-1.6640625 0.404297,-0.7265625 0.720703,-1.5498047 0.949218,-2.4726563 0.459961,0.2050782 0.890625,0.328125 1.289063,0.375 0.07617,0.00879 0.117187,0.035156 0.117187,0.082031 0,0.041016 -0.06445,0.087891 -0.1875,0.140625 -0.117187,0.055664 -0.208007,0.1289062 -0.269531,0.2226562 -0.06445,0.087891 -0.169922,0.2929688 -0.316406,0.6210938 h 3.5625 c 0.890625,0 1.549805,-0.029297 1.980469,-0.09375 l -0.292969,6.48046874 c -0.02344,0.3984375 -0.08789,0.69433594 -0.1875,0.87890625 -0.09375,0.1875 -0.28125,0.328125 -0.5625,0.421875 -0.28125,0.09375 -0.738281,0.16992187 -1.371094,0.234375 -0.03223,-0.328125 -0.175781,-0.69433594 -0.433594,-1.08984375 0.515625,0.0234375 0.870118,0.0117188 1.066407,-0.0351563 0.202148,-0.0527344 0.342773,-0.14355469 0.421875,-0.26953125 0.08496,-0.13183594 0.134765,-0.35449219 0.152343,-0.66796869 l 0.210938,-5.0273438 z m 3.058594,2.4726563 -0.644531,0.8554687 c -0.744141,-0.5859375 -1.555664,-1.0693359 -2.4375,-1.453125 l 0.5625,-0.7734375 c 0.834961,0.5478516 1.675781,1.0048829 2.519531,1.3710938 z m 0.644531,1.6054687 c -1.6875,0.5009766 -3.222656,1.0751954 -4.605469,1.72265629 -0.125976,-0.34277344 -0.310546,-0.72656249 -0.550781,-1.14843749 0.820313,-0.140625 1.716797,-0.3544922 2.695313,-0.6445313 0.975586,-0.2958984 1.784179,-0.5917968 2.425781,-0.890625 -0.01758,0.140625 -0.02344,0.2900391 -0.02344,0.4453125 0,0.1494141 0.01758,0.3222657 0.05859,0.515625 z m 0,0"
       style="fill:#8b572a;fill-opacity:1;fill-rule:nonzero;stroke:none"
       aria-label="ⴋ㴮"
       transform="matrix(1.3333333,0,0,1.3333333,268.616,47.66)" />
    <path
       id="path12"
       d="M 3.2227656,-7.0904766 2.6251094,-6.3170391 C 2.1856562,-6.7447734 1.6583125,-7.1783672 1.0430781,-7.6178203 l 0.5976563,-0.6328125 c 0.5917968,0.3837891 1.1191406,0.7705078 1.5820312,1.1601562 z m 5.7070313,2.9765625 c -0.2988282,-0.052734 -1.1425782,-0.082031 -2.53125,-0.082031 -1.3916016,0 -2.2324219,0.029297 -2.5195313,0.082031 0.014649,-0.2109375 0.023437,-0.4921875 0.023437,-0.84375 v -2.2382812 c 0,-0.3896484 -0.00879,-0.6708984 -0.023437,-0.84375 0.366211,0.055664 1.2070313,0.082031 2.5195313,0.082031 1.3125,0 2.15625,-0.026367 2.53125,-0.082031 -0.017578,0.1582031 -0.023437,0.4394531 -0.023437,0.84375 v 2.2382812 c 0,0.3691407 0.00586,0.6503907 0.023437,0.84375 z M 8.1094844,-6.4107891 V -7.2896953 H 4.6993281 v 0.8789062 z m 0,1.5820313 V -5.7428203 H 4.6993281 v 0.9140625 z m -5.53125,-0.09375 -0.4804688,0.7851562 C 1.6114375,-4.5357891 1.0958125,-4.8785625 0.55089062,-5.1686016 L 1.0430781,-5.8834453 c 0.4921875,0.28125 1.0019531,0.6035156 1.5351563,0.9609375 z m -0.058594,1.9921875 C 2.1358516,-1.8521953 1.8194453,-0.5895 1.5704219,0.85483594 1.1778437,0.53257031 0.83214062,0.30698438 0.52745312,0.17514844 c 0.1640625,-0.28710938 0.375,-0.8203125 0.63281248,-1.59375004 0.2636719,-0.7734375 0.459961,-1.4560546 0.5859375,-2.0507812 0.2021485,0.2431641 0.459961,0.421875 0.7734373,0.5390625 z m 0.84375,2.58984374 V -2.5318828 c 0,-0.3574219 -0.020508,-0.6357422 -0.058594,-0.8320313 0.6796875,0.041016 1.734375,0.058594 3.1640625,0.058594 1.4296875,0 2.3789062,-0.017578 2.8476562,-0.058594 -0.032227,0.1875 -0.046875,0.4658204 -0.046875,0.8320313 v 2.19140624 C 9.7676875,-0.355125 10.0255,-0.36391406 10.043078,-0.36391406 v 0.8203125 C 9.8702266,0.41538281 8.6719844,0.39780469 6.4454219,0.39780469 c -2.2265625,0 -3.5097657,0.0175781 -3.84375,0.0585938 v -0.8203125 z m 4.089844,-2.25000004 v 2.25000004 H 8.5196406 V -2.5904766 Z M 5.0977656,-0.34047656 V -2.5904766 H 4.0899531 v 2.25000004 z M 5.7774531,-2.5904766 v 2.25000004 H 6.7735469 V -2.5904766 Z M 16.511828,-7.4771953 c 1.833984,-0.00586 2.991211,-0.038086 3.46875,-0.09375 v 0.8554687 c -0.703125,-0.061523 -1.523437,-0.09375 -2.460937,-0.09375 h -4.546875 c 0.03809,0.6796875 0.05859,1.3125 0.05859,1.8984375 0,1.3212891 -0.09082,2.4492188 -0.269531,3.3867188 -0.181641,0.93164061 -0.46582,1.74023436 -0.855469,2.43749999 -0.27539,-0.29003906 -0.5625,-0.50976563 -0.867187,-0.65625 0.389648,-0.55371094 0.673828,-1.23046875 0.855469,-2.02734379 0.178711,-0.8027343 0.269531,-1.7050781 0.269531,-2.7070312 0,-0.9990234 -0.04395,-2.0302734 -0.128906,-3.09375 0.553711,0.055664 1.713867,0.087891 3.480468,0.09375 -0.05566,-0.2724609 -0.164062,-0.5683594 -0.328125,-0.890625 l 0.949219,-0.1757813 c 0.108399,0.328125 0.234375,0.6855469 0.375,1.0664063 z m -1.875,1.8515625 c -0.0088,-0.4511719 -0.04102,-0.7558594 -0.09375,-0.9140625 0.263672,0.070312 0.521484,0.1054687 0.773438,0.1054687 l 0.1875,-0.011719 c 0.04687,0 0.07031,0.011719 0.07031,0.035156 0,0.023437 -0.02051,0.058594 -0.05859,0.1054688 -0.0791,0.079102 -0.117187,0.3046875 -0.117187,0.6796875 h 2.109375 c 0,-0.515625 -0.02344,-0.8496094 -0.07031,-1.0078125 0.249024,0.079102 0.498047,0.1171875 0.75,0.1171875 l 0.257813,-0.023437 c 0.03809,0 0.05859,0.011719 0.05859,0.035156 0,0.017578 -0.02344,0.046875 -0.07031,0.09375 -0.07031,0.070312 -0.105469,0.3339844 -0.105469,0.7851563 0.764649,-0.00586 1.374024,-0.035156 1.828125,-0.082031 v 0.7617188 c -0.509765,-0.052734 -1.11914,-0.084961 -1.828125,-0.09375 v 0.5390625 c 0,0.4453125 0.02344,0.8056641 0.07031,1.078125 -0.304688,-0.052734 -0.9375,-0.082031 -1.898438,-0.082031 -0.960937,0 -1.605468,0.029297 -1.933593,0.082031 0.04687,-0.328125 0.07031,-0.6679688 0.07031,-1.0195313 v -0.5859375 c -0.492187,0.00879 -0.902344,0.035156 -1.230469,0.082031 v -0.7617188 c 0.333985,0.046875 0.744141,0.076172 1.230469,0.082031 z m 0.761719,0.5859375 v 0.9023437 h 2.109375 v -0.9023437 z m -1.066406,2.765625 c -0.369141,0.023437 -0.638672,0.046875 -0.808594,0.070312 v -0.7851563 c 0.764648,0.064453 1.710937,0.09375 2.835937,0.09375 1.13086,0 2.056641,-0.029297 2.777344,-0.09375 -0.524414,1.0634766 -1.166016,1.8603516 -1.921875,2.39062504 0.802734,0.3046875 1.713867,0.45703125 2.730469,0.45703125 0.164062,0 0.331055,-0.00293 0.503906,-0.0117188 -0.266601,0.31054687 -0.421875,0.66796875 -0.46875,1.06640625 -1.400391,-0.14941406 -2.575195,-0.48925781 -3.527344,-1.01953125 -0.711914,0.40429687 -1.672851,0.76171875 -2.882812,1.06640625 -0.111328,-0.28125 -0.336914,-0.5859375 -0.679688,-0.9140625 0.896485,-0.0468750025 1.833985,-0.2578125 2.8125,-0.6328125 -0.509765,-0.3984375 -0.966797,-0.96093744 -1.371093,-1.68749944 z m 0.890625,0 c 0.310546,0.5566406 0.717773,0.9931641 1.21875,1.31249999 0.577148,-0.37499999 1.022461,-0.81152339 1.335937,-1.31249999 z m 9.503906,-4.3828125 c -1.007813,0 -1.921875,0.041016 -2.742188,0.1171875 v -0.9492188 c 1.045899,0.079102 2.334961,0.1171875 3.867188,0.1171875 -0.102539,-0.3662109 -0.246094,-0.6738281 -0.433594,-0.9257812 l 0.996094,-0.2460938 c 0.146484,0.4775391 0.260742,0.8671875 0.339844,1.171875 1.546875,0 2.838867,-0.038086 3.878906,-0.1171875 v 0.9492188 c -0.791016,-0.076172 -1.790039,-0.1171875 -3,-0.1171875 v 1.9921875 c 0,0.4072266 0.02344,0.7558594 0.07031,1.0429687 h -0.949218 c 0.03809,-0.2871093 0.05859,-0.6357421 0.05859,-1.0429687 v -1.9921875 h -1.300781 v 1.9921875 c 0,0.4072266 0.02344,0.7558594 0.07031,1.0429687 h -0.902344 c 0.0293,-0.3046875 0.04687,-0.6503906 0.04687,-1.0429687 z m -1.359375,0.4101562 c 0.140625,0.140625 0.386719,0.3017579 0.738281,0.4804688 0.06152,0.041016 0.09375,0.079102 0.09375,0.1171875 0,0.032227 -0.04102,0.055664 -0.117187,0.070312 -0.07031,0.017578 -0.205079,0.1289062 -0.398438,0.3398437 -0.196289,0.2109375 -0.603516,0.6972657 -1.21875,1.453125 -0.134766,-0.1699218 -0.395508,-0.3515625 -0.785156,-0.5390625 0.65625,-0.4746093 1.21875,-1.1162109 1.6875,-1.9218745 z m 7.382812,1.8984375 -0.761718,0.5976563 c -0.65625,-0.8261719 -1.277344,-1.4443359 -1.863282,-1.8515625 l 0.597657,-0.5390625 c 0.811523,0.6181641 1.488281,1.2158203 2.027343,1.7929687 z m -7.359375,1.7460938 c -0.196289,0.00879 -0.477539,0.029297 -0.84375,0.058594 v -0.8789062 c 0.56836,0.070312 1.737305,0.1054687 3.503907,0.1054687 1.763671,0 2.929687,-0.035156 3.492187,-0.1054687 -0.524414,1.0722656 -1.394531,1.9921875 -2.613281,2.76562499 0.966797,0.34570312 2.009765,0.515625 3.128906,0.515625 0.240234,0 0.480469,-0.00293 0.714844,-0.0117188 -0.266602,0.27246094 -0.46582,0.60351562 -0.597656,0.99609375 -1.353516,-0.1171875 -2.695313,-0.46582031 -4.03125,-1.04296875 -1.171875,0.55371094 -2.484375,0.94042969 -3.9375,1.16015625 C 22.136828,0.62339063 21.966906,0.31870313 21.703234,0.04624219 23.086047,0.02866406 24.284289,-0.1910625 25.300891,-0.62172656 24.691516,-0.9879375 24.052844,-1.6471172 23.390734,-2.6021953 Z m 0.890625,-0.011719 c 0.492188,0.6884766 1.095703,1.2275391 1.816407,1.61718754 0.905273,-0.45996094 1.546875,-0.99902344 1.921875,-1.61718754 z m 9.339844,-2.1679687 c -0.304687,0.4921875 -0.615234,0.9462891 -0.925781,1.359375 -0.158203,-0.2724609 -0.383789,-0.515625 -0.679688,-0.7265625 0.506836,-0.421875 0.975586,-1.0576172 1.40625,-1.9101563 0.436524,-0.8583984 0.717774,-1.7226562 0.84375,-2.5898437 0.342774,0.1640625 0.644532,0.2753906 0.902344,0.328125 0.257813,0.055664 0.386719,0.1171875 0.386719,0.1875 0,0.064453 -0.05859,0.1259766 -0.175781,0.1875 -0.05566,0.023437 -0.137696,0.1376953 -0.246094,0.3398437 -0.111328,0.1962891 -0.325195,0.6210938 -0.644531,1.2773438 v 7.19531249 h -0.984375 c 0.07617,-0.57128906 0.117187,-1.13085938 0.117187,-1.6875 z m 3.269531,2.4960937 c -0.322265,0.234375 -0.732422,0.5273438 -1.230468,0.8789063 -0.181641,-0.3046875 -0.442383,-0.5537109 -0.785157,-0.75 0.56836,-0.1875 1.242188,-0.5800781 2.015625,-1.1835938 v -3.9140625 c 0,-0.6240234 -0.03223,-1.0664062 -0.09375,-1.3242187 0.389649,0.087891 0.764649,0.1289062 1.125,0.1289062 0.117188,0 0.175782,0.029297 0.175782,0.082031 0,0.046875 -0.03223,0.09375 -0.09375,0.140625 -0.06445,0.041016 -0.117188,0.1113281 -0.164063,0.2109375 -0.04102,0.09375 -0.05859,0.1757812 -0.05859,0.2460937 v 3.6328125 c 0.811524,-0.7880859 1.538086,-1.7636718 2.179688,-2.9296875 0.342773,0.2900391 0.673828,0.515625 0.996094,0.6796875 0.07617,0.046875 0.117187,0.09082 0.117187,0.1289063 0,0.032227 -0.04102,0.055664 -0.117187,0.070312 -0.0791,0.00879 -0.205079,0.09082 -0.375,0.2460937 -0.172852,0.1494141 -0.313477,0.2900391 -0.421875,0.421875 -0.829102,1.0078125 -1.623047,1.8398438 -2.378907,2.4960938 v 2.28515624 c 0,0.1875 0.01758,0.32519531 0.05859,0.41015625 0.04687,0.0791016 0.143555,0.12890625 0.292969,0.15234375 0.155273,0.0234375 0.427734,0.0351563 0.820312,0.0351563 0.389649,0 0.673828,-0.0263672 0.855469,-0.0820313 0.178711,-0.0527344 0.316406,-0.18164063 0.410156,-0.38671875 0.09375,-0.20214844 0.178711,-0.55078129 0.257813,-1.04296879 0.257812,0.3515625 0.588867,0.5859375 0.996094,0.70312504 -0.219727,0.7265625 -0.398438,1.15429687 -0.539063,1.2890625 -0.134766,0.13183594 -0.304687,0.22558594 -0.515625,0.28125 -0.205078,0.0527344 -0.667969,0.0820313 -1.394531,0.0820313 -0.720703,0 -1.21582,-0.0292969 -1.488281,-0.0820313 -0.275391,-0.046875 -0.451172,-0.140625 -0.527344,-0.28125 -0.0791,-0.13476563 -0.117188,-0.35449219 -0.117188,-0.66796875 z m 0,0"
       style="fill:#417505;fill-opacity:1;fill-rule:nonzero;stroke:none"
       aria-label="㢴⛪⍐⪇"
       transform="matrix(1.3333333,0,0,1.3333333,102.38267,12.536)" />
  </g>
</svg>
