<?xml version="1.0" encoding="UTF-8" standalone="no"?>
<!-- Created with Inkscape (http://www.inkscape.org/) -->

<svg
   version="1.1"
   id="svg1"
   width="428.07999"
   height="150.13333"
   viewBox="0 0 428.07999 150.13333"
   sodipodi:docname="string-force.pdf"
   xmlns:inkscape="http://www.inkscape.org/namespaces/inkscape"
   xmlns:sodipodi="http://sodipodi.sourceforge.net/DTD/sodipodi-0.dtd"
   xmlns="http://www.w3.org/2000/svg"
   xmlns:svg="http://www.w3.org/2000/svg">
  <defs
     id="defs1" />
  <sodipodi:namedview
     id="namedview1"
     pagecolor="#ffffff"
     bordercolor="#000000"
     borderopacity="0.25"
     inkscape:showpageshadow="2"
     inkscape:pageopacity="0.0"
     inkscape:pagecheckerboard="0"
     inkscape:deskcolor="#d1d1d1">
    <inkscape:page
       x="0"
       y="0"
       inkscape:label="1"
       id="page1"
       width="428.07999"
       height="150.13333"
       margin="0"
       bleed="0" />
  </sodipodi:namedview>
  <g
     id="g1"
     inkscape:groupmode="layer"
     inkscape:label="1">
    <path
       id="path1"
       d="m 102.87209,-94.2628 c 71.80336,35.32634 99.0016,45.26414 183.21153,47.3563"
       style="fill:none;stroke:#f5a623;stroke-width:1.49442;stroke-linecap:butt;stroke-linejoin:miter;stroke-miterlimit:10;stroke-dasharray:none;stroke-opacity:1"
       transform="matrix(1.3333333,0,0,-1.3333333,-47.382667,-26.698667)" />
    <path
       id="path2"
       d="M 334.98814,-45.89702 286.08362,-46.9065"
       style="fill:none;stroke:#000000;stroke-width:0.74721;stroke-linecap:butt;stroke-linejoin:miter;stroke-miterlimit:10;stroke-dasharray:none;stroke-opacity:1"
       transform="matrix(1.3333333,0,0,-1.3333333,-47.382667,-26.698667)" />
    <path
       id="path3"
       d="m 331.93423,-48.20047 4.62305,2.34007 -4.71605,2.14644 z"
       style="fill:#000000;fill-opacity:1;fill-rule:nonzero;stroke:#000000;stroke-width:0.0797;stroke-linecap:butt;stroke-linejoin:miter;stroke-miterlimit:10;stroke-dasharray:none;stroke-opacity:0"
       transform="matrix(1.3333333,0,0,-1.3333333,-47.382667,-26.698667)" />
    <path
       id="path4"
       d="m 80.90428,-104.56152 21.96781,10.29872"
       style="fill:none;stroke:#000000;stroke-width:0.74721;stroke-linecap:butt;stroke-linejoin:miter;stroke-miterlimit:10;stroke-dasharray:none;stroke-opacity:1"
       transform="matrix(1.3333333,0,0,-1.3333333,-47.382667,-26.698667)" />
    <path
       id="path5"
       d="m 82.75868,-101.21216 -3.27707,-4.01362 5.18131,-0.0498 -1.90424,4.0634 z"
       style="fill:#000000;fill-opacity:1;fill-rule:nonzero;stroke:#000000;stroke-width:0.0797;stroke-linecap:butt;stroke-linejoin:miter;stroke-miterlimit:10;stroke-dasharray:none;stroke-opacity:0"
       transform="matrix(1.3333333,0,0,-1.3333333,-47.382667,-26.698667)" />
    <path
       id="path6"
       d="M 39.22821,-121.06354 H 329.1196 M 68.21526,-20.39867 v -111.85276 m 257.24304,13.80311 3.6613,-2.61522 -3.6613,-2.6152 m -259.85826,99.61877 2.61522,3.6613 2.6152,-3.6613"
       style="fill:none;stroke:#000000;stroke-width:0.74721;stroke-linecap:butt;stroke-linejoin:miter;stroke-miterlimit:10;stroke-dasharray:none;stroke-opacity:1"
       transform="matrix(1.3333333,0,0,-1.3333333,-47.382667,-26.698667)" />
    <path
       id="path7"
       d="M 102.87209,-121.26752 V -94.2628"
       style="fill:none;stroke:#000000;stroke-width:0.74721;stroke-linecap:butt;stroke-linejoin:miter;stroke-miterlimit:10;stroke-dasharray:4.48325, 4.48325;stroke-dashoffset:0;stroke-opacity:1"
       transform="matrix(1.3333333,0,0,-1.3333333,-47.382667,-26.698667)" />
    <path
       id="path8"
       d="M 286.08362,-121.26752 V -46.9065"
       style="fill:none;stroke:#000000;stroke-width:0.74721;stroke-linecap:butt;stroke-linejoin:miter;stroke-miterlimit:10;stroke-dasharray:4.48325, 4.48325;stroke-dashoffset:0;stroke-opacity:1"
       transform="matrix(1.3333333,0,0,-1.3333333,-47.382667,-26.698667)" />
    <path
       id="path9"
       d="M 183.5881,-59.62689 V -35.6872"
       style="fill:none;stroke:#000000;stroke-width:1.49442;stroke-linecap:butt;stroke-linejoin:miter;stroke-miterlimit:10;stroke-dasharray:none;stroke-opacity:1"
       transform="matrix(1.3333333,0,0,-1.3333333,-47.382667,-26.698667)" />
    <path
       id="path10"
       d="m 186.50667,-39.66754 -2.91857,6.07251 -2.91857,-6.07251 z"
       style="fill:#000000;fill-opacity:1;fill-rule:nonzero;stroke:#000000;stroke-width:0.0797;stroke-linecap:butt;stroke-linejoin:miter;stroke-miterlimit:10;stroke-dasharray:none;stroke-opacity:0"
       transform="matrix(1.3333333,0,0,-1.3333333,-47.382667,-26.698667)" />
    <g
       id="g10"
       aria-label="⃗&#10;T(x+∆x,t)"
       transform="matrix(1.3333333,0,0,1.3333333,351.10133,16.645333)">
      <path
         id="path11"
         d="m 5.3439219,-5.9302891 c -0.1289063,0.1289063 -0.4570313,0.4101563 -0.4570313,0.5859375 0,0.1054688 0.09375,0.1992188 0.1992188,0.1992188 0.082031,0 0.1289062,-0.070312 0.1875,-0.1289063 0.1171875,-0.140625 0.3398437,-0.421875 0.7851562,-0.6445312 0.070312,-0.035156 0.1640625,-0.09375 0.1640625,-0.2109375 0,-0.09375 -0.070312,-0.1523438 -0.140625,-0.1992188 -0.2109375,-0.1523437 -0.328125,-0.328125 -0.3984375,-0.5625 -0.023437,-0.09375 -0.070312,-0.2226562 -0.1992187,-0.2226562 -0.140625,0 -0.1992188,0.1289062 -0.1992188,0.2109375 0,0.046875 0.070312,0.3632812 0.234375,0.5742187 H 2.1564219 c -0.1640625,0 -0.3398438,0 -0.3398438,0.1992188 0,0.1992187 0.1757813,0.1992187 0.3398438,0.1992187 z m -2.2675781,2.4023438 c 0.070312,-0.28125 0.1054687,-0.3398438 0.234375,-0.3632813 0.082031,-0.023437 0.4101562,-0.023437 0.6210937,-0.023437 1.0078125,0 1.453125,0.035156 1.453125,0.8203125 0,0.140625 -0.035156,0.5273438 -0.082031,0.796875 0,0.035156 -0.023437,0.1523438 -0.023437,0.1875 0,0.058594 0.023437,0.1289063 0.1171875,0.1289063 0.1054687,0 0.1289062,-0.082031 0.1523437,-0.234375 l 0.2695313,-1.734375 c 0.011719,-0.035156 0.011719,-0.140625 0.011719,-0.1640625 0,-0.1054688 -0.09375,-0.1054688 -0.2695312,-0.1054688 H 0.0411875 c -0.24609375,0 -0.2578125,0 -0.31640625,0.1992188 L -0.872875,-2.2740391 c -0.0117188,0.023437 -0.0703125,0.1640625 -0.0703125,0.1757813 0,0.070312 0.0585938,0.1171875 0.12890625,0.1171875 0.09375,0 0.10546875,-0.046875 0.1640625,-0.2109375 0.5390625,-1.546875 0.796875,-1.7226563 2.27343755,-1.7226563 h 0.3867187 c 0.28125,0 0.28125,0.035156 0.28125,0.1171875 0,0.058594 -0.035156,0.1757813 -0.046875,0.2109375 L 0.92009375,1.7337734 c -0.09375,0.3632813 -0.12890625,0.4804688 -1.1953125,0.4804688 -0.3515625,0 -0.41015625,0 -0.41015625,0.1875 0,0.1171875 0.10546875,0.1171875 0.1640625,0.1171875 0.26953125,0 0.55078125,-0.023437 0.8203125,-0.023437 0.28125,0 0.5625,-0.011719 0.84375,-0.011719 0.28125,0 0.5625,0.011719 0.8320313,0.011719 0.28125,0 0.5859375,0.023437 0.8671875,0.023437 0.09375,0 0.2109375,0 0.2109375,-0.1992188 0,-0.1054687 -0.082031,-0.1054687 -0.3398438,-0.1054687 -0.2460937,0 -0.375,0 -0.6328125,-0.023437 -0.2929687,-0.035156 -0.3632812,-0.058594 -0.3632812,-0.2226563 0,-0.011719 0,-0.058594 0.035156,-0.2109375 z m 0,0"
         style="fill:#000000;fill-opacity:1;fill-rule:nonzero;stroke:none" />
      <path
         id="path12"
         d="m 9.3224375,4.9095547 c 0,-0.035156 0,-0.046875 -0.1640625,-0.2226563 C 7.9161875,3.4329922 7.5880625,1.5579922 7.5880625,0.02283594 c 0,-1.72265624 0.3867188,-3.45703124 1.6054688,-4.71093754 0.1289062,-0.1171875 0.1289062,-0.1289062 0.1289062,-0.1640625 0,-0.070312 -0.035156,-0.1054687 -0.09375,-0.1054687 -0.1054687,0 -0.9960937,0.6796875 -1.5820312,1.9453125 -0.515625,1.1015625 -0.6328125,2.20312499 -0.6328125,3.03515624 0,0.78515625 0.1171875,1.99218746 0.65625,3.11718746 0.5976562,1.21875 1.453125,1.875 1.5585937,1.875 0.058594,0 0.09375,-0.035156 0.09375,-0.1054687 z m 0,0"
         style="fill:#000000;fill-opacity:1;fill-rule:nonzero;stroke:none" />
      <path
         id="path13"
         d="m 13.230641,-0.49278906 c 0.05859,-0.2578125 0.292968,-1.17187504 0.984375,-1.17187504 0.04687,0 0.292968,0 0.503906,0.1289063 -0.28125,0.046875 -0.480469,0.3046875 -0.480469,0.53906249 0,0.1640625 0.105469,0.3515625 0.375,0.3515625 0.222656,0 0.539063,-0.1875 0.539063,-0.58593749 0,-0.515625 -0.585938,-0.65625 -0.925782,-0.65625 -0.574218,0 -0.925781,0.5273437 -1.042968,0.7617187 -0.257813,-0.65625 -0.785157,-0.7617187 -1.078125,-0.7617187 -1.042969,0 -1.605469,1.28906249 -1.605469,1.53515624 0,0.10546875 0.105469,0.10546875 0.117187,0.10546875 0.08203,0 0.117188,-0.0234375 0.128907,-0.1171875 0.339843,-1.05468749 0.996093,-1.30078129 1.335937,-1.30078129 0.1875,0 0.539063,0.09375 0.539063,0.66796879 0,0.3046875 -0.164063,0.97265625 -0.539063,2.36718751 -0.152344,0.6210937 -0.503906,1.0429687 -0.949219,1.0429687 -0.05859,0 -0.28125,0 -0.492187,-0.1289062 0.246094,-0.058594 0.46875,-0.2695313 0.46875,-0.5390625 0,-0.2695313 -0.222656,-0.3515625 -0.375,-0.3515625 -0.292969,0 -0.539063,0.2578125 -0.539063,0.5742187 0,0.4570313 0.492188,0.65625 0.9375,0.65625 0.65625,0 1.007813,-0.6914062 1.042969,-0.75 0.117188,0.3632813 0.480469,0.75 1.078125,0.75 1.019531,0 1.59375,-1.2773437 1.59375,-1.5351562 0,-0.09375 -0.09375,-0.09375 -0.128906,-0.09375 -0.08203,0 -0.105469,0.0351562 -0.128906,0.1054687 -0.328125,1.0664063 -0.996094,1.3125 -1.324219,1.3125 -0.386719,0 -0.539063,-0.328125 -0.539063,-0.65625 0,-0.2226562 0.05859,-0.4453125 0.164063,-0.8789062 z m 0,0"
         style="fill:#000000;fill-opacity:1;fill-rule:nonzero;stroke:none" />
      <path
         id="path14"
         d="m 21.887867,0.22205469 h 2.777344 c 0.140625,0 0.328125,0 0.328125,-0.19921875 0,-0.19921875 -0.1875,-0.19921875 -0.328125,-0.19921875 H 21.887867 V -2.9654453 c 0,-0.1289063 0,-0.328125 -0.199219,-0.328125 -0.199218,0 -0.199218,0.1992187 -0.199218,0.328125 v 2.78906249 h -2.789063 c -0.140625,0 -0.328125,0 -0.328125,0.19921875 0,0.19921875 0.1875,0.19921875 0.328125,0.19921875 H 21.48943 V 3.0228359 c 0,0.1289063 0,0.328125 0.199218,0.328125 0.199219,0 0.199219,-0.1992187 0.199219,-0.328125 z M 32.17107,-4.4302891 c -0.07031,-0.1289062 -0.09375,-0.1875 -0.257812,-0.1875 -0.175781,0 -0.199219,0.058594 -0.257813,0.1875 l -3.375,6.75 c -0.04687,0.09375 -0.04687,0.1054688 -0.04687,0.1171875 0,0.082031 0.05859,0.082031 0.222657,0.082031 h 6.914062 c 0.152344,0 0.210938,0 0.210938,-0.082031 0,-0.011719 0,-0.023437 -0.04687,-0.1171875 z m -0.585937,0.8085938 2.683594,5.3789062 h -5.367188 z m 0,0"
         style="fill:#000000;fill-opacity:1;fill-rule:nonzero;stroke:none" />
      <path
         id="path15"
         d="m 39.404469,-0.49278906 c 0.05859,-0.2578125 0.292969,-1.17187504 0.984375,-1.17187504 0.04687,0 0.292969,0 0.503906,0.1289063 -0.28125,0.046875 -0.480469,0.3046875 -0.480469,0.53906249 0,0.1640625 0.105469,0.3515625 0.375,0.3515625 0.222657,0 0.539063,-0.1875 0.539063,-0.58593749 0,-0.515625 -0.585938,-0.65625 -0.925781,-0.65625 -0.574219,0 -0.925782,0.5273437 -1.042969,0.7617187 -0.257813,-0.65625 -0.785156,-0.7617187 -1.078125,-0.7617187 -1.042969,0 -1.605469,1.28906249 -1.605469,1.53515624 0,0.10546875 0.105469,0.10546875 0.117188,0.10546875 0.08203,0 0.117187,-0.0234375 0.128906,-0.1171875 0.339844,-1.05468749 0.996094,-1.30078129 1.335937,-1.30078129 0.1875,0 0.539063,0.09375 0.539063,0.66796879 0,0.3046875 -0.164063,0.97265625 -0.539063,2.36718751 -0.152343,0.6210937 -0.503906,1.0429687 -0.949218,1.0429687 -0.05859,0 -0.28125,0 -0.492188,-0.1289062 0.246094,-0.058594 0.46875,-0.2695313 0.46875,-0.5390625 0,-0.2695313 -0.222656,-0.3515625 -0.375,-0.3515625 -0.292969,0 -0.539062,0.2578125 -0.539062,0.5742187 0,0.4570313 0.492187,0.65625 0.9375,0.65625 0.65625,0 1.007812,-0.6914062 1.042968,-0.75 0.117188,0.3632813 0.480469,0.75 1.078125,0.75 1.019532,0 1.59375,-1.2773437 1.59375,-1.5351562 0,-0.09375 -0.09375,-0.09375 -0.128906,-0.09375 -0.08203,0 -0.105469,0.0351562 -0.128906,0.1054687 -0.328125,1.0664063 -0.996094,1.3125 -1.324219,1.3125 -0.386719,0 -0.539062,-0.328125 -0.539062,-0.65625 0,-0.2226562 0.05859,-0.4453125 0.164062,-0.8789062 z m 4.388672,2.99999996 c 0,-0.65625 -0.257813,-1.0429687 -0.644532,-1.0429687 -0.328125,0 -0.527343,0.2460937 -0.527343,0.5273437 0,0.2695313 0.199218,0.5273438 0.527343,0.5273438 0.117188,0 0.246094,-0.035156 0.351563,-0.1289063 0.02344,-0.023437 0.03516,-0.035156 0.04687,-0.035156 0.01172,0 0.02344,0.011719 0.02344,0.1523437 0,0.7382813 -0.351562,1.3359375 -0.679687,1.6640625 -0.105469,0.1054688 -0.105469,0.1289063 -0.105469,0.1640625 0,0.070312 0.04687,0.1054688 0.09375,0.1054688 0.117188,0 0.914063,-0.7617188 0.914063,-1.9335938 z m 7.751953,-3.9726562 h 0.9375 c 0.199219,0 0.304687,0 0.304687,-0.1992188 0,-0.1054687 -0.105468,-0.1054687 -0.28125,-0.1054687 h -0.878906 c 0.363281,-1.4179688 0.410156,-1.6171875 0.410156,-1.6757813 0,-0.1757812 -0.117187,-0.2695312 -0.292968,-0.2695312 -0.02344,0 -0.304688,0.011719 -0.398438,0.3515625 l -0.386719,1.59375 h -0.9375 c -0.199218,0 -0.292968,0 -0.292968,0.1875 0,0.1171875 0.07031,0.1171875 0.269531,0.1171875 h 0.878906 c -0.714844,2.8242187 -0.75,3 -0.75,3.1757812 0,0.5390625 0.375,0.9140625 0.914063,0.9140625 1.007812,0 1.582031,-1.453125 1.582031,-1.5351562 0,-0.09375 -0.08203,-0.09375 -0.117188,-0.09375 -0.09375,0 -0.105468,0.0234375 -0.152343,0.140625 -0.433594,1.03125 -0.960938,1.2773437 -1.300782,1.2773437 -0.199218,0 -0.304687,-0.1289062 -0.304687,-0.4570312 0,-0.2460938 0.02344,-0.3164063 0.05859,-0.4804688 z m 0,0"
         style="fill:#000000;fill-opacity:1;fill-rule:nonzero;stroke:none" />
      <path
         id="path16"
         d="m 55.995289,0.02283594 c 0,-0.7734375 -0.117187,-1.98046874 -0.65625,-3.10546874 -0.597656,-1.21875 -1.464844,-1.875 -1.558594,-1.875 -0.05859,0 -0.105468,0.046875 -0.105468,0.1054687 0,0.035156 0,0.046875 0.199218,0.234375 0.972657,0.984375 1.535157,2.5664063 1.535157,4.64062504 0,1.71093746 -0.363282,3.45703126 -1.59375,4.72265626 -0.140625,0.1171875 -0.140625,0.1289062 -0.140625,0.1640625 0,0.058594 0.04687,0.1054687 0.105468,0.1054687 0.09375,0 0.996094,-0.6796875 1.582032,-1.9453125 0.503906,-1.1015625 0.632812,-2.20312496 0.632812,-3.04687496 z m 0,0"
         style="fill:#000000;fill-opacity:1;fill-rule:nonzero;stroke:none" />
    </g>
    <g
       id="g16"
       aria-label="⃗&#10;T(x,t)"
       transform="matrix(1.3333333,0,0,1.3333333,57.5,81.502667)">
      <path
         id="path17"
         d="m 5.34375,-5.9287578 c -0.1289063,0.1289062 -0.4570313,0.4101562 -0.4570313,0.5859375 0,0.1054687 0.09375,0.1992187 0.1992188,0.1992187 0.082031,0 0.1289062,-0.070312 0.1875,-0.1289062 0.1171875,-0.140625 0.3398437,-0.421875 0.7851562,-0.6445313 0.070312,-0.035156 0.1640625,-0.09375 0.1640625,-0.2109375 0,-0.09375 -0.070312,-0.1523437 -0.140625,-0.1992187 -0.2109375,-0.1523438 -0.328125,-0.328125 -0.3984375,-0.5625 -0.023437,-0.09375 -0.070312,-0.2226563 -0.1992187,-0.2226563 -0.140625,0 -0.1992188,0.1289063 -0.1992188,0.2109375 0,0.046875 0.070312,0.3632813 0.234375,0.5742188 H 2.15625 c -0.1640625,0 -0.3398438,0 -0.3398438,0.1992187 0,0.1992188 0.1757813,0.1992188 0.3398438,0.1992188 z m -2.2675781,2.3994141 c 0.070312,-0.28125 0.1054687,-0.3398438 0.234375,-0.3632813 0.082031,-0.023437 0.4101562,-0.023437 0.6210937,-0.023437 1.0078125,0 1.453125,0.035156 1.453125,0.8203125 0,0.140625 -0.035156,0.5273438 -0.082031,0.796875 0,0.035156 -0.023437,0.1523438 -0.023437,0.1875 0,0.058594 0.023437,0.1289063 0.1171875,0.1289063 0.1054687,0 0.1289062,-0.082031 0.1523437,-0.234375 l 0.2695313,-1.734375 c 0.011719,-0.035156 0.011719,-0.140625 0.011719,-0.1640625 0,-0.1054688 -0.09375,-0.1054688 -0.2695312,-0.1054688 H 0.04101562 c -0.24609375,0 -0.2578125,0 -0.31640625,0.1992188 l -0.59765625,1.7460937 c -0.0117188,0.023437 -0.0703125,0.1640625 -0.0703125,0.1757813 0,0.070312 0.0585938,0.1171875 0.12890625,0.1171875 0.09375,0 0.10546876,-0.046875 0.16406251,-0.2109375 0.5390625,-1.546875 0.79687499,-1.7226563 2.27343752,-1.7226563 h 0.3867187 c 0.28125,0 0.28125,0.035156 0.28125,0.1171875 0,0.058594 -0.035156,0.1757813 -0.046875,0.2109375 L 0.91992188,1.732375 c -0.09375,0.3632813 -0.12890626,0.4804688 -1.19531251,0.4804688 -0.35156249,0 -0.41015624,0 -0.41015624,0.1875 0,0.1171875 0.10546875,0.1171875 0.1640625,0.1171875 0.26953124,0 0.55078125,-0.023437 0.8203125,-0.023437 0.28124999,0 0.5625,-0.011719 0.84374997,-0.011719 0.28125,0 0.5625,0.011719 0.8320313,0.011719 0.28125,0 0.5859375,0.023437 0.8671875,0.023437 0.09375,0 0.2109375,0 0.2109375,-0.1992188 0,-0.1054687 -0.082031,-0.1054687 -0.3398438,-0.1054687 -0.2460937,0 -0.375,0 -0.6328125,-0.023437 C 1.7871094,2.15425 1.7167969,2.1308125 1.7167969,1.96675 c 0,-0.011719 0,-0.058594 0.035156,-0.2109375 z m 0,0"
         style="fill:#000000;fill-opacity:1;fill-rule:nonzero;stroke:none" />
      <path
         id="path18"
         d="m 9.3222656,4.9081563 c 0,-0.035156 0,-0.046875 -0.1640625,-0.2226563 C 7.9160156,3.4315938 7.5878906,1.5565938 7.5878906,0.0214375 c 0,-1.7226562 0.3867188,-3.4570312 1.6054688,-4.7109375 0.1289062,-0.1171875 0.1289062,-0.1289062 0.1289062,-0.1640625 0,-0.070312 -0.035156,-0.1054687 -0.09375,-0.1054687 -0.1054687,0 -0.9960937,0.6796875 -1.5820312,1.9453125 -0.515625,1.1015625 -0.6328125,2.20312495 -0.6328125,3.0351562 0,0.78515625 0.1171875,1.9921875 0.65625,3.1171875 0.5976562,1.21875 1.453125,1.875 1.5585937,1.875 0.058594,0 0.09375,-0.035156 0.09375,-0.1054687 z m 0,0"
         style="fill:#000000;fill-opacity:1;fill-rule:nonzero;stroke:none" />
      <path
         id="path19"
         d="m 13.230469,-0.4941875 c 0.05859,-0.2578125 0.292969,-1.171875 0.984375,-1.171875 0.04687,0 0.292969,0 0.503906,0.1289063 -0.28125,0.046875 -0.480469,0.3046875 -0.480469,0.53906245 0,0.1640625 0.105469,0.3515625 0.375,0.3515625 0.222657,0 0.539063,-0.1875 0.539063,-0.58593745 0,-0.515625 -0.585938,-0.65625 -0.925781,-0.65625 -0.574219,0 -0.925782,0.5273437 -1.042969,0.7617187 -0.257813,-0.65625 -0.785156,-0.7617187 -1.078125,-0.7617187 -1.042969,0 -1.605469,1.28906245 -1.605469,1.5351562 0,0.10546875 0.105469,0.10546875 0.117188,0.10546875 0.08203,0 0.117187,-0.0234375 0.128906,-0.1171875 0.339844,-1.05468745 0.996094,-1.30078125 1.335937,-1.30078125 0.1875,0 0.539063,0.09375 0.539063,0.66796875 0,0.3046875 -0.164063,0.97265625 -0.539063,2.36718755 -0.152343,0.6210937 -0.503906,1.0429687 -0.949218,1.0429687 -0.05859,0 -0.28125,0 -0.492188,-0.1289062 0.246094,-0.058594 0.46875,-0.2695313 0.46875,-0.5390625 0,-0.2695313 -0.222656,-0.3515625 -0.375,-0.3515625 -0.292969,0 -0.539062,0.2578125 -0.539062,0.5742187 0,0.4570313 0.492187,0.65625 0.9375,0.65625 0.65625,0 1.007812,-0.6914062 1.042968,-0.75 0.117188,0.3632813 0.480469,0.75 1.078125,0.75 1.019532,0 1.59375,-1.2773437 1.59375,-1.5351562 0,-0.09375 -0.09375,-0.09375 -0.128906,-0.09375 -0.08203,0 -0.105469,0.0351563 -0.128906,0.1054688 -0.328125,1.0664063 -0.996094,1.3125 -1.324219,1.3125 -0.386719,0 -0.539062,-0.328125 -0.539062,-0.6562501 0,-0.2226562 0.05859,-0.4453125 0.164062,-0.8789062 z m 4.388672,3 c 0,-0.65625 -0.257813,-1.0429687 -0.644532,-1.0429687 -0.328125,0 -0.527343,0.2460937 -0.527343,0.5273437 0,0.2695313 0.199218,0.5273438 0.527343,0.5273438 0.117188,0 0.246094,-0.035156 0.351563,-0.1289063 0.02344,-0.023437 0.03516,-0.035156 0.04687,-0.035156 0.01172,0 0.02344,0.011719 0.02344,0.1523437 0,0.7382813 -0.351562,1.3359375 -0.679687,1.6640625 -0.105469,0.1054688 -0.105469,0.1289063 -0.105469,0.1640625 0,0.070312 0.04687,0.1054688 0.09375,0.1054688 0.117188,0 0.914063,-0.7617188 0.914063,-1.9335938 z m 7.754882,-3.9726562 h 0.9375 c 0.199219,0 0.304688,0 0.304688,-0.1992188 0,-0.1054687 -0.105469,-0.1054687 -0.28125,-0.1054687 h -0.878906 c 0.363281,-1.4179688 0.410156,-1.6171875 0.410156,-1.6757813 0,-0.1757812 -0.117188,-0.2695312 -0.292969,-0.2695312 -0.02344,0 -0.304687,0.011719 -0.398437,0.3515625 l -0.386719,1.59375 h -0.9375 c -0.199219,0 -0.292969,0 -0.292969,0.1875 0,0.1171875 0.07031,0.1171875 0.269531,0.1171875 h 0.878907 c -0.714844,2.8242187 -0.75,3 -0.75,3.1757812 0,0.5390625 0.375,0.9140625 0.914062,0.9140625 1.007813,0 1.582031,-1.453125 1.582031,-1.5351562 0,-0.09375 -0.08203,-0.09375 -0.117187,-0.09375 -0.09375,0 -0.105469,0.0234375 -0.152344,0.140625 -0.433594,1.0312501 -0.960937,1.2773438 -1.300781,1.2773438 -0.199219,0 -0.304688,-0.1289062 -0.304688,-0.4570313 0,-0.2460938 0.02344,-0.3164063 0.05859,-0.4804688 z m 0,0"
         style="fill:#000000;fill-opacity:1;fill-rule:nonzero;stroke:none" />
      <path
         id="path20"
         d="m 29.824219,0.0214375 c 0,-0.7734375 -0.117188,-1.9804687 -0.65625,-3.1054687 -0.597657,-1.21875 -1.464844,-1.875 -1.558594,-1.875 -0.05859,0 -0.105469,0.046875 -0.105469,0.1054687 0,0.035156 0,0.046875 0.199219,0.234375 0.972656,0.984375 1.535156,2.5664063 1.535156,4.640625 0,1.7109375 -0.363281,3.4570313 -1.59375,4.7226563 -0.140625,0.1171875 -0.140625,0.1289062 -0.140625,0.1640625 0,0.058594 0.04687,0.1054687 0.105469,0.1054687 0.09375,0 0.996094,-0.6796875 1.582031,-1.9453125 0.503906,-1.1015625 0.632813,-2.203125 0.632813,-3.046875 z m 0,0"
         style="fill:#000000;fill-opacity:1;fill-rule:nonzero;stroke:none" />
    </g>
    <path
       id="path21"
       d="m 3.3284063,-3.0130547 c 0.058594,-0.2578125 0.2929687,-1.171875 0.984375,-1.171875 0.046875,0 0.2929687,0 0.5039062,0.1289063 -0.28125,0.046875 -0.4804687,0.3046875 -0.4804687,0.5390625 0,0.1640625 0.1054687,0.3515625 0.375,0.3515625 0.2226562,0 0.5390625,-0.1875 0.5390625,-0.5859375 0,-0.515625 -0.5859375,-0.65625 -0.9257813,-0.65625 -0.5742187,0 -0.9257812,0.5273437 -1.0429687,0.7617187 -0.2578125,-0.65625 -0.7851563,-0.7617187 -1.078125,-0.7617187 -1.0429688,0 -1.6054688,1.2890625 -1.6054688,1.5351562 0,0.1054688 0.10546875,0.1054688 0.1171875,0.1054688 0.0820313,0 0.1171875,-0.023437 0.12890625,-0.1171875 C 1.183875,-3.9388359 1.840125,-4.1849297 2.1799688,-4.1849297 c 0.1875,0 0.5390625,0.09375 0.5390625,0.6679688 0,0.3046875 -0.1640625,0.9726562 -0.5390625,2.3671875 -0.1523438,0.62109371 -0.5039063,1.04296871 -0.9492188,1.04296871 -0.058594,0 -0.28125,0 -0.4921875,-0.12890625 0.24609375,-0.0585937 0.46875,-0.26953125 0.46875,-0.5390625 0,-0.26953126 -0.22265625,-0.35156246 -0.375,-0.35156246 -0.29296875,0 -0.5390625,0.25781246 -0.5390625,0.57421871 0,0.45703125 0.4921875,0.65625 0.9375,0.65625 0.65625,0 1.0078125,-0.69140625 1.0429688,-0.75 0.1171875,0.36328125 0.4804687,0.75 1.078125,0.75 1.0195312,0 1.59375,-1.27734371 1.59375,-1.53515621 0,-0.09375 -0.09375,-0.09375 -0.1289063,-0.09375 -0.082031,0 -0.1054687,0.035156 -0.1289062,0.1054687 -0.328125,1.06640626 -0.9960938,1.31250001 -1.3242188,1.31250001 -0.3867187,0 -0.5390625,-0.328125 -0.5390625,-0.65625 0,-0.22265625 0.058594,-0.44531251 0.1640625,-0.87890621 z m 0,0"
       style="fill:#000000;fill-opacity:1;fill-rule:nonzero;stroke:none"
       aria-label="x"
       transform="matrix(1.3333333,0,0,1.3333333,85.984,144.576)" />
    <g
       id="g21"
       aria-label="x+∆x"
       transform="matrix(1.3333333,0,0,1.3333333,312.81733,147.93467)">
      <path
         id="path22"
         d="m 3.3274297,-3.0125234 c 0.058594,-0.2578125 0.2929687,-1.171875 0.984375,-1.171875 0.046875,0 0.2929687,0 0.5039062,0.1289062 -0.28125,0.046875 -0.4804687,0.3046875 -0.4804687,0.5390625 0,0.1640625 0.1054687,0.3515625 0.375,0.3515625 0.2226562,0 0.5390625,-0.1875 0.5390625,-0.5859375 0,-0.515625 -0.5859375,-0.65625 -0.9257813,-0.65625 -0.5742187,0 -0.9257812,0.5273438 -1.0429687,0.7617188 -0.2578125,-0.65625 -0.7851563,-0.7617188 -1.078125,-0.7617188 -1.0429688,0 -1.60546876,1.2890625 -1.60546876,1.5351563 0,0.1054687 0.10546875,0.1054687 0.1171875,0.1054687 0.0820313,0 0.1171875,-0.023437 0.12890625,-0.1171875 0.33984371,-1.0546875 0.99609371,-1.3007812 1.33593751,-1.3007812 0.1875,0 0.5390625,0.09375 0.5390625,0.6679687 0,0.3046875 -0.1640625,0.9726563 -0.5390625,2.3671875 -0.1523438,0.62109376 -0.5039063,1.04296876 -0.9492188,1.04296876 -0.058594,0 -0.28124996,0 -0.49218746,-0.12890625 0.24609375,-0.0585938 0.46874996,-0.26953125 0.46874996,-0.5390625 0,-0.26953121 -0.22265621,-0.35156251 -0.37499996,-0.35156251 -0.29296875,0 -0.5390625,0.25781251 -0.5390625,0.57421876 0,0.45703125 0.4921875,0.65625 0.93749996,0.65625 0.65625,0 1.0078125,-0.69140625 1.0429688,-0.75 0.1171875,0.36328125 0.4804687,0.75 1.078125,0.75 1.0195312,0 1.59375,-1.27734376 1.59375,-1.53515626 0,-0.09375 -0.09375,-0.09375 -0.1289063,-0.09375 -0.082031,0 -0.1054687,0.035156 -0.1289062,0.1054688 -0.328125,1.06640621 -0.9960938,1.31249996 -1.3242188,1.31249996 -0.3867187,0 -0.5390625,-0.328125 -0.5390625,-0.65625 0,-0.22265625 0.058594,-0.44531246 0.1640625,-0.87890626 z m 0,0"
         style="fill:#000000;fill-opacity:1;fill-rule:nonzero;stroke:none" />
      <path
         id="path23"
         d="m 11.987586,-2.2976797 h 2.777344 c 0.140625,0 0.328125,0 0.328125,-0.1992187 0,-0.1992188 -0.1875,-0.1992188 -0.328125,-0.1992188 h -2.777344 v -2.7890625 c 0,-0.1289062 0,-0.328125 -0.199219,-0.328125 -0.199219,0 -0.199219,0.1992188 -0.199219,0.328125 v 2.7890625 H 8.8000859 c -0.140625,0 -0.328125,0 -0.328125,0.1992188 0,0.1992187 0.1875,0.1992187 0.328125,0.1992187 h 2.7890621 v 2.80078126 c 0,0.12890625 0,0.328125 0.199219,0.328125 0.199219,0 0.199219,-0.19921875 0.199219,-0.328125 z m 10.280273,-4.6523437 c -0.07031,-0.1289063 -0.09375,-0.1875 -0.257812,-0.1875 -0.175781,0 -0.199219,0.058594 -0.257813,0.1875 l -3.375,6.74999996 c -0.04687,0.09375 -0.04687,0.10546875 -0.04687,0.1171875 0,0.0820312525 0.05859,0.0820312525 0.222657,0.0820312525 h 6.914062 c 0.152344,0 0.210938,0 0.210938,-0.0820312525 0,-0.01171875 0,-0.0234375 -0.04687,-0.1171875 z m -0.585937,0.8085937 2.683594,5.37890626 h -5.367188 z m 0,0"
         style="fill:#000000;fill-opacity:1;fill-rule:nonzero;stroke:none" />
      <path
         id="path24"
         d="m 29.501258,-3.0125234 c 0.05859,-0.2578125 0.292969,-1.171875 0.984375,-1.171875 0.04687,0 0.292969,0 0.503906,0.1289062 -0.28125,0.046875 -0.480469,0.3046875 -0.480469,0.5390625 0,0.1640625 0.105469,0.3515625 0.375,0.3515625 0.222657,0 0.539063,-0.1875 0.539063,-0.5859375 0,-0.515625 -0.585938,-0.65625 -0.925781,-0.65625 -0.574219,0 -0.925782,0.5273438 -1.042969,0.7617188 -0.257813,-0.65625 -0.785156,-0.7617188 -1.078125,-0.7617188 -1.042969,0 -1.605469,1.2890625 -1.605469,1.5351563 0,0.1054687 0.105469,0.1054687 0.117188,0.1054687 0.08203,0 0.117187,-0.023437 0.128906,-0.1171875 0.339844,-1.0546875 0.996094,-1.3007812 1.335937,-1.3007812 0.1875,0 0.539063,0.09375 0.539063,0.6679687 0,0.3046875 -0.164063,0.9726563 -0.539063,2.3671875 -0.152343,0.62109376 -0.503906,1.04296876 -0.949218,1.04296876 -0.05859,0 -0.28125,0 -0.492188,-0.12890625 0.246094,-0.0585938 0.46875,-0.26953125 0.46875,-0.5390625 0,-0.26953121 -0.222656,-0.35156251 -0.375,-0.35156251 -0.292969,0 -0.539062,0.25781251 -0.539062,0.57421876 0,0.45703125 0.492187,0.65625 0.9375,0.65625 0.65625,0 1.007812,-0.69140625 1.042968,-0.75 0.117188,0.36328125 0.480469,0.75 1.078125,0.75 1.019532,0 1.59375,-1.27734376 1.59375,-1.53515626 0,-0.09375 -0.09375,-0.09375 -0.128906,-0.09375 -0.08203,0 -0.105469,0.035156 -0.128906,0.1054688 -0.328125,1.06640621 -0.996094,1.31249996 -1.324219,1.31249996 -0.386719,0 -0.539062,-0.328125 -0.539062,-0.65625 0,-0.22265625 0.05859,-0.44531246 0.164062,-0.87890626 z m 0,0"
         style="fill:#000000;fill-opacity:1;fill-rule:nonzero;stroke:none" />
    </g>
    <g
       id="g24"
       aria-label="∆F=f(x,t)∆x"
       transform="matrix(1.3333333,0,0,1.3333333,160.54,12.933333)">
      <path
         id="path25"
         d="m 4.4055469,-6.9490234 c -0.070312,-0.1289063 -0.09375,-0.1875 -0.2578125,-0.1875 -0.1757813,0 -0.1992188,0.058594 -0.2578125,0.1875 l -3.37500003,6.74999996 c -0.046875,0.09375 -0.046875,0.10546875 -0.046875,0.1171875 0,0.0820312525 0.0585938,0.0820312525 0.22265625,0.0820312525 H 7.6047656 c 0.1523438,0 0.2109375,0 0.2109375,-0.0820312525 0,-0.01171875 0,-0.0234375 -0.046875,-0.1171875 z m -0.5859375,0.8085937 2.6835937,5.37890626 H 1.1360156 Z m 0,0"
         style="fill:#000000;fill-opacity:1;fill-rule:nonzero;stroke:none" />
      <path
         id="path26"
         d="m 11.325469,-3.2341797 h 0.960937 c 0.75,0 0.832031,0.1523438 0.832031,0.4453125 0,0.070312 0,0.1875 -0.07031,0.4921875 -0.02344,0.046875 -0.03516,0.082031 -0.03516,0.1054688 0,0.082031 0.05859,0.1171875 0.117187,0.1171875 0.105469,0 0.105469,-0.023437 0.152344,-0.2109375 l 0.550781,-2.15625 c 0.02344,-0.1054688 0.02344,-0.1289063 0.02344,-0.1640625 0,-0.011719 -0.01172,-0.1054688 -0.117188,-0.1054688 -0.09375,0 -0.105469,0.046875 -0.152344,0.2109375 -0.199218,0.7734375 -0.433593,0.9492188 -1.277343,0.9492188 h -0.914063 l 0.644531,-2.53125 c 0.08203,-0.3398438 0.09375,-0.3867188 0.539063,-0.3867188 h 1.3125 c 1.21875,0 1.453125,0.328125 1.453125,1.1015625 0,0.2226563 0,0.2695313 -0.03516,0.5390625 -0.01172,0.1289063 -0.01172,0.140625 -0.01172,0.1757813 0,0.046875 0.02344,0.1171875 0.117187,0.1171875 0.105469,0 0.117188,-0.058594 0.140625,-0.2460938 l 0.199219,-1.7226562 c 0.02344,-0.2695313 -0.02344,-0.2695313 -0.269531,-0.2695313 h -4.886719 c -0.199219,0 -0.292969,0 -0.292969,0.1992188 0,0.1054687 0.09375,0.1054687 0.28125,0.1054687 0.363282,0 0.644532,0 0.644532,0.1875 0,0.035156 0,0.058594 -0.04687,0.234375 l -1.324219,5.27343751 c -0.09375,0.38671875 -0.1171875,0.46875 -0.9023438,0.46875 -0.1640625,0 -0.28125,0 -0.28125,0.1875 0,0.1171875025 0.1289063,0.1171875025 0.1523438,0.1171875025 0.2929687,0 1.03125,-0.0351562525 1.3125,-0.0351562525 0.328125,0 1.160156,0.0351562525 1.488281,0.0351562525 0.09375,0 0.210938,0 0.210938,-0.1875000025 0,-0.0820313 -0.05859,-0.10546875 -0.05859,-0.1171875 -0.03516,0 -0.05859,0 -0.28125,0 -0.222656,0 -0.269531,0 -0.515625,-0.0234375 -0.292969,-0.0351563 -0.328125,-0.0703125 -0.328125,-0.19921875 0,-0.0234375 0,-0.0820313 0.04687,-0.234375 z m 0,0"
         style="fill:#000000;fill-opacity:1;fill-rule:nonzero;stroke:none" />
      <path
         id="path27"
         d="m 25.704375,-3.2576172 c 0.152344,0 0.339844,0 0.339844,-0.1992187 0,-0.1992188 -0.1875,-0.1992188 -0.328125,-0.1992188 H 19.75125 c -0.140625,0 -0.328125,0 -0.328125,0.1992188 0,0.1992187 0.1875,0.1992187 0.339844,0.1992187 z m 0.01172,1.9335938 c 0.140625,0 0.328125,0 0.328125,-0.1992188 0,-0.1992187 -0.1875,-0.1992187 -0.339844,-0.1992187 H 19.76297 c -0.152344,0 -0.339844,0 -0.339844,0.1992187 0,0.1992188 0.1875,0.1992188 0.328125,0.1992188 z m 0,0"
         style="fill:#000000;fill-opacity:1;fill-rule:nonzero;stroke:none" />
      <path
         id="path28"
         d="m 33.031523,-3.9841797 h 0.855469 c 0.199219,0 0.304688,0 0.304688,-0.1992187 0,-0.1054688 -0.105469,-0.1054688 -0.269532,-0.1054688 h -0.832031 l 0.210938,-1.1367187 c 0.03516,-0.2109375 0.175781,-0.9140625 0.234375,-1.0429688 0.09375,-0.1875 0.257812,-0.3398437 0.46875,-0.3398437 0.04687,0 0.304687,0 0.492187,0.1875 -0.433594,0.035156 -0.539062,0.3867187 -0.539062,0.5390625 0,0.2226562 0.175781,0.3398437 0.363281,0.3398437 0.269531,0 0.550781,-0.2109375 0.550781,-0.5976562 0,-0.4570313 -0.457031,-0.6796875 -0.867187,-0.6796875 -0.339844,0 -0.960938,0.1757812 -1.265625,1.1601562 -0.05859,0.2109375 -0.08203,0.3164063 -0.328125,1.5703125 h -0.679688 c -0.199219,0 -0.304687,0 -0.304687,0.1875 0,0.1171875 0.09375,0.1171875 0.28125,0.1171875 h 0.65625 l -0.75,3.93750001 c -0.175782,0.9609375 -0.339844,1.87499999 -0.867188,1.87499999 -0.03516,0 -0.28125,0 -0.46875,-0.1875 0.457031,-0.023437 0.539063,-0.3867187 0.539063,-0.5390625 0,-0.22265624 -0.175782,-0.33984374 -0.363282,-0.33984374 -0.257812,0 -0.550781,0.2109375 -0.550781,0.59765624 0,0.4453125 0.433594,0.6796875 0.84375,0.6796875 0.550781,0 0.949219,-0.5859375 1.125,-0.9609375 0.328125,-0.63281249 0.550781,-1.83984374 0.5625,-1.91015624 z m 0,0"
         style="fill:#000000;fill-opacity:1;fill-rule:nonzero;stroke:none" />
      <path
         id="path29"
         d="m 38.618437,2.3908203 c 0,-0.035156 0,-0.046875 -0.164062,-0.2226562 -1.242188,-1.25390629 -1.570313,-3.12890629 -1.570313,-4.6640625 0,-1.7226563 0.386719,-3.4570313 1.605469,-4.7109375 0.128906,-0.1171875 0.128906,-0.1289063 0.128906,-0.1640625 0,-0.070312 -0.03516,-0.1054688 -0.09375,-0.1054688 -0.105468,0 -0.996093,0.6796875 -1.582031,1.9453125 -0.515625,1.1015625 -0.632812,2.203125 -0.632812,3.0351563 0,0.7851562 0.117187,1.99218746 0.65625,3.11718746 0.597656,1.21875004 1.453125,1.87500004 1.558593,1.87500004 0.05859,0 0.09375,-0.035156 0.09375,-0.1054688 z m 0,0"
         style="fill:#000000;fill-opacity:1;fill-rule:nonzero;stroke:none" />
      <path
         id="path30"
         d="m 42.52957,-3.0115234 c 0.05859,-0.2578125 0.292969,-1.171875 0.984375,-1.171875 0.04687,0 0.292969,0 0.503907,0.1289062 -0.28125,0.046875 -0.480469,0.3046875 -0.480469,0.5390625 0,0.1640625 0.105469,0.3515625 0.375,0.3515625 0.222656,0 0.539062,-0.1875 0.539062,-0.5859375 0,-0.515625 -0.585937,-0.65625 -0.925781,-0.65625 -0.574219,0 -0.925781,0.5273438 -1.042969,0.7617188 -0.257812,-0.65625 -0.785156,-0.7617188 -1.078125,-0.7617188 -1.042968,0 -1.605468,1.2890625 -1.605468,1.5351563 0,0.1054687 0.105468,0.1054687 0.117187,0.1054687 0.08203,0 0.117188,-0.023437 0.128906,-0.1171875 0.339844,-1.0546875 0.996094,-1.3007812 1.335938,-1.3007812 0.1875,0 0.539062,0.09375 0.539062,0.6679687 0,0.3046875 -0.164062,0.9726563 -0.539062,2.3671875 -0.152344,0.62109376 -0.503906,1.04296876 -0.949219,1.04296876 -0.05859,0 -0.28125,0 -0.492187,-0.12890625 0.246093,-0.0585938 0.46875,-0.26953125 0.46875,-0.5390625 0,-0.26953121 -0.222657,-0.35156251 -0.375,-0.35156251 -0.292969,0 -0.539063,0.25781251 -0.539063,0.57421876 0,0.45703125 0.492188,0.65625 0.9375,0.65625 0.65625,0 1.007813,-0.69140625 1.042969,-0.75 0.117187,0.36328125 0.480469,0.75 1.078125,0.75 1.019531,0 1.59375,-1.27734376 1.59375,-1.53515626 0,-0.09375 -0.09375,-0.09375 -0.128906,-0.09375 -0.08203,0 -0.105469,0.035156 -0.128907,0.1054688 -0.328125,1.06640621 -0.996093,1.31249996 -1.324218,1.31249996 -0.386719,0 -0.539063,-0.328125 -0.539063,-0.65625 0,-0.22265625 0.05859,-0.44531246 0.164063,-0.87890626 z m 4.388672,2.99999996 c 0,-0.65625 -0.257812,-1.04296876 -0.644531,-1.04296876 -0.328125,0 -0.527344,0.24609376 -0.527344,0.52734376 0,0.26953125 0.199219,0.5273437525 0.527344,0.5273437525 0.117187,0 0.246094,-0.0351562525 0.351562,-0.1289062525 0.02344,-0.0234375 0.03516,-0.0351563 0.04687,-0.0351563 0.01172,0 0.02344,0.0117188 0.02344,0.15234375 0,0.73828125 -0.351563,1.33593749 -0.679688,1.66406249 -0.105468,0.1054687 -0.105468,0.1289062 -0.105468,0.1640625 0,0.070312 0.04687,0.1054687 0.09375,0.1054687 0.117187,0 0.914062,-0.7617187 0.914062,-1.93359369 z m 4.435547,-3.97265626 h 0.9375 c 0.199219,0 0.304688,0 0.304688,-0.1992187 0,-0.1054688 -0.105469,-0.1054688 -0.28125,-0.1054688 H 51.43582 c 0.363282,-1.4179687 0.410157,-1.6171875 0.410157,-1.6757812 0,-0.1757813 -0.117188,-0.2695313 -0.292969,-0.2695313 -0.02344,0 -0.304688,0.011719 -0.398438,0.3515625 l -0.386718,1.59375 h -0.9375 c -0.199219,0 -0.292969,0 -0.292969,0.1875 0,0.1171875 0.07031,0.1171875 0.269531,0.1171875 h 0.878906 c -0.714843,2.8242188 -0.75,3.00000001 -0.75,3.17578126 0,0.5390625 0.375,0.9140625 0.914063,0.9140625 1.007812,0 1.582031,-1.45312496 1.582031,-1.53515626 0,-0.09375 -0.08203,-0.09375 -0.117187,-0.09375 -0.09375,0 -0.105469,0.023437 -0.152344,0.140625 -0.433594,1.03125001 -0.960938,1.27734376 -1.300781,1.27734376 -0.199219,0 -0.304688,-0.12890625 -0.304688,-0.45703125 0,-0.24609375 0.02344,-0.31640625 0.05859,-0.48046871 z m 0,0"
         style="fill:#000000;fill-opacity:1;fill-rule:nonzero;stroke:none" />
      <path
         id="path31"
         d="m 55.803984,-2.4958984 c 0,-0.7734375 -0.117187,-1.9804688 -0.65625,-3.1054688 -0.597656,-1.21875 -1.464843,-1.875 -1.558593,-1.875 -0.05859,0 -0.105469,0.046875 -0.105469,0.1054688 0,0.035156 0,0.046875 0.199219,0.234375 0.972656,0.984375 1.535156,2.5664062 1.535156,4.640625 0,1.71093746 -0.363281,3.45703121 -1.59375,4.7226562 -0.140625,0.1171875 -0.140625,0.1289063 -0.140625,0.1640625 0,0.058594 0.04687,0.1054688 0.105469,0.1054688 0.09375,0 0.996093,-0.6796875 1.582031,-1.94531254 0.503906,-1.1015625 0.632812,-2.20312496 0.632812,-3.04687496 z m 8.704102,-4.453125 c -0.07031,-0.1289063 -0.09375,-0.1875 -0.257813,-0.1875 -0.175781,0 -0.199218,0.058594 -0.257812,0.1875 l -3.375,6.74999996 c -0.04687,0.09375 -0.04687,0.10546875 -0.04687,0.1171875 0,0.0820312525 0.05859,0.0820312525 0.222656,0.0820312525 h 6.914063 c 0.152343,0 0.210937,0 0.210937,-0.0820312525 0,-0.01171875 0,-0.0234375 -0.04687,-0.1171875 z m -0.585938,0.8085937 2.683594,5.37890626 h -5.367187 z m 0,0"
         style="fill:#000000;fill-opacity:1;fill-rule:nonzero;stroke:none" />
      <path
         id="path32"
         d="m 71.741484,-3.0115234 c 0.05859,-0.2578125 0.292969,-1.171875 0.984375,-1.171875 0.04687,0 0.292969,0 0.503907,0.1289062 -0.28125,0.046875 -0.480469,0.3046875 -0.480469,0.5390625 0,0.1640625 0.105469,0.3515625 0.375,0.3515625 0.222656,0 0.539062,-0.1875 0.539062,-0.5859375 0,-0.515625 -0.585937,-0.65625 -0.925781,-0.65625 -0.574219,0 -0.925781,0.5273438 -1.042969,0.7617188 -0.257812,-0.65625 -0.785156,-0.7617188 -1.078125,-0.7617188 -1.042968,0 -1.605468,1.2890625 -1.605468,1.5351563 0,0.1054687 0.105468,0.1054687 0.117187,0.1054687 0.08203,0 0.117188,-0.023437 0.128906,-0.1171875 0.339844,-1.0546875 0.996094,-1.3007812 1.335938,-1.3007812 0.1875,0 0.539062,0.09375 0.539062,0.6679687 0,0.3046875 -0.164062,0.9726563 -0.539062,2.3671875 -0.152344,0.62109376 -0.503906,1.04296876 -0.949219,1.04296876 -0.05859,0 -0.28125,0 -0.492187,-0.12890625 0.246093,-0.0585938 0.46875,-0.26953125 0.46875,-0.5390625 0,-0.26953121 -0.222657,-0.35156251 -0.375,-0.35156251 -0.292969,0 -0.539063,0.25781251 -0.539063,0.57421876 0,0.45703125 0.492188,0.65625 0.9375,0.65625 0.65625,0 1.007813,-0.69140625 1.042969,-0.75 0.117187,0.36328125 0.480469,0.75 1.078125,0.75 1.019531,0 1.59375,-1.27734376 1.59375,-1.53515626 0,-0.09375 -0.09375,-0.09375 -0.128906,-0.09375 -0.08203,0 -0.105469,0.035156 -0.128907,0.1054688 -0.328125,1.06640621 -0.996093,1.31249996 -1.324218,1.31249996 -0.386719,0 -0.539063,-0.328125 -0.539063,-0.65625 0,-0.22265625 0.05859,-0.44531246 0.164063,-0.87890626 z m 0,0"
         style="fill:#000000;fill-opacity:1;fill-rule:nonzero;stroke:none" />
    </g>
  </g>
</svg>
