<?xml version="1.0" encoding="UTF-8" standalone="no"?>
<!-- Created with Inkscape (http://www.inkscape.org/) -->

<svg
   version="1.1"
   id="svg1"
   width="431.44"
   height="124.28"
   viewBox="0 0 431.44 124.28"
   sodipodi:docname="string.pdf"
   xmlns:inkscape="http://www.inkscape.org/namespaces/inkscape"
   xmlns:sodipodi="http://sodipodi.sourceforge.net/DTD/sodipodi-0.dtd"
   xmlns="http://www.w3.org/2000/svg"
   xmlns:svg="http://www.w3.org/2000/svg">
  <defs
     id="defs1" />
  <sodipodi:namedview
     id="namedview1"
     pagecolor="#ffffff"
     bordercolor="#000000"
     borderopacity="0.25"
     inkscape:showpageshadow="2"
     inkscape:pageopacity="0.0"
     inkscape:pagecheckerboard="0"
     inkscape:deskcolor="#d1d1d1">
    <inkscape:page
       x="0"
       y="0"
       inkscape:label="1"
       id="page1"
       width="431.44"
       height="124.28"
       margin="0"
       bleed="0" />
  </sodipodi:namedview>
  <g
     id="g1"
     inkscape:groupmode="layer"
     inkscape:label="1">
    <path
       id="path1"
       d="m 37.36038,-168.6597 h 311.43613 m -280.29253,47.62703 v -52.92473 m 275.06208,9.03374 5.23045,-3.73604 -5.23045,-3.73604 m -278.79812,46.13262 3.73604,5.23045 3.73604,-5.23045"
       style="fill:none;stroke:#000000;stroke-width:0.74721;stroke-linecap:butt;stroke-linejoin:miter;stroke-miterlimit:10;stroke-dasharray:none;stroke-opacity:1"
       transform="matrix(1.3333333,0,0,-1.3333333,-44.892,-142.03067)" />
    <path
       id="path2"
       d="m 68.50398,-168.6597 c 29.88831,22.41623 135.82741,-30.32916 166.71697,-0.934 30.88211,29.38768 64.00581,-17.6864 82.686,0.99379"
       style="fill:none;stroke:#f5a623;stroke-width:1.49442;stroke-linecap:butt;stroke-linejoin:miter;stroke-miterlimit:10;stroke-dasharray:none;stroke-opacity:1"
       transform="matrix(1.3333333,0,0,-1.3333333,-44.892,-142.03067)" />
    <path
       id="path3"
       d="m 4.5822266,-3.1887031 c 0,-0.796875 -0.046875,-1.59375 -0.3984375,-2.3320313 -0.4570313,-0.9609375 -1.2773438,-1.1132812 -1.6875,-1.1132812 -0.5976563,0 -1.3359375,0.2578125 -1.73437504,1.1835937 -0.328125,0.6914063 -0.375,1.4648438 -0.375,2.2617188 0,0.75 0.046875,1.640625 0.4453125,2.40234373 0.43359374,0.80859375 1.16015624,1.0078125 1.65234374,1.0078125 0.5390625,0 1.2890625,-0.2109375 1.734375,-1.16015625 C 4.5353516,-1.6301094 4.5822266,-2.4035469 4.5822266,-3.1887031 Z m -2.0976563,3.18749998 c -0.3867187,0 -0.984375,-0.24609375 -1.1601562,-1.20703128 -0.1054688,-0.5976562 -0.1054688,-1.5117187 -0.1054688,-2.0976562 0,-0.6445313 0,-1.3007813 0.082031,-1.8398438 0.1875,-1.1835937 0.9257812,-1.265625 1.1835937,-1.265625 0.328125,0 0.984375,0.1757813 1.171875,1.1601563 0.09375,0.5625 0.09375,1.3125 0.09375,1.9453125 0,0.75 0,1.4179687 -0.1054687,2.0625 -0.1523438,0.93749998 -0.7148438,1.24218748 -1.160156,1.24218748 z m 0,0"
       style="fill:#000000;fill-opacity:1;fill-rule:nonzero;stroke:none"
       aria-label="0"
       transform="matrix(1.3333333,0,0,1.3333333,49.933333,96.290667)" />
    <path
       id="path4"
       d="m 0.1630625,-0.98421875 c -0.0234375,0.0234375 -0.0585938,0.0585938 -0.0585938,0.09375 0,0.0585938 0.0585938,0.12890625 0.12890625,0.12890625 0.046875,0 0.0703125,-0.0234375 0.3515625,-0.3046875 0.0820313,-0.070312 0.28125,-0.2578125 0.36328125,-0.3398437 0.0937501,0.7851562 0.3867187,1.52343745 1.1132813,1.52343745 0.3984375,0 0.75,-0.22265625 0.9609375,-0.375 0.1289063,-0.10546875 0.5976563,-0.4921875 0.5976563,-0.5859375 0,-0.0351563 -0.023437,-0.1171875 -0.1171875,-0.1171875 -0.023437,0 -0.035156,0 -0.1289063,0.0820313 -0.6328125,0.6328125 -1.0078125,0.7734375 -1.2890625,0.7734375 -0.4570313,0 -0.6093751,-0.515625 -0.6093751,-1.28906245 0,-0.058594 0.023437,-0.515625 0.046875,-0.5625 0.023437,-0.035156 0.023437,-0.058594 0.2226563,-0.2578126 0.8085938,-0.8085937 2.2148438,-2.4843749 2.2148438,-4.0312499 0,-0.1640625 0,-0.7734375 -0.5859375,-0.7734375 -0.8203125,0 -1.5585938,1.640625 -1.6640626,1.875 -0.4804687,1.078125 -0.7851562,2.25 -0.7851562,3.4335938 z M 1.5693125,-2.37875 c 0.023437,-0.1171875 0.4570313,-2.3203125 1.0195313,-3.4921875 0.2695312,-0.5390625 0.4804687,-0.9375 0.796875,-0.9375 0.3398437,0 0.3398437,0.3632813 0.3398437,0.5273438 0,1.6640625 -1.6757812,3.3984375 -2.15625,3.9023437 z m 0,0"
       style="fill:#000000;fill-opacity:1;fill-rule:nonzero;stroke:none"
       aria-label="ℓ"
       transform="matrix(1.3333333,0,0,1.3333333,374.50133,96.546667)" />
    <path
       id="path5"
       d="m 3.3276563,-3.0125 c 0.058594,-0.2578125 0.2929687,-1.171875 0.984375,-1.171875 0.046875,0 0.2929687,0 0.5039062,0.1289062 -0.28125,0.046875 -0.4804687,0.3046875 -0.4804687,0.5390625 0,0.1640625 0.1054687,0.3515625 0.375,0.3515625 0.2226562,0 0.5390625,-0.1875 0.5390625,-0.5859375 0,-0.515625 -0.5859375,-0.65625 -0.9257813,-0.65625 -0.5742187,0 -0.9257812,0.5273438 -1.0429687,0.7617188 -0.2578125,-0.65625 -0.7851563,-0.7617188 -1.078125,-0.7617188 -1.0429688,0 -1.6054688,1.2890625 -1.6054688,1.5351563 0,0.1054687 0.10546875,0.1054687 0.1171875,0.1054687 0.0820313,0 0.1171875,-0.023437 0.12890625,-0.1171875 C 1.183125,-3.9382813 1.839375,-4.184375 2.1792188,-4.184375 c 0.1875,0 0.5390625,0.09375 0.5390625,0.6679687 0,0.3046875 -0.1640625,0.9726563 -0.5390625,2.3671875 C 2.026875,-0.528125 1.6753125,-0.10625 1.23,-0.10625 c -0.058594,0 -0.28125,0 -0.4921875,-0.12890625 0.24609375,-0.0585938 0.46875,-0.26953125 0.46875,-0.5390625 0,-0.26953125 -0.22265625,-0.35156255 -0.375,-0.35156255 -0.29296875,0 -0.5390625,0.25781255 -0.5390625,0.5742188 0,0.45703125 0.4921875,0.65625 0.9375,0.65625 0.65625,0 1.0078125,-0.69140625 1.0429688,-0.75 0.1171875,0.36328125 0.4804687,0.75 1.078125,0.75 1.0195312,0 1.59375,-1.2773438 1.59375,-1.5351563 0,-0.09375 -0.09375,-0.09375 -0.1289063,-0.09375 -0.082031,0 -0.1054687,0.035156 -0.1289062,0.1054688 -0.328125,1.06640625 -0.9960938,1.3125 -1.3242188,1.3125 -0.3867187,0 -0.5390625,-0.328125 -0.5390625,-0.65625 0,-0.22265625 0.058594,-0.4453125 0.1640625,-0.8789063 z m 0,0"
       style="fill:#000000;fill-opacity:1;fill-rule:nonzero;stroke:none"
       aria-label="x"
       transform="matrix(1.3333333,0,0,1.3333333,422.86,83.766667)" />
    <path
       id="path6"
       d="m 3.491125,-0.5634375 c 0.1054687,0.41015625 0.4570312,0.66796875 0.8789062,0.66796875 0.3515625,0 0.5742188,-0.22265625 0.7382813,-0.5390625 C 5.2840937,-0.7978125 5.413,-1.4071875 5.413,-1.430625 c 0,-0.09375 -0.09375,-0.09375 -0.1289063,-0.09375 -0.09375,0 -0.1054687,0.035156 -0.140625,0.1757813 -0.1289062,0.56249995 -0.328125,1.24218745 -0.7382812,1.24218745 -0.2109375,0 -0.3164063,-0.12890625 -0.3164063,-0.45703125 0,-0.22265625 0.1289063,-0.6914062 0.1992188,-1.0429687 l 0.28125,-1.078125 C 4.604406,-2.8251562 4.6981562,-3.211875 4.7450312,-3.3525 c 0.046875,-0.234375 0.140625,-0.609375 0.140625,-0.6679687 0,-0.1875 -0.140625,-0.2695313 -0.28125,-0.2695313 -0.058594,0 -0.3164062,0 -0.3867187,0.3398438 -0.1992188,0.7265625 -0.6328125,2.4726562 -0.75,2.99999995 -0.011719,0.046875 -0.4101563,0.84375 -1.1367188,0.84375 -0.515625,0 -0.6210937,-0.45703125 -0.6210937,-0.8203125 0,-0.56249995 0.28125,-1.34765625 0.5390625,-2.02734375 C 2.366125,-3.25875 2.4247187,-3.399375 2.4247187,-3.586875 c 0,-0.4453125 -0.328125,-0.8203125 -0.8203125,-0.8203125 -0.9492187,0 -1.31249995,1.453125 -1.31249995,1.5351563 0,0.1054687 0.09375,0.1054687 0.1171875,0.1054687 0.09375,0 0.10546875,-0.023437 0.15234375,-0.1875 C 0.81925,-3.82125 1.19425,-4.1845312 1.56925,-4.1845312 c 0.09375,0 0.2578125,0.011719 0.2578125,0.328125 0,0.234375 -0.1171875,0.5273437 -0.1757813,0.6796875 C 1.288,-2.1923437 1.0770625,-1.57125 1.0770625,-1.0907812 c 0,0.9492187 0.6796875,1.19531245 1.21875,1.19531245 0.65625,0 1.0195312,-0.4453125 1.1953125,-0.66796875 z m 0,0"
       style="fill:#000000;fill-opacity:1;fill-rule:nonzero;stroke:none"
       aria-label="u"
       transform="matrix(1.3333333,0,0,1.3333333,42.282667,7.72)" />
  </g>
</svg>
