<?xml version="1.0" encoding="UTF-8" standalone="no"?>
<!-- Created with Inkscape (http://www.inkscape.org/) -->

<svg
   version="1.1"
   id="svg1"
   width="345.60001"
   height="192.01334"
   viewBox="0 0 345.60001 192.01334"
   sodipodi:docname="third-bc.pdf"
   xmlns:inkscape="http://www.inkscape.org/namespaces/inkscape"
   xmlns:sodipodi="http://sodipodi.sourceforge.net/DTD/sodipodi-0.dtd"
   xmlns="http://www.w3.org/2000/svg"
   xmlns:svg="http://www.w3.org/2000/svg">
  <defs
     id="defs1" />
  <sodipodi:namedview
     id="namedview1"
     pagecolor="#ffffff"
     bordercolor="#000000"
     borderopacity="0.25"
     inkscape:showpageshadow="2"
     inkscape:pageopacity="0.0"
     inkscape:pagecheckerboard="0"
     inkscape:deskcolor="#d1d1d1">
    <inkscape:page
       x="0"
       y="0"
       inkscape:label="1"
       id="page1"
       width="345.60001"
       height="192.01334"
       margin="0"
       bleed="0" />
  </sodipodi:namedview>
  <g
     id="g1"
     inkscape:groupmode="layer"
     inkscape:label="1">
    <path
       id="path1"
       d="m 115.593,-65.00706 h 49.53989 V -87.4233 H 115.593 Z"
       style="fill:#f5a623;fill-opacity:0.5;fill-rule:nonzero;stroke:#8b572a;stroke-width:0.74721;stroke-linecap:butt;stroke-linejoin:miter;stroke-miterlimit:10;stroke-dasharray:none;stroke-opacity:0.5"
       transform="matrix(1.3333333,0,0,-1.3333333,-16.029333,-86.177333)" />
    <path
       id="path2"
       d="m 133.00296,-115.06998 h 90.92021 v -22.41622 h -90.92021 z"
       style="fill:#f5a623;fill-opacity:1;fill-rule:nonzero;stroke:#000000;stroke-width:0.74721;stroke-linecap:butt;stroke-linejoin:miter;stroke-miterlimit:10;stroke-dasharray:none;stroke-opacity:1"
       transform="matrix(1.3333333,0,0,-1.3333333,-16.029333,-86.177333)" />
    <path
       id="path3"
       d="M 83.68726,-161.53134 H 265.13914"
       style="fill:none;stroke:#000000;stroke-width:0.74721;stroke-linecap:butt;stroke-linejoin:miter;stroke-miterlimit:10;stroke-dasharray:none;stroke-opacity:1"
       transform="matrix(1.3333333,0,0,-1.3333333,-16.029333,-86.177333)" />
    <path
       id="path4"
       d="m 258.46658,-163.98962 c 2.9739,1.41221 5.69373,2.23412 8.16698,2.45828 -2.47325,0.22417 -5.19308,1.04608 -8.16698,2.4583"
       style="fill:none;stroke:#000000;stroke-width:0.74721;stroke-linecap:butt;stroke-linejoin:miter;stroke-miterlimit:10;stroke-dasharray:none;stroke-opacity:1"
       transform="matrix(1.3333333,0,0,-1.3333333,-16.029333,-86.177333)" />
    <path
       id="path5"
       d="m 165.13289,-87.4233 v -74.10804"
       style="fill:none;stroke:#000000;stroke-width:0.74721;stroke-linecap:butt;stroke-linejoin:miter;stroke-miterlimit:10;stroke-dasharray:4.48325, 4.48325;stroke-dashoffset:0;stroke-opacity:0.5"
       transform="matrix(1.3333333,0,0,-1.3333333,-16.029333,-86.177333)" />
    <path
       id="path6"
       d="m 133.00296,-137.4862 v -56.98205"
       style="fill:none;stroke:#000000;stroke-width:0.74721;stroke-linecap:butt;stroke-linejoin:miter;stroke-miterlimit:10;stroke-dasharray:4.48325, 4.48325;stroke-dashoffset:0;stroke-opacity:0.5"
       transform="matrix(1.3333333,0,0,-1.3333333,-16.029333,-86.177333)" />
    <path
       id="path7"
       d="m 115.593,-87.4233 v -74.10804"
       style="fill:none;stroke:#000000;stroke-width:0.74721;stroke-linecap:butt;stroke-linejoin:miter;stroke-miterlimit:10;stroke-dasharray:4.48325, 4.48325;stroke-dashoffset:0;stroke-opacity:0.5"
       transform="matrix(1.3333333,0,0,-1.3333333,-16.029333,-86.177333)" />
    <path
       id="path8"
       d="m 223.93811,-137.4862 v -58.10285"
       style="fill:none;stroke:#000000;stroke-width:0.74721;stroke-linecap:butt;stroke-linejoin:miter;stroke-miterlimit:10;stroke-dasharray:4.48325, 4.48325;stroke-dashoffset:0;stroke-opacity:0.5"
       transform="matrix(1.3333333,0,0,-1.3333333,-16.029333,-86.177333)" />
    <path
       id="path9"
       d="M 133.3616,-127.0253 H 73.48038"
       style="fill:none;stroke:#000000;stroke-width:0.74721;stroke-linecap:butt;stroke-linejoin:miter;stroke-miterlimit:10;stroke-dasharray:none;stroke-opacity:1"
       transform="matrix(1.3333333,0,0,-1.3333333,-16.029333,-86.177333)" />
    <path
       id="path10"
       d="m 77.91132,-123.8198 -6.67257,-3.2055 6.67257,-3.20549 z"
       style="fill:#000000;fill-opacity:1;fill-rule:nonzero;stroke:#000000;stroke-width:0.0797;stroke-linecap:butt;stroke-linejoin:miter;stroke-miterlimit:10;stroke-dasharray:none;stroke-opacity:0"
       transform="matrix(1.3333333,0,0,-1.3333333,-16.029333,-86.177333)" />
    <path
       id="path11"
       d="m 165.3944,-79.56265 h 18.97907 c 0.27648,5.66383 2.91411,10.50573 6.64267,12.2019 3.72858,1.68868 7.78592,-0.11209 10.23674,-4.53555 1.88297,-3.45958 2.64513,-7.92041 2.10714,-12.26169 0,-1.68869 -0.94895,-3.06354 -2.10714,-3.06354 -1.16563,0 -2.11459,1.37485 -2.11459,3.06354 -0.53799,4.34128 0.22417,8.80211 2.11459,12.26169 2.18933,3.67625 5.23793,5.76097 8.43599,5.76097 3.19057,0 6.23917,-2.08472 8.43596,-5.76097 1.88298,-3.45958 2.64513,-7.92041 2.10713,-12.26169 0,-1.68869 -0.94896,-3.06354 -2.10713,-3.06354 -1.16563,0 -2.11459,1.37485 -2.11459,3.06354 -0.53798,4.34128 0.22416,8.80211 2.11459,12.26169 2.18933,3.67625 5.23793,5.76097 8.43599,5.76097 3.19057,0 6.23918,-2.08472 8.43598,-5.76097 1.88296,-3.45958 2.65257,-7.92041 2.10713,-12.26169 0,-1.68869 -0.94898,-3.06354 -2.10713,-3.06354 -1.16565,0 -2.11461,1.37485 -2.11461,3.06354 -0.53798,4.34128 0.22416,8.80211 2.11461,12.26169 2.44337,4.42346 6.5007,6.22423 10.22927,4.53555 3.73604,-1.69617 6.36622,-6.53807 6.64267,-12.2019 h 18.97907"
       style="fill:none;stroke:#9b9b9b;stroke-width:0.74721;stroke-linecap:butt;stroke-linejoin:miter;stroke-miterlimit:10;stroke-dasharray:none;stroke-opacity:1"
       transform="matrix(1.3333333,0,0,-1.3333333,-16.029333,-86.177333)" />
    <path
       id="path12"
       d="m 223.97548,-127.08507 h 8.06236 c 0.11209,5.66384 1.23291,10.50574 2.81699,12.20191 1.58407,1.68869 3.31012,-0.11208 4.34875,-4.53556 0.7995,-3.45956 1.12081,-7.92039 0.89664,-12.26165 0,-1.68871 -0.4035,-3.06357 -0.89664,-3.06357 -0.49318,0 -0.89666,1.37486 -0.89666,3.06357 -0.23163,4.34126 0.0971,8.80209 0.89666,12.26165 0.92653,3.67627 2.22666,5.76099 3.5791,5.76099 1.35993,0 2.65259,-2.08472 3.58662,-5.76099 0.7995,-3.45956 1.1208,-7.92039 0.88917,-12.26165 0,-1.68871 -0.39601,-3.06357 -0.88917,-3.06357 -0.50065,0 -0.89666,1.37486 -0.89666,3.06357 -0.23163,4.34126 0.0971,8.80209 0.89666,12.26165 0.92654,3.67627 2.22666,5.76099 3.57911,5.76099 1.35246,0 2.6526,-2.08472 3.57913,-5.76099 0.79952,-3.45956 1.12828,-7.92039 0.89666,-12.26165 0,-1.68871 -0.39603,-3.06357 -0.89666,-3.06357 -0.49316,0 -0.88919,1.37486 -0.88919,3.06357 -0.23163,4.34126 0.0897,8.80209 0.88919,12.26165 1.03862,4.42348 2.76468,6.22425 4.34876,4.53556 1.58407,-1.69617 2.70488,-6.53807 2.81697,-12.20191 h 8.06236"
       style="fill:none;stroke:#9b9b9b;stroke-width:0.74721;stroke-linecap:butt;stroke-linejoin:miter;stroke-miterlimit:10;stroke-dasharray:none;stroke-opacity:1"
       transform="matrix(1.3333333,0,0,-1.3333333,-16.029333,-86.177333)" />
    <path
       id="path13"
       d="m 0.16324219,-0.98385937 c -0.0234375,0.0234375 -0.0585938,0.0585938 -0.0585938,0.09375 0,0.0585938 0.0585938,0.12890625 0.12890625,0.12890625 0.046875,0 0.0703125,-0.0234375 0.3515625,-0.30468748 0.0820313,-0.070312 0.28125,-0.2578125 0.36328125,-0.3398438 0.09375,0.78515628 0.38671881,1.52343753 1.11328131,1.52343753 0.3984375,0 0.75,-0.22265625 0.9609375,-0.375 0.1289061,-0.10546875 0.5976561,-0.4921875 0.5976561,-0.5859375 0,-0.0351563 -0.023437,-0.1171875 -0.1171875,-0.1171875 -0.023437,0 -0.035156,0 -0.1289061,0.0820313 -0.6328125,0.6328125 -1.0078125,0.7734375 -1.2890625,0.7734375 -0.4570314,0 -0.6093751,-0.515625 -0.6093751,-1.28906243 0,-0.058594 0.023437,-0.515625 0.046875,-0.5625 0.023437,-0.035156 0.023437,-0.058594 0.2226562,-0.2578125 0.8085939,-0.8085939 2.2148439,-2.484375 2.2148439,-4.03125 0,-0.1640625 0,-0.7734375 -0.5859375,-0.7734375 -0.8203125,0 -1.5585938,1.640625 -1.6640625,1.875 -0.4804688,1.078125 -0.78515631,2.25 -0.78515631,3.4335937 z M 1.5694922,-2.3783906 c 0.023437,-0.1171875 0.4570312,-2.3203125 1.0195312,-3.4921875 0.2695313,-0.5390625 0.4804688,-0.9375 0.796875,-0.9375 0.3398438,0 0.3398438,0.3632812 0.3398438,0.5273437 0,1.6640625 -1.6757813,3.3984375 -2.15625,3.9023438 z m 0,0"
       style="fill:#000000;fill-opacity:0.5;fill-rule:nonzero;stroke:none"
       aria-label="ℓ"
       transform="matrix(1.3333333,0,0,1.3333333,201.38,143.304)" />
    <g
       id="g13"
       aria-label="ℓ+u(ℓ,t)"
       transform="matrix(1.3333333,0,0,1.3333333,254.584,187.69867)">
      <path
         id="path14"
         d="m 0.16551562,-0.98396094 c -0.0234375,0.0234375 -0.0585938,0.0585938 -0.0585938,0.09375 0,0.0585938 0.0585938,0.12890625 0.12890625,0.12890625 0.046875,0 0.0703125,-0.0234375 0.3515625,-0.30468751 0.0820313,-0.070312 0.28125,-0.2578125 0.36328125,-0.3398437 0.09375,0.78515621 0.38671868,1.52343746 1.11328118,1.52343746 0.3984375,0 0.75,-0.22265625 0.9609375,-0.375 0.1289064,-0.10546875 0.5976564,-0.4921875 0.5976564,-0.5859375 0,-0.0351563 -0.023437,-0.1171875 -0.1171875,-0.1171875 -0.023437,0 -0.035156,0 -0.1289064,0.0820313 -0.6328125,0.6328125 -1.0078125,0.7734375 -1.2890625,0.7734375 -0.4570312,0 -0.609375,-0.515625 -0.609375,-1.28906246 0,-0.058594 0.023437,-0.515625 0.046875,-0.5625 0.023437,-0.035156 0.023437,-0.058594 0.2226563,-0.2578126 0.8085937,-0.8085937 2.2148437,-2.4843749 2.2148437,-4.0312499 0,-0.1640625 0,-0.7734375 -0.5859375,-0.7734375 -0.8203125,0 -1.5585937,1.640625 -1.6640625,1.875 -0.4804687,1.078125 -0.78515618,2.25 -0.78515618,3.4335938 z M 1.5717656,-2.3784922 c 0.023437,-0.1171875 0.4570313,-2.3203125 1.0195313,-3.4921875 0.2695312,-0.5390625 0.4804687,-0.9375 0.796875,-0.9375 0.3398437,0 0.3398437,0.3632813 0.3398437,0.5273438 0,1.6640625 -1.6757812,3.3984375 -2.15625,3.9023437 z m 0,0"
         style="fill:#000000;fill-opacity:1;fill-rule:nonzero;stroke:none" />
      <path
         id="path15"
         d="m 10.442859,-2.2964609 h 2.777344 c 0.140625,0 0.328125,0 0.328125,-0.1992188 0,-0.1992187 -0.1875,-0.1992187 -0.328125,-0.1992187 h -2.777344 v -2.7890625 c 0,-0.1289063 0,-0.328125 -0.199218,-0.328125 -0.199219,0 -0.199219,0.1992187 -0.199219,0.328125 v 2.7890625 H 7.2553594 c -0.140625,0 -0.328125,0 -0.328125,0.1992187 0,0.1992188 0.1875,0.1992188 0.328125,0.1992188 h 2.7890626 v 2.80078121 c 0,0.12890625 0,0.328125 0.199219,0.328125 0.199218,0 0.199218,-0.19921875 0.199218,-0.328125 z m 0,0"
         style="fill:#000000;fill-opacity:1;fill-rule:nonzero;stroke:none" />
      <path
         id="path16"
         d="m 19.817859,-0.56208594 c 0.105469,0.41015625 0.457032,0.66796875 0.878907,0.66796875 0.351562,0 0.574218,-0.22265625 0.738281,-0.5390625 0.175781,-0.36328125 0.304687,-0.97265621 0.304687,-0.99609371 0,-0.09375 -0.09375,-0.09375 -0.128906,-0.09375 -0.09375,0 -0.105469,0.035156 -0.140625,0.1757812 -0.128906,0.56250001 -0.328125,1.24218751 -0.738281,1.24218751 -0.210938,0 -0.316406,-0.12890625 -0.316406,-0.45703125 0,-0.22265625 0.128906,-0.69140626 0.199218,-1.04296876 l 0.28125,-1.078125 c 0.03516,-0.140625 0.128907,-0.5273437 0.175782,-0.6679687 0.04687,-0.234375 0.140625,-0.609375 0.140625,-0.6679688 0,-0.1875 -0.140625,-0.2695312 -0.28125,-0.2695312 -0.05859,0 -0.316407,0 -0.386719,0.3398437 -0.199219,0.7265625 -0.632813,2.4726563 -0.75,3.00000001 -0.01172,0.046875 -0.410156,0.84375 -1.136719,0.84375 -0.515625,0 -0.621094,-0.45703125 -0.621094,-0.8203125 0,-0.56250001 0.28125,-1.34765621 0.539063,-2.02734371 0.117187,-0.3046875 0.175781,-0.4453125 0.175781,-0.6328125 0,-0.4453125 -0.328125,-0.8203125 -0.820312,-0.8203125 -0.949219,0 -1.3125,1.453125 -1.3125,1.5351562 0,0.1054688 0.09375,0.1054688 0.117187,0.1054688 0.09375,0 0.105469,-0.023437 0.152344,-0.1875 0.257812,-0.8671875 0.632812,-1.2304688 1.007812,-1.2304688 0.09375,0 0.257813,0.011719 0.257813,0.328125 0,0.234375 -0.117188,0.5273438 -0.175781,0.6796875 -0.363282,0.984375 -0.574219,1.6054688 -0.574219,2.0859375 0,0.94921876 0.679687,1.19531251 1.21875,1.19531251 0.65625,0 1.019531,-0.4453125 1.195312,-0.66796875 z m 0,0"
         style="fill:#000000;fill-opacity:1;fill-rule:nonzero;stroke:none" />
      <path
         id="path17"
         d="m 25.322742,2.3910391 c 0,-0.035156 0,-0.046875 -0.164062,-0.2226563 -1.242188,-1.25390624 -1.570313,-3.12890624 -1.570313,-4.6640625 0,-1.7226562 0.386719,-3.4570312 1.605469,-4.7109375 0.128906,-0.1171875 0.128906,-0.1289062 0.128906,-0.1640625 0,-0.070312 -0.03516,-0.1054687 -0.09375,-0.1054687 -0.105469,0 -0.996094,0.6796875 -1.582031,1.9453125 -0.515625,1.1015625 -0.632813,2.203125 -0.632813,3.0351562 0,0.7851563 0.117188,1.99218751 0.65625,3.11718751 0.597657,1.21874999 1.453125,1.87499999 1.558594,1.87499999 0.05859,0 0.09375,-0.035156 0.09375,-0.1054687 z m 0,0"
         style="fill:#000000;fill-opacity:1;fill-rule:nonzero;stroke:none" />
      <path
         id="path18"
         d="m 26.069812,-0.98396094 c -0.02344,0.0234375 -0.05859,0.0585938 -0.05859,0.09375 0,0.0585938 0.05859,0.12890625 0.128906,0.12890625 0.04687,0 0.07031,-0.0234375 0.351562,-0.30468751 0.08203,-0.070312 0.28125,-0.2578125 0.363282,-0.3398437 0.09375,0.78515621 0.386718,1.52343746 1.113281,1.52343746 0.398437,0 0.75,-0.22265625 0.960937,-0.375 0.128907,-0.10546875 0.597657,-0.4921875 0.597657,-0.5859375 0,-0.0351563 -0.02344,-0.1171875 -0.117188,-0.1171875 -0.02344,0 -0.03516,0 -0.128906,0.0820313 -0.632813,0.6328125 -1.007813,0.7734375 -1.289063,0.7734375 -0.457031,0 -0.609375,-0.515625 -0.609375,-1.28906246 0,-0.058594 0.02344,-0.515625 0.04687,-0.5625 0.02344,-0.035156 0.02344,-0.058594 0.222657,-0.2578126 0.808593,-0.8085937 2.214843,-2.4843749 2.214843,-4.0312499 0,-0.1640625 0,-0.7734375 -0.585937,-0.7734375 -0.820313,0 -1.558594,1.640625 -1.664063,1.875 -0.480468,1.078125 -0.785156,2.25 -0.785156,3.4335938 z m 1.40625,-1.39453126 c 0.02344,-0.1171875 0.457032,-2.3203125 1.019532,-3.4921875 0.269531,-0.5390625 0.480468,-0.9375 0.796875,-0.9375 0.339843,0 0.339843,0.3632813 0.339843,0.5273438 0,1.6640625 -1.675781,3.3984375 -2.15625,3.9023437 z m 4.59961,2.36718751 c 0,-0.65625 -0.257813,-1.04296871 -0.644531,-1.04296871 -0.328125,0 -0.527344,0.24609371 -0.527344,0.52734371 0,0.26953125 0.199219,0.5273437525 0.527344,0.5273437525 0.117187,0 0.246093,-0.0351562525 0.351562,-0.1289062525 0.02344,-0.0234375 0.03516,-0.0351563 0.04687,-0.0351563 0.01172,0 0.02344,0.0117188 0.02344,0.15234375 0,0.73828125 -0.351563,1.33593744 -0.679688,1.66406244 -0.105469,0.1054688 -0.105469,0.1289063 -0.105469,0.1640625 0,0.070312 0.04687,0.1054688 0.09375,0.1054688 0.117188,0 0.914063,-0.7617188 0.914063,-1.93359374 z m 4.438476,-3.97265621 h 0.9375 c 0.199219,0 0.304688,0 0.304688,-0.1992188 0,-0.1054687 -0.105469,-0.1054687 -0.28125,-0.1054687 H 36.59618 c 0.363281,-1.4179688 0.410156,-1.6171875 0.410156,-1.6757813 0,-0.1757812 -0.117188,-0.2695312 -0.292969,-0.2695312 -0.02344,0 -0.304687,0.011719 -0.398437,0.3515625 l -0.386719,1.59375 h -0.9375 c -0.199219,0 -0.292969,0 -0.292969,0.1875 0,0.1171875 0.07031,0.1171875 0.269531,0.1171875 h 0.878907 c -0.714844,2.8242187 -0.75,2.99999996 -0.75,3.17578121 0,0.5390625 0.375,0.9140625 0.914062,0.9140625 1.007813,0 1.582031,-1.45312501 1.582031,-1.53515621 0,-0.09375 -0.08203,-0.09375 -0.117187,-0.09375 -0.09375,0 -0.105469,0.023437 -0.152344,0.140625 -0.433594,1.03124996 -0.960937,1.27734371 -1.300781,1.27734371 -0.199219,0 -0.304688,-0.12890625 -0.304688,-0.45703125 0,-0.24609375 0.02344,-0.31640625 0.05859,-0.48046876 z m 0,0"
         style="fill:#000000;fill-opacity:1;fill-rule:nonzero;stroke:none" />
      <path
         id="path19"
         d="m 40.964344,-2.4956797 c 0,-0.7734375 -0.117188,-1.9804687 -0.65625,-3.1054687 -0.597657,-1.21875 -1.464844,-1.875 -1.558594,-1.875 -0.05859,0 -0.105469,0.046875 -0.105469,0.1054687 0,0.035156 0,0.046875 0.199219,0.234375 0.972656,0.984375 1.535156,2.5664063 1.535156,4.640625 0,1.71093751 -0.363281,3.45703126 -1.59375,4.7226563 -0.140625,0.1171875 -0.140625,0.1289062 -0.140625,0.1640625 0,0.058594 0.04687,0.1054687 0.105469,0.1054687 0.09375,0 0.996094,-0.6796875 1.582031,-1.94531249 0.503906,-1.1015625 0.632813,-2.20312501 0.632813,-3.04687501 z m 0,0"
         style="fill:#000000;fill-opacity:1;fill-rule:nonzero;stroke:none" />
    </g>
    <g
       id="g19"
       aria-label="ℓ−∆x"
       transform="matrix(1.3333333,0,0,1.3333333,117.87867,143.304)">
      <path
         id="path20"
         d="m 0.16424219,-0.98385937 c -0.0234375,0.0234375 -0.0585938,0.0585938 -0.0585938,0.09375 0,0.0585938 0.0585938,0.12890625 0.12890625,0.12890625 0.046875,0 0.0703125,-0.0234375 0.3515625,-0.30468748 0.0820313,-0.070312 0.28125,-0.2578125 0.36328125,-0.3398438 0.09375,0.78515628 0.38671871,1.52343753 1.11328121,1.52343753 0.3984375,0 0.75,-0.22265625 0.9609375,-0.375 0.1289062,-0.10546875 0.5976562,-0.4921875 0.5976562,-0.5859375 0,-0.0351563 -0.023437,-0.1171875 -0.1171875,-0.1171875 -0.023437,0 -0.035156,0 -0.1289062,0.0820313 -0.6328125,0.6328125 -1.0078125,0.7734375 -1.2890625,0.7734375 -0.4570313,0 -0.609375,-0.515625 -0.609375,-1.28906243 0,-0.058594 0.023437,-0.515625 0.046875,-0.5625 0.023437,-0.035156 0.023437,-0.058594 0.2226562,-0.2578125 0.8085938,-0.8085939 2.2148438,-2.484375 2.2148438,-4.03125 0,-0.1640625 0,-0.7734375 -0.5859375,-0.7734375 -0.8203125,0 -1.5585938,1.640625 -1.6640625,1.875 -0.4804688,1.078125 -0.78515621,2.25 -0.78515621,3.4335937 z M 1.5704922,-2.3783906 c 0.023437,-0.1171875 0.4570312,-2.3203125 1.0195312,-3.4921875 0.2695313,-0.5390625 0.4804688,-0.9375 0.796875,-0.9375 0.3398438,0 0.3398438,0.3632812 0.3398438,0.5273437 0,1.6640625 -1.6757813,3.3984375 -2.15625,3.9023438 z m 0,0"
         style="fill:#000000;fill-opacity:0.5;fill-rule:nonzero;stroke:none" />
      <path
         id="path21"
         d="m 12.928891,-2.2963594 c 0.175781,0 0.351562,0 0.351562,-0.1992187 0,-0.1992188 -0.175781,-0.1992188 -0.351562,-0.1992188 H 7.5382656 c -0.1640625,0 -0.3398437,0 -0.3398437,0.1992188 0,0.1992187 0.1757812,0.1992187 0.3398437,0.1992187 z m 0,0"
         style="fill:#000000;fill-opacity:0.5;fill-rule:nonzero;stroke:none" />
      <path
         id="path22"
         d="m 20.733578,-6.9487031 c -0.07031,-0.1289063 -0.09375,-0.1875 -0.257812,-0.1875 -0.175782,0 -0.199219,0.058594 -0.257813,0.1875 l -3.375,6.74999998 c -0.04687,0.09375 -0.04687,0.10546875 -0.04687,0.1171875 0,0.082031245 0.05859,0.082031245 0.222656,0.082031245 h 6.914063 c 0.152344,0 0.210937,0 0.210937,-0.082031245 0,-0.01171875 0,-0.0234375 -0.04687,-0.1171875 z m -0.585937,0.8085937 2.683593,5.37890628 h -5.367187 z m 0,0"
         style="fill:#000000;fill-opacity:0.5;fill-rule:nonzero;stroke:none" />
      <path
         id="path23"
         d="m 27.958187,-3.0112031 c 0.05859,-0.2578125 0.292969,-1.171875 0.984375,-1.171875 0.04687,0 0.292969,0 0.503907,0.1289062 -0.28125,0.046875 -0.480469,0.3046875 -0.480469,0.5390625 0,0.1640625 0.105469,0.3515625 0.375,0.3515625 0.222656,0 0.539062,-0.1875 0.539062,-0.5859375 0,-0.515625 -0.585937,-0.65625 -0.925781,-0.65625 -0.574219,0 -0.925781,0.5273438 -1.042969,0.7617188 -0.257812,-0.65625 -0.785156,-0.7617188 -1.078125,-0.7617188 -1.042968,0 -1.605468,1.2890625 -1.605468,1.5351563 0,0.1054687 0.105468,0.1054687 0.117187,0.1054687 0.08203,0 0.117188,-0.023437 0.128906,-0.1171875 0.339844,-1.0546875 0.996094,-1.3007812 1.335938,-1.3007812 0.1875,0 0.539062,0.09375 0.539062,0.6679687 0,0.3046875 -0.164062,0.9726563 -0.539062,2.3671875 -0.152344,0.62109378 -0.503906,1.04296878 -0.949219,1.04296878 -0.05859,0 -0.28125,0 -0.492187,-0.12890625 0.246093,-0.0585938 0.46875,-0.26953125 0.46875,-0.5390625 0,-0.26953123 -0.222657,-0.35156253 -0.375,-0.35156253 -0.292969,0 -0.539063,0.25781253 -0.539063,0.57421878 0,0.45703125 0.492188,0.65625 0.9375,0.65625 0.65625,0 1.007813,-0.69140625 1.042969,-0.75 0.117187,0.36328125 0.480469,0.75 1.078125,0.75 1.019531,0 1.59375,-1.27734378 1.59375,-1.53515628 0,-0.09375 -0.09375,-0.09375 -0.128906,-0.09375 -0.08203,0 -0.105469,0.035156 -0.128907,0.1054688 -0.328125,1.06640623 -0.996093,1.31249998 -1.324218,1.31249998 -0.386719,0 -0.539063,-0.328125 -0.539063,-0.65625 0,-0.22265625 0.05859,-0.44531248 0.164063,-0.87890628 z m 0,0"
         style="fill:#000000;fill-opacity:0.5;fill-rule:nonzero;stroke:none" />
    </g>
    <g
       id="g23"
       aria-label="ℓ−∆x+u(ℓ−∆x,t)"
       transform="matrix(1.3333333,0,0,1.3333333,98.44,187.69867)">
      <path
         id="path24"
         d="m 0.16511719,-0.98396094 c -0.0234375,0.0234375 -0.0585938,0.0585938 -0.0585938,0.09375 0,0.0585938 0.0585938,0.12890625 0.12890625,0.12890625 0.046875,0 0.0703125,-0.0234375 0.3515625,-0.30468751 0.0820313,-0.070312 0.28125,-0.2578125 0.36328125,-0.3398437 0.09375,0.78515621 0.38671871,1.52343746 1.11328131,1.52343746 0.3984375,0 0.75,-0.22265625 0.9609375,-0.375 0.1289061,-0.10546875 0.5976561,-0.4921875 0.5976561,-0.5859375 0,-0.0351563 -0.023437,-0.1171875 -0.1171875,-0.1171875 -0.023437,0 -0.035156,0 -0.1289061,0.0820313 -0.6328125,0.6328125 -1.0078125,0.7734375 -1.2890625,0.7734375 -0.4570314,0 -0.6093751,-0.515625 -0.6093751,-1.28906246 0,-0.058594 0.023437,-0.515625 0.046875,-0.5625 0.023437,-0.035156 0.023437,-0.058594 0.2226562,-0.2578126 0.8085939,-0.8085937 2.2148439,-2.4843749 2.2148439,-4.0312499 0,-0.1640625 0,-0.7734375 -0.5859375,-0.7734375 -0.8203125,0 -1.5585938,1.640625 -1.6640625,1.875 -0.4804688,1.078125 -0.78515631,2.25 -0.78515631,3.4335938 z M 1.5713672,-2.3784922 c 0.023437,-0.1171875 0.4570312,-2.3203125 1.0195312,-3.4921875 0.2695313,-0.5390625 0.4804688,-0.9375 0.796875,-0.9375 0.3398438,0 0.3398438,0.3632813 0.3398438,0.5273438 0,1.6640625 -1.6757813,3.3984375 -2.15625,3.9023437 z m 0,0"
         style="fill:#000000;fill-opacity:1;fill-rule:nonzero;stroke:none" />
      <path
         id="path25"
         d="m 12.926836,-2.2964609 c 0.175781,0 0.351562,0 0.351562,-0.1992188 0,-0.1992187 -0.175781,-0.1992187 -0.351562,-0.1992187 H 7.5362109 c -0.1640625,0 -0.3398437,0 -0.3398437,0.1992187 0,0.1992188 0.1757812,0.1992188 0.3398437,0.1992188 z m 0,0"
         style="fill:#000000;fill-opacity:1;fill-rule:nonzero;stroke:none" />
      <path
         id="path26"
         d="m 20.734453,-6.9488047 c -0.07031,-0.1289062 -0.09375,-0.1875 -0.257812,-0.1875 -0.175782,0 -0.199219,0.058594 -0.257813,0.1875 l -3.375,6.75000001 c -0.04687,0.09375 -0.04687,0.10546875 -0.04687,0.1171875 0,0.0820312525 0.05859,0.0820312525 0.222656,0.0820312525 h 6.914063 c 0.152344,0 0.210937,0 0.210937,-0.0820312525 0,-0.01171875 0,-0.0234375 -0.04687,-0.1171875 z m -0.585937,0.8085938 2.683593,5.37890621 h -5.367187 z m 0,0"
         style="fill:#000000;fill-opacity:1;fill-rule:nonzero;stroke:none" />
      <path
         id="path27"
         d="m 27.959063,-3.0113047 c 0.05859,-0.2578125 0.292968,-1.171875 0.984375,-1.171875 0.04687,0 0.292968,0 0.503906,0.1289063 -0.28125,0.046875 -0.480469,0.3046875 -0.480469,0.5390625 0,0.1640625 0.105469,0.3515625 0.375,0.3515625 0.222656,0 0.539063,-0.1875 0.539063,-0.5859375 0,-0.515625 -0.585938,-0.65625 -0.925782,-0.65625 -0.574218,0 -0.925781,0.5273437 -1.042968,0.7617187 -0.257813,-0.65625 -0.785157,-0.7617187 -1.078125,-0.7617187 -1.042969,0 -1.605469,1.2890625 -1.605469,1.5351562 0,0.1054688 0.105469,0.1054688 0.117187,0.1054688 0.08203,0 0.117188,-0.023437 0.128907,-0.1171875 0.339843,-1.0546875 0.996093,-1.3007813 1.335937,-1.3007813 0.1875,0 0.539063,0.09375 0.539063,0.6679688 0,0.3046875 -0.164063,0.9726562 -0.539063,2.3671875 -0.152344,0.62109371 -0.503906,1.04296871 -0.949219,1.04296871 -0.05859,0 -0.28125,0 -0.492187,-0.12890625 0.246094,-0.0585938 0.46875,-0.26953125 0.46875,-0.5390625 0,-0.26953126 -0.222656,-0.35156246 -0.375,-0.35156246 -0.292969,0 -0.539063,0.25781246 -0.539063,0.57421871 0,0.45703125 0.492188,0.65625 0.9375,0.65625 0.65625,0 1.007813,-0.69140625 1.042969,-0.75 0.117188,0.36328125 0.480469,0.75 1.078125,0.75 1.019531,0 1.59375,-1.27734371 1.59375,-1.53515621 0,-0.09375 -0.09375,-0.09375 -0.128906,-0.09375 -0.08203,0 -0.105469,0.035156 -0.128906,0.1054687 -0.328125,1.06640626 -0.996094,1.31250001 -1.324219,1.31250001 -0.386719,0 -0.539063,-0.328125 -0.539063,-0.65625 0,-0.22265625 0.05859,-0.44531251 0.164063,-0.87890621 z m 0,0"
         style="fill:#000000;fill-opacity:1;fill-rule:nonzero;stroke:none" />
      <path
         id="path28"
         d="m 36.616289,-2.2964609 h 2.777344 c 0.140625,0 0.328125,0 0.328125,-0.1992188 0,-0.1992187 -0.1875,-0.1992187 -0.328125,-0.1992187 h -2.777344 v -2.7890625 c 0,-0.1289063 0,-0.328125 -0.199219,-0.328125 -0.199218,0 -0.199218,0.1992187 -0.199218,0.328125 v 2.7890625 h -2.789063 c -0.140625,0 -0.328125,0 -0.328125,0.1992187 0,0.1992188 0.1875,0.1992188 0.328125,0.1992188 h 2.789063 v 2.80078121 c 0,0.12890625 0,0.328125 0.199218,0.328125 0.199219,0 0.199219,-0.19921875 0.199219,-0.328125 z m 0,0"
         style="fill:#000000;fill-opacity:1;fill-rule:nonzero;stroke:none" />
      <path
         id="path29"
         d="m 45.991289,-0.56208594 c 0.105469,0.41015625 0.457031,0.66796875 0.878906,0.66796875 0.351563,0 0.574219,-0.22265625 0.738282,-0.5390625 0.175781,-0.36328125 0.304687,-0.97265621 0.304687,-0.99609371 0,-0.09375 -0.09375,-0.09375 -0.128906,-0.09375 -0.09375,0 -0.105469,0.035156 -0.140625,0.1757812 -0.128906,0.56250001 -0.328125,1.24218751 -0.738281,1.24218751 -0.210938,0 -0.316407,-0.12890625 -0.316407,-0.45703125 0,-0.22265625 0.128907,-0.69140626 0.199219,-1.04296876 l 0.28125,-1.078125 c 0.03516,-0.140625 0.128906,-0.5273437 0.175781,-0.6679687 0.04687,-0.234375 0.140625,-0.609375 0.140625,-0.6679688 0,-0.1875 -0.140625,-0.2695312 -0.28125,-0.2695312 -0.05859,0 -0.316406,0 -0.386718,0.3398437 -0.199219,0.7265625 -0.632813,2.4726563 -0.75,3.00000001 -0.01172,0.046875 -0.410157,0.84375 -1.136719,0.84375 -0.515625,0 -0.621094,-0.45703125 -0.621094,-0.8203125 0,-0.56250001 0.28125,-1.34765621 0.539063,-2.02734371 0.117187,-0.3046875 0.175781,-0.4453125 0.175781,-0.6328125 0,-0.4453125 -0.328125,-0.8203125 -0.820313,-0.8203125 -0.949218,0 -1.3125,1.453125 -1.3125,1.5351562 0,0.1054688 0.09375,0.1054688 0.117188,0.1054688 0.09375,0 0.105469,-0.023437 0.152344,-0.1875 0.257812,-0.8671875 0.632812,-1.2304688 1.007812,-1.2304688 0.09375,0 0.257813,0.011719 0.257813,0.328125 0,0.234375 -0.117188,0.5273438 -0.175782,0.6796875 -0.363281,0.984375 -0.574218,1.6054688 -0.574218,2.0859375 0,0.94921876 0.679687,1.19531251 1.21875,1.19531251 0.65625,0 1.019531,-0.4453125 1.195312,-0.66796875 z m 0,0"
         style="fill:#000000;fill-opacity:1;fill-rule:nonzero;stroke:none" />
      <path
         id="path30"
         d="m 51.496172,2.3910391 c 0,-0.035156 0,-0.046875 -0.164063,-0.2226563 -1.242187,-1.25390624 -1.570312,-3.12890624 -1.570312,-4.6640625 0,-1.7226562 0.386719,-3.4570312 1.605469,-4.7109375 0.128906,-0.1171875 0.128906,-0.1289062 0.128906,-0.1640625 0,-0.070312 -0.03516,-0.1054687 -0.09375,-0.1054687 -0.105469,0 -0.996094,0.6796875 -1.582031,1.9453125 -0.515625,1.1015625 -0.632813,2.203125 -0.632813,3.0351562 0,0.7851563 0.117188,1.99218751 0.65625,3.11718751 0.597656,1.21874999 1.453125,1.87499999 1.558594,1.87499999 0.05859,0 0.09375,-0.035156 0.09375,-0.1054687 z m 0,0"
         style="fill:#000000;fill-opacity:1;fill-rule:nonzero;stroke:none" />
      <path
         id="path31"
         d="m 52.243242,-0.98396094 c -0.02344,0.0234375 -0.05859,0.0585938 -0.05859,0.09375 0,0.0585938 0.05859,0.12890625 0.128907,0.12890625 0.04687,0 0.07031,-0.0234375 0.351562,-0.30468751 0.08203,-0.070312 0.28125,-0.2578125 0.363281,-0.3398437 0.09375,0.78515621 0.386719,1.52343746 1.113282,1.52343746 0.398437,0 0.75,-0.22265625 0.960937,-0.375 0.128906,-0.10546875 0.597656,-0.4921875 0.597656,-0.5859375 0,-0.0351563 -0.02344,-0.1171875 -0.117187,-0.1171875 -0.02344,0 -0.03516,0 -0.128906,0.0820313 -0.632813,0.6328125 -1.007813,0.7734375 -1.289063,0.7734375 -0.457031,0 -0.609375,-0.515625 -0.609375,-1.28906246 0,-0.058594 0.02344,-0.515625 0.04687,-0.5625 0.02344,-0.035156 0.02344,-0.058594 0.222656,-0.2578126 0.808594,-0.8085937 2.214844,-2.4843749 2.214844,-4.0312499 0,-0.1640625 0,-0.7734375 -0.585937,-0.7734375 -0.820313,0 -1.558594,1.640625 -1.664063,1.875 -0.480469,1.078125 -0.785156,2.25 -0.785156,3.4335938 z m 1.40625,-1.39453126 c 0.02344,-0.1171875 0.457031,-2.3203125 1.019531,-3.4921875 0.269532,-0.5390625 0.480469,-0.9375 0.796875,-0.9375 0.339844,0 0.339844,0.3632813 0.339844,0.5273438 0,1.6640625 -1.675781,3.3984375 -2.15625,3.9023437 z m 0,0"
         style="fill:#000000;fill-opacity:1;fill-rule:nonzero;stroke:none" />
      <path
         id="path32"
         d="m 65.004961,-2.2964609 c 0.175781,0 0.351562,0 0.351562,-0.1992188 0,-0.1992187 -0.175781,-0.1992187 -0.351562,-0.1992187 h -5.390625 c -0.164063,0 -0.339844,0 -0.339844,0.1992187 0,0.1992188 0.175781,0.1992188 0.339844,0.1992188 z m 0,0"
         style="fill:#000000;fill-opacity:1;fill-rule:nonzero;stroke:none" />
      <path
         id="path33"
         d="m 72.812578,-6.9488047 c -0.07031,-0.1289062 -0.09375,-0.1875 -0.257812,-0.1875 -0.175782,0 -0.199219,0.058594 -0.257813,0.1875 l -3.375,6.75000001 c -0.04687,0.09375 -0.04687,0.10546875 -0.04687,0.1171875 0,0.0820312525 0.05859,0.0820312525 0.222656,0.0820312525 h 6.914063 c 0.152344,0 0.210937,0 0.210937,-0.0820312525 0,-0.01171875 0,-0.0234375 -0.04687,-0.1171875 z m -0.585937,0.8085938 2.683593,5.37890621 h -5.367187 z m 0,0"
         style="fill:#000000;fill-opacity:1;fill-rule:nonzero;stroke:none" />
      <path
         id="path34"
         d="m 80.034258,-3.0113047 c 0.05859,-0.2578125 0.292969,-1.171875 0.984375,-1.171875 0.04687,0 0.292969,0 0.503906,0.1289063 -0.28125,0.046875 -0.480469,0.3046875 -0.480469,0.5390625 0,0.1640625 0.105469,0.3515625 0.375,0.3515625 0.222657,0 0.539063,-0.1875 0.539063,-0.5859375 0,-0.515625 -0.585938,-0.65625 -0.925781,-0.65625 -0.574219,0 -0.925782,0.5273437 -1.042969,0.7617187 -0.257813,-0.65625 -0.785156,-0.7617187 -1.078125,-0.7617187 -1.042969,0 -1.605469,1.2890625 -1.605469,1.5351562 0,0.1054688 0.105469,0.1054688 0.117188,0.1054688 0.08203,0 0.117187,-0.023437 0.128906,-0.1171875 0.339844,-1.0546875 0.996094,-1.3007813 1.335937,-1.3007813 0.1875,0 0.539063,0.09375 0.539063,0.6679688 0,0.3046875 -0.164063,0.9726562 -0.539063,2.3671875 -0.152343,0.62109371 -0.503906,1.04296871 -0.949218,1.04296871 -0.05859,0 -0.28125,0 -0.492188,-0.12890625 0.246094,-0.0585938 0.46875,-0.26953125 0.46875,-0.5390625 0,-0.26953126 -0.222656,-0.35156246 -0.375,-0.35156246 -0.292969,0 -0.539062,0.25781246 -0.539062,0.57421871 0,0.45703125 0.492187,0.65625 0.9375,0.65625 0.65625,0 1.007812,-0.69140625 1.042968,-0.75 0.117188,0.36328125 0.480469,0.75 1.078125,0.75 1.019532,0 1.59375,-1.27734371 1.59375,-1.53515621 0,-0.09375 -0.09375,-0.09375 -0.128906,-0.09375 -0.08203,0 -0.105469,0.035156 -0.128906,0.1054687 -0.328125,1.06640626 -0.996094,1.31250001 -1.324219,1.31250001 -0.386719,0 -0.539062,-0.328125 -0.539062,-0.65625 0,-0.22265625 0.05859,-0.44531251 0.164062,-0.87890621 z m 4.388672,3.00000001 c 0,-0.65625 -0.257813,-1.04296871 -0.644532,-1.04296871 -0.328125,0 -0.527343,0.24609371 -0.527343,0.52734371 0,0.26953125 0.199218,0.5273437525 0.527343,0.5273437525 0.117188,0 0.246094,-0.0351562525 0.351563,-0.1289062525 0.02344,-0.0234375 0.03516,-0.0351563 0.04687,-0.0351563 0.01172,0 0.02344,0.0117188 0.02344,0.15234375 0,0.73828125 -0.351562,1.33593744 -0.679687,1.66406244 -0.105469,0.1054688 -0.105469,0.1289063 -0.105469,0.1640625 0,0.070312 0.04687,0.1054688 0.09375,0.1054688 0.117188,0 0.914063,-0.7617188 0.914063,-1.93359374 z m 4.435547,-3.97265621 h 0.9375 c 0.199218,0 0.304687,0 0.304687,-0.1992188 0,-0.1054687 -0.105469,-0.1054687 -0.28125,-0.1054687 h -0.878906 c 0.363281,-1.4179688 0.410156,-1.6171875 0.410156,-1.6757813 0,-0.1757812 -0.117187,-0.2695312 -0.292969,-0.2695312 -0.02344,0 -0.304687,0.011719 -0.398437,0.3515625 l -0.386719,1.59375 h -0.9375 c -0.199219,0 -0.292969,0 -0.292969,0.1875 0,0.1171875 0.07031,0.1171875 0.269532,0.1171875 h 0.878906 c -0.714844,2.8242187 -0.75,2.99999996 -0.75,3.17578121 0,0.5390625 0.375,0.9140625 0.914062,0.9140625 1.007813,0 1.582032,-1.45312501 1.582032,-1.53515621 0,-0.09375 -0.08203,-0.09375 -0.117188,-0.09375 -0.09375,0 -0.105469,0.023437 -0.152344,0.140625 -0.433593,1.03124996 -0.960937,1.27734371 -1.300781,1.27734371 -0.199219,0 -0.304687,-0.12890625 -0.304687,-0.45703125 0,-0.24609375 0.02344,-0.31640625 0.05859,-0.48046876 z m 0,0"
         style="fill:#000000;fill-opacity:1;fill-rule:nonzero;stroke:none" />
      <path
         id="path35"
         d="m 93.308672,-2.4956797 c 0,-0.7734375 -0.117188,-1.9804687 -0.65625,-3.1054687 -0.597656,-1.21875 -1.464844,-1.875 -1.558594,-1.875 -0.05859,0 -0.105469,0.046875 -0.105469,0.1054687 0,0.035156 0,0.046875 0.199219,0.234375 0.972656,0.984375 1.535156,2.5664063 1.535156,4.640625 0,1.71093751 -0.363281,3.45703126 -1.59375,4.7226563 -0.140625,0.1171875 -0.140625,0.1289062 -0.140625,0.1640625 0,0.058594 0.04687,0.1054687 0.105469,0.1054687 0.09375,0 0.996094,-0.6796875 1.582031,-1.94531249 0.503907,-1.1015625 0.632813,-2.20312501 0.632813,-3.04687501 z m 0,0"
         style="fill:#000000;fill-opacity:1;fill-rule:nonzero;stroke:none" />
    </g>
    <g
       id="g35"
       aria-label="P(ℓ−∆x)S"
       transform="matrix(1.3333333,0,0,1.3333333,5.42,86.510667)">
      <path
         id="path36"
         d="m 3.0248437,-3.1515547 h 1.6875 c 1.4179688,0 2.8007813,-1.03125 2.8007813,-2.1445312 0,-0.7734375 -0.65625,-1.5117188 -1.96875,-1.5117188 H 2.3217187 c -0.1875,0 -0.2929687,0 -0.2929687,0.1992188 0,0.1171875 0.082031,0.1171875 0.28125,0.1171875 0.1289062,0 0.3164062,0.011719 0.4335937,0.011719 0.1523438,0.023437 0.2109375,0.058594 0.2109375,0.1640625 0,0.035156 0,0.070312 -0.035156,0.1875 l -1.3359375,5.35546876 c -0.09375,0.38671875 -0.1171875,0.46875 -0.90234375,0.46875 -0.17578125,0 -0.28125,0 -0.28125,0.1875 0,0.1171875025 0.1171875,0.1171875025 0.15234375,0.1171875025 0.28125,0 0.984375,-0.0351562525 1.265625,-0.0351562525 0.2109375,0 0.421875,0.01171875 0.6328125,0.01171875 0.2226562,0 0.4453125,0.0234375025 0.6445312,0.0234375025 0.070312,0 0.1992188,0 0.1992188,-0.1992187525 0,-0.10546875 -0.082031,-0.10546875 -0.2695313,-0.10546875 -0.375,0 -0.65625,0 -0.65625,-0.1875 0,-0.0585938 0.023437,-0.10546875 0.035156,-0.1640625 z m 0.7148438,-2.9648437 c 0.082031,-0.3515625 0.1054687,-0.375 0.5390625,-0.375 h 0.9492187 c 0.8320313,0 1.359375,0.2695312 1.359375,0.9492187 0,0.3984375 -0.1992187,1.2539063 -0.5859375,1.6054688 C 5.4975,-3.4913984 4.8998437,-3.4093672 4.46625,-3.4093672 H 3.06 Z m 0,0"
         style="fill:#000000;fill-opacity:1;fill-rule:nonzero;stroke:none" />
      <path
         id="path37"
         d="m 11.072695,2.3914141 c 0,-0.035156 0,-0.046875 -0.164062,-0.2226563 -1.2421877,-1.25390624 -1.5703127,-3.12890624 -1.5703127,-4.6640625 0,-1.7226562 0.3867188,-3.4570312 1.6054687,-4.7109375 0.128906,-0.1171875 0.128906,-0.1289062 0.128906,-0.1640625 0,-0.070312 -0.03516,-0.1054687 -0.09375,-0.1054687 -0.105468,0 -0.9960934,0.6796875 -1.5820309,1.9453125 -0.515625,1.1015625 -0.6328125,2.203125 -0.6328125,3.0351562 0,0.7851563 0.1171875,1.99218751 0.65625,3.11718751 0.5976564,1.21874999 1.4531254,1.87499999 1.5585934,1.87499999 0.05859,0 0.09375,-0.035156 0.09375,-0.1054687 z m 0,0"
         style="fill:#000000;fill-opacity:1;fill-rule:nonzero;stroke:none" />
      <path
         id="path38"
         d="m 11.816836,-0.98358594 c -0.02344,0.0234375 -0.05859,0.0585938 -0.05859,0.09375 0,0.0585938 0.05859,0.12890625 0.128906,0.12890625 0.04687,0 0.07031,-0.0234375 0.351563,-0.30468751 0.08203,-0.070312 0.28125,-0.2578125 0.363281,-0.3398437 0.09375,0.78515621 0.386719,1.52343746 1.113281,1.52343746 0.398438,0 0.75,-0.22265625 0.960938,-0.375 0.128906,-0.10546875 0.597656,-0.4921875 0.597656,-0.5859375 0,-0.0351563 -0.02344,-0.1171875 -0.117187,-0.1171875 -0.02344,0 -0.03516,0 -0.128907,0.0820313 -0.632812,0.6328125 -1.007812,0.7734375 -1.289062,0.7734375 -0.457031,0 -0.609375,-0.515625 -0.609375,-1.28906246 0,-0.058594 0.02344,-0.515625 0.04687,-0.5625 0.02344,-0.035156 0.02344,-0.058594 0.222656,-0.2578126 0.808594,-0.8085937 2.214844,-2.4843749 2.214844,-4.0312499 0,-0.1640625 0,-0.7734375 -0.585938,-0.7734375 -0.820312,0 -1.558593,1.640625 -1.664062,1.875 -0.480469,1.078125 -0.785156,2.25 -0.785156,3.4335938 z m 1.40625,-1.39453126 c 0.02344,-0.1171875 0.457031,-2.3203125 1.019531,-3.4921875 0.269531,-0.5390625 0.480469,-0.9375 0.796875,-0.9375 0.339844,0 0.339844,0.3632813 0.339844,0.5273438 0,1.6640625 -1.675781,3.3984375 -2.15625,3.9023437 z m 0,0"
         style="fill:#000000;fill-opacity:1;fill-rule:nonzero;stroke:none" />
      <path
         id="path39"
         d="m 24.581484,-2.2960859 c 0.175782,0 0.351563,0 0.351563,-0.1992188 0,-0.1992187 -0.175781,-0.1992187 -0.351563,-0.1992187 h -5.390625 c -0.164062,0 -0.339843,0 -0.339843,0.1992187 0,0.1992188 0.175781,0.1992188 0.339843,0.1992188 z m 0,0"
         style="fill:#000000;fill-opacity:1;fill-rule:nonzero;stroke:none" />
      <path
         id="path40"
         d="m 32.389102,-6.9484297 c -0.07031,-0.1289062 -0.09375,-0.1875 -0.257813,-0.1875 -0.175781,0 -0.199219,0.058594 -0.257812,0.1875 l -3.375,6.75000001 c -0.04687,0.09375 -0.04687,0.10546875 -0.04687,0.1171875 0,0.0820312525 0.05859,0.0820312525 0.222656,0.0820312525 h 6.914062 c 0.152344,0 0.210938,0 0.210938,-0.0820312525 0,-0.01171875 0,-0.0234375 -0.04687,-0.1171875 z m -0.585938,0.8085938 2.683594,5.37890621 H 29.11957 Z m 0,0"
         style="fill:#000000;fill-opacity:1;fill-rule:nonzero;stroke:none" />
      <path
         id="path41"
         d="m 39.610781,-3.0109297 c 0.05859,-0.2578125 0.292969,-1.171875 0.984375,-1.171875 0.04687,0 0.292969,0 0.503906,0.1289063 -0.28125,0.046875 -0.480468,0.3046875 -0.480468,0.5390625 0,0.1640625 0.105468,0.3515625 0.375,0.3515625 0.222656,0 0.539062,-0.1875 0.539062,-0.5859375 0,-0.515625 -0.585937,-0.65625 -0.925781,-0.65625 -0.574219,0 -0.925781,0.5273437 -1.042969,0.7617187 -0.257812,-0.65625 -0.785156,-0.7617187 -1.078125,-0.7617187 -1.042969,0 -1.605469,1.2890625 -1.605469,1.5351562 0,0.1054688 0.105469,0.1054688 0.117188,0.1054688 0.08203,0 0.117187,-0.023437 0.128906,-0.1171875 0.339844,-1.0546875 0.996094,-1.3007813 1.335938,-1.3007813 0.1875,0 0.539062,0.09375 0.539062,0.6679688 0,0.3046875 -0.164062,0.9726562 -0.539062,2.3671875 -0.152344,0.62109371 -0.503907,1.04296871 -0.949219,1.04296871 -0.05859,0 -0.28125,0 -0.492188,-0.12890625 0.246094,-0.0585938 0.46875,-0.26953125 0.46875,-0.5390625 0,-0.26953126 -0.222656,-0.35156246 -0.375,-0.35156246 -0.292968,0 -0.539062,0.25781246 -0.539062,0.57421871 0,0.45703125 0.492187,0.65625 0.9375,0.65625 0.65625,0 1.007812,-0.69140625 1.042969,-0.75 0.117187,0.36328125 0.480468,0.75 1.078125,0.75 1.019531,0 1.59375,-1.27734371 1.59375,-1.53515621 0,-0.09375 -0.09375,-0.09375 -0.128907,-0.09375 -0.08203,0 -0.105468,0.035156 -0.128906,0.1054687 -0.328125,1.06640626 -0.996094,1.31250001 -1.324219,1.31250001 -0.386718,0 -0.539062,-0.328125 -0.539062,-0.65625 0,-0.22265625 0.05859,-0.44531251 0.164062,-0.87890621 z m 0,0"
         style="fill:#000000;fill-opacity:1;fill-rule:nonzero;stroke:none" />
      <path
         id="path42"
         d="m 44.860781,-2.4953047 c 0,-0.7734375 -0.117187,-1.9804687 -0.65625,-3.1054687 -0.597656,-1.21875 -1.464844,-1.875 -1.558594,-1.875 -0.05859,0 -0.105468,0.046875 -0.105468,0.1054687 0,0.035156 0,0.046875 0.199218,0.234375 0.972657,0.984375 1.535157,2.5664063 1.535157,4.640625 0,1.71093751 -0.363282,3.45703126 -1.59375,4.7226563 -0.140625,0.1171875 -0.140625,0.1289062 -0.140625,0.1640625 0,0.058594 0.04687,0.1054687 0.105468,0.1054687 0.09375,0 0.996094,-0.6796875 1.582032,-1.94531249 0.503906,-1.1015625 0.632812,-2.20312501 0.632812,-3.04687501 z m 0,0"
         style="fill:#000000;fill-opacity:1;fill-rule:nonzero;stroke:none" />
      <path
         id="path43"
         d="m 52.272891,-6.9249922 c 0,-0.023437 -0.01172,-0.09375 -0.105469,-0.09375 -0.04687,0 -0.05859,0.011719 -0.175781,0.140625 l -0.480469,0.5742188 c -0.257813,-0.46875 -0.773438,-0.7148438 -1.429688,-0.7148438 -1.265625,0 -2.460937,1.1367188 -2.460937,2.34375 0,0.8085938 0.527344,1.265625 1.042969,1.4179688 l 1.066406,0.28125 c 0.363281,0.082031 0.914062,0.234375 0.914062,1.0546875 0,0.890625 -0.820312,1.82812496 -1.792968,1.82812496 -0.644532,0 -1.746094,-0.2109375 -1.746094,-1.45312496 0,-0.234375 0.04687,-0.4804688 0.05859,-0.5390625 0.01172,-0.035156 0.02344,-0.046875 0.02344,-0.070312 0,-0.09375 -0.07031,-0.1054688 -0.117187,-0.1054688 -0.05859,0 -0.07031,0.011719 -0.105469,0.035156 -0.03516,0.046875 -0.597656,2.32031246 -0.597656,2.34374996 0,0.0585938 0.04687,0.10546875 0.117187,0.10546875 0.04687,0 0.05859,-0.0117188 0.175781,-0.15234375 l 0.492188,-0.57421875 c 0.421875,0.5859375 1.101562,0.7265625 1.675781,0.7265625 1.359375,0 2.53125,-1.32421871 2.53125,-2.56640621 0,-0.6796875 -0.339844,-1.0195313 -0.492187,-1.1601563 -0.222657,-0.234375 -0.375,-0.2695312 -1.265625,-0.5039062 -0.210938,-0.058594 -0.574219,-0.1523438 -0.65625,-0.1757813 -0.269532,-0.09375 -0.609375,-0.375 -0.609375,-0.9023437 0,-0.8085938 0.796875,-1.6523438 1.734375,-1.6523438 0.832031,0 1.441406,0.421875 1.441406,1.5351563 0,0.3164062 -0.04687,0.5039062 -0.04687,0.5625 0,0.011719 0,0.09375 0.128906,0.09375 0.09375,0 0.105469,-0.023437 0.140625,-0.1992188 z m 0,0"
         style="fill:#000000;fill-opacity:1;fill-rule:nonzero;stroke:none" />
    </g>
  </g>
</svg>
