<?xml version="1.0" encoding="UTF-8" standalone="no"?>
<!-- Created with Inkscape (http://www.inkscape.org/) -->

<svg
   version="1.1"
   id="svg1"
   width="266.33334"
   height="126.10667"
   viewBox="0 0 266.33334 126.10667"
   sodipodi:docname="tikz-rod-compression.pdf"
   xmlns:inkscape="http://www.inkscape.org/namespaces/inkscape"
   xmlns:sodipodi="http://sodipodi.sourceforge.net/DTD/sodipodi-0.dtd"
   xmlns="http://www.w3.org/2000/svg"
   xmlns:svg="http://www.w3.org/2000/svg">
  <defs
     id="defs1" />
  <sodipodi:namedview
     id="namedview1"
     pagecolor="#ffffff"
     bordercolor="#000000"
     borderopacity="0.25"
     inkscape:showpageshadow="2"
     inkscape:pageopacity="0.0"
     inkscape:pagecheckerboard="0"
     inkscape:deskcolor="#d1d1d1">
    <inkscape:page
       x="0"
       y="0"
       inkscape:label="1"
       id="page1"
       width="266.33334"
       height="126.10667"
       margin="0"
       bleed="0" />
  </sodipodi:namedview>
  <g
     id="g1"
     inkscape:groupmode="layer"
     inkscape:label="1">
    <path
       id="path1"
       d="m 93.25186,-80.81827 c 0,20.20459 5.91789,36.58342 13.22263,36.58342 7.30473,0 13.22262,-16.37883 13.22262,-36.58342 0,-20.20457 -5.91789,-36.58342 -13.22262,-36.58342 -7.30474,0 -13.22263,16.37885 -13.22263,36.58342 z"
       style="fill:#f5a623;fill-opacity:0.51;fill-rule:nonzero;stroke:#8b572a;stroke-width:1.49442;stroke-linecap:butt;stroke-linejoin:miter;stroke-miterlimit:10;stroke-dasharray:none;stroke-opacity:1"
       transform="matrix(1.3333333,0,0,-1.3333333,-53.433333,-55.322667)" />
    <path
       id="path2"
       d="m 139.94951,-117.40169 h 97.50798"
       style="fill:none;stroke:#9b9b9b;stroke-width:0.74721;stroke-linecap:butt;stroke-linejoin:miter;stroke-miterlimit:10;stroke-dasharray:none;stroke-opacity:0.5"
       transform="matrix(1.3333333,0,0,-1.3333333,-53.433333,-55.322667)" />
    <path
       id="path3"
       d="m 139.94951,-44.23485 h 97.50798"
       style="fill:none;stroke:#9b9b9b;stroke-width:0.74721;stroke-linecap:butt;stroke-linejoin:miter;stroke-miterlimit:10;stroke-dasharray:none;stroke-opacity:0.5"
       transform="matrix(1.3333333,0,0,-1.3333333,-53.433333,-55.322667)" />
    <path
       id="path4"
       d="m 42.44154,-44.23485 h 97.50797"
       style="fill:none;stroke:#9b9b9b;stroke-width:0.74721;stroke-linecap:butt;stroke-linejoin:miter;stroke-miterlimit:10;stroke-dasharray:none;stroke-opacity:0.5"
       transform="matrix(1.3333333,0,0,-1.3333333,-53.433333,-55.322667)" />
    <path
       id="path5"
       d="m 42.44154,-117.40169 h 97.50797"
       style="fill:none;stroke:#9b9b9b;stroke-width:0.74721;stroke-linecap:butt;stroke-linejoin:miter;stroke-miterlimit:10;stroke-dasharray:none;stroke-opacity:0.5"
       transform="matrix(1.3333333,0,0,-1.3333333,-53.433333,-55.322667)" />
    <path
       id="path6"
       d="m 104.98007,-80.81827 c 0,0.82492 0.6695,1.49443 1.49442,1.49443 0.82493,0 1.49443,-0.66951 1.49443,-1.49443 0,-0.82492 -0.6695,-1.49441 -1.49443,-1.49441 -0.82492,0 -1.49442,0.66949 -1.49442,1.49441 z"
       style="fill:#8b572a;fill-opacity:1;fill-rule:nonzero;stroke:#000000;stroke-width:0.74721;stroke-linecap:butt;stroke-linejoin:miter;stroke-miterlimit:10;stroke-dasharray:none;stroke-opacity:1"
       transform="matrix(1.3333333,0,0,-1.3333333,-53.433333,-55.322667)" />
    <path
       id="path7"
       d="m 150.33875,-80.81827 c 0,20.20459 5.91787,36.58342 13.22262,36.58342 7.30472,0 13.22263,-16.37883 13.22263,-36.58342 0,-20.20457 -5.91791,-36.58342 -13.22263,-36.58342 -7.30475,0 -13.22262,16.37885 -13.22262,36.58342 z"
       style="fill:#f5a623;fill-opacity:0.51;fill-rule:nonzero;stroke:#8b572a;stroke-width:1.49442;stroke-linecap:butt;stroke-linejoin:miter;stroke-miterlimit:10;stroke-dasharray:none;stroke-opacity:1"
       transform="matrix(1.3333333,0,0,-1.3333333,-53.433333,-55.322667)" />
    <path
       id="path8"
       d="m 162.06694,-80.81827 c 0,0.82492 0.66949,1.49443 1.49443,1.49443 0.82492,0 1.49442,-0.66951 1.49442,-1.49443 0,-0.82492 -0.6695,-1.49441 -1.49442,-1.49441 -0.82494,0 -1.49443,0.66949 -1.49443,1.49441 z"
       style="fill:#8b572a;fill-opacity:1;fill-rule:nonzero;stroke:#000000;stroke-width:0.74721;stroke-linecap:butt;stroke-linejoin:miter;stroke-miterlimit:10;stroke-dasharray:none;stroke-opacity:1"
       transform="matrix(1.3333333,0,0,-1.3333333,-53.433333,-55.322667)" />
    <path
       id="path9"
       d="m 106.47449,-44.23485 h 57.08688"
       style="fill:none;stroke:#8b572a;stroke-width:1.49442;stroke-linecap:butt;stroke-linejoin:miter;stroke-miterlimit:10;stroke-dasharray:none;stroke-opacity:1"
       transform="matrix(1.3333333,0,0,-1.3333333,-53.433333,-55.322667)" />
    <path
       id="path10"
       d="m 106.47449,-117.40169 h 57.08688"
       style="fill:none;stroke:#8b572a;stroke-width:1.49442;stroke-linecap:butt;stroke-linejoin:miter;stroke-miterlimit:10;stroke-dasharray:none;stroke-opacity:1"
       transform="matrix(1.3333333,0,0,-1.3333333,-53.433333,-55.322667)" />
    <path
       id="path11"
       d="M 106.47449,-80.81827 H 77.88321"
       style="fill:none;stroke:#000000;stroke-width:0.74721;stroke-linecap:butt;stroke-linejoin:miter;stroke-miterlimit:10;stroke-dasharray:none;stroke-opacity:1"
       transform="matrix(1.3333333,0,0,-1.3333333,-53.433333,-55.322667)" />
    <path
       id="path12"
       d="m 83.22128,-78.85164 c -2.37913,-1.12977 -4.555,-1.78731 -6.5336,-1.96663 1.9786,-0.17932 4.15447,-0.83685 6.5336,-1.96663"
       style="fill:none;stroke:#000000;stroke-width:0.74721;stroke-linecap:butt;stroke-linejoin:miter;stroke-miterlimit:10;stroke-dasharray:none;stroke-opacity:1"
       transform="matrix(1.3333333,0,0,-1.3333333,-53.433333,-55.322667)" />
    <path
       id="path13"
       d="m 163.56137,-80.81827 h 40.1521"
       style="fill:none;stroke:#000000;stroke-width:0.74721;stroke-linecap:butt;stroke-linejoin:miter;stroke-miterlimit:10;stroke-dasharray:none;stroke-opacity:1"
       transform="matrix(1.3333333,0,0,-1.3333333,-53.433333,-55.322667)" />
    <path
       id="path14"
       d="m 198.3754,-82.7849 c 2.37912,1.12978 4.55499,1.78731 6.5336,1.96663 -1.97861,0.17932 -4.15448,0.83686 -6.5336,1.96663"
       style="fill:none;stroke:#000000;stroke-width:0.74721;stroke-linecap:butt;stroke-linejoin:miter;stroke-miterlimit:10;stroke-dasharray:none;stroke-opacity:1"
       transform="matrix(1.3333333,0,0,-1.3333333,-53.433333,-55.322667)" />
    <path
       id="path15"
       d="m 3.3276172,-3.0105781 c 0.058594,-0.2578125 0.2929687,-1.171875 0.984375,-1.171875 0.046875,0 0.2929687,0 0.5039062,0.1289062 -0.28125,0.046875 -0.4804687,0.3046875 -0.4804687,0.5390625 0,0.1640625 0.1054687,0.3515625 0.375,0.3515625 0.2226562,0 0.5390625,-0.1875 0.5390625,-0.5859375 0,-0.515625 -0.5859375,-0.65625 -0.9257813,-0.65625 -0.5742187,0 -0.9257812,0.5273438 -1.0429687,0.7617188 -0.2578125,-0.65625 -0.7851563,-0.7617188 -1.078125,-0.7617188 -1.0429688,0 -1.60546876,1.2890625 -1.60546876,1.5351563 0,0.1054687 0.10546875,0.1054687 0.1171875,0.1054687 0.0820313,0 0.1171875,-0.023437 0.12890625,-0.1171875 0.33984371,-1.0546875 0.99609371,-1.3007812 1.33593751,-1.3007812 0.1875,0 0.5390625,0.09375 0.5390625,0.6679687 0,0.3046875 -0.1640625,0.9726563 -0.5390625,2.3671875 -0.1523438,0.62109378 -0.5039063,1.04296878 -0.9492188,1.04296878 -0.058594,0 -0.28124996,0 -0.49218746,-0.12890625 0.24609375,-0.0585938 0.46874996,-0.26953125 0.46874996,-0.5390625 0,-0.26953123 -0.22265621,-0.35156253 -0.37499996,-0.35156253 -0.29296875,0 -0.5390625,0.25781253 -0.5390625,0.57421878 0,0.45703125 0.4921875,0.65625 0.93749996,0.65625 0.65625,0 1.0078125,-0.69140625 1.0429688,-0.75 0.1171875,0.36328125 0.4804687,0.75 1.078125,0.75 1.0195312,0 1.59375,-1.27734378 1.59375,-1.53515628 0,-0.09375 -0.09375,-0.09375 -0.1289063,-0.09375 -0.082031,0 -0.1054687,0.035156 -0.1289062,0.1054688 -0.328125,1.06640623 -0.9960938,1.31249998 -1.3242188,1.31249998 -0.3867187,0 -0.5390625,-0.328125 -0.5390625,-0.65625 0,-0.22265625 0.058594,-0.44531248 0.1640625,-0.87890628 z m 0,0"
       style="fill:#000000;fill-opacity:1;fill-rule:nonzero;stroke:none"
       aria-label="x"
       transform="matrix(1.3333333,0,0,1.3333333,84.973333,117.99067)" />
    <g
       id="g15"
       aria-label="x+∆x"
       transform="matrix(1.3333333,0,0,1.3333333,147.54,121.34933)">
      <path
         id="path16"
         d="m 3.3274219,-3.0129766 c 0.058594,-0.2578125 0.2929687,-1.171875 0.984375,-1.171875 0.046875,0 0.2929687,0 0.5039062,0.1289063 -0.28125,0.046875 -0.4804687,0.3046875 -0.4804687,0.5390625 0,0.1640625 0.1054687,0.3515625 0.375,0.3515625 0.2226562,0 0.5390625,-0.1875 0.5390625,-0.5859375 0,-0.515625 -0.5859375,-0.65625 -0.9257813,-0.65625 -0.5742187,0 -0.9257812,0.5273437 -1.0429687,0.7617187 -0.2578125,-0.65625 -0.7851563,-0.7617187 -1.078125,-0.7617187 -1.0429688,0 -1.60546878,1.2890625 -1.60546878,1.5351562 0,0.1054688 0.10546875,0.1054688 0.1171875,0.1054688 0.0820313,0 0.1171875,-0.023437 0.12890625,-0.1171875 0.33984373,-1.0546875 0.99609373,-1.3007813 1.33593753,-1.3007813 0.1875,0 0.5390625,0.09375 0.5390625,0.6679688 0,0.3046875 -0.1640625,0.9726562 -0.5390625,2.3671875 -0.1523438,0.62109374 -0.5039063,1.04296874 -0.9492188,1.04296874 -0.058594,0 -0.28124998,0 -0.49218748,-0.12890625 0.24609375,-0.0585938 0.46874998,-0.26953125 0.46874998,-0.5390625 0,-0.26953129 -0.22265623,-0.35156249 -0.37499998,-0.35156249 -0.29296875,0 -0.5390625,0.25781249 -0.5390625,0.57421874 0,0.45703125 0.4921875,0.65625 0.93749998,0.65625 0.65625,0 1.0078125,-0.69140625 1.0429688,-0.75 0.1171875,0.36328125 0.4804687,0.75 1.078125,0.75 1.0195312,0 1.59375,-1.27734374 1.59375,-1.53515624 0,-0.09375 -0.09375,-0.09375 -0.1289063,-0.09375 -0.082031,0 -0.1054687,0.035156 -0.1289062,0.1054687 -0.328125,1.06640629 -0.9960938,1.31250004 -1.3242188,1.31250004 -0.3867187,0 -0.5390625,-0.328125 -0.5390625,-0.65625 0,-0.22265625 0.058594,-0.44531254 0.1640625,-0.87890624 z m 0,0"
         style="fill:#000000;fill-opacity:1;fill-rule:nonzero;stroke:none" />
      <path
         id="path17"
         d="m 11.987578,-2.2981328 h 2.777344 c 0.140625,0 0.328125,0 0.328125,-0.1992188 0,-0.1992187 -0.1875,-0.1992187 -0.328125,-0.1992187 h -2.777344 v -2.7890625 c 0,-0.1289063 0,-0.328125 -0.199219,-0.328125 -0.199218,0 -0.199218,0.1992187 -0.199218,0.328125 v 2.7890625 H 8.8000781 c -0.140625,0 -0.328125,0 -0.328125,0.1992187 0,0.1992188 0.1875,0.1992188 0.328125,0.1992188 h 2.7890629 v 2.80078124 c 0,0.12890625 0,0.328125 0.199218,0.328125 0.199219,0 0.199219,-0.19921875 0.199219,-0.328125 z m 10.280274,-4.6523438 c -0.07031,-0.1289062 -0.09375,-0.1875 -0.257813,-0.1875 -0.175781,0 -0.199219,0.058594 -0.257812,0.1875 l -3.375,6.75000004 c -0.04687,0.09375 -0.04687,0.10546875 -0.04687,0.1171875 0,0.08203125 0.05859,0.08203125 0.222656,0.08203125 h 6.914062 c 0.152344,0 0.210938,0 0.210938,-0.08203125 0,-0.01171875 0,-0.0234375 -0.04687,-0.1171875 z m -0.585938,0.8085938 2.683594,5.37890624 H 18.99832 Z m 0,0"
         style="fill:#000000;fill-opacity:1;fill-rule:nonzero;stroke:none" />
      <path
         id="path18"
         d="m 29.50125,-3.0129766 c 0.05859,-0.2578125 0.292969,-1.171875 0.984375,-1.171875 0.04687,0 0.292969,0 0.503906,0.1289063 -0.28125,0.046875 -0.480469,0.3046875 -0.480469,0.5390625 0,0.1640625 0.105469,0.3515625 0.375,0.3515625 0.222657,0 0.539063,-0.1875 0.539063,-0.5859375 0,-0.515625 -0.585938,-0.65625 -0.925781,-0.65625 -0.574219,0 -0.925782,0.5273437 -1.042969,0.7617187 -0.257813,-0.65625 -0.785156,-0.7617187 -1.078125,-0.7617187 -1.042969,0 -1.605469,1.2890625 -1.605469,1.5351562 0,0.1054688 0.105469,0.1054688 0.117188,0.1054688 0.08203,0 0.117187,-0.023437 0.128906,-0.1171875 0.339844,-1.0546875 0.996094,-1.3007813 1.335937,-1.3007813 0.1875,0 0.539063,0.09375 0.539063,0.6679688 0,0.3046875 -0.164063,0.9726562 -0.539063,2.3671875 -0.152343,0.62109374 -0.503906,1.04296874 -0.949218,1.04296874 -0.05859,0 -0.28125,0 -0.492188,-0.12890625 0.246094,-0.0585938 0.46875,-0.26953125 0.46875,-0.5390625 0,-0.26953129 -0.222656,-0.35156249 -0.375,-0.35156249 -0.292969,0 -0.539062,0.25781249 -0.539062,0.57421874 0,0.45703125 0.492187,0.65625 0.9375,0.65625 0.65625,0 1.007812,-0.69140625 1.042968,-0.75 0.117188,0.36328125 0.480469,0.75 1.078125,0.75 1.019532,0 1.59375,-1.27734374 1.59375,-1.53515624 0,-0.09375 -0.09375,-0.09375 -0.128906,-0.09375 -0.08203,0 -0.105469,0.035156 -0.128906,0.1054687 -0.328125,1.06640629 -0.996094,1.31250004 -1.324219,1.31250004 -0.386719,0 -0.539062,-0.328125 -0.539062,-0.65625 0,-0.22265625 0.05859,-0.44531254 0.164062,-0.87890624 z m 0,0"
         style="fill:#000000;fill-opacity:1;fill-rule:nonzero;stroke:none" />
    </g>
  </g>
</svg>
