<?xml version="1.0" encoding="UTF-8" standalone="no"?>
<!-- Created with Inkscape (http://www.inkscape.org/) -->

<svg
   version="1.1"
   id="svg1"
   width="241.97333"
   height="239.29333"
   viewBox="0 0 241.97333 239.29333"
   sodipodi:docname="tikz-heat-conduction.pdf"
   xmlns:inkscape="http://www.inkscape.org/namespaces/inkscape"
   xmlns:sodipodi="http://sodipodi.sourceforge.net/DTD/sodipodi-0.dtd"
   xmlns="http://www.w3.org/2000/svg"
   xmlns:svg="http://www.w3.org/2000/svg">
  <defs
     id="defs1" />
  <sodipodi:namedview
     id="namedview1"
     pagecolor="#ffffff"
     bordercolor="#000000"
     borderopacity="0.25"
     inkscape:showpageshadow="2"
     inkscape:pageopacity="0.0"
     inkscape:pagecheckerboard="0"
     inkscape:deskcolor="#d1d1d1">
    <inkscape:page
       x="0"
       y="0"
       inkscape:label="1"
       id="page1"
       width="241.97333"
       height="239.29333"
       margin="0"
       bleed="0" />
  </sodipodi:namedview>
  <g
     id="g1"
     inkscape:groupmode="layer"
     inkscape:label="1">
    <path
       id="path1"
       d="m 121.79485,-62.01823 c 20.21943,38.96688 106.00633,46.85742 98.58656,-12.06739 -7.42723,-58.91734 5.97766,-70.98472 20.92181,-93.40095 14.94416,-22.41623 -59.0294,-16.43857 -97.8842,0 -38.8548,16.43857 -41.84362,66.50148 -21.62417,105.46834 z"
       style="fill:none;stroke:#0095b2;stroke-width:0.74721;stroke-linecap:butt;stroke-linejoin:miter;stroke-miterlimit:10;stroke-dasharray:none;stroke-opacity:1"
       transform="matrix(1.3333333,0,0,-1.3333333,-132.27733,-17.062667)" />
    <path
       id="path2"
       d="m 133.70532,-73.33841 c 20.21945,38.96686 85.87658,49.95831 78.4568,-8.96649 -7.42722,-58.91734 0,-56.78778 9.7137,-73.97356 9.7137,-17.18577 -26.89947,-14.19694 -65.75427,2.24163 -38.8548,16.43856 -42.64314,41.73903 -22.41623,80.69842 z"
       style="fill:none;stroke:#000000;stroke-width:0.74721;stroke-linecap:butt;stroke-linejoin:miter;stroke-miterlimit:10;stroke-dasharray:none;stroke-opacity:1"
       transform="matrix(1.3333333,0,0,-1.3333333,-132.27733,-17.062667)" />
    <path
       id="path3"
       d="m 151.6383,-77.07445 c 15.69137,17.93299 56.04058,35.86597 51.55733,-7.47207 -4.48324,-43.33805 -2.24162,-47.82129 1.49442,-61.27103 3.73604,-13.44974 -14.94415,-8.96649 -41.84363,0.74721 -26.89947,9.7137 -26.89947,50.06291 -11.20812,67.99589 z"
       style="fill:none;stroke:#dc5500;stroke-width:0.74721;stroke-linecap:butt;stroke-linejoin:miter;stroke-miterlimit:10;stroke-dasharray:none;stroke-opacity:1"
       transform="matrix(1.3333333,0,0,-1.3333333,-132.27733,-17.062667)" />
    <path
       id="path4"
       d="m 200.99886,-115.81718 -38.90712,1.30761"
       style="fill:none;stroke:#000000;stroke-width:0.74721;stroke-linecap:butt;stroke-linejoin:miter;stroke-miterlimit:10;stroke-dasharray:none;stroke-opacity:1"
       transform="matrix(1.3333333,0,0,-1.3333333,-132.27733,-17.062667)" />
    <path
       id="path5"
       d="m 166.63406,-111.45584 -6.77647,-2.97899 6.5607,-3.42817 z"
       style="fill:#000000;fill-opacity:1;fill-rule:nonzero;stroke:#000000;stroke-width:0.0797;stroke-linecap:butt;stroke-linejoin:miter;stroke-miterlimit:10;stroke-dasharray:none;stroke-opacity:0"
       transform="matrix(1.3333333,0,0,-1.3333333,-132.27733,-17.062667)" />
    <path
       id="path6"
       d="m 200.99886,-115.81718 75.42312,-3.73604"
       style="fill:none;stroke:#000000;stroke-width:0.74721;stroke-linecap:butt;stroke-linejoin:miter;stroke-miterlimit:10;stroke-dasharray:none;stroke-opacity:1"
       transform="matrix(1.3333333,0,0,-1.3333333,-132.27733,-17.062667)" />
    <path
       id="path7"
       d="m 271.84123,-122.53752 6.82237,2.87224 -6.506,3.53074 z"
       style="fill:#000000;fill-opacity:1;fill-rule:nonzero;stroke:#000000;stroke-width:0.0797;stroke-linecap:butt;stroke-linejoin:miter;stroke-miterlimit:10;stroke-dasharray:none;stroke-opacity:0"
       transform="matrix(1.3333333,0,0,-1.3333333,-132.27733,-17.062667)" />
    <g
       id="g7"
       aria-label="u=10&#10;◦&#10;C"
       transform="matrix(1.3333333,0,0,1.3333333,168.1,46.78)">
      <path
         id="path8"
         d="m 3.4933594,-0.5615625 c 0.1054687,0.41015625 0.4570312,0.66796875 0.8789062,0.66796875 0.3515625,0 0.5742188,-0.22265625 0.7382813,-0.5390625 C 5.2863281,-0.7959375 5.4152344,-1.4053125 5.4152344,-1.42875 c 0,-0.09375 -0.09375,-0.09375 -0.1289063,-0.09375 -0.09375,0 -0.1054687,0.035156 -0.140625,0.1757813 -0.1289062,0.56249995 -0.328125,1.24218745 -0.7382812,1.24218745 -0.2109375,0 -0.3164063,-0.12890625 -0.3164063,-0.45703125 0,-0.22265625 0.1289063,-0.6914062 0.1992188,-1.0429687 l 0.28125,-1.078125 C 4.6066406,-2.8232812 4.7003906,-3.21 4.7472656,-3.350625 4.7941406,-3.585 4.8878906,-3.96 4.8878906,-4.0185937 c 0,-0.1875 -0.140625,-0.2695313 -0.28125,-0.2695313 -0.058594,0 -0.3164062,0 -0.3867187,0.3398438 -0.1992188,0.7265625 -0.6328125,2.4726562 -0.75,2.99999995 -0.011719,0.046875 -0.4101563,0.84375 -1.1367188,0.84375 -0.515625,0 -0.6210937,-0.45703125 -0.6210937,-0.8203125 0,-0.56249995 0.28125,-1.34765625 0.5390625,-2.02734375 C 2.3683594,-3.256875 2.4269531,-3.3975 2.4269531,-3.585 c 0,-0.4453125 -0.328125,-0.8203125 -0.8203125,-0.8203125 -0.94921872,0 -1.31249997,1.453125 -1.31249997,1.5351563 0,0.1054687 0.09375,0.1054687 0.1171875,0.1054687 0.09375,0 0.10546875,-0.023437 0.15234375,-0.1875 0.2578125,-0.8671875 0.63281252,-1.2304687 1.00781252,-1.2304687 0.09375,0 0.2578125,0.011719 0.2578125,0.328125 0,0.234375 -0.1171875,0.5273437 -0.1757813,0.6796875 -0.3632812,0.984375 -0.5742187,1.6054687 -0.5742187,2.0859375 0,0.9492187 0.6796875,1.19531245 1.21875,1.19531245 0.65625,0 1.0195312,-0.4453125 1.1953125,-0.66796875 z m 0,0"
         style="fill:#00a9d9;fill-opacity:1;fill-rule:nonzero;stroke:none" />
      <path
         id="path9"
         d="m 15.314648,-3.256875 c 0.152344,0 0.339844,0 0.339844,-0.1992187 0,-0.1992188 -0.1875,-0.1992188 -0.328125,-0.1992188 H 9.3615234 c -0.140625,0 -0.328125,0 -0.328125,0.1992188 0,0.1992187 0.1875,0.1992187 0.3398438,0.1992187 z m 0.01172,1.9335938 c 0.140625,0 0.328125,0 0.328125,-0.1992188 0,-0.1992187 -0.1875,-0.1992187 -0.339844,-0.1992187 H 9.3732422 c -0.1523438,0 -0.3398438,0 -0.3398438,0.1992187 0,0.1992188 0.1875,0.1992188 0.328125,0.1992188 z m 6.574219,-5.0507813 c 0,-0.234375 0,-0.2578125 -0.234375,-0.2578125 -0.609375,0.6328125 -1.488281,0.6328125 -1.804688,0.6328125 v 0.3164063 c 0.199219,0 0.785157,0 1.300782,-0.2578125 v 5.15624995 c 0,0.3515625 -0.03516,0.48046875 -0.925782,0.48046875 H 19.920117 V 9.375e-4 c 0.351563,-0.03515625 1.207031,-0.03515625 1.605469,-0.03515625 0.398437,0 1.265625,0 1.617187,0.03515625 V -0.30375 h -0.316406 c -0.902344,0 -0.925781,-0.1171875 -0.925781,-0.48046875 z m 6.635742,3.1875 c 0,-0.796875 -0.04687,-1.59375 -0.398437,-2.3320312 -0.457032,-0.9609375 -1.277344,-1.1132813 -1.6875,-1.1132813 -0.597657,0 -1.335938,0.2578125 -1.734375,1.1835938 -0.328125,0.6914062 -0.375,1.4648437 -0.375,2.2617187 0,0.75 0.04687,1.640625 0.445312,2.40234375 0.433594,0.80859375 1.160156,1.0078125 1.652344,1.0078125 0.539062,0 1.289062,-0.2109375 1.734375,-1.16015625 0.316406,-0.6914062 0.363281,-1.4648437 0.363281,-2.25 z m -2.097656,3.1875 c -0.386719,0 -0.984375,-0.24609375 -1.160156,-1.2070312 -0.105469,-0.5976563 -0.105469,-1.5117188 -0.105469,-2.0976563 0,-0.6445312 0,-1.3007812 0.08203,-1.8398437 0.1875,-1.1835938 0.925781,-1.265625 1.183594,-1.265625 0.328125,0 0.984375,0.1757812 1.171875,1.1601562 0.09375,0.5625 0.09375,1.3125 0.09375,1.9453125 0,0.75 0,1.4179688 -0.105469,2.0625 -0.152344,0.9375 -0.714844,1.2421875 -1.160156,1.2421875 z m 0,0"
         style="fill:#00a9d9;fill-opacity:1;fill-rule:nonzero;stroke:none" />
      <path
         id="path10"
         d="m 32.488477,-5.3603906 c 0,-0.84375 -0.679688,-1.5 -1.5,-1.5 -0.84375,0 -1.5,0.6796875 -1.5,1.5 0,0.84375 0.679687,1.5 1.5,1.5 0.832031,0 1.5,-0.6796875 1.5,-1.5 z m -1.5,1.1484375 c -0.65625,0 -1.160157,-0.5273438 -1.160157,-1.1484375 0,-0.6445313 0.515625,-1.1601563 1.160157,-1.1601563 0.65625,0 1.160156,0.5390625 1.160156,1.1601563 0,0.6445312 -0.527344,1.1484375 -1.160156,1.1484375 z m 0,0"
         style="fill:#00a9d9;fill-opacity:1;fill-rule:nonzero;stroke:none" />
      <path
         id="path11"
         d="m 41.098828,-6.9248437 c 0,-0.023437 -0.02344,-0.09375 -0.105469,-0.09375 -0.03516,0 -0.04687,0.011719 -0.152343,0.1171875 l -0.703125,0.7617187 c -0.08203,-0.140625 -0.539063,-0.8789062 -1.652344,-0.8789062 -2.214844,0 -4.453125,2.203125 -4.453125,4.5117187 0,1.640625 1.171875,2.73046875 2.695312,2.73046875 0.867188,0 1.617188,-0.3984375 2.144532,-0.85546875 0.9375,-0.8203125 1.101562,-1.7226562 1.101562,-1.7578125 0,-0.1054687 -0.105469,-0.1054687 -0.117187,-0.1054687 -0.05859,0 -0.117188,0.023437 -0.128907,0.1054687 -0.09375,0.2929688 -0.316406,0.9960938 -1.007812,1.5703125 -0.691406,0.5625 -1.3125,0.7265625 -1.839844,0.7265625 -0.890625,0 -1.945312,-0.515625 -1.945312,-2.0625 0,-0.5742187 0.210937,-2.1914062 1.207031,-3.3515625 0.609375,-0.703125 1.535156,-1.2070312 2.425781,-1.2070312 1.019531,0 1.605469,0.7734375 1.605469,1.921875 0,0.3984375 -0.03516,0.4101562 -0.03516,0.5039062 0,0.1054688 0.117187,0.1054688 0.152343,0.1054688 0.128907,0 0.128907,-0.023437 0.175782,-0.1992188 z m 0,0"
         style="fill:#00a9d9;fill-opacity:1;fill-rule:nonzero;stroke:none" />
    </g>
    <g
       id="g11"
       aria-label="u=15&#10;◦&#10;C"
       transform="matrix(1.3333333,0,0,1.3333333,66.48,101.57467)">
      <path
         id="path12"
         d="m 3.4925391,-0.56283594 c 0.1054687,0.41015625 0.4570312,0.66796875 0.8789062,0.66796875 0.3515625,0 0.5742188,-0.22265625 0.7382813,-0.5390625 0.1757812,-0.36328125 0.3046875,-0.97265621 0.3046875,-0.99609371 0,-0.09375 -0.09375,-0.09375 -0.1289063,-0.09375 -0.09375,0 -0.1054687,0.035156 -0.140625,0.1757812 -0.1289062,0.56250001 -0.328125,1.24218751 -0.7382812,1.24218751 -0.2109375,0 -0.3164063,-0.12890625 -0.3164063,-0.45703125 0,-0.22265625 0.1289063,-0.69140626 0.1992188,-1.04296876 l 0.28125,-1.078125 c 0.035156,-0.140625 0.1289062,-0.5273437 0.1757812,-0.6679687 0.046875,-0.234375 0.140625,-0.609375 0.140625,-0.6679688 0,-0.1875 -0.140625,-0.2695312 -0.28125,-0.2695312 -0.058594,0 -0.3164062,0 -0.3867187,0.3398437 -0.1992188,0.7265625 -0.6328125,2.4726563 -0.75,3.00000001 -0.011719,0.046875 -0.4101563,0.84375 -1.1367188,0.84375 -0.515625,0 -0.6210937,-0.45703125 -0.6210937,-0.8203125 0,-0.56250001 0.28125,-1.34765621 0.5390625,-2.02734371 0.1171875,-0.3046875 0.1757812,-0.4453125 0.1757812,-0.6328125 0,-0.4453125 -0.328125,-0.8203125 -0.8203125,-0.8203125 -0.94921874,0 -1.31249999,1.453125 -1.31249999,1.5351562 0,0.1054688 0.09375,0.1054688 0.1171875,0.1054688 0.09375,0 0.10546875,-0.023437 0.15234375,-0.1875 0.2578125,-0.8671875 0.63281254,-1.2304688 1.00781254,-1.2304688 0.09375,0 0.2578125,0.011719 0.2578125,0.328125 0,0.234375 -0.1171875,0.5273438 -0.1757813,0.6796875 -0.3632812,0.984375 -0.5742187,1.6054688 -0.5742187,2.0859375 0,0.94921876 0.6796875,1.19531251 1.21875,1.19531251 0.65625,0 1.0195312,-0.4453125 1.1953125,-0.66796875 z m 0,0"
         style="fill:#cd6400;fill-opacity:1;fill-rule:nonzero;stroke:none" />
      <path
         id="path13"
         d="m 15.313828,-3.2581484 c 0.152344,0 0.339844,0 0.339844,-0.1992188 0,-0.1992187 -0.1875,-0.1992187 -0.328125,-0.1992187 H 9.3607031 c -0.140625,0 -0.328125,0 -0.328125,0.1992187 0,0.1992188 0.1875,0.1992188 0.3398438,0.1992188 z m 0.01172,1.9335937 c 0.140625,0 0.328125,0 0.328125,-0.1992187 0,-0.1992188 -0.1875,-0.1992188 -0.339844,-0.1992188 H 9.3724219 c -0.1523438,0 -0.3398438,0 -0.3398438,0.1992188 0,0.1992187 0.1875,0.1992187 0.328125,0.1992187 z m 6.577148,-5.0507812 c 0,-0.234375 0,-0.2578125 -0.234375,-0.2578125 -0.609375,0.6328125 -1.488281,0.6328125 -1.804687,0.6328125 v 0.3164062 c 0.199219,0 0.785156,0 1.300781,-0.2578125 v 5.15625001 c 0,0.3515625 -0.03516,0.48046875 -0.925781,0.48046875 H 19.922227 V -3.359375e-4 C 20.273789,-0.03549219 21.129258,-0.03549219 21.527695,-0.03549219 c 0.398438,0 1.265625,0 1.617188,0.0351562525 V -0.30502344 h -0.316406 c -0.902344,0 -0.925782,-0.1171875 -0.925782,-0.48046875 z m 6.527344,4.3710937 c 0,-1.1835937 -0.820312,-2.1796875 -1.898437,-2.1796875 -0.480469,0 -0.902344,0.1640625 -1.265625,0.5039063 v -1.9335938 c 0.199218,0.058594 0.527343,0.1289063 0.84375,0.1289063 1.230468,0 1.933593,-0.9140625 1.933593,-1.0429688 0,-0.058594 -0.03516,-0.1054687 -0.105468,-0.1054687 -0.01172,0 -0.03516,0 -0.08203,0.023437 -0.199218,0.09375 -0.679687,0.2929687 -1.347656,0.2929687 -0.398437,0 -0.855469,-0.070312 -1.324219,-0.28125 -0.08203,-0.023437 -0.105468,-0.023437 -0.128906,-0.023437 -0.09375,0 -0.09375,0.082031 -0.09375,0.234375 v 2.953125 c 0,0.1757813 0,0.2578125 0.140625,0.2578125 0.07031,0 0.08203,-0.035156 0.128906,-0.09375 0.105469,-0.1523437 0.480469,-0.6914062 1.277344,-0.6914062 0.527344,0 0.773438,0.4570312 0.855469,0.6328125 0.152344,0.375 0.175781,0.7617187 0.175781,1.2539062 0,0.3515625 0,0.9492188 -0.234375,1.37109376 -0.246094,0.38671875 -0.609375,0.64453125 -1.066406,0.64453125 -0.726563,0 -1.300781,-0.52734375 -1.464844,-1.11328121 0.02344,0.011719 0.05859,0.011719 0.164063,0.011719 0.328125,0 0.503906,-0.2460937 0.503906,-0.4804687 0,-0.2460938 -0.175781,-0.4921875 -0.503906,-0.4921875 -0.140625,0 -0.480469,0.070312 -0.480469,0.5273437 0,0.85546876 0.679687,1.82812501 1.792969,1.82812501 1.160156,0 2.179687,-0.9609375 2.179687,-2.22656251 z m 0,0"
         style="fill:#cd6400;fill-opacity:1;fill-rule:nonzero;stroke:none" />
      <path
         id="path14"
         d="m 32.487656,-5.3616641 c 0,-0.84375 -0.679687,-1.5 -1.5,-1.5 -0.84375,0 -1.5,0.6796875 -1.5,1.5 0,0.84375 0.679688,1.5 1.5,1.5 0.832031,0 1.5,-0.6796875 1.5,-1.5 z m -1.5,1.1484375 c -0.65625,0 -1.160156,-0.5273437 -1.160156,-1.1484375 0,-0.6445312 0.515625,-1.1601562 1.160156,-1.1601562 0.65625,0 1.160156,0.5390625 1.160156,1.1601562 0,0.6445313 -0.527343,1.1484375 -1.160156,1.1484375 z m 0,0"
         style="fill:#cd6400;fill-opacity:1;fill-rule:nonzero;stroke:none" />
      <path
         id="path15"
         d="m 41.098008,-6.9261172 c 0,-0.023437 -0.02344,-0.09375 -0.105469,-0.09375 -0.03516,0 -0.04687,0.011719 -0.152344,0.1171875 l -0.703125,0.7617188 c -0.08203,-0.140625 -0.539062,-0.8789063 -1.652343,-0.8789063 -2.214844,0 -4.453125,2.203125 -4.453125,4.5117188 0,1.64062496 1.171875,2.73046871 2.695312,2.73046871 0.867188,0 1.617188,-0.3984375 2.144531,-0.85546875 0.9375,-0.82031246 1.101563,-1.72265626 1.101563,-1.75781246 0,-0.1054688 -0.105469,-0.1054688 -0.117188,-0.1054688 -0.05859,0 -0.117187,0.023437 -0.128906,0.1054688 -0.09375,0.2929687 -0.316406,0.9960937 -1.007812,1.57031246 -0.691407,0.5625 -1.3125,0.7265625 -1.839844,0.7265625 -0.890625,0 -1.945313,-0.515625 -1.945313,-2.06249996 0,-0.5742188 0.210938,-2.1914063 1.207032,-3.3515625 0.609375,-0.703125 1.535156,-1.2070313 2.425781,-1.2070313 1.019531,0 1.605469,0.7734375 1.605469,1.921875 0,0.3984375 -0.03516,0.4101563 -0.03516,0.5039063 0,0.1054687 0.117188,0.1054687 0.152344,0.1054687 0.128906,0 0.128906,-0.023437 0.175781,-0.1992187 z m 0,0"
         style="fill:#cd6400;fill-opacity:1;fill-rule:nonzero;stroke:none" />
    </g>
    <g
       id="g15"
       aria-label="∇u"
       transform="matrix(1.3333333,0,0,1.3333333,101.34933,152.316)">
      <path
         id="path16"
         d="m 7.7682734,-6.5856328 c 0.023437,-0.023437 0.046875,-0.09375 0.046875,-0.140625 0,-0.070312 -0.011719,-0.082031 -0.234375,-0.082031 H 0.70186719 c -0.22265625,0 -0.234375,0.011719 -0.234375,0.082031 0,0.046875 0.0351563,0.1171875 0.046875,0.140625 L 3.8776484,0.14092969 c 0.070312,0.12890625 0.09375,0.1875 0.2695313,0.1875 0.1640625,0 0.1992187,-0.0585938 0.2695312,-0.1875 z m -6.0703125,0.5039062 h 5.4726563 l -2.7304688,5.47265629 z m 0,0"
         style="fill:#000000;fill-opacity:1;fill-rule:nonzero;stroke:none" />
      <path
         id="path17"
         d="m 11.793664,-0.56219531 c 0.105469,0.41015625 0.457031,0.66796875 0.878906,0.66796875 0.351563,0 0.574219,-0.22265625 0.738282,-0.5390625 0.175781,-0.36328125 0.304687,-0.97265624 0.304687,-0.99609374 0,-0.09375 -0.09375,-0.09375 -0.128906,-0.09375 -0.09375,0 -0.105469,0.035156 -0.140625,0.1757812 -0.128906,0.56250004 -0.328125,1.24218754 -0.738281,1.24218754 -0.210938,0 -0.316407,-0.12890625 -0.316407,-0.45703125 0,-0.22265625 0.128907,-0.69140629 0.199219,-1.04296879 l 0.28125,-1.078125 c 0.03516,-0.140625 0.128906,-0.5273437 0.175781,-0.6679687 0.04687,-0.234375 0.140625,-0.609375 0.140625,-0.6679688 0,-0.1875 -0.140625,-0.2695312 -0.28125,-0.2695312 -0.05859,0 -0.316406,0 -0.386718,0.3398437 -0.199219,0.7265625 -0.632813,2.4726563 -0.75,3.00000004 -0.01172,0.046875 -0.410157,0.84375 -1.136719,0.84375 -0.515625,0 -0.621094,-0.45703125 -0.621094,-0.8203125 0,-0.56250004 0.28125,-1.34765624 0.539063,-2.02734374 0.117187,-0.3046875 0.175781,-0.4453125 0.175781,-0.6328125 0,-0.4453125 -0.328125,-0.8203125 -0.8203127,-0.8203125 -0.9492187,0 -1.3125,1.453125 -1.3125,1.5351562 0,0.1054688 0.09375,0.1054688 0.1171875,0.1054688 0.09375,0 0.1054688,-0.023437 0.1523438,-0.1875 0.2578125,-0.8671875 0.6328125,-1.2304688 1.0078125,-1.2304688 0.09375,0 0.2578129,0.011719 0.2578129,0.328125 0,0.234375 -0.117188,0.5273438 -0.1757817,0.6796875 -0.3632812,0.984375 -0.5742187,1.6054688 -0.5742187,2.0859375 0,0.94921879 0.6796874,1.19531254 1.2187504,1.19531254 0.65625,0 1.019531,-0.4453125 1.195312,-0.66796875 z m 0,0"
         style="fill:#000000;fill-opacity:1;fill-rule:nonzero;stroke:none" />
    </g>
    <path
       id="path18"
       d="m 4.4994922,-4.2899375 c 0,-0.046875 -0.023437,-0.1054687 -0.09375,-0.1054687 -0.1171875,0 -0.515625,0.3984375 -0.6796875,0.6914062 -0.2226563,-0.5390625 -0.609375,-0.703125 -0.9257813,-0.703125 -1.171875,0 -2.40234371,1.4765625 -2.40234371,2.9179688 0,0.98437495 0.5859375,1.59374995 1.31250001,1.59374995 0.4335937,0 0.8203125,-0.234375 1.1835937,-0.59765625 -0.09375,0.3515625 -0.421875,1.6992188 -0.4570312,1.7929688 -0.082031,0.2695312 -0.1523438,0.3164062 -0.7148438,0.328125 -0.1289062,0 -0.2226562,0 -0.2226562,0.1992187 0,0 0,0.1054688 0.1289062,0.1054688 0.3164063,0 0.6679688,-0.035156 0.9960938,-0.035156 0.328125,0 0.6914062,0.035156 1.0195312,0.035156 0.046875,0 0.1757813,0 0.1757813,-0.1992188 0,-0.1054687 -0.09375,-0.1054687 -0.2578125,-0.1054687 -0.46875,0 -0.46875,-0.070312 -0.46875,-0.1640625 0,-0.070312 0.011719,-0.1289063 0.035156,-0.2226563 z m -2.7539063,4.18359375 c -0.5976562,0 -0.6445312,-0.7734375 -0.6445312,-0.93749995 0,-0.4804688 0.2929687,-1.5703125 0.4570312,-1.9804688 0.3164063,-0.7382812 0.8320313,-1.1601562 1.2421875,-1.1601562 0.6445313,0 0.7851563,0.8085937 0.7851563,0.8789062 0,0.058594 -0.5507813,2.2382813 -0.5742188,2.2734375 -0.1523437,0.28125 -0.7148437,0.92578125 -1.265625,0.92578125 z m 0,0"
       style="fill:#000000;fill-opacity:1;fill-rule:nonzero;stroke:none"
       aria-label="q"
       transform="matrix(1.3333333,0,0,1.3333333,201.97333,153.93867)" />
  </g>
</svg>
