<?xml version="1.0" encoding="UTF-8" standalone="no"?>
<!-- Created with Inkscape (http://www.inkscape.org/) -->

<svg
   version="1.1"
   id="svg1"
   width="215.52"
   height="125.56"
   viewBox="0 0 215.52 125.56"
   sodipodi:docname="tikz-rod-stretch.pdf"
   xmlns:inkscape="http://www.inkscape.org/namespaces/inkscape"
   xmlns:sodipodi="http://sodipodi.sourceforge.net/DTD/sodipodi-0.dtd"
   xmlns="http://www.w3.org/2000/svg"
   xmlns:svg="http://www.w3.org/2000/svg">
  <defs
     id="defs1" />
  <sodipodi:namedview
     id="namedview1"
     pagecolor="#ffffff"
     bordercolor="#000000"
     borderopacity="0.25"
     inkscape:showpageshadow="2"
     inkscape:pageopacity="0.0"
     inkscape:pagecheckerboard="0"
     inkscape:deskcolor="#d1d1d1">
    <inkscape:page
       x="0"
       y="0"
       inkscape:label="1"
       id="page1"
       width="215.52"
       height="125.56"
       margin="0"
       bleed="0" />
  </sodipodi:namedview>
  <g
     id="g1"
     inkscape:groupmode="layer"
     inkscape:label="1">
    <path
       id="path1"
       d="m 37.65909,-41.32039 h 105.04796 v -8.07579 H 37.65909 Z"
       style="fill:#f5a623;fill-opacity:0.5;fill-rule:nonzero;stroke:#8b572a;stroke-width:0.74721;stroke-linecap:butt;stroke-linejoin:miter;stroke-miterlimit:10;stroke-dasharray:none;stroke-opacity:0.5"
       transform="matrix(1.3333333,0,0,-1.3333333,-47.056,-12.468)" />
    <path
       id="path2"
       d="m 37.65909,-67.99559 h 156.91293 v -8.07579 H 37.65909 Z"
       style="fill:#f5a623;fill-opacity:1;fill-rule:nonzero;stroke:#8b572a;stroke-width:0.74721;stroke-linecap:butt;stroke-linejoin:miter;stroke-miterlimit:10;stroke-dasharray:none;stroke-opacity:1"
       transform="matrix(1.3333333,0,0,-1.3333333,-47.056,-12.468)" />
    <path
       id="path3"
       d="m 37.65909,-11.71614 v -89.44037"
       style="fill:none;stroke:#000000;stroke-width:0.74721;stroke-linecap:butt;stroke-linejoin:miter;stroke-miterlimit:10;stroke-dasharray:none;stroke-opacity:1"
       transform="matrix(1.3333333,0,0,-1.3333333,-47.056,-12.468)" />
    <path
       id="path4"
       d="M 39.22821,-35.79704 H 141.13792"
       style="fill:none;stroke:#9b9b9b;stroke-width:0.74721;stroke-linecap:butt;stroke-linejoin:miter;stroke-miterlimit:10;stroke-dasharray:none;stroke-opacity:1"
       transform="matrix(1.3333333,0,0,-1.3333333,-47.056,-12.468)" />
    <path
       id="path5"
       d="m 138.03629,-38.0409 4.67076,2.24386 -4.67076,2.24384 z"
       style="fill:#9b9b9b;fill-opacity:1;fill-rule:nonzero;stroke:#000000;stroke-width:0.0797;stroke-linecap:butt;stroke-linejoin:miter;stroke-miterlimit:10;stroke-dasharray:none;stroke-opacity:0"
       transform="matrix(1.3333333,0,0,-1.3333333,-47.056,-12.468)" />
    <path
       id="path6"
       d="m 42.32985,-33.5532 -4.67076,-2.24384 4.67076,-2.24386 z"
       style="fill:#9b9b9b;fill-opacity:1;fill-rule:nonzero;stroke:#000000;stroke-width:0.0797;stroke-linecap:butt;stroke-linejoin:miter;stroke-miterlimit:10;stroke-dasharray:none;stroke-opacity:0"
       transform="matrix(1.3333333,0,0,-1.3333333,-47.056,-12.468)" />
    <path
       id="path7"
       d="M 39.22821,-82.87093 H 193.00288"
       style="fill:none;stroke:#000000;stroke-width:0.74721;stroke-linecap:butt;stroke-linejoin:miter;stroke-miterlimit:10;stroke-dasharray:none;stroke-opacity:1"
       transform="matrix(1.3333333,0,0,-1.3333333,-47.056,-12.468)" />
    <path
       id="path8"
       d="m 189.90125,-85.11478 4.67077,2.24385 -4.67077,2.24384 z"
       style="fill:#000000;fill-opacity:1;fill-rule:nonzero;stroke:#000000;stroke-width:0.0797;stroke-linecap:butt;stroke-linejoin:miter;stroke-miterlimit:10;stroke-dasharray:none;stroke-opacity:0"
       transform="matrix(1.3333333,0,0,-1.3333333,-47.056,-12.468)" />
    <path
       id="path9"
       d="m 42.32985,-80.62709 -4.67076,-2.24384 4.67076,-2.24385 z"
       style="fill:#000000;fill-opacity:1;fill-rule:nonzero;stroke:#000000;stroke-width:0.0797;stroke-linecap:butt;stroke-linejoin:miter;stroke-miterlimit:10;stroke-dasharray:none;stroke-opacity:0"
       transform="matrix(1.3333333,0,0,-1.3333333,-47.056,-12.468)" />
    <path
       id="path10"
       d="m 145.19673,-59.10385 h 47.80615"
       style="fill:none;stroke:#000000;stroke-width:0.74721;stroke-linecap:butt;stroke-linejoin:miter;stroke-miterlimit:10;stroke-dasharray:none;stroke-opacity:1"
       transform="matrix(1.3333333,0,0,-1.3333333,-47.056,-12.468)" />
    <path
       id="path11"
       d="m 189.90125,-61.3477 4.67077,2.24385 -4.67077,2.24383 z"
       style="fill:#000000;fill-opacity:1;fill-rule:nonzero;stroke:#000000;stroke-width:0.0797;stroke-linecap:butt;stroke-linejoin:miter;stroke-miterlimit:10;stroke-dasharray:none;stroke-opacity:0"
       transform="matrix(1.3333333,0,0,-1.3333333,-47.056,-12.468)" />
    <path
       id="path12"
       d="m 148.29837,-56.86002 -4.67076,-2.24383 4.67076,-2.24385 z"
       style="fill:#000000;fill-opacity:1;fill-rule:nonzero;stroke:#000000;stroke-width:0.0797;stroke-linecap:butt;stroke-linejoin:miter;stroke-miterlimit:10;stroke-dasharray:none;stroke-opacity:0"
       transform="matrix(1.3333333,0,0,-1.3333333,-47.056,-12.468)" />
    <path
       id="path13"
       d="m 0.16402344,-0.98403125 c -0.0234375,0.0234375 -0.0585937,0.0585938 -0.0585937,0.09375 0,0.0585938 0.0585937,0.12890625 0.12890625,0.12890625 0.046875,0 0.0703125,-0.0234375 0.3515625,-0.3046875 0.0820313,-0.070312 0.28125,-0.2578125 0.36328125,-0.3398437 0.09375,0.7851562 0.38671866,1.52343745 1.11328126,1.52343745 0.3984375,0 0.75,-0.22265625 0.9609375,-0.375 0.1289063,-0.10546875 0.5976563,-0.4921875 0.5976563,-0.5859375 0,-0.0351563 -0.023437,-0.1171875 -0.1171875,-0.1171875 -0.023437,0 -0.035156,0 -0.1289063,0.0820313 -0.6328125,0.6328125 -1.0078125,0.7734375 -1.2890625,0.7734375 -0.4570312,0 -0.609375,-0.515625 -0.609375,-1.28906245 0,-0.058594 0.023437,-0.515625 0.046875,-0.5625 0.023437,-0.035156 0.023437,-0.058594 0.2226563,-0.2578126 0.8085937,-0.8085936 2.2148437,-2.484375 2.2148437,-4.03125 0,-0.1640625 0,-0.7734375 -0.5859375,-0.7734375 -0.8203125,0 -1.5585938,1.640625 -1.6640625,1.875 -0.4804687,1.078125 -0.78515626,2.25 -0.78515626,3.4335938 z M 1.5702734,-2.3785625 C 1.5937109,-2.49575 2.0273047,-4.698875 2.5898047,-5.87075 c 0.2695312,-0.5390625 0.4804687,-0.9375 0.796875,-0.9375 0.3398437,0 0.3398437,0.3632813 0.3398437,0.5273438 0,1.6640625 -1.6757812,3.3984375 -2.15625,3.9023437 z m 0,0"
       style="fill:#000000;fill-opacity:0.5;fill-rule:nonzero;stroke:none"
       aria-label="ℓ"
       transform="matrix(1.3333333,0,0,1.3333333,68.113333,32.702667)" />
    <path
       id="path14"
       d="m 3.5521641,-2.904875 c 0.4101562,1.0429688 0.890625,2.56640625 1.0546875,2.80078125 0.1523437,0.2109375 0.2578125,0.2109375 0.5273437,0.2109375 h 0.2109375 c 0.1054688,0 0.1171875,-0.0703125 0.1171875,-0.09375 0,-0.03515625 -0.023437,-0.046875 -0.046875,-0.09375 C 5.3099766,-0.186125 5.2513828,-0.33846875 5.1810703,-0.5376875 l -2.0273437,-5.671875 c -0.2109375,-0.5742187 -0.75,-0.703125 -1.21875,-0.703125 -0.046875,0 -0.1757813,0 -0.1757813,0.1054688 0,0.082031 0.070312,0.1054687 0.082031,0.1054687 0.328125,0.058594 0.3984375,0.1171875 0.65625,0.796875 l 0.9609375,2.7070313 -2.75390629,2.7304687 c -0.1171875,0.1171875 -0.17578125,0.17578125 -0.17578125,0.3046875 0,0.17578125 0.140625,0.29296875 0.3046875,0.29296875 0.15234375,0 0.24609374,-0.10546875 0.32812504,-0.2109375 z M 5.9720859,-0.983 c -0.023437,0.0234375 -0.058594,0.0585938 -0.058594,0.09375 0,0.0585938 0.058594,0.12890625 0.1289062,0.12890625 0.046875,0 0.070312,-0.0234375 0.3515625,-0.30468745 0.082031,-0.070312 0.28125,-0.2578125 0.3632813,-0.3398438 0.09375,0.78515625 0.3867187,1.5234375 1.1132812,1.5234375 0.3984375,0 0.75,-0.22265625 0.9609375,-0.375 0.1289063,-0.10546875 0.5976563,-0.4921875 0.5976563,-0.5859375 0,-0.0351563 -0.023437,-0.1171875 -0.1171875,-0.1171875 -0.023437,0 -0.035156,0 -0.1289063,0.0820313 -0.6328125,0.6328125 -1.0078125,0.7734375 -1.2890625,0.7734375 -0.4570312,0 -0.609375,-0.515625 -0.609375,-1.2890624 0,-0.058594 0.023437,-0.515625 0.046875,-0.5625 0.023437,-0.035156 0.023437,-0.058594 0.2226563,-0.2578125 0.8085937,-0.8085939 2.2148437,-2.484375 2.2148437,-4.03125 0,-0.1640625 0,-0.7734375 -0.5859375,-0.7734375 -0.8203125,0 -1.5585937,1.640625 -1.6640625,1.875 -0.4804687,1.078125 -0.7851562,2.25 -0.7851562,3.4335937 z m 1.40625,-1.3945312 c 0.023437,-0.1171875 0.4570313,-2.3203125 1.0195313,-3.4921875 0.2695312,-0.5390625 0.4804687,-0.9375 0.796875,-0.9375 0.3398437,0 0.3398437,0.3632812 0.3398437,0.5273437 0,1.6640625 -1.6757812,3.3984375 -2.15625,3.9023438 z m 0,0"
       style="fill:#000000;fill-opacity:1;fill-rule:nonzero;stroke:none"
       aria-label="λℓ"
       transform="matrix(1.3333333,0,0,1.3333333,101.588,110.81067)" />
    <g
       id="g14"
       aria-label="(λ−1)ℓ"
       transform="matrix(1.3333333,0,0,1.3333333,160.168,61.754667)">
      <path
         id="path15"
         d="m 3.2929453,2.3900547 c 0,-0.035156 0,-0.046875 -0.1640625,-0.2226563 -1.2421875,-1.25390621 -1.5703125,-3.12890621 -1.5703125,-4.6640625 0,-1.7226562 0.3867188,-3.4570312 1.6054688,-4.7109375 0.1289062,-0.1171875 0.1289062,-0.1289062 0.1289062,-0.1640625 0,-0.070312 -0.035156,-0.1054687 -0.09375,-0.1054687 -0.1054687,0 -0.9960937,0.6796875 -1.5820312,1.9453125 -0.515625,1.1015625 -0.63281254,2.203125 -0.63281254,3.0351562 0,0.7851563 0.11718754,1.99218754 0.65625004,3.11718754 0.5976562,1.21874996 1.453125,1.87499996 1.5585937,1.87499996 0.058594,0 0.09375,-0.035156 0.09375,-0.1054687 z m 0,0"
         style="fill:#000000;fill-opacity:1;fill-rule:nonzero;stroke:none" />
      <path
         id="path16"
         d="m 7.4238047,-2.9068203 c 0.4101562,1.0429687 0.890625,2.56640624 1.0546875,2.80078124 0.1523437,0.2109375 0.2578125,0.2109375 0.5273437,0.2109375 h 0.2109375 c 0.1054688,0 0.1171875,-0.0703125 0.1171875,-0.09375 0,-0.03515625 -0.023437,-0.046875 -0.046875,-0.09375 -0.1054687,-0.10546875 -0.1640625,-0.2578125 -0.234375,-0.45703125 L 7.0253672,-6.2115078 c -0.2109375,-0.5742188 -0.75,-0.703125 -1.21875,-0.703125 -0.046875,0 -0.1757813,0 -0.1757813,0.1054687 0,0.082031 0.070312,0.1054688 0.082031,0.1054688 0.328125,0.058594 0.3984375,0.1171875 0.65625,0.796875 l 0.9609375,2.7070312 -2.7539063,2.73046879 c -0.1171875,0.1171875 -0.1757812,0.17578125 -0.1757812,0.3046875 0,0.17578125 0.140625,0.29296875 0.3046875,0.29296875 0.1523437,0 0.2460937,-0.10546875 0.328125,-0.2109375 z m 0,0"
         style="fill:#000000;fill-opacity:1;fill-rule:nonzero;stroke:none" />
      <path
         id="path17"
         d="m 18.462867,-2.2974453 c 0.175781,0 0.351563,0 0.351563,-0.1992188 0,-0.1992187 -0.175782,-0.1992187 -0.351563,-0.1992187 h -5.390625 c -0.164062,0 -0.339844,0 -0.339844,0.1992187 0,0.1992188 0.175782,0.1992188 0.339844,0.1992188 z m 0,0"
         style="fill:#000000;fill-opacity:1;fill-rule:nonzero;stroke:none" />
      <path
         id="path18"
         d="m 24.790992,-6.3755703 c 0,-0.234375 0,-0.2578125 -0.234375,-0.2578125 -0.609375,0.6328125 -1.488281,0.6328125 -1.804687,0.6328125 v 0.3164062 c 0.199218,0 0.785156,0 1.300781,-0.2578125 v 5.15625004 c 0,0.3515625 -0.03516,0.48046875 -0.925781,0.48046875 H 22.810523 V -5.703125e-4 C 23.162086,-0.03572656 24.017555,-0.03572656 24.415992,-0.03572656 c 0.398438,0 1.265625,0 1.617188,0.0351562475 V -0.30525781 h -0.316407 c -0.902343,0 -0.925781,-0.1171875 -0.925781,-0.48046875 z m 4.936524,3.8789062 c 0,-0.7734375 -0.117188,-1.9804687 -0.65625,-3.1054687 -0.597657,-1.21875 -1.464844,-1.875 -1.558594,-1.875 -0.05859,0 -0.105469,0.046875 -0.105469,0.1054687 0,0.035156 0,0.046875 0.199219,0.234375 0.972656,0.984375 1.535156,2.5664063 1.535156,4.640625 0,1.71093754 -0.363281,3.45703129 -1.59375,4.7226563 -0.140625,0.1171875 -0.140625,0.1289062 -0.140625,0.1640625 0,0.058594 0.04687,0.1054687 0.105469,0.1054687 0.09375,0 0.996094,-0.6796875 1.582031,-1.94531246 0.503906,-1.1015625 0.632813,-2.20312504 0.632813,-3.04687504 z m 0,0"
         style="fill:#000000;fill-opacity:1;fill-rule:nonzero;stroke:none" />
      <path
         id="path19"
         d="m 30.881812,-0.98494531 c -0.02344,0.0234375 -0.05859,0.0585938 -0.05859,0.09375 0,0.0585938 0.05859,0.12890625 0.128906,0.12890625 0.04687,0 0.07031,-0.0234375 0.351562,-0.30468754 0.08203,-0.070312 0.28125,-0.2578125 0.363282,-0.3398437 0.09375,0.78515624 0.386718,1.52343749 1.113281,1.52343749 0.398437,0 0.75,-0.22265625 0.960937,-0.375 0.128907,-0.10546875 0.597657,-0.4921875 0.597657,-0.5859375 0,-0.0351563 -0.02344,-0.1171875 -0.117188,-0.1171875 -0.02344,0 -0.03516,0 -0.128906,0.0820313 -0.632813,0.6328125 -1.007813,0.7734375 -1.289063,0.7734375 -0.457031,0 -0.609375,-0.515625 -0.609375,-1.28906249 0,-0.058594 0.02344,-0.515625 0.04687,-0.5625 0.02344,-0.035156 0.02344,-0.058594 0.222657,-0.2578125 0.808593,-0.8085937 2.214843,-2.484375 2.214843,-4.03125 0,-0.1640625 0,-0.7734375 -0.585937,-0.7734375 -0.820313,0 -1.558594,1.640625 -1.664063,1.875 -0.480468,1.078125 -0.785156,2.25 -0.785156,3.4335938 z m 1.40625,-1.39453129 c 0.02344,-0.1171875 0.457032,-2.3203125 1.019532,-3.4921875 0.269531,-0.5390625 0.480468,-0.9375 0.796875,-0.9375 0.339843,0 0.339843,0.3632813 0.339843,0.5273438 0,1.6640625 -1.675781,3.3984375 -2.15625,3.9023437 z m 0,0"
         style="fill:#000000;fill-opacity:1;fill-rule:nonzero;stroke:none" />
    </g>
  </g>
</svg>
