<?xml version="1.0" encoding="UTF-8" standalone="no"?>
<!-- Created with Inkscape (http://www.inkscape.org/) -->

<svg
   version="1.1"
   id="svg1"
   width="315.21332"
   height="156.62666"
   viewBox="0 0 315.21332 156.62666"
   sodipodi:docname="complex-conjugate-Young-diagram.pdf"
   xmlns:inkscape="http://www.inkscape.org/namespaces/inkscape"
   xmlns:sodipodi="http://sodipodi.sourceforge.net/DTD/sodipodi-0.dtd"
   xmlns="http://www.w3.org/2000/svg"
   xmlns:svg="http://www.w3.org/2000/svg">
  <defs
     id="defs1" />
  <sodipodi:namedview
     id="namedview1"
     pagecolor="#ffffff"
     bordercolor="#000000"
     borderopacity="0.25"
     inkscape:showpageshadow="2"
     inkscape:pageopacity="0.0"
     inkscape:pagecheckerboard="0"
     inkscape:deskcolor="#d1d1d1">
    <inkscape:page
       x="0"
       y="0"
       inkscape:label="1"
       id="page1"
       width="315.21332"
       height="156.62666"
       margin="0"
       bleed="0" />
  </sodipodi:namedview>
  <g
     id="g1"
     inkscape:groupmode="layer"
     inkscape:label="1">
    <path
       id="path1"
       d="m 98.06352,-53.79895 h 23.34276 V -77.14171 H 98.06352 Z"
       style="fill:#f5a623;fill-opacity:0.2;fill-rule:nonzero;stroke:#000000;stroke-width:0.74721;stroke-linecap:butt;stroke-linejoin:miter;stroke-miterlimit:10;stroke-dasharray:none;stroke-opacity:1"
       transform="matrix(1.3333333,0,0,-1.3333333,-89.724,-71.229333)" />
    <path
       id="path2"
       d="m 121.40628,-53.79895 h 23.34277 v -23.34276 h -23.34277 z"
       style="fill:#f5a623;fill-opacity:0.2;fill-rule:nonzero;stroke:#000000;stroke-width:0.74721;stroke-linecap:butt;stroke-linejoin:miter;stroke-miterlimit:10;stroke-dasharray:none;stroke-opacity:1"
       transform="matrix(1.3333333,0,0,-1.3333333,-89.724,-71.229333)" />
    <path
       id="path3"
       d="m 144.74905,-53.79895 h 23.34278 v -23.34276 h -23.34278 z"
       style="fill:#f5a623;fill-opacity:0.2;fill-rule:nonzero;stroke:#000000;stroke-width:0.74721;stroke-linecap:butt;stroke-linejoin:miter;stroke-miterlimit:10;stroke-dasharray:none;stroke-opacity:1"
       transform="matrix(1.3333333,0,0,-1.3333333,-89.724,-71.229333)" />
    <path
       id="path4"
       d="m 98.06352,-77.14171 h 23.34276 v -23.34276 H 98.06352 Z"
       style="fill:#f5a623;fill-opacity:0.2;fill-rule:nonzero;stroke:#000000;stroke-width:0.74721;stroke-linecap:butt;stroke-linejoin:miter;stroke-miterlimit:10;stroke-dasharray:none;stroke-opacity:1"
       transform="matrix(1.3333333,0,0,-1.3333333,-89.724,-71.229333)" />
    <path
       id="path5"
       d="m 121.40628,-77.14171 h 23.34277 v -23.34276 h -23.34277 z"
       style="fill:#f5a623;fill-opacity:0.2;fill-rule:nonzero;stroke:#000000;stroke-width:0.74721;stroke-linecap:butt;stroke-linejoin:miter;stroke-miterlimit:10;stroke-dasharray:none;stroke-opacity:1"
       transform="matrix(1.3333333,0,0,-1.3333333,-89.724,-71.229333)" />
    <path
       id="path6"
       d="m 144.74905,-77.14171 h 23.34278 v -23.34276 h -23.34278 z"
       style="fill:#8b572a;fill-opacity:0.1;fill-rule:nonzero;stroke:#000000;stroke-width:0.74721;stroke-linecap:butt;stroke-linejoin:miter;stroke-miterlimit:10;stroke-dasharray:4.48325, 4.48325;stroke-dashoffset:0;stroke-opacity:0.2"
       transform="matrix(1.3333333,0,0,-1.3333333,-89.724,-71.229333)" />
    <path
       id="path7"
       d="m 98.06352,-100.48447 h 23.34276 v -23.34277 H 98.06352 Z"
       style="fill:#8b572a;fill-opacity:0.1;fill-rule:nonzero;stroke:#000000;stroke-width:0.74721;stroke-linecap:butt;stroke-linejoin:miter;stroke-miterlimit:10;stroke-dasharray:4.48325, 4.48325;stroke-dashoffset:0;stroke-opacity:0.2"
       transform="matrix(1.3333333,0,0,-1.3333333,-89.724,-71.229333)" />
    <path
       id="path8"
       d="m 98.06352,-123.82724 h 23.34276 v -23.34277 H 98.06352 Z"
       style="fill:#8b572a;fill-opacity:0.1;fill-rule:nonzero;stroke:#000000;stroke-width:0.74721;stroke-linecap:butt;stroke-linejoin:miter;stroke-miterlimit:10;stroke-dasharray:4.48325, 4.48325;stroke-dashoffset:0;stroke-opacity:0.2"
       transform="matrix(1.3333333,0,0,-1.3333333,-89.724,-71.229333)" />
    <path
       id="path9"
       d="m 121.40628,-100.48447 h 23.34277 v -23.34277 h -23.34277 z"
       style="fill:#8b572a;fill-opacity:0.1;fill-rule:nonzero;stroke:#000000;stroke-width:0.74721;stroke-linecap:butt;stroke-linejoin:miter;stroke-miterlimit:10;stroke-dasharray:4.48325, 4.48325;stroke-dashoffset:0;stroke-opacity:0.2"
       transform="matrix(1.3333333,0,0,-1.3333333,-89.724,-71.229333)" />
    <path
       id="path10"
       d="m 144.74905,-100.48447 h 23.34278 v -23.34277 h -23.34278 z"
       style="fill:#8b572a;fill-opacity:0.1;fill-rule:nonzero;stroke:#000000;stroke-width:0.74721;stroke-linecap:butt;stroke-linejoin:miter;stroke-miterlimit:10;stroke-dasharray:4.48325, 4.48325;stroke-dashoffset:0;stroke-opacity:0.2"
       transform="matrix(1.3333333,0,0,-1.3333333,-89.724,-71.229333)" />
    <path
       id="path11"
       d="m 98.06352,-147.17001 h 23.34276 v -23.35024 H 98.06352 Z"
       style="fill:#8b572a;fill-opacity:0.1;fill-rule:nonzero;stroke:#000000;stroke-width:0.74721;stroke-linecap:butt;stroke-linejoin:miter;stroke-miterlimit:10;stroke-dasharray:4.48325, 4.48325;stroke-dashoffset:0;stroke-opacity:0.2"
       transform="matrix(1.3333333,0,0,-1.3333333,-89.724,-71.229333)" />
    <path
       id="path12"
       d="m 121.40628,-123.82724 h 23.34277 v -23.34277 h -23.34277 z"
       style="fill:#8b572a;fill-opacity:0.1;fill-rule:nonzero;stroke:#000000;stroke-width:0.74721;stroke-linecap:butt;stroke-linejoin:miter;stroke-miterlimit:10;stroke-dasharray:4.48325, 4.48325;stroke-dashoffset:0;stroke-opacity:0.2"
       transform="matrix(1.3333333,0,0,-1.3333333,-89.724,-71.229333)" />
    <path
       id="path13"
       d="m 121.40628,-147.17001 h 23.34277 v -23.35024 h -23.34277 z"
       style="fill:#8b572a;fill-opacity:0.1;fill-rule:nonzero;stroke:#000000;stroke-width:0.74721;stroke-linecap:butt;stroke-linejoin:miter;stroke-miterlimit:10;stroke-dasharray:4.48325, 4.48325;stroke-dashoffset:0;stroke-opacity:0.2"
       transform="matrix(1.3333333,0,0,-1.3333333,-89.724,-71.229333)" />
    <path
       id="path14"
       d="m 144.74905,-123.82724 h 23.34278 v -23.34277 h -23.34278 z"
       style="fill:#8b572a;fill-opacity:0.1;fill-rule:nonzero;stroke:#000000;stroke-width:0.74721;stroke-linecap:butt;stroke-linejoin:miter;stroke-miterlimit:10;stroke-dasharray:4.48325, 4.48325;stroke-dashoffset:0;stroke-opacity:0.2"
       transform="matrix(1.3333333,0,0,-1.3333333,-89.724,-71.229333)" />
    <path
       id="path15"
       d="m 144.74905,-147.17001 h 23.34278 v -23.35024 h -23.34278 z"
       style="fill:#8b572a;fill-opacity:0.1;fill-rule:nonzero;stroke:#000000;stroke-width:0.74721;stroke-linecap:butt;stroke-linejoin:miter;stroke-miterlimit:10;stroke-dasharray:4.48325, 4.48325;stroke-dashoffset:0;stroke-opacity:0.2"
       transform="matrix(1.3333333,0,0,-1.3333333,-89.724,-71.229333)" />
    <path
       id="path16"
       d="m 233.3081,-53.79895 h 23.34276 V -77.14171 H 233.3081 Z"
       style="fill:#8b572a;fill-opacity:0.2;fill-rule:nonzero;stroke:#000000;stroke-width:0.74721;stroke-linecap:butt;stroke-linejoin:miter;stroke-miterlimit:10;stroke-dasharray:none;stroke-opacity:1"
       transform="matrix(1.3333333,0,0,-1.3333333,-89.724,-71.229333)" />
    <path
       id="path17"
       d="m 233.3081,-77.14171 h 23.34276 v -23.34276 H 233.3081 Z"
       style="fill:#8b572a;fill-opacity:0.2;fill-rule:nonzero;stroke:#000000;stroke-width:0.74721;stroke-linecap:butt;stroke-linejoin:miter;stroke-miterlimit:10;stroke-dasharray:none;stroke-opacity:1"
       transform="matrix(1.3333333,0,0,-1.3333333,-89.724,-71.229333)" />
    <path
       id="path18"
       d="m 256.65086,-53.79895 h 23.34278 v -23.34276 h -23.34278 z"
       style="fill:#8b572a;fill-opacity:0.2;fill-rule:nonzero;stroke:#000000;stroke-width:0.74721;stroke-linecap:butt;stroke-linejoin:miter;stroke-miterlimit:10;stroke-dasharray:none;stroke-opacity:1"
       transform="matrix(1.3333333,0,0,-1.3333333,-89.724,-71.229333)" />
    <path
       id="path19"
       d="m 279.99364,-53.79895 h 23.34277 v -23.34276 h -23.34277 z"
       style="fill:#8b572a;fill-opacity:0.2;fill-rule:nonzero;stroke:#000000;stroke-width:0.74721;stroke-linecap:butt;stroke-linejoin:miter;stroke-miterlimit:10;stroke-dasharray:none;stroke-opacity:1"
       transform="matrix(1.3333333,0,0,-1.3333333,-89.724,-71.229333)" />
    <path
       id="path20"
       d="m 233.3081,-100.48447 h 23.34276 v -23.34277 H 233.3081 Z"
       style="fill:#8b572a;fill-opacity:0.2;fill-rule:nonzero;stroke:#000000;stroke-width:0.74721;stroke-linecap:butt;stroke-linejoin:miter;stroke-miterlimit:10;stroke-dasharray:none;stroke-opacity:1"
       transform="matrix(1.3333333,0,0,-1.3333333,-89.724,-71.229333)" />
    <path
       id="path21"
       d="m 256.65086,-77.14171 h 23.34278 v -23.34276 h -23.34278 z"
       style="fill:#8b572a;fill-opacity:0.2;fill-rule:nonzero;stroke:#000000;stroke-width:0.74721;stroke-linecap:butt;stroke-linejoin:miter;stroke-miterlimit:10;stroke-dasharray:none;stroke-opacity:1"
       transform="matrix(1.3333333,0,0,-1.3333333,-89.724,-71.229333)" />
    <path
       id="path22"
       d="m 256.65086,-100.48447 h 23.34278 v -23.34277 h -23.34278 z"
       style="fill:#8b572a;fill-opacity:0.2;fill-rule:nonzero;stroke:#000000;stroke-width:0.74721;stroke-linecap:butt;stroke-linejoin:miter;stroke-miterlimit:10;stroke-dasharray:none;stroke-opacity:1"
       transform="matrix(1.3333333,0,0,-1.3333333,-89.724,-71.229333)" />
    <path
       id="path23"
       d="m 279.99364,-77.14171 h 23.34277 v -23.34276 h -23.34277 z"
       style="fill:#8b572a;fill-opacity:0.2;fill-rule:nonzero;stroke:#000000;stroke-width:0.74721;stroke-linecap:butt;stroke-linejoin:miter;stroke-miterlimit:10;stroke-dasharray:none;stroke-opacity:1"
       transform="matrix(1.3333333,0,0,-1.3333333,-89.724,-71.229333)" />
    <path
       id="path24"
       d="m 279.99364,-100.48447 h 23.34277 v -23.34277 h -23.34277 z"
       style="fill:#8b572a;fill-opacity:0.2;fill-rule:nonzero;stroke:#000000;stroke-width:0.74721;stroke-linecap:butt;stroke-linejoin:miter;stroke-miterlimit:10;stroke-dasharray:none;stroke-opacity:1"
       transform="matrix(1.3333333,0,0,-1.3333333,-89.724,-71.229333)" />
    <path
       id="path25"
       d="m 233.3081,-123.82724 h 23.34276 v -23.34277 H 233.3081 Z"
       style="fill:#8b572a;fill-opacity:0.2;fill-rule:nonzero;stroke:#000000;stroke-width:0.74721;stroke-linecap:butt;stroke-linejoin:miter;stroke-miterlimit:10;stroke-dasharray:none;stroke-opacity:1"
       transform="matrix(1.3333333,0,0,-1.3333333,-89.724,-71.229333)" />
    <path
       id="path26"
       d="m 180.62248,-100.48447 h 39.60201"
       style="fill:none;stroke:#000000;stroke-width:0.74721;stroke-linecap:butt;stroke-linejoin:miter;stroke-miterlimit:10;stroke-dasharray:none;stroke-opacity:1"
       transform="matrix(1.3333333,0,0,-1.3333333,-89.724,-71.229333)" />
    <path
       id="path27"
       d="m 215.79355,-103.68997 6.67256,3.2055 -6.67256,3.20551 z"
       style="fill:#000000;fill-opacity:1;fill-rule:nonzero;stroke:#000000;stroke-width:0.0797;stroke-linecap:butt;stroke-linejoin:miter;stroke-miterlimit:10;stroke-dasharray:none;stroke-opacity:0"
       transform="matrix(1.3333333,0,0,-1.3333333,-89.724,-71.229333)" />
    <path
       id="path28"
       d="m 185.05342,-97.27896 -6.67256,-3.20551 6.67256,-3.2055 z"
       style="fill:#000000;fill-opacity:1;fill-rule:nonzero;stroke:#000000;stroke-width:0.0797;stroke-linecap:butt;stroke-linejoin:miter;stroke-miterlimit:10;stroke-dasharray:none;stroke-opacity:0"
       transform="matrix(1.3333333,0,0,-1.3333333,-89.724,-71.229333)" />
    <g
       id="g28"
       aria-label="Y&#10;N"
       transform="matrix(1.3333333,0,0,1.3333333,6.4173333,143.97733)">
      <path
         id="path29"
         d="m 5.9418828,-5.6724531 0.140625,-0.140625 c 0.3046875,-0.2929688 0.6328125,-0.6328125 1.3125,-0.6796875 0.1054688,-0.011719 0.1992188,-0.011719 0.1992188,-0.1875 0,-0.082031 -0.058594,-0.1289063 -0.1289063,-0.1289063 -0.2578125,0 -0.5507812,0.035156 -0.8203125,0.035156 -0.328125,0 -0.6796875,-0.035156 -0.9960937,-0.035156 -0.058594,0 -0.1875,0 -0.1875,0.1992188 0,0.1054687 0.09375,0.1171875 0.1523437,0.1171875 0.070312,0 0.3515625,0.011719 0.3515625,0.2226562 0,0.1757813 -0.2226562,0.4335938 -0.2695312,0.4804688 l -2.3085938,2.6601562 -1.0898437,-2.953125 c -0.070312,-0.140625 -0.070312,-0.1640625 -0.070312,-0.1757812 0,-0.234375 0.4921875,-0.234375 0.5976562,-0.234375 0.1289063,0 0.234375,0 0.234375,-0.1992188 0,-0.1171875 -0.1171875,-0.1171875 -0.1523437,-0.1171875 -0.28125,0 -0.9726563,0.035156 -1.2539063,0.035156 -0.2460937,0 -0.86718749,-0.035156 -1.11328124,-0.035156 -0.0585937,0 -0.1875,0 -0.1875,0.1992188 0,0.1171875 0.09375,0.1171875 0.22265625,0.1171875 0.59765629,0 0.64453129,0.082031 0.72656249,0.3398437 l 1.2304688,3.2695313 c 0.011719,0.035156 0.035156,0.140625 0.035156,0.1757812 0,0.023437 -0.3984375,1.6289063 -0.4453125,1.80468752 -0.1289062,0.55078125 -0.140625,0.5859375 -0.9375,0.59765625 -0.18749999,0 -0.26953124,0 -0.26953124,0.19921875 0,0.105468755 0.11718754,0.105468755 0.14062504,0.105468755 0.28125,0 0.9726562,-0.035156255 1.2539062,-0.035156255 0.28125,0 0.9960938,0.035156255 1.2773438,0.035156255 0.070312,0 0.1875,0 0.1875,-0.199218755 0,-0.10546875 -0.082031,-0.10546875 -0.28125,-0.10546875 -0.011719,0 -0.1992188,0 -0.375,-0.0234375 -0.2109375,-0.0234375 -0.2695313,-0.0351563 -0.2695313,-0.1640625 0,-0.0703125 0.09375,-0.41015625 0.140625,-0.62109377 l 0.3515625,-1.40625 c 0.046875,-0.1875 0.058594,-0.2226562 0.140625,-0.3046875 z m 0,0"
         style="fill:#000000;fill-opacity:1;fill-rule:nonzero;stroke:none" />
      <path
         id="path30"
         d="m 11.59618,-2.51425 c 0.07031,-0.2578125 0.1875,-0.4921875 0.738281,-0.5039063 0.03516,0 0.140625,-0.011719 0.140625,-0.1523437 0,-0.046875 -0.03516,-0.09375 -0.105469,-0.09375 -0.222656,0 -0.480469,0.023437 -0.726562,0.023437 -0.164063,0 -0.5625,-0.023437 -0.738282,-0.023437 -0.03516,0 -0.140625,0 -0.140625,0.1523437 0,0.082031 0.09375,0.09375 0.164063,0.09375 0.316406,0.011719 0.445312,0.1171875 0.445312,0.28125 0,0.058594 -0.01172,0.09375 -0.03516,0.1757813 L 10.576648,0.47403125 8.8071172,-3.1470625 C 8.7485234,-3.26425 8.7368047,-3.26425 8.5727422,-3.26425 H 7.6118047 c -0.1289063,0 -0.2226563,0 -0.2226563,0.1523437 0,0.09375 0.09375,0.09375 0.234375,0.09375 0.1523438,0 0.3046875,0.011719 0.4453125,0.035156 l -0.9375,3.7265625 c -0.058594,0.2695312 -0.1757812,0.4804687 -0.7148437,0.5039062 -0.058594,0 -0.1523438,0 -0.1523438,0.140625 0,0.082031 0.058594,0.1054688 0.1054688,0.1054688 0.234375,0 0.4921875,-0.023437 0.7265625,-0.023437 0.1640625,0 0.5742187,0.023437 0.7382812,0.023437 0.070312,0 0.140625,-0.035156 0.140625,-0.140625 0,-0.1054688 -0.082031,-0.1054688 -0.1640625,-0.1054688 C 7.3774297,1.2240312 7.3774297,1.04825 7.3774297,0.9545 c 0,-0.0351563 0,-0.0703125 0.023437,-0.17578125 L 8.2914922,-2.7955 10.330555,1.376375 c 0.05859,0.1054687 0.08203,0.1171875 0.152343,0.1171875 0.117188,0 0.117188,-0.023437 0.152344,-0.140625 z m 0,0"
         style="fill:#000000;fill-opacity:1;fill-rule:nonzero;stroke:none" />
    </g>
    <path
       id="path31"
       d="m 4.1352656,-1.1827734 c 0,-0.1054688 -0.1054687,-0.1054688 -0.1289062,-0.1054688 -0.09375,0 -0.1171875,0.046875 -0.1289063,0.1054688 -0.2929687,0.92578121 -0.9375,1.04296871 -1.3125,1.04296871 -0.5273437,0 -1.40625,-0.421875 -1.40625,-2.02734371 0,-1.6289063 0.8203125,-2.0507813 1.3476563,-2.0507813 0.09375,0 0.7148437,0.011719 1.0664062,0.375 -0.4101562,0.023437 -0.46875,0.328125 -0.46875,0.4570313 0,0.2578125 0.1875,0.4570312 0.4570313,0.4570312 0.2578125,0 0.4570312,-0.1640625 0.4570312,-0.46875 0,-0.6796875 -0.75,-1.0664062 -1.5234375,-1.0664062 -1.2421875,0 -2.15624998,1.078125 -2.15624998,2.3085937 0,1.27734376 0.98437498,2.26171876 2.14453128,2.26171876 1.3359375,0 1.6523437,-1.19531246 1.6523437,-1.28906246 z m 2.1972656,0.65624996 c 0,-0.29296875 -0.234375,-0.52734376 -0.5273437,-0.52734376 -0.28125,0 -0.5273438,0.23437501 -0.5273438,0.52734376 0,0.29296875 0.2460938,0.5273437525 0.5273438,0.5273437525 0.2929687,0 0.5273437,-0.2343750025 0.5273437,-0.5273437525 z M 11.330578,-1.1827734 c 0,-0.1054688 -0.105469,-0.1054688 -0.128906,-0.1054688 -0.09375,0 -0.117188,0.046875 -0.128906,0.1054688 -0.292969,0.92578121 -0.9375,1.04296871 -1.3125004,1.04296871 -0.5273437,0 -1.40625,-0.421875 -1.40625,-2.02734371 0,-1.6289063 0.8203125,-2.0507813 1.3476563,-2.0507813 0.09375,0 0.7148441,0.011719 1.0664061,0.375 -0.410156,0.023437 -0.46875,0.328125 -0.46875,0.4570313 0,0.2578125 0.1875,0.4570312 0.457031,0.4570312 0.257813,0 0.457032,-0.1640625 0.457032,-0.46875 0,-0.6796875 -0.75,-1.0664062 -1.5234379,-1.0664062 -1.2421875,0 -2.15625,1.078125 -2.15625,2.3085937 0,1.27734376 0.984375,2.26171876 2.1445313,2.26171876 1.3359376,0 1.6523436,-1.19531246 1.6523436,-1.28906246 z m 2.197266,0.65624996 c 0,-0.29296875 -0.234375,-0.52734376 -0.527344,-0.52734376 -0.28125,0 -0.527344,0.23437501 -0.527344,0.52734376 0,0.29296875 0.246094,0.5273437525 0.527344,0.5273437525 0.292969,0 0.527344,-0.2343750025 0.527344,-0.5273437525 z m 0,0"
       style="fill:#000000;fill-opacity:1;fill-rule:nonzero;stroke:none"
       aria-label="c.c."
       transform="matrix(1.3333333,0,0,1.3333333,167.916,58.12)" />
  </g>
</svg>
