<svg width="800" height="600" viewBox="0 0 800 600" xmlns="http://www.w3.org/2000/svg">
<style>
  .fiber { fill: none; stroke-width: 4; opacity: 0.9; vector-effect: non-scaling-stroke; stroke-linecap: round; }
  @keyframes rotate { 0% { transform: rotate(0deg); } 100% { transform: rotate(360deg); } }
  @keyframes flow { 0% { stroke-dashoffset: 0; } 100% { stroke-dashoffset: -100; } }
  .scene { transform-origin: center; animation: rotate 60s linear infinite; }
  .flowing { stroke-dasharray: 10 10; animation: flow 1s linear infinite; }
</style>
<rect width="100%" height="100%" fill="#1a1a1a" />
<g class="scene" transform="translate(400.0, 300.0)">
<path d="M -210.8,2.3 -209.0,6.7 -207.2,10.9 -205.1,15.1 -203.0,19.1 -200.8,23.0 -198.4,26.8 -195.9,30.4 -193.3,34.0 -190.6,37.4 -187.9,40.7 -185.0,44.0 -182.1,47.1 -179.0,50.1 -175.9,53.0 -172.7,55.9 -169.5,58.6 -166.1,61.2 -162.7,63.8 -159.3,66.2 -155.8,68.6 -152.2,70.9 -148.6,73.1 -144.9,75.2 -141.1,77.2 -137.3,79.2 -133.5,81.0 -129.6,82.8 -125.6,84.5 -121.6,86.2 -117.6,87.7 -113.5,89.2 -109.4,90.7 -105.2,92.0 -101.0,93.3 -96.7,94.5 -92.4,95.6 -88.1,96.7 -83.7,97.6 -79.3,98.6 -74.8,99.4 -70.3,100.2 -65.7,100.9 -61.1,101.6 -56.5,102.1 -51.8,102.7 -47.1,103.1 -42.4,103.5 -37.6,103.8 -32.7,104.0 -27.9,104.2 -23.0,104.3 -18.0,104.3 -13.0,104.2 -8.0,104.1 -2.9,103.9 2.2,103.7 7.4,103.3 12.6,102.9 17.9,102.4 23.2,101.9 28.5,101.2 33.9,100.5 39.3,99.7 44.8,98.8 50.3,97.8 55.9,96.7 61.5,95.6 67.1,94.4 72.8,93.0 78.5,91.6 84.3,90.1 90.1,88.5 96.0,86.8 101.9,84.9 107.8,83.0 113.8,81.0 119.8,78.8 125.9,76.6 132.0,74.2 138.1,71.7 144.3,69.1 150.5,66.4 156.7,63.5 163.0,60.5 169.2,57.3 175.5,54.1 181.8,50.7 188.2,47.1 194.5,43.4 200.8,39.5 207.2,35.5 213.5,31.3 219.8,26.9 226.1,22.4 232.3,17.7 238.5,12.9 244.7,7.8 250.8,2.6 256.8,-2.8 Z" stroke="#0074D9" class="fiber flowing" />
<path d="M -190.5,-29.1 -188.1,-24.5 -185.6,-20.0 -183.1,-15.6 -180.5,-11.3 -177.9,-7.1 -175.1,-3.1 -172.4,0.9 -169.5,4.7 -166.6,8.5 -163.7,12.1 -160.7,15.7 -157.7,19.2 -154.6,22.5 -151.5,25.8 -148.3,29.0 -145.1,32.2 -141.8,35.2 -138.6,38.2 -135.3,41.1 -131.9,43.9 -128.5,46.6 -125.1,49.3 -121.6,51.9 -118.2,54.5 -114.6,56.9 -111.1,59.4 -107.5,61.7 -103.9,64.0 -100.2,66.2 -96.5,68.4 -92.8,70.5 -89.1,72.6 -85.3,74.6 -81.5,76.5 -77.6,78.4 -73.7,80.3 -69.8,82.0 -65.8,83.8 -61.8,85.5 -57.8,87.1 -53.7,88.7 -49.6,90.2 -45.5,91.6 -41.3,93.1 -37.0,94.4 -32.8,95.8 -28.5,97.0 -24.1,98.2 -19.7,99.4 -15.2,100.5 -10.7,101.5 -6.2,102.5 -1.5,103.5 3.1,104.4 7.8,105.2 12.6,106.0 17.4,106.7 22.3,107.4 27.3,108.0 32.3,108.5 37.3,109.0 42.5,109.4 47.7,109.7 52.9,110.0 58.3,110.2 63.7,110.3 69.2,110.4 74.7,110.3 80.4,110.2 86.1,110.0 91.9,109.7 97.8,109.4 103.8,108.9 109.8,108.3 116.0,107.7 122.2,106.9 128.5,106.0 135.0,105.0 141.5,103.9 148.1,102.6 154.8,101.3 161.6,99.7 168.5,98.1 175.6,96.3 182.7,94.3 189.9,92.1 197.3,89.8 204.7,87.3 212.2,84.6 219.9,81.7 227.6,78.6 235.4,75.3 243.3,71.7 251.4,67.9 259.5,63.8 267.6,59.5 275.9,54.9 284.2,49.9 292.5,44.7 Z" stroke="#2ECC40" class="fiber flowing" />
<path d="M -9.1,-15.8 -8.7,-11.7 -8.3,-7.6 -7.9,-3.4 -7.4,0.7 -7.0,4.9 -6.6,9.1 -6.1,13.3 -5.7,17.6 -5.2,21.9 -4.7,26.2 -4.3,30.6 -3.8,35.0 -3.3,39.5 -2.8,44.0 -2.3,48.5 -1.7,53.1 -1.2,57.8 -0.7,62.4 -0.1,67.2 0.5,72.0 1.0,76.9 1.6,81.8 2.2,86.8 2.9,91.9 3.5,97.0 4.1,102.2 4.8,107.5 5.5,112.9 6.2,118.3 6.9,123.9 7.6,129.5 8.4,135.3 9.2,141.1 10.0,147.1 10.8,153.1 11.6,159.3 12.5,165.6 13.4,172.0 14.3,178.5 15.2,185.2 16.2,192.0 17.2,198.9 18.3,206.0 19.3,213.3 20.4,220.7 21.6,228.3 22.8,236.1 24.0,244.0 25.3,252.1 26.6,260.4 27.9,268.9 29.4,277.7 30.8,286.6 32.3,295.7 33.9,305.1 35.6,314.7 37.3,324.5 39.0,334.6 40.9,344.9 42.8,355.4 44.8,366.2 46.9,377.2 49.1,388.4 51.3,399.8 53.7,411.5 56.1,423.3 58.6,435.3 61.3,447.5 64.0,459.7 66.9,472.1 69.8,484.4 72.9,496.7 76.0,508.8 79.3,520.7 82.6,532.3 86.0,543.4 89.5,553.8 93.1,563.4 96.6,572.0 100.2,579.4 103.7,585.2 107.1,589.2 110.5,591.1 113.6,590.6 116.5,587.3 119.1,580.8 121.3,570.9 123.0,557.2 124.2,539.6 124.8,517.9 124.8,492.0 124.0,462.0 122.4,428.1 120.0,390.6 116.9,350.0 113.0,306.8 108.5,261.8 103.3,215.7 97.7,169.2 Z" stroke="#FF4136" class="fiber flowing" />
<path d="M -137.5,-33.7 -139.7,-27.9 -141.7,-22.2 -143.6,-16.5 -145.4,-11.0 -147.0,-5.4 -148.4,0.0 -149.7,5.4 -150.9,10.7 -151.9,16.0 -152.8,21.2 -153.6,26.3 -154.2,31.3 -154.7,36.3 -155.0,41.1 -155.3,45.9 -155.4,50.7 -155.4,55.3 -155.2,59.9 -154.9,64.3 -154.6,68.7 -154.1,73.1 -153.4,77.3 -152.7,81.4 -151.8,85.5 -150.8,89.5 -149.8,93.4 -148.6,97.2 -147.2,100.9 -145.8,104.5 -144.3,108.1 -142.6,111.5 -140.9,114.9 -139.0,118.1 -137.1,121.3 -135.0,124.4 -132.8,127.3 -130.5,130.2 -128.2,133.0 -125.7,135.7 -123.1,138.3 -120.4,140.8 -117.6,143.2 -114.7,145.4 -111.7,147.6 -108.6,149.7 -105.4,151.7 -102.1,153.5 -98.6,155.3 -95.1,156.9 -91.5,158.4 -87.8,159.8 -84.0,161.1 -80.1,162.2 -76.1,163.3 -72.0,164.2 -67.8,165.0 -63.5,165.7 -59.1,166.2 -54.6,166.6 -50.0,166.9 -45.4,167.0 -40.6,167.0 -35.7,166.8 -30.8,166.5 -25.7,166.1 -20.6,165.5 -15.3,164.7 -10.0,163.8 -4.6,162.8 0.9,161.5 6.5,160.2 12.1,158.6 17.9,156.9 23.7,155.0 29.6,152.9 35.6,150.6 41.6,148.2 47.7,145.6 53.9,142.8 60.1,139.8 66.4,136.6 72.7,133.2 79.1,129.6 85.5,125.8 91.9,121.8 98.4,117.7 104.9,113.3 111.5,108.7 118.0,103.9 124.5,98.9 131.1,93.6 137.6,88.2 144.1,82.6 150.6,76.8 157.0,70.7 163.4,64.5 169.7,58.1 176.0,51.4 182.1,44.6 Z" stroke="#0074D9" class="fiber flowing" />
<path d="M -116.7,-42.7 -117.7,-37.1 -118.7,-31.7 -119.5,-26.2 -120.3,-20.9 -121.0,-15.5 -121.5,-10.3 -122.0,-5.1 -122.4,0.1 -122.6,5.2 -122.8,10.2 -122.9,15.2 -122.9,20.1 -122.9,25.0 -122.7,29.8 -122.5,34.5 -122.1,39.2 -121.7,43.9 -121.2,48.5 -120.6,53.0 -120.0,57.5 -119.2,62.0 -118.4,66.3 -117.5,70.7 -116.5,74.9 -115.5,79.1 -114.3,83.3 -113.1,87.4 -111.8,91.5 -110.4,95.4 -109.0,99.4 -107.5,103.3 -105.8,107.1 -104.1,110.8 -102.4,114.5 -100.5,118.2 -98.5,121.8 -96.5,125.3 -94.4,128.8 -92.2,132.2 -89.9,135.5 -87.6,138.8 -85.1,141.9 -82.6,145.1 -79.9,148.1 -77.2,151.1 -74.4,154.0 -71.5,156.9 -68.5,159.6 -65.4,162.3 -62.2,164.9 -58.9,167.4 -55.5,169.8 -52.1,172.2 -48.5,174.4 -44.8,176.5 -41.0,178.6 -37.1,180.5 -33.1,182.3 -28.9,184.0 -24.7,185.6 -20.4,187.1 -15.9,188.4 -11.3,189.6 -6.6,190.7 -1.8,191.6 3.1,192.4 8.2,193.1 13.4,193.5 18.7,193.8 24.1,193.9 29.7,193.9 35.3,193.6 41.1,193.2 47.1,192.5 53.1,191.7 59.3,190.6 65.6,189.3 72.1,187.7 78.6,185.9 85.3,183.8 92.1,181.5 99.0,178.9 106.0,176.0 113.1,172.8 120.3,169.3 127.6,165.4 135.0,161.3 142.5,156.8 150.0,151.9 157.6,146.7 165.2,141.2 172.9,135.2 180.6,128.9 188.3,122.2 196.0,115.1 203.7,107.7 211.3,99.8 218.9,91.5 226.4,82.8 Z" stroke="#2ECC40" class="fiber flowing" />
<path d="M -14.3,-24.7 -14.8,-20.2 -15.2,-15.8 -15.7,-11.3 -16.2,-6.7 -16.6,-2.2 -17.1,2.4 -17.5,7.1 -18.0,11.8 -18.4,16.5 -18.8,21.2 -19.3,26.0 -19.7,30.8 -20.1,35.7 -20.5,40.6 -20.9,45.5 -21.3,50.6 -21.6,55.6 -22.0,60.7 -22.4,65.9 -22.7,71.1 -23.1,76.3 -23.4,81.6 -23.7,87.0 -24.0,92.5 -24.4,98.0 -24.7,103.5 -24.9,109.2 -25.2,114.9 -25.5,120.6 -25.7,126.5 -26.0,132.4 -26.2,138.4 -26.4,144.4 -26.6,150.6 -26.8,156.8 -27.0,163.1 -27.2,169.5 -27.3,176.0 -27.4,182.5 -27.5,189.2 -27.6,195.9 -27.7,202.7 -27.7,209.6 -27.7,216.6 -27.7,223.7 -27.6,230.9 -27.6,238.1 -27.5,245.4 -27.3,252.9 -27.1,260.4 -26.9,267.9 -26.6,275.6 -26.3,283.3 -26.0,291.0 -25.6,298.8 -25.1,306.7 -24.6,314.6 -24.0,322.5 -23.4,330.4 -22.7,338.2 -21.9,346.1 -21.0,353.9 -20.0,361.6 -19.0,369.1 -17.9,376.6 -16.6,383.9 -15.3,390.9 -13.8,397.7 -12.2,404.1 -10.5,410.2 -8.7,415.9 -6.7,421.1 -4.6,425.7 -2.4,429.7 0.0,433.0 2.6,435.5 5.3,437.1 8.1,437.7 11.1,437.3 14.2,435.7 17.5,432.9 20.9,428.7 24.4,423.1 28.0,416.1 31.7,407.5 35.5,397.2 39.3,385.4 43.2,371.9 47.0,356.8 50.8,340.1 54.6,321.9 58.2,302.2 61.7,281.2 65.1,259.0 68.2,235.8 71.2,211.7 73.9,186.9 76.4,161.6 78.6,136.1 Z" stroke="#FF851B" class="fiber flowing" />
<path d="M -166.0,-56.2 -163.3,-51.4 -160.6,-46.7 -157.8,-42.1 -155.0,-37.7 -152.2,-33.4 -149.4,-29.1 -146.5,-25.0 -143.7,-21.0 -140.8,-17.0 -137.8,-13.2 -134.9,-9.4 -132.0,-5.7 -129.0,-2.1 -126.0,1.4 -123.0,4.9 -120.0,8.3 -116.9,11.6 -113.9,14.9 -110.8,18.1 -107.7,21.2 -104.6,24.3 -101.4,27.3 -98.3,30.3 -95.1,33.2 -91.9,36.1 -88.7,38.9 -85.5,41.7 -82.2,44.4 -78.9,47.1 -75.6,49.7 -72.3,52.3 -69.0,54.8 -65.6,57.4 -62.2,59.8 -58.7,62.2 -55.3,64.6 -51.8,67.0 -48.3,69.3 -44.7,71.6 -41.1,73.8 -37.5,76.1 -33.9,78.2 -30.2,80.4 -26.4,82.5 -22.6,84.6 -18.8,86.6 -15.0,88.6 -11.1,90.6 -7.1,92.6 -3.1,94.5 1.0,96.4 5.1,98.2 9.2,100.1 13.5,101.9 17.8,103.6 22.1,105.3 26.5,107.0 31.0,108.7 35.6,110.3 40.2,111.9 44.9,113.5 49.7,115.0 54.5,116.4 59.5,117.9 64.5,119.3 69.6,120.6 74.9,121.9 80.2,123.2 85.6,124.4 91.1,125.5 96.8,126.6 102.6,127.6 108.5,128.6 114.5,129.5 120.6,130.3 126.9,131.1 133.3,131.8 139.9,132.4 146.6,132.9 153.5,133.3 160.6,133.6 167.8,133.9 175.2,133.9 182.8,133.9 190.6,133.7 198.6,133.4 206.8,133.0 215.2,132.3 223.9,131.5 232.7,130.5 241.9,129.3 251.2,127.9 260.9,126.2 270.8,124.2 280.9,122.0 291.4,119.5 302.1,116.6 313.1,113.4 324.4,109.7 Z" stroke="#FFDC00" class="fiber flowing" />
<path d="M -96.2,-48.8 -96.4,-43.6 -96.4,-38.5 -96.5,-33.4 -96.4,-28.3 -96.3,-23.3 -96.1,-18.4 -95.9,-13.5 -95.6,-8.7 -95.3,-3.8 -94.9,0.9 -94.4,5.7 -93.9,10.3 -93.3,15.0 -92.7,19.6 -92.0,24.2 -91.3,28.7 -90.5,33.2 -89.6,37.7 -88.8,42.2 -87.8,46.6 -86.8,51.0 -85.7,55.3 -84.6,59.6 -83.5,63.9 -82.3,68.2 -81.0,72.4 -79.6,76.6 -78.3,80.8 -76.8,85.0 -75.3,89.1 -73.8,93.2 -72.1,97.3 -70.5,101.3 -68.7,105.3 -66.9,109.3 -65.0,113.3 -63.1,117.3 -61.1,121.2 -59.0,125.1 -56.9,128.9 -54.7,132.8 -52.4,136.6 -50.1,140.4 -47.7,144.1 -45.1,147.9 -42.6,151.5 -39.9,155.2 -37.1,158.8 -34.3,162.4 -31.4,166.0 -28.3,169.5 -25.2,173.0 -22.0,176.4 -18.7,179.8 -15.3,183.1 -11.7,186.4 -8.1,189.6 -4.4,192.8 -0.5,195.9 3.5,198.9 7.6,201.9 11.9,204.8 16.3,207.6 20.8,210.3 25.4,212.9 30.2,215.5 35.2,217.9 40.3,220.2 45.6,222.3 51.0,224.4 56.6,226.2 62.4,228.0 68.3,229.5 74.4,230.9 80.8,232.1 87.3,233.0 94.0,233.7 100.9,234.2 108.0,234.4 115.3,234.4 122.8,234.0 130.5,233.3 138.4,232.3 146.6,230.9 154.9,229.1 163.4,226.9 172.2,224.2 181.1,221.1 190.2,217.4 199.5,213.2 209.0,208.4 218.6,203.0 228.3,197.0 238.1,190.4 248.0,183.0 258.0,174.9 268.0,166.0 278.0,156.4 287.9,145.9 Z" stroke="#FFDC00" class="fiber flowing" />
<path d="M -19.6,-34.0 -21.1,-29.2 -22.5,-24.4 -24.0,-19.6 -25.4,-14.7 -26.8,-9.8 -28.2,-4.9 -29.6,0.1 -31.0,5.1 -32.4,10.1 -33.8,15.2 -35.2,20.3 -36.5,25.5 -37.9,30.7 -39.2,35.9 -40.5,41.2 -41.8,46.5 -43.2,51.9 -44.4,57.3 -45.7,62.8 -47.0,68.3 -48.3,73.8 -49.5,79.4 -50.7,85.0 -52.0,90.7 -53.2,96.4 -54.3,102.1 -55.5,107.9 -56.7,113.8 -57.8,119.7 -58.9,125.6 -60.0,131.6 -61.1,137.6 -62.1,143.6 -63.1,149.7 -64.1,155.9 -65.1,162.0 -66.1,168.2 -67.0,174.4 -67.8,180.7 -68.7,187.0 -69.5,193.3 -70.3,199.6 -71.0,206.0 -71.7,212.3 -72.3,218.7 -72.9,225.1 -73.4,231.4 -73.9,237.8 -74.3,244.1 -74.6,250.4 -74.9,256.6 -75.1,262.8 -75.2,268.9 -75.2,275.0 -75.2,281.0 -75.0,286.9 -74.8,292.6 -74.4,298.2 -74.0,303.7 -73.4,309.0 -72.7,314.1 -71.9,319.0 -70.9,323.6 -69.8,328.0 -68.6,332.0 -67.2,335.8 -65.6,339.2 -63.9,342.2 -61.9,344.8 -59.9,347.0 -57.6,348.7 -55.1,349.8 -52.5,350.4 -49.6,350.4 -46.6,349.8 -43.4,348.6 -39.9,346.6 -36.3,343.9 -32.4,340.5 -28.4,336.3 -24.2,331.3 -19.8,325.5 -15.3,318.9 -10.6,311.4 -5.7,303.1 -0.7,294.0 4.3,284.1 9.5,273.3 14.8,261.8 20.0,249.5 25.4,236.5 30.7,222.9 36.0,208.6 41.2,193.9 46.4,178.6 51.5,162.9 56.4,146.9 61.2,130.6 65.9,114.1 Z" stroke="#FFDC00" class="fiber flowing" />
<path d="M -26.8,-46.4 -29.6,-41.4 -32.4,-36.3 -35.2,-31.1 -38.0,-25.9 -40.8,-20.7 -43.5,-15.4 -46.3,-10.1 -49.0,-4.8 -51.7,0.6 -54.3,6.0 -57.0,11.5 -59.6,17.0 -62.2,22.5 -64.8,28.1 -67.3,33.6 -69.8,39.3 -72.3,44.9 -74.8,50.6 -77.2,56.3 -79.6,62.0 -81.9,67.7 -84.3,73.4 -86.5,79.2 -88.8,85.0 -91.0,90.8 -93.1,96.6 -95.2,102.4 -97.3,108.2 -99.3,114.0 -101.3,119.8 -103.2,125.6 -105.0,131.4 -106.8,137.1 -108.5,142.9 -110.1,148.6 -111.7,154.3 -113.2,160.0 -114.7,165.6 -116.0,171.2 -117.3,176.7 -118.5,182.2 -119.6,187.6 -120.6,193.0 -121.5,198.2 -122.3,203.4 -123.0,208.5 -123.5,213.5 -124.0,218.4 -124.3,223.2 -124.6,227.8 -124.7,232.3 -124.6,236.7 -124.4,240.9 -124.1,244.9 -123.7,248.8 -123.0,252.4 -122.3,255.9 -121.3,259.1 -120.2,262.1 -118.9,264.9 -117.5,267.4 -115.9,269.7 -114.1,271.6 -112.1,273.3 -109.9,274.7 -107.6,275.7 -105.0,276.4 -102.3,276.8 -99.3,276.8 -96.2,276.4 -92.8,275.7 -89.3,274.6 -85.6,273.0 -81.7,271.1 -77.6,268.7 -73.3,266.0 -68.9,262.8 -64.2,259.1 -59.5,255.1 -54.5,250.6 -49.4,245.7 -44.1,240.3 -38.8,234.5 -33.3,228.3 -27.6,221.7 -21.9,214.7 -16.1,207.3 -10.3,199.5 -4.3,191.4 1.6,182.9 7.6,174.1 13.6,165.0 19.6,155.6 25.6,146.0 31.6,136.1 37.5,126.0 43.3,115.7 49.1,105.3 54.7,94.8 Z" stroke="#2ECC40" class="fiber flowing" />
<path d="M -79.8,-51.9 -79.3,-47.1 -78.8,-42.3 -78.3,-37.6 -77.7,-32.9 -77.0,-28.3 -76.4,-23.7 -75.6,-19.1 -74.9,-14.6 -74.1,-10.1 -73.3,-5.6 -72.4,-1.1 -71.5,3.3 -70.6,7.7 -69.6,12.0 -68.6,16.4 -67.6,20.7 -66.5,25.0 -65.4,29.3 -64.2,33.6 -63.1,37.8 -61.8,42.0 -60.6,46.3 -59.3,50.5 -57.9,54.6 -56.5,58.8 -55.1,63.0 -53.6,67.2 -52.1,71.3 -50.6,75.5 -49.0,79.6 -47.4,83.7 -45.7,87.9 -43.9,92.0 -42.1,96.1 -40.3,100.3 -38.4,104.4 -36.5,108.5 -34.5,112.7 -32.4,116.8 -30.3,120.9 -28.2,125.1 -25.9,129.2 -23.6,133.4 -21.3,137.5 -18.8,141.7 -16.3,145.8 -13.7,150.0 -11.1,154.2 -8.3,158.3 -5.5,162.5 -2.6,166.7 0.4,170.9 3.5,175.1 6.7,179.3 10.0,183.5 13.4,187.7 16.9,191.9 20.5,196.1 24.2,200.3 28.1,204.4 32.1,208.6 36.3,212.8 40.5,216.9 45.0,221.1 49.6,225.2 54.3,229.3 59.2,233.3 64.3,237.3 69.6,241.3 75.1,245.2 80.8,249.0 86.7,252.8 92.8,256.5 99.2,260.1 105.8,263.5 112.6,266.9 119.7,270.1 127.1,273.1 134.8,276.0 142.8,278.6 151.1,281.1 159.6,283.2 168.6,285.1 177.8,286.6 187.4,287.7 197.4,288.5 207.7,288.8 218.4,288.5 229.5,287.7 240.9,286.3 252.7,284.2 264.8,281.3 277.3,277.5 290.1,272.9 303.2,267.2 316.6,260.4 330.1,252.5 343.9,243.3 357.7,232.6 Z" stroke="#FF851B" class="fiber flowing" />
<path d="M -143.4,-74.7 -140.7,-70.0 -137.9,-65.3 -135.2,-60.7 -132.4,-56.3 -129.6,-51.9 -126.9,-47.6 -124.1,-43.5 -121.3,-39.4 -118.5,-35.4 -115.7,-31.5 -113.0,-27.6 -110.2,-23.8 -107.4,-20.1 -104.6,-16.5 -101.8,-12.9 -99.0,-9.4 -96.1,-5.9 -93.3,-2.5 -90.5,0.8 -87.6,4.1 -84.8,7.4 -81.9,10.6 -79.1,13.8 -76.2,16.9 -73.3,20.0 -70.4,23.0 -67.5,26.0 -64.5,29.0 -61.6,31.9 -58.6,34.8 -55.6,37.7 -52.6,40.6 -49.6,43.4 -46.5,46.2 -43.5,48.9 -40.4,51.6 -37.2,54.4 -34.1,57.0 -30.9,59.7 -27.7,62.4 -24.5,65.0 -21.2,67.6 -17.9,70.2 -14.5,72.8 -11.1,75.3 -7.7,77.9 -4.3,80.4 -0.8,82.9 2.8,85.4 6.4,87.9 10.1,90.3 13.8,92.8 17.5,95.3 21.4,97.7 25.2,100.1 29.2,102.5 33.2,104.9 37.3,107.3 41.4,109.7 45.7,112.1 50.0,114.5 54.4,116.8 58.8,119.2 63.4,121.5 68.1,123.8 72.8,126.1 77.7,128.5 82.7,130.7 87.8,133.0 93.0,135.3 98.3,137.5 103.8,139.8 109.4,142.0 115.2,144.2 121.1,146.3 127.2,148.5 133.5,150.6 139.9,152.7 146.5,154.8 153.4,156.8 160.4,158.8 167.7,160.7 175.2,162.6 182.9,164.4 190.9,166.2 199.2,167.9 207.8,169.5 216.6,171.0 225.8,172.5 235.4,173.8 245.3,175.0 255.6,176.0 266.3,176.9 277.5,177.6 289.1,178.1 301.2,178.4 313.8,178.4 327.0,178.1 340.7,177.5 Z" stroke="#FF851B" class="fiber flowing" />
<path d="M 48.7,26.4 49.5,30.3 50.2,34.3 51.0,38.4 51.7,42.5 52.4,46.7 53.1,51.1 53.7,55.4 54.4,59.9 55.0,64.5 55.7,69.2 56.3,74.0 56.9,78.9 57.4,84.0 58.0,89.1 58.5,94.4 59.0,99.8 59.5,105.4 59.9,111.1 60.3,117.0 60.7,123.0 61.1,129.3 61.4,135.7 61.6,142.3 61.9,149.1 62.1,156.1 62.2,163.4 62.3,170.9 62.3,178.6 62.2,186.7 62.1,195.0 61.9,203.6 61.7,212.5 61.3,221.8 60.8,231.4 60.3,241.4 59.6,251.8 58.7,262.7 57.7,274.0 56.6,285.8 55.3,298.0 53.7,310.8 52.0,324.2 50.0,338.2 47.8,352.9 45.2,368.2 42.3,384.2 39.1,401.0 35.4,418.6 31.3,437.0 26.6,456.3 21.4,476.5 15.6,497.7 9.1,519.9 1.7,543.0 -6.5,567.2 -15.6,592.4 -25.9,618.6 -37.3,645.7 -50.0,673.6 -64.2,702.3 -79.9,731.5 -97.3,761.0 -116.5,790.5 -137.5,819.4 -160.5,847.4 -185.4,873.7 -212.2,897.5 -240.7,918.0 -270.7,934.1 -301.9,944.7 -333.6,948.8 -365.3,945.5 -396.2,933.7 -425.4,913.0 -452.2,883.1 -475.7,844.4 -495.2,797.4 -510.2,743.2 -520.3,683.4 -525.6,619.6 -526.1,553.5 -522.3,486.8 -514.6,421.1 -503.6,357.6 -490.0,297.2 -474.4,240.7 -457.3,188.5 -439.3,140.8 -420.8,97.5 -402.1,58.7 -383.5,24.0 -365.3,-6.8 -347.5,-33.9 -330.3,-57.8 -313.8,-78.7 -298.0,-97.0 -282.9,-112.8 -268.6,-126.5 -255.0,-138.3 Z" stroke="#FF4136" class="fiber flowing" />
<path d="M -34.8,-60.4 -39.3,-55.1 -43.7,-49.8 -48.1,-44.4 -52.4,-39.0 -56.7,-33.5 -61.0,-28.0 -65.3,-22.4 -69.5,-16.8 -73.6,-11.2 -77.7,-5.5 -81.8,0.2 -85.7,5.9 -89.7,11.7 -93.5,17.4 -97.4,23.2 -101.1,29.0 -104.8,34.8 -108.4,40.6 -111.9,46.4 -115.3,52.1 -118.6,57.9 -121.9,63.7 -125.1,69.4 -128.2,75.1 -131.1,80.8 -134.0,86.5 -136.8,92.1 -139.5,97.6 -142.0,103.2 -144.4,108.6 -146.8,114.0 -149.0,119.4 -151.0,124.6 -153.0,129.8 -154.8,134.9 -156.5,140.0 -158.0,144.9 -159.4,149.7 -160.7,154.5 -161.8,159.1 -162.7,163.6 -163.5,168.0 -164.2,172.2 -164.7,176.3 -165.0,180.3 -165.1,184.1 -165.1,187.8 -164.9,191.3 -164.6,194.7 -164.0,197.9 -163.3,200.9 -162.4,203.7 -161.4,206.3 -160.1,208.8 -158.7,211.0 -157.1,213.0 -155.3,214.9 -153.3,216.5 -151.1,217.9 -148.8,219.0 -146.2,220.0 -143.5,220.7 -140.6,221.1 -137.6,221.3 -134.3,221.3 -130.9,221.0 -127.3,220.5 -123.5,219.7 -119.6,218.7 -115.4,217.4 -111.2,215.9 -106.8,214.1 -102.2,212.0 -97.5,209.7 -92.6,207.1 -87.7,204.3 -82.5,201.3 -77.3,197.9 -72.0,194.4 -66.5,190.6 -60.9,186.5 -55.3,182.3 -49.6,177.7 -43.7,173.0 -37.9,168.1 -31.9,162.9 -25.9,157.6 -19.9,152.0 -13.8,146.3 -7.8,140.4 -1.7,134.3 4.4,128.0 10.5,121.6 16.6,115.1 22.7,108.4 28.7,101.6 34.7,94.7 40.6,87.7 46.5,80.6 Z" stroke="#0074D9" class="fiber flowing" />
<path d="M -118.0,-90.7 -115.4,-86.1 -112.7,-81.6 -110.1,-77.1 -107.4,-72.8 -104.8,-68.5 -102.2,-64.3 -99.6,-60.2 -97.0,-56.2 -94.5,-52.3 -91.9,-48.4 -89.3,-44.5 -86.8,-40.8 -84.2,-37.1 -81.7,-33.4 -79.1,-29.8 -76.6,-26.3 -74.1,-22.8 -71.5,-19.3 -69.0,-15.9 -66.5,-12.5 -63.9,-9.1 -61.4,-5.8 -58.8,-2.6 -56.3,0.7 -53.7,3.9 -51.2,7.1 -48.6,10.2 -46.0,13.4 -43.4,16.5 -40.8,19.6 -38.2,22.7 -35.5,25.7 -32.9,28.8 -30.2,31.8 -27.5,34.8 -24.8,37.8 -22.1,40.8 -19.4,43.8 -16.6,46.7 -13.8,49.7 -11.0,52.7 -8.1,55.6 -5.2,58.6 -2.3,61.5 0.6,64.5 3.6,67.5 6.6,70.4 9.7,73.4 12.8,76.3 15.9,79.3 19.1,82.3 22.3,85.3 25.6,88.3 29.0,91.3 32.4,94.3 35.8,97.4 39.3,100.4 42.9,103.5 46.6,106.6 50.3,109.7 54.1,112.8 58.0,116.0 61.9,119.1 66.0,122.3 70.1,125.5 74.4,128.8 78.7,132.1 83.2,135.4 87.7,138.7 92.4,142.1 97.2,145.5 102.2,149.0 107.3,152.5 112.5,156.0 117.9,159.6 123.5,163.2 129.3,166.9 135.2,170.6 141.4,174.4 147.7,178.2 154.3,182.0 161.2,186.0 168.3,189.9 175.7,193.9 183.3,198.0 191.3,202.2 199.7,206.4 208.4,210.6 217.5,214.9 227.0,219.3 237.0,223.7 247.5,228.1 258.5,232.6 270.1,237.2 282.3,241.8 295.2,246.4 308.8,251.0 323.2,255.6 338.6,260.2 Z" stroke="#FF4136" class="fiber flowing" />
<path d="M -63.0,-53.7 -61.9,-49.3 -60.9,-45.0 -59.8,-40.7 -58.7,-36.4 -57.6,-32.2 -56.5,-28.0 -55.3,-23.9 -54.2,-19.7 -53.0,-15.6 -51.8,-11.5 -50.5,-7.4 -49.3,-3.3 -48.0,0.7 -46.7,4.7 -45.4,8.8 -44.1,12.8 -42.7,16.8 -41.3,20.8 -39.9,24.8 -38.5,28.8 -37.0,32.8 -35.5,36.7 -34.0,40.7 -32.5,44.7 -30.9,48.7 -29.3,52.7 -27.7,56.7 -26.0,60.7 -24.3,64.7 -22.6,68.8 -20.8,72.8 -19.0,76.9 -17.2,81.0 -15.3,85.1 -13.4,89.2 -11.4,93.3 -9.4,97.5 -7.4,101.7 -5.3,105.9 -3.1,110.1 -0.9,114.4 1.3,118.7 3.6,123.0 6.0,127.4 8.4,131.8 10.9,136.3 13.5,140.8 16.1,145.3 18.8,149.9 21.6,154.5 24.4,159.2 27.4,163.9 30.4,168.7 33.5,173.5 36.8,178.4 40.1,183.4 43.5,188.4 47.1,193.5 50.7,198.6 54.5,203.8 58.5,209.1 62.5,214.4 66.8,219.9 71.1,225.4 75.7,230.9 80.4,236.6 85.3,242.3 90.4,248.1 95.7,254.0 101.3,260.0 107.0,266.0 113.1,272.1 119.4,278.3 125.9,284.6 132.8,290.9 140.0,297.3 147.5,303.7 155.4,310.2 163.7,316.7 172.4,323.3 181.5,329.8 191.1,336.4 201.2,342.9 211.8,349.3 223.0,355.6 234.8,361.8 247.2,367.8 260.2,373.5 274.0,378.9 288.6,384.0 303.9,388.5 320.0,392.4 337.0,395.7 354.8,398.0 373.5,399.3 393.1,399.3 413.6,397.9 434.9,394.7 457.0,389.5 Z" stroke="#FF4136" class="fiber flowing" />
<path d="M 56.7,8.0 56.6,11.9 56.5,15.8 56.3,19.9 56.1,24.0 55.8,28.3 55.5,32.6 55.2,37.1 54.8,41.6 54.4,46.2 53.8,51.0 53.3,55.9 52.7,60.9 52.0,66.0 51.2,71.3 50.4,76.6 49.5,82.2 48.6,87.9 47.5,93.7 46.4,99.7 45.2,105.9 43.9,112.2 42.5,118.7 41.0,125.5 39.3,132.4 37.6,139.5 35.7,146.8 33.7,154.4 31.5,162.2 29.2,170.2 26.8,178.5 24.1,187.1 21.3,195.9 18.3,205.0 15.1,214.4 11.7,224.1 8.0,234.2 4.1,244.5 -0.1,255.2 -4.6,266.2 -9.4,277.6 -14.5,289.3 -19.9,301.4 -25.7,313.9 -31.9,326.7 -38.5,339.9 -45.5,353.5 -53.0,367.4 -61.0,381.7 -69.5,396.3 -78.5,411.1 -88.0,426.2 -98.1,441.6 -108.8,457.0 -120.1,472.6 -132.1,488.2 -144.6,503.6 -157.7,518.9 -171.4,533.8 -185.7,548.2 -200.4,561.9 -215.7,574.8 -231.3,586.6 -247.1,597.1 -263.2,606.0 -279.2,613.1 -295.2,618.3 -310.8,621.1 -325.9,621.5 -340.3,619.2 -353.8,614.1 -366.1,606.0 -377.2,595.0 -386.7,581.0 -394.6,564.2 -400.8,544.6 -405.1,522.6 -407.5,498.3 -408.1,472.1 -406.8,444.4 -403.7,415.5 -399.0,385.7 -392.8,355.5 -385.3,325.3 -376.6,295.2 -366.9,265.6 -356.4,236.7 -345.2,208.8 -333.5,181.9 -321.5,156.2 -309.3,131.8 -296.9,108.7 -284.6,87.0 -272.3,66.7 -260.2,47.7 -248.4,30.0 -236.7,13.6 -225.4,-1.6 -214.4,-15.7 -203.7,-28.6 Z" stroke="#FF851B" class="fiber flowing" />
<path d="M 63.9,-12.2 62.9,-8.4 61.8,-4.6 60.6,-0.6 59.4,3.5 58.1,7.6 56.7,11.9 55.3,16.2 53.7,20.7 52.1,25.3 50.4,30.0 48.6,34.8 46.7,39.8 44.7,44.9 42.5,50.1 40.3,55.4 38.0,60.9 35.5,66.5 32.9,72.3 30.2,78.2 27.4,84.3 24.4,90.5 21.3,96.9 18.0,103.5 14.6,110.3 11.0,117.2 7.2,124.3 3.2,131.6 -0.9,139.1 -5.2,146.8 -9.7,154.6 -14.5,162.7 -19.4,171.0 -24.6,179.4 -30.0,188.1 -35.7,196.9 -41.6,206.0 -47.8,215.2 -54.2,224.7 -60.9,234.3 -67.8,244.1 -75.1,254.1 -82.6,264.2 -90.4,274.4 -98.5,284.7 -106.9,295.2 -115.6,305.7 -124.6,316.2 -133.8,326.8 -143.3,337.3 -153.0,347.7 -163.0,358.0 -173.2,368.1 -183.5,377.9 -194.0,387.5 -204.6,396.6 -215.3,405.3 -226.0,413.5 -236.6,421.0 -247.2,427.8 -257.6,433.9 -267.7,439.0 -277.5,443.2 -287.0,446.4 -295.9,448.4 -304.4,449.3 -312.2,448.9 -319.3,447.2 -325.6,444.2 -331.1,439.9 -335.7,434.2 -339.3,427.2 -342.0,418.9 -343.7,409.3 -344.4,398.6 -344.1,386.7 -342.7,373.9 -340.5,360.1 -337.2,345.6 -333.1,330.3 -328.2,314.5 -322.5,298.3 -316.0,281.7 -309.0,265.0 -301.4,248.1 -293.3,231.2 -284.8,214.4 -276.0,197.8 -266.8,181.5 -257.5,165.5 -248.1,149.8 -238.5,134.6 -228.9,119.9 -219.3,105.6 -209.7,91.8 -200.2,78.6 -190.9,66.0 -181.6,53.8 -172.6,42.3 -163.7,31.3 Z" stroke="#FFDC00" class="fiber flowing" />
<path d="M 72.0,-40.5 69.6,-37.0 67.2,-33.4 64.7,-29.7 62.0,-25.9 59.3,-21.9 56.4,-17.9 53.4,-13.7 50.2,-9.4 47.0,-5.1 43.6,-0.5 40.1,4.1 36.5,8.9 32.7,13.7 28.8,18.8 24.7,23.9 20.5,29.2 16.2,34.6 11.7,40.1 7.1,45.8 2.2,51.6 -2.7,57.5 -7.8,63.6 -13.1,69.8 -18.6,76.1 -24.2,82.6 -30.0,89.2 -35.9,95.9 -42.1,102.8 -48.3,109.7 -54.8,116.8 -61.4,124.0 -68.2,131.3 -75.1,138.7 -82.2,146.2 -89.4,153.8 -96.8,161.4 -104.3,169.1 -112.0,176.8 -119.7,184.5 -127.6,192.3 -135.6,200.1 -143.6,207.8 -151.7,215.5 -159.8,223.1 -168.0,230.6 -176.2,238.0 -184.3,245.2 -192.4,252.3 -200.4,259.1 -208.3,265.8 -216.1,272.1 -223.8,278.2 -231.2,283.9 -238.4,289.3 -245.4,294.2 -252.0,298.8 -258.4,302.8 -264.3,306.4 -269.9,309.5 -275.1,312.0 -279.8,313.9 -284.0,315.3 -287.7,316.1 -290.9,316.2 -293.5,315.7 -295.6,314.6 -297.1,312.9 -298.0,310.6 -298.3,307.6 -298.0,304.0 -297.2,299.9 -295.7,295.1 -293.7,289.9 -291.1,284.1 -288.0,277.8 -284.4,271.1 -280.3,264.0 -275.8,256.4 -270.8,248.6 -265.4,240.4 -259.6,232.0 -253.5,223.3 -247.0,214.4 -240.3,205.4 -233.4,196.2 -226.2,187.0 -218.9,177.7 -211.4,168.4 -203.8,159.1 -196.1,149.8 -188.3,140.6 -180.5,131.4 -172.6,122.4 -164.8,113.4 -156.9,104.6 -149.2,96.0 -141.4,87.5 -133.8,79.2 -126.2,71.0 Z" stroke="#2ECC40" class="fiber flowing" />
<path d="M 79.1,-73.2 75.2,-70.1 71.2,-66.8 67.0,-63.5 62.7,-60.0 58.3,-56.3 53.7,-52.6 49.0,-48.7 44.1,-44.7 39.1,-40.6 33.9,-36.3 28.6,-31.9 23.1,-27.4 17.5,-22.8 11.8,-18.0 5.9,-13.1 -0.1,-8.1 -6.3,-2.9 -12.6,2.3 -19.0,7.7 -25.5,13.2 -32.2,18.8 -39.0,24.5 -45.9,30.3 -52.9,36.2 -60.0,42.2 -67.2,48.3 -74.4,54.5 -81.8,60.7 -89.1,67.0 -96.6,73.4 -104.1,79.7 -111.6,86.2 -119.1,92.6 -126.6,99.1 -134.2,105.6 -141.7,112.0 -149.1,118.5 -156.5,124.9 -163.8,131.2 -171.0,137.5 -178.1,143.7 -185.1,149.8 -191.9,155.8 -198.5,161.7 -205.0,167.4 -211.2,172.9 -217.3,178.3 -223.1,183.5 -228.6,188.4 -233.8,193.2 -238.8,197.6 -243.4,201.9 -247.7,205.9 -251.7,209.6 -255.3,212.9 -258.5,216.0 -261.4,218.8 -263.9,221.3 -265.9,223.4 -267.6,225.2 -268.9,226.6 -269.8,227.7 -270.2,228.5 -270.3,228.9 -269.9,228.9 -269.1,228.7 -268.0,228.0 -266.4,227.1 -264.5,225.8 -262.2,224.2 -259.5,222.3 -256.5,220.0 -253.1,217.5 -249.4,214.7 -245.4,211.6 -241.2,208.3 -236.6,204.7 -231.8,200.9 -226.7,196.9 -221.4,192.6 -215.9,188.2 -210.2,183.6 -204.3,178.8 -198.2,173.9 -192.0,168.9 -185.7,163.7 -179.3,158.4 -172.8,153.1 -166.2,147.6 -159.5,142.1 -152.7,136.5 -146.0,130.9 -139.2,125.2 -132.3,119.5 -125.5,113.8 -118.7,108.1 -111.9,102.4 -105.1,96.7 -98.4,91.1 Z" stroke="#0074D9" class="fiber flowing" />
<path d="M 183.5,-68.5 182.8,-68.5 181.9,-68.4 180.8,-68.2 179.5,-67.9 178.0,-67.6 176.2,-67.2 174.1,-66.7 171.8,-66.1 169.2,-65.5 166.4,-64.7 163.2,-63.8 159.7,-62.8 155.9,-61.7 151.7,-60.5 147.2,-59.1 142.4,-57.6 137.1,-56.0 131.5,-54.3 125.5,-52.4 119.0,-50.3 112.2,-48.1 104.9,-45.8 97.1,-43.3 88.9,-40.6 80.3,-37.8 71.2,-34.8 61.7,-31.6 51.6,-28.3 41.2,-24.8 30.2,-21.1 18.8,-17.2 7.0,-13.2 -5.2,-9.0 -17.8,-4.7 -30.9,-0.2 -44.2,4.4 -57.9,9.2 -71.9,14.1 -86.1,19.1 -100.5,24.1 -115.1,29.3 -129.8,34.5 -144.5,39.8 -159.2,45.1 -173.9,50.3 -188.4,55.6 -202.7,60.8 -216.8,65.9 -230.5,71.0 -243.8,75.9 -256.7,80.7 -269.1,85.4 -281.0,89.8 -292.2,94.1 -302.8,98.2 -312.6,102.0 -321.8,105.6 -330.2,108.9 -337.8,112.0 -344.6,114.8 -350.6,117.3 -355.8,119.5 -360.2,121.5 -363.8,123.2 -366.6,124.6 -368.6,125.7 -369.9,126.6 -370.5,127.2 -370.3,127.5 -369.6,127.6 -368.1,127.5 -366.1,127.2 -363.6,126.7 -360.5,125.9 -356.9,125.0 -352.8,123.9 -348.4,122.7 -343.5,121.3 -338.4,119.8 -332.9,118.1 -327.1,116.3 -321.0,114.5 -314.8,112.5 -308.3,110.5 -301.6,108.4 -294.8,106.2 -287.9,103.9 -280.9,101.7 -273.7,99.3 -266.5,97.0 -259.3,94.6 -252.0,92.2 -244.6,89.7 -237.3,87.3 -229.9,84.8 -222.6,82.3 -215.3,79.9 -208.0,77.4 -200.7,74.9 Z" stroke="#0074D9" class="fiber flowing" />
<path d="M 172.1,-23.9 172.7,-22.8 173.2,-21.7 173.5,-20.4 173.7,-19.2 173.7,-17.8 173.5,-16.4 173.1,-14.8 172.5,-13.2 171.8,-11.6 170.8,-9.8 169.5,-7.9 168.0,-5.9 166.3,-3.9 164.2,-1.7 161.8,0.6 159.2,3.1 156.1,5.6 152.7,8.3 148.9,11.1 144.7,14.0 140.0,17.1 134.8,20.3 129.2,23.7 123.0,27.3 116.3,31.0 108.9,34.9 101.0,38.9 92.4,43.1 83.1,47.5 73.1,52.1 62.4,56.8 50.9,61.7 38.6,66.8 25.5,72.1 11.6,77.4 -3.2,83.0 -18.7,88.6 -35.1,94.4 -52.4,100.2 -70.4,106.1 -89.1,112.0 -108.5,118.0 -128.6,123.9 -149.3,129.7 -170.4,135.4 -191.8,141.0 -213.5,146.4 -235.4,151.5 -257.1,156.4 -278.7,160.9 -300.0,165.0 -320.7,168.7 -340.8,171.9 -360.0,174.6 -378.3,176.8 -395.4,178.5 -411.3,179.6 -425.8,180.1 -438.9,180.1 -450.5,179.6 -460.5,178.5 -468.9,176.9 -475.8,174.8 -481.1,172.3 -484.8,169.4 -487.1,166.1 -487.9,162.5 -487.4,158.5 -485.7,154.4 -482.7,150.0 -478.8,145.5 -473.8,140.8 -468.0,136.0 -461.4,131.1 -454.0,126.3 -446.1,121.3 -437.7,116.5 -428.8,111.6 -419.6,106.8 -410.1,102.0 -400.3,97.3 -390.3,92.7 -380.2,88.2 -370.1,83.8 -359.8,79.5 -349.6,75.3 -339.3,71.3 -329.1,67.3 -319.0,63.4 -308.9,59.7 -299.0,56.1 -289.1,52.6 -279.4,49.2 -269.8,45.9 -260.4,42.8 -251.1,39.7 -242.0,36.8 -233.0,33.9 -224.2,31.1 Z" stroke="#2ECC40" class="fiber flowing" />
<path d="M 155.4,18.0 157.0,20.3 158.5,22.6 159.9,25.0 161.3,27.5 162.5,30.1 163.7,32.8 164.7,35.6 165.7,38.5 166.5,41.5 167.2,44.6 167.8,47.9 168.2,51.3 168.4,54.8 168.5,58.5 168.3,62.3 168.0,66.3 167.4,70.5 166.5,74.8 165.3,79.4 163.9,84.1 162.1,89.0 159.9,94.2 157.3,99.6 154.2,105.3 150.7,111.2 146.6,117.3 141.9,123.8 136.5,130.5 130.5,137.6 123.6,144.9 115.9,152.6 107.2,160.6 97.6,169.0 86.8,177.6 74.8,186.7 61.5,196.0 46.8,205.7 30.5,215.7 12.7,225.9 -6.9,236.4 -28.2,247.0 -51.5,257.8 -76.7,268.6 -103.8,279.4 -133.0,290.0 -164.1,300.4 -197.1,310.3 -231.8,319.5 -268.0,328.0 -305.5,335.5 -343.8,341.8 -382.6,346.8 -421.4,350.2 -459.7,351.9 -496.8,351.8 -532.3,349.8 -565.4,345.8 -595.8,339.8 -622.9,332.0 -646.4,322.5 -666.0,311.4 -681.6,299.0 -693.1,285.4 -700.6,270.9 -704.3,255.8 -704.4,240.2 -701.3,224.5 -695.1,208.8 -686.4,193.2 -675.5,178.0 -662.7,163.3 -648.4,149.1 -632.8,135.5 -616.4,122.5 -599.2,110.2 -581.5,98.6 -563.6,87.7 -545.6,77.5 -527.5,67.9 -509.6,59.0 -491.9,50.7 -474.5,42.9 -457.4,35.7 -440.7,29.0 -424.4,22.8 -408.6,17.1 -393.2,11.8 -378.2,6.8 -363.7,2.3 -349.7,-2.0 -336.1,-5.9 -322.9,-9.5 -310.2,-12.8 -297.9,-15.9 -286.0,-18.7 -274.5,-21.4 -263.4,-23.8 -252.7,-26.0 -242.3,-28.1 Z" stroke="#FFDC00" class="fiber flowing" />
<path d="M 252.2,-44.2 255.6,-47.3 258.9,-50.5 262.0,-53.8 265.0,-57.1 267.8,-60.6 270.4,-64.1 272.7,-67.6 274.9,-71.3 276.8,-75.0 278.4,-78.8 279.8,-82.6 280.8,-86.6 281.5,-90.5 281.8,-94.6 281.7,-98.6 281.3,-102.8 280.4,-106.9 279.0,-111.1 277.1,-115.3 274.7,-119.6 271.7,-123.8 268.1,-128.0 263.9,-132.2 259.1,-136.3 253.6,-140.4 247.4,-144.4 240.4,-148.4 232.7,-152.2 224.2,-155.8 214.9,-159.4 204.8,-162.7 193.9,-165.8 182.2,-168.7 169.7,-171.3 156.4,-173.7 142.4,-175.7 127.6,-177.5 112.1,-178.8 95.9,-179.8 79.2,-180.4 61.9,-180.6 44.1,-180.4 26.0,-179.7 7.6,-178.6 -11.1,-177.1 -29.9,-175.1 -48.7,-172.7 -67.4,-169.8 -86.0,-166.6 -104.3,-163.0 -122.2,-159.0 -139.7,-154.6 -156.6,-150.0 -173.0,-145.0 -188.7,-139.8 -203.6,-134.4 -217.8,-128.8 -231.1,-123.0 -243.6,-117.2 -255.2,-111.2 -265.9,-105.1 -275.7,-99.1 -284.6,-93.0 -292.6,-86.9 -299.7,-80.9 -306.0,-75.0 -311.4,-69.1 -316.1,-63.3 -320.0,-57.7 -323.1,-52.2 -325.5,-46.8 -327.3,-41.6 -328.4,-36.5 -328.9,-31.6 -328.9,-26.8 -328.4,-22.2 -327.3,-17.8 -325.9,-13.6 -324.0,-9.5 -321.7,-5.6 -319.1,-1.9 -316.1,1.7 -312.9,5.1 -309.3,8.4 -305.6,11.5 -301.6,14.5 -297.4,17.3 -293.0,20.0 -288.4,22.5 -283.7,25.0 -278.9,27.2 -273.9,29.4 -268.9,31.5 -263.7,33.4 -258.5,35.2 -253.2,36.9 -247.9,38.5 -242.5,40.1 -237.0,41.5 Z" stroke="#0074D9" class="fiber flowing" />
<path d="M 138.3,49.3 140.4,52.5 142.5,55.7 144.6,59.1 146.6,62.5 148.7,66.1 150.7,69.8 152.6,73.7 154.5,77.6 156.4,81.8 158.2,86.0 160.0,90.5 161.7,95.1 163.4,99.9 164.9,104.9 166.4,110.1 167.7,115.6 169.0,121.2 170.1,127.2 171.1,133.4 171.9,139.9 172.6,146.7 173.0,153.9 173.2,161.4 173.1,169.3 172.7,177.6 171.9,186.3 170.8,195.6 169.2,205.3 167.1,215.6 164.4,226.5 161.1,238.1 157.0,250.3 152.0,263.2 146.0,277.0 139.0,291.6 130.6,307.1 120.7,323.5 109.2,341.0 95.8,359.5 80.1,379.1 62.0,399.9 41.0,421.9 16.8,445.0 -11.0,469.2 -42.9,494.5 -79.3,520.6 -120.7,547.4 -167.5,574.5 -220.0,601.5 -278.4,627.7 -342.7,652.5 -412.7,675.0 -487.7,694.0 -566.5,708.4 -647.6,717.1 -729.0,718.9 -808.1,713.1 -882.3,698.9 -948.9,676.5 -1005.5,646.1 -1050.4,608.9 -1082.5,566.1 -1101.5,519.3 -1108.1,470.2 -1103.2,420.4 -1088.6,371.2 -1065.9,323.9 -1037.0,279.1 -1003.4,237.5 -966.7,199.2 -928.0,164.5 -888.5,133.2 -849.0,105.1 -809.9,80.2 -771.7,58.1 -734.8,38.6 -699.4,21.4 -665.5,6.2 -633.2,-7.0 -602.5,-18.7 -573.4,-28.8 -545.8,-37.7 -519.8,-45.5 -495.1,-52.2 -471.9,-58.1 -449.8,-63.2 -429.0,-67.6 -409.3,-71.5 -390.6,-74.7 -373.0,-77.5 -356.2,-79.9 -340.3,-82.0 -325.2,-83.6 -310.9,-85.0 -297.2,-86.2 -284.2,-87.1 -271.8,-87.8 -260.0,-88.3 -248.7,-88.7 Z" stroke="#FF851B" class="fiber flowing" />
<path d="M 117.6,78.5 120.1,82.4 122.6,86.5 125.2,90.7 127.7,95.0 130.3,99.4 132.9,104.0 135.5,108.8 138.1,113.7 140.8,118.8 143.5,124.1 146.2,129.6 148.9,135.3 151.7,141.2 154.4,147.4 157.2,153.8 160.0,160.5 162.8,167.5 165.7,174.9 168.5,182.6 171.3,190.7 174.2,199.2 177.0,208.1 179.8,217.5 182.6,227.5 185.3,238.1 188.0,249.2 190.5,261.1 193.0,273.7 195.4,287.2 197.6,301.6 199.6,317.0 201.4,333.6 202.9,351.4 204.0,370.6 204.6,391.4 204.6,414.0 204.0,438.7 202.5,465.6 199.9,495.0 195.9,527.5 190.3,563.4 182.6,603.1 172.3,647.4 158.8,696.9 141.1,752.6 118.1,815.4 88.4,886.6 50.0,967.6 0.4,1060.2 -63.7,1166.2 -146.6,1287.7 -254.0,1426.8 -392.8,1584.9 -571.5,1762.2 -799.2,1956.0 -1083.7,2158.3 -1427.3,2352.4 -1819.7,2510.5 -2230.4,2595.2 -2606.9,2569.4 -2887.2,2414.4 -3026.2,2145.0 -3016.7,1805.9 -2887.9,1450.4 -2685.1,1119.7 -2450.2,835.5 -2212.4,603.2 -1988.3,419.0 -1785.3,275.5 -1605.5,164.6 -1448.0,79.3 -1310.6,13.7 -1191.1,-36.7 -1086.7,-75.4 -995.5,-105.1 -915.3,-128.0 -844.6,-145.4 -782.0,-158.6 -726.2,-168.6 -676.4,-175.9 -631.7,-181.2 -591.3,-184.9 -554.8,-187.3 -521.6,-188.6 -491.3,-189.1 -463.6,-188.9 -438.1,-188.2 -414.7,-187.0 -393.1,-185.5 -373.0,-183.7 -354.4,-181.7 -337.0,-179.6 -320.8,-177.2 -305.6,-174.8 -291.4,-172.3 -278.1,-169.7 -265.5,-167.1 -253.6,-164.5 -242.4,-161.8 Z" stroke="#FF4136" class="fiber flowing" />
<path d="M 257.5,5.0 262.7,3.0 267.7,0.9 272.8,-1.4 277.8,-3.7 282.7,-6.2 287.6,-8.8 292.4,-11.5 297.1,-14.4 301.7,-17.4 306.1,-20.6 310.3,-23.9 314.4,-27.5 318.3,-31.2 321.9,-35.1 325.2,-39.2 328.2,-43.5 330.8,-48.1 333.0,-52.8 334.8,-57.8 336.0,-63.1 336.7,-68.6 336.7,-74.3 336.0,-80.3 334.5,-86.5 332.1,-93.0 328.8,-99.8 324.4,-106.8 319.0,-114.0 312.2,-121.4 304.2,-129.0 294.8,-136.8 283.9,-144.7 271.4,-152.7 257.3,-160.8 241.5,-168.8 224.0,-176.8 204.7,-184.6 183.8,-192.1 161.2,-199.4 137.0,-206.3 111.4,-212.7 84.4,-218.6 56.3,-223.8 27.3,-228.3 -2.5,-232.0 -32.6,-234.9 -62.9,-236.8 -93.0,-237.9 -122.7,-238.1 -151.7,-237.3 -179.7,-235.7 -206.5,-233.2 -231.8,-229.9 -255.6,-225.8 -277.6,-221.1 -297.9,-215.8 -316.2,-210.0 -332.7,-203.7 -347.2,-197.1 -359.9,-190.2 -370.8,-183.1 -379.9,-175.9 -387.4,-168.6 -393.3,-161.2 -397.8,-153.9 -401.0,-146.7 -402.9,-139.6 -403.8,-132.6 -403.6,-125.7 -402.5,-119.0 -400.6,-112.5 -398.0,-106.2 -394.7,-100.1 -390.9,-94.3 -386.5,-88.6 -381.8,-83.1 -376.6,-77.9 -371.2,-72.8 -365.5,-68.0 -359.5,-63.3 -353.4,-58.9 -347.0,-54.6 -340.6,-50.5 -334.1,-46.6 -327.5,-42.9 -320.8,-39.3 -314.1,-35.9 -307.4,-32.6 -300.6,-29.4 -293.9,-26.4 -287.2,-23.5 -280.5,-20.8 -273.8,-18.2 -267.2,-15.6 -260.6,-13.2 -254.1,-10.9 -247.6,-8.7 -241.2,-6.6 -234.8,-4.5 Z" stroke="#2ECC40" class="fiber flowing" />
<path d="M 251.3,59.1 257.8,59.1 264.3,59.0 271.0,58.8 277.8,58.5 284.7,58.1 291.7,57.6 298.8,57.0 306.0,56.3 313.3,55.4 320.8,54.4 328.3,53.2 335.9,51.9 343.5,50.3 351.3,48.6 359.0,46.5 366.8,44.2 374.6,41.6 382.3,38.7 389.9,35.4 397.4,31.6 404.6,27.4 411.6,22.7 418.3,17.5 424.5,11.6 430.0,5.0 434.9,-2.4 438.9,-10.6 441.8,-19.7 443.3,-29.8 443.3,-41.1 441.4,-53.5 437.4,-67.2 430.7,-82.2 421.1,-98.7 408.2,-116.6 391.4,-136.0 370.5,-156.8 344.9,-178.9 314.4,-202.1 278.8,-226.2 237.9,-250.9 192.1,-275.8 141.5,-300.3 86.9,-324.0 29.1,-346.1 -30.8,-366.2 -91.6,-383.7 -152.0,-398.1 -210.5,-409.3 -266.1,-416.9 -317.6,-421.1 -364.2,-421.9 -405.4,-419.6 -440.9,-414.5 -470.7,-407.0 -495.0,-397.6 -514.0,-386.6 -528.2,-374.5 -538.1,-361.5 -544.2,-347.9 -547.0,-334.2 -546.9,-320.3 -544.5,-306.5 -540.1,-293.0 -534.1,-279.8 -526.7,-267.0 -518.3,-254.6 -509.1,-242.7 -499.3,-231.3 -489.0,-220.4 -478.4,-210.0 -467.6,-200.1 -456.7,-190.7 -445.7,-181.6 -434.8,-173.1 -423.9,-164.9 -413.1,-157.2 -402.4,-149.8 -391.9,-142.8 -381.6,-136.1 -371.5,-129.7 -361.6,-123.6 -351.8,-117.8 -342.3,-112.3 -333.0,-107.0 -323.9,-101.9 -315.0,-97.1 -306.3,-92.5 -297.8,-88.1 -289.5,-83.8 -281.4,-79.8 -273.5,-75.9 -265.7,-72.1 -258.1,-68.5 -250.7,-65.0 -243.5,-61.7 -236.4,-58.5 -229.5,-55.4 -222.7,-52.4 Z" stroke="#FFDC00" class="fiber flowing" />
<path d="M 235.8,104.7 242.8,106.7 250.0,108.8 257.4,110.8 265.1,112.8 273.0,114.9 281.1,117.0 289.5,119.1 298.2,121.1 307.2,123.2 316.6,125.3 326.2,127.3 336.3,129.4 346.7,131.3 357.5,133.3 368.8,135.2 380.5,137.0 392.7,138.7 405.4,140.2 418.6,141.6 432.3,142.8 446.7,143.8 461.6,144.4 477.1,144.7 493.3,144.5 510.0,143.7 527.4,142.2 545.3,139.9 563.7,136.4 582.4,131.7 601.4,125.3 620.4,117.0 638.9,106.1 656.6,92.2 672.7,74.5 686.3,52.2 696.0,24.2 700.3,-10.8 696.7,-54.1 682.4,-107.2 654.0,-171.6 607.5,-248.3 538.7,-337.6 444.2,-438.5 322.4,-547.8 175.0,-659.9 7.6,-767.3 -169.7,-861.3 -344.3,-934.3 -503.7,-981.6 -638.4,-1002.2 -743.5,-998.6 -818.5,-975.7 -866.3,-939.0 -891.2,-893.7 -898.4,-843.9 -892.5,-792.7 -877.2,-742.3 -855.6,-693.9 -830.1,-648.2 -802.3,-605.7 -773.5,-566.4 -744.4,-530.2 -715.7,-496.9 -687.7,-466.4 -660.6,-438.4 -634.6,-412.7 -609.7,-389.1 -586.0,-367.4 -563.4,-347.4 -541.9,-328.9 -521.5,-311.8 -502.1,-295.9 -483.7,-281.1 -466.2,-267.4 -449.5,-254.6 -433.6,-242.6 -418.5,-231.4 -404.1,-220.9 -390.4,-211.1 -377.2,-201.8 -364.7,-193.0 -352.6,-184.7 -341.1,-176.8 -330.1,-169.4 -319.5,-162.4 -309.3,-155.7 -299.5,-149.3 -290.0,-143.2 -280.9,-137.4 -272.1,-131.8 -263.7,-126.5 -255.5,-121.4 -247.5,-116.5 -239.8,-111.9 -232.4,-107.3 -225.2,-103.0 -218.2,-98.8 -211.4,-94.8 -204.7,-90.9 Z" stroke="#FF851B" class="fiber flowing" />
<path d="M 209.0,150.6 215.8,154.9 222.9,159.4 230.3,164.0 237.9,168.8 245.9,173.7 254.3,178.9 263.0,184.2 272.1,189.7 281.6,195.5 291.7,201.5 302.2,207.8 313.4,214.4 325.1,221.3 337.6,228.6 350.8,236.2 364.8,244.2 379.8,252.7 395.9,261.7 413.1,271.2 431.7,281.4 451.7,292.2 473.5,303.7 497.3,316.1 523.3,329.5 552.0,344.0 583.9,359.7 619.4,376.9 659.5,395.7 705.0,416.6 757.4,439.9 818.3,466.0 890.4,495.7 977.3,530.1 1084.5,570.3 1221.0,618.8 1401.9,678.9 1655.5,757.2 2042.0,867.1 2716.4,1042.1 4238.3,1402.2 11441.8,2976.3 -11365.3,-1821.0 -3207.8,-25.5 -1571.6,397.8 -811.9,654.6 -318.6,883.6 85.9,1137.9 493.3,1466.1 994.6,1948.7 1764.1,2778.9 3371.1,4627.8 10214.4,12743.5 -15631.0,-18168.9 -4891.3,-5382.8 -3017.0,-3178.2 -2224.5,-2261.0 -1781.1,-1756.9 -1494.7,-1437.3 -1292.9,-1216.3 -1142.1,-1053.9 -1024.5,-929.5 -929.8,-830.9 -851.7,-750.9 -786.0,-684.5 -729.8,-628.5 -681.1,-580.5 -638.4,-539.0 -600.6,-502.7 -566.9,-470.6 -536.6,-442.0 -509.2,-416.4 -484.2,-393.3 -461.3,-372.4 -440.3,-353.3 -420.9,-335.8 -403.0,-319.6 -386.3,-304.8 -370.7,-291.0 -356.1,-278.1 -342.4,-266.2 -329.5,-255.0 -317.3,-244.5 -305.8,-234.6 -294.9,-225.2 -284.6,-216.4 -274.7,-208.1 -265.4,-200.2 -256.4,-192.7 -247.8,-185.5 -239.6,-178.7 -231.8,-172.2 -224.2,-165.9 -217.0,-159.9 -210.0,-154.2 -203.2,-148.7 -196.7,-143.4 -190.4,-138.3 -184.3,-133.3 -178.4,-128.6 Z" stroke="#FF4136" class="fiber flowing" />
</g>
</svg>