<?xml version="1.0" encoding="UTF-8" standalone="no"?>
<!-- Created with Inkscape (http://www.inkscape.org/) -->

<svg
   version="1.1"
   id="svg1"
   width="441.78668"
   height="198.90668"
   viewBox="0 0 441.78668 198.90668"
   sodipodi:docname="R(Z6)-2.pdf"
   xmlns:inkscape="http://www.inkscape.org/namespaces/inkscape"
   xmlns:sodipodi="http://sodipodi.sourceforge.net/DTD/sodipodi-0.dtd"
   xmlns="http://www.w3.org/2000/svg"
   xmlns:svg="http://www.w3.org/2000/svg">
  <defs
     id="defs1" />
  <sodipodi:namedview
     id="namedview1"
     pagecolor="#ffffff"
     bordercolor="#000000"
     borderopacity="0.25"
     inkscape:showpageshadow="2"
     inkscape:pageopacity="0.0"
     inkscape:pagecheckerboard="0"
     inkscape:deskcolor="#d1d1d1">
    <inkscape:page
       x="0"
       y="0"
       inkscape:label="1"
       id="page1"
       width="441.78668"
       height="198.90668"
       margin="0"
       bleed="0" />
  </sodipodi:namedview>
  <g
     id="g1"
     inkscape:groupmode="layer"
     inkscape:label="1">
    <path
       id="path1"
       d="m 299.4268,-114.266 -45.61024,-26.32874 -45.61025,26.32874 v 52.66717 l 45.61025,26.33359 45.61024,-26.33359 z"
       style="fill:none;stroke:#9b9b9b;stroke-width:0.74721;stroke-linecap:butt;stroke-linejoin:miter;stroke-miterlimit:10;stroke-dasharray:none;stroke-opacity:0.2"
       transform="matrix(1.3333333,0,0,-1.3333333,-5.188,-30.782667)" />
    <path
       id="path2"
       d="m 34.01703,-87.84985 c 0,29.13597 23.61864,52.75945 52.75461,52.75945 29.13597,0 52.75461,-23.62348 52.75461,-52.75945 0,-29.13111 -23.61864,-52.75461 -52.75461,-52.75461 -29.13597,0 -52.75461,23.6235 -52.75461,52.75461 z"
       style="fill:#f5a623;fill-opacity:0.1;fill-rule:nonzero;stroke:#f5a623;stroke-width:1.49442;stroke-linecap:butt;stroke-linejoin:miter;stroke-miterlimit:10;stroke-dasharray:none;stroke-opacity:1"
       transform="matrix(1.3333333,0,0,-1.3333333,-5.188,-30.782667)" />
    <path
       id="path3"
       d="m 132.3819,-114.17859 -45.61026,-26.33359 -45.61024,26.33359 v 52.66234 l 45.61024,26.33357 45.61026,-26.33357 z"
       style="fill:none;stroke:#9b9b9b;stroke-width:0.74721;stroke-linecap:butt;stroke-linejoin:miter;stroke-miterlimit:10;stroke-dasharray:none;stroke-opacity:0.2"
       transform="matrix(1.3333333,0,0,-1.3333333,-5.188,-30.782667)" />
    <path
       id="path4"
       d="m 306.44003,-87.72844 c 0,-29.06311 -23.56035,-52.62346 -52.62347,-52.62346 -29.06311,0 -52.62346,23.56035 -52.62346,52.62346 h 52.62346 z"
       style="fill:none;stroke:#000000;stroke-width:0.74721;stroke-linecap:butt;stroke-linejoin:miter;stroke-miterlimit:10;stroke-dasharray:4.48325, 4.48325;stroke-dashoffset:0;stroke-opacity:0"
       transform="matrix(1.3333333,0,0,-1.3333333,-5.188,-30.782667)" />
    <path
       id="path5"
       d="m 306.44003,-87.72844 c 0,-29.06311 -23.56035,-52.62346 -52.62347,-52.62346 -29.06311,0 -52.62346,23.56035 -52.62346,52.62346"
       style="fill:none;stroke:#f5a623;stroke-width:0.74721;stroke-linecap:butt;stroke-linejoin:miter;stroke-miterlimit:10;stroke-dasharray:4.48325, 4.48325;stroke-dashoffset:0;stroke-opacity:0.3"
       transform="matrix(1.3333333,0,0,-1.3333333,-5.188,-30.782667)" />
    <path
       id="path6"
       d="m 200.88712,-87.72844 c 0,0 0,0 0,0 0,29.10198 23.5895,52.69632 52.69632,52.69632 29.10196,0 52.69631,-23.59434 52.69631,-52.69632 h -52.69631 z"
       style="fill:#f5a623;fill-opacity:0.1;fill-rule:nonzero;stroke:#000000;stroke-width:1.49442;stroke-linecap:butt;stroke-linejoin:miter;stroke-miterlimit:10;stroke-dasharray:none;stroke-opacity:0"
       transform="matrix(1.3333333,0,0,-1.3333333,-5.188,-30.782667)" />
    <path
       id="path7"
       d="m 200.88712,-87.72844 c 0,0 0,0 0,0 0,29.10198 23.5895,52.69632 52.69632,52.69632 29.10196,0 52.69631,-23.59434 52.69631,-52.69632"
       style="fill:none;stroke:#f5a623;stroke-width:1.49442;stroke-linecap:butt;stroke-linejoin:miter;stroke-miterlimit:10;stroke-dasharray:none;stroke-opacity:1"
       transform="matrix(1.3333333,0,0,-1.3333333,-5.188,-30.782667)" />
    <path
       id="path8"
       d="m 87.03877,-35.09525 c 28.93683,-0.15055 52.34662,-23.65748 52.34662,-52.62832 0,-29.06798 -23.5652,-52.63318 -52.63318,-52.63318 -29.06796,0 -52.63318,23.5652 -52.63318,52.63318 0,29.06796 23.56522,52.63317 52.63318,52.63317 0.0049,0 0.01457,0 0.01943,0 l -0.01943,-52.63317 z"
       style="fill:none;stroke:#000000;stroke-width:1.49442;stroke-linecap:butt;stroke-linejoin:miter;stroke-miterlimit:10;stroke-dasharray:none;stroke-opacity:0"
       transform="matrix(1.3333333,0,0,-1.3333333,-5.188,-30.782667)" />
    <path
       id="path9"
       d="m 87.03877,-35.09525 c 28.93683,-0.15055 52.34662,-23.65748 52.34662,-52.62832 0,-29.06798 -23.5652,-52.63318 -52.63318,-52.63318 -29.06796,0 -52.63318,23.5652 -52.63318,52.63318 0,29.06796 23.56522,52.63317 52.63318,52.63317 0.0049,0 0.01457,0 0.01943,0"
       style="fill:none;stroke:#9013fe;stroke-width:1.49442;stroke-linecap:butt;stroke-linejoin:miter;stroke-miterlimit:10;stroke-dasharray:none;stroke-opacity:1"
       transform="matrix(1.3333333,0,0,-1.3333333,-5.188,-30.782667)" />
    <path
       id="path10"
       d="m 33.99762,-87.72357 c 0,1.59788 23.61864,2.8898 52.75459,2.8898 29.13597,0 52.75461,-1.29192 52.75461,-2.8898 0,-1.5979 -23.61864,-2.8898 -52.75461,-2.8898 -29.13595,0 -52.75459,1.2919 -52.75459,2.8898 z"
       style="fill:none;stroke:#f5a623;stroke-width:0.74721;stroke-linecap:butt;stroke-linejoin:miter;stroke-miterlimit:10;stroke-dasharray:none;stroke-opacity:1"
       transform="matrix(1.3333333,0,0,-1.3333333,-5.188,-30.782667)" />
    <path
       id="path11"
       d="m 85.53801,-34.96898 c 0,0.67026 0.54396,1.2142 1.2142,1.2142 0.67026,0 1.21421,-0.54394 1.21421,-1.2142 0,-0.67024 -0.54395,-1.2142 -1.21421,-1.2142 -0.67024,0 -1.2142,0.54396 -1.2142,1.2142 z"
       style="fill:#000000;fill-opacity:1;fill-rule:nonzero;stroke:#000000;stroke-width:0.74721;stroke-linecap:butt;stroke-linejoin:miter;stroke-miterlimit:10;stroke-dasharray:none;stroke-opacity:1"
       transform="matrix(1.3333333,0,0,-1.3333333,-5.188,-30.782667)" />
    <path
       id="path12"
       d="m 85.53801,-87.72357 c 0,0.67024 0.54396,1.2142 1.2142,1.2142 0.67026,0 1.21421,-0.54396 1.21421,-1.2142 0,-0.67026 -0.54395,-1.21422 -1.21421,-1.21422 -0.67024,0 -1.2142,0.54396 -1.2142,1.21422 z"
       style="fill:#9b9b9b;fill-opacity:1;fill-rule:nonzero;stroke:#9b9b9b;stroke-width:0.74721;stroke-linecap:butt;stroke-linejoin:miter;stroke-miterlimit:10;stroke-dasharray:none;stroke-opacity:1"
       transform="matrix(1.3333333,0,0,-1.3333333,-5.188,-30.782667)" />
    <path
       id="path13"
       d="m 85.05234,-34.96898 c 0,0.93736 0.76251,1.69988 1.69987,1.69988 0.93737,0 1.69989,-0.76252 1.69989,-1.69988 0,-0.93736 -0.76252,-1.69987 -1.69989,-1.69987 -0.93736,0 -1.69987,0.76251 -1.69987,1.69987 z"
       style="fill:#9013fe;fill-opacity:1;fill-rule:nonzero;stroke:#9013fe;stroke-width:0.74721;stroke-linecap:butt;stroke-linejoin:miter;stroke-miterlimit:10;stroke-dasharray:none;stroke-opacity:1"
       transform="matrix(1.3333333,0,0,-1.3333333,-5.188,-30.782667)" />
    <path
       id="path14"
       d="m 139.50682,-87.72357 c 0,0 0,0 0,0 0,-1.5979 -23.61864,-2.8898 -52.75461,-2.8898 -29.13595,0 -52.75459,1.2919 -52.75459,2.8898 h 52.75459 z"
       style="fill:none;stroke:#000000;stroke-width:0.74721;stroke-linecap:butt;stroke-linejoin:miter;stroke-miterlimit:10;stroke-dasharray:none;stroke-opacity:0"
       transform="matrix(1.3333333,0,0,-1.3333333,-5.188,-30.782667)" />
    <path
       id="path15"
       d="m 139.50682,-87.72357 c 0,0 0,0 0,0 0,-1.5979 -23.61864,-2.8898 -52.75461,-2.8898 -29.13595,0 -52.75459,1.2919 -52.75459,2.8898"
       style="fill:none;stroke:#f5a623;stroke-width:0.74721;stroke-linecap:butt;stroke-linejoin:miter;stroke-miterlimit:10;stroke-dasharray:none;stroke-opacity:1"
       transform="matrix(1.3333333,0,0,-1.3333333,-5.188,-30.782667)" />
    <path
       id="path16"
       d="m 306.5129,-87.72844 c 0,0 0,0 0,0 0,0 0,0 0,0 0,-1.6076 -23.59437,-2.91408 -52.69634,-2.91408 -29.10684,0 -52.69632,1.30648 -52.69632,2.91408 h 52.69632 z"
       style="fill:#f5a623;fill-opacity:0.1;fill-rule:nonzero;stroke:#000000;stroke-width:1.49442;stroke-linecap:butt;stroke-linejoin:miter;stroke-miterlimit:10;stroke-dasharray:none;stroke-opacity:0"
       transform="matrix(1.3333333,0,0,-1.3333333,-5.188,-30.782667)" />
    <path
       id="path17"
       d="m 306.5129,-87.72844 c 0,0 0,0 0,0 0,0 0,0 0,0 0,-1.6076 -23.59437,-2.91408 -52.69634,-2.91408 -29.10684,0 -52.69632,1.30648 -52.69632,2.91408"
       style="fill:none;stroke:#f5a623;stroke-width:1.49442;stroke-linecap:butt;stroke-linejoin:miter;stroke-miterlimit:10;stroke-dasharray:none;stroke-opacity:1"
       transform="matrix(1.3333333,0,0,-1.3333333,-5.188,-30.782667)" />
    <path
       id="path18"
       d="m 201.12024,-87.72844 c 0,1.61246 23.58948,2.91409 52.69632,2.91409 29.10197,0 52.69634,-1.30163 52.69634,-2.91409 0,-1.6076 -23.59437,-2.91408 -52.69634,-2.91408 -29.10684,0 -52.69632,1.30648 -52.69632,2.91408 z"
       style="fill:none;stroke:#f5a623;stroke-width:0.74721;stroke-linecap:butt;stroke-linejoin:miter;stroke-miterlimit:10;stroke-dasharray:4.48325, 4.48325;stroke-dashoffset:0;stroke-opacity:0.5"
       transform="matrix(1.3333333,0,0,-1.3333333,-5.188,-30.782667)" />
    <path
       id="path19"
       d="m 201.18336,-87.72844 c 0,29.06798 23.56524,52.63319 52.6332,52.63319 28.75714,0 52.13295,-23.06982 52.62347,-51.71525 l -52.62347,-0.91794 z"
       style="fill:none;stroke:#000000;stroke-width:1.49442;stroke-linecap:butt;stroke-linejoin:miter;stroke-miterlimit:10;stroke-dasharray:none;stroke-opacity:0"
       transform="matrix(1.3333333,0,0,-1.3333333,-5.188,-30.782667)" />
    <path
       id="path20"
       d="m 201.18336,-87.72844 c 0,29.06798 23.56524,52.63319 52.6332,52.63319 28.75714,0 52.13295,-23.06982 52.62347,-51.71525"
       style="fill:none;stroke:#9013fe;stroke-width:1.49442;stroke-linecap:butt;stroke-linejoin:miter;stroke-miterlimit:10;stroke-dasharray:none;stroke-opacity:1"
       transform="matrix(1.3333333,0,0,-1.3333333,-5.188,-30.782667)" />
    <path
       id="path21"
       d="m 252.6655,-87.72844 c 0,0.67024 0.54397,1.2142 1.21418,1.2142 0.67025,0 1.21422,-0.54396 1.21422,-1.2142 0,-0.67024 -0.54397,-1.21419 -1.21422,-1.21419 -0.67021,0 -1.21418,0.54395 -1.21418,1.21419 z"
       style="fill:#9b9b9b;fill-opacity:1;fill-rule:nonzero;stroke:#9b9b9b;stroke-width:0.74721;stroke-linecap:butt;stroke-linejoin:miter;stroke-miterlimit:10;stroke-dasharray:none;stroke-opacity:1"
       transform="matrix(1.3333333,0,0,-1.3333333,-5.188,-30.782667)" />
    <path
       id="path22"
       d="m 252.11668,-35.26524 c 0,0.93737 0.75766,1.69989 1.69988,1.69989 0.93736,0 1.69987,-0.76252 1.69987,-1.69989 0,-0.93735 -0.76251,-1.69986 -1.69987,-1.69986 -0.94222,0 -1.69988,0.76251 -1.69988,1.69986 z"
       style="fill:#9013fe;fill-opacity:1;fill-rule:nonzero;stroke:#9013fe;stroke-width:0.74721;stroke-linecap:butt;stroke-linejoin:miter;stroke-miterlimit:10;stroke-dasharray:none;stroke-opacity:1"
       transform="matrix(1.3333333,0,0,-1.3333333,-5.188,-30.782667)" />
    <path
       id="path23"
       d="m 130.68202,-114.17859 c 0,0.93736 0.75765,1.69989 1.69988,1.69989 0.93736,0 1.69987,-0.76253 1.69987,-1.69989 0,-0.94221 -0.76251,-1.69987 -1.69987,-1.69987 -0.94223,0 -1.69988,0.75766 -1.69988,1.69987 z"
       style="fill:#9013fe;fill-opacity:1;fill-rule:nonzero;stroke:#9013fe;stroke-width:0.74721;stroke-linecap:butt;stroke-linejoin:miter;stroke-miterlimit:10;stroke-dasharray:none;stroke-opacity:1"
       transform="matrix(1.3333333,0,0,-1.3333333,-5.188,-30.782667)" />
    <path
       id="path24"
       d="m 39.46152,-114.17859 c 0,0.93736 0.76252,1.69989 1.69988,1.69989 0.93735,0 1.69988,-0.76253 1.69988,-1.69989 0,-0.94221 -0.76253,-1.69987 -1.69988,-1.69987 -0.93736,0 -1.69988,0.75766 -1.69988,1.69987 z"
       style="fill:#9013fe;fill-opacity:1;fill-rule:nonzero;stroke:#9013fe;stroke-width:0.74721;stroke-linecap:butt;stroke-linejoin:miter;stroke-miterlimit:10;stroke-dasharray:none;stroke-opacity:1"
       transform="matrix(1.3333333,0,0,-1.3333333,-5.188,-30.782667)" />
    <path
       id="path25"
       d="m 297.80948,-114.18346 c 0,0.93738 0.76254,1.69989 1.69989,1.69989 0.93738,0 1.69989,-0.76251 1.69989,-1.69989 0,-0.93734 -0.76251,-1.69986 -1.69989,-1.69986 -0.93735,0 -1.69989,0.76252 -1.69989,1.69986 z"
       style="fill:#9013fe;fill-opacity:0.2;fill-rule:nonzero;stroke:#9013fe;stroke-width:0.74721;stroke-linecap:butt;stroke-linejoin:miter;stroke-miterlimit:10;stroke-dasharray:none;stroke-opacity:0.2"
       transform="matrix(1.3333333,0,0,-1.3333333,-5.188,-30.782667)" />
    <path
       id="path26"
       d="m 206.55014,-61.27342 c 0,0.94222 0.76253,1.69989 1.69989,1.69989 0.94222,0 1.69987,-0.75767 1.69987,-1.69989 0,-0.93735 -0.75765,-1.69989 -1.69987,-1.69989 -0.93736,0 -1.69989,0.76254 -1.69989,1.69989 z"
       style="fill:#9013fe;fill-opacity:1;fill-rule:nonzero;stroke:#9013fe;stroke-width:0.74721;stroke-linecap:butt;stroke-linejoin:miter;stroke-miterlimit:10;stroke-dasharray:none;stroke-opacity:1"
       transform="matrix(1.3333333,0,0,-1.3333333,-5.188,-30.782667)" />
    <path
       id="path27"
       d="m 206.29274,-114.18346 c 0,0.93738 0.75764,1.69989 1.69989,1.69989 0.93735,0 1.69986,-0.76251 1.69986,-1.69989 0,-0.93734 -0.76251,-1.69986 -1.69986,-1.69986 -0.94225,0 -1.69989,0.76252 -1.69989,1.69986 z"
       style="fill:#9013fe;fill-opacity:0.2;fill-rule:nonzero;stroke:#9013fe;stroke-width:0.74721;stroke-linecap:butt;stroke-linejoin:miter;stroke-miterlimit:10;stroke-dasharray:none;stroke-opacity:0.2"
       transform="matrix(1.3333333,0,0,-1.3333333,-5.188,-30.782667)" />
    <path
       id="path28"
       d="m 297.77065,-61.27342 c 0,0.94222 0.76249,1.69989 1.69987,1.69989 0.94221,0 1.69988,-0.75767 1.69988,-1.69989 0,-0.93735 -0.75767,-1.69989 -1.69988,-1.69989 -0.93738,0 -1.69987,0.76254 -1.69987,1.69989 z"
       style="fill:#9013fe;fill-opacity:1;fill-rule:nonzero;stroke:#9013fe;stroke-width:0.74721;stroke-linecap:butt;stroke-linejoin:miter;stroke-miterlimit:10;stroke-dasharray:none;stroke-opacity:1"
       transform="matrix(1.3333333,0,0,-1.3333333,-5.188,-30.782667)" />
    <g
       id="g28"
       aria-label="SU(2)⊂R&#10;4"
       transform="matrix(1.3333333,0,0,1.3333333,84.376,194.188)">
      <path
         id="path29"
         d="m 6.421125,-6.9261563 c 0,-0.023437 -0.011719,-0.09375 -0.1054687,-0.09375 -0.046875,0 -0.058594,0.011719 -0.1757813,0.140625 l -0.4804687,0.5742188 c -0.2578125,-0.46875 -0.7734375,-0.7148438 -1.4296875,-0.7148438 -1.265625,0 -2.4609375,1.1367188 -2.4609375,2.34375 0,0.8085938 0.5273437,1.265625 1.0429687,1.4179688 l 1.0664063,0.28125 c 0.3632812,0.082031 0.9140625,0.234375 0.9140625,1.0546875 0,0.890625 -0.8203125,1.828125 -1.7929688,1.828125 -0.6445312,0 -1.7460937,-0.2109375 -1.7460937,-1.453125 0,-0.234375 0.046875,-0.4804688 0.058594,-0.5390625 0.011719,-0.035156 0.023437,-0.046875 0.023437,-0.070312 0,-0.09375 -0.070312,-0.1054688 -0.1171875,-0.1054688 -0.058594,0 -0.070312,0.011719 -0.1054687,0.035156 -0.035156,0.046875 -0.5976563,2.3203125 -0.5976563,2.34375 0,0.0585938 0.046875,0.10546875 0.1171875,0.10546875 0.046875,0 0.0585938,-0.0117188 0.17578125,-0.15234375 L 1.3000313,-0.50428125 c 0.421875,0.5859375 1.1015625,0.7265625 1.6757812,0.7265625 1.359375,0 2.53125,-1.32421875 2.53125,-2.56640625 0,-0.6796875 -0.3398437,-1.0195313 -0.4921875,-1.1601563 -0.2226562,-0.234375 -0.375,-0.2695312 -1.265625,-0.5039062 -0.2109375,-0.058594 -0.5742187,-0.1523438 -0.65625,-0.1757813 -0.2695312,-0.09375 -0.609375,-0.375 -0.609375,-0.9023437 0,-0.8085938 0.796875,-1.6523438 1.734375,-1.6523438 0.8320313,0 1.4414063,0.421875 1.4414063,1.5351563 0,0.3164062 -0.046875,0.5039062 -0.046875,0.5625 0,0.011719 0,0.09375 0.1289062,0.09375 0.09375,0 0.1054688,-0.023437 0.140625,-0.1992188 z m 6.583008,1.171875 c 0.09375,-0.4101562 0.28125,-0.7148437 1.078125,-0.7382812 0.04687,0 0.164062,-0.011719 0.164062,-0.1992188 0,-0.011719 0,-0.1171875 -0.128906,-0.1171875 -0.328125,0 -0.679687,0.035156 -1.019531,0.035156 -0.339844,0 -0.703125,-0.035156 -1.03125,-0.035156 -0.05859,0 -0.175781,0 -0.175781,0.1992188 0,0.1171875 0.09375,0.1171875 0.175781,0.1171875 0.5625,0.011719 0.679687,0.2109375 0.679687,0.4335937 0,0.035156 -0.02344,0.1757813 -0.03516,0.2109375 L 11.820539,-2.29725 c -0.339844,1.3359375 -1.488281,2.203125 -2.4843749,2.203125 -0.6796875,0 -1.21875,-0.43359375 -1.21875,-1.2890625 0,-0.023437 0,-0.3398438 0.1171875,-0.7734375 l 0.9609375,-3.8789063 c 0.09375,-0.3632812 0.1054687,-0.4570312 0.8320309,-0.4570312 0.269532,0 0.339844,0 0.339844,-0.1992188 0,-0.1171875 -0.105469,-0.1171875 -0.140625,-0.1171875 -0.2695312,0 -0.9960937,0.035156 -1.2656249,0.035156 -0.2929688,0 -0.9960938,-0.035156 -1.2890625,-0.035156 -0.082031,0 -0.1875,0 -0.1875,0.1992188 0,0.1171875 0.09375,0.1171875 0.28125,0.1171875 0.011719,0 0.2109375,0 0.375,0.011719 0.1757812,0.023437 0.2695312,0.035156 0.2695312,0.1640625 0,0.058594 -0.1054687,0.4804688 -0.1757812,0.703125 L 8.0236641,-4.73475 c -0.09375,0.3867187 -0.5742188,2.2734375 -0.609375,2.4609375 -0.070312,0.28125 -0.070312,0.4335937 -0.070312,0.5742187 0,1.21875005 0.9023437,1.92187505 1.9570312,1.92187505 1.2539057,0 2.4843757,-1.125 2.8125007,-2.44921875 z m 0,0"
         style="fill:#000000;fill-opacity:1;fill-rule:nonzero;stroke:none" />
      <path
         id="path30"
         d="m 17.864484,2.39025 c 0,-0.035156 0,-0.046875 -0.164062,-0.2226563 -1.242188,-1.2539062 -1.570313,-3.1289062 -1.570313,-4.6640625 0,-1.7226562 0.386719,-3.4570312 1.605469,-4.7109375 0.128906,-0.1171875 0.128906,-0.1289062 0.128906,-0.1640625 0,-0.070312 -0.03516,-0.1054687 -0.09375,-0.1054687 -0.105468,0 -0.996093,0.6796875 -1.582031,1.9453125 -0.515625,1.1015625 -0.632812,2.203125 -0.632812,3.0351562 0,0.7851563 0.117187,1.99218755 0.65625,3.11718755 0.597656,1.21874995 1.453125,1.87499995 1.558593,1.87499995 0.05859,0 0.09375,-0.035156 0.09375,-0.1054687 z m 1.839844,-3.15234375 1.054688,-1.03125005 c 1.558593,-1.3710937 2.15625,-1.9101562 2.15625,-2.90625 0,-1.1367187 -0.902344,-1.9335937 -2.121094,-1.9335937 -1.125,0 -1.851563,0.9140625 -1.851563,1.8046875 0,0.5507812 0.492188,0.5507812 0.527344,0.5507812 0.164063,0 0.515625,-0.1171875 0.515625,-0.5273437 0,-0.2578125 -0.1875,-0.515625 -0.527344,-0.515625 -0.08203,0 -0.105468,0 -0.128906,0.011719 C 19.551984,-5.9535 20.091047,-6.3285 20.665266,-6.3285 c 0.914062,0 1.335937,0.8085937 1.335937,1.6289062 0,0.796875 -0.492187,1.5820313 -1.042969,2.203125 l -1.910156,2.13281255 C 18.942609,-0.2581875 18.942609,-0.23475 18.942609,-3.75e-4 h 3.691407 l 0.28125,-1.734375 h -0.257813 c -0.04687,0.3046875 -0.117187,0.73828125 -0.210937,0.890625 -0.07031,0.0820313 -0.726563,0.0820313 -0.949219,0.0820313 z m 6.597656,-1.73437505 c 0,-0.7734375 -0.117187,-1.9804687 -0.65625,-3.1054687 -0.597656,-1.21875 -1.464843,-1.875 -1.558593,-1.875 -0.05859,0 -0.105469,0.046875 -0.105469,0.1054687 0,0.035156 0,0.046875 0.199219,0.234375 0.972656,0.984375 1.535156,2.5664063 1.535156,4.640625 0,1.71093755 -0.363281,3.4570313 -1.59375,4.7226563 -0.140625,0.1171875 -0.140625,0.1289062 -0.140625,0.1640625 0,0.058594 0.04687,0.1054687 0.105469,0.1054687 0.09375,0 0.996093,-0.6796875 1.582031,-1.94531245 0.503906,-1.1015625 0.632812,-2.20312505 0.632812,-3.04687505 z m 0,0"
         style="fill:#000000;fill-opacity:1;fill-rule:nonzero;stroke:none" />
      <path
         id="path31"
         d="m 36.632063,-4.9808438 c 0.175781,0 0.351562,0 0.351562,-0.1992187 0,-0.1992188 -0.175781,-0.1992188 -0.351562,-0.1992188 h -2.671875 c -1.710938,0 -3.058594,1.2890625 -3.058594,2.8828125 0,1.59375005 1.347656,2.8945313 3.058594,2.8945313 h 2.671875 c 0.175781,0 0.351562,0 0.351562,-0.19921875 0,-0.19921875 -0.175781,-0.19921875 -0.351562,-0.19921875 h -2.660157 c -1.546875,0 -2.671875,-1.1601563 -2.671875,-2.4960938 0,-1.3242187 1.125,-2.484375 2.671875,-2.484375 z m 0,0"
         style="fill:#000000;fill-opacity:1;fill-rule:nonzero;stroke:none" />
      <path
         id="path32"
         d="m 43.259016,-3.1292813 h 0.351562 l 1.5,2.3085938 c 0.09375,0.1640625 0.339844,0.55078125 0.445313,0.703125 0.07031,0.1171875 0.105468,0.1171875 0.328125,0.1171875 h 1.382812 c 0.175781,0 0.328125,0 0.328125,-0.17578125 0,-0.0820313 -0.07031,-0.15234375 -0.152344,-0.17578125 -0.375,-0.0820313 -0.855468,-0.7382813 -1.101562,-1.0546875 -0.07031,-0.09375 -0.5625,-0.75 -1.230469,-1.828125 0.890625,-0.1640625 1.746094,-0.5390625 1.746094,-1.7226563 0,-1.3828125 -1.464844,-1.8632812 -2.648438,-1.8632812 h -3.117187 c -0.1875,0 -0.339844,0 -0.339844,0.1757812 0,0.1640625 0.1875,0.1640625 0.269531,0.1640625 0.5625,0 0.609375,0.070312 0.609375,0.5742188 v 4.9921875 c 0,0.4921875 -0.04687,0.5625 -0.609375,0.5625 -0.08203,0 -0.269531,0 -0.269531,0.17578125 0,0.17578125 0.152344,0.17578125 0.339844,0.17578125 h 2.71875 c 0.1875,0 0.328125,0 0.328125,-0.17578125 0,-0.17578125 -0.164063,-0.17578125 -0.269531,-0.17578125 -0.574219,0 -0.609375,-0.0820313 -0.609375,-0.5625 z m 1.921875,-0.4921875 c 0.28125,-0.3632812 0.304687,-0.890625 0.304687,-1.3242187 0,-0.4804688 -0.05859,-1.0078125 -0.375,-1.4179688 0.410156,0.082031 1.394531,0.3984375 1.394531,1.40625 0,0.6445313 -0.304687,1.1484375 -1.324218,1.3359375 z m -1.921875,-2.3203125 c 0,-0.1992187 0,-0.5390625 0.621093,-0.5390625 0.84375,0 1.253907,0.3515625 1.253907,1.5351563 0,1.2773437 -0.304688,1.4648437 -1.875,1.4648437 z m -1.359375,5.5898438 c 0.08203,-0.17578125 0.08203,-0.45703125 0.08203,-0.55078125 V -5.9300625 c 0,-0.09375 0,-0.3632813 -0.08203,-0.5507813 h 1.136718 c -0.128906,0.1640625 -0.128906,0.3632813 -0.128906,0.515625 v 5.06250005 c 0,0.10546875 0,0.375 0.08203,0.55078125 z m 2.121093,-2.7773438 c 0.07031,-0.011719 0.117188,-0.023437 0.1875,-0.023437 0.152344,0 0.375,-0.011719 0.527344,-0.035156 0.140625,0.234375 1.21875,2.015625 2.050781,2.8359375 h -0.972656 z m 0,0"
         style="fill:#000000;fill-opacity:1;fill-rule:nonzero;stroke:none" />
      <path
         id="path33"
         d="m 51.473859,-4.7640469 v -0.2460937 h -0.773437 v -3.1054688 c 0,-0.1523437 0,-0.1992187 -0.152344,-0.1992187 -0.09375,0 -0.117187,0 -0.1875,0.09375 l -2.308594,3.2109375 v 0.2460937 h 2.050782 v 0.5742188 c 0,0.234375 0,0.328125 -0.5625,0.328125 h -0.1875 v 0.2460937 c 0.351562,-0.011719 0.796875,-0.023437 1.042968,-0.023437 0.257813,0 0.703125,0.011719 1.054688,0.023437 v -0.2460937 h -0.1875 c -0.5625,0 -0.5625,-0.09375 -0.5625,-0.328125 v -0.5742188 z m -1.324218,-2.8007812 v 2.5546875 h -1.839844 z m 0,0"
         style="fill:#000000;fill-opacity:1;fill-rule:nonzero;stroke:none" />
    </g>
    <g
       id="g33"
       aria-label="ω=0∼4π"
       transform="matrix(1.3333333,0,0,1.3333333,77.732,9.556)">
      <path
         id="path34"
         d="m 6.0222891,-3.7041094 c 0,-0.4453125 -0.1757813,-0.703125 -0.3984375,-0.703125 -0.2578125,0 -0.5273438,0.2460938 -0.5273438,0.46875 0,0.1054688 0.046875,0.2109375 0.1523438,0.3046875 0.1640625,0.140625 0.3515625,0.4101563 0.3515625,0.8320313 0,0.3984375 -0.1875,0.9726562 -0.5039063,1.4296875 -0.2929687,0.42187497 -0.6679687,0.76171872 -1.1367187,0.76171872 -0.5625,0 -0.8671875,-0.3515625 -0.9609375,-0.89062502 0.1054687,-0.2578125 0.3398437,-0.9023437 0.3398437,-1.1835937 0,-0.1171875 -0.046875,-0.2109375 -0.1875,-0.2109375 -0.070312,0 -0.1875,0.011719 -0.2578125,0.1640625 -0.1171875,0.1992187 -0.234375,0.84375 -0.234375,1.2070312 -0.328125,0.46875 -0.7265625,0.91406252 -1.359375,0.91406252 -0.65624999,0 -0.86718749,-0.58593752 -0.86718749,-1.14843752 0,-1.2421875 1.01953129,-2.2851562 1.01953129,-2.4140625 0,-0.1171875 -0.082031,-0.1875 -0.1875,-0.1875 -0.1289063,0 -0.1992188,0.1289063 -0.2578125,0.2109375 -0.50390629,0.7382813 -0.89062504,1.921875 -0.89062504,2.8359375 0,0.67968752 0.234375,1.41796877 1.04296874,1.41796877 0.7148438,0 1.1835938,-0.4921875 1.5351563,-1.04296875 0.09375,0.57421875 0.4804687,1.04296875 1.1015625,1.04296875 0.7734375,0 1.2539062,-0.609375 1.6171875,-1.34765627 0.234375,-0.4921875 0.609375,-1.8515625 0.609375,-2.4609375 z m 0,0"
         style="fill:#9013fe;fill-opacity:1;fill-rule:nonzero;stroke:none" />
      <path
         id="path35"
         d="m 16.170727,-3.2587969 c 0.152343,0 0.339843,0 0.339843,-0.1992187 0,-0.1992188 -0.1875,-0.1992188 -0.328125,-0.1992188 h -5.964843 c -0.140625,0 -0.3281254,0 -0.3281254,0.1992188 0,0.1992187 0.1875004,0.1992187 0.3398434,0.1992187 z m 0.01172,1.9335938 c 0.140625,0 0.328125,0 0.328125,-0.1992188 0,-0.1992187 -0.1875,-0.1992187 -0.339843,-0.1992187 H 10.22932 c -0.152343,0 -0.3398434,0 -0.3398434,0.1992187 0,0.1992188 0.1875004,0.1992188 0.3281254,0.1992188 z m 8.226563,-1.8632813 c 0,-0.796875 -0.04687,-1.59375 -0.398438,-2.3320312 -0.457031,-0.9609375 -1.277343,-1.1132813 -1.6875,-1.1132813 -0.597656,0 -1.335937,0.2578125 -1.734375,1.1835938 -0.328125,0.6914062 -0.375,1.4648437 -0.375,2.2617187 0,0.75 0.04687,1.640625 0.445313,2.40234377 0.433594,0.80859375 1.160156,1.0078125 1.652344,1.0078125 0.539062,0 1.289062,-0.2109375 1.734375,-1.16015625 0.316406,-0.69140622 0.363281,-1.46484372 0.363281,-2.25000002 z m -2.097656,3.187500025 c -0.386719,0 -0.984375,-0.246093755 -1.160157,-1.207031225 -0.105468,-0.5976563 -0.105468,-1.5117188 -0.105468,-2.0976563 0,-0.6445312 0,-1.3007812 0.08203,-1.8398437 0.1875,-1.1835938 0.925781,-1.265625 1.183594,-1.265625 0.328125,0 0.984375,0.1757812 1.171875,1.1601562 0.09375,0.5625 0.09375,1.3125 0.09375,1.9453125 0,0.75 0,1.4179688 -0.105469,2.0625 -0.152344,0.93750002 -0.714844,1.242187525 -1.160156,1.242187525 z m 0,0"
         style="fill:#9013fe;fill-opacity:1;fill-rule:nonzero;stroke:none" />
      <path
         id="path36"
         d="m 34.785961,-3.3291094 c 0,-0.2226562 -0.05859,-0.3164062 -0.140625,-0.3164062 -0.04687,0 -0.128906,0.070312 -0.140625,0.2578125 -0.03516,0.9609375 -0.703125,1.5 -1.394531,1.5 -0.632813,0 -1.101563,-0.421875 -1.59375,-0.8554688 -0.503907,-0.4570312 -1.03125,-0.9140625 -1.699219,-0.9140625 -1.089844,0 -1.675781,1.1015625 -1.675781,2.0039063 0,0.3164062 0.128906,0.3164062 0.140625,0.3164062 0.105468,0 0.140625,-0.1992187 0.140625,-0.2226562 0.03516,-1.1015625 0.785156,-1.5351563 1.394531,-1.5351563 0.621094,0 1.101562,0.421875 1.59375,0.8554688 0.503906,0.4570312 1.019531,0.9140625 1.699219,0.9140625 1.089843,0 1.675781,-1.1015625 1.675781,-2.0039063 z m 0,0"
         style="fill:#9013fe;fill-opacity:1;fill-rule:nonzero;stroke:none" />
      <path
         id="path37"
         d="m 41.037914,-1.6416094 v 0.86718752 c 0,0.3515625 -0.02344,0.46875 -0.761719,0.46875 h -0.210937 v 0.304687505 c 0.410156,-0.035156255 0.9375,-0.035156255 1.347656,-0.035156255 0.421875,0 0.949219,0 1.359375,0.035156255 V -0.30567188 h -0.210937 c -0.738282,0 -0.761719,-0.1171875 -0.761719,-0.46875 V -1.6416094 h 0.996094 v -0.3164062 h -0.996094 v -4.5234375 c 0,-0.1992188 0,-0.2578125 -0.152344,-0.2578125 -0.09375,0 -0.117187,0 -0.199219,0.1171875 l -3.058593,4.6640625 v 0.3164062 z m 0.05859,-0.3164062 h -2.425781 l 2.425781,-3.7148438 z m 0,0"
         style="fill:#9013fe;fill-opacity:1;fill-rule:nonzero;stroke:none" />
      <path
         id="path38"
         d="m 45.725414,-3.7158281 h 1.125 c -0.328125,1.4765625 -0.410156,1.8984375 -0.410156,2.5664062 0,0.15234377 0,0.42187502 0.07031,0.76171877 0.105469,0.43359375 0.210938,0.4921875 0.363282,0.4921875 0.199218,0 0.410156,-0.17578125 0.410156,-0.375 0,-0.0585938 0,-0.0820313 -0.05859,-0.22265625 -0.292969,-0.71484372 -0.292969,-1.35937502 -0.292969,-1.64062502 0,-0.5273437 0.07031,-1.0664062 0.175782,-1.5820312 h 1.136718 c 0.128907,0 0.492188,0 0.492188,-0.3398438 0,-0.234375 -0.210938,-0.234375 -0.398438,-0.234375 h -3.339843 c -0.210938,0 -0.597657,0 -1.03125,0.46875 -0.351563,0.3867188 -0.609375,0.84375 -0.609375,0.890625 0,0.011719 0,0.1054688 0.117187,0.1054688 0.08203,0 0.105469,-0.046875 0.164063,-0.1289063 0.480468,-0.7617187 1.066406,-0.7617187 1.265625,-0.7617187 h 0.5625 c -0.316407,1.2070312 -0.855469,2.4140625 -1.277344,3.31640622 -0.07031,0.15234375 -0.07031,0.1640625 -0.07031,0.234375 0,0.19921875 0.152344,0.26953125 0.28125,0.26953125 0.304688,0 0.386719,-0.26953125 0.503907,-0.64453125 0.140625,-0.45703125 0.140625,-0.48046872 0.269531,-0.97265622 z m 0,0"
         style="fill:#9013fe;fill-opacity:1;fill-rule:nonzero;stroke:none" />
    </g>
    <g
       id="g38"
       aria-label="SO(3)⊂R&#10;4"
       transform="matrix(1.3333333,0,0,1.3333333,308.87067,194.59333)">
      <path
         id="path39"
         d="m 6.4221953,-6.9254688 c 0,-0.023437 -0.011719,-0.09375 -0.1054687,-0.09375 -0.046875,0 -0.058594,0.011719 -0.1757813,0.140625 L 5.6604766,-6.304375 c -0.2578125,-0.46875 -0.7734375,-0.7148438 -1.4296875,-0.7148438 -1.265625,0 -2.4609375,1.1367188 -2.4609375,2.34375 0,0.8085938 0.5273437,1.265625 1.0429687,1.4179688 l 1.0664063,0.28125 c 0.3632812,0.082031 0.9140625,0.234375 0.9140625,1.0546875 0,0.890625 -0.8203125,1.828125 -1.7929688,1.828125 -0.6445312,0 -1.7460937,-0.2109375 -1.7460937,-1.453125 0,-0.234375 0.046875,-0.4804688 0.058594,-0.5390625 0.011719,-0.035156 0.023437,-0.046875 0.023437,-0.070312 0,-0.09375 -0.070312,-0.1054688 -0.1171875,-0.1054688 -0.058594,0 -0.070312,0.011719 -0.1054687,0.035156 -0.035156,0.046875 -0.59765629,2.3203125 -0.59765629,2.34375 0,0.0585938 0.046875,0.10546875 0.1171875,0.10546875 0.046875,0 0.0585938,-0.0117188 0.17578125,-0.15234375 L 1.3011016,-0.50359375 c 0.421875,0.5859375 1.1015625,0.7265625 1.6757812,0.7265625 1.359375,0 2.53125,-1.32421875 2.53125,-2.56640625 0,-0.6796875 -0.3398437,-1.0195313 -0.4921875,-1.1601563 -0.2226562,-0.234375 -0.375,-0.2695312 -1.265625,-0.5039062 -0.2109375,-0.058594 -0.5742187,-0.1523438 -0.65625,-0.1757813 -0.2695312,-0.09375 -0.609375,-0.375 -0.609375,-0.9023437 0,-0.8085938 0.796875,-1.6523438 1.734375,-1.6523438 0.8320313,0 1.4414063,0.421875 1.4414063,1.5351563 0,0.3164062 -0.046875,0.5039062 -0.046875,0.5625 0,0.011719 0,0.09375 0.1289062,0.09375 0.09375,0 0.1054688,-0.023437 0.140625,-0.1992188 z m 7.6230467,2.578125 c 0,-1.59375 -1.054687,-2.671875 -2.542969,-2.671875 -2.1445308,0 -4.3359371,2.2617188 -4.3359371,4.5820313 0,1.65234375 1.1132813,2.66015625 2.5429688,2.66015625 2.1093753,0 4.3359373,-2.17968755 4.3359373,-4.57031255 z m -4.2773436,4.31250005 c -0.984375,0 -1.6757812,-0.80859375 -1.6757812,-2.12109375 0,-0.4453125 0.140625,-1.8984375 0.9023437,-3.0585938 C 9.6858672,-6.2575 10.658523,-6.773125 11.44368,-6.773125 c 0.820312,0 1.710937,0.5625 1.710937,2.0390625 0,0.7148437 -0.269531,2.2734375 -1.253906,3.5039062 -0.480469,0.5976563 -1.289063,1.19531255 -2.1328126,1.19531255 z m 0,0"
         style="fill:#000000;fill-opacity:1;fill-rule:nonzero;stroke:none" />
      <path
         id="path40"
         d="m 17.853836,2.3909375 c 0,-0.035156 0,-0.046875 -0.164063,-0.2226563 -1.242187,-1.2539062 -1.570312,-3.1289062 -1.570312,-4.6640625 0,-1.7226562 0.386719,-3.4570312 1.605469,-4.7109375 0.128906,-0.1171875 0.128906,-0.1289062 0.128906,-0.1640625 0,-0.070312 -0.03516,-0.1054687 -0.09375,-0.1054687 -0.105469,0 -0.996094,0.6796875 -1.582031,1.9453125 -0.515625,1.1015625 -0.632813,2.203125 -0.632813,3.0351562 0,0.7851563 0.117188,1.99218755 0.65625,3.11718755 0.597656,1.21874995 1.453125,1.87499995 1.558594,1.87499995 0.05859,0 0.09375,-0.035156 0.09375,-0.1054687 z m 3.46582,-5.8945313 c 0.808594,-0.2695312 1.394532,-0.9726562 1.394532,-1.7578125 0,-0.8203125 -0.878907,-1.3710937 -1.839844,-1.3710937 -1.007813,0 -1.757813,0.5976562 -1.757813,1.3476562 0,0.3398438 0.210938,0.5273438 0.503907,0.5273438 0.304687,0 0.503906,-0.2226563 0.503906,-0.515625 0,-0.4921875 -0.46875,-0.4921875 -0.609375,-0.4921875 0.304687,-0.4921875 0.960937,-0.6210938 1.324219,-0.6210938 0.410156,0 0.949218,0.2226563 0.949218,1.1132813 0,0.1289062 -0.01172,0.703125 -0.269531,1.1367187 -0.304687,0.4804688 -0.644531,0.515625 -0.890625,0.515625 -0.08203,0.011719 -0.316406,0.035156 -0.386719,0.035156 -0.08203,0.011719 -0.152343,0.023437 -0.152343,0.1171875 0,0.1171875 0.07031,0.1171875 0.234375,0.1171875 h 0.445312 c 0.808594,0 1.183594,0.6679687 1.183594,1.6523437 0,1.3476563 -0.691406,1.64062505 -1.125,1.64062505 -0.433594,0 -1.171875,-0.17578125 -1.523438,-0.76171875 0.351563,0.0585938 0.65625,-0.1640625 0.65625,-0.5390625 0,-0.3632813 -0.269531,-0.5625 -0.5625,-0.5625 -0.234375,0 -0.550781,0.140625 -0.550781,0.5742187 0,0.91406255 0.925781,1.57031255 2.003906,1.57031255 1.21875,0 2.121094,-0.9140625 2.121094,-1.92187505 0,-0.8203125 -0.621094,-1.59375 -1.652344,-1.8046872 z m 4.96875,1.0078125 c 0,-0.7734375 -0.117187,-1.9804687 -0.65625,-3.1054687 -0.597656,-1.21875 -1.464843,-1.875 -1.558593,-1.875 -0.05859,0 -0.105469,0.046875 -0.105469,0.1054687 0,0.035156 0,0.046875 0.199219,0.234375 0.972656,0.984375 1.535156,2.5664063 1.535156,4.640625 0,1.71093755 -0.363281,3.4570313 -1.59375,4.7226563 -0.140625,0.1171875 -0.140625,0.1289062 -0.140625,0.1640625 0,0.058594 0.04687,0.1054687 0.105469,0.1054687 0.09375,0 0.996093,-0.6796875 1.582031,-1.94531245 0.503906,-1.1015625 0.632812,-2.20312505 0.632812,-3.04687505 z m 0,0"
         style="fill:#000000;fill-opacity:1;fill-rule:nonzero;stroke:none" />
      <path
         id="path41"
         d="m 36.618484,-4.9801563 c 0.175782,0 0.351563,0 0.351563,-0.1992187 0,-0.1992188 -0.175781,-0.1992188 -0.351563,-0.1992188 h -2.671875 c -1.710937,0 -3.058593,1.2890625 -3.058593,2.8828125 0,1.59375005 1.347656,2.8945313 3.058593,2.8945313 h 2.671875 c 0.175782,0 0.351563,0 0.351563,-0.19921875 0,-0.19921875 -0.175781,-0.19921875 -0.351563,-0.19921875 h -2.660156 c -1.546875,0 -2.671875,-1.1601563 -2.671875,-2.4960938 0,-1.3242187 1.125,-2.484375 2.671875,-2.484375 z m 0,0"
         style="fill:#000000;fill-opacity:1;fill-rule:nonzero;stroke:none" />
      <path
         id="path42"
         d="M 43.245438,-3.1285938 H 43.597 L 45.097,-0.82 c 0.09375,0.1640625 0.339844,0.55078125 0.445313,0.703125 0.07031,0.1171875 0.105468,0.1171875 0.328125,0.1171875 h 1.382812 c 0.175781,0 0.328125,0 0.328125,-0.17578125 0,-0.0820313 -0.07031,-0.15234375 -0.152344,-0.17578125 -0.375,-0.0820313 -0.855468,-0.7382813 -1.101562,-1.0546875 -0.07031,-0.09375 -0.5625,-0.75 -1.230469,-1.828125 0.890625,-0.1640625 1.746094,-0.5390625 1.746094,-1.7226563 C 46.843094,-6.3395313 45.37825,-6.82 44.194656,-6.82 h -3.117187 c -0.1875,0 -0.339844,0 -0.339844,0.1757812 0,0.1640625 0.1875,0.1640625 0.269531,0.1640625 0.5625,0 0.609375,0.070312 0.609375,0.5742188 V -0.91375 c 0,0.4921875 -0.04687,0.5625 -0.609375,0.5625 -0.08203,0 -0.269531,0 -0.269531,0.17578125 0,0.17578125 0.152344,0.17578125 0.339844,0.17578125 h 2.71875 c 0.1875,0 0.328125,0 0.328125,-0.17578125 0,-0.17578125 -0.164063,-0.17578125 -0.269531,-0.17578125 -0.574219,0 -0.609375,-0.0820313 -0.609375,-0.5625 z m 1.921875,-0.4921875 C 45.448563,-3.9840625 45.472,-4.5114063 45.472,-4.945 c 0,-0.4804688 -0.05859,-1.0078125 -0.375,-1.4179688 0.410156,0.082031 1.394531,0.3984375 1.394531,1.40625 0,0.6445313 -0.304687,1.1484375 -1.324218,1.3359375 z m -1.921875,-2.3203125 c 0,-0.1992187 0,-0.5390625 0.621093,-0.5390625 0.84375,0 1.253907,0.3515625 1.253907,1.5351563 0,1.2773437 -0.304688,1.4648437 -1.875,1.4648437 z M 41.886063,-0.35125 c 0.08203,-0.17578125 0.08203,-0.45703125 0.08203,-0.55078125 V -5.929375 c 0,-0.09375 0,-0.3632813 -0.08203,-0.5507813 h 1.136718 c -0.128906,0.1640625 -0.128906,0.3632813 -0.128906,0.515625 v 5.06250005 c 0,0.10546875 0,0.375 0.08203,0.55078125 z m 2.121093,-2.7773438 c 0.07031,-0.011719 0.117188,-0.023437 0.1875,-0.023437 0.152344,0 0.375,-0.011719 0.527344,-0.035156 0.140625,0.234375 1.21875,2.015625 2.050781,2.8359375 h -0.972656 z m 0,0"
         style="fill:#000000;fill-opacity:1;fill-rule:nonzero;stroke:none" />
      <path
         id="path43"
         d="M 51.460281,-5.2614063 V -5.5075 h -0.773437 v -3.1054688 c 0,-0.1523437 0,-0.1992187 -0.152344,-0.1992187 -0.09375,0 -0.117187,0 -0.1875,0.09375 L 48.038406,-5.5075 v 0.2460937 h 2.050782 v 0.5742188 c 0,0.234375 0,0.328125 -0.5625,0.328125 h -0.1875 v 0.2460937 c 0.351562,-0.011719 0.796875,-0.023437 1.042968,-0.023437 0.257813,0 0.703125,0.011719 1.054688,0.023437 v -0.2460937 h -0.1875 c -0.5625,0 -0.5625,-0.09375 -0.5625,-0.328125 V -5.2614063 Z M 50.136063,-8.0621875 V -5.5075 h -1.839844 z m 0,0"
         style="fill:#000000;fill-opacity:1;fill-rule:nonzero;stroke:none" />
    </g>
    <g
       id="g43"
       aria-label="ω=π"
       transform="matrix(1.3333333,0,0,1.3333333,406.28533,95.604)">
      <path
         id="path44"
         d="m 6.0233047,-3.7020234 c 0,-0.4453125 -0.1757813,-0.703125 -0.3984375,-0.703125 -0.2578125,0 -0.5273438,0.2460937 -0.5273438,0.46875 0,0.1054687 0.046875,0.2109375 0.1523438,0.3046875 0.1640625,0.140625 0.3515625,0.4101562 0.3515625,0.8320312 0,0.3984375 -0.1875,0.9726563 -0.5039063,1.4296875 -0.2929687,0.42187501 -0.6679687,0.76171876 -1.1367187,0.76171876 -0.5625,0 -0.8671875,-0.3515625 -0.9609375,-0.89062496 0.1054687,-0.2578125 0.3398437,-0.9023438 0.3398437,-1.1835938 0,-0.1171875 -0.046875,-0.2109375 -0.1875,-0.2109375 -0.070312,0 -0.1875,0.011719 -0.2578125,0.1640625 -0.1171875,0.1992188 -0.234375,0.84375 -0.234375,1.2070313 -0.328125,0.46875 -0.7265625,0.91406246 -1.359375,0.91406246 -0.65624996,0 -0.86718746,-0.58593746 -0.86718746,-1.14843746 0,-1.2421875 1.01953126,-2.2851563 1.01953126,-2.4140625 0,-0.1171875 -0.082031,-0.1875 -0.1875,-0.1875 -0.1289063,0 -0.1992188,0.1289062 -0.2578125,0.2109375 -0.50390626,0.7382812 -0.89062501,1.921875 -0.89062501,2.8359375 0,0.67968746 0.234375,1.41796871 1.04296871,1.41796871 0.7148438,0 1.1835938,-0.4921875 1.5351563,-1.04296875 0.09375,0.57421875 0.4804687,1.04296875 1.1015625,1.04296875 0.7734375,0 1.2539062,-0.609375 1.6171875,-1.34765621 0.234375,-0.4921875 0.609375,-1.8515625 0.609375,-2.4609375 z m 0,0"
         style="fill:#417505;fill-opacity:1;fill-rule:nonzero;stroke:none" />
      <path
         id="path45"
         d="m 16.171742,-3.2567109 c 0.152344,0 0.339844,0 0.339844,-0.1992188 0,-0.1992187 -0.1875,-0.1992187 -0.328125,-0.1992187 h -5.964844 c -0.140625,0 -0.3281248,0 -0.3281248,0.1992187 0,0.1992188 0.1874998,0.1992188 0.3398438,0.1992188 z m 0.01172,1.9335937 c 0.140625,0 0.328125,0 0.328125,-0.1992187 0,-0.1992188 -0.1875,-0.1992188 -0.339844,-0.1992188 h -5.941406 c -0.152344,0 -0.3398438,0 -0.3398438,0.1992188 0,0.1992187 0.1874998,0.1992187 0.3281248,0.1992187 z m 0,0"
         style="fill:#417505;fill-opacity:1;fill-rule:nonzero;stroke:none" />
      <path
         id="path46"
         d="m 22.479359,-3.7137422 h 1.125 c -0.328125,1.4765625 -0.410156,1.8984375 -0.410156,2.5664063 0,0.15234371 0,0.42187496 0.07031,0.76171871 0.105468,0.43359375 0.210937,0.4921875 0.363281,0.4921875 0.199219,0 0.410156,-0.17578125 0.410156,-0.375 0,-0.0585938 0,-0.0820313 -0.05859,-0.22265625 -0.292968,-0.71484376 -0.292968,-1.35937496 -0.292968,-1.64062496 0,-0.5273438 0.07031,-1.0664063 0.175781,-1.5820313 h 1.136719 c 0.128906,0 0.492187,0 0.492187,-0.3398437 0,-0.234375 -0.210937,-0.234375 -0.398437,-0.234375 h -3.339844 c -0.210938,0 -0.597656,0 -1.03125,0.46875 -0.351563,0.3867187 -0.609375,0.84375 -0.609375,0.890625 0,0.011719 0,0.1054687 0.117187,0.1054687 0.08203,0 0.105469,-0.046875 0.164063,-0.1289062 0.480469,-0.7617188 1.066406,-0.7617188 1.265625,-0.7617188 h 0.5625 c -0.316406,1.2070313 -0.855469,2.4140625 -1.277344,3.31640626 -0.07031,0.15234375 -0.07031,0.1640625 -0.07031,0.234375 0,0.19921875 0.152343,0.26953125 0.28125,0.26953125 0.304687,0 0.386718,-0.26953125 0.503906,-0.64453125 0.140625,-0.45703125 0.140625,-0.48046876 0.269531,-0.97265626 z m 0,0"
         style="fill:#417505;fill-opacity:1;fill-rule:nonzero;stroke:none" />
    </g>
    <g
       id="g46"
       aria-label="ω=π"
       transform="matrix(1.3333333,0,0,1.3333333,225.76133,95.604)">
      <path
         id="path47"
         d="m 6.0237266,-3.7020234 c 0,-0.4453125 -0.1757813,-0.703125 -0.3984375,-0.703125 -0.2578125,0 -0.5273438,0.2460937 -0.5273438,0.46875 0,0.1054687 0.046875,0.2109375 0.1523438,0.3046875 0.1640625,0.140625 0.3515625,0.4101562 0.3515625,0.8320312 0,0.3984375 -0.1875,0.9726563 -0.5039063,1.4296875 -0.2929687,0.42187501 -0.6679687,0.76171876 -1.1367187,0.76171876 -0.5625,0 -0.8671875,-0.3515625 -0.9609375,-0.89062496 0.1054687,-0.2578125 0.3398437,-0.9023438 0.3398437,-1.1835938 0,-0.1171875 -0.046875,-0.2109375 -0.1875,-0.2109375 -0.070312,0 -0.1875,0.011719 -0.2578125,0.1640625 -0.1171875,0.1992188 -0.234375,0.84375 -0.234375,1.2070313 -0.328125,0.46875 -0.7265625,0.91406246 -1.359375,0.91406246 -0.65624999,0 -0.86718749,-0.58593746 -0.86718749,-1.14843746 0,-1.2421875 1.01953129,-2.2851563 1.01953129,-2.4140625 0,-0.1171875 -0.082031,-0.1875 -0.1875,-0.1875 -0.1289063,0 -0.1992188,0.1289062 -0.2578125,0.2109375 -0.50390629,0.7382812 -0.89062504,1.921875 -0.89062504,2.8359375 0,0.67968746 0.234375,1.41796871 1.04296874,1.41796871 0.7148438,0 1.1835938,-0.4921875 1.5351563,-1.04296875 0.09375,0.57421875 0.4804687,1.04296875 1.1015625,1.04296875 0.7734375,0 1.2539062,-0.609375 1.6171875,-1.34765621 0.234375,-0.4921875 0.609375,-1.8515625 0.609375,-2.4609375 z m 0,0"
         style="fill:#417505;fill-opacity:1;fill-rule:nonzero;stroke:none" />
      <path
         id="path48"
         d="m 16.172164,-3.2567109 c 0.152344,0 0.339844,0 0.339844,-0.1992188 0,-0.1992187 -0.1875,-0.1992187 -0.328125,-0.1992187 h -5.964844 c -0.140625,0 -0.3281249,0 -0.3281249,0.1992187 0,0.1992188 0.1874999,0.1992188 0.3398439,0.1992188 z m 0.01172,1.9335937 c 0.140625,0 0.328125,0 0.328125,-0.1992187 0,-0.1992188 -0.1875,-0.1992188 -0.339844,-0.1992188 h -5.941406 c -0.152344,0 -0.3398439,0 -0.3398439,0.1992188 0,0.1992187 0.1874999,0.1992187 0.3281249,0.1992187 z m 0,0"
         style="fill:#417505;fill-opacity:1;fill-rule:nonzero;stroke:none" />
      <path
         id="path49"
         d="m 22.479781,-3.7137422 h 1.125 c -0.328125,1.4765625 -0.410156,1.8984375 -0.410156,2.5664063 0,0.15234371 0,0.42187496 0.07031,0.76171871 0.105468,0.43359375 0.210937,0.4921875 0.363281,0.4921875 0.199219,0 0.410156,-0.17578125 0.410156,-0.375 0,-0.0585938 0,-0.0820313 -0.05859,-0.22265625 -0.292968,-0.71484376 -0.292968,-1.35937496 -0.292968,-1.64062496 0,-0.5273438 0.07031,-1.0664063 0.175781,-1.5820313 h 1.136719 c 0.128906,0 0.492187,0 0.492187,-0.3398437 0,-0.234375 -0.210937,-0.234375 -0.398437,-0.234375 H 21.75322 c -0.210938,0 -0.597656,0 -1.03125,0.46875 -0.351563,0.3867187 -0.609375,0.84375 -0.609375,0.890625 0,0.011719 0,0.1054687 0.117187,0.1054687 0.08203,0 0.105469,-0.046875 0.164063,-0.1289062 0.480469,-0.7617188 1.066406,-0.7617188 1.265625,-0.7617188 h 0.5625 c -0.316406,1.2070313 -0.855469,2.4140625 -1.277344,3.31640626 -0.07031,0.15234375 -0.07031,0.1640625 -0.07031,0.234375 0,0.19921875 0.152343,0.26953125 0.28125,0.26953125 0.304687,0 0.386718,-0.26953125 0.503906,-0.64453125 0.140625,-0.45703125 0.140625,-0.48046876 0.269531,-0.97265626 z m 0,0"
         style="fill:#417505;fill-opacity:1;fill-rule:nonzero;stroke:none" />
    </g>
    <g
       id="g49"
       aria-label="ω=2π∼0"
       transform="matrix(1.3333333,0,0,1.3333333,300.484,9.9506667)">
      <path
         id="path50"
         d="m 6.0237188,-3.7042109 c 0,-0.4453125 -0.1757813,-0.703125 -0.3984375,-0.703125 -0.2578125,0 -0.5273438,0.2460937 -0.5273438,0.46875 0,0.1054687 0.046875,0.2109375 0.1523438,0.3046875 0.1640625,0.140625 0.3515625,0.4101562 0.3515625,0.8320312 0,0.3984375 -0.1875,0.9726563 -0.5039063,1.4296875 -0.2929687,0.42187501 -0.6679687,0.76171876 -1.1367187,0.76171876 -0.5625,0 -0.8671875,-0.3515625 -0.9609375,-0.89062496 0.1054687,-0.2578125 0.3398437,-0.9023438 0.3398437,-1.1835938 0,-0.1171875 -0.046875,-0.2109375 -0.1875,-0.2109375 -0.070312,0 -0.1875,0.011719 -0.2578125,0.1640625 -0.1171875,0.1992188 -0.234375,0.84375 -0.234375,1.2070313 -0.328125,0.46875 -0.7265625,0.91406246 -1.359375,0.91406246 -0.65625,0 -0.8671875,-0.58593746 -0.8671875,-1.14843746 0,-1.2421875 1.0195313,-2.2851563 1.0195313,-2.4140625 0,-0.1171875 -0.082031,-0.1875 -0.1875,-0.1875 -0.1289063,0 -0.1992188,0.1289062 -0.2578125,0.2109375 -0.5039063,0.7382812 -0.89062505,1.921875 -0.89062505,2.8359375 0,0.67968746 0.234375,1.41796871 1.04296875,1.41796871 0.7148438,0 1.1835938,-0.4921875 1.5351563,-1.04296875 0.09375,0.57421875 0.4804687,1.04296875 1.1015625,1.04296875 0.7734375,0 1.2539062,-0.609375 1.6171875,-1.34765621 0.234375,-0.4921875 0.609375,-1.8515625 0.609375,-2.4609375 z m 0,0"
         style="fill:#9013fe;fill-opacity:1;fill-rule:nonzero;stroke:none" />
      <path
         id="path51"
         d="m 16.172156,-3.2588984 c 0.152344,0 0.339844,0 0.339844,-0.1992188 0,-0.1992187 -0.1875,-0.1992187 -0.328125,-0.1992187 h -5.964844 c -0.140625,0 -0.3281247,0 -0.3281247,0.1992187 0,0.1992188 0.1874997,0.1992188 0.3398437,0.1992188 z m 0.01172,1.9335937 c 0.140625,0 0.328125,0 0.328125,-0.1992187 0,-0.1992188 -0.1875,-0.1992188 -0.339844,-0.1992188 H 10.23075 c -0.152344,0 -0.3398437,0 -0.3398437,0.1992188 0,0.1992187 0.1874997,0.1992187 0.3281247,0.1992187 z m 4.910156,0.56250001 1.054688,-1.03125001 c 1.558593,-1.3710937 2.15625,-1.9101562 2.15625,-2.90625 0,-1.1367187 -0.902344,-1.9335937 -2.121094,-1.9335937 -1.125,0 -1.851563,0.9140625 -1.851563,1.8046875 0,0.5507812 0.492188,0.5507812 0.527344,0.5507812 0.164063,0 0.515625,-0.1171875 0.515625,-0.5273437 0,-0.2578125 -0.1875,-0.515625 -0.527344,-0.515625 -0.08203,0 -0.105468,0 -0.128906,0.011719 0.222656,-0.6445312 0.761719,-1.0195312 1.335938,-1.0195312 0.914062,0 1.335937,0.8085937 1.335937,1.6289062 0,0.796875 -0.492187,1.5820313 -1.042969,2.203125 l -1.910156,2.13281251 c -0.105469,0.10546875 -0.105469,0.12890625 -0.105469,0.36328125 h 3.691407 l 0.28125,-1.73437496 h -0.257813 c -0.04687,0.3046875 -0.117187,0.73828121 -0.210937,0.89062496 -0.07031,0.0820313 -0.726563,0.0820313 -0.949219,0.0820313 z m 0,0"
         style="fill:#9013fe;fill-opacity:1;fill-rule:nonzero;stroke:none" />
      <path
         id="path52"
         d="m 27.460242,-3.7159297 h 1.125 c -0.328125,1.4765625 -0.410156,1.8984375 -0.410156,2.5664063 0,0.15234371 0,0.42187496 0.07031,0.76171871 0.105469,0.43359375 0.210938,0.4921875 0.363282,0.4921875 0.199218,0 0.410156,-0.17578125 0.410156,-0.375 0,-0.0585938 0,-0.0820313 -0.05859,-0.22265625 -0.292969,-0.71484376 -0.292969,-1.35937496 -0.292969,-1.64062496 0,-0.5273438 0.07031,-1.0664063 0.175782,-1.5820313 h 1.136718 c 0.128907,0 0.492188,0 0.492188,-0.3398437 0,-0.234375 -0.210938,-0.234375 -0.398438,-0.234375 H 26.73368 c -0.210938,0 -0.597657,0 -1.03125,0.46875 -0.351563,0.3867187 -0.609375,0.84375 -0.609375,0.890625 0,0.011719 0,0.1054687 0.117187,0.1054687 0.08203,0 0.105469,-0.046875 0.164063,-0.1289062 0.480468,-0.7617188 1.066406,-0.7617188 1.265625,-0.7617188 h 0.5625 c -0.316407,1.2070313 -0.855469,2.4140625 -1.277344,3.31640626 -0.07031,0.15234375 -0.07031,0.1640625 -0.07031,0.234375 0,0.19921875 0.152344,0.26953125 0.28125,0.26953125 0.304688,0 0.386719,-0.26953125 0.503907,-0.64453125 0.140625,-0.45703125 0.140625,-0.48046876 0.269531,-0.97265626 z m 0,0"
         style="fill:#9013fe;fill-opacity:1;fill-rule:nonzero;stroke:none" />
      <path
         id="path53"
         d="m 40.822547,-3.3292109 c 0,-0.2226563 -0.05859,-0.3164063 -0.140625,-0.3164063 -0.04687,0 -0.128906,0.070312 -0.140625,0.2578125 -0.03516,0.9609375 -0.703125,1.5 -1.394531,1.5 -0.632813,0 -1.101563,-0.421875 -1.59375,-0.8554687 -0.503907,-0.4570313 -1.03125,-0.9140625 -1.699219,-0.9140625 -1.089844,0 -1.675781,1.1015625 -1.675781,2.0039062 0,0.3164063 0.128906,0.3164063 0.140625,0.3164063 0.105468,0 0.140625,-0.1992188 0.140625,-0.2226563 0.03516,-1.1015625 0.785156,-1.5351562 1.394531,-1.5351562 0.621094,0 1.101562,0.421875 1.59375,0.8554687 0.503906,0.4570313 1.019531,0.9140625 1.699219,0.9140625 1.089843,0 1.675781,-1.1015625 1.675781,-2.0039062 z m 0,0"
         style="fill:#9013fe;fill-opacity:1;fill-rule:nonzero;stroke:none" />
      <path
         id="path54"
         d="m 48.726844,-3.1885859 c 0,-0.796875 -0.04687,-1.59375 -0.398438,-2.3320313 -0.457031,-0.9609375 -1.277344,-1.1132812 -1.6875,-1.1132812 -0.597656,0 -1.335937,0.2578125 -1.734375,1.1835937 -0.328125,0.6914063 -0.375,1.4648438 -0.375,2.2617188 0,0.75 0.04687,1.640625 0.445313,2.40234371 0.433593,0.80859375 1.160156,1.0078125 1.652343,1.0078125 0.539063,0 1.289063,-0.2109375 1.734375,-1.16015625 0.316407,-0.69140626 0.363282,-1.46484376 0.363282,-2.24999996 z m -2.097657,3.18749996 c -0.386718,0 -0.984375,-0.24609375 -1.160156,-1.20703126 -0.105469,-0.5976562 -0.105469,-1.5117187 -0.105469,-2.0976562 0,-0.6445313 0,-1.3007813 0.08203,-1.8398438 0.1875,-1.1835937 0.925781,-1.265625 1.183593,-1.265625 0.328125,0 0.984375,0.1757813 1.171875,1.1601563 0.09375,0.5625 0.09375,1.3125 0.09375,1.9453125 0,0.75 0,1.4179687 -0.105468,2.0625 -0.152344,0.93749996 -0.714844,1.24218746 -1.160157,1.24218746 z m 0,0"
         style="fill:#9013fe;fill-opacity:1;fill-rule:nonzero;stroke:none" />
    </g>
    <g
       id="g54"
       aria-label="ω=&#10;4π"
       transform="matrix(1.3333333,0,0,1.3333333,174.11067,136.37467)">
      <path
         id="path55"
         d="m 6.0224688,-3.702875 c 0,-0.4453125 -0.1757813,-0.703125 -0.3984375,-0.703125 -0.2578125,0 -0.5273438,0.2460937 -0.5273438,0.46875 0,0.1054687 0.046875,0.2109375 0.1523438,0.3046875 0.1640625,0.140625 0.3515625,0.4101562 0.3515625,0.8320312 0,0.3984375 -0.1875,0.9726563 -0.5039063,1.4296875 -0.2929687,0.42187505 -0.6679687,0.7617188 -1.1367187,0.7617188 -0.5625,0 -0.8671875,-0.3515625 -0.9609375,-0.890625 C 3.1045,-1.7575625 3.338875,-2.4020938 3.338875,-2.6833438 c 0,-0.1171875 -0.046875,-0.2109375 -0.1875,-0.2109375 -0.070312,0 -0.1875,0.011719 -0.2578125,0.1640625 -0.1171875,0.1992188 -0.234375,0.84375 -0.234375,1.2070313 -0.328125,0.46875 -0.7265625,0.9140625 -1.359375,0.9140625 -0.65625,0 -0.8671875,-0.5859375 -0.8671875,-1.1484375 0,-1.2421875 1.0195313,-2.2851563 1.0195313,-2.4140625 0,-0.1171875 -0.082031,-0.1875 -0.1875,-0.1875 -0.1289063,0 -0.1992188,0.1289062 -0.2578125,0.2109375 -0.5039063,0.7382812 -0.89062505,1.921875 -0.89062505,2.8359375 0,0.6796875 0.234375,1.41796875 1.04296875,1.41796875 0.7148438,0 1.1835938,-0.4921875 1.5351563,-1.04296875 0.09375,0.57421875 0.4804687,1.04296875 1.1015625,1.04296875 0.7734375,0 1.2539062,-0.609375 1.6171875,-1.34765625 0.234375,-0.4921875 0.609375,-1.8515625 0.609375,-2.4609375 z m 0,0"
         style="fill:#9013fe;fill-opacity:1;fill-rule:nonzero;stroke:none" />
      <path
         id="path56"
         d="m 16.170906,-3.2575625 c 0.152344,0 0.339844,0 0.339844,-0.1992188 C 16.51075,-3.656 16.32325,-3.656 16.182625,-3.656 h -5.964844 c -0.140625,0 -0.3281247,0 -0.3281247,0.1992187 0,0.1992188 0.1874997,0.1992188 0.3398437,0.1992188 z m 0.01172,1.9335937 c 0.140625,0 0.328125,0 0.328125,-0.1992187 0,-0.1992188 -0.1875,-0.1992188 -0.339844,-0.1992188 H 10.2295 c -0.152344,0 -0.3398437,0 -0.3398437,0.1992188 0,0.1992187 0.1874997,0.1992187 0.3281247,0.1992187 z m 0,0"
         style="fill:#9013fe;fill-opacity:1;fill-rule:nonzero;stroke:none" />
      <path
         id="path57"
         d="m 24.728523,-5.0710391 v -0.2460937 h -0.773437 v -3.1054688 c 0,-0.1523437 0,-0.1992187 -0.152344,-0.1992187 -0.09375,0 -0.117187,0 -0.1875,0.09375 l -2.308594,3.2109375 v 0.2460937 h 2.050782 v 0.5742188 c 0,0.234375 0,0.328125 -0.5625,0.328125 h -0.1875 v 0.2460937 c 0.351562,-0.011719 0.796875,-0.023437 1.042968,-0.023437 0.257813,0 0.703125,0.011719 1.054688,0.023437 v -0.2460937 h -0.1875 c -0.5625,0 -0.5625,-0.09375 -0.5625,-0.328125 v -0.5742188 z m -1.324218,-2.8007812 v 2.5546875 h -1.839844 z m 0,0"
         style="fill:#9013fe;fill-opacity:1;fill-rule:nonzero;stroke:none" />
      <path
         id="path58"
         d="m 27.177742,-6.4538516 h 0.832031 c -0.105468,0.421875 -0.257812,1.0546875 -0.257812,1.6054688 0,0.28125 0.03516,0.46875 0.07031,0.6210937 0.117188,0.3515625 0.210938,0.375 0.316407,0.375 0.164062,0 0.328125,-0.1523437 0.328125,-0.3164062 0,-0.058594 -0.01172,-0.082031 -0.05859,-0.1523438 -0.128906,-0.2578125 -0.257813,-0.65625 -0.257813,-1.2304687 0,-0.1289063 0,-0.4101563 0.105469,-0.9023438 h 0.867188 c 0.128906,0 0.1875,0 0.257812,-0.058594 0.09375,-0.070312 0.117188,-0.1757813 0.117188,-0.2109375 0,-0.1992188 -0.175782,-0.1992188 -0.292969,-0.1992188 h -2.636719 c -0.28125,0 -0.480469,0.058594 -0.796875,0.3515625 -0.175781,0.1640625 -0.445312,0.5390625 -0.445312,0.5976563 0,0.082031 0.09375,0.082031 0.117187,0.082031 0.07031,0 0.08203,-0.011719 0.128906,-0.070312 0.351563,-0.4921875 0.785157,-0.4921875 0.9375,-0.4921875 h 0.421875 c -0.210937,0.7617188 -0.585937,1.59375 -0.796875,2.0039063 -0.04687,0.09375 -0.117187,0.2460937 -0.140625,0.2695312 0,0.023437 -0.01172,0.058594 -0.01172,0.1054688 0,0.1054687 0.08203,0.2226562 0.246093,0.2226562 0.269532,0 0.351563,-0.3164062 0.515625,-0.9375 z m 0,0"
         style="fill:#9013fe;fill-opacity:1;fill-rule:nonzero;stroke:none" />
    </g>
    <path
       id="path59"
       d="m -54.853,97.577 h 8.88"
       style="fill:none;stroke:#9013fe;stroke-width:0.3985;stroke-linecap:butt;stroke-linejoin:miter;stroke-miterlimit:10;stroke-dasharray:none;stroke-opacity:1"
       transform="matrix(1.3333333,0,0,-1.3333333,275.29867,263.156)" />
    <path
       id="path60"
       d="m 1.8976328,-2.3331875 c 0.5507813,0 0.9375,0.375 0.9375,1.125 0,0.8671875 -0.5039062,1.125 -0.9023437,1.125 -0.28125,0 -0.890625,-0.08203125 -1.18359379,-0.4921875 0.32812499,-0.0117188 0.39843749,-0.24609375 0.39843749,-0.38671875 0,-0.22265625 -0.16406249,-0.38671875 -0.38671874,-0.38671875 -0.1875,0 -0.38671875,0.1171875 -0.38671875,0.41015625 0,0.65625 0.72656249,1.078125 1.57031249,1.078125 0.9726563,0 1.640625,-0.64453125 1.640625,-1.34765625 0,-0.5390625 -0.4453125,-1.0898438 -1.21875,-1.2421875 0.7382813,-0.2695313 0.9960938,-0.796875 0.9960938,-1.21875 0,-0.5507813 -0.6328125,-0.9609375 -1.40625,-0.9609375 -0.7734375,0 -1.35937504,0.375 -1.35937504,0.9375 0,0.234375 0.15234375,0.3632812 0.36328125,0.3632812 0.21093749,0 0.35156249,-0.1640625 0.35156249,-0.3515625 0,-0.1992187 -0.140625,-0.3515625 -0.35156249,-0.3632812 0.23437499,-0.3046875 0.71484379,-0.3867188 0.97265629,-0.3867188 0.3164062,0 0.7617187,0.1523438 0.7617187,0.7617188 0,0.2929687 -0.1054687,0.609375 -0.28125,0.8320312 -0.234375,0.2578125 -0.421875,0.28125 -0.7734375,0.2929688 -0.1757812,0.023437 -0.1875,0.023437 -0.2226562,0.023437 -0.011719,0 -0.070312,0.011719 -0.070312,0.09375 0,0.09375 0.058594,0.09375 0.1757812,0.09375 z m 0,0"
       style="fill:#9013fe;fill-opacity:1;fill-rule:nonzero;stroke:none"
       aria-label="3"
       transform="matrix(1.3333333,0,0,1.3333333,205.43467,140.95467)" />
    <g
       id="g60"
       aria-label="ω=&#10;8π"
       transform="matrix(1.3333333,0,0,1.3333333,5.4186667,136.37467)">
      <path
         id="path61"
         d="m 6.0229141,-3.702875 c 0,-0.4453125 -0.1757813,-0.703125 -0.3984375,-0.703125 -0.2578125,0 -0.5273438,0.2460937 -0.5273438,0.46875 0,0.1054687 0.046875,0.2109375 0.1523438,0.3046875 0.1640625,0.140625 0.3515625,0.4101562 0.3515625,0.8320312 0,0.3984375 -0.1875,0.9726563 -0.5039063,1.4296875 -0.2929687,0.42187505 -0.6679687,0.7617188 -1.1367187,0.7617188 -0.5625,0 -0.8671875,-0.3515625 -0.9609375,-0.890625 0.1054687,-0.2578125 0.3398437,-0.9023438 0.3398437,-1.1835938 0,-0.1171875 -0.046875,-0.2109375 -0.1875,-0.2109375 -0.070312,0 -0.1875,0.011719 -0.2578125,0.1640625 -0.1171875,0.1992188 -0.234375,0.84375 -0.234375,1.2070313 -0.328125,0.46875 -0.7265625,0.9140625 -1.359375,0.9140625 -0.65624999,0 -0.86718749,-0.5859375 -0.86718749,-1.1484375 0,-1.2421875 1.01953129,-2.2851563 1.01953129,-2.4140625 0,-0.1171875 -0.082031,-0.1875 -0.1875,-0.1875 -0.1289063,0 -0.1992188,0.1289062 -0.2578125,0.2109375 -0.50390629,0.7382812 -0.89062504,1.921875 -0.89062504,2.8359375 0,0.6796875 0.234375,1.41796875 1.04296874,1.41796875 0.7148438,0 1.1835938,-0.4921875 1.5351563,-1.04296875 0.09375,0.57421875 0.4804687,1.04296875 1.1015625,1.04296875 0.7734375,0 1.2539062,-0.609375 1.6171875,-1.34765625 0.234375,-0.4921875 0.609375,-1.8515625 0.609375,-2.4609375 z m 0,0"
         style="fill:#9013fe;fill-opacity:1;fill-rule:nonzero;stroke:none" />
      <path
         id="path62"
         d="m 16.171352,-3.2575625 c 0.152343,0 0.339843,0 0.339843,-0.1992188 C 16.511195,-3.656 16.323695,-3.656 16.18307,-3.656 h -5.964843 c -0.140625,0 -0.3281254,0 -0.3281254,0.1992187 0,0.1992188 0.1875004,0.1992188 0.3398434,0.1992188 z m 0.01172,1.9335937 c 0.140625,0 0.328125,0 0.328125,-0.1992187 0,-0.1992188 -0.1875,-0.1992188 -0.339843,-0.1992188 h -5.941407 c -0.152343,0 -0.3398434,0 -0.3398434,0.1992188 0,0.1992187 0.1875004,0.1992187 0.3281254,0.1992187 z m 0,0"
         style="fill:#9013fe;fill-opacity:1;fill-rule:nonzero;stroke:none" />
      <path
         id="path63"
         d="m 23.510219,-6.4421328 c 0.550781,-0.2578125 0.890625,-0.5859375 0.890625,-1.0664063 0,-0.6796875 -0.703125,-1.0429687 -1.371094,-1.0429687 -0.773438,0 -1.394531,0.5039062 -1.394531,1.1601562 0,0.328125 0.152343,0.5625 0.269531,0.703125 0.128906,0.1523438 0.175781,0.1757813 0.585937,0.421875 -0.386718,0.1640625 -1.078125,0.5390625 -1.078125,1.2773438 0,0.7734375 0.808594,1.2070312 1.59375,1.2070312 0.890625,0 1.617188,-0.5625 1.617188,-1.3242187 0,-0.4570313 -0.269531,-0.84375 -0.679688,-1.078125 -0.09375,-0.058594 -0.328125,-0.1992188 -0.433593,-0.2578125 z m -1.136719,-0.65625 c -0.175781,-0.1054688 -0.375,-0.2929688 -0.375,-0.5507813 0,-0.4453125 0.515625,-0.703125 1.007812,-0.703125 0.550782,0 1.03125,0.3398438 1.03125,0.84375 0,0.6210938 -0.726562,0.9257813 -0.738281,0.9257813 -0.01172,0 -0.03516,0 -0.08203,-0.035156 z m 0.339844,0.9609375 0.960937,0.5507812 c 0.175781,0.1054688 0.527344,0.3164063 0.527344,0.7265625 0,0.5273438 -0.574219,0.8554688 -1.171875,0.8554688 -0.644531,0 -1.195313,-0.4101563 -1.195313,-0.984375 0,-0.515625 0.386719,-0.9140625 0.878907,-1.1484375 z m 0,0"
         style="fill:#9013fe;fill-opacity:1;fill-rule:nonzero;stroke:none" />
      <path
         id="path64"
         d="m 27.178187,-6.4538516 h 0.832032 c -0.105469,0.421875 -0.257813,1.0546875 -0.257813,1.6054688 0,0.28125 0.03516,0.46875 0.07031,0.6210937 0.117187,0.3515625 0.210937,0.375 0.316406,0.375 0.164062,0 0.328125,-0.1523437 0.328125,-0.3164062 0,-0.058594 -0.01172,-0.082031 -0.05859,-0.1523438 -0.128906,-0.2578125 -0.257812,-0.65625 -0.257812,-1.2304687 0,-0.1289063 0,-0.4101563 0.105468,-0.9023438 H 29.1235 c 0.128906,0 0.1875,0 0.257812,-0.058594 0.09375,-0.070312 0.117188,-0.1757813 0.117188,-0.2109375 0,-0.1992188 -0.175781,-0.1992188 -0.292969,-0.1992188 h -2.636719 c -0.28125,0 -0.480468,0.058594 -0.796875,0.3515625 -0.175781,0.1640625 -0.445312,0.5390625 -0.445312,0.5976563 0,0.082031 0.09375,0.082031 0.117187,0.082031 0.07031,0 0.08203,-0.011719 0.128907,-0.070312 0.351562,-0.4921875 0.785156,-0.4921875 0.9375,-0.4921875 h 0.421875 c -0.210938,0.7617188 -0.585938,1.59375 -0.796875,2.0039063 -0.04687,0.09375 -0.117188,0.2460937 -0.140625,0.2695312 0,0.023437 -0.01172,0.058594 -0.01172,0.1054688 0,0.1054687 0.08203,0.2226562 0.246094,0.2226562 0.269531,0 0.351562,-0.3164062 0.515625,-0.9375 z m 0,0"
         style="fill:#9013fe;fill-opacity:1;fill-rule:nonzero;stroke:none" />
    </g>
    <path
       id="path65"
       d="m -54.853,97.577 h 8.88"
       style="fill:none;stroke:#9013fe;stroke-width:0.3985;stroke-linecap:butt;stroke-linejoin:miter;stroke-miterlimit:10;stroke-dasharray:none;stroke-opacity:1"
       transform="matrix(1.3333333,0,0,-1.3333333,106.60667,263.156)" />
    <path
       id="path66"
       d="m 1.8980781,-2.3331875 c 0.5507813,0 0.9375,0.375 0.9375,1.125 0,0.8671875 -0.5039062,1.125 -0.9023437,1.125 -0.28125,0 -0.890625,-0.08203125 -1.18359377,-0.4921875 0.32812497,-0.0117188 0.39843747,-0.24609375 0.39843747,-0.38671875 0,-0.22265625 -0.16406247,-0.38671875 -0.38671872,-0.38671875 -0.1875,0 -0.38671875,0.1171875 -0.38671875,0.41015625 0,0.65625 0.72656247,1.078125 1.57031247,1.078125 0.9726563,0 1.640625,-0.64453125 1.640625,-1.34765625 0,-0.5390625 -0.4453125,-1.0898438 -1.21875,-1.2421875 0.7382813,-0.2695313 0.9960938,-0.796875 0.9960938,-1.21875 0,-0.5507813 -0.6328125,-0.9609375 -1.40625,-0.9609375 -0.7734375,0 -1.35937502,0.375 -1.35937502,0.9375 0,0.234375 0.15234375,0.3632812 0.36328125,0.3632812 0.21093747,0 0.35156247,-0.1640625 0.35156247,-0.3515625 0,-0.1992187 -0.140625,-0.3515625 -0.35156247,-0.3632812 0.23437497,-0.3046875 0.71484377,-0.3867188 0.97265627,-0.3867188 0.3164062,0 0.7617187,0.1523438 0.7617187,0.7617188 0,0.2929687 -0.1054687,0.609375 -0.28125,0.8320312 -0.234375,0.2578125 -0.421875,0.28125 -0.7734375,0.2929688 -0.1757812,0.023437 -0.1875,0.023437 -0.2226562,0.023437 -0.011719,0 -0.070312,0.011719 -0.070312,0.09375 0,0.09375 0.058594,0.09375 0.1757812,0.09375 z m 0,0"
       style="fill:#9013fe;fill-opacity:1;fill-rule:nonzero;stroke:none"
       aria-label="3"
       transform="matrix(1.3333333,0,0,1.3333333,36.742667,140.95467)" />
    <g
       id="g66"
       aria-label="ω=&#10;4π"
       transform="matrix(1.3333333,0,0,1.3333333,228.204,42.638667)">
      <path
         id="path67"
         d="m 6.0227813,-3.7045859 c 0,-0.4453125 -0.1757813,-0.703125 -0.3984375,-0.703125 -0.2578125,0 -0.5273438,0.2460937 -0.5273438,0.46875 0,0.1054687 0.046875,0.2109375 0.1523438,0.3046875 0.1640625,0.140625 0.3515625,0.4101562 0.3515625,0.8320312 0,0.3984375 -0.1875,0.9726563 -0.5039063,1.4296875 -0.2929687,0.42187501 -0.6679687,0.76171876 -1.1367187,0.76171876 -0.5625,0 -0.8671875,-0.3515625 -0.9609375,-0.89062496 0.1054687,-0.2578125 0.3398437,-0.9023438 0.3398437,-1.1835938 0,-0.1171875 -0.046875,-0.2109375 -0.1875,-0.2109375 -0.070312,0 -0.1875,0.011719 -0.2578125,0.1640625 -0.1171875,0.1992188 -0.234375,0.84375 -0.234375,1.2070313 -0.328125,0.46875 -0.7265625,0.91406246 -1.359375,0.91406246 -0.65625,0 -0.8671875,-0.58593746 -0.8671875,-1.14843746 0,-1.2421875 1.0195313,-2.2851563 1.0195313,-2.4140625 0,-0.1171875 -0.082031,-0.1875 -0.1875,-0.1875 -0.1289063,0 -0.1992188,0.1289062 -0.2578125,0.2109375 -0.5039063,0.7382812 -0.89062505,1.921875 -0.89062505,2.8359375 0,0.67968746 0.234375,1.41796871 1.04296875,1.41796871 0.7148438,0 1.1835938,-0.4921875 1.5351563,-1.04296875 0.09375,0.57421875 0.4804687,1.04296875 1.1015625,1.04296875 0.7734375,0 1.2539062,-0.609375 1.6171875,-1.34765621 0.234375,-0.4921875 0.609375,-1.8515625 0.609375,-2.4609375 z m 0,0"
         style="fill:#9013fe;fill-opacity:1;fill-rule:nonzero;stroke:none" />
      <path
         id="path68"
         d="m 16.171219,-3.2592734 c 0.152344,0 0.339844,0 0.339844,-0.1992188 0,-0.1992187 -0.1875,-0.1992187 -0.328125,-0.1992187 h -5.964844 c -0.140625,0 -0.3281252,0 -0.3281252,0.1992187 0,0.1992188 0.1875002,0.1992188 0.3398442,0.1992188 z m 0.01172,1.9335937 c 0.140625,0 0.328125,0 0.328125,-0.1992187 0,-0.1992188 -0.1875,-0.1992188 -0.339844,-0.1992188 h -5.941406 c -0.152344,0 -0.3398442,0 -0.3398442,0.1992188 0,0.1992187 0.1875002,0.1992187 0.3281252,0.1992187 z m 0,0"
         style="fill:#9013fe;fill-opacity:1;fill-rule:nonzero;stroke:none" />
      <path
         id="path69"
         d="m 24.728836,-5.07275 v -0.2460938 h -0.773438 v -3.1054687 c 0,-0.1523438 0,-0.1992188 -0.152343,-0.1992188 -0.09375,0 -0.117188,0 -0.1875,0.09375 l -2.308594,3.2109375 V -5.07275 h 2.050781 v 0.5742187 c 0,0.234375 0,0.328125 -0.5625,0.328125 h -0.1875 v 0.2460938 c 0.351563,-0.011719 0.796875,-0.023437 1.042969,-0.023437 0.257812,0 0.703125,0.011719 1.054687,0.023437 v -0.2460938 h -0.1875 c -0.5625,0 -0.5625,-0.09375 -0.5625,-0.328125 V -5.07275 Z m -1.324219,-2.8007813 v 2.5546875 h -1.839844 z m 0,0"
         style="fill:#9013fe;fill-opacity:1;fill-rule:nonzero;stroke:none" />
      <path
         id="path70"
         d="m 27.178055,-6.4555625 h 0.832031 c -0.105469,0.421875 -0.257813,1.0546875 -0.257813,1.6054687 0,0.28125 0.03516,0.46875 0.07031,0.6210938 0.117187,0.3515625 0.210937,0.375 0.316406,0.375 0.164063,0 0.328125,-0.1523438 0.328125,-0.3164063 0,-0.058594 -0.01172,-0.082031 -0.05859,-0.1523437 -0.128906,-0.2578125 -0.257812,-0.65625 -0.257812,-1.2304688 0,-0.1289062 0,-0.4101562 0.105469,-0.9023437 h 0.867187 c 0.128906,0 0.1875,0 0.257813,-0.058594 0.09375,-0.070312 0.117187,-0.1757812 0.117187,-0.2109375 0,-0.1992187 -0.175781,-0.1992187 -0.292969,-0.1992187 H 26.56868 c -0.28125,0 -0.480469,0.058594 -0.796875,0.3515625 -0.175782,0.1640625 -0.445313,0.5390625 -0.445313,0.5976562 0,0.082031 0.09375,0.082031 0.117188,0.082031 0.07031,0 0.08203,-0.011719 0.128906,-0.070312 0.351562,-0.4921875 0.785156,-0.4921875 0.9375,-0.4921875 h 0.421875 c -0.210938,0.7617187 -0.585938,1.59375 -0.796875,2.0039062 -0.04687,0.09375 -0.117188,0.2460938 -0.140625,0.2695313 0,0.023437 -0.01172,0.058594 -0.01172,0.1054687 0,0.1054688 0.08203,0.2226563 0.246094,0.2226563 0.269531,0 0.351562,-0.3164063 0.515625,-0.9375 z m 0,0"
         style="fill:#9013fe;fill-opacity:1;fill-rule:nonzero;stroke:none" />
    </g>
    <path
       id="path71"
       d="m -54.853,97.577 h 8.88"
       style="fill:none;stroke:#9013fe;stroke-width:0.3985;stroke-linecap:butt;stroke-linejoin:miter;stroke-miterlimit:10;stroke-dasharray:none;stroke-opacity:1"
       transform="matrix(1.3333333,0,0,-1.3333333,329.392,169.42)" />
    <path
       id="path72"
       d="m 1.8979453,-2.3319688 c 0.5507813,0 0.9375,0.375 0.9375,1.125 0,0.86718755 -0.5039062,1.12500005 -0.9023437,1.12500005 -0.28125,0 -0.890625,-0.08203125 -1.18359379,-0.4921875 C 1.0776328,-0.585875 1.1479453,-0.82025 1.1479453,-0.960875 c 0,-0.2226563 -0.16406249,-0.3867188 -0.38671874,-0.3867188 -0.1875,0 -0.38671875,0.1171875 -0.38671875,0.4101563 0,0.65625 0.72656249,1.078125 1.57031249,1.078125 0.9726563,0 1.640625,-0.64453125 1.640625,-1.3476563 0,-0.5390625 -0.4453125,-1.0898437 -1.21875,-1.2421875 0.7382813,-0.2695312 0.9960938,-0.796875 0.9960938,-1.21875 0,-0.5507812 -0.6328125,-0.9609375 -1.40625,-0.9609375 -0.7734375,0 -1.35937504,0.375 -1.35937504,0.9375 0,0.234375 0.15234375,0.3632813 0.36328125,0.3632813 0.21093749,0 0.35156249,-0.1640625 0.35156249,-0.3515625 0,-0.1992188 -0.140625,-0.3515625 -0.35156249,-0.3632813 C 1.1948203,-4.3475938 1.6752891,-4.429625 1.9331016,-4.429625 c 0.3164062,0 0.7617187,0.1523437 0.7617187,0.7617187 0,0.2929688 -0.1054687,0.609375 -0.28125,0.8320313 -0.234375,0.2578125 -0.421875,0.28125 -0.7734375,0.2929687 -0.1757812,0.023437 -0.1875,0.023437 -0.2226562,0.023437 -0.011719,0 -0.070312,0.011719 -0.070312,0.09375 0,0.09375 0.058594,0.09375 0.1757812,0.09375 z m 0,0"
       style="fill:#9013fe;fill-opacity:1;fill-rule:nonzero;stroke:none"
       aria-label="3"
       transform="matrix(1.3333333,0,0,1.3333333,259.528,47.218667)" />
    <g
       id="g72"
       aria-label="ω=&#10;2π"
       transform="matrix(1.3333333,0,0,1.3333333,396.896,42.638667)">
      <path
         id="path73"
         d="m 6.0223359,-3.7045859 c 0,-0.4453125 -0.1757812,-0.703125 -0.3984375,-0.703125 -0.2578125,0 -0.5273437,0.2460937 -0.5273437,0.46875 0,0.1054687 0.046875,0.2109375 0.1523437,0.3046875 0.1640625,0.140625 0.3515625,0.4101562 0.3515625,0.8320312 0,0.3984375 -0.1875,0.9726563 -0.5039062,1.4296875 -0.2929688,0.42187501 -0.6679688,0.76171876 -1.1367188,0.76171876 -0.5625,0 -0.8671875,-0.3515625 -0.9609375,-0.89062496 0.1054688,-0.2578125 0.3398438,-0.9023438 0.3398438,-1.1835938 0,-0.1171875 -0.046875,-0.2109375 -0.1875,-0.2109375 -0.070312,0 -0.1875,0.011719 -0.2578125,0.1640625 -0.1171875,0.1992188 -0.234375,0.84375 -0.234375,1.2070313 -0.328125,0.46875 -0.7265625,0.91406246 -1.359375,0.91406246 -0.65625001,0 -0.86718751,-0.58593746 -0.86718751,-1.14843746 0,-1.2421875 1.01953121,-2.2851563 1.01953121,-2.4140625 0,-0.1171875 -0.082031,-0.1875 -0.1875,-0.1875 -0.1289062,0 -0.1992187,0.1289062 -0.2578125,0.2109375 -0.50390621,0.7382812 -0.89062496,1.921875 -0.89062496,2.8359375 0,0.67968746 0.234375,1.41796871 1.04296876,1.41796871 0.7148437,0 1.1835937,-0.4921875 1.5351562,-1.04296875 0.09375,0.57421875 0.4804688,1.04296875 1.1015625,1.04296875 0.7734375,0 1.2539063,-0.609375 1.6171875,-1.34765621 0.234375,-0.4921875 0.609375,-1.8515625 0.609375,-2.4609375 z m 0,0"
         style="fill:#9013fe;fill-opacity:1;fill-rule:nonzero;stroke:none" />
      <path
         id="path74"
         d="m 16.170773,-3.2592734 c 0.152344,0 0.339844,0 0.339844,-0.1992188 0,-0.1992187 -0.1875,-0.1992187 -0.328125,-0.1992187 h -5.964844 c -0.140625,0 -0.3281246,0 -0.3281246,0.1992187 0,0.1992188 0.1874996,0.1992188 0.3398436,0.1992188 z m 0.01172,1.9335937 c 0.140625,0 0.328125,0 0.328125,-0.1992187 0,-0.1992188 -0.1875,-0.1992188 -0.339844,-0.1992188 h -5.941406 c -0.152344,0 -0.3398436,0 -0.3398436,0.1992188 0,0.1992187 0.1874996,0.1992187 0.3281246,0.1992187 z m 0,0"
         style="fill:#9013fe;fill-opacity:1;fill-rule:nonzero;stroke:none" />
      <path
         id="path75"
         d="m 24.552609,-5.1899375 h -0.234375 c -0.02344,0.1523437 -0.08203,0.5625 -0.175781,0.6328125 -0.05859,0.035156 -0.597656,0.035156 -0.691406,0.035156 h -1.289063 c 0.738282,-0.6445312 0.984375,-0.84375 1.394532,-1.171875 0.515625,-0.4101562 0.996093,-0.84375 0.996093,-1.5 0,-0.84375 -0.738281,-1.359375 -1.628906,-1.359375 -0.867187,0 -1.453125,0.609375 -1.453125,1.2421875 0,0.3632813 0.304688,0.3984375 0.375,0.3984375 0.164063,0 0.375,-0.1171875 0.375,-0.375 0,-0.1289062 -0.05859,-0.3632812 -0.421875,-0.3632812 0.222656,-0.5039063 0.691406,-0.65625 1.019531,-0.65625 0.703125,0 1.066407,0.5507812 1.066407,1.1132812 0,0.609375 -0.433594,1.0898438 -0.65625,1.3359375 l -1.6875,1.6640625 c -0.07031,0.058594 -0.07031,0.070312 -0.07031,0.2695313 h 2.882813 z m 0,0"
         style="fill:#9013fe;fill-opacity:1;fill-rule:nonzero;stroke:none" />
      <path
         id="path76"
         d="m 27.177609,-6.4555625 h 0.832032 c -0.105469,0.421875 -0.257813,1.0546875 -0.257813,1.6054687 0,0.28125 0.03516,0.46875 0.07031,0.6210938 0.117187,0.3515625 0.210937,0.375 0.316406,0.375 0.164062,0 0.328125,-0.1523438 0.328125,-0.3164063 0,-0.058594 -0.01172,-0.082031 -0.05859,-0.1523437 -0.128906,-0.2578125 -0.257812,-0.65625 -0.257812,-1.2304688 0,-0.1289062 0,-0.4101562 0.105468,-0.9023437 h 0.867188 c 0.128906,0 0.1875,0 0.257812,-0.058594 0.09375,-0.070312 0.117188,-0.1757812 0.117188,-0.2109375 0,-0.1992187 -0.175781,-0.1992187 -0.292969,-0.1992187 h -2.636719 c -0.28125,0 -0.480468,0.058594 -0.796875,0.3515625 -0.175781,0.1640625 -0.445312,0.5390625 -0.445312,0.5976562 0,0.082031 0.09375,0.082031 0.117187,0.082031 0.07031,0 0.08203,-0.011719 0.128907,-0.070312 0.351562,-0.4921875 0.785156,-0.4921875 0.9375,-0.4921875 h 0.421875 c -0.210938,0.7617187 -0.585938,1.59375 -0.796875,2.0039062 -0.04687,0.09375 -0.117188,0.2460938 -0.140625,0.2695313 0,0.023437 -0.01172,0.058594 -0.01172,0.1054687 0,0.1054688 0.08203,0.2226563 0.246094,0.2226563 0.269531,0 0.351562,-0.3164063 0.515625,-0.9375 z m 0,0"
         style="fill:#9013fe;fill-opacity:1;fill-rule:nonzero;stroke:none" />
    </g>
    <path
       id="path77"
       d="m -54.853,97.577 h 8.88"
       style="fill:none;stroke:#9013fe;stroke-width:0.3985;stroke-linecap:butt;stroke-linejoin:miter;stroke-miterlimit:10;stroke-dasharray:none;stroke-opacity:1"
       transform="matrix(1.3333333,0,0,-1.3333333,498.084,169.42)" />
    <path
       id="path78"
       d="m 1.8975,-2.3319688 c 0.5507813,0 0.9375,0.375 0.9375,1.125 0,0.86718755 -0.5039062,1.12500005 -0.9023437,1.12500005 -0.28125,0 -0.890625,-0.08203125 -1.1835938,-0.4921875 C 1.0771875,-0.585875 1.1475,-0.82025 1.1475,-0.960875 c 0,-0.2226563 -0.1640625,-0.3867188 -0.38671875,-0.3867188 -0.1875,0 -0.38671875,0.1171875 -0.38671875,0.4101563 0,0.65625 0.7265625,1.078125 1.5703125,1.078125 0.9726563,0 1.640625,-0.64453125 1.640625,-1.3476563 0,-0.5390625 -0.4453125,-1.0898437 -1.21875,-1.2421875 0.7382813,-0.2695312 0.9960938,-0.796875 0.9960938,-1.21875 0,-0.5507812 -0.6328125,-0.9609375 -1.40625,-0.9609375 -0.7734375,0 -1.35937505,0.375 -1.35937505,0.9375 0,0.234375 0.15234375,0.3632813 0.36328125,0.3632813 0.2109375,0 0.3515625,-0.1640625 0.3515625,-0.3515625 0,-0.1992188 -0.140625,-0.3515625 -0.3515625,-0.3632813 0.234375,-0.3046875 0.7148438,-0.3867187 0.9726563,-0.3867187 0.3164062,0 0.7617187,0.1523437 0.7617187,0.7617187 0,0.2929688 -0.1054687,0.609375 -0.28125,0.8320313 -0.234375,0.2578125 -0.421875,0.28125 -0.7734375,0.2929687 -0.1757812,0.023437 -0.1875,0.023437 -0.2226562,0.023437 -0.011719,0 -0.070312,0.011719 -0.070312,0.09375 0,0.09375 0.058594,0.09375 0.1757812,0.09375 z m 0,0"
       style="fill:#9013fe;fill-opacity:1;fill-rule:nonzero;stroke:none"
       aria-label="3"
       transform="matrix(1.3333333,0,0,1.3333333,428.22,47.218667)" />
  </g>
</svg>
