<?xml version="1.0" encoding="UTF-8" standalone="no"?>
<!-- Created with Inkscape (http://www.inkscape.org/) -->

<svg
   version="1.1"
   id="svg1"
   width="235.36"
   height="203.86667"
   viewBox="0 0 235.36 203.86667"
   sodipodi:docname="S3-with-spherical-coordinate.pdf"
   xmlns:inkscape="http://www.inkscape.org/namespaces/inkscape"
   xmlns:sodipodi="http://sodipodi.sourceforge.net/DTD/sodipodi-0.dtd"
   xmlns="http://www.w3.org/2000/svg"
   xmlns:svg="http://www.w3.org/2000/svg">
  <defs
     id="defs1" />
  <sodipodi:namedview
     id="namedview1"
     pagecolor="#ffffff"
     bordercolor="#000000"
     borderopacity="0.25"
     inkscape:showpageshadow="2"
     inkscape:pageopacity="0.0"
     inkscape:pagecheckerboard="0"
     inkscape:deskcolor="#d1d1d1">
    <inkscape:page
       x="0"
       y="0"
       inkscape:label="1"
       id="page1"
       width="235.36"
       height="203.86667"
       margin="0"
       bleed="0" />
  </sodipodi:namedview>
  <g
     id="g1"
     inkscape:groupmode="layer"
     inkscape:label="1">
    <path
       id="path1"
       d="m 38.85492,-83.0898 c 0,28.05925 22.75107,50.81032 50.81032,50.81032 28.06523,0 50.81032,-22.75107 50.81032,-50.81032 0,-28.06521 -22.74509,-50.81032 -50.81032,-50.81032 -28.05925,0 -50.81032,22.74511 -50.81032,50.81032 z"
       style="fill:#f5a623;fill-opacity:0.05;fill-rule:nonzero;stroke:#f5a623;stroke-width:1.49442;stroke-linecap:butt;stroke-linejoin:miter;stroke-miterlimit:10;stroke-dasharray:none;stroke-opacity:1"
       transform="matrix(1.3333333,0,0,-1.3333333,-46.386667,-8.28)" />
    <path
       id="path2"
       d="m 38.85492,-83.0898 c 0,6.59937 22.75107,11.95537 50.81032,11.95537 28.06523,0 50.81032,-5.356 50.81032,-11.95537 0,-6.60533 -22.74509,-11.95537 -50.81032,-11.95537 -28.05925,0 -50.81032,5.35004 -50.81032,11.95537 z"
       style="fill:none;stroke:#f5a623;stroke-width:0.74721;stroke-linecap:butt;stroke-linejoin:miter;stroke-miterlimit:10;stroke-dasharray:4.48325, 4.48325;stroke-dashoffset:0;stroke-opacity:0.5"
       transform="matrix(1.3333333,0,0,-1.3333333,-46.386667,-8.28)" />
    <path
       id="path3"
       d="M 89.66524,-83.0898 110.623,-53.4106"
       style="fill:none;stroke:#9b9b9b;stroke-width:0.74721;stroke-linecap:butt;stroke-linejoin:miter;stroke-miterlimit:10;stroke-dasharray:none;stroke-opacity:1"
       transform="matrix(1.3333333,0,0,-1.3333333,-46.386667,-8.28)" />
    <path
       id="path4"
       d="M 110.623,-53.4106 V -91.36888"
       style="fill:none;stroke:#9b9b9b;stroke-width:0.74721;stroke-linecap:butt;stroke-linejoin:miter;stroke-miterlimit:10;stroke-dasharray:none;stroke-opacity:1"
       transform="matrix(1.3333333,0,0,-1.3333333,-46.386667,-8.28)" />
    <path
       id="path5"
       d="M 89.66524,-6.58739 V -83.0898"
       style="fill:none;stroke:#9b9b9b;stroke-width:0.74721;stroke-linecap:butt;stroke-linejoin:miter;stroke-miterlimit:10;stroke-dasharray:none;stroke-opacity:1"
       transform="matrix(1.3333333,0,0,-1.3333333,-46.386667,-8.28)" />
    <path
       id="path6"
       d="m 89.71307,-65.15674 c 3.68822,-0.01196 7.11343,-1.12977 9.95882,-3.04861 L 89.66524,-83.0898 Z"
       style="fill:none;stroke:#000000;stroke-width:0.74721;stroke-linecap:butt;stroke-linejoin:miter;stroke-miterlimit:10;stroke-dasharray:none;stroke-opacity:0"
       transform="matrix(1.3333333,0,0,-1.3333333,-46.386667,-8.28)" />
    <path
       id="path7"
       d="m 89.71307,-65.15674 c 3.68822,-0.01196 7.11343,-1.12977 9.95882,-3.04861"
       style="fill:none;stroke:#000000;stroke-width:0.74721;stroke-linecap:butt;stroke-linejoin:miter;stroke-miterlimit:10;stroke-dasharray:none;stroke-opacity:1"
       transform="matrix(1.3333333,0,0,-1.3333333,-46.386667,-8.28)" />
    <path
       id="path8"
       d="m 55.89133,-46.6857 c 0,4.41155 15.19527,7.98619 33.94128,7.98619 18.74602,0 33.9413,-3.57464 33.9413,-7.98619 0,-4.41151 -15.19528,-7.98619 -33.9413,-7.98619 -18.74601,0 -33.94128,3.57468 -33.94128,7.98619 z"
       style="fill:none;stroke:#f5a623;stroke-width:0.74721;stroke-linecap:butt;stroke-linejoin:miter;stroke-miterlimit:10;stroke-dasharray:4.48325, 4.48325;stroke-dashoffset:0;stroke-opacity:0.5"
       transform="matrix(1.3333333,0,0,-1.3333333,-46.386667,-8.28)" />
    <path
       id="path9"
       d="m 109.12859,-53.4106 c 0,0.8309 0.66949,1.49443 1.49441,1.49443 0.82494,0 1.49443,-0.66353 1.49443,-1.49443 0,-0.8249 -0.66949,-1.49441 -1.49443,-1.49441 -0.82492,0 -1.49441,0.66951 -1.49441,1.49441 z"
       style="fill:#000000;fill-opacity:1;fill-rule:nonzero;stroke:#000000;stroke-width:0.74721;stroke-linecap:butt;stroke-linejoin:miter;stroke-miterlimit:10;stroke-dasharray:none;stroke-opacity:1"
       transform="matrix(1.3333333,0,0,-1.3333333,-46.386667,-8.28)" />
    <path
       id="path10"
       d="m 89.66524,-83.0898 h 79.24019"
       style="fill:none;stroke:#9b9b9b;stroke-width:0.74721;stroke-linecap:butt;stroke-linejoin:miter;stroke-miterlimit:10;stroke-dasharray:none;stroke-opacity:1"
       transform="matrix(1.3333333,0,0,-1.3333333,-46.386667,-8.28)" />
    <path
       id="path11"
       d="M 89.66524,-83.0898 110.623,-91.36888"
       style="fill:none;stroke:#9b9b9b;stroke-width:0.74721;stroke-linecap:butt;stroke-linejoin:miter;stroke-miterlimit:10;stroke-dasharray:none;stroke-opacity:1"
       transform="matrix(1.3333333,0,0,-1.3333333,-46.386667,-8.28)" />
    <path
       id="path12"
       d="m 106.56416,-83.04794 c 0,-0.01795 0,-0.0299 0,-0.04186 0,-2.12805 -0.39454,-4.16046 -1.10588,-6.03148 l -15.79304,6.03148 z"
       style="fill:none;stroke:#000000;stroke-width:0.74721;stroke-linecap:butt;stroke-linejoin:miter;stroke-miterlimit:10;stroke-dasharray:none;stroke-opacity:0"
       transform="matrix(1.3333333,0,0,-1.3333333,-46.386667,-8.28)" />
    <path
       id="path13"
       d="m 106.56416,-83.04794 c 0,-0.01795 0,-0.0299 0,-0.04186 0,-2.12805 -0.39454,-4.16046 -1.10588,-6.03148"
       style="fill:none;stroke:#000000;stroke-width:0.74721;stroke-linecap:butt;stroke-linejoin:miter;stroke-miterlimit:10;stroke-dasharray:none;stroke-opacity:1"
       transform="matrix(1.3333333,0,0,-1.3333333,-46.386667,-8.28)" />
    <path
       id="path14"
       d="m 145.3653,-105.75119 c -8.47635,17.32333 -26.02086,20.40781 -36.16498,19.18237"
       style="fill:none;stroke:#000000;stroke-width:0.74721;stroke-linecap:butt;stroke-linejoin:miter;stroke-miterlimit:10;stroke-dasharray:none;stroke-opacity:1"
       transform="matrix(1.3333333,0,0,-1.3333333,-46.386667,-8.28)" />
    <path
       id="path15"
       d="m 112.29521,-83.33342 -4.78659,-3.48643 5.71318,-1.55768 z"
       style="fill:#000000;fill-opacity:1;fill-rule:nonzero;stroke:#000000;stroke-width:0.0797;stroke-linecap:butt;stroke-linejoin:miter;stroke-miterlimit:10;stroke-dasharray:none;stroke-opacity:0"
       transform="matrix(1.3333333,0,0,-1.3333333,-46.386667,-8.28)" />
    <path
       id="path16"
       d="m 6.02375,-3.7042813 c 0,-0.4453125 -0.1757813,-0.703125 -0.3984375,-0.703125 -0.2578125,0 -0.5273438,0.2460938 -0.5273438,0.46875 0,0.1054688 0.046875,0.2109375 0.1523438,0.3046875 0.1640625,0.140625 0.3515625,0.4101563 0.3515625,0.8320313 0,0.3984375 -0.1875,0.9726562 -0.5039063,1.4296875 C 4.805,-0.950375 4.43,-0.61053125 3.96125,-0.61053125 c -0.5625,0 -0.8671875,-0.3515625 -0.9609375,-0.89062505 C 3.1057812,-1.7589688 3.3401562,-2.4035 3.3401562,-2.68475 c 0,-0.1171875 -0.046875,-0.2109375 -0.1875,-0.2109375 -0.070312,0 -0.1875,0.011719 -0.2578125,0.1640625 -0.1171875,0.1992187 -0.234375,0.84375 -0.234375,1.2070312 -0.328125,0.46875 -0.7265625,0.91406255 -1.359375,0.91406255 -0.65624995,0 -0.86718745,-0.58593755 -0.86718745,-1.14843755 0,-1.2421875 1.01953125,-2.2851562 1.01953125,-2.4140625 0,-0.1171875 -0.082031,-0.1875 -0.1875,-0.1875 -0.1289063,0 -0.1992188,0.1289063 -0.2578125,0.2109375 -0.50390625,0.7382813 -0.890625,1.921875 -0.890625,2.8359375 0,0.67968755 0.234375,1.4179688 1.0429687,1.4179688 0.7148438,0 1.1835938,-0.4921875 1.5351563,-1.04296875 0.09375,0.57421875 0.4804687,1.04296875 1.1015625,1.04296875 0.7734375,0 1.2539062,-0.609375 1.6171875,-1.3476563 C 5.64875,-1.7355313 6.02375,-3.0949063 6.02375,-3.7042813 Z m 0,0"
       style="fill:#000000;fill-opacity:1;fill-rule:nonzero;stroke:none"
       aria-label="ω"
       transform="matrix(1.3333333,0,0,1.3333333,79.093333,71.454667)" />
    <path
       id="path17"
       d="m 4.5357344,-4.9792109 c 0,-0.65625 -0.1875,-2.0390625 -1.1953125,-2.0390625 -1.3828125,0 -2.91796878,2.8007812 -2.91796878,5.0859375 0,0.93749996 0.28125,2.03906246 1.19531248,2.03906246 1.40625,0 2.9179688,-2.85937496 2.9179688,-5.08593746 z m -3.0585938,1.359375 c 0.1640625,-0.6328125 0.3632813,-1.4296875 0.7617188,-2.1328125 0.2695312,-0.4921875 0.6445312,-1.0546875 1.0898437,-1.0546875 0.4921875,0 0.5507813,0.6445312 0.5507813,1.2070312 0,0.4921875 -0.082031,0.9960938 -0.328125,1.9804688 z m 1.9921875,0.328125 c -0.1171875,0.4570312 -0.3164062,1.3007812 -0.703125,2.015625 -0.3398437,0.67968746 -0.7265625,1.17187496 -1.1484375,1.17187496 -0.328125,0 -0.5390625,-0.29296875 -0.5390625,-1.21874996 0,-0.421875 0.058594,-0.9960938 0.3164063,-1.96875 z m 3.4980469,3.28124996 c 0,-0.65625 -0.2578125,-1.04296876 -0.6445313,-1.04296876 -0.328125,0 -0.5273437,0.24609376 -0.5273437,0.52734376 0,0.26953125 0.1992187,0.52734375 0.5273437,0.52734375 0.1171875,0 0.2460938,-0.03515625 0.3515625,-0.12890625 0.023437,-0.0234375 0.035156,-0.0351563 0.046875,-0.0351563 0.011719,0 0.023437,0.0117188 0.023437,0.15234375 0,0.73828125 -0.3515625,1.33593749 -0.6796875,1.66406249 C 5.959562,1.7590702 5.959562,1.7825077 5.959562,1.817664 c 0,0.070312 0.046875,0.1054687 0.09375,0.1054687 0.1171875,0 0.9140625,-0.7617187 0.914063,-1.93359364 z m 7.415039,1.71093754 c -0.04687,0.1289062 -0.05859,0.140625 -0.05859,0.1992187 0,0.2109375 0.1875,0.2695313 0.292969,0.2695313 0.04687,0 0.269531,-0.023437 0.363281,-0.2578125 0.03516,-0.082031 0.08203,-0.4101563 0.351563,-1.81640629 0.09375,0.01171875 0.164062,0.01171875 0.328125,0.01171875 1.652344,0 3.1875,-1.55859376 3.1875,-3.12890626 0,-0.7851562 -0.386719,-1.3828125 -1.136719,-1.3828125 -1.441406,0 -2.039062,1.9335938 -2.636719,3.87890626 -1.078125,-0.19921875 -1.628906,-0.76171876 -1.628906,-1.47656246 0,-0.28125 0.222656,-1.3710938 0.820313,-2.0625 0.08203,-0.082031 0.08203,-0.1054688 0.08203,-0.1289063 0,-0.035156 -0.02344,-0.09375 -0.117188,-0.09375 -0.28125,0 -1.042968,1.4414063 -1.042968,2.390625 0,0.93750001 0.65625,1.66406251 1.722656,1.92187501 z m 1.371094,-2.16796879 c -0.08203,0 -0.105469,0 -0.175781,-0.0117188 -0.128907,0 -0.140625,-0.0117188 -0.140625,-0.0351563 0,-0.0234375 0.175781,-0.92578121 0.199218,-1.07812501 0.316407,-1.2773437 1.089844,-2.2265625 1.980469,-2.2265625 0.679688,0 0.949219,0.5273438 0.949219,1.0078125 0,1.125 -1.277344,2.34375001 -2.8125,2.34375011 z m 0,0"
       style="fill:#000000;fill-opacity:1;fill-rule:nonzero;stroke:none"
       aria-label="θ,φ"
       transform="matrix(1.3333333,0,0,1.3333333,150.52267,146.15067)" />
    <g
       id="g17"
       aria-label="x&#10;1&#10;,x&#10;2&#10;,x&#10;3"
       transform="matrix(1.3333333,0,0,1.3333333,181.90933,106.62133)">
      <path
         id="path18"
         d="m 3.3287422,-3.0118984 c 0.058594,-0.2578125 0.2929687,-1.171875 0.984375,-1.171875 0.046875,0 0.2929687,0 0.5039062,0.1289062 -0.28125,0.046875 -0.4804687,0.3046875 -0.4804687,0.5390625 0,0.1640625 0.1054687,0.3515625 0.375,0.3515625 0.2226562,0 0.5390625,-0.1875 0.5390625,-0.5859375 0,-0.515625 -0.5859375,-0.65625 -0.9257813,-0.65625 -0.5742187,0 -0.9257812,0.5273438 -1.0429687,0.7617188 -0.2578125,-0.65625 -0.7851563,-0.7617188 -1.078125,-0.7617188 -1.0429688,0 -1.60546876,1.2890625 -1.60546876,1.5351563 0,0.1054687 0.10546875,0.1054687 0.1171875,0.1054687 0.0820313,0 0.1171875,-0.023437 0.12890625,-0.1171875 0.33984371,-1.0546875 0.99609371,-1.3007812 1.33593751,-1.3007812 0.1875,0 0.5390625,0.09375 0.5390625,0.6679687 0,0.3046875 -0.1640625,0.9726563 -0.5390625,2.3671875 -0.1523438,0.62109376 -0.5039063,1.04296876 -0.9492188,1.04296876 -0.058594,0 -0.28124996,0 -0.49218746,-0.12890625 0.24609375,-0.0585938 0.46874996,-0.26953125 0.46874996,-0.5390625 0,-0.26953121 -0.22265621,-0.35156251 -0.37499996,-0.35156251 -0.29296875,0 -0.5390625,0.25781251 -0.5390625,0.57421876 0,0.45703125 0.4921875,0.65625 0.93749996,0.65625 0.65625,0 1.0078125,-0.69140625 1.0429688,-0.75 0.1171875,0.36328125 0.4804687,0.75 1.078125,0.75 1.0195312,0 1.59375,-1.27734376 1.59375,-1.53515626 0,-0.09375 -0.09375,-0.09375 -0.1289063,-0.09375 -0.082031,0 -0.1054687,0.035156 -0.1289062,0.1054688 -0.328125,1.06640621 -0.9960938,1.31249996 -1.3242188,1.31249996 -0.3867187,0 -0.5390625,-0.328125 -0.5390625,-0.65625 0,-0.22265625 0.058594,-0.44531246 0.1640625,-0.87890626 z m 0,0"
         style="fill:#000000;fill-opacity:1;fill-rule:nonzero;stroke:none" />
      <path
         id="path19"
         d="m 8.0250312,-8.0451016 c 0,-0.1875 -0.011719,-0.1992187 -0.2109375,-0.1992187 -0.4453125,0.4335937 -1.078125,0.4453125 -1.359375,0.4453125 v 0.2460937 c 0.1640625,0 0.6210938,0 1.0078125,-0.1875 v 3.5507813 c 0,0.234375 0,0.328125 -0.6914062,0.328125 H 6.5015937 v 0.2460937 c 0.1289063,-0.011719 0.984375,-0.023437 1.2421875,-0.023437 0.2109375,0 1.0898438,0.011719 1.2421875,0.023437 V -3.8615078 H 8.7281562 c -0.703125,0 -0.703125,-0.09375 -0.703125,-0.328125 z m 0,0"
         style="fill:#000000;fill-opacity:1;fill-rule:nonzero;stroke:none" />
      <path
         id="path20"
         d="m 12.191047,-0.01189844 c 0,-0.65625 -0.257813,-1.04296876 -0.644531,-1.04296876 -0.328125,0 -0.527344,0.24609376 -0.527344,0.52734376 0,0.26953125 0.199219,0.5273437525 0.527344,0.5273437525 0.117187,0 0.246093,-0.0351562525 0.351562,-0.1289062525 0.02344,-0.0234375 0.03516,-0.0351563 0.04687,-0.0351563 0.01172,0 0.02344,0.0117188 0.02344,0.15234375 0,0.73828125 -0.351563,1.33593759 -0.679688,1.66406259 -0.105469,0.1054687 -0.105469,0.1289062 -0.105469,0.1640625 0,0.070312 0.04687,0.1054687 0.09375,0.1054687 0.117188,0 0.914063,-0.7617187 0.914063,-1.93359379 z m 5.71582,-2.99999996 c 0.05859,-0.2578125 0.292969,-1.171875 0.984375,-1.171875 0.04687,0 0.292969,0 0.503906,0.1289062 -0.28125,0.046875 -0.480468,0.3046875 -0.480468,0.5390625 0,0.1640625 0.105468,0.3515625 0.375,0.3515625 0.222656,0 0.539062,-0.1875 0.539062,-0.5859375 0,-0.515625 -0.585937,-0.65625 -0.925781,-0.65625 -0.574219,0 -0.925781,0.5273438 -1.042969,0.7617188 -0.257812,-0.65625 -0.785156,-0.7617188 -1.078125,-0.7617188 -1.042969,0 -1.605469,1.2890625 -1.605469,1.5351563 0,0.1054687 0.105469,0.1054687 0.117188,0.1054687 0.08203,0 0.117187,-0.023437 0.128906,-0.1171875 0.339844,-1.0546875 0.996094,-1.3007812 1.335938,-1.3007812 0.1875,0 0.539062,0.09375 0.539062,0.6679687 0,0.3046875 -0.164062,0.9726563 -0.539062,2.3671875 -0.152344,0.62109376 -0.503907,1.04296876 -0.949219,1.04296876 -0.05859,0 -0.28125,0 -0.492188,-0.12890625 0.246094,-0.0585938 0.46875,-0.26953125 0.46875,-0.5390625 0,-0.26953121 -0.222656,-0.35156251 -0.375,-0.35156251 -0.292968,0 -0.539062,0.25781251 -0.539062,0.57421876 0,0.45703125 0.492187,0.65625 0.9375,0.65625 0.65625,0 1.007812,-0.69140625 1.042969,-0.75 0.117187,0.36328125 0.480468,0.75 1.078125,0.75 1.019531,0 1.59375,-1.27734376 1.59375,-1.53515626 0,-0.09375 -0.09375,-0.09375 -0.128907,-0.09375 -0.08203,0 -0.105468,0.035156 -0.128906,0.1054688 -0.328125,1.06640621 -0.996094,1.31249996 -1.324219,1.31249996 -0.386718,0 -0.539062,-0.328125 -0.539062,-0.65625 0,-0.22265625 0.05859,-0.44531246 0.164062,-0.87890626 z m 0,0"
         style="fill:#000000;fill-opacity:1;fill-rule:nonzero;stroke:none" />
      <path
         id="path21"
         d="m 23.801398,-4.8810391 h -0.234375 c -0.02344,0.1523438 -0.08203,0.5625 -0.175781,0.6328125 -0.05859,0.035156 -0.597656,0.035156 -0.691406,0.035156 h -1.289063 c 0.738282,-0.6445313 0.984375,-0.84375 1.394532,-1.171875 0.515625,-0.4101563 0.996093,-0.84375 0.996093,-1.5 0,-0.84375 -0.738281,-1.359375 -1.628906,-1.359375 -0.867187,0 -1.453125,0.609375 -1.453125,1.2421875 0,0.3632812 0.304688,0.3984375 0.375,0.3984375 0.164063,0 0.375,-0.1171875 0.375,-0.375 0,-0.1289063 -0.05859,-0.3632813 -0.421875,-0.3632813 0.222656,-0.5039062 0.691406,-0.65625 1.019531,-0.65625 0.703125,0 1.066407,0.5507813 1.066407,1.1132813 0,0.609375 -0.433594,1.0898437 -0.65625,1.3359375 l -1.6875,1.6640625 c -0.07031,0.058594 -0.07031,0.070312 -0.07031,0.2695312 h 2.882813 z m 0,0"
         style="fill:#000000;fill-opacity:1;fill-rule:nonzero;stroke:none" />
      <path
         id="path22"
         d="m 26.780891,-0.01189844 c 0,-0.65625 -0.257813,-1.04296876 -0.644532,-1.04296876 -0.328125,0 -0.527343,0.24609376 -0.527343,0.52734376 0,0.26953125 0.199218,0.5273437525 0.527343,0.5273437525 0.117188,0 0.246094,-0.0351562525 0.351563,-0.1289062525 0.02344,-0.0234375 0.03516,-0.0351563 0.04687,-0.0351563 0.01172,0 0.02344,0.0117188 0.02344,0.15234375 0,0.73828125 -0.351562,1.33593759 -0.679687,1.66406259 -0.105469,0.1054687 -0.105469,0.1289062 -0.105469,0.1640625 0,0.070312 0.04687,0.1054687 0.09375,0.1054687 0.117188,0 0.914063,-0.7617187 0.914063,-1.93359379 z m 5.71582,-2.99999996 c 0.05859,-0.2578125 0.292969,-1.171875 0.984375,-1.171875 0.04687,0 0.292969,0 0.503906,0.1289062 -0.28125,0.046875 -0.480469,0.3046875 -0.480469,0.5390625 0,0.1640625 0.105469,0.3515625 0.375,0.3515625 0.222657,0 0.539063,-0.1875 0.539063,-0.5859375 0,-0.515625 -0.585938,-0.65625 -0.925781,-0.65625 -0.574219,0 -0.925782,0.5273438 -1.042969,0.7617188 -0.257813,-0.65625 -0.785156,-0.7617188 -1.078125,-0.7617188 -1.042969,0 -1.605469,1.2890625 -1.605469,1.5351563 0,0.1054687 0.105469,0.1054687 0.117188,0.1054687 0.08203,0 0.117187,-0.023437 0.128906,-0.1171875 0.339844,-1.0546875 0.996094,-1.3007812 1.335937,-1.3007812 0.1875,0 0.539063,0.09375 0.539063,0.6679687 0,0.3046875 -0.164063,0.9726563 -0.539063,2.3671875 -0.152343,0.62109376 -0.503906,1.04296876 -0.949218,1.04296876 -0.05859,0 -0.28125,0 -0.492188,-0.12890625 0.246094,-0.0585938 0.46875,-0.26953125 0.46875,-0.5390625 0,-0.26953121 -0.222656,-0.35156251 -0.375,-0.35156251 -0.292969,0 -0.539062,0.25781251 -0.539062,0.57421876 0,0.45703125 0.492187,0.65625 0.9375,0.65625 0.65625,0 1.007812,-0.69140625 1.042968,-0.75 0.117188,0.36328125 0.480469,0.75 1.078125,0.75 1.019532,0 1.59375,-1.27734376 1.59375,-1.53515626 0,-0.09375 -0.09375,-0.09375 -0.128906,-0.09375 -0.08203,0 -0.105469,0.035156 -0.128906,0.1054688 -0.328125,1.06640621 -0.996094,1.31249996 -1.324219,1.31249996 -0.386719,0 -0.539062,-0.328125 -0.539062,-0.65625 0,-0.22265625 0.05859,-0.44531246 0.164062,-0.87890626 z m 0,0"
         style="fill:#000000;fill-opacity:1;fill-rule:nonzero;stroke:none" />
      <path
         id="path23"
         d="m 36.774055,-5.9474453 c 0.550781,0 0.9375,0.375 0.9375,1.125 0,0.8671875 -0.503907,1.125 -0.902344,1.125 -0.28125,0 -0.890625,-0.082031 -1.183594,-0.4921875 0.328125,-0.011719 0.398438,-0.2460938 0.398438,-0.3867188 0,-0.2226562 -0.164063,-0.3867187 -0.386719,-0.3867187 -0.1875,0 -0.386719,0.1171875 -0.386719,0.4101562 0,0.65625 0.726563,1.078125 1.570313,1.078125 0.972656,0 1.640625,-0.6445312 1.640625,-1.3476562 0,-0.5390625 -0.445313,-1.0898438 -1.21875,-1.2421875 0.738281,-0.2695313 0.996093,-0.796875 0.996093,-1.21875 0,-0.5507813 -0.632812,-0.9609375 -1.40625,-0.9609375 -0.773437,0 -1.359375,0.375 -1.359375,0.9375 0,0.234375 0.152344,0.3632812 0.363282,0.3632812 0.210937,0 0.351562,-0.1640625 0.351562,-0.3515625 0,-0.1992187 -0.140625,-0.3515625 -0.351562,-0.3632812 0.234375,-0.3046875 0.714843,-0.3867188 0.972656,-0.3867188 0.316406,0 0.761719,0.1523438 0.761719,0.7617188 0,0.2929687 -0.105469,0.609375 -0.28125,0.8320312 -0.234375,0.2578125 -0.421875,0.28125 -0.773438,0.2929688 -0.175781,0.023437 -0.1875,0.023437 -0.222656,0.023437 -0.01172,0 -0.07031,0.011719 -0.07031,0.09375 0,0.09375 0.05859,0.09375 0.175782,0.09375 z m 0,0"
         style="fill:#000000;fill-opacity:1;fill-rule:nonzero;stroke:none" />
    </g>
    <g
       id="g23"
       aria-label="x&#10;4"
       transform="matrix(1.3333333,0,0,1.3333333,76.256,15.52)">
      <path
         id="path24"
         d="m 3.3294844,-3.0120703 c 0.058594,-0.2578125 0.2929687,-1.171875 0.984375,-1.171875 0.046875,0 0.2929687,0 0.5039062,0.1289062 -0.28125,0.046875 -0.4804687,0.3046875 -0.4804687,0.5390625 0,0.1640625 0.1054687,0.3515625 0.375,0.3515625 0.2226562,0 0.5390625,-0.1875 0.5390625,-0.5859375 0,-0.515625 -0.5859375,-0.65625 -0.9257813,-0.65625 -0.5742187,0 -0.9257812,0.5273438 -1.0429687,0.7617188 -0.2578125,-0.65625 -0.7851563,-0.7617188 -1.078125,-0.7617188 -1.0429688,0 -1.60546878,1.2890625 -1.60546878,1.5351563 0,0.1054687 0.10546875,0.1054687 0.1171875,0.1054687 0.0820313,0 0.1171875,-0.023437 0.12890625,-0.1171875 0.33984373,-1.0546875 0.99609373,-1.3007812 1.33593753,-1.3007812 0.1875,0 0.5390625,0.09375 0.5390625,0.6679687 0,0.3046875 -0.1640625,0.9726563 -0.5390625,2.3671875 -0.1523438,0.62109379 -0.5039063,1.04296879 -0.9492188,1.04296879 -0.058594,0 -0.28124998,0 -0.49218748,-0.12890625 0.24609375,-0.0585937 0.46874998,-0.26953125 0.46874998,-0.5390625 0,-0.26953124 -0.22265623,-0.35156254 -0.37499998,-0.35156254 -0.29296875,0 -0.5390625,0.25781254 -0.5390625,0.57421879 0,0.45703125 0.4921875,0.65625 0.93749998,0.65625 0.65625,0 1.0078125,-0.69140625 1.0429688,-0.75 0.1171875,0.36328125 0.4804687,0.75 1.078125,0.75 1.0195312,0 1.59375,-1.27734379 1.59375,-1.53515629 0,-0.09375 -0.09375,-0.09375 -0.1289063,-0.09375 -0.082031,0 -0.1054687,0.035156 -0.1289062,0.1054688 -0.328125,1.06640624 -0.9960938,1.31249999 -1.3242188,1.31249999 -0.3867187,0 -0.5390625,-0.328125 -0.5390625,-0.65625 0,-0.22265625 0.058594,-0.44531249 0.1640625,-0.87890629 z m 0,0"
         style="fill:#000000;fill-opacity:1;fill-rule:nonzero;stroke:none" />
      <path
         id="path25"
         d="M 9.3851484,-4.7640234 V -5.0101172 H 8.6117109 v -3.1054687 c 0,-0.1523438 0,-0.1992188 -0.1523437,-0.1992188 -0.09375,0 -0.1171875,0 -0.1875,0.09375 l -2.3085938,3.2109375 v 0.2460938 h 2.0507813 v 0.5742187 c 0,0.234375 0,0.328125 -0.5625,0.328125 h -0.1875 v 0.2460938 c 0.3515625,-0.011719 0.796875,-0.023437 1.0429687,-0.023437 0.2578125,0 0.703125,0.011719 1.0546875,0.023437 v -0.2460938 h -0.1875 c -0.5625,0 -0.5625,-0.09375 -0.5625,-0.328125 V -4.7640234 Z M 8.0609297,-7.5648047 v 2.5546875 H 6.2210859 Z m 0,0"
         style="fill:#000000;fill-opacity:1;fill-rule:nonzero;stroke:none" />
    </g>
    <g
       id="g25"
       aria-label="S&#10;3&#10;⊂R&#10;4"
       transform="matrix(1.3333333,0,0,1.3333333,50.750667,202.35333)">
      <path
         id="path26"
         d="m 6.421375,-6.9271094 c 0,-0.023437 -0.011719,-0.09375 -0.1054687,-0.09375 -0.046875,0 -0.058594,0.011719 -0.1757813,0.140625 l -0.4804687,0.5742188 c -0.2578125,-0.46875 -0.7734375,-0.7148438 -1.4296875,-0.7148438 -1.265625,0 -2.4609375,1.1367188 -2.4609375,2.34375 0,0.8085938 0.5273437,1.265625 1.0429687,1.4179688 l 1.0664063,0.28125 c 0.3632812,0.082031 0.9140625,0.234375 0.9140625,1.0546875 0,0.890625 -0.8203125,1.82812498 -1.7929688,1.82812498 -0.6445312,0 -1.7460937,-0.2109375 -1.7460937,-1.45312498 0,-0.234375 0.046875,-0.4804688 0.058594,-0.5390625 0.011719,-0.035156 0.023437,-0.046875 0.023437,-0.070312 0,-0.09375 -0.070312,-0.1054688 -0.1171875,-0.1054688 -0.058594,0 -0.070312,0.011719 -0.1054687,0.035156 -0.035156,0.046875 -0.5976563,2.32031248 -0.5976563,2.34374998 0,0.0585938 0.046875,0.10546875 0.1171875,0.10546875 0.046875,0 0.0585938,-0.0117188 0.17578125,-0.15234375 L 1.3002813,-0.50523437 c 0.421875,0.5859375 1.1015625,0.7265625 1.6757812,0.7265625 1.359375,0 2.53125,-1.32421873 2.53125,-2.56640623 0,-0.6796875 -0.3398437,-1.0195313 -0.4921875,-1.1601563 -0.2226562,-0.234375 -0.375,-0.2695312 -1.265625,-0.5039062 -0.2109375,-0.058594 -0.5742187,-0.1523438 -0.65625,-0.1757813 -0.2695312,-0.09375 -0.609375,-0.375 -0.609375,-0.9023437 0,-0.8085938 0.796875,-1.6523438 1.734375,-1.6523438 0.8320313,0 1.4414063,0.421875 1.4414063,1.5351563 0,0.3164062 -0.046875,0.5039062 -0.046875,0.5625 0,0.011719 0,0.09375 0.1289062,0.09375 0.09375,0 0.1054688,-0.023437 0.140625,-0.1992188 z m 0,0"
         style="fill:#000000;fill-opacity:1;fill-rule:nonzero;stroke:none" />
      <path
         id="path27"
         d="m 8.5834844,-6.4437109 c 0.5507812,0 0.9375,0.375 0.9375,1.125 0,0.8671875 -0.5039063,1.125 -0.9023438,1.125 -0.28125,0 -0.890625,-0.082031 -1.1835937,-0.4921875 0.328125,-0.011719 0.3984375,-0.2460938 0.3984375,-0.3867188 0,-0.2226562 -0.1640625,-0.3867187 -0.3867188,-0.3867187 -0.1875,0 -0.3867187,0.1171875 -0.3867187,0.4101562 0,0.65625 0.7265625,1.078125 1.5703125,1.078125 0.9726562,0 1.6406246,-0.6445312 1.6406246,-1.3476562 0,-0.5390625 -0.4453121,-1.0898438 -1.2187496,-1.2421875 0.7382812,-0.2695313 0.9960936,-0.796875 0.9960936,-1.21875 0,-0.5507813 -0.6328124,-0.9609375 -1.4062499,-0.9609375 -0.7734375,0 -1.359375,0.375 -1.359375,0.9375 0,0.234375 0.1523438,0.3632812 0.3632813,0.3632812 0.2109375,0 0.3515625,-0.1640625 0.3515625,-0.3515625 0,-0.1992187 -0.140625,-0.3515625 -0.3515625,-0.3632812 0.234375,-0.3046875 0.7148437,-0.3867188 0.9726562,-0.3867188 0.3164063,0 0.7617188,0.1523438 0.7617188,0.7617188 0,0.2929687 -0.1054688,0.609375 -0.28125,0.8320312 -0.234375,0.2578125 -0.421875,0.28125 -0.7734375,0.2929688 -0.1757813,0.023437 -0.1875,0.023437 -0.2226563,0.023437 -0.011719,0 -0.070312,0.011719 -0.070312,0.09375 0,0.09375 0.058594,0.09375 0.1757813,0.09375 z m 0,0"
         style="fill:#000000;fill-opacity:1;fill-rule:nonzero;stroke:none" />
      <path
         id="path28"
         d="m 20.483875,-4.9817969 c 0.175781,0 0.351563,0 0.351563,-0.1992187 0,-0.1992188 -0.175782,-0.1992188 -0.351563,-0.1992188 H 17.812 c -1.710937,0 -3.058594,1.2890625 -3.058594,2.8828125 0,1.59375003 1.347657,2.89453128 3.058594,2.89453128 h 2.671875 c 0.175781,0 0.351563,0 0.351563,-0.19921875 0,-0.19921875 -0.175782,-0.19921875 -0.351563,-0.19921875 h -2.660156 c -1.546875,0 -2.671875,-1.16015628 -2.671875,-2.49609378 0,-1.3242187 1.125,-2.484375 2.671875,-2.484375 z m 0,0"
         style="fill:#000000;fill-opacity:1;fill-rule:nonzero;stroke:none" />
      <path
         id="path29"
         d="m 27.107898,-3.1302344 h 0.351563 l 1.5,2.30859378 c 0.09375,0.1640625 0.339844,0.55078125 0.445312,0.703125 0.07031,0.1171875 0.105469,0.1171875 0.328125,0.1171875 h 1.382813 c 0.175781,0 0.328125,0 0.328125,-0.17578125 0,-0.0820313 -0.07031,-0.15234375 -0.152344,-0.17578125 -0.375,-0.0820313 -0.855469,-0.73828128 -1.101562,-1.05468748 -0.07031,-0.09375 -0.5625,-0.75 -1.230469,-1.828125 0.890625,-0.1640625 1.746094,-0.5390625 1.746094,-1.7226563 0,-1.3828125 -1.464844,-1.8632812 -2.648438,-1.8632812 H 24.93993 c -0.1875,0 -0.339844,0 -0.339844,0.1757812 0,0.1640625 0.1875,0.1640625 0.269531,0.1640625 0.5625,0 0.609375,0.070312 0.609375,0.5742188 v 4.99218748 c 0,0.4921875 -0.04687,0.5625 -0.609375,0.5625 -0.08203,0 -0.269531,0 -0.269531,0.17578125 0,0.17578125 0.152344,0.17578125 0.339844,0.17578125 h 2.71875 c 0.1875,0 0.328125,0 0.328125,-0.17578125 0,-0.17578125 -0.164063,-0.17578125 -0.269532,-0.17578125 -0.574218,0 -0.609375,-0.0820313 -0.609375,-0.5625 z m 1.921875,-0.4921875 c 0.28125,-0.3632812 0.304688,-0.890625 0.304688,-1.3242187 0,-0.4804688 -0.05859,-1.0078125 -0.375,-1.4179688 0.410156,0.082031 1.394531,0.3984375 1.394531,1.40625 0,0.6445313 -0.304687,1.1484375 -1.324219,1.3359375 z m -1.921875,-2.3203125 c 0,-0.1992187 0,-0.5390625 0.621094,-0.5390625 0.84375,0 1.253906,0.3515625 1.253906,1.5351563 0,1.2773437 -0.304687,1.4648437 -1.875,1.4648437 z m -1.359375,5.58984378 c 0.08203,-0.17578125 0.08203,-0.45703125 0.08203,-0.55078125 V -5.9310156 c 0,-0.09375 0,-0.3632813 -0.08203,-0.5507813 h 1.136719 c -0.128906,0.1640625 -0.128906,0.3632813 -0.128906,0.515625 v 5.06250003 c 0,0.10546875 0,0.375 0.08203,0.55078125 z m 2.121094,-2.77734378 c 0.07031,-0.011719 0.117188,-0.023437 0.1875,-0.023437 0.152344,0 0.375,-0.011719 0.527344,-0.035156 0.140625,0.234375 1.21875,2.015625 2.050781,2.83593748 h -0.972656 z m 0,0"
         style="fill:#000000;fill-opacity:1;fill-rule:nonzero;stroke:none" />
      <path
         id="path30"
         d="m 35.322742,-5.2601172 v -0.2460937 h -0.773437 v -3.1054688 c 0,-0.1523437 0,-0.1992187 -0.152344,-0.1992187 -0.09375,0 -0.117188,0 -0.1875,0.09375 l -2.308594,3.2109375 v 0.2460937 h 2.050781 v 0.5742188 c 0,0.234375 0,0.328125 -0.5625,0.328125 h -0.1875 v 0.2460937 c 0.351563,-0.011719 0.796875,-0.023437 1.042969,-0.023437 0.257813,0 0.703125,0.011719 1.054688,0.023437 v -0.2460937 h -0.1875 c -0.5625,0 -0.5625,-0.09375 -0.5625,-0.328125 v -0.5742188 z m -1.324219,-2.8007812 v 2.5546875 H 32.15868 Z m 0,0"
         style="fill:#000000;fill-opacity:1;fill-rule:nonzero;stroke:none" />
    </g>
  </g>
</svg>
