<?xml version="1.0" encoding="UTF-8" standalone="no"?>
<!-- Created with Inkscape (http://www.inkscape.org/) -->

<svg
   version="1.1"
   id="svg1"
   width="272"
   height="152.28"
   viewBox="0 0 272 152.28"
   sodipodi:docname="simple-Young-diagrams.pdf"
   xmlns:inkscape="http://www.inkscape.org/namespaces/inkscape"
   xmlns:sodipodi="http://sodipodi.sourceforge.net/DTD/sodipodi-0.dtd"
   xmlns="http://www.w3.org/2000/svg"
   xmlns:svg="http://www.w3.org/2000/svg">
  <defs
     id="defs1" />
  <sodipodi:namedview
     id="namedview1"
     pagecolor="#ffffff"
     bordercolor="#000000"
     borderopacity="0.25"
     inkscape:showpageshadow="2"
     inkscape:pageopacity="0.0"
     inkscape:pagecheckerboard="0"
     inkscape:deskcolor="#d1d1d1">
    <inkscape:page
       x="0"
       y="0"
       inkscape:label="1"
       id="page1"
       width="272"
       height="152.28"
       margin="0"
       bleed="0" />
  </sodipodi:namedview>
  <g
     id="g1"
     inkscape:groupmode="layer"
     inkscape:label="1">
    <path
       id="path1"
       d="m 121.34697,-47.82146 h 18.67429 v -18.67428 h -18.67429 z"
       style="fill:#f5a623;fill-opacity:0.2;fill-rule:nonzero;stroke:#000000;stroke-width:0.74721;stroke-linecap:butt;stroke-linejoin:miter;stroke-miterlimit:10;stroke-dasharray:none;stroke-opacity:1"
       transform="matrix(1.3333333,0,0,-1.3333333,-98.690667,-36.48)" />
    <path
       id="path2"
       d="m 181.72159,-47.82146 h 18.67427 v -18.67428 h -18.67427 z"
       style="fill:#f5a623;fill-opacity:0.2;fill-rule:nonzero;stroke:#000000;stroke-width:0.74721;stroke-linecap:butt;stroke-linejoin:miter;stroke-miterlimit:10;stroke-dasharray:none;stroke-opacity:1"
       transform="matrix(1.3333333,0,0,-1.3333333,-98.690667,-36.48)" />
    <path
       id="path3"
       d="m 181.72159,-66.49574 h 18.67427 v -18.67427 h -18.67427 z"
       style="fill:#f5a623;fill-opacity:0.2;fill-rule:nonzero;stroke:#000000;stroke-width:0.74721;stroke-linecap:butt;stroke-linejoin:miter;stroke-miterlimit:10;stroke-dasharray:none;stroke-opacity:1"
       transform="matrix(1.3333333,0,0,-1.3333333,-98.690667,-36.48)" />
    <path
       id="path4"
       d="m 181.72159,-85.17001 h 18.67427 v -18.6743 h -18.67427 z"
       style="fill:#f5a623;fill-opacity:0.2;fill-rule:nonzero;stroke:#000000;stroke-width:0.74721;stroke-linecap:butt;stroke-linejoin:miter;stroke-miterlimit:10;stroke-dasharray:none;stroke-opacity:1"
       transform="matrix(1.3333333,0,0,-1.3333333,-98.690667,-36.48)" />
    <path
       id="path5"
       d="m 181.72159,-103.84431 h 18.67427 v -18.67428 h -18.67427 z"
       style="fill:#f5a623;fill-opacity:0.2;fill-rule:nonzero;stroke:#000000;stroke-width:0.74721;stroke-linecap:butt;stroke-linejoin:miter;stroke-miterlimit:10;stroke-dasharray:none;stroke-opacity:1"
       transform="matrix(1.3333333,0,0,-1.3333333,-98.690667,-36.48)" />
    <path
       id="path6"
       d="m 181.72159,-122.51859 h 18.67427 v -18.68026 h -18.67427 z"
       style="fill:#f5a623;fill-opacity:0.1;fill-rule:nonzero;stroke:#000000;stroke-width:0.74721;stroke-linecap:butt;stroke-linejoin:miter;stroke-miterlimit:10;stroke-dasharray:4.48325, 4.48325;stroke-dashoffset:0;stroke-opacity:0.2"
       transform="matrix(1.3333333,0,0,-1.3333333,-98.690667,-36.48)" />
    <path
       id="path7"
       d="m 240.30287,-47.82146 h 18.67429 v -18.67428 h -18.67429 z"
       style="fill:#f5a623;fill-opacity:0.2;fill-rule:nonzero;stroke:#000000;stroke-width:0.74721;stroke-linecap:butt;stroke-linejoin:miter;stroke-miterlimit:10;stroke-dasharray:none;stroke-opacity:1"
       transform="matrix(1.3333333,0,0,-1.3333333,-98.690667,-36.48)" />
    <path
       id="path8"
       d="m 240.30287,-66.49574 h 18.67429 v -18.67427 h -18.67429 z"
       style="fill:#f5a623;fill-opacity:0.2;fill-rule:nonzero;stroke:#000000;stroke-width:0.74721;stroke-linecap:butt;stroke-linejoin:miter;stroke-miterlimit:10;stroke-dasharray:none;stroke-opacity:1"
       transform="matrix(1.3333333,0,0,-1.3333333,-98.690667,-36.48)" />
    <path
       id="path9"
       d="m 240.30287,-85.17001 h 18.67429 v -18.6743 h -18.67429 z"
       style="fill:#f5a623;fill-opacity:0.2;fill-rule:nonzero;stroke:#000000;stroke-width:0.74721;stroke-linecap:butt;stroke-linejoin:miter;stroke-miterlimit:10;stroke-dasharray:none;stroke-opacity:1"
       transform="matrix(1.3333333,0,0,-1.3333333,-98.690667,-36.48)" />
    <path
       id="path10"
       d="m 240.30287,-103.84431 h 18.67429 v -18.67428 h -18.67429 z"
       style="fill:#f5a623;fill-opacity:0.2;fill-rule:nonzero;stroke:#000000;stroke-width:0.74721;stroke-linecap:butt;stroke-linejoin:miter;stroke-miterlimit:10;stroke-dasharray:none;stroke-opacity:1"
       transform="matrix(1.3333333,0,0,-1.3333333,-98.690667,-36.48)" />
    <path
       id="path11"
       d="m 240.30287,-122.51859 h 18.67429 v -18.68026 h -18.67429 z"
       style="fill:#f5a623;fill-opacity:0.1;fill-rule:nonzero;stroke:#000000;stroke-width:0.74721;stroke-linecap:butt;stroke-linejoin:miter;stroke-miterlimit:10;stroke-dasharray:4.48325, 4.48325;stroke-dashoffset:0;stroke-opacity:0.2"
       transform="matrix(1.3333333,0,0,-1.3333333,-98.690667,-36.48)" />
    <path
       id="path12"
       d="m 258.97716,-47.82146 h 18.67427 v -18.67428 h -18.67427 z"
       style="fill:#f5a623;fill-opacity:0.2;fill-rule:nonzero;stroke:#000000;stroke-width:0.74721;stroke-linecap:butt;stroke-linejoin:miter;stroke-miterlimit:10;stroke-dasharray:none;stroke-opacity:1"
       transform="matrix(1.3333333,0,0,-1.3333333,-98.690667,-36.48)" />
    <path
       id="path13"
       d="m 3.8676641,-7.4890859 c 0,-0.1171875 -0.082031,-0.1992188 -0.1992188,-0.1992188 -0.1523437,0 -0.1757812,0.1054688 -0.2460937,0.3164063 -0.1171875,0.3984375 -0.011719,0.046875 -0.1289063,0.4453125 -0.1171875,-0.058594 -0.4335937,-0.2109375 -0.796875,-0.2109375 -0.5742187,0 -1.21875,0.3046875 -1.59374999,1.0664062 -0.38671875,0.8085938 -0.43359375,1.7109375 -0.43359375,2.6367188 0,0.6210937 0,2.4140625 0.86718754,3.19921871 -0.234375,0.76171875 -0.234375,0.78515625 -0.234375,0.80859375 0,0.1171875 0.082031,0.19921875 0.1992187,0.19921875 0.1523438,0 0.1875,-0.09375 0.2460938,-0.31640625 0.1171875,-0.3984375 0.011719,-0.046875 0.1289062,-0.4453125 0.234375,0.12890625 0.5390625,0.2109375 0.8085938,0.2109375 1.1132812,0 1.546875,-0.9375 1.734375,-1.41796876 0.2578125,-0.703125 0.28125,-1.5234375 0.28125,-2.2382812 0,-0.7382813 0,-2.390625 -0.8671875,-3.2226563 z M 1.4653203,-0.70392969 C 1.1371953,-1.3836172 1.1371953,-2.6140859 1.1371953,-3.5515859 c 0,-0.8085938 0,-1.5 0.140625,-2.1328125 0.1875,-0.9257813 0.7617188,-1.2304688 1.21875,-1.2304688 0.1992188,0 0.4570313,0.058594 0.7148438,0.28125 z M 3.5043828,-6.2351797 c 0.328125,0.5742188 0.328125,1.734375 0.328125,2.6835938 0,0.7265625 0,1.453125 -0.1171875,2.1210937 -0.1757812,1.05468751 -0.703125,1.4296875125 -1.2304687,1.4296875125 -0.234375,0 -0.46875,-0.0820312525 -0.7148438,-0.2929687525 z m 0,0"
       style="fill:#000000;fill-opacity:1;fill-rule:nonzero;stroke:none"
       aria-label="∅"
       transform="matrix(1.3333333,0,0,1.3333333,6.4173333,45.434667)" />
    <g
       id="g13"
       aria-label="N-throw"
       transform="matrix(1.3333333,0,0,1.3333333,90.901333,143.20267)">
      <path
         id="path14"
         d="m 7.5359141,-5.7535625 c 0.09375,-0.3984375 0.2695312,-0.7148438 1.0664062,-0.7382813 0.058594,0 0.1757813,-0.011719 0.1757813,-0.1992187 0,-0.011719 0,-0.1171875 -0.1289063,-0.1171875 -0.328125,0 -0.6796875,0.035156 -1.0078125,0.035156 -0.3398437,0 -0.6914062,-0.035156 -1.0195312,-0.035156 -0.058594,0 -0.1757813,0 -0.1757813,0.1992187 0,0.1171875 0.09375,0.1171875 0.1757813,0.1171875 0.5742187,0.011719 0.6796875,0.2109375 0.6796875,0.4335938 0,0.035156 -0.023437,0.1757812 -0.023437,0.2109375 l -1.125,4.4296875 -2.203125,-5.1914063 C 3.8796641,-6.7965313 3.8679453,-6.80825 3.6335703,-6.80825 H 2.2976328 c -0.1992187,0 -0.28125,0 -0.28125,0.1992187 0,0.1171875 0.082031,0.1171875 0.28125,0.1171875 0.046875,0 0.6679688,0 0.6679688,0.082031 l -1.3359375,5.3554687 c -0.09375,0.39843755 -0.2695313,0.7148438 -1.06640629,0.75000005 -0.0585938,0 -0.17578125,0 -0.17578125,0.19921875 0,0.0703125 0.046875,0.10546875 0.12890625,0.10546875 0.31640625,0 0.66796879,-0.03515625 0.99609379,-0.03515625 0.3398437,0 0.703125,0.03515625 1.03125,0.03515625 0.046875,0 0.1757812,0 0.1757812,-0.19921875 0,-0.10546875 -0.09375,-0.10546875 -0.1992187,-0.10546875 -0.5742188,-0.0234375 -0.65625,-0.24609375 -0.65625,-0.4453125 0,-0.0703125 0.011719,-0.1171875 0.035156,-0.22265625 l 1.3242188,-5.2617188 c 0.035156,0.058594 0.035156,0.082031 0.082031,0.1757813 l 2.484375,5.87109375 c 0.070312,0.1640625 0.09375,0.1875 0.1875,0.1875 0.1054688,0 0.1054688,-0.03515625 0.1640625,-0.2109375 z m 0,0"
         style="fill:#000000;fill-opacity:1;fill-rule:nonzero;stroke:none" />
      <path
         id="path15"
         d="M 11.845484,-1.8629375 V -2.4371563 H 9.1970469 v 0.5742188 z m 3.867188,0.6328125 v -0.5742188 h -0.246094 v 0.5507813 c 0,0.73828125 -0.304687,1.11328125 -0.667969,1.11328125 -0.667968,0 -0.667968,-0.90234375 -0.667968,-1.07812505 v -2.765625 h 1.429687 v -0.3046875 h -1.429687 v -1.8398437 h -0.246094 c -0.01172,0.8203125 -0.316406,1.8867187 -1.289063,1.921875 v 0.2226562 h 0.84375 v 2.7539063 c 0,1.21875 0.925782,1.3359375 1.289063,1.3359375 0.703125,0 0.984375,-0.703125 0.984375,-1.3359375 z m 5.90332,1.23046875 v -0.3046875 c -0.515625,0 -0.773437,0 -0.785156,-0.3046875 V -2.5074688 c 0,-0.8554687 0,-1.171875 -0.304688,-1.5234375 -0.140625,-0.1757812 -0.46875,-0.375 -1.042968,-0.375 -0.84375,0 -1.277344,0.5976563 -1.441407,0.9609375 v -3.46875 L 16.600367,-6.80825 v 0.3164062 c 0.703125,0 0.785156,0.070312 0.785156,0.5507813 v 5.1796875 c 0,0.45703125 -0.117187,0.45703125 -0.785156,0.45703125 v 0.3046875 l 1.125,-0.03515625 1.113281,0.03515625 v -0.3046875 c -0.65625,0 -0.773437,0 -0.773437,-0.45703125 V -2.5895 c 0,-1.03125 0.714844,-1.59375 1.347656,-1.59375 0.621094,0 0.738281,0.5390625 0.738281,1.1015625 v 2.3203125 c 0,0.45703125 -0.117187,0.45703125 -0.773437,0.45703125 v 0.3046875 l 1.125,-0.03515625 z M 28.7615,-3.7965313 c 0,-0.3164062 -0.304687,-0.609375 -0.726562,-0.609375 -0.738282,0 -1.089844,0.6679688 -1.230469,1.1015625 v -1.1015625 l -1.382813,0.1171875 v 0.3046875 c 0.691407,0 0.773438,0.070312 0.773438,0.5625 v 2.6601563 c 0,0.45703125 -0.105469,0.45703125 -0.773438,0.45703125 v 0.3046875 l 1.136719,-0.03515625 c 0.398438,0 0.867188,0 1.265625,0.03515625 v -0.3046875 h -0.210937 c -0.738282,0 -0.761719,-0.1171875 -0.761719,-0.46875 V -2.30825 c 0,-0.984375 0.421875,-1.875 1.183594,-1.875 0.05859,0 0.08203,0 0.105468,0.011719 -0.03516,0.011719 -0.234375,0.1289063 -0.234375,0.3867188 0,0.28125 0.210938,0.4335937 0.433594,0.4335937 0.175781,0 0.421875,-0.1289062 0.421875,-0.4453128 z m 4.97168,1.6640625 c 0,-1.2773437 -0.996094,-2.3320312 -2.191407,-2.3320312 -1.253906,0 -2.214843,1.0898437 -2.214843,2.3320312 0,1.28906255 1.03125,2.2382813 2.203125,2.2382813 1.207031,0 2.203125,-0.97265625 2.203125,-2.2382813 z M 32.912867,-2.2145 c 0,0.3632812 0,0.9023437 -0.222656,1.3359375 -0.222656,0.4453125 -0.65625,0.73828125 -1.148438,0.73828125 -0.433593,0 -0.867187,-0.2109375 -1.136718,-0.66796875 -0.257813,-0.4335938 -0.257813,-1.0429688 -0.257813,-1.40625 0,-0.3867188 0,-0.9257813 0.246094,-1.359375 0.269531,-0.4570313 0.738281,-0.6679688 1.136719,-0.6679688 0.433593,0 0.867187,0.2226563 1.125,0.6445313 0.257812,0.4335937 0.257812,1.0078125 0.257812,1.3828125 z m 7.854492,-1.7695313 v -0.3046875 c -0.222656,0.011719 -0.515625,0.023437 -0.726562,0.023437 l -0.9375,-0.023437 v 0.3046875 c 0.363281,0.011719 0.585937,0.1875 0.585937,0.4804688 0,0.058594 0,0.082031 -0.04687,0.2109375 L 38.728297,-0.74965625 37.743922,-3.527 c -0.03516,-0.1171875 -0.04687,-0.140625 -0.04687,-0.1875 0,-0.2695313 0.386719,-0.2695313 0.585937,-0.2695313 v -0.3046875 l -1.03125,0.023437 c -0.304687,0 -0.597656,-0.011719 -0.890625,-0.023437 v 0.3046875 c 0.363282,0 0.527344,0.023437 0.621094,0.1523438 0.05859,0.058594 0.164063,0.3515625 0.234375,0.5390625 l -0.855469,2.4140625 -0.949218,-2.6601563 c -0.04687,-0.1171875 -0.04687,-0.140625 -0.04687,-0.1757812 0,-0.2695313 0.386718,-0.2695313 0.585937,-0.2695313 v -0.3046875 l -1.089844,0.023437 -0.925781,-0.023437 v 0.3046875 c 0.503906,0 0.621094,0.035156 0.738281,0.3515625 l 1.253907,3.5273438 c 0.05859,0.140625 0.08203,0.2109375 0.210937,0.2109375 0.128906,0 0.152344,-0.05859375 0.199219,-0.19921875 l 1.007812,-2.81250005 1.019532,2.8242188 c 0.03516,0.1171875 0.07031,0.1875 0.199218,0.1875 0.128907,0 0.152344,-0.08203125 0.199219,-0.1875 l 1.160156,-3.2695313 c 0.175782,-0.4921875 0.492188,-0.6210937 0.84375,-0.6328125 z m 0,0"
         style="fill:#000000;fill-opacity:1;fill-rule:nonzero;stroke:none" />
    </g>
    <path
       id="path16"
       d="m 3.5281328,-6.2107109 c 0,-0.2109375 0,-0.3164063 -0.2578125,-0.3164063 -0.1171875,0 -0.1289062,0 -0.2226562,0.070312 -0.7617188,0.5742188 -1.7929688,0.5742188 -2.0039063,0.5742188 H 0.84453906 v 0.46875 H 1.0437578 c 0.1640625,0 0.7148438,-0.011719 1.3007813,-0.1992188 v 5.14453126 H 0.96172656 V 2.265625e-4 C 1.3953203,-0.03492969 2.4500078,-0.03492969 2.9421953,-0.03492969 c 0.4804688,0 1.546875,0 1.9804688,0.0351562525 V -0.46852344 H 3.5281328 Z m 0,0"
       style="fill:#000000;fill-opacity:1;fill-rule:nonzero;stroke:none"
       aria-label="1"
       transform="matrix(1.3333333,0,0,1.3333333,8.0106667,14.542667)" />
    <path
       id="path17"
       d="M 3.0000781,-6.7018828 C 2.8946094,-6.8190703 2.8828906,-6.8307891 2.6719531,-6.8307891 H 0.38679687 v 0.46875 H 1.4649219 v 5.60156254 c 0,0.22265625 -0.011719,0.234375 -0.2929688,0.2578125 -0.23437498,0.0351562 -0.25781248,0.0351562 -0.53906248,0.0351562 H 0.38679687 v 0.46875 c 0.375,-0.03515625 0.94921873,-0.03515625 1.33593753,-0.03515625 0.421875,0 0.9375,0 1.3476562,0.03515625 v -0.46875 H 2.8242969 c -0.1875,0 -0.3515625,-0.0117188 -0.5273438,-0.0351562 -0.2929687,-0.0234375 -0.3046875,-0.0351563 -0.3046875,-0.2578125 V -5.9636016 l 4.9570313,5.83593754 c 0.1054687,0.1171875 0.1171875,0.12890625 0.2695312,0.12890625 0.2695313,0 0.2695313,-0.09375 0.2695313,-0.31640625 V -6.0807891 c 0,-0.2109375 0.011719,-0.2226562 0.2929687,-0.2578125 0.234375,-0.023437 0.2578125,-0.023437 0.5390625,-0.023437 h 0.2460938 v -0.46875 c -0.375,0.023437 -0.9492188,0.023437 -1.3359375,0.023437 -0.421875,0 -0.9375,0 -1.3476563,-0.023437 v 0.46875 h 0.2578125 c 0.1757813,0 0.3398438,0.011719 0.5273438,0.023437 0.28125,0.035156 0.2929687,0.046875 0.2929687,0.2578125 v 4.0429688 z m 0,0"
       style="fill:#000000;fill-opacity:1;fill-rule:nonzero;stroke:none"
       aria-label="N"
       transform="matrix(1.3333333,0,0,1.3333333,71.773333,15.096)" />
    <path
       id="path18"
       d="m -146.018,107.593 h 8.967"
       style="fill:none;stroke:#000000;stroke-width:0.3985;stroke-linecap:butt;stroke-linejoin:miter;stroke-miterlimit:10;stroke-dasharray:none;stroke-opacity:1"
       transform="matrix(1.3333333,0,0,-1.3333333,346.16667,147.04667)" />
    <path
       id="path19"
       d="M 3.0004219,-6.70425 C 2.8949531,-6.8214375 2.8832344,-6.8331563 2.6722969,-6.8331563 H 0.38714063 v 0.46875 H 1.4652656 v 5.60156255 c 0,0.22265625 -0.011719,0.234375 -0.2929687,0.2578125 C 0.93792188,-0.469875 0.91448438,-0.469875 0.63323438,-0.469875 H 0.38714063 v 0.46875 c 0.375,-0.03515625 0.94921877,-0.03515625 1.33593747,-0.03515625 0.421875,0 0.9375,0 1.3476563,0.03515625 v -0.46875 H 2.8246406 c -0.1875,0 -0.3515625,-0.0117188 -0.5273437,-0.0351563 C 2.0043281,-0.5284688 1.9926094,-0.5401876 1.9926094,-0.7628438 v -5.203125 l 4.9570312,5.83593755 c 0.1054688,0.1171875 0.1171875,0.12890625 0.2695313,0.12890625 0.2695312,0 0.2695312,-0.09375 0.2695312,-0.31640625 V -6.0831563 c 0,-0.2109375 0.011719,-0.2226562 0.2929688,-0.2578125 0.234375,-0.023437 0.2578125,-0.023437 0.5390625,-0.023437 h 0.2460937 v -0.46875 c -0.375,0.023437 -0.9492187,0.023437 -1.3359375,0.023437 -0.421875,0 -0.9375,0 -1.3476562,-0.023437 v 0.46875 h 0.2578125 c 0.1757812,0 0.3398437,0.011719 0.5273437,0.023437 0.28125,0.035156 0.2929688,0.046875 0.2929688,0.2578125 v 4.0429688 z m 0,0"
       style="fill:#000000;fill-opacity:1;fill-rule:nonzero;stroke:none"
       aria-label="N"
       transform="matrix(1.3333333,0,0,1.3333333,151.476,14.564)" />
    <path
       id="path20"
       d="m 3.7268906,-0.76072656 c 0,0.3046875 0,0.7617187475 1.03125,0.7617187475 h 0.4804688 c 0.1992187,0 0.3164062,0 0.3164062,-0.2343749975 0,-0.234375 -0.1289062,-0.234375 -0.2578125,-0.234375 -0.609375,-0.0117188 -0.609375,-0.140625 -0.609375,-0.36328125 V -2.9755703 c 0,-0.890625 -0.703125,-1.5351563 -2.1914062,-1.5351563 -0.5625,0 -1.78125002,0.035156 -1.78125002,0.9140625 0,0.4453125 0.35156252,0.6328125 0.62109372,0.6328125 0.3046875,0 0.6210938,-0.2109375 0.6210938,-0.6328125 0,-0.2929687 -0.1875,-0.46875 -0.2109375,-0.4921875 0.28125,-0.058594 0.5976562,-0.058594 0.7148437,-0.058594 0.75,0 1.0898438,0.4101562 1.0898438,1.171875 v 0.3398437 c -0.703125,0.023437 -3.23437502,0.1171875 -3.23437502,1.5585938 0,0.96093749 1.24218752,1.13671874 1.92187502,1.13671874 0.796875,0 1.265625,-0.41015625 1.4882812,-0.8203122 z M 3.5511094,-2.3310391 v 0.9492188 c 0,0.94921874 -0.9140625,1.07812499 -1.1601563,1.07812499 -0.5039062,0 -0.9023437,-0.33984375 -0.9023437,-0.78515629 0,-1.0664062 1.5703125,-1.2070312 2.0625,-1.2421875 z m 6.1787109,1.89843754 v 0.4921875 L 11.557945,9.921875e-4 V -0.46775781 c -0.621093,0 -0.691406,0 -0.691406,-0.38671875 V -6.9130703 l -1.7578124,0.082031 v 0.46875 c 0.609375,0 0.6796875,0 0.6796875,0.3867188 V -4.030258 C 9.2962266,-4.4169766 8.7806016,-4.4872891 8.4524766,-4.4872891 c -1.453125,0 -2.5078125,0.8789063 -2.5078125,2.2851563 0,1.31249999 0.9257812,2.26171874 2.390625,2.26171874 0.609375,0 1.0898437,-0.234375 1.3945312,-0.4921875 z m 0,-3.08203124 v 2.484375 c -0.1289062,0.18749999 -0.5390625,0.72656249 -1.2890625,0.72656249 -1.21875,0 -1.21875,-1.19531249 -1.21875,-1.89843749 0,-0.4804688 0,-1.0195313 0.2578125,-1.40625 0.2929688,-0.4101563 0.7617188,-0.515625 1.0664063,-0.515625 0.5742187,0 0.9726562,0.3164062 1.1835937,0.609375 z m 3.0263677,-0.890625 v 0.46875 c 0.164062,0 0.386718,0 0.527343,0.023437 0.222657,0.035156 0.222657,0.1640625 0.222657,0.375 v 3.96093749 c 0,0.4921875 -0.152344,1.20703121 -0.75,1.20703121 -0.152344,0 -0.234375,-0.011719 -0.386719,-0.058594 0.1875,-0.140625 0.246094,-0.3398438 0.246094,-0.4921875 0,-0.35156251 -0.257813,-0.62109376 -0.621094,-0.62109376 -0.375,0 -0.632813,0.26953125 -0.632813,0.63281246 0,0.5625 0.597657,0.9023438 1.417969,0.9023438 0.855469,0 1.804688,-0.515625 1.804688,-1.57031251 V -4.4872891 Z m 1.828125,-1.734375 c 0,-0.4335938 -0.351563,-0.7851563 -0.773438,-0.7851563 -0.433594,0 -0.785156,0.3515625 -0.785156,0.7851563 0,0.421875 0.351562,0.7734375 0.785156,0.7734375 0.421875,0 0.773438,-0.3515625 0.773438,-0.7734375 z m 0,0"
       style="fill:#000000;fill-opacity:1;fill-rule:nonzero;stroke:none"
       aria-label="adj"
       transform="matrix(1.3333333,0,0,1.3333333,239.148,11.221333)" />
  </g>
</svg>
