<?xml version="1.0" encoding="UTF-8" standalone="no"?>
<!-- Created with Inkscape (http://www.inkscape.org/) -->

<svg
   version="1.1"
   id="svg1"
   width="230.70799"
   height="239.08667"
   viewBox="0 0 230.70799 239.08667"
   sodipodi:docname="so3-solid-ball.pdf"
   xmlns:inkscape="http://www.inkscape.org/namespaces/inkscape"
   xmlns:sodipodi="http://sodipodi.sourceforge.net/DTD/sodipodi-0.dtd"
   xmlns="http://www.w3.org/2000/svg"
   xmlns:svg="http://www.w3.org/2000/svg">
  <defs
     id="defs1" />
  <sodipodi:namedview
     id="namedview1"
     pagecolor="#ffffff"
     bordercolor="#000000"
     borderopacity="0.25"
     inkscape:showpageshadow="2"
     inkscape:pageopacity="0.0"
     inkscape:pagecheckerboard="0"
     inkscape:deskcolor="#d1d1d1">
    <inkscape:page
       x="0"
       y="0"
       inkscape:label="1"
       id="page1"
       width="230.70799"
       height="239.08667"
       margin="0"
       bleed="0" />
  </sodipodi:namedview>
  <g
     id="g1"
     inkscape:groupmode="layer"
     inkscape:label="1">
    <path
       id="path1"
       d="m 153.9696,-58.3569 c 0,-5.51439 -18.99403,-9.9827 -42.42646,-9.9827 -23.43244,0 -42.42644,4.46831 -42.42644,9.9827 h 42.42644 z"
       style="fill:none;stroke:#000000;stroke-width:0.74721;stroke-linecap:butt;stroke-linejoin:miter;stroke-miterlimit:10;stroke-dasharray:none;stroke-opacity:0"
       transform="matrix(1.3333333,0,0,-1.3333333,-16.04,-39.518667)" />
    <path
       id="path2"
       d="m 153.9696,-58.3569 c 0,-5.51439 -18.99403,-9.9827 -42.42646,-9.9827 -23.43244,0 -42.42644,4.46831 -42.42644,9.9827"
       style="fill:none;stroke:#4a90e2;stroke-width:0.74721;stroke-linecap:butt;stroke-linejoin:miter;stroke-miterlimit:10;stroke-dasharray:none;stroke-opacity:1"
       transform="matrix(1.3333333,0,0,-1.3333333,-16.04,-39.518667)" />
    <path
       id="path3"
       d="m 47.32065,-103.86186 c 0,35.07393 28.43872,63.51265 63.52011,63.51265 35.07393,0 63.51265,-28.43872 63.51265,-63.51265 0,-35.08139 -28.43872,-63.51265 -63.51265,-63.51265 -35.08139,0 -63.52011,28.43126 -63.52011,63.51265 z"
       style="fill:#4a90e2;fill-opacity:0.1;fill-rule:nonzero;stroke:#4a90e2;stroke-width:1.49442;stroke-linecap:butt;stroke-linejoin:miter;stroke-miterlimit:10;stroke-dasharray:none;stroke-opacity:1"
       transform="matrix(1.3333333,0,0,-1.3333333,-16.04,-39.518667)" />
    <path
       id="path4"
       d="m 47.32065,-103.86186 c 0,8.24917 28.43872,14.94415 63.52011,14.94415 35.07393,0 63.51265,-6.69498 63.51265,-14.94415 0,-8.25662 -28.43872,-14.94416 -63.51265,-14.94416 -35.08139,0 -63.52011,6.68754 -63.52011,14.94416 z"
       style="fill:#4a90e2;fill-opacity:0.2;fill-rule:nonzero;stroke:#4a90e2;stroke-width:0.74721;stroke-linecap:butt;stroke-linejoin:miter;stroke-miterlimit:10;stroke-dasharray:4.48325, 4.48325;stroke-dashoffset:0;stroke-opacity:1"
       transform="matrix(1.3333333,0,0,-1.3333333,-16.04,-39.518667)" />
    <path
       id="path5"
       d="m 112.08115,-103.86186 26.19709,37.84608"
       style="fill:none;stroke:#9b9b9b;stroke-width:0.74721;stroke-linecap:butt;stroke-linejoin:miter;stroke-miterlimit:10;stroke-dasharray:none;stroke-opacity:1"
       transform="matrix(1.3333333,0,0,-1.3333333,-16.04,-39.518667)" />
    <path
       id="path6"
       d="m 138.27824,-66.01578 v -48.1949"
       style="fill:none;stroke:#9b9b9b;stroke-width:0.74721;stroke-linecap:butt;stroke-linejoin:miter;stroke-miterlimit:10;stroke-dasharray:none;stroke-opacity:1"
       transform="matrix(1.3333333,0,0,-1.3333333,-16.04,-39.518667)" />
    <path
       id="path7"
       d="m 69.1167,-58.3569 c 0,5.51439 18.994,9.9827 42.42644,9.9827 23.43243,0 42.42646,-4.46831 42.42646,-9.9827 0,-5.51439 -18.99403,-9.9827 -42.42646,-9.9827 -23.43244,0 -42.42644,4.46831 -42.42644,9.9827 z"
       style="fill:#4a90e2;fill-opacity:0.2;fill-rule:nonzero;stroke:#4a90e2;stroke-width:0.74721;stroke-linecap:butt;stroke-linejoin:miter;stroke-miterlimit:10;stroke-dasharray:4.48325, 4.48325;stroke-dashoffset:0;stroke-opacity:1"
       transform="matrix(1.3333333,0,0,-1.3333333,-16.04,-39.518667)" />
    <path
       id="path8"
       d="m 125.94931,-82.00603 c 0,1.03863 0.83687,1.86801 1.86803,1.86801 1.03114,0 1.86801,-0.82938 1.86801,-1.86801 0,-1.03116 -0.83687,-1.86802 -1.86801,-1.86802 -1.03116,0 -1.86803,0.83686 -1.86803,1.86802 z"
       style="fill:#3768a2;fill-opacity:1;fill-rule:nonzero;stroke:#366cab;stroke-width:0.74721;stroke-linecap:butt;stroke-linejoin:miter;stroke-miterlimit:10;stroke-dasharray:none;stroke-opacity:1"
       transform="matrix(1.3333333,0,0,-1.3333333,-16.04,-39.518667)" />
    <path
       id="path9"
       d="m 112.08115,-103.86186 26.19709,-10.34882"
       style="fill:none;stroke:#9b9b9b;stroke-width:0.74721;stroke-linecap:butt;stroke-linejoin:miter;stroke-miterlimit:10;stroke-dasharray:none;stroke-opacity:1"
       transform="matrix(1.3333333,0,0,-1.3333333,-16.04,-39.518667)" />
    <path
       id="path10"
       d="m 127.81734,-82.00603 v -28.34906"
       style="fill:none;stroke:#9b9b9b;stroke-width:0.74721;stroke-linecap:butt;stroke-linejoin:miter;stroke-miterlimit:10;stroke-dasharray:none;stroke-opacity:1"
       transform="matrix(1.3333333,0,0,-1.3333333,-16.04,-39.518667)" />
    <path
       id="path11"
       d="m 136.41022,-66.01578 c 0,1.03861 0.83687,1.86801 1.86802,1.86801 1.03115,0 1.86802,-0.8294 1.86802,-1.86801 0,-1.03114 -0.83687,-1.86802 -1.86802,-1.86802 -1.03115,0 -1.86802,0.83688 -1.86802,1.86802 z"
       style="fill:#7ed321;fill-opacity:1;fill-rule:nonzero;stroke:#7ed321;stroke-width:0.74721;stroke-linecap:butt;stroke-linejoin:miter;stroke-miterlimit:10;stroke-dasharray:none;stroke-opacity:1"
       transform="matrix(1.3333333,0,0,-1.3333333,-16.04,-39.518667)" />
    <path
       id="path12"
       d="m 69.1167,-149.51624 c 0,5.51439 18.994,9.9827 42.42644,9.9827 23.43243,0 42.42646,-4.46831 42.42646,-9.9827 0,-5.51438 -18.99403,-9.98269 -42.42646,-9.98269 -23.43244,0 -42.42644,4.46831 -42.42644,9.98269 z"
       style="fill:#4a90e2;fill-opacity:0.2;fill-rule:nonzero;stroke:#4a90e2;stroke-width:0.74721;stroke-linecap:butt;stroke-linejoin:miter;stroke-miterlimit:10;stroke-dasharray:4.48325, 4.48325;stroke-dashoffset:0;stroke-opacity:1"
       transform="matrix(1.3333333,0,0,-1.3333333,-16.04,-39.518667)" />
    <path
       id="path13"
       d="m 85.89151,-141.7154 26.18964,37.85354"
       style="fill:none;stroke:#9b9b9b;stroke-width:0.74721;stroke-linecap:butt;stroke-linejoin:miter;stroke-miterlimit:10;stroke-dasharray:none;stroke-opacity:1"
       transform="matrix(1.3333333,0,0,-1.3333333,-16.04,-39.518667)" />
    <path
       id="path14"
       d="m 84.02348,-141.7154 c 0,1.03117 0.82941,1.86803 1.86803,1.86803 1.03114,0 1.86801,-0.83686 1.86801,-1.86803 0,-1.03112 -0.83687,-1.868 -1.86801,-1.868 -1.03862,0 -1.86803,0.83688 -1.86803,1.868 z"
       style="fill:#7ed321;fill-opacity:1;fill-rule:nonzero;stroke:#7ed321;stroke-width:0.74721;stroke-linecap:butt;stroke-linejoin:miter;stroke-miterlimit:10;stroke-dasharray:none;stroke-opacity:1"
       transform="matrix(1.3333333,0,0,-1.3333333,-16.04,-39.518667)" />
    <path
       id="path15"
       d="m 120.34526,-118.69392 c 0,1.03862 0.83687,1.86802 1.86801,1.86802 1.03115,0 1.86803,-0.8294 1.86803,-1.86802 0,-1.03113 -0.83688,-1.86802 -1.86803,-1.86802 -1.03114,0 -1.86801,0.83689 -1.86801,1.86802 z"
       style="fill:#417505;fill-opacity:1;fill-rule:nonzero;stroke:#417505;stroke-width:0.74721;stroke-linecap:butt;stroke-linejoin:miter;stroke-miterlimit:10;stroke-dasharray:none;stroke-opacity:1"
       transform="matrix(1.3333333,0,0,-1.3333333,-16.04,-39.518667)" />
    <path
       id="path16"
       d="m 112.08115,-103.86186 10.13212,-14.83206"
       style="fill:none;stroke:#9b9b9b;stroke-width:0.74721;stroke-linecap:butt;stroke-linejoin:miter;stroke-miterlimit:10;stroke-dasharray:none;stroke-opacity:1"
       transform="matrix(1.3333333,0,0,-1.3333333,-16.04,-39.518667)" />
    <path
       id="path17"
       d="m 101.95647,-89.03725 10.12468,-14.82461"
       style="fill:none;stroke:#9b9b9b;stroke-width:0.74721;stroke-linecap:butt;stroke-linejoin:miter;stroke-miterlimit:10;stroke-dasharray:none;stroke-opacity:1"
       transform="matrix(1.3333333,0,0,-1.3333333,-16.04,-39.518667)" />
    <path
       id="path18"
       d="m 100.08846,-89.03725 c 0,1.03115 0.8294,1.86801 1.86801,1.86801 1.03116,0 1.86803,-0.83686 1.86803,-1.86801 0,-1.03114 -0.83687,-1.86802 -1.86803,-1.86802 -1.03861,0 -1.86801,0.83688 -1.86801,1.86802 z"
       style="fill:#417505;fill-opacity:1;fill-rule:nonzero;stroke:#417505;stroke-width:0.74721;stroke-linecap:butt;stroke-linejoin:miter;stroke-miterlimit:10;stroke-dasharray:none;stroke-opacity:1"
       transform="matrix(1.3333333,0,0,-1.3333333,-16.04,-39.518667)" />
    <path
       id="path19"
       d="m 174.35341,-103.86186 c 0,0 0,0 0,0 0,-8.25662 -28.43872,-14.94416 -63.51265,-14.94416 -35.08139,0 -63.52011,6.68754 -63.52011,14.94416 h 63.52011 z"
       style="fill:none;stroke:#000000;stroke-width:0.74721;stroke-linecap:butt;stroke-linejoin:miter;stroke-miterlimit:10;stroke-dasharray:none;stroke-opacity:0"
       transform="matrix(1.3333333,0,0,-1.3333333,-16.04,-39.518667)" />
    <path
       id="path20"
       d="m 174.35341,-103.86186 c 0,0 0,0 0,0 0,-8.25662 -28.43872,-14.94416 -63.51265,-14.94416 -35.08139,0 -63.52011,6.68754 -63.52011,14.94416"
       style="fill:none;stroke:#4a90e2;stroke-width:0.74721;stroke-linecap:butt;stroke-linejoin:miter;stroke-miterlimit:10;stroke-dasharray:none;stroke-opacity:1"
       transform="matrix(1.3333333,0,0,-1.3333333,-16.04,-39.518667)" />
    <path
       id="path21"
       d="m 153.9696,-149.51624 c 0,-5.51438 -18.99403,-9.98269 -42.42646,-9.98269 -23.43244,0 -42.42644,4.46831 -42.42644,9.98269 h 42.42644 z"
       style="fill:none;stroke:#000000;stroke-width:0.74721;stroke-linecap:butt;stroke-linejoin:miter;stroke-miterlimit:10;stroke-dasharray:none;stroke-opacity:0"
       transform="matrix(1.3333333,0,0,-1.3333333,-16.04,-39.518667)" />
    <path
       id="path22"
       d="m 153.9696,-149.51624 c 0,-5.51438 -18.99403,-9.98269 -42.42646,-9.98269 -23.43244,0 -42.42644,4.46831 -42.42644,9.98269"
       style="fill:none;stroke:#4a90e2;stroke-width:0.74721;stroke-linecap:butt;stroke-linejoin:miter;stroke-miterlimit:10;stroke-dasharray:none;stroke-opacity:1"
       transform="matrix(1.3333333,0,0,-1.3333333,-16.04,-39.518667)" />
    <path
       id="path23"
       d="m 110.21312,-103.86186 c 0,1.03116 0.83687,1.86802 1.86803,1.86802 1.03114,0 1.86801,-0.83686 1.86801,-1.86802 0,-1.03114 -0.83687,-1.86801 -1.86801,-1.86801 -1.03116,0 -1.86803,0.83687 -1.86803,1.86801 z"
       style="fill:#9013fe;fill-opacity:1;fill-rule:nonzero;stroke:#9013fe;stroke-width:0.74721;stroke-linecap:butt;stroke-linejoin:miter;stroke-miterlimit:10;stroke-dasharray:none;stroke-opacity:1"
       transform="matrix(1.3333333,0,0,-1.3333333,-16.04,-39.518667)" />
    <path
       id="path24"
       d="m 45.7515,-59.41046 65.08926,-43.622"
       style="fill:none;stroke:#9013fe;stroke-width:0.74721;stroke-linecap:butt;stroke-linejoin:miter;stroke-miterlimit:10;stroke-dasharray:none;stroke-opacity:1"
       transform="matrix(1.3333333,0,0,-1.3333333,-16.04,-39.518667)" />
    <path
       id="path25"
       d="m 103.92865,-101.35728 c 3.25648,-0.48252 5.97328,-1.31391 8.1525,-2.50458 -1.92966,1.56306 -3.73134,3.75993 -5.41544,6.58856"
       style="fill:none;stroke:#9013fe;stroke-width:0.74721;stroke-linecap:butt;stroke-linejoin:miter;stroke-miterlimit:10;stroke-dasharray:none;stroke-opacity:1"
       transform="matrix(1.3333333,0,0,-1.3333333,-16.04,-39.518667)" />
    <g
       id="g25"
       aria-label="B&#10;3&#10;π&#10;⊂R&#10;3"
       transform="matrix(1.3333333,0,0,1.3333333,99.028,221.52267)">
      <path
         id="path26"
         d="m 1.5932578,-0.77285937 c -0.09375,0.38671875 -0.1171875,0.46875 -0.90234374,0.46875 -0.17578125,0 -0.26953125,0 -0.26953125,0.19921875 0,0.105468745 0.0820313,0.105468745 0.26953125,0.105468745 H 4.2416953 c 1.5703125,0 2.7539063,-1.171875025 2.7539063,-2.156250025 0,-0.7148437 -0.5859375,-1.2890625 -1.546875,-1.3945312 1.03125,-0.1992188 2.0859375,-0.9375 2.0859375,-1.875 0,-0.7382813 -0.65625,-1.3828125 -1.8515625,-1.3828125 H 2.3315391 c -0.1875,0 -0.2929688,0 -0.2929688,0.1992187 0,0.1171875 0.09375,0.1171875 0.28125,0.1171875 0.023437,0 0.2109375,0 0.375,0.011719 0.1875,0.023437 0.2695313,0.035156 0.2695313,0.1640625 0,0.035156 -0.011719,0.070312 -0.035156,0.1875 z m 1.5,-2.87109373 0.6210938,-2.4726563 c 0.09375,-0.3515625 0.1054687,-0.375 0.5390625,-0.375 h 1.2890625 c 0.8671875,0 1.078125,0.5859375 1.078125,1.0195313 0,0.8789062 -0.8554688,1.828125 -2.0742188,1.828125 z m -0.4453125,3.33984373 c -0.140625,0 -0.1523437,0 -0.2226562,-0.0117188 -0.09375,-0.0117188 -0.1289063,-0.0234375 -0.1289063,-0.10546875 0,-0.0234375 0,-0.046875 0.058594,-0.22265625 L 3.0346641,-3.4212969 h 1.8867187 c 0.9609375,0 1.1484375,0.7265625 1.1484375,1.1601563 0,0.984375 -0.890625,1.95703123 -2.0625,1.95703123 z m 0,0"
         style="fill:#000000;fill-opacity:1;fill-rule:nonzero;stroke:none" />
      <path
         id="path27"
         d="m 9.9545859,-6.4447344 c 0.5507811,0 0.9375001,0.375 0.9375001,1.125 0,0.8671875 -0.503906,1.125 -0.9023438,1.125 -0.28125,0 -0.890625,-0.082031 -1.1835938,-0.4921875 0.328125,-0.011719 0.3984375,-0.2460937 0.3984375,-0.3867187 0,-0.2226563 -0.1640625,-0.3867188 -0.3867187,-0.3867188 -0.1875,0 -0.3867188,0.1171875 -0.3867188,0.4101563 0,0.65625 0.7265625,1.078125 1.5703126,1.078125 0.972656,0 1.640625,-0.6445313 1.640625,-1.3476563 0,-0.5390625 -0.445313,-1.0898437 -1.21875,-1.2421875 0.738281,-0.2695312 0.996094,-0.796875 0.996094,-1.21875 0,-0.5507812 -0.632813,-0.9609375 -1.40625,-0.9609375 -0.7734378,0 -1.3593753,0.375 -1.3593753,0.9375 0,0.234375 0.1523437,0.3632813 0.3632812,0.3632813 0.2109375,0 0.3515625,-0.1640625 0.3515625,-0.3515625 0,-0.1992188 -0.140625,-0.3515625 -0.3515625,-0.3632813 0.234375,-0.3046875 0.7148438,-0.3867187 0.9726563,-0.3867187 0.3164058,0 0.7617188,0.1523437 0.7617188,0.7617187 0,0.2929688 -0.105469,0.609375 -0.28125,0.8320313 -0.234375,0.2578125 -0.421875,0.28125 -0.7734376,0.2929687 -0.1757812,0.023437 -0.1875,0.023437 -0.2226562,0.023437 -0.011719,0 -0.070312,0.011719 -0.070312,0.09375 0,0.09375 0.058594,0.09375 0.1757812,0.09375 z m 0,0"
         style="fill:#000000;fill-opacity:1;fill-rule:nonzero;stroke:none" />
      <path
         id="path28"
         d="m 9.7260703,-0.06680469 h 0.8320317 c -0.105469,0.421875 -0.257813,1.0546875 -0.257813,1.60546879 0,0.28125 0.03516,0.46875 0.07031,0.6210937 0.117187,0.3515625 0.210937,0.375 0.316406,0.375 0.164062,0 0.328125,-0.1523437 0.328125,-0.3164062 0,-0.058594 -0.01172,-0.082031 -0.05859,-0.1523438 -0.128906,-0.2578125 -0.257812,-0.65625 -0.257812,-1.23046874 0,-0.12890625 0,-0.41015625 0.105468,-0.90234375 h 0.867188 c 0.128906,0 0.1875,0 0.257812,-0.05859375 0.09375,-0.0703125 0.117188,-0.17578125 0.117188,-0.2109375 0,-0.19921875 -0.175781,-0.19921875 -0.292969,-0.19921875 H 9.1166953 c -0.28125,0 -0.4804687,0.0585938 -0.796875,0.3515625 -0.1757812,0.1640625 -0.4453125,0.5390625 -0.4453125,0.59765625 0,0.0820313 0.09375,0.0820313 0.1171875,0.0820313 0.070312,0 0.082031,-0.0117188 0.1289063,-0.0703125 0.3515625,-0.4921875 0.7851562,-0.4921875 0.9375,-0.4921875 h 0.421875 C 9.2690391,0.69491406 8.8940391,1.5269453 8.6831016,1.9371016 c -0.046875,0.09375 -0.1171875,0.2460937 -0.140625,0.2695312 0,0.023437 -0.011719,0.058594 -0.011719,0.1054688 0,0.1054687 0.082031,0.2226562 0.2460938,0.2226562 0.2695312,0 0.3515625,-0.3164062 0.515625,-0.9375 z m 0,0"
         style="fill:#000000;fill-opacity:1;fill-rule:nonzero;stroke:none" />
      <path
         id="path29"
         d="m 22.29443,-4.9798906 c 0.175781,0 0.351562,0 0.351562,-0.1992188 0,-0.1992187 -0.175781,-0.1992187 -0.351562,-0.1992187 h -2.671875 c -1.710938,0 -3.058594,1.2890625 -3.058594,2.8828125 0,1.59374998 1.347656,2.89453123 3.058594,2.89453123 h 2.671875 c 0.175781,0 0.351562,0 0.351562,-0.19921875 0,-0.199218755 -0.175781,-0.199218755 -0.351562,-0.199218755 h -2.660157 c -1.546875,0 -2.671875,-1.160156225 -2.671875,-2.496093725 0,-1.3242188 1.125,-2.484375 2.671875,-2.484375 z m 0,0"
         style="fill:#000000;fill-opacity:1;fill-rule:nonzero;stroke:none" />
      <path
         id="path30"
         d="m 28.918453,-3.1283281 h 0.351563 l 1.5,2.30859373 c 0.09375,0.1640625 0.339843,0.55078125 0.445312,0.703125 0.07031,0.117187495 0.105469,0.117187495 0.328125,0.117187495 h 1.382813 c 0.175781,0 0.328125,0 0.328125,-0.175781245 0,-0.0820313 -0.07031,-0.15234375 -0.152344,-0.17578125 -0.375,-0.0820313 -0.855469,-0.73828123 -1.101563,-1.05468753 -0.07031,-0.09375 -0.5625,-0.75 -1.230468,-1.828125 0.890625,-0.1640625 1.746093,-0.5390625 1.746093,-1.7226562 0,-1.3828125 -1.464843,-1.8632813 -2.648437,-1.8632813 h -3.117188 c -0.1875,0 -0.339843,0 -0.339843,0.1757813 0,0.1640625 0.1875,0.1640625 0.269531,0.1640625 0.5625,0 0.609375,0.070312 0.609375,0.5742187 v 4.99218753 c 0,0.4921875 -0.04687,0.5625 -0.609375,0.5625 -0.08203,0 -0.269531,0 -0.269531,0.17578125 0,0.175781245 0.152343,0.175781245 0.339843,0.175781245 h 2.71875 c 0.1875,0 0.328125,0 0.328125,-0.175781245 0,-0.17578125 -0.164062,-0.17578125 -0.269531,-0.17578125 -0.574219,0 -0.609375,-0.0820313 -0.609375,-0.5625 z m 1.921875,-0.4921875 c 0.28125,-0.3632813 0.304688,-0.890625 0.304688,-1.3242188 0,-0.4804687 -0.05859,-1.0078125 -0.375,-1.4179687 0.410156,0.082031 1.394531,0.3984375 1.394531,1.40625 0,0.6445312 -0.304688,1.1484375 -1.324219,1.3359375 z m -1.921875,-2.3203125 c 0,-0.1992188 0,-0.5390625 0.621094,-0.5390625 0.84375,0 1.253906,0.3515625 1.253906,1.5351562 0,1.2773438 -0.304687,1.4648438 -1.875,1.4648438 z m -1.359375,5.58984373 c 0.08203,-0.17578125 0.08203,-0.45703125 0.08203,-0.55078125 V -5.9291094 c 0,-0.09375 0,-0.3632812 -0.08203,-0.5507812 h 1.136719 c -0.128906,0.1640625 -0.128906,0.3632812 -0.128906,0.515625 v 5.06249998 c 0,0.10546875 0,0.375 0.08203,0.55078125 z m 2.121094,-2.77734373 c 0.07031,-0.011719 0.117187,-0.023437 0.1875,-0.023437 0.152344,0 0.375,-0.011719 0.527344,-0.035156 0.140625,0.234375 1.21875,2.015625 2.050781,2.83593753 h -0.972656 z m 0,0"
         style="fill:#000000;fill-opacity:1;fill-rule:nonzero;stroke:none" />
      <path
         id="path31"
         d="m 35.340328,-6.4447344 c 0.550781,0 0.9375,0.375 0.9375,1.125 0,0.8671875 -0.503906,1.125 -0.902344,1.125 -0.28125,0 -0.890625,-0.082031 -1.183593,-0.4921875 0.328125,-0.011719 0.398437,-0.2460937 0.398437,-0.3867187 0,-0.2226563 -0.164062,-0.3867188 -0.386719,-0.3867188 -0.1875,0 -0.386718,0.1171875 -0.386718,0.4101563 0,0.65625 0.726562,1.078125 1.570312,1.078125 0.972656,0 1.640625,-0.6445313 1.640625,-1.3476563 0,-0.5390625 -0.445312,-1.0898437 -1.21875,-1.2421875 0.738281,-0.2695312 0.996094,-0.796875 0.996094,-1.21875 0,-0.5507812 -0.632813,-0.9609375 -1.40625,-0.9609375 -0.773438,0 -1.359375,0.375 -1.359375,0.9375 0,0.234375 0.152344,0.3632813 0.363281,0.3632813 0.210938,0 0.351563,-0.1640625 0.351563,-0.3515625 0,-0.1992188 -0.140625,-0.3515625 -0.351563,-0.3632813 0.234375,-0.3046875 0.714844,-0.3867187 0.972656,-0.3867187 0.316407,0 0.761719,0.1523437 0.761719,0.7617187 0,0.2929688 -0.105469,0.609375 -0.28125,0.8320313 -0.234375,0.2578125 -0.421875,0.28125 -0.773437,0.2929687 -0.175782,0.023437 -0.1875,0.023437 -0.222657,0.023437 -0.01172,0 -0.07031,0.011719 -0.07031,0.09375 0,0.09375 0.05859,0.09375 0.175781,0.09375 z m 0,0"
         style="fill:#000000;fill-opacity:1;fill-rule:nonzero;stroke:none" />
    </g>
    <g
       id="g31"
       aria-label="1&#10;3×3"
       transform="matrix(1.3333333,0,0,1.3333333,14.28,31.713333)">
      <path
         id="path32"
         d="m 3.5282813,-6.2098047 c 0,-0.2109375 0,-0.3164062 -0.2578125,-0.3164062 -0.1171875,0 -0.1289063,0 -0.2226563,0.070312 -0.7617187,0.5742187 -1.7929687,0.5742187 -2.0039062,0.5742187 H 0.8446875 v 0.46875 h 0.1992188 c 0.1640625,0 0.7148437,-0.011719 1.3007812,-0.1992187 v 5.14453121 H 0.961875 v 0.46875 c 0.4335938,-0.03515625 1.4882813,-0.03515625 1.9804688,-0.03515625 0.4804687,0 1.546875,0 1.9804687,0.03515625 v -0.46875 H 3.5282813 Z m 0,0"
         style="fill:#9013fe;fill-opacity:1;fill-rule:nonzero;stroke:none" />
      <path
         id="path33"
         d="m 7.6269141,-0.83675781 c 0.5507812,0 0.9375,0.375 0.9375,1.125 0,0.86718751 -0.5039063,1.12500001 -0.9023438,1.12500001 -0.28125,0 -0.890625,-0.082031 -1.1835937,-0.49218751 0.328125,-0.0117188 0.3984375,-0.24609375 0.3984375,-0.38671875 0,-0.22265625 -0.1640625,-0.38671875 -0.3867188,-0.38671875 -0.1875,0 -0.3867187,0.1171875 -0.3867187,0.41015625 0,0.65624996 0.7265625,1.07812496 1.5703125,1.07812496 0.9726562,0 1.640625,-0.64453121 1.640625,-1.34765621 0,-0.5390625 -0.4453125,-1.08984375 -1.21875,-1.2421875 0.7382812,-0.26953129 0.9960937,-0.79687499 0.9960937,-1.21874999 0,-0.5507813 -0.6328125,-0.9609375 -1.40625,-0.9609375 -0.7734375,0 -1.359375,0.375 -1.359375,0.9375 0,0.234375 0.1523438,0.3632812 0.3632813,0.3632812 0.2109375,0 0.3515625,-0.1640625 0.3515625,-0.3515625 0,-0.1992187 -0.140625,-0.3515625 -0.3515625,-0.3632812 0.234375,-0.3046875 0.7148437,-0.3867188 0.9726562,-0.3867188 0.3164063,0 0.7617188,0.1523438 0.7617188,0.7617188 0,0.2929687 -0.1054688,0.609375 -0.28125,0.8320312 -0.234375,0.2578125 -0.421875,0.28125 -0.7734375,0.2929688 -0.1757813,0.023437 -0.1875,0.023437 -0.2226563,0.023437 -0.011719,0 -0.070312,0.011719 -0.070312,0.09375 0,0.09375 0.058594,0.09375 0.1757813,0.09375 z m 0,0"
         style="fill:#9013fe;fill-opacity:1;fill-rule:nonzero;stroke:none" />
      <path
         id="path34"
         d="m 14.587852,-1.7742578 c 0.07031,-0.082031 0.09375,-0.1171875 0.09375,-0.1640625 0,-0.1171875 -0.09375,-0.1757813 -0.164063,-0.1757813 -0.07031,0 -0.09375,0.023437 -0.175781,0.1054688 l -1.535156,1.51171874 -1.535157,-1.52343754 c -0.05859,-0.070312 -0.09375,-0.09375 -0.152343,-0.09375 -0.105469,0 -0.175782,0.070312 -0.175782,0.1757813 0,0.058594 0.02344,0.082031 0.105469,0.1640625 l 1.523438,1.52343749 -1.523438,1.51171871 c -0.09375,0.1054688 -0.105469,0.140625 -0.105469,0.1757813 0,0.1054687 0.07031,0.1757812 0.175782,0.1757812 0.05859,0 0.08203,-0.023437 0.152343,-0.09375 l 1.535157,-1.53515621 1.59375,1.59375001 c 0.03516,0.023437 0.07031,0.035156 0.117187,0.035156 0.07031,0 0.164063,-0.058594 0.164063,-0.1757812 0,-0.058594 -0.01172,-0.070312 -0.03516,-0.082031 -0.01172,-0.035156 -1.371093,-1.38281246 -1.59375,-1.60546871 z m 0,0"
         style="fill:#9013fe;fill-opacity:1;fill-rule:nonzero;stroke:none" />
      <path
         id="path35"
         d="m 17.825156,-0.83675781 c 0.550782,0 0.9375,0.375 0.9375,1.125 0,0.86718751 -0.503906,1.12500001 -0.902343,1.12500001 -0.28125,0 -0.890625,-0.082031 -1.183594,-0.49218751 0.328125,-0.0117188 0.398437,-0.24609375 0.398437,-0.38671875 0,-0.22265625 -0.164062,-0.38671875 -0.386718,-0.38671875 -0.1875,0 -0.386719,0.1171875 -0.386719,0.41015625 0,0.65624996 0.726562,1.07812496 1.570312,1.07812496 0.972657,0 1.640625,-0.64453121 1.640625,-1.34765621 0,-0.5390625 -0.445312,-1.08984375 -1.21875,-1.2421875 C 19.032188,-1.2234766 19.29,-1.7508203 19.29,-2.1726953 c 0,-0.5507813 -0.632812,-0.9609375 -1.40625,-0.9609375 -0.773437,0 -1.359375,0.375 -1.359375,0.9375 0,0.234375 0.152344,0.3632812 0.363281,0.3632812 0.210938,0 0.351563,-0.1640625 0.351563,-0.3515625 0,-0.1992187 -0.140625,-0.3515625 -0.351563,-0.3632812 0.234375,-0.3046875 0.714844,-0.3867188 0.972657,-0.3867188 0.316406,0 0.761718,0.1523438 0.761718,0.7617188 0,0.2929687 -0.105468,0.609375 -0.28125,0.8320312 -0.234375,0.2578125 -0.421875,0.28125 -0.773437,0.2929688 -0.175781,0.023437 -0.1875,0.023437 -0.222656,0.023437 -0.01172,0 -0.07031,0.011719 -0.07031,0.09375 0,0.09375 0.05859,0.09375 0.175781,0.09375 z m 0,0"
         style="fill:#9013fe;fill-opacity:1;fill-rule:nonzero;stroke:none" />
    </g>
  </g>
</svg>
