<?xml version="1.0" encoding="UTF-8" standalone="no"?>
<!-- Created with Inkscape (http://www.inkscape.org/) -->

<svg
   version="1.1"
   id="svg1"
   width="478.23999"
   height="356.48001"
   viewBox="0 0 478.23999 356.48001"
   sodipodi:docname="tracing-path-on-SU3-and-SO3.pdf"
   xmlns:inkscape="http://www.inkscape.org/namespaces/inkscape"
   xmlns:sodipodi="http://sodipodi.sourceforge.net/DTD/sodipodi-0.dtd"
   xmlns="http://www.w3.org/2000/svg"
   xmlns:svg="http://www.w3.org/2000/svg">
  <defs
     id="defs1" />
  <sodipodi:namedview
     id="namedview1"
     pagecolor="#ffffff"
     bordercolor="#000000"
     borderopacity="0.25"
     inkscape:showpageshadow="2"
     inkscape:pageopacity="0.0"
     inkscape:pagecheckerboard="0"
     inkscape:deskcolor="#d1d1d1">
    <inkscape:page
       x="0"
       y="0"
       inkscape:label="1"
       id="page1"
       width="478.23999"
       height="356.48001"
       margin="0"
       bleed="0" />
  </sodipodi:namedview>
  <g
     id="g1"
     inkscape:groupmode="layer"
     inkscape:label="1">
    <path
       id="path1"
       d="m 283.64001,-133.32425 c 0,0 0,0 0,0 0,0 0,0 0,0 0,35.08141 28.43125,63.51265 63.51265,63.51265 35.07392,0 63.51265,-28.43124 63.51265,-63.51265 h -63.51265 z"
       style="fill:#f5a623;fill-opacity:0.1;fill-rule:nonzero;stroke:#000000;stroke-width:1.49442;stroke-linecap:butt;stroke-linejoin:miter;stroke-miterlimit:10;stroke-dasharray:none;stroke-opacity:0"
       transform="matrix(1.3333333,0,0,-1.3333333,-70.296,26.966667)" />
    <path
       id="path2"
       d="m 283.64001,-133.32425 c 0,0 0,0 0,0 0,0 0,0 0,0 0,35.08141 28.43125,63.51265 63.51265,63.51265 35.07392,0 63.51265,-28.43124 63.51265,-63.51265"
       style="fill:none;stroke:#f5a623;stroke-width:1.49442;stroke-linecap:butt;stroke-linejoin:miter;stroke-miterlimit:10;stroke-dasharray:none;stroke-opacity:1"
       transform="matrix(1.3333333,0,0,-1.3333333,-70.296,26.966667)" />
    <path
       id="path3"
       d="m 327.07518,-148.01434 c -0.19428,5.40231 -0.0747,11.08108 0.38109,16.92424 2.69742,34.10257 16.13222,60.86755 30.00038,59.76915 0.11955,-0.0075 0.23912,-0.02242 0.35865,-0.0299 l -5.23792,-61.72682 z"
       style="fill:none;stroke:#000000;stroke-width:1.49442;stroke-linecap:butt;stroke-linejoin:miter;stroke-miterlimit:10;stroke-dasharray:none;stroke-opacity:0"
       transform="matrix(1.3333333,0,0,-1.3333333,-70.296,26.966667)" />
    <path
       id="path4"
       d="m 327.07518,-148.01434 c -0.19428,5.40231 -0.0747,11.08108 0.38109,16.92424 2.69742,34.10257 16.13222,60.86755 30.00038,59.76915 0.11955,-0.0075 0.23912,-0.02242 0.35865,-0.0299"
       style="fill:none;stroke:#417505;stroke-width:1.49442;stroke-linecap:butt;stroke-linejoin:miter;stroke-miterlimit:10;stroke-dasharray:none;stroke-opacity:1"
       transform="matrix(1.3333333,0,0,-1.3333333,-70.296,26.966667)" />
    <path
       id="path5"
       d="m 183.81308,-119.55322 c 0,0 0,0 0,0 0,-8.25662 -28.43126,-14.94416 -63.51265,-14.94416 -35.07393,0 -63.51265,6.68754 -63.51265,14.94416 h 63.51265 z"
       style="fill:none;stroke:#000000;stroke-width:0.74721;stroke-linecap:butt;stroke-linejoin:miter;stroke-miterlimit:10;stroke-dasharray:none;stroke-opacity:0"
       transform="matrix(1.3333333,0,0,-1.3333333,-70.296,26.966667)" />
    <path
       id="path6"
       d="m 183.81308,-119.55322 c 0,0 0,0 0,0 0,-8.25662 -28.43126,-14.94416 -63.51265,-14.94416 -35.07393,0 -63.51265,6.68754 -63.51265,14.94416"
       style="fill:none;stroke:#8b572a;stroke-width:0.74721;stroke-linecap:butt;stroke-linejoin:miter;stroke-miterlimit:10;stroke-dasharray:none;stroke-opacity:1"
       transform="matrix(1.3333333,0,0,-1.3333333,-70.296,26.966667)" />
    <path
       id="path7"
       d="m 162.9361,-74.79547 c 0,-5.51439 -18.99404,-9.9827 -42.42647,-9.9827 -23.43243,0 -42.42644,4.46831 -42.42644,9.9827 h 42.42644 z"
       style="fill:none;stroke:#000000;stroke-width:0.74721;stroke-linecap:butt;stroke-linejoin:miter;stroke-miterlimit:10;stroke-dasharray:none;stroke-opacity:0"
       transform="matrix(1.3333333,0,0,-1.3333333,-70.296,26.966667)" />
    <path
       id="path8"
       d="m 162.9361,-74.79547 c 0,-5.51439 -18.99404,-9.9827 -42.42647,-9.9827 -23.43243,0 -42.42644,4.46831 -42.42644,9.9827"
       style="fill:none;stroke:#f5a623;stroke-width:0.74721;stroke-linecap:butt;stroke-linejoin:miter;stroke-miterlimit:10;stroke-dasharray:none;stroke-opacity:1"
       transform="matrix(1.3333333,0,0,-1.3333333,-70.296,26.966667)" />
    <path
       id="path9"
       d="m 162.72687,-164.65466 c 0,-5.51439 -18.99402,-9.9827 -42.42644,-9.9827 -23.43245,0 -42.42647,4.46831 -42.42647,9.9827 h 42.42647 z"
       style="fill:none;stroke:#000000;stroke-width:0.74721;stroke-linecap:butt;stroke-linejoin:miter;stroke-miterlimit:10;stroke-dasharray:none;stroke-opacity:0"
       transform="matrix(1.3333333,0,0,-1.3333333,-70.296,26.966667)" />
    <path
       id="path10"
       d="m 162.72687,-164.65466 c 0,-5.51439 -18.99402,-9.9827 -42.42644,-9.9827 -23.43245,0 -42.42647,4.46831 -42.42647,9.9827"
       style="fill:none;stroke:#f5a623;stroke-width:0.74721;stroke-linecap:butt;stroke-linejoin:miter;stroke-miterlimit:10;stroke-dasharray:none;stroke-opacity:1"
       transform="matrix(1.3333333,0,0,-1.3333333,-70.296,26.966667)" />
    <path
       id="path11"
       d="m 56.78778,-119.55322 c 0,35.07392 28.43872,63.51265 63.51265,63.51265 35.08139,0 63.51265,-28.43873 63.51265,-63.51265 0,-35.08139 -28.43126,-63.51265 -63.51265,-63.51265 -35.07393,0 -63.51265,28.43126 -63.51265,63.51265 z"
       style="fill:#f5a623;fill-opacity:0.05;fill-rule:nonzero;stroke:#f5a623;stroke-width:1.49442;stroke-linecap:butt;stroke-linejoin:miter;stroke-miterlimit:10;stroke-dasharray:none;stroke-opacity:1"
       transform="matrix(1.3333333,0,0,-1.3333333,-70.296,26.966667)" />
    <path
       id="path12"
       d="m 96.67372,-115.08492 c 5.27528,34.08016 20.02516,59.73925 32.93691,57.2959 12.91922,-2.43591 19.11355,-32.04026 13.83081,-66.12788 -5.27529,-34.08014 -20.01769,-59.73178 -32.93691,-57.29588 -12.91176,2.43589 -19.10609,32.04026 -13.83081,66.12786 z"
       style="fill:none;stroke:#417505;stroke-width:1.49442;stroke-linecap:butt;stroke-linejoin:miter;stroke-miterlimit:10;stroke-dasharray:1.6837, 2.74971;stroke-dashoffset:0;stroke-opacity:1"
       transform="matrix(1.3333333,0,0,-1.3333333,-70.296,26.966667)" />
    <path
       id="path13"
       d="m 110.50453,-181.21278 c 0,0 0,0 0,0 0,0 0,0 0,0 -12.91176,2.43589 -19.10609,32.04026 -13.83081,66.12786 5.27528,34.08016 20.02516,59.73925 32.93691,57.2959 l -9.54932,-61.71188 z"
       style="fill:none;stroke:#000000;stroke-width:1.49442;stroke-linecap:butt;stroke-linejoin:miter;stroke-miterlimit:10;stroke-dasharray:none;stroke-opacity:0"
       transform="matrix(1.3333333,0,0,-1.3333333,-70.296,26.966667)" />
    <path
       id="path14"
       d="m 110.50453,-181.21278 c 0,0 0,0 0,0 0,0 0,0 0,0 -12.91176,2.43589 -19.10609,32.04026 -13.83081,66.12786 5.27528,34.08016 20.02516,59.73925 32.93691,57.2959"
       style="fill:none;stroke:#417505;stroke-width:1.49442;stroke-linecap:butt;stroke-linejoin:miter;stroke-miterlimit:10;stroke-dasharray:none;stroke-opacity:1"
       transform="matrix(1.3333333,0,0,-1.3333333,-70.296,26.966667)" />
    <path
       id="path15"
       d="m 283.63254,-133.32425 c 0,8.25664 28.43872,14.94415 63.51265,14.94415 35.08139,0 63.52012,-6.68751 63.52012,-14.94415 0,-8.24916 -28.43873,-14.94415 -63.52012,-14.94415 -35.07393,0 -63.51265,6.69499 -63.51265,14.94415 z"
       style="fill:none;stroke:#f5a623;stroke-width:0.74721;stroke-linecap:butt;stroke-linejoin:miter;stroke-miterlimit:10;stroke-dasharray:4.48325, 4.48325;stroke-dashoffset:0;stroke-opacity:0.5"
       transform="matrix(1.3333333,0,0,-1.3333333,-70.296,26.966667)" />
    <path
       id="path16"
       d="m 410.66531,-133.32425 c 0,0 0,0 0,0 0,-8.24916 -28.43873,-14.94415 -63.51265,-14.94415 -35.0814,0 -63.51265,6.69499 -63.51265,14.94415 h 63.51265 z"
       style="fill:#f5a623;fill-opacity:0.1;fill-rule:nonzero;stroke:#000000;stroke-width:1.49442;stroke-linecap:butt;stroke-linejoin:miter;stroke-miterlimit:10;stroke-dasharray:none;stroke-opacity:0"
       transform="matrix(1.3333333,0,0,-1.3333333,-70.296,26.966667)" />
    <path
       id="path17"
       d="m 410.66531,-133.32425 c 0,0 0,0 0,0 0,-8.24916 -28.43873,-14.94415 -63.51265,-14.94415 -35.0814,0 -63.51265,6.69499 -63.51265,14.94415"
       style="fill:none;stroke:#f5a623;stroke-width:1.49442;stroke-linecap:butt;stroke-linejoin:miter;stroke-miterlimit:10;stroke-dasharray:none;stroke-opacity:1"
       transform="matrix(1.3333333,0,0,-1.3333333,-70.296,26.966667)" />
    <path
       id="path18"
       d="m 56.78778,-119.55322 c 0,8.24917 28.43872,14.94415 63.51265,14.94415 35.08139,0 63.51265,-6.69498 63.51265,-14.94415 0,-8.25662 -28.43126,-14.94416 -63.51265,-14.94416 -35.07393,0 -63.51265,6.68754 -63.51265,14.94416 z"
       style="fill:none;stroke:#8b572a;stroke-width:0.74721;stroke-linecap:butt;stroke-linejoin:miter;stroke-miterlimit:10;stroke-dasharray:4.48325, 4.48325;stroke-dashoffset:0;stroke-opacity:1"
       transform="matrix(1.3333333,0,0,-1.3333333,-70.296,26.966667)" />
    <path
       id="path19"
       d="m 345.2921,-74.59373 c 0,1.03115 0.83687,1.86802 1.86803,1.86802 1.03114,0 1.86801,-0.83687 1.86801,-1.86802 0,-1.03115 -0.83687,-1.86802 -1.86801,-1.86802 -1.03116,0 -1.86803,0.83687 -1.86803,1.86802 z"
       style="fill:#9013fe;fill-opacity:1;fill-rule:nonzero;stroke:#9013fe;stroke-width:0.74721;stroke-linecap:butt;stroke-linejoin:miter;stroke-miterlimit:10;stroke-dasharray:none;stroke-opacity:1"
       transform="matrix(1.3333333,0,0,-1.3333333,-70.296,26.966667)" />
    <path
       id="path20"
       d="m 78.08319,-74.79547 c 0,5.51439 18.99401,9.9827 42.42644,9.9827 23.43243,0 42.42647,-4.46831 42.42647,-9.9827 0,-5.51439 -18.99404,-9.9827 -42.42647,-9.9827 -23.43243,0 -42.42644,4.46831 -42.42644,9.9827 z"
       style="fill:none;stroke:#f5a623;stroke-width:0.74721;stroke-linecap:butt;stroke-linejoin:miter;stroke-miterlimit:10;stroke-dasharray:4.48325, 4.48325;stroke-dashoffset:0;stroke-opacity:0.5"
       transform="matrix(1.3333333,0,0,-1.3333333,-70.296,26.966667)" />
    <path
       id="path21"
       d="m 118.32779,-60.337 c 0,1.03861 0.83687,1.868 1.86801,1.868 1.03116,0 1.86803,-0.82939 1.86803,-1.868 0,-1.03116 -0.83687,-1.86803 -1.86803,-1.86803 -1.03114,0 -1.86801,0.83687 -1.86801,1.86803 z"
       style="fill:#9013fe;fill-opacity:1;fill-rule:nonzero;stroke:#9013fe;stroke-width:0.74721;stroke-linecap:butt;stroke-linejoin:miter;stroke-miterlimit:10;stroke-dasharray:none;stroke-opacity:1"
       transform="matrix(1.3333333,0,0,-1.3333333,-70.296,26.966667)" />
    <path
       id="path22"
       d="m 118.32779,-178.76942 c 0,1.03863 0.83687,1.86802 1.86801,1.86802 1.03116,0 1.86803,-0.82939 1.86803,-1.86802 0,-1.03115 -0.83687,-1.86802 -1.86803,-1.86802 -1.03114,0 -1.86801,0.83687 -1.86801,1.86802 z"
       style="fill:#4a90e2;fill-opacity:1;fill-rule:nonzero;stroke:#4a90e2;stroke-width:0.74721;stroke-linecap:butt;stroke-linejoin:miter;stroke-miterlimit:10;stroke-dasharray:none;stroke-opacity:1"
       transform="matrix(1.3333333,0,0,-1.3333333,-70.296,26.966667)" />
    <path
       id="path23"
       d="m 77.87396,-164.65466 c 0,5.5144 18.99402,9.98268 42.42647,9.98268 23.43242,0 42.42644,-4.46828 42.42644,-9.98268 0,-5.51439 -18.99402,-9.9827 -42.42644,-9.9827 -23.43245,0 -42.42647,4.46831 -42.42647,9.9827 z"
       style="fill:none;stroke:#f5a623;stroke-width:0.74721;stroke-linecap:butt;stroke-linejoin:miter;stroke-miterlimit:10;stroke-dasharray:4.48325, 4.48325;stroke-dashoffset:0;stroke-opacity:0.5"
       transform="matrix(1.3333333,0,0,-1.3333333,-70.296,26.966667)" />
    <path
       id="path24"
       d="m 304.72621,-88.49179 c 0,5.5144 18.99402,9.98268 42.42645,9.98268 23.42496,0 42.42646,-4.46828 42.42646,-9.98268 0,-5.51439 -19.0015,-9.98268 -42.42646,-9.98268 -23.43243,0 -42.42645,4.46829 -42.42645,9.98268 z"
       style="fill:none;stroke:#f5a623;stroke-width:0.74721;stroke-linecap:butt;stroke-linejoin:miter;stroke-miterlimit:10;stroke-dasharray:4.48325, 4.48325;stroke-dashoffset:0;stroke-opacity:0.5"
       transform="matrix(1.3333333,0,0,-1.3333333,-70.296,26.966667)" />
    <path
       id="path25"
       d="m 389.57912,-88.49179 c 0,-5.51439 -19.0015,-9.98268 -42.42646,-9.98268 -23.43243,0 -42.42645,4.46829 -42.42645,9.98268 h 42.42645 z"
       style="fill:none;stroke:#000000;stroke-width:0.74721;stroke-linecap:butt;stroke-linejoin:miter;stroke-miterlimit:10;stroke-dasharray:none;stroke-opacity:0"
       transform="matrix(1.3333333,0,0,-1.3333333,-70.296,26.966667)" />
    <path
       id="path26"
       d="m 389.57912,-88.49179 c 0,-5.51439 -19.0015,-9.98268 -42.42646,-9.98268 -23.43243,0 -42.42645,4.46829 -42.42645,9.98268"
       style="fill:none;stroke:#f5a623;stroke-width:0.74721;stroke-linecap:butt;stroke-linejoin:miter;stroke-miterlimit:10;stroke-dasharray:none;stroke-opacity:1"
       transform="matrix(1.3333333,0,0,-1.3333333,-70.296,26.966667)" />
    <path
       id="path27"
       d="m 358.06937,-71.28358 c 11.97773,-1.03116 20.45854,-21.72881 21.10861,-48.78521 l -26.07007,-13.00888 z"
       style="fill:none;stroke:#000000;stroke-width:1.49442;stroke-linecap:butt;stroke-linejoin:miter;stroke-miterlimit:10;stroke-dasharray:1.6837, 2.74971;stroke-dashoffset:0;stroke-opacity:0"
       transform="matrix(1.3333333,0,0,-1.3333333,-70.296,26.966667)" />
    <path
       id="path28"
       d="m 358.06937,-71.28358 c 11.97773,-1.03116 20.45854,-21.72881 21.10861,-48.78521"
       style="fill:none;stroke:#417505;stroke-width:1.49442;stroke-linecap:butt;stroke-linejoin:miter;stroke-miterlimit:10;stroke-dasharray:1.6837, 2.74971;stroke-dashoffset:0;stroke-opacity:1"
       transform="matrix(1.3333333,0,0,-1.3333333,-70.296,26.966667)" />
    <path
       id="path29"
       d="m 325.20715,-148.01434 c 0,1.03112 0.83689,1.86801 1.86803,1.86801 1.03114,0 1.86801,-0.83689 1.86801,-1.86801 0,-1.03115 -0.83687,-1.86803 -1.86801,-1.86803 -1.03114,0 -1.86803,0.83688 -1.86803,1.86803 z"
       style="fill:#8b572a;fill-opacity:1;fill-rule:nonzero;stroke:#8b572a;stroke-width:0.74721;stroke-linecap:butt;stroke-linejoin:miter;stroke-miterlimit:10;stroke-dasharray:none;stroke-opacity:1"
       transform="matrix(1.3333333,0,0,-1.3333333,-70.296,26.966667)" />
    <path
       id="path30"
       d="m 377.51169,-120.55446 c 0,1.03113 0.83688,1.86801 1.86802,1.86801 1.03115,0 1.86802,-0.83688 1.86802,-1.86801 0,-1.03862 -0.83687,-1.86803 -1.86802,-1.86803 -1.03114,0 -1.86802,0.82941 -1.86802,1.86803 z"
       style="fill:#8b572a;fill-opacity:1;fill-rule:nonzero;stroke:#8b572a;stroke-width:0.74721;stroke-linecap:butt;stroke-linejoin:miter;stroke-miterlimit:10;stroke-dasharray:none;stroke-opacity:1"
       transform="matrix(1.3333333,0,0,-1.3333333,-70.296,26.966667)" />
    <path
       id="path31"
       d="m 143.2621,-105.79712 c 0,1.03114 0.83688,1.86802 1.86801,1.86802 1.03116,0 1.86803,-0.83688 1.86803,-1.86802 0,-1.03114 -0.83687,-1.86801 -1.86803,-1.86801 -1.03113,0 -1.86801,0.83687 -1.86801,1.86801 z"
       style="fill:#8b572a;fill-opacity:1;fill-rule:nonzero;stroke:#8b572a;stroke-width:0.74721;stroke-linecap:butt;stroke-linejoin:miter;stroke-miterlimit:10;stroke-dasharray:none;stroke-opacity:1"
       transform="matrix(1.3333333,0,0,-1.3333333,-70.296,26.966667)" />
    <path
       id="path32"
       d="m 93.19919,-133.07019 c 0,1.03113 0.83688,1.86801 1.86801,1.86801 1.03116,0 1.86803,-0.83688 1.86803,-1.86801 0,-1.03114 -0.83687,-1.86803 -1.86803,-1.86803 -1.03113,0 -1.86801,0.83689 -1.86801,1.86803 z"
       style="fill:#8b572a;fill-opacity:1;fill-rule:nonzero;stroke:#8b572a;stroke-width:0.74721;stroke-linecap:butt;stroke-linejoin:miter;stroke-miterlimit:10;stroke-dasharray:none;stroke-opacity:1"
       transform="matrix(1.3333333,0,0,-1.3333333,-70.296,26.966667)" />
    <path
       id="path33"
       d="M 124.70894,-186.67488 C 210.88438,-246.76532 300.89304,19.8533 343.74538,-65.7991"
       style="fill:none;stroke:#000000;stroke-width:0.74721;stroke-linecap:butt;stroke-linejoin:miter;stroke-miterlimit:10;stroke-dasharray:none;stroke-opacity:1"
       transform="matrix(1.3333333,0,0,-1.3333333,-70.296,26.966667)" />
    <path
       id="path34"
       d="m 338.6635,-60.7999 c 2.55151,-2.0801 4.46086,-4.18405 5.72449,-6.32176 -0.85874,2.33005 -1.28335,5.1393 -1.28379,8.43128"
       style="fill:none;stroke:#000000;stroke-width:0.74721;stroke-linecap:butt;stroke-linejoin:miter;stroke-miterlimit:10;stroke-dasharray:none;stroke-opacity:1"
       transform="matrix(1.3333333,0,0,-1.3333333,-70.296,26.966667)" />
    <g
       id="g34"
       aria-label="R(⃗n,π)"
       transform="matrix(1.3333333,0,0,1.3333333,344.42133,247.15067)">
      <path
         id="path35"
         d="m 3.7386875,-6.1159297 c 0.058594,-0.234375 0.082031,-0.3398437 0.28125,-0.3632812 0.082031,-0.011719 0.3984375,-0.011719 0.5976563,-0.011719 0.7148437,0 1.8164062,0 1.8164062,0.984375 0,0.3398438 -0.1523437,1.0195313 -0.5507812,1.4179688 -0.2578125,0.2578125 -0.7851563,0.5742187 -1.6757813,0.5742187 H 3.0941563 Z m 1.4296875,2.7304688 c 1.0078125,-0.2226563 2.1914063,-0.9140625 2.1914063,-1.921875 0,-0.8554688 -0.890625,-1.5 -2.203125,-1.5 H 2.3207188 c -0.1992188,0 -0.2929688,0 -0.2929688,0.1992187 0,0.1171875 0.09375,0.1171875 0.28125,0.1171875 0.023437,0 0.2109375,0 0.3867188,0.011719 0.1757812,0.023437 0.2578125,0.035156 0.2578125,0.1640625 0,0.035156 0,0.070312 -0.035156,0.1875 l -1.3359375,5.35546871 c -0.09375,0.38671875 -0.1171875,0.46875 -0.90234375,0.46875 -0.17578125,0 -0.26953125,0 -0.26953125,0.19921875 0,0.10546875 0.1171875,0.10546875 0.140625,0.10546875 0.28125,0 0.9726563,-0.03515625 1.2539063,-0.03515625 0.28125,0 0.984375,0.03515625 1.265625,0.03515625 0.082031,0 0.1992187,0 0.1992187,-0.19921875 0,-0.10546875 -0.09375,-0.10546875 -0.28125,-0.10546875 -0.3632812,0 -0.6445312,0 -0.6445312,-0.1875 0,-0.0585938 0.011719,-0.10546875 0.023437,-0.1640625 l 0.65625,-2.63671871 h 1.1953125 c 0.9023437,0 1.078125,0.5507812 1.078125,0.9023437 0,0.1523438 -0.082031,0.4570313 -0.140625,0.6914063 -0.070312,0.2695312 -0.1523438,0.6445312 -0.1523438,0.84374996 0,1.078125 1.1953125,1.078125 1.3242188,1.078125 0.84375,0 1.1953125,-1.0078125 1.1953125,-1.1484375 0,-0.11718746 -0.1171875,-0.11718746 -0.1171875,-0.11718746 -0.09375,0 -0.1171875,0.0703125 -0.1289063,0.14062496 -0.2578125,0.73828125 -0.6796875,0.90234375 -0.9140625,0.90234375 -0.328125,0 -0.3984375,-0.22265625 -0.3984375,-0.609375 0,-0.3046875 0.058594,-0.82031251 0.1054688,-1.13671871 0.011719,-0.140625 0.035156,-0.328125 0.035156,-0.46875 0,-0.7617188 -0.6679687,-1.078125 -0.9374996,-1.1718752 z m 0,0"
         style="fill:#8b572a;fill-opacity:1;fill-rule:nonzero;stroke:none" />
      <path
         id="path36"
         d="m 10.934,2.3918828 c 0,-0.035156 0,-0.046875 -0.164062,-0.2226562 C 9.52775,0.91532031 9.199625,-0.95967969 9.199625,-2.4948359 c 0,-1.7226563 0.3867188,-3.4570313 1.605469,-4.7109375 C 10.934,-7.3229609 10.934,-7.3346797 10.934,-7.3698359 c 0,-0.070312 -0.03516,-0.1054688 -0.09375,-0.1054688 -0.105469,0 -0.9960937,0.6796875 -1.5820312,1.9453125 -0.515625,1.1015625 -0.6328125,2.203125 -0.6328125,3.0351563 0,0.7851562 0.1171875,1.99218746 0.65625,3.11718746 0.5976562,1.21875004 1.4531247,1.87500004 1.5585937,1.87500004 0.05859,0 0.09375,-0.035156 0.09375,-0.1054688 z m 0,0"
         style="fill:#8b572a;fill-opacity:1;fill-rule:nonzero;stroke:none" />
      <path
         id="path37"
         d="m 16.594156,-5.9284297 c -0.128906,0.1289063 -0.457031,0.4101563 -0.457031,0.5859375 0,0.1054688 0.09375,0.1992188 0.199219,0.1992188 0.08203,0 0.128906,-0.070312 0.1875,-0.1289063 0.117187,-0.140625 0.339844,-0.421875 0.785156,-0.6445312 0.07031,-0.035156 0.164063,-0.09375 0.164063,-0.2109375 0,-0.09375 -0.07031,-0.1523438 -0.140625,-0.1992188 -0.210938,-0.1523437 -0.328125,-0.328125 -0.398438,-0.5625 -0.02344,-0.09375 -0.07031,-0.2226562 -0.199219,-0.2226562 -0.140625,0 -0.199218,0.1289062 -0.199218,0.2109375 0,0.046875 0.07031,0.3632812 0.234375,0.5742187 h -3.363282 c -0.164062,0 -0.339843,0 -0.339843,0.1992188 0,0.1992187 0.175781,0.1992187 0.339843,0.1992187 z m -4.198242,5.34375001 c -0.03516,0.15234375 -0.09375,0.375 -0.09375,0.421875 0,0.1875 0.140625,0.26953125 0.292969,0.26953125 0.117187,0 0.292969,-0.0703125 0.363281,-0.26953125 0.01172,-0.0234375 0.128906,-0.4921875 0.1875,-0.73828125 L 13.36857,-1.8034297 c 0.05859,-0.2226562 0.117188,-0.4335937 0.175782,-0.6679687 0.03516,-0.1640625 0.117187,-0.4570313 0.128906,-0.4921875 0.140625,-0.3164063 0.667969,-1.21875 1.617187,-1.21875 0.445313,0 0.539063,0.3632812 0.539063,0.6914062 0,0.6210938 -0.492188,1.8984375 -0.644531,2.3320313 -0.09375,0.22265621 -0.105469,0.33984371 -0.105469,0.45703121 0,0.46875 0.351562,0.80859375 0.820312,0.80859375 0.9375,0 1.300782,-1.45312496 1.300782,-1.53515626 0,-0.09375 -0.08203,-0.09375 -0.117188,-0.09375 -0.09375,0 -0.09375,0.023437 -0.152344,0.1757813 -0.199218,0.67968746 -0.527343,1.24218746 -1.007812,1.24218746 -0.175781,0 -0.246094,-0.10546875 -0.246094,-0.328125 0,-0.2578125 0.09375,-0.4921875 0.1875,-0.71484376 0.1875,-0.5273437 0.597656,-1.6171875 0.597656,-2.1914062 0,-0.6679688 -0.421875,-1.0664063 -1.136718,-1.0664063 -0.902344,0 -1.382813,0.6445313 -1.558594,0.8671875 -0.04687,-0.5507812 -0.457031,-0.8671875 -0.914063,-0.8671875 -0.457031,0 -0.644531,0.3867188 -0.75,0.5742188 -0.152343,0.3398437 -0.292968,0.9257812 -0.292968,0.9609375 0,0.1054687 0.09375,0.1054687 0.117187,0.1054687 0.09375,0 0.105469,-0.011719 0.164063,-0.234375 0.175781,-0.703125 0.375,-1.1835937 0.726562,-1.1835937 0.199219,0 0.316406,0.1289062 0.316406,0.4570312 0,0.2109375 -0.03516,0.3164063 -0.164062,0.8320313 z m 7.12793,0.57421875 c 0,-0.65625 -0.257813,-1.04296876 -0.644531,-1.04296876 -0.328125,0 -0.527344,0.24609376 -0.527344,0.52734376 0,0.26953125 0.199219,0.52734375 0.527344,0.52734375 0.117187,0 0.246093,-0.03515625 0.351562,-0.12890625 0.02344,-0.0234375 0.03516,-0.0351563 0.04687,-0.0351563 0.01172,0 0.02344,0.0117188 0.02344,0.15234375 0,0.73828125 -0.351563,1.33593759 -0.679688,1.66406259 -0.105469,0.1054687 -0.105469,0.1289062 -0.105469,0.1640625 0,0.070312 0.04687,0.1054687 0.09375,0.1054687 0.117188,0 0.914063,-0.7617187 0.914063,-1.93359379 z m 5.021484,-3.70312496 h 1.125 c -0.328125,1.4765625 -0.410156,1.8984375 -0.410156,2.5664062 0,0.15234376 0,0.42187501 0.07031,0.76171876 0.105469,0.43359375 0.210938,0.4921875 0.363282,0.4921875 0.199218,0 0.410156,-0.17578125 0.410156,-0.375 0,-0.0585938 0,-0.0820313 -0.05859,-0.22265625 -0.292969,-0.71484371 -0.292969,-1.35937501 -0.292969,-1.64062501 0,-0.5273437 0.07031,-1.0664062 0.175782,-1.5820312 h 1.136718 c 0.128907,0 0.492188,0 0.492188,-0.3398438 0,-0.234375 -0.210938,-0.234375 -0.398438,-0.234375 h -3.339843 c -0.210938,0 -0.597657,0 -1.03125,0.46875 -0.351563,0.3867188 -0.609375,0.84375 -0.609375,0.890625 0,0.011719 0,0.1054688 0.117187,0.1054688 0.08203,0 0.105469,-0.046875 0.164063,-0.1289063 0.480468,-0.7617187 1.066406,-0.7617187 1.265625,-0.7617187 h 0.5625 c -0.316407,1.2070312 -0.855469,2.4140625 -1.277344,3.31640621 -0.07031,0.15234375 -0.07031,0.1640625 -0.07031,0.234375 0,0.19921875 0.152344,0.26953125 0.28125,0.26953125 0.304688,0 0.386719,-0.26953125 0.503907,-0.64453125 0.140625,-0.45703125 0.140625,-0.48046871 0.269531,-0.97265621 z m 0,0"
         style="fill:#8b572a;fill-opacity:1;fill-rule:nonzero;stroke:none" />
      <path
         id="path38"
         d="m 30.844156,-2.4948359 c 0,-0.7734375 -0.117187,-1.9804688 -0.65625,-3.1054688 -0.597656,-1.21875 -1.464843,-1.875 -1.558593,-1.875 -0.05859,0 -0.105469,0.046875 -0.105469,0.1054688 0,0.035156 0,0.046875 0.199219,0.234375 0.972656,0.984375 1.535156,2.5664062 1.535156,4.640625 0,1.71093746 -0.363281,3.45703121 -1.59375,4.7226562 -0.140625,0.1171875 -0.140625,0.1289063 -0.140625,0.1640625 0,0.058594 0.04687,0.1054688 0.105469,0.1054688 0.09375,0 0.996093,-0.6796875 1.582031,-1.94531254 0.503906,-1.1015625 0.632812,-2.20312496 0.632812,-3.04687496 z m 0,0"
         style="fill:#8b572a;fill-opacity:1;fill-rule:nonzero;stroke:none" />
    </g>
    <g
       id="g38"
       aria-label="i⃗n·σ"
       transform="matrix(1.3333333,0,0,1.3333333,132.85333,162.48)">
      <path
         id="path39"
         d="m 2.8228906,-6.2223047 c 0,-0.1992187 -0.1289062,-0.3632812 -0.3632812,-0.3632812 -0.2695313,0 -0.5390625,0.2578125 -0.5390625,0.5273437 0,0.1875 0.140625,0.3632813 0.375,0.3632813 0.234375,0 0.5273437,-0.234375 0.5273437,-0.5273438 z m -0.75,3.7382813 c 0.1171875,-0.28125 0.1171875,-0.3046875 0.2226563,-0.5742188 0.070312,-0.1992187 0.1289062,-0.3398437 0.1289062,-0.5273437 0,-0.4453125 -0.328125,-0.8203125 -0.8203125,-0.8203125 -0.93749998,0 -1.31249998,1.453125 -1.31249998,1.5351562 0,0.1054688 0.09375,0.1054688 0.1171875,0.1054688 0.09375,0 0.10546875,-0.023437 0.15234375,-0.1875 0.26953125,-0.9375 0.66796873,-1.2304688 1.00781253,-1.2304688 0.082031,0 0.2578125,0 0.2578125,0.3164063 0,0.2109375 -0.070312,0.421875 -0.1171875,0.515625 -0.082031,0.2578125 -0.5273438,1.4179687 -0.6796875,1.8515625 -0.10546878,0.2578125 -0.23437503,0.58593746 -0.23437503,0.79687496 0,0.46875 0.33984373,0.80859375 0.82031253,0.80859375 0.9375,0 1.3007812,-1.44140621 1.3007812,-1.53515621 0,-0.09375 -0.09375,-0.09375 -0.1171875,-0.09375 -0.1054687,0 -0.1054687,0.023437 -0.1523437,0.1757812 -0.1757813,0.63281251 -0.5039063,1.24218751 -1.0195313,1.24218751 -0.1640625,0 -0.234375,-0.10546875 -0.234375,-0.328125 0,-0.2578125 0.058594,-0.3984375 0.2929688,-0.99609371 z m 6.4394531,-3.4453125 c -0.1289062,0.1289062 -0.4570312,0.4101562 -0.4570312,0.5859375 0,0.1054687 0.09375,0.1992187 0.1992187,0.1992187 0.082031,0 0.1289063,-0.070312 0.1875,-0.1289062 0.1171875,-0.140625 0.3398438,-0.421875 0.7851563,-0.6445313 0.070312,-0.035156 0.1640625,-0.09375 0.1640625,-0.2109375 0,-0.09375 -0.070312,-0.1523437 -0.140625,-0.1992187 -0.2109375,-0.1523438 -0.328125,-0.328125 -0.3984375,-0.5625 -0.023437,-0.09375 -0.070312,-0.2226563 -0.1992188,-0.2226563 -0.140625,0 -0.1992187,0.1289063 -0.1992187,0.2109375 0,0.046875 0.070312,0.3632813 0.234375,0.5742188 H 5.3248437 c -0.1640625,0 -0.3398437,0 -0.3398437,0.1992187 0,0.1992188 0.1757812,0.1992188 0.3398437,0.1992188 z m -4.2070312,5.34374996 c -0.035156,0.15234375 -0.09375,0.375 -0.09375,0.421875 0,0.1875 0.140625,0.26953125 0.2929687,0.26953125 0.1171875,0 0.2929688,-0.0703125 0.3632813,-0.26953125 0.011719,-0.0234375 0.1289062,-0.4921875 0.1875,-0.73828125 L 5.2779687,-1.8043359 c 0.058594,-0.2226563 0.1171875,-0.4335938 0.1757813,-0.6679688 0.035156,-0.1640625 0.1171875,-0.4570312 0.1289062,-0.4921875 0.140625,-0.3164062 0.6679688,-1.21875 1.6171875,-1.21875 0.4453125,0 0.5390625,0.3632813 0.5390625,0.6914063 0,0.6210937 -0.4921875,1.8984375 -0.6445312,2.3320312 -0.09375,0.22265626 -0.1054688,0.33984376 -0.1054688,0.45703126 0,0.46875 0.3515625,0.80859375 0.8203125,0.80859375 0.9375,0 1.3007813,-1.45312501 1.3007813,-1.53515621 0,-0.09375 -0.082031,-0.09375 -0.1171875,-0.09375 -0.09375,0 -0.09375,0.023437 -0.1523438,0.1757812 -0.1992187,0.67968751 -0.5273437,1.24218751 -1.0078125,1.24218751 -0.1757812,0 -0.2460937,-0.10546875 -0.2460937,-0.328125 0,-0.2578125 0.09375,-0.4921875 0.1875,-0.71484371 0.1875,-0.5273438 0.5976562,-1.6171875 0.5976562,-2.1914063 0,-0.6679687 -0.421875,-1.0664062 -1.1367187,-1.0664062 -0.9023438,0 -1.3828125,0.6445312 -1.5585938,0.8671875 -0.046875,-0.5507813 -0.4570312,-0.8671875 -0.9140625,-0.8671875 -0.4570312,0 -0.6445312,0.3867187 -0.75,0.5742187 C 3.86,-3.4918359 3.719375,-2.9058984 3.719375,-2.8707422 c 0,0.1054688 0.09375,0.1054688 0.1171875,0.1054688 0.09375,0 0.1054687,-0.011719 0.1640625,-0.234375 0.1757812,-0.703125 0.375,-1.1835938 0.7265625,-1.1835938 0.1992187,0 0.3164062,0.1289063 0.3164062,0.4570313 0,0.2109375 -0.035156,0.3164062 -0.1640625,0.8320312 z m 0,0"
         style="fill:#8b572a;fill-opacity:1;fill-rule:nonzero;stroke:none" />
      <path
         id="path40"
         d="m 13.536758,-2.4957422 c 0,-0.28125 -0.234375,-0.5273437 -0.527344,-0.5273437 -0.28125,0 -0.527344,0.2460937 -0.527344,0.5273437 0,0.2929688 0.246094,0.5390625 0.527344,0.5390625 0.292969,0 0.527344,-0.2460937 0.527344,-0.5390625 z m 0,0"
         style="fill:#8b572a;fill-opacity:1;fill-rule:nonzero;stroke:none" />
      <path
         id="path41"
         d="m 21.76332,-3.7144922 c 0.128907,0 0.492188,0 0.492188,-0.3398437 0,-0.234375 -0.210938,-0.234375 -0.386719,-0.234375 h -2.273437 c -1.5,0 -2.613282,1.640625 -2.613282,2.8242187 0,0.87890626 0.585938,1.57031251 1.5,1.57031251 1.171875,0 2.496094,-1.20703121 2.496094,-2.73046871 0,-0.1757813 0,-0.65625 -0.304687,-1.0898438 z m -3.269531,3.60937501 c -0.492187,0 -0.890625,-0.36328125 -0.890625,-1.07812501 0,-0.3046875 0.117188,-1.1132812 0.46875,-1.7109375 0.421875,-0.6796875 1.019531,-0.8203125 1.359375,-0.8203125 0.832031,0 0.914063,0.65625 0.914063,0.9609375 0,0.46875 -0.199219,1.2890625 -0.539063,1.79296876 -0.386719,0.59765625 -0.925781,0.85546875 -1.3125,0.85546875 z m 0,0"
         style="fill:#8b572a;fill-opacity:1;fill-rule:nonzero;stroke:none" />
    </g>
    <g
       id="g41"
       aria-label="−i⃗n·σ"
       transform="matrix(1.3333333,0,0,1.3333333,63.428,199.232)">
      <path
         id="path42"
         d="m 6.5637656,-2.2980234 c 0.1757813,0 0.3515625,0 0.3515625,-0.1992188 0,-0.1992187 -0.1757812,-0.1992187 -0.3515625,-0.1992187 h -5.390625 c -0.1640625,0 -0.33984372,0 -0.33984372,0.1992187 0,0.1992188 0.17578122,0.1992188 0.33984372,0.1992188 z m 0,0"
         style="fill:#8b572a;fill-opacity:1;fill-rule:nonzero;stroke:none" />
      <path
         id="path43"
         d="m 10.571578,-6.2238047 c 0,-0.1992187 -0.128906,-0.3632812 -0.363281,-0.3632812 -0.2695314,0 -0.5390626,0.2578125 -0.5390626,0.5273437 0,0.1875 0.140625,0.3632813 0.3749996,0.3632813 0.234375,0 0.527344,-0.234375 0.527344,-0.5273438 z m -0.7499999,3.7382813 c 0.1171875,-0.28125 0.1171875,-0.3046875 0.2226559,-0.5742188 0.07031,-0.1992187 0.128907,-0.3398437 0.128907,-0.5273437 0,-0.4453125 -0.3281254,-0.8203125 -0.8203129,-0.8203125 -0.9375,0 -1.3125,1.453125 -1.3125,1.5351562 0,0.1054688 0.09375,0.1054688 0.1171875,0.1054688 0.09375,0 0.1054688,-0.023437 0.1523438,-0.1875 0.2695312,-0.9375 0.6679687,-1.2304688 1.0078125,-1.2304688 0.082031,0 0.2578125,0 0.2578125,0.3164063 0,0.2109375 -0.070312,0.421875 -0.1171875,0.515625 -0.082031,0.2578125 -0.5273438,1.4179687 -0.6796875,1.8515625 -0.1054688,0.2578125 -0.234375,0.58593746 -0.234375,0.79687496 0,0.46875 0.3398437,0.80859375 0.8203125,0.80859375 0.9375001,0 1.3007811,-1.44140621 1.3007811,-1.53515621 0,-0.09375 -0.09375,-0.09375 -0.117187,-0.09375 -0.105469,0 -0.105469,0.023437 -0.152344,0.1757812 -0.175781,0.63281251 -0.5039064,1.24218751 -1.0195314,1.24218751 -0.1640625,0 -0.234375,-0.10546875 -0.234375,-0.328125 0,-0.2578125 0.058594,-0.3984375 0.2929688,-0.99609371 z M 16.261031,-5.9308359 C 16.132125,-5.8019297 15.804,-5.5206797 15.804,-5.3448984 c 0,0.1054687 0.09375,0.1992187 0.199219,0.1992187 0.08203,0 0.128906,-0.070312 0.1875,-0.1289062 0.117187,-0.140625 0.339844,-0.421875 0.785156,-0.6445313 0.07031,-0.035156 0.164063,-0.09375 0.164063,-0.2109375 0,-0.09375 -0.07031,-0.1523437 -0.140625,-0.1992187 -0.210938,-0.1523438 -0.328125,-0.328125 -0.398438,-0.5625 -0.02344,-0.09375 -0.07031,-0.2226563 -0.199219,-0.2226563 -0.140625,0 -0.199218,0.1289063 -0.199218,0.2109375 0,0.046875 0.07031,0.3632813 0.234375,0.5742188 h -3.363282 c -0.164062,0 -0.339843,0 -0.339843,0.1992187 0,0.1992188 0.175781,0.1992188 0.339843,0.1992188 z m -4.198242,5.34374996 c -0.03516,0.15234375 -0.09375,0.375 -0.09375,0.421875 0,0.1875 0.140625,0.26953125 0.292969,0.26953125 0.117187,0 0.292969,-0.0703125 0.363281,-0.26953125 0.01172,-0.0234375 0.128906,-0.4921875 0.1875,-0.73828125 l 0.222656,-0.90234371 c 0.05859,-0.2226563 0.117188,-0.4335938 0.175782,-0.6679688 0.03516,-0.1640625 0.117187,-0.4570312 0.128906,-0.4921875 0.140625,-0.3164062 0.667969,-1.21875 1.617187,-1.21875 0.445313,0 0.539063,0.3632813 0.539063,0.6914063 0,0.6210937 -0.492188,1.8984375 -0.644531,2.3320312 -0.09375,0.22265626 -0.105469,0.33984376 -0.105469,0.45703126 0,0.46875 0.351562,0.80859375 0.820312,0.80859375 0.9375,0 1.300782,-1.45312501 1.300782,-1.53515621 0,-0.09375 -0.08203,-0.09375 -0.117188,-0.09375 -0.09375,0 -0.09375,0.023437 -0.152344,0.1757812 -0.199218,0.67968751 -0.527343,1.24218751 -1.007812,1.24218751 -0.175781,0 -0.246094,-0.10546875 -0.246094,-0.328125 0,-0.2578125 0.09375,-0.4921875 0.1875,-0.71484371 0.1875,-0.5273438 0.597656,-1.6171875 0.597656,-2.1914063 0,-0.6679687 -0.421875,-1.0664062 -1.136718,-1.0664062 -0.902344,0 -1.382813,0.6445312 -1.558594,0.8671875 -0.04687,-0.5507813 -0.457031,-0.8671875 -0.914063,-0.8671875 -0.457031,0 -0.644531,0.3867187 -0.75,0.5742187 -0.152343,0.3398438 -0.292968,0.9257813 -0.292968,0.9609375 0,0.1054688 0.09375,0.1054688 0.117187,0.1054688 0.09375,0 0.105469,-0.011719 0.164063,-0.234375 0.175781,-0.703125 0.375,-1.1835938 0.726562,-1.1835938 0.199219,0 0.316406,0.1289063 0.316406,0.4570313 0,0.2109375 -0.03516,0.3164062 -0.164062,0.8320312 z m 0,0"
         style="fill:#8b572a;fill-opacity:1;fill-rule:nonzero;stroke:none" />
      <path
         id="path44"
         d="m 21.285445,-2.4972422 c 0,-0.28125 -0.234375,-0.5273437 -0.527343,-0.5273437 -0.28125,0 -0.527344,0.2460937 -0.527344,0.5273437 0,0.2929688 0.246094,0.5390625 0.527344,0.5390625 0.292968,0 0.527343,-0.2460937 0.527343,-0.5390625 z m 0,0"
         style="fill:#8b572a;fill-opacity:1;fill-rule:nonzero;stroke:none" />
      <path
         id="path45"
         d="m 29.512008,-3.7159922 c 0.128906,0 0.492187,0 0.492187,-0.3398437 0,-0.234375 -0.210937,-0.234375 -0.386718,-0.234375 h -2.273438 c -1.5,0 -2.613281,1.640625 -2.613281,2.8242187 0,0.87890626 0.585937,1.57031251 1.5,1.57031251 1.171875,0 2.496094,-1.20703121 2.496094,-2.73046871 0,-0.1757813 0,-0.65625 -0.304688,-1.0898438 z m -3.269531,3.60937501 c -0.492188,0 -0.890625,-0.36328125 -0.890625,-1.07812501 0,-0.3046875 0.117187,-1.1132812 0.46875,-1.7109375 0.421875,-0.6796875 1.019531,-0.8203125 1.359375,-0.8203125 0.832031,0 0.914062,0.65625 0.914062,0.9609375 0,0.46875 -0.199219,1.2890625 -0.539062,1.79296876 -0.386719,0.59765625 -0.925782,0.85546875 -1.3125,0.85546875 z m 0,0"
         style="fill:#8b572a;fill-opacity:1;fill-rule:nonzero;stroke:none" />
    </g>
    <g
       id="g45"
       aria-label="R(⃗n,π)"
       transform="matrix(1.3333333,0,0,1.3333333,414.65867,205.48667)">
      <path
         id="path46"
         d="m 3.7393984,-6.1159766 c 0.058594,-0.234375 0.082031,-0.3398437 0.28125,-0.3632812 0.082031,-0.011719 0.3984375,-0.011719 0.5976563,-0.011719 0.7148437,0 1.8164062,0 1.8164062,0.984375 0,0.3398438 -0.1523437,1.0195313 -0.5507812,1.4179688 -0.2578125,0.2578125 -0.7851563,0.5742187 -1.6757813,0.5742187 H 3.0948672 Z m 1.4296875,2.7304688 c 1.0078125,-0.2226563 2.1914063,-0.9140625 2.1914063,-1.921875 0,-0.8554688 -0.890625,-1.5 -2.203125,-1.5 H 2.3214297 c -0.1992188,0 -0.2929688,0 -0.2929688,0.1992187 0,0.1171875 0.09375,0.1171875 0.28125,0.1171875 0.023437,0 0.2109375,0 0.3867188,0.011719 0.1757812,0.023437 0.2578125,0.035156 0.2578125,0.1640625 0,0.035156 0,0.070312 -0.035156,0.1875 l -1.3359375,5.35546874 c -0.09375,0.38671875 -0.1171875,0.46875 -0.90234371,0.46875 -0.17578125,0 -0.26953125,0 -0.26953125,0.19921875 0,0.10546875 0.1171875,0.10546875 0.140625,0.10546875 0.28125,0 0.97265626,-0.03515625 1.25390626,-0.03515625 0.28125,0 0.984375,0.03515625 1.265625,0.03515625 0.082031,0 0.1992187,0 0.1992187,-0.19921875 0,-0.10546875 -0.09375,-0.10546875 -0.28125,-0.10546875 -0.3632812,0 -0.6445312,0 -0.6445312,-0.1875 0,-0.0585938 0.011719,-0.10546875 0.023437,-0.1640625 l 0.65625,-2.63671874 H 4.219867 c 0.9023437,0 1.078125,0.5507812 1.078125,0.9023437 0,0.1523438 -0.082031,0.4570313 -0.140625,0.6914063 -0.070312,0.2695312 -0.1523438,0.6445312 -0.1523438,0.84374999 0,1.078125 1.1953125,1.078125 1.3242188,1.078125 0.84375,0 1.1953125,-1.0078125 1.1953125,-1.1484375 0,-0.11718749 -0.1171875,-0.11718749 -0.1171875,-0.11718749 -0.09375,0 -0.1171875,0.0703125 -0.1289063,0.14062499 -0.2578125,0.73828125 -0.6796875,0.90234375 -0.9140625,0.90234375 -0.328125,0 -0.3984375,-0.22265625 -0.3984375,-0.609375 0,-0.3046875 0.058594,-0.82031254 0.1054688,-1.13671874 0.011719,-0.140625 0.035156,-0.328125 0.035156,-0.46875 0,-0.7617188 -0.6679687,-1.078125 -0.9374996,-1.1718752 z m 0,0"
         style="fill:#8b572a;fill-opacity:1;fill-rule:nonzero;stroke:none" />
      <path
         id="path47"
         d="m 10.934711,2.3918359 c 0,-0.035156 0,-0.046875 -0.164063,-0.2226562 -1.2421871,-1.25390626 -1.5703121,-3.12890626 -1.5703121,-4.6640625 0,-1.7226563 0.3867188,-3.4570313 1.6054691,-4.7109375 0.128906,-0.1171875 0.128906,-0.1289063 0.128906,-0.1640625 0,-0.070312 -0.03516,-0.1054688 -0.09375,-0.1054688 -0.105469,0 -0.9960938,0.6796875 -1.5820313,1.9453125 -0.515625,1.1015625 -0.6328125,2.203125 -0.6328125,3.0351563 0,0.7851562 0.1171875,1.99218749 0.65625,3.11718749 0.5976562,1.21875001 1.4531248,1.87500001 1.5585938,1.87500001 0.05859,0 0.09375,-0.035156 0.09375,-0.1054688 z m 0,0"
         style="fill:#8b572a;fill-opacity:1;fill-rule:nonzero;stroke:none" />
      <path
         id="path48"
         d="m 16.591938,-5.9284766 c -0.128907,0.1289063 -0.457032,0.4101563 -0.457032,0.5859375 0,0.1054688 0.09375,0.1992188 0.199219,0.1992188 0.08203,0 0.128906,-0.070312 0.1875,-0.1289063 0.117188,-0.140625 0.339844,-0.421875 0.785156,-0.6445312 0.07031,-0.035156 0.164063,-0.09375 0.164063,-0.2109375 0,-0.09375 -0.07031,-0.1523438 -0.140625,-0.1992188 -0.210938,-0.1523437 -0.328125,-0.328125 -0.398438,-0.5625 -0.02344,-0.09375 -0.07031,-0.2226562 -0.199218,-0.2226562 -0.140625,0 -0.199219,0.1289062 -0.199219,0.2109375 0,0.046875 0.07031,0.3632812 0.234375,0.5742187 h -3.363281 c -0.164063,0 -0.339844,0 -0.339844,0.1992188 0,0.1992187 0.175781,0.1992187 0.339844,0.1992187 z m -4.195313,5.34375004 c -0.03516,0.15234375 -0.09375,0.375 -0.09375,0.421875 0,0.1875 0.140625,0.26953125 0.292969,0.26953125 0.117187,0 0.292969,-0.0703125 0.363281,-0.26953125 0.01172,-0.0234375 0.128906,-0.4921875 0.1875,-0.73828125 l 0.222656,-0.90234379 c 0.05859,-0.2226562 0.117188,-0.4335937 0.175782,-0.6679687 0.03516,-0.1640625 0.117187,-0.4570313 0.128906,-0.4921875 0.140625,-0.3164063 0.667969,-1.21875 1.617187,-1.21875 0.445313,0 0.539063,0.3632812 0.539063,0.6914062 0,0.6210938 -0.492188,1.8984375 -0.644531,2.3320313 -0.09375,0.22265624 -0.105469,0.33984374 -0.105469,0.45703124 0,0.46875 0.351562,0.80859375 0.820312,0.80859375 0.9375,0 1.300782,-1.45312499 1.300782,-1.53515629 0,-0.09375 -0.08203,-0.09375 -0.117188,-0.09375 -0.09375,0 -0.09375,0.023437 -0.152344,0.1757813 -0.199218,0.67968749 -0.527343,1.24218749 -1.007812,1.24218749 -0.175781,0 -0.246094,-0.10546875 -0.246094,-0.328125 0,-0.2578125 0.09375,-0.4921875 0.1875,-0.71484379 0.1875,-0.5273437 0.597656,-1.6171875 0.597656,-2.1914062 0,-0.6679688 -0.421875,-1.0664063 -1.136718,-1.0664063 -0.902344,0 -1.382813,0.6445313 -1.558594,0.8671875 -0.04687,-0.5507812 -0.457031,-0.8671875 -0.914063,-0.8671875 -0.457031,0 -0.644531,0.3867188 -0.75,0.5742188 -0.152343,0.3398437 -0.292968,0.9257812 -0.292968,0.9609375 0,0.1054687 0.09375,0.1054687 0.117187,0.1054687 0.09375,0 0.105469,-0.011719 0.164063,-0.234375 0.175781,-0.703125 0.375,-1.1835937 0.726562,-1.1835937 0.199219,0 0.316406,0.1289062 0.316406,0.4570312 0,0.2109375 -0.03516,0.3164063 -0.164062,0.8320313 z m 7.125,0.57421875 c 0,-0.65625 -0.257812,-1.04296879 -0.644531,-1.04296879 -0.328125,0 -0.527344,0.24609379 -0.527344,0.52734379 0,0.26953125 0.199219,0.52734375 0.527344,0.52734375 0.117187,0 0.246094,-0.03515625 0.351562,-0.12890625 0.02344,-0.0234375 0.03516,-0.0351563 0.04687,-0.0351563 0.01172,0 0.02344,0.0117188 0.02344,0.15234375 0,0.73828125 -0.351563,1.33593746 -0.679688,1.66406246 -0.105468,0.1054688 -0.105468,0.1289063 -0.105468,0.1640625 0,0.070312 0.04687,0.1054688 0.09375,0.1054688 0.117187,0 0.914062,-0.7617187 0.914062,-1.93359376 z m 5.024414,-3.70312499 h 1.125 c -0.328125,1.4765625 -0.410156,1.8984375 -0.410156,2.5664062 0,0.15234379 0,0.42187504 0.07031,0.76171879 0.105469,0.43359375 0.210938,0.4921875 0.363282,0.4921875 0.199218,0 0.410156,-0.17578125 0.410156,-0.375 0,-0.0585938 0,-0.0820313 -0.05859,-0.22265625 C 25.75307,-1.2058203 25.75307,-1.8503516 25.75307,-2.1316016 c 0,-0.5273437 0.07031,-1.0664062 0.175782,-1.5820312 h 1.136718 c 0.128907,0 0.492188,0 0.492188,-0.3398438 0,-0.234375 -0.210938,-0.234375 -0.398438,-0.234375 h -3.339843 c -0.210938,0 -0.597657,0 -1.03125,0.46875 -0.351563,0.3867188 -0.609375,0.84375 -0.609375,0.890625 0,0.011719 0,0.1054688 0.117187,0.1054688 0.08203,0 0.105469,-0.046875 0.164063,-0.1289063 0.480468,-0.7617187 1.066406,-0.7617187 1.265625,-0.7617187 h 0.5625 c -0.316407,1.2070312 -0.855469,2.4140625 -1.277344,3.31640624 -0.07031,0.15234375 -0.07031,0.1640625 -0.07031,0.234375 0,0.19921875 0.152344,0.26953125 0.28125,0.26953125 0.304688,0 0.386719,-0.26953125 0.503907,-0.64453125 0.140625,-0.45703125 0.140625,-0.48046874 0.269531,-0.97265624 z m 0,0"
         style="fill:#8b572a;fill-opacity:1;fill-rule:nonzero;stroke:none" />
      <path
         id="path49"
         d="m 30.841938,-2.4948828 c 0,-0.7734375 -0.117188,-1.9804688 -0.65625,-3.1054688 -0.597657,-1.21875 -1.464844,-1.875 -1.558594,-1.875 -0.05859,0 -0.105469,0.046875 -0.105469,0.1054688 0,0.035156 0,0.046875 0.199219,0.234375 0.972656,0.984375 1.535156,2.5664062 1.535156,4.640625 0,1.71093749 -0.363281,3.45703124 -1.59375,4.7226562 -0.140625,0.1171875 -0.140625,0.1289063 -0.140625,0.1640625 0,0.058594 0.04687,0.1054688 0.105469,0.1054688 0.09375,0 0.996094,-0.6796875 1.582031,-1.94531251 0.503906,-1.1015625 0.632813,-2.20312499 0.632813,-3.04687499 z m 0,0"
         style="fill:#8b572a;fill-opacity:1;fill-rule:nonzero;stroke:none" />
    </g>
  </g>
</svg>
