<?xml version="1.0" encoding="UTF-8" standalone="no"?>
<!-- Created with Inkscape (http://www.inkscape.org/) -->

<svg
   version="1.1"
   id="svg1"
   width="350.38666"
   height="219.67999"
   viewBox="0 0 350.38666 219.67999"
   sodipodi:docname="U(1)_3-in-R4.pdf"
   xmlns:inkscape="http://www.inkscape.org/namespaces/inkscape"
   xmlns:sodipodi="http://sodipodi.sourceforge.net/DTD/sodipodi-0.dtd"
   xmlns="http://www.w3.org/2000/svg"
   xmlns:svg="http://www.w3.org/2000/svg">
  <defs
     id="defs1" />
  <sodipodi:namedview
     id="namedview1"
     pagecolor="#ffffff"
     bordercolor="#000000"
     borderopacity="0.25"
     inkscape:showpageshadow="2"
     inkscape:pageopacity="0.0"
     inkscape:pagecheckerboard="0"
     inkscape:deskcolor="#d1d1d1">
    <inkscape:page
       x="0"
       y="0"
       inkscape:label="1"
       id="page1"
       width="350.38666"
       height="219.67999"
       margin="0"
       bleed="0" />
  </sodipodi:namedview>
  <g
     id="g1"
     inkscape:groupmode="layer"
     inkscape:label="1">
    <path
       id="path1"
       d="m 28.24431,-94.47202 c 0,31.37734 25.43559,56.81293 56.81294,56.81293 31.37734,0 56.81293,-25.43559 56.81293,-56.81293 0,-31.37735 -25.43559,-56.81294 -56.81293,-56.81294 -31.37735,0 -56.81294,25.43559 -56.81294,56.81294 z"
       style="fill:#f5a623;fill-opacity:0.1;fill-rule:nonzero;stroke:#f5a623;stroke-width:1.49442;stroke-linecap:butt;stroke-linejoin:miter;stroke-miterlimit:10;stroke-dasharray:none;stroke-opacity:1"
       transform="matrix(1.3333333,0,0,-1.3333333,-32.238667,-16.201333)" />
    <path
       id="path2"
       d="m 28.24431,-94.47202 c 0,1.7208 25.43559,3.11211 56.81294,3.11211 31.37734,0 56.81293,-1.39131 56.81293,-3.11211 0,-1.72082 -25.43559,-3.11212 -56.81293,-3.11212 -31.37735,0 -56.81294,1.3913 -56.81294,3.11212 z"
       style="fill:none;stroke:#f5a623;stroke-width:0.74721;stroke-linecap:butt;stroke-linejoin:miter;stroke-miterlimit:10;stroke-dasharray:2.98883, 2.98883;stroke-dashoffset:0;stroke-opacity:1"
       transform="matrix(1.3333333,0,0,-1.3333333,-32.238667,-16.201333)" />
    <path
       id="path3"
       d="m 83.74963,-37.65909 c 0,0.7218 0.58582,1.3076 1.30762,1.3076 0.7218,0 1.3076,-0.5858 1.3076,-1.3076 0,-0.7218 -0.5858,-1.3076 -1.3076,-1.3076 -0.7218,0 -1.30762,0.5858 -1.30762,1.3076 z"
       style="fill:#000000;fill-opacity:1;fill-rule:nonzero;stroke:#000000;stroke-width:0.74721;stroke-linecap:butt;stroke-linejoin:miter;stroke-miterlimit:10;stroke-dasharray:none;stroke-opacity:1"
       transform="matrix(1.3333333,0,0,-1.3333333,-32.238667,-16.201333)" />
    <path
       id="path4"
       d="m 83.74963,-151.28496 c 0,0.7218 0.58582,1.30762 1.30762,1.30762 0.7218,0 1.3076,-0.58582 1.3076,-1.30762 0,-0.7218 -0.5858,-1.30762 -1.3076,-1.30762 -0.7218,0 -1.30762,0.58582 -1.30762,1.30762 z"
       style="fill:#000000;fill-opacity:1;fill-rule:nonzero;stroke:#000000;stroke-width:0.74721;stroke-linecap:butt;stroke-linejoin:miter;stroke-miterlimit:10;stroke-dasharray:none;stroke-opacity:1"
       transform="matrix(1.3333333,0,0,-1.3333333,-32.238667,-16.201333)" />
    <path
       id="path5"
       d="m 83.74963,-94.47202 c 0,0.72181 0.58582,1.30761 1.30762,1.30761 0.7218,0 1.3076,-0.5858 1.3076,-1.30761 0,-0.7218 -0.5858,-1.30761 -1.3076,-1.30761 -0.7218,0 -1.30762,0.58581 -1.30762,1.30761 z"
       style="fill:#9b9b9b;fill-opacity:1;fill-rule:nonzero;stroke:#9b9b9b;stroke-width:0.74721;stroke-linecap:butt;stroke-linejoin:miter;stroke-miterlimit:10;stroke-dasharray:none;stroke-opacity:1"
       transform="matrix(1.3333333,0,0,-1.3333333,-32.238667,-16.201333)" />
    <path
       id="path6"
       d="M 85.05725,-12.52687 V -94.47202"
       style="fill:none;stroke:#9b9b9b;stroke-width:0.74721;stroke-linecap:butt;stroke-linejoin:miter;stroke-miterlimit:10;stroke-dasharray:none;stroke-opacity:1"
       transform="matrix(1.3333333,0,0,-1.3333333,-32.238667,-16.201333)" />
    <path
       id="path7"
       d="m 85.36584,-37.79507 c 15.20487,-0.07847 28.99228,-6.14576 39.12885,-15.9685 L 85.05725,-94.47202 Z"
       style="fill:none;stroke:#000000;stroke-width:1.49442;stroke-linecap:butt;stroke-linejoin:miter;stroke-miterlimit:10;stroke-dasharray:none;stroke-opacity:0"
       transform="matrix(1.3333333,0,0,-1.3333333,-32.238667,-16.201333)" />
    <path
       id="path8"
       d="m 85.36584,-37.79507 c 15.20487,-0.07847 28.99228,-6.14576 39.12885,-15.9685"
       style="fill:none;stroke:#9013fe;stroke-width:1.49442;stroke-linecap:butt;stroke-linejoin:miter;stroke-miterlimit:10;stroke-dasharray:none;stroke-opacity:1"
       transform="matrix(1.3333333,0,0,-1.3333333,-32.238667,-16.201333)" />
    <path
       id="path9"
       d="m 122.66405,-53.76357 c 0,1.01468 0.82118,1.83065 1.83064,1.83065 1.00948,0 1.83066,-0.81597 1.83066,-1.83065 0,-1.00949 -0.82118,-1.83065 -1.83066,-1.83065 -1.00946,0 -1.83064,0.82116 -1.83064,1.83065 z"
       style="fill:#9013fe;fill-opacity:1;fill-rule:nonzero;stroke:#9013fe;stroke-width:0.74721;stroke-linecap:butt;stroke-linejoin:miter;stroke-miterlimit:10;stroke-dasharray:none;stroke-opacity:1"
       transform="matrix(1.3333333,0,0,-1.3333333,-32.238667,-16.201333)" />
    <path
       id="path10"
       d="M 124.49469,-53.76357 85.05725,-94.47202"
       style="fill:none;stroke:#9b9b9b;stroke-width:0.74721;stroke-linecap:butt;stroke-linejoin:miter;stroke-miterlimit:10;stroke-dasharray:4.48325, 4.48325;stroke-dashoffset:0;stroke-opacity:1"
       transform="matrix(1.3333333,0,0,-1.3333333,-32.238667,-16.201333)" />
    <path
       id="path11"
       d="m 84.85326,-76.3172 c 5.18858,-0.03139 9.89074,-2.0974 13.34806,-5.44488 L 84.74866,-95.64363 Z"
       style="fill:none;stroke:#000000;stroke-width:0.74721;stroke-linecap:butt;stroke-linejoin:miter;stroke-miterlimit:10;stroke-dasharray:none;stroke-opacity:0"
       transform="matrix(1.3333333,0,0,-1.3333333,-32.238667,-16.201333)" />
    <path
       id="path12"
       d="m 84.85326,-76.3172 c 4.6446,-0.02615 8.89695,-1.6842 12.21829,-4.4354"
       style="fill:none;stroke:#000000;stroke-width:0.74721;stroke-linecap:butt;stroke-linejoin:miter;stroke-miterlimit:10;stroke-dasharray:none;stroke-opacity:1"
       transform="matrix(1.3333333,0,0,-1.3333333,-32.238667,-16.201333)" />
    <path
       id="path13"
       d="m 95.13527,-81.24773 3.06605,-0.51435 -1.51876,2.71268 z"
       style="fill:#000000;fill-opacity:1;fill-rule:nonzero;stroke:#000000;stroke-width:0.0797;stroke-linecap:butt;stroke-linejoin:miter;stroke-miterlimit:10;stroke-dasharray:none;stroke-opacity:0"
       transform="matrix(1.3333333,0,0,-1.3333333,-32.238667,-16.201333)" />
    <path
       id="path14"
       d="m 172.6042,-94.47202 c 0,31.37734 25.43558,56.81293 56.81294,56.81293 31.37734,0 56.81292,-25.43559 56.81292,-56.81293 0,-31.37735 -25.43558,-56.81294 -56.81292,-56.81294 -31.37736,0 -56.81294,25.43559 -56.81294,56.81294 z"
       style="fill:#f5a623;fill-opacity:0.1;fill-rule:nonzero;stroke:#f5a623;stroke-width:1.49442;stroke-linecap:butt;stroke-linejoin:miter;stroke-miterlimit:10;stroke-dasharray:none;stroke-opacity:1"
       transform="matrix(1.3333333,0,0,-1.3333333,-32.238667,-16.201333)" />
    <path
       id="path15"
       d="m 172.6042,-94.47202 c 0,1.7208 25.43558,3.11211 56.81294,3.11211 31.37734,0 56.81292,-1.39131 56.81292,-3.11211 0,-1.72082 -25.43558,-3.11212 -56.81292,-3.11212 -31.37736,0 -56.81294,1.3913 -56.81294,3.11212 z"
       style="fill:none;stroke:#f5a623;stroke-width:0.74721;stroke-linecap:butt;stroke-linejoin:miter;stroke-miterlimit:10;stroke-dasharray:2.98883, 2.98883;stroke-dashoffset:0;stroke-opacity:1"
       transform="matrix(1.3333333,0,0,-1.3333333,-32.238667,-16.201333)" />
    <path
       id="path16"
       d="m 228.10953,-37.65909 c 0,0.7218 0.5858,1.3076 1.30761,1.3076 0.72181,0 1.30759,-0.5858 1.30759,-1.3076 0,-0.7218 -0.58578,-1.3076 -1.30759,-1.3076 -0.72181,0 -1.30761,0.5858 -1.30761,1.3076 z"
       style="fill:#000000;fill-opacity:1;fill-rule:nonzero;stroke:#000000;stroke-width:0.74721;stroke-linecap:butt;stroke-linejoin:miter;stroke-miterlimit:10;stroke-dasharray:none;stroke-opacity:1"
       transform="matrix(1.3333333,0,0,-1.3333333,-32.238667,-16.201333)" />
    <path
       id="path17"
       d="m 228.10953,-151.28496 c 0,0.7218 0.5858,1.30762 1.30761,1.30762 0.72181,0 1.30759,-0.58582 1.30759,-1.30762 0,-0.7218 -0.58578,-1.30762 -1.30759,-1.30762 -0.72181,0 -1.30761,0.58582 -1.30761,1.30762 z"
       style="fill:#000000;fill-opacity:1;fill-rule:nonzero;stroke:#000000;stroke-width:0.74721;stroke-linecap:butt;stroke-linejoin:miter;stroke-miterlimit:10;stroke-dasharray:none;stroke-opacity:1"
       transform="matrix(1.3333333,0,0,-1.3333333,-32.238667,-16.201333)" />
    <path
       id="path18"
       d="m 228.10953,-94.47202 c 0,0.72181 0.5858,1.30761 1.30761,1.30761 0.72181,0 1.30759,-0.5858 1.30759,-1.30761 0,-0.7218 -0.58578,-1.30761 -1.30759,-1.30761 -0.72181,0 -1.30761,0.58581 -1.30761,1.30761 z"
       style="fill:#9b9b9b;fill-opacity:1;fill-rule:nonzero;stroke:#9b9b9b;stroke-width:0.74721;stroke-linecap:butt;stroke-linejoin:miter;stroke-miterlimit:10;stroke-dasharray:none;stroke-opacity:1"
       transform="matrix(1.3333333,0,0,-1.3333333,-32.238667,-16.201333)" />
    <path
       id="path19"
       d="M 229.41714,-12.52687 V -94.47202"
       style="fill:none;stroke:#9b9b9b;stroke-width:0.74721;stroke-linecap:butt;stroke-linejoin:miter;stroke-miterlimit:10;stroke-dasharray:none;stroke-opacity:1"
       transform="matrix(1.3333333,0,0,-1.3333333,-32.238667,-16.201333)" />
    <path
       id="path20"
       d="m 229.72574,-37.79507 c 31.16289,-0.16214 56.37356,-25.47742 56.37356,-56.67695 0,-31.30412 -25.37803,-56.68217 -56.68216,-56.68217 -31.30414,0 -56.68217,25.37805 -56.68217,56.68217 0,26.45554 18.12866,48.67963 42.63846,54.92475 l 14.04371,-54.92475 z"
       style="fill:none;stroke:#000000;stroke-width:1.49442;stroke-linecap:butt;stroke-linejoin:miter;stroke-miterlimit:10;stroke-dasharray:none;stroke-opacity:0"
       transform="matrix(1.3333333,0,0,-1.3333333,-32.238667,-16.201333)" />
    <path
       id="path21"
       d="m 229.72574,-37.79507 c 31.16289,-0.16214 56.37356,-25.47742 56.37356,-56.67695 0,-31.30412 -25.37803,-56.68217 -56.68216,-56.68217 -31.30414,0 -56.68217,25.37805 -56.68217,56.68217 0,26.45554 18.12866,48.67963 42.63846,54.92475"
       style="fill:none;stroke:#9013fe;stroke-width:1.49442;stroke-linecap:butt;stroke-linejoin:miter;stroke-miterlimit:10;stroke-dasharray:none;stroke-opacity:1"
       transform="matrix(1.3333333,0,0,-1.3333333,-32.238667,-16.201333)" />
    <path
       id="path22"
       d="m 213.67354,-39.11836 c 0,1.01469 0.82116,1.83066 1.83066,1.83066 1.00946,0 1.83064,-0.81597 1.83064,-1.83066 0,-1.00949 -0.82118,-1.83066 -1.83064,-1.83066 -1.0095,0 -1.83066,0.82117 -1.83066,1.83066 z"
       style="fill:#9013fe;fill-opacity:1;fill-rule:nonzero;stroke:#9013fe;stroke-width:0.74721;stroke-linecap:butt;stroke-linejoin:miter;stroke-miterlimit:10;stroke-dasharray:none;stroke-opacity:1"
       transform="matrix(1.3333333,0,0,-1.3333333,-32.238667,-16.201333)" />
    <path
       id="path23"
       d="m 215.5042,-39.11836 13.91294,-55.35366"
       style="fill:none;stroke:#9b9b9b;stroke-width:0.74721;stroke-linecap:butt;stroke-linejoin:miter;stroke-miterlimit:10;stroke-dasharray:4.48325, 4.48325;stroke-dashoffset:0;stroke-opacity:1"
       transform="matrix(1.3333333,0,0,-1.3333333,-32.238667,-16.201333)" />
    <path
       id="path24"
       d="m 229.21313,-76.3172 c 10.62825,-0.05753 19.22709,-8.68774 19.22709,-19.32643 0,-10.67532 -8.65636,-19.3317 -19.33168,-19.3317 -10.67008,0 -19.32645,8.65638 -19.32645,19.3317 0,8.99112 6.14577,16.54909 14.46213,18.70926 l 4.86432,-18.70926 z"
       style="fill:none;stroke:#000000;stroke-width:0.74721;stroke-linecap:butt;stroke-linejoin:miter;stroke-miterlimit:10;stroke-dasharray:none;stroke-opacity:0"
       transform="matrix(1.3333333,0,0,-1.3333333,-32.238667,-16.201333)" />
    <path
       id="path25"
       d="m 229.21313,-76.3172 c 10.62825,-0.05753 19.22709,-8.68774 19.22709,-19.32643 0,-10.67532 -8.65636,-19.3317 -19.33168,-19.3317 -10.67008,0 -19.32645,8.65638 -19.32645,19.3317 0,8.45238 5.4292,15.63898 12.98717,18.25943"
       style="fill:none;stroke:#000000;stroke-width:0.74721;stroke-linecap:butt;stroke-linejoin:miter;stroke-miterlimit:10;stroke-dasharray:none;stroke-opacity:1"
       transform="matrix(1.3333333,0,0,-1.3333333,-32.238667,-16.201333)" />
    <path
       id="path26"
       d="m 222.21762,-79.29192 2.0266,2.35755 -3.10714,0.10399 z"
       style="fill:#000000;fill-opacity:1;fill-rule:nonzero;stroke:#000000;stroke-width:0.0797;stroke-linecap:butt;stroke-linejoin:miter;stroke-miterlimit:10;stroke-dasharray:none;stroke-opacity:0"
       transform="matrix(1.3333333,0,0,-1.3333333,-32.238667,-16.201333)" />
    <path
       id="path27"
       d="m 141.87018,-94.47202 c 0,0 0,0 0,0 0,-1.72082 -25.43559,-3.11212 -56.81293,-3.11212 -31.37735,0 -56.81294,1.3913 -56.81294,3.11212 h 56.81294 z"
       style="fill:none;stroke:#000000;stroke-width:0.74721;stroke-linecap:butt;stroke-linejoin:miter;stroke-miterlimit:10;stroke-dasharray:none;stroke-opacity:0"
       transform="matrix(1.3333333,0,0,-1.3333333,-32.238667,-16.201333)" />
    <path
       id="path28"
       d="m 141.87018,-94.47202 c 0,0 0,0 0,0 0,-1.72082 -25.43559,-3.11212 -56.81293,-3.11212 -31.37735,0 -56.81294,1.3913 -56.81294,3.11212"
       style="fill:none;stroke:#f5a623;stroke-width:0.74721;stroke-linecap:butt;stroke-linejoin:miter;stroke-miterlimit:10;stroke-dasharray:none;stroke-opacity:1"
       transform="matrix(1.3333333,0,0,-1.3333333,-32.238667,-16.201333)" />
    <path
       id="path29"
       d="m 286.23006,-94.47202 c 0,0 0,0 0,0 0,-1.72082 -25.43558,-3.11212 -56.81292,-3.11212 -31.37736,0 -56.81294,1.3913 -56.81294,3.11212 h 56.81294 z"
       style="fill:none;stroke:#000000;stroke-width:0.74721;stroke-linecap:butt;stroke-linejoin:miter;stroke-miterlimit:10;stroke-dasharray:none;stroke-opacity:0"
       transform="matrix(1.3333333,0,0,-1.3333333,-32.238667,-16.201333)" />
    <path
       id="path30"
       d="m 286.23006,-94.47202 c 0,0 0,0 0,0 0,-1.72082 -25.43558,-3.11212 -56.81292,-3.11212 -31.37736,0 -56.81294,1.3913 -56.81294,3.11212"
       style="fill:none;stroke:#f5a623;stroke-width:0.74721;stroke-linecap:butt;stroke-linejoin:miter;stroke-miterlimit:10;stroke-dasharray:none;stroke-opacity:1"
       transform="matrix(1.3333333,0,0,-1.3333333,-32.238667,-16.201333)" />
    <g
       id="g30"
       aria-label="SU(2)⊂R&#10;4"
       transform="matrix(1.3333333,0,0,1.3333333,52.942667,215.36533)">
      <path
         id="path31"
         d="m 6.4209297,-6.9243906 c 0,-0.023437 -0.011719,-0.09375 -0.1054688,-0.09375 -0.046875,0 -0.058594,0.011719 -0.1757812,0.140625 l -0.4804688,0.5742187 c -0.2578125,-0.46875 -0.7734375,-0.7148437 -1.4296875,-0.7148437 -1.265625,0 -2.4609375,1.1367187 -2.4609375,2.34375 0,0.8085937 0.5273438,1.265625 1.0429688,1.4179687 l 1.0664062,0.28125 c 0.3632813,0.082031 0.9140625,0.234375 0.9140625,1.0546875 0,0.890625 -0.8203125,1.82812502 -1.7929687,1.82812502 -0.6445313,0 -1.7460938,-0.2109375 -1.7460938,-1.45312502 0,-0.234375 0.046875,-0.4804687 0.058594,-0.5390625 0.011719,-0.035156 0.023437,-0.046875 0.023437,-0.070312 0,-0.09375 -0.070312,-0.1054687 -0.1171875,-0.1054687 -0.058594,0 -0.070312,0.011719 -0.1054688,0.035156 -0.035156,0.046875 -0.59765621,2.32031252 -0.59765621,2.34375002 0,0.0585938 0.046875,0.10546875 0.1171875,0.10546875 0.046875,0 0.0585938,-0.0117188 0.17578125,-0.15234375 L 1.2998359,-0.50251563 c 0.421875,0.5859375 1.1015625,0.7265625 1.6757813,0.7265625 1.359375,0 2.53125,-1.32421877 2.53125,-2.56640627 0,-0.6796875 -0.3398438,-1.0195312 -0.4921875,-1.1601562 -0.2226563,-0.234375 -0.375,-0.2695313 -1.265625,-0.5039063 -0.2109375,-0.058594 -0.5742188,-0.1523437 -0.65625,-0.1757812 -0.2695313,-0.09375 -0.609375,-0.375 -0.609375,-0.9023438 0,-0.8085937 0.796875,-1.6523437 1.734375,-1.6523437 0.8320312,0 1.4414062,0.421875 1.4414062,1.5351562 0,0.3164063 -0.046875,0.5039063 -0.046875,0.5625 0,0.011719 0,0.09375 0.1289063,0.09375 0.09375,0 0.1054687,-0.023437 0.140625,-0.1992187 z m 6.5830073,1.171875 c 0.09375,-0.4101563 0.28125,-0.7148438 1.078125,-0.7382813 0.04687,0 0.164063,-0.011719 0.164063,-0.1992187 0,-0.011719 0,-0.1171875 -0.128906,-0.1171875 -0.328125,0 -0.679688,0.035156 -1.019532,0.035156 -0.339843,0 -0.703125,-0.035156 -1.03125,-0.035156 -0.05859,0 -0.175781,0 -0.175781,0.1992187 0,0.1171875 0.09375,0.1171875 0.175781,0.1171875 0.5625,0.011719 0.679688,0.2109375 0.679688,0.4335938 0,0.035156 -0.02344,0.1757812 -0.03516,0.2109375 l -0.890625,3.5507812 c -0.339844,1.33593752 -1.488282,2.20312502 -2.4843753,2.20312502 -0.6796875,0 -1.21875,-0.43359375 -1.21875,-1.28906252 0,-0.023437 0,-0.3398437 0.1171875,-0.7734375 l 0.9609375,-3.8789062 c 0.09375,-0.3632813 0.1054688,-0.4570313 0.8320313,-0.4570313 0.269531,0 0.339844,0 0.339844,-0.1992187 0,-0.1171875 -0.105469,-0.1171875 -0.140625,-0.1171875 -0.2695315,0 -0.996094,0.035156 -1.2656253,0.035156 -0.2929687,0 -0.9960937,-0.035156 -1.2890625,-0.035156 -0.082031,0 -0.1875,0 -0.1875,0.1992187 0,0.1171875 0.09375,0.1171875 0.28125,0.1171875 0.011719,0 0.2109375,0 0.375,0.011719 0.1757813,0.023437 0.2695313,0.035156 0.2695313,0.1640625 0,0.058594 -0.1054688,0.4804687 -0.1757813,0.703125 l -0.2109375,0.8789062 c -0.09375,0.3867188 -0.5742187,2.2734375 -0.609375,2.4609375 -0.070312,0.28125 -0.070312,0.4335938 -0.070312,0.5742188 0,1.21874997 0.9023438,1.92187497 1.9570313,1.92187497 1.253907,0 2.484375,-1.125 2.8125,-2.44921877 z m 0,0"
         style="fill:#000000;fill-opacity:1;fill-rule:nonzero;stroke:none" />
      <path
         id="path32"
         d="m 17.864289,2.3920156 c 0,-0.035156 0,-0.046875 -0.164062,-0.2226562 -1.242188,-1.25390628 -1.570313,-3.12890628 -1.570313,-4.6640625 0,-1.7226563 0.386719,-3.4570313 1.605469,-4.7109375 0.128906,-0.1171875 0.128906,-0.1289063 0.128906,-0.1640625 0,-0.070312 -0.03516,-0.1054688 -0.09375,-0.1054688 -0.105469,0 -0.996094,0.6796875 -1.582031,1.9453125 -0.515625,1.1015625 -0.632813,2.203125 -0.632813,3.0351563 0,0.7851562 0.117188,1.99218747 0.65625,3.11718747 0.597657,1.21875003 1.453125,1.87500003 1.558594,1.87500003 0.05859,0 0.09375,-0.035156 0.09375,-0.1054688 z m 1.839844,-3.15234373 1.054687,-1.03124997 c 1.558594,-1.3710938 2.15625,-1.9101563 2.15625,-2.90625 0,-1.1367188 -0.902343,-1.9335938 -2.121093,-1.9335938 -1.125,0 -1.851563,0.9140625 -1.851563,1.8046875 0,0.5507813 0.492188,0.5507813 0.527344,0.5507813 0.164062,0 0.515625,-0.1171875 0.515625,-0.5273438 0,-0.2578125 -0.1875,-0.515625 -0.527344,-0.515625 -0.08203,0 -0.105469,0 -0.128906,0.011719 0.222656,-0.6445313 0.761719,-1.0195313 1.335937,-1.0195313 0.914063,0 1.335938,0.8085938 1.335938,1.6289063 0,0.796875 -0.492188,1.5820312 -1.042969,2.203125 l -1.910156,2.13281247 c -0.105469,0.10546875 -0.105469,0.12890625 -0.105469,0.36328125 h 3.691406 l 0.28125,-1.73437502 h -0.257812 c -0.04687,0.3046875 -0.117188,0.73828127 -0.210938,0.89062502 -0.07031,0.0820313 -0.726562,0.0820313 -0.949218,0.0820313 z m 6.597656,-1.73437497 c 0,-0.7734375 -0.117187,-1.9804688 -0.65625,-3.1054688 -0.597656,-1.21875 -1.464844,-1.875 -1.558594,-1.875 -0.05859,0 -0.105468,0.046875 -0.105468,0.1054688 0,0.035156 0,0.046875 0.199218,0.234375 0.972657,0.984375 1.535157,2.5664062 1.535157,4.640625 0,1.71093747 -0.363282,3.45703122 -1.59375,4.7226562 -0.140625,0.1171875 -0.140625,0.1289063 -0.140625,0.1640625 0,0.058594 0.04687,0.1054688 0.105468,0.1054688 0.09375,0 0.996094,-0.6796875 1.582032,-1.94531253 0.503906,-1.1015625 0.632812,-2.20312497 0.632812,-3.04687497 z m 0,0"
         style="fill:#000000;fill-opacity:1;fill-rule:nonzero;stroke:none" />
      <path
         id="path33"
         d="m 36.631867,-4.9790781 c 0.175781,0 0.351563,0 0.351563,-0.1992188 0,-0.1992187 -0.175782,-0.1992187 -0.351563,-0.1992187 h -2.671875 c -1.710937,0 -3.058594,1.2890625 -3.058594,2.8828125 0,1.59374997 1.347657,2.89453122 3.058594,2.89453122 h 2.671875 c 0.175781,0 0.351563,0 0.351563,-0.19921875 0,-0.19921875 -0.175782,-0.19921875 -0.351563,-0.19921875 h -2.660156 c -1.546875,0 -2.671875,-1.16015622 -2.671875,-2.49609372 0,-1.3242188 1.125,-2.484375 2.671875,-2.484375 z m 0,0"
         style="fill:#000000;fill-opacity:1;fill-rule:nonzero;stroke:none" />
      <path
         id="path34"
         d="m 43.255891,-3.1275156 h 0.351562 l 1.5,2.30859372 c 0.09375,0.1640625 0.339844,0.55078125 0.445313,0.703125 0.07031,0.1171875 0.105468,0.1171875 0.328125,0.1171875 h 1.382812 c 0.175781,0 0.328125,0 0.328125,-0.17578125 0,-0.0820313 -0.07031,-0.15234375 -0.152344,-0.17578125 -0.375,-0.0820313 -0.855468,-0.73828122 -1.101562,-1.05468752 -0.07031,-0.09375 -0.5625,-0.75 -1.230469,-1.828125 0.890625,-0.1640625 1.746094,-0.5390625 1.746094,-1.7226562 0,-1.3828125 -1.464844,-1.8632813 -2.648438,-1.8632813 h -3.117187 c -0.1875,0 -0.339844,0 -0.339844,0.1757813 0,0.1640625 0.1875,0.1640625 0.269531,0.1640625 0.5625,0 0.609375,0.070312 0.609375,0.5742187 v 4.99218752 c 0,0.4921875 -0.04687,0.5625 -0.609375,0.5625 -0.08203,0 -0.269531,0 -0.269531,0.17578125 0,0.17578125 0.152344,0.17578125 0.339844,0.17578125 h 2.71875 c 0.1875,0 0.328125,0 0.328125,-0.17578125 0,-0.17578125 -0.164063,-0.17578125 -0.269531,-0.17578125 -0.574219,0 -0.609375,-0.0820313 -0.609375,-0.5625 z m 1.921875,-0.4921875 c 0.28125,-0.3632813 0.304687,-0.890625 0.304687,-1.3242188 0,-0.4804687 -0.05859,-1.0078125 -0.375,-1.4179687 0.410156,0.082031 1.394531,0.3984375 1.394531,1.40625 0,0.6445312 -0.304687,1.1484375 -1.324218,1.3359375 z m -1.921875,-2.3203125 c 0,-0.1992188 0,-0.5390625 0.621093,-0.5390625 0.84375,0 1.253907,0.3515625 1.253907,1.5351562 0,1.2773438 -0.304688,1.4648438 -1.875,1.4648438 z m -1.359375,5.58984372 c 0.08203,-0.17578125 0.08203,-0.45703125 0.08203,-0.55078125 V -5.9282969 c 0,-0.09375 0,-0.3632812 -0.08203,-0.5507812 h 1.136718 c -0.128906,0.1640625 -0.128906,0.3632812 -0.128906,0.515625 v 5.06249997 c 0,0.10546875 0,0.375 0.08203,0.55078125 z m 2.121093,-2.77734372 c 0.07031,-0.011719 0.117188,-0.023437 0.1875,-0.023437 0.152344,0 0.375,-0.011719 0.527344,-0.035156 0.140625,0.234375 1.21875,2.015625 2.050781,2.83593752 h -0.972656 z m 0,0"
         style="fill:#000000;fill-opacity:1;fill-rule:nonzero;stroke:none" />
      <path
         id="path35"
         d="M 51.470734,-4.7622813 V -5.008375 h -0.773437 v -3.1054688 c 0,-0.1523437 0,-0.1992187 -0.152344,-0.1992187 -0.09375,0 -0.117187,0 -0.1875,0.09375 l -2.308594,3.2109375 v 0.2460937 h 2.050782 v 0.5742188 c 0,0.234375 0,0.328125 -0.5625,0.328125 h -0.1875 v 0.2460937 c 0.351562,-0.011719 0.796875,-0.023437 1.042968,-0.023437 0.257813,0 0.703125,0.011719 1.054688,0.023437 v -0.2460937 h -0.1875 c -0.5625,0 -0.5625,-0.09375 -0.5625,-0.328125 v -0.5742188 z m -1.324218,-2.8007812 v 2.5546875 h -1.839844 z m 0,0"
         style="fill:#000000;fill-opacity:1;fill-rule:nonzero;stroke:none" />
    </g>
    <g
       id="g35"
       aria-label="1&#10;2×2"
       transform="matrix(1.3333333,0,0,1.3333333,84.06,27.045333)">
      <path
         id="path36"
         d="m 2.9286328,-6.3738437 c 0,-0.234375 0,-0.2578125 -0.234375,-0.2578125 -0.609375,0.6328125 -1.4882812,0.6328125 -1.80468749,0.6328125 v 0.3164062 c 0.19921879,0 0.78515629,0 1.30078129,-0.2578125 V -0.784 c 0,0.3515625 -0.035156,0.48046875 -0.9257813,0.48046875 H 0.94816406 v 0.3046875 C 1.2997266,-0.034 2.1551953,-0.034 2.5536328,-0.034 c 0.3984375,0 1.265625,0 1.6171875,0.03515625 v -0.3046875 H 3.8544141 c -0.9023438,0 -0.9257813,-0.1171875 -0.9257813,-0.48046875 z m 0,0"
         style="fill:#000000;fill-opacity:1;fill-rule:nonzero;stroke:none" />
      <path
         id="path37"
         d="m 8.4979687,0.22967188 h -0.234375 c -0.023437,0.15234375 -0.082031,0.5625 -0.1757812,0.6328125 -0.058594,0.0351563 -0.5976563,0.0351563 -0.6914063,0.0351563 H 6.1073437 c 0.7382813,-0.64453125 0.984375,-0.84375 1.3945313,-1.171875 0.515625,-0.41015625 0.9960937,-0.84374998 0.9960937,-1.49999998 0,-0.8437501 -0.7382812,-1.3593751 -1.6289062,-1.3593751 -0.8671875,0 -1.453125,0.609375 -1.453125,1.2421876 0,0.3632813 0.3046875,0.3984375 0.375,0.3984375 0.1640625,0 0.375,-0.1171875 0.375,-0.375 0,-0.1289063 -0.058594,-0.3632812 -0.421875,-0.3632812 0.2226562,-0.5039064 0.6914062,-0.6562501 1.0195312,-0.6562501 0.703125,0 1.0664063,0.5507812 1.0664063,1.1132813 0,0.609375 -0.4335938,1.08984373 -0.65625,1.33593748 L 5.48625,1.2257656 C 5.415938,1.2843596 5.415938,1.2960776 5.415938,1.4952969 H 8.29875 Z m 0,0"
         style="fill:#000000;fill-opacity:1;fill-rule:nonzero;stroke:none" />
      <path
         id="path38"
         d="m 13.838789,-1.7742344 c 0.07031,-0.082031 0.09375,-0.1171875 0.09375,-0.1640625 0,-0.1171875 -0.09375,-0.1757812 -0.164062,-0.1757812 -0.07031,0 -0.09375,0.023437 -0.175782,0.1054687 l -1.535156,1.51171878 -1.535156,-1.52343748 c -0.05859,-0.070312 -0.09375,-0.09375 -0.152344,-0.09375 -0.105469,0 -0.175781,0.070312 -0.175781,0.1757812 0,0.058594 0.02344,0.082031 0.105469,0.1640625 l 1.523437,1.52343753 -1.523437,1.51171877 c -0.09375,0.1054687 -0.105469,0.140625 -0.105469,0.1757812 0,0.1054688 0.07031,0.1757813 0.175781,0.1757813 0.05859,0 0.08203,-0.023437 0.152344,-0.09375 l 1.535156,-1.53515627 1.59375,1.59374997 c 0.03516,0.023437 0.07031,0.035156 0.117188,0.035156 0.07031,0 0.164062,-0.058594 0.164062,-0.1757813 0,-0.058594 -0.01172,-0.070312 -0.03516,-0.082031 -0.01172,-0.035156 -1.371094,-1.38281252 -1.59375,-1.60546877 z m 0,0"
         style="fill:#000000;fill-opacity:1;fill-rule:nonzero;stroke:none" />
      <path
         id="path39"
         d="m 18.693281,0.22967188 h -0.234375 c -0.02344,0.15234375 -0.08203,0.5625 -0.175781,0.6328125 -0.05859,0.0351563 -0.597656,0.0351563 -0.691406,0.0351563 h -1.289063 c 0.738281,-0.64453125 0.984375,-0.84375 1.394531,-1.171875 0.515625,-0.41015625 0.996094,-0.84374998 0.996094,-1.49999998 0,-0.8437501 -0.738281,-1.3593751 -1.628906,-1.3593751 -0.867188,0 -1.453125,0.609375 -1.453125,1.2421876 0,0.3632813 0.304687,0.3984375 0.375,0.3984375 0.164062,0 0.375,-0.1171875 0.375,-0.375 0,-0.1289063 -0.05859,-0.3632812 -0.421875,-0.3632812 0.222656,-0.5039064 0.691406,-0.6562501 1.019531,-0.6562501 0.703125,0 1.066406,0.5507812 1.066406,1.1132813 0,0.609375 -0.433593,1.08984373 -0.65625,1.33593748 l -1.6875,1.66406252 c -0.07031,0.058594 -0.07031,0.070312 -0.07031,0.2695313 h 2.882812 z m 0,0"
         style="fill:#000000;fill-opacity:1;fill-rule:nonzero;stroke:none" />
    </g>
    <g
       id="g39"
       aria-label="−1&#10;2×2"
       transform="matrix(1.3333333,0,0,1.3333333,84.06,197.93867)">
      <path
         id="path40"
         d="m 6.5614453,-2.29775 c 0.1757813,0 0.3515625,0 0.3515625,-0.1992187 0,-0.1992188 -0.1757812,-0.1992188 -0.3515625,-0.1992188 h -5.390625 c -0.1640625,0 -0.33984374,0 -0.33984374,0.1992188 0,0.1992187 0.17578124,0.1992187 0.33984374,0.1992187 z m 0,0"
         style="fill:#000000;fill-opacity:1;fill-rule:nonzero;stroke:none" />
      <path
         id="path41"
         d="m 10.677656,-6.375875 c 0,-0.234375 0,-0.2578125 -0.234375,-0.2578125 C 9.8339062,-6.000875 8.955,-6.000875 8.6385937,-6.000875 v 0.3164063 c 0.1992188,0 0.7851563,0 1.3007813,-0.2578125 v 5.15624995 c 0,0.3515625 -0.035156,0.48046875 -0.9257813,0.48046875 H 8.6971875 V -8.75e-4 c 0.3515625,-0.03515625 1.2070312,-0.03515625 1.6054685,-0.03515625 0.398438,0 1.265625,0 1.617188,0.03515625 v -0.3046875 h -0.316407 c -0.902343,0 -0.925781,-0.1171875 -0.925781,-0.48046875 z m 0,0"
         style="fill:#000000;fill-opacity:1;fill-rule:nonzero;stroke:none" />
      <path
         id="path42"
         d="m 16.246992,0.22764063 h -0.234375 c -0.02344,0.15234375 -0.08203,0.5625 -0.175781,0.6328125 -0.05859,0.0351563 -0.597656,0.0351563 -0.691406,0.0351563 h -1.289063 c 0.738281,-0.64453125 0.984375,-0.84375 1.394531,-1.171875 0.515625,-0.41015625 0.996094,-0.84374993 0.996094,-1.49999993 0,-0.84375 -0.738281,-1.359375 -1.628906,-1.359375 -0.867188,0 -1.453125,0.609375 -1.453125,1.2421875 0,0.3632812 0.304687,0.3984375 0.375,0.3984375 0.164062,0 0.375,-0.1171875 0.375,-0.375 0,-0.1289063 -0.05859,-0.3632814 -0.421875,-0.3632814 0.222656,-0.5039061 0.691406,-0.65625 1.019531,-0.65625 0.703125,0 1.066406,0.5507814 1.066406,1.1132814 0,0.609375 -0.433593,1.08984368 -0.65625,1.33593743 l -1.6875,1.66406247 c -0.07031,0.058594 -0.07031,0.070312 -0.07031,0.2695313 h 2.882812 z m 0,0"
         style="fill:#000000;fill-opacity:1;fill-rule:nonzero;stroke:none" />
      <path
         id="path43"
         d="m 21.587812,-1.7762656 c 0.07031,-0.082031 0.09375,-0.1171875 0.09375,-0.1640625 0,-0.1171875 -0.09375,-0.1757813 -0.164062,-0.1757813 -0.07031,0 -0.09375,0.023437 -0.175781,0.1054688 l -1.535157,1.51171873 -1.535156,-1.52343753 c -0.05859,-0.070312 -0.09375,-0.09375 -0.152344,-0.09375 -0.105468,0 -0.175781,0.070312 -0.175781,0.1757813 0,0.058594 0.02344,0.082031 0.105469,0.1640625 l 1.523437,1.52343748 -1.523437,1.51171872 c -0.09375,0.1054688 -0.105469,0.140625 -0.105469,0.1757813 0,0.1054687 0.07031,0.1757812 0.175781,0.1757812 0.05859,0 0.08203,-0.023437 0.152344,-0.09375 l 1.535156,-1.53515622 1.59375,1.59375002 c 0.03516,0.023437 0.07031,0.035156 0.117188,0.035156 0.07031,0 0.164062,-0.058594 0.164062,-0.1757812 0,-0.058594 -0.01172,-0.070312 -0.03516,-0.082031 -0.01172,-0.035156 -1.371094,-1.38281247 -1.59375,-1.60546872 z m 0,0"
         style="fill:#000000;fill-opacity:1;fill-rule:nonzero;stroke:none" />
      <path
         id="path44"
         d="M 26.442305,0.22764063 H 26.20793 c -0.02344,0.15234375 -0.08203,0.5625 -0.175782,0.6328125 -0.05859,0.0351563 -0.597656,0.0351563 -0.691406,0.0351563 H 24.05168 c 0.738281,-0.64453125 0.984375,-0.84375 1.394531,-1.171875 0.515625,-0.41015625 0.996094,-0.84374993 0.996094,-1.49999993 0,-0.84375 -0.738282,-1.359375 -1.628907,-1.359375 -0.867187,0 -1.453125,0.609375 -1.453125,1.2421875 0,0.3632812 0.304688,0.3984375 0.375,0.3984375 0.164063,0 0.375,-0.1171875 0.375,-0.375 0,-0.1289063 -0.05859,-0.3632814 -0.421875,-0.3632814 0.222657,-0.5039061 0.691407,-0.65625 1.019532,-0.65625 0.703125,0 1.066406,0.5507814 1.066406,1.1132814 0,0.609375 -0.433594,1.08984368 -0.65625,1.33593743 l -1.6875,1.66406247 c -0.07031,0.058594 -0.07031,0.070312 -0.07031,0.2695313 h 2.882813 z m 0,0"
         style="fill:#000000;fill-opacity:1;fill-rule:nonzero;stroke:none" />
    </g>
    <path
       id="path45"
       d="m 6.0235078,-3.7020781 c 0,-0.4453125 -0.1757812,-0.703125 -0.3984375,-0.703125 -0.2578125,0 -0.5273437,0.2460937 -0.5273437,0.46875 0,0.1054687 0.046875,0.2109375 0.1523437,0.3046875 0.1640625,0.140625 0.3515625,0.4101562 0.3515625,0.8320312 0,0.3984375 -0.1875,0.9726563 -0.5039062,1.4296875 -0.2929688,0.42187503 -0.6679688,0.76171878 -1.1367188,0.76171878 -0.5625,0 -0.8671875,-0.3515625 -0.9609375,-0.89062498 0.1054688,-0.2578125 0.3398438,-0.9023438 0.3398438,-1.1835938 0,-0.1171875 -0.046875,-0.2109375 -0.1875,-0.2109375 -0.070312,0 -0.1875,0.011719 -0.2578125,0.1640625 -0.1171875,0.1992188 -0.234375,0.84375 -0.234375,1.2070313 -0.328125,0.46875 -0.7265625,0.91406248 -1.359375,0.91406248 -0.65625004,0 -0.86718754,-0.58593748 -0.86718754,-1.14843748 0,-1.2421875 1.01953124,-2.2851563 1.01953124,-2.4140625 0,-0.1171875 -0.082031,-0.1875 -0.1875,-0.1875 -0.1289062,0 -0.1992187,0.1289062 -0.2578125,0.2109375 -0.50390624,0.7382812 -0.89062499,1.921875 -0.89062499,2.8359375 0,0.67968748 0.234375,1.41796873 1.04296879,1.41796873 0.7148437,0 1.1835937,-0.4921875 1.5351562,-1.04296875 0.09375,0.57421875 0.4804688,1.04296875 1.1015625,1.04296875 0.7734375,0 1.2539063,-0.609375 1.6171875,-1.34765623 0.234375,-0.4921875 0.609375,-1.8515625 0.609375,-2.4609375 z m 0,0"
       style="fill:#000000;fill-opacity:1;fill-rule:nonzero;stroke:none"
       aria-label="ω"
       transform="matrix(1.3333333,0,0,1.3333333,91.996,79.162667)" />
    <g
       id="g45"
       aria-label="SU(2)⊂R&#10;4"
       transform="matrix(1.3333333,0,0,1.3333333,245.42267,215.36533)">
      <path
         id="path46"
         d="m 6.4212812,-6.9243906 c 0,-0.023437 -0.011719,-0.09375 -0.1054687,-0.09375 -0.046875,0 -0.058594,0.011719 -0.1757813,0.140625 L 5.6595625,-6.3032969 C 5.40175,-6.7720469 4.886125,-7.0181406 4.229875,-7.0181406 c -1.265625,0 -2.4609375,1.1367187 -2.4609375,2.34375 0,0.8085937 0.5273437,1.265625 1.0429687,1.4179687 l 1.0664063,0.28125 c 0.3632812,0.082031 0.9140625,0.234375 0.9140625,1.0546875 0,0.890625 -0.8203125,1.82812502 -1.7929688,1.82812502 -0.6445312,0 -1.7460937,-0.2109375 -1.7460937,-1.45312502 0,-0.234375 0.046875,-0.4804687 0.058594,-0.5390625 0.011719,-0.035156 0.023437,-0.046875 0.023437,-0.070312 0,-0.09375 -0.070312,-0.1054687 -0.1171875,-0.1054687 -0.058594,0 -0.070312,0.011719 -0.1054687,0.035156 -0.035156,0.046875 -0.59765625,2.32031252 -0.59765625,2.34375002 0,0.0585938 0.046875,0.10546875 0.1171875,0.10546875 0.046875,0 0.0585938,-0.0117188 0.17578125,-0.15234375 l 0.4921875,-0.57421875 c 0.421875,0.5859375 1.1015625,0.7265625 1.6757812,0.7265625 1.359375,0 2.53125,-1.32421877 2.53125,-2.56640627 0,-0.6796875 -0.3398437,-1.0195312 -0.4921875,-1.1601562 -0.2226562,-0.234375 -0.375,-0.2695313 -1.265625,-0.5039063 -0.2109375,-0.058594 -0.5742187,-0.1523437 -0.65625,-0.1757812 -0.2695312,-0.09375 -0.609375,-0.375 -0.609375,-0.9023438 0,-0.8085937 0.796875,-1.6523437 1.734375,-1.6523437 0.8320313,0 1.4414063,0.421875 1.4414063,1.5351562 0,0.3164063 -0.046875,0.5039063 -0.046875,0.5625 0,0.011719 0,0.09375 0.1289062,0.09375 0.09375,0 0.1054688,-0.023437 0.140625,-0.1992187 z m 6.5830078,1.171875 c 0.09375,-0.4101563 0.28125,-0.7148438 1.078125,-0.7382813 0.04687,0 0.164063,-0.011719 0.164063,-0.1992187 0,-0.011719 0,-0.1171875 -0.128907,-0.1171875 -0.328125,0 -0.679687,0.035156 -1.019531,0.035156 -0.339844,0 -0.703125,-0.035156 -1.03125,-0.035156 -0.05859,0 -0.175781,0 -0.175781,0.1992187 0,0.1171875 0.09375,0.1171875 0.175781,0.1171875 0.5625,0.011719 0.679688,0.2109375 0.679688,0.4335938 0,0.035156 -0.02344,0.1757812 -0.03516,0.2109375 l -0.890625,3.5507812 c -0.339843,1.33593752 -1.488281,2.20312502 -2.4843747,2.20312502 -0.6796875,0 -1.21875,-0.43359375 -1.21875,-1.28906252 0,-0.023437 0,-0.3398437 0.1171875,-0.7734375 l 0.9609375,-3.8789062 c 0.09375,-0.3632813 0.1054688,-0.4570313 0.8320317,-0.4570313 0.269531,0 0.339843,0 0.339843,-0.1992187 0,-0.1171875 -0.105468,-0.1171875 -0.140625,-0.1171875 -0.2695309,0 -0.9960934,0.035156 -1.2656247,0.035156 -0.2929687,0 -0.9960937,-0.035156 -1.2890625,-0.035156 -0.082031,0 -0.1875,0 -0.1875,0.1992187 0,0.1171875 0.09375,0.1171875 0.28125,0.1171875 0.011719,0 0.2109375,0 0.375,0.011719 0.1757813,0.023437 0.2695313,0.035156 0.2695313,0.1640625 0,0.058594 -0.1054688,0.4804687 -0.1757813,0.703125 l -0.2109375,0.8789062 c -0.09375,0.3867188 -0.5742187,2.2734375 -0.609375,2.4609375 -0.070312,0.28125 -0.070312,0.4335938 -0.070312,0.5742188 0,1.21874997 0.9023438,1.92187497 1.9570313,1.92187497 1.2539064,0 2.4843754,-1.125 2.8125004,-2.44921877 z m 0,0"
         style="fill:#000000;fill-opacity:1;fill-rule:nonzero;stroke:none" />
      <path
         id="path47"
         d="m 17.864641,2.3920156 c 0,-0.035156 0,-0.046875 -0.164063,-0.2226562 -1.242187,-1.25390628 -1.570312,-3.12890628 -1.570312,-4.6640625 0,-1.7226563 0.386718,-3.4570313 1.605468,-4.7109375 0.128907,-0.1171875 0.128907,-0.1289063 0.128907,-0.1640625 0,-0.070312 -0.03516,-0.1054688 -0.09375,-0.1054688 -0.105469,0 -0.996094,0.6796875 -1.582032,1.9453125 -0.515625,1.1015625 -0.632812,2.203125 -0.632812,3.0351563 0,0.7851562 0.117187,1.99218747 0.65625,3.11718747 0.597656,1.21875003 1.453125,1.87500003 1.558594,1.87500003 0.05859,0 0.09375,-0.035156 0.09375,-0.1054688 z m 1.839843,-3.15234373 1.054688,-1.03124997 c 1.558594,-1.3710938 2.15625,-1.9101563 2.15625,-2.90625 0,-1.1367188 -0.902344,-1.9335938 -2.121094,-1.9335938 -1.125,0 -1.851562,0.9140625 -1.851562,1.8046875 0,0.5507813 0.492187,0.5507813 0.527343,0.5507813 0.164063,0 0.515625,-0.1171875 0.515625,-0.5273438 0,-0.2578125 -0.1875,-0.515625 -0.527343,-0.515625 -0.08203,0 -0.105469,0 -0.128907,0.011719 0.222657,-0.6445313 0.761719,-1.0195313 1.335938,-1.0195313 0.914062,0 1.335937,0.8085938 1.335937,1.6289063 0,0.796875 -0.492187,1.5820312 -1.042968,2.203125 l -1.910157,2.13281247 c -0.105468,0.10546875 -0.105468,0.12890625 -0.105468,0.36328125 h 3.691406 l 0.28125,-1.73437502 h -0.257813 c -0.04687,0.3046875 -0.117187,0.73828127 -0.210937,0.89062502 -0.07031,0.0820313 -0.726563,0.0820313 -0.949219,0.0820313 z m 6.597657,-1.73437497 c 0,-0.7734375 -0.117188,-1.9804688 -0.65625,-3.1054688 -0.597657,-1.21875 -1.464844,-1.875 -1.558594,-1.875 -0.05859,0 -0.105469,0.046875 -0.105469,0.1054688 0,0.035156 0,0.046875 0.199219,0.234375 0.972656,0.984375 1.535156,2.5664062 1.535156,4.640625 0,1.71093747 -0.363281,3.45703122 -1.59375,4.7226562 -0.140625,0.1171875 -0.140625,0.1289063 -0.140625,0.1640625 0,0.058594 0.04687,0.1054688 0.105469,0.1054688 0.09375,0 0.996094,-0.6796875 1.582031,-1.94531253 0.503906,-1.1015625 0.632813,-2.20312497 0.632813,-3.04687497 z m 0,0"
         style="fill:#000000;fill-opacity:1;fill-rule:nonzero;stroke:none" />
      <path
         id="path48"
         d="m 36.632219,-4.9790781 c 0.175781,0 0.351562,0 0.351562,-0.1992188 0,-0.1992187 -0.175781,-0.1992187 -0.351562,-0.1992187 h -2.671875 c -1.710938,0 -3.058594,1.2890625 -3.058594,2.8828125 0,1.59374997 1.347656,2.89453122 3.058594,2.89453122 h 2.671875 c 0.175781,0 0.351562,0 0.351562,-0.19921875 0,-0.19921875 -0.175781,-0.19921875 -0.351562,-0.19921875 h -2.660157 c -1.546875,0 -2.671875,-1.16015622 -2.671875,-2.49609372 0,-1.3242188 1.125,-2.484375 2.671875,-2.484375 z m 0,0"
         style="fill:#000000;fill-opacity:1;fill-rule:nonzero;stroke:none" />
      <path
         id="path49"
         d="m 43.256242,-3.1275156 h 0.351563 l 1.5,2.30859372 c 0.09375,0.1640625 0.339843,0.55078125 0.445312,0.703125 0.07031,0.1171875 0.105469,0.1171875 0.328125,0.1171875 h 1.382813 c 0.175781,0 0.328125,0 0.328125,-0.17578125 0,-0.0820313 -0.07031,-0.15234375 -0.152344,-0.17578125 -0.375,-0.0820313 -0.855469,-0.73828122 -1.101563,-1.05468752 -0.07031,-0.09375 -0.5625,-0.75 -1.230468,-1.828125 0.890625,-0.1640625 1.746093,-0.5390625 1.746093,-1.7226562 0,-1.3828125 -1.464843,-1.8632813 -2.648437,-1.8632813 h -3.117188 c -0.1875,0 -0.339843,0 -0.339843,0.1757813 0,0.1640625 0.1875,0.1640625 0.269531,0.1640625 0.5625,0 0.609375,0.070312 0.609375,0.5742187 v 4.99218752 c 0,0.4921875 -0.04687,0.5625 -0.609375,0.5625 -0.08203,0 -0.269531,0 -0.269531,0.17578125 0,0.17578125 0.152343,0.17578125 0.339843,0.17578125 h 2.71875 c 0.1875,0 0.328125,0 0.328125,-0.17578125 0,-0.17578125 -0.164062,-0.17578125 -0.269531,-0.17578125 -0.574219,0 -0.609375,-0.0820313 -0.609375,-0.5625 z m 1.921875,-0.4921875 c 0.28125,-0.3632813 0.304688,-0.890625 0.304688,-1.3242188 0,-0.4804687 -0.05859,-1.0078125 -0.375,-1.4179687 0.410156,0.082031 1.394531,0.3984375 1.394531,1.40625 0,0.6445312 -0.304688,1.1484375 -1.324219,1.3359375 z m -1.921875,-2.3203125 c 0,-0.1992188 0,-0.5390625 0.621094,-0.5390625 0.84375,0 1.253906,0.3515625 1.253906,1.5351562 0,1.2773438 -0.304687,1.4648438 -1.875,1.4648438 z m -1.359375,5.58984372 c 0.08203,-0.17578125 0.08203,-0.45703125 0.08203,-0.55078125 V -5.9282969 c 0,-0.09375 0,-0.3632812 -0.08203,-0.5507812 h 1.136719 c -0.128906,0.1640625 -0.128906,0.3632812 -0.128906,0.515625 v 5.06249997 c 0,0.10546875 0,0.375 0.08203,0.55078125 z m 2.121094,-2.77734372 c 0.07031,-0.011719 0.117187,-0.023437 0.1875,-0.023437 0.152344,0 0.375,-0.011719 0.527344,-0.035156 0.140625,0.234375 1.21875,2.015625 2.050781,2.83593752 H 45.81093 Z m 0,0"
         style="fill:#000000;fill-opacity:1;fill-rule:nonzero;stroke:none" />
      <path
         id="path50"
         d="M 51.471086,-4.7622813 V -5.008375 h -0.773438 v -3.1054688 c 0,-0.1523437 0,-0.1992187 -0.152343,-0.1992187 -0.09375,0 -0.117188,0 -0.1875,0.09375 l -2.308594,3.2109375 v 0.2460937 h 2.050781 v 0.5742188 c 0,0.234375 0,0.328125 -0.5625,0.328125 h -0.1875 v 0.2460937 c 0.351563,-0.011719 0.796875,-0.023437 1.042969,-0.023437 0.257812,0 0.703125,0.011719 1.054687,0.023437 v -0.2460937 h -0.1875 c -0.5625,0 -0.5625,-0.09375 -0.5625,-0.328125 v -0.5742188 z m -1.324219,-2.8007812 v 2.5546875 h -1.839844 z m 0,0"
         style="fill:#000000;fill-opacity:1;fill-rule:nonzero;stroke:none" />
    </g>
    <g
       id="g50"
       aria-label="1&#10;2×2"
       transform="matrix(1.3333333,0,0,1.3333333,276.54,27.045333)">
      <path
         id="path51"
         d="m 2.9289844,-6.3738437 c 0,-0.234375 0,-0.2578125 -0.234375,-0.2578125 -0.609375,0.6328125 -1.4882813,0.6328125 -1.80468753,0.6328125 v 0.3164062 c 0.19921873,0 0.78515623,0 1.30078123,-0.2578125 V -0.784 c 0,0.3515625 -0.035156,0.48046875 -0.9257812,0.48046875 H 0.94851562 v 0.3046875 C 1.3000781,-0.034 2.1555469,-0.034 2.5539844,-0.034 c 0.3984375,0 1.265625,0 1.6171875,0.03515625 v -0.3046875 H 3.8547656 c -0.9023437,0 -0.9257812,-0.1171875 -0.9257812,-0.48046875 z m 0,0"
         style="fill:#000000;fill-opacity:1;fill-rule:nonzero;stroke:none" />
      <path
         id="path52"
         d="m 8.4953906,0.22967188 h -0.234375 c -0.023437,0.15234375 -0.082031,0.5625 -0.1757812,0.6328125 -0.058594,0.0351563 -0.5976563,0.0351563 -0.6914063,0.0351563 H 6.1047656 c 0.7382813,-0.64453125 0.984375,-0.84375 1.3945313,-1.171875 0.515625,-0.41015625 0.9960937,-0.84374998 0.9960937,-1.49999998 0,-0.8437501 -0.7382812,-1.3593751 -1.6289062,-1.3593751 -0.8671875,0 -1.453125,0.609375 -1.453125,1.2421876 0,0.3632813 0.3046875,0.3984375 0.375,0.3984375 0.1640625,0 0.375,-0.1171875 0.375,-0.375 0,-0.1289063 -0.058594,-0.3632812 -0.421875,-0.3632812 0.2226562,-0.5039064 0.6914062,-0.6562501 1.0195312,-0.6562501 0.703125,0 1.0664063,0.5507812 1.0664063,1.1132813 0,0.609375 -0.4335938,1.08984373 -0.65625,1.33593748 l -1.6875,1.66406252 c -0.070312,0.058594 -0.070312,0.070312 -0.070312,0.2695313 h 2.8828125 z m 0,0"
         style="fill:#000000;fill-opacity:1;fill-rule:nonzero;stroke:none" />
      <path
         id="path53"
         d="m 13.839141,-1.7742344 c 0.07031,-0.082031 0.09375,-0.1171875 0.09375,-0.1640625 0,-0.1171875 -0.09375,-0.1757812 -0.164063,-0.1757812 -0.07031,0 -0.09375,0.023437 -0.175781,0.1054687 l -1.535156,1.51171878 -1.535157,-1.52343748 c -0.05859,-0.070312 -0.09375,-0.09375 -0.152343,-0.09375 -0.105469,0 -0.175782,0.070312 -0.175782,0.1757812 0,0.058594 0.02344,0.082031 0.105469,0.1640625 l 1.523438,1.52343753 -1.523438,1.51171877 c -0.09375,0.1054687 -0.105469,0.140625 -0.105469,0.1757812 0,0.1054688 0.07031,0.1757813 0.175782,0.1757813 0.05859,0 0.08203,-0.023437 0.152343,-0.09375 l 1.535157,-1.53515627 1.59375,1.59374997 c 0.03516,0.023437 0.07031,0.035156 0.117187,0.035156 0.07031,0 0.164063,-0.058594 0.164063,-0.1757813 0,-0.058594 -0.01172,-0.070312 -0.03516,-0.082031 -0.01172,-0.035156 -1.371093,-1.38281252 -1.59375,-1.60546877 z m 0,0"
         style="fill:#000000;fill-opacity:1;fill-rule:nonzero;stroke:none" />
      <path
         id="path54"
         d="m 18.693633,0.22967188 h -0.234375 c -0.02344,0.15234375 -0.08203,0.5625 -0.175781,0.6328125 -0.05859,0.0351563 -0.597657,0.0351563 -0.691407,0.0351563 h -1.289062 c 0.738281,-0.64453125 0.984375,-0.84375 1.394531,-1.171875 0.515625,-0.41015625 0.996094,-0.84374998 0.996094,-1.49999998 0,-0.8437501 -0.738281,-1.3593751 -1.628906,-1.3593751 -0.867188,0 -1.453125,0.609375 -1.453125,1.2421876 0,0.3632813 0.304687,0.3984375 0.375,0.3984375 0.164062,0 0.375,-0.1171875 0.375,-0.375 0,-0.1289063 -0.05859,-0.3632812 -0.421875,-0.3632812 0.222656,-0.5039064 0.691406,-0.6562501 1.019531,-0.6562501 0.703125,0 1.066406,0.5507812 1.066406,1.1132813 0,0.609375 -0.433594,1.08984373 -0.65625,1.33593748 l -1.6875,1.66406252 c -0.07031,0.058594 -0.07031,0.070312 -0.07031,0.2695313 h 2.882812 z m 0,0"
         style="fill:#000000;fill-opacity:1;fill-rule:nonzero;stroke:none" />
    </g>
    <g
       id="g54"
       aria-label="−1&#10;2×2"
       transform="matrix(1.3333333,0,0,1.3333333,276.54,197.93867)">
      <path
         id="path55"
         d="m 6.5617969,-2.29775 c 0.1757812,0 0.3515625,0 0.3515625,-0.1992187 0,-0.1992188 -0.1757813,-0.1992188 -0.3515625,-0.1992188 h -5.390625 c -0.1640625,0 -0.33984378,0 -0.33984378,0.1992188 0,0.1992187 0.17578128,0.1992187 0.33984378,0.1992187 z m 0,0"
         style="fill:#000000;fill-opacity:1;fill-rule:nonzero;stroke:none" />
      <path
         id="path56"
         d="m 10.678008,-6.375875 c 0,-0.234375 0,-0.2578125 -0.234375,-0.2578125 C 9.8342578,-6.000875 8.9553516,-6.000875 8.6389453,-6.000875 v 0.3164063 c 0.1992188,0 0.7851563,0 1.3007813,-0.2578125 v 5.15624995 c 0,0.3515625 -0.035156,0.48046875 -0.9257813,0.48046875 H 8.6975391 V -8.75e-4 c 0.3515625,-0.03515625 1.2070312,-0.03515625 1.6054689,-0.03515625 0.398437,0 1.265625,0 1.617187,0.03515625 v -0.3046875 h -0.316406 c -0.902344,0 -0.925781,-0.1171875 -0.925781,-0.48046875 z m 0,0"
         style="fill:#000000;fill-opacity:1;fill-rule:nonzero;stroke:none" />
      <path
         id="path57"
         d="m 16.244414,0.22764063 h -0.234375 c -0.02344,0.15234375 -0.08203,0.5625 -0.175781,0.6328125 -0.05859,0.0351563 -0.597656,0.0351563 -0.691406,0.0351563 h -1.289063 c 0.738281,-0.64453125 0.984375,-0.84375 1.394531,-1.171875 0.515625,-0.41015625 0.996094,-0.84374993 0.996094,-1.49999993 0,-0.84375 -0.738281,-1.359375 -1.628906,-1.359375 -0.867188,0 -1.453125,0.609375 -1.453125,1.2421875 0,0.3632812 0.304687,0.3984375 0.375,0.3984375 0.164062,0 0.375,-0.1171875 0.375,-0.375 0,-0.1289063 -0.05859,-0.3632814 -0.421875,-0.3632814 0.222656,-0.5039061 0.691406,-0.65625 1.019531,-0.65625 0.703125,0 1.066406,0.5507814 1.066406,1.1132814 0,0.609375 -0.433593,1.08984368 -0.65625,1.33593743 l -1.6875,1.66406247 c -0.07031,0.058594 -0.07031,0.070312 -0.07031,0.2695313 h 2.882812 z m 0,0"
         style="fill:#000000;fill-opacity:1;fill-rule:nonzero;stroke:none" />
      <path
         id="path58"
         d="m 21.588164,-1.7762656 c 0.07031,-0.082031 0.09375,-0.1171875 0.09375,-0.1640625 0,-0.1171875 -0.09375,-0.1757813 -0.164062,-0.1757813 -0.07031,0 -0.09375,0.023437 -0.175782,0.1054688 l -1.535156,1.51171873 -1.535156,-1.52343753 c -0.05859,-0.070312 -0.09375,-0.09375 -0.152344,-0.09375 -0.105469,0 -0.175781,0.070312 -0.175781,0.1757813 0,0.058594 0.02344,0.082031 0.105469,0.1640625 l 1.523437,1.52343748 -1.523437,1.51171872 c -0.09375,0.1054688 -0.105469,0.140625 -0.105469,0.1757813 0,0.1054687 0.07031,0.1757812 0.175781,0.1757812 0.05859,0 0.08203,-0.023437 0.152344,-0.09375 l 1.535156,-1.53515622 1.59375,1.59375002 c 0.03516,0.023437 0.07031,0.035156 0.117188,0.035156 0.07031,0 0.164062,-0.058594 0.164062,-0.1757812 0,-0.058594 -0.01172,-0.070312 -0.03516,-0.082031 -0.01172,-0.035156 -1.371094,-1.38281247 -1.59375,-1.60546872 z m 0,0"
         style="fill:#000000;fill-opacity:1;fill-rule:nonzero;stroke:none" />
      <path
         id="path59"
         d="m 26.442656,0.22764063 h -0.234375 c -0.02344,0.15234375 -0.08203,0.5625 -0.175781,0.6328125 -0.05859,0.0351563 -0.597656,0.0351563 -0.691406,0.0351563 h -1.289063 c 0.738281,-0.64453125 0.984375,-0.84375 1.394531,-1.171875 0.515625,-0.41015625 0.996094,-0.84374993 0.996094,-1.49999993 0,-0.84375 -0.738281,-1.359375 -1.628906,-1.359375 -0.867188,0 -1.453125,0.609375 -1.453125,1.2421875 0,0.3632812 0.304687,0.3984375 0.375,0.3984375 0.164062,0 0.375,-0.1171875 0.375,-0.375 0,-0.1289063 -0.05859,-0.3632814 -0.421875,-0.3632814 0.222656,-0.5039061 0.691406,-0.65625 1.019531,-0.65625 0.703125,0 1.066406,0.5507814 1.066406,1.1132814 0,0.609375 -0.433593,1.08984368 -0.65625,1.33593743 l -1.6875,1.66406247 c -0.07031,0.058594 -0.07031,0.070312 -0.07031,0.2695313 h 2.882812 z m 0,0"
         style="fill:#000000;fill-opacity:1;fill-rule:nonzero;stroke:none" />
    </g>
    <g
       id="g59"
       aria-label="ω→4π"
       transform="matrix(1.3333333,0,0,1.3333333,304.00267,105.01733)">
      <path
         id="path60"
         d="m 6.0243672,-3.7044063 c 0,-0.4453125 -0.1757813,-0.703125 -0.3984375,-0.703125 -0.2578125,0 -0.5273438,0.2460938 -0.5273438,0.46875 0,0.1054688 0.046875,0.2109375 0.1523438,0.3046875 0.1640625,0.140625 0.3515625,0.4101563 0.3515625,0.8320313 0,0.3984375 -0.1875,0.9726562 -0.5039063,1.4296875 -0.2929687,0.421875 -0.6679687,0.76171875 -1.1367187,0.76171875 -0.5625,0 -0.8671875,-0.3515625 -0.9609375,-0.89062505 0.1054687,-0.2578125 0.3398437,-0.9023437 0.3398437,-1.1835937 0,-0.1171875 -0.046875,-0.2109375 -0.1875,-0.2109375 -0.070312,0 -0.1875,0.011719 -0.2578125,0.1640625 -0.1171875,0.1992187 -0.234375,0.84375 -0.234375,1.2070312 -0.328125,0.46875 -0.7265625,0.91406255 -1.359375,0.91406255 -0.65624996,0 -0.86718746,-0.58593755 -0.86718746,-1.14843755 0,-1.2421875 1.01953126,-2.2851562 1.01953126,-2.4140625 0,-0.1171875 -0.082031,-0.1875 -0.1875,-0.1875 -0.1289063,0 -0.1992188,0.1289063 -0.2578125,0.2109375 -0.50390626,0.7382813 -0.89062501,1.921875 -0.89062501,2.8359375 0,0.67968755 0.234375,1.4179688 1.04296871,1.4179688 0.7148438,0 1.1835938,-0.4921875 1.5351563,-1.04296875 0.09375,0.57421875 0.4804687,1.04296875 1.1015625,1.04296875 0.7734375,0 1.2539062,-0.609375 1.6171875,-1.3476563 0.234375,-0.4921875 0.609375,-1.8515625 0.609375,-2.4609375 z m 0,0"
         style="fill:#000000;fill-opacity:1;fill-rule:nonzero;stroke:none" />
      <path
         id="path61"
         d="m 17.634719,-2.2981563 c -0.550782,0.421875 -0.820313,0.8320313 -0.902344,0.9609375 -0.445313,0.6914063 -0.527344,1.31250005 -0.527344,1.3242188 0,0.1171875 0.128906,0.1171875 0.199219,0.1171875 0.175781,0 0.1875,-0.01171875 0.222656,-0.19921875 0.234375,-0.97265625 0.820313,-1.80468755 1.945313,-2.26171875 0.117187,-0.046875 0.152343,-0.070312 0.152343,-0.140625 0,-0.058594 -0.07031,-0.09375 -0.08203,-0.1054688 -0.445312,-0.1640625 -1.640625,-0.6679687 -2.027344,-2.34375 -0.02344,-0.1171875 -0.03516,-0.140625 -0.210937,-0.140625 -0.07031,0 -0.199219,0 -0.199219,0.1171875 0,0.023437 0.09375,0.6445313 0.515625,1.3125 0.199219,0.3046875 0.480469,0.6445313 0.914063,0.9609375 h -7.40625 c -0.175782,0 -0.3515628,0 -0.3515628,0.1992188 0,0.1992187 0.1757808,0.1992187 0.3515628,0.1992187 z m 0,0"
         style="fill:#000000;fill-opacity:1;fill-rule:nonzero;stroke:none" />
      <path
         id="path62"
         d="m 24.985305,-1.6419063 v 0.86718755 c 0,0.3515625 -0.02344,0.46875 -0.761719,0.46875 h -0.210938 v 0.3046875 c 0.410157,-0.03515625 0.9375,-0.03515625 1.347657,-0.03515625 0.421875,0 0.949218,0 1.359375,0.03515625 v -0.3046875 h -0.210938 c -0.738281,0 -0.761719,-0.1171875 -0.761719,-0.46875 V -1.6419063 h 0.996094 V -1.9583125 H 25.747023 V -6.48175 c 0,-0.1992188 0,-0.2578125 -0.152343,-0.2578125 -0.09375,0 -0.117188,0 -0.199219,0.1171875 l -3.058594,4.6640625 v 0.3164062 z m 0.05859,-0.3164062 h -2.425781 l 2.425781,-3.7148438 z m 0,0"
         style="fill:#000000;fill-opacity:1;fill-rule:nonzero;stroke:none" />
      <path
         id="path63"
         d="m 29.672805,-3.716125 h 1.125 c -0.328125,1.4765625 -0.410157,1.8984375 -0.410157,2.5664062 0,0.1523438 0,0.42187505 0.07031,0.7617188 0.105469,0.43359375 0.210937,0.4921875 0.363281,0.4921875 0.199219,0 0.410156,-0.17578125 0.410156,-0.375 0,-0.0585938 0,-0.0820313 -0.05859,-0.22265625 -0.292969,-0.71484375 -0.292969,-1.35937505 -0.292969,-1.64062505 0,-0.5273437 0.07031,-1.0664062 0.175781,-1.5820312 h 1.136719 c 0.128906,0 0.492187,0 0.492187,-0.3398438 0,-0.234375 -0.210937,-0.234375 -0.398437,-0.234375 h -3.339844 c -0.210937,0 -0.597656,0 -1.03125,0.46875 -0.351562,0.3867188 -0.609375,0.84375 -0.609375,0.890625 0,0.011719 0,0.1054688 0.117188,0.1054688 0.08203,0 0.105468,-0.046875 0.164062,-0.1289063 0.480469,-0.7617187 1.066406,-0.7617187 1.265625,-0.7617187 h 0.5625 c -0.316406,1.2070312 -0.855469,2.4140625 -1.277344,3.31640625 -0.07031,0.15234375 -0.07031,0.1640625 -0.07031,0.234375 0,0.19921875 0.152344,0.26953125 0.28125,0.26953125 0.304687,0 0.386719,-0.26953125 0.503906,-0.64453125 C 28.993117,-0.997375 28.993117,-1.0208125 29.122023,-1.513 Z m 0,0"
         style="fill:#000000;fill-opacity:1;fill-rule:nonzero;stroke:none" />
    </g>
  </g>
</svg>
