<?xml version="1.0" encoding="UTF-8" standalone="no"?>
<!-- Created with Inkscape (http://www.inkscape.org/) -->

<svg
   version="1.1"
   id="svg1"
   width="223.90668"
   height="76.946671"
   viewBox="0 0 223.90668 76.946671"
   sodipodi:docname="Yound-diagram-example1.pdf"
   xmlns:inkscape="http://www.inkscape.org/namespaces/inkscape"
   xmlns:sodipodi="http://sodipodi.sourceforge.net/DTD/sodipodi-0.dtd"
   xmlns="http://www.w3.org/2000/svg"
   xmlns:svg="http://www.w3.org/2000/svg">
  <defs
     id="defs1" />
  <sodipodi:namedview
     id="namedview1"
     pagecolor="#ffffff"
     bordercolor="#000000"
     borderopacity="0.25"
     inkscape:showpageshadow="2"
     inkscape:pageopacity="0.0"
     inkscape:pagecheckerboard="0"
     inkscape:deskcolor="#d1d1d1">
    <inkscape:page
       x="0"
       y="0"
       inkscape:label="1"
       id="page1"
       width="223.90668"
       height="76.946671"
       margin="0"
       bleed="0" />
  </sodipodi:namedview>
  <g
     id="g1"
     inkscape:groupmode="layer"
     inkscape:label="1">
    <path
       id="path1"
       d="M 74.72076,-61.77164 H 98.06352 V -85.11441 H 74.72076 Z"
       style="fill:#f5a623;fill-opacity:0.2;fill-rule:nonzero;stroke:#000000;stroke-width:0.74721;stroke-linecap:butt;stroke-linejoin:miter;stroke-miterlimit:10;stroke-dasharray:none;stroke-opacity:1"
       transform="matrix(1.3333333,0,0,-1.3333333,-82.610667,-81.868)" />
    <path
       id="path2"
       d="m 98.06352,-61.77164 h 23.34276 V -85.11441 H 98.06352 Z"
       style="fill:#f5a623;fill-opacity:0.2;fill-rule:nonzero;stroke:#000000;stroke-width:0.74721;stroke-linecap:butt;stroke-linejoin:miter;stroke-miterlimit:10;stroke-dasharray:none;stroke-opacity:1"
       transform="matrix(1.3333333,0,0,-1.3333333,-82.610667,-81.868)" />
    <path
       id="path3"
       d="m 121.40628,-61.77164 h 23.34277 v -23.34277 h -23.34277 z"
       style="fill:#f5a623;fill-opacity:0.2;fill-rule:nonzero;stroke:#000000;stroke-width:0.74721;stroke-linecap:butt;stroke-linejoin:miter;stroke-miterlimit:10;stroke-dasharray:none;stroke-opacity:1"
       transform="matrix(1.3333333,0,0,-1.3333333,-82.610667,-81.868)" />
    <path
       id="path4"
       d="m 74.72076,-95.39598 h 23.34276 v -23.34277 H 74.72076 Z"
       style="fill:#f5a623;fill-opacity:0.2;fill-rule:nonzero;stroke:#000000;stroke-width:0.74721;stroke-linecap:butt;stroke-linejoin:miter;stroke-miterlimit:10;stroke-dasharray:none;stroke-opacity:1"
       transform="matrix(1.3333333,0,0,-1.3333333,-82.610667,-81.868)" />
    <path
       id="path5"
       d="m 98.06352,-95.39598 h 23.34276 v -23.34277 H 98.06352 Z"
       style="fill:#f5a623;fill-opacity:0.2;fill-rule:nonzero;stroke:#000000;stroke-width:0.74721;stroke-linecap:butt;stroke-linejoin:miter;stroke-miterlimit:10;stroke-dasharray:none;stroke-opacity:1"
       transform="matrix(1.3333333,0,0,-1.3333333,-82.610667,-81.868)" />
    <path
       id="path6"
       d="m 121.40628,-95.39598 h 23.34277 v -23.34277 h -23.34277 z"
       style="fill:#f5a623;fill-opacity:0.2;fill-rule:nonzero;stroke:#000000;stroke-width:0.74721;stroke-linecap:butt;stroke-linejoin:miter;stroke-miterlimit:10;stroke-dasharray:none;stroke-opacity:1"
       transform="matrix(1.3333333,0,0,-1.3333333,-82.610667,-81.868)" />
    <path
       id="path7"
       d="m 65.64964,-90.27762 h 90.41213"
       style="fill:none;stroke:#000000;stroke-width:0.74721;stroke-linecap:butt;stroke-linejoin:miter;stroke-miterlimit:10;stroke-dasharray:none;stroke-opacity:1"
       transform="matrix(1.3333333,0,0,-1.3333333,-82.610667,-81.868)" />
    <path
       id="path8"
       d="M 1.2659844,-0.76176562 2.3206719,-1.7930156 c 1.5585937,-1.3710938 2.15625,-1.9101563 2.15625,-2.90625 0,-1.1367188 -0.9023438,-1.9335938 -2.1210938,-1.9335938 -1.125,0 -1.85156247,0.9140625 -1.85156247,1.8046875 0,0.5507813 0.4921875,0.5507813 0.52734377,0.5507813 0.1640625,0 0.515625,-0.1171875 0.515625,-0.5273438 0,-0.2578125 -0.1875,-0.515625 -0.5273438,-0.515625 -0.0820312,0 -0.10546872,0 -0.12890622,0.011719 0.22265622,-0.6445313 0.76171872,-1.0195313 1.33593752,-1.0195313 0.9140625,0 1.3359375,0.8085938 1.3359375,1.6289063 0,0.796875 -0.4921875,1.5820312 -1.0429688,2.203125 L 0.60973438,-0.36332812 C 0.50426563,-0.25785937 0.50426563,-0.23442187 0.50426563,-4.6875e-5 H 4.1956719 L 4.4769219,-1.7344219 H 4.2191094 c -0.046875,0.3046875 -0.1171875,0.73828128 -0.2109375,0.89062503 -0.070312,0.0820313 -0.7265625,0.0820313 -0.9492188,0.0820313 z m 0,0"
       style="fill:#000000;fill-opacity:1;fill-rule:nonzero;stroke:none"
       aria-label="2"
       transform="matrix(1.3333333,0,0,1.3333333,29.257333,20.336)" />
    <path
       id="path9"
       d="m 2.8956406,-3.5039531 c 0.8085938,-0.2695313 1.3945313,-0.9726563 1.3945313,-1.7578125 0,-0.8203125 -0.8789063,-1.3710938 -1.8398438,-1.3710938 -1.0078125,0 -1.75781247,0.5976563 -1.75781247,1.3476563 0,0.3398437 0.2109375,0.5273437 0.50390627,0.5273437 0.3046875,0 0.5039062,-0.2226562 0.5039062,-0.515625 0,-0.4921875 -0.46875,-0.4921875 -0.609375,-0.4921875 0.3046875,-0.4921875 0.9609375,-0.6210937 1.3242188,-0.6210937 0.4101562,0 0.9492187,0.2226562 0.9492187,1.1132812 0,0.1289063 -0.011719,0.703125 -0.2695312,1.1367188 -0.3046875,0.4804687 -0.6445313,0.515625 -0.890625,0.515625 -0.082031,0.011719 -0.3164063,0.035156 -0.3867188,0.035156 -0.082031,0.011719 -0.1523437,0.023437 -0.1523437,0.1171875 0,0.1171875 0.070312,0.1171875 0.234375,0.1171875 h 0.4453125 c 0.8085937,0 1.1835937,0.6679688 1.1835937,1.6523438 0,1.34765623 -0.6914062,1.64062498 -1.125,1.64062498 -0.4335937,0 -1.171875,-0.17578125 -1.52343747,-0.76171875 0.35156247,0.0585938 0.65624997,-0.1640625 0.65624997,-0.53906253 0,-0.3632812 -0.2695312,-0.5625 -0.56249997,-0.5625 -0.234375,0 -0.55078125,0.140625 -0.55078125,0.5742188 0,0.91406248 0.92578122,1.57031248 2.00390622,1.57031248 1.21875,0 2.1210938,-0.9140625 2.1210938,-1.92187498 0,-0.8203125 -0.6210938,-1.59375 -1.6523438,-1.8046873 z m 0,0"
       style="fill:#000000;fill-opacity:1;fill-rule:nonzero;stroke:none"
       aria-label="3"
       transform="matrix(1.3333333,0,0,1.3333333,60.381333,20.336)" />
    <path
       id="path10"
       d="m 2.9286172,-1.6406719 v 0.86718753 c 0,0.3515625 -0.023437,0.46875 -0.7617188,0.46875 H 1.9559609 V -4.6875e-5 c 0.4101563,-0.035156245 0.9375,-0.035156245 1.3476563,-0.035156245 0.421875,0 0.9492187,0 1.359375,0.035156245 V -0.30473437 H 4.4520547 c -0.7382813,0 -0.7617188,-0.1171875 -0.7617188,-0.46875 V -1.6406719 H 4.6864297 V -1.9570781 H 3.6903359 v -4.5234375 c 0,-0.1992188 0,-0.2578125 -0.1523437,-0.2578125 -0.09375,0 -0.1171875,0 -0.1992188,0.1171875 l -3.05859371,4.6640625 v 0.3164062 z m 0.058594,-0.3164062 H 0.56142969 L 2.9872109,-5.6719219 Z m 0,0"
       style="fill:#000000;fill-opacity:1;fill-rule:nonzero;stroke:none"
       aria-label="4"
       transform="matrix(1.3333333,0,0,1.3333333,91.505333,20.336)" />
    <path
       id="path11"
       d="m 2.9286172,-6.3760234 c 0,-0.234375 0,-0.2578125 -0.234375,-0.2578125 -0.609375,0.6328125 -1.4882813,0.6328125 -1.80468751,0.6328125 v 0.3164062 c 0.19921871,0 0.78515621,0 1.30078121,-0.2578125 v 5.15625001 c 0,0.3515625 -0.035156,0.48046875 -0.9257812,0.48046875 H 0.94814844 v 0.3046875 C 1.2997109,-0.03617969 2.1551797,-0.03617969 2.5536172,-0.03617969 c 0.3984375,0 1.265625,0 1.6171875,0.03515625 v -0.3046875 H 3.8543984 c -0.9023437,0 -0.9257812,-0.1171875 -0.9257812,-0.48046875 z m 0,0"
       style="fill:#000000;fill-opacity:1;fill-rule:nonzero;stroke:none"
       aria-label="1"
       transform="matrix(1.3333333,0,0,1.3333333,91.505333,65.169333)" />
    <path
       id="path12"
       d="M 1.2667344,-0.76274219 2.3214219,-1.7939922 c 1.5585937,-1.3710937 2.15625,-1.9101562 2.15625,-2.90625 0,-1.1367187 -0.9023438,-1.9335937 -2.1210938,-1.9335937 -1.125,0 -1.85156247,0.9140625 -1.85156247,1.8046875 0,0.5507812 0.4921875,0.5507812 0.52734377,0.5507812 0.1640625,0 0.515625,-0.1171875 0.515625,-0.5273437 0,-0.2578125 -0.1875,-0.515625 -0.5273438,-0.515625 -0.0820312,0 -0.10546872,0 -0.12890622,0.011719 0.22265622,-0.6445312 0.76171872,-1.0195312 1.33593752,-1.0195312 0.9140625,0 1.3359375,0.8085937 1.3359375,1.6289062 0,0.796875 -0.4921875,1.5820313 -1.0429688,2.203125 L 0.61048438,-0.36430469 C 0.50501563,-0.25883594 0.50501563,-0.23539844 0.50501563,-0.00102344 H 4.1964219 l 0.28125,-1.73437496 H 4.2198594 c -0.046875,0.3046875 -0.1171875,0.73828121 -0.2109375,0.89062496 -0.070312,0.0820313 -0.7265625,0.0820313 -0.9492188,0.0820313 z m 0,0"
       style="fill:#000000;fill-opacity:1;fill-rule:nonzero;stroke:none"
       aria-label="2"
       transform="matrix(1.3333333,0,0,1.3333333,60.381333,65.169333)" />
    <path
       id="path13"
       d="m 2.8948906,-3.5049297 c 0.8085938,-0.2695312 1.3945313,-0.9726562 1.3945313,-1.7578125 0,-0.8203125 -0.8789063,-1.3710937 -1.8398438,-1.3710937 -1.0078125,0 -1.75781247,0.5976562 -1.75781247,1.3476562 0,0.3398438 0.2109375,0.5273438 0.50390627,0.5273438 0.3046875,0 0.5039062,-0.2226563 0.5039062,-0.515625 0,-0.4921875 -0.46875,-0.4921875 -0.609375,-0.4921875 0.3046875,-0.4921875 0.9609375,-0.6210938 1.3242188,-0.6210938 0.4101562,0 0.9492187,0.2226563 0.9492187,1.1132813 0,0.1289062 -0.011719,0.703125 -0.2695312,1.1367187 -0.3046875,0.4804688 -0.6445313,0.515625 -0.890625,0.515625 -0.082031,0.011719 -0.3164063,0.035156 -0.3867188,0.035156 -0.082031,0.011719 -0.1523437,0.023437 -0.1523437,0.1171875 0,0.1171875 0.070312,0.1171875 0.234375,0.1171875 h 0.4453125 c 0.8085937,0 1.1835937,0.6679687 1.1835937,1.6523437 0,1.34765626 -0.6914062,1.64062501 -1.125,1.64062501 -0.4335937,0 -1.171875,-0.17578125 -1.52343747,-0.76171875 0.35156247,0.0585938 0.65624997,-0.1640625 0.65624997,-0.53906246 0,-0.3632813 -0.2695312,-0.5625 -0.56249997,-0.5625 -0.234375,0 -0.55078125,0.140625 -0.55078125,0.5742187 0,0.91406251 0.92578122,1.57031251 2.00390622,1.57031251 1.21875,0 2.1210938,-0.9140625 2.1210938,-1.92187501 0,-0.8203125 -0.6210938,-1.59375 -1.6523438,-1.8046872 z m 0,0"
       style="fill:#000000;fill-opacity:1;fill-rule:nonzero;stroke:none"
       aria-label="3"
       transform="matrix(1.3333333,0,0,1.3333333,29.257333,65.169333)" />
    <g
       id="g13"
       aria-label="=&#10;2×3×4"
       transform="matrix(1.3333333,0,0,1.3333333,128.95867,40.786667)">
      <path
         id="path14"
         d="m 6.8425234,-3.2589453 c 0.1523438,0 0.3398438,0 0.3398438,-0.1992188 0,-0.1992187 -0.1875,-0.1992187 -0.328125,-0.1992187 H 0.88939844 c -0.140625,0 -0.328125,0 -0.328125,0.1992187 0,0.1992188 0.1875,0.1992188 0.33984375,0.1992188 z m 0.011719,1.9335937 c 0.140625,0 0.328125,0 0.328125,-0.1992187 0,-0.1992188 -0.1875,-0.1992188 -0.3398438,-0.1992188 H 0.90111719 c -0.15234375,0 -0.33984375,0 -0.33984375,0.1992188 0,0.1992187 0.1875,0.1992187 0.328125,0.1992187 z m 6.1230466,-6.1757812 1.054688,-1.03125 c 1.558593,-1.3710938 2.15625,-1.9101562 2.15625,-2.9062502 0,-1.136719 -0.902344,-1.933594 -2.121094,-1.933594 -1.125,0 -1.851563,0.914063 -1.851563,1.804688 0,0.550781 0.492188,0.550781 0.527344,0.550781 0.164063,0 0.515625,-0.117187 0.515625,-0.527344 0,-0.257812 -0.1875,-0.515625 -0.527344,-0.515625 -0.08203,0 -0.105468,0 -0.128906,0.01172 0.222656,-0.644531 0.761719,-1.019531 1.335938,-1.019531 0.914062,0 1.335937,0.808594 1.335937,1.628906 0,0.796875 -0.492187,1.5820314 -1.042969,2.2031252 l -1.910156,2.1328125 c -0.105469,0.1054687 -0.105469,0.1289062 -0.105469,0.3632812 h 3.691407 l 0.28125,-1.734375 h -0.257813 c -0.04687,0.3046875 -0.117187,0.7382813 -0.210937,0.890625 -0.07031,0.082031 -0.726563,0.082031 -0.949219,0.082031 z m 0,0"
         style="fill:#000000;fill-opacity:1;fill-rule:nonzero;stroke:none" />
      <path
         id="path15"
         d="m 22.785883,-9.5050391 -1.992188,-1.9804689 c -0.128906,-0.128906 -0.140625,-0.140625 -0.222656,-0.140625 -0.105469,0 -0.199219,0.08203 -0.199219,0.199219 0,0.07031 0.02344,0.08203 0.128907,0.199219 l 1.992187,1.9921872 -1.992187,2.0039062 c -0.105469,0.1171875 -0.128907,0.1289063 -0.128907,0.1992188 0,0.1171875 0.09375,0.1992187 0.199219,0.1992187 0.08203,0 0.09375,-0.011719 0.222656,-0.140625 l 1.980469,-1.9804687 2.0625,2.0625 c 0.01172,0.011719 0.08203,0.058594 0.152344,0.058594 0.117187,0 0.199219,-0.082031 0.199219,-0.1992187 0,-0.011719 0,-0.058594 -0.03516,-0.1054688 -0.01172,-0.023437 -1.59375,-1.5820312 -2.097656,-2.0976562 l 1.828125,-1.8164065 c 0.04687,-0.05859 0.199219,-0.1875 0.246094,-0.246094 0.01172,-0.02344 0.05859,-0.05859 0.05859,-0.128906 0,-0.117188 -0.08203,-0.199219 -0.199219,-0.199219 -0.08203,0 -0.128906,0.03516 -0.234375,0.140625 z m 0,0"
         style="fill:#000000;fill-opacity:1;fill-rule:nonzero;stroke:none" />
      <path
         id="path16"
         d="m 31.765375,-10.24332 c 0.808594,-0.269532 1.394531,-0.972657 1.394531,-1.757813 0,-0.820312 -0.878906,-1.371094 -1.839843,-1.371094 -1.007813,0 -1.757813,0.597657 -1.757813,1.347657 0,0.339843 0.210938,0.527343 0.503906,0.527343 0.304688,0 0.503907,-0.222656 0.503907,-0.515625 0,-0.492187 -0.46875,-0.492187 -0.609375,-0.492187 0.304687,-0.492188 0.960937,-0.621094 1.324218,-0.621094 0.410157,0 0.949219,0.222656 0.949219,1.113281 0,0.128907 -0.01172,0.703125 -0.269531,1.136719 -0.304688,0.480469 -0.644531,0.515625 -0.890625,0.515625 -0.08203,0.01172 -0.316406,0.03516 -0.386719,0.03516 -0.08203,0.01172 -0.152344,0.02344 -0.152344,0.117188 0,0.117187 0.07031,0.117187 0.234375,0.117187 h 0.445313 c 0.808594,0 1.183594,0.6679692 1.183594,1.6523442 0,1.3476562 -0.691407,1.640625 -1.125,1.640625 -0.433594,0 -1.171875,-0.1757813 -1.523438,-0.7617188 0.351563,0.058594 0.65625,-0.1640625 0.65625,-0.5390625 0,-0.3632812 -0.269531,-0.5625 -0.5625,-0.5625 -0.234375,0 -0.550781,0.140625 -0.550781,0.5742188 0,0.9140625 0.925781,1.5703125 2.003906,1.5703125 1.21875,0 2.121094,-0.9140625 2.121094,-1.921875 0,-0.8203125 -0.621094,-1.5937502 -1.652344,-1.8046872 z m 0,0"
         style="fill:#000000;fill-opacity:1;fill-rule:nonzero;stroke:none" />
      <path
         id="path17"
         d="m 39.945063,-9.5050391 -1.992188,-1.9804689 c -0.128906,-0.128906 -0.140625,-0.140625 -0.222656,-0.140625 -0.105469,0 -0.199219,0.08203 -0.199219,0.199219 0,0.07031 0.02344,0.08203 0.128906,0.199219 l 1.992188,1.9921872 -1.992188,2.0039062 C 37.554438,-7.1144141 37.531,-7.1026953 37.531,-7.0323828 c 0,0.1171875 0.09375,0.1992187 0.199219,0.1992187 0.08203,0 0.09375,-0.011719 0.222656,-0.140625 l 1.980469,-1.9804687 2.0625,2.0625 c 0.01172,0.011719 0.08203,0.058594 0.152344,0.058594 0.117187,0 0.199218,-0.082031 0.199218,-0.1992187 0,-0.011719 0,-0.058594 -0.03516,-0.1054688 -0.01172,-0.023437 -1.59375,-1.5820312 -2.097656,-2.0976562 l 1.828125,-1.8164065 c 0.04687,-0.05859 0.199219,-0.1875 0.246094,-0.246094 0.01172,-0.02344 0.05859,-0.05859 0.05859,-0.128906 0,-0.117188 -0.08203,-0.199219 -0.199218,-0.199219 -0.08203,0 -0.128907,0.03516 -0.234375,0.140625 z m 0,0"
         style="fill:#000000;fill-opacity:1;fill-rule:nonzero;stroke:none" />
      <path
         id="path18"
         d="m 48.956781,-8.3800391 v 0.8671875 c 0,0.3515625 -0.02344,0.46875 -0.761718,0.46875 h -0.210938 v 0.3046875 c 0.410156,-0.035156 0.9375,-0.035156 1.347656,-0.035156 0.421875,0 0.949219,0 1.359375,0.035156 v -0.3046875 h -0.210937 c -0.738281,0 -0.761719,-0.1171875 -0.761719,-0.46875 v -0.8671875 h 0.996094 V -8.6964453 H 49.7185 v -4.5234377 c 0,-0.199219 0,-0.257812 -0.152344,-0.257812 -0.09375,0 -0.117187,0 -0.199218,0.117187 l -3.058594,4.6640627 v 0.3164062 z m 0.05859,-0.3164062 H 46.58959 l 2.425781,-3.7148437 z m 0,0"
         style="fill:#000000;fill-opacity:1;fill-rule:nonzero;stroke:none" />
    </g>
    <path
       id="path19"
       d="m -122.246,135.888 h 39.297"
       style="fill:none;stroke:#000000;stroke-width:0.3985;stroke-linecap:butt;stroke-linejoin:miter;stroke-miterlimit:10;stroke-dasharray:none;stroke-opacity:1"
       transform="matrix(1.3333333,0,0,-1.3333333,307.56933,218.64933)" />
    <g
       id="g19"
       aria-label="3×2×1&#10;=4"
       transform="matrix(1.3333333,0,0,1.3333333,144.57467,49.898667)">
      <path
         id="path20"
         d="m 2.8941953,-3.5040781 c 0.8085938,-0.2695313 1.3945313,-0.9726563 1.3945313,-1.7578125 0,-0.8203125 -0.8789063,-1.3710938 -1.8398438,-1.3710938 -1.0078125,0 -1.75781249,0.5976563 -1.75781249,1.3476563 0,0.3398437 0.2109375,0.5273437 0.50390629,0.5273437 0.3046875,0 0.5039062,-0.2226562 0.5039062,-0.515625 0,-0.4921875 -0.46875,-0.4921875 -0.609375,-0.4921875 0.3046875,-0.4921875 0.9609375,-0.6210937 1.3242188,-0.6210937 0.4101562,0 0.9492187,0.2226562 0.9492187,1.1132812 0,0.1289063 -0.011719,0.703125 -0.2695312,1.1367188 -0.3046875,0.4804687 -0.6445313,0.515625 -0.890625,0.515625 -0.082031,0.011719 -0.3164063,0.035156 -0.3867188,0.035156 -0.082031,0.011719 -0.1523437,0.023437 -0.1523437,0.1171875 0,0.1171875 0.070312,0.1171875 0.234375,0.1171875 h 0.4453125 c 0.8085937,0 1.1835937,0.6679688 1.1835937,1.6523438 0,1.34765622 -0.6914062,1.64062497 -1.125,1.64062497 -0.4335937,0 -1.171875,-0.17578125 -1.52343749,-0.76171875 0.35156249,0.0585938 0.65624999,-0.1640625 0.65624999,-0.53906252 0,-0.3632812 -0.2695312,-0.5625 -0.56249999,-0.5625 -0.234375,0 -0.55078125,0.140625 -0.55078125,0.5742188 0,0.91406247 0.92578124,1.57031247 2.00390624,1.57031247 1.21875,0 2.1210938,-0.9140625 2.1210938,-1.92187497 0,-0.8203125 -0.6210938,-1.59375 -1.6523438,-1.8046873 z m 0,0"
         style="fill:#000000;fill-opacity:1;fill-rule:nonzero;stroke:none" />
      <path
         id="path21"
         d="M 11.073883,-2.7657969 9.0816953,-4.7462656 c -0.1289062,-0.1289063 -0.140625,-0.140625 -0.2226562,-0.140625 -0.1054688,0 -0.1992188,0.082031 -0.1992188,0.1992187 0,0.070312 0.023437,0.082031 0.1289063,0.1992188 l 1.9921874,1.9921875 -1.9921874,2.00390622 c -0.1054688,0.1171875 -0.1289063,0.12890625 -0.1289063,0.19921875 0,0.1171875 0.09375,0.19921875 0.1992188,0.19921875 0.082031,0 0.09375,-0.01171875 0.2226562,-0.140625 l 1.9804687,-1.98046872 2.0625,2.06249997 c 0.01172,0.0117188 0.08203,0.05859375 0.152344,0.05859375 0.117187,0 0.199219,-0.08203125 0.199219,-0.19921875 0,-0.0117188 0,-0.0585938 -0.03516,-0.10546875 -0.01172,-0.0234375 -1.59375,-1.58203122 -2.097656,-2.09765622 l 1.828125,-1.8164063 c 0.04687,-0.058594 0.199219,-0.1875 0.246094,-0.2460937 0.01172,-0.023437 0.05859,-0.058594 0.05859,-0.1289063 0,-0.1171875 -0.08203,-0.1992187 -0.199219,-0.1992187 -0.08203,0 -0.128906,0.035156 -0.234375,0.140625 z m 0,0"
         style="fill:#000000;fill-opacity:1;fill-rule:nonzero;stroke:none" />
      <path
         id="path22"
         d="m 18.424469,-0.76189063 1.054687,-1.03124997 c 1.558594,-1.3710938 2.15625,-1.9101563 2.15625,-2.90625 0,-1.1367188 -0.902343,-1.9335938 -2.121093,-1.9335938 -1.125,0 -1.851563,0.9140625 -1.851563,1.8046875 0,0.5507813 0.492188,0.5507813 0.527344,0.5507813 0.164062,0 0.515625,-0.1171875 0.515625,-0.5273438 0,-0.2578125 -0.1875,-0.515625 -0.527344,-0.515625 -0.08203,0 -0.105469,0 -0.128906,0.011719 0.222656,-0.6445313 0.761719,-1.0195313 1.335937,-1.0195313 0.914063,0 1.335938,0.8085938 1.335938,1.6289063 0,0.796875 -0.492188,1.5820312 -1.042969,2.203125 l -1.910156,2.13281247 C 17.66275,-0.25798438 17.66275,-0.23454688 17.66275,-1.71875e-4 h 3.691406 l 0.28125,-1.734375025 h -0.257812 c -0.04687,0.3046875 -0.117188,0.73828127 -0.210938,0.89062502 -0.07031,0.0820313 -0.726562,0.0820313 -0.949218,0.0820313 z m 0,0"
         style="fill:#000000;fill-opacity:1;fill-rule:nonzero;stroke:none" />
      <path
         id="path23"
         d="m 28.233063,-2.7657969 -1.992188,-1.9804687 c -0.128906,-0.1289063 -0.140625,-0.140625 -0.222656,-0.140625 -0.105469,0 -0.199219,0.082031 -0.199219,0.1992187 0,0.070312 0.02344,0.082031 0.128906,0.1992188 l 1.992188,1.9921875 -1.992188,2.00390622 c -0.105468,0.1171875 -0.128906,0.12890625 -0.128906,0.19921875 0,0.1171875 0.09375,0.19921875 0.199219,0.19921875 0.08203,0 0.09375,-0.01171875 0.222656,-0.140625 l 1.980469,-1.98046872 2.0625,2.06249997 c 0.01172,0.0117188 0.08203,0.05859375 0.152344,0.05859375 0.117187,0 0.199218,-0.08203125 0.199218,-0.19921875 0,-0.0117188 0,-0.0585938 -0.03516,-0.10546875 -0.01172,-0.0234375 -1.59375,-1.58203122 -2.097656,-2.09765622 l 1.828125,-1.8164063 c 0.04687,-0.058594 0.199219,-0.1875 0.246094,-0.2460937 0.01172,-0.023437 0.05859,-0.058594 0.05859,-0.1289063 0,-0.1171875 -0.08203,-0.1992187 -0.199218,-0.1992187 -0.08203,0 -0.128907,0.035156 -0.234375,0.140625 z m 0,0"
         style="fill:#000000;fill-opacity:1;fill-rule:nonzero;stroke:none" />
      <path
         id="path24"
         d="m 37.244781,-6.3751719 c 0,-0.234375 0,-0.2578125 -0.234375,-0.2578125 -0.609375,0.6328125 -1.488281,0.6328125 -1.804687,0.6328125 v 0.3164063 c 0.199219,0 0.785156,0 1.300781,-0.2578125 v 5.15624997 c 0,0.3515625 -0.03516,0.48046875 -0.925781,0.48046875 h -0.316406 v 0.304687505 c 0.351562,-0.035156255 1.207031,-0.035156255 1.605468,-0.035156255 0.398438,0 1.265625,0 1.617188,0.035156255 V -0.30485938 h -0.316406 c -0.902344,0 -0.925782,-0.1171875 -0.925782,-0.48046875 z M 50.10318,-10.092945 c 0.152343,0 0.339843,0 0.339843,-0.199219 0,-0.199219 -0.1875,-0.199219 -0.328125,-0.199219 h -5.964843 c -0.140625,0 -0.328125,0 -0.328125,0.199219 0,0.199219 0.1875,0.199219 0.339843,0.199219 z m 0.01172,1.9335934 c 0.140625,0 0.328125,0 0.328125,-0.1992187 0,-0.1992188 -0.1875,-0.1992188 -0.339843,-0.1992188 h -5.941407 c -0.152343,0 -0.339843,0 -0.339843,0.1992188 0,0.1992187 0.1875,0.1992187 0.328125,0.1992187 z m 6.574219,-0.3164062 v 0.8671875 c 0,0.3515625 -0.02344,0.46875 -0.761719,0.46875 h -0.210937 v 0.3046875 c 0.410156,-0.035156 0.9375,-0.035156 1.347656,-0.035156 0.421875,0 0.949219,0 1.359375,0.035156 v -0.3046875 h -0.210937 c -0.738282,0 -0.761719,-0.1171875 -0.761719,-0.46875 v -0.8671875 h 0.996094 v -0.3164063 h -0.996094 v -4.5234379 c 0,-0.199218 0,-0.257812 -0.152344,-0.257812 -0.09375,0 -0.117187,0 -0.199219,0.117187 l -3.058593,4.6640629 v 0.3164063 z m 0.05859,-0.3164063 H 54.32193 l 2.425781,-3.7148439 z m 0,0"
         style="fill:#000000;fill-opacity:1;fill-rule:nonzero;stroke:none" />
    </g>
  </g>
</svg>
