<?xml version="1.0" encoding="UTF-8" standalone="no"?>
<!-- Created with Inkscape (http://www.inkscape.org/) -->

<svg
   version="1.1"
   id="svg1"
   width="410.41333"
   height="114.96"
   viewBox="0 0 410.41333 114.96"
   sodipodi:docname="Young-diagram-dimension.pdf"
   xmlns:inkscape="http://www.inkscape.org/namespaces/inkscape"
   xmlns:sodipodi="http://sodipodi.sourceforge.net/DTD/sodipodi-0.dtd"
   xmlns="http://www.w3.org/2000/svg"
   xmlns:svg="http://www.w3.org/2000/svg">
  <defs
     id="defs1" />
  <sodipodi:namedview
     id="namedview1"
     pagecolor="#ffffff"
     bordercolor="#000000"
     borderopacity="0.25"
     inkscape:showpageshadow="2"
     inkscape:pageopacity="0.0"
     inkscape:pagecheckerboard="0"
     inkscape:deskcolor="#d1d1d1">
    <inkscape:page
       x="0"
       y="0"
       inkscape:label="1"
       id="page1"
       width="410.41333"
       height="114.96"
       margin="0"
       bleed="0" />
  </sodipodi:namedview>
  <g
     id="g1"
     inkscape:groupmode="layer"
     inkscape:label="1">
    <path
       id="path1"
       d="m 79.20401,-61.77164 h 23.34276 V -85.11441 H 79.20401 Z"
       style="fill:#f5a623;fill-opacity:0.2;fill-rule:nonzero;stroke:#000000;stroke-width:0.74721;stroke-linecap:butt;stroke-linejoin:miter;stroke-miterlimit:10;stroke-dasharray:none;stroke-opacity:1"
       transform="matrix(1.3333333,0,0,-1.3333333,-100.34933,-81.868)" />
    <path
       id="path2"
       d="m 102.54677,-61.77164 h 23.34276 v -23.34277 h -23.34276 z"
       style="fill:#f5a623;fill-opacity:0.2;fill-rule:nonzero;stroke:#000000;stroke-width:0.74721;stroke-linecap:butt;stroke-linejoin:miter;stroke-miterlimit:10;stroke-dasharray:none;stroke-opacity:1"
       transform="matrix(1.3333333,0,0,-1.3333333,-100.34933,-81.868)" />
    <path
       id="path3"
       d="M 125.88953,-61.77164 H 149.2323 V -85.11441 H 125.88953 Z"
       style="fill:#f5a623;fill-opacity:0.2;fill-rule:nonzero;stroke:#000000;stroke-width:0.74721;stroke-linecap:butt;stroke-linejoin:miter;stroke-miterlimit:10;stroke-dasharray:none;stroke-opacity:1"
       transform="matrix(1.3333333,0,0,-1.3333333,-100.34933,-81.868)" />
    <path
       id="path4"
       d="m 149.2323,-61.77164 h 23.34277 V -85.11441 H 149.2323 Z"
       style="fill:#f5a623;fill-opacity:0.2;fill-rule:nonzero;stroke:#000000;stroke-width:0.74721;stroke-linecap:butt;stroke-linejoin:miter;stroke-miterlimit:10;stroke-dasharray:none;stroke-opacity:1"
       transform="matrix(1.3333333,0,0,-1.3333333,-100.34933,-81.868)" />
    <path
       id="path5"
       d="m 172.57507,-61.77164 h 23.35024 v -23.34277 h -23.35024 z"
       style="fill:#f5a623;fill-opacity:0.2;fill-rule:nonzero;stroke:#000000;stroke-width:0.74721;stroke-linecap:butt;stroke-linejoin:miter;stroke-miterlimit:10;stroke-dasharray:none;stroke-opacity:1"
       transform="matrix(1.3333333,0,0,-1.3333333,-100.34933,-81.868)" />
    <path
       id="path6"
       d="m 195.92531,-61.77164 h 23.34276 v -23.34277 h -23.34276 z"
       style="fill:#f5a623;fill-opacity:0.2;fill-rule:nonzero;stroke:#000000;stroke-width:0.74721;stroke-linecap:butt;stroke-linejoin:miter;stroke-miterlimit:10;stroke-dasharray:none;stroke-opacity:1"
       transform="matrix(1.3333333,0,0,-1.3333333,-100.34933,-81.868)" />
    <path
       id="path7"
       d="m 79.20401,-85.11441 h 23.34276 v -23.34276 H 79.20401 Z"
       style="fill:#f5a623;fill-opacity:0.2;fill-rule:nonzero;stroke:#000000;stroke-width:0.74721;stroke-linecap:butt;stroke-linejoin:miter;stroke-miterlimit:10;stroke-dasharray:none;stroke-opacity:1"
       transform="matrix(1.3333333,0,0,-1.3333333,-100.34933,-81.868)" />
    <path
       id="path8"
       d="m 102.54677,-85.11441 h 23.34276 v -23.34276 h -23.34276 z"
       style="fill:#f5a623;fill-opacity:0.2;fill-rule:nonzero;stroke:#000000;stroke-width:0.74721;stroke-linecap:butt;stroke-linejoin:miter;stroke-miterlimit:10;stroke-dasharray:none;stroke-opacity:1"
       transform="matrix(1.3333333,0,0,-1.3333333,-100.34933,-81.868)" />
    <path
       id="path9"
       d="m 125.88953,-85.11441 h 23.34277 v -23.34276 h -23.34277 z"
       style="fill:#f5a623;fill-opacity:0.2;fill-rule:nonzero;stroke:#000000;stroke-width:0.74721;stroke-linecap:butt;stroke-linejoin:miter;stroke-miterlimit:10;stroke-dasharray:none;stroke-opacity:1"
       transform="matrix(1.3333333,0,0,-1.3333333,-100.34933,-81.868)" />
    <path
       id="path10"
       d="m 149.2323,-85.11441 h 23.34277 v -23.34276 H 149.2323 Z"
       style="fill:#f5a623;fill-opacity:0.2;fill-rule:nonzero;stroke:#000000;stroke-width:0.74721;stroke-linecap:butt;stroke-linejoin:miter;stroke-miterlimit:10;stroke-dasharray:none;stroke-opacity:1"
       transform="matrix(1.3333333,0,0,-1.3333333,-100.34933,-81.868)" />
    <path
       id="path11"
       d="m 242.20734,-61.77164 h 23.34277 v -23.34277 h -23.34277 z"
       style="fill:#f5a623;fill-opacity:0.2;fill-rule:nonzero;stroke:#000000;stroke-width:0.74721;stroke-linecap:butt;stroke-linejoin:miter;stroke-miterlimit:10;stroke-dasharray:none;stroke-opacity:1"
       transform="matrix(1.3333333,0,0,-1.3333333,-100.34933,-81.868)" />
    <path
       id="path12"
       d="m 265.55011,-61.77164 h 23.35023 v -23.34277 h -23.35023 z"
       style="fill:#f5a623;fill-opacity:0.2;fill-rule:nonzero;stroke:#000000;stroke-width:0.74721;stroke-linecap:butt;stroke-linejoin:miter;stroke-miterlimit:10;stroke-dasharray:none;stroke-opacity:1"
       transform="matrix(1.3333333,0,0,-1.3333333,-100.34933,-81.868)" />
    <path
       id="path13"
       d="m 288.90034,-61.77164 h 23.34278 v -23.34277 h -23.34278 z"
       style="fill:#f5a623;fill-opacity:0.2;fill-rule:nonzero;stroke:#000000;stroke-width:0.74721;stroke-linecap:butt;stroke-linejoin:miter;stroke-miterlimit:10;stroke-dasharray:none;stroke-opacity:1"
       transform="matrix(1.3333333,0,0,-1.3333333,-100.34933,-81.868)" />
    <path
       id="path14"
       d="m 312.24312,-61.77164 h 23.34277 v -23.34277 h -23.34277 z"
       style="fill:#f5a623;fill-opacity:0.2;fill-rule:nonzero;stroke:#000000;stroke-width:0.74721;stroke-linecap:butt;stroke-linejoin:miter;stroke-miterlimit:10;stroke-dasharray:none;stroke-opacity:1"
       transform="matrix(1.3333333,0,0,-1.3333333,-100.34933,-81.868)" />
    <path
       id="path15"
       d="m 335.58589,-61.77164 h 23.34276 v -23.34277 h -23.34276 z"
       style="fill:#f5a623;fill-opacity:0.2;fill-rule:nonzero;stroke:#000000;stroke-width:0.74721;stroke-linecap:butt;stroke-linejoin:miter;stroke-miterlimit:10;stroke-dasharray:none;stroke-opacity:1"
       transform="matrix(1.3333333,0,0,-1.3333333,-100.34933,-81.868)" />
    <path
       id="path16"
       d="m 358.92865,-61.77164 h 23.34277 v -23.34277 h -23.34277 z"
       style="fill:#f5a623;fill-opacity:0.2;fill-rule:nonzero;stroke:#000000;stroke-width:0.74721;stroke-linecap:butt;stroke-linejoin:miter;stroke-miterlimit:10;stroke-dasharray:none;stroke-opacity:1"
       transform="matrix(1.3333333,0,0,-1.3333333,-100.34933,-81.868)" />
    <path
       id="path17"
       d="m 242.20734,-85.11441 h 23.34277 v -23.34276 h -23.34277 z"
       style="fill:#f5a623;fill-opacity:0.2;fill-rule:nonzero;stroke:#000000;stroke-width:0.74721;stroke-linecap:butt;stroke-linejoin:miter;stroke-miterlimit:10;stroke-dasharray:none;stroke-opacity:1"
       transform="matrix(1.3333333,0,0,-1.3333333,-100.34933,-81.868)" />
    <path
       id="path18"
       d="m 265.55011,-85.11441 h 23.35023 v -23.34276 h -23.35023 z"
       style="fill:#f5a623;fill-opacity:0.2;fill-rule:nonzero;stroke:#000000;stroke-width:0.74721;stroke-linecap:butt;stroke-linejoin:miter;stroke-miterlimit:10;stroke-dasharray:none;stroke-opacity:1"
       transform="matrix(1.3333333,0,0,-1.3333333,-100.34933,-81.868)" />
    <path
       id="path19"
       d="m 288.90034,-85.11441 h 23.34278 v -23.34276 h -23.34278 z"
       style="fill:#f5a623;fill-opacity:0.2;fill-rule:nonzero;stroke:#000000;stroke-width:0.74721;stroke-linecap:butt;stroke-linejoin:miter;stroke-miterlimit:10;stroke-dasharray:none;stroke-opacity:1"
       transform="matrix(1.3333333,0,0,-1.3333333,-100.34933,-81.868)" />
    <path
       id="path20"
       d="m 312.24312,-85.11441 h 23.34277 v -23.34276 h -23.34277 z"
       style="fill:#f5a623;fill-opacity:0.2;fill-rule:nonzero;stroke:#000000;stroke-width:0.74721;stroke-linecap:butt;stroke-linejoin:miter;stroke-miterlimit:10;stroke-dasharray:none;stroke-opacity:1"
       transform="matrix(1.3333333,0,0,-1.3333333,-100.34933,-81.868)" />
    <path
       id="path21"
       d="m 300.57173,-73.44301 81.75946,-0.4857"
       style="fill:none;stroke:#4a90e2;stroke-width:1.49442;stroke-linecap:butt;stroke-linejoin:miter;stroke-miterlimit:10;stroke-dasharray:none;stroke-opacity:1"
       transform="matrix(1.3333333,0,0,-1.3333333,-100.34933,-81.868)" />
    <path
       id="path22"
       d="m 300.57173,-108.45717 v 35.01416"
       style="fill:none;stroke:#4a90e2;stroke-width:1.49442;stroke-linecap:butt;stroke-linejoin:miter;stroke-miterlimit:10;stroke-dasharray:none;stroke-opacity:1"
       transform="matrix(1.3333333,0,0,-1.3333333,-100.34933,-81.868)" />
    <path
       id="path23"
       d="m 288.90034,-61.77164 h 23.34278 v -23.34277 h -23.34278 z"
       style="fill:#f5a623;fill-opacity:0.5;fill-rule:nonzero;stroke:#000000;stroke-width:0.74721;stroke-linecap:butt;stroke-linejoin:miter;stroke-miterlimit:10;stroke-dasharray:none;stroke-opacity:1"
       transform="matrix(1.3333333,0,0,-1.3333333,-100.34933,-81.868)" />
    <path
       id="path24"
       d="m 4.7569219,-2.8367734 c 0.035156,-0.140625 0.082031,-0.328125 0.5390625,-0.3398438 0.035156,0 0.1289062,-0.011719 0.1289062,-0.140625 0,-0.023437 -0.011719,-0.082031 -0.082031,-0.082031 -0.09375,0 -0.1992188,0.011719 -0.2929688,0.011719 -0.082031,0 -0.1757812,0 -0.2695312,0 -0.1054688,0 -0.1992188,0 -0.2929688,0 -0.09375,0 -0.1992187,-0.011719 -0.2929687,-0.011719 -0.035156,0 -0.1171875,0 -0.1171875,0.140625 0,0.082031 0.070312,0.082031 0.1289062,0.082031 0.328125,0 0.3398438,0.1054688 0.3398438,0.1875 0,0.035156 0,0.070312 -0.011719,0.09375 L 3.9952031,-0.75083594 2.5069219,-3.3172422 c -0.046875,-0.082031 -0.058594,-0.082031 -0.1875,-0.082031 H 1.5577031 c -0.1054687,0 -0.1757812,0 -0.1757812,0.140625 0,0.082031 0.058594,0.082031 0.1757812,0.082031 0.023437,0 0.2226563,0 0.3398438,0.023437 l -0.6445313,2.58984376 c -0.035156,0.140625 -0.082031,0.328125 -0.55078122,0.33984375 -0.0351563,0 -0.1171875,0 -0.1171875,0.140625 0,0.046875 0.0351563,0.0820312525 0.0820313,0.0820312525 0.09375,0 0.19921875,-0.0117187525 0.28125,-0.0117187525 0.09375,0 0.18749992,-0.01171875 0.28124992,-0.01171875 0.1054688,0 0.1992188,0.01171875 0.2929688,0.01171875 0.09375,0 0.1992187,0.0117187525 0.2929687,0.0117187525 0.058594,0 0.1171875,-0.0351562525 0.1171875,-0.1406250025 0,-0.0820313 -0.070312,-0.0820313 -0.1289062,-0.0820313 -0.2460938,-0.0117188 -0.3398438,-0.0703125 -0.3398438,-0.1875 0,-0.0351563 0,-0.0703125 0.011719,-0.1171875 L 2.0967659,-3.024274 3.8194222,-0.09458649 c 0.046875,0.0937500025 0.070312,0.0937500025 0.1289062,0.0937500025 0.1054687,0 0.1054687,-0.0234375025 0.1289062,-0.1289062525 z m 0,0"
       style="fill:#000000;fill-opacity:1;fill-rule:nonzero;stroke:none"
       aria-label="N"
       transform="matrix(1.3333333,0,0,1.3333333,16.884,18.325333)" />
    <g
       id="g24"
       aria-label="N+1"
       transform="matrix(1.3333333,0,0,1.3333333,40.161333,17.772)">
      <path
         id="path25"
         d="m 4.7569297,-2.8348594 c 0.035156,-0.140625 0.082031,-0.328125 0.5390625,-0.3398437 0.035156,0 0.1289062,-0.011719 0.1289062,-0.140625 0,-0.023437 -0.011719,-0.082031 -0.082031,-0.082031 -0.09375,0 -0.1992188,0.011719 -0.2929688,0.011719 -0.082031,0 -0.1757812,0 -0.2695312,0 -0.1054688,0 -0.1992188,0 -0.2929688,0 -0.09375,0 -0.1992187,-0.011719 -0.2929687,-0.011719 -0.035156,0 -0.1171875,0 -0.1171875,0.140625 0,0.082031 0.070312,0.082031 0.1289062,0.082031 0.328125,0 0.3398438,0.1054687 0.3398438,0.1875 0,0.035156 0,0.070312 -0.011719,0.09375 L 3.9952109,-0.74892187 2.5069297,-3.3153281 c -0.046875,-0.082031 -0.058594,-0.082031 -0.1875,-0.082031 H 1.5577109 c -0.1054687,0 -0.1757812,0 -0.1757812,0.140625 0,0.082031 0.058594,0.082031 0.1757812,0.082031 0.023437,0 0.2226563,0 0.3398438,0.023437 l -0.6445313,2.58984373 c -0.035156,0.140625 -0.082031,0.328125 -0.55078121,0.33984375 -0.0351563,0 -0.1171875,0 -0.1171875,0.140625 0,0.046875 0.0351563,0.08203125 0.0820313,0.08203125 0.09375,0 0.19921875,-0.01171875 0.28125,-0.01171875 0.09375,0 0.18749991,-0.01171875 0.28125001,-0.01171875 0.1054687,0 0.1992187,0.01171875 0.2929687,0.01171875 0.09375,0 0.1992188,0.01171875 0.2929688,0.01171875 0.058594,0 0.1171875,-0.03515625 0.1171875,-0.140625 0,-0.0820313 -0.070312,-0.0820313 -0.1289063,-0.0820313 -0.2460937,-0.0117188 -0.3398437,-0.0703125 -0.3398437,-0.1875 0,-0.0351563 0,-0.0703125 0.011719,-0.1171875 L 2.0967737,-3.0223599 3.81943,-0.09267242 c 0.046875,0.09375 0.070312,0.09375 0.1289061,0.09375 0.1054688,0 0.1054688,-0.0234375 0.1289063,-0.12890625 z m 0,0"
         style="fill:#000000;fill-opacity:1;fill-rule:nonzero;stroke:none" />
      <path
         id="path26"
         d="m 10.226656,-1.1004844 h 1.734375 c 0.07031,0 0.199219,0 0.199219,-0.140625 0,-0.140625 -0.128906,-0.140625 -0.199219,-0.140625 h -1.734375 v -1.734375 c 0,-0.070312 0,-0.1992187 -0.140625,-0.1992187 -0.128906,0 -0.128906,0.1289062 -0.128906,0.1992187 v 1.734375 H 8.2110313 c -0.058594,0 -0.1992188,0 -0.1992188,0.140625 0,0.140625 0.140625,0.140625 0.1992188,0.140625 H 9.957125 v 1.73437503 c 0,0.0703125 0,0.19921875 0.128906,0.19921875 0.140625,0 0.140625,-0.12890625 0.140625,-0.19921875 z m 6.029297,-2.0625 c 0,-0.1523437 -0.01172,-0.1523437 -0.175781,-0.1523437 -0.351563,0.3164062 -0.902344,0.3164062 -1.007813,0.3164062 h -0.08203 v 0.2226563 h 0.08203 c 0.117188,0 0.433594,-0.011719 0.726563,-0.140625 v 2.48437498 c 0,0.1640625 0,0.2109375 -0.527344,0.2109375 h -0.246094 v 0.22265625 c 0.269532,-0.0234375 0.714844,-0.0234375 1.007813,-0.0234375 0.28125,0 0.726562,0 0.996094,0.0234375 v -0.22265625 h -0.246094 c -0.527344,0 -0.527344,-0.046875 -0.527344,-0.2109375 z m 0,0"
         style="fill:#000000;fill-opacity:1;fill-rule:nonzero;stroke:none" />
    </g>
    <g
       id="g26"
       aria-label="N+2"
       transform="matrix(1.3333333,0,0,1.3333333,71.284,17.772)">
      <path
         id="path27"
         d="m 4.7586797,-2.8348594 c 0.035156,-0.140625 0.082031,-0.328125 0.5390625,-0.3398437 0.035156,0 0.1289062,-0.011719 0.1289062,-0.140625 0,-0.023437 -0.011719,-0.082031 -0.082031,-0.082031 -0.09375,0 -0.1992188,0.011719 -0.2929688,0.011719 -0.082031,0 -0.1757812,0 -0.2695312,0 -0.1054688,0 -0.1992188,0 -0.2929688,0 -0.09375,0 -0.1992187,-0.011719 -0.2929687,-0.011719 -0.035156,0 -0.1171875,0 -0.1171875,0.140625 0,0.082031 0.070312,0.082031 0.1289062,0.082031 0.328125,0 0.3398438,0.1054687 0.3398438,0.1875 0,0.035156 0,0.070312 -0.011719,0.09375 L 3.9969609,-0.74892187 2.5086797,-3.3153281 c -0.046875,-0.082031 -0.058594,-0.082031 -0.1875,-0.082031 H 1.5594609 c -0.1054687,0 -0.1757812,0 -0.1757812,0.140625 0,0.082031 0.058594,0.082031 0.1757812,0.082031 0.023437,0 0.2226563,0 0.3398438,0.023437 l -0.6445313,2.58984373 c -0.035156,0.140625 -0.082031,0.328125 -0.55078121,0.33984375 -0.0351563,0 -0.1171875,0 -0.1171875,0.140625 0,0.046875 0.0351563,0.08203125 0.0820313,0.08203125 0.09375,0 0.19921875,-0.01171875 0.28125,-0.01171875 0.09375,0 0.18749991,-0.01171875 0.28124991,-0.01171875 0.1054688,0 0.1992188,0.01171875 0.2929688,0.01171875 0.09375,0 0.1992187,0.01171875 0.2929687,0.01171875 0.058594,0 0.1171875,-0.03515625 0.1171875,-0.140625 0,-0.0820313 -0.070312,-0.0820313 -0.1289062,-0.0820313 -0.2460938,-0.0117188 -0.3398438,-0.0703125 -0.3398438,-0.1875 0,-0.0351563 0,-0.0703125 0.011719,-0.1171875 L 2.0985237,-3.0223599 3.82118,-0.09267242 c 0.046875,0.09375 0.070312,0.09375 0.1289062,0.09375 0.1054688,0 0.1054688,-0.0234375 0.1289063,-0.12890625 z m 0,0"
         style="fill:#000000;fill-opacity:1;fill-rule:nonzero;stroke:none" />
      <path
         id="path28"
         d="m 10.225477,-1.1004844 h 1.734375 c 0.07031,0 0.199218,0 0.199218,-0.140625 0,-0.140625 -0.128906,-0.140625 -0.199218,-0.140625 h -1.734375 v -1.734375 c 0,-0.070312 0,-0.1992187 -0.140625,-0.1992187 -0.1289067,0 -0.1289067,0.1289062 -0.1289067,0.1992187 v 1.734375 H 8.2098516 c -0.058594,0 -0.1992188,0 -0.1992188,0.140625 0,0.140625 0.140625,0.140625 0.1992188,0.140625 h 1.7460937 v 1.73437503 c 0,0.0703125 0,0.19921875 0.1289067,0.19921875 0.140625,0 0.140625,-0.12890625 0.140625,-0.19921875 z m 6.978515,0.14062503 h -0.210937 c -0.01172,0.09375 -0.05859,0.3984375 -0.140625,0.45703125 -0.03516,0.0234375 -0.457032,0.0234375 -0.527344,0.0234375 h -0.984375 c 0.328125,-0.24609375 0.703125,-0.515625 0.996094,-0.71484378 0.457031,-0.3164062 0.867187,-0.5976562 0.867187,-1.125 0,-0.6445312 -0.597656,-0.9960937 -1.3125,-0.9960937 -0.667969,0 -1.160156,0.3867187 -1.160156,0.8789062 0,0.2578125 0.210937,0.3046875 0.28125,0.3046875 0.140625,0 0.292969,-0.09375 0.292969,-0.2929687 0,-0.1875 -0.128907,-0.28125 -0.28125,-0.2929688 0.140625,-0.234375 0.433593,-0.375 0.761718,-0.375 0.480469,0 0.890625,0.28125 0.890625,0.7734375 0,0.421875 -0.292968,0.7382813 -0.679687,1.0546875 l -1.207031,1.03125003 c -0.04687,0.046875 -0.05859,0.046875 -0.05859,0.0820313 v 0.15234375 h 2.308594 z m 0,0"
         style="fill:#000000;fill-opacity:1;fill-rule:nonzero;stroke:none" />
    </g>
    <path
       id="path29"
       d="m 1.4421719,-1.2436328 c 0,-0.1640625 -0.140625,-0.3046875 -0.3046875,-0.3046875 -0.16406252,0 -0.30468752,0.140625 -0.30468752,0.3046875 0,0.1640625 0.140625,0.30468749 0.30468752,0.30468749 0.1640625,0 0.3046875,-0.14062499 0.3046875,-0.30468749 z m 3.5009765,0 c 0,-0.1640625 -0.140625,-0.3046875 -0.3046875,-0.3046875 -0.1640625,0 -0.3046875,0.140625 -0.3046875,0.3046875 0,0.1640625 0.140625,0.30468749 0.3046875,0.30468749 0.1640625,0 0.3046875,-0.14062499 0.3046875,-0.30468749 z m 3.5009766,0 c 0,-0.1640625 -0.140625,-0.3046875 -0.3046875,-0.3046875 -0.1640625,0 -0.3046875,0.140625 -0.3046875,0.3046875 0,0.1640625 0.140625,0.30468749 0.3046875,0.30468749 0.1640625,0 0.3046875,-0.14062499 0.3046875,-0.30468749 z m 0,0"
       style="fill:#000000;fill-opacity:1;fill-rule:nonzero;stroke:none"
       aria-label="···"
       transform="matrix(1.3333333,0,0,1.3333333,107.17867,17.693333)" />
    <g
       id="g29"
       aria-label="N−1"
       transform="matrix(1.3333333,0,0,1.3333333,8.852,48.896)">
      <path
         id="path30"
         d="m 4.7574844,-2.8370391 c 0.035156,-0.140625 0.082031,-0.328125 0.5390625,-0.3398437 0.035156,0 0.1289062,-0.011719 0.1289062,-0.140625 0,-0.023437 -0.011719,-0.082031 -0.082031,-0.082031 -0.09375,0 -0.1992188,0.011719 -0.2929688,0.011719 -0.082031,0 -0.1757812,0 -0.2695312,0 -0.1054688,0 -0.1992188,0 -0.2929688,0 -0.09375,0 -0.1992187,-0.011719 -0.2929687,-0.011719 -0.035156,0 -0.1171875,0 -0.1171875,0.140625 0,0.082031 0.070312,0.082031 0.1289062,0.082031 0.328125,0 0.3398438,0.1054687 0.3398438,0.1875 0,0.035156 0,0.070312 -0.011719,0.09375 L 3.9957656,-0.75110156 2.5074844,-3.3175078 c -0.046875,-0.082031 -0.058594,-0.082031 -0.1875,-0.082031 H 1.5582656 c -0.1054687,0 -0.1757812,0 -0.1757812,0.140625 0,0.082031 0.058594,0.082031 0.1757812,0.082031 0.023437,0 0.2226563,0 0.3398438,0.023437 l -0.6445313,2.58984374 c -0.035156,0.140625 -0.082031,0.328125 -0.55078123,0.33984375 -0.0351563,0 -0.1171875,0 -0.1171875,0.140625 0,0.046875 0.0351563,0.08203125 0.0820313,0.08203125 0.09375,0 0.19921875,-0.01171875 0.28125,-0.01171875 0.09375,0 0.18749993,-0.01171875 0.28124993,-0.01171875 0.1054688,0 0.1992188,0.01171875 0.2929688,0.01171875 0.09375,0 0.1992187,0.01171875 0.2929687,0.01171875 0.058594,0 0.1171875,-0.03515625 0.1171875,-0.140625 0,-0.0820313 -0.070312,-0.0820313 -0.1289062,-0.0820313 -0.2460938,-0.0117188 -0.3398438,-0.0703125 -0.3398438,-0.1875 0,-0.0351563 0,-0.0703125 0.011719,-0.1171875 l 0.6210937,-2.49609384 1.7226563,2.92968759 c 0.046875,0.09375 0.070312,0.09375 0.1289062,0.09375 0.1054688,0 0.1054688,-0.0234375 0.1289063,-0.12890625 z m 0,0"
         style="fill:#000000;fill-opacity:1;fill-rule:nonzero;stroke:none" />
      <path
         id="path31"
         d="m 11.914711,-1.1026641 c 0.08203,0 0.210937,0 0.210937,-0.140625 0,-0.140625 -0.128906,-0.140625 -0.210937,-0.140625 H 8.5397109 c -0.082031,0 -0.2109375,0 -0.2109375,0.140625 0,0.140625 0.1289063,0.140625 0.2109375,0.140625 z m 0,0"
         style="fill:#000000;fill-opacity:1;fill-rule:nonzero;stroke:none" />
      <path
         id="path32"
         d="m 16.537758,-3.1651641 c 0,-0.1523437 -0.01172,-0.1523437 -0.175781,-0.1523437 -0.351563,0.3164062 -0.902344,0.3164062 -1.007813,0.3164062 h -0.08203 v 0.2226563 h 0.08203 c 0.117188,0 0.433594,-0.011719 0.726563,-0.140625 v 2.48437499 c 0,0.1640625 0,0.2109375 -0.527344,0.2109375 h -0.246094 v 0.22265625 c 0.269531,-0.0234375 0.714844,-0.0234375 1.007813,-0.0234375 0.28125,0 0.726562,0 0.996093,0.0234375 v -0.22265625 h -0.246093 c -0.527344,0 -0.527344,-0.046875 -0.527344,-0.2109375 z m 0,0"
         style="fill:#000000;fill-opacity:1;fill-rule:nonzero;stroke:none" />
    </g>
    <path
       id="path33"
       d="m 4.7586719,-2.8360234 c 0.035156,-0.140625 0.082031,-0.328125 0.5390625,-0.3398438 0.035156,0 0.1289062,-0.011719 0.1289062,-0.140625 0,-0.023437 -0.011719,-0.082031 -0.082031,-0.082031 -0.09375,0 -0.1992188,0.011719 -0.2929688,0.011719 -0.082031,0 -0.1757812,0 -0.2695312,0 -0.1054688,0 -0.1992188,0 -0.2929688,0 -0.09375,0 -0.1992187,-0.011719 -0.2929687,-0.011719 -0.035156,0 -0.1171875,0 -0.1171875,0.140625 0,0.082031 0.070312,0.082031 0.1289062,0.082031 0.328125,0 0.3398438,0.1054688 0.3398438,0.1875 0,0.035156 0,0.070312 -0.011719,0.09375 L 3.9969531,-0.75008594 2.5086719,-3.3164922 c -0.046875,-0.082031 -0.058594,-0.082031 -0.1875,-0.082031 H 1.5594531 c -0.1054687,0 -0.1757812,0 -0.1757812,0.140625 0,0.082031 0.058594,0.082031 0.1757812,0.082031 0.023437,0 0.2226563,0 0.3398438,0.023437 l -0.6445313,2.58984376 c -0.035156,0.140625 -0.082031,0.328125 -0.55078122,0.33984375 -0.0351563,0 -0.1171875,0 -0.1171875,0.140625 0,0.046875 0.0351563,0.0820312525 0.0820313,0.0820312525 0.09375,0 0.19921875,-0.0117187525 0.28125,-0.0117187525 0.09375,0 0.18749992,-0.01171875 0.28124992,-0.01171875 0.1054688,0 0.1992188,0.01171875 0.2929688,0.01171875 0.09375,0 0.1992187,0.0117187525 0.2929687,0.0117187525 0.058594,0 0.1171875,-0.0351562525 0.1171875,-0.1406250025 0,-0.0820313 -0.070312,-0.0820313 -0.1289062,-0.0820313 -0.2460938,-0.0117188 -0.3398438,-0.0703125 -0.3398438,-0.1875 0,-0.0351563 0,-0.0703125 0.011719,-0.1171875 L 2.0985159,-3.023524 3.8211721,-0.09383649 c 0.046875,0.0937500025 0.070312,0.0937500025 0.1289062,0.0937500025 0.1054688,0 0.1054688,-0.0234375025 0.1289063,-0.1289062525 z m 0,0"
       style="fill:#000000;fill-opacity:1;fill-rule:nonzero;stroke:none"
       aria-label="N"
       transform="matrix(1.3333333,0,0,1.3333333,48.006667,49.449333)" />
    <g
       id="g33"
       aria-label="N+1"
       transform="matrix(1.3333333,0,0,1.3333333,71.284,48.896)">
      <path
         id="path34"
         d="m 4.7586797,-2.8370391 c 0.035156,-0.140625 0.082031,-0.328125 0.5390625,-0.3398437 0.035156,0 0.1289062,-0.011719 0.1289062,-0.140625 0,-0.023437 -0.011719,-0.082031 -0.082031,-0.082031 -0.09375,0 -0.1992188,0.011719 -0.2929688,0.011719 -0.082031,0 -0.1757812,0 -0.2695312,0 -0.1054688,0 -0.1992188,0 -0.2929688,0 -0.09375,0 -0.1992187,-0.011719 -0.2929687,-0.011719 -0.035156,0 -0.1171875,0 -0.1171875,0.140625 0,0.082031 0.070312,0.082031 0.1289062,0.082031 0.328125,0 0.3398438,0.1054687 0.3398438,0.1875 0,0.035156 0,0.070312 -0.011719,0.09375 L 3.9969609,-0.75110156 2.5086797,-3.3175078 c -0.046875,-0.082031 -0.058594,-0.082031 -0.1875,-0.082031 H 1.5594609 c -0.1054687,0 -0.1757812,0 -0.1757812,0.140625 0,0.082031 0.058594,0.082031 0.1757812,0.082031 0.023437,0 0.2226563,0 0.3398438,0.023437 l -0.6445313,2.58984374 c -0.035156,0.140625 -0.082031,0.328125 -0.55078121,0.33984375 -0.0351563,0 -0.1171875,0 -0.1171875,0.140625 0,0.046875 0.0351563,0.08203125 0.0820313,0.08203125 0.09375,0 0.19921875,-0.01171875 0.28125,-0.01171875 0.09375,0 0.18749991,-0.01171875 0.28124991,-0.01171875 0.1054688,0 0.1992188,0.01171875 0.2929688,0.01171875 0.09375,0 0.1992187,0.01171875 0.2929687,0.01171875 0.058594,0 0.1171875,-0.03515625 0.1171875,-0.140625 0,-0.0820313 -0.070312,-0.0820313 -0.1289062,-0.0820313 -0.2460938,-0.0117188 -0.3398438,-0.0703125 -0.3398438,-0.1875 0,-0.0351563 0,-0.0703125 0.011719,-0.1171875 L 2.0985237,-3.0245397 3.82118,-0.09485211 c 0.046875,0.09375 0.070312,0.09375 0.1289062,0.09375 0.1054688,0 0.1054688,-0.0234375 0.1289063,-0.12890625 z m 0,0"
         style="fill:#000000;fill-opacity:1;fill-rule:nonzero;stroke:none" />
      <path
         id="path35"
         d="m 10.225477,-1.1026641 h 1.734375 c 0.07031,0 0.199218,0 0.199218,-0.140625 0,-0.140625 -0.128906,-0.140625 -0.199218,-0.140625 h -1.734375 v -1.734375 c 0,-0.070312 0,-0.1992187 -0.140625,-0.1992187 -0.1289067,0 -0.1289067,0.1289062 -0.1289067,0.1992187 v 1.734375 H 8.2098516 c -0.058594,0 -0.1992188,0 -0.1992188,0.140625 0,0.140625 0.140625,0.140625 0.1992188,0.140625 h 1.7460937 v 1.73437504 c 0,0.0703125 0,0.19921875 0.1289067,0.19921875 0.140625,0 0.140625,-0.12890625 0.140625,-0.19921875 z m 6.029296,-2.0625 c 0,-0.1523437 -0.01172,-0.1523437 -0.175781,-0.1523437 -0.351562,0.3164062 -0.902344,0.3164062 -1.007812,0.3164062 h -0.08203 v 0.2226563 h 0.08203 c 0.117187,0 0.433593,-0.011719 0.726562,-0.140625 v 2.48437499 c 0,0.1640625 0,0.2109375 -0.527344,0.2109375 h -0.246093 v 0.22265625 c 0.269531,-0.0234375 0.714843,-0.0234375 1.007812,-0.0234375 0.28125,0 0.726563,0 0.996094,0.0234375 v -0.22265625 h -0.246094 c -0.527344,0 -0.527344,-0.046875 -0.527344,-0.2109375 z m 0,0"
         style="fill:#000000;fill-opacity:1;fill-rule:nonzero;stroke:none" />
    </g>
    <path
       id="path36"
       d="m 1.4421719,-1.2428828 c 0,-0.1640625 -0.140625,-0.3046875 -0.3046875,-0.3046875 -0.16406252,0 -0.30468752,0.140625 -0.30468752,0.3046875 0,0.1640625 0.140625,0.30468749 0.30468752,0.30468749 0.1640625,0 0.3046875,-0.14062499 0.3046875,-0.30468749 z m 3.5009765,0 c 0,-0.1640625 -0.140625,-0.3046875 -0.3046875,-0.3046875 -0.1640625,0 -0.3046875,0.140625 -0.3046875,0.3046875 0,0.1640625 0.140625,0.30468749 0.3046875,0.30468749 0.1640625,0 0.3046875,-0.14062499 0.3046875,-0.30468749 z m 3.5009766,0 c 0,-0.1640625 -0.140625,-0.3046875 -0.3046875,-0.3046875 -0.1640625,0 -0.3046875,0.140625 -0.3046875,0.3046875 0,0.1640625 0.140625,0.30468749 0.3046875,0.30468749 0.1640625,0 0.3046875,-0.14062499 0.3046875,-0.30468749 z m 0,0"
       style="fill:#000000;fill-opacity:1;fill-rule:nonzero;stroke:none"
       aria-label="···"
       transform="matrix(1.3333333,0,0,1.3333333,107.17867,48.817333)" />
    <g
       id="g36"
       aria-label="dim=&#10;N(N+1)···×(N−1)N(N+1)···"
       transform="matrix(1.3333333,0,0,1.3333333,48.922667,100.86933)">
      <path
         id="path37"
         d="m 3.7845625,-0.54946094 v 0.65625 L 5.2494063,0.00132031 v -0.3046875 c -0.703125,0 -0.7734375,-0.0703125 -0.7734375,-0.5625 V -6.9127422 l -1.4414063,0.1054688 v 0.3164062 c 0.703125,0 0.7851563,0.070312 0.7851563,0.5507813 v 2.15625 C 3.52675,-4.1471172 3.0931563,-4.4049297 2.5540938,-4.4049297 c -1.171875,0 -2.2148438,0.984375 -2.2148438,2.2617188 0,1.26562496 0.9726563,2.24999996 2.109375,2.24999996 0.6445313,0 1.0898438,-0.33984375 1.3359375,-0.65625 z m 0,-2.67187496 v 2.0507812 c 0,0.17578126 0,0.19921876 -0.1054687,0.36328126 -0.3046875,0.48046875 -0.75,0.703125 -1.1835938,0.703125 -0.4453125,0 -0.796875,-0.2578125 -1.0429687,-0.64453125 C 1.1947188,-1.1588359 1.1595625,-1.7213359 1.1595625,-2.1314922 c 0,-0.3632812 0.023437,-0.9609375 0.3164063,-1.4179687 0.2109375,-0.3046875 0.5859375,-0.6328125 1.125,-0.6328125 0.3515625,0 0.7617187,0.1523437 1.078125,0.5976562 0.1054687,0.1640625 0.1054687,0.1875 0.1054687,0.3632813 z m 3.5039063,-1.1835938 -1.3945313,0.1171875 v 0.3046875 c 0.65625,0 0.7382813,0.058594 0.7382813,0.5507813 v 2.67187496 c 0,0.45703125 -0.1054688,0.45703125 -0.7734375,0.45703125 v 0.3046875 c 0.3164062,-0.01171875 0.8554687,-0.03515625 1.1015625,-0.03515625 0.3398437,0 0.6914062,0.0234375 1.03125,0.03515625 v -0.3046875 c -0.65625,0 -0.703125,-0.0585938 -0.703125,-0.4453125 z m 0.046875,-1.734375 c 0,-0.3164062 -0.2460938,-0.5273437 -0.5273438,-0.5273437 -0.3164062,0 -0.5273437,0.2695312 -0.5273437,0.5273437 0,0.2695313 0.2109375,0.5273438 0.5273437,0.5273438 0.28125,0 0.5273438,-0.1992188 0.5273438,-0.5273438 z m 2.0537109,2.71875 v 2.66015626 c 0,0.45703125 -0.1171875,0.45703125 -0.7851563,0.45703125 v 0.3046875 c 0.3515625,-0.01171875 0.8554688,-0.03515625 1.125,-0.03515625 0.2578125,0 0.7851566,0.0234375 1.1132816,0.03515625 v -0.3046875 c -0.65625,0 -0.773438,0 -0.773438,-0.45703125 V -2.5885234 c 0,-1.03125 0.714844,-1.59375 1.347656,-1.59375 0.621094,0 0.738282,0.5390625 0.738282,1.1015625 v 2.32031246 c 0,0.45703125 -0.117188,0.45703125 -0.773438,0.45703125 v 0.3046875 c 0.339844,-0.01171875 0.855469,-0.03515625 1.125,-0.03515625 0.257813,0 0.773438,0.0234375 1.113281,0.03515625 v -0.3046875 c -0.667968,0 -0.785156,0 -0.785156,-0.45703125 V -2.5885234 c 0,-1.03125 0.714844,-1.59375 1.347656,-1.59375 0.632813,0 0.738282,0.5390625 0.738282,1.1015625 v 2.32031246 c 0,0.45703125 -0.105469,0.45703125 -0.773438,0.45703125 v 0.3046875 c 0.351563,-0.01171875 0.855469,-0.03515625 1.125,-0.03515625 0.257813,0 0.773438,0.0234375 1.113281,0.03515625 v -0.3046875 c -0.515625,0 -0.761718,0 -0.773437,-0.3046875 V -2.5064922 c 0,-0.8554687 0,-1.171875 -0.316406,-1.5234375 -0.128907,-0.1757812 -0.46875,-0.375 -1.042969,-0.375 -0.832031,0 -1.277344,0.5976563 -1.441406,0.984375 -0.140625,-0.8671875 -0.878907,-0.984375 -1.324219,-0.984375 -0.726563,0 -1.195313,0.4335938 -1.476563,1.0546875 v -1.0546875 l -1.4062496,0.1171875 v 0.3046875 c 0.703125,0 0.7851563,0.070312 0.7851563,0.5625 z m 16.8017583,0.1640625 c 0.152343,0 0.339843,0 0.339843,-0.1992187 0,-0.1992188 -0.1875,-0.1992188 -0.328125,-0.1992188 h -5.964843 c -0.140625,0 -0.328125,0 -0.328125,0.1992188 0,0.1992187 0.1875,0.1992187 0.339843,0.1992187 z m 0.01172,1.9335938 c 0.140625,0 0.328125,0 0.328125,-0.1992188 0,-0.1992187 -0.1875,-0.1992187 -0.339843,-0.1992187 h -5.941407 c -0.152343,0 -0.339843,0 -0.339843,0.1992187 0,0.1992188 0.1875,0.1992188 0.328125,0.1992188 z m 0,0"
         style="fill:#000000;fill-opacity:1;fill-rule:nonzero;stroke:none" />
      <path
         id="path38"
         d="m 38.618547,-12.493797 c 0.09375,-0.398437 0.269531,-0.714844 1.066406,-0.738281 0.05859,0 0.175781,-0.01172 0.175781,-0.199219 0,-0.01172 0,-0.117187 -0.128906,-0.117187 -0.328125,0 -0.679687,0.03516 -1.007812,0.03516 -0.339844,0 -0.691407,-0.03516 -1.019532,-0.03516 -0.05859,0 -0.175781,0 -0.175781,0.199218 0,0.117188 0.09375,0.117188 0.175781,0.117188 0.574219,0.01172 0.679688,0.210937 0.679688,0.433594 0,0.03516 -0.02344,0.175781 -0.02344,0.210937 l -1.125,4.4296876 -2.203125,-5.1914066 c -0.07031,-0.1875 -0.08203,-0.199218 -0.316406,-0.199218 h -1.335937 c -0.199219,0 -0.28125,0 -0.28125,0.199218 0,0.117188 0.08203,0.117188 0.28125,0.117188 0.04687,0 0.667968,0 0.667968,0.08203 l -1.335937,5.3554689 c -0.09375,0.3984375 -0.269531,0.7148437 -1.066406,0.75 -0.05859,0 -0.175782,0 -0.175782,0.1992187 0,0.070312 0.04687,0.1054688 0.128907,0.1054688 0.316406,0 0.667968,-0.035156 0.996093,-0.035156 0.339844,0 0.703125,0.035156 1.03125,0.035156 0.04687,0 0.175782,0 0.175782,-0.1992188 0,-0.1054687 -0.09375,-0.1054687 -0.199219,-0.1054687 -0.574219,-0.023437 -0.65625,-0.2460938 -0.65625,-0.4453125 0,-0.070312 0.01172,-0.1171875 0.03516,-0.2226563 l 1.324219,-5.2617191 c 0.03516,0.05859 0.03516,0.08203 0.08203,0.175782 l 2.484375,5.8710934 c 0.07031,0.1640625 0.09375,0.1875 0.1875,0.1875 0.105469,0 0.105469,-0.035156 0.164063,-0.2109375 z m 0,0"
         style="fill:#000000;fill-opacity:1;fill-rule:nonzero;stroke:none" />
      <path
         id="path39"
         d="m 43.46718,-4.3492656 c 0,-0.035156 0,-0.046875 -0.164063,-0.2226563 -1.242187,-1.2539062 -1.570312,-3.1289062 -1.570312,-4.6640625 0,-1.7226566 0.386718,-3.4570316 1.605468,-4.7109376 0.128907,-0.117187 0.128907,-0.128906 0.128907,-0.164062 0,-0.07031 -0.03516,-0.105469 -0.09375,-0.105469 -0.105469,0 -0.996094,0.679687 -1.582032,1.945312 -0.515625,1.101563 -0.632812,2.203125 -0.632812,3.0351566 0,0.7851563 0.117187,1.9921875 0.65625,3.1171875 0.597656,1.21875 1.453125,1.875 1.558594,1.875 0.05859,0 0.09375,-0.035156 0.09375,-0.1054687 z m 0,0"
         style="fill:#000000;fill-opacity:1;fill-rule:nonzero;stroke:none" />
      <path
         id="path40"
         d="m 51.582414,-12.493797 c 0.09375,-0.398437 0.269531,-0.714844 1.066406,-0.738281 0.05859,0 0.175782,-0.01172 0.175782,-0.199219 0,-0.01172 0,-0.117187 -0.128907,-0.117187 -0.328125,0 -0.679687,0.03516 -1.007812,0.03516 -0.339844,0 -0.691406,-0.03516 -1.019531,-0.03516 -0.05859,0 -0.175782,0 -0.175782,0.199218 0,0.117188 0.09375,0.117188 0.175782,0.117188 0.574218,0.01172 0.679687,0.210937 0.679687,0.433594 0,0.03516 -0.02344,0.175781 -0.02344,0.210937 l -1.125,4.4296876 -2.203125,-5.1914066 c -0.07031,-0.1875 -0.08203,-0.199218 -0.316407,-0.199218 H 46.34413 c -0.199219,0 -0.28125,0 -0.28125,0.199218 0,0.117188 0.08203,0.117188 0.28125,0.117188 0.04687,0 0.667969,0 0.667969,0.08203 l -1.335938,5.3554689 c -0.09375,0.3984375 -0.269531,0.7148437 -1.066406,0.75 -0.05859,0 -0.175781,0 -0.175781,0.1992187 0,0.070312 0.04687,0.1054688 0.128906,0.1054688 0.316406,0 0.667969,-0.035156 0.996094,-0.035156 0.339843,0 0.703125,0.035156 1.03125,0.035156 0.04687,0 0.175781,0 0.175781,-0.1992188 0,-0.1054687 -0.09375,-0.1054687 -0.199219,-0.1054687 -0.574219,-0.023437 -0.65625,-0.2460938 -0.65625,-0.4453125 0,-0.070312 0.01172,-0.1171875 0.03516,-0.2226563 l 1.324219,-5.2617191 c 0.03516,0.05859 0.03516,0.08203 0.08203,0.175782 l 2.484375,5.8710934 c 0.07031,0.1640625 0.09375,0.1875 0.1875,0.1875 0.105469,0 0.105469,-0.035156 0.164063,-0.2109375 z m 0,0"
         style="fill:#000000;fill-opacity:1;fill-rule:nonzero;stroke:none" />
      <path
         id="path41"
         d="m 59.431047,-9.0367656 h 2.777344 c 0.140625,0 0.328125,0 0.328125,-0.1992188 0,-0.1992187 -0.1875,-0.1992187 -0.328125,-0.1992187 h -2.777344 v -2.7890629 c 0,-0.128906 0,-0.328125 -0.199219,-0.328125 -0.199219,0 -0.199219,0.199219 -0.199219,0.328125 v 2.7890629 h -2.789062 c -0.140625,0 -0.328125,0 -0.328125,0.1992187 0,0.1992188 0.1875,0.1992188 0.328125,0.1992188 h 2.789062 v 2.8007812 c 0,0.1289063 0,0.328125 0.199219,0.328125 0.199219,0 0.199219,-0.1992187 0.199219,-0.328125 z m 8.803711,-4.0781254 c 0,-0.234375 0,-0.257812 -0.234375,-0.257812 -0.609375,0.632812 -1.488281,0.632812 -1.804688,0.632812 v 0.316407 c 0.199219,0 0.785157,0 1.300782,-0.257813 v 5.1562501 c 0,0.3515625 -0.03516,0.4804688 -0.925782,0.4804688 h -0.316406 v 0.3046875 c 0.351563,-0.035156 1.207031,-0.035156 1.605469,-0.035156 0.398437,0 1.265625,0 1.617187,0.035156 v -0.3046875 h -0.316406 c -0.902344,0 -0.925781,-0.1171875 -0.925781,-0.4804688 z m 4.933594,3.8789066 c 0,-0.7734376 -0.117188,-1.9804686 -0.65625,-3.1054686 -0.597657,-1.21875 -1.464844,-1.875 -1.558594,-1.875 -0.05859,0 -0.105469,0.04687 -0.105469,0.105469 0,0.03516 0,0.04687 0.199219,0.234375 0.972656,0.984375 1.535156,2.566406 1.535156,4.6406246 0,1.7109375 -0.363281,3.4570313 -1.59375,4.7226563 -0.140625,0.1171875 -0.140625,0.1289062 -0.140625,0.1640625 0,0.058594 0.04687,0.1054687 0.105469,0.1054687 0.09375,0 0.996094,-0.6796875 1.582031,-1.9453125 0.503906,-1.1015625 0.632813,-2.203125 0.632813,-3.046875 z m 0,0"
         style="fill:#000000;fill-opacity:1;fill-rule:nonzero;stroke:none" />
      <path
         id="path42"
         d="m 77.741594,-9.2359844 c 0,-0.28125 -0.234375,-0.5273437 -0.527344,-0.5273437 -0.28125,0 -0.527344,0.2460937 -0.527344,0.5273437 0,0.2929688 0.246094,0.5390625 0.527344,0.5390625 0.292969,0 0.527344,-0.2460937 0.527344,-0.5390625 z m 4.415039,0 c 0,-0.28125 -0.234375,-0.5273437 -0.527344,-0.5273437 -0.28125,0 -0.527344,0.2460937 -0.527344,0.5273437 0,0.2929688 0.246094,0.5390625 0.527344,0.5390625 0.292969,0 0.527344,-0.2460937 0.527344,-0.5390625 z m 4.420898,0 c 0,-0.28125 -0.234375,-0.5273437 -0.527343,-0.5273437 -0.28125,0 -0.527344,0.2460937 -0.527344,0.5273437 0,0.2929688 0.246094,0.5390625 0.527344,0.5390625 0.292968,0 0.527343,-0.2460937 0.527343,-0.5390625 z m 6.94043,-0.2695312 -1.992188,-1.9804684 c -0.128906,-0.128907 -0.140625,-0.140625 -0.222656,-0.140625 -0.105469,0 -0.199219,0.08203 -0.199219,0.199218 0,0.07031 0.02344,0.08203 0.128907,0.199219 l 1.992187,1.9921876 -1.992187,2.0039063 c -0.105469,0.1171875 -0.128907,0.1289062 -0.128907,0.1992187 0,0.1171875 0.09375,0.1992188 0.199219,0.1992188 0.08203,0 0.09375,-0.011719 0.222656,-0.140625 l 1.980469,-1.9804688 2.0625,2.0625 c 0.01172,0.011719 0.08203,0.058594 0.152344,0.058594 0.117187,0 0.199219,-0.082031 0.199219,-0.1992188 0,-0.011719 0,-0.058594 -0.03516,-0.1054687 -0.01172,-0.023437 -1.59375,-1.5820313 -2.097656,-2.0976563 l 1.828125,-1.8164068 c 0.04687,-0.05859 0.199219,-0.1875 0.246094,-0.246093 0.01172,-0.02344 0.05859,-0.05859 0.05859,-0.128907 0,-0.117187 -0.08203,-0.199218 -0.199219,-0.199218 -0.08203,0 -0.128906,0.03516 -0.234375,0.140625 z m 0,0"
         style="fill:#000000;fill-opacity:1;fill-rule:nonzero;stroke:none" />
      <path
         id="path43"
         d="m 102.92519,-4.3492656 c 0,-0.035156 0,-0.046875 -0.16406,-0.2226563 -1.24219,-1.2539062 -1.57032,-3.1289062 -1.57032,-4.6640625 0,-1.7226566 0.38672,-3.4570316 1.60547,-4.7109376 0.12891,-0.117187 0.12891,-0.128906 0.12891,-0.164062 0,-0.07031 -0.0352,-0.105469 -0.0937,-0.105469 -0.10547,0 -0.9961,0.679687 -1.58203,1.945312 -0.51563,1.101563 -0.63282,2.203125 -0.63282,3.0351566 0,0.7851563 0.11719,1.9921875 0.65625,3.1171875 0.59766,1.21875 1.45313,1.875 1.5586,1.875 0.0586,0 0.0937,-0.035156 0.0937,-0.1054687 z m 0,0"
         style="fill:#000000;fill-opacity:1;fill-rule:nonzero;stroke:none" />
      <path
         id="path44"
         d="m 111.04042,-12.493797 c 0.0937,-0.398437 0.26953,-0.714844 1.06641,-0.738281 0.0586,0 0.17578,-0.01172 0.17578,-0.199219 0,-0.01172 0,-0.117187 -0.12891,-0.117187 -0.32812,0 -0.67968,0.03516 -1.00781,0.03516 -0.33984,0 -0.69141,-0.03516 -1.01953,-0.03516 -0.0586,0 -0.17578,0 -0.17578,0.199218 0,0.117188 0.0937,0.117188 0.17578,0.117188 0.57422,0.01172 0.67969,0.210937 0.67969,0.433594 0,0.03516 -0.0234,0.175781 -0.0234,0.210937 l -1.125,4.4296876 -2.20313,-5.1914066 c -0.0703,-0.1875 -0.082,-0.199218 -0.3164,-0.199218 h -1.33594 c -0.19922,0 -0.28125,0 -0.28125,0.199218 0,0.117188 0.082,0.117188 0.28125,0.117188 0.0469,0 0.66797,0 0.66797,0.08203 l -1.33594,5.3554689 c -0.0937,0.3984375 -0.26953,0.7148437 -1.0664,0.75 -0.0586,0 -0.17579,0 -0.17579,0.1992187 0,0.070312 0.0469,0.1054688 0.12891,0.1054688 0.31641,0 0.66797,-0.035156 0.99609,-0.035156 0.33985,0 0.70313,0.035156 1.03125,0.035156 0.0469,0 0.17579,0 0.17579,-0.1992188 0,-0.1054687 -0.0937,-0.1054687 -0.19922,-0.1054687 -0.57422,-0.023437 -0.65625,-0.2460938 -0.65625,-0.4453125 0,-0.070312 0.0117,-0.1171875 0.0352,-0.2226563 l 1.32422,-5.2617191 c 0.0352,0.05859 0.0352,0.08203 0.082,0.175782 l 2.48438,5.8710934 c 0.0703,0.1640625 0.0937,0.1875 0.1875,0.1875 0.10547,0 0.10547,-0.035156 0.16406,-0.2109375 z m 0,0"
         style="fill:#000000;fill-opacity:1;fill-rule:nonzero;stroke:none" />
      <path
         id="path45"
         d="m 121.37343,-9.0367656 c 0.17578,0 0.35156,0 0.35156,-0.1992188 0,-0.1992187 -0.17578,-0.1992187 -0.35156,-0.1992187 h -5.39063 c -0.16406,0 -0.33984,0 -0.33984,0.1992187 0,0.1992188 0.17578,0.1992188 0.33984,0.1992188 z m 0,0"
         style="fill:#000000;fill-opacity:1;fill-rule:nonzero;stroke:none" />
      <path
         id="path46"
         d="m 127.70155,-13.114891 c 0,-0.234375 0,-0.257812 -0.23437,-0.257812 -0.60938,0.632812 -1.48828,0.632812 -1.80469,0.632812 v 0.316407 c 0.19922,0 0.78516,0 1.30078,-0.257813 v 5.1562501 c 0,0.3515625 -0.0351,0.4804688 -0.92578,0.4804688 h -0.3164 v 0.3046875 c 0.35156,-0.035156 1.20703,-0.035156 1.60546,-0.035156 0.39844,0 1.26563,0 1.61719,0.035156 v -0.3046875 h -0.3164 c -0.90235,0 -0.92579,-0.1171875 -0.92579,-0.4804688 z m 4.93653,3.8789066 c 0,-0.7734376 -0.11719,-1.9804686 -0.65625,-3.1054686 -0.59766,-1.21875 -1.46485,-1.875 -1.5586,-1.875 -0.0586,0 -0.10546,0.04687 -0.10546,0.105469 0,0.03516 0,0.04687 0.19921,0.234375 0.97266,0.984375 1.53516,2.566406 1.53516,4.6406246 0,1.7109375 -0.36328,3.4570313 -1.59375,4.7226563 -0.14062,0.1171875 -0.14062,0.1289062 -0.14062,0.1640625 0,0.058594 0.0469,0.1054687 0.10546,0.1054687 0.0937,0 0.9961,-0.6796875 1.58204,-1.9453125 0.5039,-1.1015625 0.63281,-2.203125 0.63281,-3.046875 z m 0,0"
         style="fill:#000000;fill-opacity:1;fill-rule:nonzero;stroke:none" />
      <path
         id="path47"
         d="m 141.16347,-12.493797 c 0.0937,-0.398437 0.26953,-0.714844 1.0664,-0.738281 0.0586,0 0.17579,-0.01172 0.17579,-0.199219 0,-0.01172 0,-0.117187 -0.12891,-0.117187 -0.32813,0 -0.67969,0.03516 -1.00781,0.03516 -0.33985,0 -0.69141,-0.03516 -1.01953,-0.03516 -0.0586,0 -0.17579,0 -0.17579,0.199218 0,0.117188 0.0937,0.117188 0.17579,0.117188 0.57421,0.01172 0.67968,0.210937 0.67968,0.433594 0,0.03516 -0.0234,0.175781 -0.0234,0.210937 l -1.125,4.4296876 -2.20313,-5.1914066 c -0.0703,-0.1875 -0.082,-0.199218 -0.31641,-0.199218 h -1.33593 c -0.19922,0 -0.28125,0 -0.28125,0.199218 0,0.117188 0.082,0.117188 0.28125,0.117188 0.0469,0 0.66797,0 0.66797,0.08203 l -1.33594,5.3554689 c -0.0937,0.3984375 -0.26953,0.7148437 -1.06641,0.75 -0.0586,0 -0.17578,0 -0.17578,0.1992187 0,0.070312 0.0469,0.1054688 0.12891,0.1054688 0.3164,0 0.66797,-0.035156 0.99609,-0.035156 0.33984,0 0.70313,0.035156 1.03125,0.035156 0.0469,0 0.17578,0 0.17578,-0.1992188 0,-0.1054687 -0.0937,-0.1054687 -0.19922,-0.1054687 -0.57422,-0.023437 -0.65625,-0.2460938 -0.65625,-0.4453125 0,-0.070312 0.0117,-0.1171875 0.0352,-0.2226563 l 1.32422,-5.2617191 c 0.0352,0.05859 0.0352,0.08203 0.082,0.175782 l 2.48437,5.8710934 c 0.0703,0.1640625 0.0937,0.1875 0.1875,0.1875 0.10547,0 0.10547,-0.035156 0.16407,-0.2109375 z m 0,0"
         style="fill:#000000;fill-opacity:1;fill-rule:nonzero;stroke:none" />
      <path
         id="path48"
         d="m 146.0121,-4.3492656 c 0,-0.035156 0,-0.046875 -0.16406,-0.2226563 -1.24219,-1.2539062 -1.57031,-3.1289062 -1.57031,-4.6640625 0,-1.7226566 0.38672,-3.4570316 1.60547,-4.7109376 0.1289,-0.117187 0.1289,-0.128906 0.1289,-0.164062 0,-0.07031 -0.0352,-0.105469 -0.0937,-0.105469 -0.10547,0 -0.99609,0.679687 -1.58203,1.945312 -0.51562,1.101563 -0.63281,2.203125 -0.63281,3.0351566 0,0.7851563 0.11719,1.9921875 0.65625,3.1171875 0.59765,1.21875 1.45312,1.875 1.55859,1.875 0.0586,0 0.0937,-0.035156 0.0937,-0.1054687 z m 0,0"
         style="fill:#000000;fill-opacity:1;fill-rule:nonzero;stroke:none" />
      <path
         id="path49"
         d="m 154.13027,-12.493797 c 0.0937,-0.398437 0.26953,-0.714844 1.0664,-0.738281 0.0586,0 0.17578,-0.01172 0.17578,-0.199219 0,-0.01172 0,-0.117187 -0.1289,-0.117187 -0.32813,0 -0.67969,0.03516 -1.00782,0.03516 -0.33984,0 -0.6914,-0.03516 -1.01953,-0.03516 -0.0586,0 -0.17578,0 -0.17578,0.199218 0,0.117188 0.0937,0.117188 0.17578,0.117188 0.57422,0.01172 0.67969,0.210937 0.67969,0.433594 0,0.03516 -0.0234,0.175781 -0.0234,0.210937 l -1.125,4.4296876 -2.20312,-5.1914066 c -0.0703,-0.1875 -0.082,-0.199218 -0.31641,-0.199218 h -1.33594 c -0.19921,0 -0.28125,0 -0.28125,0.199218 0,0.117188 0.082,0.117188 0.28125,0.117188 0.0469,0 0.66797,0 0.66797,0.08203 l -1.33593,5.3554689 c -0.0937,0.3984375 -0.26954,0.7148437 -1.06641,0.75 -0.0586,0 -0.17578,0 -0.17578,0.1992187 0,0.070312 0.0469,0.1054688 0.1289,0.1054688 0.31641,0 0.66797,-0.035156 0.9961,-0.035156 0.33984,0 0.70312,0.035156 1.03125,0.035156 0.0469,0 0.17578,0 0.17578,-0.1992188 0,-0.1054687 -0.0937,-0.1054687 -0.19922,-0.1054687 -0.57422,-0.023437 -0.65625,-0.2460938 -0.65625,-0.4453125 0,-0.070312 0.0117,-0.1171875 0.0352,-0.2226563 l 1.32422,-5.2617191 c 0.0352,0.05859 0.0352,0.08203 0.082,0.175782 l 2.48437,5.8710934 c 0.0703,0.1640625 0.0937,0.1875 0.1875,0.1875 0.10547,0 0.10547,-0.035156 0.16406,-0.2109375 z m 0,0"
         style="fill:#000000;fill-opacity:1;fill-rule:nonzero;stroke:none" />
      <path
         id="path50"
         d="m 161.97597,-9.0367656 h 2.77734 c 0.14063,0 0.32813,0 0.32813,-0.1992188 0,-0.1992187 -0.1875,-0.1992187 -0.32813,-0.1992187 h -2.77734 v -2.7890629 c 0,-0.128906 0,-0.328125 -0.19922,-0.328125 -0.19922,0 -0.19922,0.199219 -0.19922,0.328125 v 2.7890629 h -2.78906 c -0.14063,0 -0.32813,0 -0.32813,0.1992187 0,0.1992188 0.1875,0.1992188 0.32813,0.1992188 h 2.78906 v 2.8007812 c 0,0.1289063 0,0.328125 0.19922,0.328125 0.19922,0 0.19922,-0.1992187 0.19922,-0.328125 z m 8.80664,-4.0781254 c 0,-0.234375 0,-0.257812 -0.23438,-0.257812 -0.60937,0.632812 -1.48828,0.632812 -1.80468,0.632812 v 0.316407 c 0.19922,0 0.78515,0 1.30078,-0.257813 v 5.1562501 c 0,0.3515625 -0.0352,0.4804688 -0.92578,0.4804688 h -0.31641 v 0.3046875 c 0.35156,-0.035156 1.20703,-0.035156 1.60547,-0.035156 0.39844,0 1.26562,0 1.61719,0.035156 v -0.3046875 h -0.31641 c -0.90234,0 -0.92578,-0.1171875 -0.92578,-0.4804688 z m 4.93359,3.8789066 c 0,-0.7734376 -0.11718,-1.9804686 -0.65625,-3.1054686 -0.59765,-1.21875 -1.46484,-1.875 -1.55859,-1.875 -0.0586,0 -0.10547,0.04687 -0.10547,0.105469 0,0.03516 0,0.04687 0.19922,0.234375 0.97266,0.984375 1.53516,2.566406 1.53516,4.6406246 0,1.7109375 -0.36329,3.4570313 -1.59375,4.7226563 -0.14063,0.1171875 -0.14063,0.1289062 -0.14063,0.1640625 0,0.058594 0.0469,0.1054687 0.10547,0.1054687 0.0937,0 0.99609,-0.6796875 1.58203,-1.9453125 0.50391,-1.1015625 0.63281,-2.203125 0.63281,-3.046875 z m 0,0"
         style="fill:#000000;fill-opacity:1;fill-rule:nonzero;stroke:none" />
      <path
         id="path51"
         d="m 183.60585,-9.2359844 c 0,-0.28125 -0.23437,-0.5273437 -0.52734,-0.5273437 -0.28125,0 -0.52735,0.2460937 -0.52735,0.5273437 0,0.2929688 0.2461,0.5390625 0.52735,0.5390625 0.29297,0 0.52734,-0.2460937 0.52734,-0.5390625 z m 4.41211,0 c 0,-0.28125 -0.23437,-0.5273437 -0.52734,-0.5273437 -0.28125,0 -0.52735,0.2460937 -0.52735,0.5273437 0,0.2929688 0.2461,0.5390625 0.52735,0.5390625 0.29297,0 0.52734,-0.2460937 0.52734,-0.5390625 z m 4.42383,0 c 0,-0.28125 -0.23438,-0.5273437 -0.52734,-0.5273437 -0.28125,0 -0.52735,0.2460937 -0.52735,0.5273437 0,0.2929688 0.2461,0.5390625 0.52735,0.5390625 0.29296,0 0.52734,-0.2460937 0.52734,-0.5390625 z m 0,0"
         style="fill:#000000;fill-opacity:1;fill-rule:nonzero;stroke:none" />
    </g>
    <path
       id="path52"
       d="M -116.179,135.888 H 46.056"
       style="fill:none;stroke:#000000;stroke-width:0.3985;stroke-linecap:butt;stroke-linejoin:miter;stroke-miterlimit:10;stroke-dasharray:none;stroke-opacity:1"
       transform="matrix(1.3333333,0,0,-1.3333333,245.272,278.732)" />
    <g
       id="g52"
       aria-label="∏&#10;□&#10;hooklength(□)"
       transform="matrix(1.3333333,0,0,1.3333333,142.004,100.01867)">
      <path
         id="path53"
         d="M 3.5741484,9.9615859 V 9.5631484 c -1.0195312,0 -1.0195312,-0.4921875 -1.0195312,-0.7851562 V 0.39908594 H 6.8436797 V 8.7779922 c 0,0.2929687 0,0.7851562 -1.03125,0.7851562 V 9.9615859 H 8.8358672 V 9.5631484 c -1.03125,0 -1.03125,-0.4921875 -1.03125,-0.7851562 v -7.59375 c 0,-0.29296876 0,-0.78515626 1.03125,-0.78515626 V 6.484375e-4 H 0.56242969 V 0.39908594 c 1.01953121,0 1.01953121,0.4921875 1.01953121,0.78515626 v 7.59375 c 0,0.2929687 0,0.7851562 -1.01953121,0.7851562 v 0.3984375 z m 0,0"
         style="fill:#000000;fill-opacity:1;fill-rule:nonzero;stroke:none" />
      <path
         id="path54"
         d="m 15.081961,5.4557266 c 0,-0.2226563 -0.02344,-0.2695313 -0.269531,-0.2695313 h -4.582032 c -0.2460933,0 -0.2812496,0.046875 -0.2812496,0.2695313 v 4.7343754 c 0,0.234375 0.046875,0.269531 0.2812496,0.269531 h 4.582032 c 0.246093,0 0.269531,-0.04687 0.269531,-0.28125 z m -4.78125,0.070312 h 4.441406 v 4.5937504 h -4.441406 z m 0,0"
         style="fill:#000000;fill-opacity:1;fill-rule:nonzero;stroke:none" />
      <path
         id="path55"
         d="M 23.126883,7.4713516 V 7.1666641 c -0.515625,0 -0.773438,0 -0.785156,-0.3046875 V 4.9635391 c 0,-0.8554688 0,-1.171875 -0.304688,-1.5234375 -0.140625,-0.1757813 -0.46875,-0.375 -1.042969,-0.375 -0.84375,0 -1.277343,0.5976562 -1.441406,0.9609375 V 0.55728906 l -1.441406,0.10546875 v 0.31640625 c 0.703125,0 0.785156,0.0703125 0.785156,0.55078124 v 5.1796875 c 0,0.4570313 -0.117187,0.4570313 -0.785156,0.4570313 v 0.3046875 l 1.125,-0.035156 1.113281,0.035156 V 7.1666641 c -0.65625,0 -0.773437,0 -0.773437,-0.4570313 v -1.828125 c 0,-1.03125 0.714843,-1.59375 1.347656,-1.59375 0.621094,0 0.738281,0.5390625 0.738281,1.1015625 v 2.3203125 c 0,0.4570313 -0.117187,0.4570313 -0.773437,0.4570313 v 0.3046875 l 1.125,-0.035156 z m 4.892578,-2.1328125 c 0,-1.2773438 -0.996094,-2.3320313 -2.191406,-2.3320313 -1.253907,0 -2.214844,1.0898438 -2.214844,2.3320313 0,1.2890625 1.03125,2.2382812 2.203125,2.2382812 1.207031,0 2.203125,-0.9726562 2.203125,-2.2382812 z m -0.820313,-0.082031 c 0,0.3632813 0,0.9023438 -0.222656,1.3359375 -0.222656,0.4453125 -0.65625,0.7382813 -1.148437,0.7382813 -0.433594,0 -0.867188,-0.2109375 -1.136719,-0.6679688 -0.257813,-0.4335937 -0.257813,-1.0429687 -0.257813,-1.40625 0,-0.3867187 0,-0.9257812 0.246094,-1.359375 0.269531,-0.4570312 0.738281,-0.6679687 1.136719,-0.6679687 0.433594,0 0.867187,0.2226562 1.125,0.6445312 0.257812,0.4335938 0.257812,1.0078125 0.257812,1.3828125 z m 6.082032,0.082031 c 0,-1.2773438 -0.996094,-2.3320313 -2.191407,-2.3320313 -1.253906,0 -2.214843,1.0898438 -2.214843,2.3320313 0,1.2890625 1.03125,2.2382812 2.203125,2.2382812 1.207031,0 2.203125,-0.9726562 2.203125,-2.2382812 z m -0.820313,-0.082031 c 0,0.3632813 0,0.9023438 -0.222656,1.3359375 -0.222656,0.4453125 -0.65625,0.7382813 -1.148438,0.7382813 -0.433593,0 -0.867187,-0.2109375 -1.136718,-0.6679688 -0.257813,-0.4335937 -0.257813,-1.0429687 -0.257813,-1.40625 0,-0.3867187 0,-0.9257812 0.246094,-1.359375 0.269531,-0.4570312 0.738281,-0.6679687 1.136719,-0.6679687 0.433593,0 0.867187,0.2226562 1.125,0.6445312 0.257812,0.4335938 0.257812,1.0078125 0.257812,1.3828125 z m 6.199219,2.2148438 V 7.1666641 c -0.363281,0 -0.585938,0 -0.960938,-0.5273438 L 36.433523,4.8463516 c -0.01172,-0.011719 -0.05859,-0.070312 -0.05859,-0.1054688 0,-0.035156 0.703125,-0.6328125 0.808593,-0.7148437 0.621094,-0.5039063 1.042969,-0.5273438 1.253907,-0.5390625 V 3.1822891 c -0.292969,0.023437 -0.421875,0.023437 -0.703125,0.023437 -0.351563,0 -0.972657,-0.023437 -1.113282,-0.023437 v 0.3046875 c 0.1875,0.011719 0.292969,0.1171875 0.292969,0.2460937 0,0.1992188 -0.140625,0.3164063 -0.222656,0.3867188 l -1.40625,1.21875 V 0.55728906 l -1.429688,0.10546875 v 0.31640625 c 0.691407,0 0.773438,0.0703125 0.773438,0.55078124 v 5.1796875 c 0,0.4570313 -0.105469,0.4570313 -0.773438,0.4570313 v 0.3046875 l 1.078125,-0.035156 1.101563,0.035156 V 7.1666641 c -0.667969,0 -0.773438,0 -0.773438,-0.4570313 V 5.6901016 l 0.632813,-0.5507813 c 0.773437,1.0546875 1.183594,1.6171875 1.183594,1.7929688 0,0.1875 -0.164063,0.234375 -0.351563,0.234375 v 0.3046875 l 1.066406,-0.035156 c 0.292969,0 0.585938,0.011719 0.867188,0.035156 z m 6.035156,0 V 7.1666641 c -0.667969,0 -0.785156,0 -0.785156,-0.4570313 V 0.55728906 l -1.429688,0.10546875 v 0.31640625 c 0.703125,0 0.773438,0.0703125 0.773438,0.55078124 v 5.1796875 c 0,0.4570313 -0.105469,0.4570313 -0.773438,0.4570313 v 0.3046875 l 1.101563,-0.035156 z m 4.362305,-1.1835938 c 0,-0.1054687 -0.08203,-0.1171875 -0.128906,-0.1171875 -0.09375,0 -0.117188,0.058594 -0.128907,0.140625 -0.351562,1.0195313 -1.253906,1.0195313 -1.347656,1.0195313 -0.503906,0 -0.902344,-0.2929688 -1.125,-0.6679688 -0.304687,-0.480469 -0.304687,-1.136719 -0.304687,-1.4882815 h 2.789062 c 0.210938,0 0.246094,0 0.246094,-0.2109375 0,-0.984375 -0.539063,-1.9570313 -1.78125,-1.9570313 -1.160156,0 -2.074219,1.03125 -2.074219,2.2734375 0,1.3359375 1.042969,2.296875 2.191406,2.296875 1.21875,0 1.664063,-1.1015625 1.664063,-1.2890622 z m -0.65625,-1.3242187 h -2.367188 c 0.05859,-1.4882813 0.902344,-1.734375 1.242188,-1.734375 1.019531,0 1.125,1.3476562 1.125,1.734375 z m 6.275391,2.5078125 V 7.1666641 c -0.515625,0 -0.773438,0 -0.785157,-0.3046875 V 4.9635391 c 0,-0.8554688 0,-1.171875 -0.304687,-1.5234375 -0.140625,-0.1757813 -0.46875,-0.375 -1.042969,-0.375 -0.726562,0 -1.195312,0.4335937 -1.476562,1.0546875 V 3.0651016 l -1.40625,0.1171875 v 0.3046875 c 0.703125,0 0.785156,0.070312 0.785156,0.5625 v 2.6601562 c 0,0.4570313 -0.117188,0.4570313 -0.785156,0.4570313 v 0.3046875 l 1.125,-0.035156 1.113281,0.035156 V 7.1666641 c -0.65625,0 -0.773438,0 -0.773438,-0.4570313 v -1.828125 c 0,-1.03125 0.714844,-1.59375 1.347657,-1.59375 0.621093,0 0.738281,0.5390625 0.738281,1.1015625 v 2.3203125 c 0,0.4570313 -0.117188,0.4570313 -0.773438,0.4570313 v 0.3046875 l 1.125,-0.035156 z M 59.71282,3.4518203 c 0,-0.1757812 -0.117187,-0.4921875 -0.503906,-0.4921875 -0.199219,0 -0.632812,0.058594 -1.054687,0.46875 -0.421875,-0.328125 -0.84375,-0.3632812 -1.054688,-0.3632812 -0.925781,0 -1.617187,0.6914062 -1.617187,1.453125 0,0.4453125 0.222656,0.8203125 0.46875,1.03125 -0.128907,0.1523437 -0.304688,0.4804687 -0.304688,0.8203125 0,0.3164062 0.128906,0.6914062 0.433594,0.890625 -0.597656,0.1757812 -0.914063,0.5976562 -0.914063,0.9960937 0,0.7148438 0.984375,1.265625 2.203125,1.265625 1.171875,0 2.203125,-0.5039062 2.203125,-1.2890625 0,-0.3398437 -0.140625,-0.8554687 -0.644531,-1.125 -0.527344,-0.28125 -1.101562,-0.28125 -1.710937,-0.28125 -0.246094,0 -0.679688,0 -0.75,-0.011719 -0.316407,-0.046875 -0.527344,-0.3515625 -0.527344,-0.6679688 0,-0.035156 0,-0.2695312 0.175781,-0.46875 0.386719,0.28125 0.796875,0.3046875 0.984375,0.3046875 0.925781,0 1.605469,-0.6796875 1.605469,-1.453125 0,-0.3632812 -0.152344,-0.7382812 -0.398438,-0.9609375 0.351563,-0.3398437 0.714844,-0.3867187 0.890625,-0.3867187 0,0 0.07031,0 0.105469,0 -0.117187,0.046875 -0.164062,0.1523437 -0.164062,0.2695312 0,0.1757813 0.128906,0.2929688 0.292968,0.2929688 0.09375,0 0.28125,-0.070312 0.28125,-0.2929685 z m -1.746093,1.0664063 c 0,0.2695312 -0.01172,0.5976562 -0.164063,0.84375 -0.08203,0.1171875 -0.304687,0.3984375 -0.703125,0.3984375 -0.867187,0 -0.867187,-0.9960938 -0.867187,-1.2304688 0,-0.2695312 0.01172,-0.5859375 0.152343,-0.8320312 0.08203,-0.1171875 0.316407,-0.3984375 0.714844,-0.3984375 0.867188,0 0.867188,0.9960937 0.867188,1.21875 z m 1.089843,3.7382812 c 0,0.5390625 -0.703125,1.0429688 -1.675781,1.0429688 -1.007812,0 -1.699219,-0.515625 -1.699219,-1.0429688 0,-0.4570312 0.375,-0.8203125 0.820313,-0.8554687 h 0.585937 c 0.855469,0 1.96875,0 1.96875,0.8554687 z m 4.113282,-2.015625 V 5.6666641 h -0.246094 v 0.5507812 c 0,0.7382813 -0.304688,1.1132813 -0.667969,1.1132813 -0.667969,0 -0.667969,-0.9023438 -0.667969,-1.078125 v -2.765625 h 1.429688 V 3.1822891 H 61.58782 V 1.3424453 h -0.246093 c -0.01172,0.8203125 -0.316407,1.8867188 -1.289063,1.921875 v 0.2226563 h 0.84375 v 2.7539062 c 0,1.21875 0.925781,1.3359375 1.289063,1.3359375 0.703125,0 0.984375,-0.703125 0.984375,-1.3359375 z m 5.90332,1.2304688 V 7.1666641 c -0.515625,0 -0.773438,0 -0.785156,-0.3046875 V 4.9635391 c 0,-0.8554688 0,-1.171875 -0.304688,-1.5234375 -0.140625,-0.1757813 -0.46875,-0.375 -1.042969,-0.375 -0.84375,0 -1.277343,0.5976562 -1.441406,0.9609375 V 0.55728906 l -1.441406,0.10546875 v 0.31640625 c 0.703125,0 0.785156,0.0703125 0.785156,0.55078124 v 5.1796875 c 0,0.4570313 -0.117187,0.4570313 -0.785156,0.4570313 v 0.3046875 l 1.125,-0.035156 1.113281,0.035156 V 7.1666641 c -0.65625,0 -0.773437,0 -0.773437,-0.4570313 v -1.828125 c 0,-1.03125 0.714843,-1.59375 1.347656,-1.59375 0.621094,0 0.738281,0.5390625 0.738281,1.1015625 v 2.3203125 c 0,0.4570313 -0.117187,0.4570313 -0.773437,0.4570313 v 0.3046875 l 1.125,-0.035156 z m 0,0"
         style="fill:#000000;fill-opacity:1;fill-rule:nonzero;stroke:none" />
      <path
         id="path56"
         d="m 72.574148,9.8619766 c 0,-0.035156 0,-0.046875 -0.164062,-0.2226563 -1.242188,-1.2539062 -1.570313,-3.1289062 -1.570313,-4.6640625 0,-1.7226562 0.386719,-3.4570312 1.605469,-4.71093749 0.128906,-0.1171875 0.128906,-0.12890625 0.128906,-0.1640625 0,-0.0703125 -0.03516,-0.10546875 -0.09375,-0.10546875 -0.105468,0 -0.996093,0.6796875 -1.582031,1.94531254 -0.515625,1.1015625 -0.632812,2.203125 -0.632812,3.0351562 0,0.7851563 0.117187,1.9921875 0.65625,3.1171875 0.597656,1.21875 1.453125,1.875 1.558593,1.875 0.05859,0 0.09375,-0.035156 0.09375,-0.1054687 z m 0,0"
         style="fill:#000000;fill-opacity:1;fill-rule:nonzero;stroke:none" />
      <path
         id="path57"
         d="m 80.34075,0.97916406 c 0,-0.31640625 -0.03516,-0.3515625 -0.351562,-0.3515625 H 74.0595 c -0.304687,0 -0.339844,0.0351563 -0.339844,0.3515625 V 7.1080703 c 0,0.328125 0.02344,0.3632813 0.351563,0.3632813 h 5.90625 c 0.328125,0 0.363281,-0.035156 0.363281,-0.3515625 z m -6.222656,0.046875 h 5.824219 v 6.046875 h -5.824219 z m 0,0"
         style="fill:#000000;fill-opacity:1;fill-rule:nonzero;stroke:none" />
      <path
         id="path58"
         d="m 83.788992,4.9752578 c 0,-0.7734375 -0.117187,-1.9804687 -0.65625,-3.1054687 -0.597656,-1.21875004 -1.464844,-1.87500004 -1.558594,-1.87500004 -0.05859,0 -0.105468,0.046875 -0.105468,0.10546875 0,0.0351563 0,0.046875 0.199218,0.234375 0.972657,0.98437499 1.535157,2.56640629 1.535157,4.64062499 0,1.7109375 -0.363282,3.4570313 -1.59375,4.7226563 -0.140625,0.1171875 -0.140625,0.1289062 -0.140625,0.1640625 0,0.058594 0.04687,0.1054687 0.105468,0.1054687 0.09375,0 0.996094,-0.6796875 1.582032,-1.9453125 0.503906,-1.1015625 0.632812,-2.203125 0.632812,-3.046875 z m 0,0"
         style="fill:#000000;fill-opacity:1;fill-rule:nonzero;stroke:none" />
    </g>
  </g>
</svg>
