<?xml version="1.0" encoding="UTF-8" standalone="no"?>
<!-- Created with Inkscape (http://www.inkscape.org/) -->

<svg
   version="1.1"
   id="svg1"
   width="299.01334"
   height="156.01334"
   viewBox="0 0 299.01334 156.01334"
   sodipodi:docname="3-tensor-3bar-decomposition-2.pdf"
   xmlns:inkscape="http://www.inkscape.org/namespaces/inkscape"
   xmlns:sodipodi="http://sodipodi.sourceforge.net/DTD/sodipodi-0.dtd"
   xmlns="http://www.w3.org/2000/svg"
   xmlns:svg="http://www.w3.org/2000/svg">
  <defs
     id="defs1" />
  <sodipodi:namedview
     id="namedview1"
     pagecolor="#ffffff"
     bordercolor="#000000"
     borderopacity="0.25"
     inkscape:showpageshadow="2"
     inkscape:pageopacity="0.0"
     inkscape:pagecheckerboard="0"
     inkscape:deskcolor="#d1d1d1">
    <inkscape:page
       x="0"
       y="0"
       inkscape:label="1"
       id="page1"
       width="299.01334"
       height="156.01334"
       margin="0"
       bleed="0" />
  </sodipodi:namedview>
  <g
     id="g1"
     inkscape:groupmode="layer"
     inkscape:label="1">
    <path
       id="path1"
       d="m 101.79956,-68.92242 h 24.65785"
       style="fill:none;stroke:#000000;stroke-width:0.74721;stroke-linecap:butt;stroke-linejoin:miter;stroke-miterlimit:10;stroke-dasharray:none;stroke-opacity:1"
       transform="matrix(1.3333333,0,0,-1.3333333,-18.989333,-27.790667)" />
    <path
       id="path2"
       d="m 122.02647,-72.12793 6.67257,3.20551 -6.67257,3.2055 z"
       style="fill:#000000;fill-opacity:1;fill-rule:nonzero;stroke:#000000;stroke-width:0.0797;stroke-linecap:butt;stroke-linejoin:miter;stroke-miterlimit:10;stroke-dasharray:none;stroke-opacity:0"
       transform="matrix(1.3333333,0,0,-1.3333333,-18.989333,-27.790667)" />
    <path
       id="path3"
       d="m 141.96945,-45.57967 h 23.34276 v -23.34275 h -23.34276 z"
       style="fill:#f5a623;fill-opacity:1;fill-rule:nonzero;stroke:#000000;stroke-width:0.74721;stroke-linecap:butt;stroke-linejoin:miter;stroke-miterlimit:10;stroke-dasharray:none;stroke-opacity:1"
       transform="matrix(1.3333333,0,0,-1.3333333,-18.989333,-27.790667)" />
    <path
       id="path4"
       d="m 141.96945,-68.92242 h 23.34276 v -23.34276 h -23.34276 z"
       style="fill:#f5a623;fill-opacity:0.2;fill-rule:nonzero;stroke:#000000;stroke-width:0.74721;stroke-linecap:butt;stroke-linejoin:miter;stroke-miterlimit:10;stroke-dasharray:none;stroke-opacity:1"
       transform="matrix(1.3333333,0,0,-1.3333333,-18.989333,-27.790667)" />
    <path
       id="path5"
       d="m 191.44206,-45.57967 h 23.34276 v -23.34275 h -23.34276 z"
       style="fill:#f5a623;fill-opacity:1;fill-rule:nonzero;stroke:#000000;stroke-width:0.74721;stroke-linecap:butt;stroke-linejoin:miter;stroke-miterlimit:10;stroke-dasharray:none;stroke-opacity:1"
       transform="matrix(1.3333333,0,0,-1.3333333,-18.989333,-27.790667)" />
    <path
       id="path6"
       d="M 214.78482,-45.57967 H 238.1276 V -68.92242 H 214.78482 Z"
       style="fill:#f5a623;fill-opacity:0.2;fill-rule:nonzero;stroke:#000000;stroke-width:0.74721;stroke-linecap:butt;stroke-linejoin:miter;stroke-miterlimit:10;stroke-dasharray:none;stroke-opacity:1"
       transform="matrix(1.3333333,0,0,-1.3333333,-18.989333,-27.790667)" />
    <path
       id="path7"
       d="m 141.96945,-92.26518 h 23.34276 v -23.34278 h -23.34276 z"
       style="fill:#f5a623;fill-opacity:0.2;fill-rule:nonzero;stroke:#000000;stroke-width:0.74721;stroke-linecap:butt;stroke-linejoin:miter;stroke-miterlimit:10;stroke-dasharray:none;stroke-opacity:1"
       transform="matrix(1.3333333,0,0,-1.3333333,-18.989333,-27.790667)" />
    <path
       id="path8"
       d="m 191.44206,-68.92242 h 23.34276 v -23.34276 h -23.34276 z"
       style="fill:#f5a623;fill-opacity:0.2;fill-rule:nonzero;stroke:#000000;stroke-width:0.74721;stroke-linecap:butt;stroke-linejoin:miter;stroke-miterlimit:10;stroke-dasharray:none;stroke-opacity:1"
       transform="matrix(1.3333333,0,0,-1.3333333,-18.989333,-27.790667)" />
    <path
       id="path9"
       d="M 17.93298,-45.57967 H 41.27574 V -68.92242 H 17.93298 Z"
       style="fill:#f5a623;fill-opacity:1;fill-rule:nonzero;stroke:#000000;stroke-width:0.74721;stroke-linecap:butt;stroke-linejoin:miter;stroke-miterlimit:10;stroke-dasharray:none;stroke-opacity:1"
       transform="matrix(1.3333333,0,0,-1.3333333,-18.989333,-27.790667)" />
    <path
       id="path10"
       d="M 64.25986,-45.57967 H 87.60262 V -68.92242 H 64.25986 Z"
       style="fill:#f5a623;fill-opacity:0.2;fill-rule:nonzero;stroke:#000000;stroke-width:0.74721;stroke-linecap:butt;stroke-linejoin:miter;stroke-miterlimit:10;stroke-dasharray:none;stroke-opacity:1"
       transform="matrix(1.3333333,0,0,-1.3333333,-18.989333,-27.790667)" />
    <path
       id="path11"
       d="M 64.25986,-68.92242 H 87.60262 V -92.26518 H 64.25986 Z"
       style="fill:#f5a623;fill-opacity:0.2;fill-rule:nonzero;stroke:#000000;stroke-width:0.74721;stroke-linecap:butt;stroke-linejoin:miter;stroke-miterlimit:10;stroke-dasharray:none;stroke-opacity:1"
       transform="matrix(1.3333333,0,0,-1.3333333,-18.989333,-27.790667)" />
    <path
       id="path12"
       d="m 2.9289141,-6.3740859 c 0,-0.234375 0,-0.2578125 -0.234375,-0.2578125 -0.609375,0.6328125 -1.4882813,0.6328125 -1.80468754,0.6328125 v 0.3164062 c 0.19921874,0 0.78515624,0 1.30078124,-0.2578125 v 5.15625001 c 0,0.3515625 -0.035156,0.48046875 -0.9257812,0.48046875 H 0.94844531 V 9.140625e-4 C 1.3000078,-0.03424219 2.1554766,-0.03424219 2.5539141,-0.03424219 c 0.3984375,0 1.265625,0 1.6171875,0.0351562525 V -0.30377344 H 3.8546953 c -0.9023437,0 -0.9257812,-0.1171875 -0.9257812,-0.48046875 z m 0,0"
       style="fill:#000000;fill-opacity:1;fill-rule:nonzero;stroke:none"
       aria-label="1"
       transform="matrix(1.3333333,0,0,1.3333333,182.544,83.948)" />
    <path
       id="path13"
       d="m 2.9302969,-6.3748359 c 0,-0.234375 0,-0.2578125 -0.234375,-0.2578125 -0.609375,0.6328125 -1.4882813,0.6328125 -1.80468752,0.6328125 v 0.3164062 c 0.19921872,0 0.78515622,0 1.30078122,-0.2578125 v 5.15625001 c 0,0.3515625 -0.035156,0.48046875 -0.9257812,0.48046875 H 0.94982813 V 1.640625e-4 C 1.3013906,-0.03499219 2.1568594,-0.03499219 2.5552969,-0.03499219 c 0.3984375,0 1.265625,0 1.6171875,0.0351562525 V -0.30452344 H 3.8560781 c -0.9023437,0 -0.9257812,-0.1171875 -0.9257812,-0.48046875 z m 0,0"
       style="fill:#000000;fill-opacity:1;fill-rule:nonzero;stroke:none"
       aria-label="1"
       transform="matrix(1.3333333,0,0,1.3333333,279.632,52.824)" />
    <path
       id="path14"
       d="M 1.2648516,-0.76298437 2.3195391,-1.7942344 c 1.5585937,-1.3710937 2.15625,-1.9101562 2.15625,-2.90625 0,-1.1367187 -0.9023438,-1.9335937 -2.1210938,-1.9335937 -1.125,0 -1.85156249,0.9140625 -1.85156249,1.8046875 0,0.5507812 0.4921875,0.5507812 0.52734379,0.5507812 0.1640625,0 0.515625,-0.1171875 0.515625,-0.5273437 0,-0.2578125 -0.1875,-0.515625 -0.5273438,-0.515625 -0.0820312,0 -0.10546874,0 -0.12890624,0.011719 0.22265624,-0.6445312 0.76171874,-1.0195312 1.33593754,-1.0195312 0.9140625,0 1.3359375,0.8085937 1.3359375,1.6289062 0,0.796875 -0.4921875,1.5820313 -1.0429688,2.203125 L 0.60860156,-0.36454687 C 0.50313281,-0.25907812 0.50313281,-0.23564062 0.50313281,-0.00126562 H 4.1945391 l 0.28125,-1.73437498 H 4.2179766 c -0.046875,0.3046875 -0.1171875,0.73828123 -0.2109375,0.89062498 -0.070312,0.0820313 -0.7265625,0.0820313 -0.9492188,0.0820313 z m 0,0"
       style="fill:#000000;fill-opacity:1;fill-rule:nonzero;stroke:none"
       aria-label="2"
       transform="matrix(1.3333333,0,0,1.3333333,182.544,115.072)" />
    <path
       id="path15"
       d="M 1.2654844,-0.76080469 2.3201719,-1.7920547 c 1.5585937,-1.3710937 2.15625,-1.9101562 2.15625,-2.90625 0,-1.1367187 -0.9023438,-1.9335937 -2.1210938,-1.9335937 -1.125,0 -1.85156247,0.9140625 -1.85156247,1.8046875 0,0.5507812 0.4921875,0.5507812 0.52734377,0.5507812 0.1640625,0 0.515625,-0.1171875 0.515625,-0.5273437 0,-0.2578125 -0.1875,-0.515625 -0.5273438,-0.515625 -0.0820312,0 -0.10546872,0 -0.12890622,0.011719 0.22265622,-0.6445312 0.76171872,-1.0195312 1.33593752,-1.0195312 0.9140625,0 1.3359375,0.8085937 1.3359375,1.6289062 0,0.796875 -0.4921875,1.5820313 -1.0429688,2.203125 L 0.60923438,-0.36236719 C 0.50376563,-0.25689844 0.50376563,-0.23346094 0.50376563,9.140625e-4 H 4.1951719 L 4.4764219,-1.7334609 H 4.2186094 c -0.046875,0.3046875 -0.1171875,0.73828121 -0.2109375,0.89062496 -0.070312,0.0820313 -0.7265625,0.0820313 -0.9492188,0.0820313 z m 0,0"
       style="fill:#000000;fill-opacity:1;fill-rule:nonzero;stroke:none"
       aria-label="2"
       transform="matrix(1.3333333,0,0,1.3333333,248.508,83.948)" />
    <path
       id="path16"
       d="m 7.1955703,-2.4957266 c 0,-1.828125 -1.5,-3.3164062 -3.3164062,-3.3164062 -1.8515625,0 -3.32812504,1.5117187 -3.32812504,3.3164062 0,1.83984379 1.48828124,3.32812504 3.31640624,3.32812504 1.8515625,0 3.328125,-1.51171875 3.328125,-3.32812504 z M 0.79713281,-2.6246328 C 0.90260156,-4.2886953 2.1916641,-5.4840078 3.7502578,-5.5543203 v 2.9296875 z M 3.9963516,-5.5543203 c 1.5585937,0.070312 2.8476562,1.265625 2.9414062,2.9296875 H 3.9963516 Z M 3.7502578,0.57458594 C 2.2033828,0.50427344 0.90260156,-0.66760156 0.79713281,-2.3668203 H 3.7502578 Z m 3.1875,-2.94140624 c -0.09375,1.69921874 -1.40625,2.87109374 -2.9414062,2.94140624 V -2.3668203 Z m 0,0"
       style="fill:#000000;fill-opacity:1;fill-rule:nonzero;stroke:none"
       aria-label="⊕"
       transform="matrix(1.3333333,0,0,1.3333333,210.652,66.534667)" />
    <path
       id="path17"
       d="m 2.9309766,-6.3743516 c 0,-0.234375 0,-0.2578125 -0.234375,-0.2578125 -0.609375,0.6328125 -1.4882813,0.6328125 -1.80468754,0.6328125 v 0.3164063 c 0.19921874,0 0.78515624,0 1.30078124,-0.2578125 v 5.15624999 c 0,0.3515625 -0.035156,0.48046875 -0.9257812,0.48046875 H 0.95050781 V 6.484375e-4 C 1.3020703,-0.03450781 2.1575391,-0.03450781 2.5559766,-0.03450781 c 0.3984375,0 1.265625,0 1.6171875,0.0351562475 V -0.30403906 H 3.8567578 c -0.9023437,0 -0.9257812,-0.1171875 -0.9257812,-0.48046875 z m 0,0"
       style="fill:#000000;fill-opacity:1;fill-rule:nonzero;stroke:none"
       aria-label="1"
       transform="matrix(1.3333333,0,0,1.3333333,181.76,155.01867)" />
    <path
       id="path18"
       d="M 1.62975,-4.5462266 C 1.161,-4.8509141 1.1258438,-5.1907578 1.1258438,-5.3548203 c 0,-0.609375 0.6445312,-1.03125 1.359375,-1.03125 0.7265625,0 1.359375,0.515625 1.359375,1.2421875 0,0.5625 -0.3867188,1.0429687 -0.984375,1.3945312 z m 1.453125,0.9375 c 0.7148438,-0.3632812 1.2070313,-0.8789062 1.2070313,-1.5351562 0,-0.9257813 -0.890625,-1.4882813 -1.7929688,-1.4882813 -0.9960937,0 -1.8046875,0.7382813 -1.8046875,1.6640625 0,0.1757813 0.0117188,0.6210938 0.4335938,1.0898438 0.1054687,0.1289062 0.4804687,0.375 0.7265625,0.5390625 -0.5742188,0.2929687 -1.42968755,0.84375 -1.42968755,1.8398437 0,1.05468754 1.00781255,1.72265629 2.06250005,1.72265629 1.125,0 2.0625,-0.83203125 2.0625,-1.89843749 0,-0.3515625 -0.1054688,-0.8085938 -0.4804688,-1.21875 -0.1875,-0.2109375 -0.3515625,-0.3164063 -0.984375,-0.7148438 z m -0.9960937,0.421875 1.21875,0.7734375 c 0.28125,0.1875 0.75,0.4921875 0.75,1.1015625 0,0.73828129 -0.75,1.25390629 -1.5585938,1.25390629 -0.8671875,0 -1.58203125,-0.62109375 -1.58203125,-1.44140629 0,-0.5859375 0.31640625,-1.21875 1.17187505,-1.6875 z m 0,0"
       style="fill:#000000;fill-opacity:1;fill-rule:nonzero;stroke:none"
       aria-label="8"
       transform="matrix(1.3333333,0,0,1.3333333,264.452,155.01867)" />
    <path
       id="path19"
       d="m 3.5040156,-3.5046797 c 0.6914063,-0.2109375 1.4179688,-0.7851562 1.4179688,-1.640625 0,-0.7617187 -0.7617188,-1.3828125 -2.1679688,-1.3828125 -1.1835937,0 -1.95703123,0.6445313 -1.95703123,1.4414063 0,0.421875 0.30468753,0.6914062 0.69140623,0.6914062 0.4453125,0 0.6914063,-0.3164062 0.6914063,-0.6914062 0,-0.5742188 -0.5390625,-0.6796875 -0.5742188,-0.6914063 0.3515625,-0.28125 0.7851563,-0.3632812 1.0898438,-0.3632812 0.8320312,0 0.8554687,0.6445312 0.8554687,0.9726562 0,0.1289063 0,1.4296875 -1.0429687,1.4882813 -0.4101563,0.023437 -0.421875,0.035156 -0.4804688,0.046875 -0.09375,0.011719 -0.1171875,0.1054687 -0.1171875,0.1640625 0,0.1757812 0.1054688,0.1757812 0.28125,0.1757812 h 0.4335938 c 1.0898437,0 1.0898437,0.984375 1.0898437,1.4882813 0,0.46875 0,1.48828121 -1.03125,1.48828121 -0.2578125,0 -0.7851562,-0.046875 -1.2539062,-0.33984375 0.328125,-0.09375 0.5742187,-0.33984375 0.5742187,-0.74999996 0,-0.4453125 -0.3164062,-0.75 -0.7617187,-0.75 -0.41015628,0 -0.76171878,0.2578125 -0.76171878,0.7734375 0,0.89062496 0.96093748,1.48828121 2.24999998,1.48828121 1.78125,0 2.5078125,-0.99609375 2.5078125,-1.89843751 0,-0.5507812 -0.2929687,-1.40625 -1.734375,-1.7109375 z m 0,0"
       style="fill:#000000;fill-opacity:1;fill-rule:nonzero;stroke:none"
       aria-label="3"
       transform="matrix(1.3333333,0,0,1.3333333,15.382667,14.544)" />
    <path
       id="path20"
       d="m -86.242,100.662 h 5.729"
       style="fill:none;stroke:#000000;stroke-width:0.3985;stroke-linecap:butt;stroke-linejoin:miter;stroke-miterlimit:10;stroke-dasharray:none;stroke-opacity:1"
       transform="matrix(1.3333333,0,0,-1.3333333,191.144,137.01067)" />
    <path
       id="path21"
       d="m 3.5050938,-3.5037734 c 0.6914062,-0.2109375 1.4179687,-0.7851563 1.4179687,-1.640625 0,-0.7617188 -0.7617187,-1.3828125 -2.1679687,-1.3828125 -1.1835938,0 -1.9570313,0.6445312 -1.9570313,1.4414062 0,0.421875 0.3046875,0.6914063 0.6914063,0.6914063 0.4453125,0 0.6914062,-0.3164063 0.6914062,-0.6914063 0,-0.5742187 -0.5390625,-0.6796875 -0.5742187,-0.6914062 0.3515625,-0.28125 0.7851562,-0.3632813 1.0898437,-0.3632813 0.8320313,0 0.8554688,0.6445313 0.8554688,0.9726563 0,0.1289062 0,1.4296875 -1.0429688,1.4882812 -0.4101562,0.023437 -0.421875,0.035156 -0.4804687,0.046875 -0.09375,0.011719 -0.1171875,0.1054688 -0.1171875,0.1640625 0,0.1757813 0.1054687,0.1757813 0.28125,0.1757813 h 0.4335937 c 1.0898438,0 1.0898438,0.984375 1.0898438,1.4882812 0,0.46875 0,1.48828126 -1.03125,1.48828126 -0.2578125,0 -0.7851563,-0.046875 -1.2539063,-0.33984375 0.328125,-0.09375 0.5742188,-0.33984375 0.5742188,-0.75000001 0,-0.4453125 -0.3164063,-0.75 -0.7617188,-0.75 -0.41015625,0 -0.76171875,0.2578125 -0.76171875,0.7734375 0,0.89062501 0.96093755,1.48828126 2.25000005,1.48828126 1.78125,0 2.5078125,-0.99609375 2.5078125,-1.89843746 0,-0.5507813 -0.2929688,-1.40625 -1.734375,-1.7109375 z m 0,0"
       style="fill:#000000;fill-opacity:1;fill-rule:nonzero;stroke:none"
       aria-label="3"
       transform="matrix(1.3333333,0,0,1.3333333,76.154667,13.214667)" />
    <path
       id="path22"
       d="m 7.1943906,-2.4967812 c 0,-1.828125 -1.5,-3.3164063 -3.3164062,-3.3164063 -1.8515625,0 -3.32812503,1.5117188 -3.32812503,3.3164063 0,1.8398437 1.48828123,3.32812495 3.31640623,3.32812495 1.8515625,0 3.328125,-1.51171875 3.328125,-3.32812495 z m -5.296875,-2.1328125 c -0.023437,-0.023437 -0.09375,-0.09375 -0.09375,-0.1171875 0,-0.035156 0.8085938,-0.8085938 2.0625,-0.8085938 0.3515625,0 1.265625,0.046875 2.0742188,0.8085938 l -2.0625,2.0859375 z M 1.6045469,-0.41084375 C 0.99517187,-1.0905312 0.79595312,-1.85225 0.79595312,-2.4967812 0.79595312,-3.2585 1.0889219,-3.9850625 1.6045469,-4.571 l 2.0859375,2.0742188 z M 6.1279844,-4.571 c 0.4804687,0.5039063 0.8085937,1.265625 0.8085937,2.0742188 0,0.7734375 -0.28125,1.49999995 -0.796875,2.08593745 L 4.0537656,-2.4967812 Z m -0.28125,4.21875 c 0.023437,0.0234375 0.09375,0.09375 0.09375,0.1171875 0,0.0351563 -0.8085938,0.80859375 -2.0625,0.80859375 -0.3515625,0 -1.265625,-0.046875 -2.0859375,-0.80859375 L 3.8662656,-2.321 Z m 0,0"
       style="fill:#000000;fill-opacity:1;fill-rule:nonzero;stroke:none"
       aria-label="⊗"
       transform="matrix(1.3333333,0,0,1.3333333,44.274667,50.594667)" />
    <path
       id="path23"
       d="m 3.5275391,-6.2107734 c 0,-0.2109375 0,-0.3164063 -0.2578125,-0.3164063 -0.1171875,0 -0.1289063,0 -0.2226563,0.070312 -0.7617187,0.5742188 -1.7929687,0.5742188 -2.0039062,0.5742188 H 0.84394531 v 0.46875 H 1.0431641 c 0.1640625,0 0.7148437,-0.011719 1.3007812,-0.1992188 v 5.14453126 H 0.96113281 V 1.640625e-4 C 1.3947266,-0.03499219 2.4494141,-0.03499219 2.9416016,-0.03499219 c 0.4804687,0 1.546875,0 1.9804687,0.0351562525 V -0.46858594 H 3.5275391 Z m 0,0"
       style="fill:#000000;fill-opacity:1;fill-rule:nonzero;stroke:none"
       aria-label="1"
       transform="matrix(1.3333333,0,0,1.3333333,78.433333,52.824)" />
    <path
       id="path24"
       d="M 5.1447266,-2.2139297 H 4.6876953 c -0.035156,0.1992188 -0.1289062,0.84375 -0.2695312,0.9140625 -0.1054688,0.058594 -0.8554688,0.058594 -1.0078125,0.058594 H 1.9455078 c 0.46875,-0.3867188 0.984375,-0.8203125 1.4296875,-1.1484375 1.1367188,-0.8320313 1.7695313,-1.3007813 1.7695313,-2.25 0,-1.1484375 -1.03125,-1.8867188 -2.4375,-1.8867188 -1.2070313,0 -2.14453129,0.6210938 -2.14453129,1.5117188 0,0.5976562 0.48046879,0.7382812 0.72656249,0.7382812 0.3164063,0 0.7148438,-0.2109375 0.7148438,-0.7148437 0,-0.515625 -0.421875,-0.6796875 -0.5742188,-0.7148438 0.2929688,-0.234375 0.6679688,-0.3515625 1.03125,-0.3515625 0.8554688,0 1.3125,0.6796875 1.3125,1.4296875 0,0.6796875 -0.375,1.359375 -1.078125,2.0742188 l -1.99218749,2.03906246 c -0.140625,0.1171875 -0.140625,0.140625 -0.140625,0.33984375 V 9.140625e-4 H 4.8400391 Z m 0,0"
       style="fill:#000000;fill-opacity:1;fill-rule:nonzero;stroke:none"
       aria-label="2"
       transform="matrix(1.3333333,0,0,1.3333333,78.433333,83.948)" />
  </g>
</svg>
