<?xml version="1.0" encoding="UTF-8" standalone="no"?>
<!-- Created with Inkscape (http://www.inkscape.org/) -->

<svg
   version="1.1"
   id="svg1"
   width="396.94666"
   height="188.60001"
   viewBox="0 0 396.94666 188.60001"
   sodipodi:docname="3-tensor-3bar-decomposition.pdf"
   xmlns:inkscape="http://www.inkscape.org/namespaces/inkscape"
   xmlns:sodipodi="http://sodipodi.sourceforge.net/DTD/sodipodi-0.dtd"
   xmlns="http://www.w3.org/2000/svg"
   xmlns:svg="http://www.w3.org/2000/svg">
  <defs
     id="defs1" />
  <sodipodi:namedview
     id="namedview1"
     pagecolor="#ffffff"
     bordercolor="#000000"
     borderopacity="0.25"
     inkscape:showpageshadow="2"
     inkscape:pageopacity="0.0"
     inkscape:pagecheckerboard="0"
     inkscape:deskcolor="#d1d1d1">
    <inkscape:page
       x="0"
       y="0"
       inkscape:label="1"
       id="page1"
       width="396.94666"
       height="188.60001"
       margin="0"
       bleed="0" />
  </sodipodi:namedview>
  <g
     id="g1"
     inkscape:groupmode="layer"
     inkscape:label="1">
    <path
       id="path1"
       d="M 53.20137,-56.78798 H 71.87564 V -75.46227 H 53.20137 Z"
       style="fill:#f5a623;fill-opacity:1;fill-rule:nonzero;stroke:#000000;stroke-width:0.74721;stroke-linecap:butt;stroke-linejoin:miter;stroke-miterlimit:10;stroke-dasharray:none;stroke-opacity:1"
       transform="matrix(1.3333333,0,0,-1.3333333,-66.013333,-49.233333)" />
    <path
       id="path2"
       d="m 90.26302,-56.78798 h 18.67427 V -75.46227 H 90.26302 Z"
       style="fill:#f5a623;fill-opacity:0.2;fill-rule:nonzero;stroke:#000000;stroke-width:0.74721;stroke-linecap:butt;stroke-linejoin:miter;stroke-miterlimit:10;stroke-dasharray:none;stroke-opacity:1"
       transform="matrix(1.3333333,0,0,-1.3333333,-66.013333,-49.233333)" />
    <path
       id="path3"
       d="m 90.26302,-75.46227 h 18.67427 V -94.13654 H 90.26302 Z"
       style="fill:#f5a623;fill-opacity:0.2;fill-rule:nonzero;stroke:#000000;stroke-width:0.74721;stroke-linecap:butt;stroke-linejoin:miter;stroke-miterlimit:10;stroke-dasharray:none;stroke-opacity:1"
       transform="matrix(1.3333333,0,0,-1.3333333,-66.013333,-49.233333)" />
    <path
       id="path4"
       d="m 117.90381,-75.46227 h 19.72636"
       style="fill:none;stroke:#000000;stroke-width:0.74721;stroke-linecap:butt;stroke-linejoin:miter;stroke-miterlimit:10;stroke-dasharray:none;stroke-opacity:1"
       transform="matrix(1.3333333,0,0,-1.3333333,-66.013333,-49.233333)" />
    <path
       id="path5"
       d="m 134.08542,-78.02667 5.33806,2.5644 -5.33806,2.56441 z"
       style="fill:#000000;fill-opacity:1;fill-rule:nonzero;stroke:#000000;stroke-width:0.0797;stroke-linecap:butt;stroke-linejoin:miter;stroke-miterlimit:10;stroke-dasharray:none;stroke-opacity:0"
       transform="matrix(1.3333333,0,0,-1.3333333,-66.013333,-49.233333)" />
    <path
       id="path6"
       d="m 154.22423,-56.78798 h 18.67428 v -18.67429 h -18.67428 z"
       style="fill:#f5a623;fill-opacity:1;fill-rule:nonzero;stroke:#000000;stroke-width:0.74721;stroke-linecap:butt;stroke-linejoin:miter;stroke-miterlimit:10;stroke-dasharray:none;stroke-opacity:1"
       transform="matrix(1.3333333,0,0,-1.3333333,-66.013333,-49.233333)" />
    <path
       id="path7"
       d="m 154.22423,-75.46227 h 18.67428 v -18.67427 h -18.67428 z"
       style="fill:#f5a623;fill-opacity:0.2;fill-rule:nonzero;stroke:#000000;stroke-width:0.74721;stroke-linecap:butt;stroke-linejoin:miter;stroke-miterlimit:10;stroke-dasharray:none;stroke-opacity:1"
       transform="matrix(1.3333333,0,0,-1.3333333,-66.013333,-49.233333)" />
    <path
       id="path8"
       d="m 202.64348,-56.78798 h 18.67427 v -18.67429 h -18.67427 z"
       style="fill:#f5a623;fill-opacity:1;fill-rule:nonzero;stroke:#000000;stroke-width:0.74721;stroke-linecap:butt;stroke-linejoin:miter;stroke-miterlimit:10;stroke-dasharray:none;stroke-opacity:1"
       transform="matrix(1.3333333,0,0,-1.3333333,-66.013333,-49.233333)" />
    <path
       id="path9"
       d="m 221.31775,-56.78798 h 18.67428 v -18.67429 h -18.67428 z"
       style="fill:#f5a623;fill-opacity:0.2;fill-rule:nonzero;stroke:#000000;stroke-width:0.74721;stroke-linecap:butt;stroke-linejoin:miter;stroke-miterlimit:10;stroke-dasharray:none;stroke-opacity:1"
       transform="matrix(1.3333333,0,0,-1.3333333,-66.013333,-49.233333)" />
    <path
       id="path10"
       d="m 143.83502,-49.6865 h 107.37114 v -51.40807 H 143.83502 Z"
       style="fill:none;stroke:#000000;stroke-width:0.74721;stroke-linecap:butt;stroke-linejoin:miter;stroke-miterlimit:10;stroke-dasharray:4.48325, 4.48325;stroke-dashoffset:0;stroke-opacity:1"
       transform="matrix(1.3333333,0,0,-1.3333333,-66.013333,-49.233333)" />
    <path
       id="path11"
       d="m 117.90381,-132.25026 h 19.72636"
       style="fill:none;stroke:#000000;stroke-width:0.74721;stroke-linecap:butt;stroke-linejoin:miter;stroke-miterlimit:10;stroke-dasharray:none;stroke-opacity:1"
       transform="matrix(1.3333333,0,0,-1.3333333,-66.013333,-49.233333)" />
    <path
       id="path12"
       d="m 134.08542,-134.81467 5.33806,2.56441 -5.33806,2.56441 z"
       style="fill:#000000;fill-opacity:1;fill-rule:nonzero;stroke:#000000;stroke-width:0.0797;stroke-linecap:butt;stroke-linejoin:miter;stroke-miterlimit:10;stroke-dasharray:none;stroke-opacity:0"
       transform="matrix(1.3333333,0,0,-1.3333333,-66.013333,-49.233333)" />
    <path
       id="path13"
       d="m 154.22423,-113.57597 h 18.67428 v -18.67429 h -18.67428 z"
       style="fill:#f5a623;fill-opacity:1;fill-rule:nonzero;stroke:#000000;stroke-width:0.74721;stroke-linecap:butt;stroke-linejoin:miter;stroke-miterlimit:10;stroke-dasharray:none;stroke-opacity:1"
       transform="matrix(1.3333333,0,0,-1.3333333,-66.013333,-49.233333)" />
    <path
       id="path14"
       d="m 154.22423,-132.25026 h 18.67428 v -18.67427 h -18.67428 z"
       style="fill:#f5a623;fill-opacity:0.2;fill-rule:nonzero;stroke:#000000;stroke-width:0.74721;stroke-linecap:butt;stroke-linejoin:miter;stroke-miterlimit:10;stroke-dasharray:none;stroke-opacity:1"
       transform="matrix(1.3333333,0,0,-1.3333333,-66.013333,-49.233333)" />
    <path
       id="path15"
       d="m 232.53189,-113.57597 h 18.67427 v -18.67429 h -18.67427 z"
       style="fill:#f5a623;fill-opacity:1;fill-rule:nonzero;stroke:#000000;stroke-width:0.74721;stroke-linecap:butt;stroke-linejoin:miter;stroke-miterlimit:10;stroke-dasharray:none;stroke-opacity:1"
       transform="matrix(1.3333333,0,0,-1.3333333,-66.013333,-49.233333)" />
    <path
       id="path16"
       d="m 251.20616,-113.57597 h 18.67429 v -18.67429 h -18.67429 z"
       style="fill:#f5a623;fill-opacity:0.2;fill-rule:nonzero;stroke:#000000;stroke-width:0.74721;stroke-linecap:butt;stroke-linejoin:miter;stroke-miterlimit:10;stroke-dasharray:none;stroke-opacity:1"
       transform="matrix(1.3333333,0,0,-1.3333333,-66.013333,-49.233333)" />
    <path
       id="path17"
       d="M 143.83502,-106.47449 H 346.8491 v -71.52896 H 143.83502 Z"
       style="fill:none;stroke:#000000;stroke-width:0.74721;stroke-linecap:butt;stroke-linejoin:miter;stroke-miterlimit:10;stroke-dasharray:4.48325, 4.48325;stroke-dashoffset:0;stroke-opacity:1"
       transform="matrix(1.3333333,0,0,-1.3333333,-66.013333,-49.233333)" />
    <path
       id="path18"
       d="m 154.22423,-150.92453 h 18.67428 v -18.6743 h -18.67428 z"
       style="fill:#f5a623;fill-opacity:0.2;fill-rule:nonzero;stroke:#000000;stroke-width:0.74721;stroke-linecap:butt;stroke-linejoin:miter;stroke-miterlimit:10;stroke-dasharray:none;stroke-opacity:1"
       transform="matrix(1.3333333,0,0,-1.3333333,-66.013333,-49.233333)" />
    <path
       id="path19"
       d="m 184.71042,-113.57597 h 18.67427 v -18.67429 h -18.67427 z"
       style="fill:#f5a623;fill-opacity:1;fill-rule:nonzero;stroke:#000000;stroke-width:0.74721;stroke-linecap:butt;stroke-linejoin:miter;stroke-miterlimit:10;stroke-dasharray:none;stroke-opacity:1"
       transform="matrix(1.3333333,0,0,-1.3333333,-66.013333,-49.233333)" />
    <path
       id="path20"
       d="m 184.71042,-132.25026 h 18.67427 v -18.67427 h -18.67427 z"
       style="fill:#f5a623;fill-opacity:0.2;fill-rule:nonzero;stroke:#000000;stroke-width:0.74721;stroke-linecap:butt;stroke-linejoin:miter;stroke-miterlimit:10;stroke-dasharray:none;stroke-opacity:1"
       transform="matrix(1.3333333,0,0,-1.3333333,-66.013333,-49.233333)" />
    <path
       id="path21"
       d="m 203.38469,-113.57597 h 18.67429 v -18.67429 h -18.67429 z"
       style="fill:#f5a623;fill-opacity:0.2;fill-rule:nonzero;stroke:#000000;stroke-width:0.74721;stroke-linecap:butt;stroke-linejoin:miter;stroke-miterlimit:10;stroke-dasharray:none;stroke-opacity:1"
       transform="matrix(1.3333333,0,0,-1.3333333,-66.013333,-49.233333)" />
    <path
       id="path22"
       d="m 232.53189,-132.25026 h 18.67427 v -18.67427 h -18.67427 z"
       style="fill:#f5a623;fill-opacity:0.2;fill-rule:nonzero;stroke:#000000;stroke-width:0.74721;stroke-linecap:butt;stroke-linejoin:miter;stroke-miterlimit:10;stroke-dasharray:none;stroke-opacity:1"
       transform="matrix(1.3333333,0,0,-1.3333333,-66.013333,-49.233333)" />
    <path
       id="path23"
       d="m 280.95113,-113.57597 h 18.67428 v -18.67429 h -18.67428 z"
       style="fill:#f5a623;fill-opacity:1;fill-rule:nonzero;stroke:#000000;stroke-width:0.74721;stroke-linecap:butt;stroke-linejoin:miter;stroke-miterlimit:10;stroke-dasharray:none;stroke-opacity:1"
       transform="matrix(1.3333333,0,0,-1.3333333,-66.013333,-49.233333)" />
    <path
       id="path24"
       d="m 299.62541,-113.57597 h 18.67427 v -18.67429 h -18.67427 z"
       style="fill:#f5a623;fill-opacity:0.2;fill-rule:nonzero;stroke:#000000;stroke-width:0.74721;stroke-linecap:butt;stroke-linejoin:miter;stroke-miterlimit:10;stroke-dasharray:none;stroke-opacity:1"
       transform="matrix(1.3333333,0,0,-1.3333333,-66.013333,-49.233333)" />
    <path
       id="path25"
       d="m 318.29968,-113.57597 h 18.6743 v -18.67429 h -18.6743 z"
       style="fill:#f5a623;fill-opacity:0.2;fill-rule:nonzero;stroke:#000000;stroke-width:0.74721;stroke-linecap:butt;stroke-linejoin:miter;stroke-miterlimit:10;stroke-dasharray:none;stroke-opacity:1"
       transform="matrix(1.3333333,0,0,-1.3333333,-66.013333,-49.233333)" />
    <path
       id="path26"
       d="m 3.5042891,-3.5052656 c 0.6914062,-0.2109375 1.4179687,-0.7851563 1.4179687,-1.640625 0,-0.7617188 -0.7617187,-1.3828125 -2.1679687,-1.3828125 -1.1835938,0 -1.95703129,0.6445312 -1.95703129,1.4414062 0,0.421875 0.30468749,0.6914063 0.69140629,0.6914063 0.4453125,0 0.6914062,-0.3164063 0.6914062,-0.6914063 0,-0.5742187 -0.5390625,-0.6796875 -0.5742187,-0.6914062 0.3515625,-0.28125 0.7851562,-0.3632813 1.0898437,-0.3632813 0.8320313,0 0.8554688,0.6445313 0.8554688,0.9726563 0,0.1289062 0,1.4296875 -1.0429688,1.4882812 -0.4101562,0.023437 -0.421875,0.035156 -0.4804687,0.046875 -0.09375,0.011719 -0.1171875,0.1054688 -0.1171875,0.1640625 0,0.1757813 0.1054687,0.1757813 0.28125,0.1757813 h 0.4335937 c 1.0898438,0 1.0898438,0.984375 1.0898438,1.4882812 0,0.46875 0,1.48828127 -1.03125,1.48828127 -0.2578125,0 -0.7851563,-0.046875 -1.2539063,-0.33984375 0.328125,-0.09375 0.5742188,-0.33984375 0.5742188,-0.75000002 0,-0.4453125 -0.3164063,-0.75 -0.7617188,-0.75 -0.41015624,0 -0.76171874,0.2578125 -0.76171874,0.7734375 0,0.89062502 0.96093754,1.48828127 2.25000004,1.48828127 1.78125,0 2.5078125,-0.99609375 2.5078125,-1.89843747 0,-0.5507813 -0.2929688,-1.40625 -1.734375,-1.7109375 z m 0,0"
       style="fill:#000000;fill-opacity:1;fill-rule:nonzero;stroke:none"
       aria-label="3"
       transform="matrix(1.3333333,0,0,1.3333333,13.589333,13.744)" />
    <path
       id="path27"
       d="m -121.51,116.742 h 5.729"
       style="fill:none;stroke:#000000;stroke-width:0.3985;stroke-linecap:butt;stroke-linejoin:miter;stroke-miterlimit:10;stroke-dasharray:none;stroke-opacity:1"
       transform="matrix(1.3333333,0,0,-1.3333333,224.22133,158.448)" />
    <path
       id="path28"
       d="m 3.5031797,-3.5047031 c 0.6914062,-0.2109375 1.4179687,-0.7851563 1.4179687,-1.640625 0,-0.7617188 -0.7617187,-1.3828125 -2.1679687,-1.3828125 -1.1835938,0 -1.95703126,0.6445312 -1.95703126,1.4414062 0,0.421875 0.30468746,0.6914063 0.69140626,0.6914063 0.4453125,0 0.6914062,-0.3164063 0.6914062,-0.6914063 0,-0.5742187 -0.5390625,-0.6796875 -0.5742187,-0.6914062 0.3515625,-0.28125 0.7851562,-0.3632813 1.0898437,-0.3632813 0.8320313,0 0.8554688,0.6445313 0.8554688,0.9726563 0,0.1289062 0,1.4296875 -1.0429688,1.4882812 -0.4101562,0.023437 -0.421875,0.035156 -0.4804687,0.046875 -0.09375,0.011719 -0.1171875,0.1054688 -0.1171875,0.1640625 0,0.1757813 0.1054687,0.1757813 0.28125,0.1757813 h 0.4335937 c 1.0898438,0 1.0898438,0.984375 1.0898438,1.4882812 0,0.46875 0,1.48828127 -1.03125,1.48828127 -0.2578125,0 -0.7851563,-0.046875 -1.2539063,-0.33984375 0.328125,-0.09375 0.5742188,-0.33984375 0.5742188,-0.75000002 0,-0.4453125 -0.3164063,-0.75 -0.7617188,-0.75 -0.41015621,0 -0.76171871,0.2578125 -0.76171871,0.7734375 0,0.89062502 0.96093751,1.48828127 2.25000001,1.48828127 1.78125,0 2.5078125,-0.99609375 2.5078125,-1.89843747 0,-0.5507813 -0.2929688,-1.40625 -1.734375,-1.7109375 z m 0,0"
       style="fill:#000000;fill-opacity:1;fill-rule:nonzero;stroke:none"
       aria-label="3"
       transform="matrix(1.3333333,0,0,1.3333333,62.208,13.212)" />
    <path
       id="path29"
       d="m 7.1956562,-2.4966875 c 0,-1.828125 -1.5,-3.3164063 -3.3164062,-3.3164063 -1.8515625,0 -3.328125,1.5117188 -3.328125,3.3164063 0,1.83984375 1.4882812,3.328125 3.3164062,3.328125 1.8515625,0 3.328125,-1.51171875 3.328125,-3.328125 z M 1.8987812,-4.6295 c -0.023437,-0.023437 -0.09375,-0.09375 -0.09375,-0.1171875 0,-0.035156 0.8085938,-0.8085938 2.0625,-0.8085938 0.3515625,0 1.265625,0.046875 2.0742188,0.8085938 L 3.87925,-2.66075 Z m -0.2929687,4.21875 c -0.609375,-0.6796875 -0.80859375,-1.4414063 -0.80859375,-2.0859375 0,-0.7617188 0.29296875,-1.4882813 0.80859375,-2.0742188 L 3.69175,-2.4966875 Z M 6.12925,-4.5709063 c 0.4804687,0.5039063 0.8085937,1.265625 0.8085937,2.0742188 0,0.7734375 -0.28125,1.5 -0.796875,2.0859375 L 4.0550312,-2.4966875 Z M 5.848,-0.35215625 c 0.023437,0.0234375 0.09375,0.09375 0.09375,0.1171875 0,0.0351563 -0.8085938,0.80859375 -2.0625,0.80859375 -0.3515625,0 -1.265625,-0.046875 -2.0859375,-0.80859375 L 3.8675312,-2.3209063 Z m 0,0"
       style="fill:#000000;fill-opacity:1;fill-rule:nonzero;stroke:none"
       aria-label="⊗"
       transform="matrix(1.3333333,0,0,1.3333333,36.702667,42.422667)" />
    <path
       id="path30"
       d="m 2.9293203,-6.3738672 c 0,-0.234375 0,-0.2578125 -0.234375,-0.2578125 -0.609375,0.6328125 -1.4882812,0.6328125 -1.80468749,0.6328125 v 0.3164063 c 0.19921879,0 0.78515629,0 1.30078129,-0.2578125 v 5.15624996 c 0,0.3515625 -0.035156,0.48046875 -0.9257813,0.48046875 H 0.94885156 v 0.3046875 C 1.3004141,-0.03402344 2.1558828,-0.03402344 2.5543203,-0.03402344 c 0.3984375,0 1.265625,0 1.6171875,0.03515625 v -0.3046875 H 3.8551016 c -0.9023438,0 -0.9257813,-0.1171875 -0.9257813,-0.48046875 z m 0,0"
       style="fill:#000000;fill-opacity:1;fill-rule:nonzero;stroke:none"
       aria-label="1"
       transform="matrix(1.3333333,0,0,1.3333333,63.465333,43.213333)" />
    <path
       id="path31"
       d="M 1.2652578,-0.76175781 2.3199453,-1.7930078 c 1.5585938,-1.3710938 2.15625,-1.9101563 2.15625,-2.90625 0,-1.1367188 -0.9023437,-1.9335938 -2.1210937,-1.9335938 -1.125,0 -1.85156254,0.9140625 -1.85156254,1.8046875 0,0.5507813 0.4921875,0.5507813 0.52734374,0.5507813 0.1640625,0 0.515625,-0.1171875 0.515625,-0.5273438 0,-0.2578125 -0.1875,-0.515625 -0.5273437,-0.515625 -0.0820313,0 -0.10546879,0 -0.12890629,0.011719 0.22265629,-0.6445313 0.76171879,-1.0195313 1.33593749,-1.0195313 0.9140625,0 1.3359375,0.8085938 1.3359375,1.6289063 0,0.796875 -0.4921875,1.5820312 -1.0429687,2.203125 L 0.60900781,-0.36332031 C 0.50353906,-0.25785156 0.50353906,-0.23441406 0.50353906,-3.90625e-5 H 4.1949453 L 4.4761953,-1.7344141 H 4.2183828 c -0.046875,0.3046875 -0.1171875,0.73828129 -0.2109375,0.89062504 -0.070312,0.0820313 -0.7265625,0.0820313 -0.9492187,0.0820313 z m 0,0"
       style="fill:#000000;fill-opacity:1;fill-rule:nonzero;stroke:none"
       aria-label="2"
       transform="matrix(1.3333333,0,0,1.3333333,63.465333,68.113333)" />
    <path
       id="path32"
       d="m 2.9282578,-6.3750391 c 0,-0.234375 0,-0.2578125 -0.234375,-0.2578125 -0.609375,0.6328125 -1.4882812,0.6328125 -1.80468749,0.6328125 v 0.3164063 c 0.19921879,0 0.78515629,0 1.30078129,-0.2578125 v 5.15624999 c 0,0.3515625 -0.035156,0.48046875 -0.9257813,0.48046875 H 0.94778906 V -3.90625e-5 C 1.2993516,-0.03519531 2.1548203,-0.03519531 2.5532578,-0.03519531 c 0.3984375,0 1.265625,0 1.6171875,0.0351562475 V -0.30472656 H 3.8540391 c -0.9023438,0 -0.9257813,-0.1171875 -0.9257813,-0.48046875 z m 0,0"
       style="fill:#000000;fill-opacity:1;fill-rule:nonzero;stroke:none"
       aria-label="1"
       transform="matrix(1.3333333,0,0,1.3333333,148.748,68.113333)" />
    <path
       id="path33"
       d="m 2.9309609,-6.3738672 c 0,-0.234375 0,-0.2578125 -0.234375,-0.2578125 -0.609375,0.6328125 -1.4882812,0.6328125 -1.80468746,0.6328125 v 0.3164063 c 0.19921876,0 0.78515626,0 1.30078126,-0.2578125 v 5.15624996 c 0,0.3515625 -0.035156,0.48046875 -0.9257813,0.48046875 H 0.95049219 v 0.3046875 C 1.3020547,-0.03402344 2.1575234,-0.03402344 2.5559609,-0.03402344 c 0.3984375,0 1.265625,0 1.6171875,0.03515625 v -0.3046875 H 3.8567422 c -0.9023438,0 -0.9257813,-0.1171875 -0.9257813,-0.48046875 z m 0,0"
       style="fill:#000000;fill-opacity:1;fill-rule:nonzero;stroke:none"
       aria-label="1"
       transform="matrix(1.3333333,0,0,1.3333333,238.20533,43.213333)" />
    <path
       id="path34"
       d="m 2.9282578,-6.3739766 c 0,-0.234375 0,-0.2578125 -0.234375,-0.2578125 -0.609375,0.6328125 -1.4882812,0.6328125 -1.80468749,0.6328125 v 0.3164063 c 0.19921879,0 0.78515629,0 1.30078129,-0.2578125 v 5.15624999 c 0,0.3515625 -0.035156,0.48046875 -0.9257813,0.48046875 H 0.94778906 v 0.3046875 C 1.2993516,-0.03413281 2.1548203,-0.03413281 2.5532578,-0.03413281 c 0.3984375,0 1.265625,0 1.6171875,0.03515625 v -0.3046875 H 3.8540391 c -0.9023438,0 -0.9257813,-0.1171875 -0.9257813,-0.48046875 z m 0,0"
       style="fill:#000000;fill-opacity:1;fill-rule:nonzero;stroke:none"
       aria-label="1"
       transform="matrix(1.3333333,0,0,1.3333333,148.748,143.83067)" />
    <path
       id="path35"
       d="m 2.9306328,-6.3757344 c 0,-0.234375 0,-0.2578125 -0.234375,-0.2578125 -0.609375,0.6328125 -1.4882812,0.6328125 -1.80468749,0.6328125 v 0.3164063 c 0.19921879,0 0.78515629,0 1.30078129,-0.2578125 v 5.15624997 c 0,0.3515625 -0.035156,0.48046875 -0.9257813,0.48046875 H 0.95016406 V -7.34375e-4 C 1.3017266,-0.03589063 2.1571953,-0.03589063 2.5556328,-0.03589063 c 0.3984375,0 1.265625,0 1.6171875,0.035156255 V -0.30542188 H 3.8564141 c -0.9023438,0 -0.9257813,-0.1171875 -0.9257813,-0.48046875 z m 0,0"
       style="fill:#000000;fill-opacity:1;fill-rule:nonzero;stroke:none"
       aria-label="1"
       transform="matrix(1.3333333,0,0,1.3333333,278.05733,118.93067)" />
    <path
       id="path36"
       d="M 1.2641953,-0.76086719 2.3188828,-1.7921172 c 1.5585938,-1.3710937 2.15625,-1.9101562 2.15625,-2.90625 0,-1.1367187 -0.9023437,-1.9335937 -2.1210937,-1.9335937 -1.125,0 -1.85156254,0.9140625 -1.85156254,1.8046875 0,0.5507812 0.4921875,0.5507812 0.52734374,0.5507812 0.1640625,0 0.515625,-0.1171875 0.515625,-0.5273437 0,-0.2578125 -0.1875,-0.515625 -0.5273437,-0.515625 -0.0820313,0 -0.10546879,0 -0.12890629,0.011719 0.22265629,-0.6445312 0.76171879,-1.0195312 1.33593749,-1.0195312 0.9140625,0 1.3359375,0.8085937 1.3359375,1.6289062 0,0.796875 -0.4921875,1.5820313 -1.0429687,2.203125 L 0.60794531,-0.36242969 C 0.50247656,-0.25696094 0.50247656,-0.23352344 0.50247656,8.515625e-4 H 4.1938828 L 4.4751328,-1.7335234 H 4.2173203 c -0.046875,0.3046875 -0.1171875,0.73828121 -0.2109375,0.89062496 -0.070312,0.0820313 -0.7265625,0.0820313 -0.9492187,0.0820313 z m 0,0"
       style="fill:#000000;fill-opacity:1;fill-rule:nonzero;stroke:none"
       aria-label="2"
       transform="matrix(1.3333333,0,0,1.3333333,148.748,168.72933)" />
    <path
       id="path37"
       d="m 2.9285859,-6.3739766 c 0,-0.234375 0,-0.2578125 -0.234375,-0.2578125 -0.609375,0.6328125 -1.4882812,0.6328125 -1.80468746,0.6328125 v 0.3164063 c 0.19921876,0 0.78515626,0 1.30078126,-0.2578125 v 5.15624999 c 0,0.3515625 -0.035156,0.48046875 -0.9257813,0.48046875 H 0.94811719 v 0.3046875 C 1.2996797,-0.03413281 2.1551484,-0.03413281 2.5535859,-0.03413281 c 0.3984375,0 1.265625,0 1.6171875,0.03515625 v -0.3046875 H 3.8543672 c -0.9023438,0 -0.9257813,-0.1171875 -0.9257813,-0.48046875 z m 0,0"
       style="fill:#000000;fill-opacity:1;fill-rule:nonzero;stroke:none"
       aria-label="1"
       transform="matrix(1.3333333,0,0,1.3333333,189.396,143.83067)" />
    <path
       id="path38"
       d="M 1.2643516,-0.76245313 2.3190391,-1.7937031 c 1.5585937,-1.3710938 2.15625,-1.9101563 2.15625,-2.90625 0,-1.1367188 -0.9023438,-1.9335938 -2.1210938,-1.9335938 -1.125,0 -1.85156249,0.9140625 -1.85156249,1.8046875 0,0.5507813 0.4921875,0.5507813 0.52734379,0.5507813 0.1640625,0 0.515625,-0.1171875 0.515625,-0.5273438 0,-0.2578125 -0.1875,-0.515625 -0.5273438,-0.515625 -0.0820312,0 -0.10546874,0 -0.12890624,0.011719 0.22265624,-0.6445313 0.76171874,-1.0195313 1.33593754,-1.0195313 0.9140625,0 1.3359375,0.8085938 1.3359375,1.6289063 0,0.796875 -0.4921875,1.5820312 -1.0429688,2.203125 L 0.60810156,-0.36401563 C 0.50263281,-0.25854688 0.50263281,-0.23510938 0.50263281,-7.34375e-4 H 4.1940391 L 4.4752891,-1.7351094 H 4.2174766 c -0.046875,0.3046875 -0.1171875,0.73828127 -0.2109375,0.89062502 -0.070313,0.0820313 -0.7265625,0.0820313 -0.9492188,0.0820313 z m 0,0"
       style="fill:#000000;fill-opacity:1;fill-rule:nonzero;stroke:none"
       aria-label="2"
       transform="matrix(1.3333333,0,0,1.3333333,214.29467,118.93067)" />
    <path
       id="path39"
       d="M 1.2648125,-0.76069531 2.3195,-1.7919453 c 1.5585938,-1.3710938 2.15625,-1.9101563 2.15625,-2.90625 0,-1.1367188 -0.9023437,-1.9335938 -2.1210937,-1.9335938 -1.125,0 -1.85156255,0.9140625 -1.85156255,1.8046875 0,0.5507813 0.4921875,0.5507813 0.52734375,0.5507813 0.1640625,0 0.515625,-0.1171875 0.515625,-0.5273438 0,-0.2578125 -0.1875,-0.515625 -0.5273437,-0.515625 -0.0820313,0 -0.1054688,0 -0.1289063,0.011719 0.2226563,-0.6445313 0.7617188,-1.0195313 1.3359375,-1.0195313 0.9140625,0 1.3359375,0.8085938 1.3359375,1.6289063 0,0.796875 -0.4921875,1.5820312 -1.0429687,2.203125 L 0.6085625,-0.36225781 C 0.50309375,-0.25678906 0.50309375,-0.23335156 0.50309375,0.00102344 H 4.1945 L 4.47575,-1.7333516 H 4.2179375 C 4.1710625,-1.4286641 4.10075,-0.99507031 4.007,-0.84272656 c -0.070312,0.0820313 -0.7265625,0.0820313 -0.9492187,0.0820313 z m 0,0"
       style="fill:#000000;fill-opacity:1;fill-rule:nonzero;stroke:none"
       aria-label="2"
       transform="matrix(1.3333333,0,0,1.3333333,253.15733,143.83067)" />
    <path
       id="path40"
       d="m 2.9305781,-6.3757344 c 0,-0.234375 0,-0.2578125 -0.234375,-0.2578125 -0.609375,0.6328125 -1.4882812,0.6328125 -1.80468747,0.6328125 v 0.3164063 c 0.19921877,0 0.78515627,0 1.30078127,-0.2578125 v 5.15624997 c 0,0.3515625 -0.035156,0.48046875 -0.9257813,0.48046875 H 0.95010938 V -7.34375e-4 C 1.3016719,-0.03589063 2.1571406,-0.03589063 2.5555781,-0.03589063 c 0.3984375,0 1.265625,0 1.6171875,0.035156255 V -0.30542188 H 3.8563594 c -0.9023438,0 -0.9257813,-0.1171875 -0.9257813,-0.48046875 z m 0,0"
       style="fill:#000000;fill-opacity:1;fill-rule:nonzero;stroke:none"
       aria-label="1"
       transform="matrix(1.3333333,0,0,1.3333333,342.616,118.93067)" />
    <path
       id="path41"
       d="M 1.2663437,-0.76245313 2.3210312,-1.7937031 c 1.5585938,-1.3710938 2.15625,-1.9101563 2.15625,-2.90625 0,-1.1367188 -0.9023437,-1.9335938 -2.1210937,-1.9335938 -1.125,0 -1.8515625,0.9140625 -1.8515625,1.8046875 0,0.5507813 0.4921875,0.5507813 0.5273437,0.5507813 0.1640625,0 0.515625,-0.1171875 0.515625,-0.5273438 0,-0.2578125 -0.1875,-0.515625 -0.5273437,-0.515625 -0.0820313,0 -0.10546875,0 -0.12890625,0.011719 C 1.114,-5.9538594 1.6530625,-6.3288594 2.2272812,-6.3288594 c 0.9140625,0 1.3359375,0.8085938 1.3359375,1.6289063 0,0.796875 -0.4921875,1.5820312 -1.0429687,2.203125 L 0.61009375,-0.36401563 C 0.504625,-0.25854688 0.504625,-0.23510938 0.504625,-7.34375e-4 H 4.1960312 L 4.4772812,-1.7351094 H 4.2194687 c -0.046875,0.3046875 -0.1171875,0.73828127 -0.2109375,0.89062502 -0.070312,0.0820313 -0.7265625,0.0820313 -0.9492187,0.0820313 z m 0,0"
       style="fill:#000000;fill-opacity:1;fill-rule:nonzero;stroke:none"
       aria-label="2"
       transform="matrix(1.3333333,0,0,1.3333333,367.51467,118.93067)" />
  </g>
</svg>
