<?xml version="1.0" encoding="UTF-8" standalone="no"?>
<!-- Created with Inkscape (http://www.inkscape.org/) -->

<svg
   version="1.1"
   id="svg1"
   width="376.39999"
   height="145.16"
   viewBox="0 0 376.39999 145.16"
   sodipodi:docname="8-tensor-8-decomposition-3.pdf"
   xmlns:inkscape="http://www.inkscape.org/namespaces/inkscape"
   xmlns:sodipodi="http://sodipodi.sourceforge.net/DTD/sodipodi-0.dtd"
   xmlns="http://www.w3.org/2000/svg"
   xmlns:svg="http://www.w3.org/2000/svg">
  <defs
     id="defs1" />
  <sodipodi:namedview
     id="namedview1"
     pagecolor="#ffffff"
     bordercolor="#000000"
     borderopacity="0.25"
     inkscape:showpageshadow="2"
     inkscape:pageopacity="0.0"
     inkscape:pagecheckerboard="0"
     inkscape:deskcolor="#d1d1d1">
    <inkscape:page
       x="0"
       y="0"
       inkscape:label="1"
       id="page1"
       width="376.39999"
       height="145.16"
       margin="0"
       bleed="0" />
  </sodipodi:namedview>
  <g
     id="g1"
     inkscape:groupmode="layer"
     inkscape:label="1">
    <path
       id="path1"
       d="M 12.55302,-31.90561 H 28.89287 V -48.24548 H 12.55302 Z"
       style="fill:#f5a623;fill-opacity:0.2;fill-rule:nonzero;stroke:#000000;stroke-width:0.74721;stroke-linecap:butt;stroke-linejoin:miter;stroke-miterlimit:10;stroke-dasharray:none;stroke-opacity:1"
       transform="matrix(1.3333333,0,0,-1.3333333,-11.816,-42.041333)" />
    <path
       id="path2"
       d="M 28.89287,-31.90561 H 45.23273 V -48.24548 H 28.89287 Z"
       style="fill:#f5a623;fill-opacity:0.2;fill-rule:nonzero;stroke:#000000;stroke-width:0.74721;stroke-linecap:butt;stroke-linejoin:miter;stroke-miterlimit:10;stroke-dasharray:none;stroke-opacity:1"
       transform="matrix(1.3333333,0,0,-1.3333333,-11.816,-42.041333)" />
    <path
       id="path3"
       d="M 12.55302,-48.24548 H 28.89287 V -64.58534 H 12.55302 Z"
       style="fill:#f5a623;fill-opacity:0.2;fill-rule:nonzero;stroke:#000000;stroke-width:0.74721;stroke-linecap:butt;stroke-linejoin:miter;stroke-miterlimit:10;stroke-dasharray:none;stroke-opacity:1"
       transform="matrix(1.3333333,0,0,-1.3333333,-11.816,-42.041333)" />
    <path
       id="path4"
       d="M 63.0162,-31.90561 H 79.35606 V -48.24548 H 63.0162 Z"
       style="fill:#f5a623;fill-opacity:0.2;fill-rule:nonzero;stroke:#000000;stroke-width:0.74721;stroke-linecap:butt;stroke-linejoin:miter;stroke-miterlimit:10;stroke-dasharray:none;stroke-opacity:1"
       transform="matrix(1.3333333,0,0,-1.3333333,-11.816,-42.041333)" />
    <path
       id="path5"
       d="M 79.35606,-31.90561 H 95.69594 V -48.24548 H 79.35606 Z"
       style="fill:#f5a623;fill-opacity:0.2;fill-rule:nonzero;stroke:#000000;stroke-width:0.74721;stroke-linecap:butt;stroke-linejoin:miter;stroke-miterlimit:10;stroke-dasharray:none;stroke-opacity:1"
       transform="matrix(1.3333333,0,0,-1.3333333,-11.816,-42.041333)" />
    <path
       id="path6"
       d="M 63.0162,-48.24548 H 79.35606 V -64.58534 H 63.0162 Z"
       style="fill:#f5a623;fill-opacity:0.2;fill-rule:nonzero;stroke:#000000;stroke-width:0.74721;stroke-linecap:butt;stroke-linejoin:miter;stroke-miterlimit:10;stroke-dasharray:none;stroke-opacity:1"
       transform="matrix(1.3333333,0,0,-1.3333333,-11.816,-42.041333)" />
    <path
       id="path7"
       d="m 129.71468,-32.42865 h 16.33984 v -16.33987 h -16.33984 z"
       style="fill:#f5a623;fill-opacity:1;fill-rule:nonzero;stroke:#000000;stroke-width:0.74721;stroke-linecap:butt;stroke-linejoin:miter;stroke-miterlimit:10;stroke-dasharray:none;stroke-opacity:1"
       transform="matrix(1.3333333,0,0,-1.3333333,-11.816,-42.041333)" />
    <path
       id="path8"
       d="m 146.05452,-32.42865 h 16.33986 v -16.33987 h -16.33986 z"
       style="fill:#f5a623;fill-opacity:1;fill-rule:nonzero;stroke:#000000;stroke-width:0.74721;stroke-linecap:butt;stroke-linejoin:miter;stroke-miterlimit:10;stroke-dasharray:none;stroke-opacity:1"
       transform="matrix(1.3333333,0,0,-1.3333333,-11.816,-42.041333)" />
    <path
       id="path9"
       d="m 129.71468,-48.76852 h 16.33984 v -16.33986 h -16.33984 z"
       style="fill:#f5a623;fill-opacity:1;fill-rule:nonzero;stroke:#000000;stroke-width:0.74721;stroke-linecap:butt;stroke-linejoin:miter;stroke-miterlimit:10;stroke-dasharray:none;stroke-opacity:1"
       transform="matrix(1.3333333,0,0,-1.3333333,-11.816,-42.041333)" />
    <path
       id="path10"
       d="m 100.92638,-48.24548 23.03482,-0.49166"
       style="fill:none;stroke:#000000;stroke-width:0.74721;stroke-linecap:butt;stroke-linejoin:miter;stroke-miterlimit:10;stroke-dasharray:none;stroke-opacity:1"
       transform="matrix(1.3333333,0,0,-1.3333333,-11.816,-42.041333)" />
    <path
       id="path11"
       d="m 120.81305,-50.9124 4.71728,2.14388 -4.62181,2.34262 -0.0955,-4.4865 z"
       style="fill:#000000;fill-opacity:1;fill-rule:nonzero;stroke:#000000;stroke-width:0.0797;stroke-linecap:butt;stroke-linejoin:miter;stroke-miterlimit:10;stroke-dasharray:none;stroke-opacity:0"
       transform="matrix(1.3333333,0,0,-1.3333333,-11.816,-42.041333)" />
    <path
       id="path12"
       d="m 162.39438,-32.42865 h 16.33987 v -16.33987 h -16.33987 z"
       style="fill:#f5a623;fill-opacity:0.2;fill-rule:nonzero;stroke:#000000;stroke-width:0.74721;stroke-linecap:butt;stroke-linejoin:miter;stroke-miterlimit:10;stroke-dasharray:none;stroke-opacity:1"
       transform="matrix(1.3333333,0,0,-1.3333333,-11.816,-42.041333)" />
    <path
       id="path13"
       d="m 178.73425,-32.42865 h 16.33989 v -16.33987 h -16.33989 z"
       style="fill:#f5a623;fill-opacity:0.2;fill-rule:nonzero;stroke:#000000;stroke-width:0.74721;stroke-linecap:butt;stroke-linejoin:miter;stroke-miterlimit:10;stroke-dasharray:none;stroke-opacity:1"
       transform="matrix(1.3333333,0,0,-1.3333333,-11.816,-42.041333)" />
    <path
       id="path14"
       d="m 225.43155,-32.42865 h 16.33986 v -16.33987 h -16.33986 z"
       style="fill:#f5a623;fill-opacity:1;fill-rule:nonzero;stroke:#000000;stroke-width:0.74721;stroke-linecap:butt;stroke-linejoin:miter;stroke-miterlimit:10;stroke-dasharray:none;stroke-opacity:1"
       transform="matrix(1.3333333,0,0,-1.3333333,-11.816,-42.041333)" />
    <path
       id="path15"
       d="m 241.77141,-32.42865 h 16.33986 v -16.33987 h -16.33986 z"
       style="fill:#f5a623;fill-opacity:1;fill-rule:nonzero;stroke:#000000;stroke-width:0.74721;stroke-linecap:butt;stroke-linejoin:miter;stroke-miterlimit:10;stroke-dasharray:none;stroke-opacity:1"
       transform="matrix(1.3333333,0,0,-1.3333333,-11.816,-42.041333)" />
    <path
       id="path16"
       d="m 225.43155,-48.76852 h 16.33986 v -16.33986 h -16.33986 z"
       style="fill:#f5a623;fill-opacity:1;fill-rule:nonzero;stroke:#000000;stroke-width:0.74721;stroke-linecap:butt;stroke-linejoin:miter;stroke-miterlimit:10;stroke-dasharray:none;stroke-opacity:1"
       transform="matrix(1.3333333,0,0,-1.3333333,-11.816,-42.041333)" />
    <path
       id="path17"
       d="m 258.11127,-32.42865 h 16.33987 v -16.33987 h -16.33987 z"
       style="fill:#f5a623;fill-opacity:0.2;fill-rule:nonzero;stroke:#000000;stroke-width:0.74721;stroke-linecap:butt;stroke-linejoin:miter;stroke-miterlimit:10;stroke-dasharray:none;stroke-opacity:1"
       transform="matrix(1.3333333,0,0,-1.3333333,-11.816,-42.041333)" />
    <path
       id="path18"
       d="M 274.45114,-32.42865 H 290.791 v -16.33987 h -16.33986 z"
       style="fill:#f5a623;fill-opacity:0.2;fill-rule:nonzero;stroke:#000000;stroke-width:0.74721;stroke-linecap:butt;stroke-linejoin:miter;stroke-miterlimit:10;stroke-dasharray:none;stroke-opacity:1"
       transform="matrix(1.3333333,0,0,-1.3333333,-11.816,-42.041333)" />
    <path
       id="path19"
       d="m 129.71468,-91.00948 h 16.33984 v -16.33985 h -16.33984 z"
       style="fill:#f5a623;fill-opacity:1;fill-rule:nonzero;stroke:#000000;stroke-width:0.74721;stroke-linecap:butt;stroke-linejoin:miter;stroke-miterlimit:10;stroke-dasharray:none;stroke-opacity:1"
       transform="matrix(1.3333333,0,0,-1.3333333,-11.816,-42.041333)" />
    <path
       id="path20"
       d="m 146.05452,-91.00948 h 16.33986 v -16.33985 h -16.33986 z"
       style="fill:#f5a623;fill-opacity:1;fill-rule:nonzero;stroke:#000000;stroke-width:0.74721;stroke-linecap:butt;stroke-linejoin:miter;stroke-miterlimit:10;stroke-dasharray:none;stroke-opacity:1"
       transform="matrix(1.3333333,0,0,-1.3333333,-11.816,-42.041333)" />
    <path
       id="path21"
       d="m 129.71468,-107.34933 h 16.33984 v -16.33988 h -16.33984 z"
       style="fill:#f5a623;fill-opacity:1;fill-rule:nonzero;stroke:#000000;stroke-width:0.74721;stroke-linecap:butt;stroke-linejoin:miter;stroke-miterlimit:10;stroke-dasharray:none;stroke-opacity:1"
       transform="matrix(1.3333333,0,0,-1.3333333,-11.816,-42.041333)" />
    <path
       id="path22"
       d="m 162.39438,-91.00948 h 16.33987 v -16.33985 h -16.33987 z"
       style="fill:#f5a623;fill-opacity:0.2;fill-rule:nonzero;stroke:#000000;stroke-width:0.74721;stroke-linecap:butt;stroke-linejoin:miter;stroke-miterlimit:10;stroke-dasharray:none;stroke-opacity:1"
       transform="matrix(1.3333333,0,0,-1.3333333,-11.816,-42.041333)" />
    <path
       id="path23"
       d="m 178.73425,-91.00948 h 16.33989 v -16.33985 h -16.33989 z"
       style="fill:#f5a623;fill-opacity:0.2;fill-rule:nonzero;stroke:#000000;stroke-width:0.74721;stroke-linecap:butt;stroke-linejoin:miter;stroke-miterlimit:10;stroke-dasharray:none;stroke-opacity:1"
       transform="matrix(1.3333333,0,0,-1.3333333,-11.816,-42.041333)" />
    <path
       id="path24"
       d="m 195.07414,-32.42865 h 16.34508 v -16.33987 h -16.34508 z"
       style="fill:#f5a623;fill-opacity:0.2;fill-rule:nonzero;stroke:#000000;stroke-width:0.74721;stroke-linecap:butt;stroke-linejoin:miter;stroke-miterlimit:10;stroke-dasharray:none;stroke-opacity:1"
       transform="matrix(1.3333333,0,0,-1.3333333,-11.816,-42.041333)" />
    <path
       id="path25"
       d="m 241.77141,-48.76852 h 16.33986 v -16.33986 h -16.33986 z"
       style="fill:#f5a623;fill-opacity:0.2;fill-rule:nonzero;stroke:#000000;stroke-width:0.74721;stroke-linecap:butt;stroke-linejoin:miter;stroke-miterlimit:10;stroke-dasharray:none;stroke-opacity:1"
       transform="matrix(1.3333333,0,0,-1.3333333,-11.816,-42.041333)" />
    <path
       id="path26"
       d="m 129.71468,-123.68921 h 16.33984 v -16.33986 h -16.33984 z"
       style="fill:#f5a623;fill-opacity:0.2;fill-rule:nonzero;stroke:#000000;stroke-width:0.74721;stroke-linecap:butt;stroke-linejoin:miter;stroke-miterlimit:10;stroke-dasharray:none;stroke-opacity:1"
       transform="matrix(1.3333333,0,0,-1.3333333,-11.816,-42.041333)" />
    <path
       id="path27"
       d="m 7.1960938,-2.4967344 c 0,-1.828125 -1.5,-3.3164062 -3.3164063,-3.3164062 -1.8515625,0 -3.328125,1.5117187 -3.328125,3.3164062 0,1.83984378 1.4882813,3.32812503 3.3164063,3.32812503 1.8515625,0 3.328125,-1.51171875 3.328125,-3.32812503 z m -5.296875,-2.1328125 c -0.023437,-0.023437 -0.09375,-0.09375 -0.09375,-0.1171875 0,-0.035156 0.8085937,-0.8085937 2.0625,-0.8085937 0.3515625,0 1.265625,0.046875 2.0742187,0.8085937 l -2.0625,2.0859375 z M 1.60625,-0.41079687 C 0.996875,-1.0904844 0.79765625,-1.8522031 0.79765625,-2.4967344 c 0,-0.7617187 0.29296875,-1.4882812 0.80859375,-2.0742187 l 2.0859375,2.0742187 z M 6.1296875,-4.5709531 c 0.4804688,0.5039062 0.8085938,1.265625 0.8085938,2.0742187 0,0.7734375 -0.28125,1.50000003 -0.796875,2.08593753 L 4.0554688,-2.4967344 Z m -0.28125,4.21874998 c 0.023437,0.0234375 0.09375,0.09375 0.09375,0.1171875 0,0.0351563 -0.8085937,0.80859375 -2.0625,0.80859375 -0.3515625,0 -1.265625,-0.046875 -2.0859375,-0.80859375 L 3.8679688,-2.3209531 Z m 0,0"
       style="fill:#000000;fill-opacity:1;fill-rule:nonzero;stroke:none"
       aria-label="⊗"
       transform="matrix(1.3333333,0,0,1.3333333,55.233333,26.758667)" />
    <path
       id="path28"
       d="m 2.928625,-6.3746797 c 0,-0.234375 0,-0.2578125 -0.234375,-0.2578125 -0.609375,0.6328125 -1.4882812,0.6328125 -1.8046875,0.6328125 v 0.3164063 c 0.1992188,0 0.7851563,0 1.3007813,-0.2578125 v 5.15624996 c 0,0.3515625 -0.035156,0.48046875 -0.9257813,0.48046875 H 0.94815625 V 3.203125e-4 C 1.2997188,-0.03483594 2.1551875,-0.03483594 2.553625,-0.03483594 c 0.3984375,0 1.265625,0 1.6171875,0.0351562525 V -0.30436719 H 3.8544063 c -0.9023438,0 -0.9257813,-0.1171875 -0.9257813,-0.48046875 z m 0,0"
       style="fill:#000000;fill-opacity:1;fill-rule:nonzero;stroke:none"
       aria-label="1"
       transform="matrix(1.3333333,0,0,1.3333333,212.28267,16.370667)" />
    <path
       id="path29"
       d="m 2.9284922,-6.3746797 c 0,-0.234375 0,-0.2578125 -0.234375,-0.2578125 -0.609375,0.6328125 -1.4882813,0.6328125 -1.80468751,0.6328125 v 0.3164063 c 0.19921871,0 0.78515621,0 1.30078121,-0.2578125 v 5.15624996 c 0,0.3515625 -0.035156,0.48046875 -0.9257812,0.48046875 H 0.94802344 V 3.203125e-4 C 1.2995859,-0.03483594 2.1550547,-0.03483594 2.5534922,-0.03483594 c 0.3984375,0 1.265625,0 1.6171875,0.0351562525 V -0.30436719 H 3.8542734 c -0.9023437,0 -0.9257812,-0.1171875 -0.9257812,-0.48046875 z m 0,0"
       style="fill:#000000;fill-opacity:1;fill-rule:nonzero;stroke:none"
       aria-label="1"
       transform="matrix(1.3333333,0,0,1.3333333,234.068,16.370667)" />
    <path
       id="path30"
       d="m 2.930375,-6.3746797 c 0,-0.234375 0,-0.2578125 -0.234375,-0.2578125 -0.609375,0.6328125 -1.4882812,0.6328125 -1.8046875,0.6328125 v 0.3164063 c 0.1992188,0 0.7851563,0 1.3007813,-0.2578125 v 5.15624996 c 0,0.3515625 -0.035156,0.48046875 -0.9257813,0.48046875 H 0.94990625 V 3.203125e-4 C 1.3014688,-0.03483594 2.1569375,-0.03483594 2.555375,-0.03483594 c 0.3984375,0 1.265625,0 1.6171875,0.0351562525 V -0.30436719 H 3.8561563 c -0.9023438,0 -0.9257813,-0.1171875 -0.9257813,-0.48046875 z m 0,0"
       style="fill:#000000;fill-opacity:1;fill-rule:nonzero;stroke:none"
       aria-label="1"
       transform="matrix(1.3333333,0,0,1.3333333,339.90533,16.370667)" />
    <path
       id="path31"
       d="m 2.9302422,-6.3746797 c 0,-0.234375 0,-0.2578125 -0.234375,-0.2578125 -0.609375,0.6328125 -1.4882813,0.6328125 -1.80468751,0.6328125 v 0.3164063 c 0.19921871,0 0.78515621,0 1.30078121,-0.2578125 v 5.15624996 c 0,0.3515625 -0.035156,0.48046875 -0.9257812,0.48046875 H 0.94977344 V 3.203125e-4 C 1.3013359,-0.03483594 2.1568047,-0.03483594 2.5552422,-0.03483594 c 0.3984375,0 1.265625,0 1.6171875,0.0351562525 V -0.30436719 H 3.8560234 c -0.9023437,0 -0.9257812,-0.1171875 -0.9257812,-0.48046875 z m 0,0"
       style="fill:#000000;fill-opacity:1;fill-rule:nonzero;stroke:none"
       aria-label="1"
       transform="matrix(1.3333333,0,0,1.3333333,361.69067,16.370667)" />
    <path
       id="path32"
       d="m 2.928625,-6.3736484 c 0,-0.234375 0,-0.2578125 -0.234375,-0.2578125 -0.609375,0.6328125 -1.4882812,0.6328125 -1.8046875,0.6328125 v 0.3164062 c 0.1992188,0 0.7851563,0 1.3007813,-0.2578125 v 5.15625001 c 0,0.3515625 -0.035156,0.48046875 -0.9257813,0.48046875 H 0.94815625 v 0.3046875 C 1.2997188,-0.03380469 2.1551875,-0.03380469 2.553625,-0.03380469 c 0.3984375,0 1.265625,0 1.6171875,0.03515625 v -0.3046875 H 3.8544063 c -0.9023438,0 -0.9257813,-0.1171875 -0.9257813,-0.48046875 z m 0,0"
       style="fill:#000000;fill-opacity:1;fill-rule:nonzero;stroke:none"
       aria-label="1"
       transform="matrix(1.3333333,0,0,1.3333333,212.28267,94.478667)" />
    <path
       id="path33"
       d="m 2.9284922,-6.3736484 c 0,-0.234375 0,-0.2578125 -0.234375,-0.2578125 -0.609375,0.6328125 -1.4882813,0.6328125 -1.80468751,0.6328125 v 0.3164062 c 0.19921871,0 0.78515621,0 1.30078121,-0.2578125 v 5.15625001 c 0,0.3515625 -0.035156,0.48046875 -0.9257812,0.48046875 H 0.94802344 v 0.3046875 C 1.2995859,-0.03380469 2.1550547,-0.03380469 2.5534922,-0.03380469 c 0.3984375,0 1.265625,0 1.6171875,0.03515625 v -0.3046875 H 3.8542734 c -0.9023437,0 -0.9257812,-0.1171875 -0.9257812,-0.48046875 z m 0,0"
       style="fill:#000000;fill-opacity:1;fill-rule:nonzero;stroke:none"
       aria-label="1"
       transform="matrix(1.3333333,0,0,1.3333333,234.068,94.478667)" />
    <path
       id="path34"
       d="M 1.2660859,-0.76139844 2.3207734,-1.7926484 c 1.5585938,-1.3710938 2.15625,-1.9101563 2.15625,-2.90625 0,-1.1367188 -0.9023437,-1.9335938 -2.1210937,-1.9335938 -1.125,0 -1.85156251,0.9140625 -1.85156251,1.8046875 0,0.5507813 0.4921875,0.5507813 0.52734371,0.5507813 0.1640625,0 0.515625,-0.1171875 0.515625,-0.5273438 0,-0.2578125 -0.1875,-0.515625 -0.5273437,-0.515625 -0.0820313,0 -0.10546876,0 -0.12890626,0.011719 0.22265626,-0.6445313 0.76171876,-1.0195313 1.33593746,-1.0195313 0.9140625,0 1.3359375,0.8085938 1.3359375,1.6289063 0,0.796875 -0.4921875,1.5820312 -1.0429687,2.203125 L 0.60983594,-0.36296094 C 0.50436719,-0.25749219 0.50436719,-0.23405469 0.50436719,3.203125e-4 H 4.1957734 L 4.4770234,-1.7340547 H 4.2192109 c -0.046875,0.3046875 -0.1171875,0.73828126 -0.2109375,0.89062501 -0.070312,0.0820313 -0.7265625,0.0820313 -0.9492187,0.0820313 z m 0,0"
       style="fill:#000000;fill-opacity:1;fill-rule:nonzero;stroke:none"
       aria-label="2"
       transform="matrix(1.3333333,0,0,1.3333333,255.86267,16.370667)" />
    <path
       id="path35"
       d="M 1.2645156,-0.76253125 2.3192031,-1.7937812 c 1.5585938,-1.3710938 2.15625,-1.9101563 2.15625,-2.90625 0,-1.1367188 -0.9023437,-1.9335938 -2.1210937,-1.9335938 -1.125,0 -1.85156252,0.9140625 -1.85156252,1.8046875 0,0.5507813 0.4921875,0.5507813 0.52734372,0.5507813 0.1640625,0 0.515625,-0.1171875 0.515625,-0.5273438 0,-0.2578125 -0.1875,-0.515625 -0.5273437,-0.515625 -0.0820313,0 -0.10546877,0 -0.12890627,0.011719 0.22265627,-0.6445313 0.76171877,-1.0195313 1.33593747,-1.0195313 0.9140625,0 1.3359375,0.8085938 1.3359375,1.6289063 0,0.796875 -0.4921875,1.5820312 -1.0429687,2.203125 L 0.60826563,-0.36409375 C 0.50279688,-0.258625 0.50279688,-0.2351875 0.50279688,-8.125e-4 H 4.1942031 l 0.28125,-1.734375 H 4.2176406 c -0.046875,0.3046875 -0.1171875,0.73828125 -0.2109375,0.890625 -0.070312,0.0820313 -0.7265625,0.0820313 -0.9492187,0.0820313 z m 0,0"
       style="fill:#000000;fill-opacity:1;fill-rule:nonzero;stroke:none"
       aria-label="2"
       transform="matrix(1.3333333,0,0,1.3333333,318.11867,38.157333)" />
    <path
       id="path36"
       d="M 1.2668281,-0.76163281 2.3215156,-1.7928828 c 1.5585938,-1.3710938 2.15625,-1.9101563 2.15625,-2.90625 0,-1.1367188 -0.9023437,-1.9335938 -2.1210937,-1.9335938 -1.125,0 -1.85156253,0.9140625 -1.85156253,1.8046875 0,0.5507813 0.4921875,0.5507813 0.52734373,0.5507813 0.1640625,0 0.515625,-0.1171875 0.515625,-0.5273438 0,-0.2578125 -0.1875,-0.515625 -0.5273437,-0.515625 -0.0820313,0 -0.10546878,0 -0.12890628,0.011719 0.22265628,-0.6445313 0.76171878,-1.0195313 1.33593748,-1.0195313 0.9140625,0 1.3359375,0.8085938 1.3359375,1.6289063 0,0.796875 -0.4921875,1.5820312 -1.0429687,2.203125 L 0.61057812,-0.36319531 C 0.50510937,-0.25772656 0.50510937,-0.23428906 0.50510937,8.59375e-5 H 4.1965156 L 4.4777656,-1.7342891 H 4.2199531 c -0.046875,0.3046875 -0.1171875,0.73828129 -0.2109375,0.89062504 -0.070312,0.0820313 -0.7265625,0.0820313 -0.9492187,0.0820313 z m 0,0"
       style="fill:#000000;fill-opacity:1;fill-rule:nonzero;stroke:none"
       aria-label="2"
       transform="matrix(1.3333333,0,0,1.3333333,168.70933,138.05067)" />
  </g>
</svg>
