<?xml version="1.0" encoding="UTF-8" standalone="no"?>
<!-- Created with Inkscape (http://www.inkscape.org/) -->

<svg
   version="1.1"
   id="svg1"
   width="363.14667"
   height="233.02667"
   viewBox="0 0 363.14667 233.02667"
   sodipodi:docname="8-tensor-8-decomposition-6.pdf"
   xmlns:inkscape="http://www.inkscape.org/namespaces/inkscape"
   xmlns:sodipodi="http://sodipodi.sourceforge.net/DTD/sodipodi-0.dtd"
   xmlns="http://www.w3.org/2000/svg"
   xmlns:svg="http://www.w3.org/2000/svg">
  <defs
     id="defs1" />
  <sodipodi:namedview
     id="namedview1"
     pagecolor="#ffffff"
     bordercolor="#000000"
     borderopacity="0.25"
     inkscape:showpageshadow="2"
     inkscape:pageopacity="0.0"
     inkscape:pagecheckerboard="0"
     inkscape:deskcolor="#d1d1d1">
    <inkscape:page
       x="0"
       y="0"
       inkscape:label="1"
       id="page1"
       width="363.14667"
       height="233.02667"
       margin="0"
       bleed="0" />
  </sodipodi:namedview>
  <g
     id="g1"
     inkscape:groupmode="layer"
     inkscape:label="1">
    <path
       id="path1"
       d="M 12.55302,-31.90561 H 28.89287 V -48.24548 H 12.55302 Z"
       style="fill:#f5a623;fill-opacity:0.2;fill-rule:nonzero;stroke:#000000;stroke-width:0.74721;stroke-linecap:butt;stroke-linejoin:miter;stroke-miterlimit:10;stroke-dasharray:none;stroke-opacity:1"
       transform="matrix(1.3333333,0,0,-1.3333333,-11.816,-42.045333)" />
    <path
       id="path2"
       d="M 28.89287,-31.90561 H 45.23273 V -48.24548 H 28.89287 Z"
       style="fill:#f5a623;fill-opacity:0.2;fill-rule:nonzero;stroke:#000000;stroke-width:0.74721;stroke-linecap:butt;stroke-linejoin:miter;stroke-miterlimit:10;stroke-dasharray:none;stroke-opacity:1"
       transform="matrix(1.3333333,0,0,-1.3333333,-11.816,-42.045333)" />
    <path
       id="path3"
       d="M 12.55302,-48.24548 H 28.89287 V -64.58534 H 12.55302 Z"
       style="fill:#f5a623;fill-opacity:0.2;fill-rule:nonzero;stroke:#000000;stroke-width:0.74721;stroke-linecap:butt;stroke-linejoin:miter;stroke-miterlimit:10;stroke-dasharray:none;stroke-opacity:1"
       transform="matrix(1.3333333,0,0,-1.3333333,-11.816,-42.045333)" />
    <path
       id="path4"
       d="M 63.0162,-31.90561 H 79.35606 V -48.24548 H 63.0162 Z"
       style="fill:#f5a623;fill-opacity:0.2;fill-rule:nonzero;stroke:#000000;stroke-width:0.74721;stroke-linecap:butt;stroke-linejoin:miter;stroke-miterlimit:10;stroke-dasharray:none;stroke-opacity:1"
       transform="matrix(1.3333333,0,0,-1.3333333,-11.816,-42.045333)" />
    <path
       id="path5"
       d="M 79.35606,-31.90561 H 95.69594 V -48.24548 H 79.35606 Z"
       style="fill:#f5a623;fill-opacity:0.2;fill-rule:nonzero;stroke:#000000;stroke-width:0.74721;stroke-linecap:butt;stroke-linejoin:miter;stroke-miterlimit:10;stroke-dasharray:none;stroke-opacity:1"
       transform="matrix(1.3333333,0,0,-1.3333333,-11.816,-42.045333)" />
    <path
       id="path6"
       d="M 63.0162,-48.24548 H 79.35606 V -64.58534 H 63.0162 Z"
       style="fill:#f5a623;fill-opacity:0.2;fill-rule:nonzero;stroke:#000000;stroke-width:0.74721;stroke-linecap:butt;stroke-linejoin:miter;stroke-miterlimit:10;stroke-dasharray:none;stroke-opacity:1"
       transform="matrix(1.3333333,0,0,-1.3333333,-11.816,-42.045333)" />
    <path
       id="path7"
       d="m 129.71468,-32.42865 h 16.33984 v -16.33987 h -16.33984 z"
       style="fill:#f5a623;fill-opacity:1;fill-rule:nonzero;stroke:#000000;stroke-width:0.74721;stroke-linecap:butt;stroke-linejoin:miter;stroke-miterlimit:10;stroke-dasharray:none;stroke-opacity:1"
       transform="matrix(1.3333333,0,0,-1.3333333,-11.816,-42.045333)" />
    <path
       id="path8"
       d="m 146.05452,-32.42865 h 16.33986 v -16.33987 h -16.33986 z"
       style="fill:#f5a623;fill-opacity:1;fill-rule:nonzero;stroke:#000000;stroke-width:0.74721;stroke-linecap:butt;stroke-linejoin:miter;stroke-miterlimit:10;stroke-dasharray:none;stroke-opacity:1"
       transform="matrix(1.3333333,0,0,-1.3333333,-11.816,-42.045333)" />
    <path
       id="path9"
       d="m 129.71468,-48.76852 h 16.33984 v -16.33986 h -16.33984 z"
       style="fill:#f5a623;fill-opacity:1;fill-rule:nonzero;stroke:#000000;stroke-width:0.74721;stroke-linecap:butt;stroke-linejoin:miter;stroke-miterlimit:10;stroke-dasharray:none;stroke-opacity:1"
       transform="matrix(1.3333333,0,0,-1.3333333,-11.816,-42.045333)" />
    <path
       id="path10"
       d="m 162.39438,-32.42865 h 16.33987 v -16.33987 h -16.33987 z"
       style="fill:#f5a623;fill-opacity:0.2;fill-rule:nonzero;stroke:#000000;stroke-width:0.74721;stroke-linecap:butt;stroke-linejoin:miter;stroke-miterlimit:10;stroke-dasharray:none;stroke-opacity:1"
       transform="matrix(1.3333333,0,0,-1.3333333,-11.816,-42.045333)" />
    <path
       id="path11"
       d="m 178.73425,-32.42865 h 16.33989 v -16.33987 h -16.33989 z"
       style="fill:#f5a623;fill-opacity:0.2;fill-rule:nonzero;stroke:#000000;stroke-width:0.74721;stroke-linecap:butt;stroke-linejoin:miter;stroke-miterlimit:10;stroke-dasharray:none;stroke-opacity:1"
       transform="matrix(1.3333333,0,0,-1.3333333,-11.816,-42.045333)" />
    <path
       id="path12"
       d="m 215.49374,-32.42865 h 16.33985 v -16.33987 h -16.33985 z"
       style="fill:#f5a623;fill-opacity:1;fill-rule:nonzero;stroke:#000000;stroke-width:0.74721;stroke-linecap:butt;stroke-linejoin:miter;stroke-miterlimit:10;stroke-dasharray:none;stroke-opacity:1"
       transform="matrix(1.3333333,0,0,-1.3333333,-11.816,-42.045333)" />
    <path
       id="path13"
       d="m 231.83359,-32.42865 h 16.33986 v -16.33987 h -16.33986 z"
       style="fill:#f5a623;fill-opacity:1;fill-rule:nonzero;stroke:#000000;stroke-width:0.74721;stroke-linecap:butt;stroke-linejoin:miter;stroke-miterlimit:10;stroke-dasharray:none;stroke-opacity:1"
       transform="matrix(1.3333333,0,0,-1.3333333,-11.816,-42.045333)" />
    <path
       id="path14"
       d="m 215.49374,-48.76852 h 16.33985 v -16.33986 h -16.33985 z"
       style="fill:#f5a623;fill-opacity:1;fill-rule:nonzero;stroke:#000000;stroke-width:0.74721;stroke-linecap:butt;stroke-linejoin:miter;stroke-miterlimit:10;stroke-dasharray:none;stroke-opacity:1"
       transform="matrix(1.3333333,0,0,-1.3333333,-11.816,-42.045333)" />
    <path
       id="path15"
       d="m 248.17345,-32.42865 h 16.33987 v -16.33987 h -16.33987 z"
       style="fill:#f5a623;fill-opacity:0.2;fill-rule:nonzero;stroke:#000000;stroke-width:0.74721;stroke-linecap:butt;stroke-linejoin:miter;stroke-miterlimit:10;stroke-dasharray:none;stroke-opacity:1"
       transform="matrix(1.3333333,0,0,-1.3333333,-11.816,-42.045333)" />
    <path
       id="path16"
       d="M 264.51332,-32.42865 H 280.8532 V -48.76852 H 264.51332 Z"
       style="fill:#f5a623;fill-opacity:0.2;fill-rule:nonzero;stroke:#000000;stroke-width:0.74721;stroke-linecap:butt;stroke-linejoin:miter;stroke-miterlimit:10;stroke-dasharray:none;stroke-opacity:1"
       transform="matrix(1.3333333,0,0,-1.3333333,-11.816,-42.045333)" />
    <path
       id="path17"
       d="m 146.05452,-48.76852 h 16.33986 v -16.33986 h -16.33986 z"
       style="fill:#f5a623;fill-opacity:0.2;fill-rule:nonzero;stroke:#000000;stroke-width:0.74721;stroke-linecap:butt;stroke-linejoin:miter;stroke-miterlimit:10;stroke-dasharray:none;stroke-opacity:1"
       transform="matrix(1.3333333,0,0,-1.3333333,-11.816,-42.045333)" />
    <path
       id="path18"
       d="m 215.49374,-65.10838 h 16.33985 v -16.33986 h -16.33985 z"
       style="fill:#f5a623;fill-opacity:0.2;fill-rule:nonzero;stroke:#000000;stroke-width:0.74721;stroke-linecap:butt;stroke-linejoin:miter;stroke-miterlimit:10;stroke-dasharray:none;stroke-opacity:1"
       transform="matrix(1.3333333,0,0,-1.3333333,-11.816,-42.045333)" />
    <path
       id="path19"
       d="m 129.71468,-96.76295 h 16.33984 v -16.33986 h -16.33984 z"
       style="fill:#f5a623;fill-opacity:1;fill-rule:nonzero;stroke:#000000;stroke-width:0.74721;stroke-linecap:butt;stroke-linejoin:miter;stroke-miterlimit:10;stroke-dasharray:none;stroke-opacity:1"
       transform="matrix(1.3333333,0,0,-1.3333333,-11.816,-42.045333)" />
    <path
       id="path20"
       d="m 146.05452,-96.76295 h 16.33986 v -16.33986 h -16.33986 z"
       style="fill:#f5a623;fill-opacity:1;fill-rule:nonzero;stroke:#000000;stroke-width:0.74721;stroke-linecap:butt;stroke-linejoin:miter;stroke-miterlimit:10;stroke-dasharray:none;stroke-opacity:1"
       transform="matrix(1.3333333,0,0,-1.3333333,-11.816,-42.045333)" />
    <path
       id="path21"
       d="m 129.71468,-113.10281 h 16.33984 v -16.33986 h -16.33984 z"
       style="fill:#f5a623;fill-opacity:1;fill-rule:nonzero;stroke:#000000;stroke-width:0.74721;stroke-linecap:butt;stroke-linejoin:miter;stroke-miterlimit:10;stroke-dasharray:none;stroke-opacity:1"
       transform="matrix(1.3333333,0,0,-1.3333333,-11.816,-42.045333)" />
    <path
       id="path22"
       d="m 162.39438,-96.76295 h 16.33987 v -16.33986 h -16.33987 z"
       style="fill:#f5a623;fill-opacity:0.2;fill-rule:nonzero;stroke:#000000;stroke-width:0.74721;stroke-linecap:butt;stroke-linejoin:miter;stroke-miterlimit:10;stroke-dasharray:none;stroke-opacity:1"
       transform="matrix(1.3333333,0,0,-1.3333333,-11.816,-42.045333)" />
    <path
       id="path23"
       d="m 162.39438,-113.10281 h 16.33987 v -16.33986 h -16.33987 z"
       style="fill:#f5a623;fill-opacity:0.2;fill-rule:nonzero;stroke:#000000;stroke-width:0.74721;stroke-linecap:butt;stroke-linejoin:miter;stroke-miterlimit:10;stroke-dasharray:none;stroke-opacity:1"
       transform="matrix(1.3333333,0,0,-1.3333333,-11.816,-42.045333)" />
    <path
       id="path24"
       d="m 146.05452,-113.10281 h 16.33986 v -16.33986 h -16.33986 z"
       style="fill:#f5a623;fill-opacity:0.2;fill-rule:nonzero;stroke:#000000;stroke-width:0.74721;stroke-linecap:butt;stroke-linejoin:miter;stroke-miterlimit:10;stroke-dasharray:none;stroke-opacity:1"
       transform="matrix(1.3333333,0,0,-1.3333333,-11.816,-42.045333)" />
    <path
       id="path25"
       d="m 214.97069,-96.76295 h 16.33986 v -16.33986 h -16.33986 z"
       style="fill:#f5a623;fill-opacity:1;fill-rule:nonzero;stroke:#000000;stroke-width:0.74721;stroke-linecap:butt;stroke-linejoin:miter;stroke-miterlimit:10;stroke-dasharray:none;stroke-opacity:1"
       transform="matrix(1.3333333,0,0,-1.3333333,-11.816,-42.045333)" />
    <path
       id="path26"
       d="m 231.31055,-96.76295 h 16.33985 v -16.33986 h -16.33985 z"
       style="fill:#f5a623;fill-opacity:1;fill-rule:nonzero;stroke:#000000;stroke-width:0.74721;stroke-linecap:butt;stroke-linejoin:miter;stroke-miterlimit:10;stroke-dasharray:none;stroke-opacity:1"
       transform="matrix(1.3333333,0,0,-1.3333333,-11.816,-42.045333)" />
    <path
       id="path27"
       d="m 214.97069,-113.10281 h 16.33986 v -16.33986 h -16.33986 z"
       style="fill:#f5a623;fill-opacity:1;fill-rule:nonzero;stroke:#000000;stroke-width:0.74721;stroke-linecap:butt;stroke-linejoin:miter;stroke-miterlimit:10;stroke-dasharray:none;stroke-opacity:1"
       transform="matrix(1.3333333,0,0,-1.3333333,-11.816,-42.045333)" />
    <path
       id="path28"
       d="m 247.6504,-96.76295 h 16.33988 v -16.33986 H 247.6504 Z"
       style="fill:#f5a623;fill-opacity:0.2;fill-rule:nonzero;stroke:#000000;stroke-width:0.74721;stroke-linecap:butt;stroke-linejoin:miter;stroke-miterlimit:10;stroke-dasharray:none;stroke-opacity:1"
       transform="matrix(1.3333333,0,0,-1.3333333,-11.816,-42.045333)" />
    <path
       id="path29"
       d="m 231.31055,-113.10281 h 16.33985 v -16.33986 h -16.33985 z"
       style="fill:#f5a623;fill-opacity:0.2;fill-rule:nonzero;stroke:#000000;stroke-width:0.74721;stroke-linecap:butt;stroke-linejoin:miter;stroke-miterlimit:10;stroke-dasharray:none;stroke-opacity:1"
       transform="matrix(1.3333333,0,0,-1.3333333,-11.816,-42.045333)" />
    <path
       id="path30"
       d="m 214.97069,-129.44267 h 16.33986 v -16.33988 h -16.33986 z"
       style="fill:#f5a623;fill-opacity:0.2;fill-rule:nonzero;stroke:#000000;stroke-width:0.74721;stroke-linecap:butt;stroke-linejoin:miter;stroke-miterlimit:10;stroke-dasharray:none;stroke-opacity:1"
       transform="matrix(1.3333333,0,0,-1.3333333,-11.816,-42.045333)" />
    <path
       id="path31"
       d="m 214.97069,-156.91292 h 16.33986 v -16.33984 h -16.33986 z"
       style="fill:#f5a623;fill-opacity:1;fill-rule:nonzero;stroke:#000000;stroke-width:0.74721;stroke-linecap:butt;stroke-linejoin:miter;stroke-miterlimit:10;stroke-dasharray:none;stroke-opacity:1"
       transform="matrix(1.3333333,0,0,-1.3333333,-11.816,-42.045333)" />
    <path
       id="path32"
       d="m 231.31055,-156.91292 h 16.33985 v -16.33984 h -16.33985 z"
       style="fill:#f5a623;fill-opacity:1;fill-rule:nonzero;stroke:#000000;stroke-width:0.74721;stroke-linecap:butt;stroke-linejoin:miter;stroke-miterlimit:10;stroke-dasharray:none;stroke-opacity:1"
       transform="matrix(1.3333333,0,0,-1.3333333,-11.816,-42.045333)" />
    <path
       id="path33"
       d="m 214.97069,-173.25276 h 16.33986 v -16.33986 h -16.33986 z"
       style="fill:#f5a623;fill-opacity:1;fill-rule:nonzero;stroke:#000000;stroke-width:0.74721;stroke-linecap:butt;stroke-linejoin:miter;stroke-miterlimit:10;stroke-dasharray:none;stroke-opacity:1"
       transform="matrix(1.3333333,0,0,-1.3333333,-11.816,-42.045333)" />
    <path
       id="path34"
       d="m 247.6504,-156.91292 h 16.33988 v -16.33984 H 247.6504 Z"
       style="fill:#f5a623;fill-opacity:0.2;fill-rule:nonzero;stroke:#000000;stroke-width:0.74721;stroke-linecap:butt;stroke-linejoin:miter;stroke-miterlimit:10;stroke-dasharray:none;stroke-opacity:1"
       transform="matrix(1.3333333,0,0,-1.3333333,-11.816,-42.045333)" />
    <path
       id="path35"
       d="m 231.31055,-173.25276 h 16.33985 v -16.33986 h -16.33985 z"
       style="fill:#f5a623;fill-opacity:0.2;fill-rule:nonzero;stroke:#000000;stroke-width:0.74721;stroke-linecap:butt;stroke-linejoin:miter;stroke-miterlimit:10;stroke-dasharray:none;stroke-opacity:1"
       transform="matrix(1.3333333,0,0,-1.3333333,-11.816,-42.045333)" />
    <path
       id="path36"
       d="m 214.97069,-189.59262 h 16.33986 v -16.33988 h -16.33986 z"
       style="fill:#f5a623;fill-opacity:0.2;fill-rule:nonzero;stroke:#000000;stroke-width:0.74721;stroke-linecap:butt;stroke-linejoin:miter;stroke-miterlimit:10;stroke-dasharray:none;stroke-opacity:1"
       transform="matrix(1.3333333,0,0,-1.3333333,-11.816,-42.045333)" />
    <path
       id="path37"
       d="m 129.71468,-156.91292 h 16.33984 v -16.33984 h -16.33984 z"
       style="fill:#f5a623;fill-opacity:1;fill-rule:nonzero;stroke:#000000;stroke-width:0.74721;stroke-linecap:butt;stroke-linejoin:miter;stroke-miterlimit:10;stroke-dasharray:none;stroke-opacity:1"
       transform="matrix(1.3333333,0,0,-1.3333333,-11.816,-42.045333)" />
    <path
       id="path38"
       d="m 146.05452,-156.91292 h 16.33986 v -16.33984 h -16.33986 z"
       style="fill:#f5a623;fill-opacity:1;fill-rule:nonzero;stroke:#000000;stroke-width:0.74721;stroke-linecap:butt;stroke-linejoin:miter;stroke-miterlimit:10;stroke-dasharray:none;stroke-opacity:1"
       transform="matrix(1.3333333,0,0,-1.3333333,-11.816,-42.045333)" />
    <path
       id="path39"
       d="m 129.71468,-173.25276 h 16.33984 v -16.33986 h -16.33984 z"
       style="fill:#f5a623;fill-opacity:1;fill-rule:nonzero;stroke:#000000;stroke-width:0.74721;stroke-linecap:butt;stroke-linejoin:miter;stroke-miterlimit:10;stroke-dasharray:none;stroke-opacity:1"
       transform="matrix(1.3333333,0,0,-1.3333333,-11.816,-42.045333)" />
    <path
       id="path40"
       d="m 146.05452,-189.59262 h 16.33986 v -16.33988 h -16.33986 z"
       style="fill:#f5a623;fill-opacity:0.2;fill-rule:nonzero;stroke:#000000;stroke-width:0.74721;stroke-linecap:butt;stroke-linejoin:miter;stroke-miterlimit:10;stroke-dasharray:none;stroke-opacity:1"
       transform="matrix(1.3333333,0,0,-1.3333333,-11.816,-42.045333)" />
    <path
       id="path41"
       d="m 146.05452,-173.25276 h 16.33986 v -16.33986 h -16.33986 z"
       style="fill:#f5a623;fill-opacity:0.2;fill-rule:nonzero;stroke:#000000;stroke-width:0.74721;stroke-linecap:butt;stroke-linejoin:miter;stroke-miterlimit:10;stroke-dasharray:none;stroke-opacity:1"
       transform="matrix(1.3333333,0,0,-1.3333333,-11.816,-42.045333)" />
    <path
       id="path42"
       d="m 129.71468,-189.59262 h 16.33984 v -16.33988 h -16.33984 z"
       style="fill:#f5a623;fill-opacity:0.2;fill-rule:nonzero;stroke:#000000;stroke-width:0.74721;stroke-linecap:butt;stroke-linejoin:miter;stroke-miterlimit:10;stroke-dasharray:none;stroke-opacity:1"
       transform="matrix(1.3333333,0,0,-1.3333333,-11.816,-42.045333)" />
    <path
       id="path43"
       d="m 7.1945781,-2.4966641 c 0,-1.828125 -1.5,-3.3164062 -3.3164062,-3.3164062 -1.8515625,0 -3.32812503,1.5117187 -3.32812503,3.3164062 0,1.83984379 1.48828123,3.32812504 3.31640623,3.32812504 1.8515625,0 3.328125,-1.51171875 3.328125,-3.32812504 z m -5.296875,-2.1328125 c -0.023437,-0.023437 -0.09375,-0.09375 -0.09375,-0.1171875 0,-0.035156 0.8085938,-0.8085937 2.0625,-0.8085937 0.3515625,0 1.265625,0.046875 2.0742188,0.8085937 l -2.0625,2.0859375 z M 1.6047344,-0.41072656 C 0.99535937,-1.0904141 0.79614062,-1.8521328 0.79614062,-2.4966641 c 0,-0.7617187 0.29296878,-1.4882812 0.80859378,-2.0742187 l 2.0859375,2.0742187 z M 6.1281719,-4.5708828 c 0.4804687,0.5039062 0.8085937,1.265625 0.8085937,2.0742187 0,0.7734375 -0.28125,1.50000004 -0.796875,2.08593754 L 4.0539531,-2.4966641 Z m -0.28125,4.21874999 c 0.023437,0.0234375 0.09375,0.09375 0.09375,0.1171875 0,0.0351563 -0.8085938,0.80859375 -2.0625,0.80859375 -0.3515625,0 -1.265625,-0.046875 -2.0859375,-0.80859375 L 3.8664531,-2.3208828 Z m 0,0"
       style="fill:#000000;fill-opacity:1;fill-rule:nonzero;stroke:none"
       aria-label="⊗"
       transform="matrix(1.3333333,0,0,1.3333333,55.930667,26.754667)" />
    <path
       id="path44"
       d="m 2.928625,-6.3746094 c 0,-0.234375 0,-0.2578125 -0.234375,-0.2578125 -0.609375,0.6328125 -1.4882812,0.6328125 -1.8046875,0.6328125 v 0.3164063 c 0.1992188,0 0.7851563,0 1.3007813,-0.2578125 v 5.15624997 c 0,0.3515625 -0.035156,0.48046875 -0.9257813,0.48046875 H 0.94815625 V 3.90625e-4 C 1.2997188,-0.03476563 2.1551875,-0.03476563 2.553625,-0.03476563 c 0.3984375,0 1.265625,0 1.6171875,0.035156255 V -0.30429688 H 3.8544063 c -0.9023438,0 -0.9257813,-0.1171875 -0.9257813,-0.48046875 z m 0,0"
       style="fill:#000000;fill-opacity:1;fill-rule:nonzero;stroke:none"
       aria-label="1"
       transform="matrix(1.3333333,0,0,1.3333333,212.28267,16.366667)" />
    <path
       id="path45"
       d="m 2.9284922,-6.3746094 c 0,-0.234375 0,-0.2578125 -0.234375,-0.2578125 -0.609375,0.6328125 -1.4882813,0.6328125 -1.80468751,0.6328125 v 0.3164063 c 0.19921871,0 0.78515621,0 1.30078121,-0.2578125 v 5.15624997 c 0,0.3515625 -0.035156,0.48046875 -0.9257812,0.48046875 H 0.94802344 V 3.90625e-4 C 1.2995859,-0.03476563 2.1550547,-0.03476563 2.5534922,-0.03476563 c 0.3984375,0 1.265625,0 1.6171875,0.035156255 V -0.30429688 H 3.8542734 c -0.9023437,0 -0.9257812,-0.1171875 -0.9257812,-0.48046875 z m 0,0"
       style="fill:#000000;fill-opacity:1;fill-rule:nonzero;stroke:none"
       aria-label="1"
       transform="matrix(1.3333333,0,0,1.3333333,234.068,16.366667)" />
    <path
       id="path46"
       d="m 2.930875,-6.3746094 c 0,-0.234375 0,-0.2578125 -0.234375,-0.2578125 -0.609375,0.6328125 -1.4882813,0.6328125 -1.8046875,0.6328125 v 0.3164063 c 0.1992187,0 0.7851562,0 1.3007812,-0.2578125 v 5.15624997 c 0,0.3515625 -0.035156,0.48046875 -0.9257812,0.48046875 H 0.95040625 V 3.90625e-4 C 1.3019687,-0.03476563 2.1574375,-0.03476563 2.555875,-0.03476563 c 0.3984375,0 1.265625,0 1.6171875,0.035156255 V -0.30429688 H 3.8566562 c -0.9023437,0 -0.9257812,-0.1171875 -0.9257812,-0.48046875 z m 0,0"
       style="fill:#000000;fill-opacity:1;fill-rule:nonzero;stroke:none"
       aria-label="1"
       transform="matrix(1.3333333,0,0,1.3333333,326.65467,16.366667)" />
    <path
       id="path47"
       d="m 2.9297422,-6.3746094 c 0,-0.234375 0,-0.2578125 -0.234375,-0.2578125 -0.609375,0.6328125 -1.4882813,0.6328125 -1.80468751,0.6328125 v 0.3164063 c 0.19921871,0 0.78515621,0 1.30078121,-0.2578125 v 5.15624997 c 0,0.3515625 -0.035156,0.48046875 -0.9257812,0.48046875 H 0.94927344 V 3.90625e-4 C 1.3008359,-0.03476563 2.1563047,-0.03476563 2.5547422,-0.03476563 c 0.3984375,0 1.265625,0 1.6171875,0.035156255 V -0.30429688 H 3.8555234 c -0.9023437,0 -0.9257812,-0.1171875 -0.9257812,-0.48046875 z m 0,0"
       style="fill:#000000;fill-opacity:1;fill-rule:nonzero;stroke:none"
       aria-label="1"
       transform="matrix(1.3333333,0,0,1.3333333,348.44133,16.366667)" />
    <path
       id="path48"
       d="M 1.2656953,-0.76246094 2.3203828,-1.7937109 c 1.5585938,-1.3710938 2.15625,-1.9101563 2.15625,-2.90625 0,-1.1367188 -0.9023437,-1.9335938 -2.1210937,-1.9335938 -1.125,0 -1.85156254,0.9140625 -1.85156254,1.8046875 0,0.5507813 0.4921875,0.5507813 0.52734374,0.5507813 0.1640625,0 0.515625,-0.1171875 0.515625,-0.5273438 0,-0.2578125 -0.1875,-0.515625 -0.5273437,-0.515625 -0.0820313,0 -0.10546879,0 -0.12890629,0.011719 C 1.1133516,-5.953867 1.6524141,-6.328867 2.2266328,-6.328867 c 0.9140625,0 1.3359375,0.8085938 1.3359375,1.6289063 0,0.796875 -0.4921875,1.5820312 -1.0429687,2.203125 L 0.60944531,-0.36402344 C 0.50397656,-0.25855469 0.50397656,-0.23511719 0.50397656,-7.421875e-4 H 4.1953828 L 4.4766328,-1.7351172 H 4.2188203 c -0.046875,0.3046875 -0.1171875,0.73828126 -0.2109375,0.89062501 -0.070312,0.0820313 -0.7265625,0.0820313 -0.9492187,0.0820313 z m 0,0"
       style="fill:#000000;fill-opacity:1;fill-rule:nonzero;stroke:none"
       aria-label="2"
       transform="matrix(1.3333333,0,0,1.3333333,190.496,38.153333)" />
    <path
       id="path49"
       d="M 1.2661484,-0.76066406 2.3208359,-1.7919141 c 1.5585938,-1.3710937 2.15625,-1.9101562 2.15625,-2.90625 0,-1.1367187 -0.9023437,-1.9335937 -2.1210937,-1.9335937 -1.125,0 -1.85156251,0.9140625 -1.85156251,1.8046875 0,0.5507812 0.4921875,0.5507812 0.52734371,0.5507812 0.1640625,0 0.515625,-0.1171875 0.515625,-0.5273437 0,-0.2578125 -0.1875,-0.515625 -0.5273437,-0.515625 -0.0820313,0 -0.10546876,0 -0.12890626,0.011719 C 1.1138047,-5.95207 1.6528672,-6.32707 2.2270859,-6.32707 c 0.9140625,0 1.3359375,0.8085937 1.3359375,1.6289062 0,0.796875 -0.4921875,1.5820313 -1.0429687,2.203125 L 0.60989844,-0.36222656 C 0.50442969,-0.25675781 0.50442969,-0.23332031 0.50442969,0.00105469 H 4.1958359 l 0.28125,-1.73437499 H 4.2192734 c -0.046875,0.3046875 -0.1171875,0.73828124 -0.2109375,0.89062499 -0.070312,0.0820313 -0.7265625,0.0820313 -0.9492187,0.0820313 z m 0,0"
       style="fill:#000000;fill-opacity:1;fill-rule:nonzero;stroke:none"
       aria-label="2"
       transform="matrix(1.3333333,0,0,1.3333333,283.08133,59.94)" />
    <path
       id="path50"
       d="m 2.928625,-6.3756016 c 0,-0.234375 0,-0.2578125 -0.234375,-0.2578125 -0.609375,0.6328125 -1.4882812,0.6328125 -1.8046875,0.6328125 v 0.3164063 c 0.1992188,0 0.7851563,0 1.3007813,-0.2578125 v 5.15624999 c 0,0.3515625 -0.035156,0.48046875 -0.9257813,0.48046875 H 0.94815625 V -6.015625e-4 C 1.2997188,-0.03575781 2.1551875,-0.03575781 2.553625,-0.03575781 c 0.3984375,0 1.265625,0 1.6171875,0.0351562475 V -0.30528906 H 3.8544063 c -0.9023438,0 -0.9257813,-0.1171875 -0.9257813,-0.48046875 z m 0,0"
       style="fill:#000000;fill-opacity:1;fill-rule:nonzero;stroke:none"
       aria-label="1"
       transform="matrix(1.3333333,0,0,1.3333333,212.28267,102.14533)" />
    <path
       id="path51"
       d="m 2.9297578,-6.3738047 c 0,-0.234375 0,-0.2578125 -0.234375,-0.2578125 -0.609375,0.6328125 -1.4882812,0.6328125 -1.80468749,0.6328125 v 0.3164063 c 0.19921879,0 0.78515629,0 1.30078129,-0.2578125 v 5.15624996 c 0,0.3515625 -0.035156,0.48046875 -0.9257813,0.48046875 H 0.94928906 v 0.3046875 C 1.3008516,-0.03396094 2.1563203,-0.03396094 2.5547578,-0.03396094 c 0.3984375,0 1.265625,0 1.6171875,0.03515625 v -0.3046875 H 3.8555391 c -0.9023438,0 -0.9257813,-0.1171875 -0.9257813,-0.48046875 z m 0,0"
       style="fill:#000000;fill-opacity:1;fill-rule:nonzero;stroke:none"
       aria-label="1"
       transform="matrix(1.3333333,0,0,1.3333333,190.496,123.932)" />
    <path
       id="path52"
       d="M 1.2645625,-0.76052344 2.31925,-1.7917734 c 1.5585938,-1.3710938 2.15625,-1.9101563 2.15625,-2.90625 0,-1.1367188 -0.9023437,-1.9335938 -2.1210937,-1.9335938 -1.125,0 -1.85156255,0.9140625 -1.85156255,1.8046875 0,0.5507813 0.4921875,0.5507813 0.52734375,0.5507813 0.1640625,0 0.515625,-0.1171875 0.515625,-0.5273438 0,-0.2578125 -0.1875,-0.515625 -0.5273437,-0.515625 -0.0820313,0 -0.1054688,0 -0.1289063,0.011719 0.2226563,-0.6445313 0.7617188,-1.0195313 1.3359375,-1.0195313 0.9140625,0 1.3359375,0.8085938 1.3359375,1.6289063 0,0.796875 -0.4921875,1.5820312 -1.0429687,2.203125 L 0.6083125,-0.36208594 C 0.50284375,-0.25661719 0.50284375,-0.23317969 0.50284375,0.00119531 H 4.19425 L 4.4755,-1.7331797 H 4.2176875 C 4.1708125,-1.4284922 4.1005,-0.99489844 4.00675,-0.84255469 c -0.070313,0.0820313 -0.7265625,0.0820313 -0.9492187,0.0820313 z m 0,0"
       style="fill:#000000;fill-opacity:1;fill-rule:nonzero;stroke:none"
       aria-label="2"
       transform="matrix(1.3333333,0,0,1.3333333,212.28267,123.932)" />
    <path
       id="path53"
       d="m 2.9294609,-6.3756016 c 0,-0.234375 0,-0.2578125 -0.234375,-0.2578125 -0.609375,0.6328125 -1.4882812,0.6328125 -1.80468746,0.6328125 v 0.3164063 c 0.19921876,0 0.78515626,0 1.30078126,-0.2578125 v 5.15624999 c 0,0.3515625 -0.035156,0.48046875 -0.9257813,0.48046875 H 0.94899219 V -6.015625e-4 C 1.3005547,-0.03575781 2.1560234,-0.03575781 2.5544609,-0.03575781 c 0.3984375,0 1.265625,0 1.6171875,0.0351562475 V -0.30528906 H 3.8552422 c -0.9023438,0 -0.9257813,-0.1171875 -0.9257813,-0.48046875 z m 0,0"
       style="fill:#000000;fill-opacity:1;fill-rule:nonzero;stroke:none"
       aria-label="1"
       transform="matrix(1.3333333,0,0,1.3333333,325.95733,102.14533)" />
    <path
       id="path54"
       d="m 2.9305937,-6.3738047 c 0,-0.234375 0,-0.2578125 -0.234375,-0.2578125 -0.609375,0.6328125 -1.4882812,0.6328125 -1.80468745,0.6328125 v 0.3164063 c 0.19921875,0 0.78515625,0 1.30078125,-0.2578125 v 5.15624996 c 0,0.3515625 -0.035156,0.48046875 -0.9257813,0.48046875 H 0.950125 v 0.3046875 c 0.3515625,-0.03515625 1.2070312,-0.03515625 1.6054687,-0.03515625 0.3984375,0 1.265625,0 1.6171875,0.03515625 v -0.3046875 H 3.856375 c -0.9023438,0 -0.9257813,-0.1171875 -0.9257813,-0.48046875 z m 0,0"
       style="fill:#000000;fill-opacity:1;fill-rule:nonzero;stroke:none"
       aria-label="1"
       transform="matrix(1.3333333,0,0,1.3333333,304.17067,123.932)" />
    <path
       id="path55"
       d="M 1.2647344,-0.76165625 2.3194219,-1.7929063 c 1.5585937,-1.3710937 2.15625,-1.9101562 2.15625,-2.90625 0,-1.1367187 -0.9023438,-1.9335937 -2.1210938,-1.9335937 -1.125,0 -1.85156248,0.9140625 -1.85156248,1.8046875 0,0.5507812 0.4921875,0.5507812 0.52734378,0.5507812 0.1640625,0 0.515625,-0.1171875 0.515625,-0.5273437 0,-0.2578125 -0.1875,-0.515625 -0.5273438,-0.515625 -0.0820312,0 -0.10546873,0 -0.12890623,0.011719 0.22265623,-0.6445312 0.76171873,-1.0195312 1.33593753,-1.0195312 0.9140625,0 1.3359375,0.8085937 1.3359375,1.6289062 0,0.796875 -0.4921875,1.5820313 -1.0429688,2.203125 L 0.60848437,-0.36321875 C 0.50301562,-0.25775 0.50301562,-0.2343125 0.50301562,6.25e-5 H 4.1944219 l 0.28125,-1.734375 H 4.2178594 c -0.046875,0.3046875 -0.1171875,0.73828125 -0.2109375,0.890625 -0.070312,0.0820313 -0.7265625,0.0820313 -0.9492188,0.0820313 z m 0,0"
       style="fill:#000000;fill-opacity:1;fill-rule:nonzero;stroke:none"
       aria-label="2"
       transform="matrix(1.3333333,0,0,1.3333333,282.384,145.71867)" />
    <path
       id="path56"
       d="m 2.9294609,-6.3761875 c 0,-0.234375 0,-0.2578125 -0.234375,-0.2578125 -0.609375,0.6328125 -1.4882812,0.6328125 -1.80468746,0.6328125 v 0.3164063 c 0.19921876,0 0.78515626,0 1.30078126,-0.2578125 v 5.15624995 c 0,0.3515625 -0.035156,0.48046875 -0.9257813,0.48046875 H 0.94899219 v 0.3046875 C 1.3005547,-0.03634375 2.1560234,-0.03634375 2.5544609,-0.03634375 c 0.3984375,0 1.265625,0 1.6171875,0.03515625 V -0.305875 H 3.8552422 c -0.9023438,0 -0.9257813,-0.1171875 -0.9257813,-0.48046875 z m 0,0"
       style="fill:#000000;fill-opacity:1;fill-rule:nonzero;stroke:none"
       aria-label="1"
       transform="matrix(1.3333333,0,0,1.3333333,325.95733,182.34533)" />
    <path
       id="path57"
       d="m 2.9287969,-6.3755234 c 0,-0.234375 0,-0.2578125 -0.234375,-0.2578125 -0.609375,0.6328125 -1.4882813,0.6328125 -1.80468753,0.6328125 v 0.3164062 c 0.19921873,0 0.78515623,0 1.30078123,-0.2578125 v 5.15625001 c 0,0.3515625 -0.035156,0.48046875 -0.9257812,0.48046875 H 0.94832812 V -5.234375e-4 C 1.2998906,-0.03567969 2.1553594,-0.03567969 2.5537969,-0.03567969 c 0.3984375,0 1.265625,0 1.6171875,0.0351562525 V -0.30521094 H 3.8545781 c -0.9023437,0 -0.9257812,-0.1171875 -0.9257812,-0.48046875 z m 0,0"
       style="fill:#000000;fill-opacity:1;fill-rule:nonzero;stroke:none"
       aria-label="1"
       transform="matrix(1.3333333,0,0,1.3333333,282.384,225.91867)" />
    <path
       id="path58"
       d="M 1.2665312,-0.76110937 2.3212187,-1.7923594 c 1.5585938,-1.3710937 2.15625,-1.9101562 2.15625,-2.90625 0,-1.1367187 -0.9023437,-1.9335937 -2.1210937,-1.9335937 -1.125,0 -1.8515625,0.9140625 -1.8515625,1.8046875 0,0.5507812 0.4921875,0.5507812 0.5273437,0.5507812 0.1640625,0 0.515625,-0.1171875 0.515625,-0.5273437 0,-0.2578125 -0.1875,-0.515625 -0.5273437,-0.515625 -0.0820313,0 -0.10546875,0 -0.12890625,0.011719 C 1.1141875,-5.9525156 1.65325,-6.3275156 2.2274687,-6.3275156 c 0.9140625,0 1.3359375,0.8085937 1.3359375,1.6289062 0,0.796875 -0.4921875,1.5820313 -1.0429687,2.203125 L 0.61028125,-0.36267187 C 0.5048125,-0.25720312 0.5048125,-0.23376562 0.5048125,6.09375e-4 H 4.1962187 L 4.4774687,-1.7337656 H 4.2196562 c -0.046875,0.3046875 -0.1171875,0.73828123 -0.2109375,0.89062498 -0.070312,0.0820313 -0.7265625,0.0820313 -0.9492187,0.0820313 z m 0,0"
       style="fill:#000000;fill-opacity:1;fill-rule:nonzero;stroke:none"
       aria-label="2"
       transform="matrix(1.3333333,0,0,1.3333333,304.17067,204.132)" />
    <path
       id="path59"
       d="m 2.9297578,-6.3743906 c 0,-0.234375 0,-0.2578125 -0.234375,-0.2578125 -0.609375,0.6328125 -1.4882812,0.6328125 -1.80468749,0.6328125 v 0.3164062 c 0.19921879,0 0.78515629,0 1.30078129,-0.2578125 v 5.15625003 c 0,0.3515625 -0.035156,0.48046875 -0.9257813,0.48046875 H 0.94928906 V 6.09375e-4 C 1.3008516,-0.03454687 2.1563203,-0.03454687 2.5547578,-0.03454687 c 0.3984375,0 1.265625,0 1.6171875,0.035156245 V -0.30407812 H 3.8555391 c -0.9023438,0 -0.9257813,-0.1171875 -0.9257813,-0.48046875 z m 0,0"
       style="fill:#000000;fill-opacity:1;fill-rule:nonzero;stroke:none"
       aria-label="1"
       transform="matrix(1.3333333,0,0,1.3333333,190.496,204.132)" />
    <path
       id="path60"
       d="m 2.9308906,-6.3755234 c 0,-0.234375 0,-0.2578125 -0.234375,-0.2578125 -0.609375,0.6328125 -1.4882812,0.6328125 -1.80468748,0.6328125 v 0.3164062 c 0.19921878,0 0.78515628,0 1.30078128,-0.2578125 v 5.15625001 c 0,0.3515625 -0.035156,0.48046875 -0.9257813,0.48046875 H 0.95042187 V -5.234375e-4 C 1.3019844,-0.03567969 2.1574531,-0.03567969 2.5558906,-0.03567969 c 0.3984375,0 1.265625,0 1.6171875,0.0351562525 V -0.30521094 H 3.8566719 c -0.9023438,0 -0.9257813,-0.1171875 -0.9257813,-0.48046875 z m 0,0"
       style="fill:#000000;fill-opacity:1;fill-rule:nonzero;stroke:none"
       aria-label="1"
       transform="matrix(1.3333333,0,0,1.3333333,168.70933,225.91867)" />
    <path
       id="path61"
       d="M 1.2656953,-0.76224219 2.3203828,-1.7934922 c 1.5585938,-1.3710937 2.15625,-1.9101562 2.15625,-2.90625 0,-1.1367187 -0.9023437,-1.9335937 -2.1210937,-1.9335937 -1.125,0 -1.85156254,0.9140625 -1.85156254,1.8046875 0,0.5507812 0.4921875,0.5507812 0.52734374,0.5507812 0.1640625,0 0.515625,-0.1171875 0.515625,-0.5273437 0,-0.2578125 -0.1875,-0.515625 -0.5273437,-0.515625 -0.0820313,0 -0.10546879,0 -0.12890629,0.011719 0.22265629,-0.6445312 0.76171879,-1.0195312 1.33593749,-1.0195312 0.9140625,0 1.3359375,0.8085937 1.3359375,1.6289062 0,0.796875 -0.4921875,1.5820313 -1.0429687,2.203125 L 0.60944531,-0.36380469 C 0.50397656,-0.25833594 0.50397656,-0.23489844 0.50397656,-5.234375e-4 H 4.1953828 L 4.4766328,-1.7348984 H 4.2188203 c -0.046875,0.3046875 -0.1171875,0.73828121 -0.2109375,0.89062496 -0.070312,0.0820313 -0.7265625,0.0820313 -0.9492187,0.0820313 z m 0,0"
       style="fill:#000000;fill-opacity:1;fill-rule:nonzero;stroke:none"
       aria-label="2"
       transform="matrix(1.3333333,0,0,1.3333333,190.496,225.91867)" />
    <path
       id="path62"
       d="m 6.84425,-3.2572188 c 0.1523437,0 0.3398437,0 0.3398437,-0.1992187 0,-0.1992188 -0.1875,-0.1992188 -0.328125,-0.1992188 H 0.891125 c -0.140625,0 -0.328125,0 -0.328125,0.1992188 0,0.1992187 0.1875,0.1992187 0.33984375,0.1992187 z m 0.011719,1.9335938 c 0.140625,0 0.328125,0 0.328125,-0.1992188 0,-0.1992187 -0.1875,-0.1992187 -0.3398437,-0.1992187 H 0.90284375 c -0.15234375,0 -0.33984375,0 -0.33984375,0.1992187 0,0.1992188 0.1875,0.1992188 0.328125,0.1992188 z m 0,0"
       style="fill:#000000;fill-opacity:1;fill-rule:nonzero;stroke:none"
       aria-label="="
       transform="matrix(1.3333333,0,0,1.3333333,131.24933,24.577333)" />
    <path
       id="path63"
       d="m 7.1943203,-2.49525 c 0,-1.828125 -1.5,-3.3164062 -3.3164062,-3.3164062 -1.8515625,0 -3.32812504,1.5117187 -3.32812504,3.3164062 0,1.83984375 1.48828124,3.328125 3.31640624,3.328125 1.8515625,0 3.328125,-1.51171875 3.328125,-3.328125 z M 0.79588281,-2.6241562 C 0.90135156,-4.2882187 2.1904141,-5.4835312 3.7490078,-5.5538437 v 2.9296875 z M 3.9951016,-5.5538437 c 1.5585937,0.070312 2.8476562,1.265625 2.9414062,2.9296875 H 3.9951016 Z M 3.7490078,0.5750625 C 2.2021328,0.50475 0.90135156,-0.667125 0.79588281,-2.3663437 H 3.7490078 Z m 3.1875,-2.9414062 C 6.8427578,-0.667125 5.5302578,0.50475 3.9951016,0.5750625 v -2.9414062 z m 0,0"
       style="fill:#000000;fill-opacity:1;fill-rule:nonzero;stroke:none"
       aria-label="⊕"
       transform="matrix(1.3333333,0,0,1.3333333,256.77867,27.452)" />
    <path
       id="path64"
       d="m 7.1965156,-2.4972422 c 0,-1.828125 -1.5,-3.3164062 -3.3164062,-3.3164062 -1.8515625,0 -3.32812503,1.5117187 -3.32812503,3.3164062 0,1.83984376 1.48828123,3.32812501 3.31640623,3.32812501 1.8515625,0 3.328125,-1.51171875 3.328125,-3.32812501 z M 0.79807812,-2.6261484 C 0.90354687,-4.2902109 2.1926094,-5.4855234 3.7512031,-5.5558359 v 2.9296875 z M 3.9972969,-5.5558359 c 1.5585937,0.070312 2.8476562,1.265625 2.9414062,2.9296875 H 3.9972969 Z M 3.7512031,0.57307031 C 2.2043281,0.50275781 0.90354687,-0.66911719 0.79807812,-2.3683359 H 3.7512031 Z m 3.1875,-2.94140621 c -0.09375,1.69921871 -1.40625,2.87109371 -2.9414062,2.94140621 V -2.3683359 Z m 0,0"
       style="fill:#000000;fill-opacity:1;fill-rule:nonzero;stroke:none"
       aria-label="⊕"
       transform="matrix(1.3333333,0,0,1.3333333,141.70933,113.232)" />
    <path
       id="path65"
       d="m 7.1943203,-2.4972422 c 0,-1.828125 -1.5,-3.3164062 -3.3164062,-3.3164062 -1.8515625,0 -3.32812504,1.5117187 -3.32812504,3.3164062 0,1.83984376 1.48828124,3.32812501 3.31640624,3.32812501 1.8515625,0 3.328125,-1.51171875 3.328125,-3.32812501 z M 0.79588281,-2.6261484 C 0.90135156,-4.2902109 2.1904141,-5.4855234 3.7490078,-5.5558359 v 2.9296875 z M 3.9951016,-5.5558359 c 1.5585937,0.070312 2.8476562,1.265625 2.9414062,2.9296875 H 3.9951016 Z M 3.7490078,0.57307031 C 2.2021328,0.50275781 0.90135156,-0.66911719 0.79588281,-2.3683359 H 3.7490078 Z m 3.1875,-2.94140621 c -0.09375,1.69921871 -1.40625,2.87109371 -2.9414062,2.94140621 V -2.3683359 Z m 0,0"
       style="fill:#000000;fill-opacity:1;fill-rule:nonzero;stroke:none"
       aria-label="⊕"
       transform="matrix(1.3333333,0,0,1.3333333,256.77867,113.232)" />
    <path
       id="path66"
       d="m 7.1943203,-2.4948984 c 0,-1.828125 -1.5,-3.3164063 -3.3164062,-3.3164063 -1.8515625,0 -3.32812504,1.5117188 -3.32812504,3.3164063 0,1.83984371 1.48828124,3.32812496 3.31640624,3.32812496 1.8515625,0 3.328125,-1.51171875 3.328125,-3.32812496 z M 0.79588281,-2.6238047 C 0.90135156,-4.2878672 2.1904141,-5.4831797 3.7490078,-5.5534922 v 2.9296875 z M 3.9951016,-5.5534922 c 1.5585937,0.070312 2.8476562,1.265625 2.9414062,2.9296875 H 3.9951016 Z M 3.7490078,0.57541406 C 2.2021328,0.50510156 0.90135156,-0.66677344 0.79588281,-2.3659922 H 3.7490078 Z m 3.1875,-2.94140626 c -0.09375,1.69921876 -1.40625,2.87109376 -2.9414062,2.94140626 V -2.3659922 Z m 0,0"
       style="fill:#000000;fill-opacity:1;fill-rule:nonzero;stroke:none"
       aria-label="⊕"
       transform="matrix(1.3333333,0,0,1.3333333,256.77867,193.432)" />
    <path
       id="path67"
       d="m 7.1965156,-2.4948984 c 0,-1.828125 -1.5,-3.3164063 -3.3164062,-3.3164063 -1.8515625,0 -3.32812503,1.5117188 -3.32812503,3.3164063 0,1.83984371 1.48828123,3.32812496 3.31640623,3.32812496 1.8515625,0 3.328125,-1.51171875 3.328125,-3.32812496 z M 0.79807812,-2.6238047 C 0.90354687,-4.2878672 2.1926094,-5.4831797 3.7512031,-5.5534922 v 2.9296875 z M 3.9972969,-5.5534922 c 1.5585937,0.070312 2.8476562,1.265625 2.9414062,2.9296875 H 3.9972969 Z M 3.7512031,0.57541406 C 2.2043281,0.50510156 0.90354687,-0.66677344 0.79807812,-2.3659922 H 3.7512031 Z m 3.1875,-2.94140626 c -0.09375,1.69921876 -1.40625,2.87109376 -2.9414062,2.94140626 V -2.3659922 Z m 0,0"
       style="fill:#000000;fill-opacity:1;fill-rule:nonzero;stroke:none"
       aria-label="⊕"
       transform="matrix(1.3333333,0,0,1.3333333,141.70933,193.432)" />
  </g>
</svg>
