<?xml version="1.0" encoding="UTF-8" standalone="no"?>
<!-- Created with Inkscape (http://www.inkscape.org/) -->

<svg
   version="1.1"
   id="svg1"
   width="386.94666"
   height="91.73333"
   viewBox="0 0 386.94666 91.73333"
   sodipodi:docname="8-tensor-8-decomposition.pdf"
   xmlns:inkscape="http://www.inkscape.org/namespaces/inkscape"
   xmlns:sodipodi="http://sodipodi.sourceforge.net/DTD/sodipodi-0.dtd"
   xmlns="http://www.w3.org/2000/svg"
   xmlns:svg="http://www.w3.org/2000/svg">
  <defs
     id="defs1" />
  <sodipodi:namedview
     id="namedview1"
     pagecolor="#ffffff"
     bordercolor="#000000"
     borderopacity="0.25"
     inkscape:showpageshadow="2"
     inkscape:pageopacity="0.0"
     inkscape:pagecheckerboard="0"
     inkscape:deskcolor="#d1d1d1">
    <inkscape:page
       x="0"
       y="0"
       inkscape:label="1"
       id="page1"
       width="386.94666"
       height="91.73333"
       margin="0"
       bleed="0" />
  </sodipodi:namedview>
  <g
     id="g1"
     inkscape:groupmode="layer"
     inkscape:label="1">
    <path
       id="path1"
       d="M 17.93298,-45.57967 H 41.27574 V -68.92242 H 17.93298 Z"
       style="fill:#f5a623;fill-opacity:0.2;fill-rule:nonzero;stroke:#000000;stroke-width:0.74721;stroke-linecap:butt;stroke-linejoin:miter;stroke-miterlimit:10;stroke-dasharray:none;stroke-opacity:1"
       transform="matrix(1.3333333,0,0,-1.3333333,-18.989333,-32.78)" />
    <path
       id="path2"
       d="M 41.27574,-45.57967 H 64.6185 V -68.92242 H 41.27574 Z"
       style="fill:#f5a623;fill-opacity:0.2;fill-rule:nonzero;stroke:#000000;stroke-width:0.74721;stroke-linecap:butt;stroke-linejoin:miter;stroke-miterlimit:10;stroke-dasharray:none;stroke-opacity:1"
       transform="matrix(1.3333333,0,0,-1.3333333,-18.989333,-32.78)" />
    <path
       id="path3"
       d="M 17.93298,-68.92242 H 41.27574 V -92.26518 H 17.93298 Z"
       style="fill:#f5a623;fill-opacity:0.2;fill-rule:nonzero;stroke:#000000;stroke-width:0.74721;stroke-linecap:butt;stroke-linejoin:miter;stroke-miterlimit:10;stroke-dasharray:none;stroke-opacity:1"
       transform="matrix(1.3333333,0,0,-1.3333333,-18.989333,-32.78)" />
    <path
       id="path4"
       d="m 90.02356,-45.57967 h 23.34277 V -68.92242 H 90.02356 Z"
       style="fill:#f5a623;fill-opacity:0.2;fill-rule:nonzero;stroke:#000000;stroke-width:0.74721;stroke-linecap:butt;stroke-linejoin:miter;stroke-miterlimit:10;stroke-dasharray:none;stroke-opacity:1"
       transform="matrix(1.3333333,0,0,-1.3333333,-18.989333,-32.78)" />
    <path
       id="path5"
       d="M 113.36633,-45.57967 H 136.7091 V -68.92242 H 113.36633 Z"
       style="fill:#f5a623;fill-opacity:0.2;fill-rule:nonzero;stroke:#000000;stroke-width:0.74721;stroke-linecap:butt;stroke-linejoin:miter;stroke-miterlimit:10;stroke-dasharray:none;stroke-opacity:1"
       transform="matrix(1.3333333,0,0,-1.3333333,-18.989333,-32.78)" />
    <path
       id="path6"
       d="m 90.02356,-68.92242 h 23.34277 V -92.26518 H 90.02356 Z"
       style="fill:#f5a623;fill-opacity:0.2;fill-rule:nonzero;stroke:#000000;stroke-width:0.74721;stroke-linecap:butt;stroke-linejoin:miter;stroke-miterlimit:10;stroke-dasharray:none;stroke-opacity:1"
       transform="matrix(1.3333333,0,0,-1.3333333,-18.989333,-32.78)" />
    <path
       id="path7"
       d="m 185.3075,-46.32687 h 23.34275 V -69.66963 H 185.3075 Z"
       style="fill:#f5a623;fill-opacity:1;fill-rule:nonzero;stroke:#000000;stroke-width:0.74721;stroke-linecap:butt;stroke-linejoin:miter;stroke-miterlimit:10;stroke-dasharray:none;stroke-opacity:1"
       transform="matrix(1.3333333,0,0,-1.3333333,-18.989333,-32.78)" />
    <path
       id="path8"
       d="m 208.65025,-46.32687 h 23.34276 v -23.34276 h -23.34276 z"
       style="fill:#f5a623;fill-opacity:1;fill-rule:nonzero;stroke:#000000;stroke-width:0.74721;stroke-linecap:butt;stroke-linejoin:miter;stroke-miterlimit:10;stroke-dasharray:none;stroke-opacity:1"
       transform="matrix(1.3333333,0,0,-1.3333333,-18.989333,-32.78)" />
    <path
       id="path9"
       d="m 185.3075,-69.66963 h 23.34275 V -93.01239 H 185.3075 Z"
       style="fill:#f5a623;fill-opacity:1;fill-rule:nonzero;stroke:#000000;stroke-width:0.74721;stroke-linecap:butt;stroke-linejoin:miter;stroke-miterlimit:10;stroke-dasharray:none;stroke-opacity:1"
       transform="matrix(1.3333333,0,0,-1.3333333,-18.989333,-32.78)" />
    <path
       id="path10"
       d="m 257.39807,-46.32687 h 23.34277 v -23.34276 h -23.34277 z"
       style="fill:#f5a623;fill-opacity:0.2;fill-rule:nonzero;stroke:#000000;stroke-width:0.74721;stroke-linecap:butt;stroke-linejoin:miter;stroke-miterlimit:10;stroke-dasharray:none;stroke-opacity:1"
       transform="matrix(1.3333333,0,0,-1.3333333,-18.989333,-32.78)" />
    <path
       id="path11"
       d="m 280.74084,-46.32687 h 23.34278 v -23.34276 h -23.34278 z"
       style="fill:#f5a623;fill-opacity:0.2;fill-rule:nonzero;stroke:#000000;stroke-width:0.74721;stroke-linecap:butt;stroke-linejoin:miter;stroke-miterlimit:10;stroke-dasharray:none;stroke-opacity:1"
       transform="matrix(1.3333333,0,0,-1.3333333,-18.989333,-32.78)" />
    <path
       id="path12"
       d="m 257.39807,-69.66963 h 23.34277 v -23.34276 h -23.34277 z"
       style="fill:#f5a623;fill-opacity:0.2;fill-rule:nonzero;stroke:#000000;stroke-width:0.74721;stroke-linecap:butt;stroke-linejoin:miter;stroke-miterlimit:10;stroke-dasharray:none;stroke-opacity:1"
       transform="matrix(1.3333333,0,0,-1.3333333,-18.989333,-32.78)" />
    <path
       id="path13"
       d="m 144.18118,-68.92242 32.90703,-0.70238"
       style="fill:none;stroke:#000000;stroke-width:0.74721;stroke-linecap:butt;stroke-linejoin:miter;stroke-miterlimit:10;stroke-dasharray:none;stroke-opacity:1"
       transform="matrix(1.3333333,0,0,-1.3333333,-18.989333,-32.78)" />
    <path
       id="path14"
       d="m 172.59077,-72.73227 6.73906,3.06264 -6.6026,3.34671 z"
       style="fill:#000000;fill-opacity:1;fill-rule:nonzero;stroke:#000000;stroke-width:0.0797;stroke-linecap:butt;stroke-linejoin:miter;stroke-miterlimit:10;stroke-dasharray:none;stroke-opacity:0"
       transform="matrix(1.3333333,0,0,-1.3333333,-18.989333,-32.78)" />
    <path
       id="path15"
       d="m 1.9817031,-4.7694453 c -0.1523437,-0.09375 -0.4335937,-0.2578125 -0.4335937,-0.5976563 0,-0.703125 0.890625,-0.7734375 1.2890625,-0.7734375 0.84375,0 1.3359375,0.4101563 1.3359375,1.0898438 0,0.4921875 -0.2578125,0.8320312 -0.6914063,1.1132812 z m 1.9335938,1.078125 c 0.703125,-0.3515625 1.0078125,-0.796875 1.0078125,-1.3710938 0,-1.0195312 -0.9023438,-1.4648437 -2.0390625,-1.4648437 -1.3828125,0 -2.08593752,0.7851562 -2.08593752,1.7460937 0,0.4335938 0.17578125,1.0664063 0.96093752,1.5 -0.84375002,0.375 -1.27734377,0.9375 -1.27734377,1.6757813 0,1.20703124 1.07812497,1.71093749 2.35546877,1.71093749 1.59375,0 2.4023437,-0.8671875 2.4023437,-1.96874999 0,-1.078125 -0.8320312,-1.546875 -1.3242187,-1.828125 z m -1.6992188,0.6796875 c 0.3398438,0.1875 0.8085938,0.4570312 1.359375,0.7617187 0.4453125,0.2460938 0.8085938,0.4570313 0.8085938,0.9375 0,0.83203129 -0.9375,0.99609379 -1.5,0.99609379 -0.984375,0 -1.546875,-0.515625 -1.546875,-1.28906249 0,-0.7734375 0.5273437,-1.2070313 0.8789062,-1.40625 z m 0,0"
       style="fill:#000000;fill-opacity:1;fill-rule:nonzero;stroke:none"
       aria-label="8"
       transform="matrix(1.3333333,0,0,1.3333333,32.318667,10.550667)" />
    <path
       id="path16"
       d="m 1.9802422,-4.7694453 c -0.1523438,-0.09375 -0.4335938,-0.2578125 -0.4335938,-0.5976563 0,-0.703125 0.890625,-0.7734375 1.2890625,-0.7734375 0.84375,0 1.3359375,0.4101563 1.3359375,1.0898438 0,0.4921875 -0.2578125,0.8320312 -0.6914062,1.1132812 z m 1.9335937,1.078125 c 0.703125,-0.3515625 1.0078125,-0.796875 1.0078125,-1.3710938 0,-1.0195312 -0.9023437,-1.4648437 -2.0390625,-1.4648437 -1.3828125,0 -2.08593746,0.7851562 -2.08593746,1.7460937 0,0.4335938 0.17578125,1.0664063 0.96093746,1.5 -0.84374996,0.375 -1.27734371,0.9375 -1.27734371,1.6757813 0,1.20703124 1.07812501,1.71093749 2.35546871,1.71093749 1.59375,0 2.4023438,-0.8671875 2.4023438,-1.96874999 0,-1.078125 -0.8320313,-1.546875 -1.3242188,-1.828125 z m -1.6992187,0.6796875 c 0.3398437,0.1875 0.8085937,0.4570312 1.359375,0.7617187 0.4453125,0.2460938 0.8085937,0.4570313 0.8085937,0.9375 0,0.83203129 -0.9375,0.99609379 -1.5,0.99609379 -0.984375,0 -1.546875,-0.515625 -1.546875,-1.28906249 0,-0.7734375 0.5273438,-1.2070313 0.8789063,-1.40625 z m 0,0"
       style="fill:#000000;fill-opacity:1;fill-rule:nonzero;stroke:none"
       aria-label="8"
       transform="matrix(1.3333333,0,0,1.3333333,128.95733,10.550667)" />
    <path
       id="path17"
       d="m 7.1965,-2.4949375 c 0,-1.828125 -1.5,-3.3164062 -3.3164062,-3.3164062 -1.8515625,0 -3.32812505,1.5117187 -3.32812505,3.3164062 0,1.83984375 1.48828125,3.328125 3.31640625,3.328125 1.8515625,0 3.328125,-1.51171875 3.328125,-3.328125 z M 1.899625,-4.62775 c -0.023437,-0.023437 -0.09375,-0.09375 -0.09375,-0.1171875 0,-0.035156 0.8085938,-0.8085937 2.0625,-0.8085937 0.3515625,0 1.265625,0.046875 2.0742188,0.8085937 L 3.8800938,-2.659 Z M 1.6066563,-0.409 C 0.99728125,-1.0886875 0.7980625,-1.8504062 0.7980625,-2.4949375 c 0,-0.7617187 0.2929688,-1.4882812 0.8085938,-2.0742187 l 2.0859375,2.0742187 z m 4.5234375,-4.1601562 c 0.4804687,0.5039062 0.8085937,1.265625 0.8085937,2.0742187 0,0.7734375 -0.28125,1.5 -0.796875,2.0859375 L 4.055875,-2.4949375 Z m -0.28125,4.21874995 c 0.023437,0.0234375 0.09375,0.09375 0.09375,0.1171875 0,0.0351563 -0.8085938,0.80859375 -2.0625,0.80859375 -0.3515625,0 -1.265625,-0.046875 -2.0859375,-0.80859375 L 3.868375,-2.3191562 Z m 0,0"
       style="fill:#000000;fill-opacity:1;fill-rule:nonzero;stroke:none"
       aria-label="⊗"
       transform="matrix(1.3333333,0,0,1.3333333,76.154667,61.545333)" />
    <path
       id="path18"
       d="m 1.97975,-4.769375 c -0.1523438,-0.09375 -0.4335938,-0.2578125 -0.4335938,-0.5976562 0,-0.703125 0.890625,-0.7734375 1.2890625,-0.7734375 0.84375,0 1.3359375,0.4101562 1.3359375,1.0898437 0,0.4921875 -0.2578125,0.8320313 -0.6914062,1.1132813 z m 1.9335937,1.078125 c 0.703125,-0.3515625 1.0078125,-0.796875 1.0078125,-1.3710937 0,-1.0195313 -0.9023437,-1.4648438 -2.0390625,-1.4648438 -1.3828125,0 -2.08593745,0.7851563 -2.08593745,1.7460938 0,0.4335937 0.17578125,1.0664062 0.96093745,1.5 -0.84374995,0.375 -1.2773437,0.9375 -1.2773437,1.6757812 0,1.20703125 1.078125,1.7109375 2.3554687,1.7109375 1.59375,0 2.4023438,-0.8671875 2.4023438,-1.96875 0,-1.078125 -0.8320313,-1.546875 -1.3242188,-1.828125 z M 2.214125,-3.0115625 c 0.3398437,0.1875 0.8085937,0.4570313 1.359375,0.7617188 0.4453125,0.2460937 0.8085937,0.4570312 0.8085937,0.9375 0,0.8320312 -0.9375,0.9960937 -1.5,0.9960937 -0.984375,0 -1.546875,-0.515625 -1.546875,-1.2890625 0,-0.7734375 0.5273438,-1.2070312 0.8789063,-1.40625 z m 0,0"
       style="fill:#000000;fill-opacity:1;fill-rule:nonzero;stroke:none"
       aria-label="8"
       transform="matrix(1.3333333,0,0,1.3333333,255.48533,11.546667)" />
    <path
       id="path19"
       d="M 1.9812188,-4.769375 C 1.828875,-4.863125 1.547625,-5.0271875 1.547625,-5.3670312 c 0,-0.703125 0.890625,-0.7734375 1.2890625,-0.7734375 0.84375,0 1.3359375,0.4101562 1.3359375,1.0898437 0,0.4921875 -0.2578125,0.8320313 -0.6914062,1.1132813 z m 1.9335937,1.078125 c 0.703125,-0.3515625 1.0078125,-0.796875 1.0078125,-1.3710937 0,-1.0195313 -0.9023437,-1.4648438 -2.0390625,-1.4648438 -1.3828125,0 -2.0859375,0.7851563 -2.0859375,1.7460938 0,0.4335937 0.17578125,1.0664062 0.9609375,1.5 -0.84375,0.375 -1.27734375,0.9375 -1.27734375,1.6757812 0,1.20703125 1.07812505,1.7109375 2.35546875,1.7109375 1.59375,0 2.4023438,-0.8671875 2.4023438,-1.96875 C 5.2390313,-2.94125 4.407,-3.41 3.9148125,-3.69125 Z m -1.6992187,0.6796875 c 0.3398437,0.1875 0.8085937,0.4570313 1.359375,0.7617188 0.4453125,0.2460937 0.8085937,0.4570312 0.8085937,0.9375 0,0.8320312 -0.9375,0.9960937 -1.5,0.9960937 -0.984375,0 -1.546875,-0.515625 -1.546875,-1.2890625 0,-0.7734375 0.5273438,-1.2070312 0.8789063,-1.40625 z m 0,0"
       style="fill:#000000;fill-opacity:1;fill-rule:nonzero;stroke:none"
       aria-label="8"
       transform="matrix(1.3333333,0,0,1.3333333,352.124,11.546667)" />
    <path
       id="path20"
       d="m 7.1945469,-2.4948672 c 0,-1.828125 -1.5,-3.3164062 -3.3164063,-3.3164062 -1.8515625,0 -3.32812497,1.5117187 -3.32812497,3.3164062 0,1.83984376 1.48828127,3.32812501 3.31640627,3.32812501 1.8515625,0 3.328125,-1.51171875 3.328125,-3.32812501 z m -5.296875,-2.1328125 c -0.023437,-0.023437 -0.09375,-0.09375 -0.09375,-0.1171875 0,-0.035156 0.8085937,-0.8085937 2.0625,-0.8085937 0.3515625,0 1.265625,0.046875 2.0742187,0.8085937 l -2.0625,2.0859375 z M 1.6047031,-0.40892969 C 0.99532813,-1.0886172 0.79610938,-1.8503359 0.79610938,-2.4948672 c 0,-0.7617187 0.29296872,-1.4882812 0.80859372,-2.0742187 l 2.0859375,2.0742187 z M 6.1281406,-4.5690859 c 0.4804688,0.5039062 0.8085938,1.265625 0.8085938,2.0742187 0,0.7734375 -0.28125,1.50000001 -0.796875,2.08593751 L 4.0539219,-2.4948672 Z m -0.28125,4.21874996 c 0.023437,0.0234375 0.09375,0.09375 0.09375,0.1171875 0,0.0351563 -0.8085937,0.80859375 -2.0625,0.80859375 -0.3515625,0 -1.265625,-0.046875 -2.0859375,-0.80859375 L 3.8664219,-2.3190859 Z m 0,0"
       style="fill:#000000;fill-opacity:1;fill-rule:nonzero;stroke:none"
       aria-label="⊗"
       transform="matrix(1.3333333,0,0,1.3333333,299.32133,62.541333)" />
    <path
       id="path21"
       d="m 2.9303516,-6.3739766 c 0,-0.234375 0,-0.2578125 -0.234375,-0.2578125 -0.609375,0.6328125 -1.4882813,0.6328125 -1.80468754,0.6328125 v 0.3164063 c 0.19921874,0 0.78515624,0 1.30078124,-0.2578125 v 5.15624999 c 0,0.3515625 -0.035156,0.48046875 -0.9257812,0.48046875 H 0.94988281 v 0.3046875 C 1.3014453,-0.03413281 2.1569141,-0.03413281 2.5553516,-0.03413281 c 0.3984375,0 1.265625,0 1.6171875,0.03515625 v -0.3046875 H 3.8561328 c -0.9023437,0 -0.9257812,-0.1171875 -0.9257812,-0.48046875 z m 0,0"
       style="fill:#000000;fill-opacity:1;fill-rule:nonzero;stroke:none"
       aria-label="1"
       transform="matrix(1.3333333,0,0,1.3333333,367.57333,48.830667)" />
    <path
       id="path22"
       d="m 2.9296016,-6.3739766 c 0,-0.234375 0,-0.2578125 -0.234375,-0.2578125 -0.609375,0.6328125 -1.4882813,0.6328125 -1.80468754,0.6328125 v 0.3164063 c 0.19921874,0 0.78515624,0 1.30078124,-0.2578125 v 5.15624999 c 0,0.3515625 -0.035156,0.48046875 -0.9257812,0.48046875 H 0.94913281 v 0.3046875 C 1.3006953,-0.03413281 2.1561641,-0.03413281 2.5546016,-0.03413281 c 0.3984375,0 1.265625,0 1.6171875,0.03515625 v -0.3046875 H 3.8553828 c -0.9023437,0 -0.9257812,-0.1171875 -0.9257812,-0.48046875 z m 0,0"
       style="fill:#000000;fill-opacity:1;fill-rule:nonzero;stroke:none"
       aria-label="1"
       transform="matrix(1.3333333,0,0,1.3333333,336.44933,48.830667)" />
    <path
       id="path23"
       d="m 1.2655391,-0.762875 1.0546875,-1.03125 c 1.5585937,-1.3710937 2.15625,-1.9101562 2.15625,-2.90625 0,-1.1367187 -0.9023438,-1.9335937 -2.1210938,-1.9335937 -1.125,0 -1.85156249,0.9140625 -1.85156249,1.8046875 0,0.5507812 0.4921875,0.5507812 0.52734379,0.5507812 0.1640625,0 0.515625,-0.1171875 0.515625,-0.5273437 0,-0.2578125 -0.1875,-0.515625 -0.5273438,-0.515625 -0.0820312,0 -0.10546874,0 -0.12890624,0.011719 0.22265624,-0.6445312 0.76171874,-1.0195312 1.33593754,-1.0195312 0.9140625,0 1.3359375,0.8085937 1.3359375,1.6289062 0,0.796875 -0.4921875,1.5820313 -1.0429688,2.203125 L 0.60928906,-0.3644375 C 0.50382031,-0.25896875 0.50382031,-0.23553125 0.50382031,-0.00115625 H 4.1952266 l 0.28125,-1.73437495 H 4.2186641 C 4.1717891,-1.4308437 4.1014766,-0.99725 4.0077266,-0.84490625 3.9374141,-0.762875 3.2811641,-0.762875 3.0585078,-0.762875 Z m 0,0"
       style="fill:#000000;fill-opacity:1;fill-rule:nonzero;stroke:none"
       aria-label="2"
       transform="matrix(1.3333333,0,0,1.3333333,336.44933,79.954667)" />
  </g>
</svg>
