<?xml version="1.0" encoding="UTF-8" standalone="no"?>
<!-- Created with Inkscape (http://www.inkscape.org/) -->

<svg
   version="1.1"
   id="svg1"
   width="357.81332"
   height="69.986664"
   viewBox="0 0 357.81332 69.986664"
   sodipodi:docname="common-young-diagrams.pdf"
   xmlns:inkscape="http://www.inkscape.org/namespaces/inkscape"
   xmlns:sodipodi="http://sodipodi.sourceforge.net/DTD/sodipodi-0.dtd"
   xmlns="http://www.w3.org/2000/svg"
   xmlns:svg="http://www.w3.org/2000/svg">
  <defs
     id="defs1" />
  <sodipodi:namedview
     id="namedview1"
     pagecolor="#ffffff"
     bordercolor="#000000"
     borderopacity="0.25"
     inkscape:showpageshadow="2"
     inkscape:pageopacity="0.0"
     inkscape:pagecheckerboard="0"
     inkscape:deskcolor="#d1d1d1">
    <inkscape:page
       x="0"
       y="0"
       inkscape:label="1"
       id="page1"
       width="357.81332"
       height="69.986664"
       margin="0"
       bleed="0" />
  </sodipodi:namedview>
  <g
     id="g1"
     inkscape:groupmode="layer"
     inkscape:label="1">
    <path
       id="path1"
       d="m 151.68315,-59.77661 h 23.34276 v -23.34276 h -23.34276 z"
       style="fill:#f5a623;fill-opacity:0.2;fill-rule:nonzero;stroke:#000000;stroke-width:0.74721;stroke-linecap:butt;stroke-linejoin:miter;stroke-miterlimit:10;stroke-dasharray:none;stroke-opacity:1"
       transform="matrix(1.3333333,0,0,-1.3333333,-119.612,-79.205333)" />
    <path
       id="path2"
       d="m 206.97652,-59.77661 h 23.34275 v -23.34276 h -23.34275 z"
       style="fill:#f5a623;fill-opacity:0.2;fill-rule:nonzero;stroke:#000000;stroke-width:0.74721;stroke-linecap:butt;stroke-linejoin:miter;stroke-miterlimit:10;stroke-dasharray:none;stroke-opacity:1"
       transform="matrix(1.3333333,0,0,-1.3333333,-119.612,-79.205333)" />
    <path
       id="path3"
       d="m 230.31927,-59.77661 h 23.34276 v -23.34276 h -23.34276 z"
       style="fill:#f5a623;fill-opacity:0.2;fill-rule:nonzero;stroke:#000000;stroke-width:0.74721;stroke-linecap:butt;stroke-linejoin:miter;stroke-miterlimit:10;stroke-dasharray:none;stroke-opacity:1"
       transform="matrix(1.3333333,0,0,-1.3333333,-119.612,-79.205333)" />
    <path
       id="path4"
       d="M 287.67494,-59.77661 H 311.0177 V -83.11937 H 287.67494 Z"
       style="fill:#f5a623;fill-opacity:0.2;fill-rule:nonzero;stroke:#000000;stroke-width:0.74721;stroke-linecap:butt;stroke-linejoin:miter;stroke-miterlimit:10;stroke-dasharray:none;stroke-opacity:1"
       transform="matrix(1.3333333,0,0,-1.3333333,-119.612,-79.205333)" />
    <path
       id="path5"
       d="m 311.0177,-59.77661 h 23.34276 V -83.11937 H 311.0177 Z"
       style="fill:#f5a623;fill-opacity:0.2;fill-rule:nonzero;stroke:#000000;stroke-width:0.74721;stroke-linecap:butt;stroke-linejoin:miter;stroke-miterlimit:10;stroke-dasharray:none;stroke-opacity:1"
       transform="matrix(1.3333333,0,0,-1.3333333,-119.612,-79.205333)" />
    <path
       id="path6"
       d="m 334.36046,-59.77661 h 23.34277 v -23.34276 h -23.34277 z"
       style="fill:#f5a623;fill-opacity:0.2;fill-rule:nonzero;stroke:#000000;stroke-width:0.74721;stroke-linecap:butt;stroke-linejoin:miter;stroke-miterlimit:10;stroke-dasharray:none;stroke-opacity:1"
       transform="matrix(1.3333333,0,0,-1.3333333,-119.612,-79.205333)" />
    <g
       id="g6"
       aria-label="R&#10;0"
       transform="matrix(1.3333333,0,0,1.3333333,84.126667,64.269333)">
      <path
         id="path7"
         d="m 4.03,-6.2576641 c 1.9101563,0 2.4140625,0.46875 2.4140625,1.125 0,0.609375 -0.4804687,1.8046875 -2.1210937,1.8632813 -0.4921875,0.023437 -0.8320313,0.375 -0.8320313,0.4804687 0,0.058594 0.046875,0.058594 0.058594,0.058594 0.4101562,0.070312 0.609375,0.2695312 1.1367187,1.4414062 0.4570313,1.05468754 0.7148438,1.51171879 1.3007813,1.51171879 1.2070312,0 2.34375,-1.23046879 2.34375,-1.45312499 0,-0.070312 -0.070312,-0.070312 -0.1054688,-0.070312 -0.1171875,0 -0.5039062,0.140625 -0.7148437,0.43359374 -0.1640625,0.234375 -0.375,0.5390625 -0.8671875,0.5390625 -0.5039063,0 -0.8203125,-0.70312504 -1.1601563,-1.48828124 -0.1992187,-0.4921875 -0.3867187,-0.8671875 -0.609375,-1.1367188 1.4414063,-0.5273437 2.4140625,-1.5703125 2.4140625,-2.6015625 0,-1.2539062 -1.6757812,-1.2539062 -3.1757812,-1.2539062 -0.9960938,0 -1.5585938,0 -2.390625,0.3632812 -1.33593755,0.5859375 -1.5117188,1.4179688 -1.5117188,1.5 0,0.058594 0.0351563,0.070312 0.09375,0.070312 0.1640625,0 0.3984375,-0.140625 0.46875,-0.1875 0.2109375,-0.140625 0.2460938,-0.1992187 0.3046875,-0.3867187 0.140625,-0.3984375 0.421875,-0.75 1.6757813,-0.8085938 -0.058594,0.609375 -0.140625,1.5351563 -0.4804688,2.9882813 -0.2695312,1.1132812 -0.6445312,2.2148437 -1.078125,3.28124999 -0.046875,0.10546875 -0.046875,0.12890625 -0.046875,0.140625 0,0.0703125 0.082031,0.0703125 0.09375,0.0703125 0.1992188,0 0.6210938,-0.24609375 0.7265625,-0.43359375 0.023437,-0.046875 1.2890625,-2.85937504 1.59375,-6.04687504 z m 0,0"
         style="fill:#000000;fill-opacity:1;fill-rule:nonzero;stroke:none" />
      <path
         id="path8"
         d="m 12.042695,-0.73227344 c 0,-0.76171876 -0.09375,-1.31249996 -0.410156,-1.80468746 -0.222656,-0.3164063 -0.644531,-0.5976563 -1.207031,-0.5976563 -1.6171877,0 -1.6171877,1.8984375 -1.6171877,2.40234376 0,0.50390625 0,2.36718754 1.6171877,2.36718754 1.617187,0 1.617187,-1.86328129 1.617187,-2.36718754 z M 10.425508,1.4356953 c -0.316406,0 -0.7500002,-0.1875 -0.8906252,-0.76171874 -0.09375,-0.41015625 -0.09375,-0.984375 -0.09375,-1.5 0,-0.50390626 0,-1.03124996 0.1054688,-1.41796876 0.1523437,-0.5507812 0.5976564,-0.6914062 0.8789064,-0.6914062 0.375,0 0.738281,0.2226562 0.867187,0.6328125 0.105469,0.375 0.117188,0.8789062 0.117188,1.47656246 0,0.515625 0,1.04296875 -0.09375,1.4765625 C 11.175508,1.2833516 10.706758,1.4356953 10.425508,1.4356953 Z m 0,0"
         style="fill:#000000;fill-opacity:1;fill-rule:nonzero;stroke:none" />
    </g>
    <g
       id="g8"
       aria-label="R&#10;1"
       transform="matrix(1.3333333,0,0,1.3333333,177.776,64.269333)">
      <path
         id="path9"
         d="m 4.0322578,-6.2576641 c 1.9101563,0 2.4140625,0.46875 2.4140625,1.125 0,0.609375 -0.4804687,1.8046875 -2.1210937,1.8632813 -0.4921875,0.023437 -0.8320313,0.375 -0.8320313,0.4804687 0,0.058594 0.046875,0.058594 0.058594,0.058594 0.4101562,0.070312 0.609375,0.2695312 1.1367187,1.4414062 0.4570313,1.05468754 0.7148438,1.51171879 1.3007813,1.51171879 1.2070312,0 2.34375,-1.23046879 2.34375,-1.45312499 0,-0.070312 -0.070312,-0.070312 -0.1054688,-0.070312 -0.1171875,0 -0.5039062,0.140625 -0.7148437,0.43359374 -0.1640625,0.234375 -0.375,0.5390625 -0.8671875,0.5390625 -0.5039063,0 -0.8203125,-0.70312504 -1.1601563,-1.48828124 -0.1992187,-0.4921875 -0.3867187,-0.8671875 -0.609375,-1.1367188 1.4414063,-0.5273437 2.4140625,-1.5703125 2.4140625,-2.6015625 0,-1.2539062 -1.6757812,-1.2539062 -3.1757812,-1.2539062 -0.9960938,0 -1.5585938,0 -2.390625,0.3632812 -1.33593754,0.5859375 -1.51171879,1.4179688 -1.51171879,1.5 0,0.058594 0.0351563,0.070312 0.09375,0.070312 0.1640625,0 0.3984375,-0.140625 0.46875,-0.1875 0.2109375,-0.140625 0.24609379,-0.1992187 0.30468749,-0.3867187 0.140625,-0.3984375 0.421875,-0.75 1.6757813,-0.8085938 -0.058594,0.609375 -0.140625,1.5351563 -0.4804688,2.9882813 -0.2695312,1.1132812 -0.6445312,2.2148437 -1.078125,3.28124999 -0.046875,0.10546875 -0.046875,0.12890625 -0.046875,0.140625 0,0.0703125 0.082031,0.0703125 0.09375,0.0703125 0.1992188,0 0.6210938,-0.24609375 0.7265625,-0.43359375 0.023437,-0.046875 1.2890625,-2.85937504 1.59375,-6.04687504 z m 0,0"
         style="fill:#000000;fill-opacity:1;fill-rule:nonzero;stroke:none" />
      <path
         id="path10"
         d="m 10.776398,-2.9353984 c 0,-0.1875 -0.01172,-0.1992188 -0.210937,-0.1992188 -0.445313,0.4335938 -1.0781251,0.4453125 -1.3593751,0.4453125 v 0.2460938 c 0.1640625,0 0.6210938,0 1.0078121,-0.1875 v 3.55078121 c 0,0.23437499 0,0.32812499 -0.6914058,0.32812499 H 9.2529609 v 0.2460938 c 0.1289063,-0.011719 0.9843751,-0.023437 1.2421871,-0.023437 0.210938,0 1.089844,0.011719 1.242188,0.023437 V 1.2481953 h -0.257813 c -0.703125,0 -0.703125,-0.09375 -0.703125,-0.32812499 z m 0,0"
         style="fill:#000000;fill-opacity:1;fill-rule:nonzero;stroke:none" />
    </g>
    <g
       id="g10"
       aria-label="R&#10;3/2"
       transform="matrix(1.3333333,0,0,1.3333333,302.31067,64.269333)">
      <path
         id="path11"
         d="m 4.032625,-6.2576641 c 1.9101563,0 2.4140625,0.46875 2.4140625,1.125 0,0.609375 -0.4804687,1.8046875 -2.1210937,1.8632813 -0.4921875,0.023437 -0.8320313,0.375 -0.8320313,0.4804687 0,0.058594 0.046875,0.058594 0.058594,0.058594 0.4101562,0.070312 0.609375,0.2695312 1.1367187,1.4414062 0.4570313,1.05468754 0.7148438,1.51171879 1.3007813,1.51171879 1.2070312,0 2.34375,-1.23046879 2.34375,-1.45312499 0,-0.070312 -0.070312,-0.070312 -0.1054688,-0.070312 -0.1171875,0 -0.5039062,0.140625 -0.7148437,0.43359374 -0.1640625,0.234375 -0.375,0.5390625 -0.8671875,0.5390625 -0.5039063,0 -0.8203125,-0.70312504 -1.1601563,-1.48828124 -0.1992187,-0.4921875 -0.3867187,-0.8671875 -0.609375,-1.1367188 1.4414063,-0.5273437 2.4140625,-1.5703125 2.4140625,-2.6015625 0,-1.2539062 -1.6757812,-1.2539062 -3.1757812,-1.2539062 -0.9960938,0 -1.5585938,0 -2.390625,0.3632812 -1.33593755,0.5859375 -1.5117188,1.4179688 -1.5117188,1.5 0,0.058594 0.0351563,0.070312 0.09375,0.070312 0.1640625,0 0.3984375,-0.140625 0.46875,-0.1875 0.2109375,-0.140625 0.2460938,-0.1992187 0.3046875,-0.3867187 0.140625,-0.3984375 0.421875,-0.75 1.6757813,-0.8085938 -0.058594,0.609375 -0.140625,1.5351563 -0.4804688,2.9882813 -0.2695312,1.1132812 -0.6445312,2.2148437 -1.078125,3.28124999 -0.046875,0.10546875 -0.046875,0.12890625 -0.046875,0.140625 0,0.0703125 0.082031,0.0703125 0.09375,0.0703125 0.1992188,0 0.6210938,-0.24609375 0.7265625,-0.43359375 0.023437,-0.046875 1.2890625,-2.85937504 1.59375,-6.04687504 z m 0,0"
         style="fill:#000000;fill-opacity:1;fill-rule:nonzero;stroke:none" />
      <path
         id="path12"
         d="m 10.343172,-0.53305469 c 0.550781,0 0.9375,0.375 0.9375,1.125 0,0.86718749 -0.503906,1.12499999 -0.902344,1.12499999 -0.28125,0 -0.8906249,-0.082031 -1.1835936,-0.4921875 0.328125,-0.011719 0.3984375,-0.24609374 0.3984375,-0.38671874 0,-0.22265625 -0.1640625,-0.38671875 -0.3867188,-0.38671875 -0.1875,0 -0.3867187,0.1171875 -0.3867187,0.41015625 0,0.65625004 0.7265625,1.07812504 1.5703126,1.07812504 0.972656,0 1.640625,-0.6445313 1.640625,-1.34765629 0,-0.5390625 -0.445313,-1.08984375 -1.21875,-1.2421875 0.738281,-0.26953125 0.996094,-0.79687501 0.996094,-1.21875001 0,-0.5507812 -0.632813,-0.9609375 -1.40625,-0.9609375 -0.7734379,0 -1.3593754,0.375 -1.3593754,0.9375 0,0.234375 0.1523438,0.3632813 0.3632813,0.3632813 0.2109375,0 0.3515625,-0.1640625 0.3515625,-0.3515625 0,-0.1992188 -0.140625,-0.3515625 -0.3515625,-0.3632813 0.234375,-0.3046875 0.7148441,-0.3867187 0.9726561,-0.3867187 0.316406,0 0.761719,0.1523437 0.761719,0.7617187 0,0.2929688 -0.105469,0.609375 -0.28125,0.8320313 -0.234375,0.25781246 -0.421875,0.28124996 -0.773438,0.29296871 -0.1757809,0.0234375 -0.1874996,0.0234375 -0.2226559,0.0234375 -0.011719,0 -0.070312,0.0117188 -0.070312,0.09375 0,0.09375 0.058594,0.09375 0.1757813,0.09375 z m 0,0"
         style="fill:#000000;fill-opacity:1;fill-rule:nonzero;stroke:none" />
      <path
         id="path13"
         d="m 15.906648,-3.1228984 c 0.04687,-0.09375 0.04687,-0.1054688 0.04687,-0.1289063 0,-0.1171875 -0.09375,-0.1757812 -0.175781,-0.1757812 -0.117187,0 -0.152344,0.082031 -0.1875,0.1757812 L 12.98868,3.2403828 c -0.03516,0.082031 -0.03516,0.09375 -0.03516,0.1289063 0,0.1054687 0.09375,0.1757812 0.164063,0.1757812 0.117187,0 0.152344,-0.082031 0.1875,-0.1757812 z m 0,0"
         style="fill:#000000;fill-opacity:1;fill-rule:nonzero;stroke:none" />
      <path
         id="path14"
         d="m 20.01407,0.53335156 h -0.234375 c -0.02344,0.15234375 -0.08203,0.56250004 -0.175781,0.63281254 -0.05859,0.035156 -0.597656,0.035156 -0.691406,0.035156 h -1.289063 c 0.738282,-0.64453124 0.984375,-0.84374999 1.394532,-1.17187499 0.515625,-0.41015625 0.996093,-0.84375 0.996093,-1.50000001 0,-0.84375 -0.738281,-1.359375 -1.628906,-1.359375 -0.867187,0 -1.453125,0.609375 -1.453125,1.2421875 0,0.3632813 0.304688,0.3984375 0.375,0.3984375 0.164063,0 0.375,-0.1171875 0.375,-0.375 0,-0.1289062 -0.05859,-0.3632812 -0.421875,-0.3632812 0.222656,-0.5039063 0.691406,-0.65625 1.019531,-0.65625 0.703125,0 1.066407,0.5507812 1.066407,1.1132812 0,0.60937501 -0.433594,1.08984376 -0.65625,1.33593751 l -1.6875,1.66406249 c -0.07031,0.058594 -0.07031,0.070312 -0.07031,0.2695313 h 2.882813 z m 0,0"
         style="fill:#000000;fill-opacity:1;fill-rule:nonzero;stroke:none" />
    </g>
    <g
       id="g14"
       aria-label="R&#10;1/2"
       transform="matrix(1.3333333,0,0,1.3333333,6.4173333,64.269333)">
      <path
         id="path15"
         d="m 4.0317266,-6.2576641 c 1.9101562,0 2.4140625,0.46875 2.4140625,1.125 0,0.609375 -0.4804688,1.8046875 -2.1210938,1.8632813 -0.4921875,0.023437 -0.8320312,0.375 -0.8320312,0.4804687 0,0.058594 0.046875,0.058594 0.058594,0.058594 0.4101563,0.070312 0.609375,0.2695312 1.1367188,1.4414062 0.4570312,1.05468754 0.7148437,1.51171879 1.3007812,1.51171879 1.2070313,0 2.34375,-1.23046879 2.34375,-1.45312499 0,-0.070312 -0.070312,-0.070312 -0.1054687,-0.070312 -0.1171875,0 -0.5039063,0.140625 -0.7148438,0.43359374 -0.1640625,0.234375 -0.375,0.5390625 -0.8671875,0.5390625 -0.5039062,0 -0.8203125,-0.70312504 -1.1601562,-1.48828124 -0.1992188,-0.4921875 -0.3867188,-0.8671875 -0.609375,-1.1367188 1.4414062,-0.5273437 2.4140625,-1.5703125 2.4140625,-2.6015625 0,-1.2539062 -1.6757813,-1.2539062 -3.1757813,-1.2539062 -0.9960937,0 -1.5585937,0 -2.390625,0.3632812 -1.33593749,0.5859375 -1.51171874,1.4179688 -1.51171874,1.5 0,0.058594 0.0351563,0.070312 0.09375,0.070312 0.1640625,0 0.3984375,-0.140625 0.46875,-0.1875 0.2109375,-0.140625 0.24609374,-0.1992187 0.30468754,-0.3867187 0.140625,-0.3984375 0.421875,-0.75 1.6757812,-0.8085938 -0.058594,0.609375 -0.140625,1.5351563 -0.4804687,2.9882813 -0.2695313,1.1132812 -0.6445313,2.2148437 -1.078125,3.28124999 -0.046875,0.10546875 -0.046875,0.12890625 -0.046875,0.140625 0,0.0703125 0.082031,0.0703125 0.09375,0.0703125 0.1992187,0 0.6210937,-0.24609375 0.7265625,-0.43359375 0.023437,-0.046875 1.2890625,-2.85937504 1.59375,-6.04687504 z m 0,0"
         style="fill:#000000;fill-opacity:1;fill-rule:nonzero;stroke:none" />
      <path
         id="path16"
         d="m 10.775867,-2.6307109 c 0,-0.1875 -0.01172,-0.1992188 -0.210937,-0.1992188 -0.445313,0.4335938 -1.0781253,0.4453125 -1.3593753,0.4453125 v 0.2460938 c 0.1640625,0 0.6210937,0 1.0078123,-0.1875 v 3.5507812 c 0,0.234375 0,0.328125 -0.6914061,0.328125 H 9.2524297 v 0.2460938 c 0.1289062,-0.011719 0.9843753,-0.023437 1.2421873,-0.023437 0.210938,0 1.089844,0.011719 1.242188,0.023437 V 1.5528828 h -0.257813 c -0.703125,0 -0.703125,-0.09375 -0.703125,-0.328125 z m 0,0"
         style="fill:#000000;fill-opacity:1;fill-rule:nonzero;stroke:none" />
      <path
         id="path17"
         d="m 15.90575,-3.1228984 c 0.04687,-0.09375 0.04687,-0.1054688 0.04687,-0.1289063 0,-0.1171875 -0.09375,-0.1757812 -0.175781,-0.1757812 -0.117188,0 -0.152344,0.082031 -0.1875,0.1757812 l -2.601563,6.4921875 c -0.03516,0.082031 -0.03516,0.09375 -0.03516,0.1289063 0,0.1054687 0.09375,0.1757812 0.164062,0.1757812 0.117188,0 0.152344,-0.082031 0.1875,-0.1757812 z m 0,0"
         style="fill:#000000;fill-opacity:1;fill-rule:nonzero;stroke:none" />
      <path
         id="path18"
         d="m 20.013172,0.53335156 h -0.234375 c -0.02344,0.15234375 -0.08203,0.56250004 -0.175781,0.63281254 -0.05859,0.035156 -0.597657,0.035156 -0.691407,0.035156 h -1.289062 c 0.738281,-0.64453124 0.984375,-0.84374999 1.394531,-1.17187499 0.515625,-0.41015625 0.996094,-0.84375 0.996094,-1.50000001 0,-0.84375 -0.738281,-1.359375 -1.628906,-1.359375 -0.867188,0 -1.453125,0.609375 -1.453125,1.2421875 0,0.3632813 0.304687,0.3984375 0.375,0.3984375 0.164062,0 0.375,-0.1171875 0.375,-0.375 0,-0.1289062 -0.05859,-0.3632812 -0.421875,-0.3632812 0.222656,-0.5039063 0.691406,-0.65625 1.019531,-0.65625 0.703125,0 1.066406,0.5507812 1.066406,1.1132812 0,0.60937501 -0.433594,1.08984376 -0.65625,1.33593751 l -1.6875,1.66406249 c -0.07031,0.058594 -0.07031,0.070312 -0.07031,0.2695313 h 2.882812 z m 0,0"
         style="fill:#000000;fill-opacity:1;fill-rule:nonzero;stroke:none" />
    </g>
    <path
       id="path19"
       d="m 3.8670156,-7.4871172 c 0,-0.1171875 -0.082031,-0.1992187 -0.1992187,-0.1992187 -0.1523438,0 -0.1757813,0.1054687 -0.2460938,0.3164062 -0.1171875,0.3984375 -0.011719,0.046875 -0.1289062,0.4453125 -0.1171875,-0.058594 -0.4335938,-0.2109375 -0.796875,-0.2109375 -0.5742188,0 -1.21875,0.3046875 -1.59375003,1.0664063 -0.38671875,0.8085937 -0.43359375,1.7109375 -0.43359375,2.6367187 0,0.6210938 0,2.4140625 0.86718748,3.19921876 -0.234375,0.76171875 -0.234375,0.78515625 -0.234375,0.80859375 0,0.1171875 0.082031,0.19921875 0.1992188,0.19921875 0.1523437,0 0.1875,-0.09375 0.2460937,-0.31640625 0.1171875,-0.3984375 0.011719,-0.046875 0.1289063,-0.4453125 0.234375,0.12890625 0.5390625,0.2109375 0.8085937,0.2109375 1.1132813,0 1.546875,-0.9375 1.734375,-1.41796871 0.2578125,-0.703125 0.28125,-1.5234375 0.28125,-2.2382813 0,-0.7382812 0,-2.390625 -0.8671875,-3.2226562 z M 1.4646719,-0.70196094 C 1.1365469,-1.3816484 1.1365469,-2.6121172 1.1365469,-3.5496172 c 0,-0.8085937 0,-1.5 0.140625,-2.1328125 0.1875,-0.9257812 0.7617187,-1.2304687 1.21875,-1.2304687 0.1992187,0 0.4570312,0.058594 0.7148437,0.28125 z M 3.5037344,-6.2332109 c 0.328125,0.5742187 0.328125,1.734375 0.328125,2.6835937 0,0.7265625 0,1.453125 -0.1171875,2.1210938 -0.1757813,1.05468746 -0.703125,1.42968746 -1.2304688,1.42968746 -0.234375,0 -0.46875,-0.08203125 -0.7148437,-0.29296875 z m 0,0"
       style="fill:#000000;fill-opacity:1;fill-rule:nonzero;stroke:none"
       aria-label="∅"
       transform="matrix(1.3333333,0,0,1.3333333,11.398667,20.322667)" />
  </g>
</svg>
