<?xml version="1.0" encoding="UTF-8" standalone="no"?>
<!-- Created with Inkscape (http://www.inkscape.org/) -->

<svg
   version="1.1"
   id="svg1"
   width="410.41333"
   height="185.69333"
   viewBox="0 0 410.41333 185.69333"
   sodipodi:docname="dimension-formula-SU(N).pdf"
   xmlns:inkscape="http://www.inkscape.org/namespaces/inkscape"
   xmlns:sodipodi="http://sodipodi.sourceforge.net/DTD/sodipodi-0.dtd"
   xmlns="http://www.w3.org/2000/svg"
   xmlns:svg="http://www.w3.org/2000/svg">
  <defs
     id="defs1" />
  <sodipodi:namedview
     id="namedview1"
     pagecolor="#ffffff"
     bordercolor="#000000"
     borderopacity="0.25"
     inkscape:showpageshadow="2"
     inkscape:pageopacity="0.0"
     inkscape:pagecheckerboard="0"
     inkscape:deskcolor="#d1d1d1">
    <inkscape:page
       x="0"
       y="0"
       inkscape:label="1"
       id="page1"
       width="410.41333"
       height="185.69333"
       margin="0"
       bleed="0" />
  </sodipodi:namedview>
  <g
     id="g1"
     inkscape:groupmode="layer"
     inkscape:label="1">
    <path
       id="path1"
       d="m 79.20401,-61.77164 h 23.34276 V -85.11441 H 79.20401 Z"
       style="fill:#f5a623;fill-opacity:0.2;fill-rule:nonzero;stroke:#000000;stroke-width:0.74721;stroke-linecap:butt;stroke-linejoin:miter;stroke-miterlimit:10;stroke-dasharray:none;stroke-opacity:1"
       transform="matrix(1.3333333,0,0,-1.3333333,-100.34933,-81.869333)" />
    <path
       id="path2"
       d="m 102.54677,-61.77164 h 23.34276 v -23.34277 h -23.34276 z"
       style="fill:#f5a623;fill-opacity:0.2;fill-rule:nonzero;stroke:#000000;stroke-width:0.74721;stroke-linecap:butt;stroke-linejoin:miter;stroke-miterlimit:10;stroke-dasharray:none;stroke-opacity:1"
       transform="matrix(1.3333333,0,0,-1.3333333,-100.34933,-81.869333)" />
    <path
       id="path3"
       d="M 125.88953,-61.77164 H 149.2323 V -85.11441 H 125.88953 Z"
       style="fill:#f5a623;fill-opacity:0.2;fill-rule:nonzero;stroke:#000000;stroke-width:0.74721;stroke-linecap:butt;stroke-linejoin:miter;stroke-miterlimit:10;stroke-dasharray:none;stroke-opacity:1"
       transform="matrix(1.3333333,0,0,-1.3333333,-100.34933,-81.869333)" />
    <path
       id="path4"
       d="m 149.2323,-61.77164 h 23.34277 V -85.11441 H 149.2323 Z"
       style="fill:#f5a623;fill-opacity:0.2;fill-rule:nonzero;stroke:#000000;stroke-width:0.74721;stroke-linecap:butt;stroke-linejoin:miter;stroke-miterlimit:10;stroke-dasharray:none;stroke-opacity:1"
       transform="matrix(1.3333333,0,0,-1.3333333,-100.34933,-81.869333)" />
    <path
       id="path5"
       d="m 172.57507,-61.77164 h 23.35024 v -23.34277 h -23.35024 z"
       style="fill:#f5a623;fill-opacity:0.2;fill-rule:nonzero;stroke:#000000;stroke-width:0.74721;stroke-linecap:butt;stroke-linejoin:miter;stroke-miterlimit:10;stroke-dasharray:none;stroke-opacity:1"
       transform="matrix(1.3333333,0,0,-1.3333333,-100.34933,-81.869333)" />
    <path
       id="path6"
       d="m 195.92531,-61.77164 h 23.34276 v -23.34277 h -23.34276 z"
       style="fill:#f5a623;fill-opacity:0.2;fill-rule:nonzero;stroke:#000000;stroke-width:0.74721;stroke-linecap:butt;stroke-linejoin:miter;stroke-miterlimit:10;stroke-dasharray:none;stroke-opacity:1"
       transform="matrix(1.3333333,0,0,-1.3333333,-100.34933,-81.869333)" />
    <path
       id="path7"
       d="m 79.20401,-85.11441 h 23.34276 v -23.34276 H 79.20401 Z"
       style="fill:#f5a623;fill-opacity:0.2;fill-rule:nonzero;stroke:#000000;stroke-width:0.74721;stroke-linecap:butt;stroke-linejoin:miter;stroke-miterlimit:10;stroke-dasharray:none;stroke-opacity:1"
       transform="matrix(1.3333333,0,0,-1.3333333,-100.34933,-81.869333)" />
    <path
       id="path8"
       d="m 102.54677,-85.11441 h 23.34276 v -23.34276 h -23.34276 z"
       style="fill:#f5a623;fill-opacity:0.2;fill-rule:nonzero;stroke:#000000;stroke-width:0.74721;stroke-linecap:butt;stroke-linejoin:miter;stroke-miterlimit:10;stroke-dasharray:none;stroke-opacity:1"
       transform="matrix(1.3333333,0,0,-1.3333333,-100.34933,-81.869333)" />
    <path
       id="path9"
       d="m 125.88953,-85.11441 h 23.34277 v -23.34276 h -23.34277 z"
       style="fill:#f5a623;fill-opacity:0.2;fill-rule:nonzero;stroke:#000000;stroke-width:0.74721;stroke-linecap:butt;stroke-linejoin:miter;stroke-miterlimit:10;stroke-dasharray:none;stroke-opacity:1"
       transform="matrix(1.3333333,0,0,-1.3333333,-100.34933,-81.869333)" />
    <path
       id="path10"
       d="m 149.2323,-85.11441 h 23.34277 v -23.34276 H 149.2323 Z"
       style="fill:#f5a623;fill-opacity:0.2;fill-rule:nonzero;stroke:#000000;stroke-width:0.74721;stroke-linecap:butt;stroke-linejoin:miter;stroke-miterlimit:10;stroke-dasharray:none;stroke-opacity:1"
       transform="matrix(1.3333333,0,0,-1.3333333,-100.34933,-81.869333)" />
    <path
       id="path11"
       d="m 242.20734,-61.77164 h 23.34277 v -23.34277 h -23.34277 z"
       style="fill:#f5a623;fill-opacity:0.2;fill-rule:nonzero;stroke:#000000;stroke-width:0.74721;stroke-linecap:butt;stroke-linejoin:miter;stroke-miterlimit:10;stroke-dasharray:none;stroke-opacity:1"
       transform="matrix(1.3333333,0,0,-1.3333333,-100.34933,-81.869333)" />
    <path
       id="path12"
       d="m 265.55011,-61.77164 h 23.35023 v -23.34277 h -23.35023 z"
       style="fill:#f5a623;fill-opacity:0.2;fill-rule:nonzero;stroke:#000000;stroke-width:0.74721;stroke-linecap:butt;stroke-linejoin:miter;stroke-miterlimit:10;stroke-dasharray:none;stroke-opacity:1"
       transform="matrix(1.3333333,0,0,-1.3333333,-100.34933,-81.869333)" />
    <path
       id="path13"
       d="m 288.90034,-61.77164 h 23.34278 v -23.34277 h -23.34278 z"
       style="fill:#f5a623;fill-opacity:0.2;fill-rule:nonzero;stroke:#000000;stroke-width:0.74721;stroke-linecap:butt;stroke-linejoin:miter;stroke-miterlimit:10;stroke-dasharray:none;stroke-opacity:1"
       transform="matrix(1.3333333,0,0,-1.3333333,-100.34933,-81.869333)" />
    <path
       id="path14"
       d="m 312.24312,-61.77164 h 23.34277 v -23.34277 h -23.34277 z"
       style="fill:#f5a623;fill-opacity:0.2;fill-rule:nonzero;stroke:#000000;stroke-width:0.74721;stroke-linecap:butt;stroke-linejoin:miter;stroke-miterlimit:10;stroke-dasharray:none;stroke-opacity:1"
       transform="matrix(1.3333333,0,0,-1.3333333,-100.34933,-81.869333)" />
    <path
       id="path15"
       d="m 335.58589,-61.77164 h 23.34276 v -23.34277 h -23.34276 z"
       style="fill:#f5a623;fill-opacity:0.2;fill-rule:nonzero;stroke:#000000;stroke-width:0.74721;stroke-linecap:butt;stroke-linejoin:miter;stroke-miterlimit:10;stroke-dasharray:none;stroke-opacity:1"
       transform="matrix(1.3333333,0,0,-1.3333333,-100.34933,-81.869333)" />
    <path
       id="path16"
       d="m 358.92865,-61.77164 h 23.34277 v -23.34277 h -23.34277 z"
       style="fill:#f5a623;fill-opacity:0.2;fill-rule:nonzero;stroke:#000000;stroke-width:0.74721;stroke-linecap:butt;stroke-linejoin:miter;stroke-miterlimit:10;stroke-dasharray:none;stroke-opacity:1"
       transform="matrix(1.3333333,0,0,-1.3333333,-100.34933,-81.869333)" />
    <path
       id="path17"
       d="m 242.20734,-85.11441 h 23.34277 v -23.34276 h -23.34277 z"
       style="fill:#f5a623;fill-opacity:0.2;fill-rule:nonzero;stroke:#000000;stroke-width:0.74721;stroke-linecap:butt;stroke-linejoin:miter;stroke-miterlimit:10;stroke-dasharray:none;stroke-opacity:1"
       transform="matrix(1.3333333,0,0,-1.3333333,-100.34933,-81.869333)" />
    <path
       id="path18"
       d="m 265.55011,-85.11441 h 23.35023 v -23.34276 h -23.35023 z"
       style="fill:#f5a623;fill-opacity:0.2;fill-rule:nonzero;stroke:#000000;stroke-width:0.74721;stroke-linecap:butt;stroke-linejoin:miter;stroke-miterlimit:10;stroke-dasharray:none;stroke-opacity:1"
       transform="matrix(1.3333333,0,0,-1.3333333,-100.34933,-81.869333)" />
    <path
       id="path19"
       d="m 288.90034,-85.11441 h 23.34278 v -23.34276 h -23.34278 z"
       style="fill:#f5a623;fill-opacity:0.2;fill-rule:nonzero;stroke:#000000;stroke-width:0.74721;stroke-linecap:butt;stroke-linejoin:miter;stroke-miterlimit:10;stroke-dasharray:none;stroke-opacity:1"
       transform="matrix(1.3333333,0,0,-1.3333333,-100.34933,-81.869333)" />
    <path
       id="path20"
       d="m 312.24312,-85.11441 h 23.34277 v -23.34276 h -23.34277 z"
       style="fill:#f5a623;fill-opacity:0.2;fill-rule:nonzero;stroke:#000000;stroke-width:0.74721;stroke-linecap:butt;stroke-linejoin:miter;stroke-miterlimit:10;stroke-dasharray:none;stroke-opacity:1"
       transform="matrix(1.3333333,0,0,-1.3333333,-100.34933,-81.869333)" />
    <path
       id="path21"
       d="m 300.57173,-73.44301 81.75946,-0.4857"
       style="fill:none;stroke:#4a90e2;stroke-width:1.49442;stroke-linecap:butt;stroke-linejoin:miter;stroke-miterlimit:10;stroke-dasharray:none;stroke-opacity:1"
       transform="matrix(1.3333333,0,0,-1.3333333,-100.34933,-81.869333)" />
    <path
       id="path22"
       d="m 300.57173,-108.45717 v 35.01416"
       style="fill:none;stroke:#4a90e2;stroke-width:1.49442;stroke-linecap:butt;stroke-linejoin:miter;stroke-miterlimit:10;stroke-dasharray:none;stroke-opacity:1"
       transform="matrix(1.3333333,0,0,-1.3333333,-100.34933,-81.869333)" />
    <path
       id="path23"
       d="m 288.90034,-61.77164 h 23.34278 v -23.34277 h -23.34278 z"
       style="fill:#f5a623;fill-opacity:0.5;fill-rule:nonzero;stroke:#000000;stroke-width:0.74721;stroke-linecap:butt;stroke-linejoin:miter;stroke-miterlimit:10;stroke-dasharray:none;stroke-opacity:1"
       transform="matrix(1.3333333,0,0,-1.3333333,-100.34933,-81.869333)" />
    <path
       id="path24"
       d="m 79.20401,-108.45717 h 23.34276 v -23.34277 H 79.20401 Z"
       style="fill:#f5a623;fill-opacity:0.2;fill-rule:nonzero;stroke:#000000;stroke-width:0.74721;stroke-linecap:butt;stroke-linejoin:miter;stroke-miterlimit:10;stroke-dasharray:none;stroke-opacity:1"
       transform="matrix(1.3333333,0,0,-1.3333333,-100.34933,-81.869333)" />
    <path
       id="path25"
       d="m 242.20734,-108.45717 h 23.34277 v -23.34277 h -23.34277 z"
       style="fill:#f5a623;fill-opacity:0.2;fill-rule:nonzero;stroke:#000000;stroke-width:0.74721;stroke-linecap:butt;stroke-linejoin:miter;stroke-miterlimit:10;stroke-dasharray:none;stroke-opacity:1"
       transform="matrix(1.3333333,0,0,-1.3333333,-100.34933,-81.869333)" />
    <path
       id="path26"
       d="m 79.20401,-131.79994 h 23.34276 v -23.34278 H 79.20401 Z"
       style="fill:#f5a623;fill-opacity:0.2;fill-rule:nonzero;stroke:#000000;stroke-width:0.74721;stroke-linecap:butt;stroke-linejoin:miter;stroke-miterlimit:10;stroke-dasharray:none;stroke-opacity:1"
       transform="matrix(1.3333333,0,0,-1.3333333,-100.34933,-81.869333)" />
    <path
       id="path27"
       d="m 242.20734,-131.79994 h 23.34277 v -23.34278 h -23.34277 z"
       style="fill:#f5a623;fill-opacity:0.2;fill-rule:nonzero;stroke:#000000;stroke-width:0.74721;stroke-linecap:butt;stroke-linejoin:miter;stroke-miterlimit:10;stroke-dasharray:none;stroke-opacity:1"
       transform="matrix(1.3333333,0,0,-1.3333333,-100.34933,-81.869333)" />
    <path
       id="path28"
       d="m 102.54677,-108.45717 h 23.34276 v -23.34277 h -23.34276 z"
       style="fill:#f5a623;fill-opacity:0.2;fill-rule:nonzero;stroke:#000000;stroke-width:0.74721;stroke-linecap:butt;stroke-linejoin:miter;stroke-miterlimit:10;stroke-dasharray:none;stroke-opacity:1"
       transform="matrix(1.3333333,0,0,-1.3333333,-100.34933,-81.869333)" />
    <path
       id="path29"
       d="m 265.55011,-108.45717 h 23.35023 v -23.34277 h -23.35023 z"
       style="fill:#f5a623;fill-opacity:0.2;fill-rule:nonzero;stroke:#000000;stroke-width:0.74721;stroke-linecap:butt;stroke-linejoin:miter;stroke-miterlimit:10;stroke-dasharray:none;stroke-opacity:1"
       transform="matrix(1.3333333,0,0,-1.3333333,-100.34933,-81.869333)" />
    <path
       id="path30"
       d="m 4.7569219,-2.8357734 c 0.035156,-0.140625 0.082031,-0.328125 0.5390625,-0.3398438 0.035156,0 0.1289062,-0.011719 0.1289062,-0.140625 0,-0.023437 -0.011719,-0.082031 -0.082031,-0.082031 -0.09375,0 -0.1992188,0.011719 -0.2929688,0.011719 -0.082031,0 -0.1757812,0 -0.2695312,0 -0.1054688,0 -0.1992188,0 -0.2929688,0 -0.09375,0 -0.1992187,-0.011719 -0.2929687,-0.011719 -0.035156,0 -0.1171875,0 -0.1171875,0.140625 0,0.082031 0.070312,0.082031 0.1289062,0.082031 0.328125,0 0.3398438,0.1054688 0.3398438,0.1875 0,0.035156 0,0.070312 -0.011719,0.09375 L 3.9952031,-0.74983594 2.5069219,-3.3162422 c -0.046875,-0.082031 -0.058594,-0.082031 -0.1875,-0.082031 H 1.5577031 c -0.1054687,0 -0.1757812,0 -0.1757812,0.140625 0,0.082031 0.058594,0.082031 0.1757812,0.082031 0.023437,0 0.2226563,0 0.3398438,0.023437 l -0.6445313,2.58984376 c -0.035156,0.140625 -0.082031,0.328125 -0.55078122,0.33984375 -0.0351563,0 -0.1171875,0 -0.1171875,0.140625 0,0.046875 0.0351563,0.0820312525 0.0820313,0.0820312525 0.09375,0 0.19921875,-0.0117187525 0.28125,-0.0117187525 0.09375,0 0.18749992,-0.01171875 0.28124992,-0.01171875 0.1054688,0 0.1992188,0.01171875 0.2929688,0.01171875 0.09375,0 0.1992187,0.0117187525 0.2929687,0.0117187525 0.058594,0 0.1171875,-0.0351562525 0.1171875,-0.1406250025 0,-0.0820313 -0.070312,-0.0820313 -0.1289062,-0.0820313 -0.2460938,-0.0117188 -0.3398438,-0.0703125 -0.3398438,-0.1875 0,-0.0351563 0,-0.0703125 0.011719,-0.1171875 L 2.0967659,-3.023274 3.8194222,-0.09358649 c 0.046875,0.0937500025 0.070312,0.0937500025 0.1289062,0.0937500025 0.1054687,0 0.1054687,-0.0234375025 0.1289062,-0.1289062525 z m 0,0"
       style="fill:#000000;fill-opacity:1;fill-rule:nonzero;stroke:none"
       aria-label="N"
       transform="matrix(1.3333333,0,0,1.3333333,16.884,18.324)" />
    <g
       id="g30"
       aria-label="N+1"
       transform="matrix(1.3333333,0,0,1.3333333,40.161333,17.770667)">
      <path
         id="path31"
         d="m 4.7569297,-2.8367891 c 0.035156,-0.140625 0.082031,-0.328125 0.5390625,-0.3398437 0.035156,0 0.1289062,-0.011719 0.1289062,-0.140625 0,-0.023437 -0.011719,-0.082031 -0.082031,-0.082031 -0.09375,0 -0.1992188,0.011719 -0.2929688,0.011719 -0.082031,0 -0.1757812,0 -0.2695312,0 -0.1054688,0 -0.1992188,0 -0.2929688,0 -0.09375,0 -0.1992187,-0.011719 -0.2929687,-0.011719 -0.035156,0 -0.1171875,0 -0.1171875,0.140625 0,0.082031 0.070312,0.082031 0.1289062,0.082031 0.328125,0 0.3398438,0.1054687 0.3398438,0.1875 0,0.035156 0,0.070312 -0.011719,0.09375 L 3.9952109,-0.75085156 2.5069297,-3.3172578 c -0.046875,-0.082031 -0.058594,-0.082031 -0.1875,-0.082031 H 1.5577109 c -0.1054687,0 -0.1757812,0 -0.1757812,0.140625 0,0.082031 0.058594,0.082031 0.1757812,0.082031 0.023437,0 0.2226563,0 0.3398438,0.023437 l -0.6445313,2.58984374 c -0.035156,0.140625 -0.082031,0.328125 -0.55078121,0.33984375 -0.0351563,0 -0.1171875,0 -0.1171875,0.140625 0,0.046875 0.0351563,0.0820312475 0.0820313,0.0820312475 0.09375,0 0.19921875,-0.0117187475 0.28125,-0.0117187475 0.09375,0 0.18749991,-0.01171875 0.28125001,-0.01171875 0.1054687,0 0.1992187,0.01171875 0.2929687,0.01171875 0.09375,0 0.1992188,0.0117187475 0.2929688,0.0117187475 0.058594,0 0.1171875,-0.0351562475 0.1171875,-0.1406249975 0,-0.0820313 -0.070312,-0.0820313 -0.1289063,-0.0820313 -0.2460937,-0.0117188 -0.3398437,-0.0703125 -0.3398437,-0.1875 0,-0.0351563 0,-0.0703125 0.011719,-0.1171875 L 2.0967737,-3.0242897 3.81943,-0.09460211 c 0.046875,0.0937499975 0.070312,0.0937499975 0.1289061,0.0937499975 0.1054688,0 0.1054688,-0.0234374975 0.1289063,-0.1289062475 z m 0,0"
         style="fill:#000000;fill-opacity:1;fill-rule:nonzero;stroke:none" />
      <path
         id="path32"
         d="m 10.226656,-1.1024141 h 1.734375 c 0.07031,0 0.199219,0 0.199219,-0.140625 0,-0.140625 -0.128906,-0.140625 -0.199219,-0.140625 h -1.734375 v -1.734375 c 0,-0.070312 0,-0.1992187 -0.140625,-0.1992187 -0.128906,0 -0.128906,0.1289062 -0.128906,0.1992187 v 1.734375 H 8.2110313 c -0.058594,0 -0.1992188,0 -0.1992188,0.140625 0,0.140625 0.140625,0.140625 0.1992188,0.140625 H 9.957125 v 1.73437504 c 0,0.0703125 0,0.19921875 0.128906,0.19921875 0.140625,0 0.140625,-0.12890625 0.140625,-0.19921875 z m 6.029297,-2.0625 c 0,-0.1523437 -0.01172,-0.1523437 -0.175781,-0.1523437 -0.351563,0.3164062 -0.902344,0.3164062 -1.007813,0.3164062 h -0.08203 v 0.2226563 h 0.08203 c 0.117188,0 0.433594,-0.011719 0.726563,-0.140625 v 2.48437499 c 0,0.1640625 0,0.2109375 -0.527344,0.2109375 H 15.025484 V -8.515625e-4 C 15.295016,-0.02428906 15.740328,-0.02428906 16.033297,-0.02428906 c 0.28125,0 0.726562,0 0.996094,0.0234374975 V -0.22350781 h -0.246094 c -0.527344,0 -0.527344,-0.046875 -0.527344,-0.2109375 z m 0,0"
         style="fill:#000000;fill-opacity:1;fill-rule:nonzero;stroke:none" />
    </g>
    <g
       id="g32"
       aria-label="N+2"
       transform="matrix(1.3333333,0,0,1.3333333,71.284,17.770667)">
      <path
         id="path33"
         d="m 4.7586797,-2.8367891 c 0.035156,-0.140625 0.082031,-0.328125 0.5390625,-0.3398437 0.035156,0 0.1289062,-0.011719 0.1289062,-0.140625 0,-0.023437 -0.011719,-0.082031 -0.082031,-0.082031 -0.09375,0 -0.1992188,0.011719 -0.2929688,0.011719 -0.082031,0 -0.1757812,0 -0.2695312,0 -0.1054688,0 -0.1992188,0 -0.2929688,0 -0.09375,0 -0.1992187,-0.011719 -0.2929687,-0.011719 -0.035156,0 -0.1171875,0 -0.1171875,0.140625 0,0.082031 0.070312,0.082031 0.1289062,0.082031 0.328125,0 0.3398438,0.1054687 0.3398438,0.1875 0,0.035156 0,0.070312 -0.011719,0.09375 L 3.9969609,-0.75085156 2.5086797,-3.3172578 c -0.046875,-0.082031 -0.058594,-0.082031 -0.1875,-0.082031 H 1.5594609 c -0.1054687,0 -0.1757812,0 -0.1757812,0.140625 0,0.082031 0.058594,0.082031 0.1757812,0.082031 0.023437,0 0.2226563,0 0.3398438,0.023437 l -0.6445313,2.58984374 c -0.035156,0.140625 -0.082031,0.328125 -0.55078121,0.33984375 -0.0351563,0 -0.1171875,0 -0.1171875,0.140625 0,0.046875 0.0351563,0.0820312475 0.0820313,0.0820312475 0.09375,0 0.19921875,-0.0117187475 0.28125,-0.0117187475 0.09375,0 0.18749991,-0.01171875 0.28124991,-0.01171875 0.1054688,0 0.1992188,0.01171875 0.2929688,0.01171875 0.09375,0 0.1992187,0.0117187475 0.2929687,0.0117187475 0.058594,0 0.1171875,-0.0351562475 0.1171875,-0.1406249975 0,-0.0820313 -0.070312,-0.0820313 -0.1289062,-0.0820313 -0.2460938,-0.0117188 -0.3398438,-0.0703125 -0.3398438,-0.1875 0,-0.0351563 0,-0.0703125 0.011719,-0.1171875 L 2.0985237,-3.0242897 3.82118,-0.09460211 c 0.046875,0.0937499975 0.070312,0.0937499975 0.1289062,0.0937499975 0.1054688,0 0.1054688,-0.0234374975 0.1289063,-0.1289062475 z m 0,0"
         style="fill:#000000;fill-opacity:1;fill-rule:nonzero;stroke:none" />
      <path
         id="path34"
         d="m 10.225477,-1.1024141 h 1.734375 c 0.07031,0 0.199218,0 0.199218,-0.140625 0,-0.140625 -0.128906,-0.140625 -0.199218,-0.140625 h -1.734375 v -1.734375 c 0,-0.070312 0,-0.1992187 -0.140625,-0.1992187 -0.1289067,0 -0.1289067,0.1289062 -0.1289067,0.1992187 v 1.734375 H 8.2098516 c -0.058594,0 -0.1992188,0 -0.1992188,0.140625 0,0.140625 0.140625,0.140625 0.1992188,0.140625 h 1.7460937 v 1.73437504 c 0,0.0703125 0,0.19921875 0.1289067,0.19921875 0.140625,0 0.140625,-0.12890625 0.140625,-0.19921875 z m 6.978515,0.14062504 h -0.210937 c -0.01172,0.09375 -0.05859,0.3984375 -0.140625,0.45703125 -0.03516,0.0234375 -0.457032,0.0234375 -0.527344,0.0234375 h -0.984375 c 0.328125,-0.24609375 0.703125,-0.515625 0.996094,-0.71484379 0.457031,-0.3164062 0.867187,-0.5976562 0.867187,-1.125 0,-0.6445312 -0.597656,-0.9960937 -1.3125,-0.9960937 -0.667969,0 -1.160156,0.3867187 -1.160156,0.8789062 0,0.2578125 0.210937,0.3046875 0.28125,0.3046875 0.140625,0 0.292969,-0.09375 0.292969,-0.2929687 0,-0.1875 -0.128907,-0.28125 -0.28125,-0.2929688 0.140625,-0.234375 0.433593,-0.375 0.761718,-0.375 0.480469,0 0.890625,0.28125 0.890625,0.7734375 0,0.421875 -0.292968,0.7382813 -0.679687,1.0546875 l -1.207031,1.03125004 c -0.04687,0.046875 -0.05859,0.046875 -0.05859,0.0820313 v 0.1523437475 h 2.308594 z m 0,0"
         style="fill:#000000;fill-opacity:1;fill-rule:nonzero;stroke:none" />
    </g>
    <path
       id="path35"
       d="m 1.4421719,-1.2426328 c 0,-0.1640625 -0.140625,-0.3046875 -0.3046875,-0.3046875 -0.16406252,0 -0.30468752,0.140625 -0.30468752,0.3046875 0,0.1640625 0.140625,0.30468749 0.30468752,0.30468749 0.1640625,0 0.3046875,-0.14062499 0.3046875,-0.30468749 z m 3.5009765,0 c 0,-0.1640625 -0.140625,-0.3046875 -0.3046875,-0.3046875 -0.1640625,0 -0.3046875,0.140625 -0.3046875,0.3046875 0,0.1640625 0.140625,0.30468749 0.3046875,0.30468749 0.1640625,0 0.3046875,-0.14062499 0.3046875,-0.30468749 z m 3.5009766,0 c 0,-0.1640625 -0.140625,-0.3046875 -0.3046875,-0.3046875 -0.1640625,0 -0.3046875,0.140625 -0.3046875,0.3046875 0,0.1640625 0.140625,0.30468749 0.3046875,0.30468749 0.1640625,0 0.3046875,-0.14062499 0.3046875,-0.30468749 z m 0,0"
       style="fill:#000000;fill-opacity:1;fill-rule:nonzero;stroke:none"
       aria-label="···"
       transform="matrix(1.3333333,0,0,1.3333333,107.17867,17.692)" />
    <g
       id="g35"
       aria-label="N−1"
       transform="matrix(1.3333333,0,0,1.3333333,8.852,48.894667)">
      <path
         id="path36"
         d="m 4.7574844,-2.8360391 c 0.035156,-0.140625 0.082031,-0.328125 0.5390625,-0.3398437 0.035156,0 0.1289062,-0.011719 0.1289062,-0.140625 0,-0.023437 -0.011719,-0.082031 -0.082031,-0.082031 -0.09375,0 -0.1992188,0.011719 -0.2929688,0.011719 -0.082031,0 -0.1757812,0 -0.2695312,0 -0.1054688,0 -0.1992188,0 -0.2929688,0 -0.09375,0 -0.1992187,-0.011719 -0.2929687,-0.011719 -0.035156,0 -0.1171875,0 -0.1171875,0.140625 0,0.082031 0.070312,0.082031 0.1289062,0.082031 0.328125,0 0.3398438,0.1054687 0.3398438,0.1875 0,0.035156 0,0.070312 -0.011719,0.09375 L 3.9957656,-0.75010156 2.5074844,-3.3165078 c -0.046875,-0.082031 -0.058594,-0.082031 -0.1875,-0.082031 H 1.5582656 c -0.1054687,0 -0.1757812,0 -0.1757812,0.140625 0,0.082031 0.058594,0.082031 0.1757812,0.082031 0.023437,0 0.2226563,0 0.3398438,0.023437 l -0.6445313,2.58984374 c -0.035156,0.140625 -0.082031,0.328125 -0.55078123,0.33984375 -0.0351563,0 -0.1171875,0 -0.1171875,0.140625 0,0.046875 0.0351563,0.0820312475 0.0820313,0.0820312475 0.09375,0 0.19921875,-0.0117187475 0.28125,-0.0117187475 0.09375,0 0.18749993,-0.01171875 0.28124993,-0.01171875 0.1054688,0 0.1992188,0.01171875 0.2929688,0.01171875 0.09375,0 0.1992187,0.0117187475 0.2929687,0.0117187475 0.058594,0 0.1171875,-0.0351562475 0.1171875,-0.1406249975 0,-0.0820313 -0.070312,-0.0820313 -0.1289062,-0.0820313 -0.2460938,-0.0117188 -0.3398438,-0.0703125 -0.3398438,-0.1875 0,-0.0351563 0,-0.0703125 0.011719,-0.1171875 l 0.6210937,-2.49609384 1.7226563,2.92968759 c 0.046875,0.0937499975 0.070312,0.0937499975 0.1289062,0.0937499975 0.1054688,0 0.1054688,-0.0234374975 0.1289063,-0.1289062475 z m 0,0"
         style="fill:#000000;fill-opacity:1;fill-rule:nonzero;stroke:none" />
      <path
         id="path37"
         d="m 11.914711,-1.1016641 c 0.08203,0 0.210937,0 0.210937,-0.140625 0,-0.140625 -0.128906,-0.140625 -0.210937,-0.140625 H 8.5397109 c -0.082031,0 -0.2109375,0 -0.2109375,0.140625 0,0.140625 0.1289063,0.140625 0.2109375,0.140625 z m 0,0"
         style="fill:#000000;fill-opacity:1;fill-rule:nonzero;stroke:none" />
      <path
         id="path38"
         d="m 16.537758,-3.1641641 c 0,-0.1523437 -0.01172,-0.1523437 -0.175781,-0.1523437 -0.351563,0.3164062 -0.902344,0.3164062 -1.007813,0.3164062 h -0.08203 v 0.2226563 h 0.08203 c 0.117188,0 0.433594,-0.011719 0.726563,-0.140625 v 2.48437499 c 0,0.1640625 0,0.2109375 -0.527344,0.2109375 H 15.307289 V -1.015625e-4 C 15.57682,-0.02353906 16.022133,-0.02353906 16.315102,-0.02353906 c 0.28125,0 0.726562,0 0.996093,0.0234374975 V -0.22275781 h -0.246093 c -0.527344,0 -0.527344,-0.046875 -0.527344,-0.2109375 z m 0,0"
         style="fill:#000000;fill-opacity:1;fill-rule:nonzero;stroke:none" />
    </g>
    <path
       id="path39"
       d="m 4.7586719,-2.8350234 c 0.035156,-0.140625 0.082031,-0.328125 0.5390625,-0.3398438 0.035156,0 0.1289062,-0.011719 0.1289062,-0.140625 0,-0.023437 -0.011719,-0.082031 -0.082031,-0.082031 -0.09375,0 -0.1992188,0.011719 -0.2929688,0.011719 -0.082031,0 -0.1757812,0 -0.2695312,0 -0.1054688,0 -0.1992188,0 -0.2929688,0 -0.09375,0 -0.1992187,-0.011719 -0.2929687,-0.011719 -0.035156,0 -0.1171875,0 -0.1171875,0.140625 0,0.082031 0.070312,0.082031 0.1289062,0.082031 0.328125,0 0.3398438,0.1054688 0.3398438,0.1875 0,0.035156 0,0.070312 -0.011719,0.09375 L 3.9969531,-0.74908594 2.5086719,-3.3154922 c -0.046875,-0.082031 -0.058594,-0.082031 -0.1875,-0.082031 H 1.5594531 c -0.1054687,0 -0.1757812,0 -0.1757812,0.140625 0,0.082031 0.058594,0.082031 0.1757812,0.082031 0.023437,0 0.2226563,0 0.3398438,0.023437 l -0.6445313,2.58984376 c -0.035156,0.140625 -0.082031,0.328125 -0.55078122,0.33984375 -0.0351563,0 -0.1171875,0 -0.1171875,0.140625 0,0.046875 0.0351563,0.0820312525 0.0820313,0.0820312525 0.09375,0 0.19921875,-0.0117187525 0.28125,-0.0117187525 0.09375,0 0.18749992,-0.01171875 0.28124992,-0.01171875 0.1054688,0 0.1992188,0.01171875 0.2929688,0.01171875 0.09375,0 0.1992187,0.0117187525 0.2929687,0.0117187525 0.058594,0 0.1171875,-0.0351562525 0.1171875,-0.1406250025 0,-0.0820313 -0.070312,-0.0820313 -0.1289062,-0.0820313 -0.2460938,-0.0117188 -0.3398438,-0.0703125 -0.3398438,-0.1875 0,-0.0351563 0,-0.0703125 0.011719,-0.1171875 L 2.0985159,-3.022524 3.8211721,-0.09283649 c 0.046875,0.0937500025 0.070312,0.0937500025 0.1289062,0.0937500025 0.1054688,0 0.1054688,-0.0234375025 0.1289063,-0.1289062525 z m 0,0"
       style="fill:#000000;fill-opacity:1;fill-rule:nonzero;stroke:none"
       aria-label="N"
       transform="matrix(1.3333333,0,0,1.3333333,48.006667,49.448)" />
    <g
       id="g39"
       aria-label="N+1"
       transform="matrix(1.3333333,0,0,1.3333333,71.284,48.894667)">
      <path
         id="path40"
         d="m 4.7586797,-2.8360391 c 0.035156,-0.140625 0.082031,-0.328125 0.5390625,-0.3398437 0.035156,0 0.1289062,-0.011719 0.1289062,-0.140625 0,-0.023437 -0.011719,-0.082031 -0.082031,-0.082031 -0.09375,0 -0.1992188,0.011719 -0.2929688,0.011719 -0.082031,0 -0.1757812,0 -0.2695312,0 -0.1054688,0 -0.1992188,0 -0.2929688,0 -0.09375,0 -0.1992187,-0.011719 -0.2929687,-0.011719 -0.035156,0 -0.1171875,0 -0.1171875,0.140625 0,0.082031 0.070312,0.082031 0.1289062,0.082031 0.328125,0 0.3398438,0.1054687 0.3398438,0.1875 0,0.035156 0,0.070312 -0.011719,0.09375 L 3.9969609,-0.75010156 2.5086797,-3.3165078 c -0.046875,-0.082031 -0.058594,-0.082031 -0.1875,-0.082031 H 1.5594609 c -0.1054687,0 -0.1757812,0 -0.1757812,0.140625 0,0.082031 0.058594,0.082031 0.1757812,0.082031 0.023437,0 0.2226563,0 0.3398438,0.023437 l -0.6445313,2.58984374 c -0.035156,0.140625 -0.082031,0.328125 -0.55078121,0.33984375 -0.0351563,0 -0.1171875,0 -0.1171875,0.140625 0,0.046875 0.0351563,0.0820312475 0.0820313,0.0820312475 0.09375,0 0.19921875,-0.0117187475 0.28125,-0.0117187475 0.09375,0 0.18749991,-0.01171875 0.28124991,-0.01171875 0.1054688,0 0.1992188,0.01171875 0.2929688,0.01171875 0.09375,0 0.1992187,0.0117187475 0.2929687,0.0117187475 0.058594,0 0.1171875,-0.0351562475 0.1171875,-0.1406249975 0,-0.0820313 -0.070312,-0.0820313 -0.1289062,-0.0820313 -0.2460938,-0.0117188 -0.3398438,-0.0703125 -0.3398438,-0.1875 0,-0.0351563 0,-0.0703125 0.011719,-0.1171875 L 2.0985237,-3.0235397 3.82118,-0.09385211 c 0.046875,0.0937499975 0.070312,0.0937499975 0.1289062,0.0937499975 0.1054688,0 0.1054688,-0.0234374975 0.1289063,-0.1289062475 z m 0,0"
         style="fill:#000000;fill-opacity:1;fill-rule:nonzero;stroke:none" />
      <path
         id="path41"
         d="m 10.225477,-1.1016641 h 1.734375 c 0.07031,0 0.199218,0 0.199218,-0.140625 0,-0.140625 -0.128906,-0.140625 -0.199218,-0.140625 h -1.734375 v -1.734375 c 0,-0.070312 0,-0.1992187 -0.140625,-0.1992187 -0.1289067,0 -0.1289067,0.1289062 -0.1289067,0.1992187 v 1.734375 H 8.2098516 c -0.058594,0 -0.1992188,0 -0.1992188,0.140625 0,0.140625 0.140625,0.140625 0.1992188,0.140625 h 1.7460937 v 1.73437504 c 0,0.0703125 0,0.19921875 0.1289067,0.19921875 0.140625,0 0.140625,-0.12890625 0.140625,-0.19921875 z m 6.029296,-2.0625 c 0,-0.1523437 -0.01172,-0.1523437 -0.175781,-0.1523437 -0.351562,0.3164062 -0.902344,0.3164062 -1.007812,0.3164062 h -0.08203 v 0.2226563 h 0.08203 c 0.117187,0 0.433593,-0.011719 0.726562,-0.140625 v 2.48437499 c 0,0.1640625 0,0.2109375 -0.527344,0.2109375 H 15.024305 V -1.015625e-4 C 15.293836,-0.02353906 15.739148,-0.02353906 16.032117,-0.02353906 c 0.28125,0 0.726563,0 0.996094,0.0234374975 V -0.22275781 h -0.246094 c -0.527344,0 -0.527344,-0.046875 -0.527344,-0.2109375 z m 0,0"
         style="fill:#000000;fill-opacity:1;fill-rule:nonzero;stroke:none" />
    </g>
    <path
       id="path42"
       d="m 1.4421719,-1.2418828 c 0,-0.1640625 -0.140625,-0.3046875 -0.3046875,-0.3046875 -0.16406252,0 -0.30468752,0.140625 -0.30468752,0.3046875 0,0.1640625 0.140625,0.30468749 0.30468752,0.30468749 0.1640625,0 0.3046875,-0.14062499 0.3046875,-0.30468749 z m 3.5009765,0 c 0,-0.1640625 -0.140625,-0.3046875 -0.3046875,-0.3046875 -0.1640625,0 -0.3046875,0.140625 -0.3046875,0.3046875 0,0.1640625 0.140625,0.30468749 0.3046875,0.30468749 0.1640625,0 0.3046875,-0.14062499 0.3046875,-0.30468749 z m 3.5009766,0 c 0,-0.1640625 -0.140625,-0.3046875 -0.3046875,-0.3046875 -0.1640625,0 -0.3046875,0.140625 -0.3046875,0.3046875 0,0.1640625 0.140625,0.30468749 0.3046875,0.30468749 0.1640625,0 0.3046875,-0.14062499 0.3046875,-0.30468749 z m 0,0"
       style="fill:#000000;fill-opacity:1;fill-rule:nonzero;stroke:none"
       aria-label="···"
       transform="matrix(1.3333333,0,0,1.3333333,107.17867,48.816)" />
    <g
       id="g42"
       aria-label="dim=&#10;N(N+1)···×(N−1)N(N+1)···"
       transform="matrix(1.3333333,0,0,1.3333333,57.889333,171.604)">
      <path
         id="path43"
         d="m 3.786125,-0.54967969 v 0.65625 L 5.2509688,0.00110156 v -0.3046875 c -0.703125,0 -0.7734375,-0.0703125 -0.7734375,-0.5625 V -6.9129609 L 3.036125,-6.8074922 v 0.3164063 c 0.703125,0 0.7851563,0.070312 0.7851563,0.5507812 v 2.15625 c -0.2929688,-0.3632812 -0.7265625,-0.6210937 -1.265625,-0.6210937 -1.171875,0 -2.2148438,0.984375 -2.2148438,2.2617187 0,1.26562501 0.9726563,2.25000001 2.109375,2.25000001 0.6445313,0 1.0898438,-0.33984375 1.3359375,-0.65625 z m 0,-2.67187501 v 2.0507813 c 0,0.17578121 0,0.19921871 -0.1054687,0.36328121 -0.3046875,0.48046875 -0.75,0.703125 -1.1835938,0.703125 -0.4453125,0 -0.796875,-0.2578125 -1.0429687,-0.64453125 C 1.1962813,-1.1590547 1.161125,-1.7215547 1.161125,-2.1317109 c 0,-0.3632813 0.023437,-0.9609375 0.3164063,-1.4179688 0.2109375,-0.3046875 0.5859375,-0.6328125 1.125,-0.6328125 0.3515625,0 0.7617187,0.1523438 1.078125,0.5976563 0.1054687,0.1640625 0.1054687,0.1875 0.1054687,0.3632812 z m 3.5009766,-1.1835937 -1.3945313,0.1171875 v 0.3046875 c 0.65625,0 0.7382813,0.058594 0.7382813,0.5507812 v 2.67187501 c 0,0.45703125 -0.1054688,0.45703125 -0.7734375,0.45703125 v 0.3046875 c 0.3164062,-0.01171875 0.8554687,-0.03515625 1.1015625,-0.03515625 0.3398437,0 0.6914062,0.0234375 1.03125,0.03515625 v -0.3046875 c -0.65625,0 -0.703125,-0.0585938 -0.703125,-0.4453125 z m 0.046875,-1.734375 c 0,-0.3164063 -0.2460938,-0.5273438 -0.5273438,-0.5273438 -0.3164062,0 -0.5273437,0.2695313 -0.5273437,0.5273438 0,0.2695312 0.2109375,0.5273437 0.5273437,0.5273437 0.28125,0 0.5273438,-0.1992187 0.5273438,-0.5273437 z m 2.0566406,2.71875 v 2.66015621 c 0,0.45703125 -0.1171875,0.45703125 -0.7851563,0.45703125 v 0.3046875 c 0.3515625,-0.01171875 0.8554688,-0.03515625 1.125,-0.03515625 0.2578125,0 0.7851561,0.0234375 1.1132811,0.03515625 v -0.3046875 c -0.65625,0 -0.773437,0 -0.773437,-0.45703125 V -2.5887422 c 0,-1.03125 0.714843,-1.59375 1.347656,-1.59375 0.621094,0 0.738281,0.5390625 0.738281,1.1015625 v 2.32031251 c 0,0.45703125 -0.117187,0.45703125 -0.773437,0.45703125 v 0.3046875 c 0.339843,-0.01171875 0.855468,-0.03515625 1.125,-0.03515625 0.257812,0 0.773437,0.0234375 1.113281,0.03515625 v -0.3046875 c -0.667969,0 -0.785156,0 -0.785156,-0.45703125 V -2.5887422 c 0,-1.03125 0.714843,-1.59375 1.347656,-1.59375 0.632812,0 0.738281,0.5390625 0.738281,1.1015625 v 2.32031251 c 0,0.45703125 -0.105469,0.45703125 -0.773437,0.45703125 v 0.3046875 c 0.351562,-0.01171875 0.855468,-0.03515625 1.125,-0.03515625 0.257812,0 0.773437,0.0234375 1.113281,0.03515625 v -0.3046875 c -0.515625,0 -0.761719,0 -0.773438,-0.3046875 V -2.5067109 c 0,-0.8554688 0,-1.171875 -0.316406,-1.5234375 -0.128906,-0.1757813 -0.46875,-0.375 -1.042969,-0.375 -0.832031,0 -1.277343,0.5976562 -1.441406,0.984375 -0.140625,-0.8671875 -0.878906,-0.984375 -1.324219,-0.984375 -0.726562,0 -1.195312,0.4335937 -1.476562,1.0546875 v -1.0546875 l -1.4062501,0.1171875 v 0.3046875 c 0.703125,0 0.7851563,0.070312 0.7851563,0.5625 z m 16.8017578,0.1640625 c 0.152344,0 0.339844,0 0.339844,-0.1992188 0,-0.1992187 -0.1875,-0.1992187 -0.328125,-0.1992187 H 20.23925 c -0.140625,0 -0.328125,0 -0.328125,0.1992187 0,0.1992188 0.1875,0.1992188 0.339844,0.1992188 z m 0.01172,1.9335937 c 0.140625,0 0.328125,0 0.328125,-0.1992187 0,-0.1992188 -0.1875,-0.1992188 -0.339844,-0.1992188 H 20.25097 c -0.152344,0 -0.339844,0 -0.339844,0.1992188 0,0.1992187 0.1875,0.1992187 0.328125,0.1992187 z m 0,0"
         style="fill:#000000;fill-opacity:1;fill-rule:nonzero;stroke:none" />
      <path
         id="path44"
         d="m 38.61718,-12.494016 c 0.09375,-0.398437 0.269531,-0.714843 1.066406,-0.738281 0.05859,0 0.175781,-0.01172 0.175781,-0.199219 0,-0.01172 0,-0.117187 -0.128906,-0.117187 -0.328125,0 -0.679688,0.03516 -1.007813,0.03516 -0.339843,0 -0.691406,-0.03516 -1.019531,-0.03516 -0.05859,0 -0.175781,0 -0.175781,0.199219 0,0.117187 0.09375,0.117187 0.175781,0.117187 0.574219,0.01172 0.679688,0.210938 0.679688,0.433594 0,0.03516 -0.02344,0.175781 -0.02344,0.210937 l -1.125,4.4296879 -2.203125,-5.1914059 c -0.07031,-0.1875 -0.08203,-0.199219 -0.316406,-0.199219 h -1.335938 c -0.199218,0 -0.28125,0 -0.28125,0.199219 0,0.117187 0.08203,0.117187 0.28125,0.117187 0.04687,0 0.667969,0 0.667969,0.08203 l -1.335937,5.3554691 c -0.09375,0.3984375 -0.269532,0.7148438 -1.066407,0.75 -0.05859,0 -0.175781,0 -0.175781,0.1992188 0,0.070312 0.04687,0.1054687 0.128906,0.1054687 0.316407,0 0.667969,-0.035156 0.996094,-0.035156 0.339844,0 0.703125,0.035156 1.03125,0.035156 0.04687,0 0.175781,0 0.175781,-0.1992187 0,-0.1054688 -0.09375,-0.1054688 -0.199218,-0.1054688 -0.574219,-0.023437 -0.65625,-0.2460937 -0.65625,-0.4453125 0,-0.070312 0.01172,-0.1171875 0.03516,-0.2226562 l 1.324219,-5.2617184 c 0.03516,0.05859 0.03516,0.08203 0.08203,0.175781 l 2.484375,5.8710936 c 0.07031,0.1640625 0.09375,0.1875 0.1875,0.1875 0.105469,0 0.105469,-0.035156 0.164062,-0.2109375 z m 0,0"
         style="fill:#000000;fill-opacity:1;fill-rule:nonzero;stroke:none" />
      <path
         id="path45"
         d="m 43.465813,-4.3494844 c 0,-0.035156 0,-0.046875 -0.164063,-0.2226562 -1.242187,-1.2539063 -1.570312,-3.1289063 -1.570312,-4.6640625 0,-1.7226559 0.386718,-3.4570309 1.605468,-4.7109379 0.128907,-0.117187 0.128907,-0.128906 0.128907,-0.164062 0,-0.07031 -0.03516,-0.105469 -0.09375,-0.105469 -0.105469,0 -0.996094,0.679688 -1.582032,1.945313 -0.515625,1.101562 -0.632812,2.203125 -0.632812,3.0351559 0,0.7851562 0.117187,1.9921875 0.65625,3.1171875 0.597656,1.21875 1.453125,1.875 1.558594,1.875 0.05859,0 0.09375,-0.035156 0.09375,-0.1054688 z m 0,0"
         style="fill:#000000;fill-opacity:1;fill-rule:nonzero;stroke:none" />
      <path
         id="path46"
         d="m 51.583977,-12.494016 c 0.09375,-0.398437 0.269531,-0.714843 1.066406,-0.738281 0.05859,0 0.175781,-0.01172 0.175781,-0.199219 0,-0.01172 0,-0.117187 -0.128906,-0.117187 -0.328125,0 -0.679688,0.03516 -1.007813,0.03516 -0.339843,0 -0.691406,-0.03516 -1.019531,-0.03516 -0.05859,0 -0.175781,0 -0.175781,0.199219 0,0.117187 0.09375,0.117187 0.175781,0.117187 0.574219,0.01172 0.679688,0.210938 0.679688,0.433594 0,0.03516 -0.02344,0.175781 -0.02344,0.210937 l -1.125,4.4296879 -2.203125,-5.1914059 c -0.07031,-0.1875 -0.08203,-0.199219 -0.316406,-0.199219 h -1.335938 c -0.199218,0 -0.28125,0 -0.28125,0.199219 0,0.117187 0.08203,0.117187 0.28125,0.117187 0.04687,0 0.667969,0 0.667969,0.08203 l -1.335937,5.3554691 c -0.09375,0.3984375 -0.269532,0.7148438 -1.066407,0.75 -0.05859,0 -0.175781,0 -0.175781,0.1992188 0,0.070312 0.04687,0.1054687 0.128906,0.1054687 0.316407,0 0.667969,-0.035156 0.996094,-0.035156 0.339844,0 0.703125,0.035156 1.03125,0.035156 0.04687,0 0.175781,0 0.175781,-0.1992187 0,-0.1054688 -0.09375,-0.1054688 -0.199218,-0.1054688 -0.574219,-0.023437 -0.65625,-0.2460937 -0.65625,-0.4453125 0,-0.070312 0.01172,-0.1171875 0.03516,-0.2226562 l 1.324219,-5.2617184 c 0.03516,0.05859 0.03516,0.08203 0.08203,0.175781 l 2.484375,5.8710936 c 0.07031,0.1640625 0.09375,0.1875 0.1875,0.1875 0.105469,0 0.105469,-0.035156 0.164062,-0.2109375 z m 0,0"
         style="fill:#000000;fill-opacity:1;fill-rule:nonzero;stroke:none" />
      <path
         id="path47"
         d="m 59.42968,-9.0369844 h 2.777343 c 0.140625,0 0.328125,0 0.328125,-0.1992187 0,-0.1992188 -0.1875,-0.1992188 -0.328125,-0.1992188 H 59.42968 v -2.7890621 c 0,-0.128907 0,-0.328125 -0.199219,-0.328125 -0.199219,0 -0.199219,0.199218 -0.199219,0.328125 v 2.7890621 H 56.24218 c -0.140625,0 -0.328125,0 -0.328125,0.1992188 0,0.1992187 0.1875,0.1992187 0.328125,0.1992187 h 2.789062 v 2.8007813 c 0,0.1289062 0,0.328125 0.199219,0.328125 0.199219,0 0.199219,-0.1992188 0.199219,-0.328125 z m 8.80664,-4.0781246 c 0,-0.234375 0,-0.257813 -0.234375,-0.257813 -0.609375,0.632813 -1.488281,0.632813 -1.804687,0.632813 v 0.316406 c 0.199219,0 0.785156,0 1.300781,-0.257813 v 5.1562504 c 0,0.3515625 -0.03516,0.4804687 -0.925781,0.4804687 h -0.316406 v 0.3046875 c 0.351562,-0.035156 1.207031,-0.035156 1.605468,-0.035156 0.398438,0 1.265625,0 1.617188,0.035156 v -0.3046875 h -0.316406 c -0.902344,0 -0.925782,-0.1171875 -0.925782,-0.4804687 z m 4.933594,3.8789059 c 0,-0.7734379 -0.117187,-1.9804689 -0.65625,-3.1054689 -0.597656,-1.21875 -1.464844,-1.875 -1.558594,-1.875 -0.05859,0 -0.105468,0.04687 -0.105468,0.105469 0,0.03516 0,0.04687 0.199218,0.234375 0.972657,0.984375 1.535157,2.566406 1.535157,4.6406249 0,1.7109375 -0.363282,3.4570312 -1.59375,4.7226562 -0.140625,0.1171875 -0.140625,0.1289063 -0.140625,0.1640625 0,0.058594 0.04687,0.1054688 0.105468,0.1054688 0.09375,0 0.996094,-0.6796875 1.582032,-1.9453125 0.503906,-1.1015625 0.632812,-2.203125 0.632812,-3.046875 z m 0,0"
         style="fill:#000000;fill-opacity:1;fill-rule:nonzero;stroke:none" />
      <path
         id="path48"
         d="m 77.743156,-9.2362031 c 0,-0.28125 -0.234375,-0.5273438 -0.527343,-0.5273438 -0.28125,0 -0.527344,0.2460938 -0.527344,0.5273438 0,0.2929687 0.246094,0.5390625 0.527344,0.5390625 0.292968,0 0.527343,-0.2460938 0.527343,-0.5390625 z m 4.41211,0 c 0,-0.28125 -0.234375,-0.5273438 -0.527344,-0.5273438 -0.28125,0 -0.527344,0.2460938 -0.527344,0.5273438 0,0.2929687 0.246094,0.5390625 0.527344,0.5390625 0.292969,0 0.527344,-0.2460938 0.527344,-0.5390625 z m 4.423828,0 c 0,-0.28125 -0.234375,-0.5273438 -0.527344,-0.5273438 -0.28125,0 -0.527344,0.2460938 -0.527344,0.5273438 0,0.2929687 0.246094,0.5390625 0.527344,0.5390625 0.292969,0 0.527344,-0.2460938 0.527344,-0.5390625 z m 6.940429,-0.2695313 -1.992187,-1.9804686 c -0.128906,-0.128906 -0.140625,-0.140625 -0.222656,-0.140625 -0.105469,0 -0.199219,0.08203 -0.199219,0.199219 0,0.07031 0.02344,0.08203 0.128906,0.199218 l 1.992188,1.9921879 -1.992188,2.0039062 c -0.105469,0.1171875 -0.128906,0.1289063 -0.128906,0.1992188 0,0.1171875 0.09375,0.1992187 0.199219,0.1992187 0.08203,0 0.09375,-0.011719 0.222656,-0.140625 l 1.980469,-1.9804687 2.0625,2.0625 c 0.01172,0.011719 0.08203,0.058594 0.152343,0.058594 0.117188,0 0.199219,-0.082031 0.199219,-0.1992187 0,-0.011719 0,-0.058594 -0.03516,-0.1054688 -0.01172,-0.023437 -1.59375,-1.5820312 -2.097656,-2.0976562 l 1.828125,-1.8164062 c 0.04687,-0.05859 0.199218,-0.1875 0.246093,-0.246094 0.01172,-0.02344 0.05859,-0.05859 0.05859,-0.128906 0,-0.117188 -0.08203,-0.199219 -0.199219,-0.199219 -0.08203,0 -0.128906,0.03516 -0.234375,0.140625 z m 0,0"
         style="fill:#000000;fill-opacity:1;fill-rule:nonzero;stroke:none" />
      <path
         id="path49"
         d="m 102.92382,-4.3494844 c 0,-0.035156 0,-0.046875 -0.16406,-0.2226562 -1.24219,-1.2539063 -1.57031,-3.1289063 -1.57031,-4.6640625 0,-1.7226559 0.38671,-3.4570309 1.60546,-4.7109379 0.12891,-0.117187 0.12891,-0.128906 0.12891,-0.164062 0,-0.07031 -0.0352,-0.105469 -0.0937,-0.105469 -0.10547,0 -0.99609,0.679688 -1.58203,1.945313 -0.51563,1.101562 -0.63281,2.203125 -0.63281,3.0351559 0,0.7851562 0.11718,1.9921875 0.65625,3.1171875 0.59765,1.21875 1.45312,1.875 1.55859,1.875 0.0586,0 0.0937,-0.035156 0.0937,-0.1054688 z m 0,0"
         style="fill:#000000;fill-opacity:1;fill-rule:nonzero;stroke:none" />
      <path
         id="path50"
         d="m 111.04198,-12.494016 c 0.0937,-0.398437 0.26954,-0.714843 1.06641,-0.738281 0.0586,0 0.17578,-0.01172 0.17578,-0.199219 0,-0.01172 0,-0.117187 -0.1289,-0.117187 -0.32813,0 -0.67969,0.03516 -1.00782,0.03516 -0.33984,0 -0.6914,-0.03516 -1.01953,-0.03516 -0.0586,0 -0.17578,0 -0.17578,0.199219 0,0.117187 0.0937,0.117187 0.17578,0.117187 0.57422,0.01172 0.67969,0.210938 0.67969,0.433594 0,0.03516 -0.0234,0.175781 -0.0234,0.210937 l -1.125,4.4296879 -2.20312,-5.1914059 c -0.0703,-0.1875 -0.082,-0.199219 -0.31641,-0.199219 h -1.33594 c -0.19922,0 -0.28125,0 -0.28125,0.199219 0,0.117187 0.082,0.117187 0.28125,0.117187 0.0469,0 0.66797,0 0.66797,0.08203 l -1.33594,5.3554691 c -0.0937,0.3984375 -0.26953,0.7148438 -1.0664,0.75 -0.0586,0 -0.17578,0 -0.17578,0.1992188 0,0.070312 0.0469,0.1054687 0.1289,0.1054687 0.31641,0 0.66797,-0.035156 0.9961,-0.035156 0.33984,0 0.70312,0.035156 1.03125,0.035156 0.0469,0 0.17578,0 0.17578,-0.1992187 0,-0.1054688 -0.0937,-0.1054688 -0.19922,-0.1054688 -0.57422,-0.023437 -0.65625,-0.2460937 -0.65625,-0.4453125 0,-0.070312 0.0117,-0.1171875 0.0352,-0.2226562 l 1.32421,-5.2617184 c 0.0352,0.05859 0.0352,0.08203 0.082,0.175781 l 2.48437,5.8710936 c 0.0703,0.1640625 0.0937,0.1875 0.1875,0.1875 0.10547,0 0.10547,-0.035156 0.16406,-0.2109375 z m 0,0"
         style="fill:#000000;fill-opacity:1;fill-rule:nonzero;stroke:none" />
      <path
         id="path51"
         d="m 121.37206,-9.0369844 c 0.17578,0 0.35157,0 0.35157,-0.1992187 0,-0.1992188 -0.17579,-0.1992188 -0.35157,-0.1992188 h -5.39062 c -0.16406,0 -0.33985,0 -0.33985,0.1992188 0,0.1992187 0.17579,0.1992187 0.33985,0.1992187 z m 0,0"
         style="fill:#000000;fill-opacity:1;fill-rule:nonzero;stroke:none" />
      <path
         id="path52"
         d="m 127.70312,-13.115109 c 0,-0.234375 0,-0.257813 -0.23438,-0.257813 -0.60937,0.632813 -1.48828,0.632813 -1.80469,0.632813 v 0.316406 c 0.19922,0 0.78516,0 1.30079,-0.257813 v 5.1562504 c 0,0.3515625 -0.0352,0.4804687 -0.92579,0.4804687 h -0.3164 v 0.3046875 c 0.35156,-0.035156 1.20703,-0.035156 1.60547,-0.035156 0.39843,0 1.26562,0 1.61718,0.035156 v -0.3046875 h -0.3164 c -0.90235,0 -0.92578,-0.1171875 -0.92578,-0.4804687 z m 4.93359,3.8789059 c 0,-0.7734379 -0.11719,-1.9804689 -0.65625,-3.1054689 -0.59766,-1.21875 -1.46484,-1.875 -1.55859,-1.875 -0.0586,0 -0.10547,0.04687 -0.10547,0.105469 0,0.03516 0,0.04687 0.19922,0.234375 0.97265,0.984375 1.53515,2.566406 1.53515,4.6406249 0,1.7109375 -0.36328,3.4570312 -1.59375,4.7226562 -0.14062,0.1171875 -0.14062,0.1289063 -0.14062,0.1640625 0,0.058594 0.0469,0.1054688 0.10547,0.1054688 0.0937,0 0.99609,-0.6796875 1.58203,-1.9453125 0.5039,-1.1015625 0.63281,-2.203125 0.63281,-3.046875 z m 0,0"
         style="fill:#000000;fill-opacity:1;fill-rule:nonzero;stroke:none" />
      <path
         id="path53"
         d="m 141.16503,-12.494016 c 0.0937,-0.398437 0.26953,-0.714843 1.06641,-0.738281 0.0586,0 0.17578,-0.01172 0.17578,-0.199219 0,-0.01172 0,-0.117187 -0.12891,-0.117187 -0.32812,0 -0.67968,0.03516 -1.00781,0.03516 -0.33984,0 -0.69141,-0.03516 -1.01953,-0.03516 -0.0586,0 -0.17578,0 -0.17578,0.199219 0,0.117187 0.0937,0.117187 0.17578,0.117187 0.57422,0.01172 0.67969,0.210938 0.67969,0.433594 0,0.03516 -0.0234,0.175781 -0.0234,0.210937 l -1.125,4.4296879 -2.20313,-5.1914059 c -0.0703,-0.1875 -0.082,-0.199219 -0.3164,-0.199219 h -1.33594 c -0.19922,0 -0.28125,0 -0.28125,0.199219 0,0.117187 0.082,0.117187 0.28125,0.117187 0.0469,0 0.66797,0 0.66797,0.08203 l -1.33594,5.3554691 c -0.0937,0.3984375 -0.26953,0.7148438 -1.0664,0.75 -0.0586,0 -0.17579,0 -0.17579,0.1992188 0,0.070312 0.0469,0.1054687 0.12891,0.1054687 0.31641,0 0.66797,-0.035156 0.99609,-0.035156 0.33985,0 0.70313,0.035156 1.03125,0.035156 0.0469,0 0.17579,0 0.17579,-0.1992187 0,-0.1054688 -0.0937,-0.1054688 -0.19922,-0.1054688 -0.57422,-0.023437 -0.65625,-0.2460937 -0.65625,-0.4453125 0,-0.070312 0.0117,-0.1171875 0.0352,-0.2226562 l 1.32422,-5.2617184 c 0.0352,0.05859 0.0352,0.08203 0.082,0.175781 l 2.48438,5.8710936 c 0.0703,0.1640625 0.0937,0.1875 0.1875,0.1875 0.10547,0 0.10547,-0.035156 0.16406,-0.2109375 z m 0,0"
         style="fill:#000000;fill-opacity:1;fill-rule:nonzero;stroke:none" />
      <path
         id="path54"
         d="m 146.01366,-4.3494844 c 0,-0.035156 0,-0.046875 -0.16406,-0.2226562 -1.24219,-1.2539063 -1.57031,-3.1289063 -1.57031,-4.6640625 0,-1.7226559 0.38672,-3.4570309 1.60547,-4.7109379 0.1289,-0.117187 0.1289,-0.128906 0.1289,-0.164062 0,-0.07031 -0.0351,-0.105469 -0.0937,-0.105469 -0.10546,0 -0.99609,0.679688 -1.58203,1.945313 -0.51562,1.101562 -0.63281,2.203125 -0.63281,3.0351559 0,0.7851562 0.11719,1.9921875 0.65625,3.1171875 0.59766,1.21875 1.45313,1.875 1.55859,1.875 0.0586,0 0.0937,-0.035156 0.0937,-0.1054688 z m 0,0"
         style="fill:#000000;fill-opacity:1;fill-rule:nonzero;stroke:none" />
      <path
         id="path55"
         d="m 154.1289,-12.494016 c 0.0937,-0.398437 0.26953,-0.714843 1.0664,-0.738281 0.0586,0 0.17579,-0.01172 0.17579,-0.199219 0,-0.01172 0,-0.117187 -0.12891,-0.117187 -0.32813,0 -0.67969,0.03516 -1.00781,0.03516 -0.33985,0 -0.69141,-0.03516 -1.01953,-0.03516 -0.0586,0 -0.17579,0 -0.17579,0.199219 0,0.117187 0.0937,0.117187 0.17579,0.117187 0.57421,0.01172 0.67968,0.210938 0.67968,0.433594 0,0.03516 -0.0234,0.175781 -0.0234,0.210937 l -1.125,4.4296879 -2.20313,-5.1914059 c -0.0703,-0.1875 -0.082,-0.199219 -0.31641,-0.199219 h -1.33593 c -0.19922,0 -0.28125,0 -0.28125,0.199219 0,0.117187 0.082,0.117187 0.28125,0.117187 0.0469,0 0.66797,0 0.66797,0.08203 l -1.33594,5.3554691 c -0.0937,0.3984375 -0.26953,0.7148438 -1.06641,0.75 -0.0586,0 -0.17578,0 -0.17578,0.1992188 0,0.070312 0.0469,0.1054687 0.12891,0.1054687 0.3164,0 0.66797,-0.035156 0.99609,-0.035156 0.33984,0 0.70313,0.035156 1.03125,0.035156 0.0469,0 0.17578,0 0.17578,-0.1992187 0,-0.1054688 -0.0937,-0.1054688 -0.19922,-0.1054688 -0.57422,-0.023437 -0.65625,-0.2460937 -0.65625,-0.4453125 0,-0.070312 0.0117,-0.1171875 0.0352,-0.2226562 l 1.32422,-5.2617184 c 0.0352,0.05859 0.0352,0.08203 0.082,0.175781 l 2.48437,5.8710936 c 0.0703,0.1640625 0.0937,0.1875 0.1875,0.1875 0.10547,0 0.10547,-0.035156 0.16407,-0.2109375 z m 0,0"
         style="fill:#000000;fill-opacity:1;fill-rule:nonzero;stroke:none" />
      <path
         id="path56"
         d="m 161.97753,-9.0369844 h 2.77735 c 0.14062,0 0.32812,0 0.32812,-0.1992187 0,-0.1992188 -0.1875,-0.1992188 -0.32812,-0.1992188 h -2.77735 v -2.7890621 c 0,-0.128907 0,-0.328125 -0.19922,-0.328125 -0.19922,0 -0.19922,0.199218 -0.19922,0.328125 v 2.7890621 h -2.78906 c -0.14062,0 -0.32812,0 -0.32812,0.1992188 0,0.1992187 0.1875,0.1992187 0.32812,0.1992187 h 2.78906 v 2.8007813 c 0,0.1289062 0,0.328125 0.19922,0.328125 0.19922,0 0.19922,-0.1992188 0.19922,-0.328125 z m 8.80371,-4.0781246 c 0,-0.234375 0,-0.257813 -0.23437,-0.257813 -0.60938,0.632813 -1.48828,0.632813 -1.80469,0.632813 v 0.316406 c 0.19922,0 0.78516,0 1.30078,-0.257813 v 5.1562504 c 0,0.3515625 -0.0352,0.4804687 -0.92578,0.4804687 h -0.31641 v 0.3046875 c 0.35157,-0.035156 1.20703,-0.035156 1.60547,-0.035156 0.39844,0 1.26563,0 1.61719,0.035156 v -0.3046875 h -0.31641 c -0.90234,0 -0.92578,-0.1171875 -0.92578,-0.4804687 z m 4.9336,3.8789059 c 0,-0.7734379 -0.11719,-1.9804689 -0.65625,-3.1054689 -0.59766,-1.21875 -1.46485,-1.875 -1.5586,-1.875 -0.0586,0 -0.10547,0.04687 -0.10547,0.105469 0,0.03516 0,0.04687 0.19922,0.234375 0.97266,0.984375 1.53516,2.566406 1.53516,4.6406249 0,1.7109375 -0.36328,3.4570312 -1.59375,4.7226562 -0.14063,0.1171875 -0.14063,0.1289063 -0.14063,0.1640625 0,0.058594 0.0469,0.1054688 0.10547,0.1054688 0.0937,0 0.9961,-0.6796875 1.58203,-1.9453125 0.50391,-1.1015625 0.63282,-2.203125 0.63282,-3.046875 z m 0,0"
         style="fill:#000000;fill-opacity:1;fill-rule:nonzero;stroke:none" />
      <path
         id="path57"
         d="m 183.60448,-9.2362031 c 0,-0.28125 -0.23437,-0.5273438 -0.52734,-0.5273438 -0.28125,0 -0.52734,0.2460938 -0.52734,0.5273438 0,0.2929687 0.24609,0.5390625 0.52734,0.5390625 0.29297,0 0.52734,-0.2460938 0.52734,-0.5390625 z m 4.41504,0 c 0,-0.28125 -0.23437,-0.5273438 -0.52734,-0.5273438 -0.28125,0 -0.52734,0.2460938 -0.52734,0.5273438 0,0.2929687 0.24609,0.5390625 0.52734,0.5390625 0.29297,0 0.52734,-0.2460938 0.52734,-0.5390625 z m 4.42383,0 c 0,-0.28125 -0.23437,-0.5273438 -0.52734,-0.5273438 -0.28125,0 -0.52735,0.2460938 -0.52735,0.5273438 0,0.2929687 0.2461,0.5390625 0.52735,0.5390625 0.29297,0 0.52734,-0.2460938 0.52734,-0.5390625 z m 0,0"
         style="fill:#000000;fill-opacity:1;fill-rule:nonzero;stroke:none" />
    </g>
    <path
       id="path58"
       d="M -116.179,135.888 H 46.056"
       style="fill:none;stroke:#000000;stroke-width:0.3985;stroke-linecap:butt;stroke-linejoin:miter;stroke-miterlimit:10;stroke-dasharray:none;stroke-opacity:1"
       transform="matrix(1.3333333,0,0,-1.3333333,254.23867,349.46667)" />
    <g
       id="g58"
       aria-label="∏&#10;□&#10;hooklength(□)"
       transform="matrix(1.3333333,0,0,1.3333333,150.97067,170.75333)">
      <path
         id="path59"
         d="M 3.5727813,9.9613672 V 9.5629297 C 2.55325,9.5629297 2.55325,9.0707422 2.55325,8.7777734 V 0.39886719 H 6.8423125 V 8.7777734 c 0,0.2929688 0,0.7851563 -1.03125,0.7851563 V 9.9613672 H 8.8345 V 9.5629297 c -1.03125,0 -1.03125,-0.4921875 -1.03125,-0.7851563 v -7.59375 c 0,-0.29296871 0,-0.78515621 1.03125,-0.78515621 V 4.296875e-4 H 0.5610625 V 0.39886719 c 1.0195313,0 1.0195313,0.4921875 1.0195313,0.78515621 v 7.59375 c 0,0.2929688 0,0.7851563 -1.0195313,0.7851563 v 0.3984375 z m 0,0"
         style="fill:#000000;fill-opacity:1;fill-rule:nonzero;stroke:none" />
      <path
         id="path60"
         d="m 15.080594,5.4555078 c 0,-0.2226562 -0.02344,-0.2695312 -0.269531,-0.2695312 h -4.582032 c -0.2460935,0 -0.2812497,0.046875 -0.2812497,0.2695312 v 4.7343752 c 0,0.234375 0.046875,0.269531 0.2812497,0.269531 h 4.582032 c 0.246093,0 0.269531,-0.04687 0.269531,-0.28125 z m -4.78125,0.070312 H 14.74075 V 10.11957 h -4.441406 z m 0,0"
         style="fill:#000000;fill-opacity:1;fill-rule:nonzero;stroke:none" />
      <path
         id="path61"
         d="M 23.125516,7.4711328 V 7.1664453 c -0.515625,0 -0.773438,0 -0.785157,-0.3046875 V 4.9633203 c 0,-0.8554687 0,-1.171875 -0.304687,-1.5234375 -0.140625,-0.1757812 -0.46875,-0.375 -1.042969,-0.375 -0.84375,0 -1.277344,0.5976563 -1.441406,0.9609375 V 0.55707031 l -1.441406,0.10546875 v 0.31640625 c 0.703125,0 0.785156,0.0703125 0.785156,0.55078129 v 5.1796875 c 0,0.4570312 -0.117188,0.4570312 -0.785156,0.4570312 v 0.3046875 l 1.125,-0.035156 1.113281,0.035156 V 7.1664453 c -0.65625,0 -0.773438,0 -0.773438,-0.4570312 v -1.828125 c 0,-1.03125 0.714844,-1.59375 1.347657,-1.59375 0.621093,0 0.738281,0.5390625 0.738281,1.1015625 v 2.3203125 c 0,0.4570312 -0.117188,0.4570312 -0.773438,0.4570312 v 0.3046875 l 1.125,-0.035156 z m 4.895507,-2.1328125 c 0,-1.2773437 -0.996093,-2.3320312 -2.191406,-2.3320312 -1.253906,0 -2.214844,1.0898437 -2.214844,2.3320312 0,1.2890625 1.03125,2.2382813 2.203125,2.2382813 1.207032,0 2.203125,-0.9726563 2.203125,-2.2382813 z m -0.820312,-0.082031 c 0,0.3632812 0,0.9023437 -0.222656,1.3359375 -0.222657,0.4453125 -0.65625,0.7382812 -1.148438,0.7382812 -0.433594,0 -0.867187,-0.2109375 -1.136719,-0.6679687 -0.257812,-0.4335938 -0.257812,-1.0429688 -0.257812,-1.40625 0,-0.3867188 0,-0.9257813 0.246094,-1.359375 0.269531,-0.4570313 0.738281,-0.6679688 1.136718,-0.6679688 0.433594,0 0.867188,0.2226563 1.125,0.6445313 0.257813,0.4335937 0.257813,1.0078125 0.257813,1.3828125 z m 6.079102,0.082031 c 0,-1.2773437 -0.996094,-2.3320312 -2.191407,-2.3320312 -1.253906,0 -2.214843,1.0898437 -2.214843,2.3320312 0,1.2890625 1.03125,2.2382813 2.203125,2.2382813 1.207031,0 2.203125,-0.9726563 2.203125,-2.2382813 z M 32.4595,5.2562891 c 0,0.3632812 0,0.9023437 -0.222656,1.3359375 -0.222656,0.4453125 -0.65625,0.7382812 -1.148438,0.7382812 -0.433593,0 -0.867187,-0.2109375 -1.136718,-0.6679687 -0.257813,-0.4335938 -0.257813,-1.0429688 -0.257813,-1.40625 0,-0.3867188 0,-0.9257813 0.246094,-1.359375 0.269531,-0.4570313 0.738281,-0.6679688 1.136719,-0.6679688 0.433593,0 0.867187,0.2226563 1.125,0.6445313 C 32.4595,4.3070703 32.4595,4.8812891 32.4595,5.2562891 Z m 6.202148,2.2148437 V 7.1664453 c -0.363281,0 -0.585937,0 -0.960937,-0.5273437 L 36.435086,4.8461328 c -0.01172,-0.011719 -0.05859,-0.070312 -0.05859,-0.1054687 0,-0.035156 0.703125,-0.6328125 0.808594,-0.7148438 0.621094,-0.5039062 1.042969,-0.5273437 1.253906,-0.5390625 V 3.1820703 c -0.292969,0.023437 -0.421875,0.023437 -0.703125,0.023437 -0.351562,0 -0.972656,-0.023437 -1.113281,-0.023437 v 0.3046875 c 0.1875,0.011719 0.292969,0.1171875 0.292969,0.2460938 0,0.1992187 -0.140625,0.3164062 -0.222657,0.3867187 l -1.40625,1.21875 V 0.55707031 l -1.429687,0.10546875 v 0.31640625 c 0.691406,0 0.773437,0.0703125 0.773437,0.55078129 v 5.1796875 c 0,0.4570312 -0.105468,0.4570312 -0.773437,0.4570312 v 0.3046875 l 1.078125,-0.035156 1.101562,0.035156 V 7.1664453 c -0.667968,0 -0.773437,0 -0.773437,-0.4570312 V 5.6898828 l 0.632812,-0.5507812 c 0.773438,1.0546875 1.183594,1.6171875 1.183594,1.7929687 0,0.1875 -0.164062,0.234375 -0.351562,0.234375 v 0.3046875 l 1.066406,-0.035156 c 0.292969,0 0.585937,0.011719 0.867187,0.035156 z m 6.035157,0 V 7.1664453 c -0.667969,0 -0.785157,0 -0.785157,-0.4570312 V 0.55707031 l -1.429687,0.10546875 v 0.31640625 c 0.703125,0 0.773437,0.0703125 0.773437,0.55078129 v 5.1796875 c 0,0.4570312 -0.105468,0.4570312 -0.773437,0.4570312 v 0.3046875 l 1.101562,-0.035156 z m 4.362304,-1.1835937 c 0,-0.1054688 -0.08203,-0.1171875 -0.128906,-0.1171875 -0.09375,0 -0.117187,0.058594 -0.128906,0.140625 -0.351563,1.0195312 -1.253906,1.0195312 -1.347656,1.0195312 -0.503907,0 -0.902344,-0.2929687 -1.125,-0.6679687 C 46.023953,6.1820703 46.023953,5.5258203 46.023953,5.1742578 h 2.789063 c 0.210937,0 0.246093,0 0.246093,-0.2109375 0,-0.984375 -0.539062,-1.9570312 -1.78125,-1.9570312 -1.160156,0 -2.074218,1.03125 -2.074218,2.2734375 0,1.3359375 1.042968,2.296875 2.191406,2.296875 1.21875,0 1.664062,-1.1015625 1.664062,-1.2890625 z m -0.65625,-1.3242188 h -2.367187 c 0.05859,-1.4882812 0.902344,-1.734375 1.242187,-1.734375 1.019532,0 1.125,1.3476563 1.125,1.734375 z M 54.67825,7.4711328 V 7.1664453 c -0.515625,0 -0.773437,0 -0.785156,-0.3046875 V 4.9633203 c 0,-0.8554687 0,-1.171875 -0.304688,-1.5234375 -0.140625,-0.1757812 -0.46875,-0.375 -1.042968,-0.375 -0.726563,0 -1.195313,0.4335938 -1.476563,1.0546875 V 3.0648828 l -1.40625,0.1171875 v 0.3046875 c 0.703125,0 0.785156,0.070312 0.785156,0.5625 v 2.6601563 c 0,0.4570312 -0.117187,0.4570312 -0.785156,0.4570312 v 0.3046875 l 1.125,-0.035156 1.113281,0.035156 V 7.1664453 c -0.65625,0 -0.773437,0 -0.773437,-0.4570312 v -1.828125 c 0,-1.03125 0.714844,-1.59375 1.347656,-1.59375 0.621094,0 0.738281,0.5390625 0.738281,1.1015625 v 2.3203125 c 0,0.4570312 -0.117187,0.4570312 -0.773437,0.4570312 v 0.3046875 l 1.125,-0.035156 z m 5.033203,-4.0195312 c 0,-0.1757813 -0.117187,-0.4921875 -0.503906,-0.4921875 -0.199219,0 -0.632813,0.058594 -1.054688,0.46875 -0.421875,-0.328125 -0.84375,-0.3632813 -1.054687,-0.3632813 -0.925781,0 -1.617188,0.6914063 -1.617188,1.453125 0,0.4453125 0.222657,0.8203125 0.46875,1.03125 -0.128906,0.1523438 -0.304687,0.4804688 -0.304687,0.8203125 0,0.3164063 0.128906,0.6914063 0.433594,0.890625 -0.597657,0.1757813 -0.914063,0.5976563 -0.914063,0.9960938 0,0.7148437 0.984375,1.265625 2.203125,1.265625 1.171875,0 2.203125,-0.5039063 2.203125,-1.2890625 0,-0.3398438 -0.140625,-0.8554688 -0.644531,-1.125 -0.527344,-0.28125 -1.101563,-0.28125 -1.710938,-0.28125 -0.246093,0 -0.679687,0 -0.75,-0.011719 -0.316406,-0.046875 -0.527343,-0.3515625 -0.527343,-0.6679687 0,-0.035156 0,-0.2695313 0.175781,-0.46875 0.386719,0.28125 0.796875,0.3046875 0.984375,0.3046875 0.925781,0 1.605469,-0.6796875 1.605469,-1.453125 0,-0.3632813 -0.152344,-0.7382813 -0.398438,-0.9609375 0.351563,-0.3398438 0.714844,-0.3867188 0.890625,-0.3867188 0,0 0.07031,0 0.105469,0 -0.117188,0.046875 -0.164063,0.1523438 -0.164063,0.2695313 0,0.1757812 0.128907,0.2929687 0.292969,0.2929687 0.09375,0 0.28125,-0.070312 0.28125,-0.2929685 z m -1.746094,1.0664062 c 0,0.2695313 -0.01172,0.5976563 -0.164062,0.84375 -0.08203,0.1171875 -0.304688,0.3984375 -0.703125,0.3984375 -0.867188,0 -0.867188,-0.9960937 -0.867188,-1.2304687 0,-0.2695313 0.01172,-0.5859375 0.152344,-0.8320313 0.08203,-0.1171875 0.316406,-0.3984375 0.714844,-0.3984375 0.867187,0 0.867187,0.9960938 0.867187,1.21875 z m 1.089844,3.7382813 c 0,0.5390625 -0.703125,1.0429687 -1.675781,1.0429687 -1.007813,0 -1.699219,-0.515625 -1.699219,-1.0429687 0,-0.4570313 0.375,-0.8203125 0.820313,-0.8554688 h 0.585937 c 0.855469,0 1.96875,0 1.96875,0.8554688 z m 4.116211,-2.015625 V 5.6664453 H 62.92532 v 0.5507813 c 0,0.7382812 -0.304687,1.1132812 -0.667968,1.1132812 -0.667969,0 -0.667969,-0.9023437 -0.667969,-1.078125 V 3.4867578 H 63.01907 V 3.1820703 H 61.589383 V 1.3422266 h -0.246094 c -0.01172,0.8203125 -0.316406,1.8867187 -1.289062,1.921875 v 0.2226562 h 0.84375 v 2.7539063 c 0,1.21875 0.925781,1.3359375 1.289062,1.3359375 0.703125,0 0.984375,-0.703125 0.984375,-1.3359375 z m 5.90332,1.2304687 V 7.1664453 c -0.515625,0 -0.773437,0 -0.785156,-0.3046875 V 4.9633203 c 0,-0.8554687 0,-1.171875 -0.304687,-1.5234375 -0.140625,-0.1757812 -0.46875,-0.375 -1.042969,-0.375 -0.84375,0 -1.277344,0.5976563 -1.441406,0.9609375 V 0.55707031 l -1.441407,0.10546875 v 0.31640625 c 0.703125,0 0.785157,0.0703125 0.785157,0.55078129 v 5.1796875 c 0,0.4570312 -0.117188,0.4570312 -0.785157,0.4570312 v 0.3046875 l 1.125,-0.035156 1.113282,0.035156 V 7.1664453 c -0.65625,0 -0.773438,0 -0.773438,-0.4570312 v -1.828125 c 0,-1.03125 0.714844,-1.59375 1.347656,-1.59375 0.621094,0 0.738282,0.5390625 0.738282,1.1015625 v 2.3203125 c 0,0.4570312 -0.117188,0.4570312 -0.773438,0.4570312 v 0.3046875 l 1.125,-0.035156 z m 0,0"
         style="fill:#000000;fill-opacity:1;fill-rule:nonzero;stroke:none" />
      <path
         id="path62"
         d="m 72.572781,9.8617578 c 0,-0.035156 0,-0.046875 -0.164062,-0.2226562 -1.242188,-1.2539063 -1.570313,-3.1289063 -1.570313,-4.6640625 0,-1.7226563 0.386719,-3.4570313 1.605469,-4.71093754 0.128906,-0.1171875 0.128906,-0.12890625 0.128906,-0.1640625 0,-0.0703125 -0.03516,-0.10546875 -0.09375,-0.10546875 -0.105468,0 -0.996093,0.6796875 -1.582031,1.94531249 -0.515625,1.1015625 -0.632812,2.203125 -0.632812,3.0351563 0,0.7851562 0.117187,1.9921875 0.65625,3.1171875 0.597656,1.21875 1.453125,1.875 1.558593,1.875 0.05859,0 0.09375,-0.035156 0.09375,-0.1054688 z m 0,0"
         style="fill:#000000;fill-opacity:1;fill-rule:nonzero;stroke:none" />
      <path
         id="path63"
         d="m 80.339383,0.97894531 c 0,-0.31640625 -0.03516,-0.3515625 -0.351563,-0.3515625 h -5.929687 c -0.304688,0 -0.339844,0.0351563 -0.339844,0.3515625 V 7.1078516 c 0,0.328125 0.02344,0.3632812 0.351563,0.3632812 h 5.90625 c 0.328125,0 0.363281,-0.035156 0.363281,-0.3515625 z m -6.222656,0.046875 h 5.824218 v 6.046875 h -5.824218 z m 0,0"
         style="fill:#000000;fill-opacity:1;fill-rule:nonzero;stroke:none" />
      <path
         id="path64"
         d="m 83.787625,4.9750391 c 0,-0.7734375 -0.117187,-1.9804688 -0.65625,-3.1054688 -0.597656,-1.21874999 -1.464844,-1.87499999 -1.558594,-1.87499999 -0.05859,0 -0.105468,0.046875 -0.105468,0.10546875 0,0.0351563 0,0.046875 0.199218,0.234375 0.972657,0.98437504 1.535157,2.56640624 1.535157,4.64062504 0,1.7109375 -0.363282,3.4570312 -1.59375,4.7226562 -0.140625,0.1171875 -0.140625,0.1289063 -0.140625,0.1640625 0,0.058594 0.04687,0.1054688 0.105468,0.1054688 0.09375,0 0.996094,-0.6796875 1.582032,-1.9453125 0.503906,-1.1015625 0.632812,-2.203125 0.632812,-3.046875 z m 0,0"
         style="fill:#000000;fill-opacity:1;fill-rule:nonzero;stroke:none" />
    </g>
  </g>
</svg>
