<?xml version="1.0" encoding="UTF-8" standalone="no"?>
<!-- Created with Inkscape (http://www.inkscape.org/) -->

<svg
   version="1.1"
   id="svg1"
   width="355.06668"
   height="156.62666"
   viewBox="0 0 355.06668 156.62666"
   sodipodi:docname="full-column.pdf"
   xmlns:inkscape="http://www.inkscape.org/namespaces/inkscape"
   xmlns:sodipodi="http://sodipodi.sourceforge.net/DTD/sodipodi-0.dtd"
   xmlns="http://www.w3.org/2000/svg"
   xmlns:svg="http://www.w3.org/2000/svg">
  <defs
     id="defs1" />
  <sodipodi:namedview
     id="namedview1"
     pagecolor="#ffffff"
     bordercolor="#000000"
     borderopacity="0.25"
     inkscape:showpageshadow="2"
     inkscape:pageopacity="0.0"
     inkscape:pagecheckerboard="0"
     inkscape:deskcolor="#d1d1d1">
    <inkscape:page
       x="0"
       y="0"
       inkscape:label="1"
       id="page1"
       width="355.06668"
       height="156.62666"
       margin="0"
       bleed="0" />
  </sodipodi:namedview>
  <g
     id="g1"
     inkscape:groupmode="layer"
     inkscape:label="1">
    <path
       id="path1"
       d="M 74.72076,-53.79895 H 98.06352 V -77.14171 H 74.72076 Z"
       style="fill:#d0021b;fill-opacity:0.1;fill-rule:nonzero;stroke:#000000;stroke-width:0.74721;stroke-linecap:butt;stroke-linejoin:miter;stroke-miterlimit:10;stroke-dasharray:none;stroke-opacity:1"
       transform="matrix(1.3333333,0,0,-1.3333333,-27.954667,-71.229333)" />
    <path
       id="path2"
       d="m 98.06352,-53.79895 h 23.34276 V -77.14171 H 98.06352 Z"
       style="fill:#f5a623;fill-opacity:0.2;fill-rule:nonzero;stroke:#000000;stroke-width:0.74721;stroke-linecap:butt;stroke-linejoin:miter;stroke-miterlimit:10;stroke-dasharray:none;stroke-opacity:1"
       transform="matrix(1.3333333,0,0,-1.3333333,-27.954667,-71.229333)" />
    <path
       id="path3"
       d="m 121.40628,-53.79895 h 23.34277 v -23.34276 h -23.34277 z"
       style="fill:#f5a623;fill-opacity:0.2;fill-rule:nonzero;stroke:#000000;stroke-width:0.74721;stroke-linecap:butt;stroke-linejoin:miter;stroke-miterlimit:10;stroke-dasharray:none;stroke-opacity:1"
       transform="matrix(1.3333333,0,0,-1.3333333,-27.954667,-71.229333)" />
    <path
       id="path4"
       d="m 144.74905,-53.79895 h 23.34278 v -23.34276 h -23.34278 z"
       style="fill:#f5a623;fill-opacity:0.2;fill-rule:nonzero;stroke:#000000;stroke-width:0.74721;stroke-linecap:butt;stroke-linejoin:miter;stroke-miterlimit:10;stroke-dasharray:none;stroke-opacity:1"
       transform="matrix(1.3333333,0,0,-1.3333333,-27.954667,-71.229333)" />
    <path
       id="path5"
       d="m 74.72076,-77.14171 h 23.34276 v -23.34276 H 74.72076 Z"
       style="fill:#d0021b;fill-opacity:0.1;fill-rule:nonzero;stroke:#000000;stroke-width:0.74721;stroke-linecap:butt;stroke-linejoin:miter;stroke-miterlimit:10;stroke-dasharray:none;stroke-opacity:1"
       transform="matrix(1.3333333,0,0,-1.3333333,-27.954667,-71.229333)" />
    <path
       id="path6"
       d="m 98.06352,-77.14171 h 23.34276 v -23.34276 H 98.06352 Z"
       style="fill:#f5a623;fill-opacity:0.2;fill-rule:nonzero;stroke:#000000;stroke-width:0.74721;stroke-linecap:butt;stroke-linejoin:miter;stroke-miterlimit:10;stroke-dasharray:none;stroke-opacity:1"
       transform="matrix(1.3333333,0,0,-1.3333333,-27.954667,-71.229333)" />
    <path
       id="path7"
       d="m 121.40628,-77.14171 h 23.34277 v -23.34276 h -23.34277 z"
       style="fill:#f5a623;fill-opacity:0.2;fill-rule:nonzero;stroke:#000000;stroke-width:0.74721;stroke-linecap:butt;stroke-linejoin:miter;stroke-miterlimit:10;stroke-dasharray:none;stroke-opacity:1"
       transform="matrix(1.3333333,0,0,-1.3333333,-27.954667,-71.229333)" />
    <path
       id="path8"
       d="m 144.74905,-77.14171 h 23.34278 v -23.34276 h -23.34278 z"
       style="fill:#f5a623;fill-opacity:0.2;fill-rule:nonzero;stroke:#000000;stroke-width:0.74721;stroke-linecap:butt;stroke-linejoin:miter;stroke-miterlimit:10;stroke-dasharray:none;stroke-opacity:1"
       transform="matrix(1.3333333,0,0,-1.3333333,-27.954667,-71.229333)" />
    <path
       id="path9"
       d="m 74.72076,-100.48447 h 23.34276 v -23.34277 H 74.72076 Z"
       style="fill:#d0021b;fill-opacity:0.1;fill-rule:nonzero;stroke:#000000;stroke-width:0.74721;stroke-linecap:butt;stroke-linejoin:miter;stroke-miterlimit:10;stroke-dasharray:none;stroke-opacity:1"
       transform="matrix(1.3333333,0,0,-1.3333333,-27.954667,-71.229333)" />
    <path
       id="path10"
       d="m 98.06352,-100.48447 h 23.34276 v -23.34277 H 98.06352 Z"
       style="fill:#f5a623;fill-opacity:0.2;fill-rule:nonzero;stroke:#000000;stroke-width:0.74721;stroke-linecap:butt;stroke-linejoin:miter;stroke-miterlimit:10;stroke-dasharray:none;stroke-opacity:1"
       transform="matrix(1.3333333,0,0,-1.3333333,-27.954667,-71.229333)" />
    <path
       id="path11"
       d="m 74.72076,-123.82724 h 23.34276 v -23.34277 H 74.72076 Z"
       style="fill:#d0021b;fill-opacity:0.1;fill-rule:nonzero;stroke:#000000;stroke-width:0.74721;stroke-linecap:butt;stroke-linejoin:miter;stroke-miterlimit:10;stroke-dasharray:none;stroke-opacity:1"
       transform="matrix(1.3333333,0,0,-1.3333333,-27.954667,-71.229333)" />
    <path
       id="path12"
       d="m 74.72076,-147.17001 h 23.34276 v -23.35024 H 74.72076 Z"
       style="fill:#d0021b;fill-opacity:0.1;fill-rule:nonzero;stroke:#000000;stroke-width:0.74721;stroke-linecap:butt;stroke-linejoin:miter;stroke-miterlimit:10;stroke-dasharray:none;stroke-opacity:1"
       transform="matrix(1.3333333,0,0,-1.3333333,-27.954667,-71.229333)" />
    <path
       id="path13"
       d="M 51.37798,-53.79895 H 74.72076 V -77.14171 H 51.37798 Z"
       style="fill:#d0021b;fill-opacity:0.1;fill-rule:nonzero;stroke:#000000;stroke-width:0.74721;stroke-linecap:butt;stroke-linejoin:miter;stroke-miterlimit:10;stroke-dasharray:none;stroke-opacity:1"
       transform="matrix(1.3333333,0,0,-1.3333333,-27.954667,-71.229333)" />
    <path
       id="path14"
       d="m 51.37798,-77.14171 h 23.34278 v -23.34276 H 51.37798 Z"
       style="fill:#d0021b;fill-opacity:0.1;fill-rule:nonzero;stroke:#000000;stroke-width:0.74721;stroke-linecap:butt;stroke-linejoin:miter;stroke-miterlimit:10;stroke-dasharray:none;stroke-opacity:1"
       transform="matrix(1.3333333,0,0,-1.3333333,-27.954667,-71.229333)" />
    <path
       id="path15"
       d="m 51.37798,-100.48447 h 23.34278 v -23.34277 H 51.37798 Z"
       style="fill:#d0021b;fill-opacity:0.1;fill-rule:nonzero;stroke:#000000;stroke-width:0.74721;stroke-linecap:butt;stroke-linejoin:miter;stroke-miterlimit:10;stroke-dasharray:none;stroke-opacity:1"
       transform="matrix(1.3333333,0,0,-1.3333333,-27.954667,-71.229333)" />
    <path
       id="path16"
       d="m 51.37798,-123.82724 h 23.34278 v -23.34277 H 51.37798 Z"
       style="fill:#d0021b;fill-opacity:0.1;fill-rule:nonzero;stroke:#000000;stroke-width:0.74721;stroke-linecap:butt;stroke-linejoin:miter;stroke-miterlimit:10;stroke-dasharray:none;stroke-opacity:1"
       transform="matrix(1.3333333,0,0,-1.3333333,-27.954667,-71.229333)" />
    <path
       id="path17"
       d="m 51.37798,-147.17001 h 23.34278 v -23.35024 H 51.37798 Z"
       style="fill:#d0021b;fill-opacity:0.1;fill-rule:nonzero;stroke:#000000;stroke-width:0.74721;stroke-linecap:butt;stroke-linejoin:miter;stroke-miterlimit:10;stroke-dasharray:none;stroke-opacity:1"
       transform="matrix(1.3333333,0,0,-1.3333333,-27.954667,-71.229333)" />
    <path
       id="path18"
       d="M 216.86954,-53.79895 H 240.2123 V -77.14171 H 216.86954 Z"
       style="fill:#f5a623;fill-opacity:0.2;fill-rule:nonzero;stroke:#000000;stroke-width:0.74721;stroke-linecap:butt;stroke-linejoin:miter;stroke-miterlimit:10;stroke-dasharray:none;stroke-opacity:1"
       transform="matrix(1.3333333,0,0,-1.3333333,-27.954667,-71.229333)" />
    <path
       id="path19"
       d="m 240.2123,-53.79895 h 23.34277 V -77.14171 H 240.2123 Z"
       style="fill:#f5a623;fill-opacity:0.2;fill-rule:nonzero;stroke:#000000;stroke-width:0.74721;stroke-linecap:butt;stroke-linejoin:miter;stroke-miterlimit:10;stroke-dasharray:none;stroke-opacity:1"
       transform="matrix(1.3333333,0,0,-1.3333333,-27.954667,-71.229333)" />
    <path
       id="path20"
       d="m 263.55507,-53.79895 h 23.34277 v -23.34276 h -23.34277 z"
       style="fill:#f5a623;fill-opacity:0.2;fill-rule:nonzero;stroke:#000000;stroke-width:0.74721;stroke-linecap:butt;stroke-linejoin:miter;stroke-miterlimit:10;stroke-dasharray:none;stroke-opacity:1"
       transform="matrix(1.3333333,0,0,-1.3333333,-27.954667,-71.229333)" />
    <path
       id="path21"
       d="m 216.86954,-77.14171 h 23.34276 v -23.34276 h -23.34276 z"
       style="fill:#f5a623;fill-opacity:0.2;fill-rule:nonzero;stroke:#000000;stroke-width:0.74721;stroke-linecap:butt;stroke-linejoin:miter;stroke-miterlimit:10;stroke-dasharray:none;stroke-opacity:1"
       transform="matrix(1.3333333,0,0,-1.3333333,-27.954667,-71.229333)" />
    <path
       id="path22"
       d="m 240.2123,-77.14171 h 23.34277 v -23.34276 H 240.2123 Z"
       style="fill:#f5a623;fill-opacity:0.2;fill-rule:nonzero;stroke:#000000;stroke-width:0.74721;stroke-linecap:butt;stroke-linejoin:miter;stroke-miterlimit:10;stroke-dasharray:none;stroke-opacity:1"
       transform="matrix(1.3333333,0,0,-1.3333333,-27.954667,-71.229333)" />
    <path
       id="path23"
       d="m 263.55507,-77.14171 h 23.34277 v -23.34276 h -23.34277 z"
       style="fill:#f5a623;fill-opacity:0.2;fill-rule:nonzero;stroke:#000000;stroke-width:0.74721;stroke-linecap:butt;stroke-linejoin:miter;stroke-miterlimit:10;stroke-dasharray:none;stroke-opacity:1"
       transform="matrix(1.3333333,0,0,-1.3333333,-27.954667,-71.229333)" />
    <path
       id="path24"
       d="m 216.86954,-100.48447 h 23.34276 v -23.34277 h -23.34276 z"
       style="fill:#f5a623;fill-opacity:0.2;fill-rule:nonzero;stroke:#000000;stroke-width:0.74721;stroke-linecap:butt;stroke-linejoin:miter;stroke-miterlimit:10;stroke-dasharray:none;stroke-opacity:1"
       transform="matrix(1.3333333,0,0,-1.3333333,-27.954667,-71.229333)" />
    <path
       id="path25"
       d="m 6.8444297,-3.2586016 c 0.1523437,0 0.3398437,0 0.3398437,-0.1992187 0,-0.1992188 -0.1875,-0.1992188 -0.328125,-0.1992188 H 0.89130469 c -0.140625,0 -0.328125,0 -0.328125,0.1992188 0,0.1992187 0.1875,0.1992187 0.33984375,0.1992187 z m 0.011719,1.9335938 c 0.140625,0 0.328125,0 0.328125,-0.1992188 0,-0.1992187 -0.1875,-0.1992187 -0.3398437,-0.1992187 H 0.90302344 c -0.15234375,0 -0.33984375,0 -0.33984375,0.1992187 0,0.1992188 0.1875,0.1992188 0.328125,0.1992188 z m 0,0"
       style="fill:#000000;fill-opacity:1;fill-rule:nonzero;stroke:none"
       aria-label="="
       transform="matrix(1.3333333,0,0,1.3333333,217.628,81.989333)" />
    <g
       id="g25"
       aria-label="Y&#10;N"
       transform="matrix(1.3333333,0,0,1.3333333,6.4173333,143.97733)">
      <path
         id="path26"
         d="m 5.9418828,-5.6724531 0.140625,-0.140625 c 0.3046875,-0.2929688 0.6328125,-0.6328125 1.3125,-0.6796875 0.1054688,-0.011719 0.1992188,-0.011719 0.1992188,-0.1875 0,-0.082031 -0.058594,-0.1289063 -0.1289063,-0.1289063 -0.2578125,0 -0.5507812,0.035156 -0.8203125,0.035156 -0.328125,0 -0.6796875,-0.035156 -0.9960937,-0.035156 -0.058594,0 -0.1875,0 -0.1875,0.1992188 0,0.1054687 0.09375,0.1171875 0.1523437,0.1171875 0.070312,0 0.3515625,0.011719 0.3515625,0.2226562 0,0.1757813 -0.2226562,0.4335938 -0.2695312,0.4804688 l -2.3085938,2.6601562 -1.0898437,-2.953125 c -0.070312,-0.140625 -0.070312,-0.1640625 -0.070312,-0.1757812 0,-0.234375 0.4921875,-0.234375 0.5976562,-0.234375 0.1289063,0 0.234375,0 0.234375,-0.1992188 0,-0.1171875 -0.1171875,-0.1171875 -0.1523437,-0.1171875 -0.28125,0 -0.9726563,0.035156 -1.2539063,0.035156 -0.2460937,0 -0.86718749,-0.035156 -1.11328124,-0.035156 -0.0585937,0 -0.1875,0 -0.1875,0.1992188 0,0.1171875 0.09375,0.1171875 0.22265625,0.1171875 0.59765629,0 0.64453129,0.082031 0.72656249,0.3398437 l 1.2304688,3.2695313 c 0.011719,0.035156 0.035156,0.140625 0.035156,0.1757812 0,0.023437 -0.3984375,1.6289063 -0.4453125,1.80468752 -0.1289062,0.55078125 -0.140625,0.5859375 -0.9375,0.59765625 -0.18749999,0 -0.26953124,0 -0.26953124,0.19921875 0,0.105468755 0.11718754,0.105468755 0.14062504,0.105468755 0.28125,0 0.9726562,-0.035156255 1.2539062,-0.035156255 0.28125,0 0.9960938,0.035156255 1.2773438,0.035156255 0.070312,0 0.1875,0 0.1875,-0.199218755 0,-0.10546875 -0.082031,-0.10546875 -0.28125,-0.10546875 -0.011719,0 -0.1992188,0 -0.375,-0.0234375 -0.2109375,-0.0234375 -0.2695313,-0.0351563 -0.2695313,-0.1640625 0,-0.0703125 0.09375,-0.41015625 0.140625,-0.62109377 l 0.3515625,-1.40625 c 0.046875,-0.1875 0.058594,-0.2226562 0.140625,-0.3046875 z m 0,0"
         style="fill:#000000;fill-opacity:1;fill-rule:nonzero;stroke:none" />
      <path
         id="path27"
         d="m 11.59618,-2.51425 c 0.07031,-0.2578125 0.1875,-0.4921875 0.738281,-0.5039063 0.03516,0 0.140625,-0.011719 0.140625,-0.1523437 0,-0.046875 -0.03516,-0.09375 -0.105469,-0.09375 -0.222656,0 -0.480469,0.023437 -0.726562,0.023437 -0.164063,0 -0.5625,-0.023437 -0.738282,-0.023437 -0.03516,0 -0.140625,0 -0.140625,0.1523437 0,0.082031 0.09375,0.09375 0.164063,0.09375 0.316406,0.011719 0.445312,0.1171875 0.445312,0.28125 0,0.058594 -0.01172,0.09375 -0.03516,0.1757813 L 10.576648,0.47403125 8.8071172,-3.1470625 C 8.7485234,-3.26425 8.7368047,-3.26425 8.5727422,-3.26425 H 7.6118047 c -0.1289063,0 -0.2226563,0 -0.2226563,0.1523437 0,0.09375 0.09375,0.09375 0.234375,0.09375 0.1523438,0 0.3046875,0.011719 0.4453125,0.035156 l -0.9375,3.7265625 c -0.058594,0.2695312 -0.1757812,0.4804687 -0.7148437,0.5039062 -0.058594,0 -0.1523438,0 -0.1523438,0.140625 0,0.082031 0.058594,0.1054688 0.1054688,0.1054688 0.234375,0 0.4921875,-0.023437 0.7265625,-0.023437 0.1640625,0 0.5742187,0.023437 0.7382812,0.023437 0.070312,0 0.140625,-0.035156 0.140625,-0.140625 0,-0.1054688 -0.082031,-0.1054688 -0.1640625,-0.1054688 C 7.3774297,1.2240312 7.3774297,1.04825 7.3774297,0.9545 c 0,-0.0351563 0,-0.0703125 0.023437,-0.17578125 L 8.2914922,-2.7955 10.330555,1.376375 c 0.05859,0.1054687 0.08203,0.1171875 0.152343,0.1171875 0.117188,0 0.117188,-0.023437 0.152344,-0.140625 z m 0,0"
         style="fill:#000000;fill-opacity:1;fill-rule:nonzero;stroke:none" />
    </g>
  </g>
</svg>
