<svg width="800" height="400" viewBox="0 0 800 400" xmlns="http://www.w3.org/2000/svg">
<style>
  .fiber { fill: none; stroke-width: 3; opacity: 0.8; }
  .base-point { fill: #FF4136; }
  .base-sphere { fill: url(#sphereGradient); stroke: none; opacity: 0.3; }
  .arrow { stroke: #999; stroke-width: 2; marker-end: url(#arrowhead); }
  text { font-family: sans-serif; fill: #ccc; font-size: 14px; }
  @keyframes movePoint { 0% { transform: rotate(0deg); } 100% { transform: rotate(360deg); } }
  /* We will animate the fiber and point using SMIL or CSS if possible. */
  /* CSS animation for path d is not widely supported. We will use a trick: rotate a group. */
</style>
<defs>
  <radialGradient id="sphereGradient" cx="30%" cy="30%" r="70%">
    <stop offset="0%" stop-color="#fff" stop-opacity="0.5"/>
    <stop offset="100%" stop-color="#000" stop-opacity="0.1"/>
  </radialGradient>
  <marker id="arrowhead" markerWidth="10" markerHeight="7" refX="9" refY="3.5" orient="auto">
    <polygon points="0 0, 10 3.5, 0 7" fill="#999" />
  </marker>
</defs>
<rect width="100%" height="100%" fill="#1a1a1a" />
<text x="200" y="30" text-anchor="middle">Total Space S³ (Projected)</text>
<text x="600" y="30" text-anchor="middle">Base Space S²</text>
<line x1="350" y1="200" x2="450" y2="200" class="arrow" />
<text x="400" y="190" text-anchor="middle">π</text>
<circle cx="600" cy="200" r="100" class="base-sphere" />
<circle cx="600" cy="200" r="100" fill="none" stroke="#444" stroke-width="1" />
<ellipse cx="600" cy="200" rx="100" ry="33.333333333333336" fill="none" stroke="#666" stroke-dasharray="4 4" />
<g transform="translate(600, 200)">
  <g style="animation: rotate 10s linear infinite;">
    <circle cx="100" cy="0" r="5" class="base-point" />
  </g>
</g>
<g transform="translate(200, 200)">
<ellipse cx="0" cy="0" rx="150" ry="150" fill="none" stroke="#333" stroke-width="1" />
<ellipse cx="0" cy="0" rx="60.0" ry="60.0" fill="none" stroke="#333" stroke-width="1" />
  <g style="animation: rotate 10s linear infinite;">
<path d="M 70.7,0.0 73.4,3.9 76.0,8.1 78.7,12.7 81.3,17.6 83.8,22.9 86.3,28.5 88.7,34.7 91.0,41.3 93.1,48.4 95.0,56.0 96.7,64.2 98.1,72.9 99.2,82.3 99.8,92.2 100.0,102.7 99.5,113.7 98.4,125.3 96.5,137.3 93.6,149.6 89.8,162.2 84.9,174.7 78.9,186.9 71.6,198.7 63.2,209.6 53.6,219.4 42.9,227.7 31.4,234.3 19.1,238.8 6.4,241.1 -6.4,241.1 -19.1,238.8 -31.4,234.3 -42.9,227.7 -53.6,219.4 -63.2,209.6 -71.6,198.7 -78.9,186.9 -84.9,174.7 -89.8,162.2 -93.6,149.6 -96.5,137.3 -98.4,125.3 -99.5,113.7 -100.0,102.7 -99.8,92.2 -99.2,82.3 -98.1,72.9 -96.7,64.2 -95.0,56.0 -93.1,48.4 -91.0,41.3 -88.7,34.7 -86.3,28.5 -83.8,22.9 -81.3,17.6 -78.7,12.7 -76.0,8.1 -73.4,3.9 -70.7,0.0 Z" stroke="#FF4136" class="fiber" />
  </g>
<circle cx="0" cy="0" r="150" stroke="#444" stroke-width="2" fill="none" stroke-dasharray="5 5" />
</g>
</svg>