<?xml version="1.0" encoding="UTF-8" standalone="no"?>
<!-- Created with Inkscape (http://www.inkscape.org/) -->

<svg
   version="1.1"
   id="svg1"
   width="447.66666"
   height="227.92"
   viewBox="0 0 447.66666 227.92"
   sodipodi:docname="orbit-stabilizer.pdf"
   xmlns:inkscape="http://www.inkscape.org/namespaces/inkscape"
   xmlns:sodipodi="http://sodipodi.sourceforge.net/DTD/sodipodi-0.dtd"
   xmlns="http://www.w3.org/2000/svg"
   xmlns:svg="http://www.w3.org/2000/svg">
  <defs
     id="defs1" />
  <sodipodi:namedview
     id="namedview1"
     pagecolor="#ffffff"
     bordercolor="#000000"
     borderopacity="0.25"
     inkscape:showpageshadow="2"
     inkscape:pageopacity="0.0"
     inkscape:pagecheckerboard="0"
     inkscape:deskcolor="#d1d1d1">
    <inkscape:page
       x="0"
       y="0"
       inkscape:label="1"
       id="page1"
       width="447.66666"
       height="227.92"
       margin="0"
       bleed="0" />
  </sodipodi:namedview>
  <g
     id="g1"
     inkscape:groupmode="layer"
     inkscape:label="1">
    <path
       id="path1"
       d="m 44.83246,-55.29337 h 105.5356 V -80.99728 H 44.83246 Z"
       style="fill:none;stroke:#000000;stroke-width:0.74721;stroke-linecap:butt;stroke-linejoin:miter;stroke-miterlimit:10;stroke-dasharray:none;stroke-opacity:1"
       transform="matrix(1.3333333,0,0,-1.3333333,-41.570667,-13.518667)" />
    <path
       id="path2"
       d="m 44.83246,-80.99728 h 105.5356 v -25.70395 H 44.83246 Z"
       style="fill:none;stroke:#000000;stroke-width:0.74721;stroke-linecap:butt;stroke-linejoin:miter;stroke-miterlimit:10;stroke-dasharray:none;stroke-opacity:1"
       transform="matrix(1.3333333,0,0,-1.3333333,-41.570667,-13.518667)" />
    <path
       id="path3"
       d="m 44.83246,-106.70123 h 105.5356 v -25.69649 H 44.83246 Z"
       style="fill:none;stroke:#000000;stroke-width:0.74721;stroke-linecap:butt;stroke-linejoin:miter;stroke-miterlimit:10;stroke-dasharray:none;stroke-opacity:1"
       transform="matrix(1.3333333,0,0,-1.3333333,-41.570667,-13.518667)" />
    <path
       id="path4"
       d="m 44.83246,-132.39772 h 105.5356 v -25.70393 H 44.83246 Z"
       style="fill:none;stroke:#000000;stroke-width:0.74721;stroke-linecap:butt;stroke-linejoin:miter;stroke-miterlimit:10;stroke-dasharray:none;stroke-opacity:1"
       transform="matrix(1.3333333,0,0,-1.3333333,-41.570667,-13.518667)" />
    <path
       id="path5"
       d="m 44.83246,-29.58942 h 105.5356 V -55.29337 H 44.83246 Z"
       style="fill:none;stroke:#000000;stroke-width:0.74721;stroke-linecap:butt;stroke-linejoin:miter;stroke-miterlimit:10;stroke-dasharray:none;stroke-opacity:1"
       transform="matrix(1.3333333,0,0,-1.3333333,-41.570667,-13.518667)" />
    <path
       id="path6"
       d="m 205.4821,-48.5685 c 19.60672,28.09504 87.60262,23.61179 92.08586,-24.9567 4.48325,-48.5685 29.1411,-47.8213 44.08525,-70.23753 14.94416,-22.41623 -106.85069,-16.43857 -132.25575,2.98883 -25.40506,19.4274 -23.52211,64.1104 -3.91536,92.2054 z"
       style="fill:none;stroke:#000000;stroke-width:0.74721;stroke-linecap:butt;stroke-linejoin:miter;stroke-miterlimit:10;stroke-dasharray:none;stroke-opacity:1"
       transform="matrix(1.3333333,0,0,-1.3333333,-41.570667,-13.518667)" />
    <path
       id="path7"
       d="m 239.85365,-125.15727 c 0,1.03114 0.83687,1.86801 1.86801,1.86801 1.03114,0 1.86803,-0.83687 1.86803,-1.86801 0,-1.03115 -0.83689,-1.86803 -1.86803,-1.86803 -1.03114,0 -1.86801,0.83688 -1.86801,1.86803 z"
       style="fill:#4a90e2;fill-opacity:1;fill-rule:nonzero;stroke:#4a90e2;stroke-width:0.74721;stroke-linecap:butt;stroke-linejoin:miter;stroke-miterlimit:10;stroke-dasharray:none;stroke-opacity:1"
       transform="matrix(1.3333333,0,0,-1.3333333,-41.570667,-13.518667)" />
    <path
       id="path8"
       d="m 225.65671,-102.74104 c 0,1.03114 0.83687,1.86801 1.86801,1.86801 1.03114,0 1.86803,-0.83687 1.86803,-1.86801 0,-1.03115 -0.83689,-1.86803 -1.86803,-1.86803 -1.03114,0 -1.86801,0.83688 -1.86801,1.86803 z"
       style="fill:#4a90e2;fill-opacity:1;fill-rule:nonzero;stroke:#4a90e2;stroke-width:0.74721;stroke-linecap:butt;stroke-linejoin:miter;stroke-miterlimit:10;stroke-dasharray:none;stroke-opacity:1"
       transform="matrix(1.3333333,0,0,-1.3333333,-41.570667,-13.518667)" />
    <path
       id="path9"
       d="m 245.0841,-78.08319 c 0,1.03114 0.83687,1.86801 1.86802,1.86801 1.03114,0 1.86802,-0.83687 1.86802,-1.86801 0,-1.03114 -0.83688,-1.86803 -1.86802,-1.86803 -1.03115,0 -1.86802,0.83689 -1.86802,1.86803 z"
       style="fill:#4a90e2;fill-opacity:1;fill-rule:nonzero;stroke:#4a90e2;stroke-width:0.74721;stroke-linecap:butt;stroke-linejoin:miter;stroke-miterlimit:10;stroke-dasharray:none;stroke-opacity:1"
       transform="matrix(1.3333333,0,0,-1.3333333,-41.570667,-13.518667)" />
    <path
       id="path10"
       d="m 289.16936,-96.01617 c 0,1.03114 0.83687,1.86801 1.86801,1.86801 1.03114,0 1.86803,-0.83687 1.86803,-1.86801 0,-1.03115 -0.83689,-1.86803 -1.86803,-1.86803 -1.03114,0 -1.86801,0.83688 -1.86801,1.86803 z"
       style="fill:#4a90e2;fill-opacity:1;fill-rule:nonzero;stroke:#4a90e2;stroke-width:0.74721;stroke-linecap:butt;stroke-linejoin:miter;stroke-miterlimit:10;stroke-dasharray:none;stroke-opacity:1"
       transform="matrix(1.3333333,0,0,-1.3333333,-41.570667,-13.518667)" />
    <path
       id="path11"
       d="m 293.6526,-126.65169 c 0,1.03115 0.83687,1.86801 1.86801,1.86801 1.03115,0 1.86803,-0.83686 1.86803,-1.86801 0,-1.03114 -0.83688,-1.86802 -1.86803,-1.86802 -1.03114,0 -1.86801,0.83688 -1.86801,1.86802 z"
       style="fill:#4a90e2;fill-opacity:1;fill-rule:nonzero;stroke:#4a90e2;stroke-width:0.74721;stroke-linecap:butt;stroke-linejoin:miter;stroke-miterlimit:10;stroke-dasharray:none;stroke-opacity:1"
       transform="matrix(1.3333333,0,0,-1.3333333,-41.570667,-13.518667)" />
    <g
       id="g11"
       aria-label="g&#10;1&#10;G&#10;x"
       transform="matrix(1.3333333,0,0,1.3333333,69.514667,78.748)">
      <path
         id="path12"
         d="m 4.6882187,-3.7514297 c 0.011719,-0.070312 0.035156,-0.1171875 0.035156,-0.1875 0,-0.1640625 -0.1171875,-0.2695312 -0.2929688,-0.2695312 -0.09375,0 -0.3632812,0.070312 -0.4101562,0.4335937 -0.1757813,-0.375 -0.5273438,-0.6328125 -0.9257813,-0.6328125 -1.1367187,0 -2.36718745,1.3945313 -2.36718745,2.8359375 0,0.98437501 0.60937495,1.57031251 1.32421875,1.57031251 0.5859375,0 1.0546875,-0.46875 1.1601562,-0.57421875 l 0.011719,0.0117188 C 3.0124375,0.31497656 2.89525,0.72513281 2.89525,0.74857031 2.848375,0.83060156 2.5085312,1.8266953 1.4538437,1.8266953 c -0.1875,0 -0.51562495,-0.011719 -0.79687495,-0.1054687 0.3046875,-0.09375 0.41015625,-0.3515625 0.41015625,-0.515625 0,-0.1640625 -0.10546875,-0.35156254 -0.375,-0.35156254 -0.22265625,0 -0.5390625,0.17578124 -0.5390625,0.57421874 0,0.4101563 0.36328125,0.609375 1.3242187,0.609375 1.2421875,0 1.9570313,-0.7734375 2.109375,-1.37109374 z m -1.2890625,2.4726563 c -0.058594,0.2578125 -0.2929687,0.51562496 -0.5039062,0.70312496 -0.2109375,0.17578125 -0.5273438,0.3515625 -0.8085938,0.3515625 -0.5039062,0 -0.65625,-0.515625 -0.65625,-0.91406246 0,-0.4804688 0.2929688,-1.6523438 0.5625,-2.15625 0.2695313,-0.4921875 0.703125,-0.890625 1.1132813,-0.890625 0.65625,0 0.796875,0.8085937 0.796875,0.8554687 0,0.046875 -0.011719,0.1054688 -0.023437,0.1523438 z m 0,0"
         style="fill:#000000;fill-opacity:1;fill-rule:nonzero;stroke:none" />
      <path
         id="path13"
         d="m 7.0847031,-2.9369766 c 0,-0.1875 -0.011719,-0.1992187 -0.2109375,-0.1992187 -0.4453125,0.4335937 -1.078125,0.4453125 -1.359375,0.4453125 v 0.2460937 c 0.1640625,0 0.6210938,0 1.0078125,-0.1875 v 3.55078129 c 0,0.23437501 0,0.32812501 -0.6914062,0.32812501 H 5.5612656 v 0.2460937 c 0.1289063,-0.011719 0.984375,-0.023437 1.2421875,-0.023437 0.2109375,0 1.0898438,0.011719 1.2421875,0.023437 V 1.2466172 H 7.7878281 c -0.703125,0 -0.703125,-0.09375 -0.703125,-0.32812501 z m 0,0"
         style="fill:#000000;fill-opacity:1;fill-rule:nonzero;stroke:none" />
      <path
         id="path14"
         d="m 16.790758,-6.9272109 c 0,-0.023437 -0.02344,-0.09375 -0.105469,-0.09375 -0.03516,0 -0.04687,0.011719 -0.152344,0.1171875 l -0.703125,0.7617187 c -0.08203,-0.140625 -0.539062,-0.8789062 -1.652343,-0.8789062 -2.214844,0 -4.4531254,2.203125 -4.4531254,4.5117187 0,1.58203126 1.1015624,2.73046876 2.7187504,2.73046876 0.433593,0 0.878906,-0.09375 1.242187,-0.24609375 0.492188,-0.19921875 0.679688,-0.41015625 0.867188,-0.609375 0.08203,0.2578125 0.351562,0.62109375 0.445312,0.62109375 0.04687,0 0.07031,-0.0234375 0.07031,-0.03515625 0.02344,-0.0234375 0.117187,-0.3984375 0.164062,-0.609375 L 15.43138,-1.4311172 c 0.03516,-0.1640625 0.08203,-0.328125 0.128906,-0.5039062 0.105469,-0.4453125 0.117188,-0.46875 0.679688,-0.4804688 0.05859,0 0.164062,-0.011719 0.164062,-0.1992187 0,-0.070312 -0.04687,-0.1054688 -0.128906,-0.1054688 -0.234375,0 -0.820313,0.023437 -1.042969,0.023437 -0.316406,0 -1.089844,-0.023437 -1.394531,-0.023437 -0.09375,0 -0.210938,0 -0.210938,0.1992188 0,0.1054687 0.08203,0.1054687 0.292969,0.1054687 0.01172,0 0.304688,0 0.527344,0.023437 0.257812,0.035156 0.316406,0.058594 0.316406,0.1875 0,0.09375 -0.117187,0.5390625 -0.210937,0.9023438 -0.28125,1.10156246 -1.582032,1.20703121 -1.921875,1.20703121 -0.960938,0 -2.003907,-0.5625 -2.003907,-2.08593751 0,-0.3164062 0.09375,-1.9570312 1.148438,-3.2460937 0.539062,-0.6796875 1.5,-1.2890625 2.484375,-1.2890625 1.019531,0 1.605469,0.7734375 1.605469,1.921875 0,0.3984375 -0.03516,0.4101562 -0.03516,0.5039062 0,0.1054688 0.117188,0.1054688 0.152344,0.1054688 0.128906,0 0.128906,-0.023437 0.175781,-0.1992188 z m 0,0"
         style="fill:#000000;fill-opacity:1;fill-rule:nonzero;stroke:none" />
      <path
         id="path15"
         d="m 18.788805,0.75442969 c -0.07031,0.234375 -0.292969,0.60937501 -0.65625,0.60937501 -0.02344,0 -0.222657,0 -0.375,-0.09375 0.28125,-0.09375 0.304687,-0.33984376 0.304687,-0.38671876 0,-0.15234375 -0.117187,-0.2578125 -0.28125,-0.2578125 -0.1875,0 -0.386719,0.1640625 -0.386719,0.43359376 0,0.3398437 0.386719,0.5039062 0.726563,0.5039062 0.316406,0 0.609375,-0.1992187 0.785156,-0.4921875 0.164063,0.3632813 0.550781,0.4921875 0.820313,0.4921875 0.808593,0 1.230468,-0.86718746 1.230468,-1.06640621 0,-0.09375 -0.09375,-0.09375 -0.105468,-0.09375 -0.105469,0 -0.105469,0.0351563 -0.140625,0.1171875 -0.140625,0.48046871 -0.5625,0.84375001 -0.949219,0.84375001 -0.28125,0 -0.421875,-0.1875 -0.421875,-0.44531251 0,-0.1875 0.164062,-0.8203125 0.363281,-1.59375 0.128906,-0.53906249 0.445313,-0.71484379 0.679688,-0.71484379 0.01172,0 0.222656,0 0.375,0.1054688 -0.222657,0.058594 -0.304688,0.2578125 -0.304688,0.37499999 0,0.15234375 0.117188,0.2578125 0.28125,0.2578125 0.152344,0 0.386719,-0.12890625 0.386719,-0.42187499 0,-0.3867188 -0.445313,-0.5039063 -0.726563,-0.5039063 -0.351562,0 -0.632812,0.2226563 -0.785156,0.4921875 -0.117187,-0.2929687 -0.445312,-0.4921875 -0.832031,-0.4921875 -0.785156,0 -1.230469,0.85546879 -1.230469,1.06640629 0,0.0820312 0.105469,0.0820312 0.117188,0.0820312 0.09375,0 0.105468,-0.0234375 0.140625,-0.1171875 0.175781,-0.53906249 0.609375,-0.84374999 0.949218,-0.84374999 0.234375,0 0.421875,0.1289062 0.421875,0.46874999 0,0.12890625 -0.08203,0.48046875 -0.152343,0.71484375 z m 0,0"
         style="fill:#000000;fill-opacity:1;fill-rule:nonzero;stroke:none" />
    </g>
    <g
       id="g15"
       aria-label="g&#10;2&#10;G&#10;x"
       transform="matrix(1.3333333,0,0,1.3333333,69.514667,112.62133)">
      <path
         id="path16"
         d="m 4.6882187,-3.7501797 c 0.011719,-0.070312 0.035156,-0.1171875 0.035156,-0.1875 0,-0.1640625 -0.1171875,-0.2695312 -0.2929688,-0.2695312 -0.09375,0 -0.3632812,0.070312 -0.4101562,0.4335937 -0.1757813,-0.375 -0.5273438,-0.6328125 -0.9257813,-0.6328125 -1.1367187,0 -2.36718745,1.3945313 -2.36718745,2.8359375 0,0.98437501 0.60937495,1.5703125125 1.32421875,1.5703125125 0.5859375,0 1.0546875,-0.4687500025 1.1601562,-0.5742187525 l 0.011719,0.0117188 C 3.0124375,0.31622656 2.89525,0.72638281 2.89525,0.74982031 2.848375,0.83185156 2.5085312,1.8279453 1.4538437,1.8279453 c -0.1875,0 -0.51562495,-0.011719 -0.79687495,-0.1054687 0.3046875,-0.09375 0.41015625,-0.3515625 0.41015625,-0.515625 0,-0.1640625 -0.10546875,-0.35156254 -0.375,-0.35156254 -0.22265625,0 -0.5390625,0.17578124 -0.5390625,0.57421874 0,0.4101563 0.36328125,0.609375 1.3242187,0.609375 1.2421875,0 1.9570313,-0.7734375 2.109375,-1.37109374 z m -1.2890625,2.4726563 c -0.058594,0.2578125 -0.2929687,0.51562496 -0.5039062,0.70312496 -0.2109375,0.17578125 -0.5273438,0.3515625 -0.8085938,0.3515625 -0.5039062,0 -0.65625,-0.515625 -0.65625,-0.91406246 0,-0.4804688 0.2929688,-1.6523438 0.5625,-2.15625 0.2695313,-0.4921875 0.703125,-0.890625 1.1132813,-0.890625 0.65625,0 0.796875,0.8085937 0.796875,0.8554687 0,0.046875 -0.011719,0.1054688 -0.023437,0.1523438 z m 0,0"
         style="fill:#000000;fill-opacity:1;fill-rule:nonzero;stroke:none" />
      <path
         id="path17"
         d="m 8.2682969,0.22833594 h -0.234375 c -0.023437,0.15234375 -0.082031,0.5625 -0.1757813,0.6328125 -0.058594,0.0351563 -0.5976562,0.0351563 -0.6914062,0.0351563 H 5.8776719 c 0.7382812,-0.64453125 0.984375,-0.84375 1.3945312,-1.171875 0.515625,-0.41015625 0.9960938,-0.84374994 0.9960938,-1.49999994 0,-0.8437501 -0.7382813,-1.3593751 -1.6289063,-1.3593751 -0.8671875,0 -1.453125,0.609375 -1.453125,1.2421876 0,0.3632812 0.3046875,0.3984375 0.375,0.3984375 0.1640625,0 0.375,-0.1171875 0.375,-0.375 0,-0.1289063 -0.058594,-0.3632814 -0.421875,-0.3632814 0.2226563,-0.5039062 0.6914063,-0.65625 1.0195313,-0.65625 0.703125,0 1.0664062,0.5507813 1.0664062,1.1132813 0,0.609375 -0.4335937,1.08984379 -0.65625,1.33593754 l -1.6875,1.66406246 c -0.070312,0.058594 -0.070312,0.070312 -0.070312,0.2695312 h 2.8828125 z m 0,0"
         style="fill:#000000;fill-opacity:1;fill-rule:nonzero;stroke:none" />
      <path
         id="path18"
         d="m 16.790758,-6.9259609 c 0,-0.023437 -0.02344,-0.09375 -0.105469,-0.09375 -0.03516,0 -0.04687,0.011719 -0.152344,0.1171875 l -0.703125,0.7617187 c -0.08203,-0.140625 -0.539062,-0.8789062 -1.652343,-0.8789062 -2.214844,0 -4.4531254,2.203125 -4.4531254,4.5117187 0,1.58203126 1.1015624,2.73046876 2.7187504,2.73046876 0.433593,0 0.878906,-0.09375 1.242187,-0.24609375 0.492188,-0.19921875 0.679688,-0.41015625 0.867188,-0.609375 0.08203,0.2578125 0.351562,0.62109375 0.445312,0.62109375 0.04687,0 0.07031,-0.0234375 0.07031,-0.03515625 0.02344,-0.0234375 0.117187,-0.3984375 0.164062,-0.609375 L 15.43138,-1.4298672 c 0.03516,-0.1640625 0.08203,-0.328125 0.128906,-0.5039062 0.105469,-0.4453125 0.117188,-0.46875 0.679688,-0.4804688 0.05859,0 0.164062,-0.011719 0.164062,-0.1992187 0,-0.070312 -0.04687,-0.1054688 -0.128906,-0.1054688 -0.234375,0 -0.820313,0.023437 -1.042969,0.023437 -0.316406,0 -1.089844,-0.023437 -1.394531,-0.023437 -0.09375,0 -0.210938,0 -0.210938,0.1992188 0,0.1054687 0.08203,0.1054687 0.292969,0.1054687 0.01172,0 0.304688,0 0.527344,0.023437 0.257812,0.035156 0.316406,0.058594 0.316406,0.1875 0,0.09375 -0.117187,0.5390625 -0.210937,0.9023438 -0.28125,1.10156246 -1.582032,1.20703121 -1.921875,1.20703121 -0.960938,0 -2.003907,-0.5625 -2.003907,-2.08593751 0,-0.3164062 0.09375,-1.9570312 1.148438,-3.2460937 0.539062,-0.6796875 1.5,-1.2890625 2.484375,-1.2890625 1.019531,0 1.605469,0.7734375 1.605469,1.921875 0,0.3984375 -0.03516,0.4101562 -0.03516,0.5039062 0,0.1054688 0.117188,0.1054688 0.152344,0.1054688 0.128906,0 0.128906,-0.023437 0.175781,-0.1992188 z m 0,0"
         style="fill:#000000;fill-opacity:1;fill-rule:nonzero;stroke:none" />
      <path
         id="path19"
         d="m 18.788805,0.75567969 c -0.07031,0.234375 -0.292969,0.60937501 -0.65625,0.60937501 -0.02344,0 -0.222657,0 -0.375,-0.09375 0.28125,-0.09375 0.304687,-0.33984376 0.304687,-0.38671876 0,-0.15234375 -0.117187,-0.2578125 -0.28125,-0.2578125 -0.1875,0 -0.386719,0.1640625 -0.386719,0.43359376 0,0.3398437 0.386719,0.5039062 0.726563,0.5039062 0.316406,0 0.609375,-0.1992187 0.785156,-0.4921875 0.164063,0.3632813 0.550781,0.4921875 0.820313,0.4921875 0.808593,0 1.230468,-0.86718746 1.230468,-1.06640621 0,-0.09375 -0.09375,-0.09375 -0.105468,-0.09375 -0.105469,0 -0.105469,0.0351563 -0.140625,0.1171875 -0.140625,0.48046871 -0.5625,0.84375001 -0.949219,0.84375001 -0.28125,0 -0.421875,-0.1875 -0.421875,-0.44531251 0,-0.1875 0.164062,-0.8203125 0.363281,-1.59375 0.128906,-0.53906249 0.445313,-0.71484379 0.679688,-0.71484379 0.01172,0 0.222656,0 0.375,0.1054688 -0.222657,0.058594 -0.304688,0.2578125 -0.304688,0.37499999 0,0.15234375 0.117188,0.2578125 0.28125,0.2578125 0.152344,0 0.386719,-0.12890625 0.386719,-0.42187499 0,-0.3867188 -0.445313,-0.5039063 -0.726563,-0.5039063 -0.351562,0 -0.632812,0.2226563 -0.785156,0.4921875 -0.117187,-0.2929687 -0.445312,-0.4921875 -0.832031,-0.4921875 -0.785156,0 -1.230469,0.85546879 -1.230469,1.06640629 0,0.0820313 0.105469,0.0820313 0.117188,0.0820313 0.09375,0 0.105468,-0.0234375 0.140625,-0.1171875 0.175781,-0.53906249 0.609375,-0.84374999 0.949218,-0.84374999 0.234375,0 0.421875,0.1289062 0.421875,0.46874999 0,0.12890625 -0.08203,0.48046875 -0.152343,0.71484375 z m 0,0"
         style="fill:#000000;fill-opacity:1;fill-rule:nonzero;stroke:none" />
    </g>
    <g
       id="g19"
       aria-label="g&#10;3&#10;G&#10;x"
       transform="matrix(1.3333333,0,0,1.3333333,69.514667,146.49467)">
      <path
         id="path20"
         d="m 4.6882187,-3.7489297 c 0.011719,-0.070312 0.035156,-0.1171875 0.035156,-0.1875 0,-0.1640625 -0.1171875,-0.2695312 -0.2929688,-0.2695312 -0.09375,0 -0.3632812,0.070312 -0.4101562,0.4335937 -0.1757813,-0.375 -0.5273438,-0.6328125 -0.9257813,-0.6328125 -1.1367187,0 -2.36718745,1.3945313 -2.36718745,2.8359375 0,0.98437501 0.60937495,1.57031251 1.32421875,1.57031251 0.5859375,0 1.0546875,-0.46875 1.1601562,-0.57421875 l 0.011719,0.0117188 C 3.0124375,0.31747656 2.89525,0.72763281 2.89525,0.75107031 2.848375,0.83310156 2.5085312,1.8291953 1.4538437,1.8291953 c -0.1875,0 -0.51562495,-0.011719 -0.79687495,-0.1054687 0.3046875,-0.09375 0.41015625,-0.3515625 0.41015625,-0.515625 0,-0.1640625 -0.10546875,-0.35156254 -0.375,-0.35156254 -0.22265625,0 -0.5390625,0.17578124 -0.5390625,0.57421874 0,0.4101563 0.36328125,0.609375 1.3242187,0.609375 1.2421875,0 1.9570313,-0.7734375 2.109375,-1.37109374 z m -1.2890625,2.4726563 c -0.058594,0.2578125 -0.2929687,0.51562496 -0.5039062,0.70312496 -0.2109375,0.17578125 -0.5273438,0.3515625 -0.8085938,0.3515625 -0.5039062,0 -0.65625,-0.515625 -0.65625,-0.91406246 0,-0.4804688 0.2929688,-1.6523438 0.5625,-2.15625 0.2695313,-0.4921875 0.703125,-0.890625 1.1132813,-0.890625 0.65625,0 0.796875,0.8085937 0.796875,0.8554687 0,0.046875 -0.011719,0.1054688 -0.023437,0.1523438 z m 0,0"
         style="fill:#000000;fill-opacity:1;fill-rule:nonzero;stroke:none" />
      <path
         id="path21"
         d="m 6.6511094,-0.83682031 c 0.5507812,0 0.9375,0.375 0.9375,1.125 0,0.86718751 -0.5039063,1.12500001 -0.9023438,1.12500001 -0.28125,0 -0.890625,-0.082031 -1.1835937,-0.49218751 0.328125,-0.0117188 0.3984375,-0.24609375 0.3984375,-0.38671875 0,-0.22265625 -0.1640625,-0.38671875 -0.3867188,-0.38671875 -0.1875,0 -0.3867187,0.1171875 -0.3867187,0.41015625 0,0.65624996 0.7265625,1.07812496 1.5703125,1.07812496 0.9726562,0 1.640625,-0.64453121 1.640625,-1.34765621 0,-0.5390625 -0.4453125,-1.08984375 -1.21875,-1.2421875 0.7382812,-0.26953129 0.9960937,-0.79687499 0.9960937,-1.21874999 0,-0.5507813 -0.6328125,-0.9609375 -1.40625,-0.9609375 -0.7734375,0 -1.359375,0.375 -1.359375,0.9375 0,0.234375 0.1523438,0.3632812 0.3632813,0.3632812 0.2109375,0 0.3515625,-0.1640625 0.3515625,-0.3515625 0,-0.1992187 -0.140625,-0.3515625 -0.3515625,-0.3632812 0.234375,-0.3046875 0.7148437,-0.3867188 0.9726562,-0.3867188 0.3164063,0 0.7617188,0.1523438 0.7617188,0.7617188 0,0.2929687 -0.1054688,0.609375 -0.28125,0.8320312 -0.234375,0.2578125 -0.421875,0.28125 -0.7734375,0.2929688 -0.1757813,0.023437 -0.1875,0.023437 -0.2226563,0.023437 -0.011719,0 -0.070312,0.011719 -0.070312,0.09375 0,0.09375 0.058594,0.09375 0.1757813,0.09375 z m 0,0"
         style="fill:#000000;fill-opacity:1;fill-rule:nonzero;stroke:none" />
      <path
         id="path22"
         d="m 16.790758,-6.9247109 c 0,-0.023437 -0.02344,-0.09375 -0.105469,-0.09375 -0.03516,0 -0.04687,0.011719 -0.152344,0.1171875 l -0.703125,0.7617187 c -0.08203,-0.140625 -0.539062,-0.8789062 -1.652343,-0.8789062 -2.214844,0 -4.4531254,2.203125 -4.4531254,4.5117187 0,1.58203126 1.1015624,2.73046876 2.7187504,2.73046876 0.433593,0 0.878906,-0.09375 1.242187,-0.24609375 0.492188,-0.19921875 0.679688,-0.41015625 0.867188,-0.609375 0.08203,0.2578125 0.351562,0.62109375 0.445312,0.62109375 0.04687,0 0.07031,-0.0234375 0.07031,-0.03515625 0.02344,-0.0234375 0.117187,-0.3984375 0.164062,-0.609375 L 15.43138,-1.4286172 c 0.03516,-0.1640625 0.08203,-0.328125 0.128906,-0.5039062 0.105469,-0.4453125 0.117188,-0.46875 0.679688,-0.4804688 0.05859,0 0.164062,-0.011719 0.164062,-0.1992187 0,-0.070312 -0.04687,-0.1054688 -0.128906,-0.1054688 -0.234375,0 -0.820313,0.023437 -1.042969,0.023437 -0.316406,0 -1.089844,-0.023437 -1.394531,-0.023437 -0.09375,0 -0.210938,0 -0.210938,0.1992188 0,0.1054687 0.08203,0.1054687 0.292969,0.1054687 0.01172,0 0.304688,0 0.527344,0.023437 0.257812,0.035156 0.316406,0.058594 0.316406,0.1875 0,0.09375 -0.117187,0.5390625 -0.210937,0.9023438 -0.28125,1.10156246 -1.582032,1.20703121 -1.921875,1.20703121 -0.960938,0 -2.003907,-0.5625 -2.003907,-2.08593751 0,-0.3164062 0.09375,-1.9570312 1.148438,-3.2460937 0.539062,-0.6796875 1.5,-1.2890625 2.484375,-1.2890625 1.019531,0 1.605469,0.7734375 1.605469,1.921875 0,0.3984375 -0.03516,0.4101562 -0.03516,0.5039062 0,0.1054688 0.117188,0.1054688 0.152344,0.1054688 0.128906,0 0.128906,-0.023437 0.175781,-0.1992188 z m 0,0"
         style="fill:#000000;fill-opacity:1;fill-rule:nonzero;stroke:none" />
      <path
         id="path23"
         d="m 18.788805,0.75692969 c -0.07031,0.234375 -0.292969,0.60937501 -0.65625,0.60937501 -0.02344,0 -0.222657,0 -0.375,-0.09375 0.28125,-0.09375 0.304687,-0.33984376 0.304687,-0.38671876 0,-0.15234375 -0.117187,-0.2578125 -0.28125,-0.2578125 -0.1875,0 -0.386719,0.1640625 -0.386719,0.43359376 0,0.3398437 0.386719,0.5039062 0.726563,0.5039062 0.316406,0 0.609375,-0.1992187 0.785156,-0.4921875 0.164063,0.3632813 0.550781,0.4921875 0.820313,0.4921875 0.808593,0 1.230468,-0.86718746 1.230468,-1.06640621 0,-0.09375 -0.09375,-0.09375 -0.105468,-0.09375 -0.105469,0 -0.105469,0.0351563 -0.140625,0.1171875 -0.140625,0.48046871 -0.5625,0.84375001 -0.949219,0.84375001 -0.28125,0 -0.421875,-0.1875 -0.421875,-0.44531251 0,-0.1875 0.164062,-0.8203125 0.363281,-1.59375 0.128906,-0.53906249 0.445313,-0.71484379 0.679688,-0.71484379 0.01172,0 0.222656,0 0.375,0.1054688 -0.222657,0.058594 -0.304688,0.2578125 -0.304688,0.37499999 0,0.15234375 0.117188,0.2578125 0.28125,0.2578125 0.152344,0 0.386719,-0.12890625 0.386719,-0.42187499 0,-0.3867188 -0.445313,-0.5039063 -0.726563,-0.5039063 -0.351562,0 -0.632812,0.2226563 -0.785156,0.4921875 -0.117187,-0.2929687 -0.445312,-0.4921875 -0.832031,-0.4921875 -0.785156,0 -1.230469,0.85546879 -1.230469,1.06640629 0,0.0820313 0.105469,0.0820313 0.117188,0.0820313 0.09375,0 0.105468,-0.0234375 0.140625,-0.1171875 0.175781,-0.53906249 0.609375,-0.84374999 0.949218,-0.84374999 0.234375,0 0.421875,0.1289063 0.421875,0.46874999 0,0.12890625 -0.08203,0.48046875 -0.152343,0.71484375 z m 0,0"
         style="fill:#000000;fill-opacity:1;fill-rule:nonzero;stroke:none" />
    </g>
    <g
       id="g23"
       aria-label="g&#10;4&#10;G&#10;x"
       transform="matrix(1.3333333,0,0,1.3333333,69.514667,181.364)">
      <path
         id="path24"
         d="m 4.6882187,-3.7505391 c 0.011719,-0.070312 0.035156,-0.1171875 0.035156,-0.1875 0,-0.1640625 -0.1171875,-0.2695312 -0.2929688,-0.2695312 -0.09375,0 -0.3632812,0.070312 -0.4101562,0.4335937 -0.1757813,-0.375 -0.5273438,-0.6328125 -0.9257813,-0.6328125 -1.1367187,0 -2.36718745,1.3945313 -2.36718745,2.8359375 0,0.98437504 0.60937495,1.5703125375 1.32421875,1.5703125375 0.5859375,0 1.0546875,-0.4687499975 1.1601562,-0.5742187475 l 0.011719,0.0117188 C 3.0124375,0.31586719 2.89525,0.72602344 2.89525,0.74946094 2.848375,0.83149219 2.5085312,1.8275859 1.4538437,1.8275859 c -0.1875,0 -0.51562495,-0.011719 -0.79687495,-0.1054687 0.3046875,-0.09375 0.41015625,-0.3515625 0.41015625,-0.515625 0,-0.1640625 -0.10546875,-0.35156251 -0.375,-0.35156251 -0.22265625,0 -0.5390625,0.17578121 -0.5390625,0.57421871 0,0.4101563 0.36328125,0.609375 1.3242187,0.609375 1.2421875,0 1.9570313,-0.7734375 2.109375,-1.37109371 z m -1.2890625,2.4726563 c -0.058594,0.2578125 -0.2929687,0.51562499 -0.5039062,0.70312499 -0.2109375,0.17578125 -0.5273438,0.3515625 -0.8085938,0.3515625 -0.5039062,0 -0.65625,-0.515625 -0.65625,-0.91406249 0,-0.4804688 0.2929688,-1.6523438 0.5625,-2.15625 0.2695313,-0.4921875 0.703125,-0.890625 1.1132813,-0.890625 0.65625,0 0.796875,0.8085937 0.796875,0.8554687 0,0.046875 -0.011719,0.1054688 -0.023437,0.1523438 z m 0,0"
         style="fill:#000000;fill-opacity:1;fill-rule:nonzero;stroke:none" />
      <path
         id="path25"
         d="M 8.4440781,0.34516406 V 0.09907031 H 7.6706406 V -3.0063984 c 0,-0.1523438 0,-0.1992188 -0.1523437,-0.1992188 -0.09375,0 -0.1171875,0 -0.1875,0.09375 L 5.0222031,0.09907031 v 0.24609375 h 2.0507813 v 0.57421875 c 0,0.23437499 0,0.32812499 -0.5625,0.32812499 h -0.1875 v 0.2460938 c 0.3515625,-0.011719 0.796875,-0.023437 1.0429687,-0.023437 0.2578125,0 0.703125,0.011719 1.0546875,0.023437 V 1.2475078 h -0.1875 c -0.5625,0 -0.5625,-0.09375 -0.5625,-0.32812499 V 0.34516406 Z M 7.1198594,-2.4556172 V 0.09907031 H 5.2800156 Z m 0,0"
         style="fill:#000000;fill-opacity:1;fill-rule:nonzero;stroke:none" />
      <path
         id="path26"
         d="m 16.790758,-6.9263203 c 0,-0.023437 -0.02344,-0.09375 -0.105469,-0.09375 -0.03516,0 -0.04687,0.011719 -0.152344,0.1171875 l -0.703125,0.7617187 c -0.08203,-0.140625 -0.539062,-0.8789062 -1.652343,-0.8789062 -2.214844,0 -4.4531254,2.203125 -4.4531254,4.5117187 0,1.58203129 1.1015624,2.73046879 2.7187504,2.73046879 0.433593,0 0.878906,-0.09375 1.242187,-0.24609375 0.492188,-0.19921875 0.679688,-0.41015625 0.867188,-0.609375 0.08203,0.2578125 0.351562,0.62109375 0.445312,0.62109375 0.04687,0 0.07031,-0.0234375 0.07031,-0.03515625 0.02344,-0.0234375 0.117187,-0.3984375 0.164062,-0.609375 L 15.43138,-1.4302266 c 0.03516,-0.1640625 0.08203,-0.328125 0.128906,-0.5039062 0.105469,-0.4453125 0.117188,-0.46875 0.679688,-0.4804688 0.05859,0 0.164062,-0.011719 0.164062,-0.1992187 0,-0.070312 -0.04687,-0.1054688 -0.128906,-0.1054688 -0.234375,0 -0.820313,0.023437 -1.042969,0.023437 -0.316406,0 -1.089844,-0.023437 -1.394531,-0.023437 -0.09375,0 -0.210938,0 -0.210938,0.1992188 0,0.1054687 0.08203,0.1054687 0.292969,0.1054687 0.01172,0 0.304688,0 0.527344,0.023437 0.257812,0.035156 0.316406,0.058594 0.316406,0.1875 0,0.09375 -0.117187,0.5390625 -0.210937,0.9023438 -0.28125,1.10156249 -1.582032,1.20703124 -1.921875,1.20703124 -0.960938,0 -2.003907,-0.5625 -2.003907,-2.08593754 0,-0.3164062 0.09375,-1.9570312 1.148438,-3.2460937 0.539062,-0.6796875 1.5,-1.2890625 2.484375,-1.2890625 1.019531,0 1.605469,0.7734375 1.605469,1.921875 0,0.3984375 -0.03516,0.4101562 -0.03516,0.5039062 0,0.1054688 0.117188,0.1054688 0.152344,0.1054688 0.128906,0 0.128906,-0.023437 0.175781,-0.1992188 z m 0,0"
         style="fill:#000000;fill-opacity:1;fill-rule:nonzero;stroke:none" />
      <path
         id="path27"
         d="m 18.788805,0.75532031 c -0.07031,0.234375 -0.292969,0.60937499 -0.65625,0.60937499 -0.02344,0 -0.222657,0 -0.375,-0.09375 0.28125,-0.09375 0.304687,-0.33984374 0.304687,-0.38671874 0,-0.15234375 -0.117187,-0.2578125 -0.28125,-0.2578125 -0.1875,0 -0.386719,0.1640625 -0.386719,0.43359374 0,0.3398438 0.386719,0.5039063 0.726563,0.5039063 0.316406,0 0.609375,-0.1992188 0.785156,-0.4921875 0.164063,0.3632812 0.550781,0.4921875 0.820313,0.4921875 0.808593,0 1.230468,-0.86718754 1.230468,-1.06640629 0,-0.09375 -0.09375,-0.09375 -0.105468,-0.09375 -0.105469,0 -0.105469,0.0351563 -0.140625,0.1171875 -0.140625,0.48046879 -0.5625,0.84374999 -0.949219,0.84374999 -0.28125,0 -0.421875,-0.1875 -0.421875,-0.44531249 0,-0.1875 0.164062,-0.8203125 0.363281,-1.59375 0.128906,-0.53906251 0.445313,-0.71484371 0.679688,-0.71484371 0.01172,0 0.222656,0 0.375,0.1054687 -0.222657,0.058594 -0.304688,0.2578125 -0.304688,0.37500001 0,0.15234375 0.117188,0.2578125 0.28125,0.2578125 0.152344,0 0.386719,-0.12890625 0.386719,-0.42187501 0,-0.3867187 -0.445313,-0.5039062 -0.726563,-0.5039062 -0.351562,0 -0.632812,0.2226562 -0.785156,0.4921875 -0.117187,-0.2929688 -0.445312,-0.4921875 -0.832031,-0.4921875 -0.785156,0 -1.230469,0.85546871 -1.230469,1.06640621 0,0.0820313 0.105469,0.0820313 0.117188,0.0820313 0.09375,0 0.105468,-0.0234375 0.140625,-0.1171875 0.175781,-0.53906241 0.609375,-0.84374991 0.949218,-0.84374991 0.234375,0 0.421875,0.1289062 0.421875,0.46874991 0,0.12890625 -0.08203,0.48046875 -0.152343,0.71484375 z m 0,0"
         style="fill:#000000;fill-opacity:1;fill-rule:nonzero;stroke:none" />
    </g>
    <g
       id="g27"
       aria-label="G&#10;x"
       transform="matrix(1.3333333,0,0,1.3333333,79.477333,44.874667)">
      <path
         id="path28"
         d="m 7.5697344,-6.9255313 c 0,-0.023437 -0.023437,-0.09375 -0.1054688,-0.09375 -0.035156,0 -0.046875,0.011719 -0.1523437,0.1171875 L 6.6087969,-6.140375 C 6.5267656,-6.281 6.0697344,-7.0192813 4.9564531,-7.0192813 c -2.2148437,0 -4.45312498,2.203125 -4.45312498,4.5117188 0,1.58203125 1.10156248,2.73046875 2.71874998,2.73046875 0.4335938,0 0.8789063,-0.09375 1.2421875,-0.24609375 0.4921875,-0.19921875 0.6796875,-0.41015625 0.8671875,-0.609375 0.082031,0.2578125 0.3515625,0.62109375 0.4453125,0.62109375 0.046875,0 0.070312,-0.0234375 0.070312,-0.03515625 0.023437,-0.0234375 0.1171875,-0.3984375 0.1640625,-0.609375 l 0.1992188,-0.7734375 c 0.035156,-0.1640625 0.082031,-0.328125 0.1289062,-0.5039063 0.1054688,-0.4453125 0.1171875,-0.46875 0.6796875,-0.4804687 0.058594,0 0.1640625,-0.011719 0.1640625,-0.1992188 0,-0.070312 -0.046875,-0.1054687 -0.1289062,-0.1054687 -0.234375,0 -0.8203125,0.023437 -1.0429688,0.023437 -0.3164062,0 -1.0898437,-0.023437 -1.3945312,-0.023437 -0.09375,0 -0.2109375,0 -0.2109375,0.1992187 0,0.1054688 0.082031,0.1054688 0.2929687,0.1054688 0.011719,0 0.3046875,0 0.5273438,0.023437 0.2578125,0.035156 0.3164062,0.058594 0.3164062,0.1875 0,0.09375 -0.1171875,0.5390625 -0.2109375,0.9023437 -0.28125,1.10156255 -1.5820312,1.2070313 -1.921875,1.2070313 -0.9609375,0 -2.0039062,-0.5625 -2.0039062,-2.0859375 0,-0.3164063 0.09375,-1.9570313 1.1484375,-3.2460938 0.5390625,-0.6796875 1.5,-1.2890625 2.484375,-1.2890625 1.0195312,0 1.6054687,0.7734375 1.6054687,1.921875 0,0.3984375 -0.035156,0.4101563 -0.035156,0.5039063 0,0.1054687 0.1171875,0.1054687 0.1523437,0.1054687 0.1289063,0 0.1289063,-0.023437 0.1757813,-0.1992187 z m 0,0"
         style="fill:#000000;fill-opacity:1;fill-rule:nonzero;stroke:none" />
      <path
         id="path29"
         d="m 9.5677812,0.75610937 c -0.070312,0.234375 -0.2929687,0.60937503 -0.65625,0.60937503 -0.023437,0 -0.2226562,0 -0.375,-0.09375 0.28125,-0.09375 0.3046875,-0.33984378 0.3046875,-0.38671878 0,-0.15234375 -0.1171875,-0.2578125 -0.28125,-0.2578125 -0.1875,0 -0.3867187,0.1640625 -0.3867187,0.43359378 0,0.3398437 0.3867187,0.5039062 0.7265625,0.5039062 0.3164062,0 0.609375,-0.1992187 0.7851562,-0.4921875 0.1640625,0.3632813 0.5507813,0.4921875 0.8203123,0.4921875 0.808594,0 1.230469,-0.86718748 1.230469,-1.06640623 0,-0.09375 -0.09375,-0.09375 -0.105469,-0.09375 -0.105469,0 -0.105469,0.0351563 -0.140625,0.1171875 -0.140625,0.48046873 -0.5625,0.84375003 -0.949219,0.84375003 -0.28125,0 -0.421875,-0.1875 -0.421875,-0.44531253 0,-0.1875 0.164063,-0.8203125 0.363282,-1.59375 0.128906,-0.53906247 0.445312,-0.71484377 0.679687,-0.71484377 0.01172,0 0.222656,0 0.375,0.1054688 -0.222656,0.058594 -0.304687,0.2578125 -0.304687,0.37499997 0,0.15234375 0.117187,0.2578125 0.28125,0.2578125 0.152343,0 0.386718,-0.12890625 0.386718,-0.42187497 0,-0.3867188 -0.445312,-0.5039063 -0.726562,-0.5039063 -0.351563,0 -0.632813,0.2226563 -0.785156,0.4921875 -0.117188,-0.2929687 -0.4453128,-0.4921875 -0.8320315,-0.4921875 -0.7851563,0 -1.2304688,0.85546877 -1.2304688,1.06640627 0,0.0820313 0.1054688,0.0820313 0.1171875,0.0820313 0.09375,0 0.1054688,-0.0234375 0.140625,-0.1171875 0.1757813,-0.53906247 0.609375,-0.84374997 0.9492188,-0.84374997 0.234375,0 0.421875,0.1289063 0.421875,0.46874997 0,0.12890625 -0.082031,0.48046875 -0.1523438,0.71484375 z m 0,0"
         style="fill:#000000;fill-opacity:1;fill-rule:nonzero;stroke:none" />
    </g>
    <path
       id="path30"
       d="m 3.3273281,-3.0129453 c 0.058594,-0.2578125 0.2929688,-1.171875 0.984375,-1.171875 0.046875,0 0.2929688,0 0.5039063,0.1289062 -0.28125,0.046875 -0.4804688,0.3046875 -0.4804688,0.5390625 0,0.1640625 0.1054688,0.3515625 0.375,0.3515625 0.2226563,0 0.5390625,-0.1875 0.5390625,-0.5859375 0,-0.515625 -0.5859375,-0.65625 -0.9257812,-0.65625 -0.5742188,0 -0.9257813,0.5273438 -1.0429688,0.7617188 -0.2578125,-0.65625 -0.7851562,-0.7617188 -1.078125,-0.7617188 -1.0429687,0 -1.60546873,1.2890625 -1.60546873,1.5351563 0,0.1054687 0.10546875,0.1054687 0.1171875,0.1054687 0.0820313,0 0.1171875,-0.023437 0.12890625,-0.1171875 0.33984378,-1.0546875 0.99609378,-1.3007812 1.33593748,-1.3007812 0.1875,0 0.5390625,0.09375 0.5390625,0.6679687 0,0.3046875 -0.1640625,0.9726563 -0.5390625,2.3671875 -0.1523437,0.62109379 -0.5039062,1.04296879 -0.9492187,1.04296879 -0.058594,0 -0.28125003,0 -0.49218753,-0.12890625 0.24609375,-0.0585938 0.46875003,-0.26953125 0.46875003,-0.5390625 0,-0.26953124 -0.22265628,-0.35156254 -0.37500003,-0.35156254 -0.29296875,0 -0.5390625,0.25781254 -0.5390625,0.57421879 0,0.45703125 0.4921875,0.65625 0.93750003,0.65625 0.65625,0 1.0078125,-0.69140625 1.0429687,-0.75 0.1171875,0.36328125 0.4804688,0.75 1.078125,0.75 1.0195313,0 1.59375,-1.27734379 1.59375,-1.53515629 0,-0.09375 -0.09375,-0.09375 -0.1289062,-0.09375 -0.082031,0 -0.1054688,0.035156 -0.1289063,0.1054688 -0.328125,1.06640624 -0.9960937,1.31249999 -1.3242187,1.31249999 -0.3867188,0 -0.5390625,-0.328125 -0.5390625,-0.65625 0,-0.22265625 0.058594,-0.44531249 0.1640625,-0.87890629 z m 0,0"
       style="fill:#4a90e2;fill-opacity:1;fill-rule:nonzero;stroke:none"
       aria-label="x"
       transform="matrix(1.3333333,0,0,1.3333333,284.212,163.95867)" />
    <g
       id="g30"
       aria-label="g&#10;1&#10;路x"
       transform="matrix(1.3333333,0,0,1.3333333,228.828,116.00533)">
      <path
         id="path31"
         d="m 4.6875938,-3.7510703 c 0.011719,-0.070312 0.035156,-0.1171875 0.035156,-0.1875 0,-0.1640625 -0.1171875,-0.2695313 -0.2929687,-0.2695313 -0.09375,0 -0.3632813,0.070312 -0.4101563,0.4335938 -0.1757812,-0.375 -0.5273437,-0.6328125 -0.9257812,-0.6328125 -1.1367188,0 -2.36718755,1.3945312 -2.36718755,2.8359375 0,0.98437499 0.60937505,1.57031249 1.32421875,1.57031249 0.5859375,0 1.0546875,-0.46875 1.1601563,-0.57421875 l 0.011719,0.0117188 C 3.0118125,0.31533594 2.894625,0.72549219 2.894625,0.74892969 2.84775,0.83096094 2.5079063,1.8270547 1.4532188,1.8270547 c -0.1875,0 -0.51562505,-0.011719 -0.79687505,-0.1054688 C 0.96103125,1.6278359 1.0665,1.3700234 1.0665,1.2059609 c 0,-0.1640625 -0.10546875,-0.35156246 -0.375,-0.35156246 -0.22265625,0 -0.5390625,0.17578126 -0.5390625,0.57421876 0,0.4101562 0.36328125,0.609375 1.3242188,0.609375 1.2421875,0 1.9570312,-0.7734375 2.109375,-1.37109376 z m -1.2890625,2.4726562 c -0.058594,0.2578125 -0.2929688,0.51562504 -0.5039063,0.70312504 -0.2109375,0.17578125 -0.5273437,0.3515625 -0.8085937,0.3515625 -0.5039063,0 -0.65625,-0.515625 -0.65625,-0.91406254 0,-0.4804687 0.2929687,-1.6523437 0.5625,-2.15625 0.2695312,-0.4921875 0.703125,-0.890625 1.1132812,-0.890625 0.65625,0 0.796875,0.8085938 0.796875,0.8554688 0,0.046875 -0.011719,0.1054687 -0.023437,0.1523437 z m 0,0"
         style="fill:#4a90e2;fill-opacity:1;fill-rule:nonzero;stroke:none" />
      <path
         id="path32"
         d="m 7.0840781,-2.9366172 c 0,-0.1875 -0.011719,-0.1992187 -0.2109375,-0.1992187 -0.4453125,0.4335937 -1.078125,0.4453125 -1.359375,0.4453125 v 0.2460937 c 0.1640625,0 0.6210938,0 1.0078125,-0.1875 v 3.55078126 c 0,0.23437504 0,0.32812504 -0.6914062,0.32812504 H 5.5606406 v 0.2460937 c 0.1289063,-0.011719 0.984375,-0.023437 1.2421875,-0.023437 0.2109375,0 1.0898438,0.011719 1.2421875,0.023437 V 1.2469766 H 7.7872031 c -0.703125,0 -0.703125,-0.09375 -0.703125,-0.32812504 z m 0,0"
         style="fill:#4a90e2;fill-opacity:1;fill-rule:nonzero;stroke:none" />
      <path
         id="path33"
         d="m 13.34482,-2.4971641 c 0,-0.28125 -0.234375,-0.5273437 -0.527343,-0.5273437 -0.28125,0 -0.527344,0.2460937 -0.527344,0.5273437 0,0.2929688 0.246094,0.5390625 0.527344,0.5390625 0.292968,0 0.527343,-0.2460937 0.527343,-0.5390625 z m 0,0"
         style="fill:#4a90e2;fill-opacity:1;fill-rule:nonzero;stroke:none" />
      <path
         id="path34"
         d="m 19.743258,-3.0127891 c 0.05859,-0.2578125 0.292969,-1.171875 0.984375,-1.171875 0.04687,0 0.292969,0 0.503906,0.1289063 -0.28125,0.046875 -0.480469,0.3046875 -0.480469,0.5390625 0,0.1640625 0.105469,0.3515625 0.375,0.3515625 0.222657,0 0.539063,-0.1875 0.539063,-0.5859375 0,-0.515625 -0.585938,-0.65625 -0.925781,-0.65625 -0.574219,0 -0.925782,0.5273437 -1.042969,0.7617187 -0.257813,-0.65625 -0.785156,-0.7617187 -1.078125,-0.7617187 -1.042969,0 -1.605469,1.2890625 -1.605469,1.5351562 0,0.1054688 0.105469,0.1054688 0.117188,0.1054688 0.08203,0 0.117187,-0.023437 0.128906,-0.1171875 0.339844,-1.0546875 0.996094,-1.3007813 1.335937,-1.3007813 0.1875,0 0.539063,0.09375 0.539063,0.6679688 0,0.3046875 -0.164063,0.9726562 -0.539063,2.3671875 -0.152343,0.62109374 -0.503906,1.04296874 -0.949218,1.04296874 -0.05859,0 -0.28125,0 -0.492188,-0.12890625 0.246094,-0.0585938 0.46875,-0.26953125 0.46875,-0.5390625 0,-0.26953129 -0.222656,-0.35156249 -0.375,-0.35156249 -0.292969,0 -0.539062,0.25781249 -0.539062,0.57421874 0,0.45703125 0.492187,0.65625 0.9375,0.65625 0.65625,0 1.007812,-0.69140625 1.042968,-0.75 0.117188,0.36328125 0.480469,0.75 1.078125,0.75 1.019532,0 1.59375,-1.27734374 1.59375,-1.53515624 0,-0.09375 -0.09375,-0.09375 -0.128906,-0.09375 -0.08203,0 -0.105469,0.035156 -0.128906,0.1054687 -0.328125,1.06640629 -0.996094,1.31250004 -1.324219,1.31250004 -0.386719,0 -0.539062,-0.328125 -0.539062,-0.65625 0,-0.22265625 0.05859,-0.44531254 0.164062,-0.87890624 z m 0,0"
         style="fill:#4a90e2;fill-opacity:1;fill-rule:nonzero;stroke:none" />
    </g>
    <g
       id="g34"
       aria-label="g&#10;2&#10;路x"
       transform="matrix(1.3333333,0,0,1.3333333,254.73067,83.128)">
      <path
         id="path35"
         d="m 4.6873516,-3.7493203 c 0.011719,-0.070312 0.035156,-0.1171875 0.035156,-0.1875 0,-0.1640625 -0.1171875,-0.2695313 -0.2929687,-0.2695313 -0.09375,0 -0.3632813,0.070312 -0.4101563,0.4335938 -0.1757812,-0.375 -0.5273437,-0.6328125 -0.9257812,-0.6328125 -1.1367188,0 -2.36718754,1.3945312 -2.36718754,2.8359375 0,0.98437499 0.60937504,1.5703124875 1.32421874,1.5703124875 0.5859375,0 1.0546875,-0.4687499975 1.1601563,-0.5742187475 l 0.011719,0.0117188 c -0.2109375,0.87890625 -0.328125,1.2890625 -0.328125,1.3125 -0.046875,0.0820313 -0.3867187,1.07812506 -1.4414062,1.07812506 -0.1875,0 -0.51562504,-0.011719 -0.79687504,-0.1054688 0.3046875,-0.09375 0.41015624,-0.3515625 0.41015624,-0.515625 0,-0.1640625 -0.10546874,-0.35156251 -0.37499999,-0.35156251 -0.22265625,0 -0.5390625,0.17578131 -0.5390625,0.57421881 0,0.4101562 0.36328125,0.609375 1.32421879,0.609375 1.2421875,0 1.9570312,-0.7734375 2.109375,-1.37109381 z m -1.2890625,2.4726562 c -0.058594,0.2578125 -0.2929688,0.51562504 -0.5039063,0.70312504 -0.2109375,0.17578125 -0.5273437,0.3515625 -0.8085937,0.3515625 -0.5039063,0 -0.65625,-0.515625 -0.65625,-0.91406254 0,-0.4804687 0.2929687,-1.6523437 0.5625,-2.15625 0.2695312,-0.4921875 0.703125,-0.890625 1.1132812,-0.890625 0.65625,0 0.796875,0.8085938 0.796875,0.8554688 0,0.046875 -0.011719,0.1054687 -0.023437,0.1523437 z m 0,0"
         style="fill:#4a90e2;fill-opacity:1;fill-rule:nonzero;stroke:none" />
      <path
         id="path36"
         d="m 8.2674297,0.22919531 h -0.234375 c -0.023437,0.15234375 -0.082031,0.5625 -0.1757813,0.6328125 -0.058594,0.0351563 -0.5976562,0.0351563 -0.6914062,0.0351563 H 5.8768047 c 0.7382812,-0.64453125 0.984375,-0.84375 1.3945312,-1.171875 0.515625,-0.41015625 0.9960938,-0.84374991 0.9960938,-1.49999991 0,-0.8437501 -0.7382813,-1.3593751 -1.6289063,-1.3593751 -0.8671875,0 -1.453125,0.609375 -1.453125,1.2421876 0,0.3632812 0.3046875,0.3984375 0.375,0.3984375 0.1640625,0 0.375,-0.1171875 0.375,-0.375 0,-0.1289063 -0.058594,-0.3632814 -0.421875,-0.3632814 0.2226563,-0.5039062 0.6914063,-0.65625 1.0195313,-0.65625 0.703125,0 1.0664062,0.5507813 1.0664062,1.1132813 0,0.609375 -0.4335937,1.08984376 -0.65625,1.33593751 l -1.6875,1.66406249 c -0.070312,0.058594 -0.070312,0.070312 -0.070312,0.2695312 h 2.8828125 z m 0,0"
         style="fill:#4a90e2;fill-opacity:1;fill-rule:nonzero;stroke:none" />
      <path
         id="path37"
         d="m 13.344578,-2.4954141 c 0,-0.28125 -0.234375,-0.5273437 -0.527344,-0.5273437 -0.28125,0 -0.527343,0.2460937 -0.527343,0.5273437 0,0.2929688 0.246093,0.5390625 0.527343,0.5390625 0.292969,0 0.527344,-0.2460937 0.527344,-0.5390625 z m 0,0"
         style="fill:#4a90e2;fill-opacity:1;fill-rule:nonzero;stroke:none" />
      <path
         id="path38"
         d="m 19.743016,-3.0110391 c 0.05859,-0.2578125 0.292968,-1.171875 0.984375,-1.171875 0.04687,0 0.292968,0 0.503906,0.1289063 -0.28125,0.046875 -0.480469,0.3046875 -0.480469,0.5390625 0,0.1640625 0.105469,0.3515625 0.375,0.3515625 0.222656,0 0.539063,-0.1875 0.539063,-0.5859375 0,-0.515625 -0.585938,-0.65625 -0.925782,-0.65625 -0.574218,0 -0.925781,0.5273437 -1.042968,0.7617187 -0.257813,-0.65625 -0.785157,-0.7617187 -1.078125,-0.7617187 -1.042969,0 -1.605469,1.2890625 -1.605469,1.5351562 0,0.1054688 0.105469,0.1054688 0.117187,0.1054688 0.08203,0 0.117188,-0.023437 0.128907,-0.1171875 0.339843,-1.0546875 0.996093,-1.3007813 1.335937,-1.3007813 0.1875,0 0.539063,0.09375 0.539063,0.6679688 0,0.3046875 -0.164063,0.9726562 -0.539063,2.3671875 -0.152344,0.62109374 -0.503906,1.04296874 -0.949219,1.04296874 -0.05859,0 -0.28125,0 -0.492187,-0.12890625 0.246094,-0.0585938 0.46875,-0.26953125 0.46875,-0.5390625 0,-0.26953129 -0.222656,-0.35156249 -0.375,-0.35156249 -0.292969,0 -0.539063,0.25781249 -0.539063,0.57421874 0,0.45703125 0.492188,0.65625 0.9375,0.65625 0.65625,0 1.007813,-0.69140625 1.042969,-0.75 0.117188,0.36328125 0.480469,0.75 1.078125,0.75 1.019531,0 1.59375,-1.27734374 1.59375,-1.53515624 0,-0.09375 -0.09375,-0.09375 -0.128906,-0.09375 -0.08203,0 -0.105469,0.035156 -0.128906,0.1054687 -0.328125,1.06640629 -0.996094,1.31250004 -1.324219,1.31250004 -0.386719,0 -0.539063,-0.328125 -0.539063,-0.65625 0,-0.22265625 0.05859,-0.44531254 0.164063,-0.87890624 z m 0,0"
         style="fill:#4a90e2;fill-opacity:1;fill-rule:nonzero;stroke:none" />
    </g>
    <g
       id="g38"
       aria-label="g&#10;3&#10;路x"
       transform="matrix(1.3333333,0,0,1.3333333,313.512,107.03867)">
      <path
         id="path39"
         d="m 4.6872891,-3.7497031 c 0.011719,-0.070312 0.035156,-0.1171875 0.035156,-0.1875 0,-0.1640625 -0.1171875,-0.2695313 -0.2929687,-0.2695313 -0.09375,0 -0.3632813,0.070312 -0.4101563,0.4335938 -0.1757812,-0.375 -0.5273437,-0.6328125 -0.9257812,-0.6328125 -1.1367188,0 -2.36718754,1.3945312 -2.36718754,2.8359375 0,0.98437498 0.60937504,1.570312475 1.32421874,1.570312475 0.5859375,0 1.0546875,-0.468749995 1.1601563,-0.574218745 l 0.011719,0.0117188 c -0.2109375,0.87890625 -0.328125,1.2890625 -0.328125,1.3125 C 2.8474454,0.83232823 2.5076017,1.828422 1.4529142,1.828422 c -0.1875,0 -0.51562504,-0.011719 -0.79687504,-0.1054688 0.3046875,-0.09375 0.41015624,-0.3515625 0.41015624,-0.515625 0,-0.1640625 -0.10546874,-0.35156252 -0.37499999,-0.35156252 -0.22265625,0 -0.5390625,0.17578132 -0.5390625,0.57421882 0,0.4101562 0.36328125,0.609375 1.32421879,0.609375 1.2421875,0 1.9570312,-0.7734375 2.109375,-1.37109382 z m -1.2890625,2.4726562 c -0.058594,0.2578125 -0.2929688,0.51562503 -0.5039063,0.70312503 -0.2109375,0.17578125 -0.5273437,0.3515625 -0.8085937,0.3515625 -0.5039063,0 -0.65625,-0.515625 -0.65625,-0.91406253 0,-0.4804687 0.2929687,-1.6523437 0.5625,-2.15625 0.2695312,-0.4921875 0.703125,-0.890625 1.1132812,-0.890625 0.65625,0 0.796875,0.8085938 0.796875,0.8554688 0,0.046875 -0.011719,0.1054687 -0.023437,0.1523437 z m 0,0"
         style="fill:#4a90e2;fill-opacity:1;fill-rule:nonzero;stroke:none" />
      <path
         id="path40"
         d="m 6.6501797,-0.83759375 c 0.5507812,0 0.9375,0.375 0.9375,1.125 0,0.86718755 -0.5039063,1.12500005 -0.9023438,1.12500005 -0.28125,0 -0.890625,-0.082031 -1.1835937,-0.49218755 C 5.8298672,0.9085 5.9001797,0.674125 5.9001797,0.5335 c 0,-0.22265625 -0.1640625,-0.38671875 -0.3867188,-0.38671875 -0.1875,0 -0.3867187,0.1171875 -0.3867187,0.41015625 0,0.65625 0.7265625,1.078125 1.5703125,1.078125 0.9726562,0 1.640625,-0.64453125 1.640625,-1.34765625 0,-0.5390625 -0.4453125,-1.08984375 -1.21875,-1.2421875 0.7382812,-0.26953125 0.9960937,-0.79687495 0.9960937,-1.21874995 0,-0.5507813 -0.6328125,-0.9609375 -1.40625,-0.9609375 -0.7734375,0 -1.359375,0.375 -1.359375,0.9375 0,0.234375 0.1523438,0.3632812 0.3632813,0.3632812 0.2109375,0 0.3515625,-0.1640625 0.3515625,-0.3515625 0,-0.1992187 -0.140625,-0.3515625 -0.3515625,-0.3632812 0.234375,-0.3046875 0.7148437,-0.3867188 0.9726562,-0.3867188 0.3164063,0 0.7617188,0.1523438 0.7617188,0.7617188 0,0.2929687 -0.1054688,0.609375 -0.28125,0.8320312 -0.234375,0.2578125 -0.421875,0.28125 -0.7734375,0.2929688 -0.1757813,0.023437 -0.1875,0.023437 -0.2226563,0.023437 -0.011719,0 -0.070312,0.011719 -0.070312,0.0937499 0,0.09375 0.058594,0.09375 0.1757813,0.09375 z m 0,0"
         style="fill:#4a90e2;fill-opacity:1;fill-rule:nonzero;stroke:none" />
      <path
         id="path41"
         d="m 13.344516,-2.4957969 c 0,-0.28125 -0.234375,-0.5273437 -0.527344,-0.5273437 -0.28125,0 -0.527344,0.2460937 -0.527344,0.5273437 0,0.2929688 0.246094,0.5390625 0.527344,0.5390625 0.292969,0 0.527344,-0.2460937 0.527344,-0.5390625 z m 0,0"
         style="fill:#4a90e2;fill-opacity:1;fill-rule:nonzero;stroke:none" />
      <path
         id="path42"
         d="m 19.742953,-3.0114219 c 0.05859,-0.2578125 0.292969,-1.171875 0.984375,-1.171875 0.04687,0 0.292969,0 0.503906,0.1289063 -0.28125,0.046875 -0.480468,0.3046875 -0.480468,0.5390625 0,0.1640625 0.105468,0.3515625 0.375,0.3515625 0.222656,0 0.539062,-0.1875 0.539062,-0.5859375 0,-0.515625 -0.585937,-0.65625 -0.925781,-0.65625 -0.574219,0 -0.925781,0.5273437 -1.042969,0.7617187 -0.257812,-0.65625 -0.785156,-0.7617187 -1.078125,-0.7617187 -1.042969,0 -1.605469,1.2890625 -1.605469,1.5351562 0,0.1054688 0.105469,0.1054688 0.117188,0.1054688 0.08203,0 0.117187,-0.023437 0.128906,-0.1171875 0.339844,-1.0546875 0.996094,-1.3007813 1.335938,-1.3007813 0.1875,0 0.539062,0.09375 0.539062,0.6679688 0,0.3046875 -0.164062,0.9726562 -0.539062,2.3671875 -0.152344,0.62109373 -0.503907,1.04296873 -0.949219,1.04296873 -0.05859,0 -0.28125,0 -0.492188,-0.12890625 0.246094,-0.0585938 0.46875,-0.26953125 0.46875,-0.5390625 0,-0.26953128 -0.222656,-0.35156248 -0.375,-0.35156248 -0.292968,0 -0.539062,0.25781248 -0.539062,0.57421873 0,0.45703125 0.492187,0.65625 0.9375,0.65625 0.65625,0 1.007812,-0.69140625 1.042969,-0.75 0.117187,0.36328125 0.480468,0.75 1.078125,0.75 1.019531,0 1.59375,-1.27734373 1.59375,-1.53515623 0,-0.09375 -0.09375,-0.09375 -0.128907,-0.09375 -0.08203,0 -0.105468,0.035156 -0.128906,0.1054687 -0.328125,1.06640628 -0.996094,1.31250003 -1.324219,1.31250003 -0.386718,0 -0.539062,-0.328125 -0.539062,-0.65625 0,-0.22265625 0.05859,-0.44531253 0.164062,-0.87890623 z m 0,0"
         style="fill:#4a90e2;fill-opacity:1;fill-rule:nonzero;stroke:none" />
    </g>
    <g
       id="g42"
       aria-label="g&#10;4&#10;路x"
       transform="matrix(1.3333333,0,0,1.3333333,319.48933,147.88533)">
      <path
         id="path43"
         d="m 4.6867109,-3.7489609 c 0.011719,-0.070312 0.035156,-0.1171875 0.035156,-0.1875 0,-0.1640625 -0.1171875,-0.2695313 -0.2929688,-0.2695313 -0.09375,0 -0.3632812,0.070312 -0.4101562,0.4335938 -0.1757813,-0.375 -0.5273438,-0.6328125 -0.9257813,-0.6328125 -1.1367187,0 -2.36718746,1.3945312 -2.36718746,2.8359375 0,0.98437496 0.60937496,1.57031246 1.32421876,1.57031246 0.5859375,0 1.0546875,-0.46875 1.1601562,-0.57421875 l 0.011719,0.0117188 c -0.2109375,0.87890625 -0.328125,1.2890625 -0.328125,1.3125 -0.046875,0.0820313 -0.3867188,1.07812499 -1.4414063,1.07812499 -0.1875,0 -0.51562496,-0.011719 -0.79687496,-0.1054688 0.3046875,-0.09375 0.41015626,-0.3515625 0.41015626,-0.515625 0,-0.1640625 -0.10546876,-0.35156244 -0.37500001,-0.35156244 -0.22265625,0 -0.5390625,0.17578124 -0.5390625,0.57421874 0,0.4101563 0.36328125,0.6093751 1.32421871,0.6093751 1.2421875,0 1.9570313,-0.7734376 2.109375,-1.37109384 z m -1.2890625,2.4726562 c -0.058594,0.2578125 -0.2929687,0.51562501 -0.5039062,0.70312501 -0.2109375,0.17578125 -0.5273438,0.3515625 -0.8085938,0.3515625 -0.5039062,0 -0.65625,-0.515625 -0.65625,-0.91406251 0,-0.4804687 0.2929688,-1.6523437 0.5625,-2.15625 0.2695313,-0.4921875 0.703125,-0.890625 1.1132813,-0.890625 0.65625,0 0.796875,0.8085938 0.796875,0.8554688 0,0.046875 -0.011719,0.1054687 -0.023437,0.1523437 z m 0,0"
         style="fill:#4a90e2;fill-opacity:1;fill-rule:nonzero;stroke:none" />
      <path
         id="path44"
         d="M 8.4425703,0.34674219 V 0.10064844 H 7.6691328 V -3.0048203 c 0,-0.1523438 0,-0.1992188 -0.1523437,-0.1992188 -0.09375,0 -0.1171875,0 -0.1875,0.09375 L 5.0206953,0.10064844 v 0.24609375 h 2.0507813 v 0.57421875 c 0,0.23437496 0,0.32812496 -0.5625,0.32812496 h -0.1875 v 0.2460938 c 0.3515625,-0.011719 0.796875,-0.023437 1.0429687,-0.023437 0.2578125,0 0.703125,0.011719 1.0546875,0.023437 V 1.2490859 h -0.1875 c -0.5625,0 -0.5625,-0.09375 -0.5625,-0.32812496 V 0.34674219 Z M 7.1183516,-2.4540391 V 0.10064844 H 5.2785078 Z m 0,0"
         style="fill:#4a90e2;fill-opacity:1;fill-rule:nonzero;stroke:none" />
      <path
         id="path45"
         d="m 13.343938,-2.4950547 c 0,-0.28125 -0.234375,-0.5273437 -0.527344,-0.5273437 -0.28125,0 -0.527344,0.2460937 -0.527344,0.5273437 0,0.2929688 0.246094,0.5390625 0.527344,0.5390625 0.292969,0 0.527344,-0.2460937 0.527344,-0.5390625 z m 0,0"
         style="fill:#4a90e2;fill-opacity:1;fill-rule:nonzero;stroke:none" />
      <path
         id="path46"
         d="m 19.745305,-3.0106797 c 0.05859,-0.2578125 0.292968,-1.171875 0.984375,-1.171875 0.04687,0 0.292968,0 0.503906,0.1289063 -0.28125,0.046875 -0.480469,0.3046875 -0.480469,0.5390625 0,0.1640625 0.105469,0.3515625 0.375,0.3515625 0.222656,0 0.539063,-0.1875 0.539063,-0.5859375 0,-0.515625 -0.585938,-0.65625 -0.925782,-0.65625 -0.574218,0 -0.925781,0.5273437 -1.042968,0.7617187 -0.257813,-0.65625 -0.785157,-0.7617187 -1.078125,-0.7617187 -1.042969,0 -1.605469,1.2890625 -1.605469,1.5351562 0,0.1054688 0.105469,0.1054688 0.117187,0.1054688 0.08203,0 0.117188,-0.023437 0.128907,-0.1171875 0.339843,-1.0546875 0.996093,-1.3007813 1.335937,-1.3007813 0.1875,0 0.539063,0.09375 0.539063,0.6679688 0,0.3046875 -0.164063,0.9726562 -0.539063,2.3671875 -0.152344,0.62109371 -0.503906,1.04296871 -0.949219,1.04296871 -0.05859,0 -0.28125,0 -0.492187,-0.12890625 0.246094,-0.0585938 0.46875,-0.26953125 0.46875,-0.5390625 0,-0.26953126 -0.222656,-0.35156246 -0.375,-0.35156246 -0.292969,0 -0.539063,0.25781246 -0.539063,0.57421871 0,0.45703125 0.492188,0.65625 0.9375,0.65625 0.65625,0 1.007813,-0.69140625 1.042969,-0.75 0.117188,0.36328125 0.480469,0.75 1.078125,0.75 1.019531,0 1.59375,-1.27734371 1.59375,-1.53515621 0,-0.09375 -0.09375,-0.09375 -0.128906,-0.09375 -0.08203,0 -0.105469,0.035156 -0.128906,0.1054687 -0.328125,1.06640626 -0.996094,1.31250001 -1.324219,1.31250001 -0.386719,0 -0.539063,-0.328125 -0.539063,-0.65625 0,-0.22265625 0.05859,-0.44531251 0.164063,-0.87890621 z m 0,0"
         style="fill:#4a90e2;fill-opacity:1;fill-rule:nonzero;stroke:none" />
    </g>
    <g
       id="g46"
       aria-label="O&#10;x"
       transform="matrix(1.3333333,0,0,1.3333333,264.784,211.65067)">
      <path
         id="path47"
         d="m 7.7352422,-4.8034297 c 0,-1.265625 -0.5507813,-2.2148437 -1.7695313,-2.2148437 -1.03125,0 -1.9101562,0.8320312 -1.9804687,0.890625 -0.796875,0.7851562 -1.0898438,1.6875 -1.0898438,1.7109375 0,0.058594 0.046875,0.070312 0.09375,0.070312 0.1875,0 0.3515625,-0.1054688 0.5039063,-0.2109375 0.1757812,-0.1289063 0.1875,-0.1640625 0.2929687,-0.3867188 0.09375,-0.1992187 0.3164063,-0.6914062 0.6914063,-1.1132812 0.234375,-0.2695313 0.4335937,-0.421875 0.8320312,-0.421875 0.9726563,0 1.5820313,0.796875 1.5820313,2.109375 0,2.0273437 -1.4414063,4.04296871 -3.28125,4.04296871 -1.4179688,0 -2.1914063,-1.12500001 -2.1914063,-2.55468751 0,-1.3476562 0.6914063,-2.8476562 2.1445313,-3.703125 0.1054687,-0.058594 0.3984375,-0.234375 0.3984375,-0.3632812 0,-0.070312 -0.070312,-0.070312 -0.09375,-0.070312 -0.3515625,0 -3.30468751,1.5820312 -3.30468751,4.5703125 0,1.3945312 0.73828121,2.67187496 2.39062501,2.67187496 1.9335937,0 4.78125,-1.95703126 4.78125,-5.02734376 z m 0,0"
         style="fill:#4a90e2;fill-opacity:1;fill-rule:nonzero;stroke:none" />
      <path
         id="path48"
         d="m 9.6659063,0.75711719 c -0.070312,0.234375 -0.2929688,0.60937501 -0.65625,0.60937501 -0.023437,0 -0.2226563,0 -0.375,-0.09375 0.28125,-0.09375 0.3046875,-0.33984376 0.3046875,-0.38671876 0,-0.15234375 -0.1171875,-0.2578125 -0.28125,-0.2578125 -0.1875,0 -0.3867188,0.1640625 -0.3867188,0.43359376 0,0.3398437 0.3867188,0.5039062 0.7265625,0.5039062 0.3164063,0 0.609375,-0.1992187 0.7851563,-0.4921875 0.1640625,0.3632813 0.5507812,0.4921875 0.8203122,0.4921875 0.808594,0 1.230469,-0.86718746 1.230469,-1.06640621 0,-0.09375 -0.09375,-0.09375 -0.105469,-0.09375 -0.105468,0 -0.105468,0.0351563 -0.140625,0.1171875 -0.140625,0.48046871 -0.5625,0.84375001 -0.949218,0.84375001 -0.28125,0 -0.421875,-0.1875 -0.421875,-0.44531251 0,-0.1875 0.164062,-0.8203125 0.363281,-1.59375 0.128906,-0.53906249 0.445312,-0.71484379 0.679687,-0.71484379 0.01172,0 0.222657,0 0.375,0.1054688 -0.222656,0.058594 -0.304687,0.2578125 -0.304687,0.37499999 0,0.15234375 0.117187,0.2578125 0.28125,0.2578125 0.152344,0 0.386719,-0.12890625 0.386719,-0.42187499 0,-0.3867188 -0.445313,-0.5039063 -0.726563,-0.5039063 -0.351562,0 -0.632812,0.2226563 -0.785156,0.4921875 -0.117188,-0.2929687 -0.445313,-0.4921875 -0.8320315,-0.4921875 -0.7851562,0 -1.2304687,0.85546879 -1.2304687,1.06640629 0,0.0820313 0.1054687,0.0820313 0.1171875,0.0820313 0.09375,0 0.1054687,-0.0234375 0.140625,-0.1171875 C 8.8573125,-1.0827265 9.2909063,-1.387414 9.63075,-1.387414 c 0.234375,0 0.421875,0.1289063 0.421875,0.46874999 0,0.12890625 -0.082031,0.48046875 -0.1523437,0.71484375 z m 0,0"
         style="fill:#4a90e2;fill-opacity:1;fill-rule:nonzero;stroke:none" />
    </g>
  </g>
</svg>
