<?xml version="1.0" encoding="UTF-8" standalone="no"?>
<!-- Created with Inkscape (http://www.inkscape.org/) -->

<svg
   version="1.1"
   id="svg1"
   width="346.53333"
   height="94.919998"
   viewBox="0 0 346.53333 94.919998"
   sodipodi:docname="rotation-in-real-space.pdf"
   xmlns:inkscape="http://www.inkscape.org/namespaces/inkscape"
   xmlns:sodipodi="http://sodipodi.sourceforge.net/DTD/sodipodi-0.dtd"
   xmlns="http://www.w3.org/2000/svg"
   xmlns:svg="http://www.w3.org/2000/svg">
  <defs
     id="defs1" />
  <sodipodi:namedview
     id="namedview1"
     pagecolor="#ffffff"
     bordercolor="#000000"
     borderopacity="0.25"
     inkscape:showpageshadow="2"
     inkscape:pageopacity="0.0"
     inkscape:pagecheckerboard="0"
     inkscape:deskcolor="#d1d1d1">
    <inkscape:page
       x="0"
       y="0"
       inkscape:label="1"
       id="page1"
       width="346.53333"
       height="94.919998"
       margin="0"
       bleed="0" />
  </sodipodi:namedview>
  <g
     id="g1"
     inkscape:groupmode="layer"
     inkscape:label="1">
    <path
       id="path1"
       d="m 47.5969,-115.59251 h 71.08155"
       style="fill:none;stroke:#bd10e0;stroke-width:1.49442;stroke-linecap:butt;stroke-linejoin:miter;stroke-miterlimit:10;stroke-dasharray:5.60904, 4.48325;stroke-dashoffset:0;stroke-opacity:1"
       transform="matrix(1.3333333,0,0,-1.3333333,-55.057333,-63.182667)" />
    <path
       id="path2"
       d="m 112.81516,-117.83112 c 2.70413,1.28669 5.18334,2.03462 7.43241,2.23861 -2.24907,0.20399 -4.72828,0.95193 -7.43241,2.23861"
       style="fill:none;stroke:#bd10e0;stroke-width:1.49442;stroke-linecap:butt;stroke-linejoin:miter;stroke-miterlimit:10;stroke-dasharray:none;stroke-opacity:1"
       transform="matrix(1.3333333,0,0,-1.3333333,-55.057333,-63.182667)" />
    <path
       id="path3"
       d="m 47.5969,-115.59251 v 65.88775"
       style="fill:none;stroke:#bd10e0;stroke-width:1.49442;stroke-linecap:butt;stroke-linejoin:miter;stroke-miterlimit:10;stroke-dasharray:5.60904, 4.48325;stroke-dashoffset:0;stroke-opacity:1"
       transform="matrix(1.3333333,0,0,-1.3333333,-55.057333,-63.182667)" />
    <path
       id="path4"
       d="m 49.83551,-55.56805 c -1.28668,2.70415 -2.03464,5.18335 -2.23861,7.43241 -0.20399,-2.24906 -0.95193,-4.72826 -2.23861,-7.43241"
       style="fill:none;stroke:#bd10e0;stroke-width:1.49442;stroke-linecap:butt;stroke-linejoin:miter;stroke-miterlimit:10;stroke-dasharray:none;stroke-opacity:1"
       transform="matrix(1.3333333,0,0,-1.3333333,-55.057333,-63.182667)" />
    <path
       id="path5"
       d="m 47.5969,-115.59251 53.17255,38.50644"
       style="fill:none;stroke:#000000;stroke-width:1.49442;stroke-linecap:butt;stroke-linejoin:miter;stroke-miterlimit:10;stroke-dasharray:none;stroke-opacity:1"
       transform="matrix(1.3333333,0,0,-1.3333333,-55.057333,-63.182667)" />
    <path
       id="path6"
       d="m 98.76003,-82.69131 3.70408,6.83439 -7.65204,-1.38241 3.88181,-1.34772 z"
       style="fill:#000000;fill-opacity:1;fill-rule:nonzero;stroke:#000000;stroke-width:0.0797;stroke-linecap:butt;stroke-linejoin:miter;stroke-miterlimit:10;stroke-dasharray:none;stroke-opacity:0"
       transform="matrix(1.3333333,0,0,-1.3333333,-55.057333,-63.182667)" />
    <path
       id="path7"
       d="m 166.54211,-115.5716 63.84787,31.23615"
       style="fill:none;stroke:#bd10e0;stroke-width:1.49442;stroke-linecap:butt;stroke-linejoin:miter;stroke-miterlimit:10;stroke-dasharray:5.60904, 4.48325;stroke-dashoffset:0;stroke-opacity:1"
       transform="matrix(1.3333333,0,0,-1.3333333,-55.057333,-63.182667)" />
    <path
       id="path8"
       d="m 226.10994,-88.92183 c 1.86351,2.34399 3.76173,4.10529 5.69226,5.27681 -2.10979,-0.8051 -4.66537,-1.2227 -7.6597,-1.25528"
       style="fill:none;stroke:#bd10e0;stroke-width:1.49442;stroke-linecap:butt;stroke-linejoin:miter;stroke-miterlimit:10;stroke-dasharray:none;stroke-opacity:1"
       transform="matrix(1.3333333,0,0,-1.3333333,-55.057333,-63.182667)" />
    <path
       id="path9"
       d="m 166.54211,-115.5716 -28.95565,59.18235"
       style="fill:none;stroke:#bd10e0;stroke-width:1.49442;stroke-linecap:butt;stroke-linejoin:miter;stroke-miterlimit:10;stroke-dasharray:5.60904, 4.48325;stroke-dashoffset:0;stroke-opacity:1"
       transform="matrix(1.3333333,0,0,-1.3333333,-55.057333,-63.182667)" />
    <path
       id="path10"
       d="m 142.17287,-60.6693 c -2.34401,1.86351 -4.1053,3.76174 -5.27683,5.69226 0.8051,-2.10978 1.22272,-4.66537 1.2553,-7.65969"
       style="fill:none;stroke:#bd10e0;stroke-width:1.49442;stroke-linecap:butt;stroke-linejoin:miter;stroke-miterlimit:10;stroke-dasharray:none;stroke-opacity:1"
       transform="matrix(1.3333333,0,0,-1.3333333,-55.057333,-63.182667)" />
    <path
       id="path11"
       d="m 166.54211,-115.5716 30.83864,57.95844"
       style="fill:none;stroke:#000000;stroke-width:1.49442;stroke-linecap:butt;stroke-linejoin:miter;stroke-miterlimit:10;stroke-dasharray:none;stroke-opacity:1"
       transform="matrix(1.3333333,0,0,-1.3333333,-55.057333,-63.182667)" />
    <path
       id="path12"
       d="m 198.04048,-63.53365 0.32359,7.7668 -6.26583,-4.60464 4.0791,0.49541 z"
       style="fill:#000000;fill-opacity:1;fill-rule:nonzero;stroke:#000000;stroke-width:0.0797;stroke-linecap:butt;stroke-linejoin:miter;stroke-miterlimit:10;stroke-dasharray:none;stroke-opacity:0"
       transform="matrix(1.3333333,0,0,-1.3333333,-55.057333,-63.182667)" />
    <g
       id="g12"
       aria-label="x&#10;a&#10;e&#10;a"
       transform="matrix(1.3333333,0,0,1.3333333,84.450667,47.545333)">
      <path
         id="path13"
         d="m 3.3270391,-3.0105625 c 0.058594,-0.2578125 0.2929687,-1.171875 0.984375,-1.171875 0.046875,0 0.2929687,0 0.5039062,0.1289062 -0.28125,0.046875 -0.4804687,0.3046875 -0.4804687,0.5390625 0,0.1640625 0.1054687,0.3515625 0.375,0.3515625 0.2226562,0 0.5390625,-0.1875 0.5390625,-0.5859375 0,-0.515625 -0.5859375,-0.65625 -0.9257813,-0.65625 -0.5742187,0 -0.9257812,0.5273438 -1.0429687,0.7617188 -0.2578125,-0.65625 -0.7851563,-0.7617188 -1.078125,-0.7617188 -1.0429688,0 -1.60546879,1.2890625 -1.60546879,1.5351563 0,0.1054687 0.10546875,0.1054687 0.1171875,0.1054687 0.0820313,0 0.1171875,-0.023437 0.12890625,-0.1171875 0.33984374,-1.0546875 0.99609374,-1.3007812 1.33593754,-1.3007812 0.1875,0 0.5390625,0.09375 0.5390625,0.6679687 0,0.3046875 -0.1640625,0.9726563 -0.5390625,2.3671875 -0.1523438,0.6210938 -0.5039063,1.0429688 -0.9492188,1.0429688 -0.058594,0 -0.28124999,0 -0.49218749,-0.12890625 0.24609375,-0.0585937 0.46874999,-0.26953125 0.46874999,-0.5390625 0,-0.26953125 -0.22265624,-0.35156255 -0.37499999,-0.35156255 -0.29296875,0 -0.5390625,0.25781255 -0.5390625,0.5742188 0,0.45703125 0.4921875,0.65625 0.93749999,0.65625 0.65625,0 1.0078125,-0.69140625 1.0429688,-0.75 0.1171875,0.36328125 0.4804687,0.75 1.078125,0.75 1.0195312,0 1.59375,-1.2773438 1.59375,-1.5351563 0,-0.09375 -0.09375,-0.09375 -0.1289063,-0.09375 -0.082031,0 -0.1054687,0.035156 -0.1289062,0.1054688 -0.328125,1.06640625 -0.9960938,1.3125 -1.3242188,1.3125 -0.3867187,0 -0.5390625,-0.328125 -0.5390625,-0.65625 0,-0.22265625 0.058594,-0.4453125 0.1640625,-0.8789063 z m 0,0"
         style="fill:#000000;fill-opacity:1;fill-rule:nonzero;stroke:none" />
      <path
         id="path14"
         d="m 8.6356328,-1.1648594 c -0.140625,-0.234375 -0.3867187,-0.4101562 -0.7148437,-0.4101562 -0.890625,0 -1.8046875,0.97265622 -1.8046875,1.98046872 0,0.67968748 0.4570312,1.16015628 1.0546875,1.16015628 0.375,0 0.7148437,-0.2109375 0.9960937,-0.4921875 0.1289063,0.421875 0.5273438,0.4921875 0.7148438,0.4921875 0.2460937,0 0.421875,-0.1523438 0.5507812,-0.375 0.1523438,-0.26953128 0.2460938,-0.66796878 0.2460938,-0.69140628 0,-0.09375 -0.09375,-0.09375 -0.1171875,-0.09375 -0.09375,0 -0.1054688,0.0351563 -0.1523438,0.22265625 -0.082031,0.328125 -0.2109375,0.73828123 -0.5039062,0.73828123 -0.1875,0 -0.234375,-0.1523437 -0.234375,-0.3398437 0,-0.11718753 0.058594,-0.36328128 0.1054687,-0.55078128 0.046875,-0.1875 0.1171875,-0.46875 0.1523438,-0.62109375 l 0.140625,-0.5390625 c 0.046875,-0.17578125 0.1289062,-0.50390627 0.1289062,-0.53906247 0,-0.1523438 -0.1289062,-0.2226563 -0.2460937,-0.2226563 -0.1171875,0 -0.2695313,0.082031 -0.3164063,0.28125 z M 8.1903203,0.62810937 c -0.046875,0.1875 -0.1992187,0.328125 -0.3515625,0.45703123 -0.070312,0.058594 -0.3398437,0.28125 -0.6445312,0.28125 -0.2578125,0 -0.515625,-0.1757812 -0.515625,-0.66796873 0,-0.375 0.2109375,-1.13671875 0.3632812,-1.41796875 0.328125,-0.56250002 0.6796875,-0.66796872 0.8789063,-0.66796872 0.4804687,0 0.6210937,0.52734372 0.6210937,0.60937497 0,0.0234375 -0.011719,0.0820313 -0.023437,0.09375 z m 0,0"
         style="fill:#000000;fill-opacity:1;fill-rule:nonzero;stroke:none" />
      <path
         id="path15"
         d="m 12.376844,-2.2957188 c 0.292969,0 1.03125,-0.023437 1.523437,-0.234375 0.703125,-0.2929687 0.75,-0.890625 0.75,-1.0195312 0,-0.4453125 -0.386718,-0.8554688 -1.066406,-0.8554688 -1.113281,0 -2.613281,0.9726563 -2.613281,2.7070313 0,1.01953125 0.585937,1.8046875 1.570312,1.8046875 1.417969,0 2.261719,-1.0546875 2.261719,-1.171875 0,-0.058594 -0.07031,-0.1289063 -0.128906,-0.1289063 -0.04687,0 -0.07031,0.023437 -0.128906,0.09375 -0.785157,0.9960938 -1.875,0.9960938 -1.992188,0.9960938 -0.773437,0 -0.867187,-0.84375 -0.867187,-1.1601563 0,-0.1171875 0.01172,-0.4335937 0.164062,-1.03125 z m -0.46875,-0.2226562 c 0.386719,-1.5117188 1.417969,-1.6640625 1.675781,-1.6640625 0.46875,0 0.738281,0.2929687 0.738281,0.6328125 0,1.03125 -1.59375,1.03125 -2.003906,1.03125 z m 0,0"
         style="fill:#000000;fill-opacity:1;fill-rule:nonzero;stroke:none" />
      <path
         id="path16"
         d="m 18.092664,-1.1648594 c -0.140625,-0.234375 -0.386719,-0.4101562 -0.714844,-0.4101562 -0.890625,0 -1.804687,0.97265622 -1.804687,1.98046872 0,0.67968748 0.457031,1.16015628 1.054687,1.16015628 0.375,0 0.714844,-0.2109375 0.996094,-0.4921875 0.128906,0.421875 0.527344,0.4921875 0.714844,0.4921875 0.246094,0 0.421875,-0.1523438 0.550781,-0.375 0.152344,-0.26953128 0.246094,-0.66796878 0.246094,-0.69140628 0,-0.09375 -0.09375,-0.09375 -0.117188,-0.09375 -0.09375,0 -0.105468,0.0351563 -0.152343,0.22265625 -0.08203,0.328125 -0.210938,0.73828123 -0.503907,0.73828123 -0.1875,0 -0.234375,-0.1523437 -0.234375,-0.3398437 0,-0.11718753 0.05859,-0.36328128 0.105469,-0.55078128 0.04687,-0.1875 0.117188,-0.46875 0.152344,-0.62109375 l 0.140625,-0.5390625 c 0.04687,-0.17578125 0.128906,-0.50390627 0.128906,-0.53906247 0,-0.1523438 -0.128906,-0.2226563 -0.246094,-0.2226563 -0.117187,0 -0.269531,0.082031 -0.316406,0.28125 z m -0.445312,1.79296877 c -0.04687,0.1875 -0.199219,0.328125 -0.351563,0.45703123 -0.07031,0.058594 -0.339844,0.28125 -0.644531,0.28125 -0.257813,0 -0.515625,-0.1757812 -0.515625,-0.66796873 0,-0.375 0.210937,-1.13671875 0.363281,-1.41796875 0.328125,-0.56250002 0.679688,-0.66796872 0.878906,-0.66796872 0.480469,0 0.621094,0.52734372 0.621094,0.60937497 0,0.0234375 -0.01172,0.0820313 -0.02344,0.09375 z m 0,0"
         style="fill:#000000;fill-opacity:1;fill-rule:nonzero;stroke:none" />
    </g>
    <g
       id="g16"
       aria-label="x&#10;′&#10;a&#10;e&#10;a&#10;=R&#10;ab&#10;x&#10;b&#10;e&#10;a&#10;=x&#10;b&#10;e&#10;′&#10;b"
       transform="matrix(1.3333333,0,0,1.3333333,212.31733,25.025333)">
      <path
         id="path17"
         d="m 3.3274297,-3.0131406 c 0.058594,-0.2578125 0.2929687,-1.171875 0.984375,-1.171875 0.046875,0 0.2929687,0 0.5039062,0.1289062 -0.28125,0.046875 -0.4804687,0.3046875 -0.4804687,0.5390625 0,0.1640625 0.1054687,0.3515625 0.375,0.3515625 0.2226562,0 0.5390625,-0.1875 0.5390625,-0.5859375 0,-0.515625 -0.5859375,-0.65625 -0.9257813,-0.65625 -0.5742187,0 -0.9257812,0.5273438 -1.0429687,0.7617188 -0.2578125,-0.65625 -0.7851563,-0.7617188 -1.078125,-0.7617188 -1.0429688,0 -1.60546876,1.2890625 -1.60546876,1.5351563 0,0.1054687 0.10546875,0.1054687 0.1171875,0.1054687 0.0820313,0 0.1171875,-0.023437 0.12890625,-0.1171875 0.33984371,-1.0546875 0.99609371,-1.3007812 1.33593751,-1.3007812 0.1875,0 0.5390625,0.09375 0.5390625,0.6679687 0,0.3046875 -0.1640625,0.9726563 -0.5390625,2.3671875 -0.1523438,0.62109378 -0.5039063,1.04296878 -0.9492188,1.04296878 -0.058594,0 -0.28124996,0 -0.49218746,-0.12890625 0.24609375,-0.0585938 0.46874996,-0.26953125 0.46874996,-0.5390625 0,-0.26953123 -0.22265621,-0.35156253 -0.37499996,-0.35156253 -0.29296875,0 -0.5390625,0.25781253 -0.5390625,0.57421878 0,0.45703125 0.4921875,0.65625 0.93749996,0.65625 0.65625,0 1.0078125,-0.69140625 1.0429688,-0.75 0.1171875,0.36328125 0.4804687,0.75 1.078125,0.75 1.0195312,0 1.59375,-1.27734378 1.59375,-1.53515628 0,-0.09375 -0.09375,-0.09375 -0.1289063,-0.09375 -0.082031,0 -0.1054687,0.035156 -0.1289062,0.1054688 -0.328125,1.06640623 -0.9960938,1.31249998 -1.3242188,1.31249998 -0.3867187,0 -0.5390625,-0.328125 -0.5390625,-0.65625 0,-0.22265625 0.058594,-0.44531248 0.1640625,-0.87890628 z m 0,0"
         style="fill:#000000;fill-opacity:1;fill-rule:nonzero;stroke:none" />
      <path
         id="path18"
         d="m 7.7219609,-6.9066953 c 0.046875,-0.1171875 0.058594,-0.1757813 0.058594,-0.2226563 0,-0.2109375 -0.1992188,-0.3867187 -0.4101563,-0.3867187 -0.2695312,0 -0.3515625,0.2226562 -0.3867187,0.328125 l -0.9140625,3.0234375 c -0.011719,0.011719 -0.035156,0.1054687 -0.035156,0.1171875 0,0.082031 0.2109375,0.1523437 0.2695313,0.1523437 0.046875,0 0.058594,-0.023437 0.1054687,-0.1289062 z m 0,0"
         style="fill:#000000;fill-opacity:1;fill-rule:nonzero;stroke:none" />
      <path
         id="path19"
         d="m 8.6360234,-0.19771094 c -0.140625,-0.234375 -0.3867187,-0.41015625 -0.7148437,-0.41015625 -0.890625,0 -1.8046875,0.97265625 -1.8046875,1.98046879 0,0.6796875 0.4570312,1.1601562 1.0546875,1.1601562 0.375,0 0.7148437,-0.2109375 0.9960937,-0.4921875 0.1289063,0.421875 0.5273438,0.4921875 0.7148438,0.4921875 0.2460937,0 0.421875,-0.1523437 0.5507812,-0.375 0.1523438,-0.2695312 0.2460938,-0.6679687 0.2460938,-0.6914062 0,-0.09375 -0.09375,-0.09375 -0.1171875,-0.09375 -0.09375,0 -0.1054688,0.035156 -0.1523438,0.2226562 -0.082031,0.328125 -0.2109375,0.7382813 -0.5039062,0.7382813 -0.1875,0 -0.234375,-0.1523438 -0.234375,-0.3398438 0,-0.1171875 0.058594,-0.3632812 0.1054687,-0.5507812 0.046875,-0.1875 0.1171875,-0.46875004 0.1523438,-0.62109379 l 0.140625,-0.5390625 c 0.046875,-0.17578125 0.1289062,-0.50390625 0.1289062,-0.5390625 0,-0.15234375 -0.1289062,-0.22265625 -0.2460937,-0.22265625 -0.1171875,0 -0.2695313,0.0820313 -0.3164063,0.28125 z M 8.1907109,1.5952578 c -0.046875,0.1875 -0.1992187,0.328125 -0.3515625,0.4570313 -0.070312,0.058594 -0.3398437,0.28125 -0.6445312,0.28125 -0.2578125,0 -0.515625,-0.1757813 -0.515625,-0.6679688 0,-0.375 0.2109375,-1.13671874 0.3632812,-1.41796874 0.328125,-0.5625 0.6796875,-0.66796875 0.8789063,-0.66796875 0.4804687,0 0.6210937,0.52734375 0.6210937,0.609375 0,0.0234375 -0.011719,0.0820313 -0.023437,0.09375 z m 0,0"
         style="fill:#000000;fill-opacity:1;fill-rule:nonzero;stroke:none" />
      <path
         id="path20"
         d="m 12.377234,-2.2982969 c 0.292969,0 1.03125,-0.023437 1.523438,-0.234375 0.703125,-0.2929687 0.75,-0.890625 0.75,-1.0195312 0,-0.4453125 -0.386719,-0.8554688 -1.066406,-0.8554688 -1.113282,0 -2.613282,0.9726563 -2.613282,2.7070313 0,1.01953123 0.585938,1.80468748 1.570313,1.80468748 1.417969,0 2.261719,-1.0546875 2.261719,-1.17187498 0,-0.058594 -0.07031,-0.1289063 -0.128907,-0.1289063 -0.04687,0 -0.07031,0.023437 -0.128906,0.09375 -0.785156,0.99609378 -1.875,0.99609378 -1.992187,0.99609378 -0.773438,0 -0.867188,-0.84375 -0.867188,-1.16015628 0,-0.1171875 0.01172,-0.4335937 0.164063,-1.03125 z m -0.46875,-0.2226562 c 0.386719,-1.5117188 1.417969,-1.6640625 1.675782,-1.6640625 0.46875,0 0.738281,0.2929687 0.738281,0.6328125 0,1.03125 -1.59375,1.03125 -2.003906,1.03125 z m 0,0"
         style="fill:#000000;fill-opacity:1;fill-rule:nonzero;stroke:none" />
      <path
         id="path21"
         d="m 18.093055,-1.1645078 c -0.140625,-0.234375 -0.386719,-0.4101563 -0.714844,-0.4101563 -0.890625,0 -1.804688,0.97265629 -1.804688,1.98046879 0,0.67968751 0.457032,1.16015621 1.054688,1.16015621 0.375,0 0.714844,-0.2109375 0.996094,-0.4921875 0.128906,0.421875 0.527343,0.4921875 0.714843,0.4921875 0.246094,0 0.421875,-0.1523437 0.550782,-0.375 0.152343,-0.26953121 0.246093,-0.66796871 0.246093,-0.69140621 0,-0.09375 -0.09375,-0.09375 -0.117187,-0.09375 -0.09375,0 -0.105469,0.0351563 -0.152344,0.22265625 -0.08203,0.328125 -0.210937,0.73828126 -0.503906,0.73828126 -0.1875,0 -0.234375,-0.1523438 -0.234375,-0.3398438 0,-0.11718746 0.05859,-0.36328121 0.105469,-0.55078121 0.04687,-0.1875 0.117187,-0.46875 0.152343,-0.62109375 l 0.140625,-0.5390625 c 0.04687,-0.17578125 0.128907,-0.50390624 0.128907,-0.53906254 0,-0.1523437 -0.128907,-0.2226562 -0.246094,-0.2226562 -0.117188,0 -0.269531,0.082031 -0.316406,0.28125 z m -0.445313,1.79296874 c -0.04687,0.1875 -0.199219,0.328125 -0.351562,0.45703126 -0.07031,0.058594 -0.339844,0.28125 -0.644532,0.28125 -0.257812,0 -0.515625,-0.1757813 -0.515625,-0.66796876 0,-0.375 0.210938,-1.13671875 0.363282,-1.41796875 0.328125,-0.56249999 0.679687,-0.66796879 0.878906,-0.66796879 0.480469,0 0.621094,0.52734379 0.621094,0.60937504 0,0.0234375 -0.01172,0.0820313 -0.02344,0.09375 z m 0,0"
         style="fill:#000000;fill-opacity:1;fill-rule:nonzero;stroke:none" />
      <path
         id="path22"
         d="m 29.583289,-3.2592344 c 0.152344,0 0.339844,0 0.339844,-0.1992187 0,-0.1992188 -0.1875,-0.1992188 -0.328125,-0.1992188 h -5.964844 c -0.140625,0 -0.328125,0 -0.328125,0.1992188 0,0.1992187 0.1875,0.1992187 0.339844,0.1992187 z m 0.01172,1.9335938 c 0.140625,0 0.328125,0 0.328125,-0.1992188 0,-0.1992187 -0.1875,-0.1992187 -0.339844,-0.1992187 h -5.941406 c -0.152344,0 -0.339844,0 -0.339844,0.1992187 0,0.1992188 0.1875,0.1992188 0.328125,0.1992188 z m 0,0"
         style="fill:#000000;fill-opacity:1;fill-rule:nonzero;stroke:none" />
      <path
         id="path23"
         d="m 36.992469,-6.1186094 c 0.05859,-0.234375 0.08203,-0.3398437 0.28125,-0.3632812 0.08203,-0.011719 0.398437,-0.011719 0.597656,-0.011719 0.714844,0 1.816406,0 1.816406,0.984375 0,0.3398438 -0.152344,1.0195313 -0.550781,1.4179688 -0.257813,0.2578125 -0.785156,0.5742187 -1.675781,0.5742187 h -1.113282 z m 1.429687,2.7304688 c 1.007813,-0.2226563 2.191406,-0.9140625 2.191406,-1.921875 0,-0.8554688 -0.890625,-1.5 -2.203125,-1.5 H 35.5745 c -0.199219,0 -0.292969,0 -0.292969,0.1992187 0,0.1171875 0.09375,0.1171875 0.28125,0.1171875 0.02344,0 0.210938,0 0.386719,0.011719 0.175781,0.023437 0.257812,0.035156 0.257812,0.1640625 0,0.035156 0,0.070312 -0.03516,0.1875 l -1.335937,5.35546873 c -0.09375,0.38671875 -0.117188,0.46875 -0.902344,0.46875 -0.175781,0 -0.269531,0 -0.269531,0.19921875 0,0.10546875 0.117187,0.10546875 0.140625,0.10546875 0.28125,0 0.972656,-0.03515625 1.253906,-0.03515625 0.28125,0 0.984375,0.03515625 1.265625,0.03515625 0.08203,0 0.199219,0 0.199219,-0.19921875 0,-0.10546875 -0.09375,-0.10546875 -0.28125,-0.10546875 -0.363282,0 -0.644532,0 -0.644532,-0.1875 0,-0.0585938 0.01172,-0.10546875 0.02344,-0.1640625 l 0.65625,-2.63671873 h 1.195312 c 0.902344,0 1.078125,0.5507812 1.078125,0.9023437 0,0.1523438 -0.08203,0.4570313 -0.140625,0.6914063 -0.07031,0.2695312 -0.152343,0.6445312 -0.152343,0.84374998 0,1.078125 1.195312,1.078125 1.324218,1.078125 0.84375,0 1.195313,-1.0078125 1.195313,-1.1484375 0,-0.11718748 -0.117188,-0.11718748 -0.117188,-0.11718748 -0.09375,0 -0.117187,0.0703125 -0.128906,0.14062498 -0.257812,0.73828125 -0.679687,0.90234375 -0.914062,0.90234375 -0.328125,0 -0.398438,-0.22265625 -0.398438,-0.609375 0,-0.3046875 0.05859,-0.82031253 0.105469,-1.13671873 0.01172,-0.140625 0.03516,-0.328125 0.03516,-0.46875 0,-0.7617188 -0.667969,-1.078125 -0.9375,-1.171875 z m 0,0"
         style="fill:#000000;fill-opacity:1;fill-rule:nonzero;stroke:none" />
      <path
         id="path24"
         d="m 43.760047,-1.1645078 c -0.140625,-0.234375 -0.386719,-0.4101563 -0.714844,-0.4101563 -0.890625,0 -1.804687,0.97265629 -1.804687,1.98046879 0,0.67968751 0.457031,1.16015621 1.054687,1.16015621 0.375,0 0.714844,-0.2109375 0.996094,-0.4921875 0.128906,0.421875 0.527344,0.4921875 0.714844,0.4921875 0.246093,0 0.421875,-0.1523437 0.550781,-0.375 0.152344,-0.26953121 0.246094,-0.66796871 0.246094,-0.69140621 0,-0.09375 -0.09375,-0.09375 -0.117188,-0.09375 -0.09375,0 -0.105469,0.0351563 -0.152344,0.22265625 -0.08203,0.328125 -0.210937,0.73828126 -0.503906,0.73828126 -0.1875,0 -0.234375,-0.1523438 -0.234375,-0.3398438 0,-0.11718746 0.05859,-0.36328121 0.105469,-0.55078121 0.04687,-0.1875 0.117187,-0.46875 0.152344,-0.62109375 l 0.140625,-0.5390625 c 0.04687,-0.17578125 0.128906,-0.50390624 0.128906,-0.53906254 0,-0.1523437 -0.128906,-0.2226562 -0.246094,-0.2226562 -0.117187,0 -0.269531,0.082031 -0.316406,0.28125 z m -0.445313,1.79296874 c -0.04687,0.1875 -0.199218,0.328125 -0.351562,0.45703126 -0.07031,0.058594 -0.339844,0.28125 -0.644531,0.28125 -0.257813,0 -0.515625,-0.1757813 -0.515625,-0.66796876 0,-0.375 0.210937,-1.13671875 0.363281,-1.41796875 0.328125,-0.56249999 0.679687,-0.66796879 0.878906,-0.66796879 0.480469,0 0.621094,0.52734379 0.621094,0.60937504 0,0.0234375 -0.01172,0.0820313 -0.02344,0.09375 z m 3.66211,-3.76171874 c 0.01172,-0.011719 0.02344,-0.1054688 0.02344,-0.1171875 0,-0.035156 -0.02344,-0.09375 -0.105469,-0.09375 -0.140625,0 -0.714843,0.058594 -0.890625,0.070312 -0.05859,0.011719 -0.152343,0.011719 -0.152343,0.1640625 0,0.09375 0.09375,0.09375 0.175781,0.09375 0.339844,0 0.339844,0.046875 0.339844,0.1054687 0,0.046875 -0.07031,0.328125 -0.117188,0.4921875 l -0.152344,0.6328125 c -0.07031,0.2460938 -0.457031,1.76953129 -0.46875,1.86328129 -0.03516,0.1640625 -0.03516,0.2578125 -0.03516,0.33984375 0,0.70312496 0.445313,1.14843746 1.03125,1.14843746 0.867188,0 1.792969,-0.94921871 1.792969,-1.98046871 0,-0.82031249 -0.5625,-1.16015629 -1.042969,-1.16015629 -0.363281,0 -0.667969,0.1992188 -0.878906,0.375 z m -0.351563,4.5 c -0.339844,0 -0.527344,-0.2929688 -0.527344,-0.70312501 0,-0.2578125 0.05859,-0.50390625 0.257813,-1.2890625 0.03516,-0.12890625 0.03516,-0.140625 0.164062,-0.29296875 0.269532,-0.31640624 0.585938,-0.46875004 0.832032,-0.46875004 0.269531,0 0.515625,0.2109375 0.515625,0.67968754 0,0.28125 -0.152344,0.99609375 -0.363282,1.40625 C 47.328406,1.0386172 46.988562,1.3667422 46.625281,1.3667422 Z m 0,0"
         style="fill:#000000;fill-opacity:1;fill-rule:nonzero;stroke:none" />
      <path
         id="path25"
         d="m 52.470008,-3.0131406 c 0.05859,-0.2578125 0.292969,-1.171875 0.984375,-1.171875 0.04687,0 0.292969,0 0.503906,0.1289062 -0.28125,0.046875 -0.480469,0.3046875 -0.480469,0.5390625 0,0.1640625 0.105469,0.3515625 0.375,0.3515625 0.222657,0 0.539063,-0.1875 0.539063,-0.5859375 0,-0.515625 -0.585938,-0.65625 -0.925781,-0.65625 -0.574219,0 -0.925782,0.5273438 -1.042969,0.7617188 -0.257813,-0.65625 -0.785156,-0.7617188 -1.078125,-0.7617188 -1.042969,0 -1.605469,1.2890625 -1.605469,1.5351563 0,0.1054687 0.105469,0.1054687 0.117188,0.1054687 0.08203,0 0.117187,-0.023437 0.128906,-0.1171875 0.339844,-1.0546875 0.996094,-1.3007812 1.335937,-1.3007812 0.1875,0 0.539063,0.09375 0.539063,0.6679687 0,0.3046875 -0.164063,0.9726563 -0.539063,2.3671875 -0.152343,0.62109378 -0.503906,1.04296878 -0.949218,1.04296878 -0.05859,0 -0.28125,0 -0.492188,-0.12890625 0.246094,-0.0585938 0.46875,-0.26953125 0.46875,-0.5390625 0,-0.26953123 -0.222656,-0.35156253 -0.375,-0.35156253 -0.292969,0 -0.539062,0.25781253 -0.539062,0.57421878 0,0.45703125 0.492187,0.65625 0.9375,0.65625 0.65625,0 1.007812,-0.69140625 1.042968,-0.75 0.117188,0.36328125 0.480469,0.75 1.078125,0.75 1.019532,0 1.59375,-1.27734378 1.59375,-1.53515628 0,-0.09375 -0.09375,-0.09375 -0.128906,-0.09375 -0.08203,0 -0.105469,0.035156 -0.128906,0.1054688 -0.328125,1.06640623 -0.996094,1.31249998 -1.324219,1.31249998 -0.386719,0 -0.539062,-0.328125 -0.539062,-0.65625 0,-0.22265625 0.05859,-0.44531248 0.164062,-0.87890628 z m 0,0"
         style="fill:#000000;fill-opacity:1;fill-rule:nonzero;stroke:none" />
      <path
         id="path26"
         d="m 56.677039,-3.1332578 c 0.01172,-0.011719 0.02344,-0.1054688 0.02344,-0.1171875 0,-0.035156 -0.02344,-0.09375 -0.105469,-0.09375 -0.140625,0 -0.714844,0.058594 -0.890625,0.070312 -0.05859,0.011719 -0.152344,0.011719 -0.152344,0.1640625 0,0.09375 0.09375,0.09375 0.175781,0.09375 0.339844,0 0.339844,0.046875 0.339844,0.1054687 0,0.046875 -0.07031,0.328125 -0.117187,0.4921875 l -0.152344,0.6328125 c -0.07031,0.2460938 -0.457031,1.76953129 -0.46875,1.86328129 -0.03516,0.1640625 -0.03516,0.2578125 -0.03516,0.33984375 0,0.70312496 0.445312,1.14843746 1.03125,1.14843746 0.867187,0 1.792968,-0.94921871 1.792968,-1.98046871 0,-0.82031249 -0.5625,-1.16015629 -1.042968,-1.16015629 -0.363282,0 -0.667969,0.1992188 -0.878907,0.375 z m -0.351562,4.5 c -0.339844,0 -0.527344,-0.2929688 -0.527344,-0.70312501 0,-0.2578125 0.05859,-0.50390625 0.257812,-1.2890625 0.03516,-0.12890625 0.03516,-0.140625 0.164063,-0.29296875 0.269531,-0.31640624 0.585937,-0.46875004 0.832031,-0.46875004 0.269531,0 0.515625,0.2109375 0.515625,0.67968754 0,0.28125 -0.152344,0.99609375 -0.363281,1.40625 C 57.028602,1.0386172 56.688758,1.3667422 56.325477,1.3667422 Z m 0,0"
         style="fill:#000000;fill-opacity:1;fill-rule:nonzero;stroke:none" />
      <path
         id="path27"
         d="m 60.70243,-2.2982969 c 0.292968,0 1.03125,-0.023437 1.523437,-0.234375 0.703125,-0.2929687 0.75,-0.890625 0.75,-1.0195312 0,-0.4453125 -0.386719,-0.8554688 -1.066406,-0.8554688 -1.113281,0 -2.613281,0.9726563 -2.613281,2.7070313 0,1.01953123 0.585937,1.80468748 1.570312,1.80468748 1.417969,0 2.261719,-1.0546875 2.261719,-1.17187498 0,-0.058594 -0.07031,-0.1289063 -0.128906,-0.1289063 -0.04687,0 -0.07031,0.023437 -0.128907,0.09375 -0.785156,0.99609378 -1.875,0.99609378 -1.992187,0.99609378 -0.773438,0 -0.867188,-0.84375 -0.867188,-1.16015628 0,-0.1171875 0.01172,-0.4335937 0.164063,-1.03125 z m -0.46875,-0.2226562 c 0.386718,-1.5117188 1.417968,-1.6640625 1.675781,-1.6640625 0.46875,0 0.738281,0.2929687 0.738281,0.6328125 0,1.03125 -1.59375,1.03125 -2.003906,1.03125 z m 0,0"
         style="fill:#000000;fill-opacity:1;fill-rule:nonzero;stroke:none" />
      <path
         id="path28"
         d="m 66.41825,-1.1645078 c -0.140625,-0.234375 -0.386719,-0.4101563 -0.714844,-0.4101563 -0.890625,0 -1.804687,0.97265629 -1.804687,1.98046879 0,0.67968751 0.457031,1.16015621 1.054687,1.16015621 0.375,0 0.714844,-0.2109375 0.996094,-0.4921875 0.128906,0.421875 0.527344,0.4921875 0.714844,0.4921875 0.246093,0 0.421875,-0.1523437 0.550781,-0.375 0.152344,-0.26953121 0.246094,-0.66796871 0.246094,-0.69140621 0,-0.09375 -0.09375,-0.09375 -0.117188,-0.09375 -0.09375,0 -0.105469,0.0351563 -0.152344,0.22265625 -0.08203,0.328125 -0.210937,0.73828126 -0.503906,0.73828126 -0.1875,0 -0.234375,-0.1523438 -0.234375,-0.3398438 0,-0.11718746 0.05859,-0.36328121 0.105469,-0.55078121 0.04687,-0.1875 0.117187,-0.46875 0.152344,-0.62109375 l 0.140625,-0.5390625 c 0.04687,-0.17578125 0.128906,-0.50390624 0.128906,-0.53906254 0,-0.1523437 -0.128906,-0.2226562 -0.246094,-0.2226562 -0.117187,0 -0.269531,0.082031 -0.316406,0.28125 z m -0.445313,1.79296874 c -0.04687,0.1875 -0.199218,0.328125 -0.351562,0.45703126 -0.07031,0.058594 -0.339844,0.28125 -0.644531,0.28125 -0.257813,0 -0.515625,-0.1757813 -0.515625,-0.66796876 0,-0.375 0.210937,-1.13671875 0.363281,-1.41796875 0.328125,-0.56249999 0.679687,-0.66796879 0.878906,-0.66796879 0.480469,0 0.621094,0.52734379 0.621094,0.60937504 0,0.0234375 -0.01172,0.0820313 -0.02344,0.09375 z m 0,0"
         style="fill:#000000;fill-opacity:1;fill-rule:nonzero;stroke:none" />
      <path
         id="path29"
         d="m 77.908484,-3.2592344 c 0.152344,0 0.339844,0 0.339844,-0.1992187 0,-0.1992188 -0.1875,-0.1992188 -0.328125,-0.1992188 h -5.964844 c -0.140625,0 -0.328125,0 -0.328125,0.1992188 0,0.1992187 0.1875,0.1992187 0.339844,0.1992187 z m 0.01172,1.9335938 c 0.140625,0 0.328125,0 0.328125,-0.1992188 0,-0.1992187 -0.1875,-0.1992187 -0.339844,-0.1992187 h -5.941406 c -0.152344,0 -0.339844,0 -0.339844,0.1992187 0,0.1992188 0.1875,0.1992188 0.328125,0.1992188 z m 0,0"
         style="fill:#000000;fill-opacity:1;fill-rule:nonzero;stroke:none" />
      <path
         id="path30"
         d="m 84.907508,-3.0131406 c 0.05859,-0.2578125 0.292969,-1.171875 0.984375,-1.171875 0.04687,0 0.292969,0 0.503906,0.1289062 -0.28125,0.046875 -0.480469,0.3046875 -0.480469,0.5390625 0,0.1640625 0.105469,0.3515625 0.375,0.3515625 0.222657,0 0.539063,-0.1875 0.539063,-0.5859375 0,-0.515625 -0.585938,-0.65625 -0.925781,-0.65625 -0.574219,0 -0.925782,0.5273438 -1.042969,0.7617188 -0.257813,-0.65625 -0.785156,-0.7617188 -1.078125,-0.7617188 -1.042969,0 -1.605469,1.2890625 -1.605469,1.5351563 0,0.1054687 0.105469,0.1054687 0.117188,0.1054687 0.08203,0 0.117187,-0.023437 0.128906,-0.1171875 0.339844,-1.0546875 0.996094,-1.3007812 1.335937,-1.3007812 0.1875,0 0.539063,0.09375 0.539063,0.6679687 0,0.3046875 -0.164063,0.9726563 -0.539063,2.3671875 -0.152343,0.62109378 -0.503906,1.04296878 -0.949218,1.04296878 -0.05859,0 -0.28125,0 -0.492188,-0.12890625 0.246094,-0.0585938 0.46875,-0.26953125 0.46875,-0.5390625 0,-0.26953123 -0.222656,-0.35156253 -0.375,-0.35156253 -0.292969,0 -0.539062,0.25781253 -0.539062,0.57421878 0,0.45703125 0.492187,0.65625 0.9375,0.65625 0.65625,0 1.007812,-0.69140625 1.042968,-0.75 0.117188,0.36328125 0.480469,0.75 1.078125,0.75 1.019532,0 1.59375,-1.27734378 1.59375,-1.53515628 0,-0.09375 -0.09375,-0.09375 -0.128906,-0.09375 -0.08203,0 -0.105469,0.035156 -0.128906,0.1054688 -0.328125,1.06640623 -0.996094,1.31249998 -1.324219,1.31249998 -0.386719,0 -0.539062,-0.328125 -0.539062,-0.65625 0,-0.22265625 0.05859,-0.44531248 0.164062,-0.87890628 z m 0,0"
         style="fill:#000000;fill-opacity:1;fill-rule:nonzero;stroke:none" />
      <path
         id="path31"
         d="m 89.114539,-3.1332578 c 0.01172,-0.011719 0.02344,-0.1054688 0.02344,-0.1171875 0,-0.035156 -0.02344,-0.09375 -0.105469,-0.09375 -0.140625,0 -0.714844,0.058594 -0.890625,0.070312 -0.05859,0.011719 -0.152344,0.011719 -0.152344,0.1640625 0,0.09375 0.09375,0.09375 0.175781,0.09375 0.339844,0 0.339844,0.046875 0.339844,0.1054687 0,0.046875 -0.07031,0.328125 -0.117187,0.4921875 l -0.152344,0.6328125 c -0.07031,0.2460938 -0.457031,1.76953129 -0.46875,1.86328129 -0.03516,0.1640625 -0.03516,0.2578125 -0.03516,0.33984375 0,0.70312496 0.445312,1.14843746 1.03125,1.14843746 0.867187,0 1.792968,-0.94921871 1.792968,-1.98046871 0,-0.82031249 -0.5625,-1.16015629 -1.042968,-1.16015629 -0.363282,0 -0.667969,0.1992188 -0.878907,0.375 z m -0.351562,4.5 c -0.339844,0 -0.527344,-0.2929688 -0.527344,-0.70312501 0,-0.2578125 0.05859,-0.50390625 0.257812,-1.2890625 0.03516,-0.12890625 0.03516,-0.140625 0.164063,-0.29296875 0.269531,-0.31640624 0.585937,-0.46875004 0.832031,-0.46875004 0.269531,0 0.515625,0.2109375 0.515625,0.67968754 0,0.28125 -0.152344,0.99609375 -0.363281,1.40625 C 89.466102,1.0386172 89.126258,1.3667422 88.762977,1.3667422 Z m 0,0"
         style="fill:#000000;fill-opacity:1;fill-rule:nonzero;stroke:none" />
      <path
         id="path32"
         d="m 93.13993,-2.2982969 c 0.292968,0 1.03125,-0.023437 1.523437,-0.234375 0.703125,-0.2929687 0.75,-0.890625 0.75,-1.0195312 0,-0.4453125 -0.386719,-0.8554688 -1.066406,-0.8554688 -1.113281,0 -2.613281,0.9726563 -2.613281,2.7070313 0,1.01953123 0.585937,1.80468748 1.570312,1.80468748 1.417969,0 2.261719,-1.0546875 2.261719,-1.17187498 0,-0.058594 -0.07031,-0.1289063 -0.128906,-0.1289063 -0.04687,0 -0.07031,0.023437 -0.128907,0.09375 -0.785156,0.99609378 -1.875,0.99609378 -1.992187,0.99609378 -0.773438,0 -0.867188,-0.84375 -0.867188,-1.16015628 0,-0.1171875 0.01172,-0.4335937 0.164063,-1.03125 z m -0.46875,-0.2226562 c 0.386718,-1.5117188 1.417968,-1.6640625 1.675781,-1.6640625 0.46875,0 0.738281,0.2929687 0.738281,0.6328125 0,1.03125 -1.59375,1.03125 -2.003906,1.03125 z m 0,0"
         style="fill:#000000;fill-opacity:1;fill-rule:nonzero;stroke:none" />
      <path
         id="path33"
         d="m 97.941687,-6.9066953 c 0.04687,-0.1171875 0.05859,-0.1757813 0.05859,-0.2226563 0,-0.2109375 -0.199219,-0.3867187 -0.410156,-0.3867187 -0.269531,0 -0.351563,0.2226562 -0.386719,0.328125 l -0.914062,3.0234375 c -0.01172,0.011719 -0.03516,0.1054687 -0.03516,0.1171875 0,0.082031 0.210938,0.1523437 0.269532,0.1523437 0.04687,0 0.05859,-0.023437 0.105468,-0.1289062 z m 0,0"
         style="fill:#000000;fill-opacity:1;fill-rule:nonzero;stroke:none" />
      <path
         id="path34"
         d="m 97.754187,-1.8061094 c 0.01172,-0.011719 0.02344,-0.1054687 0.02344,-0.1171875 0,-0.035156 -0.02344,-0.09375 -0.105469,-0.09375 -0.140625,0 -0.714844,0.058594 -0.890625,0.070312 -0.05859,0.011719 -0.152344,0.011719 -0.152344,0.1640625 0,0.09375 0.09375,0.09375 0.175782,0.09375 0.339843,0 0.339843,0.046875 0.339843,0.1054688 0,0.046875 -0.07031,0.328125 -0.117187,0.4921875 l -0.152344,0.63281248 c -0.07031,0.24609375 -0.457031,1.76953122 -0.46875,1.86328122 -0.03516,0.1640625 -0.03516,0.2578125 -0.03516,0.3398438 0,0.703125 0.445312,1.1484375 1.03125,1.1484375 0.867187,0 1.792969,-0.9492188 1.792969,-1.98046877 0,-0.8203125 -0.5625,-1.16015625 -1.042969,-1.16015625 -0.363281,0 -0.667969,0.19921875 -0.878906,0.375 z m -0.351562,4.5 c -0.339844,0 -0.527344,-0.2929687 -0.527344,-0.703125 0,-0.2578125 0.05859,-0.5039062 0.257813,-1.28906247 0.03516,-0.12890625 0.03516,-0.140625 0.164062,-0.29296875 0.269531,-0.31640625 0.585938,-0.46875 0.832031,-0.46875 0.269532,0 0.515625,0.2109375 0.515625,0.6796875 0,0.28125 -0.152343,0.99609372 -0.363281,1.40625002 -0.175781,0.3398437 -0.515625,0.6679687 -0.878906,0.6679687 z m 0,0"
         style="fill:#000000;fill-opacity:1;fill-rule:nonzero;stroke:none" />
    </g>
  </g>
</svg>
