<?xml version="1.0" encoding="UTF-8" standalone="no"?>
<!-- Created with Inkscape (http://www.inkscape.org/) -->

<svg
   version="1.1"
   id="svg1"
   width="263.29333"
   height="201.88"
   viewBox="0 0 263.29333 201.88"
   sodipodi:docname="s3_sphere.pdf"
   xmlns:inkscape="http://www.inkscape.org/namespaces/inkscape"
   xmlns:sodipodi="http://sodipodi.sourceforge.net/DTD/sodipodi-0.dtd"
   xmlns="http://www.w3.org/2000/svg"
   xmlns:svg="http://www.w3.org/2000/svg">
  <defs
     id="defs1" />
  <sodipodi:namedview
     id="namedview1"
     pagecolor="#ffffff"
     bordercolor="#000000"
     borderopacity="0.25"
     inkscape:showpageshadow="2"
     inkscape:pageopacity="0.0"
     inkscape:pagecheckerboard="0"
     inkscape:deskcolor="#d1d1d1">
    <inkscape:page
       x="0"
       y="0"
       inkscape:label="1"
       id="page1"
       width="263.29333"
       height="201.88"
       margin="0"
       bleed="0" />
  </sodipodi:namedview>
  <g
     id="g1"
     inkscape:groupmode="layer"
     inkscape:label="1">
    <path
       id="path1"
       d="m 63.51265,-114.32277 c 0,35.07393 28.43872,63.51265 63.51265,63.51265 35.08139,0 63.51265,-28.43872 63.51265,-63.51265 0,-35.08139 -28.43126,-63.51265 -63.51265,-63.51265 -35.07393,0 -63.51265,28.43126 -63.51265,63.51265 z"
       style="fill:#4a90e2;fill-opacity:0.1;fill-rule:nonzero;stroke:#4a90e2;stroke-width:1.49442;stroke-linecap:butt;stroke-linejoin:miter;stroke-miterlimit:10;stroke-dasharray:none;stroke-opacity:1"
       transform="matrix(1.3333333,0,0,-1.3333333,-79.262667,-66.756)" />
    <path
       id="path2"
       d="m 73.03954,-82.19284 c 0,3.84067 24.17216,6.95651 53.98576,6.95651 29.82104,0 53.99321,-3.11584 53.99321,-6.95651 0,-3.8481 -24.17217,-6.96397 -53.99321,-6.96397 -29.8136,0 -53.98576,3.11587 -53.98576,6.96397 z"
       style="fill:#4a90e2;fill-opacity:0.2;fill-rule:nonzero;stroke:#4a90e2;stroke-width:0.74721;stroke-linecap:butt;stroke-linejoin:miter;stroke-miterlimit:10;stroke-dasharray:4.48325, 4.48325;stroke-dashoffset:0;stroke-opacity:1"
       transform="matrix(1.3333333,0,0,-1.3333333,-79.262667,-66.756)" />
    <path
       id="path3"
       d="m 63.51265,-114.32277 c 0,8.24917 28.43872,14.94415 63.51265,14.94415 35.08139,0 63.51265,-6.69498 63.51265,-14.94415 0,-8.25662 -28.43126,-14.94415 -63.51265,-14.94415 -35.07393,0 -63.51265,6.68753 -63.51265,14.94415 z"
       style="fill:#4a90e2;fill-opacity:0.2;fill-rule:nonzero;stroke:#4a90e2;stroke-width:0.74721;stroke-linecap:butt;stroke-linejoin:miter;stroke-miterlimit:10;stroke-dasharray:4.48325, 4.48325;stroke-dashoffset:0;stroke-opacity:1"
       transform="matrix(1.3333333,0,0,-1.3333333,-79.262667,-66.756)" />
    <path
       id="path4"
       d="m 190.53795,-114.32277 c 0,0 0,0 0,0 0,-8.25662 -28.43126,-14.94415 -63.51265,-14.94415 -35.07393,0 -63.51265,6.68753 -63.51265,14.94415 h 63.51265 z"
       style="fill:none;stroke:#000000;stroke-width:0.74721;stroke-linecap:butt;stroke-linejoin:miter;stroke-miterlimit:10;stroke-dasharray:none;stroke-opacity:0"
       transform="matrix(1.3333333,0,0,-1.3333333,-79.262667,-66.756)" />
    <path
       id="path5"
       d="m 190.53795,-114.32277 c 0,0 0,0 0,0 0,-8.25662 -28.43126,-14.94415 -63.51265,-14.94415 -35.07393,0 -63.51265,6.68753 -63.51265,14.94415"
       style="fill:none;stroke:#4a90e2;stroke-width:0.74721;stroke-linecap:butt;stroke-linejoin:miter;stroke-miterlimit:10;stroke-dasharray:none;stroke-opacity:1"
       transform="matrix(1.3333333,0,0,-1.3333333,-79.262667,-66.756)" />
    <path
       id="path6"
       d="m 181.01851,-82.19284 c 0,0 0,0 0,0 0,-3.8481 -24.17217,-6.96397 -53.99321,-6.96397 -29.8136,0 -53.98576,3.11587 -53.98576,6.96397 h 53.98576 z"
       style="fill:none;stroke:#000000;stroke-width:0.74721;stroke-linecap:butt;stroke-linejoin:miter;stroke-miterlimit:10;stroke-dasharray:none;stroke-opacity:0"
       transform="matrix(1.3333333,0,0,-1.3333333,-79.262667,-66.756)" />
    <path
       id="path7"
       d="m 181.01851,-82.19284 c 0,0 0,0 0,0 0,-3.8481 -24.17217,-6.96397 -53.99321,-6.96397 -29.8136,0 -53.98576,3.11587 -53.98576,6.96397"
       style="fill:none;stroke:#4a90e2;stroke-width:0.74721;stroke-linecap:butt;stroke-linejoin:miter;stroke-miterlimit:10;stroke-dasharray:none;stroke-opacity:1"
       transform="matrix(1.3333333,0,0,-1.3333333,-79.262667,-66.756)" />
    <g
       id="g7"
       aria-label="S&#10;3&#10;asa”3-ball”"
       transform="matrix(1.3333333,0,0,1.3333333,42.452,200.59467)">
      <path
         id="path8"
         d="m 6.4227188,-6.9264687 c 0,-0.023437 -0.011719,-0.09375 -0.1054688,-0.09375 -0.046875,0 -0.058594,0.011719 -0.1757812,0.140625 L 5.661,-6.305375 c -0.2578125,-0.46875 -0.7734375,-0.7148437 -1.4296875,-0.7148437 -1.265625,0 -2.4609375,1.1367187 -2.4609375,2.34375 0,0.8085937 0.5273438,1.265625 1.0429688,1.4179687 L 3.87975,-2.97725 c 0.3632813,0.082031 0.9140625,0.234375 0.9140625,1.0546875 0,0.890625 -0.8203125,1.828125 -1.7929687,1.828125 -0.6445313,0 -1.7460938,-0.2109375 -1.7460938,-1.453125 0,-0.234375 0.046875,-0.4804687 0.058594,-0.5390625 0.011719,-0.035156 0.023437,-0.046875 0.023437,-0.070312 0,-0.09375 -0.070312,-0.1054687 -0.1171875,-0.1054687 -0.058594,0 -0.070312,0.011719 -0.1054688,0.035156 -0.035156,0.046875 -0.59765625,2.3203125 -0.59765625,2.34375 0,0.0585937 0.046875,0.10546875 0.1171875,0.10546875 0.046875,0 0.0585938,-0.0117188 0.17578125,-0.15234375 L 1.301625,-0.50459375 c 0.421875,0.5859375 1.1015625,0.7265625 1.6757813,0.7265625 1.359375,0 2.53125,-1.32421875 2.53125,-2.56640625 0,-0.6796875 -0.3398438,-1.0195312 -0.4921875,-1.1601562 -0.2226563,-0.234375 -0.375,-0.2695313 -1.265625,-0.5039063 -0.2109375,-0.058594 -0.5742188,-0.1523437 -0.65625,-0.1757812 -0.2695313,-0.09375 -0.609375,-0.375 -0.609375,-0.9023438 0,-0.8085937 0.796875,-1.6523437 1.734375,-1.6523437 0.8320312,0 1.4414062,0.421875 1.4414062,1.5351562 0,0.3164063 -0.046875,0.5039063 -0.046875,0.5625 0,0.011719 0,0.09375 0.1289063,0.09375 0.09375,0 0.1054687,-0.023437 0.140625,-0.1992187 z m 0,0"
         style="fill:#000000;fill-opacity:1;fill-rule:nonzero;stroke:none" />
      <path
         id="path9"
         d="m 8.5818984,-6.446 c 0.5507813,0 0.9375,0.375 0.9375,1.125 0,0.8671875 -0.5039062,1.125 -0.9023437,1.125 -0.28125,0 -0.890625,-0.082031 -1.1835938,-0.4921875 0.328125,-0.011719 0.3984375,-0.2460937 0.3984375,-0.3867187 0,-0.2226563 -0.1640625,-0.3867188 -0.3867187,-0.3867188 -0.1875,0 -0.3867188,0.1171875 -0.3867188,0.4101563 0,0.65625 0.7265625,1.078125 1.5703125,1.078125 0.9726563,0 1.6406246,-0.6445313 1.6406246,-1.3476563 0,-0.5390625 -0.4453121,-1.0898437 -1.2187496,-1.2421875 0.7382813,-0.2695312 0.9960936,-0.796875 0.9960936,-1.21875 0,-0.5507812 -0.6328123,-0.9609375 -1.4062498,-0.9609375 -0.7734375,0 -1.359375,0.375 -1.359375,0.9375 0,0.234375 0.1523437,0.3632813 0.3632812,0.3632813 0.2109375,0 0.3515625,-0.1640625 0.3515625,-0.3515625 0,-0.1992188 -0.140625,-0.3515625 -0.3515625,-0.3632813 0.234375,-0.3046875 0.7148438,-0.3867187 0.9726563,-0.3867187 0.3164062,0 0.7617187,0.1523437 0.7617187,0.7617187 0,0.2929688 -0.1054687,0.609375 -0.28125,0.8320313 -0.234375,0.2578125 -0.421875,0.28125 -0.7734375,0.2929687 -0.1757812,0.023437 -0.1875,0.023437 -0.2226562,0.023437 -0.011719,0 -0.070312,0.011719 -0.070312,0.09375 0,0.09375 0.058594,0.09375 0.1757812,0.09375 z m 0,0"
         style="fill:#000000;fill-opacity:1;fill-rule:nonzero;stroke:none" />
      <path
         id="path10"
         d="m 19.286977,-0.8913125 v -0.5507812 h -0.257813 v 0.5507812 c 0,0.5859375 -0.246094,0.64453125 -0.351562,0.64453125 -0.328125,0 -0.375,-0.45703125 -0.375,-0.50390625 V -2.742875 c 0,-0.4101562 0,-0.8085937 -0.351563,-1.171875 -0.386719,-0.3867187 -0.890625,-0.5507812 -1.371094,-0.5507812 -0.808593,0 -1.5,0.46875 -1.5,1.125 0,0.3046875 0.199219,0.46875 0.457032,0.46875 0.28125,0 0.457031,-0.1992188 0.457031,-0.4570313 0,-0.1171875 -0.04687,-0.4453125 -0.503906,-0.4570312 0.269531,-0.3515625 0.75,-0.4570313 1.078125,-0.4570313 0.480468,0 1.054687,0.3867188 1.054687,1.2773438 V -2.60225 c -0.515625,0.035156 -1.207031,0.058594 -1.839844,0.3632813 -0.75,0.3398437 -0.996093,0.8554687 -0.996093,1.28906245 0,0.80859375 0.972656,1.0546875 1.59375,1.0546875 0.65625,0 1.113281,-0.3984375 1.3125,-0.8671875 0.03516,0.3984375 0.304687,0.8203125 0.773437,0.8203125 0.210938,0 0.820313,-0.140625 0.820313,-0.94921875 z m -1.664063,-0.5039062 c 0,0.9492187 -0.726562,1.28906245 -1.171875,1.28906245 -0.480469,0 -0.890625,-0.3515625 -0.890625,-0.85546875 0,-0.5390625 0.410156,-1.3710937 2.0625,-1.4296875 z m 5.414063,0.1171875 c 0,-0.5273438 -0.292969,-0.8203125 -0.421875,-0.9492188 -0.328125,-0.3164062 -0.714844,-0.3984375 -1.136719,-0.46875 -0.550781,-0.1171875 -1.21875,-0.2460937 -1.21875,-0.8203125 0,-0.3515625 0.257812,-0.7617187 1.113281,-0.7617187 1.101563,0 1.148438,0.9023437 1.171875,1.2070312 0,0.09375 0.117188,0.09375 0.117188,0.09375 0.128906,0 0.128906,-0.046875 0.128906,-0.2460937 v -0.9960938 c 0,-0.1757812 0,-0.2460937 -0.117188,-0.2460937 -0.04687,0 -0.07031,0 -0.199218,0.1171875 -0.02344,0.046875 -0.128907,0.1289062 -0.164063,0.1640625 -0.375,-0.28125 -0.785156,-0.28125 -0.9375,-0.28125 -1.21875,0 -1.59375,0.6679687 -1.59375,1.2304687 0,0.3398438 0.164063,0.6210938 0.433594,0.84375 0.316406,0.2578125 0.597656,0.3164063 1.3125,0.4570313 0.222656,0.035156 1.03125,0.1992187 1.03125,0.9140625 0,0.51562495 -0.351563,0.91406245 -1.125,0.91406245 -0.832031,0 -1.195313,-0.57421875 -1.382813,-1.41796875 -0.03516,-0.1289062 -0.03516,-0.1757812 -0.140625,-0.1757812 -0.128906,0 -0.128906,0.070312 -0.128906,0.2578125 v 1.31249995 c 0,0.1640625 0,0.234375 0.105469,0.234375 0.05859,0 0.07031,0 0.257812,-0.19921875 0.01172,-0.01171875 0.01172,-0.03515625 0.199219,-0.22265625 0.433594,0.421875 0.878906,0.421875 1.089844,0.421875 1.148437,0 1.605469,-0.66796875 1.605469,-1.38281245 z m 8.472656,0.3867187 V -1.4420937 H 31.25182 v 0.5507812 c 0,0.5859375 -0.246093,0.64453125 -0.351562,0.64453125 -0.328125,0 -0.375,-0.45703125 -0.375,-0.50390625 V -2.742875 c 0,-0.4101562 0,-0.8085937 -0.351563,-1.171875 -0.386718,-0.3867187 -0.890625,-0.5507812 -1.371093,-0.5507812 -0.808594,0 -1.5,0.46875 -1.5,1.125 0,0.3046875 0.199218,0.46875 0.457031,0.46875 0.28125,0 0.457031,-0.1992188 0.457031,-0.4570313 0,-0.1171875 -0.04687,-0.4453125 -0.503906,-0.4570312 0.269531,-0.3515625 0.75,-0.4570313 1.078125,-0.4570313 0.480469,0 1.054687,0.3867188 1.054687,1.2773438 V -2.60225 c -0.515625,0.035156 -1.207031,0.058594 -1.839843,0.3632813 -0.75,0.3398437 -0.996094,0.8554687 -0.996094,1.28906245 0,0.80859375 0.972656,1.0546875 1.59375,1.0546875 0.65625,0 1.113281,-0.3984375 1.3125,-0.8671875 0.03516,0.3984375 0.304687,0.8203125 0.773437,0.8203125 0.210938,0 0.820313,-0.140625 0.820313,-0.94921875 z M 29.84557,-1.3952187 c 0,0.9492187 -0.726562,1.28906245 -1.171875,1.28906245 -0.480468,0 -0.890625,-0.3515625 -0.890625,-0.85546875 0,-0.5390625 0.410157,-1.3710937 2.0625,-1.4296875 z m 7.198243,-4.4765625 c 0,-0.5976563 -0.234375,-1.0429688 -0.667969,-1.0429688 -0.351563,0 -0.527344,0.2695313 -0.527344,0.5273438 0,0.2578125 0.175781,0.5273437 0.527344,0.5273437 0.199219,0 0.339844,-0.09375 0.398437,-0.1523437 0.01172,-0.023437 0.03516,-0.035156 0.03516,-0.035156 0,0 0.01172,0.140625 0.01172,0.1757813 0,0.328125 -0.07031,1.0429687 -0.691406,1.6523437 -0.117187,0.1289063 -0.117187,0.140625 -0.117187,0.1757813 0,0.070312 0.04687,0.1054687 0.09375,0.1054687 0.117187,0 0.9375,-0.75 0.9375,-1.9335937 z m 1.933593,0 c 0,-0.5976563 -0.234375,-1.0429688 -0.667968,-1.0429688 -0.351563,0 -0.527344,0.2695313 -0.527344,0.5273438 0,0.2578125 0.164062,0.5273437 0.527344,0.5273437 0.199218,0 0.339843,-0.09375 0.398437,-0.1523437 0.01172,-0.023437 0.03516,-0.035156 0.03516,-0.035156 0,0 0.01172,0.140625 0.01172,0.1757813 0,0.328125 -0.07031,1.0429687 -0.691406,1.6523437 -0.117188,0.1289063 -0.117188,0.140625 -0.117188,0.1757813 0,0.070312 0.04687,0.1054687 0.09375,0.1054687 0.105469,0 0.9375,-0.75 0.9375,-1.9335937 z m 5.264649,4.171875 c 0,-0.8203125 -0.621094,-1.59375 -1.652344,-1.8046875 0.808594,-0.2695313 1.394531,-0.9726563 1.394531,-1.7578125 0,-0.8203125 -0.878906,-1.3710938 -1.839844,-1.3710938 -1.007812,0 -1.757812,0.5976563 -1.757812,1.3476563 0,0.3398437 0.210937,0.5273437 0.503906,0.5273437 0.304688,0 0.503906,-0.2226562 0.503906,-0.515625 0,-0.4921875 -0.46875,-0.4921875 -0.609375,-0.4921875 0.304688,-0.4921875 0.960938,-0.6210937 1.324219,-0.6210937 0.410156,0 0.949219,0.2226562 0.949219,1.1132812 0,0.1289063 -0.01172,0.703125 -0.269531,1.1367188 -0.304688,0.4804687 -0.644532,0.515625 -0.890625,0.515625 -0.08203,0.011719 -0.316407,0.035156 -0.386719,0.035156 -0.08203,0.011719 -0.152344,0.023437 -0.152344,0.1171875 0,0.1171875 0.07031,0.1171875 0.234375,0.1171875 h 0.445313 c 0.808593,0 1.183593,0.6679688 1.183593,1.6523438 0,1.3476562 -0.691406,1.64062495 -1.125,1.64062495 -0.433593,0 -1.171875,-0.17578125 -1.523437,-0.76171875 0.351562,0.0585938 0.65625,-0.1640625 0.65625,-0.5390625 0,-0.3632812 -0.269531,-0.5625 -0.5625,-0.5625 -0.234375,0 -0.550781,0.140625 -0.550781,0.5742188 0,0.91406245 0.925781,1.57031245 2.003906,1.57031245 1.21875,0 2.121094,-0.9140625 2.121094,-1.92187475 z m 3.1875,-0.1640625 v -0.5742188 h -2.648438 v 0.5742188 z m 5.756836,-0.2929688 c 0,-1.265625 -0.972657,-2.25 -2.109375,-2.25 -0.785157,0 -1.207032,0.46875 -1.371094,0.65625 V -6.91475 l -1.429688,0.1054688 v 0.3164062 c 0.691407,0 0.773438,0.070312 0.773438,0.5507813 v 5.9414062 h 0.246094 l 0.363281,-0.62109375 c 0.152344,0.234375 0.5625,0.7265625 1.300781,0.7265625 1.183594,0 2.226563,-0.97265625 2.226563,-2.26171875 z m -0.832032,0 c 0,0.3632813 -0.01172,0.9609375 -0.304687,1.40625 -0.210938,0.31640625 -0.585938,0.64453125 -1.125,0.64453125 -0.445313,0 -0.808594,-0.24609375 -1.042969,-0.609375 -0.140625,-0.2109375 -0.140625,-0.24609375 -0.140625,-0.42187495 v -2.0507813 c 0,-0.1875 0,-0.1992187 0.105469,-0.3632812 0.386719,-0.5507813 0.9375,-0.6328125 1.171875,-0.6328125 0.457031,0 0.808594,0.2578125 1.054687,0.6328125 0.257813,0.4101562 0.28125,0.984375 0.28125,1.3945312 z m 5.994141,1.265625 v -0.5507812 h -0.257812 v 0.5507812 c 0,0.5859375 -0.246094,0.64453125 -0.351563,0.64453125 -0.328125,0 -0.375,-0.45703125 -0.375,-0.50390625 V -2.742875 c 0,-0.4101562 0,-0.8085937 -0.351562,-1.171875 -0.386719,-0.3867187 -0.890625,-0.5507812 -1.371094,-0.5507812 -0.808594,0 -1.5,0.46875 -1.5,1.125 0,0.3046875 0.199219,0.46875 0.457031,0.46875 0.28125,0 0.457031,-0.1992188 0.457031,-0.4570313 0,-0.1171875 -0.04687,-0.4453125 -0.503906,-0.4570312 0.269531,-0.3515625 0.75,-0.4570313 1.078125,-0.4570313 0.480469,0 1.054688,0.3867188 1.054688,1.2773438 V -2.60225 c -0.515625,0.035156 -1.207032,0.058594 -1.839844,0.3632813 -0.75,0.3398437 -0.996094,0.8554687 -0.996094,1.28906245 0,0.80859375 0.972656,1.0546875 1.59375,1.0546875 0.65625,0 1.113281,-0.3984375 1.3125,-0.8671875 0.03516,0.3984375 0.304688,0.8203125 0.773438,0.8203125 0.210937,0 0.820312,-0.140625 0.820312,-0.94921875 z m -1.664062,-0.5039062 c 0,0.9492187 -0.726563,1.28906245 -1.171875,1.28906245 -0.480469,0 -0.890625,-0.3515625 -0.890625,-0.85546875 0,-0.5390625 0.410156,-1.3710937 2.0625,-1.4296875 z m 4.374023,1.3945312 V -0.305375 c -0.667969,0 -0.785156,0 -0.785156,-0.45703125 V -6.91475 l -1.429688,0.1054688 v 0.3164062 c 0.703125,0 0.773438,0.070312 0.773438,0.5507813 v 5.17968745 c 0,0.45703125 -0.105469,0.45703125 -0.773438,0.45703125 v 0.3046875 l 1.101563,-0.03515625 z m 2.768555,0 V -0.305375 c -0.667969,0 -0.785157,0 -0.785157,-0.45703125 V -6.91475 l -1.429687,0.1054688 v 0.3164062 c 0.703125,0 0.773437,0.070312 0.773437,0.5507813 v 5.17968745 c 0,0.45703125 -0.105468,0.45703125 -0.773437,0.45703125 v 0.3046875 l 1.101562,-0.03515625 z m 2.276367,-5.8710937 c 0,-0.5976563 -0.234375,-1.0429688 -0.667969,-1.0429688 -0.351562,0 -0.527344,0.2695313 -0.527344,0.5273438 0,0.2578125 0.175782,0.5273437 0.527344,0.5273437 0.199219,0 0.339844,-0.09375 0.398438,-0.1523437 0.01172,-0.023437 0.03516,-0.035156 0.03516,-0.035156 0,0 0.01172,0.140625 0.01172,0.1757813 0,0.328125 -0.07031,1.0429687 -0.691407,1.6523437 -0.117187,0.1289063 -0.117187,0.140625 -0.117187,0.1757813 0,0.070312 0.04687,0.1054687 0.09375,0.1054687 0.117187,0 0.9375,-0.75 0.9375,-1.9335937 z m 1.933594,0 c 0,-0.5976563 -0.234375,-1.0429688 -0.667969,-1.0429688 -0.351563,0 -0.527344,0.2695313 -0.527344,0.5273438 0,0.2578125 0.164063,0.5273437 0.527344,0.5273437 0.199219,0 0.339844,-0.09375 0.398437,-0.1523437 0.01172,-0.023437 0.03516,-0.035156 0.03516,-0.035156 0,0 0.01172,0.140625 0.01172,0.1757813 0,0.328125 -0.07031,1.0429687 -0.691406,1.6523437 -0.117187,0.1289063 -0.117187,0.140625 -0.117187,0.1757813 0,0.070312 0.04687,0.1054687 0.09375,0.1054687 0.105468,0 0.9375,-0.75 0.9375,-1.9335937 z m 0,0"
         style="fill:#000000;fill-opacity:1;fill-rule:nonzero;stroke:none" />
    </g>
    <g
       id="g10"
       aria-label="Z=S&#10;0&#10;0"
       transform="matrix(1.3333333,0,0,1.3333333,214.50933,88.417333)">
      <path
         id="path11"
         d="m 7.1707344,-6.5620234 c 0.011719,-0.046875 0.035156,-0.09375 0.035156,-0.1523438 0,-0.09375 -0.058594,-0.09375 -0.2578125,-0.09375 H 2.7527656 c -0.2460937,0 -0.2578125,0.011719 -0.3164062,0.1992188 l -0.5390625,1.7929687 c -0.023437,0.058594 -0.035156,0.1289063 -0.035156,0.140625 0,0.011719 0,0.1171875 0.1171875,0.1171875 0.09375,0 0.1171875,-0.070312 0.1289063,-0.1054687 0.3867187,-1.171875 0.9023437,-1.828125 2.4492187,-1.828125 h 1.6289063 l -5.56640628,6.22265621 c 0,0.0117188 -0.046875,0.15234375 -0.046875,0.17578125 0,0.0937500025 0.0703125,0.0937500025 0.2578125,0.0937500025 H 5.1551094 c 0.2460937,0 0.2578125,-0.0117187525 0.3164062,-0.1992187525 l 0.703125,-2.20312501 c 0.011719,-0.035156 0.035156,-0.1054687 0.035156,-0.1523437 0,-0.046875 -0.035156,-0.1054688 -0.1289063,-0.1054688 -0.082031,0 -0.09375,0.035156 -0.1640625,0.2460938 -0.4335937,1.359375 -0.9140625,2.07421871 -2.6132812,2.07421871 H 1.6043281 Z m 0,0"
         style="fill:#000000;fill-opacity:1;fill-rule:nonzero;stroke:none" />
      <path
         id="path12"
         d="m 17.125812,-3.2573359 c 0.152344,0 0.339844,0 0.339844,-0.1992188 0,-0.1992187 -0.1875,-0.1992187 -0.328125,-0.1992187 h -5.964844 c -0.140625,0 -0.328125,0 -0.328125,0.1992187 0,0.1992188 0.1875,0.1992188 0.339844,0.1992188 z m 0.01172,1.9335937 c 0.140625,0 0.328125,0 0.328125,-0.1992187 0,-0.1992188 -0.1875,-0.1992188 -0.339844,-0.1992188 h -5.941406 c -0.152344,0 -0.339844,0 -0.339844,0.1992188 0,0.1992187 0.1875,0.1992187 0.328125,0.1992187 z m 0,0"
         style="fill:#000000;fill-opacity:1;fill-rule:nonzero;stroke:none" />
      <path
         id="path13"
         d="m 27.218586,-6.9253047 c 0,-0.023437 -0.01172,-0.09375 -0.105469,-0.09375 -0.04687,0 -0.05859,0.011719 -0.175781,0.140625 l -0.480469,0.5742188 c -0.257812,-0.46875 -0.773437,-0.7148438 -1.429687,-0.7148438 -1.265625,0 -2.460938,1.1367188 -2.460938,2.34375 0,0.8085938 0.527344,1.265625 1.042969,1.4179688 l 1.066406,0.28125 c 0.363281,0.082031 0.914063,0.234375 0.914063,1.0546875 0,0.890625 -0.820313,1.82812496 -1.792969,1.82812496 -0.644531,0 -1.746094,-0.2109375 -1.746094,-1.45312496 0,-0.234375 0.04687,-0.4804688 0.05859,-0.5390625 0.01172,-0.035156 0.02344,-0.046875 0.02344,-0.070312 0,-0.09375 -0.07031,-0.1054688 -0.117187,-0.1054688 -0.05859,0 -0.07031,0.011719 -0.105469,0.035156 -0.03516,0.046875 -0.597656,2.32031246 -0.597656,2.34374996 0,0.0585937 0.04687,0.10546875 0.117187,0.10546875 0.04687,0 0.05859,-0.0117188 0.175782,-0.15234375 l 0.492187,-0.57421875 c 0.421875,0.5859375 1.101563,0.7265625 1.675781,0.7265625 1.359375,0 2.53125,-1.32421871 2.53125,-2.56640621 0,-0.6796875 -0.339843,-1.0195313 -0.492187,-1.1601563 -0.222656,-0.234375 -0.375,-0.2695312 -1.265625,-0.5039062 -0.210938,-0.058594 -0.574219,-0.1523438 -0.65625,-0.1757813 -0.269531,-0.09375 -0.609375,-0.375 -0.609375,-0.9023437 0,-0.8085938 0.796875,-1.6523438 1.734375,-1.6523438 0.832031,0 1.441406,0.421875 1.441406,1.5351563 0,0.3164062 -0.04687,0.5039062 -0.04687,0.5625 0,0.011719 0,0.09375 0.128906,0.09375 0.09375,0 0.105469,-0.023437 0.140625,-0.1992188 z m 0,0"
         style="fill:#000000;fill-opacity:1;fill-rule:nonzero;stroke:none" />
      <path
         id="path14"
         d="m 30.502766,-0.73194531 c 0,-0.76171879 -0.09375,-1.31249999 -0.410157,-1.80468749 -0.222656,-0.3164063 -0.644531,-0.5976563 -1.207031,-0.5976563 -1.617187,0 -1.617187,1.8984375 -1.617187,2.40234379 0,0.50390625 0,2.36718751 1.617187,2.36718751 1.617188,0 1.617188,-1.86328126 1.617188,-2.36718751 z M 28.885578,1.4360234 c -0.316406,0 -0.75,-0.1875 -0.890625,-0.76171871 -0.09375,-0.41015625 -0.09375,-0.984375 -0.09375,-1.5 0,-0.50390629 0,-1.03124999 0.105469,-1.41796879 0.152344,-0.5507812 0.597656,-0.6914062 0.878906,-0.6914062 0.375,0 0.738281,0.2226562 0.867188,0.6328125 0.105468,0.375 0.117187,0.8789062 0.117187,1.47656249 0,0.515625 0,1.04296875 -0.09375,1.4765625 C 29.635578,1.2836797 29.166828,1.4360234 28.885578,1.4360234 Z m 6.087891,-7.2773437 c 0,-0.7617188 -0.09375,-1.3125 -0.410157,-1.8046875 -0.222656,-0.3164063 -0.644531,-0.5976563 -1.207031,-0.5976563 -1.617187,0 -1.617187,1.8984375 -1.617187,2.4023438 0,0.5039062 0,2.3671875 1.617187,2.3671875 1.617188,0 1.617188,-1.8632813 1.617188,-2.3671875 z m -1.617188,2.1679687 c -0.316406,0 -0.75,-0.1875 -0.890625,-0.7617187 -0.09375,-0.4101563 -0.09375,-0.984375 -0.09375,-1.5 0,-0.5039063 0,-1.03125 0.105469,-1.4179688 0.152344,-0.5507812 0.597656,-0.6914062 0.878906,-0.6914062 0.375,0 0.738281,0.2226562 0.867188,0.6328125 0.105468,0.375 0.117187,0.8789062 0.117187,1.4765625 0,0.515625 0,1.0429687 -0.09375,1.4765625 -0.140625,0.6328125 -0.609375,0.7851562 -0.890625,0.7851562 z m 0,0"
         style="fill:#000000;fill-opacity:1;fill-rule:nonzero;stroke:none" />
    </g>
  </g>
</svg>
