<?xml version="1.0" encoding="UTF-8" standalone="no"?>
<!-- Created with Inkscape (http://www.inkscape.org/) -->

<svg
   version="1.1"
   id="svg1"
   width="274.51999"
   height="224.98666"
   viewBox="0 0 274.51999 224.98666"
   sodipodi:docname="so3-sphere.pdf"
   xmlns:inkscape="http://www.inkscape.org/namespaces/inkscape"
   xmlns:sodipodi="http://sodipodi.sourceforge.net/DTD/sodipodi-0.dtd"
   xmlns="http://www.w3.org/2000/svg"
   xmlns:svg="http://www.w3.org/2000/svg">
  <defs
     id="defs1" />
  <sodipodi:namedview
     id="namedview1"
     pagecolor="#ffffff"
     bordercolor="#000000"
     borderopacity="0.25"
     inkscape:showpageshadow="2"
     inkscape:pageopacity="0.0"
     inkscape:pagecheckerboard="0"
     inkscape:deskcolor="#d1d1d1">
    <inkscape:page
       x="0"
       y="0"
       inkscape:label="1"
       id="page1"
       width="274.51999"
       height="224.98666"
       margin="0"
       bleed="0" />
  </sodipodi:namedview>
  <g
     id="g1"
     inkscape:groupmode="layer"
     inkscape:label="1">
    <path
       id="path1"
       d="m 74.63857,-227.52472 26.19709,37.10634"
       style="fill:none;stroke:#9b9b9b;stroke-width:0.3985;stroke-linecap:butt;stroke-linejoin:miter;stroke-miterlimit:10;stroke-dasharray:none;stroke-opacity:1"
       transform="matrix(1.3333333,0,0,-1.3333333,-70.402667,-91.925333)" />
    <path
       id="path2"
       d="m 169.66096,-107.8071 c 0,0 0,0 0,0 0,-5.5144 -18.99403,-9.9827 -42.42646,-9.9827 -23.43244,0 -42.42644,4.4683 -42.42644,9.9827 h 42.42644 z"
       style="fill:none;stroke:#000000;stroke-width:0.3985;stroke-linecap:butt;stroke-linejoin:miter;stroke-miterlimit:10;stroke-dasharray:none;stroke-opacity:0"
       transform="matrix(1.3333333,0,0,-1.3333333,-70.402667,-91.925333)" />
    <path
       id="path3"
       d="m 169.66096,-107.8071 c 0,0 0,0 0,0 0,-5.5144 -18.99403,-9.9827 -42.42646,-9.9827 -23.43244,0 -42.42644,4.4683 -42.42644,9.9827"
       style="fill:none;stroke:#4a90e2;stroke-width:0.3985;stroke-linecap:butt;stroke-linejoin:miter;stroke-miterlimit:10;stroke-dasharray:none;stroke-opacity:1"
       transform="matrix(1.3333333,0,0,-1.3333333,-70.402667,-91.925333)" />
    <path
       id="path4"
       d="m 63.51265,-153.31953 c 0,35.0814 28.43872,63.52012 63.51265,63.52012 35.08139,0 63.51265,-28.43872 63.51265,-63.52012 0,-35.07393 -28.43126,-63.51265 -63.51265,-63.51265 -35.07393,0 -63.51265,28.43872 -63.51265,63.51265 z"
       style="fill:#4a90e2;fill-opacity:0.1;fill-rule:nonzero;stroke:#4a90e2;stroke-width:1.49442;stroke-linecap:butt;stroke-linejoin:miter;stroke-miterlimit:10;stroke-dasharray:none;stroke-opacity:1"
       transform="matrix(1.3333333,0,0,-1.3333333,-70.402667,-91.925333)" />
    <path
       id="path5"
       d="m 63.51265,-153.31953 c 0,8.25665 28.43872,14.94415 63.51265,14.94415 35.08139,0 63.51265,-6.6875 63.51265,-14.94415 0,-8.24915 -28.43126,-14.94416 -63.51265,-14.94416 -35.07393,0 -63.51265,6.69501 -63.51265,14.94416 z"
       style="fill:none;stroke:#4a90e2;stroke-width:0.3985;stroke-linecap:butt;stroke-linejoin:miter;stroke-miterlimit:10;stroke-dasharray:4.48325, 4.48325;stroke-dashoffset:0;stroke-opacity:1"
       transform="matrix(1.3333333,0,0,-1.3333333,-70.402667,-91.925333)" />
    <path
       id="path6"
       d="m 127.0253,-153.31953 26.1971,37.10633"
       style="fill:none;stroke:#9b9b9b;stroke-width:0.3985;stroke-linecap:butt;stroke-linejoin:miter;stroke-miterlimit:10;stroke-dasharray:none;stroke-opacity:1"
       transform="matrix(1.3333333,0,0,-1.3333333,-70.402667,-91.925333)" />
    <path
       id="path7"
       d="m 84.80806,-107.8071 c 0,5.51439 18.994,9.9827 42.42644,9.9827 23.43243,0 42.42646,-4.46831 42.42646,-9.9827 0,-5.5144 -18.99403,-9.9827 -42.42646,-9.9827 -23.43244,0 -42.42644,4.4683 -42.42644,9.9827 z"
       style="fill:none;stroke:#4a90e2;stroke-width:0.3985;stroke-linecap:butt;stroke-linejoin:miter;stroke-miterlimit:10;stroke-dasharray:4.48325, 4.48325;stroke-dashoffset:0;stroke-opacity:1"
       transform="matrix(1.3333333,0,0,-1.3333333,-70.402667,-91.925333)" />
    <path
       id="path8"
       d="m 190.53795,-153.31953 c 0,0 0,0 0,0 0,-8.24915 -28.43126,-14.94416 -63.51265,-14.94416 -35.07393,0 -63.51265,6.69501 -63.51265,14.94416 h 63.51265 z"
       style="fill:none;stroke:#000000;stroke-width:0.3985;stroke-linecap:butt;stroke-linejoin:miter;stroke-miterlimit:10;stroke-dasharray:none;stroke-opacity:0"
       transform="matrix(1.3333333,0,0,-1.3333333,-70.402667,-91.925333)" />
    <path
       id="path9"
       d="m 190.53795,-153.31953 c 0,0 0,0 0,0 0,-8.24915 -28.43126,-14.94416 -63.51265,-14.94416 -35.07393,0 -63.51265,6.69501 -63.51265,14.94416"
       style="fill:none;stroke:#4a90e2;stroke-width:0.3985;stroke-linecap:butt;stroke-linejoin:miter;stroke-miterlimit:10;stroke-dasharray:none;stroke-opacity:1"
       transform="matrix(1.3333333,0,0,-1.3333333,-70.402667,-91.925333)" />
    <path
       id="path10"
       d="m 153.2224,-116.2132 26.1971,37.10634"
       style="fill:none;stroke:#9b9b9b;stroke-width:0.3985;stroke-linecap:butt;stroke-linejoin:miter;stroke-miterlimit:10;stroke-dasharray:none;stroke-opacity:1"
       transform="matrix(1.3333333,0,0,-1.3333333,-70.402667,-91.925333)" />
    <path
       id="path11"
       d="m 100.83566,-190.41838 26.18964,37.09885"
       style="fill:none;stroke:#9b9b9b;stroke-width:0.3985;stroke-linecap:butt;stroke-linejoin:miter;stroke-miterlimit:10;stroke-dasharray:none;stroke-opacity:1"
       transform="matrix(1.3333333,0,0,-1.3333333,-70.402667,-91.925333)" />
    <path
       id="path12"
       d="m 84.80806,-198.59283 c 0,5.5144 18.994,9.98269 42.42644,9.98269 23.43243,0 42.42646,-4.46829 42.42646,-9.98269 0,-5.51439 -18.99403,-9.9827 -42.42646,-9.9827 -23.43244,0 -42.42644,4.46831 -42.42644,9.9827 z"
       style="fill:none;stroke:#4a90e2;stroke-width:0.3985;stroke-linecap:butt;stroke-linejoin:miter;stroke-miterlimit:10;stroke-dasharray:4.48325, 4.48325;stroke-dashoffset:0;stroke-opacity:1"
       transform="matrix(1.3333333,0,0,-1.3333333,-70.402667,-91.925333)" />
    <path
       id="path13"
       d="m 169.66096,-198.59283 c 0,0 0,0 0,0 0,-5.51439 -18.99403,-9.9827 -42.42646,-9.9827 -23.43244,0 -42.42644,4.46831 -42.42644,9.9827 h 42.42644 z"
       style="fill:none;stroke:#000000;stroke-width:0.3985;stroke-linecap:butt;stroke-linejoin:miter;stroke-miterlimit:10;stroke-dasharray:none;stroke-opacity:0"
       transform="matrix(1.3333333,0,0,-1.3333333,-70.402667,-91.925333)" />
    <path
       id="path14"
       d="m 169.66096,-198.59283 c 0,0 0,0 0,0 0,-5.51439 -18.99403,-9.9827 -42.42646,-9.9827 -23.43244,0 -42.42644,4.46831 -42.42644,9.9827"
       style="fill:none;stroke:#4a90e2;stroke-width:0.3985;stroke-linecap:butt;stroke-linejoin:miter;stroke-miterlimit:10;stroke-dasharray:none;stroke-opacity:1"
       transform="matrix(1.3333333,0,0,-1.3333333,-70.402667,-91.925333)" />
    <path
       id="path15"
       d="m 125.15727,-153.31953 c 0,1.03115 0.83687,1.86803 1.86803,1.86803 1.03114,0 1.86801,-0.83688 1.86801,-1.86803 0,-1.03115 -0.83687,-1.86802 -1.86801,-1.86802 -1.03116,0 -1.86803,0.83687 -1.86803,1.86802 z"
       style="fill:#000000;fill-opacity:1;fill-rule:nonzero;stroke:#000000;stroke-width:0.3985;stroke-linecap:butt;stroke-linejoin:miter;stroke-miterlimit:10;stroke-dasharray:none;stroke-opacity:1"
       transform="matrix(1.3333333,0,0,-1.3333333,-70.402667,-91.925333)" />
    <path
       id="path16"
       d="m 151.35437,-116.2132 c 0,1.03116 0.83687,1.86803 1.86803,1.86803 1.03114,0 1.86801,-0.83687 1.86801,-1.86803 0,-1.03114 -0.83687,-1.868 -1.86801,-1.868 -1.03116,0 -1.86803,0.83686 -1.86803,1.868 z"
       style="fill:#9013fe;fill-opacity:1;fill-rule:nonzero;stroke:#9013fe;stroke-width:0.3985;stroke-linecap:butt;stroke-linejoin:miter;stroke-miterlimit:10;stroke-dasharray:none;stroke-opacity:1"
       transform="matrix(1.3333333,0,0,-1.3333333,-70.402667,-91.925333)" />
    <path
       id="path17"
       d="m 98.96764,-190.41838 c 0,1.03114 0.8294,1.86803 1.86802,1.86803 1.03114,0 1.86801,-0.83689 1.86801,-1.86803 0,-1.03861 -0.83687,-1.86801 -1.86801,-1.86801 -1.03862,0 -1.86802,0.8294 -1.86802,1.86801 z"
       style="fill:#9013fe;fill-opacity:1;fill-rule:nonzero;stroke:#9013fe;stroke-width:0.3985;stroke-linecap:butt;stroke-linejoin:miter;stroke-miterlimit:10;stroke-dasharray:none;stroke-opacity:1"
       transform="matrix(1.3333333,0,0,-1.3333333,-70.402667,-91.925333)" />
    <path
       id="path18"
       d="m 127.0253,-153.31953 -34.96933,28.19215"
       style="fill:none;stroke:#9b9b9b;stroke-width:0.3985;stroke-linecap:butt;stroke-linejoin:miter;stroke-miterlimit:10;stroke-dasharray:none;stroke-opacity:1"
       transform="matrix(1.3333333,0,0,-1.3333333,-70.402667,-91.925333)" />
    <path
       id="path19"
       d="m 106.9254,-138.47252 c 0,1.03116 0.83687,1.86803 1.86803,1.86803 1.03112,0 1.86801,-0.83687 1.86801,-1.86803 0,-1.03862 -0.83689,-1.86801 -1.86801,-1.86801 -1.03116,0 -1.86803,0.82939 -1.86803,1.86801 z"
       style="fill:#8b572a;fill-opacity:1;fill-rule:nonzero;stroke:#8b572a;stroke-width:0.3985;stroke-linecap:butt;stroke-linejoin:miter;stroke-miterlimit:10;stroke-dasharray:none;stroke-opacity:1"
       transform="matrix(1.3333333,0,0,-1.3333333,-70.402667,-91.925333)" />
    <path
       id="path20"
       d="m 162.00208,-181.5042 -34.97678,28.18467"
       style="fill:none;stroke:#9b9b9b;stroke-width:0.3985;stroke-linecap:butt;stroke-linejoin:miter;stroke-miterlimit:10;stroke-dasharray:none;stroke-opacity:1"
       transform="matrix(1.3333333,0,0,-1.3333333,-70.402667,-91.925333)" />
    <path
       id="path21"
       d="m 142.64192,-167.41185 c 0,1.03115 0.83688,1.86801 1.86801,1.86801 1.03862,0 1.86803,-0.83686 1.86803,-1.86801 0,-1.03116 -0.82941,-1.86803 -1.86803,-1.86803 -1.03113,0 -1.86801,0.83687 -1.86801,1.86803 z"
       style="fill:#8b572a;fill-opacity:1;fill-rule:nonzero;stroke:#8b572a;stroke-width:0.3985;stroke-linecap:butt;stroke-linejoin:miter;stroke-miterlimit:10;stroke-dasharray:none;stroke-opacity:1"
       transform="matrix(1.3333333,0,0,-1.3333333,-70.402667,-91.925333)" />
    <g
       id="g21"
       aria-label="N&#10;g"
       transform="matrix(1.3333333,0,0,1.3333333,137.148,76.752)">
      <path
         id="path22"
         d="m 7.5354844,-5.7524766 c 0.09375,-0.3984375 0.2695312,-0.7148437 1.0664062,-0.7382812 0.058594,0 0.1757813,-0.011719 0.1757813,-0.1992188 0,-0.011719 0,-0.1171875 -0.1289063,-0.1171875 -0.328125,0 -0.6796875,0.035156 -1.0078125,0.035156 -0.3398437,0 -0.6914062,-0.035156 -1.0195312,-0.035156 -0.058594,0 -0.1757813,0 -0.1757813,0.1992188 0,0.1171875 0.09375,0.1171875 0.1757813,0.1171875 0.5742187,0.011719 0.6796875,0.2109375 0.6796875,0.4335937 0,0.035156 -0.023437,0.1757813 -0.023437,0.2109375 l -1.125,4.4296875 -2.203125,-5.1914062 c -0.070312,-0.1875 -0.082031,-0.1992188 -0.3164063,-0.1992188 h -1.335938 c -0.1992187,0 -0.28125,0 -0.28125,0.1992188 0,0.1171875 0.082031,0.1171875 0.28125,0.1171875 0.046875,0 0.6679688,0 0.6679688,0.082031 L 1.6292344,-1.053258 c -0.09375,0.39843749 -0.2695313,0.71484374 -1.06640627,0.74999999 -0.0585938,0 -0.17578125,0 -0.17578125,0.19921875 0,0.0703125 0.046875,0.10546875 0.12890625,0.10546875 0.31640625,0 0.66796877,-0.03515625 0.99609377,-0.03515625 0.3398437,0 0.703125,0.03515625 1.03125,0.03515625 0.046875,0 0.1757812,0 0.1757812,-0.19921875 0,-0.10546875 -0.09375,-0.10546875 -0.1992187,-0.10546875 -0.5742188,-0.0234375 -0.65625,-0.24609375 -0.65625,-0.4453125 0,-0.0703125 0.011719,-0.1171875 0.035156,-0.22265625 l 1.324219,-5.26171854 c 0.035156,0.058594 0.035156,0.082031 0.082031,0.1757812 l 2.484375,5.87109379 c 0.070312,0.1640625 0.09375,0.1875 0.1875,0.1875 0.1054688,0 0.1054688,-0.03515625 0.1640625,-0.2109375 z m 0,0"
         style="fill:#9013fe;fill-opacity:1;fill-rule:nonzero;stroke:none" />
      <path
         id="path23"
         d="m 11.719078,-1.0854844 c 0.02344,-0.09375 0.02344,-0.1289062 0.02344,-0.140625 0,-0.1523437 -0.128907,-0.2226562 -0.234375,-0.2226562 -0.164063,0 -0.292969,0.1289062 -0.328125,0.2695312 -0.117188,-0.1992187 -0.351563,-0.3984375 -0.714844,-0.3984375 -0.8671876,0 -1.7812501,0.92578128 -1.7812501,1.92187503 0,0.72656247 0.4804687,1.14843747 1.0546875,1.14843747 0.3281246,0 0.6328126,-0.1640625 0.8789066,-0.375 l -0.164063,0.6210938 c -0.07031,0.2929687 -0.117187,0.4804687 -0.386719,0.7265625 -0.3046871,0.2578125 -0.6093746,0.2578125 -0.7851559,0.2578125 -0.3164062,0 -0.4101562,-0.023437 -0.5273437,-0.046875 0.1757812,-0.09375 0.2226562,-0.2578125 0.2226562,-0.3515625 0,-0.1640625 -0.140625,-0.2578125 -0.2695312,-0.2578125 -0.1992188,0 -0.3984375,0.1523437 -0.3984375,0.421875 0,0.421875 0.5976562,0.421875 0.984375,0.421875 1.0898441,0 1.5585941,-0.5507813 1.6640621,-0.9492188 z m -0.972656,1.65234378 c -0.02344,0.10546875 -0.02344,0.1171875 -0.140625,0.2578125 -0.246094,0.29296872 -0.574219,0.46875002 -0.8437501,0.46875002 -0.3515625,0 -0.5273438,-0.2929688 -0.5273438,-0.65625002 0,-0.3046875 0.1875,-1.08984375 0.375,-1.39453125 0.2929688,-0.49218753 0.6210939,-0.63281253 0.8554689,-0.63281253 0.492187,0 0.621094,0.52734378 0.621094,0.59765628 0,0.0117188 0,0.0234375 -0.02344,0.10546875 z m 0,0"
         style="fill:#9013fe;fill-opacity:1;fill-rule:nonzero;stroke:none" />
    </g>
    <g
       id="g23"
       aria-label="S&#10;g"
       transform="matrix(1.3333333,0,0,1.3333333,46.465333,153.516)">
      <path
         id="path24"
         d="m 6.4215078,-6.9260625 c 0,-0.023437 -0.011719,-0.09375 -0.1054687,-0.09375 -0.046875,0 -0.058594,0.011719 -0.1757813,0.140625 l -0.4804687,0.5742187 c -0.2578125,-0.46875 -0.7734375,-0.7148437 -1.4296875,-0.7148437 -1.265625,0 -2.4609375,1.1367187 -2.4609375,2.34375 0,0.8085937 0.5273437,1.265625 1.0429687,1.4179687 l 1.0664063,0.28125 c 0.3632812,0.082031 0.9140625,0.234375 0.9140625,1.0546875 0,0.890625 -0.8203125,1.82812505 -1.7929688,1.82812505 -0.6445312,0 -1.7460937,-0.2109375 -1.7460937,-1.45312505 0,-0.234375 0.046875,-0.4804687 0.058594,-0.5390625 0.011719,-0.035156 0.023437,-0.046875 0.023437,-0.070312 0,-0.09375 -0.070312,-0.1054687 -0.1171875,-0.1054687 -0.058594,0 -0.070312,0.011719 -0.1054687,0.035156 -0.035156,0.046875 -0.59765629,2.32031255 -0.59765629,2.34375005 0,0.0585937 0.046875,0.10546875 0.1171875,0.10546875 0.046875,0 0.0585938,-0.0117188 0.17578125,-0.15234375 L 1.3004141,-0.5041875 C 1.7222891,0.08175 2.4019766,0.222375 2.9761953,0.222375 c 1.359375,0 2.53125,-1.3242188 2.53125,-2.5664063 0,-0.6796875 -0.3398437,-1.0195312 -0.4921875,-1.1601562 -0.2226562,-0.234375 -0.375,-0.2695313 -1.265625,-0.5039063 -0.2109375,-0.058594 -0.5742187,-0.1523437 -0.65625,-0.1757812 -0.2695312,-0.09375 -0.609375,-0.375 -0.609375,-0.9023438 0,-0.8085937 0.796875,-1.6523437 1.734375,-1.6523437 0.8320313,0 1.4414063,0.421875 1.4414063,1.5351562 0,0.3164063 -0.046875,0.5039063 -0.046875,0.5625 0,0.011719 0,0.09375 0.1289062,0.09375 0.09375,0 0.1054688,-0.023437 0.140625,-0.1992187 z m 0,0"
         style="fill:#9013fe;fill-opacity:1;fill-rule:nonzero;stroke:none" />
      <path
         id="path25"
         d="m 9.822875,-1.0842656 c 0.023437,-0.09375 0.023437,-0.1289063 0.023437,-0.140625 0,-0.1523438 -0.1289063,-0.2226563 -0.234375,-0.2226563 -0.1640625,0 -0.2929688,0.1289063 -0.328125,0.2695313 -0.117187,-0.1992188 -0.351562,-0.3984375 -0.7148433,-0.3984375 -0.8671875,0 -1.78125,0.92578122 -1.78125,1.92187497 0,0.72656253 0.4804688,1.14843753 1.0546875,1.14843753 0.328125,0 0.6328125,-0.1640625 0.8789063,-0.375 L 8.55725,1.7399531 C 8.4869375,2.0329219 8.4400625,2.2204219 8.1705312,2.4665156 7.8658437,2.7243281 7.5611562,2.7243281 7.385375,2.7243281 c -0.3164063,0 -0.4101563,-0.023437 -0.5273438,-0.046875 0.1757813,-0.09375 0.2226563,-0.2578125 0.2226563,-0.3515625 0,-0.1640625 -0.140625,-0.2578125 -0.2695313,-0.2578125 -0.1992187,0 -0.3984375,0.1523438 -0.3984375,0.421875 0,0.421875 0.5976563,0.421875 0.984375,0.421875 1.0898438,0 1.5585938,-0.5507812 1.6640625,-0.9492187 z M 8.8502187,0.56807812 C 8.8267812,0.67354687 8.8267812,0.68526562 8.7095937,0.82589062 8.4635,1.1188594 8.135375,1.2946406 7.8658437,1.2946406 7.5142812,1.2946406 7.3385,1.0016719 7.3385,0.63839062 c 0,-0.3046875 0.1875,-1.08984375 0.375,-1.39453125 0.2929687,-0.49218747 0.6210937,-0.63281247 0.8554687,-0.63281247 0.4921875,0 0.6210938,0.52734372 0.6210938,0.59765622 0,0.0117188 0,0.0234375 -0.023437,0.10546875 z m 0,0"
         style="fill:#9013fe;fill-opacity:1;fill-rule:nonzero;stroke:none" />
    </g>
    <g
       id="g25"
       aria-label="g∈G&lt;SO(3)"
       transform="matrix(1.3333333,0,0,1.3333333,172.656,31.490667)">
      <path
         id="path26"
         d="m 4.6876875,-3.7488594 c 0.011719,-0.070312 0.035156,-0.1171875 0.035156,-0.1875 0,-0.1640625 -0.1171875,-0.2695312 -0.2929688,-0.2695312 -0.09375,0 -0.3632812,0.070312 -0.4101562,0.4335937 -0.1757813,-0.375 -0.5273438,-0.6328125 -0.9257813,-0.6328125 -1.1367187,0 -2.3671875,1.3945313 -2.3671875,2.8359375 0,0.98437503 0.609375,1.57031253 1.3242188,1.57031253 0.5859375,0 1.0546875,-0.46875 1.1601562,-0.57421875 l 0.011719,0.0117188 c -0.2109375,0.87890625 -0.328125,1.2890625 -0.328125,1.3125 C 2.8478438,0.83317188 2.508,1.8292656 1.4533125,1.8292656 c -0.1875,0 -0.515625,-0.011719 -0.796875,-0.1054687 0.3046875,-0.09375 0.4101563,-0.3515625 0.4101563,-0.515625 0,-0.1640625 -0.1054688,-0.35156252 -0.37500005,-0.35156252 -0.22265625,0 -0.5390625,0.17578122 -0.5390625,0.57421872 0,0.4101563 0.36328125,0.609375 1.32421875,0.609375 1.2421875,0 1.9570313,-0.7734375 2.109375,-1.37109372 z M 3.398625,-1.2762031 c -0.058594,0.2578125 -0.2929687,0.51562498 -0.5039062,0.70312498 -0.2109375,0.17578125 -0.5273438,0.3515625 -0.8085938,0.3515625 -0.5039062,0 -0.65625,-0.515625 -0.65625,-0.91406248 0,-0.4804688 0.2929688,-1.6523438 0.5625,-2.15625 0.2695313,-0.4921875 0.703125,-0.890625 1.1132813,-0.890625 0.65625,0 0.796875,0.8085937 0.796875,0.8554687 0,0.046875 -0.011719,0.1054688 -0.023437,0.1523438 z m 0,0"
         style="fill:#808080;fill-opacity:1;fill-rule:nonzero;stroke:none" />
      <path
         id="path27"
         d="m 13.339055,-2.2957344 c 0.164062,0 0.351562,0 0.351562,-0.1992187 0,-0.1992188 -0.1875,-0.1992188 -0.351562,-0.1992188 H 9.1085859 c 0.1289063,-1.3242187 1.2656251,-2.2851562 2.6718751,-2.2851562 h 1.558594 c 0.164062,0 0.351562,0 0.351562,-0.1992188 0,-0.1992187 -0.1875,-0.1992187 -0.351562,-0.1992187 h -1.570313 c -1.710937,0 -3.0585936,1.2890625 -3.0585936,2.8828125 0,1.59374998 1.3476566,2.89453123 3.0585936,2.89453123 h 1.570313 c 0.164062,0 0.351562,0 0.351562,-0.19921875 0,-0.19921875 -0.1875,-0.19921875 -0.351562,-0.19921875 h -1.558594 c -1.40625,0 -2.5429688,-0.9609375 -2.6718751,-2.29687503 z m 0,0"
         style="fill:#808080;fill-opacity:1;fill-rule:nonzero;stroke:none" />
      <path
         id="path28"
         d="m 24.855656,-6.9246406 c 0,-0.023437 -0.02344,-0.09375 -0.105468,-0.09375 -0.03516,0 -0.04687,0.011719 -0.152344,0.1171875 l -0.703125,0.7617187 c -0.08203,-0.140625 -0.539063,-0.8789062 -1.652344,-0.8789062 -2.214844,0 -4.453125,2.203125 -4.453125,4.5117187 0,1.58203128 1.101563,2.73046878 2.71875,2.73046878 0.433594,0 0.878906,-0.09375 1.242188,-0.24609375 0.492187,-0.19921875 0.679687,-0.41015625 0.867187,-0.609375 0.08203,0.2578125 0.351563,0.62109375 0.445313,0.62109375 0.04687,0 0.07031,-0.0234375 0.07031,-0.03515625 0.02344,-0.0234375 0.117188,-0.3984375 0.164063,-0.609375 l 0.199218,-0.77343753 c 0.03516,-0.1640625 0.08203,-0.328125 0.128907,-0.5039062 0.105468,-0.4453125 0.117187,-0.46875 0.679687,-0.4804688 0.05859,0 0.164063,-0.011719 0.164063,-0.1992187 0,-0.070312 -0.04687,-0.1054688 -0.128907,-0.1054688 -0.234375,0 -0.820312,0.023437 -1.042968,0.023437 -0.316407,0 -1.089844,-0.023437 -1.394532,-0.023437 -0.09375,0 -0.210937,0 -0.210937,0.1992188 0,0.1054687 0.08203,0.1054687 0.292969,0.1054687 0.01172,0 0.304687,0 0.527343,0.023437 0.257813,0.035156 0.316407,0.058594 0.316407,0.1875 0,0.09375 -0.117188,0.5390625 -0.210938,0.9023438 -0.28125,1.10156248 -1.582031,1.20703123 -1.921875,1.20703123 -0.960937,0 -2.003906,-0.5625 -2.003906,-2.08593753 0,-0.3164062 0.09375,-1.9570312 1.148437,-3.2460937 0.539063,-0.6796875 1.5,-1.2890625 2.484375,-1.2890625 1.019532,0 1.605469,0.7734375 1.605469,1.921875 0,0.3984375 -0.03516,0.4101562 -0.03516,0.5039062 0,0.1054688 0.117187,0.1054688 0.152344,0.1054688 0.128906,0 0.128906,-0.023437 0.175781,-0.1992188 z m 9.747071,1.96875 c 0.117187,-0.058594 0.1875,-0.1171875 0.1875,-0.2226563 0,-0.1054687 -0.09375,-0.1992187 -0.199219,-0.1992187 -0.03516,0 -0.04687,0 -0.175781,0.070312 l -5.519532,2.6015625 c -0.117187,0.046875 -0.1875,0.09375 -0.1875,0.2109375 0,0.1289062 0.07031,0.1757812 0.1875,0.2226562 l 5.519532,2.60156253 c 0.128906,0.0703125 0.140625,0.0703125 0.175781,0.0703125 0.105469,0 0.199219,-0.09375 0.199219,-0.19921875 0,-0.10546875 -0.07031,-0.1640625 -0.1875,-0.22265625 L 29.376164,-2.4949531 Z m 10.207031,-1.96875 c 0,-0.023437 -0.01172,-0.09375 -0.105469,-0.09375 -0.04687,0 -0.05859,0.011719 -0.175781,0.140625 l -0.480469,0.5742187 c -0.257812,-0.46875 -0.773437,-0.7148437 -1.429687,-0.7148437 -1.265625,0 -2.460938,1.1367187 -2.460938,2.34375 0,0.8085937 0.527344,1.265625 1.042969,1.4179687 l 1.066406,0.28125 c 0.363281,0.082031 0.914063,0.234375 0.914063,1.0546875 0,0.890625 -0.820313,1.82812503 -1.792969,1.82812503 -0.644531,0 -1.746094,-0.2109375 -1.746094,-1.45312503 0,-0.234375 0.04687,-0.4804687 0.05859,-0.5390625 0.01172,-0.035156 0.02344,-0.046875 0.02344,-0.070312 0,-0.09375 -0.07031,-0.1054687 -0.117187,-0.1054687 -0.05859,0 -0.07031,0.011719 -0.105469,0.035156 -0.03516,0.046875 -0.597656,2.32031253 -0.597656,2.34375003 0,0.0585938 0.04687,0.10546875 0.117187,0.10546875 0.04687,0 0.05859,-0.0117188 0.175782,-0.15234375 l 0.492187,-0.57421875 c 0.421875,0.5859375 1.101563,0.7265625 1.675781,0.7265625 1.359375,0 2.53125,-1.32421878 2.53125,-2.56640628 0,-0.6796875 -0.339843,-1.0195312 -0.492187,-1.1601562 -0.222656,-0.234375 -0.375,-0.2695313 -1.265625,-0.5039063 -0.210938,-0.058594 -0.574219,-0.1523437 -0.65625,-0.1757812 -0.269531,-0.09375 -0.609375,-0.375 -0.609375,-0.9023438 0,-0.8085937 0.796875,-1.6523437 1.734375,-1.6523437 0.832031,0 1.441406,0.421875 1.441406,1.5351562 0,0.3164063 -0.04687,0.5039063 -0.04687,0.5625 0,0.011719 0,0.09375 0.128906,0.09375 0.09375,0 0.105469,-0.023437 0.140625,-0.1992187 z m 7.631836,2.578125 c 0,-1.59375 -1.054688,-2.671875 -2.542969,-2.671875 -2.144531,0 -4.335937,2.2617187 -4.335937,4.5820312 0,1.65234378 1.113281,2.66015628 2.542968,2.66015628 2.109375,0 4.335938,-2.17968748 4.335938,-4.57031248 z m -4.277344,4.31249998 c -0.984375,0 -1.675781,-0.80859375 -1.675781,-2.12109378 0,-0.4453125 0.140625,-1.8984375 0.902344,-3.0585937 0.691406,-1.0429688 1.664062,-1.5585938 2.449218,-1.5585938 0.820313,0 1.710938,0.5625 1.710938,2.0390625 0,0.7148438 -0.269531,2.2734375 -1.253906,3.5039063 -0.480469,0.59765623 -1.289063,1.19531248 -2.132813,1.19531248 z m 0,0"
         style="fill:#808080;fill-opacity:1;fill-rule:nonzero;stroke:none" />
      <path
         id="path29"
         d="m 56.256047,2.3917656 c 0,-0.035156 0,-0.046875 -0.164063,-0.2226562 -1.242187,-1.25390627 -1.570312,-3.12890627 -1.570312,-4.6640625 0,-1.7226563 0.386719,-3.4570313 1.605469,-4.7109375 0.128906,-0.1171875 0.128906,-0.1289063 0.128906,-0.1640625 0,-0.070312 -0.03516,-0.1054688 -0.09375,-0.1054688 -0.105469,0 -0.996094,0.6796875 -1.582031,1.9453125 -0.515625,1.1015625 -0.632813,2.203125 -0.632813,3.0351563 0,0.7851562 0.117188,1.99218748 0.65625,3.11718748 0.597656,1.21875002 1.453125,1.87500002 1.558594,1.87500002 0.05859,0 0.09375,-0.035156 0.09375,-0.1054688 z m 3.46582,-5.8945312 c 0.808594,-0.2695313 1.394531,-0.9726563 1.394531,-1.7578125 0,-0.8203125 -0.878906,-1.3710938 -1.839843,-1.3710938 -1.007813,0 -1.757813,0.5976563 -1.757813,1.3476563 0,0.3398437 0.210938,0.5273437 0.503906,0.5273437 0.304688,0 0.503907,-0.2226562 0.503907,-0.515625 0,-0.4921875 -0.46875,-0.4921875 -0.609375,-0.4921875 0.304687,-0.4921875 0.960937,-0.6210937 1.324218,-0.6210937 0.410157,0 0.949219,0.2226562 0.949219,1.1132812 0,0.1289063 -0.01172,0.703125 -0.269531,1.1367188 -0.304688,0.4804687 -0.644531,0.515625 -0.890625,0.515625 -0.08203,0.011719 -0.316406,0.035156 -0.386719,0.035156 -0.08203,0.011719 -0.152344,0.023437 -0.152344,0.1171875 0,0.1171875 0.07031,0.1171875 0.234375,0.1171875 h 0.445313 c 0.808594,0 1.183594,0.6679688 1.183594,1.6523438 0,1.34765623 -0.691407,1.64062498 -1.125,1.64062498 -0.433594,0 -1.171875,-0.17578125 -1.523438,-0.76171875 0.351563,0.0585938 0.65625,-0.1640625 0.65625,-0.53906253 0,-0.3632812 -0.269531,-0.5625 -0.5625,-0.5625 -0.234375,0 -0.550781,0.140625 -0.550781,0.5742188 0,0.91406248 0.925781,1.57031248 2.003906,1.57031248 1.21875,0 2.121094,-0.9140625 2.121094,-1.92187498 0,-0.8203125 -0.621094,-1.59375 -1.652344,-1.8046873 z m 4.96875,1.0078125 c 0,-0.7734375 -0.117187,-1.9804688 -0.65625,-3.1054688 -0.597656,-1.21875 -1.464844,-1.875 -1.558594,-1.875 -0.05859,0 -0.105468,0.046875 -0.105468,0.1054688 0,0.035156 0,0.046875 0.199218,0.234375 0.972657,0.984375 1.535157,2.5664062 1.535157,4.640625 0,1.71093748 -0.363282,3.45703123 -1.59375,4.7226562 -0.140625,0.1171875 -0.140625,0.1289063 -0.140625,0.1640625 0,0.058594 0.04687,0.1054688 0.105468,0.1054688 0.09375,0 0.996094,-0.6796875 1.582032,-1.94531252 0.503906,-1.1015625 0.632812,-2.20312498 0.632812,-3.04687498 z m 0,0"
         style="fill:#808080;fill-opacity:1;fill-rule:nonzero;stroke:none" />
    </g>
    <g
       id="g29"
       aria-label="N&#10;g&#10;′"
       transform="matrix(1.3333333,0,0,1.3333333,98.576,145.01733)">
      <path
         id="path30"
         d="m 7.5338203,-5.7551875 c 0.09375,-0.3984375 0.2695313,-0.7148437 1.0664063,-0.7382812 0.058594,0 0.1757812,-0.011719 0.1757812,-0.1992188 0,-0.011719 0,-0.1171875 -0.1289062,-0.1171875 -0.328125,0 -0.6796875,0.035156 -1.0078125,0.035156 -0.3398438,0 -0.6914063,-0.035156 -1.0195313,-0.035156 -0.058594,0 -0.1757812,0 -0.1757812,0.1992188 0,0.1171875 0.09375,0.1171875 0.1757812,0.1171875 0.5742188,0.011719 0.6796875,0.2109375 0.6796875,0.4335937 0,0.035156 -0.023437,0.1757813 -0.023437,0.2109375 l -1.125,4.4296875 -2.203125,-5.1914062 C 3.8775703,-6.7981562 3.8658516,-6.809875 3.6314766,-6.809875 H 2.2955391 c -0.1992188,0 -0.28125,0 -0.28125,0.1992188 0,0.1171875 0.082031,0.1171875 0.28125,0.1171875 0.046875,0 0.6679687,0 0.6679687,0.082031 l -1.3359375,5.3554688 c -0.09375,0.39843745 -0.2695312,0.7148437 -1.06640624,0.74999995 -0.0585938,0 -0.17578125,0 -0.17578125,0.19921875 0,0.0703125 0.046875,0.10546875 0.12890625,0.10546875 0.31640625,0 0.66796874,-0.03515625 0.99609374,-0.03515625 0.3398438,0 0.703125,0.03515625 1.03125,0.03515625 0.046875,0 0.1757813,0 0.1757813,-0.19921875 0,-0.10546875 -0.09375,-0.10546875 -0.1992188,-0.10546875 -0.5742187,-0.0234375 -0.65625,-0.24609375 -0.65625,-0.4453125 0,-0.0703125 0.011719,-0.1171875 0.035156,-0.22265625 L 3.22132,-6.2356564 c 0.035156,0.058594 0.035156,0.082031 0.082031,0.1757812 l 2.484375,5.87109375 c 0.070312,0.1640625 0.09375,0.1875 0.1875,0.1875 0.1054687,0 0.1054687,-0.03515625 0.1640625,-0.2109375 z m 0,0"
         style="fill:#8b572a;fill-opacity:1;fill-rule:nonzero;stroke:none" />
      <path
         id="path31"
         d="m 11.720344,-1.0852656 c 0.02344,-0.09375 0.02344,-0.1289063 0.02344,-0.140625 0,-0.1523438 -0.128906,-0.2226563 -0.234375,-0.2226563 -0.164062,0 -0.292968,0.1289063 -0.328125,0.2695313 -0.117187,-0.1992188 -0.351562,-0.3984375 -0.714843,-0.3984375 -0.867188,0 -1.7812505,0.92578123 -1.7812505,1.92187498 0,0.72656252 0.4804688,1.14843752 1.0546875,1.14843752 0.328125,0 0.632813,-0.1640625 0.878906,-0.375 L 10.454719,1.7389531 C 10.384406,2.0319219 10.337531,2.2194219 10.068,2.4655156 9.7633125,2.7233281 9.458625,2.7233281 9.2828438,2.7233281 c -0.3164063,0 -0.4101563,-0.023437 -0.5273438,-0.046875 0.1757813,-0.09375 0.2226563,-0.2578125 0.2226563,-0.3515625 0,-0.1640625 -0.140625,-0.2578125 -0.2695313,-0.2578125 -0.1992187,0 -0.3984375,0.1523438 -0.3984375,0.421875 0,0.421875 0.5976563,0.421875 0.984375,0.421875 1.0898435,0 1.5585935,-0.5507812 1.6640625,-0.9492187 z m -0.972656,1.65234373 c -0.02344,0.10546875 -0.02344,0.1171875 -0.140625,0.2578125 -0.246094,0.29296877 -0.574219,0.46874997 -0.8437505,0.46874997 -0.3515625,0 -0.5273437,-0.2929687 -0.5273437,-0.65624997 0,-0.3046875 0.1875,-1.08984375 0.375,-1.39453125 0.2929687,-0.49218748 0.6210942,-0.63281248 0.8554692,-0.63281248 0.492187,0 0.621093,0.52734373 0.621093,0.59765623 0,0.0117188 0,0.0234375 -0.02344,0.10546875 z m 0,0"
         style="fill:#8b572a;fill-opacity:1;fill-rule:nonzero;stroke:none" />
      <path
         id="path32"
         d="m 13.935188,-2.8196406 c 0,0 0.04687,-0.09375 0.04687,-0.1757813 0,-0.1757812 -0.152344,-0.2929687 -0.304688,-0.2929687 -0.210937,0 -0.257812,0.1640625 -0.28125,0.234375 l -0.773437,2.15624998 c -0.01172,0.0585938 -0.01172,0.0703125 -0.01172,0.0820313 0,0.0820313 0.199219,0.12890625 0.210937,0.12890625 0.04687,0 0.04687,-0.0234375 0.08203,-0.0820313 z m 0,0"
         style="fill:#8b572a;fill-opacity:1;fill-rule:nonzero;stroke:none" />
    </g>
    <g
       id="g32"
       aria-label="S&#10;g&#10;′"
       transform="matrix(1.3333333,0,0,1.3333333,53.482667,106.43067)">
      <path
         id="path33"
         d="m 6.4231562,-6.9265156 c 0,-0.023437 -0.011719,-0.09375 -0.1054687,-0.09375 -0.046875,0 -0.058594,0.011719 -0.1757813,0.140625 L 5.6614375,-6.3054219 C 5.403625,-6.7741719 4.888,-7.0202656 4.23175,-7.0202656 c -1.265625,0 -2.4609375,1.1367187 -2.4609375,2.34375 0,0.8085937 0.5273437,1.265625 1.0429687,1.4179687 l 1.0664063,0.28125 c 0.3632812,0.082031 0.9140625,0.234375 0.9140625,1.0546875 0,0.890625 -0.8203125,1.82812503 -1.7929688,1.82812503 -0.6445312,0 -1.7460937,-0.2109375 -1.7460937,-1.45312503 0,-0.234375 0.046875,-0.4804687 0.058594,-0.5390625 0.011719,-0.035156 0.023437,-0.046875 0.023437,-0.070312 0,-0.09375 -0.070312,-0.1054687 -0.1171875,-0.1054687 -0.058594,0 -0.070312,0.011719 -0.1054687,0.035156 -0.035156,0.046875 -0.59765625,2.32031253 -0.59765625,2.34375003 0,0.0585937 0.046875,0.10546875 0.1171875,0.10546875 0.046875,0 0.0585938,-0.0117188 0.17578125,-0.15234375 l 0.4921875,-0.57421875 c 0.421875,0.5859375 1.1015625,0.7265625 1.6757812,0.7265625 1.359375,0 2.53125,-1.32421878 2.53125,-2.56640628 0,-0.6796875 -0.3398437,-1.0195312 -0.4921875,-1.1601562 -0.2226562,-0.234375 -0.375,-0.2695313 -1.265625,-0.5039063 -0.2109375,-0.058594 -0.5742187,-0.1523437 -0.65625,-0.1757812 -0.2695312,-0.09375 -0.609375,-0.375 -0.609375,-0.9023438 0,-0.8085937 0.796875,-1.6523437 1.734375,-1.6523437 0.8320313,0 1.4414063,0.421875 1.4414063,1.5351562 0,0.3164063 -0.046875,0.5039063 -0.046875,0.5625 0,0.011719 0,0.09375 0.1289062,0.09375 0.09375,0 0.1054688,-0.023437 0.140625,-0.1992187 z m 0,0"
         style="fill:#8b572a;fill-opacity:1;fill-rule:nonzero;stroke:none" />
      <path
         id="path34"
         d="m 9.8245234,-1.0847187 c 0.023437,-0.09375 0.023437,-0.1289063 0.023437,-0.140625 0,-0.1523438 -0.1289062,-0.2226563 -0.234375,-0.2226563 -0.1640625,0 -0.2929687,0.1289063 -0.328125,0.2695313 -0.1171875,-0.1992188 -0.3515625,-0.3984375 -0.7148437,-0.3984375 -0.8671875,0 -1.78125,0.9257812 -1.78125,1.92187495 0,0.72656255 0.4804687,1.14843755 1.0546875,1.14843755 0.328125,0 0.6328125,-0.1640625 0.8789062,-0.375 L 8.5588984,1.7395 C 8.4885859,2.0324688 8.4417109,2.2199688 8.1721797,2.4660625 7.8674922,2.723875 7.5628047,2.723875 7.3870234,2.723875 7.0706172,2.723875 6.9768672,2.7004375 6.8596797,2.677 7.0354609,2.58325 7.0823359,2.4191875 7.0823359,2.3254375 c 0,-0.1640625 -0.140625,-0.2578125 -0.2695312,-0.2578125 -0.1992188,0 -0.3984375,0.1523438 -0.3984375,0.421875 0,0.421875 0.5976562,0.421875 0.984375,0.421875 1.0898437,0 1.5585937,-0.5507812 1.6640625,-0.9492187 z M 8.8518672,0.567625 c -0.023437,0.10546875 -0.023437,0.1171875 -0.140625,0.2578125 -0.2460938,0.2929688 -0.5742188,0.46875 -0.84375,0.46875 -0.3515625,0 -0.5273438,-0.2929687 -0.5273438,-0.65625 0,-0.3046875 0.1875,-1.08984375 0.375,-1.39453125 0.2929688,-0.49218745 0.6210938,-0.63281245 0.8554688,-0.63281245 0.4921875,0 0.6210937,0.5273437 0.6210937,0.5976562 0,0.0117188 0,0.0234375 -0.023437,0.10546875 z m 0,0"
         style="fill:#8b572a;fill-opacity:1;fill-rule:nonzero;stroke:none" />
      <path
         id="path35"
         d="m 12.039367,-2.8190937 c 0,0 0.04687,-0.09375 0.04687,-0.1757813 0,-0.1757812 -0.152344,-0.2929687 -0.304687,-0.2929687 -0.210938,0 -0.257813,0.1640625 -0.28125,0.234375 l -0.773438,2.15624995 c -0.01172,0.0585938 -0.01172,0.0703125 -0.01172,0.0820313 0,0.0820313 0.199219,0.12890625 0.210938,0.12890625 0.04687,0 0.04687,-0.0234375 0.08203,-0.0820313 z m 0,0"
         style="fill:#8b572a;fill-opacity:1;fill-rule:nonzero;stroke:none" />
    </g>
  </g>
</svg>
