<?xml version="1.0" encoding="UTF-8" standalone="no"?>
<!-- Created with Inkscape (http://www.inkscape.org/) -->

<svg
   version="1.1"
   id="svg1"
   width="425.46667"
   height="219.70667"
   viewBox="0 0 425.46667 219.70667"
   sodipodi:docname="U(1)_3-in-R3-2.pdf"
   xmlns:inkscape="http://www.inkscape.org/namespaces/inkscape"
   xmlns:sodipodi="http://sodipodi.sourceforge.net/DTD/sodipodi-0.dtd"
   xmlns="http://www.w3.org/2000/svg"
   xmlns:svg="http://www.w3.org/2000/svg">
  <defs
     id="defs1" />
  <sodipodi:namedview
     id="namedview1"
     pagecolor="#ffffff"
     bordercolor="#000000"
     borderopacity="0.25"
     inkscape:showpageshadow="2"
     inkscape:pageopacity="0.0"
     inkscape:pagecheckerboard="0"
     inkscape:deskcolor="#d1d1d1">
    <inkscape:page
       x="0"
       y="0"
       inkscape:label="1"
       id="page1"
       width="425.46667"
       height="219.70667"
       margin="0"
       bleed="0" />
  </sodipodi:namedview>
  <g
     id="g1"
     inkscape:groupmode="layer"
     inkscape:label="1">
    <path
       id="path1"
       d="m 192.47984,-94.47202 c 0,31.37734 25.43558,56.81293 56.81293,56.81293 31.37735,0 56.81294,-25.43559 56.81294,-56.81293 0,-31.37735 -25.43559,-56.81294 -56.81294,-56.81294 -31.37735,0 -56.81293,25.43559 -56.81293,56.81294 z"
       style="fill:#4a90e2;fill-opacity:0.2;fill-rule:nonzero;stroke:#4a90e2;stroke-width:1.49442;stroke-linecap:butt;stroke-linejoin:miter;stroke-miterlimit:10;stroke-dasharray:none;stroke-opacity:1"
       transform="matrix(1.3333333,0,0,-1.3333333,-22.834667,-16.209333)" />
    <path
       id="path2"
       d="m 192.47984,-94.47202 c 0,1.7208 25.43558,3.11211 56.81293,3.11211 31.37735,0 56.81294,-1.39131 56.81294,-3.11211 0,-1.72082 -25.43559,-3.11212 -56.81294,-3.11212 -31.37735,0 -56.81293,1.3913 -56.81293,3.11212 z"
       style="fill:#4a90e2;fill-opacity:0.4;fill-rule:nonzero;stroke:#4a90e2;stroke-width:0.74721;stroke-linecap:butt;stroke-linejoin:miter;stroke-miterlimit:10;stroke-dasharray:none;stroke-opacity:1"
       transform="matrix(1.3333333,0,0,-1.3333333,-22.834667,-16.209333)" />
    <path
       id="path3"
       d="m 247.98517,-94.47202 c 0,0.72181 0.5858,1.30761 1.3076,1.30761 0.7218,0 1.3076,-0.5858 1.3076,-1.30761 0,-0.7218 -0.5858,-1.30761 -1.3076,-1.30761 -0.7218,0 -1.3076,0.58581 -1.3076,1.30761 z"
       style="fill:#9b9b9b;fill-opacity:1;fill-rule:nonzero;stroke:#9b9b9b;stroke-width:0.74721;stroke-linecap:butt;stroke-linejoin:miter;stroke-miterlimit:10;stroke-dasharray:none;stroke-opacity:1"
       transform="matrix(1.3333333,0,0,-1.3333333,-22.834667,-16.209333)" />
    <path
       id="path4"
       d="M 249.29277,-12.52687 V -94.47202"
       style="fill:none;stroke:#9b9b9b;stroke-width:0.74721;stroke-linecap:butt;stroke-linejoin:miter;stroke-miterlimit:10;stroke-dasharray:none;stroke-opacity:1"
       transform="matrix(1.3333333,0,0,-1.3333333,-22.834667,-16.209333)" />
    <path
       id="path5"
       d="M 323.15692,-94.47202 H 249.29277"
       style="fill:none;stroke:#9b9b9b;stroke-width:0.74721;stroke-linecap:butt;stroke-linejoin:miter;stroke-miterlimit:10;stroke-dasharray:none;stroke-opacity:1"
       transform="matrix(1.3333333,0,0,-1.3333333,-22.834667,-16.209333)" />
    <path
       id="path6"
       d="m 249.29277,-94.47202 -64.21922,-64.21922"
       style="fill:none;stroke:#9b9b9b;stroke-width:0.74721;stroke-linecap:butt;stroke-linejoin:miter;stroke-miterlimit:10;stroke-dasharray:none;stroke-opacity:1"
       transform="matrix(1.3333333,0,0,-1.3333333,-22.834667,-16.209333)" />
    <path
       id="path7"
       d="M 249.29277,-37.65909 V -94.47202"
       style="fill:none;stroke:#9013fe;stroke-width:1.49442;stroke-linecap:butt;stroke-linejoin:miter;stroke-miterlimit:10;stroke-dasharray:none;stroke-opacity:1"
       transform="matrix(1.3333333,0,0,-1.3333333,-22.834667,-16.209333)" />
    <path
       id="path8"
       d="m 28.22339,-94.49817 c 0,31.37737 25.43558,56.81294 56.81294,56.81294 31.37735,0 56.81293,-25.43557 56.81293,-56.81294 0,-31.37735 -25.43558,-56.81294 -56.81293,-56.81294 -31.37736,0 -56.81294,25.43559 -56.81294,56.81294 z"
       style="fill:#4a90e2;fill-opacity:0.2;fill-rule:nonzero;stroke:#4a90e2;stroke-width:1.49442;stroke-linecap:butt;stroke-linejoin:miter;stroke-miterlimit:10;stroke-dasharray:none;stroke-opacity:1"
       transform="matrix(1.3333333,0,0,-1.3333333,-22.834667,-16.209333)" />
    <path
       id="path9"
       d="m 28.22339,-94.49817 c 0,1.72081 25.43558,3.11211 56.81294,3.11211 31.37735,0 56.81293,-1.3913 56.81293,-3.11211 0,-1.72081 -25.43558,-3.11212 -56.81293,-3.11212 -31.37736,0 -56.81294,1.39131 -56.81294,3.11212 z"
       style="fill:#4a90e2;fill-opacity:0.4;fill-rule:nonzero;stroke:#4a90e2;stroke-width:0.74721;stroke-linecap:butt;stroke-linejoin:miter;stroke-miterlimit:10;stroke-dasharray:none;stroke-opacity:1"
       transform="matrix(1.3333333,0,0,-1.3333333,-22.834667,-16.209333)" />
    <path
       id="path10"
       d="m 83.72871,-94.49817 c 0,0.7218 0.58582,1.30762 1.30762,1.30762 0.72179,0 1.3076,-0.58582 1.3076,-1.30762 0,-0.7218 -0.58581,-1.30762 -1.3076,-1.30762 -0.7218,0 -1.30762,0.58582 -1.30762,1.30762 z"
       style="fill:#9b9b9b;fill-opacity:1;fill-rule:nonzero;stroke:#9b9b9b;stroke-width:0.74721;stroke-linecap:butt;stroke-linejoin:miter;stroke-miterlimit:10;stroke-dasharray:none;stroke-opacity:1"
       transform="matrix(1.3333333,0,0,-1.3333333,-22.834667,-16.209333)" />
    <path
       id="path11"
       d="M 85.03633,-12.55302 V -94.49817"
       style="fill:none;stroke:#9b9b9b;stroke-width:0.74721;stroke-linecap:butt;stroke-linejoin:miter;stroke-miterlimit:10;stroke-dasharray:none;stroke-opacity:1"
       transform="matrix(1.3333333,0,0,-1.3333333,-22.834667,-16.209333)" />
    <path
       id="path12"
       d="m 83.20567,-37.68523 c 0,1.00946 0.82117,1.83065 1.83066,1.83065 1.01471,0 1.83064,-0.82119 1.83064,-1.83065 0,-1.00947 -0.81593,-1.83065 -1.83064,-1.83065 -1.00949,0 -1.83066,0.82118 -1.83066,1.83065 z"
       style="fill:#9013fe;fill-opacity:1;fill-rule:nonzero;stroke:#9013fe;stroke-width:0.74721;stroke-linecap:butt;stroke-linejoin:miter;stroke-miterlimit:10;stroke-dasharray:none;stroke-opacity:1"
       transform="matrix(1.3333333,0,0,-1.3333333,-22.834667,-16.209333)" />
    <path
       id="path13"
       d="M 158.90047,-94.49817 H 85.03633"
       style="fill:none;stroke:#9b9b9b;stroke-width:0.74721;stroke-linecap:butt;stroke-linejoin:miter;stroke-miterlimit:10;stroke-dasharray:none;stroke-opacity:1"
       transform="matrix(1.3333333,0,0,-1.3333333,-22.834667,-16.209333)" />
    <path
       id="path14"
       d="M 85.03633,-94.49817 20.8171,-158.7174"
       style="fill:none;stroke:#9b9b9b;stroke-width:0.74721;stroke-linecap:butt;stroke-linejoin:miter;stroke-miterlimit:10;stroke-dasharray:none;stroke-opacity:1"
       transform="matrix(1.3333333,0,0,-1.3333333,-22.834667,-16.209333)" />
    <path
       id="path15"
       d="M 95.17291,-42.08925 V -93.37363"
       style="fill:none;stroke:#000000;stroke-width:0.74721;stroke-linecap:butt;stroke-linejoin:miter;stroke-miterlimit:10;stroke-dasharray:none;stroke-opacity:1"
       transform="matrix(1.3333333,0,0,-1.3333333,-22.834667,-16.209333)" />
    <path
       id="path16"
       d="m 92.47925,-89.33575 2.69366,-5.60701 2.69365,5.60701 -2.69365,-1.88295 z"
       style="fill:#000000;fill-opacity:1;fill-rule:nonzero;stroke:#000000;stroke-width:0.0797;stroke-linecap:butt;stroke-linejoin:miter;stroke-miterlimit:10;stroke-dasharray:none;stroke-opacity:0"
       transform="matrix(1.3333333,0,0,-1.3333333,-22.834667,-16.209333)" />
    <path
       id="path17"
       d="m 97.86656,-46.12712 -2.69365,5.60699 -2.69366,-5.60699 2.69366,1.88293 z"
       style="fill:#000000;fill-opacity:1;fill-rule:nonzero;stroke:#000000;stroke-width:0.0797;stroke-linecap:butt;stroke-linejoin:miter;stroke-miterlimit:10;stroke-dasharray:none;stroke-opacity:0"
       transform="matrix(1.3333333,0,0,-1.3333333,-22.834667,-16.209333)" />
    <path
       id="path18"
       d="M 85.03633,-37.68523 V -94.49817"
       style="fill:none;stroke:#9013fe;stroke-width:1.49442;stroke-linecap:butt;stroke-linejoin:miter;stroke-miterlimit:10;stroke-dasharray:none;stroke-opacity:1"
       transform="matrix(1.3333333,0,0,-1.3333333,-22.834667,-16.209333)" />
    <path
       id="path19"
       d="m 247.46211,-112.05672 c 0,1.00946 0.82119,1.83065 1.83066,1.83065 1.00948,0 1.83064,-0.82119 1.83064,-1.83065 0,-1.00948 -0.82116,-1.83065 -1.83064,-1.83065 -1.00947,0 -1.83066,0.82117 -1.83066,1.83065 z"
       style="fill:#9013fe;fill-opacity:1;fill-rule:nonzero;stroke:#9013fe;stroke-width:0.74721;stroke-linecap:butt;stroke-linejoin:miter;stroke-miterlimit:10;stroke-dasharray:none;stroke-opacity:1"
       transform="matrix(1.3333333,0,0,-1.3333333,-22.834667,-16.209333)" />
    <path
       id="path20"
       d="m 249.29277,-112.05672 v -39.22824"
       style="fill:none;stroke:#9013fe;stroke-width:1.49442;stroke-linecap:butt;stroke-linejoin:miter;stroke-miterlimit:10;stroke-dasharray:none;stroke-opacity:1"
       transform="matrix(1.3333333,0,0,-1.3333333,-22.834667,-16.209333)" />
    <g
       id="g20"
       aria-label="SU(2)⊂R&#10;3"
       transform="matrix(1.3333333,0,0,1.3333333,281.32667,215.35733)">
      <path
         id="path21"
         d="m 6.4229687,-6.9271797 c 0,-0.023437 -0.011719,-0.09375 -0.1054687,-0.09375 -0.046875,0 -0.058594,0.011719 -0.1757813,0.140625 L 5.66125,-6.3060859 c -0.2578125,-0.46875 -0.7734375,-0.7148438 -1.4296875,-0.7148438 -1.265625,0 -2.4609375,1.1367188 -2.4609375,2.34375 0,0.8085938 0.5273437,1.265625 1.0429687,1.4179688 L 3.88,-2.9779609 c 0.3632812,0.082031 0.9140625,0.234375 0.9140625,1.0546875 0,0.890625 -0.8203125,1.82812496 -1.7929688,1.82812496 -0.6445312,0 -1.7460937,-0.2109375 -1.7460937,-1.45312496 0,-0.234375 0.046875,-0.4804688 0.058594,-0.5390625 0.011719,-0.035156 0.023437,-0.046875 0.023437,-0.070312 0,-0.09375 -0.070312,-0.1054688 -0.1171875,-0.1054688 -0.058594,0 -0.070312,0.011719 -0.1054687,0.035156 -0.035156,0.046875 -0.59765625,2.32031246 -0.59765625,2.34374996 0,0.0585938 0.046875,0.10546875 0.1171875,0.10546875 0.046875,0 0.0585938,-0.0117188 0.17578125,-0.15234375 L 1.301875,-0.50530469 c 0.421875,0.5859375 1.1015625,0.7265625 1.6757812,0.7265625 1.359375,0 2.53125,-1.32421871 2.53125,-2.56640621 0,-0.6796875 -0.3398437,-1.0195313 -0.4921875,-1.1601563 -0.2226562,-0.234375 -0.375,-0.2695312 -1.265625,-0.5039062 -0.2109375,-0.058594 -0.5742187,-0.1523438 -0.65625,-0.1757813 -0.2695312,-0.09375 -0.609375,-0.375 -0.609375,-0.9023437 0,-0.8085938 0.796875,-1.6523438 1.734375,-1.6523438 0.8320313,0 1.4414063,0.421875 1.4414063,1.5351563 0,0.3164062 -0.046875,0.5039062 -0.046875,0.5625 0,0.011719 0,0.09375 0.1289062,0.09375 0.09375,0 0.1054688,-0.023437 0.140625,-0.1992188 z m 6.5800783,1.171875 c 0.09375,-0.4101562 0.28125,-0.7148437 1.078125,-0.7382812 0.04687,0 0.164062,-0.011719 0.164062,-0.1992188 0,-0.011719 0,-0.1171875 -0.128906,-0.1171875 -0.328125,0 -0.679687,0.035156 -1.019531,0.035156 -0.339844,0 -0.703125,-0.035156 -1.03125,-0.035156 -0.05859,0 -0.175781,0 -0.175781,0.1992188 0,0.1171875 0.09375,0.1171875 0.175781,0.1171875 0.5625,0.011719 0.679687,0.2109375 0.679687,0.4335937 0,0.035156 -0.02344,0.1757813 -0.03516,0.2109375 l -0.890625,3.5507813 c -0.339844,1.33593746 -1.488281,2.20312496 -2.4843749,2.20312496 -0.6796875,0 -1.21875,-0.43359375 -1.21875,-1.28906246 0,-0.023437 0,-0.3398438 0.1171875,-0.7734375 l 0.9609375,-3.8789063 c 0.09375,-0.3632812 0.1054688,-0.4570312 0.8320309,-0.4570312 0.269532,0 0.339844,0 0.339844,-0.1992188 0,-0.1171875 -0.105469,-0.1171875 -0.140625,-0.1171875 -0.2695311,0 -0.9960936,0.035156 -1.2656249,0.035156 -0.2929687,0 -0.9960937,-0.035156 -1.2890625,-0.035156 -0.082031,0 -0.1875,0 -0.1875,0.1992188 0,0.1171875 0.09375,0.1171875 0.28125,0.1171875 0.011719,0 0.2109375,0 0.375,0.011719 0.1757813,0.023437 0.2695313,0.035156 0.2695313,0.1640625 0,0.058594 -0.1054688,0.4804688 -0.1757813,0.703125 l -0.2109375,0.8789063 c -0.09375,0.3867187 -0.5742187,2.2734375 -0.609375,2.4609375 -0.070312,0.28125 -0.070312,0.4335937 -0.070312,0.5742187 0,1.21875001 0.9023438,1.92187501 1.9570313,1.92187501 1.2539056,0 2.4843746,-1.125 2.8124996,-2.44921871 z m 0,0"
         style="fill:#000000;fill-opacity:1;fill-rule:nonzero;stroke:none" />
      <path
         id="path22"
         d="m 17.866328,2.3892266 c 0,-0.035156 0,-0.046875 -0.164062,-0.2226563 -1.242188,-1.25390624 -1.570313,-3.12890624 -1.570313,-4.6640625 0,-1.7226562 0.386719,-3.4570312 1.605469,-4.7109375 0.128906,-0.1171875 0.128906,-0.1289062 0.128906,-0.1640625 0,-0.070312 -0.03516,-0.1054687 -0.09375,-0.1054687 -0.105469,0 -0.996094,0.6796875 -1.582031,1.9453125 -0.515625,1.1015625 -0.632813,2.203125 -0.632813,3.0351562 0,0.7851563 0.117188,1.99218751 0.65625,3.11718751 0.597657,1.21874999 1.453125,1.87499999 1.558594,1.87499999 0.05859,0 0.09375,-0.035156 0.09375,-0.1054687 z m 1.836914,-3.15234379 1.054688,-1.03125001 c 1.558593,-1.3710937 2.15625,-1.9101562 2.15625,-2.90625 0,-1.1367187 -0.902344,-1.9335937 -2.121094,-1.9335937 -1.125,0 -1.851563,0.9140625 -1.851563,1.8046875 0,0.5507812 0.492188,0.5507812 0.527344,0.5507812 0.164063,0 0.515625,-0.1171875 0.515625,-0.5273437 0,-0.2578125 -0.1875,-0.515625 -0.527344,-0.515625 -0.08203,0 -0.105468,0 -0.128906,0.011719 0.222656,-0.6445312 0.761719,-1.0195312 1.335938,-1.0195312 0.914062,0 1.335937,0.8085937 1.335937,1.6289062 0,0.796875 -0.492187,1.5820313 -1.042969,2.203125 l -1.910156,2.13281251 c -0.105469,0.10546875 -0.105469,0.12890625 -0.105469,0.36328125 h 3.691407 l 0.28125,-1.73437496 h -0.257813 c -0.04687,0.3046875 -0.117187,0.73828121 -0.210937,0.89062496 -0.07031,0.0820313 -0.726563,0.0820313 -0.949219,0.0820313 z m 6.597656,-1.73437501 c 0,-0.7734375 -0.117187,-1.9804687 -0.65625,-3.1054687 -0.597656,-1.21875 -1.464843,-1.875 -1.558593,-1.875 -0.05859,0 -0.105469,0.046875 -0.105469,0.1054687 0,0.035156 0,0.046875 0.199219,0.234375 0.972656,0.984375 1.535156,2.5664063 1.535156,4.640625 0,1.71093751 -0.363281,3.45703126 -1.59375,4.7226563 -0.140625,0.1171875 -0.140625,0.1289062 -0.140625,0.1640625 0,0.058594 0.04687,0.1054687 0.105469,0.1054687 0.09375,0 0.996093,-0.6796875 1.582031,-1.94531249 0.503906,-1.1015625 0.632812,-2.20312501 0.632812,-3.04687501 z m 0,0"
         style="fill:#000000;fill-opacity:1;fill-rule:nonzero;stroke:none" />
      <path
         id="path23"
         d="m 36.630977,-4.9818672 c 0.175781,0 0.351562,0 0.351562,-0.1992187 0,-0.1992188 -0.175781,-0.1992188 -0.351562,-0.1992188 h -2.671875 c -1.710938,0 -3.058594,1.2890625 -3.058594,2.8828125 0,1.59375001 1.347656,2.89453126 3.058594,2.89453126 h 2.671875 c 0.175781,0 0.351562,0 0.351562,-0.19921875 0,-0.19921875 -0.175781,-0.19921875 -0.351562,-0.19921875 H 33.97082 c -1.546875,0 -2.671875,-1.16015626 -2.671875,-2.49609376 0,-1.3242187 1.125,-2.484375 2.671875,-2.484375 z m 0,0"
         style="fill:#000000;fill-opacity:1;fill-rule:nonzero;stroke:none" />
      <path
         id="path24"
         d="m 43.25793,-3.1303047 h 0.351562 l 1.5,2.30859376 c 0.09375,0.1640625 0.339844,0.55078125 0.445313,0.703125 0.07031,0.1171875 0.105468,0.1171875 0.328125,0.1171875 h 1.382812 c 0.175781,0 0.328125,0 0.328125,-0.17578125 0,-0.0820313 -0.07031,-0.15234375 -0.152344,-0.17578125 -0.375,-0.0820313 -0.855468,-0.73828126 -1.101562,-1.05468746 -0.07031,-0.09375 -0.5625,-0.75 -1.230469,-1.828125 0.890625,-0.1640625 1.746094,-0.5390625 1.746094,-1.7226563 0,-1.3828125 -1.464844,-1.8632812 -2.648438,-1.8632812 h -3.117187 c -0.1875,0 -0.339844,0 -0.339844,0.1757812 0,0.1640625 0.1875,0.1640625 0.269531,0.1640625 0.5625,0 0.609375,0.070312 0.609375,0.5742188 v 4.99218746 c 0,0.4921875 -0.04687,0.5625 -0.609375,0.5625 -0.08203,0 -0.269531,0 -0.269531,0.17578125 0,0.17578125 0.152344,0.17578125 0.339844,0.17578125 h 2.71875 c 0.1875,0 0.328125,0 0.328125,-0.17578125 0,-0.17578125 -0.164063,-0.17578125 -0.269531,-0.17578125 -0.574219,0 -0.609375,-0.0820313 -0.609375,-0.5625 z m 1.921875,-0.4921875 c 0.28125,-0.3632812 0.304687,-0.890625 0.304687,-1.3242187 0,-0.4804688 -0.05859,-1.0078125 -0.375,-1.4179688 0.410156,0.082031 1.394531,0.3984375 1.394531,1.40625 0,0.6445313 -0.304687,1.1484375 -1.324218,1.3359375 z M 43.25793,-5.9428047 c 0,-0.1992187 0,-0.5390625 0.621093,-0.5390625 0.84375,0 1.253907,0.3515625 1.253907,1.5351563 0,1.2773437 -0.304688,1.4648437 -1.875,1.4648437 z m -1.359375,5.58984376 c 0.08203,-0.17578125 0.08203,-0.45703125 0.08203,-0.55078125 V -5.9310859 c 0,-0.09375 0,-0.3632813 -0.08203,-0.5507813 h 1.136718 c -0.128906,0.1640625 -0.128906,0.3632813 -0.128906,0.515625 v 5.06250001 c 0,0.10546875 0,0.375 0.08203,0.55078125 z m 2.121093,-2.77734376 c 0.07031,-0.011719 0.117188,-0.023437 0.1875,-0.023437 0.152344,0 0.375,-0.011719 0.527344,-0.035156 0.140625,0.234375 1.21875,2.015625 2.050781,2.83593746 h -0.972656 z m 0,0"
         style="fill:#000000;fill-opacity:1;fill-rule:nonzero;stroke:none" />
      <path
         id="path25"
         d="m 49.679805,-5.9457344 c 0.550781,0 0.9375,0.375 0.9375,1.125 0,0.8671875 -0.503907,1.125 -0.902344,1.125 -0.28125,0 -0.890625,-0.082031 -1.183594,-0.4921875 0.328125,-0.011719 0.398438,-0.2460937 0.398438,-0.3867187 0,-0.2226563 -0.164063,-0.3867188 -0.386719,-0.3867188 -0.1875,0 -0.386719,0.1171875 -0.386719,0.4101563 0,0.65625 0.726563,1.078125 1.570313,1.078125 0.972656,0 1.640625,-0.6445313 1.640625,-1.3476563 0,-0.5390625 -0.445313,-1.0898437 -1.21875,-1.2421875 0.738281,-0.2695312 0.996093,-0.796875 0.996093,-1.21875 0,-0.5507812 -0.632812,-0.9609375 -1.40625,-0.9609375 -0.773437,0 -1.359375,0.375 -1.359375,0.9375 0,0.234375 0.152344,0.3632813 0.363282,0.3632813 0.210937,0 0.351562,-0.1640625 0.351562,-0.3515625 0,-0.1992188 -0.140625,-0.3515625 -0.351562,-0.3632813 0.234375,-0.3046875 0.714843,-0.3867187 0.972656,-0.3867187 0.316406,0 0.761719,0.1523437 0.761719,0.7617187 0,0.2929688 -0.105469,0.609375 -0.28125,0.8320313 -0.234375,0.2578125 -0.421875,0.28125 -0.773438,0.2929687 -0.175781,0.023437 -0.1875,0.023437 -0.222656,0.023437 -0.01172,0 -0.07031,0.011719 -0.07031,0.09375 0,0.09375 0.05859,0.09375 0.175782,0.09375 z m 0,0"
         style="fill:#000000;fill-opacity:1;fill-rule:nonzero;stroke:none" />
    </g>
    <g
       id="g25"
       aria-label="1&#10;2×2"
       transform="matrix(1.3333333,0,0,1.3333333,312.44533,122.18)">
      <path
         id="path26"
         d="m 2.9296719,-6.3752344 c 0,-0.234375 0,-0.2578125 -0.234375,-0.2578125 -0.609375,0.6328125 -1.4882813,0.6328125 -1.80468753,0.6328125 v 0.3164063 c 0.19921873,0 0.78515623,0 1.30078123,-0.2578125 v 5.15624998 c 0,0.3515625 -0.035156,0.48046875 -0.9257812,0.48046875 H 0.94920312 V -2.34375e-4 C 1.3007656,-0.03539062 2.1562344,-0.03539062 2.5546719,-0.03539062 c 0.3984375,0 1.265625,0 1.6171875,0.035156245 V -0.30492187 H 3.8554531 c -0.9023437,0 -0.9257812,-0.1171875 -0.9257812,-0.48046875 z m 0,0"
         style="fill:#000000;fill-opacity:1;fill-rule:nonzero;stroke:none" />
      <path
         id="path27"
         d="M 8.4990078,0.22828125 H 8.2646328 C 8.2411953,0.380625 8.1826016,0.79078125 8.0888516,0.86109375 8.0302578,0.89625 7.4911953,0.89625 7.3974453,0.89625 H 6.1083828 c 0.7382813,-0.64453125 0.984375,-0.84375 1.3945313,-1.171875 0.515625,-0.41015625 0.9960937,-0.84375 0.9960937,-1.5 0,-0.84375 -0.7382812,-1.359375 -1.6289062,-1.359375 -0.8671875,0 -1.453125,0.609375 -1.453125,1.2421875 0,0.3632813 0.3046875,0.3984375 0.375,0.3984375 0.1640625,0 0.375,-0.1171875 0.375,-0.375 0,-0.1289062 -0.058594,-0.3632812 -0.421875,-0.3632812 0.2226562,-0.5039063 0.6914062,-0.65625 1.0195312,-0.65625 0.703125,0 1.0664063,0.5507812 1.0664063,1.1132812 0,0.609375 -0.4335938,1.08984375 -0.65625,1.3359375 l -1.6875,1.6640625 c -0.070312,0.058594 -0.070312,0.070312 -0.070312,0.2695313 h 2.8828125 z m 0,0"
         style="fill:#000000;fill-opacity:1;fill-rule:nonzero;stroke:none" />
      <path
         id="path28"
         d="m 13.839828,-1.775625 c 0.07031,-0.082031 0.09375,-0.1171875 0.09375,-0.1640625 0,-0.1171875 -0.09375,-0.1757812 -0.164062,-0.1757812 -0.07031,0 -0.09375,0.023437 -0.175782,0.1054687 l -1.535156,1.51171875 -1.535156,-1.52343745 c -0.05859,-0.070312 -0.09375,-0.09375 -0.152344,-0.09375 -0.105469,0 -0.175781,0.070312 -0.175781,0.1757812 0,0.058594 0.02344,0.082031 0.105469,0.1640625 l 1.523437,1.5234375 -1.523437,1.5117188 c -0.09375,0.1054687 -0.105469,0.140625 -0.105469,0.1757812 0,0.1054688 0.07031,0.1757813 0.175781,0.1757813 0.05859,0 0.08203,-0.023437 0.152344,-0.09375 l 1.535156,-1.5351563 1.59375,1.59375 c 0.03516,0.023437 0.07031,0.035156 0.117188,0.035156 0.07031,0 0.164062,-0.058594 0.164062,-0.1757813 0,-0.058594 -0.01172,-0.070312 -0.03516,-0.082031 -0.01172,-0.035156 -1.371094,-1.38281255 -1.59375,-1.6054688 z m 0,0"
         style="fill:#000000;fill-opacity:1;fill-rule:nonzero;stroke:none" />
      <path
         id="path29"
         d="m 18.69432,0.22828125 h -0.234375 c -0.02344,0.15234375 -0.08203,0.5625 -0.175781,0.6328125 C 18.22557,0.89625 17.686508,0.89625 17.592758,0.89625 h -1.289063 c 0.738282,-0.64453125 0.984375,-0.84375 1.394532,-1.171875 0.515625,-0.41015625 0.996093,-0.84375 0.996093,-1.5 0,-0.84375 -0.738281,-1.359375 -1.628906,-1.359375 -0.867187,0 -1.453125,0.609375 -1.453125,1.2421875 0,0.3632813 0.304688,0.3984375 0.375,0.3984375 0.164063,0 0.375,-0.1171875 0.375,-0.375 0,-0.1289062 -0.05859,-0.3632812 -0.421875,-0.3632812 0.222656,-0.5039063 0.691406,-0.65625 1.019531,-0.65625 0.703125,0 1.066407,0.5507812 1.066407,1.1132812 0,0.609375 -0.433594,1.08984375 -0.65625,1.3359375 l -1.6875,1.6640625 c -0.07031,0.058594 -0.07031,0.070312 -0.07031,0.2695313 h 2.882813 z m 0,0"
         style="fill:#000000;fill-opacity:1;fill-rule:nonzero;stroke:none" />
    </g>
    <g
       id="g29"
       aria-label="−1&#10;2×2"
       transform="matrix(1.3333333,0,0,1.3333333,385.67067,88.412)">
      <path
         id="path30"
         d="m 6.5634062,-2.2982578 c 0.1757813,0 0.3515625,0 0.3515625,-0.1992188 0,-0.1992187 -0.1757812,-0.1992187 -0.3515625,-0.1992187 h -5.390625 c -0.1640625,0 -0.3398437,0 -0.3398437,0.1992187 0,0.1992188 0.1757812,0.1992188 0.3398437,0.1992188 z m 0,0"
         style="fill:#4a90e2;fill-opacity:1;fill-rule:nonzero;stroke:none" />
      <path
         id="path31"
         d="m 10.679617,-6.3763828 c 0,-0.234375 0,-0.2578125 -0.234375,-0.2578125 -0.6093748,0.6328125 -1.4882811,0.6328125 -1.8046873,0.6328125 v 0.3164062 c 0.1992187,0 0.7851562,0 1.3007812,-0.2578125 v 5.15625004 c 0,0.3515625 -0.035156,0.48046875 -0.9257812,0.48046875 H 8.6991484 v 0.3046875 c 0.3515625,-0.03515625 1.2070313,-0.03515625 1.6054686,-0.03515625 0.398438,0 1.265625,0 1.617188,0.03515625 v -0.3046875 h -0.316407 c -0.902343,0 -0.925781,-0.1171875 -0.925781,-0.48046875 z m 0,0"
         style="fill:#4a90e2;fill-opacity:1;fill-rule:nonzero;stroke:none" />
      <path
         id="path32"
         d="m 16.246023,0.22713281 h -0.234375 c -0.02344,0.15234375 -0.08203,0.5625 -0.175781,0.6328125 -0.05859,0.0351563 -0.597656,0.0351563 -0.691406,0.0351563 h -1.289063 c 0.738282,-0.64453125 0.984375,-0.84375 1.394532,-1.171875 0.515625,-0.41015625 0.996093,-0.84374991 0.996093,-1.49999991 0,-0.8437501 -0.738281,-1.3593751 -1.628906,-1.3593751 -0.867187,0 -1.453125,0.609375 -1.453125,1.2421876 0,0.3632812 0.304688,0.3984375 0.375,0.3984375 0.164063,0 0.375,-0.1171875 0.375,-0.375 0,-0.1289063 -0.05859,-0.3632814 -0.421875,-0.3632814 0.222656,-0.5039062 0.691406,-0.65625 1.019531,-0.65625 0.703125,0 1.066407,0.5507813 1.066407,1.1132813 0,0.609375 -0.433594,1.08984376 -0.65625,1.33593751 l -1.6875,1.66406249 c -0.07031,0.058594 -0.07031,0.070312 -0.07031,0.2695312 h 2.882813 z m 0,0"
         style="fill:#4a90e2;fill-opacity:1;fill-rule:nonzero;stroke:none" />
      <path
         id="path33"
         d="m 21.589773,-1.7767734 c 0.07031,-0.082031 0.09375,-0.1171875 0.09375,-0.1640625 0,-0.1171875 -0.09375,-0.1757813 -0.164062,-0.1757813 -0.07031,0 -0.09375,0.023437 -0.175781,0.1054688 l -1.535157,1.51171871 -1.535156,-1.52343751 c -0.05859,-0.070312 -0.09375,-0.09375 -0.152344,-0.09375 -0.105468,0 -0.175781,0.070312 -0.175781,0.1757813 0,0.058594 0.02344,0.082031 0.105469,0.1640625 l 1.523437,1.52343746 -1.523437,1.51171874 c -0.09375,0.1054688 -0.105469,0.140625 -0.105469,0.1757813 0,0.1054687 0.07031,0.1757812 0.175781,0.1757812 0.05859,0 0.08203,-0.023437 0.152344,-0.09375 l 1.535156,-1.53515624 1.59375,1.59375004 c 0.03516,0.023437 0.07031,0.035156 0.117188,0.035156 0.07031,0 0.164062,-0.058594 0.164062,-0.1757812 0,-0.058594 -0.01172,-0.070312 -0.03516,-0.082031 -0.01172,-0.035156 -1.371094,-1.38281249 -1.59375,-1.60546874 z m 0,0"
         style="fill:#4a90e2;fill-opacity:1;fill-rule:nonzero;stroke:none" />
      <path
         id="path34"
         d="m 26.444266,0.22713281 h -0.234375 c -0.02344,0.15234375 -0.08203,0.5625 -0.175782,0.6328125 -0.05859,0.0351563 -0.597656,0.0351563 -0.691406,0.0351563 h -1.289062 c 0.738281,-0.64453125 0.984375,-0.84375 1.394531,-1.171875 0.515625,-0.41015625 0.996094,-0.84374991 0.996094,-1.49999991 0,-0.8437501 -0.738282,-1.3593751 -1.628907,-1.3593751 -0.867187,0 -1.453125,0.609375 -1.453125,1.2421876 0,0.3632812 0.304688,0.3984375 0.375,0.3984375 0.164063,0 0.375,-0.1171875 0.375,-0.375 0,-0.1289063 -0.05859,-0.3632814 -0.421875,-0.3632814 0.222657,-0.5039062 0.691407,-0.65625 1.019532,-0.65625 0.703125,0 1.066406,0.5507813 1.066406,1.1132813 0,0.609375 -0.433594,1.08984376 -0.65625,1.33593751 l -1.6875,1.66406249 c -0.07031,0.058594 -0.07031,0.070312 -0.07031,0.2695312 h 2.882813 z m 0,0"
         style="fill:#4a90e2;fill-opacity:1;fill-rule:nonzero;stroke:none" />
    </g>
    <g
       id="g34"
       aria-label="x&#10;1"
       transform="matrix(1.3333333,0,0,1.3333333,226.81867,210.05733)">
      <path
         id="path35"
         d="m 3.3293594,-3.0107734 c 0.058594,-0.2578125 0.2929687,-1.171875 0.984375,-1.171875 0.046875,0 0.2929687,0 0.5039062,0.1289062 -0.28125,0.046875 -0.4804687,0.3046875 -0.4804687,0.5390625 0,0.1640625 0.1054687,0.3515625 0.375,0.3515625 0.2226562,0 0.5390625,-0.1875 0.5390625,-0.5859375 0,-0.515625 -0.5859375,-0.65625 -0.9257813,-0.65625 -0.5742187,0 -0.9257812,0.5273438 -1.0429687,0.7617188 -0.2578125,-0.65625 -0.7851563,-0.7617188 -1.078125,-0.7617188 -1.0429688,0 -1.60546878,1.2890625 -1.60546878,1.5351563 0,0.1054687 0.10546875,0.1054687 0.1171875,0.1054687 0.0820313,0 0.1171875,-0.023437 0.12890625,-0.1171875 0.33984373,-1.0546875 0.99609373,-1.3007812 1.33593753,-1.3007812 0.1875,0 0.5390625,0.09375 0.5390625,0.6679687 0,0.3046875 -0.1640625,0.9726563 -0.5390625,2.3671875 -0.1523438,0.62109376 -0.5039063,1.04296876 -0.9492188,1.04296876 -0.058594,0 -0.28124998,0 -0.49218748,-0.12890625 0.24609375,-0.0585938 0.46874998,-0.26953125 0.46874998,-0.5390625 0,-0.26953121 -0.22265623,-0.35156251 -0.37499998,-0.35156251 -0.29296875,0 -0.5390625,0.25781251 -0.5390625,0.57421876 0,0.45703125 0.4921875,0.65625 0.93749998,0.65625 0.65625,0 1.0078125,-0.69140625 1.0429688,-0.75 0.1171875,0.36328125 0.4804687,0.75 1.078125,0.75 1.0195312,0 1.59375,-1.27734376 1.59375,-1.53515626 0,-0.09375 -0.09375,-0.09375 -0.1289063,-0.09375 -0.082031,0 -0.1054687,0.035156 -0.1289062,0.1054688 -0.328125,1.06640621 -0.9960938,1.31249996 -1.3242188,1.31249996 -0.3867187,0 -0.5390625,-0.328125 -0.5390625,-0.65625 0,-0.22265625 0.058594,-0.44531246 0.1640625,-0.87890626 z m 0,0"
         style="fill:#000000;fill-opacity:1;fill-rule:nonzero;stroke:none" />
      <path
         id="path36"
         d="m 8.0256484,-8.0439766 c 0,-0.1875 -0.011719,-0.1992187 -0.2109375,-0.1992187 -0.4453125,0.4335937 -1.078125,0.4453125 -1.359375,0.4453125 v 0.2460937 c 0.1640625,0 0.6210938,0 1.0078125,-0.1875 v 3.5507813 c 0,0.234375 0,0.328125 -0.6914062,0.328125 H 6.5022109 v 0.2460937 c 0.1289063,-0.011719 0.984375,-0.023437 1.2421875,-0.023437 0.2109375,0 1.0898438,0.011719 1.2421875,0.023437 V -3.8603828 H 8.7287734 c -0.703125,0 -0.703125,-0.09375 -0.703125,-0.328125 z m 0,0"
         style="fill:#000000;fill-opacity:1;fill-rule:nonzero;stroke:none" />
    </g>
    <g
       id="g36"
       aria-label="x&#10;2"
       transform="matrix(1.3333333,0,0,1.3333333,410.93067,124.432)">
      <path
         id="path37"
         d="m 3.3273906,-3.0105234 c 0.058594,-0.2578125 0.2929688,-1.171875 0.984375,-1.171875 0.046875,0 0.2929688,0 0.5039063,0.1289062 -0.28125,0.046875 -0.4804688,0.3046875 -0.4804688,0.5390625 0,0.1640625 0.1054688,0.3515625 0.375,0.3515625 0.2226563,0 0.5390625,-0.1875 0.5390625,-0.5859375 0,-0.515625 -0.5859375,-0.65625 -0.9257812,-0.65625 -0.5742188,0 -0.9257813,0.5273438 -1.0429688,0.7617188 -0.2578125,-0.65625 -0.7851562,-0.7617188 -1.078125,-0.7617188 -1.0429687,0 -1.60546872,1.2890625 -1.60546872,1.5351563 0,0.1054687 0.10546875,0.1054687 0.1171875,0.1054687 0.0820313,0 0.1171875,-0.023437 0.12890625,-0.1171875 0.33984377,-1.0546875 0.99609377,-1.3007812 1.33593747,-1.3007812 0.1875,0 0.5390625,0.09375 0.5390625,0.6679687 0,0.3046875 -0.1640625,0.9726563 -0.5390625,2.3671875 -0.1523437,0.62109376 -0.5039062,1.04296876 -0.9492187,1.04296876 -0.058594,0 -0.28125002,0 -0.49218752,-0.12890625 0.24609375,-0.0585938 0.46875002,-0.26953125 0.46875002,-0.5390625 0,-0.26953121 -0.22265627,-0.35156251 -0.37500002,-0.35156251 -0.29296875,0 -0.5390625,0.25781251 -0.5390625,0.57421876 0,0.45703125 0.4921875,0.65625 0.93750002,0.65625 0.65625,0 1.0078125,-0.69140625 1.0429687,-0.75 0.1171875,0.36328125 0.4804688,0.75 1.078125,0.75 1.0195313,0 1.59375,-1.27734376 1.59375,-1.53515626 0,-0.09375 -0.09375,-0.09375 -0.1289062,-0.09375 -0.082031,0 -0.1054688,0.035156 -0.1289063,0.1054688 -0.328125,1.06640621 -0.9960937,1.31249996 -1.3242187,1.31249996 -0.3867188,0 -0.5390625,-0.328125 -0.5390625,-0.65625 0,-0.22265625 0.058594,-0.44531246 0.1640625,-0.87890626 z m 0,0"
         style="fill:#000000;fill-opacity:1;fill-rule:nonzero;stroke:none" />
      <path
         id="path38"
         d="m 9.2102031,-4.8796641 h -0.234375 c -0.023437,0.1523438 -0.082031,0.5625 -0.1757812,0.6328125 -0.058594,0.035156 -0.5976563,0.035156 -0.6914063,0.035156 H 6.8195781 c 0.7382813,-0.6445313 0.984375,-0.84375 1.3945313,-1.171875 0.515625,-0.4101563 0.9960937,-0.84375 0.9960937,-1.5 0,-0.84375 -0.7382812,-1.359375 -1.6289062,-1.359375 -0.8671875,0 -1.453125,0.609375 -1.453125,1.2421875 0,0.3632812 0.3046875,0.3984375 0.375,0.3984375 0.1640625,0 0.375,-0.1171875 0.375,-0.375 0,-0.1289063 -0.058594,-0.3632813 -0.421875,-0.3632813 0.2226562,-0.5039062 0.6914062,-0.65625 1.0195312,-0.65625 0.703125,0 1.0664063,0.5507813 1.0664063,1.1132813 0,0.609375 -0.4335938,1.0898437 -0.65625,1.3359375 l -1.6875,1.6640625 c -0.070312,0.058594 -0.070312,0.070312 -0.070312,0.2695312 h 2.8828125 z m 0,0"
         style="fill:#000000;fill-opacity:1;fill-rule:nonzero;stroke:none" />
    </g>
    <g
       id="g38"
       aria-label="x&#10;3"
       transform="matrix(1.3333333,0,0,1.3333333,312.44533,15.172)">
      <path
         id="path39"
         d="m 3.3281094,-3.0118125 c 0.058594,-0.2578125 0.2929687,-1.171875 0.984375,-1.171875 0.046875,0 0.2929687,0 0.5039062,0.1289063 -0.28125,0.046875 -0.4804687,0.3046875 -0.4804687,0.5390625 0,0.1640625 0.1054687,0.3515625 0.375,0.3515625 0.2226562,0 0.5390625,-0.1875 0.5390625,-0.5859375 0,-0.515625 -0.5859375,-0.65625 -0.9257813,-0.65625 -0.5742187,0 -0.9257812,0.5273437 -1.0429687,0.7617187 -0.2578125,-0.65625 -0.7851563,-0.7617187 -1.078125,-0.7617187 -1.0429688,0 -1.60546878,1.2890625 -1.60546878,1.5351562 0,0.1054688 0.10546875,0.1054688 0.1171875,0.1054688 0.0820313,0 0.1171875,-0.023437 0.12890625,-0.1171875 0.33984373,-1.0546875 0.99609373,-1.3007813 1.33593753,-1.3007813 0.1875,0 0.5390625,0.09375 0.5390625,0.6679688 0,0.3046875 -0.1640625,0.9726562 -0.5390625,2.3671875 -0.1523438,0.6210937 -0.5039063,1.0429687 -0.9492188,1.0429687 -0.058594,0 -0.28124998,0 -0.49218748,-0.12890625 C 0.98435937,-0.2930625 1.2070156,-0.504 1.2070156,-0.77353125 c 0,-0.26953125 -0.22265623,-0.35156245 -0.37499998,-0.35156245 -0.29296875,0 -0.5390625,0.25781245 -0.5390625,0.5742187 0,0.45703125 0.4921875,0.65625 0.93749998,0.65625 0.65625,0 1.0078125,-0.69140625 1.0429688,-0.75 0.1171875,0.36328125 0.4804687,0.75 1.078125,0.75 1.0195312,0 1.59375,-1.2773437 1.59375,-1.5351562 0,-0.09375 -0.09375,-0.09375 -0.1289063,-0.09375 -0.082031,0 -0.1054687,0.035156 -0.1289062,0.1054687 -0.328125,1.06640625 -0.9960938,1.3125 -1.3242188,1.3125 -0.3867187,0 -0.5390625,-0.328125 -0.5390625,-0.65625 0,-0.22265625 0.058594,-0.4453125 0.1640625,-0.8789062 z m 0,0"
         style="fill:#000000;fill-opacity:1;fill-rule:nonzero;stroke:none" />
      <path
         id="path40"
         d="m 7.5937344,-5.9473594 c 0.5507812,0 0.9375,0.375 0.9375,1.125 0,0.8671875 -0.5039063,1.125 -0.9023438,1.125 -0.28125,0 -0.890625,-0.082031 -1.1835937,-0.4921875 0.328125,-0.011719 0.3984375,-0.2460937 0.3984375,-0.3867187 0,-0.2226563 -0.1640625,-0.3867188 -0.3867188,-0.3867188 -0.1875,0 -0.3867187,0.1171875 -0.3867187,0.4101563 0,0.65625 0.7265625,1.078125 1.5703125,1.078125 0.9726562,0 1.640625,-0.6445313 1.640625,-1.3476563 0,-0.5390625 -0.4453125,-1.0898437 -1.21875,-1.2421875 0.7382812,-0.2695312 0.9960937,-0.796875 0.9960937,-1.21875 0,-0.5507812 -0.6328125,-0.9609375 -1.40625,-0.9609375 -0.7734375,0 -1.359375,0.375 -1.359375,0.9375 0,0.234375 0.1523438,0.3632813 0.3632813,0.3632813 0.2109375,0 0.3515625,-0.1640625 0.3515625,-0.3515625 0,-0.1992188 -0.140625,-0.3515625 -0.3515625,-0.3632813 0.234375,-0.3046875 0.7148437,-0.3867187 0.9726562,-0.3867187 0.3164063,0 0.7617188,0.1523437 0.7617188,0.7617187 0,0.2929688 -0.1054688,0.609375 -0.28125,0.8320313 -0.234375,0.2578125 -0.421875,0.28125 -0.7734375,0.2929687 -0.1757813,0.023437 -0.1875,0.023437 -0.2226563,0.023437 -0.011719,0 -0.070312,0.011719 -0.070312,0.09375 0,0.09375 0.058594,0.09375 0.1757813,0.09375 z m 0,0"
         style="fill:#000000;fill-opacity:1;fill-rule:nonzero;stroke:none" />
    </g>
    <g
       id="g40"
       aria-label="SU(2)⊂R&#10;3"
       transform="matrix(1.3333333,0,0,1.3333333,62.318667,215.392)">
      <path
         id="path41"
         d="m 6.4231094,-6.9268125 c 0,-0.023437 -0.011719,-0.09375 -0.1054688,-0.09375 -0.046875,0 -0.058594,0.011719 -0.1757812,0.140625 l -0.4804688,0.5742188 c -0.2578125,-0.46875 -0.7734375,-0.7148438 -1.4296875,-0.7148438 -1.265625,0 -2.4609375,1.1367188 -2.4609375,2.34375 0,0.8085938 0.5273438,1.265625 1.0429688,1.4179688 l 1.0664062,0.28125 c 0.3632813,0.082031 0.9140625,0.234375 0.9140625,1.0546875 0,0.890625 -0.8203125,1.82812495 -1.7929687,1.82812495 -0.6445313,0 -1.7460938,-0.2109375 -1.7460938,-1.45312495 0,-0.234375 0.046875,-0.4804688 0.058594,-0.5390625 0.011719,-0.035156 0.023437,-0.046875 0.023437,-0.070312 0,-0.09375 -0.070312,-0.1054688 -0.1171875,-0.1054688 -0.058594,0 -0.070312,0.011719 -0.1054688,0.035156 -0.035156,0.046875 -0.59765623,2.32031245 -0.59765623,2.34374995 0,0.0585937 0.046875,0.10546875 0.1171875,0.10546875 0.046875,0 0.0585938,-0.0117188 0.17578125,-0.15234375 L 1.3020156,-0.5049375 C 1.7238906,0.081 2.4035781,0.221625 2.9777969,0.221625 c 1.359375,0 2.53125,-1.3242187 2.53125,-2.5664062 0,-0.6796875 -0.3398438,-1.0195313 -0.4921875,-1.1601563 -0.2226563,-0.234375 -0.375,-0.2695312 -1.265625,-0.5039062 -0.2109375,-0.058594 -0.5742188,-0.1523438 -0.65625,-0.1757813 -0.2695313,-0.09375 -0.609375,-0.375 -0.609375,-0.9023437 0,-0.8085938 0.796875,-1.6523438 1.734375,-1.6523438 0.8320312,0 1.4414062,0.421875 1.4414062,1.5351563 0,0.3164062 -0.046875,0.5039062 -0.046875,0.5625 0,0.011719 0,0.09375 0.1289063,0.09375 0.09375,0 0.1054687,-0.023437 0.140625,-0.1992188 z m 6.5800776,1.171875 c 0.09375,-0.4101562 0.28125,-0.7148437 1.078125,-0.7382812 0.04687,0 0.164063,-0.011719 0.164063,-0.1992188 0,-0.011719 0,-0.1171875 -0.128906,-0.1171875 -0.328125,0 -0.679688,0.035156 -1.019532,0.035156 -0.339843,0 -0.703125,-0.035156 -1.03125,-0.035156 -0.05859,0 -0.175781,0 -0.175781,0.1992188 0,0.1171875 0.09375,0.1171875 0.175781,0.1171875 0.5625,0.011719 0.679688,0.2109375 0.679688,0.4335937 0,0.035156 -0.02344,0.1757813 -0.03516,0.2109375 l -0.890625,3.5507813 c -0.339844,1.33593745 -1.488282,2.20312495 -2.4843753,2.20312495 -0.6796875,0 -1.21875,-0.43359375 -1.21875,-1.28906245 0,-0.023437 0,-0.3398438 0.1171875,-0.7734375 l 0.9609375,-3.8789063 c 0.09375,-0.3632812 0.1054688,-0.4570312 0.8320313,-0.4570312 0.269531,0 0.339844,0 0.339844,-0.1992188 0,-0.1171875 -0.105469,-0.1171875 -0.140625,-0.1171875 -0.2695315,0 -0.996094,0.035156 -1.2656253,0.035156 -0.2929687,0 -0.9960937,-0.035156 -1.2890625,-0.035156 -0.082031,0 -0.1875,0 -0.1875,0.1992188 0,0.1171875 0.09375,0.1171875 0.28125,0.1171875 0.011719,0 0.2109375,0 0.375,0.011719 0.1757813,0.023437 0.2695313,0.035156 0.2695313,0.1640625 0,0.058594 -0.1054688,0.4804688 -0.1757813,0.703125 l -0.2109375,0.8789063 c -0.09375,0.3867187 -0.5742187,2.2734375 -0.609375,2.4609375 -0.070312,0.28125 -0.070312,0.4335937 -0.070312,0.5742187 0,1.21875 0.9023438,1.921875 1.9570313,1.921875 1.253907,0 2.484375,-1.125 2.8125,-2.4492187 z m 0,0"
         style="fill:#000000;fill-opacity:1;fill-rule:nonzero;stroke:none" />
      <path
         id="path42"
         d="m 17.863539,2.3895938 c 0,-0.035156 0,-0.046875 -0.164062,-0.2226563 -1.242188,-1.25390625 -1.570313,-3.12890625 -1.570313,-4.6640625 0,-1.7226562 0.386719,-3.4570312 1.605469,-4.7109375 0.128906,-0.1171875 0.128906,-0.1289062 0.128906,-0.1640625 0,-0.070312 -0.03516,-0.1054687 -0.09375,-0.1054687 -0.105469,0 -0.996094,0.6796875 -1.582031,1.9453125 -0.515625,1.1015625 -0.632813,2.203125 -0.632813,3.0351562 0,0.7851563 0.117188,1.9921875 0.65625,3.1171875 0.597657,1.21875 1.453125,1.875 1.558594,1.875 0.05859,0 0.09375,-0.035156 0.09375,-0.1054687 z M 19.703383,-0.76275 20.75807,-1.794 c 1.558594,-1.3710937 2.15625,-1.9101562 2.15625,-2.90625 0,-1.1367187 -0.902343,-1.9335937 -2.121093,-1.9335937 -1.125,0 -1.851563,0.9140625 -1.851563,1.8046875 0,0.5507812 0.492188,0.5507812 0.527344,0.5507812 0.164062,0 0.515625,-0.1171875 0.515625,-0.5273437 0,-0.2578125 -0.1875,-0.515625 -0.527344,-0.515625 -0.08203,0 -0.105469,0 -0.128906,0.011719 0.222656,-0.6445312 0.761719,-1.0195312 1.335937,-1.0195312 0.914063,0 1.335938,0.8085937 1.335938,1.6289062 0,0.796875 -0.492188,1.5820313 -1.042969,2.203125 l -1.910156,2.1328125 c -0.105469,0.10546875 -0.105469,0.12890625 -0.105469,0.36328125 H 22.63307 L 22.91432,-1.7354062 H 22.656508 C 22.609633,-1.4307187 22.53932,-0.997125 22.44557,-0.84478125 22.375258,-0.76275 21.719008,-0.76275 21.496352,-0.76275 Z m 6.597656,-1.734375 c 0,-0.7734375 -0.117187,-1.9804687 -0.65625,-3.1054687 -0.597656,-1.21875 -1.464844,-1.875 -1.558594,-1.875 -0.05859,0 -0.105468,0.046875 -0.105468,0.1054687 0,0.035156 0,0.046875 0.199218,0.234375 0.972657,0.984375 1.535157,2.5664063 1.535157,4.640625 0,1.7109375 -0.363282,3.45703125 -1.59375,4.7226563 -0.140625,0.1171875 -0.140625,0.1289062 -0.140625,0.1640625 0,0.058594 0.04687,0.1054687 0.105468,0.1054687 0.09375,0 0.996094,-0.6796875 1.582032,-1.9453125 0.503906,-1.1015625 0.632812,-2.203125 0.632812,-3.046875 z m 0,0"
         style="fill:#000000;fill-opacity:1;fill-rule:nonzero;stroke:none" />
      <path
         id="path43"
         d="m 36.631117,-4.9815 c 0.175781,0 0.351563,0 0.351563,-0.1992187 0,-0.1992188 -0.175782,-0.1992188 -0.351563,-0.1992188 h -2.671875 c -1.710937,0 -3.058594,1.2890625 -3.058594,2.8828125 0,1.59375 1.347657,2.89453125 3.058594,2.89453125 h 2.671875 c 0.175781,0 0.351563,0 0.351563,-0.19921875 0,-0.19921875 -0.175782,-0.19921875 -0.351563,-0.19921875 h -2.660156 c -1.546875,0 -2.671875,-1.16015625 -2.671875,-2.49609375 0,-1.3242187 1.125,-2.484375 2.671875,-2.484375 z m 0,0"
         style="fill:#000000;fill-opacity:1;fill-rule:nonzero;stroke:none" />
      <path
         id="path44"
         d="m 43.25807,-3.1299375 h 0.351563 l 1.5,2.30859375 c 0.09375,0.1640625 0.339844,0.55078125 0.445312,0.703125 0.07031,0.1171875 0.105469,0.1171875 0.328125,0.1171875 h 1.382813 c 0.175781,0 0.328125,0 0.328125,-0.17578125 0,-0.0820312 -0.07031,-0.15234375 -0.152344,-0.17578125 -0.375,-0.0820313 -0.855469,-0.73828125 -1.101562,-1.05468745 -0.07031,-0.09375 -0.5625,-0.75 -1.230469,-1.828125 0.890625,-0.1640625 1.746094,-0.5390625 1.746094,-1.7226563 0,-1.3828125 -1.464844,-1.8632812 -2.648438,-1.8632812 h -3.117187 c -0.1875,0 -0.339844,0 -0.339844,0.1757812 0,0.1640625 0.1875,0.1640625 0.269531,0.1640625 0.5625,0 0.609375,0.070312 0.609375,0.5742188 v 4.99218745 c 0,0.4921875 -0.04687,0.5625 -0.609375,0.5625 -0.08203,0 -0.269531,0 -0.269531,0.17578125 0,0.17578125 0.152344,0.17578125 0.339844,0.17578125 h 2.71875 c 0.1875,0 0.328125,0 0.328125,-0.17578125 0,-0.17578125 -0.164063,-0.17578125 -0.269532,-0.17578125 -0.574218,0 -0.609375,-0.0820313 -0.609375,-0.5625 z m 1.921875,-0.4921875 c 0.28125,-0.3632812 0.304688,-0.890625 0.304688,-1.3242187 0,-0.4804688 -0.05859,-1.0078125 -0.375,-1.4179688 0.410156,0.082031 1.394531,0.3984375 1.394531,1.40625 0,0.6445313 -0.304687,1.1484375 -1.324219,1.3359375 z M 43.25807,-5.9424375 c 0,-0.1992187 0,-0.5390625 0.621094,-0.5390625 0.84375,0 1.253906,0.3515625 1.253906,1.5351563 0,1.2773437 -0.304687,1.4648437 -1.875,1.4648437 z m -1.359375,5.58984375 c 0.08203,-0.17578125 0.08203,-0.45703125 0.08203,-0.55078125 v -5.0273437 c 0,-0.09375 0,-0.3632813 -0.08203,-0.5507813 h 1.136719 c -0.128906,0.1640625 -0.128906,0.3632813 -0.128906,0.515625 v 5.0625 c 0,0.10546875 0,0.375 0.08203,0.55078125 z m 2.121094,-2.77734375 c 0.07031,-0.011719 0.117188,-0.023437 0.1875,-0.023437 0.152344,0 0.375,-0.011719 0.527344,-0.035156 0.140625,0.234375 1.21875,2.015625 2.050781,2.83593745 h -0.972656 z m 0,0"
         style="fill:#000000;fill-opacity:1;fill-rule:nonzero;stroke:none" />
      <path
         id="path45"
         d="m 49.679945,-5.9482969 c 0.550782,0 0.9375,0.375 0.9375,1.125 0,0.8671875 -0.503906,1.125 -0.902343,1.125 -0.28125,0 -0.890625,-0.082031 -1.183594,-0.4921875 0.328125,-0.011719 0.398437,-0.2460937 0.398437,-0.3867187 0,-0.2226563 -0.164062,-0.3867188 -0.386718,-0.3867188 -0.1875,0 -0.386719,0.1171875 -0.386719,0.4101563 0,0.65625 0.726562,1.078125 1.570312,1.078125 0.972657,0 1.640625,-0.6445313 1.640625,-1.3476563 0,-0.5390625 -0.445312,-1.0898437 -1.21875,-1.2421875 0.738282,-0.2695312 0.996094,-0.796875 0.996094,-1.21875 0,-0.5507812 -0.632812,-0.9609375 -1.40625,-0.9609375 -0.773437,0 -1.359375,0.375 -1.359375,0.9375 0,0.234375 0.152344,0.3632813 0.363281,0.3632813 0.210938,0 0.351563,-0.1640625 0.351563,-0.3515625 0,-0.1992188 -0.140625,-0.3515625 -0.351563,-0.3632813 0.234375,-0.3046875 0.714844,-0.3867187 0.972657,-0.3867187 0.316406,0 0.761718,0.1523437 0.761718,0.7617187 0,0.2929688 -0.105468,0.609375 -0.28125,0.8320313 -0.234375,0.2578125 -0.421875,0.28125 -0.773437,0.2929687 -0.175781,0.023437 -0.1875,0.023437 -0.222656,0.023437 -0.01172,0 -0.07031,0.011719 -0.07031,0.09375 0,0.09375 0.05859,0.09375 0.175781,0.09375 z m 0,0"
         style="fill:#000000;fill-opacity:1;fill-rule:nonzero;stroke:none" />
    </g>
    <g
       id="g45"
       aria-label="1&#10;2×2"
       transform="matrix(1.3333333,0,0,1.3333333,93.436,122.21467)">
      <path
         id="path46"
         d="m 2.9308125,-6.3748672 c 0,-0.234375 0,-0.2578125 -0.234375,-0.2578125 -0.609375,0.6328125 -1.4882813,0.6328125 -1.8046875,0.6328125 v 0.3164063 c 0.1992187,0 0.7851562,0 1.3007812,-0.2578125 v 5.15624996 c 0,0.3515625 -0.035156,0.48046875 -0.9257812,0.48046875 H 0.95034375 V 1.328125e-4 C 1.3019062,-0.03502344 2.157375,-0.03502344 2.5558125,-0.03502344 c 0.3984375,0 1.265625,0 1.6171875,0.0351562525 V -0.30455469 H 3.8565937 c -0.9023437,0 -0.9257812,-0.1171875 -0.9257812,-0.48046875 z m 0,0"
         style="fill:#000000;fill-opacity:1;fill-rule:nonzero;stroke:none" />
      <path
         id="path47"
         d="m 8.4972187,0.22864844 h -0.234375 c -0.023437,0.15234375 -0.082031,0.5625 -0.1757812,0.6328125 -0.058594,0.0351563 -0.5976563,0.0351563 -0.6914063,0.0351563 H 6.1065937 c 0.7382813,-0.64453125 0.984375,-0.84375 1.3945313,-1.171875 0.515625,-0.41015625 0.9960937,-0.84374994 0.9960937,-1.50000004 0,-0.84375 -0.7382812,-1.359375 -1.6289062,-1.359375 -0.8671875,0 -1.453125,0.609375 -1.453125,1.2421875 0,0.3632812 0.3046875,0.3984375 0.375,0.3984375 0.1640625,0 0.375,-0.1171875 0.375,-0.375 0,-0.1289063 -0.058594,-0.3632813 -0.421875,-0.3632813 0.2226562,-0.5039062 0.6914062,-0.65625 1.0195312,-0.65625 0.703125,0 1.0664063,0.5507813 1.0664063,1.1132813 0,0.609375 -0.4335938,1.08984379 -0.65625,1.33593754 L 5.4855,1.2247422 C 5.415188,1.2833362 5.415188,1.2950542 5.415188,1.4942734 H 8.298 Z m 0,0"
         style="fill:#000000;fill-opacity:1;fill-rule:nonzero;stroke:none" />
      <path
         id="path48"
         d="m 13.840969,-1.7752578 c 0.07031,-0.082031 0.09375,-0.1171875 0.09375,-0.1640625 0,-0.1171875 -0.09375,-0.1757813 -0.164063,-0.1757813 -0.07031,0 -0.09375,0.023437 -0.175781,0.1054688 l -1.535156,1.51171874 -1.535157,-1.52343754 c -0.05859,-0.070312 -0.09375,-0.09375 -0.152343,-0.09375 -0.105469,0 -0.175782,0.070312 -0.175782,0.1757813 0,0.058594 0.02344,0.082031 0.105469,0.1640625 l 1.523438,1.52343749 -1.523438,1.51171871 c -0.09375,0.1054688 -0.105469,0.140625 -0.105469,0.1757813 0,0.1054687 0.07031,0.1757812 0.175782,0.1757812 0.05859,0 0.08203,-0.023437 0.152343,-0.09375 l 1.535157,-1.53515621 1.59375,1.59375001 c 0.03516,0.023437 0.07031,0.035156 0.117187,0.035156 0.07031,0 0.164063,-0.058594 0.164063,-0.1757812 0,-0.058594 -0.01172,-0.070312 -0.03516,-0.082031 -0.01172,-0.035156 -1.371093,-1.38281246 -1.59375,-1.60546871 z m 0,0"
         style="fill:#000000;fill-opacity:1;fill-rule:nonzero;stroke:none" />
      <path
         id="path49"
         d="m 18.695461,0.22864844 h -0.234375 c -0.02344,0.15234375 -0.08203,0.5625 -0.175781,0.6328125 -0.05859,0.0351563 -0.597657,0.0351563 -0.691407,0.0351563 h -1.289062 c 0.738281,-0.64453125 0.984375,-0.84375 1.394531,-1.171875 0.515625,-0.41015625 0.996094,-0.84374994 0.996094,-1.50000004 0,-0.84375 -0.738281,-1.359375 -1.628906,-1.359375 -0.867188,0 -1.453125,0.609375 -1.453125,1.2421875 0,0.3632812 0.304687,0.3984375 0.375,0.3984375 0.164062,0 0.375,-0.1171875 0.375,-0.375 0,-0.1289063 -0.05859,-0.3632813 -0.421875,-0.3632813 0.222656,-0.5039062 0.691406,-0.65625 1.019531,-0.65625 0.703125,0 1.066406,0.5507813 1.066406,1.1132813 0,0.609375 -0.433594,1.08984379 -0.65625,1.33593754 l -1.6875,1.66406246 c -0.07031,0.058594 -0.07031,0.070312 -0.07031,0.2695312 h 2.882812 z m 0,0"
         style="fill:#000000;fill-opacity:1;fill-rule:nonzero;stroke:none" />
    </g>
    <g
       id="g49"
       aria-label="−1&#10;2×2"
       transform="matrix(1.3333333,0,0,1.3333333,166.66267,88.446667)">
      <path
         id="path50"
         d="m 6.5635469,-2.2978906 c 0.1757812,0 0.3515625,0 0.3515625,-0.1992188 0,-0.1992187 -0.1757813,-0.1992187 -0.3515625,-0.1992187 h -5.390625 c -0.1640625,0 -0.33984377,0 -0.33984377,0.1992187 0,0.1992188 0.17578127,0.1992188 0.33984377,0.1992188 z m 0,0"
         style="fill:#4a90e2;fill-opacity:1;fill-rule:nonzero;stroke:none" />
      <path
         id="path51"
         d="m 10.679758,-6.3760156 c 0,-0.234375 0,-0.2578125 -0.234375,-0.2578125 -0.6093752,0.6328125 -1.4882814,0.6328125 -1.8046877,0.6328125 v 0.3164062 c 0.1992188,0 0.7851563,0 1.3007813,-0.2578125 v 5.15625002 c 0,0.3515625 -0.035156,0.48046875 -0.9257813,0.48046875 H 8.6992891 v 0.3046875 c 0.3515625,-0.03515625 1.2070312,-0.03515625 1.6054689,-0.03515625 0.398437,0 1.265625,0 1.617187,0.03515625 v -0.3046875 h -0.316406 c -0.902344,0 -0.925781,-0.1171875 -0.925781,-0.48046875 z m 0,0"
         style="fill:#4a90e2;fill-opacity:1;fill-rule:nonzero;stroke:none" />
      <path
         id="path52"
         d="m 16.246164,0.2275 h -0.234375 c -0.02344,0.15234375 -0.08203,0.5625 -0.175781,0.6328125 -0.05859,0.0351563 -0.597656,0.0351563 -0.691406,0.0351563 h -1.289063 c 0.738281,-0.64453125 0.984375,-0.84375 1.394531,-1.171875 0.515625,-0.41015625 0.996094,-0.84375 0.996094,-1.5 0,-0.8437501 -0.738281,-1.3593751 -1.628906,-1.3593751 -0.867188,0 -1.453125,0.609375 -1.453125,1.2421876 0,0.3632813 0.304687,0.3984375 0.375,0.3984375 0.164062,0 0.375,-0.1171875 0.375,-0.375 0,-0.1289062 -0.05859,-0.3632812 -0.421875,-0.3632812 0.222656,-0.5039064 0.691406,-0.65625 1.019531,-0.65625 0.703125,0 1.066406,0.5507811 1.066406,1.1132812 0,0.609375 -0.433593,1.08984375 -0.65625,1.3359375 l -1.6875,1.6640625 c -0.07031,0.058594 -0.07031,0.070312 -0.07031,0.2695313 h 2.882812 z m 0,0"
         style="fill:#4a90e2;fill-opacity:1;fill-rule:nonzero;stroke:none" />
      <path
         id="path53"
         d="m 21.589914,-1.7764063 c 0.07031,-0.082031 0.09375,-0.1171875 0.09375,-0.1640625 0,-0.1171875 -0.09375,-0.1757812 -0.164062,-0.1757812 -0.07031,0 -0.09375,0.023437 -0.175782,0.1054687 L 19.808664,-0.4990625 18.273508,-2.0225 c -0.05859,-0.070312 -0.09375,-0.09375 -0.152344,-0.09375 -0.105469,0 -0.175781,0.070312 -0.175781,0.1757812 0,0.058594 0.02344,0.082031 0.105469,0.1640625 L 19.574289,-0.25296875 18.050852,1.25875 c -0.09375,0.1054687 -0.105469,0.140625 -0.105469,0.1757812 0,0.1054688 0.07031,0.1757813 0.175781,0.1757813 0.05859,0 0.08203,-0.023437 0.152344,-0.09375 l 1.535156,-1.53515625 1.59375,1.59374995 c 0.03516,0.023437 0.07031,0.035156 0.117188,0.035156 0.07031,0 0.164062,-0.058594 0.164062,-0.1757813 0,-0.058594 -0.01172,-0.070312 -0.03516,-0.082031 -0.01172,-0.035156 -1.371094,-1.3828125 -1.59375,-1.60546875 z m 0,0"
         style="fill:#4a90e2;fill-opacity:1;fill-rule:nonzero;stroke:none" />
      <path
         id="path54"
         d="M 26.444406,0.2275 H 26.210031 C 26.186594,0.37984375 26.128,0.79 26.03425,0.8603125 25.97566,0.8954688 25.436594,0.8954688 25.342844,0.8954688 h -1.289063 c 0.738281,-0.64453125 0.984375,-0.84375 1.394531,-1.171875 0.515625,-0.41015625 0.996094,-0.84375 0.996094,-1.5 0,-0.8437501 -0.738281,-1.3593751 -1.628906,-1.3593751 -0.867188,0 -1.453125,0.609375 -1.453125,1.2421876 0,0.3632813 0.304687,0.3984375 0.375,0.3984375 0.164062,0 0.375,-0.1171875 0.375,-0.375 0,-0.1289062 -0.05859,-0.3632812 -0.421875,-0.3632812 0.222656,-0.5039064 0.691406,-0.65625 1.019531,-0.65625 0.703125,0 1.066406,0.5507811 1.066406,1.1132812 0,0.609375 -0.433593,1.08984375 -0.65625,1.3359375 l -1.6875,1.6640625 c -0.07031,0.058594 -0.07031,0.070312 -0.07031,0.2695313 h 2.882812 z m 0,0"
         style="fill:#4a90e2;fill-opacity:1;fill-rule:nonzero;stroke:none" />
    </g>
    <g
       id="g54"
       aria-label="x&#10;1"
       transform="matrix(1.3333333,0,0,1.3333333,7.8106667,210.092)">
      <path
         id="path55"
         d="m 3.3295,-3.0104063 c 0.058594,-0.2578125 0.2929687,-1.171875 0.984375,-1.171875 0.046875,0 0.2929687,0 0.5039062,0.1289063 -0.28125,0.046875 -0.4804687,0.3046875 -0.4804687,0.5390625 0,0.1640625 0.1054687,0.3515625 0.375,0.3515625 0.2226562,0 0.5390625,-0.1875 0.5390625,-0.5859375 0,-0.515625 -0.5859375,-0.65625 -0.9257813,-0.65625 -0.5742187,0 -0.9257812,0.5273437 -1.0429687,0.7617187 -0.2578125,-0.65625 -0.7851563,-0.7617187 -1.078125,-0.7617187 -1.0429688,0 -1.60546875,1.2890625 -1.60546875,1.5351562 0,0.1054688 0.10546875,0.1054688 0.1171875,0.1054688 0.0820313,0 0.1171875,-0.023437 0.12890625,-0.1171875 0.3398437,-1.0546875 0.9960937,-1.3007813 1.3359375,-1.3007813 0.1875,0 0.5390625,0.09375 0.5390625,0.6679688 0,0.3046875 -0.1640625,0.9726562 -0.5390625,2.3671875 -0.1523438,0.62109375 -0.5039063,1.04296875 -0.9492188,1.04296875 -0.058594,0 -0.28124995,0 -0.49218745,-0.12890625 C 0.98575,-0.29165625 1.2084062,-0.50259375 1.2084062,-0.772125 c 0,-0.2695313 -0.2226562,-0.3515625 -0.37499995,-0.3515625 -0.29296875,0 -0.5390625,0.2578125 -0.5390625,0.57421875 0,0.45703125 0.4921875,0.65625 0.93749995,0.65625 0.65625,0 1.0078125,-0.69140625 1.0429688,-0.75 0.1171875,0.36328125 0.4804687,0.75 1.078125,0.75 1.0195312,0 1.59375,-1.27734375 1.59375,-1.53515625 0,-0.09375 -0.09375,-0.09375 -0.1289063,-0.09375 -0.082031,0 -0.1054687,0.035156 -0.1289062,0.1054687 -0.328125,1.0664063 -0.9960938,1.31250005 -1.3242188,1.31250005 -0.3867187,0 -0.5390625,-0.328125 -0.5390625,-0.65625 0,-0.22265625 0.058594,-0.44531255 0.1640625,-0.87890625 z m 0,0"
         style="fill:#000000;fill-opacity:1;fill-rule:nonzero;stroke:none" />
      <path
         id="path56"
         d="m 8.0257891,-8.0436094 c 0,-0.1875 -0.011719,-0.1992187 -0.2109375,-0.1992187 -0.4453125,0.4335937 -1.078125,0.4453125 -1.359375,0.4453125 v 0.2460937 c 0.1640625,0 0.6210937,0 1.0078125,-0.1875 v 3.5507813 c 0,0.234375 0,0.328125 -0.6914063,0.328125 H 6.5023516 v 0.2460937 c 0.1289062,-0.011719 0.984375,-0.023437 1.2421875,-0.023437 0.2109375,0 1.0898437,0.011719 1.2421875,0.023437 V -3.8600156 H 8.7289141 c -0.703125,0 -0.703125,-0.09375 -0.703125,-0.328125 z m 0,0"
         style="fill:#000000;fill-opacity:1;fill-rule:nonzero;stroke:none" />
    </g>
    <g
       id="g56"
       aria-label="x&#10;2"
       transform="matrix(1.3333333,0,0,1.3333333,191.92133,124.46667)">
      <path
         id="path57"
         d="m 3.3285312,-3.0130859 c 0.058594,-0.2578125 0.2929688,-1.171875 0.984375,-1.171875 0.046875,0 0.2929688,0 0.5039063,0.1289062 -0.28125,0.046875 -0.4804688,0.3046875 -0.4804688,0.5390625 0,0.1640625 0.1054688,0.3515625 0.375,0.3515625 0.2226563,0 0.5390625,-0.1875 0.5390625,-0.5859375 0,-0.515625 -0.5859375,-0.65625 -0.9257812,-0.65625 -0.5742188,0 -0.9257813,0.5273438 -1.0429688,0.7617188 -0.2578125,-0.65625 -0.7851562,-0.7617188 -1.078125,-0.7617188 -1.0429687,0 -1.6054687,1.2890625 -1.6054687,1.5351563 0,0.1054687 0.10546875,0.1054687 0.1171875,0.1054687 0.0820313,0 0.1171875,-0.023437 0.12890625,-0.1171875 C 1.184,-3.9388672 1.84025,-4.1849609 2.1800937,-4.1849609 c 0.1875,0 0.5390625,0.09375 0.5390625,0.6679687 0,0.3046875 -0.1640625,0.9726563 -0.5390625,2.3671875 -0.1523437,0.62109376 -0.5039062,1.04296876 -0.9492187,1.04296876 -0.058594,0 -0.28125,0 -0.4921875,-0.12890625 0.24609375,-0.0585938 0.46875,-0.26953125 0.46875,-0.5390625 0,-0.26953121 -0.22265625,-0.35156251 -0.375,-0.35156251 -0.29296875,0 -0.5390625,0.25781251 -0.5390625,0.57421876 0,0.45703125 0.4921875,0.65625 0.9375,0.65625 0.65625,0 1.0078125,-0.69140625 1.0429687,-0.75 0.1171875,0.36328125 0.4804688,0.75 1.078125,0.75 1.0195313,0 1.59375,-1.27734376 1.59375,-1.53515626 0,-0.09375 -0.09375,-0.09375 -0.1289062,-0.09375 -0.082031,0 -0.1054688,0.035156 -0.1289063,0.1054688 -0.328125,1.06640621 -0.9960937,1.31249996 -1.3242187,1.31249996 -0.3867188,0 -0.5390625,-0.328125 -0.5390625,-0.65625 0,-0.22265625 0.058594,-0.44531246 0.1640625,-0.87890626 z m 0,0"
         style="fill:#000000;fill-opacity:1;fill-rule:nonzero;stroke:none" />
      <path
         id="path58"
         d="m 9.2084141,-4.8792969 h -0.234375 c -0.023437,0.1523438 -0.082031,0.5625 -0.1757813,0.6328125 -0.058594,0.035156 -0.5976562,0.035156 -0.6914062,0.035156 H 6.8177891 c 0.7382812,-0.6445313 0.984375,-0.84375 1.3945312,-1.171875 0.515625,-0.4101563 0.9960938,-0.84375 0.9960938,-1.5 0,-0.84375 -0.7382813,-1.359375 -1.6289063,-1.359375 -0.8671875,0 -1.453125,0.609375 -1.453125,1.2421875 0,0.3632812 0.3046875,0.3984375 0.375,0.3984375 0.1640625,0 0.375,-0.1171875 0.375,-0.375 0,-0.1289063 -0.058594,-0.3632813 -0.421875,-0.3632813 0.2226563,-0.5039062 0.6914063,-0.65625 1.0195313,-0.65625 0.703125,0 1.0664062,0.5507813 1.0664062,1.1132813 0,0.609375 -0.4335937,1.0898437 -0.65625,1.3359375 l -1.6875,1.6640625 c -0.070312,0.058594 -0.070312,0.070312 -0.070312,0.2695312 h 2.8828125 z m 0,0"
         style="fill:#000000;fill-opacity:1;fill-rule:nonzero;stroke:none" />
    </g>
    <g
       id="g58"
       aria-label="x&#10;3"
       transform="matrix(1.3333333,0,0,1.3333333,93.436,15.206667)">
      <path
         id="path59"
         d="m 3.32925,-3.0114453 c 0.058594,-0.2578125 0.2929687,-1.171875 0.984375,-1.171875 0.046875,0 0.2929687,0 0.5039062,0.1289062 -0.28125,0.046875 -0.4804687,0.3046875 -0.4804687,0.5390625 0,0.1640625 0.1054687,0.3515625 0.375,0.3515625 0.2226562,0 0.5390625,-0.1875 0.5390625,-0.5859375 0,-0.515625 -0.5859375,-0.65625 -0.9257813,-0.65625 -0.5742187,0 -0.9257812,0.5273438 -1.0429687,0.7617188 -0.2578125,-0.65625 -0.7851563,-0.7617188 -1.078125,-0.7617188 -1.0429688,0 -1.60546875,1.2890625 -1.60546875,1.5351563 0,0.1054687 0.10546875,0.1054687 0.1171875,0.1054687 0.0820313,0 0.1171875,-0.023437 0.12890625,-0.1171875 0.3398437,-1.0546875 0.9960937,-1.3007812 1.3359375,-1.3007812 0.1875,0 0.5390625,0.09375 0.5390625,0.6679687 0,0.3046875 -0.1640625,0.9726563 -0.5390625,2.3671875 -0.1523438,0.62109379 -0.5039063,1.04296879 -0.9492188,1.04296879 -0.058594,0 -0.28124995,0 -0.49218745,-0.12890625 0.24609375,-0.0585938 0.46874995,-0.26953125 0.46874995,-0.5390625 0,-0.26953124 -0.2226562,-0.35156254 -0.37499995,-0.35156254 -0.29296875,0 -0.5390625,0.25781254 -0.5390625,0.57421879 0,0.45703125 0.4921875,0.65625 0.93749995,0.65625 0.65625,0 1.0078125,-0.69140625 1.0429688,-0.75 0.1171875,0.36328125 0.4804687,0.75 1.078125,0.75 1.0195312,0 1.59375,-1.27734379 1.59375,-1.53515629 0,-0.09375 -0.09375,-0.09375 -0.1289063,-0.09375 -0.082031,0 -0.1054687,0.035156 -0.1289062,0.1054688 -0.328125,1.06640624 -0.9960938,1.31249999 -1.3242188,1.31249999 -0.3867187,0 -0.5390625,-0.328125 -0.5390625,-0.65625 0,-0.22265625 0.058594,-0.44531249 0.1640625,-0.87890629 z m 0,0"
         style="fill:#000000;fill-opacity:1;fill-rule:nonzero;stroke:none" />
      <path
         id="path60"
         d="m 7.5919453,-5.9469922 c 0.5507813,0 0.9375,0.375 0.9375,1.125 0,0.8671875 -0.5039062,1.125 -0.9023437,1.125 -0.28125,0 -0.890625,-0.082031 -1.1835938,-0.4921875 0.328125,-0.011719 0.3984375,-0.2460937 0.3984375,-0.3867187 0,-0.2226563 -0.1640625,-0.3867188 -0.3867187,-0.3867188 -0.1875,0 -0.3867188,0.1171875 -0.3867188,0.4101563 0,0.65625 0.7265625,1.078125 1.5703125,1.078125 0.9726563,0 1.640625,-0.6445313 1.640625,-1.3476563 0,-0.5390625 -0.4453125,-1.0898437 -1.21875,-1.2421875 0.7382813,-0.2695312 0.9960938,-0.796875 0.9960938,-1.21875 0,-0.5507812 -0.6328125,-0.9609375 -1.40625,-0.9609375 -0.7734375,0 -1.359375,0.375 -1.359375,0.9375 0,0.234375 0.1523437,0.3632813 0.3632812,0.3632813 0.2109375,0 0.3515625,-0.1640625 0.3515625,-0.3515625 0,-0.1992188 -0.140625,-0.3515625 -0.3515625,-0.3632813 0.234375,-0.3046875 0.7148438,-0.3867187 0.9726563,-0.3867187 0.3164062,0 0.7617187,0.1523437 0.7617187,0.7617187 0,0.2929688 -0.1054687,0.609375 -0.28125,0.8320313 -0.234375,0.2578125 -0.421875,0.28125 -0.7734375,0.2929687 -0.1757812,0.023437 -0.1875,0.023437 -0.2226562,0.023437 -0.011719,0 -0.070312,0.011719 -0.070312,0.09375 0,0.09375 0.058594,0.09375 0.1757812,0.09375 z m 0,0"
         style="fill:#000000;fill-opacity:1;fill-rule:nonzero;stroke:none" />
    </g>
    <g
       id="g60"
       aria-label="ω=2π"
       transform="matrix(1.3333333,0,0,1.3333333,106.952,78.382667)">
      <path
         id="path61"
         d="m 6.0242812,-3.7030156 c 0,-0.4453125 -0.1757812,-0.703125 -0.3984375,-0.703125 -0.2578125,0 -0.5273437,0.2460937 -0.5273437,0.46875 0,0.1054687 0.046875,0.2109375 0.1523437,0.3046875 0.1640625,0.140625 0.3515625,0.4101562 0.3515625,0.8320312 0,0.3984375 -0.1875,0.9726563 -0.5039062,1.4296875 -0.2929688,0.42187503 -0.6679688,0.76171878 -1.1367188,0.76171878 -0.5625,0 -0.8671875,-0.3515625 -0.9609375,-0.89062498 0.1054688,-0.2578125 0.3398438,-0.9023438 0.3398438,-1.1835938 0,-0.1171875 -0.046875,-0.2109375 -0.1875,-0.2109375 -0.070312,0 -0.1875,0.011719 -0.2578125,0.1640625 -0.1171875,0.1992188 -0.234375,0.84375 -0.234375,1.2070313 -0.328125,0.46875 -0.7265625,0.91406248 -1.359375,0.91406248 -0.65625,0 -0.8671875,-0.58593748 -0.8671875,-1.14843748 0,-1.2421875 1.0195312,-2.2851563 1.0195312,-2.4140625 0,-0.1171875 -0.082031,-0.1875 -0.1875,-0.1875 -0.1289062,0 -0.1992187,0.1289062 -0.2578125,0.2109375 -0.5039062,0.7382812 -0.89062495,1.921875 -0.89062495,2.8359375 0,0.67968748 0.234375,1.41796873 1.04296875,1.41796873 0.7148437,0 1.1835937,-0.4921875 1.5351562,-1.04296875 0.09375,0.57421875 0.4804688,1.04296875 1.1015625,1.04296875 0.7734375,0 1.2539063,-0.609375 1.6171875,-1.34765623 0.234375,-0.4921875 0.609375,-1.8515625 0.609375,-2.4609375 z m 0,0"
         style="fill:#000000;fill-opacity:1;fill-rule:nonzero;stroke:none" />
      <path
         id="path62"
         d="m 16.169789,-3.2577031 c 0.152344,0 0.339844,0 0.339844,-0.1992188 0,-0.1992187 -0.1875,-0.1992187 -0.328125,-0.1992187 h -5.964844 c -0.140625,0 -0.3281249,0 -0.3281249,0.1992187 0,0.1992188 0.1874999,0.1992188 0.3398439,0.1992188 z m 0.01172,1.9335937 c 0.140625,0 0.328125,0 0.328125,-0.1992187 0,-0.1992188 -0.1875,-0.1992188 -0.339844,-0.1992188 h -5.941406 c -0.152344,0 -0.3398439,0 -0.3398439,0.1992188 0,0.1992187 0.1874999,0.1992187 0.3281249,0.1992187 z m 4.910156,0.56250003 1.054688,-1.03125003 c 1.558593,-1.3710937 2.15625,-1.9101562 2.15625,-2.90625 0,-1.1367187 -0.902344,-1.9335937 -2.121094,-1.9335937 -1.125,0 -1.851563,0.9140625 -1.851563,1.8046875 0,0.5507812 0.492188,0.5507812 0.527344,0.5507812 0.164063,0 0.515625,-0.1171875 0.515625,-0.5273437 0,-0.2578125 -0.1875,-0.515625 -0.527344,-0.515625 -0.08203,0 -0.105468,0 -0.128906,0.011719 0.222656,-0.6445312 0.761719,-1.0195312 1.335938,-1.0195312 0.914062,0 1.335937,0.8085937 1.335937,1.6289062 0,0.796875 -0.492187,1.5820313 -1.042969,2.203125 l -1.910156,2.13281253 c -0.105469,0.10546875 -0.105469,0.12890625 -0.105469,0.363281245 h 3.691407 L 24.302603,-1.7342653 H 24.04479 c -0.04687,0.3046875 -0.117187,0.73828123 -0.210937,0.89062498 -0.07031,0.0820313 -0.726563,0.0820313 -0.949219,0.0820313 z m 0,0"
         style="fill:#000000;fill-opacity:1;fill-rule:nonzero;stroke:none" />
      <path
         id="path63"
         d="m 27.460805,-3.7147344 h 1.125 c -0.328125,1.4765625 -0.410157,1.8984375 -0.410157,2.5664063 0,0.15234373 0,0.42187498 0.07031,0.76171873 0.105469,0.43359375 0.210937,0.4921875 0.363281,0.4921875 0.199219,0 0.410156,-0.17578125 0.410156,-0.375 0,-0.0585938 0,-0.0820313 -0.05859,-0.22265625 -0.292969,-0.71484378 -0.292969,-1.35937498 -0.292969,-1.64062498 0,-0.5273438 0.07031,-1.0664063 0.175781,-1.5820313 h 1.136719 c 0.128906,0 0.492187,0 0.492187,-0.3398437 0,-0.234375 -0.210937,-0.234375 -0.398437,-0.234375 h -3.339844 c -0.210937,0 -0.597656,0 -1.03125,0.46875 -0.351562,0.3867187 -0.609375,0.84375 -0.609375,0.890625 0,0.011719 0,0.1054687 0.117188,0.1054687 0.08203,0 0.105468,-0.046875 0.164062,-0.1289062 0.480469,-0.7617188 1.066406,-0.7617188 1.265625,-0.7617188 h 0.5625 c -0.316406,1.2070313 -0.855469,2.4140625 -1.277344,3.31640628 -0.07031,0.15234375 -0.07031,0.1640625 -0.07031,0.234375 0,0.19921875 0.152344,0.26953125 0.28125,0.26953125 0.304687,0 0.386719,-0.26953125 0.503906,-0.64453125 0.140625,-0.45703125 0.140625,-0.48046878 0.269531,-0.97265628 z m 0,0"
         style="fill:#000000;fill-opacity:1;fill-rule:nonzero;stroke:none" />
    </g>
  </g>
</svg>
