<?xml version="1.0" encoding="UTF-8" standalone="no"?>
<!-- Created with Inkscape (http://www.inkscape.org/) -->

<svg
   version="1.1"
   id="svg1"
   width="285.97333"
   height="295.60001"
   viewBox="0 0 285.97333 295.60001"
   sodipodi:docname="U(1)_n-in-R3.pdf"
   xmlns:inkscape="http://www.inkscape.org/namespaces/inkscape"
   xmlns:sodipodi="http://sodipodi.sourceforge.net/DTD/sodipodi-0.dtd"
   xmlns="http://www.w3.org/2000/svg"
   xmlns:svg="http://www.w3.org/2000/svg">
  <defs
     id="defs1" />
  <sodipodi:namedview
     id="namedview1"
     pagecolor="#ffffff"
     bordercolor="#000000"
     borderopacity="0.25"
     inkscape:showpageshadow="2"
     inkscape:pageopacity="0.0"
     inkscape:pagecheckerboard="0"
     inkscape:deskcolor="#d1d1d1">
    <inkscape:page
       x="0"
       y="0"
       inkscape:label="1"
       id="page1"
       width="285.97333"
       height="295.60001"
       margin="0"
       bleed="0" />
  </sodipodi:namedview>
  <g
     id="g1"
     inkscape:groupmode="layer"
     inkscape:label="1">
    <path
       id="path1"
       d="m 127.7725,-121.5109 c 0,44.82499 36.3367,81.16169 81.16169,81.16169 44.82498,0 81.1617,-36.3367 81.1617,-81.16169 0,-44.82498 -36.33672,-81.16169 -81.1617,-81.16169 -44.82499,0 -81.16169,36.33671 -81.16169,81.16169 z"
       style="fill:#4a90e2;fill-opacity:0.2;fill-rule:nonzero;stroke:#4a90e2;stroke-width:1.49442;stroke-linecap:butt;stroke-linejoin:miter;stroke-miterlimit:10;stroke-dasharray:none;stroke-opacity:1"
       transform="matrix(1.3333333,0,0,-1.3333333,-151.332,-5.424)" />
    <path
       id="path2"
       d="m 127.7725,-121.5109 c 0,11.60415 36.3367,21.01148 81.16169,21.01148 44.82498,0 81.1617,-9.40733 81.1617,-21.01148 0,-11.60412 -36.33672,-21.01147 -81.1617,-21.01147 -44.82499,0 -81.16169,9.40735 -81.16169,21.01147 z"
       style="fill:#4a90e2;fill-opacity:0.4;fill-rule:nonzero;stroke:#4a90e2;stroke-width:0.74721;stroke-linecap:butt;stroke-linejoin:miter;stroke-miterlimit:10;stroke-dasharray:none;stroke-opacity:1"
       transform="matrix(1.3333333,0,0,-1.3333333,-151.332,-5.424)" />
    <path
       id="path3"
       d="m 207.06618,-121.5109 c 0,1.03115 0.83687,1.86802 1.86801,1.86802 1.03116,0 1.86803,-0.83687 1.86803,-1.86802 0,-1.03115 -0.83687,-1.86802 -1.86803,-1.86802 -1.03114,0 -1.86801,0.83687 -1.86801,1.86802 z"
       style="fill:#9b9b9b;fill-opacity:1;fill-rule:nonzero;stroke:#9b9b9b;stroke-width:0.74721;stroke-linecap:butt;stroke-linejoin:miter;stroke-miterlimit:10;stroke-dasharray:none;stroke-opacity:1"
       transform="matrix(1.3333333,0,0,-1.3333333,-151.332,-5.424)" />
    <path
       id="path4"
       d="M 208.93419,-4.44588 V -121.5109"
       style="fill:none;stroke:#9b9b9b;stroke-width:0.74721;stroke-linecap:butt;stroke-linejoin:miter;stroke-miterlimit:10;stroke-dasharray:none;stroke-opacity:1"
       transform="matrix(1.3333333,0,0,-1.3333333,-151.332,-5.424)" />
    <path
       id="path5"
       d="M 314.45485,-121.5109 H 208.93419"
       style="fill:none;stroke:#9b9b9b;stroke-width:0.74721;stroke-linecap:butt;stroke-linejoin:miter;stroke-miterlimit:10;stroke-dasharray:none;stroke-opacity:1"
       transform="matrix(1.3333333,0,0,-1.3333333,-151.332,-5.424)" />
    <path
       id="path6"
       d="m 208.93419,-121.5109 -91.74216,-91.74214"
       style="fill:none;stroke:#9b9b9b;stroke-width:0.74721;stroke-linecap:butt;stroke-linejoin:miter;stroke-miterlimit:10;stroke-dasharray:none;stroke-opacity:1"
       transform="matrix(1.3333333,0,0,-1.3333333,-151.332,-5.424)" />
    <path
       id="path7"
       d="M 246.70552,-62.30963 208.93419,-121.5109"
       style="fill:none;stroke:#9013fe;stroke-width:1.49442;stroke-linecap:butt;stroke-linejoin:miter;stroke-miterlimit:10;stroke-dasharray:none;stroke-opacity:1"
       transform="matrix(1.3333333,0,0,-1.3333333,-151.332,-5.424)" />
    <path
       id="path8"
       d="m 208.93419,-121.5109 -37.77133,-59.20126"
       style="fill:none;stroke:#9013fe;stroke-width:1.49442;stroke-linecap:butt;stroke-linejoin:miter;stroke-miterlimit:10;stroke-dasharray:none;stroke-opacity:1"
       transform="matrix(1.3333333,0,0,-1.3333333,-151.332,-5.424)" />
    <path
       id="path9"
       d="m 168.17403,-180.71216 c 0,1.65134 1.33747,2.98883 2.98883,2.98883 1.6513,0 2.98883,-1.33749 2.98883,-2.98883 0,-1.65134 -1.33753,-2.98883 -2.98883,-2.98883 -1.65136,0 -2.98883,1.33749 -2.98883,2.98883 z"
       style="fill:#9013fe;fill-opacity:1;fill-rule:nonzero;stroke:#9013fe;stroke-width:0.74721;stroke-linecap:butt;stroke-linejoin:miter;stroke-miterlimit:10;stroke-dasharray:none;stroke-opacity:1"
       transform="matrix(1.3333333,0,0,-1.3333333,-151.332,-5.424)" />
    <path
       id="path10"
       d="m 290.09589,-121.3241 c 0,-0.0672 0,-0.12701 0,-0.1868 0,-11.60412 -36.33672,-21.01147 -81.1617,-21.01147 -44.07778,0 -79.94374,9.09351 -81.13182,20.42867 l 81.13182,0.5828 z"
       style="fill:none;stroke:#000000;stroke-width:1.49442;stroke-linecap:butt;stroke-linejoin:miter;stroke-miterlimit:10;stroke-dasharray:none;stroke-opacity:0"
       transform="matrix(1.3333333,0,0,-1.3333333,-151.332,-5.424)" />
    <path
       id="path11"
       d="m 290.09589,-121.3241 c 0,-0.0672 0,-0.12701 0,-0.1868 0,-11.60412 -36.33672,-21.01147 -81.1617,-21.01147 -44.07778,0 -79.94374,9.09351 -81.13182,20.42867"
       style="fill:none;stroke:#4a90e2;stroke-width:1.49442;stroke-linecap:butt;stroke-linejoin:miter;stroke-miterlimit:10;stroke-dasharray:none;stroke-opacity:1"
       transform="matrix(1.3333333,0,0,-1.3333333,-151.332,-5.424)" />
    <path
       id="path12"
       d="m 246.70552,-62.30963 v -69.25868"
       style="fill:none;stroke:#9013fe;stroke-width:0.74721;stroke-linecap:butt;stroke-linejoin:miter;stroke-miterlimit:10;stroke-dasharray:4.48325, 4.48325;stroke-dashoffset:0;stroke-opacity:1"
       transform="matrix(1.3333333,0,0,-1.3333333,-151.332,-5.424)" />
    <path
       id="path13"
       d="m 205.94536,-121.5109 c 0,1.65134 1.33749,2.98884 2.98883,2.98884 1.65134,0 2.98883,-1.3375 2.98883,-2.98884 0,-1.65133 -1.33749,-2.98883 -2.98883,-2.98883 -1.65134,0 -2.98883,1.3375 -2.98883,2.98883 z"
       style="fill:#9013fe;fill-opacity:1;fill-rule:nonzero;stroke:#9013fe;stroke-width:0.74721;stroke-linecap:butt;stroke-linejoin:miter;stroke-miterlimit:10;stroke-dasharray:none;stroke-opacity:1"
       transform="matrix(1.3333333,0,0,-1.3333333,-151.332,-5.424)" />
    <path
       id="path14"
       d="m 243.71669,-62.30963 c 0,1.64384 1.34499,2.98883 2.98883,2.98883 1.65135,0 2.98883,-1.34499 2.98883,-2.98883 0,-1.65134 -1.33748,-2.98883 -2.98883,-2.98883 -1.64384,0 -2.98883,1.33749 -2.98883,2.98883 z"
       style="fill:#9013fe;fill-opacity:1;fill-rule:nonzero;stroke:#9013fe;stroke-width:0.74721;stroke-linecap:butt;stroke-linejoin:miter;stroke-miterlimit:10;stroke-dasharray:none;stroke-opacity:1"
       transform="matrix(1.3333333,0,0,-1.3333333,-151.332,-5.424)" />
    <path
       id="path15"
       d="m 208.93419,-121.5109 37.74893,-8.06236"
       style="fill:none;stroke:#9013fe;stroke-width:0.74721;stroke-linecap:butt;stroke-linejoin:miter;stroke-miterlimit:10;stroke-dasharray:4.48325, 4.48325;stroke-dashoffset:0;stroke-opacity:1"
       transform="matrix(1.3333333,0,0,-1.3333333,-151.332,-5.424)" />
    <path
       id="path16"
       d="m 208.93419,-121.5109 18.86699,29.50722"
       style="fill:none;stroke:#9013fe;stroke-width:0.74721;stroke-linecap:butt;stroke-linejoin:miter;stroke-miterlimit:10;stroke-dasharray:none;stroke-opacity:1"
       transform="matrix(1.3333333,0,0,-1.3333333,-151.332,-5.424)" />
    <path
       id="path17"
       d="m 227.93797,-98.93407 1.07369,8.82083 -7.55702,-4.67459 4.69086,0.19291 z"
       style="fill:#9013fe;fill-opacity:1;fill-rule:nonzero;stroke:#000000;stroke-width:0.0797;stroke-linecap:butt;stroke-linejoin:miter;stroke-miterlimit:10;stroke-dasharray:none;stroke-opacity:0"
       transform="matrix(1.3333333,0,0,-1.3333333,-151.332,-5.424)" />
    <g
       id="g17"
       aria-label="x&#10;1"
       transform="matrix(1.3333333,0,0,1.3333333,8.4106667,294.608)">
      <path
         id="path18"
         d="m 3.3277422,-3.0106875 c 0.058594,-0.2578125 0.2929687,-1.171875 0.984375,-1.171875 0.046875,0 0.2929687,0 0.5039062,0.1289062 -0.28125,0.046875 -0.4804687,0.3046875 -0.4804687,0.5390625 0,0.1640625 0.1054687,0.3515625 0.375,0.3515625 0.2226562,0 0.5390625,-0.1875 0.5390625,-0.5859375 0,-0.515625 -0.5859375,-0.65625 -0.9257813,-0.65625 -0.5742187,0 -0.9257812,0.5273438 -1.0429687,0.7617188 -0.2578125,-0.65625 -0.7851563,-0.7617188 -1.078125,-0.7617188 -1.0429688,0 -1.60546876,1.2890625 -1.60546876,1.5351563 0,0.1054687 0.10546875,0.1054687 0.1171875,0.1054687 0.0820313,0 0.1171875,-0.023437 0.12890625,-0.1171875 0.33984371,-1.0546875 0.99609371,-1.3007812 1.33593751,-1.3007812 0.1875,0 0.5390625,0.09375 0.5390625,0.6679687 0,0.3046875 -0.1640625,0.9726563 -0.5390625,2.3671875 -0.1523438,0.6210938 -0.5039063,1.0429688 -0.9492188,1.0429688 -0.058594,0 -0.28124996,0 -0.49218746,-0.12890625 0.24609375,-0.0585938 0.46874996,-0.26953125 0.46874996,-0.5390625 0,-0.26953125 -0.22265621,-0.35156255 -0.37499996,-0.35156255 -0.29296875,0 -0.5390625,0.25781255 -0.5390625,0.5742188 0,0.45703125 0.4921875,0.65625 0.93749996,0.65625 0.65625,0 1.0078125,-0.69140625 1.0429688,-0.75 0.1171875,0.36328125 0.4804687,0.75 1.078125,0.75 1.0195312,0 1.59375,-1.2773438 1.59375,-1.5351563 0,-0.09375 -0.09375,-0.09375 -0.1289063,-0.09375 -0.082031,0 -0.1054687,0.035156 -0.1289062,0.1054688 -0.328125,1.06640625 -0.9960938,1.3125 -1.3242188,1.3125 -0.3867187,0 -0.5390625,-0.328125 -0.5390625,-0.65625 0,-0.22265625 0.058594,-0.4453125 0.1640625,-0.8789063 z m 0,0"
         style="fill:#000000;fill-opacity:1;fill-rule:nonzero;stroke:none" />
      <path
         id="path19"
         d="m 8.0269609,-8.0468203 c 0,-0.1875 -0.011719,-0.1992188 -0.2109375,-0.1992188 -0.4453125,0.4335938 -1.078125,0.4453125 -1.359375,0.4453125 v 0.2460938 c 0.1640625,0 0.6210938,0 1.0078125,-0.1875 v 3.5507812 c 0,0.234375 0,0.328125 -0.6914062,0.328125 H 6.5035234 v 0.2460938 c 0.1289063,-0.011719 0.984375,-0.023437 1.2421875,-0.023437 0.2109375,0 1.0898438,0.011719 1.2421875,0.023437 V -3.8632266 H 8.7300859 c -0.703125,0 -0.703125,-0.09375 -0.703125,-0.328125 z m 0,0"
         style="fill:#000000;fill-opacity:1;fill-rule:nonzero;stroke:none" />
    </g>
    <g
       id="g19"
       aria-label="x&#10;2"
       transform="matrix(1.3333333,0,0,1.3333333,271.428,172.28533)">
      <path
         id="path20"
         d="m 3.3293906,-3.0118516 c 0.058594,-0.2578125 0.2929688,-1.171875 0.984375,-1.171875 0.046875,0 0.2929688,0 0.5039063,0.1289063 -0.28125,0.046875 -0.4804688,0.3046875 -0.4804688,0.5390625 0,0.1640625 0.1054688,0.3515625 0.375,0.3515625 0.2226563,0 0.5390625,-0.1875 0.5390625,-0.5859375 0,-0.515625 -0.5859375,-0.65625 -0.9257812,-0.65625 -0.5742188,0 -0.9257813,0.5273437 -1.0429688,0.7617187 -0.2578125,-0.65625 -0.7851562,-0.7617187 -1.078125,-0.7617187 -1.0429687,0 -1.60546872,1.2890625 -1.60546872,1.5351562 0,0.1054688 0.10546875,0.1054688 0.1171875,0.1054688 0.0820313,0 0.1171875,-0.023437 0.12890625,-0.1171875 0.33984377,-1.0546875 0.99609377,-1.3007813 1.33593747,-1.3007813 0.1875,0 0.5390625,0.09375 0.5390625,0.6679688 0,0.3046875 -0.1640625,0.9726562 -0.5390625,2.3671875 -0.1523437,0.62109374 -0.5039062,1.04296874 -0.9492187,1.04296874 -0.058594,0 -0.28125002,0 -0.49218752,-0.12890625 0.24609375,-0.0585937 0.46875002,-0.26953125 0.46875002,-0.5390625 0,-0.26953129 -0.22265627,-0.35156249 -0.37500002,-0.35156249 -0.29296875,0 -0.5390625,0.25781249 -0.5390625,0.57421874 0,0.45703125 0.4921875,0.65625 0.93750002,0.65625 0.65625,0 1.0078125,-0.69140625 1.0429687,-0.75 0.1171875,0.36328125 0.4804688,0.75 1.078125,0.75 1.0195313,0 1.59375,-1.27734374 1.59375,-1.53515624 0,-0.09375 -0.09375,-0.09375 -0.1289062,-0.09375 -0.082031,0 -0.1054688,0.035156 -0.1289063,0.1054687 -0.328125,1.06640629 -0.9960937,1.31250004 -1.3242187,1.31250004 -0.3867188,0 -0.5390625,-0.328125 -0.5390625,-0.65625 0,-0.22265625 0.058594,-0.44531254 0.1640625,-0.87890624 z m 0,0"
         style="fill:#000000;fill-opacity:1;fill-rule:nonzero;stroke:none" />
      <path
         id="path21"
         d="m 9.2092734,-4.8809922 h -0.234375 c -0.023437,0.1523438 -0.082031,0.5625 -0.1757812,0.6328125 -0.058594,0.035156 -0.5976563,0.035156 -0.6914063,0.035156 H 6.8186484 c 0.7382813,-0.6445313 0.984375,-0.84375 1.3945313,-1.171875 0.515625,-0.4101563 0.9960937,-0.84375 0.9960937,-1.5 0,-0.84375 -0.7382812,-1.359375 -1.6289062,-1.359375 -0.8671875,0 -1.453125,0.609375 -1.453125,1.2421875 0,0.3632812 0.3046875,0.3984375 0.375,0.3984375 0.1640625,0 0.375,-0.1171875 0.375,-0.375 0,-0.1289063 -0.058594,-0.3632813 -0.421875,-0.3632813 0.2226562,-0.5039062 0.6914062,-0.65625 1.0195312,-0.65625 0.703125,0 1.0664063,0.5507813 1.0664063,1.1132813 0,0.609375 -0.4335938,1.0898437 -0.65625,1.3359375 l -1.6875,1.6640625 c -0.070312,0.058594 -0.070312,0.070312 -0.070312,0.2695312 h 2.8828125 z m 0,0"
         style="fill:#000000;fill-opacity:1;fill-rule:nonzero;stroke:none" />
    </g>
    <g
       id="g21"
       aria-label="x&#10;3"
       transform="matrix(1.3333333,0,0,1.3333333,130.73333,16.198667)">
      <path
         id="path22"
         d="m 3.3289063,-3.0113047 c 0.058594,-0.2578125 0.2929687,-1.171875 0.984375,-1.171875 0.046875,0 0.2929687,0 0.5039062,0.1289063 -0.28125,0.046875 -0.4804687,0.3046875 -0.4804687,0.5390625 0,0.1640625 0.1054687,0.3515625 0.375,0.3515625 0.2226562,0 0.5390625,-0.1875 0.5390625,-0.5859375 0,-0.515625 -0.5859375,-0.65625 -0.9257813,-0.65625 -0.5742187,0 -0.9257812,0.5273437 -1.0429687,0.7617187 -0.2578125,-0.65625 -0.7851563,-0.7617187 -1.078125,-0.7617187 -1.0429688,0 -1.6054688,1.2890625 -1.6054688,1.5351562 0,0.1054688 0.10546875,0.1054688 0.1171875,0.1054688 0.0820313,0 0.1171875,-0.023437 0.12890625,-0.1171875 C 1.184375,-3.9370859 1.840625,-4.1831797 2.1804688,-4.1831797 c 0.1875,0 0.5390625,0.09375 0.5390625,0.6679688 0,0.3046875 -0.1640625,0.9726562 -0.5390625,2.3671875 -0.1523438,0.62109371 -0.5039063,1.04296871 -0.9492188,1.04296871 -0.058594,0 -0.28125,0 -0.4921875,-0.12890625 0.24609375,-0.0585938 0.46875,-0.26953125 0.46875,-0.5390625 0,-0.26953126 -0.22265625,-0.35156246 -0.375,-0.35156246 -0.29296875,0 -0.5390625,0.25781246 -0.5390625,0.57421871 0,0.45703125 0.4921875,0.65625 0.9375,0.65625 0.65625,0 1.0078125,-0.69140625 1.0429688,-0.75 0.1171875,0.36328125 0.4804687,0.75 1.078125,0.75 1.0195312,0 1.59375,-1.27734371 1.59375,-1.53515621 0,-0.09375 -0.09375,-0.09375 -0.1289063,-0.09375 -0.082031,0 -0.1054687,0.035156 -0.1289062,0.1054687 -0.328125,1.06640626 -0.9960938,1.31250001 -1.3242188,1.31250001 -0.3867187,0 -0.5390625,-0.328125 -0.5390625,-0.65625 0,-0.22265625 0.058594,-0.44531251 0.1640625,-0.87890621 z m 0,0"
         style="fill:#000000;fill-opacity:1;fill-rule:nonzero;stroke:none" />
      <path
         id="path23"
         d="m 7.5916016,-5.9468516 c 0.5507812,0 0.9375,0.375 0.9375,1.125 0,0.8671875 -0.5039063,1.125 -0.9023438,1.125 -0.28125,0 -0.890625,-0.082031 -1.1835937,-0.4921875 0.328125,-0.011719 0.3984375,-0.2460937 0.3984375,-0.3867187 0,-0.2226563 -0.1640625,-0.3867188 -0.3867188,-0.3867188 -0.1875,0 -0.3867187,0.1171875 -0.3867187,0.4101563 0,0.65625 0.7265625,1.078125 1.5703125,1.078125 0.9726562,0 1.640625,-0.6445313 1.640625,-1.3476563 0,-0.5390625 -0.4453125,-1.0898437 -1.21875,-1.2421875 0.7382812,-0.2695312 0.9960937,-0.796875 0.9960937,-1.21875 0,-0.5507812 -0.6328125,-0.9609375 -1.40625,-0.9609375 -0.7734375,0 -1.359375,0.375 -1.359375,0.9375 0,0.234375 0.1523438,0.3632813 0.3632813,0.3632813 0.2109375,0 0.3515625,-0.1640625 0.3515625,-0.3515625 0,-0.1992188 -0.140625,-0.3515625 -0.3515625,-0.3632813 0.234375,-0.3046875 0.7148437,-0.3867187 0.9726562,-0.3867187 0.3164063,0 0.7617188,0.1523437 0.7617188,0.7617187 0,0.2929688 -0.1054688,0.609375 -0.28125,0.8320313 -0.234375,0.2578125 -0.421875,0.28125 -0.7734375,0.2929687 -0.1757813,0.023437 -0.1875,0.023437 -0.2226563,0.023437 -0.011719,0 -0.070312,0.011719 -0.070312,0.09375 0,0.09375 0.058594,0.09375 0.1757813,0.09375 z m 0,0"
         style="fill:#000000;fill-opacity:1;fill-rule:nonzero;stroke:none" />
    </g>
    <path
       id="path24"
       d="m 5.3444297,-5.9286094 c -0.1289063,0.1289063 -0.4570313,0.4101563 -0.4570313,0.5859375 0,0.1054688 0.09375,0.1992188 0.1992188,0.1992188 0.082031,0 0.1289062,-0.070312 0.1875,-0.1289063 0.1171875,-0.140625 0.3398437,-0.421875 0.7851562,-0.6445312 0.070312,-0.035156 0.1640625,-0.09375 0.1640625,-0.2109375 0,-0.09375 -0.070312,-0.1523438 -0.140625,-0.1992188 -0.2109375,-0.1523437 -0.328125,-0.328125 -0.3984375,-0.5625 -0.023437,-0.09375 -0.070312,-0.2226562 -0.1992187,-0.2226562 -0.140625,0 -0.1992188,0.1289062 -0.1992188,0.2109375 0,0.046875 0.070312,0.3632812 0.234375,0.5742187 H 2.1569297 c -0.1640625,0 -0.3398438,0 -0.3398438,0.1992188 0,0.1992187 0.1757813,0.1992187 0.3398438,0.1992187 z m -4.1953125,5.34375003 c -0.035156,0.15234375 -0.09375,0.375 -0.09375,0.421875 0,0.1875 0.140625,0.26953125 0.2929687,0.26953125 0.1171875,0 0.2929688,-0.0703125 0.3632813,-0.26953125 0.011719,-0.0234375 0.1289062,-0.4921875 0.1875,-0.73828125 L 2.1217734,-1.8036094 c 0.058594,-0.2226562 0.1171875,-0.4335937 0.1757813,-0.6679687 0.035156,-0.1640625 0.1171875,-0.4570313 0.1289062,-0.4921875 0.140625,-0.3164063 0.6679688,-1.21875 1.6171875,-1.21875 0.4453125,0 0.5390625,0.3632812 0.5390625,0.6914062 0,0.6210938 -0.4921875,1.8984375 -0.6445312,2.3320313 -0.09375,0.22265623 -0.1054688,0.33984373 -0.1054688,0.45703123 0,0.46875 0.3515625,0.80859375 0.8203125,0.80859375 0.9375,0 1.3007813,-1.45312498 1.3007813,-1.53515628 0,-0.09375 -0.082031,-0.09375 -0.1171875,-0.09375 -0.09375,0 -0.09375,0.023437 -0.1523438,0.1757813 -0.1992187,0.67968748 -0.5273437,1.24218748 -1.0078125,1.24218748 -0.1757812,0 -0.2460937,-0.10546875 -0.2460937,-0.328125 0,-0.2578125 0.09375,-0.4921875 0.1875,-0.71484378 0.1875,-0.5273437 0.5976562,-1.6171875 0.5976562,-2.1914062 0,-0.6679688 -0.421875,-1.0664063 -1.1367187,-1.0664063 -0.9023438,0 -1.3828125,0.6445313 -1.5585938,0.8671875 -0.046875,-0.5507812 -0.4570312,-0.8671875 -0.9140625,-0.8671875 -0.4570312,0 -0.64453121,0.3867188 -0.74999996,0.5742188 -0.15234375,0.3398437 -0.29296875,0.9257812 -0.29296875,0.9609375 0,0.1054687 0.09375,0.1054687 0.1171875,0.1054687 0.09375,0 0.10546875,-0.011719 0.1640625,-0.234375 0.17578121,-0.703125 0.37500001,-1.1835937 0.72656251,-1.1835937 0.1992187,0 0.3164062,0.1289062 0.3164062,0.4570312 0,0.2109375 -0.035156,0.3164063 -0.1640625,0.8320313 z m 0,0"
       style="fill:#9013fe;fill-opacity:1;fill-rule:nonzero;stroke:none"
       aria-label="⃗n"
       transform="matrix(1.3333333,0,0,1.3333333,133.128,117.772)" />
  </g>
</svg>
