<?xml version="1.0" encoding="UTF-8" standalone="no"?>
<!-- Created with Inkscape (http://www.inkscape.org/) -->

<svg
   version="1.1"
   id="svg1"
   width="227.03999"
   height="90.653336"
   viewBox="0 0 227.03999 90.653336"
   sodipodi:docname="Young-diagram.pdf"
   xmlns:inkscape="http://www.inkscape.org/namespaces/inkscape"
   xmlns:sodipodi="http://sodipodi.sourceforge.net/DTD/sodipodi-0.dtd"
   xmlns="http://www.w3.org/2000/svg"
   xmlns:svg="http://www.w3.org/2000/svg">
  <defs
     id="defs1" />
  <sodipodi:namedview
     id="namedview1"
     pagecolor="#ffffff"
     bordercolor="#000000"
     borderopacity="0.25"
     inkscape:showpageshadow="2"
     inkscape:pageopacity="0.0"
     inkscape:pagecheckerboard="0"
     inkscape:deskcolor="#d1d1d1">
    <inkscape:page
       x="0"
       y="0"
       inkscape:label="1"
       id="page1"
       width="227.03999"
       height="90.653336"
       margin="0"
       bleed="0" />
  </sodipodi:namedview>
  <g
     id="g1"
     inkscape:groupmode="layer"
     inkscape:label="1">
    <path
       id="path1"
       d="M 63.51265,-53.79895 H 86.85541 V -77.14171 H 63.51265 Z"
       style="fill:#f5a623;fill-opacity:0.2;fill-rule:nonzero;stroke:#000000;stroke-width:0.74721;stroke-linecap:butt;stroke-linejoin:miter;stroke-miterlimit:10;stroke-dasharray:none;stroke-opacity:1"
       transform="matrix(1.3333333,0,0,-1.3333333,-44.892,-43.821333)" />
    <path
       id="path2"
       d="m 86.85541,-53.79895 h 23.34276 V -77.14171 H 86.85541 Z"
       style="fill:#f5a623;fill-opacity:0.2;fill-rule:nonzero;stroke:#000000;stroke-width:0.74721;stroke-linecap:butt;stroke-linejoin:miter;stroke-miterlimit:10;stroke-dasharray:none;stroke-opacity:1"
       transform="matrix(1.3333333,0,0,-1.3333333,-44.892,-43.821333)" />
    <path
       id="path3"
       d="m 110.19817,-53.79895 h 23.34277 v -23.34276 h -23.34277 z"
       style="fill:#f5a623;fill-opacity:0.2;fill-rule:nonzero;stroke:#000000;stroke-width:0.74721;stroke-linecap:butt;stroke-linejoin:miter;stroke-miterlimit:10;stroke-dasharray:none;stroke-opacity:1"
       transform="matrix(1.3333333,0,0,-1.3333333,-44.892,-43.821333)" />
    <path
       id="path4"
       d="m 133.54094,-53.79895 h 23.34277 v -23.34276 h -23.34277 z"
       style="fill:#f5a623;fill-opacity:0.2;fill-rule:nonzero;stroke:#000000;stroke-width:0.74721;stroke-linecap:butt;stroke-linejoin:miter;stroke-miterlimit:10;stroke-dasharray:none;stroke-opacity:1"
       transform="matrix(1.3333333,0,0,-1.3333333,-44.892,-43.821333)" />
    <path
       id="path5"
       d="m 156.88371,-53.79895 h 23.35024 v -23.34276 h -23.35024 z"
       style="fill:#f5a623;fill-opacity:0.2;fill-rule:nonzero;stroke:#000000;stroke-width:0.74721;stroke-linecap:butt;stroke-linejoin:miter;stroke-miterlimit:10;stroke-dasharray:none;stroke-opacity:1"
       transform="matrix(1.3333333,0,0,-1.3333333,-44.892,-43.821333)" />
    <path
       id="path6"
       d="M 180.23395,-53.79895 H 203.5767 V -77.14171 H 180.23395 Z"
       style="fill:#f5a623;fill-opacity:0.2;fill-rule:nonzero;stroke:#000000;stroke-width:0.74721;stroke-linecap:butt;stroke-linejoin:miter;stroke-miterlimit:10;stroke-dasharray:none;stroke-opacity:1"
       transform="matrix(1.3333333,0,0,-1.3333333,-44.892,-43.821333)" />
    <path
       id="path7"
       d="m 63.51265,-77.14171 h 23.34276 v -23.34276 H 63.51265 Z"
       style="fill:#f5a623;fill-opacity:0.2;fill-rule:nonzero;stroke:#000000;stroke-width:0.74721;stroke-linecap:butt;stroke-linejoin:miter;stroke-miterlimit:10;stroke-dasharray:none;stroke-opacity:1"
       transform="matrix(1.3333333,0,0,-1.3333333,-44.892,-43.821333)" />
    <path
       id="path8"
       d="m 86.85541,-77.14171 h 23.34276 v -23.34276 H 86.85541 Z"
       style="fill:#f5a623;fill-opacity:0.2;fill-rule:nonzero;stroke:#000000;stroke-width:0.74721;stroke-linecap:butt;stroke-linejoin:miter;stroke-miterlimit:10;stroke-dasharray:none;stroke-opacity:1"
       transform="matrix(1.3333333,0,0,-1.3333333,-44.892,-43.821333)" />
    <path
       id="path9"
       d="m 110.19817,-77.14171 h 23.34277 v -23.34276 h -23.34277 z"
       style="fill:#f5a623;fill-opacity:0.2;fill-rule:nonzero;stroke:#000000;stroke-width:0.74721;stroke-linecap:butt;stroke-linejoin:miter;stroke-miterlimit:10;stroke-dasharray:none;stroke-opacity:1"
       transform="matrix(1.3333333,0,0,-1.3333333,-44.892,-43.821333)" />
    <path
       id="path10"
       d="m 133.54094,-77.14171 h 23.34277 v -23.34276 h -23.34277 z"
       style="fill:#f5a623;fill-opacity:0.2;fill-rule:nonzero;stroke:#000000;stroke-width:0.74721;stroke-linecap:butt;stroke-linejoin:miter;stroke-miterlimit:10;stroke-dasharray:none;stroke-opacity:1"
       transform="matrix(1.3333333,0,0,-1.3333333,-44.892,-43.821333)" />
    <path
       id="path11"
       d="M 65.75427,-45.57967 H 201.33508"
       style="fill:none;stroke:#000000;stroke-width:0.74721;stroke-linecap:butt;stroke-linejoin:miter;stroke-miterlimit:10;stroke-dasharray:none;stroke-opacity:1"
       transform="matrix(1.3333333,0,0,-1.3333333,-44.892,-43.821333)" />
    <path
       id="path12"
       d="m 196.90414,-48.78516 6.67256,3.20549 -6.67256,3.20551 z"
       style="fill:#000000;fill-opacity:1;fill-rule:nonzero;stroke:#000000;stroke-width:0.0797;stroke-linecap:butt;stroke-linejoin:miter;stroke-miterlimit:10;stroke-dasharray:none;stroke-opacity:0"
       transform="matrix(1.3333333,0,0,-1.3333333,-44.892,-43.821333)" />
    <path
       id="path13"
       d="m 70.1852,-42.37416 -6.67255,-3.20551 6.67255,-3.20549 z"
       style="fill:#000000;fill-opacity:1;fill-rule:nonzero;stroke:#000000;stroke-width:0.0797;stroke-linecap:butt;stroke-linejoin:miter;stroke-miterlimit:10;stroke-dasharray:none;stroke-opacity:0"
       transform="matrix(1.3333333,0,0,-1.3333333,-44.892,-43.821333)" />
    <g
       id="g13"
       aria-label="Y&#10;1"
       transform="matrix(1.3333333,0,0,1.3333333,6.416,45.854667)">
      <path
         id="path14"
         d="m 5.9399531,-5.6712734 0.140625,-0.140625 c 0.3046875,-0.2929688 0.6328125,-0.6328125 1.3125,-0.6796875 0.1054688,-0.011719 0.1992188,-0.011719 0.1992188,-0.1875 0,-0.082031 -0.058594,-0.1289063 -0.1289063,-0.1289063 -0.2578125,0 -0.5507812,0.035156 -0.8203125,0.035156 -0.328125,0 -0.6796875,-0.035156 -0.9960937,-0.035156 -0.058594,0 -0.1875,0 -0.1875,0.1992188 0,0.1054687 0.09375,0.1171875 0.1523437,0.1171875 0.070312,0 0.3515625,0.011719 0.3515625,0.2226562 0,0.1757813 -0.2226562,0.4335938 -0.2695312,0.4804688 l -2.3085938,2.6601562 -1.0898437,-2.953125 c -0.070312,-0.140625 -0.070312,-0.1640625 -0.070312,-0.1757812 0,-0.234375 0.4921875,-0.234375 0.5976562,-0.234375 0.1289063,0 0.234375,0 0.234375,-0.1992188 0,-0.1171875 -0.1171875,-0.1171875 -0.1523437,-0.1171875 -0.28125,0 -0.9726563,0.035156 -1.2539063,0.035156 -0.2460937,0 -0.86718747,-0.035156 -1.11328122,-0.035156 -0.0585938,0 -0.1875,0 -0.1875,0.1992188 0,0.1171875 0.09375,0.1171875 0.22265625,0.1171875 0.59765627,0 0.64453127,0.082031 0.72656247,0.3398437 l 1.2304688,3.2695313 c 0.011719,0.035156 0.035156,0.140625 0.035156,0.1757812 0,0.023437 -0.3984375,1.6289063 -0.4453125,1.80468751 -0.1289062,0.55078125 -0.140625,0.5859375 -0.9375,0.59765625 -0.18749997,0 -0.26953122,0 -0.26953122,0.19921875 0,0.1054687525 0.11718752,0.1054687525 0.14062502,0.1054687525 0.28125,0 0.9726562,-0.0351562525 1.2539062,-0.0351562525 0.28125,0 0.9960938,0.0351562525 1.2773438,0.0351562525 0.070312,0 0.1875,0 0.1875,-0.1992187525 0,-0.10546875 -0.082031,-0.10546875 -0.28125,-0.10546875 -0.011719,0 -0.1992188,0 -0.375,-0.0234375 -0.2109375,-0.0234375 -0.2695313,-0.0351563 -0.2695313,-0.1640625 0,-0.0703125 0.09375,-0.41015625 0.140625,-0.62109376 l 0.3515625,-1.40625 c 0.046875,-0.1875 0.058594,-0.2226562 0.140625,-0.3046875 z m 0,0"
         style="fill:#000000;fill-opacity:1;fill-rule:nonzero;stroke:none" />
      <path
         id="path15"
         d="m 8.1167109,-2.9349453 c 0,-0.1875 -0.011719,-0.1992188 -0.2109375,-0.1992188 -0.4453125,0.4335938 -1.078125,0.4453125 -1.359375,0.4453125 v 0.2460938 c 0.1640625,0 0.6210938,0 1.0078125,-0.1875 v 3.55078124 c 0,0.23437496 0,0.32812496 -0.6914062,0.32812496 H 6.5932734 v 0.2460938 c 0.1289063,-0.011719 0.984375,-0.023437 1.2421875,-0.023437 0.2109375,0 1.0898438,0.011719 1.2421875,0.023437 V 1.2486484 H 8.8198359 c -0.703125,0 -0.703125,-0.09375 -0.703125,-0.32812496 z m 0,0"
         style="fill:#000000;fill-opacity:1;fill-rule:nonzero;stroke:none" />
    </g>
    <g
       id="g15"
       aria-label="Y&#10;2"
       transform="matrix(1.3333333,0,0,1.3333333,6.416,78.732)">
      <path
         id="path16"
         d="m 5.9399531,-5.6730234 0.140625,-0.140625 c 0.3046875,-0.2929688 0.6328125,-0.6328125 1.3125,-0.6796875 0.1054688,-0.011719 0.1992188,-0.011719 0.1992188,-0.1875 0,-0.082031 -0.058594,-0.1289063 -0.1289063,-0.1289063 -0.2578125,0 -0.5507812,0.035156 -0.8203125,0.035156 -0.328125,0 -0.6796875,-0.035156 -0.9960937,-0.035156 -0.058594,0 -0.1875,0 -0.1875,0.1992188 0,0.1054687 0.09375,0.1171875 0.1523437,0.1171875 0.070312,0 0.3515625,0.011719 0.3515625,0.2226562 0,0.1757813 -0.2226562,0.4335938 -0.2695312,0.4804688 l -2.3085938,2.6601562 -1.0898437,-2.953125 c -0.070312,-0.140625 -0.070312,-0.1640625 -0.070312,-0.1757812 0,-0.234375 0.4921875,-0.234375 0.5976562,-0.234375 0.1289063,0 0.234375,0 0.234375,-0.1992188 0,-0.1171875 -0.1171875,-0.1171875 -0.1523437,-0.1171875 -0.28125,0 -0.9726563,0.035156 -1.2539063,0.035156 -0.2460937,0 -0.86718747,-0.035156 -1.11328122,-0.035156 -0.0585938,0 -0.1875,0 -0.1875,0.1992188 0,0.1171875 0.09375,0.1171875 0.22265625,0.1171875 0.59765627,0 0.64453127,0.082031 0.72656247,0.3398437 l 1.2304688,3.2695313 c 0.011719,0.035156 0.035156,0.140625 0.035156,0.1757812 0,0.023437 -0.3984375,1.6289063 -0.4453125,1.80468751 -0.1289062,0.55078125 -0.140625,0.5859375 -0.9375,0.59765625 -0.18749997,0 -0.26953122,0 -0.26953122,0.19921875 0,0.10546875 0.11718752,0.10546875 0.14062502,0.10546875 0.28125,0 0.9726562,-0.03515625 1.2539062,-0.03515625 0.28125,0 0.9960938,0.03515625 1.2773438,0.03515625 0.070312,0 0.1875,0 0.1875,-0.19921875 0,-0.10546875 -0.082031,-0.10546875 -0.28125,-0.10546875 -0.011719,0 -0.1992188,0 -0.375,-0.0234375 -0.2109375,-0.0234375 -0.2695313,-0.0351563 -0.2695313,-0.1640625 0,-0.0703125 0.09375,-0.41015625 0.140625,-0.62109376 l 0.3515625,-1.40625 c 0.046875,-0.1875 0.058594,-0.2226562 0.140625,-0.3046875 z m 0,0"
         style="fill:#000000;fill-opacity:1;fill-rule:nonzero;stroke:none" />
      <path
         id="path17"
         d="m 9.3003047,0.22736719 h -0.234375 c -0.023437,0.15234375 -0.082031,0.5625 -0.1757813,0.6328125 -0.058594,0.0351563 -0.5976562,0.0351563 -0.6914062,0.0351563 H 6.9096797 c 0.7382812,-0.64453125 0.984375,-0.84375 1.3945312,-1.171875 0.515625,-0.41015625 0.9960938,-0.84374999 0.9960938,-1.49999999 0,-0.84375 -0.7382813,-1.359375 -1.6289063,-1.359375 -0.8671875,0 -1.453125,0.609375 -1.453125,1.2421875 0,0.3632813 0.3046875,0.3984375 0.375,0.3984375 0.1640625,0 0.375,-0.1171875 0.375,-0.375 0,-0.1289062 -0.058594,-0.3632812 -0.421875,-0.3632812 0.2226563,-0.5039063 0.6914063,-0.65625 1.0195313,-0.65625 0.703125,0 1.0664062,0.5507812 1.0664062,1.1132812 0,0.609375 -0.4335937,1.08984374 -0.65625,1.33593749 l -1.6875,1.66406251 c -0.070312,0.058594 -0.070312,0.070312 -0.070312,0.2695313 h 2.8828125 z m 0,0"
         style="fill:#000000;fill-opacity:1;fill-rule:nonzero;stroke:none" />
    </g>
    <g
       id="g17"
       aria-label="Y&#10;i"
       transform="matrix(1.3333333,0,0,1.3333333,127.096,10.077333)">
      <path
         id="path18"
         d="m 5.9426484,-5.6712813 0.140625,-0.140625 c 0.3046875,-0.2929687 0.6328125,-0.6328125 1.3125,-0.6796875 0.1054688,-0.011719 0.1992188,-0.011719 0.1992188,-0.1875 0,-0.082031 -0.058594,-0.1289062 -0.1289063,-0.1289062 -0.2578125,0 -0.5507812,0.035156 -0.8203125,0.035156 -0.328125,0 -0.6796875,-0.035156 -0.9960937,-0.035156 -0.058594,0 -0.1875,0 -0.1875,0.1992187 0,0.1054688 0.09375,0.1171875 0.1523437,0.1171875 0.070312,0 0.3515625,0.011719 0.3515625,0.2226563 0,0.1757812 -0.2226562,0.4335937 -0.2695312,0.4804687 l -2.3085938,2.6601563 -1.0898437,-2.953125 c -0.070312,-0.140625 -0.070312,-0.1640625 -0.070312,-0.1757813 0,-0.234375 0.4921875,-0.234375 0.5976562,-0.234375 0.1289063,0 0.234375,0 0.234375,-0.1992187 C 3.0598359,-6.808 2.9426484,-6.808 2.9074922,-6.808 c -0.28125,0 -0.9726563,0.035156 -1.2539063,0.035156 -0.2460937,0 -0.86718746,-0.035156 -1.11328121,-0.035156 -0.0585938,0 -0.1875,0 -0.1875,0.1992187 0,0.1171875 0.09375,0.1171875 0.22265625,0.1171875 0.59765626,0 0.64453126,0.082031 0.72656246,0.3398438 l 1.2304688,3.2695312 c 0.011719,0.035156 0.035156,0.140625 0.035156,0.1757813 0,0.023437 -0.3984375,1.6289062 -0.4453125,1.8046875 -0.1289062,0.55078125 -0.140625,0.5859375 -0.9375,0.59765625 -0.18749996,0 -0.26953121,0 -0.26953121,0.19921875 0,0.10546875 0.11718751,0.10546875 0.14062501,0.10546875 0.28125,0 0.9726562,-0.03515625 1.2539062,-0.03515625 0.28125,0 0.9960938,0.03515625 1.2773438,0.03515625 0.070312,0 0.1875,0 0.1875,-0.19921875 0,-0.10546875 -0.082031,-0.10546875 -0.28125,-0.10546875 -0.011719,0 -0.1992188,0 -0.375,-0.0234375 -0.2109375,-0.0234375 -0.2695313,-0.0351563 -0.2695313,-0.1640625 0,-0.0703125 0.09375,-0.41015625 0.140625,-0.62109375 l 0.3515625,-1.40625 c 0.046875,-0.1875 0.058594,-0.2226563 0.140625,-0.3046875 z m 0,0"
         style="fill:#000000;fill-opacity:1;fill-rule:nonzero;stroke:none" />
      <path
         id="path19"
         d="m 8.0461641,-2.8646406 c 0,-0.1054688 -0.082031,-0.2578125 -0.28125,-0.2578125 -0.1875,0 -0.3867188,0.1757812 -0.3867188,0.375 0,0.1171875 0.082031,0.2695312 0.2695313,0.2695312 0.2109375,0 0.3984375,-0.1992187 0.3984375,-0.3867187 z M 6.6164766,0.67442187 c -0.023437,0.09375 -0.058594,0.17578125 -0.058594,0.29296875 0,0.32812498 0.28125,0.59765628 0.6679688,0.59765628 0.6914062,0 0.9960937,-0.96093753 0.9960937,-1.06640628 0,-0.09375 -0.082031,-0.09375 -0.1054687,-0.09375 -0.1054688,0 -0.1054688,0.046875 -0.140625,0.1171875 C 7.8235078,1.0845781 7.5188203,1.3658281 7.2375703,1.3658281 c -0.140625,0 -0.1757812,-0.082031 -0.1757812,-0.2460937 0,-0.15234378 0.058594,-0.29296878 0.1171875,-0.44531253 0.070312,-0.1875 0.140625,-0.375 0.2226562,-0.55078125 0.058594,-0.1640625 0.3164063,-0.80859375 0.3398438,-0.890625 0.023437,-0.0703125 0.046875,-0.15234375 0.046875,-0.22265625 0,-0.32812497 -0.28125,-0.58593747 -0.6679688,-0.58593747 -0.6914062,0 -1.0078125,0.94921872 -1.0078125,1.06640622 0,0.0820313 0.09375,0.0820313 0.1171875,0.0820313 0.09375,0 0.1054688,-0.0351563 0.1289063,-0.10546875 C 6.5344453,-1.1302655 6.8391328,-1.388078 7.0969453,-1.388078 c 0.1171875,0 0.1757813,0.058594 0.1757813,0.2460937 0,0.16406247 -0.035156,0.26953122 -0.2109375,0.70312497 z m 0,0"
         style="fill:#000000;fill-opacity:1;fill-rule:nonzero;stroke:none" />
    </g>
  </g>
</svg>
