<?xml version="1.0" encoding="UTF-8" standalone="no"?>
<!-- Created with Inkscape (http://www.inkscape.org/) -->

<svg
   version="1.1"
   id="svg1"
   width="242.49333"
   height="146.28"
   viewBox="0 0 242.49333 146.28"
   sodipodi:docname="conjugacy-class-and-centralizer.pdf"
   xmlns:inkscape="http://www.inkscape.org/namespaces/inkscape"
   xmlns:sodipodi="http://sodipodi.sourceforge.net/DTD/sodipodi-0.dtd"
   xmlns="http://www.w3.org/2000/svg"
   xmlns:svg="http://www.w3.org/2000/svg">
  <defs
     id="defs1" />
  <sodipodi:namedview
     id="namedview1"
     pagecolor="#ffffff"
     bordercolor="#000000"
     borderopacity="0.25"
     inkscape:showpageshadow="2"
     inkscape:pageopacity="0.0"
     inkscape:pagecheckerboard="0"
     inkscape:deskcolor="#d1d1d1">
    <inkscape:page
       x="0"
       y="0"
       inkscape:label="1"
       id="page1"
       width="242.49333"
       height="146.28"
       margin="0"
       bleed="0" />
  </sodipodi:namedview>
  <g
     id="g1"
     inkscape:groupmode="layer"
     inkscape:label="1">
    <path
       id="path1"
       d="m 33.62434,-50.06291 h 44.26458 v -89.21657 H 33.62434 Z"
       style="fill:none;stroke:#000000;stroke-width:1.49442;stroke-linecap:butt;stroke-linejoin:miter;stroke-miterlimit:10;stroke-dasharray:none;stroke-opacity:1"
       transform="matrix(1.3333333,0,0,-1.3333333,-39.412,-40.42)" />
    <path
       id="path2"
       d="m 77.88892,-50.06291 h 44.26457 v -89.21657 H 77.88892 Z"
       style="fill:none;stroke:#000000;stroke-width:1.49442;stroke-linecap:butt;stroke-linejoin:miter;stroke-miterlimit:10;stroke-dasharray:none;stroke-opacity:1"
       transform="matrix(1.3333333,0,0,-1.3333333,-39.412,-40.42)" />
    <path
       id="path3"
       d="m 122.15349,-50.06291 h 44.26459 v -89.21657 h -44.26459 z"
       style="fill:none;stroke:#000000;stroke-width:1.49442;stroke-linecap:butt;stroke-linejoin:miter;stroke-miterlimit:10;stroke-dasharray:none;stroke-opacity:1"
       transform="matrix(1.3333333,0,0,-1.3333333,-39.412,-40.42)" />
    <path
       id="path4"
       d="m 166.41808,-50.06291 h 44.26458 v -89.21657 h -44.26458 z"
       style="fill:none;stroke:#000000;stroke-width:1.49442;stroke-linecap:butt;stroke-linejoin:miter;stroke-miterlimit:10;stroke-dasharray:none;stroke-opacity:1"
       transform="matrix(1.3333333,0,0,-1.3333333,-39.412,-40.42)" />
    <path
       id="path5"
       d="m 33.62434,-50.06291 h 35.78377 v -60.88994 H 33.62434 Z"
       style="fill:#f5a623;fill-opacity:0.2;fill-rule:nonzero;stroke:#f5a623;stroke-width:0.74721;stroke-linecap:butt;stroke-linejoin:miter;stroke-miterlimit:10;stroke-dasharray:none;stroke-opacity:0.2"
       transform="matrix(1.3333333,0,0,-1.3333333,-39.412,-40.42)" />
    <path
       id="path6"
       d="M 33.87091,-69.60985 H 167.03825 V -89.53041 H 33.87091 Z"
       style="fill:#7ed321;fill-opacity:0.2;fill-rule:nonzero;stroke:#417505;stroke-width:0.74721;stroke-linecap:butt;stroke-linejoin:miter;stroke-miterlimit:10;stroke-dasharray:none;stroke-opacity:1"
       transform="matrix(1.3333333,0,0,-1.3333333,-39.412,-40.42)" />
    <path
       id="path7"
       d="m 1.8643203,-2.2955078 c 0.2929688,0 1.03125,-0.023437 1.5234375,-0.234375 0.703125,-0.2929688 0.75,-0.890625 0.75,-1.0195313 0,-0.4453125 -0.3867187,-0.8554687 -1.0664062,-0.8554687 -1.1132813,0 -2.61328129,0.9726562 -2.61328129,2.7070312 0,1.01953129 0.58593749,1.80468754 1.57031249,1.80468754 1.4179688,0 2.2617188,-1.0546875 2.2617188,-1.17187504 0,-0.058594 -0.070312,-0.1289062 -0.1289063,-0.1289062 -0.046875,0 -0.070312,0.023437 -0.1289062,0.09375 -0.7851563,0.99609374 -1.875,0.99609374 -1.9921875,0.99609374 -0.7734375,0 -0.8671875,-0.84375 -0.8671875,-1.16015624 0,-0.1171875 0.011719,-0.4335938 0.1640625,-1.03125 z m -0.46875,-0.2226563 c 0.3867188,-1.5117187 1.4179688,-1.6640625 1.6757813,-1.6640625 0.46875,0 0.7382812,0.2929688 0.7382812,0.6328125 0,1.03125 -1.59375,1.03125 -2.0039062,1.03125 z m 0,0"
       style="fill:#000000;fill-opacity:1;fill-rule:nonzero;stroke:none"
       aria-label="e"
       transform="matrix(1.3333333,0,0,1.3333333,14.885333,36.533333)" />
    <path
       id="path8"
       d="m 4.6885391,-3.748875 c 0.011719,-0.070312 0.035156,-0.1171875 0.035156,-0.1875 0,-0.1640625 -0.1171875,-0.2695313 -0.2929687,-0.2695313 -0.09375,0 -0.3632813,0.070312 -0.4101563,0.4335938 -0.1757812,-0.375 -0.5273437,-0.6328125 -0.9257812,-0.6328125 -1.1367188,0 -2.36718754,1.3945312 -2.36718754,2.8359375 0,0.984375 0.60937504,1.5703125 1.32421874,1.5703125 0.5859375,0 1.0546875,-0.46875 1.1601563,-0.57421875 l 0.011719,0.0117188 c -0.2109375,0.87890625 -0.328125,1.2890625 -0.328125,1.3125 -0.046875,0.0820313 -0.3867187,1.07812505 -1.4414062,1.07812505 -0.1875,0 -0.51562504,-0.011719 -0.79687504,-0.1054688 0.3046875,-0.09375 0.41015624,-0.3515625 0.41015624,-0.515625 0,-0.1640625 -0.10546874,-0.3515625 -0.37499999,-0.3515625 -0.22265625,0 -0.5390625,0.1757813 -0.5390625,0.5742188 0,0.4101562 0.36328125,0.609375 1.32421879,0.609375 1.2421875,0 1.9570312,-0.7734375 2.109375,-1.3710938 z m -1.2890625,2.4726562 c -0.058594,0.2578125 -0.2929688,0.51562505 -0.5039063,0.70312505 -0.2109375,0.17578125 -0.5273437,0.3515625 -0.8085937,0.3515625 -0.5039063,0 -0.65625,-0.515625 -0.65625,-0.91406255 0,-0.4804687 0.2929687,-1.6523437 0.5625,-2.15625 0.2695312,-0.4921875 0.703125,-0.890625 1.1132812,-0.890625 0.65625,0 0.796875,0.8085938 0.796875,0.8554688 0,0.046875 -0.011719,0.1054687 -0.023437,0.1523437 z m 0,0"
       style="fill:#000000;fill-opacity:1;fill-rule:nonzero;stroke:none"
       aria-label="g"
       transform="matrix(1.3333333,0,0,1.3333333,14.885333,62.436)" />
    <g
       id="g8"
       aria-label="C(g)"
       transform="matrix(1.3333333,0,0,1.3333333,20.862667,130.44133)">
      <path
         id="path9"
         d="m 7.5707734,-6.9257266 c 0,-0.023437 -0.023437,-0.09375 -0.1054687,-0.09375 -0.035156,0 -0.046875,0.011719 -0.1523438,0.1171875 l -0.703125,0.7617188 c -0.082031,-0.140625 -0.5390625,-0.8789063 -1.6523437,-0.8789063 -2.2148438,0 -4.45312501,2.203125 -4.45312501,4.5117188 0,1.64062499 1.17187501,2.73046874 2.69531251,2.73046874 0.8671875,0 1.6171875,-0.3984375 2.1445312,-0.85546875 0.9375,-0.82031249 1.1015625,-1.72265629 1.1015625,-1.75781249 0,-0.1054688 -0.1054687,-0.1054688 -0.1171875,-0.1054688 -0.058594,0 -0.1171875,0.023437 -0.1289062,0.1054688 -0.09375,0.2929687 -0.3164063,0.9960937 -1.0078125,1.57031249 -0.6914063,0.5625 -1.3125,0.7265625 -1.8398438,0.7265625 -0.890625,0 -1.9453125,-0.515625 -1.9453125,-2.06249999 0,-0.5742188 0.2109375,-2.1914063 1.2070313,-3.3515625 0.609375,-0.703125 1.5351562,-1.2070313 2.4257812,-1.2070313 1.0195313,0 1.6054688,0.7734375 1.6054688,1.921875 0,0.3984375 -0.035156,0.4101563 -0.035156,0.5039063 0,0.1054687 0.1171875,0.1054687 0.1523438,0.1054687 0.1289062,0 0.1289062,-0.023437 0.1757812,-0.1992187 z m 0,0"
         style="fill:#000000;fill-opacity:1;fill-rule:nonzero;stroke:none" />
      <path
         id="path10"
         d="m 11.127414,2.3906797 c 0,-0.035156 0,-0.046875 -0.164062,-0.2226563 -1.2421879,-1.25390621 -1.5703129,-3.12890621 -1.5703129,-4.6640625 0,-1.7226562 0.3867187,-3.4570312 1.6054689,-4.7109375 0.128906,-0.1171875 0.128906,-0.1289062 0.128906,-0.1640625 0,-0.070312 -0.03516,-0.1054687 -0.09375,-0.1054687 -0.105469,0 -0.996094,0.6796875 -1.5820312,1.9453125 -0.515625,1.1015625 -0.6328125,2.203125 -0.6328125,3.0351562 0,0.7851563 0.1171875,1.99218754 0.65625,3.11718754 0.5976567,1.21874996 1.4531247,1.87499996 1.5585937,1.87499996 0.05859,0 0.09375,-0.035156 0.09375,-0.1054687 z m 0,0"
         style="fill:#000000;fill-opacity:1;fill-rule:nonzero;stroke:none" />
      <path
         id="path11"
         d="m 16.394992,-3.7499453 c 0.01172,-0.070312 0.03516,-0.1171875 0.03516,-0.1875 0,-0.1640625 -0.117187,-0.2695313 -0.292968,-0.2695313 -0.09375,0 -0.363282,0.070312 -0.410157,0.4335938 -0.175781,-0.375 -0.527343,-0.6328125 -0.925781,-0.6328125 -1.136719,0 -2.367187,1.3945312 -2.367187,2.8359375 0,0.98437499 0.609375,1.5703124875 1.324218,1.5703124875 0.585938,0 1.054688,-0.4687499975 1.160157,-0.5742187475 l 0.01172,0.0117188 c -0.210937,0.87890625 -0.328125,1.2890625 -0.328125,1.3125 -0.04687,0.0820313 -0.386718,1.07812496 -1.441406,1.07812496 -0.1875,0 -0.515625,-0.011719 -0.796875,-0.1054688 0.304688,-0.09375 0.410156,-0.3515625 0.410156,-0.515625 0,-0.1640625 -0.105468,-0.35156241 -0.375,-0.35156241 -0.222656,0 -0.539062,0.17578121 -0.539062,0.57421871 0,0.4101562 0.363281,0.6093751 1.324219,0.6093751 1.242187,0 1.957031,-0.7734376 2.109375,-1.37109381 z m -1.289062,2.4726562 c -0.05859,0.2578125 -0.292969,0.51562504 -0.503907,0.70312504 -0.210937,0.17578125 -0.527343,0.3515625 -0.808593,0.3515625 -0.503907,0 -0.65625,-0.515625 -0.65625,-0.91406254 0,-0.4804687 0.292968,-1.6523437 0.5625,-2.15625 0.269531,-0.4921875 0.703125,-0.890625 1.113281,-0.890625 0.65625,0 0.796875,0.8085938 0.796875,0.8554688 0,0.046875 -0.01172,0.1054687 -0.02344,0.1523437 z m 0,0"
         style="fill:#000000;fill-opacity:1;fill-rule:nonzero;stroke:none" />
      <path
         id="path12"
         d="m 19.69968,-2.4960391 c 0,-0.7734375 -0.117188,-1.9804687 -0.65625,-3.1054687 -0.597657,-1.21875 -1.464844,-1.875 -1.558594,-1.875 -0.05859,0 -0.105469,0.046875 -0.105469,0.1054687 0,0.035156 0,0.046875 0.199219,0.234375 0.972656,0.984375 1.535156,2.5664063 1.535156,4.640625 0,1.71093754 -0.363281,3.45703129 -1.59375,4.7226563 -0.140625,0.1171875 -0.140625,0.1289062 -0.140625,0.1640625 0,0.058594 0.04687,0.1054687 0.105469,0.1054687 0.09375,0 0.996094,-0.6796875 1.582031,-1.94531246 0.503906,-1.1015625 0.632813,-2.20312504 0.632813,-3.04687504 z m 0,0"
         style="fill:#000000;fill-opacity:1;fill-rule:nonzero;stroke:none" />
    </g>
    <g
       id="g12"
       aria-label="g&#10;1&#10;C(g)"
       transform="matrix(1.3333333,0,0,1.3333333,71.174667,129.94267)">
      <path
         id="path13"
         d="m 4.6883359,-3.7509453 c 0.011719,-0.070312 0.035156,-0.1171875 0.035156,-0.1875 0,-0.1640625 -0.1171875,-0.2695313 -0.2929688,-0.2695313 -0.09375,0 -0.3632812,0.070312 -0.4101562,0.4335938 -0.1757813,-0.375 -0.5273438,-0.6328125 -0.9257813,-0.6328125 -1.1367187,0 -2.36718746,1.3945312 -2.36718746,2.8359375 0,0.98437499 0.60937496,1.5703124875 1.32421876,1.5703124875 0.5859375,0 1.0546875,-0.4687499975 1.1601562,-0.5742187475 l 0.011719,0.0117188 c -0.2109375,0.87890625 -0.328125,1.2890625 -0.328125,1.3125 -0.046875,0.0820313 -0.3867188,1.07812506 -1.4414063,1.07812506 -0.1875,0 -0.51562496,-0.011719 -0.79687496,-0.1054688 0.3046875,-0.09375 0.41015626,-0.3515625 0.41015626,-0.515625 0,-0.1640625 -0.10546876,-0.35156251 -0.37500001,-0.35156251 -0.22265625,0 -0.5390625,0.17578131 -0.5390625,0.57421881 0,0.4101562 0.36328125,0.609375 1.32421871,0.609375 1.2421875,0 1.9570313,-0.7734375 2.109375,-1.37109381 z m -1.2890625,2.4726562 c -0.058594,0.2578125 -0.2929687,0.51562504 -0.5039062,0.70312504 -0.2109375,0.17578125 -0.5273438,0.3515625 -0.8085938,0.3515625 -0.5039062,0 -0.65625,-0.515625 -0.65625,-0.91406254 0,-0.4804687 0.2929688,-1.6523437 0.5625,-2.15625 0.2695313,-0.4921875 0.703125,-0.890625 1.1132813,-0.890625 0.65625,0 0.796875,0.8085938 0.796875,0.8554688 0,0.046875 -0.011719,0.1054687 -0.023437,0.1523437 z m 0,0"
         style="fill:#000000;fill-opacity:1;fill-rule:nonzero;stroke:none" />
      <path
         id="path14"
         d="m 7.0848203,-2.9335625 c 0,-0.1875 -0.011719,-0.1992187 -0.2109375,-0.1992187 -0.4453125,0.4335937 -1.078125,0.4453125 -1.359375,0.4453125 v 0.2460937 c 0.1640625,0 0.6210938,0 1.0078125,-0.1875 v 3.55078125 c 0,0.23437505 0,0.32812505 -0.6914062,0.32812505 H 5.5613828 V 1.496125 c 0.1289063,-0.011719 0.984375,-0.023437 1.2421875,-0.023437 0.2109375,0 1.0898438,0.011719 1.2421875,0.023437 V 1.2500313 H 7.7879453 c -0.703125,0 -0.703125,-0.09375 -0.703125,-0.32812505 z m 0,0"
         style="fill:#000000;fill-opacity:1;fill-rule:nonzero;stroke:none" />
      <path
         id="path15"
         d="m 16.790875,-6.9267266 c 0,-0.023437 -0.02344,-0.09375 -0.105469,-0.09375 -0.03516,0 -0.04687,0.011719 -0.152344,0.1171875 l -0.703125,0.7617188 c -0.08203,-0.140625 -0.539062,-0.8789063 -1.652343,-0.8789063 -2.214844,0 -4.4531253,2.203125 -4.4531253,4.5117188 0,1.64062499 1.1718753,2.73046874 2.6953123,2.73046874 0.867188,0 1.617188,-0.3984375 2.144531,-0.85546875 0.9375,-0.82031249 1.101563,-1.72265629 1.101563,-1.75781249 0,-0.1054688 -0.105469,-0.1054688 -0.117188,-0.1054688 -0.05859,0 -0.117187,0.023437 -0.128906,0.1054688 -0.09375,0.2929687 -0.316406,0.9960937 -1.007812,1.57031249 -0.691407,0.5625 -1.3125,0.7265625 -1.839844,0.7265625 -0.890625,0 -1.945313,-0.515625 -1.945313,-2.06249999 0,-0.5742188 0.210938,-2.1914063 1.207032,-3.3515625 0.609375,-0.703125 1.535156,-1.2070313 2.425781,-1.2070313 1.019531,0 1.605469,0.7734375 1.605469,1.921875 0,0.3984375 -0.03516,0.4101563 -0.03516,0.5039063 0,0.1054687 0.117188,0.1054687 0.152344,0.1054687 0.128906,0 0.128906,-0.023437 0.175781,-0.1992187 z m 0,0"
         style="fill:#000000;fill-opacity:1;fill-rule:nonzero;stroke:none" />
      <path
         id="path16"
         d="m 20.347516,2.3896797 c 0,-0.035156 0,-0.046875 -0.164063,-0.2226563 -1.242187,-1.25390621 -1.570312,-3.12890621 -1.570312,-4.6640625 0,-1.7226562 0.386718,-3.4570312 1.605468,-4.7109375 0.128907,-0.1171875 0.128907,-0.1289062 0.128907,-0.1640625 0,-0.070312 -0.03516,-0.1054687 -0.09375,-0.1054687 -0.105469,0 -0.996094,0.6796875 -1.582032,1.9453125 -0.515625,1.1015625 -0.632812,2.203125 -0.632812,3.0351562 0,0.7851563 0.117187,1.99218754 0.65625,3.11718754 0.597656,1.21874996 1.453125,1.87499996 1.558594,1.87499996 0.05859,0 0.09375,-0.035156 0.09375,-0.1054687 z m 0,0"
         style="fill:#000000;fill-opacity:1;fill-rule:nonzero;stroke:none" />
      <path
         id="path17"
         d="m 25.615094,-3.7509453 c 0.01172,-0.070312 0.03516,-0.1171875 0.03516,-0.1875 0,-0.1640625 -0.117188,-0.2695313 -0.292969,-0.2695313 -0.09375,0 -0.363281,0.070312 -0.410156,0.4335938 -0.175781,-0.375 -0.527344,-0.6328125 -0.925781,-0.6328125 -1.136719,0 -2.367188,1.3945312 -2.367188,2.8359375 0,0.98437499 0.609375,1.5703124875 1.324219,1.5703124875 0.585937,0 1.054687,-0.4687499975 1.160156,-0.5742187475 l 0.01172,0.0117188 c -0.210938,0.87890625 -0.328125,1.2890625 -0.328125,1.3125 -0.04687,0.0820313 -0.386719,1.07812506 -1.441406,1.07812506 -0.1875,0 -0.515625,-0.011719 -0.796875,-0.1054688 0.304687,-0.09375 0.410156,-0.3515625 0.410156,-0.515625 0,-0.1640625 -0.105469,-0.35156251 -0.375,-0.35156251 -0.222656,0 -0.539063,0.17578131 -0.539063,0.57421881 0,0.4101562 0.363282,0.609375 1.324219,0.609375 1.242188,0 1.957031,-0.7734375 2.109375,-1.37109381 z m -1.289063,2.4726562 c -0.05859,0.2578125 -0.292969,0.51562504 -0.503906,0.70312504 -0.210938,0.17578125 -0.527344,0.3515625 -0.808594,0.3515625 -0.503906,0 -0.65625,-0.515625 -0.65625,-0.91406254 0,-0.4804687 0.292969,-1.6523437 0.5625,-2.15625 0.269531,-0.4921875 0.703125,-0.890625 1.113281,-0.890625 0.65625,0 0.796875,0.8085938 0.796875,0.8554688 0,0.046875 -0.01172,0.1054687 -0.02344,0.1523437 z m 0,0"
         style="fill:#000000;fill-opacity:1;fill-rule:nonzero;stroke:none" />
      <path
         id="path18"
         d="m 28.919781,-2.4970391 c 0,-0.7734375 -0.117187,-1.9804687 -0.65625,-3.1054687 -0.597656,-1.21875 -1.464844,-1.875 -1.558594,-1.875 -0.05859,0 -0.105468,0.046875 -0.105468,0.1054687 0,0.035156 0,0.046875 0.199218,0.234375 0.972657,0.984375 1.535157,2.5664063 1.535157,4.640625 0,1.71093754 -0.363282,3.45703129 -1.59375,4.7226563 -0.140625,0.1171875 -0.140625,0.1289062 -0.140625,0.1640625 0,0.058594 0.04687,0.1054687 0.105468,0.1054687 0.09375,0 0.996094,-0.6796875 1.582032,-1.94531246 0.503906,-1.1015625 0.632812,-2.20312504 0.632812,-3.04687504 z m 0,0"
         style="fill:#000000;fill-opacity:1;fill-rule:nonzero;stroke:none" />
    </g>
    <g
       id="g18"
       aria-label="g&#10;k"
       transform="matrix(1.3333333,0,0,1.3333333,33.485333,67.662667)">
      <path
         id="path19"
         d="m 4.6867812,-3.7489531 c 0.011719,-0.070312 0.035156,-0.1171875 0.035156,-0.1875 0,-0.1640625 -0.1171875,-0.2695313 -0.2929688,-0.2695313 -0.09375,0 -0.3632812,0.070312 -0.4101562,0.4335938 -0.1757813,-0.375 -0.5273438,-0.6328125 -0.9257813,-0.6328125 -1.1367187,0 -2.36718745,1.3945312 -2.36718745,2.8359375 0,0.98437498 0.60937495,1.57031248 1.32421875,1.57031248 0.5859375,0 1.0546875,-0.46875 1.1601562,-0.57421875 l 0.011719,0.0117188 C 3.011,0.31745313 2.8938125,0.72760938 2.8938125,0.75104688 2.8469375,0.83307813 2.5070937,1.8291719 1.4524062,1.8291719 c -0.1875,0 -0.51562495,-0.011719 -0.79687495,-0.1054688 0.3046875,-0.09375 0.41015625,-0.3515625 0.41015625,-0.515625 0,-0.1640625 -0.10546875,-0.35156247 -0.375,-0.35156247 -0.22265625,0 -0.5390625,0.17578127 -0.5390625,0.57421877 0,0.4101562 0.36328125,0.609375 1.3242187,0.609375 1.2421875,0 1.9570313,-0.7734375 2.109375,-1.37109377 z m -1.2890625,2.4726562 c -0.058594,0.2578125 -0.2929687,0.51562503 -0.5039062,0.70312503 -0.2109375,0.17578125 -0.5273438,0.3515625 -0.8085938,0.3515625 -0.5039062,0 -0.65625,-0.515625 -0.65625,-0.91406253 0,-0.4804687 0.2929688,-1.6523437 0.5625,-2.15625 0.2695313,-0.4921875 0.703125,-0.890625 1.1132813,-0.890625 0.65625,0 0.796875,0.8085938 0.796875,0.8554688 0,0.046875 -0.011719,0.1054687 -0.023437,0.1523437 z m 0,0"
         style="fill:#000000;fill-opacity:1;fill-rule:nonzero;stroke:none" />
      <path
         id="path20"
         d="m 7.2883437,-8.7411406 c 0.011719,-0.011719 0.035156,-0.1054688 0.035156,-0.1171875 0,-0.035156 -0.035156,-0.09375 -0.1171875,-0.09375 -0.140625,0 -0.7148438,0.058594 -0.890625,0.070312 -0.058594,0.011719 -0.1523438,0.011719 -0.1523438,0.1640625 0,0.09375 0.09375,0.09375 0.1757813,0.09375 0.3398437,0 0.3398437,0.046875 0.3398437,0.1054687 0,0.046875 -0.011719,0.09375 -0.035156,0.1523438 L 5.6711562,-4.4169219 C 5.636,-4.2880156 5.636,-4.2762969 5.636,-4.2645781 c 0,0.1054687 0.082031,0.2226562 0.234375,0.2226562 0.1875,0 0.28125,-0.140625 0.3164062,-0.2929687 0.011719,-0.023437 0.3164063,-1.2539063 0.3398438,-1.3476563 0.5039062,0.046875 0.9023437,0.1992188 0.9023437,0.5625 0,0.035156 0,0.070312 -0.023437,0.140625 -0.023437,0.1054688 -0.023437,0.140625 -0.023437,0.2226563 0,0.4921875 0.3984375,0.7148437 0.7382813,0.7148437 0.6796875,0 0.890625,-1.0546875 0.890625,-1.0664062 0,-0.09375 -0.09375,-0.09375 -0.1171875,-0.09375 -0.09375,0 -0.1054688,0.035156 -0.140625,0.1640625 -0.082031,0.3046875 -0.2695313,0.796875 -0.609375,0.796875 -0.1875,0 -0.2460938,-0.1757813 -0.2460938,-0.3632813 0,-0.1171875 0,-0.1289062 0.046875,-0.3046875 0,-0.023437 0.035156,-0.140625 0.035156,-0.2226562 0,-0.6210938 -0.84375,-0.7148438 -1.1367188,-0.7382813 0.1992188,-0.1289062 0.4570313,-0.3515625 0.5859375,-0.4570312 0.3515625,-0.3398438 0.703125,-0.6679688 1.0898438,-0.6679688 0.082031,0 0.1757812,0.023437 0.234375,0.09375 -0.3046875,0.046875 -0.3632813,0.28125 -0.3632813,0.3867188 0,0.1523437 0.1171875,0.2578125 0.2695313,0.2578125 0.1992187,0 0.3984375,-0.1523438 0.3984375,-0.4453125 0,-0.2226563 -0.1640625,-0.4804688 -0.5273438,-0.4804688 -0.3984375,0 -0.7617187,0.28125 -1.125,0.609375 -0.2929687,0.28125 -0.515625,0.4921875 -0.8085937,0.609375 z m 0,0"
         style="fill:#000000;fill-opacity:1;fill-rule:nonzero;stroke:none" />
    </g>
    <g
       id="g20"
       aria-label="g&#10;2&#10;C(g)"
       transform="matrix(1.3333333,0,0,1.3333333,130.95067,129.94267)">
      <path
         id="path21"
         d="m 4.6864141,-3.7509453 c 0.011719,-0.070312 0.035156,-0.1171875 0.035156,-0.1875 0,-0.1640625 -0.1171875,-0.2695313 -0.2929687,-0.2695313 -0.09375,0 -0.3632813,0.070312 -0.4101563,0.4335938 -0.1757812,-0.375 -0.5273437,-0.6328125 -0.9257812,-0.6328125 -1.1367188,0 -2.36718754,1.3945312 -2.36718754,2.8359375 0,0.98437499 0.60937504,1.5703124875 1.32421874,1.5703124875 0.5859375,0 1.0546875,-0.4687499975 1.1601563,-0.5742187475 l 0.011719,0.0117188 c -0.2109375,0.87890625 -0.328125,1.2890625 -0.328125,1.3125 -0.046875,0.0820313 -0.3867187,1.07812506 -1.4414062,1.07812506 -0.1875,0 -0.51562504,-0.011719 -0.79687504,-0.1054688 0.3046875,-0.09375 0.41015624,-0.3515625 0.41015624,-0.515625 0,-0.1640625 -0.10546874,-0.35156251 -0.37499999,-0.35156251 -0.22265625,0 -0.5390625,0.17578131 -0.5390625,0.57421881 0,0.4101562 0.36328125,0.609375 1.32421879,0.609375 1.2421875,0 1.9570312,-0.7734375 2.109375,-1.37109381 z m -1.2890625,2.4726562 c -0.058594,0.2578125 -0.2929688,0.51562504 -0.5039063,0.70312504 -0.2109375,0.17578125 -0.5273437,0.3515625 -0.8085937,0.3515625 -0.5039063,0 -0.65625,-0.515625 -0.65625,-0.91406254 0,-0.4804687 0.2929687,-1.6523437 0.5625,-2.15625 0.2695312,-0.4921875 0.703125,-0.890625 1.1132812,-0.890625 0.65625,0 0.796875,0.8085938 0.796875,0.8554688 0,0.046875 -0.011719,0.1054687 -0.023437,0.1523437 z m 0,0"
         style="fill:#000000;fill-opacity:1;fill-rule:nonzero;stroke:none" />
      <path
         id="path22"
         d="M 8.2664922,0.2305 H 8.0321172 C 8.0086797,0.38284375 7.9500859,0.793 7.8563359,0.8633125 7.7977422,0.89846875 7.2586797,0.89846875 7.1649297,0.89846875 H 5.8758672 c 0.7382812,-0.64453125 0.984375,-0.84375 1.3945312,-1.171875 0.515625,-0.41015625 0.9960938,-0.84374995 0.9960938,-1.49999995 0,-0.84375 -0.7382813,-1.359375 -1.6289063,-1.359375 -0.8671875,0 -1.453125,0.609375 -1.453125,1.2421875 0,0.3632812 0.3046875,0.3984375 0.375,0.3984375 0.1640625,0 0.375,-0.1171875 0.375,-0.375 0,-0.1289063 -0.058594,-0.3632813 -0.421875,-0.3632813 0.2226563,-0.5039062 0.6914063,-0.65625 1.0195313,-0.65625 0.703125,0 1.0664062,0.5507813 1.0664062,1.1132813 0,0.609375 -0.4335937,1.0898437 -0.65625,1.33593745 l -1.6875,1.66406255 c -0.070312,0.058594 -0.070312,0.070312 -0.070312,0.2695312 h 2.8828125 z m 0,0"
         style="fill:#000000;fill-opacity:1;fill-rule:nonzero;stroke:none" />
      <path
         id="path23"
         d="m 16.791883,-6.9267266 c 0,-0.023437 -0.02344,-0.09375 -0.105469,-0.09375 -0.03516,0 -0.04687,0.011719 -0.152344,0.1171875 l -0.703125,0.7617188 c -0.08203,-0.140625 -0.539062,-0.8789063 -1.652343,-0.8789063 -2.214844,0 -4.4531254,2.203125 -4.4531254,4.5117188 0,1.64062499 1.1718754,2.73046874 2.6953124,2.73046874 0.867188,0 1.617188,-0.3984375 2.144531,-0.85546875 0.9375,-0.82031249 1.101563,-1.72265629 1.101563,-1.75781249 0,-0.1054688 -0.105469,-0.1054688 -0.117188,-0.1054688 -0.05859,0 -0.117187,0.023437 -0.128906,0.1054688 -0.09375,0.2929687 -0.316406,0.9960937 -1.007812,1.57031249 -0.691407,0.5625 -1.3125,0.7265625 -1.839844,0.7265625 -0.890625,0 -1.945313,-0.515625 -1.945313,-2.06249999 0,-0.5742188 0.210938,-2.1914063 1.207032,-3.3515625 0.609375,-0.703125 1.535156,-1.2070313 2.425781,-1.2070313 1.019531,0 1.605469,0.7734375 1.605469,1.921875 0,0.3984375 -0.03516,0.4101563 -0.03516,0.5039063 0,0.1054687 0.117188,0.1054687 0.152344,0.1054687 0.128906,0 0.128906,-0.023437 0.175781,-0.1992187 z m 0,0"
         style="fill:#000000;fill-opacity:1;fill-rule:nonzero;stroke:none" />
      <path
         id="path24"
         d="m 20.345594,2.3896797 c 0,-0.035156 0,-0.046875 -0.164063,-0.2226563 -1.242187,-1.25390621 -1.570312,-3.12890621 -1.570312,-4.6640625 0,-1.7226562 0.386718,-3.4570312 1.605468,-4.7109375 0.128907,-0.1171875 0.128907,-0.1289062 0.128907,-0.1640625 0,-0.070312 -0.03516,-0.1054687 -0.09375,-0.1054687 -0.105469,0 -0.996094,0.6796875 -1.582032,1.9453125 -0.515625,1.1015625 -0.632812,2.203125 -0.632812,3.0351562 0,0.7851563 0.117187,1.99218754 0.65625,3.11718754 0.597656,1.21874996 1.453125,1.87499996 1.558594,1.87499996 0.05859,0 0.09375,-0.035156 0.09375,-0.1054687 z m 0,0"
         style="fill:#000000;fill-opacity:1;fill-rule:nonzero;stroke:none" />
      <path
         id="path25"
         d="m 25.616102,-3.7509453 c 0.01172,-0.070312 0.03516,-0.1171875 0.03516,-0.1875 0,-0.1640625 -0.117188,-0.2695313 -0.292969,-0.2695313 -0.09375,0 -0.363281,0.070312 -0.410156,0.4335938 -0.175781,-0.375 -0.527344,-0.6328125 -0.925781,-0.6328125 -1.136719,0 -2.367188,1.3945312 -2.367188,2.8359375 0,0.98437499 0.609375,1.5703124875 1.324219,1.5703124875 0.585937,0 1.054687,-0.4687499975 1.160156,-0.5742187475 l 0.01172,0.0117188 c -0.210938,0.87890625 -0.328125,1.2890625 -0.328125,1.3125 -0.04687,0.0820313 -0.386719,1.07812506 -1.441406,1.07812506 -0.1875,0 -0.515625,-0.011719 -0.796875,-0.1054688 0.304687,-0.09375 0.410156,-0.3515625 0.410156,-0.515625 0,-0.1640625 -0.105469,-0.35156251 -0.375,-0.35156251 -0.222656,0 -0.539063,0.17578131 -0.539063,0.57421881 0,0.4101562 0.363282,0.609375 1.324219,0.609375 1.242188,0 1.957031,-0.7734375 2.109375,-1.37109381 z m -1.289063,2.4726562 c -0.05859,0.2578125 -0.292969,0.51562504 -0.503906,0.70312504 -0.210938,0.17578125 -0.527344,0.3515625 -0.808594,0.3515625 -0.503906,0 -0.65625,-0.515625 -0.65625,-0.91406254 0,-0.4804687 0.292969,-1.6523437 0.5625,-2.15625 0.269531,-0.4921875 0.703125,-0.890625 1.113281,-0.890625 0.65625,0 0.796875,0.8085938 0.796875,0.8554688 0,0.046875 -0.01172,0.1054687 -0.02344,0.1523437 z m 0,0"
         style="fill:#000000;fill-opacity:1;fill-rule:nonzero;stroke:none" />
      <path
         id="path26"
         d="m 28.920789,-2.4970391 c 0,-0.7734375 -0.117187,-1.9804687 -0.65625,-3.1054687 -0.597656,-1.21875 -1.464844,-1.875 -1.558594,-1.875 -0.05859,0 -0.105468,0.046875 -0.105468,0.1054687 0,0.035156 0,0.046875 0.199218,0.234375 0.972657,0.984375 1.535157,2.5664063 1.535157,4.640625 0,1.71093754 -0.363282,3.45703129 -1.59375,4.7226563 -0.140625,0.1171875 -0.140625,0.1289062 -0.140625,0.1640625 0,0.058594 0.04687,0.1054687 0.105468,0.1054687 0.09375,0 0.996094,-0.6796875 1.582032,-1.94531246 0.503906,-1.1015625 0.632812,-2.20312504 0.632812,-3.04687504 z m 0,0"
         style="fill:#000000;fill-opacity:1;fill-rule:nonzero;stroke:none" />
    </g>
    <g
       id="g26"
       aria-label="g&#10;2&#10;C(g)"
       transform="matrix(1.3333333,0,0,1.3333333,188.736,129.94267)">
      <path
         id="path27"
         d="m 4.6862813,-3.7509453 c 0.011719,-0.070312 0.035156,-0.1171875 0.035156,-0.1875 0,-0.1640625 -0.1171875,-0.2695313 -0.2929687,-0.2695313 -0.09375,0 -0.3632813,0.070312 -0.4101563,0.4335938 -0.1757812,-0.375 -0.5273437,-0.6328125 -0.9257812,-0.6328125 -1.1367188,0 -2.36718755,1.3945312 -2.36718755,2.8359375 0,0.98437499 0.60937505,1.5703124875 1.32421875,1.5703124875 0.5859375,0 1.0546875,-0.4687499975 1.1601563,-0.5742187475 l 0.011719,0.0117188 c -0.2109375,0.87890625 -0.328125,1.2890625 -0.328125,1.3125 -0.046875,0.0820313 -0.3867187,1.07812506 -1.4414062,1.07812506 -0.1875,0 -0.51562505,-0.011719 -0.79687505,-0.1054688 0.3046875,-0.09375 0.41015625,-0.3515625 0.41015625,-0.515625 0,-0.1640625 -0.10546875,-0.35156251 -0.375,-0.35156251 -0.22265625,0 -0.5390625,0.17578131 -0.5390625,0.57421881 0,0.4101562 0.36328125,0.609375 1.3242188,0.609375 1.2421875,0 1.9570312,-0.7734375 2.109375,-1.37109381 z m -1.2890625,2.4726562 c -0.058594,0.2578125 -0.2929688,0.51562504 -0.5039063,0.70312504 -0.2109375,0.17578125 -0.5273437,0.3515625 -0.8085937,0.3515625 -0.5039063,0 -0.65625,-0.515625 -0.65625,-0.91406254 0,-0.4804687 0.2929687,-1.6523437 0.5625,-2.15625 0.2695312,-0.4921875 0.703125,-0.890625 1.1132812,-0.890625 0.65625,0 0.796875,0.8085938 0.796875,0.8554688 0,0.046875 -0.011719,0.1054687 -0.023437,0.1523437 z m 0,0"
         style="fill:#000000;fill-opacity:1;fill-rule:nonzero;stroke:none" />
      <path
         id="path28"
         d="M 8.2663594,0.2305 H 8.0319844 C 8.0085469,0.38284375 7.9499531,0.793 7.8562031,0.8633125 7.7976094,0.89846875 7.2585469,0.89846875 7.1647969,0.89846875 H 5.8757344 c 0.7382812,-0.64453125 0.984375,-0.84375 1.3945312,-1.171875 0.515625,-0.41015625 0.9960938,-0.84374995 0.9960938,-1.49999995 0,-0.84375 -0.7382813,-1.359375 -1.6289063,-1.359375 -0.8671875,0 -1.453125,0.609375 -1.453125,1.2421875 0,0.3632812 0.3046875,0.3984375 0.375,0.3984375 0.1640625,0 0.375,-0.1171875 0.375,-0.375 0,-0.1289063 -0.058594,-0.3632813 -0.421875,-0.3632813 0.2226563,-0.5039062 0.6914063,-0.65625 1.0195313,-0.65625 0.703125,0 1.0664062,0.5507813 1.0664062,1.1132813 0,0.609375 -0.4335937,1.0898437 -0.65625,1.33593745 l -1.6875,1.66406255 c -0.070312,0.058594 -0.070312,0.070312 -0.070312,0.2695312 h 2.8828125 z m 0,0"
         style="fill:#000000;fill-opacity:1;fill-rule:nonzero;stroke:none" />
      <path
         id="path29"
         d="m 16.79175,-6.9267266 c 0,-0.023437 -0.02344,-0.09375 -0.105469,-0.09375 -0.03516,0 -0.04687,0.011719 -0.152343,0.1171875 l -0.703125,0.7617188 c -0.08203,-0.140625 -0.539063,-0.8789063 -1.652344,-0.8789063 -2.214844,0 -4.4531252,2.203125 -4.4531252,4.5117188 0,1.64062499 1.1718752,2.73046874 2.6953122,2.73046874 0.867188,0 1.617188,-0.3984375 2.144532,-0.85546875 0.9375,-0.82031249 1.101562,-1.72265629 1.101562,-1.75781249 0,-0.1054688 -0.105469,-0.1054688 -0.117187,-0.1054688 -0.05859,0 -0.117188,0.023437 -0.128907,0.1054688 -0.09375,0.2929687 -0.316406,0.9960937 -1.007812,1.57031249 -0.691406,0.5625 -1.3125,0.7265625 -1.839844,0.7265625 -0.890625,0 -1.945312,-0.515625 -1.945312,-2.06249999 0,-0.5742188 0.210937,-2.1914063 1.207031,-3.3515625 0.609375,-0.703125 1.535156,-1.2070313 2.425781,-1.2070313 1.019531,0 1.605469,0.7734375 1.605469,1.921875 0,0.3984375 -0.03516,0.4101563 -0.03516,0.5039063 0,0.1054687 0.117187,0.1054687 0.152343,0.1054687 0.128907,0 0.128907,-0.023437 0.175782,-0.1992187 z m 0,0"
         style="fill:#000000;fill-opacity:1;fill-rule:nonzero;stroke:none" />
      <path
         id="path30"
         d="m 20.348391,2.3896797 c 0,-0.035156 0,-0.046875 -0.164063,-0.2226563 -1.242187,-1.25390621 -1.570312,-3.12890621 -1.570312,-4.6640625 0,-1.7226562 0.386718,-3.4570312 1.605468,-4.7109375 0.128907,-0.1171875 0.128907,-0.1289062 0.128907,-0.1640625 0,-0.070312 -0.03516,-0.1054687 -0.09375,-0.1054687 -0.105469,0 -0.996094,0.6796875 -1.582032,1.9453125 -0.515625,1.1015625 -0.632812,2.203125 -0.632812,3.0351562 0,0.7851563 0.117187,1.99218754 0.65625,3.11718754 0.597656,1.21874996 1.453125,1.87499996 1.558594,1.87499996 0.05859,0 0.09375,-0.035156 0.09375,-0.1054687 z m 0,0"
         style="fill:#000000;fill-opacity:1;fill-rule:nonzero;stroke:none" />
      <path
         id="path31"
         d="m 25.615969,-3.7509453 c 0.01172,-0.070312 0.03516,-0.1171875 0.03516,-0.1875 0,-0.1640625 -0.117187,-0.2695313 -0.292969,-0.2695313 -0.09375,0 -0.363281,0.070312 -0.410156,0.4335938 -0.175781,-0.375 -0.527344,-0.6328125 -0.925781,-0.6328125 -1.136719,0 -2.367188,1.3945312 -2.367188,2.8359375 0,0.98437499 0.609375,1.5703124875 1.324219,1.5703124875 0.585938,0 1.054688,-0.4687499975 1.160156,-0.5742187475 l 0.01172,0.0117188 c -0.210937,0.87890625 -0.328125,1.2890625 -0.328125,1.3125 -0.04687,0.0820313 -0.386719,1.07812506 -1.441406,1.07812506 -0.1875,0 -0.515625,-0.011719 -0.796875,-0.1054688 0.304687,-0.09375 0.410156,-0.3515625 0.410156,-0.515625 0,-0.1640625 -0.105469,-0.35156251 -0.375,-0.35156251 -0.222656,0 -0.539062,0.17578131 -0.539062,0.57421881 0,0.4101562 0.363281,0.609375 1.324218,0.609375 1.242188,0 1.957032,-0.7734375 2.109375,-1.37109381 z m -1.289063,2.4726562 c -0.05859,0.2578125 -0.292968,0.51562504 -0.503906,0.70312504 -0.210937,0.17578125 -0.527344,0.3515625 -0.808594,0.3515625 -0.503906,0 -0.65625,-0.515625 -0.65625,-0.91406254 0,-0.4804687 0.292969,-1.6523437 0.5625,-2.15625 0.269532,-0.4921875 0.703125,-0.890625 1.113282,-0.890625 0.65625,0 0.796875,0.8085938 0.796875,0.8554688 0,0.046875 -0.01172,0.1054687 -0.02344,0.1523437 z m 0,0"
         style="fill:#000000;fill-opacity:1;fill-rule:nonzero;stroke:none" />
      <path
         id="path32"
         d="m 28.920656,-2.4970391 c 0,-0.7734375 -0.117187,-1.9804687 -0.65625,-3.1054687 -0.597656,-1.21875 -1.464843,-1.875 -1.558593,-1.875 -0.05859,0 -0.105469,0.046875 -0.105469,0.1054687 0,0.035156 0,0.046875 0.199219,0.234375 0.972656,0.984375 1.535156,2.5664063 1.535156,4.640625 0,1.71093754 -0.363281,3.45703129 -1.59375,4.7226563 -0.140625,0.1171875 -0.140625,0.1289062 -0.140625,0.1640625 0,0.058594 0.04687,0.1054687 0.105469,0.1054687 0.09375,0 0.996093,-0.6796875 1.582031,-1.94531246 0.503906,-1.1015625 0.632812,-2.20312504 0.632812,-3.04687504 z m 0,0"
         style="fill:#000000;fill-opacity:1;fill-rule:nonzero;stroke:none" />
    </g>
    <g
       id="g32"
       aria-label="g&#10;ℓ"
       transform="matrix(1.3333333,0,0,1.3333333,15.213333,95.229333)">
      <path
         id="path33"
         d="m 4.6886328,-3.7491484 c 0.011719,-0.070312 0.035156,-0.1171875 0.035156,-0.1875 0,-0.1640625 -0.1171875,-0.2695313 -0.2929688,-0.2695313 -0.09375,0 -0.3632812,0.070312 -0.4101562,0.4335938 -0.1757813,-0.375 -0.5273438,-0.6328125 -0.9257813,-0.6328125 -1.1367187,0 -2.36718749,1.3945312 -2.36718749,2.8359375 0,0.98437496 0.60937499,1.5703124625 1.32421879,1.5703124625 0.5859375,0 1.0546875,-0.4687500025 1.1601562,-0.5742187525 l 0.011719,0.0117188 c -0.2109375,0.87890625 -0.328125,1.2890625 -0.328125,1.3125 -0.046875,0.0820313 -0.3867188,1.07812509 -1.4414063,1.07812509 -0.1875,0 -0.51562499,-0.011719 -0.79687499,-0.1054688 0.3046875,-0.09375 0.41015629,-0.3515625 0.41015629,-0.515625 0,-0.1640625 -0.10546879,-0.35156254 -0.37500004,-0.35156254 -0.22265625,0 -0.5390625,0.17578134 -0.5390625,0.57421884 0,0.4101562 0.36328125,0.609375 1.32421874,0.609375 1.2421875,0 1.9570313,-0.7734375 2.109375,-1.37109384 z m -1.2890625,2.4726562 c -0.058594,0.2578125 -0.2929687,0.51562501 -0.5039062,0.70312501 -0.2109375,0.17578125 -0.5273438,0.3515625 -0.8085938,0.3515625 -0.5039062,0 -0.65625,-0.515625 -0.65625,-0.91406251 0,-0.4804687 0.2929688,-1.6523437 0.5625,-2.15625 0.2695313,-0.4921875 0.703125,-0.890625 1.1132813,-0.890625 0.65625,0 0.796875,0.8085938 0.796875,0.8554688 0,0.046875 -0.011719,0.1054687 -0.023437,0.1523437 z m 0,0"
         style="fill:#000000;fill-opacity:1;fill-rule:nonzero;stroke:none" />
      <path
         id="path34"
         d="m 5.9396094,-5.0733672 c 0.070312,0.4570313 0.2929687,1.0429688 0.890625,1.0429688 0.2226562,0 0.46875,-0.09375 0.7265625,-0.2460938 0.1171875,-0.070312 0.4804687,-0.328125 0.4804687,-0.4101562 0,-0.046875 -0.046875,-0.140625 -0.1171875,-0.140625 -0.035156,0 -0.046875,0 -0.1523437,0.1054687 -0.2929688,0.2695313 -0.6210938,0.4921875 -0.9257813,0.4921875 -0.4804687,0 -0.4804687,-0.8085937 -0.4804687,-0.9375 0,-0.09375 0,-0.1054687 0.011719,-0.2460937 0.011719,-0.070312 0.011719,-0.082031 0.09375,-0.1523438 0.3867188,-0.3632812 1.6992188,-1.640625 1.6992188,-2.8476562 0,-0.1054688 0,-0.609375 -0.4570313,-0.609375 -0.5742187,0 -1.0429687,0.9023437 -1.1601562,1.1132812 -0.3046875,0.5859375 -0.46875,1.1601563 -0.5390625,1.5117188 -0.1054688,0.46875 -0.1054688,0.7148437 -0.1054688,1.0546875 -0.046875,0.046875 -0.4453125,0.3984375 -0.515625,0.4570312 -0.1171875,0.09375 -0.1171875,0.1054688 -0.1171875,0.140625 0,0.058594 0.058594,0.1289063 0.1171875,0.1289063 0.046875,0 0.234375,-0.1757813 0.28125,-0.2226563 z m 0.5039062,-0.7851562 c 0.1171875,-0.7148438 0.6679688,-2.9648438 1.2539063,-2.9648438 0.1640625,0 0.2460937,0.1054688 0.2460937,0.3632813 0,0.082031 0,0.703125 -0.5976562,1.5585937 -0.3515625,0.5039063 -0.7382813,0.8789063 -0.9023438,1.0429688 z m 0,0"
         style="fill:#000000;fill-opacity:1;fill-rule:nonzero;stroke:none" />
    </g>
    <g
       id="g34"
       aria-label="[g]"
       transform="matrix(1.3333333,0,0,1.3333333,80.968,68.402667)">
      <path
         id="path35"
         d="M 2.5435312,2.4958516 V 2.0974141 H 1.570875 V -7.0783672 H 2.5435312 V -7.4768047 H 1.1724375 v 9.9726563 z m 0,0"
         style="fill:#417505;fill-opacity:1;fill-rule:nonzero;stroke:none" />
      <path
         id="path36"
         d="m 7.4536875,-3.7502422 c 0.011719,-0.070312 0.035156,-0.1171875 0.035156,-0.1875 0,-0.1640625 -0.1171875,-0.2695312 -0.2929687,-0.2695312 -0.09375,0 -0.3632813,0.070312 -0.4101563,0.4335937 -0.1757812,-0.375 -0.5273437,-0.6328125 -0.9257812,-0.6328125 -1.1367188,0 -2.3671875,1.3945313 -2.3671875,2.8359375 0,0.98437501 0.609375,1.5703125125 1.3242187,1.5703125125 0.5859375,0 1.0546875,-0.4687500025 1.1601563,-0.5742187525 l 0.011719,0.0117188 c -0.2109375,0.87890625 -0.328125,1.2890625 -0.328125,1.3125 C 5.6138437,0.83178906 5.274,1.8278828 4.2193125,1.8278828 c -0.1875,0 -0.515625,-0.011719 -0.796875,-0.1054687 0.3046875,-0.09375 0.4101562,-0.3515625 0.4101562,-0.515625 0,-0.1640625 -0.1054687,-0.35156254 -0.375,-0.35156254 -0.2226562,0 -0.5390625,0.17578124 -0.5390625,0.57421874 0,0.4101563 0.3632813,0.609375 1.3242188,0.609375 1.2421875,0 1.9570312,-0.7734375 2.109375,-1.37109374 z M 6.164625,-1.2775859 c -0.058594,0.2578125 -0.2929688,0.51562496 -0.5039063,0.70312496 -0.2109375,0.17578125 -0.5273437,0.3515625 -0.8085937,0.3515625 -0.5039063,0 -0.65625,-0.515625 -0.65625,-0.91406246 0,-0.4804688 0.2929687,-1.6523438 0.5625,-2.15625 0.2695312,-0.4921875 0.703125,-0.890625 1.1132812,-0.890625 0.65625,0 0.796875,0.8085937 0.796875,0.8554687 0,0.046875 -0.011719,0.1054688 -0.023437,0.1523438 z m 0,0"
         style="fill:#417505;fill-opacity:1;fill-rule:nonzero;stroke:none" />
      <path
         id="path37"
         d="m 9.4575937,-7.4768047 h -1.359375 v 0.3984375 H 9.0591562 V 2.0974141 H 8.0982187 v 0.3984375 h 1.359375 z m 0,0"
         style="fill:#417505;fill-opacity:1;fill-rule:nonzero;stroke:none" />
    </g>
    <g
       id="g37"
       aria-label="⟨g⟩"
       transform="matrix(1.3333333,0,0,1.3333333,19.198667,11.954667)">
      <path
         id="path38"
         d="m 3.2699453,-7.091 c 0.046875,-0.1171875 0.046875,-0.1289063 0.046875,-0.1875 0,-0.1054688 -0.09375,-0.1992188 -0.1992187,-0.1992188 -0.09375,0 -0.1640625,0.058594 -0.2226563,0.234375 l -1.7460937,4.5703125 c -0.023437,0.058594 -0.046875,0.1171875 -0.046875,0.1757813 0,0.035156 0,0.058594 0.046875,0.1757812 l 1.7460937,4.5703125 c 0.035156,0.1054688 0.082031,0.2460938 0.2226563,0.2460938 0.1054687,0 0.1992187,-0.09375 0.1992187,-0.1992188 0,-0.035156 0,-0.058594 -0.046875,-0.1640625 L 1.5004141,-2.49725 Z m 0,0"
         style="fill:#8b572a;fill-opacity:1;fill-rule:nonzero;stroke:none" />
      <path
         id="path39"
         d="m 8.5609609,-3.7511563 c 0.011719,-0.070312 0.035156,-0.1171875 0.035156,-0.1875 0,-0.1640625 -0.1171875,-0.2695312 -0.2929688,-0.2695312 -0.09375,0 -0.3632812,0.070312 -0.4101562,0.4335937 -0.1757813,-0.375 -0.5273438,-0.6328125 -0.9257813,-0.6328125 -1.1367187,0 -2.3671875,1.3945313 -2.3671875,2.8359375 0,0.98437505 0.609375,1.57031255 1.3242188,1.57031255 0.5859375,0 1.0546875,-0.46875 1.1601562,-0.57421875 l 0.011719,0.0117188 C 6.8851797,0.31525 6.7679922,0.72540625 6.7679922,0.74884375 6.7211172,0.830875 6.3812734,1.8269687 5.3265859,1.8269687 c -0.1875,0 -0.515625,-0.011719 -0.796875,-0.1054687 0.3046875,-0.09375 0.4101563,-0.3515625 0.4101563,-0.515625 0,-0.1640625 -0.1054688,-0.3515625 -0.375,-0.3515625 -0.2226563,0 -0.5390625,0.1757812 -0.5390625,0.5742187 0,0.4101563 0.3632812,0.609375 1.3242187,0.609375 1.2421875,0 1.9570313,-0.7734375 2.109375,-1.3710937 z M 7.2718984,-1.2785 c -0.058594,0.2578125 -0.2929687,0.515625 -0.5039062,0.703125 -0.2109375,0.17578125 -0.5273438,0.3515625 -0.8085938,0.3515625 -0.5039062,0 -0.65625,-0.515625 -0.65625,-0.9140625 0,-0.4804688 0.2929688,-1.6523438 0.5625,-2.15625 0.2695313,-0.4921875 0.703125,-0.890625 1.1132813,-0.890625 0.65625,0 0.796875,0.8085937 0.796875,0.8554687 0,0.046875 -0.011719,0.1054688 -0.023437,0.1523438 z m 0,0"
         style="fill:#8b572a;fill-opacity:1;fill-rule:nonzero;stroke:none" />
      <path
         id="path40"
         d="m 11.701586,-2.3214688 c 0.04687,-0.1171875 0.04687,-0.140625 0.04687,-0.1757812 0,-0.023437 0,-0.046875 -0.04687,-0.1640625 L 9.9554922,-7.2433438 c -0.058594,-0.1640625 -0.1171875,-0.234375 -0.2226563,-0.234375 -0.1171875,0 -0.1992187,0.09375 -0.1992187,0.1992188 0,0.035156 0,0.058594 0.046875,0.1640625 L 11.338305,-2.49725 9.5804922,2.1082187 c -0.046875,0.1171875 -0.046875,0.1289063 -0.046875,0.1875 0,0.1054688 0.082031,0.1992188 0.1992187,0.1992188 0.1289063,0 0.1640625,-0.1054688 0.2109375,-0.1992188 z m 0,0"
         style="fill:#8b572a;fill-opacity:1;fill-rule:nonzero;stroke:none" />
    </g>
  </g>
</svg>
