<?xml version="1.0" encoding="UTF-8" standalone="no"?>
<!-- Created with Inkscape (http://www.inkscape.org/) -->

<svg
   version="1.1"
   id="svg1"
   width="373.79999"
   height="195.38667"
   viewBox="0 0 373.79999 195.38667"
   sodipodi:docname="kerIm.pdf"
   xmlns:inkscape="http://www.inkscape.org/namespaces/inkscape"
   xmlns:sodipodi="http://sodipodi.sourceforge.net/DTD/sodipodi-0.dtd"
   xmlns="http://www.w3.org/2000/svg"
   xmlns:svg="http://www.w3.org/2000/svg">
  <defs
     id="defs1" />
  <sodipodi:namedview
     id="namedview1"
     pagecolor="#ffffff"
     bordercolor="#000000"
     borderopacity="0.25"
     inkscape:showpageshadow="2"
     inkscape:pageopacity="0.0"
     inkscape:pagecheckerboard="0"
     inkscape:deskcolor="#d1d1d1">
    <inkscape:page
       x="0"
       y="0"
       inkscape:label="1"
       id="page1"
       width="373.79999"
       height="195.38667"
       margin="0"
       bleed="0" />
  </sodipodi:namedview>
  <g
     id="g1"
     inkscape:groupmode="layer"
     inkscape:label="1">
    <path
       id="path1"
       d="m 135.52852,-81.5054 170.36334,-22.6404"
       style="fill:none;stroke:#9b9b9b;stroke-width:0.74721;stroke-linecap:butt;stroke-linejoin:miter;stroke-miterlimit:10;stroke-dasharray:4.48325, 4.48325;stroke-dashoffset:0;stroke-opacity:1"
       transform="matrix(1.3333333,0,0,-1.3333333,-119.11333,-53.802667)" />
    <path
       id="path2"
       d="m 135.52852,-126.78618 170.36334,22.64038"
       style="fill:none;stroke:#9b9b9b;stroke-width:0.74721;stroke-linecap:butt;stroke-linejoin:miter;stroke-miterlimit:10;stroke-dasharray:4.48325, 4.48325;stroke-dashoffset:0;stroke-opacity:1"
       transform="matrix(1.3333333,0,0,-1.3333333,-119.11333,-53.802667)" />
    <path
       id="path3"
       d="m 93.40096,-104.1458 c 0,23.26805 18.85951,42.12757 42.12756,42.12757 23.26803,0 42.12755,-18.85952 42.12755,-42.12757 0,-23.26803 -18.85952,-42.12755 -42.12755,-42.12755 -23.26805,0 -42.12756,18.85952 -42.12756,42.12755 z"
       style="fill:#4a90e2;fill-opacity:0.2;fill-rule:nonzero;stroke:#4a90e2;stroke-width:1.49442;stroke-linecap:butt;stroke-linejoin:miter;stroke-miterlimit:10;stroke-dasharray:none;stroke-opacity:1"
       transform="matrix(1.3333333,0,0,-1.3333333,-119.11333,-53.802667)" />
    <path
       id="path4"
       d="m 242.84248,-104.1458 c 0,34.81989 28.2295,63.04938 63.04938,63.04938 34.81986,0 63.04936,-28.22949 63.04936,-63.04938 0,-34.81985 -28.2295,-63.04936 -63.04936,-63.04936 -34.81988,0 -63.04938,28.22951 -63.04938,63.04936 z"
       style="fill:#d0021b;fill-opacity:0.2;fill-rule:nonzero;stroke:#d0021b;stroke-width:1.49442;stroke-linecap:butt;stroke-linejoin:miter;stroke-miterlimit:10;stroke-dasharray:none;stroke-opacity:0.5"
       transform="matrix(1.3333333,0,0,-1.3333333,-119.11333,-53.802667)" />
    <path
       id="path5"
       d="m 190.03731,-108.62904 h 40.84985"
       style="fill:none;stroke:#000000;stroke-width:0.74721;stroke-linecap:butt;stroke-linejoin:miter;stroke-miterlimit:10;stroke-dasharray:none;stroke-opacity:1"
       transform="matrix(1.3333333,0,0,-1.3333333,-119.11333,-53.802667)" />
    <path
       id="path6"
       d="m 224.2146,-111.08734 c 2.97388,1.41221 5.69371,2.23414 8.16698,2.4583 -2.47327,0.22415 -5.1931,1.04608 -8.16698,2.45829"
       style="fill:none;stroke:#000000;stroke-width:0.74721;stroke-linecap:butt;stroke-linejoin:miter;stroke-miterlimit:10;stroke-dasharray:none;stroke-opacity:1"
       transform="matrix(1.3333333,0,0,-1.3333333,-119.11333,-53.802667)" />
    <path
       id="path7"
       d="m 112.88812,-104.1458 c 0,12.50827 10.13213,22.6404 22.6404,22.6404 12.50825,0 22.64038,-10.13213 22.64038,-22.6404 0,-12.50825 -10.13213,-22.64038 -22.64038,-22.64038 -12.50827,0 -22.6404,10.13213 -22.6404,22.64038 z"
       style="fill:#8b572a;fill-opacity:0.2;fill-rule:nonzero;stroke:#8b572a;stroke-width:1.49442;stroke-linecap:butt;stroke-linejoin:miter;stroke-miterlimit:10;stroke-dasharray:none;stroke-opacity:1"
       transform="matrix(1.3333333,0,0,-1.3333333,-119.11333,-53.802667)" />
    <path
       id="path8"
       d="m 270.7955,-104.1458 c 0,19.38257 15.7138,35.09636 35.09636,35.09636 19.38257,0 35.09633,-15.71379 35.09633,-35.09636 0,-19.38257 -15.71376,-35.09633 -35.09633,-35.09633 -19.38256,0 -35.09636,15.71376 -35.09636,35.09633 z"
       style="fill:#7ed321;fill-opacity:0.5;fill-rule:nonzero;stroke:#7ed321;stroke-width:1.49442;stroke-linecap:butt;stroke-linejoin:miter;stroke-miterlimit:10;stroke-dasharray:none;stroke-opacity:1"
       transform="matrix(1.3333333,0,0,-1.3333333,-119.11333,-53.802667)" />
    <path
       id="path9"
       d="m 133.66049,-104.1458 c 0,1.03115 0.83689,1.86803 1.86803,1.86803 1.03113,0 1.86801,-0.83688 1.86801,-1.86803 0,-1.03113 -0.83688,-1.86801 -1.86801,-1.86801 -1.03114,0 -1.86803,0.83688 -1.86803,1.86801 z"
       style="fill:#000000;fill-opacity:1;fill-rule:nonzero;stroke:#000000;stroke-width:0.74721;stroke-linecap:butt;stroke-linejoin:miter;stroke-miterlimit:10;stroke-dasharray:none;stroke-opacity:1"
       transform="matrix(1.3333333,0,0,-1.3333333,-119.11333,-53.802667)" />
    <path
       id="path10"
       d="m 159.56618,-79.48795 c 0,1.03115 0.83687,1.86803 1.86801,1.86803 1.03116,0 1.86803,-0.83688 1.86803,-1.86803 0,-1.03112 -0.83687,-1.86801 -1.86803,-1.86801 -1.03114,0 -1.86801,0.83689 -1.86801,1.86801 z"
       style="fill:#000000;fill-opacity:1;fill-rule:nonzero;stroke:#000000;stroke-width:0.74721;stroke-linecap:butt;stroke-linejoin:miter;stroke-miterlimit:10;stroke-dasharray:none;stroke-opacity:1"
       transform="matrix(1.3333333,0,0,-1.3333333,-119.11333,-53.802667)" />
    <path
       id="path11"
       d="m 304.02383,-104.1458 c 0,1.03115 0.83689,1.86803 1.86803,1.86803 1.03113,0 1.86801,-0.83688 1.86801,-1.86803 0,-1.03113 -0.83688,-1.86801 -1.86801,-1.86801 -1.03114,0 -1.86803,0.83688 -1.86803,1.86801 z"
       style="fill:#000000;fill-opacity:1;fill-rule:nonzero;stroke:#000000;stroke-width:0.74721;stroke-linecap:butt;stroke-linejoin:miter;stroke-miterlimit:10;stroke-dasharray:none;stroke-opacity:1"
       transform="matrix(1.3333333,0,0,-1.3333333,-119.11333,-53.802667)" />
    <path
       id="path12"
       d="m 135.52852,-146.27335 170.36334,7.03122"
       style="fill:none;stroke:#9b9b9b;stroke-width:0.74721;stroke-linecap:butt;stroke-linejoin:miter;stroke-miterlimit:10;stroke-dasharray:4.48325, 4.48325;stroke-dashoffset:0;stroke-opacity:1"
       transform="matrix(1.3333333,0,0,-1.3333333,-119.11333,-53.802667)" />
    <path
       id="path13"
       d="m 135.52852,-62.01823 170.36334,-7.03121"
       style="fill:none;stroke:#9b9b9b;stroke-width:0.74721;stroke-linecap:butt;stroke-linejoin:miter;stroke-miterlimit:10;stroke-dasharray:4.48325, 4.48325;stroke-dashoffset:0;stroke-opacity:1"
       transform="matrix(1.3333333,0,0,-1.3333333,-119.11333,-53.802667)" />
    <path
       id="path14"
       d="m 291.37361,-118.04384 c 0,1.03113 0.83689,1.86801 1.86801,1.86801 1.03116,0 1.86803,-0.83688 1.86803,-1.86801 0,-1.03116 -0.83687,-1.86803 -1.86803,-1.86803 -1.03112,0 -1.86801,0.83687 -1.86801,1.86803 z"
       style="fill:#000000;fill-opacity:1;fill-rule:nonzero;stroke:#000000;stroke-width:0.74721;stroke-linecap:butt;stroke-linejoin:miter;stroke-miterlimit:10;stroke-dasharray:none;stroke-opacity:1"
       transform="matrix(1.3333333,0,0,-1.3333333,-119.11333,-53.802667)" />
    <path
       id="path15"
       d="m 1.6999375,1.6995469 c -0.046875,0.1289062 -0.058594,0.140625 -0.058594,0.1992187 0,0.2109375 0.1875,0.2695313 0.2929687,0.2695313 0.046875,0 0.2695313,-0.023437 0.3632813,-0.2578125 0.035156,-0.082031 0.082031,-0.4101563 0.3515625,-1.81640627 0.09375,0.01171875 0.1640625,0.01171875 0.328125,0.01171875 1.6523437,0 3.1875,-1.55859378 3.1875,-3.12890628 0,-0.7851562 -0.3867188,-1.3828125 -1.1367188,-1.3828125 -1.4414062,0 -2.0390625,1.9335938 -2.6367187,3.87890628 -1.078125,-0.19921875 -1.6289063,-0.76171878 -1.6289063,-1.47656248 0,-0.28125 0.22265625,-1.3710938 0.8203125,-2.0625 0.082031,-0.082031 0.082031,-0.1054688 0.082031,-0.1289063 0,-0.035156 -0.023437,-0.09375 -0.1171875,-0.09375 -0.28125,0 -1.0429688,1.4414063 -1.0429688,2.390625 0,0.93750003 0.65625,1.66406253 1.7226563,1.92187503 z m 1.3710938,-2.16796877 c -0.082031,0 -0.1054688,0 -0.1757813,-0.0117188 -0.1289062,0 -0.140625,-0.0117188 -0.140625,-0.0351563 0,-0.0234375 0.1757813,-0.92578123 0.1992188,-1.07812503 0.3164062,-1.2773437 1.0898437,-2.2265625 1.9804687,-2.2265625 0.6796875,0 0.9492188,0.5273438 0.9492188,1.0078125 0,1.125 -1.2773438,2.34375003 -2.8125,2.34375013 z m 0,0"
       style="fill:#000000;fill-opacity:1;fill-rule:nonzero;stroke:none"
       aria-label="φ"
       transform="matrix(1.3333333,0,0,1.3333333,157.01467,77.148)" />
    <path
       id="path16"
       d="m 1.862875,-2.2967578 c 0.2929688,0 1.03125,-0.023437 1.5234375,-0.234375 0.703125,-0.2929688 0.75,-0.890625 0.75,-1.0195313 0,-0.4453125 -0.3867187,-0.8554687 -1.0664062,-0.8554687 -1.1132813,0 -2.6132813,0.9726562 -2.6132813,2.7070312 0,1.01953129 0.5859375,1.80468754 1.5703125,1.80468754 1.4179688,0 2.2617188,-1.0546875 2.2617188,-1.17187504 0,-0.058594 -0.070312,-0.1289062 -0.1289063,-0.1289062 -0.046875,0 -0.070312,0.023437 -0.1289062,0.09375 -0.7851563,0.99609374 -1.875,0.99609374 -1.9921875,0.99609374 -0.7734375,0 -0.8671875,-0.84375 -0.8671875,-1.16015624 0,-0.1171875 0.011719,-0.4335938 0.1640625,-1.03125 z m -0.46875,-0.2226563 c 0.3867188,-1.5117187 1.4179688,-1.6640625 1.6757813,-1.6640625 0.46875,0 0.7382812,0.2929688 0.7382812,0.6328125 0,1.03125 -1.59375,1.03125 -2.0039062,1.03125 z m 0,0"
       style="fill:#000000;fill-opacity:1;fill-rule:nonzero;stroke:none"
       aria-label="e"
       transform="matrix(1.3333333,0,0,1.3333333,65.078667,95.66)" />
    <path
       id="path17"
       d="m 4.6863906,-3.7510625 c 0.011719,-0.070312 0.035156,-0.1171875 0.035156,-0.1875 0,-0.1640625 -0.1171875,-0.2695312 -0.2929688,-0.2695312 -0.09375,0 -0.3632812,0.070312 -0.4101562,0.4335937 -0.1757813,-0.375 -0.5273438,-0.6328125 -0.9257813,-0.6328125 -1.1367187,0 -2.36718747,1.3945313 -2.36718747,2.8359375 0,0.984375 0.60937497,1.5703125 1.32421877,1.5703125 0.5859375,0 1.0546875,-0.46875 1.1601562,-0.57421875 l 0.011719,0.0117188 c -0.2109375,0.87890625 -0.328125,1.2890625 -0.328125,1.3125 -0.046875,0.0820313 -0.3867188,1.07812505 -1.4414063,1.07812505 -0.1875,0 -0.51562497,-0.011719 -0.79687497,-0.1054687 0.3046875,-0.09375 0.41015627,-0.3515625 0.41015627,-0.515625 0,-0.1640625 -0.10546877,-0.3515626 -0.37500002,-0.3515626 -0.22265625,0 -0.5390625,0.1757813 -0.5390625,0.5742188 0,0.4101563 0.36328125,0.609375 1.32421872,0.609375 1.2421875,0 1.9570313,-0.7734375 2.109375,-1.3710938 z m -1.2890625,2.4726563 c -0.058594,0.2578125 -0.2929687,0.51562495 -0.5039062,0.70312495 -0.2109375,0.17578125 -0.5273438,0.3515625 -0.8085938,0.3515625 -0.5039062,0 -0.65625,-0.515625 -0.65625,-0.91406245 0,-0.4804688 0.2929688,-1.6523438 0.5625,-2.15625 0.2695313,-0.4921875 0.703125,-0.890625 1.1132813,-0.890625 0.65625,0 0.796875,0.8085937 0.796875,0.8554687 0,0.046875 -0.011719,0.1054688 -0.023437,0.1523438 z m 0,0"
       style="fill:#000000;fill-opacity:1;fill-rule:nonzero;stroke:none"
       aria-label="g"
       transform="matrix(1.3333333,0,0,1.3333333,99.618667,62.782667)" />
    <g
       id="g17"
       aria-label="kerφ"
       transform="matrix(1.3333333,0,0,1.3333333,43.937333,129.472)">
      <path
         id="path18"
         d="m 1.0548125,-0.76122656 c 0,0.45703125 -0.10546875,0.45703125 -0.7734375,0.45703125 V 4.921875e-4 C 0.6095,-0.01122656 1.07825,-0.03466406 1.3595,-0.03466406 c 0.3046875,0 0.703125,0.01171875 1.1015625,0.0351562475 V -0.30419531 c -0.6679687,0 -0.7734375,0 -0.7734375,-0.45703125 V -1.7807578 l 0.6328125,-0.5507813 c 0.7734375,1.0546875 1.1835938,1.61718754 1.1835938,1.79296879 0,0.1875 -0.1640625,0.234375 -0.3515625,0.234375 V 4.921875e-4 C 3.422,-0.01122656 4.0196563,-0.03466406 4.218875,-0.03466406 c 0.2929688,0 0.5859375,0.01171875 0.8671875,0.0351562475 V -0.30419531 c -0.3632812,0 -0.5859375,0 -0.9609375,-0.52734375 L 2.8595,-2.6245078 c -0.011719,-0.011719 -0.058594,-0.070312 -0.058594,-0.1054688 0,-0.035156 0.703125,-0.6328125 0.8085937,-0.7148437 0.6210938,-0.5039063 1.0429688,-0.5273438 1.2539063,-0.5390625 v -0.3046875 c -0.2929688,0.023437 -0.421875,0.023437 -0.703125,0.023437 -0.3515625,0 -0.9726563,-0.023437 -1.1132813,-0.023437 v 0.3046875 c 0.1875,0.011719 0.2929688,0.1171875 0.2929688,0.2460937 0,0.1992188 -0.140625,0.3164063 -0.2226563,0.3867188 l -1.40625,1.21875 v -4.78125 L 0.281375,-6.8081016 v 0.3164063 c 0.69140625,0 0.7734375,0.070312 0.7734375,0.5507812 z M 6.093875,-2.5073203 c 0.058594,-1.4882813 0.9023438,-1.734375 1.2421875,-1.734375 1.0195313,0 1.125,1.3476562 1.125,1.734375 z m -0.011719,0.2109375 h 2.7890625 c 0.2109375,0 0.2460937,0 0.2460937,-0.2109375 0,-0.984375 -0.5390625,-1.9570313 -1.78125,-1.9570313 -1.1601562,0 -2.0742187,1.03125 -2.0742187,2.2734375 0,1.33593754 1.0429687,2.29687504 2.1914062,2.29687504 1.21875,0 1.6640625,-1.1015625 1.6640625,-1.28906254 0,-0.1054687 -0.082031,-0.1171875 -0.1289062,-0.1171875 -0.09375,0 -0.1171875,0.058594 -0.1289063,0.140625 -0.3515625,1.01953129 -1.2539062,1.01953129 -1.3476562,1.01953129 -0.5039063,0 -0.9023438,-0.29296875 -1.125,-0.66796875 C 6.0821563,-1.2885703 6.0821563,-1.9448203 6.082156,-2.2963828 Z m 4.986328,-1.0078125 v -1.1015625 l -1.3828124,0.1171875 v 0.3046875 c 0.6914064,0 0.7734374,0.070312 0.7734374,0.5625 v 2.66015624 c 0,0.45703125 -0.105468,0.45703125 -0.7734374,0.45703125 V 4.921875e-4 C 10.072391,-0.01122656 10.541141,-0.03466406 10.822391,-0.03466406 c 0.398437,0 0.867187,0 1.265625,0.0351562475 V -0.30419531 h -0.210938 c -0.738281,0 -0.761719,-0.1171875 -0.761719,-0.46875 V -2.3081016 c 0,-0.984375 0.421875,-1.875 1.183594,-1.875 0.05859,0 0.08203,0 0.105469,0.011719 -0.03516,0.011719 -0.234375,0.1289062 -0.234375,0.3867187 0,0.28125 0.210937,0.4335938 0.433594,0.4335938 0.175781,0 0.421875,-0.1289063 0.421875,-0.4453125 0,-0.3164063 -0.304688,-0.609375 -0.726563,-0.609375 -0.738281,0 -1.089844,0.6679687 -1.230469,1.1015623 z m 0,0"
         style="fill:#8b572a;fill-opacity:1;fill-rule:nonzero;stroke:none" />
      <path
         id="path19"
         d="m 16.670047,1.6997109 c -0.04687,0.1289063 -0.05859,0.140625 -0.05859,0.1992188 0,0.2109375 0.1875,0.2695312 0.292969,0.2695312 0.04687,0 0.269531,-0.023437 0.363281,-0.2578125 0.03516,-0.082031 0.08203,-0.4101562 0.351563,-1.81640621 0.09375,0.01171875 0.164062,0.01171875 0.328125,0.01171875 1.652343,0 3.1875,-1.55859374 3.1875,-3.12890624 0,-0.7851563 -0.386719,-1.3828125 -1.136719,-1.3828125 -1.441406,0 -2.039063,1.9335937 -2.636719,3.87890624 -1.078125,-0.19921875 -1.628906,-0.76171874 -1.628906,-1.47656254 0,-0.28125 0.222656,-1.3710937 0.820312,-2.0625 0.08203,-0.082031 0.08203,-0.1054687 0.08203,-0.1289062 0,-0.035156 -0.02344,-0.09375 -0.117188,-0.09375 -0.28125,0 -1.042969,1.4414062 -1.042969,2.390625 0,0.93749999 0.65625,1.66406249 1.722657,1.92187499 z m 1.371094,-2.16796871 c -0.08203,0 -0.105469,0 -0.175782,-0.0117188 -0.128906,0 -0.140625,-0.0117188 -0.140625,-0.0351563 0,-0.0234375 0.175782,-0.92578129 0.199219,-1.07812499 0.316406,-1.2773438 1.089844,-2.2265625 1.980469,-2.2265625 0.679687,0 0.949219,0.5273437 0.949219,1.0078125 0,1.125 -1.277344,2.34374999 -2.8125,2.34375009 z m 0,0"
         style="fill:#8b572a;fill-opacity:1;fill-rule:nonzero;stroke:none" />
    </g>
    <g
       id="g19"
       aria-label="e&#10;′"
       transform="matrix(1.3333333,0,0,1.3333333,292.22933,99.926667)">
      <path
         id="path20"
         d="m 1.8641328,-2.2975391 c 0.2929688,0 1.03125,-0.023437 1.5234375,-0.234375 0.703125,-0.2929687 0.75,-0.890625 0.75,-1.0195312 0,-0.4453125 -0.3867187,-0.8554688 -1.0664062,-0.8554688 -1.1132813,0 -2.61328129,0.9726563 -2.61328129,2.7070313 0,1.01953124 0.58593749,1.80468749 1.57031249,1.80468749 1.4179688,0 2.2617188,-1.0546875 2.2617188,-1.17187499 0,-0.058594 -0.070312,-0.1289063 -0.1289063,-0.1289063 -0.046875,0 -0.070312,0.023437 -0.1289062,0.09375 -0.7851563,0.99609379 -1.875,0.99609379 -1.9921875,0.99609379 -0.7734375,0 -0.8671875,-0.84375 -0.8671875,-1.16015629 0,-0.1171875 0.011719,-0.4335937 0.1640625,-1.03125 z m -0.46875,-0.2226562 c 0.3867188,-1.5117188 1.4179688,-1.6640625 1.6757813,-1.6640625 0.46875,0 0.7382812,0.2929687 0.7382812,0.6328125 0,1.03125 -1.59375,1.03125 -2.0039062,1.03125 z m 0,0"
         style="fill:#000000;fill-opacity:1;fill-rule:nonzero;stroke:none" />
      <path
         id="path21"
         d="m 6.6658906,-6.9088672 c 0.046875,-0.1171875 0.058594,-0.1757812 0.058594,-0.2226562 0,-0.2109375 -0.1992188,-0.3867188 -0.4101563,-0.3867188 -0.2695312,0 -0.3515625,0.2226563 -0.3867187,0.328125 l -0.9140625,3.0234375 c -0.011719,0.011719 -0.035156,0.1054688 -0.035156,0.1171875 0,0.082031 0.2109375,0.1523438 0.2695313,0.1523438 0.046875,0 0.058594,-0.023437 0.1054687,-0.1289063 z m 0,0"
         style="fill:#000000;fill-opacity:1;fill-rule:nonzero;stroke:none" />
    </g>
    <g
       id="g21"
       aria-label="Imφ"
       transform="matrix(1.3333333,0,0,1.3333333,272.58267,145.76267)">
      <path
         id="path22"
         d="m 2.2378047,-6.0241484 c 0,-0.3632813 0.035156,-0.46875 0.8203125,-0.46875 h 0.2578125 v -0.3164063 c -0.3515625,0.035156 -1.1367188,0.035156 -1.5117188,0.035156 -0.3867187,0 -1.17187496,0 -1.52343746,-0.035156 v 0.3164063 h 0.2578125 c 0.78515626,0 0.82031246,0.1054687 0.82031246,0.46875 v 5.24999996 c 0,0.3515625 -0.035156,0.46875 -0.82031246,0.46875 H 0.28077344 V -7.109375e-4 C 0.63233594,-0.03586719 1.4174922,-0.03586719 1.7924922,-0.03586719 c 0.3867187,0 1.171875,0 1.5234375,0.0351562525 V -0.30539844 H 3.0581172 c -0.7851563,0 -0.8203125,-0.1171875 -0.8203125,-0.46875 z m 2.4609375,2.6015625 v 2.66015621 c 0,0.45703125 -0.1171875,0.45703125 -0.7851563,0.45703125 v 0.3046875025 c 0.3515625,-0.0117187525 0.8554688,-0.0351562525 1.125,-0.0351562525 0.2578125,0 0.7851563,0.0234375 1.1132813,0.0351562525 V -0.30539844 c -0.65625,0 -0.7734375,0 -0.7734375,-0.45703125 V -2.5905547 c 0,-1.03125 0.7148437,-1.59375 1.3476562,-1.59375 0.6210938,0 0.7382813,0.5390625 0.7382813,1.1015625 v 2.32031251 c 0,0.45703125 -0.1171875,0.45703125 -0.7734375,0.45703125 v 0.3046875025 c 0.3398437,-0.0117187525 0.8554687,-0.0351562525 1.125,-0.0351562525 0.2578125,0 0.7734375,0.0234375 1.1132812,0.0351562525 V -0.30539844 c -0.6679687,0 -0.7851562,0 -0.7851562,-0.45703125 V -2.5905547 c 0,-1.03125 0.7148437,-1.59375 1.3476562,-1.59375 0.6328121,0 0.7382811,0.5390625 0.7382811,1.1015625 v 2.32031251 c 0,0.45703125 -0.105469,0.45703125 -0.7734373,0.45703125 V -7.109375e-4 C 9.8081172,-0.01242969 10.312023,-0.03586719 10.581555,-0.03586719 c 0.257812,0 0.773437,0.0234375 1.113281,0.0351562525 V -0.30539844 c -0.515625,0 -0.761719,0 -0.773438,-0.3046875 V -2.5085234 c 0,-0.8554688 0,-1.171875 -0.316406,-1.5234375 -0.128906,-0.1757813 -0.46875,-0.375 -1.0429686,-0.375 -0.8320312,0 -1.2773437,0.5976562 -1.4414062,0.984375 -0.140625,-0.8671875 -0.8789063,-0.984375 -1.3242188,-0.984375 -0.7265625,0 -1.1953125,0.4335937 -1.4765625,1.0546875 v -1.0546875 l -1.40625,0.1171875 v 0.3046875 c 0.703125,0 0.7851563,0.070312 0.7851563,0.5625 z m 0,0"
         style="fill:#417505;fill-opacity:1;fill-rule:nonzero;stroke:none" />
      <path
         id="path23"
         d="m 15.260266,1.6985078 c -0.04687,0.1289063 -0.05859,0.140625 -0.05859,0.1992188 0,0.2109375 0.1875,0.2695312 0.292969,0.2695312 0.04687,0 0.269531,-0.023437 0.363281,-0.2578125 0.03516,-0.082031 0.08203,-0.4101562 0.351562,-1.81640624 0.09375,0.01171875 0.164063,0.01171875 0.328125,0.01171875 1.652344,0 3.1875,-1.55859371 3.1875,-3.12890621 0,-0.7851563 -0.386718,-1.3828125 -1.136718,-1.3828125 -1.441407,0 -2.039063,1.9335937 -2.636719,3.87890621 -1.078125,-0.19921875 -1.628906,-0.76171871 -1.628906,-1.47656251 0,-0.28125 0.222656,-1.3710937 0.820312,-2.0625 0.08203,-0.082031 0.08203,-0.1054687 0.08203,-0.1289062 0,-0.035156 -0.02344,-0.09375 -0.117187,-0.09375 -0.28125,0 -1.042969,1.4414062 -1.042969,2.390625 0,0.93749996 0.65625,1.66406246 1.722656,1.92187496 z m 1.371093,-2.16796874 c -0.08203,0 -0.105468,0 -0.175781,-0.0117188 -0.128906,0 -0.140625,-0.0117188 -0.140625,-0.0351563 0,-0.0234375 0.175781,-0.92578126 0.199219,-1.07812496 0.316406,-1.2773438 1.089844,-2.2265625 1.980469,-2.2265625 0.679687,0 0.949218,0.5273437 0.949218,1.0078125 0,1.125 -1.277343,2.34374996 -2.8125,2.34375006 z m 0,0"
         style="fill:#417505;fill-opacity:1;fill-rule:nonzero;stroke:none" />
    </g>
    <g
       id="g23"
       aria-label="g&#10;′"
       transform="matrix(1.3333333,0,0,1.3333333,275.36267,118.45733)">
      <path
         id="path24"
         d="m 4.6879609,-3.7502266 c 0.011719,-0.070312 0.035156,-0.1171875 0.035156,-0.1875 0,-0.1640625 -0.1171875,-0.2695312 -0.2929688,-0.2695312 -0.09375,0 -0.3632812,0.070312 -0.4101562,0.4335937 -0.1757813,-0.375 -0.5273438,-0.6328125 -0.9257813,-0.6328125 -1.1367187,0 -2.36718746,1.3945313 -2.36718746,2.8359375 0,0.98437504 0.60937496,1.5703125375 1.32421876,1.5703125375 0.5859375,0 1.0546875,-0.4687499975 1.1601562,-0.5742187475 l 0.011719,0.0117188 c -0.2109375,0.87890625 -0.328125,1.2890625 -0.328125,1.3125 -0.046875,0.0820313 -0.3867188,1.07812501 -1.4414063,1.07812501 -0.1875,0 -0.51562496,-0.011719 -0.79687496,-0.1054687 0.3046875,-0.09375 0.41015626,-0.3515625 0.41015626,-0.515625 0,-0.1640625 -0.10546876,-0.35156256 -0.37500001,-0.35156256 -0.22265625,0 -0.5390625,0.17578126 -0.5390625,0.57421876 0,0.4101563 0.36328125,0.609375 1.32421871,0.609375 1.2421875,0 1.9570313,-0.7734375 2.109375,-1.37109376 z m -1.2890625,2.4726563 c -0.058594,0.2578125 -0.2929687,0.51562499 -0.5039062,0.70312499 -0.2109375,0.17578125 -0.5273438,0.3515625 -0.8085938,0.3515625 -0.5039062,0 -0.65625,-0.515625 -0.65625,-0.91406249 0,-0.4804688 0.2929688,-1.6523438 0.5625,-2.15625 0.2695313,-0.4921875 0.703125,-0.890625 1.1132813,-0.890625 0.65625,0 0.796875,0.8085937 0.796875,0.8554687 0,0.046875 -0.011719,0.1054688 -0.023437,0.1523438 z m 0,0"
         style="fill:#000000;fill-opacity:1;fill-rule:nonzero;stroke:none" />
      <path
         id="path25"
         d="m 7.1371797,-6.9084297 c 0.046875,-0.1171875 0.058594,-0.1757812 0.058594,-0.2226562 0,-0.2109375 -0.1992187,-0.3867188 -0.4101562,-0.3867188 -0.2695313,0 -0.3515625,0.2226563 -0.3867188,0.328125 l -0.9140625,3.0234375 c -0.011719,0.011719 -0.035156,0.1054688 -0.035156,0.1171875 0,0.082031 0.2109375,0.1523438 0.2695312,0.1523438 0.046875,0 0.058594,-0.023437 0.1054688,-0.1289063 z m 0,0"
         style="fill:#000000;fill-opacity:1;fill-rule:nonzero;stroke:none" />
    </g>
    <path
       id="path26"
       d="m 7.5704219,-6.9255 c 0,-0.023437 -0.023437,-0.09375 -0.1054688,-0.09375 -0.035156,0 -0.046875,0.011719 -0.1523437,0.1171875 l -0.703125,0.7617188 C 6.5274531,-6.2809687 6.0704219,-7.01925 4.9571406,-7.01925 c -2.2148437,0 -4.45312497,2.203125 -4.45312497,4.5117188 0,1.5820312 1.10156247,2.7304687 2.71874997,2.7304687 0.4335938,0 0.8789063,-0.09375 1.2421875,-0.24609375 0.4921875,-0.19921875 0.6796875,-0.41015625 0.8671875,-0.609375 0.082031,0.2578125 0.3515625,0.62109375 0.4453125,0.62109375 0.046875,0 0.070312,-0.0234375 0.070312,-0.03515625 0.023437,-0.0234375 0.1171875,-0.3984375 0.1640625,-0.609375 L 6.2110469,-1.4294062 c 0.035156,-0.1640625 0.082031,-0.328125 0.1289062,-0.5039063 0.1054688,-0.4453125 0.1171875,-0.46875 0.6796875,-0.4804687 0.058594,0 0.1640625,-0.011719 0.1640625,-0.1992188 0,-0.070312 -0.046875,-0.1054687 -0.1289062,-0.1054687 -0.234375,0 -0.8203125,0.023437 -1.0429688,0.023437 -0.3164062,0 -1.0898437,-0.023437 -1.3945312,-0.023437 -0.09375,0 -0.2109375,0 -0.2109375,0.1992187 0,0.1054688 0.082031,0.1054688 0.2929687,0.1054688 0.011719,0 0.3046875,0 0.5273438,0.023437 0.2578125,0.035156 0.3164062,0.058594 0.3164062,0.1875 0,0.09375 -0.1171875,0.5390625 -0.2109375,0.9023437 -0.28125,1.1015625 -1.5820312,1.20703125 -1.921875,1.20703125 -0.9609375,0 -2.0039062,-0.5625 -2.0039062,-2.08593745 0,-0.3164063 0.09375,-1.9570313 1.1484375,-3.2460938 0.5390625,-0.6796875 1.5,-1.2890625 2.484375,-1.2890625 1.0195312,0 1.6054687,0.7734375 1.6054687,1.921875 0,0.3984375 -0.035156,0.4101563 -0.035156,0.5039063 0,0.1054687 0.1171875,0.1054687 0.1523437,0.1054687 0.1289063,0 0.1289063,-0.023437 0.1757813,-0.1992187 z m 0,0"
       style="fill:#4a90e2;fill-opacity:1;fill-rule:nonzero;stroke:none"
       aria-label="G"
       transform="matrix(1.3333333,0,0,1.3333333,53.382667,193.484)" />
    <g
       id="g26"
       aria-label="G&#10;′"
       transform="matrix(1.3333333,0,0,1.3333333,287.86533,194.39333)">
      <path
         id="path27"
         d="m 7.5717031,-6.9248828 c 0,-0.023437 -0.023437,-0.09375 -0.1054687,-0.09375 -0.035156,0 -0.046875,0.011719 -0.1523438,0.1171875 l -0.703125,0.7617187 c -0.082031,-0.140625 -0.5390625,-0.8789062 -1.6523437,-0.8789062 -2.2148438,0 -4.45312502,2.203125 -4.45312502,4.5117187 0,1.58203129 1.10156252,2.73046879 2.71875002,2.73046879 0.4335937,0 0.8789062,-0.09375 1.2421875,-0.24609375 0.4921875,-0.19921875 0.6796875,-0.41015625 0.8671875,-0.609375 0.082031,0.2578125 0.3515625,0.62109375 0.4453125,0.62109375 0.046875,0 0.070312,-0.0234375 0.070312,-0.03515625 0.023437,-0.0234375 0.1171875,-0.3984375 0.1640625,-0.609375 L 6.2123281,-1.4287891 c 0.035156,-0.1640625 0.082031,-0.328125 0.1289063,-0.5039062 0.1054687,-0.4453125 0.1171875,-0.46875 0.6796875,-0.4804688 0.058594,0 0.1640625,-0.011719 0.1640625,-0.1992187 0,-0.070312 -0.046875,-0.1054688 -0.1289063,-0.1054688 -0.234375,0 -0.8203125,0.023437 -1.0429687,0.023437 -0.3164063,0 -1.0898438,-0.023437 -1.3945313,-0.023437 -0.09375,0 -0.2109375,0 -0.2109375,0.1992188 0,0.1054687 0.082031,0.1054687 0.2929688,0.1054687 0.011719,0 0.3046875,0 0.5273437,0.023437 0.2578125,0.035156 0.3164063,0.058594 0.3164063,0.1875 0,0.09375 -0.1171875,0.5390625 -0.2109375,0.9023438 -0.28125,1.10156249 -1.5820313,1.20703124 -1.921875,1.20703124 -0.9609375,0 -2.0039063,-0.5625 -2.0039063,-2.08593754 0,-0.3164062 0.09375,-1.9570312 1.1484375,-3.2460937 0.5390625,-0.6796875 1.5,-1.2890625 2.484375,-1.2890625 1.0195313,0 1.6054688,0.7734375 1.6054688,1.921875 0,0.3984375 -0.035156,0.4101562 -0.035156,0.5039062 0,0.1054688 0.1171875,0.1054688 0.1523438,0.1054688 0.1289062,0 0.1289062,-0.023437 0.1757812,-0.1992188 z m 0,0"
         style="fill:#d0021b;fill-opacity:0.8;fill-rule:nonzero;stroke:none" />
      <path
         id="path28"
         d="m 9.8597891,-6.9073047 c 0.046875,-0.1171875 0.058594,-0.1757812 0.058594,-0.2226562 0,-0.2109375 -0.1992187,-0.3867188 -0.4101562,-0.3867188 -0.2695313,0 -0.3515625,0.2226563 -0.3867188,0.328125 l -0.9140625,3.0234375 c -0.011719,0.011719 -0.035156,0.1054688 -0.035156,0.1171875 0,0.082031 0.2109375,0.1523438 0.2695312,0.1523438 0.046875,0 0.058594,-0.023437 0.1054688,-0.1289063 z m 0,0"
         style="fill:#d0021b;fill-opacity:0.8;fill-rule:nonzero;stroke:none" />
    </g>
  </g>
</svg>
