<?xml version="1.0" encoding="UTF-8" standalone="no"?>
<!-- Created with Inkscape (http://www.inkscape.org/) -->

<svg
   version="1.1"
   id="svg1"
   width="150.30667"
   height="112.57333"
   viewBox="0 0 150.30667 112.57333"
   sodipodi:docname="levels-of-abstraction.pdf"
   xmlns:inkscape="http://www.inkscape.org/namespaces/inkscape"
   xmlns:sodipodi="http://sodipodi.sourceforge.net/DTD/sodipodi-0.dtd"
   xmlns="http://www.w3.org/2000/svg"
   xmlns:svg="http://www.w3.org/2000/svg">
  <defs
     id="defs1" />
  <sodipodi:namedview
     id="namedview1"
     pagecolor="#ffffff"
     bordercolor="#000000"
     borderopacity="0.25"
     inkscape:showpageshadow="2"
     inkscape:pageopacity="0.0"
     inkscape:pagecheckerboard="0"
     inkscape:deskcolor="#d1d1d1">
    <inkscape:page
       x="0"
       y="0"
       inkscape:label="1"
       id="page1"
       width="150.30667"
       height="112.57333"
       margin="0"
       bleed="0" />
  </sodipodi:namedview>
  <g
     id="g1"
     inkscape:groupmode="layer"
     inkscape:label="1">
    <path
       id="path1"
       d="M 73.74905,-27.72127 H 182.41649 V -48.64299 H 73.74905 Z"
       style="fill:#f5a623;fill-opacity:0.1;fill-rule:nonzero;stroke:#f5a623;stroke-width:0.74721;stroke-linecap:butt;stroke-linejoin:miter;stroke-miterlimit:10;stroke-dasharray:none;stroke-opacity:1"
       transform="matrix(1.3333333,0,0,-1.3333333,-93.409333,-36.466667)" />
    <path
       id="path2"
       d="M 73.74905,-48.64299 H 182.41649 V -69.56471 H 73.74905 Z"
       style="fill:#f5a623;fill-opacity:0.2;fill-rule:nonzero;stroke:#f5a623;stroke-width:0.74721;stroke-linecap:butt;stroke-linejoin:miter;stroke-miterlimit:10;stroke-dasharray:none;stroke-opacity:1"
       transform="matrix(1.3333333,0,0,-1.3333333,-93.409333,-36.466667)" />
    <path
       id="path3"
       d="M 73.74905,-69.56471 H 182.41649 V -90.48643 H 73.74905 Z"
       style="fill:#f5a623;fill-opacity:0.3;fill-rule:nonzero;stroke:#f5a623;stroke-width:0.74721;stroke-linecap:butt;stroke-linejoin:miter;stroke-miterlimit:10;stroke-dasharray:none;stroke-opacity:1"
       transform="matrix(1.3333333,0,0,-1.3333333,-93.409333,-36.466667)" />
    <path
       id="path4"
       d="m 73.74905,-90.48643 h 108.66744 v -20.92173 H 73.74905 Z"
       style="fill:#f5a623;fill-opacity:0.4;fill-rule:nonzero;stroke:#f5a623;stroke-width:0.74721;stroke-linecap:butt;stroke-linejoin:miter;stroke-miterlimit:10;stroke-dasharray:none;stroke-opacity:1"
       transform="matrix(1.3333333,0,0,-1.3333333,-93.409333,-36.466667)" />
    <g
       id="g4"
       aria-label="G,C(G),N"
       transform="matrix(1.3333333,0,0,1.3333333,40.148,17.764)">
      <path
         id="path5"
         d="m 7.5706406,-6.9245625 c 0,-0.023437 -0.023437,-0.09375 -0.1054687,-0.09375 -0.035156,0 -0.046875,0.011719 -0.1523438,0.1171875 l -0.703125,0.7617187 c -0.082031,-0.140625 -0.5390625,-0.8789062 -1.6523437,-0.8789062 -2.2148438,0 -4.45312502,2.203125 -4.45312502,4.5117187 0,1.5820313 1.10156252,2.7304688 2.71875002,2.7304688 0.4335937,0 0.8789062,-0.09375 1.2421875,-0.24609375 0.4921875,-0.19921875 0.6796875,-0.41015625 0.8671875,-0.609375 0.082031,0.2578125 0.3515625,0.62109375 0.4453125,0.62109375 0.046875,0 0.070312,-0.0234375 0.070312,-0.03515625 0.023437,-0.0234375 0.1171875,-0.3984375 0.1640625,-0.609375 L 6.2112656,-1.4284688 c 0.035156,-0.1640625 0.082031,-0.328125 0.1289063,-0.5039062 0.1054687,-0.4453125 0.1171875,-0.46875 0.6796875,-0.4804688 0.058594,0 0.1640625,-0.011719 0.1640625,-0.1992187 0,-0.070312 -0.046875,-0.1054688 -0.1289063,-0.1054688 -0.234375,0 -0.8203125,0.023437 -1.0429687,0.023437 -0.3164063,0 -1.0898438,-0.023437 -1.3945313,-0.023437 -0.09375,0 -0.2109375,0 -0.2109375,0.1992188 0,0.1054687 0.082031,0.1054687 0.2929688,0.1054687 0.011719,0 0.3046875,0 0.5273437,0.023437 0.2578125,0.035156 0.3164063,0.058594 0.3164063,0.1875 0,0.09375 -0.1171875,0.5390625 -0.2109375,0.9023438 -0.28125,1.1015625 -1.5820313,1.20703125 -1.921875,1.20703125 -0.9609375,0 -2.0039063,-0.5625 -2.0039063,-2.08593755 0,-0.3164062 0.09375,-1.9570312 1.1484375,-3.2460937 0.5390625,-0.6796875 1.5,-1.2890625 2.484375,-1.2890625 1.0195313,0 1.6054688,0.7734375 1.6054688,1.921875 0,0.3984375 -0.035156,0.4101562 -0.035156,0.5039062 0,0.1054688 0.1171875,0.1054688 0.1523438,0.1054688 0.1289062,0 0.1289062,-0.023437 0.1757812,-0.1992188 z M 9.8587266,-0.0105 c 0,-0.65625 -0.2578125,-1.0429688 -0.6445313,-1.0429688 -0.328125,0 -0.5273437,0.2460938 -0.5273437,0.5273438 0,0.26953125 0.1992187,0.52734375 0.5273437,0.52734375 0.1171875,0 0.2460938,-0.03515625 0.3515625,-0.12890625 0.023437,-0.0234375 0.035156,-0.0351563 0.046875,-0.0351563 0.011719,0 0.023437,0.0117188 0.023437,0.15234375 0,0.73828125 -0.3515625,1.33593755 -0.6796875,1.66406255 -0.1054687,0.1054687 -0.1054687,0.1289062 -0.1054687,0.1640624 0,0.070312 0.046875,0.1054688 0.09375,0.1054688 0.1171875,0 0.9140625,-0.7617187 0.914063,-1.9335937 z M 23.133141,-6.9245625 c 0,-0.023437 -0.02344,-0.09375 -0.105469,-0.09375 -0.03516,0 -0.04687,0.011719 -0.152344,0.1171875 l -0.703125,0.7617187 c -0.08203,-0.140625 -0.539062,-0.8789062 -1.652344,-0.8789062 -2.214843,0 -4.453125,2.203125 -4.453125,4.5117187 0,1.64062505 1.171875,2.7304688 2.695313,2.7304688 0.867187,0 1.617187,-0.3984375 2.144531,-0.85546875 0.9375,-0.82031255 1.101563,-1.72265625 1.101563,-1.75781255 0,-0.1054687 -0.105469,-0.1054687 -0.117188,-0.1054687 -0.05859,0 -0.117187,0.023437 -0.128906,0.1054687 -0.09375,0.2929688 -0.316406,0.9960938 -1.007813,1.57031255 -0.691406,0.5625 -1.3125,0.7265625 -1.839843,0.7265625 -0.890625,0 -1.945313,-0.515625 -1.945313,-2.06250005 0,-0.5742187 0.210938,-2.1914062 1.207031,-3.3515625 0.609375,-0.703125 1.535157,-1.2070312 2.425782,-1.2070312 1.019531,0 1.605468,0.7734375 1.605468,1.921875 0,0.3984375 -0.03516,0.4101562 -0.03516,0.5039062 0,0.1054688 0.117188,0.1054688 0.152344,0.1054688 0.128906,0 0.128906,-0.023437 0.175781,-0.1992188 z m 0,0"
         style="fill:#000000;fill-opacity:1;fill-rule:nonzero;stroke:none" />
      <path
         id="path6"
         d="m 26.70443,2.3918437 c 0,-0.035156 0,-0.046875 -0.164063,-0.2226562 -1.242187,-1.25390625 -1.570312,-3.12890625 -1.570312,-4.6640625 0,-1.7226563 0.386718,-3.4570313 1.605468,-4.7109375 C 26.70443,-7.323 26.70443,-7.3347188 26.70443,-7.369875 c 0,-0.070312 -0.03516,-0.1054688 -0.09375,-0.1054688 -0.105469,0 -0.996094,0.6796875 -1.582032,1.9453125 -0.515625,1.1015625 -0.632812,2.203125 -0.632812,3.0351563 0,0.7851562 0.117187,1.9921875 0.65625,3.1171875 0.597656,1.21875 1.453125,1.875 1.558594,1.875 0.05859,0 0.09375,-0.035156 0.09375,-0.1054688 z m 0,0"
         style="fill:#000000;fill-opacity:1;fill-rule:nonzero;stroke:none" />
      <path
         id="path7"
         d="m 34.85775,-6.9245625 c 0,-0.023437 -0.02344,-0.09375 -0.105469,-0.09375 -0.03516,0 -0.04687,0.011719 -0.152343,0.1171875 l -0.703125,0.7617187 c -0.08203,-0.140625 -0.539063,-0.8789062 -1.652344,-0.8789062 -2.214844,0 -4.453125,2.203125 -4.453125,4.5117187 0,1.5820313 1.101562,2.7304688 2.71875,2.7304688 0.433594,0 0.878906,-0.09375 1.242187,-0.24609375 0.492188,-0.19921875 0.679688,-0.41015625 0.867188,-0.609375 0.08203,0.2578125 0.351562,0.62109375 0.445312,0.62109375 0.04687,0 0.07031,-0.0234375 0.07031,-0.03515625 0.02344,-0.0234375 0.117187,-0.3984375 0.164062,-0.609375 l 0.199219,-0.77343755 c 0.03516,-0.1640625 0.08203,-0.328125 0.128906,-0.5039062 0.105469,-0.4453125 0.117188,-0.46875 0.679688,-0.4804688 0.05859,0 0.164062,-0.011719 0.164062,-0.1992187 0,-0.070312 -0.04687,-0.1054688 -0.128906,-0.1054688 -0.234375,0 -0.820312,0.023437 -1.042969,0.023437 -0.316406,0 -1.089843,-0.023437 -1.394531,-0.023437 -0.09375,0 -0.210937,0 -0.210937,0.1992188 0,0.1054687 0.08203,0.1054687 0.292968,0.1054687 0.01172,0 0.304688,0 0.527344,0.023437 0.257813,0.035156 0.316406,0.058594 0.316406,0.1875 0,0.09375 -0.117187,0.5390625 -0.210937,0.9023438 -0.28125,1.1015625 -1.582031,1.20703125 -1.921875,1.20703125 -0.960938,0 -2.003906,-0.5625 -2.003906,-2.08593755 0,-0.3164062 0.09375,-1.9570312 1.148437,-3.2460937 0.539063,-0.6796875 1.5,-1.2890625 2.484375,-1.2890625 1.019531,0 1.605469,0.7734375 1.605469,1.921875 0,0.3984375 -0.03516,0.4101562 -0.03516,0.5039062 0,0.1054688 0.117187,0.1054688 0.152343,0.1054688 0.128907,0 0.128907,-0.023437 0.175782,-0.1992188 z m 0,0"
         style="fill:#000000;fill-opacity:1;fill-rule:nonzero;stroke:none" />
      <path
         id="path8"
         d="m 38.001305,-2.494875 c 0,-0.7734375 -0.117188,-1.9804688 -0.65625,-3.1054688 -0.597657,-1.21875 -1.464844,-1.875 -1.558594,-1.875 -0.05859,0 -0.105469,0.046875 -0.105469,0.1054688 0,0.035156 0,0.046875 0.199219,0.234375 0.972656,0.984375 1.535156,2.5664062 1.535156,4.640625 0,1.7109375 -0.363281,3.45703125 -1.59375,4.7226562 -0.140625,0.1171875 -0.140625,0.1289063 -0.140625,0.1640625 0,0.058594 0.04687,0.1054688 0.105469,0.1054688 0.09375,0 0.996094,-0.6796875 1.582031,-1.9453125 0.503906,-1.1015625 0.632813,-2.203125 0.632813,-3.046875 z m 0,0"
         style="fill:#000000;fill-opacity:1;fill-rule:nonzero;stroke:none" />
      <path
         id="path9"
         d="m 41.018883,-0.0105 c 0,-0.65625 -0.257813,-1.0429688 -0.644531,-1.0429688 -0.328125,0 -0.527344,0.2460938 -0.527344,0.5273438 0,0.26953125 0.199219,0.52734375 0.527344,0.52734375 0.117187,0 0.246093,-0.03515625 0.351562,-0.12890625 0.02344,-0.0234375 0.03516,-0.0351563 0.04687,-0.0351563 0.01172,0 0.02344,0.0117188 0.02344,0.15234375 0,0.73828125 -0.351563,1.33593755 -0.679688,1.66406255 -0.105469,0.1054687 -0.105469,0.1289062 -0.105469,0.1640624 0,0.070312 0.04687,0.1054688 0.09375,0.1054688 0.117188,0 0.914063,-0.7617187 0.914063,-1.93359375 z m 13.239258,-5.7421875 c 0.09375,-0.3984375 0.269531,-0.7148438 1.066406,-0.7382813 0.05859,0 0.175781,-0.011719 0.175781,-0.1992187 0,-0.011719 0,-0.1171875 -0.128906,-0.1171875 -0.328125,0 -0.679688,0.035156 -1.007813,0.035156 -0.339843,0 -0.691406,-0.035156 -1.019531,-0.035156 -0.05859,0 -0.175781,0 -0.175781,0.1992187 0,0.1171875 0.09375,0.1171875 0.175781,0.1171875 0.574219,0.011719 0.679688,0.2109375 0.679688,0.4335938 0,0.035156 -0.02344,0.1757812 -0.02344,0.2109375 l -1.125,4.4296875 -2.203125,-5.1914063 c -0.07031,-0.1875 -0.08203,-0.1992187 -0.316406,-0.1992187 h -1.335938 c -0.199218,0 -0.28125,0 -0.28125,0.1992187 0,0.1171875 0.08203,0.1171875 0.28125,0.1171875 0.04687,0 0.667969,0 0.667969,0.082031 l -1.335937,5.3554687 c -0.09375,0.39843755 -0.269532,0.7148438 -1.066407,0.75000005 -0.05859,0 -0.175781,0 -0.175781,0.19921875 0,0.0703125 0.04687,0.10546875 0.128906,0.10546875 0.316407,0 0.667969,-0.03515625 0.996094,-0.03515625 0.339844,0 0.703125,0.03515625 1.03125,0.03515625 0.04687,0 0.175781,0 0.175781,-0.19921875 0,-0.10546875 -0.09375,-0.10546875 -0.199218,-0.10546875 -0.574219,-0.0234375 -0.65625,-0.24609375 -0.65625,-0.4453125 0,-0.0703125 0.01172,-0.1171875 0.03516,-0.22265625 l 1.324219,-5.2617188 c 0.03516,0.058594 0.03516,0.082031 0.08203,0.1757813 l 2.484375,5.87109375 c 0.07031,0.1640625 0.09375,0.1875 0.1875,0.1875 0.105469,0 0.105469,-0.03515625 0.164062,-0.2109375 z m 0,0"
         style="fill:#000000;fill-opacity:1;fill-rule:nonzero;stroke:none" />
    </g>
    <g
       id="g9"
       aria-label="G/C(G),Ad&#10;g&#10;:G→G"
       transform="matrix(1.3333333,0,0,1.3333333,10.212,45.42)">
      <path
         id="path10"
         d="m 7.5695156,-6.924375 c 0,-0.023437 -0.023437,-0.09375 -0.1054687,-0.09375 -0.035156,0 -0.046875,0.011719 -0.1523438,0.1171875 l -0.703125,0.7617188 C 6.5265469,-6.2798437 6.0695156,-7.018125 4.9562344,-7.018125 c -2.2148438,0 -4.45312502,2.203125 -4.45312502,4.5117188 0,1.5820312 1.10156252,2.7304687 2.71875002,2.7304687 0.4335937,0 0.8789062,-0.09375 1.2421875,-0.24609375 0.4921875,-0.19921875 0.6796875,-0.41015625 0.8671875,-0.609375 0.082031,0.2578125 0.3515625,0.62109375 0.4453125,0.62109375 0.046875,0 0.070312,-0.0234375 0.070312,-0.03515625 0.023437,-0.0234375 0.1171875,-0.3984375 0.1640625,-0.609375 L 6.2101406,-1.4282812 c 0.035156,-0.1640625 0.082031,-0.328125 0.1289063,-0.5039063 0.1054687,-0.4453125 0.1171875,-0.46875 0.6796875,-0.4804687 0.058594,0 0.1640625,-0.011719 0.1640625,-0.1992188 0,-0.070312 -0.046875,-0.1054687 -0.1289063,-0.1054687 -0.234375,0 -0.8203125,0.023437 -1.0429687,0.023437 -0.3164063,0 -1.0898438,-0.023437 -1.3945313,-0.023437 -0.09375,0 -0.2109375,0 -0.2109375,0.1992187 0,0.1054688 0.082031,0.1054688 0.2929688,0.1054688 0.011719,0 0.3046875,0 0.5273437,0.023437 0.2578125,0.035156 0.3164063,0.058594 0.3164063,0.1875 0,0.09375 -0.1171875,0.5390625 -0.2109375,0.9023437 -0.28125,1.1015625 -1.5820313,1.20703125 -1.921875,1.20703125 -0.9609375,0 -2.0039063,-0.5625 -2.0039063,-2.08593745 0,-0.3164063 0.09375,-1.9570313 1.1484375,-3.2460938 0.5390625,-0.6796875 1.5,-1.2890625 2.484375,-1.2890625 1.0195313,0 1.6054688,0.7734375 1.6054688,1.921875 0,0.3984375 -0.035156,0.4101563 -0.035156,0.5039063 0,0.1054687 0.1171875,0.1054687 0.1523438,0.1054687 0.1289062,0 0.1289062,-0.023437 0.1757812,-0.1992187 z m 4.6318364,-0.1640625 c 0.04687,-0.1289062 0.04687,-0.1757812 0.04687,-0.1875 0,-0.1054687 -0.08203,-0.1992187 -0.199219,-0.1992187 -0.07031,0 -0.128906,0.035156 -0.164063,0.09375 L 8.4279141,2.1107813 c -0.046875,0.1289062 -0.046875,0.1757812 -0.046875,0.1875 0,0.1054687 0.082031,0.1992187 0.1992187,0.1992187 0.1289063,0 0.1523438,-0.070312 0.2109375,-0.2460937 z m 8.179687,0.1640625 c 0,-0.023437 -0.02344,-0.09375 -0.105469,-0.09375 -0.03516,0 -0.04687,0.011719 -0.152343,0.1171875 l -0.703125,0.7617188 c -0.08203,-0.140625 -0.539063,-0.8789063 -1.652344,-0.8789063 -2.214844,0 -4.453125,2.203125 -4.453125,4.5117188 0,1.64062495 1.171875,2.7304687 2.695312,2.7304687 0.867188,0 1.617188,-0.3984375 2.144532,-0.85546875 0.9375,-0.82031245 1.101562,-1.72265625 1.101562,-1.75781245 0,-0.1054688 -0.105469,-0.1054688 -0.117187,-0.1054688 -0.05859,0 -0.117188,0.023437 -0.128907,0.1054688 -0.09375,0.2929687 -0.316406,0.9960937 -1.007812,1.57031245 -0.691406,0.5625 -1.3125,0.7265625 -1.839844,0.7265625 -0.890625,0 -1.945312,-0.515625 -1.945312,-2.06249995 0,-0.5742188 0.210937,-2.1914063 1.207031,-3.3515625 0.609375,-0.703125 1.535156,-1.2070313 2.425781,-1.2070313 1.019531,0 1.605469,0.7734375 1.605469,1.921875 0,0.3984375 -0.03516,0.4101563 -0.03516,0.5039063 0,0.1054687 0.117187,0.1054687 0.152343,0.1054687 0.128907,0 0.128907,-0.023437 0.175782,-0.1992187 z m 0,0"
         style="fill:#000000;fill-opacity:1;fill-rule:nonzero;stroke:none" />
      <path
         id="path11"
         d="m 23.940609,2.3920313 c 0,-0.035156 0,-0.046875 -0.164062,-0.2226563 -1.242188,-1.25390625 -1.570313,-3.12890625 -1.570313,-4.6640625 0,-1.7226562 0.386719,-3.4570312 1.605469,-4.7109375 0.128906,-0.1171875 0.128906,-0.1289062 0.128906,-0.1640625 0,-0.070312 -0.03516,-0.1054687 -0.09375,-0.1054687 -0.105468,0 -0.996093,0.6796875 -1.582031,1.9453125 -0.515625,1.1015625 -0.632812,2.203125 -0.632812,3.0351562 0,0.7851563 0.117187,1.9921875 0.65625,3.1171875 0.597656,1.21875 1.453125,1.875 1.558593,1.875 0.05859,0 0.09375,-0.035156 0.09375,-0.1054687 z m 0,0"
         style="fill:#000000;fill-opacity:1;fill-rule:nonzero;stroke:none" />
      <path
         id="path12"
         d="m 32.091,-6.924375 c 0,-0.023437 -0.02344,-0.09375 -0.105469,-0.09375 -0.03516,0 -0.04687,0.011719 -0.152343,0.1171875 l -0.703125,0.7617188 C 31.048031,-6.2798437 30.591,-7.018125 29.477719,-7.018125 c -2.214844,0 -4.453125,2.203125 -4.453125,4.5117188 0,1.5820312 1.101562,2.7304687 2.71875,2.7304687 0.433594,0 0.878906,-0.09375 1.242187,-0.24609375 0.492188,-0.19921875 0.679688,-0.41015625 0.867188,-0.609375 0.08203,0.2578125 0.351562,0.62109375 0.445312,0.62109375 0.04687,0 0.07031,-0.0234375 0.07031,-0.03515625 0.02344,-0.0234375 0.117187,-0.3984375 0.164062,-0.609375 l 0.199219,-0.77343745 c 0.03516,-0.1640625 0.08203,-0.328125 0.128906,-0.5039063 0.105469,-0.4453125 0.117188,-0.46875 0.679688,-0.4804687 0.05859,0 0.164062,-0.011719 0.164062,-0.1992188 0,-0.070312 -0.04687,-0.1054687 -0.128906,-0.1054687 -0.234375,0 -0.820312,0.023437 -1.042969,0.023437 -0.316406,0 -1.089843,-0.023437 -1.394531,-0.023437 -0.09375,0 -0.210937,0 -0.210937,0.1992187 0,0.1054688 0.08203,0.1054688 0.292968,0.1054688 0.01172,0 0.304688,0 0.527344,0.023437 0.257813,0.035156 0.316406,0.058594 0.316406,0.1875 0,0.09375 -0.117187,0.5390625 -0.210937,0.9023437 -0.28125,1.1015625 -1.582031,1.20703125 -1.921875,1.20703125 -0.960938,0 -2.003906,-0.5625 -2.003906,-2.08593745 0,-0.3164063 0.09375,-1.9570313 1.148437,-3.2460938 0.539063,-0.6796875 1.5,-1.2890625 2.484375,-1.2890625 1.019531,0 1.605469,0.7734375 1.605469,1.921875 0,0.3984375 -0.03516,0.4101563 -0.03516,0.5039063 0,0.1054687 0.117187,0.1054687 0.152343,0.1054687 0.128907,0 0.128907,-0.023437 0.175782,-0.1992187 z m 0,0"
         style="fill:#000000;fill-opacity:1;fill-rule:nonzero;stroke:none" />
      <path
         id="path13"
         d="m 35.237484,-2.4946875 c 0,-0.7734375 -0.117187,-1.9804687 -0.65625,-3.1054687 -0.597656,-1.21875 -1.464843,-1.875 -1.558593,-1.875 -0.05859,0 -0.105469,0.046875 -0.105469,0.1054687 0,0.035156 0,0.046875 0.199219,0.234375 0.972656,0.984375 1.535156,2.5664063 1.535156,4.640625 0,1.7109375 -0.363281,3.45703125 -1.59375,4.7226563 -0.140625,0.1171875 -0.140625,0.1289062 -0.140625,0.1640625 0,0.058594 0.04687,0.1054687 0.105469,0.1054687 0.09375,0 0.996093,-0.6796875 1.582031,-1.9453125 0.503906,-1.1015625 0.632812,-2.203125 0.632812,-3.046875 z m 0,0"
         style="fill:#000000;fill-opacity:1;fill-rule:nonzero;stroke:none" />
      <path
         id="path14"
         d="m 38.255063,-0.0103125 c 0,-0.65625 -0.257813,-1.0429687 -0.644532,-1.0429687 -0.328125,0 -0.527343,0.2460937 -0.527343,0.5273437 0,0.26953125 0.199218,0.52734375 0.527343,0.52734375 0.117188,0 0.246094,-0.03515625 0.351563,-0.12890625 0.02344,-0.0234375 0.03516,-0.0351563 0.04687,-0.0351563 0.01172,0 0.02344,0.0117188 0.02344,0.15234375 0,0.73828125 -0.351562,1.33593745 -0.679687,1.66406245 -0.105469,0.1054688 -0.105469,0.1289063 -0.105469,0.1640625 0,0.070312 0.04687,0.1054688 0.09375,0.1054688 0.117188,0 0.914063,-0.7617188 0.914063,-1.93359375 z m 7.485351,-1.1367187 c -0.398437,0.6679687 -0.785156,0.8085937 -1.21875,0.84374995 -0.128906,0 -0.210937,0 -0.210937,0.19921875 0,0.05859375 0.04687,0.10546875 0.128906,0.10546875 0.269531,0 0.574219,-0.03515625 0.855469,-0.03515625 0.328125,0 0.679687,0.03515625 0.996093,0.03515625 0.05859,0 0.1875,0 0.1875,-0.1875 0,-0.1171875 -0.09375,-0.1171875 -0.164062,-0.1171875 -0.222656,-0.0234375 -0.457031,-0.10546875 -0.457031,-0.3515625 0,-0.1171875 0.05859,-0.234375 0.128906,-0.37499995 l 0.761719,-1.265625 h 2.496093 c 0.02344,0.1992187 0.164063,1.5585937 0.164063,1.66406245 0,0.29296875 -0.515625,0.328125 -0.714844,0.328125 -0.140625,0 -0.246094,0 -0.246094,0.19921875 0,0.10546875 0.128907,0.10546875 0.140625,0.10546875 0.410157,0 0.84375,-0.03515625 1.253907,-0.03515625 0.246093,0 0.867187,0.03515625 1.125,0.03515625 0.05859,0 0.175781,0 0.175781,-0.19921875 0,-0.10546875 -0.105469,-0.10546875 -0.234375,-0.10546875 -0.609375,0 -0.609375,-0.0703125 -0.644531,-0.36328125 l -0.609375,-6.2226562 c -0.01172,-0.1992188 -0.01172,-0.2460938 -0.1875,-0.2460938 -0.164063,0 -0.199219,0.070312 -0.257813,0.1757813 z m 1.195313,-1.4648438 1.96875,-3.28125 0.316406,3.28125 z m 9.641601,-4.1953125 c 0,0 0,-0.1054687 -0.128906,-0.1054687 -0.152344,0 -1.101563,0.09375 -1.265625,0.1054687 -0.08203,0.011719 -0.140625,0.070312 -0.140625,0.1992188 0,0.1171875 0.08203,0.1171875 0.234375,0.1171875 0.480469,0 0.503906,0.070312 0.503906,0.1640625 l -0.03516,0.1992187 -0.597656,2.3671875 c -0.175782,-0.375 -0.46875,-0.6445312 -0.914063,-0.6445312 -1.171875,0 -2.402344,1.4648437 -2.402344,2.9179687 0,0.9375 0.550782,1.59375 1.324219,1.59375 0.199219,0 0.703125,-0.03515625 1.300781,-0.73828125 0.07031,0.41015625 0.421875,0.73828125 0.902344,0.73828125 0.351563,0 0.574219,-0.22265625 0.738281,-0.5390625 0.164063,-0.36328125 0.292969,-0.9726562 0.292969,-0.9960937 0,-0.09375 -0.08203,-0.09375 -0.117187,-0.09375 -0.09375,0 -0.105469,0.035156 -0.140625,0.1757812 -0.164063,0.64453125 -0.351563,1.2421875 -0.75,1.2421875 -0.269532,0 -0.304688,-0.2578125 -0.304688,-0.45703125 0,-0.24609375 0.02344,-0.31640625 0.05859,-0.48046875 z m -2.074219,5.625 c -0.04687,0.1757813 -0.04687,0.19921875 -0.199218,0.36328125 -0.445313,0.55078125 -0.84375,0.71484375 -1.125,0.71484375 -0.503907,0 -0.644532,-0.55078125 -0.644532,-0.9375 0,-0.5039062 0.328125,-1.7226562 0.550782,-2.1796875 0.304687,-0.5976562 0.761718,-0.9609375 1.160156,-0.9609375 0.644531,0 0.785156,0.8203125 0.785156,0.8789063 0,0.058594 -0.02344,0.1171875 -0.03516,0.1640625 z m 0,0"
         style="fill:#000000;fill-opacity:1;fill-rule:nonzero;stroke:none" />
      <path
         id="path15"
         d="m 60.347836,-1.0855078 c 0.02344,-0.09375 0.02344,-0.1289063 0.02344,-0.140625 0,-0.1523438 -0.128906,-0.2226563 -0.234375,-0.2226563 -0.164062,0 -0.292968,0.1289063 -0.328125,0.2695313 -0.117187,-0.1992188 -0.351562,-0.3984375 -0.714843,-0.3984375 -0.867188,0 -1.78125,0.92578124 -1.78125,1.92187499 0,0.72656251 0.480468,1.14843751 1.054687,1.14843751 0.328125,0 0.632813,-0.1640625 0.878906,-0.375 l -0.164062,0.6210937 c -0.07031,0.2929688 -0.117188,0.4804688 -0.386719,0.7265625 -0.304687,0.2578125 -0.609375,0.2578125 -0.785156,0.2578125 -0.316406,0 -0.410156,-0.023437 -0.527344,-0.046875 0.175781,-0.09375 0.222656,-0.2578125 0.222656,-0.3515625 0,-0.1640625 -0.140625,-0.2578125 -0.269531,-0.2578125 -0.199219,0 -0.398437,0.1523438 -0.398437,0.421875 0,0.421875 0.597656,0.421875 0.984375,0.421875 1.089843,0 1.558593,-0.5507812 1.664062,-0.9492187 z M 59.37518,0.56683594 c -0.02344,0.10546875 -0.02344,0.1171875 -0.140625,0.2578125 -0.246094,0.29296876 -0.574219,0.46874996 -0.84375,0.46874996 -0.351563,0 -0.527344,-0.2929687 -0.527344,-0.65624996 0,-0.3046875 0.1875,-1.08984375 0.375,-1.39453125 0.292969,-0.49218749 0.621094,-0.63281249 0.855469,-0.63281249 0.492187,0 0.621093,0.52734374 0.621093,0.59765624 0,0.0117188 0,0.0234375 -0.02344,0.10546875 z m 0,0"
         style="fill:#000000;fill-opacity:1;fill-rule:nonzero;stroke:none" />
      <path
         id="path16"
         d="m 65.946469,-3.7603125 c 0,-0.2929687 -0.234375,-0.5273437 -0.527344,-0.5273437 -0.28125,0 -0.527344,0.234375 -0.527344,0.5273437 0,0.28125 0.246094,0.5273438 0.527344,0.5273438 0.292969,0 0.527344,-0.2460938 0.527344,-0.5273438 z m 0,3.234375 c 0,-0.29296875 -0.234375,-0.5273437 -0.527344,-0.5273437 -0.28125,0 -0.527344,0.23437495 -0.527344,0.5273437 0,0.29296875 0.246094,0.52734375 0.527344,0.52734375 0.292969,0 0.527344,-0.234375 0.527344,-0.52734375 z m 0,0"
         style="fill:#000000;fill-opacity:1;fill-rule:nonzero;stroke:none" />
      <path
         id="path17"
         d="m 77.137875,-6.924375 c 0,-0.023437 -0.02344,-0.09375 -0.105469,-0.09375 -0.03516,0 -0.04687,0.011719 -0.152343,0.1171875 l -0.703125,0.7617188 c -0.08203,-0.140625 -0.539063,-0.8789063 -1.652344,-0.8789063 -2.214844,0 -4.453125,2.203125 -4.453125,4.5117188 0,1.5820312 1.101562,2.7304687 2.71875,2.7304687 0.433594,0 0.878906,-0.09375 1.242187,-0.24609375 0.492188,-0.19921875 0.679688,-0.41015625 0.867188,-0.609375 0.08203,0.2578125 0.351562,0.62109375 0.445312,0.62109375 0.04687,0 0.07031,-0.0234375 0.07031,-0.03515625 0.02344,-0.0234375 0.117187,-0.3984375 0.164062,-0.609375 L 75.7785,-1.4282812 c 0.03516,-0.1640625 0.08203,-0.328125 0.128906,-0.5039063 0.105469,-0.4453125 0.117188,-0.46875 0.679688,-0.4804687 0.05859,0 0.164062,-0.011719 0.164062,-0.1992188 0,-0.070312 -0.04687,-0.1054687 -0.128906,-0.1054687 -0.234375,0 -0.820312,0.023437 -1.042969,0.023437 -0.316406,0 -1.089843,-0.023437 -1.394531,-0.023437 -0.09375,0 -0.210937,0 -0.210937,0.1992187 0,0.1054688 0.08203,0.1054688 0.292968,0.1054688 0.01172,0 0.304688,0 0.527344,0.023437 0.257813,0.035156 0.316406,0.058594 0.316406,0.1875 0,0.09375 -0.117187,0.5390625 -0.210937,0.9023437 -0.28125,1.1015625 -1.582031,1.20703125 -1.921875,1.20703125 -0.960938,0 -2.003906,-0.5625 -2.003906,-2.08593745 0,-0.3164063 0.09375,-1.9570313 1.148437,-3.2460938 0.539063,-0.6796875 1.5,-1.2890625 2.484375,-1.2890625 1.019531,0 1.605469,0.7734375 1.605469,1.921875 0,0.3984375 -0.03516,0.4101563 -0.03516,0.5039063 0,0.1054687 0.117187,0.1054687 0.152343,0.1054687 0.128907,0 0.128907,-0.023437 0.175782,-0.1992187 z m 0,0"
         style="fill:#000000;fill-opacity:1;fill-rule:nonzero;stroke:none" />
      <path
         id="path18"
         d="m 88.478695,-2.2954687 c -0.550781,0.421875 -0.820312,0.8320312 -0.902343,0.9609375 -0.445313,0.6914062 -0.527344,1.31249995 -0.527344,1.3242187 0,0.1171875 0.128906,0.1171875 0.199219,0.1171875 0.175781,0 0.1875,-0.01171875 0.222656,-0.19921875 0.234375,-0.97265625 0.820312,-1.80468745 1.945312,-2.26171875 0.117188,-0.046875 0.152344,-0.070312 0.152344,-0.140625 0,-0.058594 -0.07031,-0.09375 -0.08203,-0.1054687 -0.445313,-0.1640625 -1.640625,-0.6679688 -2.027344,-2.34375 -0.02344,-0.1171875 -0.03516,-0.140625 -0.210937,-0.140625 -0.07031,0 -0.199219,0 -0.199219,0.1171875 0,0.023437 0.09375,0.6445312 0.515625,1.3125 0.199219,0.3046875 0.480469,0.6445312 0.914062,0.9609375 h -7.40625 c -0.175781,0 -0.351562,0 -0.351562,0.1992187 0,0.1992188 0.175781,0.1992188 0.351562,0.1992188 z m 0,0"
         style="fill:#000000;fill-opacity:1;fill-rule:nonzero;stroke:none" />
      <path
         id="path19"
         d="m 100.46991,-6.924375 c 0,-0.023437 -0.0234,-0.09375 -0.10547,-0.09375 -0.0352,0 -0.0469,0.011719 -0.15235,0.1171875 l -0.703121,0.7617188 c -0.08203,-0.140625 -0.539063,-0.8789063 -1.652344,-0.8789063 -2.214844,0 -4.453125,2.203125 -4.453125,4.5117188 0,1.5820312 1.101563,2.7304687 2.71875,2.7304687 0.433594,0 0.878906,-0.09375 1.242188,-0.24609375 0.492187,-0.19921875 0.679687,-0.41015625 0.867187,-0.609375 0.08203,0.2578125 0.351563,0.62109375 0.445313,0.62109375 0.04687,0 0.07031,-0.0234375 0.07031,-0.03515625 0.02344,-0.0234375 0.117188,-0.3984375 0.164063,-0.609375 l 0.199218,-0.77343745 c 0.03516,-0.1640625 0.08203,-0.328125 0.128907,-0.5039063 0.105468,-0.4453125 0.117187,-0.46875 0.679687,-0.4804687 0.05859,0 0.164067,-0.011719 0.164067,-0.1992188 0,-0.070312 -0.0469,-0.1054687 -0.128911,-0.1054687 -0.234375,0 -0.820312,0.023437 -1.042968,0.023437 -0.316407,0 -1.089844,-0.023437 -1.394532,-0.023437 -0.09375,0 -0.210937,0 -0.210937,0.1992187 0,0.1054688 0.08203,0.1054688 0.292969,0.1054688 0.01172,0 0.304687,0 0.527343,0.023437 0.257813,0.035156 0.316407,0.058594 0.316407,0.1875 0,0.09375 -0.117188,0.5390625 -0.210938,0.9023437 -0.28125,1.1015625 -1.582031,1.20703125 -1.921875,1.20703125 -0.960937,0 -2.003906,-0.5625 -2.003906,-2.08593745 0,-0.3164063 0.09375,-1.9570313 1.148437,-3.2460938 0.539063,-0.6796875 1.5,-1.2890625 2.484375,-1.2890625 1.019532,0 1.605469,0.7734375 1.605469,1.921875 0,0.3984375 -0.03516,0.4101563 -0.03516,0.5039063 0,0.1054687 0.117187,0.1054687 0.152344,0.1054687 0.128906,0 0.128906,-0.023437 0.175781,-0.1992187 z m 0,0"
         style="fill:#000000;fill-opacity:1;fill-rule:nonzero;stroke:none" />
    </g>
    <g
       id="g19"
       aria-label="Ad:G→InnG,OutG"
       transform="matrix(1.3333333,0,0,1.3333333,9.9186667,101.45067)">
      <path
         id="path20"
         d="m 1.7807266,-1.1495234 c -0.3984375,0.66796871 -0.78515629,0.80859371 -1.21875004,0.84374996 -0.12890625,0 -0.2109375,0 -0.2109375,0.19921875 0,0.05859375 0.046875,0.10546875 0.12890625,0.10546875 0.26953125,0 0.57421879,-0.03515625 0.85546879,-0.03515625 0.328125,0 0.6796875,0.03515625 0.9960937,0.03515625 0.058594,0 0.1875,0 0.1875,-0.1875 0,-0.1171875 -0.09375,-0.1171875 -0.1640625,-0.1171875 -0.2226562,-0.0234375 -0.4570312,-0.10546875 -0.4570312,-0.3515625 0,-0.1171875 0.058594,-0.234375 0.1289062,-0.37499996 l 0.7617188,-1.265625 h 2.4960937 c 0.023437,0.1992187 0.1640625,1.55859371 0.1640625,1.66406246 0,0.29296875 -0.515625,0.328125 -0.7148437,0.328125 -0.140625,0 -0.2460938,0 -0.2460938,0.19921875 0,0.10546875 0.1289063,0.10546875 0.140625,0.10546875 0.4101563,0 0.84375,-0.03515625 1.2539063,-0.03515625 0.2460937,0 0.8671875,0.03515625 1.125,0.03515625 0.058594,0 0.1757812,0 0.1757812,-0.19921875 0,-0.10546875 -0.1054687,-0.10546875 -0.234375,-0.10546875 -0.609375,0 -0.609375,-0.0703125 -0.6445312,-0.36328125 L 5.6947891,-6.8917109 c -0.011719,-0.1992188 -0.011719,-0.2460938 -0.1875,-0.2460938 -0.1640625,0 -0.1992188,0.070312 -0.2578125,0.1757813 z m 1.1953125,-1.4648438 1.96875,-3.28125 0.3164062,3.28125 z m 9.6416019,-4.1953125 c 0,0 0,-0.1054687 -0.128907,-0.1054687 -0.152343,0 -1.101562,0.09375 -1.265625,0.1054687 -0.08203,0.011719 -0.140625,0.070312 -0.140625,0.1992188 0,0.1171875 0.08203,0.1171875 0.234375,0.1171875 0.480469,0 0.503907,0.070312 0.503907,0.1640625 l -0.03516,0.1992187 -0.597656,2.3671875 c -0.175781,-0.375 -0.46875,-0.6445312 -0.914062,-0.6445312 -1.1718754,0 -2.4023441,1.4648437 -2.4023441,2.9179687 0,0.93750001 0.5507812,1.59375001 1.3242187,1.59375001 0.1992188,0 0.703125,-0.03515625 1.3007814,-0.73828125 0.07031,0.41015625 0.421875,0.73828125 0.902344,0.73828125 0.351562,0 0.574218,-0.22265625 0.738281,-0.5390625 0.164062,-0.36328125 0.292969,-0.97265621 0.292969,-0.99609371 0,-0.09375 -0.08203,-0.09375 -0.117188,-0.09375 -0.09375,0 -0.105469,0.035156 -0.140625,0.1757812 -0.164062,0.64453126 -0.351562,1.24218751 -0.75,1.24218751 -0.269531,0 -0.304687,-0.2578125 -0.304687,-0.45703125 0,-0.24609375 0.02344,-0.31640625 0.05859,-0.48046876 z m -2.074219,5.625 c -0.04687,0.1757813 -0.04687,0.19921876 -0.199219,0.36328126 -0.4453124,0.55078125 -0.8437499,0.71484375 -1.1249999,0.71484375 -0.5039062,0 -0.6445312,-0.55078125 -0.6445312,-0.93750001 0,-0.5039062 0.328125,-1.7226562 0.5507812,-2.1796875 0.3046875,-0.5976562 0.7617188,-0.9609375 1.1601559,-0.9609375 0.644532,0 0.785157,0.8203125 0.785157,0.8789063 0,0.058594 -0.02344,0.1171875 -0.03516,0.1640625 z m 0,0"
         style="fill:#000000;fill-opacity:1;fill-rule:nonzero;stroke:none" />
      <path
         id="path21"
         d="m 17.334437,-3.7628047 c 0,-0.2929687 -0.234375,-0.5273437 -0.527343,-0.5273437 -0.28125,0 -0.527344,0.234375 -0.527344,0.5273437 0,0.28125 0.246094,0.5273438 0.527344,0.5273438 0.292968,0 0.527343,-0.2460938 0.527343,-0.5273438 z m 0,3.23437501 c 0,-0.29296875 -0.234375,-0.52734371 -0.527343,-0.52734371 -0.28125,0 -0.527344,0.23437496 -0.527344,0.52734371 0,0.29296875 0.246094,0.52734375 0.527344,0.52734375 0.292968,0 0.527343,-0.234375 0.527343,-0.52734375 z m 0,0"
         style="fill:#000000;fill-opacity:1;fill-rule:nonzero;stroke:none" />
      <path
         id="path22"
         d="m 28.531703,-6.9268672 c 0,-0.023437 -0.02344,-0.09375 -0.105469,-0.09375 -0.03516,0 -0.04687,0.011719 -0.152343,0.1171875 l -0.703125,0.7617188 c -0.08203,-0.140625 -0.539063,-0.8789063 -1.652344,-0.8789063 -2.214844,0 -4.453125,2.203125 -4.453125,4.5117188 0,1.58203121 1.101562,2.73046871 2.71875,2.73046871 0.433594,0 0.878906,-0.09375 1.242187,-0.24609375 0.492188,-0.19921875 0.679688,-0.41015625 0.867188,-0.609375 0.08203,0.2578125 0.351562,0.62109375 0.445312,0.62109375 0.04687,0 0.07031,-0.0234375 0.07031,-0.03515625 0.02344,-0.0234375 0.117187,-0.3984375 0.164062,-0.609375 l 0.199219,-0.77343746 c 0.03516,-0.1640625 0.08203,-0.328125 0.128906,-0.5039063 0.105469,-0.4453125 0.117188,-0.46875 0.679688,-0.4804687 0.05859,0 0.164062,-0.011719 0.164062,-0.1992188 0,-0.070312 -0.04687,-0.1054687 -0.128906,-0.1054687 -0.234375,0 -0.820312,0.023437 -1.042969,0.023437 -0.316406,0 -1.089843,-0.023437 -1.394531,-0.023437 -0.09375,0 -0.210937,0 -0.210937,0.1992187 0,0.1054688 0.08203,0.1054688 0.292968,0.1054688 0.01172,0 0.304688,0 0.527344,0.023437 0.257813,0.035156 0.316406,0.058594 0.316406,0.1875 0,0.09375 -0.117187,0.5390625 -0.210937,0.9023437 -0.28125,1.10156251 -1.582031,1.20703126 -1.921875,1.20703126 -0.960938,0 -2.003906,-0.5625 -2.003906,-2.08593746 0,-0.3164063 0.09375,-1.9570313 1.148437,-3.2460938 0.539063,-0.6796875 1.5,-1.2890625 2.484375,-1.2890625 1.019531,0 1.605469,0.7734375 1.605469,1.921875 0,0.3984375 -0.03516,0.4101563 -0.03516,0.5039063 0,0.1054687 0.117187,0.1054687 0.152343,0.1054687 0.128907,0 0.128907,-0.023437 0.175782,-0.1992187 z m 0,0"
         style="fill:#000000;fill-opacity:1;fill-rule:nonzero;stroke:none" />
      <path
         id="path23"
         d="m 39.869594,-2.2979609 c -0.550782,0.421875 -0.820313,0.8320312 -0.902344,0.9609375 -0.445313,0.69140621 -0.527344,1.31249996 -0.527344,1.32421871 0,0.1171875 0.128906,0.1171875 0.199219,0.1171875 0.175781,0 0.1875,-0.01171875 0.222656,-0.19921875 0.234375,-0.97265626 0.820313,-1.80468746 1.945313,-2.26171876 0.117187,-0.046875 0.152343,-0.070312 0.152343,-0.140625 0,-0.058594 -0.07031,-0.09375 -0.08203,-0.1054687 -0.445312,-0.1640625 -1.640625,-0.6679688 -2.027344,-2.34375 -0.02344,-0.1171875 -0.03516,-0.140625 -0.210937,-0.140625 -0.07031,0 -0.199219,0 -0.199219,0.1171875 0,0.023437 0.09375,0.6445312 0.515625,1.3125 0.199219,0.3046875 0.480469,0.6445312 0.914063,0.9609375 h -7.40625 c -0.175782,0 -0.351563,0 -0.351563,0.1992187 0,0.1992188 0.175781,0.1992188 0.351563,0.1992188 z m 0,0"
         style="fill:#000000;fill-opacity:1;fill-rule:nonzero;stroke:none" />
      <path
         id="path24"
         d="m 46.528773,-6.0245234 c 0,-0.3632813 0.03516,-0.46875 0.820313,-0.46875 h 0.257812 v -0.3164063 c -0.351562,0.035156 -1.136718,0.035156 -1.511718,0.035156 -0.386719,0 -1.171875,0 -1.523438,-0.035156 v 0.3164063 h 0.257813 c 0.785156,0 0.820312,0.1054687 0.820312,0.46875 v 5.24999996 c 0,0.3515625 -0.03516,0.46875 -0.820312,0.46875 h -0.257813 v 0.3046875 c 0.351563,-0.03515625 1.136719,-0.03515625 1.511719,-0.03515625 0.386719,0 1.171875,0 1.523437,0.03515625 v -0.3046875 h -0.257812 c -0.785156,0 -0.820313,-0.1171875 -0.820313,-0.46875 z m 2.458008,2.6015625 v 2.66015621 c 0,0.45703125 -0.117187,0.45703125 -0.785156,0.45703125 v 0.3046875 c 0.351562,-0.01171875 0.855469,-0.03515625 1.125,-0.03515625 0.257812,0 0.785156,0.0234375 1.113281,0.03515625 v -0.3046875 c -0.65625,0 -0.773437,0 -0.773437,-0.45703125 V -2.5909297 c 0,-1.03125 0.714843,-1.59375 1.347656,-1.59375 0.621094,0 0.738281,0.5390625 0.738281,1.1015625 v 2.32031251 c 0,0.45703125 -0.117187,0.45703125 -0.773437,0.45703125 v 0.3046875 c 0.339843,-0.01171875 0.855468,-0.03515625 1.125,-0.03515625 0.257812,0 0.773437,0.0234375 1.113281,0.03515625 v -0.3046875 c -0.515625,0 -0.773438,0 -0.785156,-0.3046875 V -2.5088984 c 0,-0.8554688 0,-1.171875 -0.304688,-1.5234375 -0.140625,-0.1757813 -0.46875,-0.375 -1.042969,-0.375 -0.726562,0 -1.195312,0.4335937 -1.476562,1.0546875 v -1.0546875 l -1.40625,0.1171875 v 0.3046875 c 0.703125,0 0.785156,0.070312 0.785156,0.5625 z m 5.53125,0 v 2.66015621 c 0,0.45703125 -0.117187,0.45703125 -0.785156,0.45703125 v 0.3046875 c 0.351562,-0.01171875 0.855469,-0.03515625 1.125,-0.03515625 0.257812,0 0.785156,0.0234375 1.113281,0.03515625 v -0.3046875 c -0.65625,0 -0.773437,0 -0.773437,-0.45703125 V -2.5909297 c 0,-1.03125 0.714843,-1.59375 1.347656,-1.59375 0.621094,0 0.738281,0.5390625 0.738281,1.1015625 v 2.32031251 c 0,0.45703125 -0.117187,0.45703125 -0.773437,0.45703125 v 0.3046875 c 0.339843,-0.01171875 0.855468,-0.03515625 1.125,-0.03515625 0.257812,0 0.773437,0.0234375 1.113281,0.03515625 v -0.3046875 c -0.515625,0 -0.773438,0 -0.785156,-0.3046875 V -2.5088984 c 0,-0.8554688 0,-1.171875 -0.304688,-1.5234375 -0.140625,-0.1757813 -0.46875,-0.375 -1.042969,-0.375 -0.726562,0 -1.195312,0.4335937 -1.476562,1.0546875 v -1.0546875 l -1.40625,0.1171875 v 0.3046875 c 0.703125,0 0.785156,0.070312 0.785156,0.5625 z m 10.333008,2.78906246 c 0.128906,0.22265625 0.527344,0.62109375 0.632813,0.62109375 0.09375,0 0.09375,-0.08203125 0.09375,-0.22265625 V -1.9698359 c 0,-0.3867188 0.04687,-0.4453125 0.691406,-0.4453125 v -0.3046875 c -0.375,0.011719 -0.914063,0.023437 -1.21875,0.023437 -0.398438,0 -1.242188,0 -1.605469,-0.023437 v 0.3046875 h 0.316406 c 0.902344,0 0.925782,0.1171875 0.925782,0.4804687 v 0.6328125 c 0,1.12500001 -1.253907,1.20703126 -1.535157,1.20703126 -0.65625,0 -2.625,-0.33984375 -2.625,-3.31640626 0,-2.9765625 1.96875,-3.3046875 2.566407,-3.3046875 1.066406,0 1.96875,0.9023438 2.167968,2.3671875 0.02344,0.1289063 0.02344,0.1640625 0.164063,0.1640625 0.152344,0 0.152344,-0.035156 0.152344,-0.234375 v -2.3671875 c 0,-0.1640625 0,-0.234375 -0.105469,-0.234375 -0.04687,0 -0.08203,0 -0.164063,0.1171875 l -0.492187,0.7382813 c -0.328125,-0.3164063 -0.855469,-0.8554688 -1.851563,-0.8554688 -1.851562,0 -3.457031,1.5703125 -3.457031,3.609375 0,2.0507813 1.59375,3.63281251 3.480469,3.63281251 0.726562,0 1.523437,-0.2578125 1.863281,-0.85546875 z m 0,0"
         style="fill:#000000;fill-opacity:1;fill-rule:nonzero;stroke:none" />
      <path
         id="path25"
         d="m 68.803188,-0.01280469 c 0,-0.65625 -0.257813,-1.04296871 -0.644532,-1.04296871 -0.328125,0 -0.527343,0.24609371 -0.527343,0.52734371 0,0.26953125 0.199218,0.52734375 0.527343,0.52734375 0.117188,0 0.246094,-0.03515625 0.351563,-0.12890625 0.02344,-0.0234375 0.03516,-0.0351563 0.04687,-0.0351563 0.01172,0 0.02344,0.0117188 0.02344,0.15234375 0,0.73828125 -0.351562,1.33593744 -0.679687,1.66406244 -0.105469,0.1054688 -0.105469,0.1289063 -0.105469,0.1640625 0,0.070312 0.04687,0.1054689 0.09375,0.1054689 0.117188,0 0.914063,-0.7617189 0.914063,-1.93359384 z m 0,0"
         style="fill:#000000;fill-opacity:1;fill-rule:nonzero;stroke:none" />
      <path
         id="path26"
         d="m 81.705531,-3.3760859 c 0,-2.0390625 -1.5,-3.6445313 -3.316406,-3.6445313 -1.78125,0 -3.304687,1.59375 -3.304687,3.6445313 0,2.0390625 1.535156,3.59765621 3.304687,3.59765621 1.816406,0 3.316406,-1.58203121 3.316406,-3.59765621 z m -3.304687,3.33984371 c -0.960938,0 -2.296875,-0.87890625 -2.296875,-3.48046871 0,-2.578125 1.453125,-3.2578125 2.285156,-3.2578125 0.867188,0 2.285156,0.703125 2.285156,3.2578125 0,2.63671871 -1.359375,3.48046871 -2.273437,3.48046871 z m 7.751953,-0.75 v 0.890625 l 1.441406,-0.10546875 v -0.3046875 c -0.703125,0 -0.785156,-0.0703125 -0.785156,-0.5625 V -4.4073359 l -1.453125,0.1171875 v 0.3046875 c 0.691406,0 0.773437,0.070312 0.773437,0.5625 v 1.7695312 c 0,0.86718751 -0.480468,1.54687501 -1.207031,1.54687501 -0.832031,0 -0.878906,-0.46875 -0.878906,-0.99609371 v -3.3046875 l -1.464844,0.1171875 v 0.3046875 c 0.785156,0 0.785156,0.035156 0.785156,0.9140625 v 1.5 c 0,0.77343746 0,1.67578121 1.511719,1.67578121 0.550781,0 0.996094,-0.26953125 1.277344,-0.890625 z m 3.360351,-3.19921871 h 1.429688 v -0.3046875 h -1.429688 v -1.8398438 h -0.246093 c -0.01172,0.8203125 -0.316407,1.8867188 -1.289063,1.921875 v 0.2226563 h 0.84375 v 2.7539062 c 0,1.21875001 0.925781,1.33593751 1.289063,1.33593751 0.703125,0 0.984375,-0.703125 0.984375,-1.33593751 v -0.5742187 h -0.246094 v 0.5507812 c 0,0.73828126 -0.304688,1.11328126 -0.667969,1.11328126 -0.667969,0 -0.667969,-0.90234376 -0.667969,-1.07812496 z m 0,0"
         style="fill:#000000;fill-opacity:1;fill-rule:nonzero;stroke:none" />
      <path
         id="path27"
         d="m 100.90963,-6.9268672 c 0,-0.023437 -0.0234,-0.09375 -0.10547,-0.09375 -0.0352,0 -0.0469,0.011719 -0.15234,0.1171875 l -0.703125,0.7617188 c -0.08203,-0.140625 -0.539062,-0.8789063 -1.652343,-0.8789063 -2.214844,0 -4.453125,2.203125 -4.453125,4.5117188 0,1.58203121 1.101562,2.73046871 2.71875,2.73046871 0.433593,0 0.878906,-0.09375 1.242187,-0.24609375 0.492188,-0.19921875 0.679688,-0.41015625 0.867188,-0.609375 0.08203,0.2578125 0.351562,0.62109375 0.445312,0.62109375 0.04687,0 0.07031,-0.0234375 0.07031,-0.03515625 0.02344,-0.0234375 0.117187,-0.3984375 0.164062,-0.609375 l 0.199219,-0.77343746 c 0.03516,-0.1640625 0.08203,-0.328125 0.128906,-0.5039063 0.105469,-0.4453125 0.117188,-0.46875 0.679689,-0.4804687 0.0586,0 0.16406,-0.011719 0.16406,-0.1992188 0,-0.070312 -0.0469,-0.1054687 -0.1289,-0.1054687 -0.23438,0 -0.820318,0.023437 -1.042974,0.023437 -0.316406,0 -1.089844,-0.023437 -1.394531,-0.023437 -0.09375,0 -0.210938,0 -0.210938,0.1992187 0,0.1054688 0.08203,0.1054688 0.292969,0.1054688 0.01172,0 0.304688,0 0.527344,0.023437 0.257812,0.035156 0.316406,0.058594 0.316406,0.1875 0,0.09375 -0.117187,0.5390625 -0.210937,0.9023437 -0.28125,1.10156251 -1.582032,1.20703126 -1.921875,1.20703126 -0.960938,0 -2.003907,-0.5625 -2.003907,-2.08593746 0,-0.3164063 0.09375,-1.9570313 1.148438,-3.2460938 0.539062,-0.6796875 1.5,-1.2890625 2.484375,-1.2890625 1.019531,0 1.605469,0.7734375 1.605469,1.921875 0,0.3984375 -0.03516,0.4101563 -0.03516,0.5039063 0,0.1054687 0.117181,0.1054687 0.152341,0.1054687 0.12891,0 0.12891,-0.023437 0.17578,-0.1992187 z m 0,0"
         style="fill:#000000;fill-opacity:1;fill-rule:nonzero;stroke:none" />
    </g>
    <g
       id="g27"
       aria-label="AutG,InnG"
       transform="matrix(1.3333333,0,0,1.3333333,38.513333,73.481333)">
      <path
         id="path28"
         d="m 3.9597266,-6.9381484 c -0.046875,-0.1289063 -0.070312,-0.1992188 -0.2226563,-0.1992188 -0.1640625,0 -0.1875,0.058594 -0.2460937,0.1992188 l -2.0625,5.96484371 c -0.1757813,0.50390625 -0.57421879,0.65625 -1.11328129,0.66796875 v 0.3046875025 c 0.234375,-0.0117187525 0.65625,-0.0351562525 1.01953129,-0.0351562525 0.3046875,0 0.8203125,0.0234375 1.1484375,0.0351562525 V -0.30533594 c -0.5039063,0 -0.75,-0.2578125 -0.75,-0.515625 0,-0.0234375 0.011719,-0.12890625 0.023437,-0.140625 L 2.2136328,-2.2740859 h 2.4609375 l 0.5273438,1.52343746 c 0.011719,0.046875 0.023437,0.10546875 0.023437,0.140625 0,0.3046875 -0.5507813,0.3046875 -0.8203125,0.3046875 V -6.484375e-4 C 4.7566016,-0.03580469 5.4597266,-0.03580469 5.8347266,-0.03580469 c 0.4335937,0 0.890625,0.01171875 1.3007812,0.0351562525 V -0.30533594 H 6.9597266 c -0.5976563,0 -0.7382813,-0.0703125 -0.84375,-0.3984375 z m -0.5273438,1.125 1.125,3.234375 H 2.3191016 Z m 7.9306642,5.02734371 v 0.890625 L 12.804453,-6.484375e-4 V -0.30533594 c -0.703125,0 -0.785156,-0.0703125 -0.785156,-0.5625 V -4.4068984 l -1.453125,0.1171875 v 0.3046875 c 0.691406,0 0.773437,0.070312 0.773437,0.5625 v 1.7695312 c 0,0.86718751 -0.480468,1.54687501 -1.207031,1.54687501 -0.8320311,0 -0.8789061,-0.46875 -0.8789061,-0.99609371 v -3.3046875 l -1.4648438,0.1171875 v 0.3046875 c 0.7851563,0 0.7851563,0.035156 0.7851563,0.9140625 v 1.5 c 0,0.77343746 0,1.67578121 1.5117186,1.67578121 0.550781,0 0.996094,-0.26953125 1.277344,-0.890625 z m 3.360351,-3.19921871 h 1.429688 v -0.3046875 h -1.429688 v -1.8398438 h -0.246093 c -0.01172,0.8203125 -0.316407,1.8867188 -1.289063,1.921875 v 0.2226563 h 0.84375 v 2.7539062 c 0,1.21875001 0.925781,1.33593751 1.289063,1.33593751 0.703125,0 0.984375,-0.703125 0.984375,-1.33593751 v -0.5742187 h -0.246094 v 0.5507812 c 0,0.73828126 -0.304688,1.11328126 -0.667969,1.11328126 -0.667969,0 -0.667969,-0.90234376 -0.667969,-1.07812496 z m 0,0"
         style="fill:#000000;fill-opacity:1;fill-rule:nonzero;stroke:none" />
      <path
         id="path29"
         d="m 26.111094,-6.9264297 c 0,-0.023437 -0.02344,-0.09375 -0.105469,-0.09375 -0.03516,0 -0.04687,0.011719 -0.152344,0.1171875 l -0.703125,0.7617188 c -0.08203,-0.140625 -0.539062,-0.8789063 -1.652343,-0.8789063 -2.214844,0 -4.453125,2.203125 -4.453125,4.5117188 0,1.58203121 1.101562,2.73046871 2.71875,2.73046871 0.433593,0 0.878906,-0.09375 1.242187,-0.24609375 0.492188,-0.19921875 0.679688,-0.41015625 0.867188,-0.609375 0.08203,0.2578125 0.351562,0.62109375 0.445312,0.62109375 0.04687,0 0.07031,-0.0234375 0.07031,-0.03515625 0.02344,-0.0234375 0.117187,-0.3984375 0.164062,-0.609375 l 0.199219,-0.77343746 c 0.03516,-0.1640625 0.08203,-0.328125 0.128906,-0.5039063 0.105469,-0.4453125 0.117188,-0.46875 0.679688,-0.4804687 0.05859,0 0.164062,-0.011719 0.164062,-0.1992188 0,-0.070312 -0.04687,-0.1054687 -0.128906,-0.1054687 -0.234375,0 -0.820313,0.023437 -1.042969,0.023437 -0.316406,0 -1.089844,-0.023437 -1.394531,-0.023437 -0.09375,0 -0.210938,0 -0.210938,0.1992187 0,0.1054688 0.08203,0.1054688 0.292969,0.1054688 0.01172,0 0.304688,0 0.527344,0.023437 0.257812,0.035156 0.316406,0.058594 0.316406,0.1875 0,0.09375 -0.117187,0.5390625 -0.210937,0.9023437 -0.28125,1.10156251 -1.582032,1.20703126 -1.921875,1.20703126 -0.960938,0 -2.003907,-0.5625 -2.003907,-2.08593746 0,-0.3164063 0.09375,-1.9570313 1.148438,-3.2460938 0.539062,-0.6796875 1.5,-1.2890625 2.484375,-1.2890625 1.019531,0 1.605469,0.7734375 1.605469,1.921875 0,0.3984375 -0.03516,0.4101563 -0.03516,0.5039063 0,0.1054687 0.117188,0.1054687 0.152344,0.1054687 0.128906,0 0.128906,-0.023437 0.175781,-0.1992187 z m 2.288086,6.91406251 c 0,-0.65625 -0.257813,-1.04296871 -0.644532,-1.04296871 -0.328125,0 -0.527343,0.24609371 -0.527343,0.52734371 0,0.26953125 0.199218,0.5273437525 0.527343,0.5273437525 0.117188,0 0.246094,-0.0351562525 0.351563,-0.1289062525 0.02344,-0.0234375 0.03516,-0.0351563 0.04687,-0.0351563 0.01172,0 0.02344,0.0117188 0.02344,0.15234375 0,0.73828125 -0.351562,1.33593744 -0.679687,1.66406244 -0.105469,0.1054688 -0.105469,0.1289063 -0.105469,0.1640625 0,0.070312 0.04687,0.1054688 0.09375,0.1054688 0.117188,0 0.914063,-0.7617188 0.914063,-1.93359374 z m 0,0"
         style="fill:#000000;fill-opacity:1;fill-rule:nonzero;stroke:none" />
      <path
         id="path30"
         d="m 36.359141,-6.0240859 c 0,-0.3632813 0.03516,-0.46875 0.820312,-0.46875 h 0.257813 v -0.3164063 c -0.351563,0.035156 -1.136719,0.035156 -1.511719,0.035156 -0.386719,0 -1.171875,0 -1.523438,-0.035156 v 0.3164063 h 0.257813 c 0.785156,0 0.820312,0.1054687 0.820312,0.46875 v 5.24999996 c 0,0.3515625 -0.03516,0.46875 -0.820312,0.46875 H 34.402109 V -6.484375e-4 C 34.753672,-0.03580469 35.538828,-0.03580469 35.913828,-0.03580469 c 0.386719,0 1.171875,0 1.523438,0.0351562525 V -0.30533594 h -0.257813 c -0.785156,0 -0.820312,-0.1171875 -0.820312,-0.46875 z m 2.458007,2.6015625 v 2.66015621 c 0,0.45703125 -0.117187,0.45703125 -0.785156,0.45703125 v 0.3046875025 c 0.351563,-0.0117187525 0.855469,-0.0351562525 1.125,-0.0351562525 0.257813,0 0.785156,0.0234375 1.113281,0.0351562525 V -0.30533594 c -0.65625,0 -0.773437,0 -0.773437,-0.45703125 V -2.5904922 c 0,-1.03125 0.714844,-1.59375 1.347656,-1.59375 0.621094,0 0.738281,0.5390625 0.738281,1.1015625 v 2.32031251 c 0,0.45703125 -0.117187,0.45703125 -0.773437,0.45703125 v 0.3046875025 c 0.339844,-0.0117187525 0.855469,-0.0351562525 1.125,-0.0351562525 0.257812,0 0.773437,0.0234375 1.113281,0.0351562525 V -0.30533594 c -0.515625,0 -0.773437,0 -0.785156,-0.3046875 V -2.5084609 c 0,-0.8554688 0,-1.171875 -0.304688,-1.5234375 -0.140625,-0.1757813 -0.46875,-0.375 -1.042968,-0.375 -0.726563,0 -1.195313,0.4335937 -1.476563,1.0546875 v -1.0546875 l -1.40625,0.1171875 v 0.3046875 c 0.703125,0 0.785156,0.070312 0.785156,0.5625 z m 5.53125,0 v 2.66015621 c 0,0.45703125 -0.117187,0.45703125 -0.785156,0.45703125 v 0.3046875025 c 0.351563,-0.0117187525 0.855469,-0.0351562525 1.125,-0.0351562525 0.257813,0 0.785156,0.0234375 1.113281,0.0351562525 V -0.30533594 c -0.65625,0 -0.773437,0 -0.773437,-0.45703125 V -2.5904922 c 0,-1.03125 0.714844,-1.59375 1.347656,-1.59375 0.621094,0 0.738281,0.5390625 0.738281,1.1015625 v 2.32031251 c 0,0.45703125 -0.117187,0.45703125 -0.773437,0.45703125 v 0.3046875025 c 0.339844,-0.0117187525 0.855469,-0.0351562525 1.125,-0.0351562525 0.257812,0 0.773437,0.0234375 1.113281,0.0351562525 V -0.30533594 c -0.515625,0 -0.773437,0 -0.785156,-0.3046875 V -2.5084609 c 0,-0.8554688 0,-1.171875 -0.304688,-1.5234375 -0.140625,-0.1757813 -0.46875,-0.375 -1.042968,-0.375 -0.726563,0 -1.195313,0.4335937 -1.476563,1.0546875 v -1.0546875 l -1.40625,0.1171875 v 0.3046875 c 0.703125,0 0.785156,0.070312 0.785156,0.5625 z m 0,0"
         style="fill:#000000;fill-opacity:1;fill-rule:nonzero;stroke:none" />
      <path
         id="path31"
         d="m 58.01832,-6.9264297 c 0,-0.023437 -0.02344,-0.09375 -0.105468,-0.09375 -0.03516,0 -0.04687,0.011719 -0.152344,0.1171875 l -0.703125,0.7617188 c -0.08203,-0.140625 -0.539063,-0.8789063 -1.652344,-0.8789063 -2.214844,0 -4.453125,2.203125 -4.453125,4.5117188 0,1.58203121 1.101563,2.73046871 2.71875,2.73046871 0.433594,0 0.878906,-0.09375 1.242188,-0.24609375 0.492187,-0.19921875 0.679687,-0.41015625 0.867187,-0.609375 0.08203,0.2578125 0.351563,0.62109375 0.445313,0.62109375 0.04687,0 0.07031,-0.0234375 0.07031,-0.03515625 0.02344,-0.0234375 0.117188,-0.3984375 0.164063,-0.609375 l 0.199218,-0.77343746 c 0.03516,-0.1640625 0.08203,-0.328125 0.128907,-0.5039063 0.105468,-0.4453125 0.117187,-0.46875 0.679687,-0.4804687 0.05859,0 0.164063,-0.011719 0.164063,-0.1992188 0,-0.070312 -0.04687,-0.1054687 -0.128907,-0.1054687 -0.234375,0 -0.820312,0.023437 -1.042968,0.023437 -0.316407,0 -1.089844,-0.023437 -1.394532,-0.023437 -0.09375,0 -0.210937,0 -0.210937,0.1992187 0,0.1054688 0.08203,0.1054688 0.292969,0.1054688 0.01172,0 0.304687,0 0.527343,0.023437 0.257813,0.035156 0.316407,0.058594 0.316407,0.1875 0,0.09375 -0.117188,0.5390625 -0.210938,0.9023437 -0.28125,1.10156251 -1.582031,1.20703126 -1.921875,1.20703126 -0.960937,0 -2.003906,-0.5625 -2.003906,-2.08593746 0,-0.3164063 0.09375,-1.9570313 1.148437,-3.2460938 0.539063,-0.6796875 1.5,-1.2890625 2.484375,-1.2890625 1.019532,0 1.605469,0.7734375 1.605469,1.921875 0,0.3984375 -0.03516,0.4101563 -0.03516,0.5039063 0,0.1054687 0.117187,0.1054687 0.152344,0.1054687 0.128906,0 0.128906,-0.023437 0.175781,-0.1992187 z m 0,0"
         style="fill:#000000;fill-opacity:1;fill-rule:nonzero;stroke:none" />
    </g>
  </g>
</svg>
