<?xml version="1.0" encoding="UTF-8" standalone="no"?>
<!-- Created with Inkscape (http://www.inkscape.org/) -->

<svg
   version="1.1"
   id="svg1"
   width="438.84"
   height="176.29333"
   viewBox="0 0 438.84 176.29333"
   sodipodi:docname="normal-2.pdf"
   xmlns:inkscape="http://www.inkscape.org/namespaces/inkscape"
   xmlns:sodipodi="http://sodipodi.sourceforge.net/DTD/sodipodi-0.dtd"
   xmlns="http://www.w3.org/2000/svg"
   xmlns:svg="http://www.w3.org/2000/svg">
  <defs
     id="defs1" />
  <sodipodi:namedview
     id="namedview1"
     pagecolor="#ffffff"
     bordercolor="#000000"
     borderopacity="0.25"
     inkscape:showpageshadow="2"
     inkscape:pageopacity="0.0"
     inkscape:pagecheckerboard="0"
     inkscape:deskcolor="#d1d1d1">
    <inkscape:page
       x="0"
       y="0"
       inkscape:label="1"
       id="page1"
       width="438.84"
       height="176.29333"
       margin="0"
       bleed="0" />
  </sodipodi:namedview>
  <g
     id="g1"
     inkscape:groupmode="layer"
     inkscape:label="1">
    <path
       id="path1"
       d="M 27.67262,-41.6939 H 92.53355 V -172.42444 H 27.67262 Z"
       style="fill:none;stroke:#000000;stroke-width:1.49442;stroke-linecap:butt;stroke-linejoin:miter;stroke-miterlimit:10;stroke-dasharray:none;stroke-opacity:1"
       transform="matrix(1.3333333,0,0,-1.3333333,-31.477333,-54.598667)" />
    <path
       id="path2"
       d="M 92.53355,-41.6939 H 157.4012 V -172.42444 H 92.53355 Z"
       style="fill:none;stroke:#000000;stroke-width:1.49442;stroke-linecap:butt;stroke-linejoin:miter;stroke-miterlimit:10;stroke-dasharray:none;stroke-opacity:1"
       transform="matrix(1.3333333,0,0,-1.3333333,-31.477333,-54.598667)" />
    <path
       id="path3"
       d="m 157.4012,-41.6939 h 64.86092 V -172.42444 H 157.4012 Z"
       style="fill:none;stroke:#000000;stroke-width:1.49442;stroke-linecap:butt;stroke-linejoin:miter;stroke-miterlimit:10;stroke-dasharray:none;stroke-opacity:1"
       transform="matrix(1.3333333,0,0,-1.3333333,-31.477333,-54.598667)" />
    <path
       id="path4"
       d="m 222.26212,-41.6939 h 64.86093 v -130.73054 h -64.86093 z"
       style="fill:none;stroke:#000000;stroke-width:1.49442;stroke-linecap:butt;stroke-linejoin:miter;stroke-miterlimit:10;stroke-dasharray:none;stroke-opacity:1"
       transform="matrix(1.3333333,0,0,-1.3333333,-31.477333,-54.598667)" />
    <path
       id="path5"
       d="M 67.4096,-42.36636 27.73314,-82.04283"
       style="fill:none;stroke:#000000;stroke-width:1.49442;stroke-linecap:butt;stroke-linejoin:miter;stroke-miterlimit:10;stroke-dasharray:none;stroke-opacity:1"
       transform="matrix(1.3333333,0,0,-1.3333333,-31.477333,-54.598667)" />
    <path
       id="path6"
       d="M 92.53355,-56.48851 27.71298,-121.31578"
       style="fill:none;stroke:#000000;stroke-width:1.49442;stroke-linecap:butt;stroke-linejoin:miter;stroke-miterlimit:10;stroke-dasharray:none;stroke-opacity:1"
       transform="matrix(1.3333333,0,0,-1.3333333,-31.477333,-54.598667)" />
    <path
       id="path7"
       d="M 92.53355,-100.87234 27.71298,-165.69962"
       style="fill:none;stroke:#000000;stroke-width:1.49442;stroke-linecap:butt;stroke-linejoin:miter;stroke-miterlimit:10;stroke-dasharray:none;stroke-opacity:1"
       transform="matrix(1.3333333,0,0,-1.3333333,-31.477333,-54.598667)" />
    <path
       id="path8"
       d="m 114.99446,-109.61461 c 0,1.48621 1.20372,2.68994 2.68993,2.68994 1.48619,0 2.68992,-1.20373 2.68992,-2.68994 0,-1.48619 -1.20373,-2.68992 -2.68992,-2.68992 -1.48621,0 -2.68993,1.20373 -2.68993,2.68992 z"
       style="fill:#d0021b;fill-opacity:1;fill-rule:nonzero;stroke:#d0021b;stroke-width:0.74721;stroke-linecap:butt;stroke-linejoin:miter;stroke-miterlimit:10;stroke-dasharray:none;stroke-opacity:1"
       transform="matrix(1.3333333,0,0,-1.3333333,-31.477333,-54.598667)" />
    <path
       id="path9"
       d="m 287.12305,-41.6939 h 64.86763 v -130.73054 h -64.86763 z"
       style="fill:none;stroke:#000000;stroke-width:1.49442;stroke-linecap:butt;stroke-linejoin:miter;stroke-miterlimit:10;stroke-dasharray:none;stroke-opacity:1"
       transform="matrix(1.3333333,0,0,-1.3333333,-31.477333,-54.598667)" />
    <path
       id="path10"
       d="m 299.25461,-78.00793 c 0,1.4862 1.20373,2.68992 2.68994,2.68992 1.48619,0 2.68993,-1.20372 2.68993,-2.68992 0,-1.48618 -1.20374,-2.68995 -2.68993,-2.68995 -1.48621,0 -2.68994,1.20377 -2.68994,2.68995 z"
       style="fill:#d0021b;fill-opacity:1;fill-rule:nonzero;stroke:#d0021b;stroke-width:0.74721;stroke-linecap:butt;stroke-linejoin:miter;stroke-miterlimit:10;stroke-dasharray:none;stroke-opacity:1"
       transform="matrix(1.3333333,0,0,-1.3333333,-31.477333,-54.598667)" />
    <g
       id="g10"
       aria-label="[e]"
       transform="matrix(1.3333333,0,0,1.3333333,13.952,20.52)">
      <path
         id="path11"
         d="M 2.5438125,2.4957422 V 2.0973047 H 1.5711563 V -7.0784766 H 2.5438125 V -7.4769141 H 1.1727188 v 9.9726563 z m 0,0"
         style="fill:#000000;fill-opacity:1;fill-rule:nonzero;stroke:none" />
      <path
         id="path12"
         d="m 4.6326797,-2.2972266 c 0.2929687,0 1.03125,-0.023437 1.5234375,-0.234375 0.703125,-0.2929687 0.75,-0.890625 0.75,-1.0195312 0,-0.4453125 -0.3867188,-0.8554688 -1.0664063,-0.8554688 -1.1132812,0 -2.6132812,0.9726563 -2.6132812,2.7070313 0,1.01953124 0.5859375,1.80468749 1.5703125,1.80468749 1.4179687,0 2.2617187,-1.0546875 2.2617187,-1.17187499 0,-0.058594 -0.070312,-0.1289063 -0.1289062,-0.1289063 -0.046875,0 -0.070312,0.023437 -0.1289063,0.09375 -0.7851562,0.99609379 -1.875,0.99609379 -1.9921875,0.99609379 -0.7734375,0 -0.8671875,-0.84375 -0.8671875,-1.16015629 0,-0.1171875 0.011719,-0.4335937 0.1640625,-1.03125 z m -0.46875,-0.2226562 c 0.3867187,-1.5117188 1.4179687,-1.6640625 1.6757812,-1.6640625 0.46875,0 0.7382813,0.2929687 0.7382813,0.6328125 0,1.03125 -1.59375,1.03125 -2.0039063,1.03125 z m 0,0"
         style="fill:#000000;fill-opacity:1;fill-rule:nonzero;stroke:none" />
      <path
         id="path13"
         d="M 8.989125,-7.4769141 H 7.62975 v 0.3984375 H 8.5906875 V 2.0973047 H 7.62975 v 0.3984375 h 1.359375 z m 0,0"
         style="fill:#000000;fill-opacity:1;fill-rule:nonzero;stroke:none" />
    </g>
    <path
       id="path14"
       d="m 7.5362734,-5.7535078 c 0.09375,-0.3984375 0.2695313,-0.7148438 1.0664063,-0.7382813 0.058594,0 0.1757812,-0.011719 0.1757812,-0.1992187 0,-0.011719 0,-0.1171875 -0.1289062,-0.1171875 -0.328125,0 -0.6796875,0.035156 -1.0078125,0.035156 -0.3398438,0 -0.6914063,-0.035156 -1.0195313,-0.035156 -0.058594,0 -0.1757812,0 -0.1757812,0.1992187 0,0.1171875 0.09375,0.1171875 0.1757812,0.1171875 0.5742188,0.011719 0.6796875,0.2109375 0.6796875,0.4335938 0,0.035156 -0.023437,0.1757812 -0.023437,0.2109375 l -1.125,4.4296875 -2.203125,-5.1914063 c -0.070312,-0.1875 -0.082031,-0.1992187 -0.3164062,-0.1992187 h -1.335938 c -0.1992188,0 -0.28125,0 -0.28125,0.1992187 0,0.1171875 0.082031,0.1171875 0.28125,0.1171875 0.046875,0 0.6679687,0 0.6679687,0.082031 l -1.3359375,5.3554687 c -0.09375,0.39843754 -0.2695312,0.71484379 -1.06640621,0.75000004 -0.0585938,0 -0.17578125,0 -0.17578125,0.19921875 0,0.0703125 0.046875,0.1054687475 0.12890625,0.1054687475 0.31640625,0 0.66796871,-0.0351562475 0.99609371,-0.0351562475 0.3398438,0 0.703125,0.0351562475 1.03125,0.0351562475 0.046875,0 0.1757813,0 0.1757813,-0.1992187475 0,-0.10546875 -0.09375,-0.10546875 -0.1992188,-0.10546875 -0.5742187,-0.0234375 -0.65625,-0.24609375 -0.65625,-0.4453125 0,-0.0703125 0.011719,-0.1171875 0.035156,-0.22265625 l 1.324219,-5.26171849 c 0.035156,0.058594 0.035156,0.082031 0.082031,0.1757813 l 2.484375,5.87109374 c 0.070312,0.1640625 0.09375,0.1874999975 0.1875,0.1874999975 0.1054687,0 0.1054687,-0.0351562475 0.1640625,-0.2109374975 z m 0,0"
       style="fill:#000000;fill-opacity:1;fill-rule:nonzero;stroke:none"
       aria-label="N"
       transform="matrix(1.3333333,0,0,1.3333333,77.658667,167.644)" />
    <g
       id="g14"
       aria-label="g&#10;1&#10;N"
       transform="matrix(1.3333333,0,0,1.3333333,125.86267,151.67467)">
      <path
         id="path15"
         d="m 4.6879609,-3.7491641 c 0.011719,-0.070312 0.035156,-0.1171875 0.035156,-0.1875 0,-0.1640625 -0.1171875,-0.2695312 -0.2929688,-0.2695312 -0.09375,0 -0.3632812,0.070312 -0.4101562,0.4335937 -0.1757813,-0.375 -0.5273438,-0.6328125 -0.9257813,-0.6328125 -1.1367187,0 -2.36718746,1.3945313 -2.36718746,2.8359375 0,0.98437504 0.60937496,1.5703125375 1.32421876,1.5703125375 0.5859375,0 1.0546875,-0.4687499975 1.1601562,-0.5742187475 l 0.011719,0.0117188 c -0.2109375,0.87890625 -0.328125,1.2890625 -0.328125,1.3125 C 2.8481171,0.83286729 2.5082733,1.828961 1.4535858,1.828961 c -0.1875,0 -0.51562496,-0.011719 -0.79687496,-0.1054687 0.3046875,-0.09375 0.41015626,-0.3515625 0.41015626,-0.515625 0,-0.1640625 -0.10546876,-0.35156256 -0.37500001,-0.35156256 -0.22265625,0 -0.5390625,0.17578126 -0.5390625,0.57421876 0,0.4101563 0.36328125,0.609375 1.32421871,0.609375 1.2421875,0 1.9570313,-0.7734375 2.109375,-1.37109376 z m -1.2890625,2.4726563 c -0.058594,0.2578125 -0.2929687,0.51562499 -0.5039062,0.70312499 -0.2109375,0.17578125 -0.5273438,0.3515625 -0.8085938,0.3515625 -0.5039062,0 -0.65625,-0.515625 -0.65625,-0.91406249 0,-0.4804688 0.2929688,-1.6523438 0.5625,-2.15625 0.2695313,-0.4921875 0.703125,-0.890625 1.1132813,-0.890625 0.65625,0 0.796875,0.8085937 0.796875,0.8554687 0,0.046875 -0.011719,0.1054688 -0.023437,0.1523438 z m 0,0"
         style="fill:#000000;fill-opacity:1;fill-rule:nonzero;stroke:none" />
      <path
         id="path16"
         d="m 7.0844453,-2.9347109 c 0,-0.1875 -0.011719,-0.1992188 -0.2109375,-0.1992188 -0.4453125,0.4335938 -1.078125,0.4453125 -1.359375,0.4453125 v 0.2460938 c 0.1640625,0 0.6210938,0 1.0078125,-0.1875 v 3.55078121 c 0,0.23437499 0,0.32812499 -0.6914062,0.32812499 H 5.5610078 v 0.2460938 c 0.1289063,-0.011719 0.984375,-0.023437 1.2421875,-0.023437 0.2109375,0 1.0898438,0.011719 1.2421875,0.023437 V 1.2488828 H 7.7875703 c -0.703125,0 -0.703125,-0.09375 -0.703125,-0.32812499 z m 0,0"
         style="fill:#000000;fill-opacity:1;fill-rule:nonzero;stroke:none" />
      <path
         id="path17"
         d="m 16.758273,-5.7530703 c 0.09375,-0.3984375 0.269532,-0.7148438 1.066407,-0.7382813 0.05859,0 0.175781,-0.011719 0.175781,-0.1992187 0,-0.011719 0,-0.1171875 -0.128906,-0.1171875 -0.328125,0 -0.679688,0.035156 -1.007813,0.035156 -0.339844,0 -0.691406,-0.035156 -1.019531,-0.035156 -0.05859,0 -0.175781,0 -0.175781,0.1992187 0,0.1171875 0.09375,0.1171875 0.175781,0.1171875 0.574219,0.011719 0.679687,0.2109375 0.679687,0.4335938 0,0.035156 -0.02344,0.1757812 -0.02344,0.2109375 l -1.125,4.4296875 -2.203125,-5.1914063 c -0.07031,-0.1875 -0.08203,-0.1992187 -0.316406,-0.1992187 h -1.335938 c -0.199219,0 -0.28125,0 -0.28125,0.1992187 0,0.1171875 0.08203,0.1171875 0.28125,0.1171875 0.04687,0 0.667969,0 0.667969,0.082031 l -1.335938,5.3554687 c -0.09375,0.39843754 -0.269531,0.71484379 -1.0664058,0.75000004 -0.058594,0 -0.1757813,0 -0.1757813,0.19921875 0,0.0703125 0.046875,0.1054687475 0.1289063,0.1054687475 0.3164058,0 0.6679688,-0.0351562475 0.9960938,-0.0351562475 0.339844,0 0.703125,0.0351562475 1.03125,0.0351562475 0.04687,0 0.175781,0 0.175781,-0.1992187475 0,-0.10546875 -0.09375,-0.10546875 -0.199219,-0.10546875 -0.574218,-0.0234375 -0.65625,-0.24609375 -0.65625,-0.4453125 0,-0.0703125 0.01172,-0.1171875 0.03516,-0.22265625 l 1.324218,-5.26171879 c 0.03516,0.058594 0.03516,0.082031 0.08203,0.1757813 l 2.484375,5.87109374 c 0.07031,0.1640625 0.09375,0.1874999975 0.1875,0.1874999975 0.105468,0 0.105468,-0.0351562475 0.164062,-0.2109374975 z m 0,0"
         style="fill:#000000;fill-opacity:1;fill-rule:nonzero;stroke:none" />
    </g>
    <g
       id="g17"
       aria-label="g&#10;2&#10;N"
       transform="matrix(1.3333333,0,0,1.3333333,213.456,151.67467)">
      <path
         id="path18"
         d="m 4.6882734,-3.7491641 c 0.011719,-0.070312 0.035156,-0.1171875 0.035156,-0.1875 0,-0.1640625 -0.1171875,-0.2695312 -0.2929688,-0.2695312 -0.09375,0 -0.3632812,0.070312 -0.4101562,0.4335937 -0.1757813,-0.375 -0.5273438,-0.6328125 -0.9257813,-0.6328125 -1.1367187,0 -2.36718746,1.3945313 -2.36718746,2.8359375 0,0.98437504 0.60937496,1.5703125375 1.32421876,1.5703125375 0.5859375,0 1.0546875,-0.4687499975 1.1601562,-0.5742187475 l 0.011719,0.0117188 c -0.2109375,0.87890625 -0.328125,1.2890625 -0.328125,1.3125 C 2.8484296,0.83286729 2.5085858,1.828961 1.4538983,1.828961 c -0.1875,0 -0.51562496,-0.011719 -0.79687496,-0.1054687 0.3046875,-0.09375 0.41015626,-0.3515625 0.41015626,-0.515625 0,-0.1640625 -0.10546876,-0.35156256 -0.37500001,-0.35156256 -0.22265625,0 -0.5390625,0.17578126 -0.5390625,0.57421876 0,0.4101563 0.36328125,0.609375 1.32421871,0.609375 1.2421875,0 1.9570313,-0.7734375 2.109375,-1.37109376 z m -1.2890625,2.4726563 c -0.058594,0.2578125 -0.2929687,0.51562499 -0.5039062,0.70312499 -0.2109375,0.17578125 -0.5273438,0.3515625 -0.8085938,0.3515625 -0.5039062,0 -0.65625,-0.515625 -0.65625,-0.91406249 0,-0.4804688 0.2929688,-1.6523438 0.5625,-2.15625 0.2695313,-0.4921875 0.703125,-0.890625 1.1132813,-0.890625 0.65625,0 0.796875,0.8085937 0.796875,0.8554687 0,0.046875 -0.011719,0.1054688 -0.023437,0.1523438 z m 0,0"
         style="fill:#000000;fill-opacity:1;fill-rule:nonzero;stroke:none" />
      <path
         id="path19"
         d="m 8.2683516,0.22935156 h -0.234375 c -0.023437,0.15234375 -0.082031,0.5625 -0.1757813,0.6328125 -0.058594,0.0351563 -0.5976562,0.0351563 -0.6914062,0.0351563 H 5.8777266 c 0.7382812,-0.64453125 0.984375,-0.84375 1.3945312,-1.171875 0.515625,-0.41015625 0.9960938,-0.84374996 0.9960938,-1.49999996 0,-0.84375 -0.7382813,-1.359375 -1.6289063,-1.359375 -0.8671875,0 -1.453125,0.609375 -1.453125,1.2421875 0,0.3632813 0.3046875,0.3984375 0.375,0.3984375 0.1640625,0 0.375,-0.1171875 0.375,-0.375 0,-0.1289062 -0.058594,-0.3632812 -0.421875,-0.3632812 0.2226563,-0.5039063 0.6914063,-0.65625 1.0195313,-0.65625 0.703125,0 1.0664062,0.5507812 1.0664062,1.1132812 0,0.609375 -0.4335937,1.08984371 -0.65625,1.33593746 l -1.6875,1.66406254 c -0.070312,0.058594 -0.070312,0.070312 -0.070312,0.2695313 h 2.8828125 z m 0,0"
         style="fill:#000000;fill-opacity:1;fill-rule:nonzero;stroke:none" />
      <path
         id="path20"
         d="m 16.758586,-5.7530703 c 0.09375,-0.3984375 0.269531,-0.7148438 1.066406,-0.7382813 0.05859,0 0.175781,-0.011719 0.175781,-0.1992187 0,-0.011719 0,-0.1171875 -0.128906,-0.1171875 -0.328125,0 -0.679687,0.035156 -1.007812,0.035156 -0.339844,0 -0.691407,-0.035156 -1.019532,-0.035156 -0.05859,0 -0.175781,0 -0.175781,0.1992187 0,0.1171875 0.09375,0.1171875 0.175781,0.1171875 0.574219,0.011719 0.679688,0.2109375 0.679688,0.4335938 0,0.035156 -0.02344,0.1757812 -0.02344,0.2109375 l -1.125,4.4296875 -2.203125,-5.1914063 c -0.07031,-0.1875 -0.08203,-0.1992187 -0.316406,-0.1992187 h -1.335937 c -0.199219,0 -0.28125,0 -0.28125,0.1992187 0,0.1171875 0.08203,0.1171875 0.28125,0.1171875 0.04687,0 0.667968,0 0.667968,0.082031 l -1.335937,5.3554687 c -0.09375,0.39843754 -0.269531,0.71484379 -1.0664063,0.75000004 -0.058594,0 -0.1757813,0 -0.1757813,0.19921875 0,0.0703125 0.046875,0.1054687475 0.1289063,0.1054687475 0.3164063,0 0.6679683,-0.0351562475 0.9960933,-0.0351562475 0.339844,0 0.703125,0.0351562475 1.03125,0.0351562475 0.04687,0 0.175782,0 0.175782,-0.1992187475 0,-0.10546875 -0.09375,-0.10546875 -0.199219,-0.10546875 -0.574219,-0.0234375 -0.65625,-0.24609375 -0.65625,-0.4453125 0,-0.0703125 0.01172,-0.1171875 0.03516,-0.22265625 l 1.324219,-5.26171879 c 0.03516,0.058594 0.03516,0.082031 0.08203,0.1757813 l 2.484375,5.87109374 c 0.07031,0.1640625 0.09375,0.1874999975 0.1875,0.1874999975 0.105469,0 0.105469,-0.0351562475 0.164063,-0.2109374975 z m 0,0"
         style="fill:#000000;fill-opacity:1;fill-rule:nonzero;stroke:none" />
    </g>
    <g
       id="g20"
       aria-label="[n]"
       transform="matrix(1.3333333,0,0,1.3333333,35.472,47.42)">
      <path
         id="path21"
         d="M 2.5434609,2.4975 V 2.0990625 H 1.5708047 V -7.0767187 H 2.5434609 V -7.4751562 H 1.1723672 V 2.4975 Z m 0,0"
         style="fill:#000000;fill-opacity:1;fill-rule:nonzero;stroke:none" />
      <path
         id="path22"
         d="m 3.6479531,-0.58453125 c -0.035156,0.15234375 -0.09375,0.375 -0.09375,0.421875 0,0.1875 0.140625,0.26953125 0.2929688,0.26953125 0.1171875,0 0.2929687,-0.0703125 0.3632812,-0.26953125 0.011719,-0.0234375 0.1289063,-0.4921875 0.1875,-0.73828125 l 0.2226563,-0.9023437 c 0.058594,-0.2226563 0.1171875,-0.4335938 0.1757812,-0.6679688 0.035156,-0.1640625 0.1171875,-0.4570312 0.1289063,-0.4921875 0.140625,-0.3164062 0.6679687,-1.21875 1.6171875,-1.21875 0.4453125,0 0.5390625,0.3632813 0.5390625,0.6914063 0,0.6210937 -0.4921875,1.8984375 -0.6445313,2.3320312 -0.09375,0.22265625 -0.1054687,0.33984375 -0.1054687,0.45703125 0,0.46875 0.3515625,0.80859375 0.8203125,0.80859375 0.9375,0 1.3007812,-1.453125 1.3007812,-1.5351562 0,-0.09375 -0.082031,-0.09375 -0.1171875,-0.09375 -0.09375,0 -0.09375,0.023437 -0.1523437,0.1757812 -0.1992188,0.6796875 -0.5273438,1.2421875 -1.0078125,1.2421875 -0.1757813,0 -0.2460938,-0.10546875 -0.2460938,-0.328125 0,-0.2578125 0.09375,-0.4921875 0.1875,-0.7148437 0.1875,-0.5273438 0.5976563,-1.6171875 0.5976563,-2.1914063 0,-0.6679687 -0.421875,-1.0664062 -1.1367188,-1.0664062 -0.9023437,0 -1.3828125,0.6445312 -1.5585937,0.8671875 -0.046875,-0.5507813 -0.4570313,-0.8671875 -0.9140625,-0.8671875 -0.4570313,0 -0.6445313,0.3867187 -0.75,0.5742187 -0.1523438,0.3398438 -0.2929688,0.9257813 -0.2929688,0.9609375 0,0.1054688 0.09375,0.1054688 0.1171875,0.1054688 0.09375,0 0.1054688,-0.011719 0.1640625,-0.234375 0.1757813,-0.703125 0.375,-1.1835938 0.7265625,-1.1835938 0.1992188,0 0.3164063,0.1289063 0.3164063,0.4570313 0,0.2109375 -0.035156,0.3164062 -0.1640625,0.8320312 z m 0,0"
         style="fill:#000000;fill-opacity:1;fill-rule:nonzero;stroke:none" />
      <path
         id="path23"
         d="M 10.33057,-7.4751562 H 8.9711953 v 0.3984375 H 9.9321328 V 2.0990625 H 8.9711953 V 2.4975 H 10.33057 Z m 0,0"
         style="fill:#000000;fill-opacity:1;fill-rule:nonzero;stroke:none" />
    </g>
    <g
       id="g23"
       aria-label="[n&#10;′&#10;]"
       transform="matrix(1.3333333,0,0,1.3333333,44.438667,92.94)">
      <path
         id="path24"
         d="M 2.5420937,2.4971484 V 2.0987109 H 1.5694375 V -7.0770703 H 2.5420937 V -7.4755078 H 1.171 v 9.9726562 z m 0,0"
         style="fill:#000000;fill-opacity:1;fill-rule:nonzero;stroke:none" />
      <path
         id="path25"
         d="m 3.6465859,-0.58488281 c -0.035156,0.15234375 -0.09375,0.375 -0.09375,0.421875 0,0.1875 0.140625,0.26953125 0.2929688,0.26953125 0.1171875,0 0.2929687,-0.0703125 0.3632812,-0.26953125 0.011719,-0.0234375 0.1289063,-0.4921875 0.1875,-0.73828125 L 4.6192422,-1.8036328 c 0.058594,-0.2226563 0.1171875,-0.4335938 0.1757812,-0.6679688 0.035156,-0.1640625 0.1171875,-0.4570312 0.1289063,-0.4921875 0.140625,-0.3164062 0.6679687,-1.21875 1.6171875,-1.21875 0.4453125,0 0.5390625,0.3632813 0.5390625,0.6914063 0,0.6210937 -0.4921875,1.8984375 -0.6445313,2.3320312 -0.09375,0.22265629 -0.1054687,0.33984379 -0.1054687,0.45703129 0,0.46875 0.3515625,0.80859375 0.8203125,0.80859375 0.9375,0 1.3007812,-1.45312504 1.3007812,-1.53515624 0,-0.09375 -0.082031,-0.09375 -0.1171875,-0.09375 -0.09375,0 -0.09375,0.023437 -0.1523437,0.1757812 -0.1992188,0.67968754 -0.5273438,1.24218754 -1.0078125,1.24218754 -0.1757813,0 -0.2460938,-0.10546875 -0.2460938,-0.328125 0,-0.2578125 0.09375,-0.4921875 0.1875,-0.71484374 0.1875,-0.5273438 0.5976563,-1.6171875 0.5976563,-2.1914063 0,-0.6679687 -0.421875,-1.0664062 -1.1367188,-1.0664062 -0.9023437,0 -1.3828125,0.6445312 -1.5585937,0.8671875 -0.046875,-0.5507813 -0.4570313,-0.8671875 -0.9140625,-0.8671875 -0.4570313,0 -0.6445313,0.3867187 -0.75,0.5742187 -0.1523438,0.3398438 -0.2929688,0.9257813 -0.2929688,0.9609375 0,0.1054688 0.09375,0.1054688 0.1171875,0.1054688 0.09375,0 0.1054688,-0.011719 0.1640625,-0.234375 0.1757813,-0.703125 0.375,-1.1835938 0.7265625,-1.1835938 0.1992188,0 0.3164063,0.1289063 0.3164063,0.4570313 0,0.2109375 -0.035156,0.3164062 -0.1640625,0.8320312 z m 0,0"
         style="fill:#000000;fill-opacity:1;fill-rule:nonzero;stroke:none" />
      <path
         id="path26"
         d="m 10.774516,-7.408125 c 0.04687,-0.1171875 0.05859,-0.1757812 0.05859,-0.2226562 0,-0.2109375 -0.199218,-0.3867188 -0.410156,-0.3867188 -0.269531,0 -0.351562,0.2226563 -0.386719,0.328125 l -0.9140621,3.0234375 c -0.011719,0.011719 -0.035156,0.1054688 -0.035156,0.1171875 0,0.082031 0.2109375,0.1523438 0.2695313,0.1523438 0.046875,0 0.058594,-0.023437 0.1054687,-0.1289063 z m 0,0"
         style="fill:#000000;fill-opacity:1;fill-rule:nonzero;stroke:none" />
      <path
         id="path27"
         d="M 13.124125,-7.4755078 H 11.76475 v 0.3984375 h 0.960937 V 2.0987109 H 11.76475 v 0.3984375 h 1.359375 z m 0,0"
         style="fill:#000000;fill-opacity:1;fill-rule:nonzero;stroke:none" />
    </g>
    <path
       id="path28"
       d="m 1.9115781,-2.4975234 c 0,-0.28125 -0.234375,-0.5273438 -0.5273437,-0.5273438 -0.28125,0 -0.52734378,0.2460938 -0.52734378,0.5273438 0,0.2929687 0.24609378,0.5390625 0.52734378,0.5390625 0.2929687,0 0.5273437,-0.2460938 0.5273437,-0.5390625 z m 4.4121094,0 c 0,-0.28125 -0.234375,-0.5273438 -0.5273438,-0.5273438 -0.28125,0 -0.5273437,0.2460938 -0.5273437,0.5273438 0,0.2929687 0.2460937,0.5390625 0.5273437,0.5390625 0.2929688,0 0.5273438,-0.2460938 0.5273438,-0.5390625 z m 4.4238285,0 c 0,-0.28125 -0.234375,-0.5273438 -0.527344,-0.5273438 -0.2812501,0 -0.5273439,0.2460938 -0.5273439,0.5273438 0,0.2929687 0.2460938,0.5390625 0.5273439,0.5390625 0.292969,0 0.527344,-0.2460938 0.527344,-0.5390625 z m 0,0"
       style="fill:#000000;fill-opacity:1;fill-rule:nonzero;stroke:none"
       aria-label="···"
       transform="matrix(1.3333333,0,0,1.3333333,61.474667,126.748)" />
    <g
       id="g28"
       aria-label="g&#10;1&#10;n"
       transform="matrix(1.3333333,0,0,1.3333333,128.72267,101.816)">
      <path
         id="path29"
         d="m 4.6874922,-3.7496953 c 0.011719,-0.070312 0.035156,-0.1171875 0.035156,-0.1875 0,-0.1640625 -0.1171875,-0.2695313 -0.2929687,-0.2695313 -0.09375,0 -0.3632813,0.070312 -0.4101563,0.4335938 -0.1757812,-0.375 -0.5273437,-0.6328125 -0.9257812,-0.6328125 -1.1367188,0 -2.36718751,1.3945312 -2.36718751,2.8359375 0,0.98437499 0.60937501,1.5703124875 1.32421871,1.5703124875 0.5859375,0 1.0546875,-0.4687499975 1.1601563,-0.5742187475 l 0.011719,0.0117188 c -0.2109375,0.87890625 -0.328125,1.2890625 -0.328125,1.3125 -0.046875,0.0820313 -0.3867187,1.07812506 -1.4414062,1.07812506 -0.1875,0 -0.51562501,-0.011719 -0.79687501,-0.1054688 0.3046875,-0.09375 0.41015621,-0.3515625 0.41015621,-0.515625 0,-0.1640625 -0.10546871,-0.35156251 -0.37499996,-0.35156251 -0.22265625,0 -0.5390625,0.17578131 -0.5390625,0.57421881 0,0.4101562 0.36328125,0.609375 1.32421876,0.609375 1.2421875,0 1.9570312,-0.7734375 2.109375,-1.37109381 z m -1.2890625,2.4726562 c -0.058594,0.2578125 -0.2929688,0.51562504 -0.5039063,0.70312504 -0.2109375,0.17578125 -0.5273437,0.3515625 -0.8085937,0.3515625 -0.5039063,0 -0.65625,-0.515625 -0.65625,-0.91406254 0,-0.4804687 0.2929687,-1.6523437 0.5625,-2.15625 0.2695312,-0.4921875 0.703125,-0.890625 1.1132812,-0.890625 0.65625,0 0.796875,0.8085938 0.796875,0.8554688 0,0.046875 -0.011719,0.1054687 -0.023437,0.1523437 z m 0,0"
         style="fill:#d0021b;fill-opacity:1;fill-rule:nonzero;stroke:none" />
      <path
         id="path30"
         d="m 7.0839766,-2.9352422 c 0,-0.1875 -0.011719,-0.1992187 -0.2109375,-0.1992187 -0.4453125,0.4335937 -1.078125,0.4453125 -1.359375,0.4453125 v 0.2460937 c 0.1640625,0 0.6210937,0 1.0078125,-0.1875 v 3.55078126 c 0,0.23437504 0,0.32812504 -0.6914063,0.32812504 H 5.5605391 v 0.2460937 c 0.1289062,-0.011719 0.984375,-0.023437 1.2421875,-0.023437 0.2109375,0 1.0898437,0.011719 1.2421875,0.023437 V 1.2483516 H 7.7871016 c -0.703125,0 -0.703125,-0.09375 -0.703125,-0.32812504 z m 0,0"
         style="fill:#d0021b;fill-opacity:1;fill-rule:nonzero;stroke:none" />
      <path
         id="path31"
         d="m 10.101555,-0.58563281 c -0.03516,0.15234375 -0.09375,0.375 -0.09375,0.421875 0,0.1875 0.140625,0.26953125 0.292968,0.26953125 0.117188,0 0.292969,-0.0703125 0.363282,-0.26953125 0.01172,-0.0234375 0.128906,-0.4921875 0.1875,-0.73828125 l 0.222656,-0.90234374 c 0.05859,-0.2226563 0.117187,-0.4335938 0.175781,-0.6679688 0.03516,-0.1640625 0.117188,-0.4570312 0.128906,-0.4921875 0.140625,-0.3164062 0.667969,-1.21875 1.617188,-1.21875 0.445312,0 0.539062,0.3632813 0.539062,0.6914063 0,0.6210937 -0.492187,1.8984375 -0.644531,2.3320312 -0.09375,0.22265629 -0.105469,0.33984379 -0.105469,0.45703129 0,0.46875 0.351563,0.80859375 0.820313,0.80859375 0.9375,0 1.300781,-1.45312504 1.300781,-1.53515624 0,-0.09375 -0.08203,-0.09375 -0.117187,-0.09375 -0.09375,0 -0.09375,0.023437 -0.152344,0.1757812 -0.199219,0.67968754 -0.527344,1.24218754 -1.007813,1.24218754 -0.175781,0 -0.246093,-0.10546875 -0.246093,-0.328125 0,-0.2578125 0.09375,-0.4921875 0.1875,-0.71484374 0.1875,-0.5273438 0.597656,-1.6171875 0.597656,-2.1914063 0,-0.6679687 -0.421875,-1.0664062 -1.136719,-1.0664062 -0.902344,0 -1.382812,0.6445312 -1.558594,0.8671875 -0.04687,-0.5507813 -0.457031,-0.8671875 -0.914062,-0.8671875 -0.457031,0 -0.6445313,0.3867187 -0.7500001,0.5742187 -0.1523437,0.3398438 -0.2929687,0.9257813 -0.2929687,0.9609375 0,0.1054688 0.09375,0.1054688 0.1171875,0.1054688 0.09375,0 0.1054687,-0.011719 0.1640625,-0.234375 0.1757812,-0.703125 0.3749998,-1.1835938 0.7265628,-1.1835938 0.199218,0 0.316406,0.1289063 0.316406,0.4570313 0,0.2109375 -0.03516,0.3164062 -0.164063,0.8320312 z m 0,0"
         style="fill:#d0021b;fill-opacity:1;fill-rule:nonzero;stroke:none" />
    </g>
    <g
       id="g31"
       aria-label="g(g&#10;1&#10;n)g&#10;−1"
       transform="matrix(1.3333333,0,0,1.3333333,374.40267,64.768)">
      <path
         id="path32"
         d="m 4.6872578,-3.7488516 c 0.011719,-0.070312 0.035156,-0.1171875 0.035156,-0.1875 0,-0.1640625 -0.1171875,-0.2695312 -0.2929688,-0.2695312 -0.09375,0 -0.3632812,0.070312 -0.4101562,0.4335937 -0.1757813,-0.375 -0.5273438,-0.6328125 -0.9257813,-0.6328125 -1.1367187,0 -2.36718749,1.3945313 -2.36718749,2.8359375 0,0.98437504 0.60937499,1.57031254 1.32421879,1.57031254 0.5859375,0 1.0546875,-0.46875 1.1601562,-0.57421875 l 0.011719,0.0117188 c -0.2109375,0.87890625 -0.328125,1.2890625 -0.328125,1.3125 -0.046875,0.0820313 -0.3867188,1.07812501 -1.4414063,1.07812501 -0.1875,0 -0.51562499,-0.011719 -0.79687499,-0.1054688 0.3046875,-0.09375 0.41015629,-0.3515625 0.41015629,-0.515625 0,-0.1640625 -0.10546879,-0.35156246 -0.37500004,-0.35156246 -0.22265625,0 -0.5390625,0.17578116 -0.5390625,0.57421876 0,0.4101562 0.36328125,0.609375 1.32421874,0.609375 1.2421875,0 1.9570313,-0.7734376 2.109375,-1.37109376 z m -1.2890625,2.4726563 c -0.058594,0.2578125 -0.2929687,0.51562499 -0.5039062,0.70312499 -0.2109375,0.17578125 -0.5273438,0.3515625 -0.8085938,0.3515625 -0.5039062,0 -0.65625,-0.515625 -0.65625,-0.91406249 0,-0.4804688 0.2929688,-1.6523438 0.5625,-2.15625 0.2695313,-0.4921875 0.703125,-0.890625 1.1132813,-0.890625 0.65625,0 0.796875,0.8085937 0.796875,0.8554687 0,0.046875 -0.011719,0.1054688 -0.023437,0.1523438 z m 0,0"
         style="fill:#d0021b;fill-opacity:1;fill-rule:nonzero;stroke:none" />
      <path
         id="path33"
         d="m 8.4021016,2.3917734 c 0,-0.035156 0,-0.046875 -0.1640625,-0.2226562 -1.2421875,-1.25390626 -1.5703125,-3.12890626 -1.5703125,-4.6640625 0,-1.7226563 0.3867187,-3.4570313 1.6054687,-4.7109375 0.1289063,-0.1171875 0.1289063,-0.1289063 0.1289063,-0.1640625 0,-0.070312 -0.035156,-0.1054688 -0.09375,-0.1054688 -0.1054688,0 -0.9960938,0.6796875 -1.5820313,1.9453125 -0.515625,1.1015625 -0.6328125,2.203125 -0.6328125,3.0351563 0,0.7851562 0.1171875,1.99218749 0.65625,3.11718749 0.5976563,1.21875001 1.453125,1.87500001 1.5585938,1.87500001 0.058594,0 0.09375,-0.035156 0.09375,-0.1054688 z m 0,0"
         style="fill:#d0021b;fill-opacity:1;fill-rule:nonzero;stroke:none" />
      <path
         id="path34"
         d="m 13.672609,-3.7488516 c 0.01172,-0.070312 0.03516,-0.1171875 0.03516,-0.1875 0,-0.1640625 -0.117188,-0.2695312 -0.292969,-0.2695312 -0.09375,0 -0.363281,0.070312 -0.410156,0.4335937 -0.175782,-0.375 -0.527344,-0.6328125 -0.925782,-0.6328125 -1.136718,0 -2.3671871,1.3945313 -2.3671871,2.8359375 0,0.98437504 0.6093751,1.57031254 1.3242191,1.57031254 0.585937,0 1.054687,-0.46875 1.160156,-0.57421875 l 0.01172,0.0117188 c -0.210938,0.87890625 -0.328125,1.2890625 -0.328125,1.3125 -0.04687,0.0820313 -0.386719,1.07812501 -1.441407,1.07812501 -0.1875,0 -0.5156246,-0.011719 -0.7968746,-0.1054688 0.3046875,-0.09375 0.4101566,-0.3515625 0.4101566,-0.515625 0,-0.1640625 -0.1054691,-0.35156246 -0.3750004,-0.35156246 -0.2226562,0 -0.5390625,0.17578116 -0.5390625,0.57421876 0,0.4101562 0.3632813,0.609375 1.3242189,0.609375 1.242187,0 1.957031,-0.7734376 2.109375,-1.37109376 z m -1.289062,2.4726563 c -0.05859,0.2578125 -0.292969,0.51562499 -0.503906,0.70312499 -0.210938,0.17578125 -0.527344,0.3515625 -0.808594,0.3515625 -0.503906,0 -0.65625,-0.515625 -0.65625,-0.91406249 0,-0.4804688 0.292969,-1.6523438 0.5625,-2.15625 0.269531,-0.4921875 0.703125,-0.890625 1.113281,-0.890625 0.65625,0 0.796875,0.8085937 0.796875,0.8554687 0,0.046875 -0.01172,0.1054688 -0.02344,0.1523438 z m 0,0"
         style="fill:#d0021b;fill-opacity:1;fill-rule:nonzero;stroke:none" />
      <path
         id="path35"
         d="m 16.069094,-2.9343984 c 0,-0.1875 -0.01172,-0.1992188 -0.210938,-0.1992188 -0.445312,0.4335938 -1.078125,0.4453125 -1.359375,0.4453125 v 0.2460938 c 0.164063,0 0.621094,0 1.007813,-0.1875 v 3.55078121 c 0,0.23437499 0,0.32812499 -0.691406,0.32812499 h -0.269532 v 0.2460938 c 0.128907,-0.011719 0.984375,-0.023437 1.242188,-0.023437 0.210937,0 1.089844,0.011719 1.242187,0.023437 V 1.2491953 h -0.257812 c -0.703125,0 -0.703125,-0.09375 -0.703125,-0.32812499 z m 0,0"
         style="fill:#d0021b;fill-opacity:1;fill-rule:nonzero;stroke:none" />
      <path
         id="path36"
         d="m 19.083742,-0.58478906 c -0.03516,0.15234375 -0.09375,0.375 -0.09375,0.421875 0,0.1875 0.140625,0.26953125 0.292969,0.26953125 0.117187,0 0.292969,-0.0703125 0.363281,-0.26953125 0.01172,-0.0234375 0.128906,-0.4921875 0.1875,-0.73828125 l 0.222656,-0.90234379 c 0.05859,-0.2226562 0.117188,-0.4335937 0.175782,-0.6679687 0.03516,-0.1640625 0.117187,-0.4570313 0.128906,-0.4921875 0.140625,-0.3164063 0.667969,-1.21875 1.617187,-1.21875 0.445313,0 0.539063,0.3632812 0.539063,0.6914062 0,0.6210938 -0.492188,1.8984375 -0.644531,2.3320313 -0.09375,0.22265624 -0.105469,0.33984374 -0.105469,0.45703124 0,0.46875 0.351562,0.80859375 0.820312,0.80859375 0.9375,0 1.300782,-1.45312499 1.300782,-1.53515629 0,-0.09375 -0.08203,-0.09375 -0.117188,-0.09375 -0.09375,0 -0.09375,0.023437 -0.152344,0.1757813 -0.199218,0.67968749 -0.527343,1.24218749 -1.007812,1.24218749 -0.175781,0 -0.246094,-0.10546875 -0.246094,-0.328125 0,-0.2578125 0.09375,-0.4921875 0.1875,-0.71484379 0.1875,-0.5273437 0.597656,-1.6171875 0.597656,-2.1914062 0,-0.6679688 -0.421875,-1.0664063 -1.136718,-1.0664063 -0.902344,0 -1.382813,0.6445313 -1.558594,0.8671875 -0.04687,-0.5507812 -0.457031,-0.8671875 -0.914063,-0.8671875 -0.457031,0 -0.644531,0.3867188 -0.75,0.5742188 -0.152343,0.3398437 -0.292968,0.9257812 -0.292968,0.9609375 0,0.1054687 0.09375,0.1054687 0.117187,0.1054687 0.09375,0 0.105469,-0.011719 0.164063,-0.234375 0.175781,-0.703125 0.375,-1.1835937 0.726562,-1.1835937 0.199219,0 0.316406,0.1289062 0.316406,0.4570312 0,0.2109375 -0.03516,0.3164063 -0.164062,0.8320313 z m 0,0"
         style="fill:#d0021b;fill-opacity:1;fill-rule:nonzero;stroke:none" />
      <path
         id="path37"
         d="m 27.067141,-2.4949453 c 0,-0.7734375 -0.117188,-1.9804688 -0.65625,-3.1054688 -0.597657,-1.21875 -1.464844,-1.875 -1.558594,-1.875 -0.05859,0 -0.105469,0.046875 -0.105469,0.1054688 0,0.035156 0,0.046875 0.199219,0.234375 0.972656,0.984375 1.535156,2.5664062 1.535156,4.640625 0,1.71093749 -0.363281,3.45703124 -1.59375,4.7226562 -0.140625,0.1171875 -0.140625,0.1289063 -0.140625,0.1640625 0,0.058594 0.04687,0.1054688 0.105469,0.1054688 0.09375,0 0.996094,-0.6796875 1.582031,-1.94531251 0.503906,-1.1015625 0.632813,-2.20312499 0.632813,-3.04687499 z m 0,0"
         style="fill:#d0021b;fill-opacity:1;fill-rule:nonzero;stroke:none" />
      <path
         id="path38"
         d="m 32.747805,-3.7488516 c 0.01172,-0.070312 0.03516,-0.1171875 0.03516,-0.1875 0,-0.1640625 -0.117188,-0.2695312 -0.292969,-0.2695312 -0.09375,0 -0.363281,0.070312 -0.410156,0.4335937 -0.175781,-0.375 -0.527344,-0.6328125 -0.925781,-0.6328125 -1.136719,0 -2.367188,1.3945313 -2.367188,2.8359375 0,0.98437504 0.609375,1.57031254 1.324219,1.57031254 0.585937,0 1.054687,-0.46875 1.160156,-0.57421875 l 0.01172,0.0117188 c -0.210938,0.87890625 -0.328125,1.2890625 -0.328125,1.3125 -0.04687,0.0820313 -0.386719,1.07812501 -1.441406,1.07812501 -0.1875,0 -0.515625,-0.011719 -0.796875,-0.1054688 0.304687,-0.09375 0.410156,-0.3515625 0.410156,-0.515625 0,-0.1640625 -0.105469,-0.35156246 -0.375,-0.35156246 -0.222656,0 -0.539063,0.17578116 -0.539063,0.57421876 0,0.4101562 0.363282,0.609375 1.324219,0.609375 1.242188,0 1.957031,-0.7734376 2.109375,-1.37109376 z m -1.289063,2.4726563 c -0.05859,0.2578125 -0.292969,0.51562499 -0.503906,0.70312499 -0.210938,0.17578125 -0.527344,0.3515625 -0.808594,0.3515625 -0.503906,0 -0.65625,-0.515625 -0.65625,-0.91406249 0,-0.4804688 0.292969,-1.6523438 0.5625,-2.15625 0.269531,-0.4921875 0.703125,-0.890625 1.113281,-0.890625 0.65625,0 0.796875,0.8085937 0.796875,0.8554687 0,0.046875 -0.01172,0.1054688 -0.02344,0.1523438 z m 0,0"
         style="fill:#d0021b;fill-opacity:1;fill-rule:nonzero;stroke:none" />
      <path
         id="path39"
         d="m 38.361086,-5.1873281 c 0.105469,0 0.269531,0 0.269531,-0.1757813 0,-0.1757812 -0.152344,-0.1757812 -0.269531,-0.1757812 H 34.20093 c -0.105469,0 -0.28125,0 -0.28125,0.1757812 0,0.1757813 0.164062,0.1757813 0.28125,0.1757813 z m 0,0"
         style="fill:#d0021b;fill-opacity:1;fill-rule:nonzero;stroke:none" />
      <path
         id="path40"
         d="m 41.727297,-8.0467031 c 0,-0.1875 -0.01172,-0.1992188 -0.210938,-0.1992188 -0.445312,0.4335938 -1.078125,0.4453125 -1.359375,0.4453125 v 0.2460938 c 0.164063,0 0.621094,0 1.007813,-0.1875 v 3.5507812 c 0,0.234375 0,0.328125 -0.691406,0.328125 h -0.269532 v 0.2460938 c 0.128907,-0.011719 0.984375,-0.023437 1.242188,-0.023437 0.210937,0 1.089844,0.011719 1.242187,0.023437 v -0.2460938 h -0.257812 c -0.703125,0 -0.703125,-0.09375 -0.703125,-0.328125 z m 0,0"
         style="fill:#d0021b;fill-opacity:1;fill-rule:nonzero;stroke:none" />
    </g>
    <g
       id="g40"
       aria-label="gg&#10;1&#10;g&#10;−1&#10;N"
       transform="matrix(1.3333333,0,0,1.3333333,368.57467,154.07467)">
      <path
         id="path41"
         d="m 4.6871641,-3.7503359 c 0.011719,-0.070312 0.035156,-0.1171875 0.035156,-0.1875 0,-0.1640625 -0.1171875,-0.2695313 -0.2929687,-0.2695313 -0.09375,0 -0.3632813,0.070312 -0.4101563,0.4335938 -0.1757812,-0.375 -0.5273437,-0.6328125 -0.9257812,-0.6328125 -1.1367188,0 -2.36718754,1.3945312 -2.36718754,2.8359375 0,0.98437496 0.60937504,1.5703124625 1.32421874,1.5703124625 0.5859375,0 1.0546875,-0.4687500025 1.1601563,-0.5742187525 l 0.011719,0.0117188 c -0.2109375,0.87890625 -0.328125,1.2890625 -0.328125,1.3125 -0.046875,0.0820313 -0.3867187,1.07812509 -1.4414062,1.07812509 -0.1875,0 -0.51562504,-0.011719 -0.79687504,-0.1054688 0.3046875,-0.09375 0.41015624,-0.3515625 0.41015624,-0.515625 0,-0.1640625 -0.10546874,-0.35156254 -0.37499999,-0.35156254 -0.22265625,0 -0.5390625,0.17578134 -0.5390625,0.57421884 0,0.4101562 0.36328125,0.609375 1.32421879,0.609375 1.2421875,0 1.9570312,-0.7734375 2.109375,-1.37109384 z m -1.2890625,2.4726562 c -0.058594,0.2578125 -0.2929688,0.51562501 -0.5039063,0.70312501 -0.2109375,0.17578125 -0.5273437,0.3515625 -0.8085937,0.3515625 -0.5039063,0 -0.65625,-0.515625 -0.65625,-0.91406251 0,-0.4804687 0.2929687,-1.6523437 0.5625,-2.15625 0.2695312,-0.4921875 0.703125,-0.890625 1.1132812,-0.890625 0.65625,0 0.796875,0.8085938 0.796875,0.8554688 0,0.046875 -0.011719,0.1054687 -0.023437,0.1523437 z m 6.3808593,-2.4726562 c 0.011719,-0.070312 0.035156,-0.1171875 0.035156,-0.1875 0,-0.1640625 -0.1171875,-0.2695313 -0.2929688,-0.2695313 -0.09375,0 -0.3632812,0.070312 -0.4101562,0.4335938 -0.1757813,-0.375 -0.5273438,-0.6328125 -0.9257813,-0.6328125 -1.1367187,0 -2.3671875,1.3945312 -2.3671875,2.8359375 0,0.98437496 0.609375,1.5703124625 1.3242188,1.5703124625 0.5859375,0 1.0546875,-0.4687500025 1.1601562,-0.5742187525 l 0.011719,0.0117188 c -0.2109375,0.87890625 -0.328125,1.2890625 -0.328125,1.3125 -0.046875,0.0820313 -0.3867188,1.07812509 -1.4414063,1.07812509 -0.1875,0 -0.515625,-0.011719 -0.796875,-0.1054688 0.3046875,-0.09375 0.4101563,-0.3515625 0.4101563,-0.515625 0,-0.1640625 -0.1054688,-0.35156254 -0.375,-0.35156254 -0.2226563,0 -0.5390625,0.17578134 -0.5390625,0.57421884 0,0.4101562 0.3632812,0.609375 1.3242187,0.609375 1.2421875,0 1.9570313,-0.7734375 2.109375,-1.37109384 z m -1.2890625,2.4726562 c -0.058594,0.2578125 -0.2929687,0.51562501 -0.5039062,0.70312501 -0.2109375,0.17578125 -0.5273438,0.3515625 -0.8085938,0.3515625 -0.5039062,0 -0.65625,-0.515625 -0.65625,-0.91406251 0,-0.4804687 0.2929688,-1.6523437 0.5625,-2.15625 0.2695313,-0.4921875 0.703125,-0.890625 1.1132813,-0.890625 0.65625,0 0.796875,0.8085938 0.796875,0.8554688 0,0.046875 -0.011719,0.1054687 -0.023437,0.1523437 z m 0,0"
         style="fill:#000000;fill-opacity:1;fill-rule:nonzero;stroke:none" />
      <path
         id="path42"
         d="m 12.193023,-2.9358828 c 0,-0.1875 -0.01172,-0.1992188 -0.210937,-0.1992188 -0.445313,0.4335938 -1.078125,0.4453125 -1.359375,0.4453125 v 0.2460938 c 0.164062,0 0.621094,0 1.007812,-0.1875 v 3.55078124 c 0,0.23437496 0,0.32812496 -0.691406,0.32812496 h -0.269531 v 0.2460938 c 0.128906,-0.011719 0.984375,-0.023437 1.242187,-0.023437 0.210938,0 1.089844,0.011719 1.242188,0.023437 V 1.2477109 h -0.257813 c -0.703125,0 -0.703125,-0.09375 -0.703125,-0.32812496 z m 0,0"
         style="fill:#000000;fill-opacity:1;fill-rule:nonzero;stroke:none" />
      <path
         id="path43"
         d="m 19.019195,-3.7503359 c 0.01172,-0.070312 0.03516,-0.1171875 0.03516,-0.1875 0,-0.1640625 -0.117188,-0.2695313 -0.292969,-0.2695313 -0.09375,0 -0.363281,0.070312 -0.410156,0.4335938 -0.175782,-0.375 -0.527344,-0.6328125 -0.925782,-0.6328125 -1.136718,0 -2.367187,1.3945312 -2.367187,2.8359375 0,0.98437496 0.609375,1.5703124625 1.324219,1.5703124625 0.585937,0 1.054687,-0.4687500025 1.160156,-0.5742187525 l 0.01172,0.0117188 c -0.210938,0.87890625 -0.328125,1.2890625 -0.328125,1.3125 -0.04687,0.0820313 -0.386719,1.07812509 -1.441407,1.07812509 -0.1875,0 -0.515625,-0.011719 -0.796875,-0.1054688 0.304688,-0.09375 0.410157,-0.3515625 0.410157,-0.515625 0,-0.1640625 -0.105469,-0.35156254 -0.375,-0.35156254 -0.222657,0 -0.539063,0.17578134 -0.539063,0.57421884 0,0.4101562 0.363281,0.609375 1.324219,0.609375 1.242187,0 1.957031,-0.7734375 2.109375,-1.37109384 z m -1.289062,2.4726562 c -0.05859,0.2578125 -0.292969,0.51562501 -0.503906,0.70312501 -0.210938,0.17578125 -0.527344,0.3515625 -0.808594,0.3515625 -0.503906,0 -0.65625,-0.515625 -0.65625,-0.91406251 0,-0.4804687 0.292969,-1.6523437 0.5625,-2.15625 0.269531,-0.4921875 0.703125,-0.890625 1.113281,-0.890625 0.65625,0 0.796875,0.8085938 0.796875,0.8554688 0,0.046875 -0.01172,0.1054687 -0.02344,0.1523437 z m 0,0"
         style="fill:#000000;fill-opacity:1;fill-rule:nonzero;stroke:none" />
      <path
         id="path44"
         d="m 24.632477,-5.6839297 c 0.105468,0 0.269531,0 0.269531,-0.1757812 0,-0.1757813 -0.152344,-0.1757813 -0.269531,-0.1757813 H 20.47232 c -0.105468,0 -0.28125,0 -0.28125,0.1757813 0,0.1757812 0.164063,0.1757812 0.28125,0.1757812 z m 0,0"
         style="fill:#000000;fill-opacity:1;fill-rule:nonzero;stroke:none" />
      <path
         id="path45"
         d="m 27.998688,-8.5433047 c 0,-0.1875 -0.01172,-0.1992187 -0.210938,-0.1992187 -0.445312,0.4335937 -1.078125,0.4453125 -1.359375,0.4453125 v 0.2460937 c 0.164063,0 0.621094,0 1.007813,-0.1875 v 3.5507813 c 0,0.234375 0,0.328125 -0.691407,0.328125 H 26.47525 v 0.2460937 c 0.128906,-0.011719 0.984375,-0.023437 1.242188,-0.023437 0.210937,0 1.089843,0.011719 1.242187,0.023437 v -0.2460937 h -0.257812 c -0.703125,0 -0.703125,-0.09375 -0.703125,-0.328125 z m 0,0"
         style="fill:#000000;fill-opacity:1;fill-rule:nonzero;stroke:none" />
      <path
         id="path46"
         d="m 37.672516,-5.7542422 c 0.09375,-0.3984375 0.269531,-0.7148437 1.066406,-0.7382812 0.05859,0 0.175781,-0.011719 0.175781,-0.1992188 0,-0.011719 0,-0.1171875 -0.128906,-0.1171875 -0.328125,0 -0.679688,0.035156 -1.007813,0.035156 -0.339843,0 -0.691406,-0.035156 -1.019531,-0.035156 -0.05859,0 -0.175781,0 -0.175781,0.1992188 0,0.1171875 0.09375,0.1171875 0.175781,0.1171875 0.574219,0.011719 0.679688,0.2109375 0.679688,0.4335937 0,0.035156 -0.02344,0.1757813 -0.02344,0.2109375 l -1.125,4.4296875 -2.203125,-5.1914062 c -0.07031,-0.1875 -0.08203,-0.1992188 -0.316406,-0.1992188 h -1.335938 c -0.199218,0 -0.28125,0 -0.28125,0.1992188 0,0.1171875 0.08203,0.1171875 0.28125,0.1171875 0.04687,0 0.667969,0 0.667969,0.082031 l -1.335937,5.3554688 c -0.09375,0.39843746 -0.269532,0.71484371 -1.066407,0.74999996 -0.05859,0 -0.175781,0 -0.175781,0.19921875 0,0.0703125 0.04687,0.1054687525 0.128906,0.1054687525 0.316407,0 0.667969,-0.0351562525 0.996094,-0.0351562525 0.339844,0 0.703125,0.0351562525 1.03125,0.0351562525 0.04687,0 0.175781,0 0.175781,-0.1992187525 0,-0.10546875 -0.09375,-0.10546875 -0.199218,-0.10546875 -0.574219,-0.0234375 -0.65625,-0.24609375 -0.65625,-0.4453125 0,-0.0703125 0.01172,-0.1171875 0.03516,-0.22265625 l 1.324219,-5.26171871 c 0.03516,0.058594 0.03516,0.082031 0.08203,0.1757812 l 2.484375,5.87109376 c 0.07031,0.1640625 0.09375,0.1875000025 0.1875,0.1875000025 0.105469,0 0.105469,-0.0351562525 0.164062,-0.2109375025 z m 0,0"
         style="fill:#000000;fill-opacity:1;fill-rule:nonzero;stroke:none" />
    </g>
  </g>
</svg>
