<?xml version="1.0" encoding="UTF-8" standalone="no"?>
<!-- Created with Inkscape (http://www.inkscape.org/) -->

<svg
   version="1.1"
   id="svg1"
   width="421.10666"
   height="201.36"
   viewBox="0 0 421.10666 201.36"
   sodipodi:docname="quotient-and-orbit.pdf"
   xmlns:inkscape="http://www.inkscape.org/namespaces/inkscape"
   xmlns:sodipodi="http://sodipodi.sourceforge.net/DTD/sodipodi-0.dtd"
   xmlns="http://www.w3.org/2000/svg"
   xmlns:svg="http://www.w3.org/2000/svg">
  <defs
     id="defs1" />
  <sodipodi:namedview
     id="namedview1"
     pagecolor="#ffffff"
     bordercolor="#000000"
     borderopacity="0.25"
     inkscape:showpageshadow="2"
     inkscape:pageopacity="0.0"
     inkscape:pagecheckerboard="0"
     inkscape:deskcolor="#d1d1d1">
    <inkscape:page
       x="0"
       y="0"
       inkscape:label="1"
       id="page1"
       width="421.10666"
       height="201.36"
       margin="0"
       bleed="0" />
  </sodipodi:namedview>
  <g
     id="g1"
     inkscape:groupmode="layer"
     inkscape:label="1">
    <path
       id="path1"
       d="m 44.83246,-55.29337 h 105.5356 V -80.99728 H 44.83246 Z"
       style="fill:none;stroke:#000000;stroke-width:0.74721;stroke-linecap:butt;stroke-linejoin:miter;stroke-miterlimit:10;stroke-dasharray:none;stroke-opacity:1"
       transform="matrix(1.3333333,0,0,-1.3333333,-54.854667,-26.796)" />
    <path
       id="path2"
       d="m 44.83246,-80.99728 h 105.5356 v -25.70395 H 44.83246 Z"
       style="fill:none;stroke:#000000;stroke-width:0.74721;stroke-linecap:butt;stroke-linejoin:miter;stroke-miterlimit:10;stroke-dasharray:none;stroke-opacity:1"
       transform="matrix(1.3333333,0,0,-1.3333333,-54.854667,-26.796)" />
    <path
       id="path3"
       d="m 44.83246,-106.70123 h 105.5356 v -25.69649 H 44.83246 Z"
       style="fill:none;stroke:#000000;stroke-width:0.74721;stroke-linecap:butt;stroke-linejoin:miter;stroke-miterlimit:10;stroke-dasharray:none;stroke-opacity:1"
       transform="matrix(1.3333333,0,0,-1.3333333,-54.854667,-26.796)" />
    <path
       id="path4"
       d="m 44.83246,-132.39772 h 105.5356 v -25.70393 H 44.83246 Z"
       style="fill:none;stroke:#000000;stroke-width:0.74721;stroke-linecap:butt;stroke-linejoin:miter;stroke-miterlimit:10;stroke-dasharray:none;stroke-opacity:1"
       transform="matrix(1.3333333,0,0,-1.3333333,-54.854667,-26.796)" />
    <path
       id="path5"
       d="m 44.83246,-29.58942 h 105.5356 V -55.29337 H 44.83246 Z"
       style="fill:none;stroke:#000000;stroke-width:0.74721;stroke-linecap:butt;stroke-linejoin:miter;stroke-miterlimit:10;stroke-dasharray:none;stroke-opacity:1"
       transform="matrix(1.3333333,0,0,-1.3333333,-54.854667,-26.796)" />
    <path
       id="path6"
       d="m 205.4821,-48.5685 c 19.60672,28.09504 87.60262,23.61179 92.08586,-24.9567 4.48325,-48.5685 29.1411,-47.8213 44.08525,-70.23753 14.94416,-22.41623 -106.85069,-16.43857 -132.25575,2.98883 -25.40506,19.4274 -23.52211,64.1104 -3.91536,92.2054 z"
       style="fill:none;stroke:#000000;stroke-width:0.74721;stroke-linecap:butt;stroke-linejoin:miter;stroke-miterlimit:10;stroke-dasharray:none;stroke-opacity:1"
       transform="matrix(1.3333333,0,0,-1.3333333,-54.854667,-26.796)" />
    <path
       id="path7"
       d="m 239.85365,-125.15727 c 0,1.03114 0.83687,1.86801 1.86801,1.86801 1.03114,0 1.86803,-0.83687 1.86803,-1.86801 0,-1.03115 -0.83689,-1.86803 -1.86803,-1.86803 -1.03114,0 -1.86801,0.83688 -1.86801,1.86803 z"
       style="fill:#4a90e2;fill-opacity:1;fill-rule:nonzero;stroke:#4a90e2;stroke-width:0.74721;stroke-linecap:butt;stroke-linejoin:miter;stroke-miterlimit:10;stroke-dasharray:none;stroke-opacity:1"
       transform="matrix(1.3333333,0,0,-1.3333333,-54.854667,-26.796)" />
    <path
       id="path8"
       d="m 225.65671,-102.74104 c 0,1.03114 0.83687,1.86801 1.86801,1.86801 1.03114,0 1.86803,-0.83687 1.86803,-1.86801 0,-1.03115 -0.83689,-1.86803 -1.86803,-1.86803 -1.03114,0 -1.86801,0.83688 -1.86801,1.86803 z"
       style="fill:#4a90e2;fill-opacity:1;fill-rule:nonzero;stroke:#4a90e2;stroke-width:0.74721;stroke-linecap:butt;stroke-linejoin:miter;stroke-miterlimit:10;stroke-dasharray:none;stroke-opacity:1"
       transform="matrix(1.3333333,0,0,-1.3333333,-54.854667,-26.796)" />
    <path
       id="path9"
       d="m 245.0841,-78.08319 c 0,1.03114 0.83687,1.86801 1.86802,1.86801 1.03114,0 1.86802,-0.83687 1.86802,-1.86801 0,-1.03114 -0.83688,-1.86803 -1.86802,-1.86803 -1.03115,0 -1.86802,0.83689 -1.86802,1.86803 z"
       style="fill:#4a90e2;fill-opacity:1;fill-rule:nonzero;stroke:#4a90e2;stroke-width:0.74721;stroke-linecap:butt;stroke-linejoin:miter;stroke-miterlimit:10;stroke-dasharray:none;stroke-opacity:1"
       transform="matrix(1.3333333,0,0,-1.3333333,-54.854667,-26.796)" />
    <path
       id="path10"
       d="m 289.16936,-96.01617 c 0,1.03114 0.83687,1.86801 1.86801,1.86801 1.03114,0 1.86803,-0.83687 1.86803,-1.86801 0,-1.03115 -0.83689,-1.86803 -1.86803,-1.86803 -1.03114,0 -1.86801,0.83688 -1.86801,1.86803 z"
       style="fill:#4a90e2;fill-opacity:1;fill-rule:nonzero;stroke:#4a90e2;stroke-width:0.74721;stroke-linecap:butt;stroke-linejoin:miter;stroke-miterlimit:10;stroke-dasharray:none;stroke-opacity:1"
       transform="matrix(1.3333333,0,0,-1.3333333,-54.854667,-26.796)" />
    <path
       id="path11"
       d="m 293.6526,-126.65169 c 0,1.03115 0.83687,1.86801 1.86801,1.86801 1.03115,0 1.86803,-0.83686 1.86803,-1.86801 0,-1.03114 -0.83688,-1.86802 -1.86803,-1.86802 -1.03114,0 -1.86801,0.83688 -1.86801,1.86802 z"
       style="fill:#4a90e2;fill-opacity:1;fill-rule:nonzero;stroke:#4a90e2;stroke-width:0.74721;stroke-linecap:butt;stroke-linejoin:miter;stroke-miterlimit:10;stroke-dasharray:none;stroke-opacity:1"
       transform="matrix(1.3333333,0,0,-1.3333333,-54.854667,-26.796)" />
    <g
       id="g11"
       aria-label="g&#10;1&#10;G&#10;x"
       transform="matrix(1.3333333,0,0,1.3333333,56.230667,65.470667)">
      <path
         id="path12"
         d="m 4.6873516,-3.7514375 c 0.011719,-0.070312 0.035156,-0.1171875 0.035156,-0.1875 0,-0.1640625 -0.1171875,-0.2695313 -0.2929687,-0.2695313 -0.09375,0 -0.3632813,0.070312 -0.4101563,0.4335938 -0.1757812,-0.375 -0.5273437,-0.6328125 -0.9257812,-0.6328125 -1.1367188,0 -2.36718754,1.3945312 -2.36718754,2.8359375 0,0.984375 0.60937504,1.5703125 1.32421874,1.5703125 0.5859375,0 1.0546875,-0.46875 1.1601563,-0.57421875 l 0.011719,0.0117188 c -0.2109375,0.87890625 -0.328125,1.2890625 -0.328125,1.3125 -0.046875,0.0820313 -0.3867187,1.07812505 -1.4414062,1.07812505 -0.1875,0 -0.51562504,-0.011719 -0.79687504,-0.1054688 0.3046875,-0.09375 0.41015624,-0.3515625 0.41015624,-0.515625 0,-0.1640625 -0.10546874,-0.3515625 -0.37499999,-0.3515625 -0.22265625,0 -0.5390625,0.1757813 -0.5390625,0.5742188 0,0.4101562 0.36328125,0.609375 1.32421879,0.609375 1.2421875,0 1.9570312,-0.7734375 2.109375,-1.3710938 z m -1.2890625,2.4726562 c -0.058594,0.2578125 -0.2929688,0.51562505 -0.5039063,0.70312505 -0.2109375,0.17578125 -0.5273437,0.3515625 -0.8085937,0.3515625 -0.5039063,0 -0.65625,-0.515625 -0.65625,-0.91406255 0,-0.4804687 0.2929687,-1.6523437 0.5625,-2.15625 0.2695312,-0.4921875 0.703125,-0.890625 1.1132812,-0.890625 0.65625,0 0.796875,0.8085938 0.796875,0.8554688 0,0.046875 -0.011719,0.1054687 -0.023437,0.1523437 z m 0,0"
         style="fill:#000000;fill-opacity:1;fill-rule:nonzero;stroke:none" />
      <path
         id="path13"
         d="m 7.0838359,-2.9340547 c 0,-0.1875 -0.011719,-0.1992187 -0.2109375,-0.1992187 -0.4453125,0.4335937 -1.078125,0.4453125 -1.359375,0.4453125 v 0.2460937 c 0.1640625,0 0.6210938,0 1.0078125,-0.1875 v 3.55078126 c 0,0.23437504 0,0.32812504 -0.6914062,0.32812504 H 5.5603984 v 0.2460937 c 0.1289063,-0.011719 0.984375,-0.023437 1.2421875,-0.023437 0.2109375,0 1.0898438,0.011719 1.2421875,0.023437 V 1.2495391 H 7.7869609 c -0.703125,0 -0.703125,-0.09375 -0.703125,-0.32812504 z m 0,0"
         style="fill:#000000;fill-opacity:1;fill-rule:nonzero;stroke:none" />
      <path
         id="path14"
         d="m 16.79282,-6.9272188 c 0,-0.023437 -0.02344,-0.09375 -0.105468,-0.09375 -0.03516,0 -0.04687,0.011719 -0.152344,0.1171875 l -0.703125,0.7617188 c -0.08203,-0.140625 -0.539063,-0.8789063 -1.652344,-0.8789063 -2.214844,0 -4.4531249,2.203125 -4.4531249,4.5117188 0,1.58203125 1.1015629,2.73046875 2.7187499,2.73046875 0.433594,0 0.878906,-0.09375 1.242188,-0.24609375 0.492187,-0.19921875 0.679687,-0.41015625 0.867187,-0.609375 0.08203,0.2578125 0.351563,0.62109375 0.445313,0.62109375 0.04687,0 0.07031,-0.0234375 0.07031,-0.03515625 0.02344,-0.0234375 0.117188,-0.3984375 0.164063,-0.609375 l 0.199218,-0.7734375 c 0.03516,-0.1640625 0.08203,-0.328125 0.128907,-0.5039063 0.105468,-0.4453125 0.117187,-0.46875 0.679687,-0.4804687 0.05859,0 0.164063,-0.011719 0.164063,-0.1992188 0,-0.070312 -0.04687,-0.1054687 -0.128907,-0.1054687 -0.234375,0 -0.820312,0.023437 -1.042968,0.023437 -0.316407,0 -1.089844,-0.023437 -1.394532,-0.023437 -0.09375,0 -0.210937,0 -0.210937,0.1992187 0,0.1054688 0.08203,0.1054688 0.292969,0.1054688 0.01172,0 0.304687,0 0.527343,0.023437 0.257813,0.035156 0.316407,0.058594 0.316407,0.1875 0,0.09375 -0.117188,0.5390625 -0.210938,0.9023437 -0.28125,1.10156255 -1.582031,1.2070313 -1.921875,1.2070313 -0.960937,0 -2.003906,-0.5625 -2.003906,-2.0859375 0,-0.3164063 0.09375,-1.9570313 1.148437,-3.2460938 0.539063,-0.6796875 1.5,-1.2890625 2.484375,-1.2890625 1.019532,0 1.605469,0.7734375 1.605469,1.921875 0,0.3984375 -0.03516,0.4101563 -0.03516,0.5039063 0,0.1054687 0.117187,0.1054687 0.152344,0.1054687 0.128906,0 0.128906,-0.023437 0.175781,-0.1992187 z m 0,0"
         style="fill:#000000;fill-opacity:1;fill-rule:nonzero;stroke:none" />
      <path
         id="path15"
         d="m 18.787938,0.75735156 c -0.07031,0.234375 -0.292969,0.60937504 -0.65625,0.60937504 -0.02344,0 -0.222657,0 -0.375,-0.09375 0.28125,-0.09375 0.304687,-0.33984379 0.304687,-0.38671879 0,-0.15234375 -0.117187,-0.2578125 -0.28125,-0.2578125 -0.1875,0 -0.386719,0.1640625 -0.386719,0.43359379 0,0.3398437 0.386719,0.5039062 0.726563,0.5039062 0.316406,0 0.609375,-0.1992187 0.785156,-0.4921875 0.164063,0.3632813 0.550781,0.4921875 0.820313,0.4921875 0.808593,0 1.230468,-0.86718749 1.230468,-1.06640624 0,-0.09375 -0.09375,-0.09375 -0.105468,-0.09375 -0.105469,0 -0.105469,0.0351563 -0.140625,0.1171875 -0.140625,0.48046874 -0.5625,0.84375004 -0.949219,0.84375004 -0.28125,0 -0.421875,-0.1875 -0.421875,-0.44531254 0,-0.1875 0.164062,-0.8203125 0.363281,-1.59375 0.128906,-0.53906246 0.445313,-0.71484376 0.679688,-0.71484376 0.01172,0 0.222656,0 0.375,0.1054688 -0.222657,0.058594 -0.304688,0.2578125 -0.304688,0.37499996 0,0.15234375 0.117188,0.2578125 0.28125,0.2578125 0.152344,0 0.386719,-0.12890625 0.386719,-0.42187496 0,-0.3867188 -0.445313,-0.5039063 -0.726563,-0.5039063 -0.351562,0 -0.632812,0.2226563 -0.785156,0.4921875 -0.117187,-0.2929687 -0.445312,-0.4921875 -0.832031,-0.4921875 -0.785156,0 -1.230469,0.85546876 -1.230469,1.06640626 0,0.0820312 0.105469,0.0820312 0.117188,0.0820312 0.09375,0 0.105468,-0.0234375 0.140625,-0.1171875 0.175781,-0.53906246 0.609375,-0.84374996 0.949218,-0.84374996 0.234375,0 0.421875,0.1289062 0.421875,0.46874996 0,0.12890625 -0.08203,0.48046875 -0.152343,0.71484375 z m 0,0"
         style="fill:#000000;fill-opacity:1;fill-rule:nonzero;stroke:none" />
    </g>
    <g
       id="g15"
       aria-label="g&#10;2&#10;G&#10;x"
       transform="matrix(1.3333333,0,0,1.3333333,56.230667,99.344)">
      <path
         id="path16"
         d="m 4.6873516,-3.7501875 c 0.011719,-0.070312 0.035156,-0.1171875 0.035156,-0.1875 0,-0.1640625 -0.1171875,-0.2695313 -0.2929687,-0.2695313 -0.09375,0 -0.3632813,0.070312 -0.4101563,0.4335938 -0.1757812,-0.375 -0.5273437,-0.6328125 -0.9257812,-0.6328125 -1.1367188,0 -2.36718754,1.3945312 -2.36718754,2.8359375 0,0.984375 0.60937504,1.5703125 1.32421874,1.5703125 0.5859375,0 1.0546875,-0.46875 1.1601563,-0.57421875 l 0.011719,0.0117188 c -0.2109375,0.87890625 -0.328125,1.2890625 -0.328125,1.3125 -0.046875,0.0820313 -0.3867187,1.07812505 -1.4414062,1.07812505 -0.1875,0 -0.51562504,-0.011719 -0.79687504,-0.1054688 0.3046875,-0.09375 0.41015624,-0.3515625 0.41015624,-0.515625 0,-0.1640625 -0.10546874,-0.3515625 -0.37499999,-0.3515625 -0.22265625,0 -0.5390625,0.1757813 -0.5390625,0.5742188 0,0.4101562 0.36328125,0.609375 1.32421879,0.609375 1.2421875,0 1.9570312,-0.7734375 2.109375,-1.3710938 z m -1.2890625,2.4726562 c -0.058594,0.2578125 -0.2929688,0.51562505 -0.5039063,0.70312505 -0.2109375,0.17578125 -0.5273437,0.3515625 -0.8085937,0.3515625 -0.5039063,0 -0.65625,-0.515625 -0.65625,-0.91406255 0,-0.4804687 0.2929687,-1.6523437 0.5625,-2.15625 0.2695312,-0.4921875 0.703125,-0.890625 1.1132812,-0.890625 0.65625,0 0.796875,0.8085938 0.796875,0.8554688 0,0.046875 -0.011719,0.1054687 -0.023437,0.1523437 z m 0,0"
         style="fill:#000000;fill-opacity:1;fill-rule:nonzero;stroke:none" />
      <path
         id="path17"
         d="m 8.2674297,0.22832812 h -0.234375 c -0.023437,0.15234375 -0.082031,0.5625 -0.1757813,0.6328125 -0.058594,0.0351563 -0.5976562,0.0351563 -0.6914062,0.0351563 H 5.8768047 c 0.7382812,-0.64453125 0.984375,-0.84375 1.3945312,-1.171875 0.515625,-0.41015625 0.9960938,-0.84374992 0.9960938,-1.49999992 0,-0.8437501 -0.7382813,-1.3593751 -1.6289063,-1.3593751 -0.8671875,0 -1.453125,0.609375 -1.453125,1.2421876 0,0.3632812 0.3046875,0.3984375 0.375,0.3984375 0.1640625,0 0.375,-0.1171875 0.375,-0.375 0,-0.1289063 -0.058594,-0.3632814 -0.421875,-0.3632814 0.2226563,-0.5039062 0.6914063,-0.65625 1.0195313,-0.65625 0.703125,0 1.0664062,0.5507813 1.0664062,1.1132813 0,0.609375 -0.4335937,1.08984377 -0.65625,1.33593752 l -1.6875,1.66406248 c -0.070312,0.058594 -0.070312,0.070312 -0.070312,0.2695312 h 2.8828125 z m 0,0"
         style="fill:#000000;fill-opacity:1;fill-rule:nonzero;stroke:none" />
      <path
         id="path18"
         d="m 16.79282,-6.9259688 c 0,-0.023437 -0.02344,-0.09375 -0.105468,-0.09375 -0.03516,0 -0.04687,0.011719 -0.152344,0.1171875 l -0.703125,0.7617188 c -0.08203,-0.140625 -0.539063,-0.8789063 -1.652344,-0.8789063 -2.214844,0 -4.4531249,2.203125 -4.4531249,4.5117188 0,1.58203125 1.1015629,2.73046875 2.7187499,2.73046875 0.433594,0 0.878906,-0.09375 1.242188,-0.24609375 0.492187,-0.19921875 0.679687,-0.41015625 0.867187,-0.609375 0.08203,0.2578125 0.351563,0.62109375 0.445313,0.62109375 0.04687,0 0.07031,-0.0234375 0.07031,-0.03515625 0.02344,-0.0234375 0.117188,-0.3984375 0.164063,-0.609375 l 0.199218,-0.7734375 c 0.03516,-0.1640625 0.08203,-0.328125 0.128907,-0.5039063 0.105468,-0.4453125 0.117187,-0.46875 0.679687,-0.4804687 0.05859,0 0.164063,-0.011719 0.164063,-0.1992188 0,-0.070312 -0.04687,-0.1054687 -0.128907,-0.1054687 -0.234375,0 -0.820312,0.023437 -1.042968,0.023437 -0.316407,0 -1.089844,-0.023437 -1.394532,-0.023437 -0.09375,0 -0.210937,0 -0.210937,0.1992187 0,0.1054688 0.08203,0.1054688 0.292969,0.1054688 0.01172,0 0.304687,0 0.527343,0.023437 0.257813,0.035156 0.316407,0.058594 0.316407,0.1875 0,0.09375 -0.117188,0.5390625 -0.210938,0.9023437 -0.28125,1.10156255 -1.582031,1.2070313 -1.921875,1.2070313 -0.960937,0 -2.003906,-0.5625 -2.003906,-2.0859375 0,-0.3164063 0.09375,-1.9570313 1.148437,-3.2460938 0.539063,-0.6796875 1.5,-1.2890625 2.484375,-1.2890625 1.019532,0 1.605469,0.7734375 1.605469,1.921875 0,0.3984375 -0.03516,0.4101563 -0.03516,0.5039063 0,0.1054687 0.117187,0.1054687 0.152344,0.1054687 0.128906,0 0.128906,-0.023437 0.175781,-0.1992187 z m 0,0"
         style="fill:#000000;fill-opacity:1;fill-rule:nonzero;stroke:none" />
      <path
         id="path19"
         d="m 18.787938,0.75567187 c -0.07031,0.234375 -0.292969,0.60937503 -0.65625,0.60937503 -0.02344,0 -0.222657,0 -0.375,-0.09375 0.28125,-0.09375 0.304687,-0.33984378 0.304687,-0.38671878 0,-0.15234375 -0.117187,-0.2578125 -0.28125,-0.2578125 -0.1875,0 -0.386719,0.1640625 -0.386719,0.43359378 0,0.3398437 0.386719,0.5039062 0.726563,0.5039062 0.316406,0 0.609375,-0.1992187 0.785156,-0.4921875 0.164063,0.3632813 0.550781,0.4921875 0.820313,0.4921875 0.808593,0 1.230468,-0.86718748 1.230468,-1.06640623 0,-0.09375 -0.09375,-0.09375 -0.105468,-0.09375 -0.105469,0 -0.105469,0.0351563 -0.140625,0.1171875 -0.140625,0.48046873 -0.5625,0.84375003 -0.949219,0.84375003 -0.28125,0 -0.421875,-0.1875 -0.421875,-0.44531253 0,-0.1875 0.164062,-0.8203125 0.363281,-1.59375 0.128906,-0.53906247 0.445313,-0.71484377 0.679688,-0.71484377 0.01172,0 0.222656,0 0.375,0.1054688 -0.222657,0.058594 -0.304688,0.2578125 -0.304688,0.37499997 0,0.15234375 0.117188,0.2578125 0.28125,0.2578125 0.152344,0 0.386719,-0.12890625 0.386719,-0.42187497 0,-0.3867188 -0.445313,-0.5039063 -0.726563,-0.5039063 -0.351562,0 -0.632812,0.2226563 -0.785156,0.4921875 -0.117187,-0.2929687 -0.445312,-0.4921875 -0.832031,-0.4921875 -0.785156,0 -1.230469,0.85546877 -1.230469,1.06640627 0,0.0820313 0.105469,0.0820313 0.117188,0.0820313 0.09375,0 0.105468,-0.0234375 0.140625,-0.1171875 0.175781,-0.53906247 0.609375,-0.84374997 0.949218,-0.84374997 0.234375,0 0.421875,0.1289063 0.421875,0.46874997 0,0.12890625 -0.08203,0.48046875 -0.152343,0.71484375 z m 0,0"
         style="fill:#000000;fill-opacity:1;fill-rule:nonzero;stroke:none" />
    </g>
    <g
       id="g19"
       aria-label="g&#10;3&#10;G&#10;x"
       transform="matrix(1.3333333,0,0,1.3333333,56.230667,133.21733)">
      <path
         id="path20"
         d="m 4.6873516,-3.7489375 c 0.011719,-0.070312 0.035156,-0.1171875 0.035156,-0.1875 0,-0.1640625 -0.1171875,-0.2695313 -0.2929687,-0.2695313 -0.09375,0 -0.3632813,0.070312 -0.4101563,0.4335938 -0.1757812,-0.375 -0.5273437,-0.6328125 -0.9257812,-0.6328125 -1.1367188,0 -2.36718754,1.3945312 -2.36718754,2.8359375 0,0.984375 0.60937504,1.5703125 1.32421874,1.5703125 0.5859375,0 1.0546875,-0.46875 1.1601563,-0.57421875 l 0.011719,0.0117188 c -0.2109375,0.87890625 -0.328125,1.2890625 -0.328125,1.3125 -0.046875,0.0820313 -0.3867187,1.07812495 -1.4414062,1.07812495 -0.1875,0 -0.51562504,-0.011719 -0.79687504,-0.1054688 0.3046875,-0.09375 0.41015624,-0.3515625 0.41015624,-0.515625 0,-0.1640625 -0.10546874,-0.3515624 -0.37499999,-0.3515624 -0.22265625,0 -0.5390625,0.1757812 -0.5390625,0.5742187 0,0.4101562 0.36328125,0.6093751 1.32421879,0.6093751 1.2421875,0 1.9570312,-0.7734376 2.109375,-1.3710938 z m -1.2890625,2.4726562 c -0.058594,0.2578125 -0.2929688,0.51562505 -0.5039063,0.70312505 -0.2109375,0.17578125 -0.5273437,0.3515625 -0.8085937,0.3515625 -0.5039063,0 -0.65625,-0.515625 -0.65625,-0.91406255 0,-0.4804687 0.2929687,-1.6523437 0.5625,-2.15625 0.2695312,-0.4921875 0.703125,-0.890625 1.1132812,-0.890625 0.65625,0 0.796875,0.8085938 0.796875,0.8554688 0,0.046875 -0.011719,0.1054687 -0.023437,0.1523437 z m 0,0"
         style="fill:#000000;fill-opacity:1;fill-rule:nonzero;stroke:none" />
      <path
         id="path21"
         d="m 6.6502422,-0.83682813 c 0.5507812,0 0.9375,0.375 0.9375,1.125 0,0.86718753 -0.5039063,1.12500003 -0.9023438,1.12500003 -0.28125,0 -0.890625,-0.082031 -1.1835937,-0.49218753 0.328125,-0.0117188 0.3984375,-0.24609375 0.3984375,-0.38671875 0,-0.22265625 -0.1640625,-0.38671875 -0.3867188,-0.38671875 -0.1875,0 -0.3867187,0.1171875 -0.3867187,0.41015625 0,0.65624998 0.7265625,1.07812498 1.5703125,1.07812498 0.9726562,0 1.640625,-0.64453123 1.640625,-1.34765623 0,-0.5390625 -0.4453125,-1.08984375 -1.21875,-1.2421875 0.7382812,-0.26953127 0.9960937,-0.79687497 0.9960937,-1.21874997 0,-0.5507813 -0.6328125,-0.9609375 -1.40625,-0.9609375 -0.7734375,0 -1.359375,0.375 -1.359375,0.9375 0,0.234375 0.1523438,0.3632812 0.3632813,0.3632812 0.2109375,0 0.3515625,-0.1640625 0.3515625,-0.3515625 0,-0.1992187 -0.140625,-0.3515625 -0.3515625,-0.3632812 0.234375,-0.3046875 0.7148437,-0.3867188 0.9726562,-0.3867188 0.3164063,0 0.7617188,0.1523438 0.7617188,0.7617188 0,0.2929687 -0.1054688,0.609375 -0.28125,0.8320312 -0.234375,0.2578125 -0.421875,0.28125 -0.7734375,0.2929688 -0.1757813,0.023437 -0.1875,0.023437 -0.2226563,0.023437 -0.011719,0 -0.070312,0.011719 -0.070312,0.09375 0,0.09375 0.058594,0.09375 0.1757813,0.09375 z m 0,0"
         style="fill:#000000;fill-opacity:1;fill-rule:nonzero;stroke:none" />
      <path
         id="path22"
         d="m 16.79282,-6.9247188 c 0,-0.023437 -0.02344,-0.09375 -0.105468,-0.09375 -0.03516,0 -0.04687,0.011719 -0.152344,0.1171875 l -0.703125,0.7617188 c -0.08203,-0.140625 -0.539063,-0.8789063 -1.652344,-0.8789063 -2.214844,0 -4.4531249,2.203125 -4.4531249,4.5117188 0,1.58203125 1.1015629,2.73046875 2.7187499,2.73046875 0.433594,0 0.878906,-0.09375 1.242188,-0.24609375 0.492187,-0.19921875 0.679687,-0.41015625 0.867187,-0.609375 0.08203,0.2578125 0.351563,0.62109375 0.445313,0.62109375 0.04687,0 0.07031,-0.0234375 0.07031,-0.03515625 0.02344,-0.0234375 0.117188,-0.3984375 0.164063,-0.609375 l 0.199218,-0.7734375 c 0.03516,-0.1640625 0.08203,-0.328125 0.128907,-0.5039063 0.105468,-0.4453125 0.117187,-0.46875 0.679687,-0.4804687 0.05859,0 0.164063,-0.011719 0.164063,-0.1992188 0,-0.070312 -0.04687,-0.1054687 -0.128907,-0.1054687 -0.234375,0 -0.820312,0.023437 -1.042968,0.023437 -0.316407,0 -1.089844,-0.023437 -1.394532,-0.023437 -0.09375,0 -0.210937,0 -0.210937,0.1992187 0,0.1054688 0.08203,0.1054688 0.292969,0.1054688 0.01172,0 0.304687,0 0.527343,0.023437 0.257813,0.035156 0.316407,0.058594 0.316407,0.1875 0,0.09375 -0.117188,0.5390625 -0.210938,0.9023437 -0.28125,1.10156255 -1.582031,1.2070313 -1.921875,1.2070313 -0.960937,0 -2.003906,-0.5625 -2.003906,-2.0859375 0,-0.3164063 0.09375,-1.9570313 1.148437,-3.2460938 0.539063,-0.6796875 1.5,-1.2890625 2.484375,-1.2890625 1.019532,0 1.605469,0.7734375 1.605469,1.921875 0,0.3984375 -0.03516,0.4101563 -0.03516,0.5039063 0,0.1054687 0.117187,0.1054687 0.152344,0.1054687 0.128906,0 0.128906,-0.023437 0.175781,-0.1992187 z m 0,0"
         style="fill:#000000;fill-opacity:1;fill-rule:nonzero;stroke:none" />
      <path
         id="path23"
         d="m 18.787938,0.75692187 c -0.07031,0.234375 -0.292969,0.60937503 -0.65625,0.60937503 -0.02344,0 -0.222657,0 -0.375,-0.09375 0.28125,-0.09375 0.304687,-0.33984378 0.304687,-0.38671878 0,-0.15234375 -0.117187,-0.2578125 -0.28125,-0.2578125 -0.1875,0 -0.386719,0.1640625 -0.386719,0.43359378 0,0.3398437 0.386719,0.5039062 0.726563,0.5039062 0.316406,0 0.609375,-0.1992187 0.785156,-0.4921875 0.164063,0.3632813 0.550781,0.4921875 0.820313,0.4921875 0.808593,0 1.230468,-0.86718748 1.230468,-1.06640623 0,-0.09375 -0.09375,-0.09375 -0.105468,-0.09375 -0.105469,0 -0.105469,0.0351563 -0.140625,0.1171875 -0.140625,0.48046873 -0.5625,0.84375003 -0.949219,0.84375003 -0.28125,0 -0.421875,-0.1875 -0.421875,-0.44531253 0,-0.1875 0.164062,-0.8203125 0.363281,-1.59375 0.128906,-0.53906247 0.445313,-0.71484377 0.679688,-0.71484377 0.01172,0 0.222656,0 0.375,0.1054688 -0.222657,0.058594 -0.304688,0.2578125 -0.304688,0.37499997 0,0.15234375 0.117188,0.2578125 0.28125,0.2578125 0.152344,0 0.386719,-0.12890625 0.386719,-0.42187497 0,-0.3867188 -0.445313,-0.5039063 -0.726563,-0.5039063 -0.351562,0 -0.632812,0.2226563 -0.785156,0.4921875 -0.117187,-0.2929687 -0.445312,-0.4921875 -0.832031,-0.4921875 -0.785156,0 -1.230469,0.85546877 -1.230469,1.06640627 0,0.0820313 0.105469,0.0820313 0.117188,0.0820313 0.09375,0 0.105468,-0.0234375 0.140625,-0.1171875 0.175781,-0.53906247 0.609375,-0.84374997 0.949218,-0.84374997 0.234375,0 0.421875,0.1289063 0.421875,0.46874997 0,0.12890625 -0.08203,0.48046875 -0.152343,0.71484375 z m 0,0"
         style="fill:#000000;fill-opacity:1;fill-rule:nonzero;stroke:none" />
    </g>
    <g
       id="g23"
       aria-label="g&#10;4&#10;G&#10;x"
       transform="matrix(1.3333333,0,0,1.3333333,56.230667,168.08667)">
      <path
         id="path24"
         d="m 4.6873516,-3.7505469 c 0.011719,-0.070312 0.035156,-0.1171875 0.035156,-0.1875 0,-0.1640625 -0.1171875,-0.2695312 -0.2929687,-0.2695312 -0.09375,0 -0.3632813,0.070312 -0.4101563,0.4335937 -0.1757812,-0.375 -0.5273437,-0.6328125 -0.9257812,-0.6328125 -1.1367188,0 -2.36718754,1.3945313 -2.36718754,2.8359375 0,0.98437503 0.60937504,1.570312525 1.32421874,1.570312525 0.5859375,0 1.0546875,-0.468749995 1.1601563,-0.574218745 l 0.011719,0.0117188 c -0.2109375,0.87890625 -0.328125,1.2890625 -0.328125,1.3125 -0.046875,0.0820313 -0.3867187,1.07812502 -1.4414062,1.07812502 -0.1875,0 -0.51562504,-0.011719 -0.79687504,-0.1054687 0.3046875,-0.09375 0.41015624,-0.3515625 0.41015624,-0.515625 0,-0.1640625 -0.10546874,-0.35156257 -0.37499999,-0.35156257 -0.22265625,0 -0.5390625,0.17578127 -0.5390625,0.57421877 0,0.4101563 0.36328125,0.609375 1.32421879,0.609375 1.2421875,0 1.9570312,-0.7734375 2.109375,-1.37109377 z m -1.2890625,2.4726563 c -0.058594,0.2578125 -0.2929688,0.51562498 -0.5039063,0.70312498 -0.2109375,0.17578125 -0.5273437,0.3515625 -0.8085937,0.3515625 -0.5039063,0 -0.65625,-0.515625 -0.65625,-0.91406248 0,-0.4804688 0.2929687,-1.6523438 0.5625,-2.15625 0.2695312,-0.4921875 0.703125,-0.890625 1.1132812,-0.890625 0.65625,0 0.796875,0.8085937 0.796875,0.8554687 0,0.046875 -0.011719,0.1054688 -0.023437,0.1523438 z m 0,0"
         style="fill:#000000;fill-opacity:1;fill-rule:nonzero;stroke:none" />
      <path
         id="path25"
         d="M 8.4432109,0.34515625 V 0.0990625 H 7.6697734 v -3.1054687 c 0,-0.1523438 0,-0.1992188 -0.1523437,-0.1992188 -0.09375,0 -0.1171875,0 -0.1875,0.09375 L 5.0213359,0.0990625 V 0.34515625 H 7.0721172 V 0.919375 c 0,0.234375 0,0.328125 -0.5625,0.328125 h -0.1875 v 0.2460938 c 0.3515625,-0.011719 0.796875,-0.023437 1.0429687,-0.023437 0.2578125,0 0.703125,0.011719 1.0546875,0.023437 V 1.2475 h -0.1875 c -0.5625,0 -0.5625,-0.09375 -0.5625,-0.328125 V 0.34515625 Z M 7.1189922,-2.455625 V 0.0990625 H 5.2791484 Z m 0,0"
         style="fill:#000000;fill-opacity:1;fill-rule:nonzero;stroke:none" />
      <path
         id="path26"
         d="m 16.79282,-6.9263281 c 0,-0.023437 -0.02344,-0.09375 -0.105468,-0.09375 -0.03516,0 -0.04687,0.011719 -0.152344,0.1171875 l -0.703125,0.7617187 c -0.08203,-0.140625 -0.539063,-0.8789062 -1.652344,-0.8789062 -2.214844,0 -4.4531249,2.203125 -4.4531249,4.5117187 0,1.58203128 1.1015629,2.73046878 2.7187499,2.73046878 0.433594,0 0.878906,-0.09375 1.242188,-0.24609375 0.492187,-0.19921875 0.679687,-0.41015625 0.867187,-0.609375 0.08203,0.2578125 0.351563,0.62109375 0.445313,0.62109375 0.04687,0 0.07031,-0.0234375 0.07031,-0.03515625 0.02344,-0.0234375 0.117188,-0.3984375 0.164063,-0.609375 l 0.199218,-0.77343753 c 0.03516,-0.1640625 0.08203,-0.328125 0.128907,-0.5039062 0.105468,-0.4453125 0.117187,-0.46875 0.679687,-0.4804688 0.05859,0 0.164063,-0.011719 0.164063,-0.1992187 0,-0.070312 -0.04687,-0.1054688 -0.128907,-0.1054688 -0.234375,0 -0.820312,0.023437 -1.042968,0.023437 -0.316407,0 -1.089844,-0.023437 -1.394532,-0.023437 -0.09375,0 -0.210937,0 -0.210937,0.1992188 0,0.1054687 0.08203,0.1054687 0.292969,0.1054687 0.01172,0 0.304687,0 0.527343,0.023437 0.257813,0.035156 0.316407,0.058594 0.316407,0.1875 0,0.09375 -0.117188,0.5390625 -0.210938,0.9023438 -0.28125,1.10156248 -1.582031,1.20703123 -1.921875,1.20703123 -0.960937,0 -2.003906,-0.5625 -2.003906,-2.08593753 0,-0.3164062 0.09375,-1.9570312 1.148437,-3.2460937 0.539063,-0.6796875 1.5,-1.2890625 2.484375,-1.2890625 1.019532,0 1.605469,0.7734375 1.605469,1.921875 0,0.3984375 -0.03516,0.4101562 -0.03516,0.5039062 0,0.1054688 0.117187,0.1054688 0.152344,0.1054688 0.128906,0 0.128906,-0.023437 0.175781,-0.1992188 z m 0,0"
         style="fill:#000000;fill-opacity:1;fill-rule:nonzero;stroke:none" />
      <path
         id="path27"
         d="m 18.787938,0.7553125 c -0.07031,0.234375 -0.292969,0.609375 -0.65625,0.609375 -0.02344,0 -0.222657,0 -0.375,-0.09375 0.28125,-0.09375 0.304687,-0.33984375 0.304687,-0.38671875 0,-0.15234375 -0.117187,-0.2578125 -0.28125,-0.2578125 -0.1875,0 -0.386719,0.1640625 -0.386719,0.43359375 0,0.3398438 0.386719,0.5039063 0.726563,0.5039063 0.316406,0 0.609375,-0.1992188 0.785156,-0.4921875 0.164063,0.3632812 0.550781,0.4921875 0.820313,0.4921875 0.808593,0 1.230468,-0.86718755 1.230468,-1.0664063 0,-0.09375 -0.09375,-0.09375 -0.105468,-0.09375 -0.105469,0 -0.105469,0.0351563 -0.140625,0.1171875 -0.140625,0.4804688 -0.5625,0.84375 -0.949219,0.84375 -0.28125,0 -0.421875,-0.1875 -0.421875,-0.4453125 0,-0.1875 0.164062,-0.8203125 0.363281,-1.59375 0.128906,-0.5390625 0.445313,-0.7148437 0.679688,-0.7148437 0.01172,0 0.222656,0 0.375,0.1054687 -0.222657,0.058594 -0.304688,0.2578125 -0.304688,0.375 0,0.15234375 0.117188,0.2578125 0.28125,0.2578125 0.152344,0 0.386719,-0.12890625 0.386719,-0.421875 0,-0.3867187 -0.445313,-0.5039062 -0.726563,-0.5039062 -0.351562,0 -0.632812,0.2226562 -0.785156,0.4921875 -0.117187,-0.2929688 -0.445312,-0.4921875 -0.832031,-0.4921875 -0.785156,0 -1.230469,0.8554687 -1.230469,1.0664062 0,0.0820312 0.105469,0.0820312 0.117188,0.0820312 0.09375,0 0.105468,-0.0234375 0.140625,-0.1171875 0.175781,-0.5390624 0.609375,-0.8437499 0.949218,-0.8437499 0.234375,0 0.421875,0.1289062 0.421875,0.4687499 0,0.12890625 -0.08203,0.48046875 -0.152343,0.71484375 z m 0,0"
         style="fill:#000000;fill-opacity:1;fill-rule:nonzero;stroke:none" />
    </g>
    <g
       id="g27"
       aria-label="G&#10;x"
       transform="matrix(1.3333333,0,0,1.3333333,66.193333,31.597333)">
      <path
         id="path28"
         d="m 7.5688672,-6.9255391 c 0,-0.023437 -0.023437,-0.09375 -0.1054688,-0.09375 -0.035156,0 -0.046875,0.011719 -0.1523437,0.1171875 l -0.703125,0.7617188 c -0.082031,-0.140625 -0.5390625,-0.8789063 -1.6523438,-0.8789063 -2.2148437,0 -4.45312496,2.203125 -4.45312496,4.5117188 0,1.58203124 1.10156246,2.73046874 2.71874996,2.73046874 0.4335938,0 0.8789063,-0.09375 1.2421875,-0.24609375 0.4921875,-0.19921875 0.6796875,-0.41015625 0.8671875,-0.609375 0.082031,0.2578125 0.3515625,0.62109375 0.4453125,0.62109375 0.046875,0 0.070312,-0.0234375 0.070312,-0.03515625 0.023437,-0.0234375 0.1171875,-0.3984375 0.1640625,-0.609375 L 6.2094922,-1.4294453 c 0.035156,-0.1640625 0.082031,-0.328125 0.1289062,-0.5039063 0.1054688,-0.4453125 0.1171875,-0.46875 0.6796875,-0.4804687 0.058594,0 0.1640625,-0.011719 0.1640625,-0.1992188 0,-0.070312 -0.046875,-0.1054687 -0.1289062,-0.1054687 -0.234375,0 -0.8203125,0.023437 -1.0429688,0.023437 -0.3164062,0 -1.0898437,-0.023437 -1.3945312,-0.023437 -0.09375,0 -0.2109375,0 -0.2109375,0.1992187 0,0.1054688 0.082031,0.1054688 0.2929687,0.1054688 0.011719,0 0.3046875,0 0.5273438,0.023437 0.2578125,0.035156 0.3164062,0.058594 0.3164062,0.1875 0,0.09375 -0.1171875,0.5390625 -0.2109375,0.9023437 -0.28125,1.10156254 -1.5820312,1.20703129 -1.921875,1.20703129 -0.9609375,0 -2.0039062,-0.5625 -2.0039062,-2.08593749 0,-0.3164063 0.09375,-1.9570313 1.1484375,-3.2460938 0.5390625,-0.6796875 1.5,-1.2890625 2.484375,-1.2890625 1.0195312,0 1.6054687,0.7734375 1.6054687,1.921875 0,0.3984375 -0.035156,0.4101563 -0.035156,0.5039063 0,0.1054687 0.1171875,0.1054687 0.1523437,0.1054687 0.1289063,0 0.1289063,-0.023437 0.1757813,-0.1992187 z m 0,0"
         style="fill:#000000;fill-opacity:1;fill-rule:nonzero;stroke:none" />
      <path
         id="path29"
         d="m 9.5669141,0.75610156 c -0.070312,0.234375 -0.2929688,0.60937504 -0.65625,0.60937504 -0.023437,0 -0.2226563,0 -0.375,-0.09375 0.28125,-0.09375 0.3046875,-0.33984379 0.3046875,-0.38671879 0,-0.15234375 -0.1171875,-0.2578125 -0.28125,-0.2578125 -0.1875,0 -0.3867188,0.1640625 -0.3867188,0.43359379 0,0.3398437 0.3867188,0.5039062 0.7265625,0.5039062 0.3164063,0 0.609375,-0.1992187 0.7851563,-0.4921875 0.1640625,0.3632813 0.5507814,0.4921875 0.8203124,0.4921875 0.808594,0 1.230469,-0.86718749 1.230469,-1.06640624 0,-0.09375 -0.09375,-0.09375 -0.105469,-0.09375 -0.105469,0 -0.105469,0.0351563 -0.140625,0.1171875 -0.140625,0.48046874 -0.5625,0.84375004 -0.949219,0.84375004 -0.28125,0 -0.421875,-0.1875 -0.421875,-0.44531254 0,-0.1875 0.164063,-0.8203125 0.363282,-1.59375 0.128906,-0.53906246 0.445312,-0.71484376 0.679687,-0.71484376 0.01172,0 0.222656,0 0.375,0.1054688 -0.222656,0.058594 -0.304687,0.2578125 -0.304687,0.37499996 0,0.15234375 0.117187,0.2578125 0.28125,0.2578125 0.152343,0 0.386718,-0.12890625 0.386718,-0.42187496 0,-0.3867188 -0.445312,-0.5039063 -0.726562,-0.5039063 -0.351563,0 -0.632813,0.2226563 -0.785156,0.4921875 -0.117188,-0.2929687 -0.4453129,-0.4921875 -0.8320317,-0.4921875 -0.7851562,0 -1.2304687,0.85546876 -1.2304687,1.06640626 0,0.0820313 0.1054687,0.0820313 0.1171875,0.0820313 0.09375,0 0.1054687,-0.0234375 0.140625,-0.1171875 0.1757812,-0.53906256 0.609375,-0.84375006 0.9492187,-0.84375006 0.234375,0 0.421875,0.1289063 0.421875,0.46875006 0,0.12890625 -0.082031,0.48046875 -0.1523437,0.71484375 z m 0,0"
         style="fill:#000000;fill-opacity:1;fill-rule:nonzero;stroke:none" />
    </g>
    <path
       id="path30"
       d="m 3.3293906,-3.0129531 c 0.058594,-0.2578125 0.2929688,-1.171875 0.984375,-1.171875 0.046875,0 0.2929688,0 0.5039063,0.1289062 -0.28125,0.046875 -0.4804688,0.3046875 -0.4804688,0.5390625 0,0.1640625 0.1054688,0.3515625 0.375,0.3515625 0.2226563,0 0.5390625,-0.1875 0.5390625,-0.5859375 0,-0.515625 -0.5859375,-0.65625 -0.9257812,-0.65625 -0.5742188,0 -0.9257813,0.5273438 -1.0429688,0.7617188 -0.2578125,-0.65625 -0.7851562,-0.7617188 -1.078125,-0.7617188 -1.0429687,0 -1.60546872,1.2890625 -1.60546872,1.5351563 0,0.1054687 0.10546875,0.1054687 0.1171875,0.1054687 0.0820313,0 0.1171875,-0.023437 0.12890625,-0.1171875 0.33984377,-1.0546875 0.99609377,-1.3007812 1.33593747,-1.3007812 0.1875,0 0.5390625,0.09375 0.5390625,0.6679687 0,0.3046875 -0.1640625,0.9726563 -0.5390625,2.3671875 -0.1523437,0.62109377 -0.5039062,1.04296877 -0.9492187,1.04296877 -0.058594,0 -0.28125002,0 -0.49218752,-0.12890625 0.24609375,-0.0585937 0.46875002,-0.26953125 0.46875002,-0.5390625 0,-0.26953122 -0.22265627,-0.35156252 -0.37500002,-0.35156252 -0.29296875,0 -0.5390625,0.25781252 -0.5390625,0.57421877 0,0.45703125 0.4921875,0.65625 0.93750002,0.65625 0.65625,0 1.0078125,-0.69140625 1.0429687,-0.75 0.1171875,0.36328125 0.4804688,0.75 1.078125,0.75 1.0195313,0 1.59375,-1.27734377 1.59375,-1.53515627 0,-0.09375 -0.09375,-0.09375 -0.1289062,-0.09375 -0.082031,0 -0.1054688,0.035156 -0.1289063,0.1054688 -0.328125,1.06640622 -0.9960937,1.31249997 -1.3242187,1.31249997 -0.3867188,0 -0.5390625,-0.328125 -0.5390625,-0.65625 0,-0.22265625 0.058594,-0.44531247 0.1640625,-0.87890627 z m 0,0"
       style="fill:#4a90e2;fill-opacity:1;fill-rule:nonzero;stroke:none"
       aria-label="x"
       transform="matrix(1.3333333,0,0,1.3333333,270.928,150.68133)" />
    <g
       id="g30"
       aria-label="g&#10;1&#10;路x"
       transform="matrix(1.3333333,0,0,1.3333333,215.544,102.728)">
      <path
         id="path31"
         d="m 4.6867266,-3.7510781 c 0.011719,-0.070312 0.035156,-0.1171875 0.035156,-0.1875 0,-0.1640625 -0.1171875,-0.2695313 -0.2929687,-0.2695313 -0.09375,0 -0.3632813,0.070312 -0.4101563,0.4335938 -0.1757812,-0.375 -0.5273437,-0.6328125 -0.9257812,-0.6328125 -1.1367188,0 -2.36718754,1.3945312 -2.36718754,2.8359375 0,0.98437497 0.60937504,1.57031247 1.32421874,1.57031247 0.5859375,0 1.0546875,-0.46875 1.1601563,-0.57421875 l 0.011719,0.0117188 c -0.2109375,0.87890625 -0.328125,1.2890625 -0.328125,1.3125 C 2.8468829,0.83095322 2.5070392,1.827047 1.4523517,1.827047 c -0.1875,0 -0.51562504,-0.011719 -0.79687504,-0.1054688 0.3046875,-0.09375 0.41015624,-0.3515625 0.41015624,-0.515625 0,-0.1640625 -0.10546874,-0.35156253 -0.37499999,-0.35156253 -0.22265625,0 -0.5390625,0.17578133 -0.5390625,0.57421883 0,0.4101562 0.36328125,0.609375 1.32421879,0.609375 1.2421875,0 1.9570312,-0.7734375 2.109375,-1.37109383 z m -1.2890625,2.4726562 c -0.058594,0.2578125 -0.2929688,0.51562502 -0.5039063,0.70312502 -0.2109375,0.17578125 -0.5273437,0.3515625 -0.8085937,0.3515625 -0.5039063,0 -0.65625,-0.515625 -0.65625,-0.91406252 0,-0.4804687 0.2929687,-1.6523437 0.5625,-2.15625 0.2695312,-0.4921875 0.703125,-0.890625 1.1132812,-0.890625 0.65625,0 0.796875,0.8085938 0.796875,0.8554688 0,0.046875 -0.011719,0.1054687 -0.023437,0.1523437 z m 0,0"
         style="fill:#4a90e2;fill-opacity:1;fill-rule:nonzero;stroke:none" />
      <path
         id="path32"
         d="m 7.0832109,-2.9336953 c 0,-0.1875 -0.011719,-0.1992188 -0.2109375,-0.1992188 -0.4453125,0.4335938 -1.078125,0.4453125 -1.359375,0.4453125 v 0.2460938 c 0.1640625,0 0.6210938,0 1.0078125,-0.1875 v 3.55078124 c 0,0.23437496 0,0.32812496 -0.6914062,0.32812496 H 5.5597734 v 0.2460938 c 0.1289063,-0.011719 0.984375,-0.023437 1.2421875,-0.023437 0.2109375,0 1.0898438,0.011719 1.2421875,0.023437 V 1.2498984 H 7.7863359 c -0.703125,0 -0.703125,-0.09375 -0.703125,-0.32812496 z m 0,0"
         style="fill:#4a90e2;fill-opacity:1;fill-rule:nonzero;stroke:none" />
      <path
         id="path33"
         d="m 13.343953,-2.4971719 c 0,-0.28125 -0.234375,-0.5273437 -0.527344,-0.5273437 -0.28125,0 -0.527343,0.2460937 -0.527343,0.5273437 0,0.2929688 0.246093,0.5390625 0.527343,0.5390625 0.292969,0 0.527344,-0.2460937 0.527344,-0.5390625 z m 0,0"
         style="fill:#4a90e2;fill-opacity:1;fill-rule:nonzero;stroke:none" />
      <path
         id="path34"
         d="m 19.74532,-3.0127969 c 0.05859,-0.2578125 0.292969,-1.171875 0.984375,-1.171875 0.04687,0 0.292969,0 0.503907,0.1289063 -0.28125,0.046875 -0.480469,0.3046875 -0.480469,0.5390625 0,0.1640625 0.105469,0.3515625 0.375,0.3515625 0.222656,0 0.539062,-0.1875 0.539062,-0.5859375 0,-0.515625 -0.585937,-0.65625 -0.925781,-0.65625 -0.574219,0 -0.925781,0.5273437 -1.042969,0.7617187 -0.257812,-0.65625 -0.785156,-0.7617187 -1.078125,-0.7617187 -1.042968,0 -1.605468,1.2890625 -1.605468,1.5351562 0,0.1054688 0.105468,0.1054688 0.117187,0.1054688 0.08203,0 0.117188,-0.023437 0.128906,-0.1171875 0.339844,-1.0546875 0.996094,-1.3007813 1.335938,-1.3007813 0.1875,0 0.539062,0.09375 0.539062,0.6679688 0,0.3046875 -0.164062,0.9726562 -0.539062,2.3671875 -0.152344,0.62109372 -0.503906,1.04296872 -0.949219,1.04296872 -0.05859,0 -0.28125,0 -0.492187,-0.12890625 0.246093,-0.0585938 0.46875,-0.26953125 0.46875,-0.5390625 0,-0.26953127 -0.222657,-0.35156247 -0.375,-0.35156247 -0.292969,0 -0.539063,0.25781247 -0.539063,0.57421872 0,0.45703125 0.492188,0.65625 0.9375,0.65625 0.65625,0 1.007813,-0.69140625 1.042969,-0.75 0.117187,0.36328125 0.480469,0.75 1.078125,0.75 1.019531,0 1.59375,-1.27734372 1.59375,-1.53515622 0,-0.09375 -0.09375,-0.09375 -0.128906,-0.09375 -0.08203,0 -0.105469,0.035156 -0.128907,0.1054687 -0.328125,1.06640627 -0.996093,1.31250002 -1.324218,1.31250002 -0.386719,0 -0.539063,-0.328125 -0.539063,-0.65625 0,-0.22265625 0.05859,-0.44531252 0.164063,-0.87890622 z m 0,0"
         style="fill:#4a90e2;fill-opacity:1;fill-rule:nonzero;stroke:none" />
    </g>
    <g
       id="g34"
       aria-label="g&#10;2&#10;路x"
       transform="matrix(1.3333333,0,0,1.3333333,241.44667,69.850667)">
      <path
         id="path35"
         d="m 4.6864844,-3.7493281 c 0.011719,-0.070312 0.035156,-0.1171875 0.035156,-0.1875 0,-0.1640625 -0.1171875,-0.2695313 -0.2929687,-0.2695313 -0.09375,0 -0.3632813,0.070312 -0.4101563,0.4335938 -0.1757812,-0.375 -0.5273437,-0.6328125 -0.9257812,-0.6328125 -1.1367188,0 -2.36718752,1.3945312 -2.36718752,2.8359375 0,0.98437497 0.60937502,1.570312475 1.32421872,1.570312475 0.5859375,0 1.0546875,-0.468750005 1.1601563,-0.574218755 l 0.011719,0.0117188 c -0.2109375,0.87890625 -0.328125,1.2890625 -0.328125,1.3125 C 2.8466407,0.83270322 2.506797,1.828797 1.4521095,1.828797 c -0.1875,0 -0.51562502,-0.011719 -0.79687502,-0.1054688 0.3046875,-0.09375 0.41015622,-0.3515625 0.41015622,-0.515625 0,-0.1640625 -0.10546872,-0.35156253 -0.37499997,-0.35156253 -0.22265625,0 -0.5390625,0.17578133 -0.5390625,0.57421883 0,0.4101562 0.36328125,0.609375 1.32421877,0.609375 1.2421875,0 1.9570312,-0.7734375 2.109375,-1.37109383 z m -1.2890625,2.4726562 c -0.058594,0.2578125 -0.2929688,0.51562502 -0.5039063,0.70312502 -0.2109375,0.17578125 -0.5273437,0.3515625 -0.8085937,0.3515625 -0.5039063,0 -0.65625,-0.515625 -0.65625,-0.91406252 0,-0.4804687 0.2929687,-1.6523437 0.5625,-2.15625 0.2695312,-0.4921875 0.703125,-0.890625 1.1132812,-0.890625 0.65625,0 0.796875,0.8085938 0.796875,0.8554688 0,0.046875 -0.011719,0.1054687 -0.023437,0.1523437 z m 0,0"
         style="fill:#4a90e2;fill-opacity:1;fill-rule:nonzero;stroke:none" />
      <path
         id="path36"
         d="M 8.2665625,0.2291875 H 8.0321875 C 8.00875,0.38153125 7.9501563,0.7916875 7.8564063,0.862 7.7978125,0.89715625 7.25875,0.89715625 7.165,0.89715625 H 5.8759375 c 0.7382813,-0.64453125 0.984375,-0.84375 1.3945313,-1.171875 0.515625,-0.41015625 0.9960937,-0.84375005 0.9960937,-1.50000005 0,-0.84375 -0.7382812,-1.359375 -1.6289062,-1.359375 -0.8671875,0 -1.453125,0.609375 -1.453125,1.2421875 0,0.3632813 0.3046875,0.3984375 0.375,0.3984375 0.1640625,0 0.375,-0.1171875 0.375,-0.375 0,-0.1289062 -0.058594,-0.3632812 -0.421875,-0.3632812 0.2226562,-0.5039063 0.6914062,-0.65625 1.0195312,-0.65625 0.703125,0 1.0664063,0.5507812 1.0664063,1.1132812 0,0.609375 -0.4335938,1.0898438 -0.65625,1.33593755 l -1.6875,1.66406245 c -0.070312,0.058594 -0.070312,0.070312 -0.070312,0.2695313 h 2.8828125 z m 0,0"
         style="fill:#4a90e2;fill-opacity:1;fill-rule:nonzero;stroke:none" />
      <path
         id="path37"
         d="m 13.343711,-2.4954219 c 0,-0.28125 -0.234375,-0.5273437 -0.527344,-0.5273437 -0.28125,0 -0.527344,0.2460937 -0.527344,0.5273437 0,0.2929688 0.246094,0.5390625 0.527344,0.5390625 0.292969,0 0.527344,-0.2460937 0.527344,-0.5390625 z m 0,0"
         style="fill:#4a90e2;fill-opacity:1;fill-rule:nonzero;stroke:none" />
      <path
         id="path38"
         d="m 19.745078,-3.0110469 c 0.05859,-0.2578125 0.292969,-1.171875 0.984375,-1.171875 0.04687,0 0.292969,0 0.503906,0.1289063 -0.28125,0.046875 -0.480468,0.3046875 -0.480468,0.5390625 0,0.1640625 0.105468,0.3515625 0.375,0.3515625 0.222656,0 0.539062,-0.1875 0.539062,-0.5859375 0,-0.515625 -0.585937,-0.65625 -0.925781,-0.65625 -0.574219,0 -0.925781,0.5273437 -1.042969,0.7617187 -0.257812,-0.65625 -0.785156,-0.7617187 -1.078125,-0.7617187 -1.042969,0 -1.605469,1.2890625 -1.605469,1.5351562 0,0.1054688 0.105469,0.1054688 0.117188,0.1054688 0.08203,0 0.117187,-0.023437 0.128906,-0.1171875 0.339844,-1.0546875 0.996094,-1.3007813 1.335938,-1.3007813 0.1875,0 0.539062,0.09375 0.539062,0.6679688 0,0.3046875 -0.164062,0.9726562 -0.539062,2.3671875 -0.152344,0.62109372 -0.503907,1.04296872 -0.949219,1.04296872 -0.05859,0 -0.28125,0 -0.492188,-0.12890625 0.246094,-0.0585937 0.46875,-0.26953125 0.46875,-0.5390625 0,-0.26953127 -0.222656,-0.35156247 -0.375,-0.35156247 -0.292968,0 -0.539062,0.25781247 -0.539062,0.57421872 0,0.45703125 0.492187,0.65625 0.9375,0.65625 0.65625,0 1.007812,-0.69140625 1.042969,-0.75 0.117187,0.36328125 0.480468,0.75 1.078125,0.75 1.019531,0 1.59375,-1.27734372 1.59375,-1.53515622 0,-0.09375 -0.09375,-0.09375 -0.128907,-0.09375 -0.08203,0 -0.105468,0.035156 -0.128906,0.1054687 -0.328125,1.06640627 -0.996094,1.31250002 -1.324219,1.31250002 -0.386718,0 -0.539062,-0.328125 -0.539062,-0.65625 0,-0.22265625 0.05859,-0.44531252 0.164062,-0.87890622 z m 0,0"
         style="fill:#4a90e2;fill-opacity:1;fill-rule:nonzero;stroke:none" />
    </g>
    <g
       id="g38"
       aria-label="g&#10;3&#10;路x"
       transform="matrix(1.3333333,0,0,1.3333333,300.228,93.761333)">
      <path
         id="path39"
         d="m 4.6864219,-3.7497109 c 0.011719,-0.070312 0.035156,-0.1171875 0.035156,-0.1875 0,-0.1640625 -0.1171875,-0.2695313 -0.2929687,-0.2695313 -0.09375,0 -0.3632813,0.070312 -0.4101563,0.4335938 -0.1757812,-0.375 -0.5273437,-0.6328125 -0.9257812,-0.6328125 -1.1367188,0 -2.36718752,1.3945312 -2.36718752,2.8359375 0,0.98437496 0.60937502,1.5703124625 1.32421872,1.5703124625 0.5859375,0 1.0546875,-0.4687500025 1.1601563,-0.5742187525 l 0.011719,0.0117188 c -0.2109375,0.87890625 -0.328125,1.2890625 -0.328125,1.3125 -0.046875,0.0820313 -0.3867187,1.07812499 -1.4414062,1.07812499 -0.1875,0 -0.51562502,-0.011719 -0.79687502,-0.1054688 0.3046875,-0.09375 0.41015622,-0.3515625 0.41015622,-0.515625 0,-0.1640625 -0.10546872,-0.35156244 -0.37499997,-0.35156244 -0.22265625,0 -0.5390625,0.17578124 -0.5390625,0.57421874 0,0.4101563 0.36328125,0.6093751 1.32421877,0.6093751 1.2421875,0 1.9570312,-0.7734376 2.109375,-1.37109384 z m -1.2890625,2.4726562 c -0.058594,0.2578125 -0.2929688,0.51562501 -0.5039063,0.70312501 -0.2109375,0.17578125 -0.5273437,0.3515625 -0.8085937,0.3515625 -0.5039063,0 -0.65625,-0.515625 -0.65625,-0.91406251 0,-0.4804687 0.2929687,-1.6523437 0.5625,-2.15625 0.2695312,-0.4921875 0.703125,-0.890625 1.1132812,-0.890625 0.65625,0 0.796875,0.8085938 0.796875,0.8554688 0,0.046875 -0.011719,0.1054687 -0.023437,0.1523437 z m 0,0"
         style="fill:#4a90e2;fill-opacity:1;fill-rule:nonzero;stroke:none" />
      <path
         id="path40"
         d="m 6.6493125,-0.83760156 c 0.5507813,0 0.9375,0.375 0.9375,1.125 0,0.86718746 -0.5039062,1.12499996 -0.9023437,1.12499996 -0.28125,0 -0.890625,-0.082031 -1.1835938,-0.49218746 C 5.829,0.90849219 5.8993125,0.67411719 5.8993125,0.53349219 c 0,-0.22265625 -0.1640625,-0.38671875 -0.3867187,-0.38671875 -0.1875,0 -0.3867188,0.1171875 -0.3867188,0.41015625 0,0.65625001 0.7265625,1.07812501 1.5703125,1.07812501 0.9726563,0 1.640625,-0.64453126 1.640625,-1.34765626 0,-0.5390625 -0.4453125,-1.08984375 -1.21875,-1.2421875 0.7382813,-0.26953124 0.9960938,-0.79687504 0.9960938,-1.21875004 0,-0.5507812 -0.6328125,-0.9609375 -1.40625,-0.9609375 -0.7734375,0 -1.359375,0.375 -1.359375,0.9375 0,0.234375 0.1523437,0.3632813 0.3632812,0.3632813 0.2109375,0 0.3515625,-0.1640625 0.3515625,-0.3515625 0,-0.1992188 -0.140625,-0.3515625 -0.3515625,-0.3632813 0.234375,-0.3046875 0.7148438,-0.3867187 0.9726563,-0.3867187 0.3164062,0 0.7617187,0.1523437 0.7617187,0.7617187 0,0.2929688 -0.1054687,0.609375 -0.28125,0.8320313 -0.234375,0.2578125 -0.421875,0.28125 -0.7734375,0.2929687 -0.1757812,0.023437 -0.1875,0.023437 -0.2226562,0.023437 -0.011719,0 -0.070312,0.011719 -0.070312,0.09375 0,0.09375 0.058594,0.09375 0.1757812,0.09375 z m 0,0"
         style="fill:#4a90e2;fill-opacity:1;fill-rule:nonzero;stroke:none" />
      <path
         id="path41"
         d="m 13.346578,-2.4958047 c 0,-0.28125 -0.234375,-0.5273437 -0.527344,-0.5273437 -0.28125,0 -0.527343,0.2460937 -0.527343,0.5273437 0,0.2929688 0.246093,0.5390625 0.527343,0.5390625 0.292969,0 0.527344,-0.2460937 0.527344,-0.5390625 z m 0,0"
         style="fill:#4a90e2;fill-opacity:1;fill-rule:nonzero;stroke:none" />
      <path
         id="path42"
         d="m 19.745016,-3.0114297 c 0.05859,-0.2578125 0.292968,-1.171875 0.984375,-1.171875 0.04687,0 0.292968,0 0.503906,0.1289063 -0.28125,0.046875 -0.480469,0.3046875 -0.480469,0.5390625 0,0.1640625 0.105469,0.3515625 0.375,0.3515625 0.222656,0 0.539063,-0.1875 0.539063,-0.5859375 0,-0.515625 -0.585938,-0.65625 -0.925782,-0.65625 -0.574218,0 -0.925781,0.5273437 -1.042968,0.7617187 -0.257813,-0.65625 -0.785157,-0.7617187 -1.078125,-0.7617187 -1.042969,0 -1.605469,1.2890625 -1.605469,1.5351562 0,0.1054688 0.105469,0.1054688 0.117187,0.1054688 0.08203,0 0.117188,-0.023437 0.128907,-0.1171875 0.339843,-1.0546875 0.996093,-1.3007813 1.335937,-1.3007813 0.1875,0 0.539063,0.09375 0.539063,0.6679688 0,0.3046875 -0.164063,0.9726562 -0.539063,2.3671875 -0.152344,0.62109371 -0.503906,1.04296871 -0.949219,1.04296871 -0.05859,0 -0.28125,0 -0.492187,-0.12890625 0.246094,-0.0585938 0.46875,-0.26953125 0.46875,-0.5390625 0,-0.26953126 -0.222656,-0.35156246 -0.375,-0.35156246 -0.292969,0 -0.539063,0.25781246 -0.539063,0.57421871 0,0.45703125 0.492188,0.65625 0.9375,0.65625 0.65625,0 1.007813,-0.69140625 1.042969,-0.75 0.117188,0.36328125 0.480469,0.75 1.078125,0.75 1.019531,0 1.59375,-1.27734371 1.59375,-1.53515621 0,-0.09375 -0.09375,-0.09375 -0.128906,-0.09375 -0.08203,0 -0.105469,0.035156 -0.128906,0.1054687 -0.328125,1.06640626 -0.996094,1.31250001 -1.324219,1.31250001 -0.386719,0 -0.539063,-0.328125 -0.539063,-0.65625 0,-0.22265625 0.05859,-0.44531251 0.164063,-0.87890621 z m 0,0"
         style="fill:#4a90e2;fill-opacity:1;fill-rule:nonzero;stroke:none" />
    </g>
    <g
       id="g42"
       aria-label="g&#10;4&#10;路x"
       transform="matrix(1.3333333,0,0,1.3333333,306.20533,134.608)">
      <path
         id="path43"
         d="m 4.6887734,-3.7489688 c 0.011719,-0.070312 0.035156,-0.1171875 0.035156,-0.1875 0,-0.1640625 -0.1171875,-0.2695312 -0.2929688,-0.2695312 -0.09375,0 -0.3632812,0.070312 -0.4101562,0.4335937 -0.1757813,-0.375 -0.5273438,-0.6328125 -0.9257813,-0.6328125 -1.1367187,0 -2.36718746,1.3945313 -2.36718746,2.8359375 0,0.98437505 0.60937496,1.57031255 1.32421876,1.57031255 0.5859375,0 1.0546875,-0.46875 1.1601562,-0.57421875 l 0.011719,0.0117188 c -0.2109375,0.87890625 -0.328125,1.2890625 -0.328125,1.3125 -0.046875,0.0820313 -0.3867188,1.078125 -1.4414063,1.078125 -0.1875,0 -0.51562496,-0.011719 -0.79687496,-0.1054688 C 0.96221094,1.6299375 1.0676797,1.372125 1.0676797,1.2080625 1.0676797,1.044 0.96221094,0.8565 0.69267969,0.8565 c -0.22265625,0 -0.5390625,0.1757812 -0.5390625,0.5742187 0,0.4101563 0.36328125,0.609375 1.32421871,0.609375 1.2421875,0 1.9570313,-0.7734375 2.109375,-1.3710937 z m -1.2890625,2.4726563 c -0.058594,0.2578125 -0.2929687,0.515625 -0.5039062,0.703125 -0.2109375,0.17578125 -0.5273438,0.3515625 -0.8085938,0.3515625 -0.5039062,0 -0.65625,-0.515625 -0.65625,-0.9140625 0,-0.4804688 0.2929688,-1.6523438 0.5625,-2.15625 0.2695313,-0.4921875 0.703125,-0.890625 1.1132813,-0.890625 0.65625,0 0.796875,0.8085937 0.796875,0.8554687 0,0.046875 -0.011719,0.1054688 -0.023437,0.1523438 z m 0,0"
         style="fill:#4a90e2;fill-opacity:1;fill-rule:nonzero;stroke:none" />
      <path
         id="path44"
         d="M 8.4446328,0.34673437 V 0.10064062 H 7.6711953 V -3.0048281 c 0,-0.1523438 0,-0.1992188 -0.1523437,-0.1992188 -0.09375,0 -0.1171875,0 -0.1875,0.09375 L 5.0227578,0.10064062 v 0.24609375 h 2.0507813 v 0.57421875 c 0,0.23437498 0,0.32812498 -0.5625,0.32812498 h -0.1875 v 0.2460938 c 0.3515625,-0.011719 0.796875,-0.023437 1.0429687,-0.023437 0.2578125,0 0.703125,0.011719 1.0546875,0.023437 V 1.2490781 h -0.1875 c -0.5625,0 -0.5625,-0.09375 -0.5625,-0.32812498 V 0.34673437 Z M 7.1204141,-2.4540469 V 0.10064062 H 5.2805703 Z m 0,0"
         style="fill:#4a90e2;fill-opacity:1;fill-rule:nonzero;stroke:none" />
      <path
         id="path45"
         d="m 13.346,-2.4950625 c 0,-0.28125 -0.234375,-0.5273438 -0.527344,-0.5273438 -0.28125,0 -0.527343,0.2460938 -0.527343,0.5273438 0,0.2929687 0.246093,0.5390625 0.527343,0.5390625 0.292969,0 0.527344,-0.2460938 0.527344,-0.5390625 z m 0,0"
         style="fill:#4a90e2;fill-opacity:1;fill-rule:nonzero;stroke:none" />
      <path
         id="path46"
         d="m 19.744438,-3.0106875 c 0.05859,-0.2578125 0.292968,-1.171875 0.984375,-1.171875 0.04687,0 0.292968,0 0.503906,0.1289062 -0.28125,0.046875 -0.480469,0.3046875 -0.480469,0.5390625 0,0.1640625 0.105469,0.3515625 0.375,0.3515625 0.222656,0 0.539063,-0.1875 0.539063,-0.5859375 0,-0.515625 -0.585938,-0.65625 -0.925782,-0.65625 -0.574218,0 -0.925781,0.5273438 -1.042968,0.7617188 -0.257813,-0.65625 -0.785157,-0.7617188 -1.078125,-0.7617188 -1.042969,0 -1.605469,1.2890625 -1.605469,1.5351563 0,0.1054687 0.105469,0.1054687 0.117187,0.1054687 0.08203,0 0.117188,-0.023437 0.128907,-0.1171875 0.339843,-1.0546875 0.996093,-1.3007812 1.335937,-1.3007812 0.1875,0 0.539063,0.09375 0.539063,0.6679687 0,0.3046875 -0.164063,0.9726563 -0.539063,2.3671875 -0.152344,0.6210938 -0.503906,1.0429688 -0.949219,1.0429688 -0.05859,0 -0.28125,0 -0.492187,-0.12890625 0.246094,-0.0585938 0.46875,-0.26953125 0.46875,-0.5390625 0,-0.26953125 -0.222656,-0.35156255 -0.375,-0.35156255 -0.292969,0 -0.539063,0.25781255 -0.539063,0.5742188 0,0.45703125 0.492188,0.65625 0.9375,0.65625 0.65625,0 1.007813,-0.69140625 1.042969,-0.75 0.117188,0.36328125 0.480469,0.75 1.078125,0.75 1.019531,0 1.59375,-1.2773438 1.59375,-1.5351563 0,-0.09375 -0.09375,-0.09375 -0.128906,-0.09375 -0.08203,0 -0.105469,0.035156 -0.128906,0.1054688 -0.328125,1.06640625 -0.996094,1.3125 -1.324219,1.3125 -0.386719,0 -0.539063,-0.328125 -0.539063,-0.65625 0,-0.22265625 0.05859,-0.4453125 0.164063,-0.8789063 z m 0,0"
         style="fill:#4a90e2;fill-opacity:1;fill-rule:nonzero;stroke:none" />
    </g>
    <g
       id="g46"
       aria-label="O&#10;x"
       transform="matrix(1.3333333,0,0,1.3333333,251.5,198.37333)">
      <path
         id="path47"
         d="m 7.734375,-4.8034375 c 0,-1.265625 -0.5507812,-2.2148438 -1.7695312,-2.2148438 -1.03125,0 -1.9101563,0.8320313 -1.9804688,0.890625 -0.796875,0.7851563 -1.0898437,1.6875 -1.0898437,1.7109375 0,0.058594 0.046875,0.070312 0.09375,0.070312 0.1875,0 0.3515625,-0.1054687 0.5039062,-0.2109375 0.1757813,-0.1289062 0.1875,-0.1640625 0.2929688,-0.3867187 0.09375,-0.1992188 0.3164062,-0.6914063 0.6914062,-1.1132813 0.234375,-0.2695312 0.4335938,-0.421875 0.8320313,-0.421875 0.9726562,0 1.5820312,0.796875 1.5820312,2.109375 0,2.0273438 -1.4414062,4.0429688 -3.28125,4.0429688 -1.4179687,0 -2.1914062,-1.125 -2.1914062,-2.5546875 0,-1.3476563 0.6914062,-2.8476563 2.1445312,-3.703125 0.1054688,-0.058594 0.3984375,-0.234375 0.3984375,-0.3632813 0,-0.070312 -0.070312,-0.070312 -0.09375,-0.070312 -0.3515625,0 -3.3046875,1.5820313 -3.3046875,4.5703125 0,1.3945313 0.7382813,2.67187505 2.390625,2.67187505 1.9335938,0 4.78125,-1.95703125 4.78125,-5.02734375 z m 0,0"
         style="fill:#4a90e2;fill-opacity:1;fill-rule:nonzero;stroke:none" />
      <path
         id="path48"
         d="m 9.6650391,0.75710937 c -0.070312,0.234375 -0.2929688,0.60937503 -0.65625,0.60937503 -0.023437,0 -0.2226563,0 -0.375,-0.09375 0.28125,-0.09375 0.3046875,-0.33984378 0.3046875,-0.38671878 0,-0.15234375 -0.1171875,-0.2578125 -0.28125,-0.2578125 -0.1875,0 -0.3867188,0.1640625 -0.3867188,0.43359378 0,0.3398437 0.3867188,0.5039062 0.7265625,0.5039062 0.3164063,0 0.609375,-0.1992187 0.7851563,-0.4921875 0.1640625,0.3632813 0.5507814,0.4921875 0.8203124,0.4921875 0.808594,0 1.230469,-0.86718748 1.230469,-1.06640623 0,-0.09375 -0.09375,-0.09375 -0.105469,-0.09375 -0.105469,0 -0.105469,0.0351563 -0.140625,0.1171875 -0.140625,0.48046873 -0.5625,0.84375003 -0.949219,0.84375003 -0.28125,0 -0.421875,-0.1875 -0.421875,-0.44531253 0,-0.1875 0.164063,-0.8203125 0.363282,-1.59375 0.128906,-0.53906247 0.445312,-0.71484377 0.679687,-0.71484377 0.01172,0 0.222656,0 0.375,0.1054688 -0.222656,0.058594 -0.304687,0.2578125 -0.304687,0.37499997 0,0.15234375 0.117187,0.2578125 0.28125,0.2578125 0.152343,0 0.386718,-0.12890625 0.386718,-0.42187497 0,-0.3867188 -0.445312,-0.5039063 -0.726562,-0.5039063 -0.351563,0 -0.632813,0.2226563 -0.785156,0.4921875 -0.117188,-0.2929687 -0.445313,-0.4921875 -0.8320317,-0.4921875 -0.7851562,0 -1.2304687,0.85546877 -1.2304687,1.06640627 0,0.0820313 0.1054687,0.0820313 0.1171875,0.0820313 0.09375,0 0.1054687,-0.0234375 0.140625,-0.1171875 0.1757812,-0.53906247 0.609375,-0.84374997 0.9492187,-0.84374997 0.234375,0 0.4218752,0.1289063 0.4218752,0.46874997 0,0.12890625 -0.082031,0.48046875 -0.1523439,0.71484375 z m 0,0"
         style="fill:#4a90e2;fill-opacity:1;fill-rule:nonzero;stroke:none" />
    </g>
  </g>
</svg>
