<?xml version="1.0" encoding="UTF-8" standalone="no"?>
<!-- Created with Inkscape (http://www.inkscape.org/) -->

<svg
   version="1.1"
   id="svg1"
   width="267.86667"
   height="167.98666"
   viewBox="0 0 267.86667 167.98666"
   sodipodi:docname="Cauchy-multiconnected.pdf"
   xmlns:inkscape="http://www.inkscape.org/namespaces/inkscape"
   xmlns:sodipodi="http://sodipodi.sourceforge.net/DTD/sodipodi-0.dtd"
   xmlns="http://www.w3.org/2000/svg"
   xmlns:svg="http://www.w3.org/2000/svg">
  <defs
     id="defs1" />
  <sodipodi:namedview
     id="namedview1"
     pagecolor="#ffffff"
     bordercolor="#000000"
     borderopacity="0.25"
     inkscape:showpageshadow="2"
     inkscape:pageopacity="0.0"
     inkscape:pagecheckerboard="0"
     inkscape:deskcolor="#d1d1d1">
    <inkscape:page
       x="0"
       y="0"
       inkscape:label="1"
       id="page1"
       width="267.86667"
       height="167.98666"
       margin="0"
       bleed="0" />
  </sodipodi:namedview>
  <g
     id="g1"
     inkscape:groupmode="layer"
     inkscape:label="1">
    <path
       id="path1"
       d="m 87.27495,-41.21577 c 40.27431,20.97926 133.37597,24.05998 95.66456,-9.95353 -37.71139,-34.01347 25.62912,-31.9056 38.7052,-61.19603 13.07609,-29.2904 -133.84672,-14.62951 -158.42976,3.15397 -24.58301,17.78344 -16.21432,47.01634 24.06,67.99559 z"
       style="fill:#f5a623;fill-opacity:0.19;fill-rule:nonzero;stroke:#f5a623;stroke-width:1.49442;stroke-linecap:butt;stroke-linejoin:miter;stroke-miterlimit:10;stroke-dasharray:none;stroke-opacity:1"
       transform="matrix(1.3333333,0,0,-1.3333333,-46.089333,-21.881333)" />
    <path
       id="path2"
       d="m 116.11554,-80.54861 c 0,5.77961 8.19607,10.46086 18.30652,10.46086 10.11041,0 18.3065,-4.68125 18.3065,-10.46086 0,-5.77964 -8.19609,-10.46087 -18.3065,-10.46087 -10.11045,0 -18.30652,4.68123 -18.30652,10.46087 z"
       style="fill:#ff8796;fill-opacity:1;fill-rule:nonzero;stroke:#d0021b;stroke-width:1.49442;stroke-linecap:butt;stroke-linejoin:miter;stroke-miterlimit:10;stroke-dasharray:none;stroke-opacity:1"
       transform="matrix(1.3333333,0,0,-1.3333333,-46.089333,-21.881333)" />
    <path
       id="path3"
       d="m 131.25764,-67.3993 5.23043,-2.61523 -5.23043,-2.61522 2.61521,2.61522 z"
       style="fill:#d0021b;fill-opacity:1;fill-rule:nonzero;stroke:#d0021b;stroke-width:0.74721;stroke-linecap:butt;stroke-linejoin:miter;stroke-miterlimit:10;stroke-dasharray:none;stroke-opacity:1"
       transform="matrix(1.3333333,0,0,-1.3333333,-46.089333,-21.881333)" />
    <path
       id="path4"
       d="m 150.58408,-30.14296 -10.90021,3.39456 9.3154,6.59557 -4.2628,-5.79531 z"
       style="fill:#f5a623;fill-opacity:1;fill-rule:nonzero;stroke:#f5a623;stroke-width:0.74721;stroke-linecap:butt;stroke-linejoin:miter;stroke-miterlimit:10;stroke-dasharray:none;stroke-opacity:1"
       transform="matrix(1.3333333,0,0,-1.3333333,-46.089333,-21.881333)" />
    <path
       id="path5"
       d="m 66.94951,-94.47726 c 0,7.98164 8.19606,14.45169 18.30649,14.45169 10.11042,0 18.30652,-6.47005 18.30652,-14.45169 0,-7.98685 -8.1961,-14.4569 -18.30652,-14.4569 -10.11043,0 -18.30649,6.47005 -18.30649,14.4569 z"
       style="fill:#ff8796;fill-opacity:1;fill-rule:nonzero;stroke:#d0021b;stroke-width:1.49442;stroke-linecap:butt;stroke-linejoin:miter;stroke-miterlimit:10;stroke-dasharray:none;stroke-opacity:1"
       transform="matrix(1.3333333,0,0,-1.3333333,-46.089333,-21.881333)" />
    <path
       id="path6"
       d="m 82.61462,-77.33713 5.23044,-2.6152 -5.23044,-2.61524 2.61524,2.61524 z"
       style="fill:#d0021b;fill-opacity:1;fill-rule:nonzero;stroke:#d0021b;stroke-width:0.74721;stroke-linecap:butt;stroke-linejoin:miter;stroke-miterlimit:10;stroke-dasharray:none;stroke-opacity:1"
       transform="matrix(1.3333333,0,0,-1.3333333,-46.089333,-21.881333)" />
    <g
       id="g6"
       aria-label="C&#10;0"
       transform="matrix(1.3333333,0,0,1.3333333,208.55733,70.564)">
      <path
         id="path7"
         d="m 7.5712578,-6.9269063 c 0,-0.023437 -0.023437,-0.09375 -0.1054687,-0.09375 -0.035156,0 -0.046875,0.011719 -0.1523438,0.1171875 L 6.6103203,-6.14175 c -0.082031,-0.140625 -0.5390625,-0.8789063 -1.6523437,-0.8789063 -2.2148438,0 -4.45312504,2.203125 -4.45312504,4.5117188 0,1.640625 1.17187504,2.73046875 2.69531254,2.73046875 0.8671875,0 1.6171875,-0.3984375 2.1445312,-0.85546875 0.9375,-0.8203125 1.1015625,-1.7226563 1.1015625,-1.7578125 0,-0.1054688 -0.1054687,-0.1054688 -0.1171875,-0.1054688 -0.058594,0 -0.1171875,0.023437 -0.1289062,0.1054688 -0.09375,0.2929687 -0.3164063,0.9960937 -1.0078125,1.5703125 -0.6914063,0.5625 -1.3125,0.7265625 -1.8398438,0.7265625 -0.890625,0 -1.9453125,-0.515625 -1.9453125,-2.0625 0,-0.5742188 0.2109375,-2.1914063 1.2070313,-3.3515625 0.609375,-0.703125 1.5351562,-1.2070313 2.4257812,-1.2070313 1.0195313,0 1.6054688,0.7734375 1.6054688,1.921875 0,0.3984375 -0.035156,0.4101563 -0.035156,0.5039063 0,0.1054687 0.1171875,0.1054687 0.1523438,0.1054687 0.1289062,0 0.1289062,-0.023437 0.1757812,-0.1992187 z m 0,0"
         style="fill:#f5a623;fill-opacity:1;fill-rule:nonzero;stroke:none" />
      <path
         id="path8"
         d="m 10.717742,-0.73354688 c 0,-0.76171872 -0.09375,-1.31250002 -0.410156,-1.80468752 -0.222656,-0.3164062 -0.6445313,-0.5976562 -1.2070313,-0.5976562 -1.6171875,0 -1.6171875,1.8984375 -1.6171875,2.40234372 0,0.50390625 0,2.36718748 1.6171875,2.36718748 1.6171873,0 1.6171873,-1.86328123 1.6171873,-2.36718748 z M 9.1005547,1.4344219 c -0.3164063,0 -0.75,-0.1875 -0.890625,-0.76171878 -0.09375,-0.41015625 -0.09375,-0.984375 -0.09375,-1.5 0,-0.50390622 0,-1.03125002 0.1054687,-1.41796872 0.1523438,-0.5507813 0.5976563,-0.6914063 0.8789063,-0.6914063 0.375,0 0.7382812,0.2226563 0.8671875,0.6328125 0.1054688,0.375 0.1171878,0.8789063 0.1171878,1.47656252 0,0.515625 0,1.04296875 -0.09375,1.4765625 C 9.8505547,1.2820781 9.3818047,1.4344219 9.1005547,1.4344219 Z m 0,0"
         style="fill:#f5a623;fill-opacity:1;fill-rule:nonzero;stroke:none" />
    </g>
    <g
       id="g8"
       aria-label="−C&#10;1"
       transform="matrix(1.3333333,0,0,1.3333333,122.77867,65.682667)">
      <path
         id="path9"
         d="m 6.5615078,-2.2961797 c 0.1757813,0 0.3515625,0 0.3515625,-0.1992187 0,-0.1992188 -0.1757812,-0.1992188 -0.3515625,-0.1992188 h -5.390625 c -0.1640625,0 -0.33984374,0 -0.33984374,0.1992188 0,0.1992187 0.17578124,0.1992187 0.33984374,0.1992187 z m 0,0"
         style="fill:#d0021b;fill-opacity:1;fill-rule:nonzero;stroke:none" />
      <path
         id="path10"
         d="m 15.318344,-6.9250859 c 0,-0.023437 -0.02344,-0.09375 -0.105469,-0.09375 -0.03516,0 -0.04687,0.011719 -0.152344,0.1171875 l -0.703125,0.7617187 c -0.08203,-0.140625 -0.539062,-0.8789062 -1.652343,-0.8789062 -2.214844,0 -4.4531255,2.203125 -4.4531255,4.5117187 0,1.64062501 1.171875,2.73046876 2.6953125,2.73046876 0.867188,0 1.617188,-0.3984375 2.144531,-0.85546875 0.9375,-0.82031251 1.101563,-1.72265621 1.101563,-1.75781251 0,-0.1054687 -0.105469,-0.1054687 -0.117188,-0.1054687 -0.05859,0 -0.117187,0.023437 -0.128906,0.1054687 -0.09375,0.2929688 -0.316406,0.9960938 -1.007812,1.57031251 -0.691407,0.5625 -1.3125,0.7265625 -1.839844,0.7265625 -0.890625,0 -1.9453127,-0.515625 -1.9453127,-2.06250001 0,-0.5742187 0.2109375,-2.1914062 1.2070317,-3.3515625 0.609375,-0.703125 1.535156,-1.2070312 2.425781,-1.2070312 1.019531,0 1.605469,0.7734375 1.605469,1.921875 0,0.3984375 -0.03516,0.4101562 -0.03516,0.5039062 0,0.1054688 0.117188,0.1054688 0.152344,0.1054688 0.128906,0 0.128906,-0.023437 0.175781,-0.1992188 z m 0,0"
         style="fill:#d0021b;fill-opacity:1;fill-rule:nonzero;stroke:none" />
      <path
         id="path11"
         d="m 17.202133,-2.9348516 c 0,-0.1875 -0.01172,-0.1992187 -0.210938,-0.1992187 -0.445312,0.4335937 -1.078125,0.4453125 -1.359375,0.4453125 v 0.2460937 c 0.164063,0 0.621094,0 1.007813,-0.1875 v 3.55078129 c 0,0.23437501 0,0.32812501 -0.691406,0.32812501 h -0.269532 v 0.2460937 c 0.128907,-0.011719 0.984375,-0.023437 1.242188,-0.023437 0.210937,0 1.089844,0.011719 1.242187,0.023437 V 1.2487422 h -0.257812 c -0.703125,0 -0.703125,-0.09375 -0.703125,-0.32812501 z m 0,0"
         style="fill:#d0021b;fill-opacity:1;fill-rule:nonzero;stroke:none" />
    </g>
    <g
       id="g11"
       aria-label="−C&#10;2"
       transform="matrix(1.3333333,0,0,1.3333333,57.224,78.932)">
      <path
         id="path12"
         d="m 6.5614922,-2.2956797 c 0.1757812,0 0.3515625,0 0.3515625,-0.1992187 0,-0.1992188 -0.1757813,-0.1992188 -0.3515625,-0.1992188 h -5.390625 c -0.1640625,0 -0.33984376,0 -0.33984376,0.1992188 0,0.1992187 0.17578126,0.1992187 0.33984376,0.1992187 z m 0,0"
         style="fill:#d0021b;fill-opacity:1;fill-rule:nonzero;stroke:none" />
      <path
         id="path13"
         d="m 15.318328,-6.9245859 c 0,-0.023437 -0.02344,-0.09375 -0.105469,-0.09375 -0.03516,0 -0.04687,0.011719 -0.152343,0.1171875 l -0.703125,0.7617187 c -0.08203,-0.140625 -0.539063,-0.8789062 -1.652344,-0.8789062 -2.214844,0 -4.4531251,2.203125 -4.4531251,4.5117187 0,1.64062501 1.171875,2.73046876 2.6953121,2.73046876 0.867188,0 1.617188,-0.3984375 2.144532,-0.85546875 0.9375,-0.82031251 1.101562,-1.72265621 1.101562,-1.75781251 0,-0.1054687 -0.105469,-0.1054687 -0.117187,-0.1054687 -0.05859,0 -0.117188,0.023437 -0.128907,0.1054687 -0.09375,0.2929688 -0.316406,0.9960938 -1.007812,1.57031251 -0.691406,0.5625 -1.3125,0.7265625 -1.839844,0.7265625 -0.890625,0 -1.9453124,-0.515625 -1.9453124,-2.06250001 0,-0.5742187 0.2109375,-2.1914062 1.2070314,-3.3515625 0.609375,-0.703125 1.535156,-1.2070312 2.425781,-1.2070312 1.019531,0 1.605469,0.7734375 1.605469,1.921875 0,0.3984375 -0.03516,0.4101562 -0.03516,0.5039062 0,0.1054688 0.117187,0.1054688 0.152343,0.1054688 0.128907,0 0.128907,-0.023437 0.175782,-0.1992188 z m 0,0"
         style="fill:#d0021b;fill-opacity:1;fill-rule:nonzero;stroke:none" />
      <path
         id="path14"
         d="m 18.385711,0.22971094 h -0.234375 c -0.02344,0.15234375 -0.08203,0.5625 -0.175781,0.6328125 -0.05859,0.0351563 -0.597657,0.0351563 -0.691407,0.0351563 h -1.289062 c 0.738281,-0.64453125 0.984375,-0.84375 1.394531,-1.171875 0.515625,-0.41015625 0.996094,-0.84374994 0.996094,-1.49999994 0,-0.8437501 -0.738281,-1.3593751 -1.628906,-1.3593751 -0.867188,0 -1.453125,0.609375 -1.453125,1.2421876 0,0.3632812 0.304687,0.3984375 0.375,0.3984375 0.164062,0 0.375,-0.1171875 0.375,-0.375 0,-0.1289063 -0.05859,-0.3632814 -0.421875,-0.3632814 0.222656,-0.5039062 0.691406,-0.65625 1.019531,-0.65625 0.703125,0 1.066406,0.5507813 1.066406,1.1132813 0,0.609375 -0.433594,1.08984379 -0.65625,1.33593754 l -1.6875,1.66406246 c -0.07031,0.058594 -0.07031,0.070312 -0.07031,0.2695312 h 2.882812 z m 0,0"
         style="fill:#d0021b;fill-opacity:1;fill-rule:nonzero;stroke:none" />
    </g>
  </g>
</svg>
