<?xml version="1.0" encoding="UTF-8" standalone="no"?>
<!-- Created with Inkscape (http://www.inkscape.org/) -->

<svg
   version="1.1"
   id="svg1"
   width="201.90668"
   height="179.58667"
   viewBox="0 0 201.90668 179.58667"
   sodipodi:docname="cauchy-theorem.pdf"
   xmlns:inkscape="http://www.inkscape.org/namespaces/inkscape"
   xmlns:sodipodi="http://sodipodi.sourceforge.net/DTD/sodipodi-0.dtd"
   xmlns="http://www.w3.org/2000/svg"
   xmlns:svg="http://www.w3.org/2000/svg">
  <defs
     id="defs1" />
  <sodipodi:namedview
     id="namedview1"
     pagecolor="#ffffff"
     bordercolor="#000000"
     borderopacity="0.25"
     inkscape:showpageshadow="2"
     inkscape:pageopacity="0.0"
     inkscape:pagecheckerboard="0"
     inkscape:deskcolor="#d1d1d1">
    <inkscape:page
       x="0"
       y="0"
       inkscape:label="1"
       id="page1"
       width="201.90668"
       height="179.58667"
       margin="0"
       bleed="0" />
  </sodipodi:namedview>
  <g
     id="g1"
     inkscape:groupmode="layer"
     inkscape:label="1">
    <path
       id="path1"
       d="m 73.22603,-39.22821 c 14.24767,15.60239 42.76397,29.90237 52.17876,-3.04935 9.41477,-32.9517 27.72128,-17.26042 40.79736,-46.55082 13.07606,-29.29042 -68.51865,-34.52085 -93.10167,-16.73739 -24.58302,17.78347 -14.12216,50.73517 0.12555,66.33756 z"
       style="fill:#f5a623;fill-opacity:0.19;fill-rule:nonzero;stroke:#f5a623;stroke-width:0.74721;stroke-linecap:butt;stroke-linejoin:miter;stroke-miterlimit:10;stroke-dasharray:0.83687, 2.50064;stroke-dashoffset:0;stroke-opacity:1"
       transform="matrix(1.3333333,0,0,-1.3333333,-50.908,1.3426667)" />
    <path
       id="path2"
       d="m 109.19044,-52.21536 c 21.44477,-20.39868 32.42867,-61.19606 7.84566,-38.18216 -24.58302,23.0139 -16.73738,-12.55304 -33.47476,-2.09218 -16.73737,10.46086 4.18436,60.673 25.6291,40.27434 z"
       style="fill:none;stroke:#000000;stroke-width:1.49442;stroke-linecap:butt;stroke-linejoin:miter;stroke-miterlimit:10;stroke-dasharray:none;stroke-opacity:1"
       transform="matrix(1.3333333,0,0,-1.3333333,-50.908,1.3426667)" />
    <path
       id="path3"
       d="m 118.19725,-67.93805 -0.27722,5.84239 4.83817,-3.28471 -3.55671,1.00424 z"
       style="fill:#000000;fill-opacity:1;fill-rule:nonzero;stroke:#000000;stroke-width:0.74721;stroke-linecap:butt;stroke-linejoin:miter;stroke-miterlimit:10;stroke-dasharray:none;stroke-opacity:1"
       transform="matrix(1.3333333,0,0,-1.3333333,-50.908,1.3426667)" />
    <path
       id="path4"
       d="m 2.2505078,-1.0656562 c -0.1289062,0.5039062 -0.1523437,0.65624995 -1.1601562,0.65624995 -0.26953129,0 -0.41015629,0 -0.41015629,0.2578125 C 0.68019531,7.5e-4 0.76222656,7.5e-4 1.0434766,7.5e-4 h 4.546875 c 2.90625,0 5.7304684,-3 5.7304684,-6.1992187 0,-2.0625 -1.242187,-3.5976563 -3.2929684,-3.5976563 h -4.59375 c -0.28125,0 -0.4101563,0 -0.4101563,0.2695313 0,0.1523437 0.1289063,0.1523437 0.3515625,0.1523437 0.8671875,0 0.8671875,0.1054688 0.8671875,0.2695313 0,0.023437 0,0.1171875 -0.058594,0.328125 z m 3.0234375,-7.7578125 c 0.1289063,-0.5273438 0.1875,-0.5507813 0.75,-0.5507813 h 1.5820313 c 1.3476562,0 2.5781254,0.7265625 2.5781254,2.7070313 0,0.7148437 -0.2812504,3.2109375 -1.6757817,4.7929687 -0.3984375,0.46875 -1.4882812,1.46484375 -3.140625,1.46484375 h -1.640625 c -0.1992187,0 -0.2226562,0 -0.3164062,-0.0234375 C 3.2583203,-0.4445625 3.2466016,-0.468 3.2466016,-0.5851875 c 0,-0.10546875 0.023437,-0.1875 0.058594,-0.31640625 z m 0,0"
       style="fill:#f5a623;fill-opacity:1;fill-rule:nonzero;stroke:none"
       aria-label="D"
       transform="matrix(1.3333333,0,0,1.3333333,153.52667,86.624)" />
    <path
       id="path5"
       d="m 7.5712109,-6.9261016 c 0,-0.023437 -0.023437,-0.09375 -0.1054687,-0.09375 -0.035156,0 -0.046875,0.011719 -0.1523438,0.1171875 l -0.703125,0.7617188 c -0.082031,-0.140625 -0.5390625,-0.8789063 -1.6523437,-0.8789063 -2.2148438,0 -4.45312501,2.203125 -4.45312501,4.5117188 0,1.64062499 1.17187501,2.73046874 2.69531251,2.73046874 0.8671875,0 1.6171875,-0.3984375 2.1445312,-0.85546875 0.9375,-0.82031249 1.1015625,-1.72265629 1.1015625,-1.75781249 0,-0.1054688 -0.1054687,-0.1054688 -0.1171875,-0.1054688 -0.058594,0 -0.1171875,0.023437 -0.1289062,0.1054688 -0.09375,0.2929687 -0.3164063,0.9960937 -1.0078125,1.57031249 -0.6914063,0.5625 -1.3125,0.7265625 -1.8398438,0.7265625 -0.890625,0 -1.9453125,-0.515625 -1.9453125,-2.06249999 0,-0.5742188 0.2109375,-2.1914063 1.2070313,-3.3515625 0.609375,-0.703125 1.5351562,-1.2070313 2.4257812,-1.2070313 1.0195313,0 1.6054688,0.7734375 1.6054688,1.921875 0,0.3984375 -0.035156,0.4101563 -0.035156,0.5039063 0,0.1054687 0.1171875,0.1054687 0.1523438,0.1054687 0.1289062,0 0.1289062,-0.023437 0.1757812,-0.1992187 z m 0,0"
       style="fill:#000000;fill-opacity:1;fill-rule:nonzero;stroke:none"
       aria-label="C"
       transform="matrix(1.3333333,0,0,1.3333333,82.393333,82.629333)" />
  </g>
</svg>
