<?xml version="1.0" encoding="UTF-8" standalone="no"?>
<!-- Created with Inkscape (http://www.inkscape.org/) -->

<svg
   version="1.1"
   id="svg1"
   width="216.29333"
   height="166.56"
   viewBox="0 0 216.29333 166.56"
   sodipodi:docname="Cauchy-integration-formula.pdf"
   xmlns:inkscape="http://www.inkscape.org/namespaces/inkscape"
   xmlns:sodipodi="http://sodipodi.sourceforge.net/DTD/sodipodi-0.dtd"
   xmlns="http://www.w3.org/2000/svg"
   xmlns:svg="http://www.w3.org/2000/svg">
  <defs
     id="defs1" />
  <sodipodi:namedview
     id="namedview1"
     pagecolor="#ffffff"
     bordercolor="#000000"
     borderopacity="0.25"
     inkscape:showpageshadow="2"
     inkscape:pageopacity="0.0"
     inkscape:pagecheckerboard="0"
     inkscape:deskcolor="#d1d1d1">
    <inkscape:page
       x="0"
       y="0"
       inkscape:label="1"
       id="page1"
       width="216.29333"
       height="166.56"
       margin="0"
       bleed="0" />
  </sodipodi:namedview>
  <g
     id="g1"
     inkscape:groupmode="layer"
     inkscape:label="1">
    <path
       id="path1"
       d="m 112.08115,-67.24869 c 10.34881,22.80479 55.48016,22.50591 67.24868,0 11.76851,-22.50589 58.8949,-27.39262 69.35581,-64.0058 10.46091,-36.61317 -76.93997,-29.15603 -106.85069,-16.43856 -29.9182,12.71748 -40.10265,57.6396 -29.7538,80.44436 z"
       style="fill:#f5a623;fill-opacity:0.2;fill-rule:nonzero;stroke:#f5a623;stroke-width:1.49442;stroke-linecap:butt;stroke-linejoin:miter;stroke-miterlimit:10;stroke-dasharray:none;stroke-opacity:1"
       transform="matrix(1.3333333,0,0,-1.3333333,-130.22133,-58.257333)" />
    <path
       id="path2"
       d="m 138.51735,-113.95662 c 0,8.86188 6.61276,16.05002 14.76482,16.05002 8.15202,0 14.75735,-7.18814 14.75735,-16.05002 0,-8.86937 -6.60533,-16.05751 -14.75735,-16.05751 -8.15206,0 -14.76482,7.18814 -14.76482,16.05751 z"
       style="fill:#d0021b;fill-opacity:0.3;fill-rule:nonzero;stroke:#d0021b;stroke-width:1.49442;stroke-linecap:butt;stroke-linejoin:miter;stroke-miterlimit:10;stroke-dasharray:none;stroke-opacity:1"
       transform="matrix(1.3333333,0,0,-1.3333333,-130.22133,-58.257333)" />
    <path
       id="path3"
       d="m 198.93655,-86.67609 c 0,1.44211 1.17311,2.61524 2.61522,2.61524 1.44959,0 2.61523,-1.17313 2.61523,-2.61524 0,-1.44209 -1.16564,-2.61521 -2.61523,-2.61521 -1.44211,0 -2.61522,1.17312 -2.61522,2.61521 z"
       style="fill:#a560e2;fill-opacity:1;fill-rule:nonzero;stroke:#9013fe;stroke-width:0.74721;stroke-linecap:butt;stroke-linejoin:miter;stroke-miterlimit:10;stroke-dasharray:none;stroke-opacity:0.7"
       transform="matrix(1.3333333,0,0,-1.3333333,-130.22133,-58.257333)" />
    <path
       id="path4"
       d="m 188.5653,-83.57516 -2.5106,7.96522 7.88303,-2.77212 -5.28276,0.08966 -0.0897,-5.28276 z"
       style="fill:#f5a623;fill-opacity:1;fill-rule:nonzero;stroke:#f5a623;stroke-width:0.74721;stroke-linecap:butt;stroke-linejoin:miter;stroke-miterlimit:10;stroke-dasharray:none;stroke-opacity:1"
       transform="matrix(1.3333333,0,0,-1.3333333,-130.22133,-58.257333)" />
    <path
       id="path5"
       d="m 168.53267,-101.92657 -1.06102,-8.28655 -5.99263,5.82074 4.75972,-2.29392 z"
       style="fill:#d0021b;fill-opacity:1;fill-rule:nonzero;stroke:#d0021b;stroke-width:0.74721;stroke-linecap:butt;stroke-linejoin:miter;stroke-miterlimit:10;stroke-dasharray:none;stroke-opacity:1"
       transform="matrix(1.3333333,0,0,-1.3333333,-130.22133,-58.257333)" />
    <path
       id="path6"
       d="m 185.78569,-132.70407 c 0,1.44212 1.17313,2.61523 2.61523,2.61523 1.44959,0 2.61522,-1.17311 2.61522,-2.61523 0,-1.44211 -1.16563,-2.61522 -2.61522,-2.61522 -1.4421,0 -2.61523,1.17311 -2.61523,2.61522 z"
       style="fill:#d18f20;fill-opacity:1;fill-rule:nonzero;stroke:#d79529;stroke-width:0.74721;stroke-linecap:butt;stroke-linejoin:miter;stroke-miterlimit:10;stroke-dasharray:none;stroke-opacity:1"
       transform="matrix(1.3333333,0,0,-1.3333333,-130.22133,-58.257333)" />
    <path
       id="path7"
       d="m 3.2229375,-5.7654844 c 0.1875,0.1757813 0.4101563,0.1757813 0.609375,0.1757813 0.2578125,0 0.890625,0 0.890625,-0.3046875 0,-0.2460938 -0.3984375,-0.2695313 -0.796875,-0.2695313 -0.1054687,0 -0.375,0 -0.6328125,0.09375 -0.058594,-0.1171875 -0.070312,-0.1640625 -0.070312,-0.375 0,-0.140625 0.046875,-0.3515625 0.046875,-0.3632812 0,-0.082031 -0.046875,-0.1289063 -0.1171875,-0.1289063 -0.1875,0 -0.1875,0.4570313 -0.1875,0.4804688 0,0.1757812 0.035156,0.3515625 0.1171875,0.5039062 -1.0546875,0.5273438 -2.625,2.3554688 -2.625,4.2890625 0,1.40625002 0.9023438,1.69921877 1.6289063,1.94531252 0.2929687,0.10546875 0.3164062,0.10546875 0.609375,0.2109375 0.1992187,0.0703125 0.609375,0.2109375 0.609375,0.66796878 0,0.2695312 -0.1875,0.6679687 -0.5507813,0.6679687 -0.2578125,0 -0.5273437,-0.1289062 -0.7382812,-0.3046875 -0.070313,-0.058594 -0.082031,-0.070312 -0.1171875,-0.070312 -0.058594,0 -0.1054688,0.046875 -0.1054688,0.1054688 0,0.1054687 0.4335938,0.4804687 0.9609375,0.4804687 0.609375,0 1.078125,-0.6328125 1.078125,-1.20703123 0,-0.375 -0.1875,-0.5859375 -0.2695312,-0.66796875 -0.1640625,-0.1875 -0.3515625,-0.24609375 -0.9375,-0.4453125 -0.7968755,-0.26953175 -0.960938,-0.31640675 -1.195313,-0.52734425 -0.421875,-0.37499997 -0.421875,-0.94921877 -0.421875,-1.13671877 0,-1.546875 1.21875,-3.28125 2.2148437,-3.8203125 z m 0.234375,-0.1171875 c 0.1523438,-0.058594 0.328125,-0.058594 0.4570313,-0.058594 0.328125,0 0.375,0 0.5507812,0.058594 -0.082031,0.023437 -0.1757812,0.070312 -0.6210937,0.070312 -0.2109375,0 -0.28125,0 -0.3867188,-0.070312 z m 0,0"
       style="fill:#9e6cc9;fill-opacity:1;fill-rule:nonzero;stroke:none"
       aria-label="ζ"
       transform="matrix(1.3333333,0,0,1.3333333,149.484,51.492)" />
    <path
       id="path8"
       d="m 1.3243047,-0.8309375 c 0.5390625,-0.5742188 0.8320312,-0.8203125 1.1835937,-1.125 0,-0.011719 0.6210938,-0.5390625 0.984375,-0.9023438 0.9375,-0.9257812 1.1601563,-1.40625 1.1601563,-1.4414062 0,-0.1054688 -0.09375,-0.1054688 -0.1054688,-0.1054688 -0.070312,0 -0.1054687,0.023437 -0.1523437,0.1171875 -0.3046875,0.46875 -0.5039063,0.6328125 -0.75,0.6328125 -0.234375,0 -0.3515625,-0.1523437 -0.5039063,-0.3164062 -0.1875,-0.234375 -0.3632812,-0.4335938 -0.6914062,-0.4335938 -0.75,0 -1.2070313,0.9257813 -1.2070313,1.1367188 0,0.046875 0.035156,0.1171875 0.1171875,0.1171875 0.09375,0 0.1171875,-0.058594 0.140625,-0.1171875 0.1875,-0.4570313 0.7617188,-0.46875 0.84375,-0.46875 0.2109375,0 0.3984375,0.070312 0.6210938,0.1523437 C 3.3633672,-3.4325 3.4805547,-3.4325 3.7383672,-3.4325 3.3750859,-3.010625 2.5430547,-2.2957813 2.3555547,-2.1317188 l -0.9023438,0.8320313 c -0.67968746,0.66796875 -1.01953121,1.2421875 -1.01953121,1.3125 0,0.09375 0.09375,0.09375 0.1171875,0.09375 0.0820313,0 0.09375,-0.01171875 0.15234375,-0.12890625 0.234375,-0.33984375 0.52734376,-0.609375 0.85546876,-0.609375 0.2226562,0 0.328125,0.0820313 0.5742187,0.375 0.1640625,0.2109375 0.3515625,0.36328125 0.6328125,0.36328125 0.984375,0 1.5703125,-1.265625 1.5703125,-1.5351563 0,-0.046875 -0.046875,-0.09375 -0.1171875,-0.09375 -0.09375,0 -0.1171875,0.058594 -0.140625,0.1289063 -0.234375,0.64453125 -0.8671875,0.83203125 -1.1953125,0.83203125 -0.1992187,0 -0.3867187,-0.0585938 -0.5859375,-0.12890625 -0.3398437,-0.12890625 -0.4921875,-0.1640625 -0.703125,-0.1640625 -0.023437,0 -0.1757812,0 -0.2695312,0.0234375 z m 0,0"
       style="fill:#ce9563;fill-opacity:1;fill-rule:nonzero;stroke:none"
       aria-label="z"
       transform="matrix(1.3333333,0,0,1.3333333,131.55067,117.32667)" />
  </g>
</svg>
