<?xml version="1.0" encoding="UTF-8" standalone="no"?>
<!-- Created with Inkscape (http://www.inkscape.org/) -->

<svg
   version="1.1"
   id="svg1"
   width="224.41333"
   height="143.26666"
   viewBox="0 0 224.41333 143.26666"
   sodipodi:docname="complex-integration-paths.pdf"
   xmlns:inkscape="http://www.inkscape.org/namespaces/inkscape"
   xmlns:sodipodi="http://sodipodi.sourceforge.net/DTD/sodipodi-0.dtd"
   xmlns="http://www.w3.org/2000/svg"
   xmlns:svg="http://www.w3.org/2000/svg">
  <defs
     id="defs1" />
  <sodipodi:namedview
     id="namedview1"
     pagecolor="#ffffff"
     bordercolor="#000000"
     borderopacity="0.25"
     inkscape:showpageshadow="2"
     inkscape:pageopacity="0.0"
     inkscape:pagecheckerboard="0"
     inkscape:deskcolor="#d1d1d1">
    <inkscape:page
       x="0"
       y="0"
       inkscape:label="1"
       id="page1"
       width="224.41333"
       height="143.26666"
       margin="0"
       bleed="0" />
  </sodipodi:namedview>
  <g
     id="g1"
     inkscape:groupmode="layer"
     inkscape:label="1">
    <path
       id="path1"
       d="m 112.23697,-62.39505 c 0,0 0,0 0,0 21.90223,0 39.66194,-17.74775 39.66194,-39.64998 0,-21.89625 -17.75971,-39.64996 -39.66194,-39.64996 v 39.64996 z"
       style="fill:none;stroke:#000000;stroke-width:1.49442;stroke-linecap:butt;stroke-linejoin:miter;stroke-miterlimit:10;stroke-dasharray:none;stroke-opacity:0"
       transform="matrix(1.3333333,0,0,-1.3333333,-34.929333,-66.382667)" />
    <path
       id="path2"
       d="m 112.23697,-62.39505 c 0,0 0,0 0,0 21.90223,0 39.66194,-17.74775 39.66194,-39.64998 0,-21.89625 -17.75971,-39.64996 -39.66194,-39.64996"
       style="fill:none;stroke:#8b572a;stroke-width:1.49442;stroke-linecap:butt;stroke-linejoin:miter;stroke-miterlimit:10;stroke-dasharray:none;stroke-opacity:1"
       transform="matrix(1.3333333,0,0,-1.3333333,-34.929333,-66.382667)" />
    <path
       id="path3"
       d="m 111.72289,-141.76672 c 0,0 0,0 0,0 -21.90224,0 -39.66193,17.7537 -39.66193,39.64996 0,21.89626 17.75969,39.64998 39.66193,39.64998 v -39.64998 z"
       style="fill:none;stroke:#000000;stroke-width:1.49442;stroke-linecap:butt;stroke-linejoin:miter;stroke-miterlimit:10;stroke-dasharray:none;stroke-opacity:0"
       transform="matrix(1.3333333,0,0,-1.3333333,-34.929333,-66.382667)" />
    <path
       id="path4"
       d="m 111.72289,-141.76672 c 0,0 0,0 0,0 -21.90224,0 -39.66193,17.7537 -39.66193,39.64996 0,21.89626 17.75969,39.64998 39.66193,39.64998"
       style="fill:none;stroke:#f5a623;stroke-width:1.49442;stroke-linecap:butt;stroke-linejoin:miter;stroke-miterlimit:10;stroke-dasharray:none;stroke-opacity:1"
       transform="matrix(1.3333333,0,0,-1.3333333,-34.929333,-66.382667)" />
    <path
       id="path5"
       d="m 29.8884,-102.04503 h 164.24284 m -81.89427,51.88033 v -106.70165 m 77.70988,57.81017 4.18439,-2.98885 -4.18439,-2.98883 m -80.69873,50.68478 2.98885,4.18438 2.98884,-4.18438"
       style="fill:none;stroke:#9b9b9b;stroke-width:0.74721;stroke-linecap:butt;stroke-linejoin:miter;stroke-miterlimit:10;stroke-dasharray:none;stroke-opacity:0.5"
       transform="matrix(1.3333333,0,0,-1.3333333,-34.929333,-66.382667)" />
    <path
       id="path6"
       d="m 112.27882,-62.46678 c 39.19567,-10.41312 24.55033,-58.83235 -0.0837,-79.29994"
       style="fill:none;stroke:#8b572a;stroke-width:1.49442;stroke-linecap:butt;stroke-linejoin:miter;stroke-miterlimit:10;stroke-dasharray:none;stroke-opacity:0.5"
       transform="matrix(1.3333333,0,0,-1.3333333,-34.929333,-66.382667)" />
    <path
       id="path7"
       d="m 139.58888,-103.32275 -3.14825,8.30749 -4.51668,-7.65321 4.06421,2.35267 z"
       style="fill:#8b572a;fill-opacity:0.5;fill-rule:nonzero;stroke:#000000;stroke-width:0.0797;stroke-linecap:butt;stroke-linejoin:miter;stroke-miterlimit:10;stroke-dasharray:none;stroke-opacity:0"
       transform="matrix(1.3333333,0,0,-1.3333333,-34.929333,-66.382667)" />
    <path
       id="path8"
       d="m 110.14479,-102.04503 c 0,1.15968 0.93849,2.09219 2.09218,2.09219 1.1537,0 2.09219,-0.93251 2.09219,-2.09219 0,-1.15369 -0.93849,-2.09219 -2.09219,-2.09219 -1.15369,0 -2.09218,0.9385 -2.09218,2.09219 z"
       style="fill:#d0021b;fill-opacity:1;fill-rule:nonzero;stroke:#d0021b;stroke-width:0.74721;stroke-linecap:butt;stroke-linejoin:miter;stroke-miterlimit:10;stroke-dasharray:none;stroke-opacity:1"
       transform="matrix(1.3333333,0,0,-1.3333333,-34.929333,-66.382667)" />
    <path
       id="path9"
       d="m 112.27882,-62.46678 c -53.55407,-29.63736 5.37395,-33.0506 -0.0837,-79.29994"
       style="fill:none;stroke:#f5a623;stroke-width:1.49442;stroke-linecap:butt;stroke-linejoin:miter;stroke-miterlimit:10;stroke-dasharray:none;stroke-opacity:0.5"
       transform="matrix(1.3333333,0,0,-1.3333333,-34.929333,-66.382667)" />
    <path
       id="path10"
       d="m 100.90042,-98.68414 -7.75616,4.33239 1.46835,-8.76457 1.59665,4.41637 z"
       style="fill:#f5a623;fill-opacity:0.5;fill-rule:nonzero;stroke:#000000;stroke-width:0.0797;stroke-linecap:butt;stroke-linejoin:miter;stroke-miterlimit:10;stroke-dasharray:none;stroke-opacity:0"
       transform="matrix(1.3333333,0,0,-1.3333333,-34.929333,-66.382667)" />
    <path
       id="path11"
       d="m 110.10295,-141.76672 c 0,1.15966 0.93253,2.09217 2.09219,2.09217 1.15369,0 2.09218,-0.93251 2.09218,-2.09217 0,-1.15371 -0.93849,-2.09221 -2.09218,-2.09221 -1.15966,0 -2.09219,0.9385 -2.09219,2.09221 z"
       style="fill:#f5a623;fill-opacity:1;fill-rule:nonzero;stroke:#000000;stroke-width:0.74721;stroke-linecap:butt;stroke-linejoin:miter;stroke-miterlimit:10;stroke-dasharray:none;stroke-opacity:1"
       transform="matrix(1.3333333,0,0,-1.3333333,-34.929333,-66.382667)" />
    <path
       id="path12"
       d="m 110.18663,-62.46678 c 0,1.15368 0.93849,2.09219 2.09219,2.09219 1.15967,0 2.0922,-0.93851 2.0922,-2.09219 0,-1.15369 -0.93253,-2.0922 -2.0922,-2.0922 -1.1537,0 -2.09219,0.93851 -2.09219,2.0922 z"
       style="fill:#f5a623;fill-opacity:1;fill-rule:nonzero;stroke:#000000;stroke-width:0.74721;stroke-linecap:butt;stroke-linejoin:miter;stroke-miterlimit:10;stroke-dasharray:none;stroke-opacity:1"
       transform="matrix(1.3333333,0,0,-1.3333333,-34.929333,-66.382667)" />
    <path
       id="path13"
       d="m 69.14384,-105.09962 2.98884,5.97769 2.98884,-5.97769 -2.98884,2.98884 z"
       style="fill:#f5a623;fill-opacity:1;fill-rule:nonzero;stroke:#f5a623;stroke-width:0.74721;stroke-linecap:butt;stroke-linejoin:miter;stroke-miterlimit:10;stroke-dasharray:none;stroke-opacity:1"
       transform="matrix(1.3333333,0,0,-1.3333333,-34.929333,-66.382667)" />
    <path
       id="path14"
       d="m 148.83833,-104.99202 2.98883,5.97768 2.98885,-5.97768 -2.98885,2.98883 z"
       style="fill:#8b572a;fill-opacity:1;fill-rule:nonzero;stroke:#8b572a;stroke-width:0.74721;stroke-linecap:butt;stroke-linejoin:miter;stroke-miterlimit:10;stroke-dasharray:none;stroke-opacity:1"
       transform="matrix(1.3333333,0,0,-1.3333333,-34.929333,-66.382667)" />
    <g
       id="g14"
       aria-label="−i"
       transform="matrix(1.3333333,0,0,1.3333333,117.752,135.07067)">
      <path
         id="path15"
         d="m 6.5639297,-2.2971406 c 0.1757812,0 0.3515625,0 0.3515625,-0.1992188 0,-0.1992187 -0.1757813,-0.1992187 -0.3515625,-0.1992187 h -5.390625 c -0.1640625,0 -0.33984376,0 -0.33984376,0.1992187 0,0.1992188 0.17578126,0.1992188 0.33984376,0.1992188 z m 0,0"
         style="fill:#000000;fill-opacity:1;fill-rule:nonzero;stroke:none" />
      <path
         id="path16"
         d="m 10.574672,-6.2229219 c 0,-0.1992187 -0.128906,-0.3632812 -0.363281,-0.3632812 -0.2695316,0 -0.5390629,0.2578125 -0.5390629,0.5273437 0,0.1875 0.140625,0.3632813 0.3749999,0.3632813 0.234375,0 0.527344,-0.234375 0.527344,-0.5273438 z m -0.7500001,3.7382813 c 0.1171875,-0.28125 0.1171875,-0.3046875 0.2226561,-0.5742188 0.07031,-0.1992187 0.128906,-0.3398437 0.128906,-0.5273437 0,-0.4453125 -0.3281246,-0.8203125 -0.8203121,-0.8203125 -0.9375,0 -1.3125,1.453125 -1.3125,1.5351562 0,0.1054688 0.09375,0.1054688 0.1171875,0.1054688 0.09375,0 0.1054687,-0.023437 0.1523437,-0.1875 0.2695313,-0.9375 0.6679688,-1.2304688 1.0078125,-1.2304688 0.082031,0 0.2578125,0 0.2578125,0.3164063 0,0.2109375 -0.070312,0.421875 -0.1171875,0.515625 -0.082031,0.2578125 -0.5273437,1.4179687 -0.6796875,1.8515625 -0.1054687,0.2578125 -0.234375,0.58593748 -0.234375,0.79687498 0,0.46875 0.3398438,0.80859375 0.8203125,0.80859375 0.9375004,0 1.3007814,-1.44140623 1.3007814,-1.53515623 0,-0.09375 -0.09375,-0.09375 -0.117188,-0.09375 -0.105468,0 -0.105468,0.023437 -0.152343,0.1757812 -0.175782,0.63281253 -0.5039066,1.24218753 -1.0195316,1.24218753 -0.1640625,0 -0.234375,-0.10546875 -0.234375,-0.328125 0,-0.2578125 0.058594,-0.3984375 0.2929687,-0.99609373 z m 0,0"
         style="fill:#000000;fill-opacity:1;fill-rule:nonzero;stroke:none" />
    </g>
    <g
       id="g16"
       aria-label="+i"
       transform="matrix(1.3333333,0,0,1.3333333,96.778667,11.061333)">
      <path
         id="path17"
         d="m 4.0771328,-2.296 h 2.7773438 c 0.140625,0 0.328125,0 0.328125,-0.1992187 0,-0.1992188 -0.1875,-0.1992188 -0.328125,-0.1992188 H 4.0771328 V -5.4835 c 0,-0.1289062 0,-0.328125 -0.1992187,-0.328125 -0.1992188,0 -0.1992188,0.1992188 -0.1992188,0.328125 v 2.7890625 H 0.88963281 c -0.140625,0 -0.328125,0 -0.328125,0.1992188 0,0.1992187 0.1875,0.1992187 0.328125,0.1992187 H 3.6786953 v 2.80078125 c 0,0.12890625 0,0.328125 0.1992188,0.328125 0.1992187,0 0.1992187,-0.19921875 0.1992187,-0.328125 z m 0,0"
         style="fill:#000000;fill-opacity:1;fill-rule:nonzero;stroke:none" />
      <path
         id="path18"
         d="m 10.57225,-6.2217812 c 0,-0.1992188 -0.128906,-0.3632813 -0.363281,-0.3632813 -0.2695315,0 -0.5390628,0.2578125 -0.5390628,0.5273438 0,0.1875 0.140625,0.3632812 0.3749998,0.3632812 0.234375,0 0.527344,-0.234375 0.527344,-0.5273437 z m -0.75,3.7382812 c 0.1171875,-0.28125 0.1171875,-0.3046875 0.222656,-0.5742187 0.07031,-0.1992188 0.128906,-0.3398438 0.128906,-0.5273438 0,-0.4453125 -0.3281245,-0.8203125 -0.820312,-0.8203125 -0.9375,0 -1.3125,1.453125 -1.3125,1.5351563 0,0.1054687 0.09375,0.1054687 0.1171875,0.1054687 0.09375,0 0.1054687,-0.023437 0.1523437,-0.1875 0.2695313,-0.9375 0.6679688,-1.2304687 1.0078125,-1.2304687 0.082031,0 0.2578125,0 0.2578125,0.3164062 0,0.2109375 -0.070312,0.421875 -0.1171875,0.515625 -0.082031,0.2578125 -0.5273437,1.4179688 -0.6796875,1.8515625 -0.1054687,0.2578125 -0.234375,0.5859375 -0.234375,0.796875 0,0.46875 0.3398438,0.80859375 0.8203125,0.80859375 0.9375003,0 1.3007813,-1.44140625 1.3007813,-1.53515625 0,-0.09375 -0.09375,-0.09375 -0.117188,-0.09375 -0.105468,0 -0.105468,0.023437 -0.152343,0.1757813 -0.175782,0.63281245 -0.5039065,1.24218745 -1.0195315,1.24218745 -0.1640625,0 -0.234375,-0.10546875 -0.234375,-0.328125 0,-0.2578125 0.058594,-0.3984375 0.2929687,-0.99609375 z m 0,0"
         style="fill:#000000;fill-opacity:1;fill-rule:nonzero;stroke:none" />
    </g>
    <g
       id="g18"
       aria-label="C&#10;L"
       transform="matrix(1.3333333,0,0,1.3333333,48.396,99.393333)">
      <path
         id="path19"
         d="m 7.5692109,-6.9248828 c 0,-0.023437 -0.023437,-0.09375 -0.1054687,-0.09375 -0.035156,0 -0.046875,0.011719 -0.1523438,0.1171875 l -0.703125,0.7617187 c -0.082031,-0.140625 -0.5390625,-0.8789062 -1.6523437,-0.8789062 -2.2148438,0 -4.45312501,2.203125 -4.45312501,4.5117187 0,1.64062504 1.17187501,2.73046879 2.69531251,2.73046879 0.8671875,0 1.6171875,-0.3984375 2.1445312,-0.85546875 0.9375,-0.82031254 1.1015625,-1.72265624 1.1015625,-1.75781254 0,-0.1054687 -0.1054687,-0.1054687 -0.1171875,-0.1054687 -0.058594,0 -0.1171875,0.023437 -0.1289062,0.1054687 -0.09375,0.2929688 -0.3164063,0.9960938 -1.0078125,1.57031254 -0.6914063,0.5625 -1.3125,0.7265625 -1.8398438,0.7265625 -0.890625,0 -1.9453125,-0.515625 -1.9453125,-2.06250004 0,-0.5742187 0.2109375,-2.1914062 1.2070313,-3.3515625 0.609375,-0.703125 1.5351562,-1.2070312 2.4257812,-1.2070312 1.0195313,0 1.6054688,0.7734375 1.6054688,1.921875 0,0.3984375 -0.035156,0.4101562 -0.035156,0.5039062 0,0.1054688 0.1171875,0.1054688 0.1523438,0.1054688 0.1289062,0 0.1289062,-0.023437 0.1757812,-0.1992188 z m 0,0"
         style="fill:#f5a623;fill-opacity:1;fill-rule:nonzero;stroke:none" />
      <path
         id="path20"
         d="m 9.9920625,-2.7002734 c 0.058594,-0.2460938 0.082032,-0.3164063 0.7265625,-0.3164063 0.210937,0 0.28125,0 0.28125,-0.1523437 0,-0.011719 0,-0.09375 -0.117188,-0.09375 -0.152343,0 -0.339843,0.011719 -0.515625,0.011719 -0.175781,0.011719 -0.3749995,0.011719 -0.5507808,0.011719 -0.1523437,0 -0.3398437,-0.011719 -0.4804687,-0.011719 -0.1523438,0 -0.3164063,-0.011719 -0.4570313,-0.011719 -0.046875,0 -0.1523437,0 -0.1523437,0.1523437 0,0.09375 0.09375,0.09375 0.2226562,0.09375 0.011719,0 0.140625,0 0.2695313,0.011719 0.1523437,0.011719 0.1640625,0.035156 0.1640625,0.1054687 0,0.011719 0,0.046875 -0.035156,0.1523438 L 8.42175,0.95597656 C 8.3631562,1.1903516 8.3514375,1.2489453 7.812375,1.2489453 c -0.1171875,0 -0.2109375,0 -0.2109375,0.140625 0,0.1054688 0.082031,0.1054688 0.2109375,0.1054688 h 3.503906 c 0.175781,0 0.1875,-0.011719 0.234375,-0.140625 0.07031,-0.1875 0.597656,-1.53515629 0.597656,-1.59375004 0,-0.0234375 -0.01172,-0.09375 -0.117187,-0.09375 -0.08203,0 -0.09375,0.0234375 -0.140625,0.140625 C 11.620969,0.47550781 11.316281,1.2489453 10.038937,1.2489453 H 9.2537812 c -0.2109375,0 -0.2226562,-0.011719 -0.2226562,-0.070312 0,-0.011719 0,-0.046875 0.023437,-0.1523437 z m 0,0"
         style="fill:#f5a623;fill-opacity:1;fill-rule:nonzero;stroke:none" />
    </g>
    <g
       id="g20"
       aria-label="C&#10;R"
       transform="matrix(1.3333333,0,0,1.3333333,167.67867,49.452)">
      <path
         id="path21"
         d="m 7.5710781,-6.9249375 c 0,-0.023437 -0.023437,-0.09375 -0.1054687,-0.09375 -0.035156,0 -0.046875,0.011719 -0.1523438,0.1171875 l -0.703125,0.7617188 c -0.082031,-0.140625 -0.5390625,-0.8789063 -1.6523437,-0.8789063 -2.2148438,0 -4.45312503,2.203125 -4.45312503,4.5117188 0,1.64062495 1.17187503,2.7304687 2.69531253,2.7304687 0.8671875,0 1.6171875,-0.3984375 2.1445312,-0.85546875 0.9375,-0.82031245 1.1015625,-1.72265625 1.1015625,-1.75781245 0,-0.1054688 -0.1054687,-0.1054688 -0.1171875,-0.1054688 -0.058594,0 -0.1171875,0.023437 -0.1289062,0.1054688 -0.09375,0.2929687 -0.3164063,0.9960937 -1.0078125,1.57031245 -0.6914063,0.5625 -1.3125,0.7265625 -1.8398438,0.7265625 -0.890625,0 -1.9453125,-0.515625 -1.9453125,-2.06249995 0,-0.5742188 0.2109375,-2.1914063 1.2070313,-3.3515625 C 3.2234219,-6.2100937 4.1492031,-6.714 5.0398281,-6.714 c 1.0195313,0 1.6054688,0.7734375 1.6054688,1.921875 0,0.3984375 -0.035156,0.4101563 -0.035156,0.5039063 0,0.1054687 0.1171875,0.1054687 0.1523438,0.1054687 0.1289062,0 0.1289062,-0.023437 0.1757812,-0.1992187 z m 0,0"
         style="fill:#8b572a;fill-opacity:1;fill-rule:nonzero;stroke:none" />
      <path
         id="path22"
         d="m 10.002719,-2.7823594 c 0.04687,-0.1875 0.05859,-0.2109375 0.210937,-0.234375 h 0.445313 c 0.65625,0 1.453125,0 1.453125,0.7148438 0,0.2929687 -0.128907,0.7265625 -0.457032,0.984375 -0.292968,0.2226562 -0.726562,0.32812498 -1.207031,0.32812498 H 9.5574062 Z m 1.253906,1.91015628 c 0.832031,-0.19921878 1.570312,-0.70312498 1.570312,-1.32421878 0,-0.5976562 -0.703125,-1.0664062 -1.722656,-1.0664062 H 8.9714687 c -0.140625,0 -0.2226562,0 -0.2226562,0.1523437 0,0.09375 0.082031,0.09375 0.2226562,0.09375 0,0 0.140625,0 0.2578125,0.011719 0.1523438,0.011719 0.1640625,0.035156 0.1640625,0.1054687 0,0.011719 0,0.046875 -0.023437,0.1523438 l -0.9375,3.70312498 C 8.3855312,1.1902969 8.3738125,1.2488906 7.8230312,1.2488906 c -0.1171875,0 -0.2109375,0 -0.2109375,0.140625 0,0.070312 0.046875,0.1054688 0.1171875,0.1054688 0.1289063,0 0.2929688,-0.023437 0.4335938,-0.023437 0.1289062,0 0.328125,0 0.4570312,0 0.140625,0 0.3046875,0 0.4453125,0 0.1523438,0 0.3164063,0.023437 0.46875,0.023437 0.035156,0 0.140625,0 0.140625,-0.140625 0,-0.1054688 -0.070312,-0.1054688 -0.2226562,-0.1054688 -0.1171875,0 -0.140625,0 -0.2695313,-0.023437 -0.1523437,-0.011719 -0.1523437,-0.035156 -0.1523437,-0.1054687 0,0 0,-0.046875 0.023437,-0.15234377 l 0.4453125,-1.7578125 h 0.949219 c 0.597656,0 0.855468,0.29296875 0.855468,0.62109375 0,0.09375 -0.05859,0.328125 -0.09375,0.4921875 -0.08203,0.31640625 -0.117188,0.421875 -0.117188,0.5390625 0,0.55078122 0.515625,0.77343752 1.03125,0.77343752 0.632813,0 0.914063,-0.67968752 0.914063,-0.80859377 0,-0.0234375 -0.01172,-0.09375 -0.117188,-0.09375 -0.09375,0 -0.105468,0.046875 -0.128906,0.1171875 -0.09375,0.30468747 -0.351562,0.58593747 -0.644531,0.58593747 -0.175781,0 -0.316406,-0.070312 -0.316406,-0.44531247 0,-0.17578125 0.04687,-0.5390625 0.07031,-0.7265625 0.03516,-0.1875 0.03516,-0.2578125 0.03516,-0.328125 0,-0.08203125 0,-0.3046875 -0.199218,-0.515625 -0.128907,-0.15234375 -0.316407,-0.24609375 -0.480469,-0.29296875 z m 0,0"
         style="fill:#8b572a;fill-opacity:1;fill-rule:nonzero;stroke:none" />
    </g>
  </g>
</svg>
