<?xml version="1.0" encoding="UTF-8" standalone="no"?>
<!-- Created with Inkscape (http://www.inkscape.org/) -->

<svg
   version="1.1"
   id="svg1"
   width="189.60001"
   height="141.34666"
   viewBox="0 0 189.60001 141.34666"
   sodipodi:docname="curve-interpolation.pdf"
   xmlns:inkscape="http://www.inkscape.org/namespaces/inkscape"
   xmlns:sodipodi="http://sodipodi.sourceforge.net/DTD/sodipodi-0.dtd"
   xmlns="http://www.w3.org/2000/svg"
   xmlns:svg="http://www.w3.org/2000/svg">
  <defs
     id="defs1" />
  <sodipodi:namedview
     id="namedview1"
     pagecolor="#ffffff"
     bordercolor="#000000"
     borderopacity="0.25"
     inkscape:showpageshadow="2"
     inkscape:pageopacity="0.0"
     inkscape:pagecheckerboard="0"
     inkscape:deskcolor="#d1d1d1">
    <inkscape:page
       x="0"
       y="0"
       inkscape:label="1"
       id="page1"
       width="189.60001"
       height="141.34666"
       margin="0"
       bleed="0" />
  </sodipodi:namedview>
  <g
     id="g1"
     inkscape:groupmode="layer"
     inkscape:label="1">
    <path
       id="path1"
       d="M 58.21553,-95.0592 C 70.78667,-25.02124 133.62,-70.13211 172.96088,-6.03001"
       style="fill:none;stroke:#000000;stroke-width:1.49442;stroke-linecap:butt;stroke-linejoin:miter;stroke-miterlimit:10;stroke-dasharray:none;stroke-opacity:1"
       transform="matrix(1.3333333,0,0,-1.3333333,-60.973333,0.24)" />
    <path
       id="path2"
       d="m 108.52884,-50.56512 5.14052,4.23928 -6.52439,1.36194 2.65096,-2.3189 z"
       style="fill:#000000;fill-opacity:1;fill-rule:nonzero;stroke:#000000;stroke-width:0.0797;stroke-linecap:butt;stroke-linejoin:miter;stroke-miterlimit:10;stroke-dasharray:none;stroke-opacity:0"
       transform="matrix(1.3333333,0,0,-1.3333333,-60.973333,0.24)" />
    <path
       id="path3"
       d="m 55.03687,-95.0592 c 0,1.64088 1.22395,2.96794 2.73033,2.96794 1.51086,0 2.7348,-1.32706 2.7348,-2.96794 0,-1.63642 -1.22394,-2.96793 -2.7348,-2.96793 -1.50638,0 -2.73033,1.33151 -2.73033,2.96793 z"
       style="fill:#9013fe;fill-opacity:1;fill-rule:nonzero;stroke:#9013fe;stroke-width:0.74721;stroke-linecap:butt;stroke-linejoin:miter;stroke-miterlimit:10;stroke-dasharray:none;stroke-opacity:1"
       transform="matrix(1.3333333,0,0,-1.3333333,-60.973333,0.24)" />
    <path
       id="path4"
       d="m 170.23056,-6.03001 c 0,1.64088 1.22394,2.96794 2.73032,2.96794 1.51086,0 2.73482,-1.32706 2.73482,-2.96794 0,-1.6364 -1.22396,-2.96795 -2.73482,-2.96795 -1.50638,0 -2.73032,1.33155 -2.73032,2.96795 z"
       style="fill:#9013fe;fill-opacity:1;fill-rule:nonzero;stroke:#9013fe;stroke-width:0.74721;stroke-linecap:butt;stroke-linejoin:miter;stroke-miterlimit:10;stroke-dasharray:none;stroke-opacity:1"
       transform="matrix(1.3333333,0,0,-1.3333333,-60.973333,0.24)" />
    <path
       id="path5"
       d="m 65.79677,-67.48697 c 0,1.64089 1.22393,2.96794 2.73031,2.96794 1.51087,0 2.73482,-1.32705 2.73482,-2.96794 0,-1.6364 -1.22395,-2.96793 -2.73482,-2.96793 -1.50638,0 -2.73031,1.33153 -2.73031,2.96793 z"
       style="fill:#9013fe;fill-opacity:1;fill-rule:nonzero;stroke:#9013fe;stroke-width:0.74721;stroke-linecap:butt;stroke-linejoin:miter;stroke-miterlimit:10;stroke-dasharray:none;stroke-opacity:1"
       transform="matrix(1.3333333,0,0,-1.3333333,-60.973333,0.24)" />
    <path
       id="path6"
       d="m 80.8158,-55.83041 c 0,1.64088 1.22393,2.96794 2.73031,2.96794 1.51088,0 2.7348,-1.32706 2.7348,-2.96794 0,-1.6364 -1.22392,-2.96793 -2.7348,-2.96793 -1.50638,0 -2.73031,1.33153 -2.73031,2.96793 z"
       style="fill:#9013fe;fill-opacity:1;fill-rule:nonzero;stroke:#9013fe;stroke-width:0.74721;stroke-linecap:butt;stroke-linejoin:miter;stroke-miterlimit:10;stroke-dasharray:none;stroke-opacity:1"
       transform="matrix(1.3333333,0,0,-1.3333333,-60.973333,0.24)" />
    <path
       id="path7"
       d="m 126.99368,-41.48389 c 0,1.6409 1.22394,2.96796 2.73035,2.96796 1.51087,0 2.7348,-1.32706 2.7348,-2.96796 0,-1.6364 -1.22393,-2.96792 -2.7348,-2.96792 -1.50641,0 -2.73035,1.33152 -2.73035,2.96792 z"
       style="fill:#9013fe;fill-opacity:1;fill-rule:nonzero;stroke:#9013fe;stroke-width:0.74721;stroke-linecap:butt;stroke-linejoin:miter;stroke-miterlimit:10;stroke-dasharray:none;stroke-opacity:1"
       transform="matrix(1.3333333,0,0,-1.3333333,-60.973333,0.24)" />
    <path
       id="path8"
       d="m 162.18753,-17.04994 c 0,1.64088 1.22394,2.96794 2.73033,2.96794 1.51087,0 2.7348,-1.32706 2.7348,-2.96794 0,-1.6364 -1.22393,-2.96793 -2.7348,-2.96793 -1.50639,0 -2.73033,1.33153 -2.73033,2.96793 z"
       style="fill:#9013fe;fill-opacity:1;fill-rule:nonzero;stroke:#9013fe;stroke-width:0.74721;stroke-linecap:butt;stroke-linejoin:miter;stroke-miterlimit:10;stroke-dasharray:none;stroke-opacity:1"
       transform="matrix(1.3333333,0,0,-1.3333333,-60.973333,0.24)" />
    <path
       id="path9"
       d="m 59.07182,-85.36633 c 0,0.86528 0.70389,1.56913 1.56916,1.56913 0.86528,0 1.56915,-0.70385 1.56915,-1.56913 0,-0.86527 -0.70387,-1.56916 -1.56915,-1.56916 -0.86527,0 -1.56916,0.70389 -1.56916,1.56916 z"
       style="fill:#f5a623;fill-opacity:1;fill-rule:nonzero;stroke:#f5a623;stroke-width:0.74721;stroke-linecap:butt;stroke-linejoin:miter;stroke-miterlimit:10;stroke-dasharray:none;stroke-opacity:1"
       transform="matrix(1.3333333,0,0,-1.3333333,-60.973333,0.24)" />
    <path
       id="path10"
       d="m 76.3325,-59.13908 c 0,0.86528 0.70388,1.56915 1.56914,1.56915 0.8653,0 1.56916,-0.70387 1.56916,-1.56915 0,-0.86527 -0.70386,-1.56914 -1.56916,-1.56914 -0.86526,0 -1.56914,0.70387 -1.56914,1.56914 z"
       style="fill:#f5a623;fill-opacity:1;fill-rule:nonzero;stroke:#f5a623;stroke-width:0.74721;stroke-linecap:butt;stroke-linejoin:miter;stroke-miterlimit:10;stroke-dasharray:none;stroke-opacity:1"
       transform="matrix(1.3333333,0,0,-1.3333333,-60.973333,0.24)" />
    <path
       id="path11"
       d="m 93.14484,-51.29332 c 0,0.86528 0.70388,1.56915 1.56915,1.56915 0.86528,0 1.56917,-0.70387 1.56917,-1.56915 0,-0.86526 -0.70389,-1.56915 -1.56917,-1.56915 -0.86527,0 -1.56915,0.70389 -1.56915,1.56915 z"
       style="fill:#f5a623;fill-opacity:1;fill-rule:nonzero;stroke:#f5a623;stroke-width:0.74721;stroke-linecap:butt;stroke-linejoin:miter;stroke-miterlimit:10;stroke-dasharray:none;stroke-opacity:1"
       transform="matrix(1.3333333,0,0,-1.3333333,-60.973333,0.24)" />
    <path
       id="path12"
       d="m 167.11916,-12.06453 c 0,0.86528 0.70388,1.56917 1.56915,1.56917 0.86528,0 1.56914,-0.70389 1.56914,-1.56917 0,-0.86527 -0.70386,-1.56914 -1.56914,-1.56914 -0.86527,0 -1.56915,0.70387 -1.56915,1.56914 z"
       style="fill:#f5a623;fill-opacity:1;fill-rule:nonzero;stroke:#f5a623;stroke-width:0.74721;stroke-linecap:butt;stroke-linejoin:miter;stroke-miterlimit:10;stroke-dasharray:none;stroke-opacity:1"
       transform="matrix(1.3333333,0,0,-1.3333333,-60.973333,0.24)" />
    <g
       id="g12"
       aria-label="z&#10;1"
       transform="matrix(1.3333333,0,0,1.3333333,33.086667,99.469333)">
      <path
         id="path13"
         d="M 1.3236719,-0.83246875 C 1.8627344,-1.4066875 2.1557031,-1.6527812 2.5072656,-1.9574687 c 0,-0.011719 0.6210938,-0.5390625 0.984375,-0.9023438 0.9375,-0.9257812 1.1601563,-1.40625 1.1601563,-1.4414062 0,-0.1054688 -0.09375,-0.1054688 -0.1054688,-0.1054688 -0.070312,0 -0.1054687,0.023437 -0.1523437,0.1171875 -0.3046875,0.46875 -0.5039063,0.6328125 -0.75,0.6328125 -0.234375,0 -0.3515625,-0.1523437 -0.5039063,-0.3164062 -0.1875,-0.234375 -0.3632812,-0.4335938 -0.6914062,-0.4335938 -0.75,0 -1.2070313,0.9257813 -1.2070313,1.1367188 0,0.046875 0.035156,0.1171875 0.1171875,0.1171875 0.09375,0 0.1171875,-0.058594 0.140625,-0.1171875 0.1875,-0.4570313 0.7617188,-0.46875 0.84375,-0.46875 0.2109375,0 0.3984375,0.070312 0.6210938,0.1523437 0.3984375,0.1523438 0.515625,0.1523438 0.7734375,0.1523438 -0.3632813,0.421875 -1.1953125,1.1367187 -1.3828125,1.3007812 L 1.4525781,-1.3012187 C 0.77289062,-0.63325 0.43304687,-0.05903125 0.43304687,0.01128125 c 0,0.09375 0.09375,0.09375 0.1171875,0.09375 0.0820313,0 0.09375,-0.01171875 0.15234375,-0.12890625 0.234375,-0.33984375 0.52734378,-0.609375 0.85546878,-0.609375 0.2226562,0 0.328125,0.0820313 0.5742187,0.375 0.1640625,0.2109375 0.3515625,0.36328125 0.6328125,0.36328125 0.984375,0 1.5703125,-1.26562495 1.5703125,-1.53515625 0,-0.046875 -0.046875,-0.09375 -0.1171875,-0.09375 -0.09375,0 -0.1171875,0.058594 -0.140625,0.1289063 -0.234375,0.6445312 -0.8671875,0.8320312 -1.1953125,0.8320312 -0.1992187,0 -0.3867187,-0.0585938 -0.5859375,-0.12890625 -0.3398437,-0.12890625 -0.4921875,-0.1640625 -0.703125,-0.1640625 -0.023437,0 -0.1757812,0 -0.2695312,0.0234375 z m 0,0"
         style="fill:#9013fe;fill-opacity:1;fill-rule:nonzero;stroke:none" />
      <path
         id="path14"
         d="m 6.96625,-2.9359844 c 0,-0.1875 -0.011719,-0.1992187 -0.2109375,-0.1992187 C 6.31,-2.7016094 5.6771875,-2.6898906 5.3959375,-2.6898906 v 0.2460937 c 0.1640625,0 0.6210937,0 1.0078125,-0.1875 v 3.55078128 c 0,0.23437502 0,0.32812502 -0.6914063,0.32812502 H 5.4428125 V 1.4937031 C 5.5717187,1.4819844 6.4271875,1.4702656 6.685,1.4702656 c 0.2109375,0 1.0898437,0.011719 1.2421875,0.023437 V 1.2476094 H 7.669375 c -0.703125,0 -0.703125,-0.09375 -0.703125,-0.32812502 z m 0,0"
         style="fill:#9013fe;fill-opacity:1;fill-rule:nonzero;stroke:none" />
    </g>
    <g
       id="g14"
       aria-label="z&#10;0"
       transform="matrix(1.3333333,0,0,1.3333333,22.153333,138.36)">
      <path
         id="path15"
         d="m 1.3234766,-0.8325 c 0.5390625,-0.5742188 0.8320312,-0.8203125 1.1835937,-1.125 0,-0.011719 0.6210938,-0.5390625 0.984375,-0.9023438 0.9375,-0.9257812 1.1601563,-1.40625 1.1601563,-1.4414062 0,-0.1054688 -0.09375,-0.1054688 -0.1054688,-0.1054688 -0.070312,0 -0.1054687,0.023437 -0.1523437,0.1171875 -0.3046875,0.46875 -0.5039063,0.6328125 -0.75,0.6328125 -0.234375,0 -0.3515625,-0.1523437 -0.5039063,-0.3164062 -0.1875,-0.234375 -0.3632812,-0.4335938 -0.6914062,-0.4335938 -0.75,0 -1.2070313,0.9257813 -1.2070313,1.1367188 0,0.046875 0.035156,0.1171875 0.1171875,0.1171875 0.09375,0 0.1171875,-0.058594 0.140625,-0.1171875 0.1875,-0.4570313 0.7617188,-0.46875 0.84375,-0.46875 0.2109375,0 0.3984375,0.070312 0.6210938,0.1523437 0.3984375,0.1523438 0.515625,0.1523438 0.7734375,0.1523438 -0.3632813,0.421875 -1.1953125,1.1367187 -1.3828125,1.3007812 L 1.4523828,-1.30125 c -0.67968749,0.66796875 -1.01953124,1.2421875 -1.01953124,1.3125 0,0.09375 0.09375,0.09375 0.1171875,0.09375 0.0820313,0 0.09375,-0.01171875 0.15234375,-0.12890625 0.234375,-0.33984375 0.52734379,-0.609375 0.85546879,-0.609375 0.2226562,0 0.328125,0.0820313 0.5742187,0.375 C 2.2961328,-0.04734375 2.4836328,0.105 2.7648828,0.105 c 0.984375,0 1.5703125,-1.265625 1.5703125,-1.5351563 0,-0.046875 -0.046875,-0.09375 -0.1171875,-0.09375 -0.09375,0 -0.1171875,0.058594 -0.140625,0.1289063 -0.234375,0.64453125 -0.8671875,0.83203125 -1.1953125,0.83203125 -0.1992187,0 -0.3867187,-0.0585938 -0.5859375,-0.12890625 -0.3398437,-0.12890625 -0.4921875,-0.1640625 -0.703125,-0.1640625 -0.023437,0 -0.1757812,0 -0.2695312,0.0234375 z m 0,0"
         style="fill:#9013fe;fill-opacity:1;fill-rule:nonzero;stroke:none" />
      <path
         id="path16"
         d="m 8.2316797,-0.73289063 c 0,-0.76171877 -0.09375,-1.31249997 -0.4101563,-1.80468747 -0.2226562,-0.3164063 -0.6445312,-0.5976563 -1.2070312,-0.5976563 -1.6171875,0 -1.6171875,1.8984375 -1.6171875,2.40234377 0,0.50390625 0,2.36718753 1.6171875,2.36718753 1.6171875,0 1.6171875,-1.86328128 1.6171875,-2.36718753 z M 6.6144922,1.4350781 c -0.3164063,0 -0.75,-0.1875 -0.890625,-0.76171873 -0.09375,-0.41015625 -0.09375,-0.984375 -0.09375,-1.5 0,-0.50390627 0,-1.03124997 0.1054687,-1.41796877 0.1523438,-0.5507812 0.5976563,-0.6914062 0.8789063,-0.6914062 0.375,0 0.7382812,0.2226562 0.8671875,0.6328125 0.1054687,0.375 0.1171875,0.8789062 0.1171875,1.47656247 0,0.515625 0,1.04296875 -0.09375,1.4765625 C 7.3644922,1.2827344 6.8957422,1.4350781 6.6144922,1.4350781 Z m 0,0"
         style="fill:#9013fe;fill-opacity:1;fill-rule:nonzero;stroke:none" />
    </g>
    <g
       id="g16"
       aria-label="z&#10;n"
       transform="matrix(1.3333333,0,0,1.3333333,175.08133,19.654667)">
      <path
         id="path17"
         d="M 1.3247422,-0.83084375 C 1.8638047,-1.4050625 2.1567734,-1.6511563 2.5083359,-1.9558438 c 0,-0.011719 0.6210938,-0.5390625 0.984375,-0.9023437 0.9375,-0.9257813 1.1601563,-1.40625 1.1601563,-1.4414063 0,-0.1054687 -0.09375,-0.1054687 -0.1054688,-0.1054687 -0.070312,0 -0.1054687,0.023437 -0.1523437,0.1171875 -0.3046875,0.46875 -0.5039063,0.6328125 -0.75,0.6328125 -0.234375,0 -0.3515625,-0.1523438 -0.5039063,-0.3164063 -0.1875,-0.234375 -0.3632812,-0.4335937 -0.6914062,-0.4335937 -0.75,0 -1.2070313,0.9257812 -1.2070313,1.1367187 0,0.046875 0.035156,0.1171875 0.1171875,0.1171875 0.09375,0 0.1171875,-0.058594 0.140625,-0.1171875 0.1875,-0.4570312 0.7617188,-0.46875 0.84375,-0.46875 0.2109375,0 0.3984375,0.070312 0.6210938,0.1523438 0.3984375,0.1523437 0.515625,0.1523437 0.7734375,0.1523437 -0.3632813,0.421875 -1.1953125,1.1367188 -1.3828125,1.3007813 l -0.9023438,0.8320312 c -0.67968746,0.6679688 -1.01953121,1.24218755 -1.01953121,1.31250005 0,0.09375 0.09375,0.09375 0.1171875,0.09375 0.0820313,0 0.09375,-0.01171875 0.15234375,-0.12890625 0.234375,-0.33984375 0.52734376,-0.609375 0.85546876,-0.609375 0.2226562,0 0.328125,0.0820313 0.5742187,0.375 0.1640625,0.2109375 0.3515625,0.36328125 0.6328125,0.36328125 0.984375,0 1.5703125,-1.26562505 1.5703125,-1.53515625 0,-0.046875 -0.046875,-0.09375 -0.1171875,-0.09375 -0.09375,0 -0.1171875,0.058594 -0.140625,0.1289062 -0.234375,0.6445313 -0.8671875,0.8320313 -1.1953125,0.8320313 -0.1992187,0 -0.3867187,-0.0585938 -0.5859375,-0.12890625 -0.3398437,-0.12890625 -0.4921875,-0.1640625 -0.703125,-0.1640625 -0.023437,0 -0.1757812,0 -0.2695312,0.0234375 z m 0,0"
         style="fill:#9013fe;fill-opacity:1;fill-rule:nonzero;stroke:none" />
      <path
         id="path18"
         d="m 5.4878281,1.0617344 c -0.035156,0.082031 -0.070312,0.2578125 -0.070312,0.28125 0,0.1523437 0.1171875,0.2226562 0.234375,0.2226562 0.1289063,0 0.234375,-0.09375 0.2695313,-0.1523437 0.035156,-0.058594 0.09375,-0.2929688 0.1289062,-0.43359378 0.035156,-0.12890625 0.1054688,-0.45703125 0.1523438,-0.6328125 0.035156,-0.15234375 0.082031,-0.3046875 0.1171875,-0.45703125 0.082031,-0.29296875 0.09375,-0.3515625 0.2929687,-0.6328125 0.1992188,-0.28124997 0.5273438,-0.64453127 1.0429688,-0.64453127 0.4101562,0 0.4101562,0.3632813 0.4101562,0.49218752 0,0.421875 -0.2929687,1.1953125 -0.4101562,1.48828125 -0.070312,0.1875 -0.1054688,0.2578125 -0.1054688,0.375 0,0.36328123 0.3046875,0.59765623 0.6679688,0.59765623 0.6914062,0 1.0078125,-0.96093748 1.0078125,-1.06640623 0,-0.09375 -0.09375,-0.09375 -0.1171875,-0.09375 -0.09375,0 -0.1054688,0.046875 -0.1289063,0.1171875 -0.1640625,0.56250003 -0.46875,0.84375003 -0.7382812,0.84375003 -0.1523438,0 -0.1757813,-0.09375 -0.1757813,-0.2460938 0,-0.15234373 0.035156,-0.24609373 0.1523438,-0.56249998 0.09375,-0.2109375 0.375,-0.94921875 0.375,-1.34765625 0,-0.66796877 -0.5390625,-0.78515627 -0.9023438,-0.78515627 -0.5859375,0 -0.9726562,0.3515625 -1.1835937,0.63281252 -0.046875,-0.48046872 -0.4570313,-0.63281252 -0.75,-0.63281252 -0.2929688,0 -0.4570313,0.2109375 -0.5507813,0.375 -0.1523437,0.25781252 -0.2460937,0.65625002 -0.2460937,0.69140627 0,0.0820312 0.09375,0.0820312 0.1171875,0.0820312 0.09375,0 0.1054687,-0.0117188 0.1523437,-0.19921875 0.1054688,-0.42187492 0.234375,-0.76171872 0.515625,-0.76171872 0.1757813,0 0.2226563,0.1523438 0.2226563,0.3398438 0,0.14062492 -0.058594,0.39843742 -0.1054688,0.58593742 -0.046875,0.1875 -0.1171875,0.46875 -0.1523437,0.62109375 z m 0,0"
         style="fill:#9013fe;fill-opacity:1;fill-rule:nonzero;stroke:none" />
    </g>
    <g
       id="g18"
       aria-label="z&#10;2"
       transform="matrix(1.3333333,0,0,1.3333333,53.709333,83.926667)">
      <path
         id="path19"
         d="M 1.3254219,-0.83269531 C 1.8644844,-1.4069141 2.1574531,-1.6530078 2.5090156,-1.9576953 c 0,-0.011719 0.6210938,-0.5390625 0.984375,-0.9023438 0.9375,-0.9257812 1.1601563,-1.40625 1.1601563,-1.4414062 0,-0.1054688 -0.09375,-0.1054688 -0.1054688,-0.1054688 -0.070312,0 -0.1054687,0.023437 -0.1523437,0.1171875 -0.3046875,0.46875 -0.5039063,0.6328125 -0.75,0.6328125 -0.234375,0 -0.3515625,-0.1523437 -0.5039063,-0.3164062 -0.1875,-0.234375 -0.3632812,-0.4335938 -0.6914062,-0.4335938 -0.75,0 -1.2070313,0.9257813 -1.2070313,1.1367188 0,0.046875 0.035156,0.1171875 0.1171875,0.1171875 0.09375,0 0.1171875,-0.058594 0.140625,-0.1171875 0.1875,-0.4570313 0.7617188,-0.46875 0.84375,-0.46875 0.2109375,0 0.3984375,0.070312 0.6210938,0.1523437 0.3984375,0.1523438 0.515625,0.1523438 0.7734375,0.1523438 -0.3632813,0.421875 -1.1953125,1.1367187 -1.3828125,1.3007812 l -0.9023438,0.8320313 c -0.67968747,0.66796874 -1.01953122,1.24218749 -1.01953122,1.31249999 0,0.09375 0.09375,0.09375 0.1171875,0.09375 0.0820313,0 0.09375,-0.01171875 0.15234375,-0.12890625 0.234375,-0.33984375 0.52734377,-0.609375 0.85546877,-0.609375 0.2226562,0 0.328125,0.0820313 0.5742187,0.375 0.1640625,0.2109375 0.3515625,0.36328125 0.6328125,0.36328125 0.984375,0 1.5703125,-1.26562499 1.5703125,-1.53515629 0,-0.046875 -0.046875,-0.09375 -0.1171875,-0.09375 -0.09375,0 -0.1171875,0.058594 -0.140625,0.1289063 -0.234375,0.64453124 -0.8671875,0.83203124 -1.1953125,0.83203124 -0.1992187,0 -0.3867187,-0.0585938 -0.5859375,-0.12890625 -0.3398437,-0.12890625 -0.4921875,-0.1640625 -0.703125,-0.1640625 -0.023437,0 -0.1757812,0 -0.2695312,0.0234375 z m 0,0"
         style="fill:#9013fe;fill-opacity:1;fill-rule:nonzero;stroke:none" />
      <path
         id="path20"
         d="m 8.1486641,0.22785156 h -0.234375 c -0.023437,0.15234375 -0.082031,0.5625 -0.1757813,0.6328125 -0.058594,0.0351563 -0.5976562,0.0351563 -0.6914062,0.0351563 H 5.7580391 c 0.7382812,-0.64453125 0.984375,-0.84375 1.3945312,-1.171875 0.515625,-0.41015625 0.9960938,-0.84374996 0.9960938,-1.49999996 0,-0.84375 -0.7382813,-1.359375 -1.6289063,-1.359375 -0.8671875,0 -1.453125,0.609375 -1.453125,1.2421875 0,0.3632813 0.3046875,0.3984375 0.375,0.3984375 0.1640625,0 0.375,-0.1171875 0.375,-0.375 0,-0.1289062 -0.058594,-0.3632812 -0.421875,-0.3632812 0.2226563,-0.5039063 0.6914063,-0.65625 1.0195313,-0.65625 0.703125,0 1.0664062,0.5507812 1.0664062,1.1132812 0,0.609375 -0.4335937,1.08984371 -0.65625,1.33593746 l -1.6875,1.66406254 c -0.070312,0.058594 -0.070312,0.070312 -0.070312,0.2695313 h 2.8828125 z m 0,0"
         style="fill:#9013fe;fill-opacity:1;fill-rule:nonzero;stroke:none" />
    </g>
    <g
       id="g20"
       aria-label="z&#10;n−1"
       transform="matrix(1.3333333,0,0,1.3333333,161.60667,32.22)">
      <path
         id="path21"
         d="M 1.3233203,-0.83296875 C 1.8623828,-1.4071875 2.1553516,-1.6532812 2.5069141,-1.9579687 c 0,-0.011719 0.6210937,-0.5390625 0.984375,-0.9023438 0.9375,-0.9257812 1.1601562,-1.40625 1.1601562,-1.4414062 0,-0.1054688 -0.09375,-0.1054688 -0.1054687,-0.1054688 -0.070312,0 -0.1054688,0.023437 -0.1523438,0.1171875 -0.3046875,0.46875 -0.5039062,0.6328125 -0.75,0.6328125 -0.234375,0 -0.3515625,-0.1523437 -0.5039062,-0.3164062 -0.1875,-0.234375 -0.3632813,-0.4335938 -0.6914063,-0.4335938 -0.75,0 -1.2070312,0.9257813 -1.2070312,1.1367188 0,0.046875 0.035156,0.1171875 0.1171875,0.1171875 0.09375,0 0.1171875,-0.058594 0.140625,-0.1171875 0.1875,-0.4570313 0.7617187,-0.46875 0.84375,-0.46875 0.2109375,0 0.3984375,0.070312 0.6210937,0.1523437 0.3984375,0.1523438 0.515625,0.1523438 0.7734375,0.1523438 -0.3632812,0.421875 -1.1953125,1.1367187 -1.3828125,1.3007812 L 1.4522266,-1.3017187 C 0.77253906,-0.63375 0.43269531,-0.05953125 0.43269531,0.01078125 c 0,0.09375 0.09375,0.09375 0.1171875,0.09375 0.0820313,0 0.09375,-0.01171875 0.15234375,-0.12890625 0.234375,-0.33984375 0.52734374,-0.609375 0.85546874,-0.609375 0.2226563,0 0.328125,0.0820313 0.5742188,0.375 0.1640625,0.2109375 0.3515625,0.36328125 0.6328125,0.36328125 0.984375,0 1.5703125,-1.26562495 1.5703125,-1.53515625 0,-0.046875 -0.046875,-0.09375 -0.1171875,-0.09375 -0.09375,0 -0.1171875,0.058594 -0.140625,0.1289063 -0.234375,0.6445312 -0.8671875,0.8320312 -1.1953125,0.8320312 -0.1992188,0 -0.3867188,-0.0585938 -0.5859375,-0.12890625 -0.3398438,-0.12890625 -0.4921875,-0.1640625 -0.703125,-0.1640625 -0.023437,0 -0.1757813,0 -0.2695313,0.0234375 z m 0,0"
         style="fill:#9013fe;fill-opacity:1;fill-rule:nonzero;stroke:none" />
      <path
         id="path22"
         d="m 5.4893359,1.0596094 c -0.035156,0.082031 -0.070312,0.2578125 -0.070312,0.28125 0,0.1523437 0.1171875,0.2226562 0.234375,0.2226562 0.1289063,0 0.234375,-0.09375 0.2695313,-0.1523437 0.035156,-0.058594 0.09375,-0.2929688 0.1289062,-0.43359377 0.035156,-0.12890625 0.1054688,-0.45703125 0.1523438,-0.6328125 0.035156,-0.15234375 0.082031,-0.3046875 0.1171875,-0.45703125 0.082031,-0.29296875 0.09375,-0.3515625 0.2929687,-0.6328125 0.1992188,-0.28124998 0.5273438,-0.64453128 1.0429688,-0.64453128 0.4101562,0 0.4101562,0.3632813 0.4101562,0.49218753 0,0.421875 -0.2929687,1.1953125 -0.4101562,1.48828125 -0.070312,0.1875 -0.1054688,0.2578125 -0.1054688,0.375 0,0.36328122 0.3046875,0.59765622 0.6679688,0.59765622 0.6914062,0 1.0078125,-0.96093747 1.0078125,-1.06640622 0,-0.09375 -0.09375,-0.09375 -0.1171875,-0.09375 -0.09375,0 -0.1054688,0.046875 -0.1289063,0.1171875 -0.1640625,0.56250002 -0.46875,0.84375002 -0.7382812,0.84375002 -0.1523438,0 -0.1757813,-0.09375 -0.1757813,-0.2460938 0,-0.15234372 0.035156,-0.24609372 0.1523438,-0.56249997 0.09375,-0.2109375 0.375,-0.94921875 0.375,-1.34765625 0,-0.66796878 -0.5390625,-0.78515628 -0.9023438,-0.78515628 -0.5859375,0 -0.9726562,0.3515625 -1.1835937,0.63281253 -0.046875,-0.48046873 -0.4570313,-0.63281253 -0.75,-0.63281253 -0.2929688,0 -0.4570313,0.2109375 -0.5507813,0.375 -0.1523437,0.25781253 -0.2460937,0.65625003 -0.2460937,0.69140628 0,0.0820312 0.09375,0.0820312 0.1171875,0.0820312 0.09375,0 0.1054687,-0.0117188 0.1523437,-0.19921875 0.1054688,-0.42187493 0.234375,-0.76171873 0.515625,-0.76171873 0.1757813,0 0.2226563,0.1523438 0.2226563,0.3398438 0,0.14062493 -0.058594,0.39843743 -0.1054688,0.58593743 -0.046875,0.1875 -0.1171875,0.46875 -0.1523437,0.62109375 z m 0,0"
         style="fill:#9013fe;fill-opacity:1;fill-rule:nonzero;stroke:none" />
      <path
         id="path23"
         d="m 14.750078,-0.07710937 c 0.105469,0 0.269531,0 0.269531,-0.17578125 0,-0.17578125 -0.152343,-0.17578125 -0.269531,-0.17578125 h -4.160156 c -0.105469,0 -0.28125,0 -0.28125,0.17578125 0,0.17578125 0.164062,0.17578125 0.28125,0.17578125 z m 0,0"
         style="fill:#9013fe;fill-opacity:1;fill-rule:nonzero;stroke:none" />
      <path
         id="path24"
         d="m 18.116289,-2.9364844 c 0,-0.1875 -0.01172,-0.1992187 -0.210937,-0.1992187 -0.445313,0.4335937 -1.078125,0.4453125 -1.359375,0.4453125 v 0.2460937 c 0.164062,0 0.621093,0 1.007812,-0.1875 v 3.55078128 c 0,0.23437502 0,0.32812502 -0.691406,0.32812502 h -0.269531 v 0.2460937 c 0.128906,-0.011719 0.984375,-0.023437 1.242187,-0.023437 0.210938,0 1.089844,0.011719 1.242188,0.023437 V 1.2471094 h -0.257813 c -0.703125,0 -0.703125,-0.09375 -0.703125,-0.32812502 z m 0,0"
         style="fill:#9013fe;fill-opacity:1;fill-rule:nonzero;stroke:none" />
    </g>
    <path
       id="path25"
       d="m 1.9048302,-2.4980632 c -0.00269,-0.2853691 -0.2316073,-0.5233683 -0.5169764,-0.5206812 -0.2853691,0.00269 -0.53821843,0.2389662 -0.53553134,0.5243353 -0.001059,0.2964736 0.25007074,0.541964 0.53543984,0.5392769 0.285369,-0.00269 0.5160094,-0.2464574 0.5170679,-0.542931 z m 4.4156631,-9.113e-4 c -0.00269,-0.285369 -0.2316073,-0.5233683 -0.5169763,-0.5206812 -0.2853691,0.00269 -0.5382185,0.2389663 -0.5355314,0.5243353 -0.00106,0.2964736 0.2500708,0.5419641 0.5354398,0.539277 0.2853691,-0.00269 0.5160094,-0.2464575 0.5170679,-0.5429311 z m 4.4212157,9.616e-4 c -0.0027,-0.2853691 -0.231608,-0.5233683 -0.516977,-0.5206812 -0.2853687,0.00269 -0.5382181,0.2389662 -0.535531,0.5243353 -0.00106,0.2964736 0.2500708,0.541964 0.53544,0.5392769 0.285369,-0.00269 0.516009,-0.2464574 0.517068,-0.542931 z m 0,0"
       style="fill:#000000;fill-opacity:1;fill-rule:nonzero;stroke:none"
       aria-label="···"
       transform="matrix(1.2633467,-0.42613333,0.42613333,1.2633467,110.67367,72.389506)" />
    <g
       id="g25"
       aria-label="ζ&#10;1"
       transform="matrix(1.3333333,0,0,1.3333333,5.42,107.952)">
      <path
         id="path26"
         d="M 3.2240625,-5.7647813 C 3.4115625,-5.589 3.6342187,-5.589 3.8334375,-5.589 c 0.2578125,0 0.890625,0 0.890625,-0.3046875 0,-0.2460938 -0.3984375,-0.2695313 -0.796875,-0.2695313 -0.1054688,0 -0.375,0 -0.6328125,0.09375 -0.058594,-0.1171875 -0.070312,-0.1640625 -0.070312,-0.375 0,-0.140625 0.046875,-0.3515625 0.046875,-0.3632812 0,-0.082031 -0.046875,-0.1289063 -0.1171875,-0.1289063 -0.1875,0 -0.1875,0.4570313 -0.1875,0.4804688 0,0.1757812 0.035156,0.3515625 0.1171875,0.5039062 -1.0546875,0.5273438 -2.625,2.3554688 -2.625,4.2890625 0,1.40625005 0.9023437,1.6992188 1.6289062,1.94531255 0.2929688,0.10546875 0.3164063,0.10546875 0.609375,0.2109375 0.1992188,0.0703125 0.609375,0.2109375 0.609375,0.66796875 0,0.2695312 -0.1875,0.6679687 -0.5507812,0.6679687 -0.257813,0 -0.5273443,-0.1289062 -0.7382818,-0.3046875 C 1.9467187,1.4656875 1.935,1.4539687 1.8998437,1.4539687 c -0.058594,0 -0.1054687,0.046875 -0.1054687,0.1054688 0,0.1054687 0.4335937,0.4804687 0.9609375,0.4804687 0.609375,0 1.078125,-0.6328125 1.078125,-1.2070312 0,-0.375 -0.1875,-0.5859375 -0.2695313,-0.66796875 -0.1640625,-0.1875 -0.3515625,-0.24609375 -0.9375,-0.4453125 C 1.8295312,-0.5499375 1.6654687,-0.5968125 1.4310937,-0.80775 c -0.421875,-0.375 -0.421875,-0.9492188 -0.421875,-1.1367188 0,-1.546875 1.21875,-3.28125 2.2148438,-3.8203125 z m 0.234375,-0.1171875 c 0.1523437,-0.058594 0.328125,-0.058594 0.4570312,-0.058594 0.328125,0 0.375,0 0.5507813,0.058594 -0.082031,0.023437 -0.1757813,0.070312 -0.6210938,0.070312 -0.2109375,0 -0.28125,0 -0.3867187,-0.070312 z m 0,0"
         style="fill:#f5a623;fill-opacity:1;fill-rule:nonzero;stroke:none" />
      <path
         id="path27"
         d="m 6.6898828,-2.9347031 c 0,-0.1875 -0.011719,-0.1992188 -0.2109375,-0.1992188 -0.4453125,0.4335938 -1.078125,0.4453125 -1.359375,0.4453125 v 0.2460938 c 0.1640625,0 0.6210938,0 1.0078125,-0.1875 v 3.55078122 c 0,0.23437498 0,0.32812498 -0.6914062,0.32812498 H 5.1664453 v 0.2460938 c 0.1289063,-0.011719 0.984375,-0.023437 1.2421875,-0.023437 0.2109375,0 1.0898438,0.011719 1.2421875,0.023437 V 1.2488906 H 7.3930078 c -0.703125,0 -0.703125,-0.09375 -0.703125,-0.32812498 z m 0,0"
         style="fill:#f5a623;fill-opacity:1;fill-rule:nonzero;stroke:none" />
    </g>
    <g
       id="g27"
       aria-label="ζ&#10;2"
       transform="matrix(1.3333333,0,0,1.3333333,28.434667,72.982667)">
      <path
         id="path28"
         d="m 3.2218516,-5.7643437 c 0.1875,0.1757812 0.4101562,0.1757812 0.609375,0.1757812 0.2578125,0 0.890625,0 0.890625,-0.3046875 0,-0.2460937 -0.3984375,-0.2695312 -0.796875,-0.2695312 -0.1054688,0 -0.375,0 -0.6328125,0.09375 -0.058594,-0.1171875 -0.070312,-0.1640625 -0.070312,-0.375 0,-0.140625 0.046875,-0.3515625 0.046875,-0.3632813 0,-0.082031 -0.046875,-0.1289062 -0.1171875,-0.1289062 -0.1875,0 -0.1875,0.4570312 -0.1875,0.4804687 0,0.1757813 0.035156,0.3515625 0.1171875,0.5039063 -1.0546875,0.5273437 -2.62500004,2.3554687 -2.62500004,4.2890625 0,1.40624995 0.90234374,1.6992187 1.62890624,1.94531245 C 2.3781016,0.388 2.4015391,0.388 2.6945078,0.49346875 c 0.1992188,0.0703125 0.609375,0.2109375 0.609375,0.66796875 0,0.2695313 -0.1875,0.6679688 -0.5507812,0.6679688 -0.2578125,0 -0.5273438,-0.1289063 -0.7382813,-0.3046875 -0.070312,-0.058594 -0.082031,-0.070312 -0.1171875,-0.070312 -0.058594,0 -0.1054687,0.046875 -0.1054687,0.1054687 0,0.1054688 0.4335937,0.4804688 0.9609375,0.4804688 0.609375,0 1.078125,-0.6328125 1.078125,-1.2070313 0,-0.375 -0.1875,-0.5859375 -0.2695313,-0.66796875 -0.1640625,-0.1875 -0.3515625,-0.24609375 -0.9375,-0.4453125 C 1.8273203,-0.5495 1.6632578,-0.596375 1.4288828,-0.8073125 c -0.421875,-0.375 -0.421875,-0.9492187 -0.421875,-1.1367187 0,-1.546875 1.21875,-3.28125 2.2148438,-3.8203125 z m 0.234375,-0.1171875 c 0.1523437,-0.058594 0.328125,-0.058594 0.4570312,-0.058594 0.328125,0 0.375,0 0.5507813,0.058594 -0.082031,0.023437 -0.1757813,0.070312 -0.6210938,0.070312 -0.2109375,0 -0.28125,0 -0.3867187,-0.070312 z m 0,0"
         style="fill:#f5a623;fill-opacity:1;fill-rule:nonzero;stroke:none" />
      <path
         id="path29"
         d="m 7.8741953,0.22979688 h -0.234375 c -0.023437,0.15234375 -0.082031,0.5625 -0.1757812,0.6328125 -0.058594,0.0351563 -0.5976563,0.0351563 -0.6914063,0.0351563 H 5.4835703 c 0.7382813,-0.64453125 0.984375,-0.84375 1.3945313,-1.171875 0.515625,-0.41015625 0.9960937,-0.84374998 0.9960937,-1.49999998 0,-0.84375 -0.7382812,-1.359375 -1.6289062,-1.359375 -0.8671875,0 -1.453125,0.609375 -1.453125,1.2421875 0,0.3632813 0.3046875,0.3984375 0.375,0.3984375 0.1640625,0 0.375,-0.1171875 0.375,-0.375 0,-0.1289062 -0.058594,-0.3632812 -0.421875,-0.3632812 0.2226562,-0.5039063 0.6914062,-0.65625 1.0195312,-0.65625 0.703125,0 1.0664063,0.5507812 1.0664063,1.1132812 0,0.609375 -0.4335938,1.08984373 -0.65625,1.33593748 l -1.6875,1.66406252 c -0.070312,0.058594 -0.070312,0.070312 -0.070312,0.2695313 h 2.8828125 z m 0,0"
         style="fill:#f5a623;fill-opacity:1;fill-rule:nonzero;stroke:none" />
    </g>
    <g
       id="g29"
       aria-label="ζ&#10;3"
       transform="matrix(1.3333333,0,0,1.3333333,50.850667,62.521333)">
      <path
         id="path30"
         d="m 3.2233281,-5.7669766 c 0.1875,0.1757813 0.4101563,0.1757813 0.609375,0.1757813 0.2578125,0 0.890625,0 0.890625,-0.3046875 0,-0.2460938 -0.3984375,-0.2695313 -0.796875,-0.2695313 -0.1054687,0 -0.375,0 -0.6328125,0.09375 -0.058594,-0.1171875 -0.070312,-0.1640625 -0.070312,-0.375 0,-0.140625 0.046875,-0.3515625 0.046875,-0.3632812 0,-0.082031 -0.046875,-0.1289063 -0.1171875,-0.1289063 -0.1875,0 -0.1875,0.4570313 -0.1875,0.4804688 0,0.1757812 0.035156,0.3515625 0.1171875,0.5039062 -1.0546875,0.5273438 -2.62499997,2.3554688 -2.62499997,4.2890625 0,1.40625004 0.90234377,1.69921879 1.62890627,1.94531254 0.2929687,0.10546875 0.3164062,0.10546875 0.609375,0.2109375 0.1992187,0.0703125 0.609375,0.2109375 0.609375,0.66796876 0,0.2695312 -0.1875,0.6679687 -0.5507813,0.6679687 -0.2578125,0 -0.5273437,-0.1289062 -0.7382812,-0.3046875 -0.070312,-0.058594 -0.082031,-0.070312 -0.1171875,-0.070312 -0.058594,0 -0.1054688,0.046875 -0.1054688,0.1054688 0,0.1054687 0.4335938,0.4804687 0.9609375,0.4804687 0.609375,0 1.078125,-0.6328125 1.078125,-1.20703121 0,-0.375 -0.1875,-0.5859375 -0.2695312,-0.66796875 -0.1640625,-0.1875 -0.3515625,-0.24609375 -0.9375,-0.4453125 -0.7968755,-0.26953175 -0.960938,-0.31640675 -1.195313,-0.52734425 -0.421875,-0.37499999 -0.421875,-0.94921879 -0.421875,-1.13671879 0,-1.546875 1.21875,-3.28125 2.2148437,-3.8203125 z m 0.234375,-0.1171875 c 0.1523438,-0.058594 0.328125,-0.058594 0.4570313,-0.058594 0.328125,0 0.375,0 0.5507812,0.058594 -0.082031,0.023437 -0.1757812,0.070312 -0.6210937,0.070312 -0.2109375,0 -0.28125,0 -0.3867188,-0.070312 z m 0,0"
         style="fill:#f5a623;fill-opacity:1;fill-rule:nonzero;stroke:none" />
      <path
         id="path31"
         d="m 6.2584844,-0.83924219 c 0.5507812,0 0.9375,0.375 0.9375,1.125 0,0.86718749 -0.5039063,1.12499999 -0.9023438,1.12499999 -0.28125,0 -0.890625,-0.082031 -1.1835937,-0.49218749 0.328125,-0.0117188 0.3984375,-0.24609375 0.3984375,-0.38671875 0,-0.22265625 -0.1640625,-0.38671875 -0.3867188,-0.38671875 -0.1875,0 -0.3867187,0.1171875 -0.3867187,0.41015625 0,0.65625004 0.7265625,1.07812504 1.5703125,1.07812504 0.9726562,0 1.640625,-0.64453129 1.640625,-1.34765629 0,-0.5390625 -0.4453125,-1.08984375 -1.21875,-1.2421875 0.7382812,-0.26953121 0.9960937,-0.79687501 0.9960937,-1.21875001 0,-0.5507812 -0.6328125,-0.9609375 -1.40625,-0.9609375 -0.7734375,0 -1.359375,0.375 -1.359375,0.9375 0,0.234375 0.1523438,0.3632813 0.3632813,0.3632813 0.2109375,0 0.3515625,-0.1640625 0.3515625,-0.3515625 0,-0.1992188 -0.140625,-0.3515625 -0.3515625,-0.3632813 0.234375,-0.3046875 0.7148437,-0.3867187 0.9726562,-0.3867187 0.3164063,0 0.7617188,0.1523437 0.7617188,0.7617187 0,0.2929688 -0.1054688,0.609375 -0.28125,0.8320313 -0.234375,0.2578125 -0.421875,0.28125 -0.7734375,0.2929687 -0.1757813,0.023437 -0.1875,0.023437 -0.2226563,0.023437 -0.011719,0 -0.070312,0.011719 -0.070312,0.09375 0,0.09375 0.058594,0.09375 0.1757813,0.09375 z m 0,0"
         style="fill:#f5a623;fill-opacity:1;fill-rule:nonzero;stroke:none" />
    </g>
    <g
       id="g31"
       aria-label="ζ&#10;n"
       transform="matrix(1.3333333,0,0,1.3333333,148.212,10.216)">
      <path
         id="path32"
         d="m 3.2218594,-5.7664922 c 0.1875,0.1757813 0.4101562,0.1757813 0.609375,0.1757813 0.2578125,0 0.890625,0 0.890625,-0.3046875 0,-0.2460938 -0.3984375,-0.2695313 -0.796875,-0.2695313 -0.1054688,0 -0.375,0 -0.6328125,0.09375 -0.058594,-0.1171875 -0.070312,-0.1640625 -0.070312,-0.375 0,-0.140625 0.046875,-0.3515625 0.046875,-0.3632812 0,-0.082031 -0.046875,-0.1289063 -0.1171875,-0.1289063 -0.1875,0 -0.1875,0.4570313 -0.1875,0.4804688 0,0.1757812 0.035156,0.3515625 0.1171875,0.5039062 -1.0546875,0.5273438 -2.62500003,2.3554688 -2.62500003,4.2890625 0,1.40625001 0.90234373,1.69921876 1.62890623,1.94531251 0.2929688,0.10546875 0.3164063,0.10546875 0.609375,0.2109375 0.1992188,0.0703125 0.609375,0.2109375 0.609375,0.66796879 0,0.2695312 -0.1875,0.6679687 -0.5507812,0.6679687 -0.2578125,0 -0.5273438,-0.1289062 -0.7382813,-0.3046875 -0.070312,-0.058594 -0.082031,-0.070312 -0.1171875,-0.070312 -0.058594,0 -0.1054687,0.046875 -0.1054687,0.1054688 0,0.1054687 0.4335937,0.4804687 0.9609375,0.4804687 0.609375,0 1.078125,-0.6328125 1.078125,-1.20703124 0,-0.375 -0.1875,-0.5859375 -0.2695313,-0.66796875 -0.1640625,-0.1875 -0.3515625,-0.24609375 -0.9375,-0.4453125 -0.7968755,-0.26953175 -0.960938,-0.31640675 -1.195313,-0.52734425 -0.421875,-0.37499996 -0.421875,-0.94921876 -0.421875,-1.13671876 0,-1.546875 1.21875,-3.28125 2.2148438,-3.8203125 z m 0.234375,-0.1171875 c 0.1523437,-0.058594 0.328125,-0.058594 0.4570312,-0.058594 0.328125,0 0.375,0 0.5507813,0.058594 -0.082031,0.023437 -0.1757813,0.070312 -0.6210938,0.070312 -0.2109375,0 -0.28125,0 -0.3867187,-0.070312 z m 0,0"
         style="fill:#f5a623;fill-opacity:1;fill-rule:nonzero;stroke:none" />
      <path
         id="path33"
         d="m 5.2140469,1.0596797 c -0.035156,0.082031 -0.070312,0.2578125 -0.070312,0.28125 0,0.1523437 0.1171875,0.2226562 0.234375,0.2226562 0.1289062,0 0.234375,-0.09375 0.2695312,-0.1523437 0.035156,-0.058594 0.09375,-0.2929688 0.1289063,-0.43359376 0.035156,-0.12890625 0.1054687,-0.45703125 0.1523437,-0.6328125 0.035156,-0.15234375 0.082031,-0.3046875 0.1171875,-0.45703125 0.082031,-0.29296875 0.09375,-0.3515625 0.2929688,-0.6328125 0.1992187,-0.28124999 0.5273437,-0.64453129 1.0429687,-0.64453129 0.4101563,0 0.4101563,0.3632813 0.4101563,0.49218754 0,0.421875 -0.2929688,1.1953125 -0.4101563,1.48828125 -0.070312,0.1875 -0.1054687,0.2578125 -0.1054687,0.375 0,0.36328121 0.3046875,0.59765621 0.6679687,0.59765621 0.6914063,0 1.0078125,-0.96093746 1.0078125,-1.06640621 0,-0.09375 -0.09375,-0.09375 -0.1171875,-0.09375 -0.09375,0 -0.1054687,0.046875 -0.1289062,0.1171875 -0.1640625,0.56250001 -0.46875,0.84375001 -0.7382813,0.84375001 -0.1523437,0 -0.1757812,-0.09375 -0.1757812,-0.2460938 0,-0.15234371 0.035156,-0.24609371 0.1523437,-0.56249996 0.09375,-0.2109375 0.375,-0.94921875 0.375,-1.34765625 0,-0.66796879 -0.5390625,-0.78515629 -0.9023437,-0.78515629 -0.5859375,0 -0.9726563,0.3515625 -1.1835938,0.63281254 -0.046875,-0.48046874 -0.4570312,-0.63281254 -0.75,-0.63281254 -0.2929687,0 -0.4570312,0.2109375 -0.5507812,0.375 -0.1523438,0.25781254 -0.2460938,0.65625004 -0.2460938,0.69140629 0,0.0820313 0.09375,0.0820313 0.1171875,0.0820313 0.09375,0 0.1054688,-0.0117188 0.1523438,-0.19921875 0.1054687,-0.42187494 0.234375,-0.76171874 0.515625,-0.76171874 0.1757812,0 0.2226562,0.1523438 0.2226562,0.3398438 0,0.14062494 -0.058594,0.39843744 -0.1054687,0.58593744 -0.046875,0.1875 -0.1171875,0.46875 -0.1523438,0.62109375 z m 0,0"
         style="fill:#f5a623;fill-opacity:1;fill-rule:nonzero;stroke:none" />
    </g>
  </g>
</svg>
