<?xml version="1.0" encoding="UTF-8" standalone="no"?>
<!-- Created with Inkscape (http://www.inkscape.org/) -->

<svg
   version="1.1"
   id="svg1"
   width="182.12"
   height="137.52"
   viewBox="0 0 182.12 137.52"
   sodipodi:docname="curve-subdivision.pdf"
   xmlns:inkscape="http://www.inkscape.org/namespaces/inkscape"
   xmlns:sodipodi="http://sodipodi.sourceforge.net/DTD/sodipodi-0.dtd"
   xmlns="http://www.w3.org/2000/svg"
   xmlns:svg="http://www.w3.org/2000/svg">
  <defs
     id="defs1" />
  <sodipodi:namedview
     id="namedview1"
     pagecolor="#ffffff"
     bordercolor="#000000"
     borderopacity="0.25"
     inkscape:showpageshadow="2"
     inkscape:pageopacity="0.0"
     inkscape:pagecheckerboard="0"
     inkscape:deskcolor="#d1d1d1">
    <inkscape:page
       x="0"
       y="0"
       inkscape:label="1"
       id="page1"
       width="182.12"
       height="137.52"
       margin="0"
       bleed="0" />
  </sodipodi:namedview>
  <g
     id="g1"
     inkscape:groupmode="layer"
     inkscape:label="1">
    <path
       id="path1"
       d="M 58.21553,-95.0592 C 70.78667,-25.02124 133.62,-70.13211 172.96088,-6.03001"
       style="fill:none;stroke:#000000;stroke-width:1.49442;stroke-linecap:butt;stroke-linejoin:miter;stroke-miterlimit:10;stroke-dasharray:none;stroke-opacity:1"
       transform="matrix(1.3333333,0,0,-1.3333333,-68.46,-3.5866667)" />
    <path
       id="path2"
       d="m 108.52884,-50.56512 5.14052,4.23928 -6.52439,1.36194 2.65096,-2.3189 z"
       style="fill:#000000;fill-opacity:1;fill-rule:nonzero;stroke:#000000;stroke-width:0.0797;stroke-linecap:butt;stroke-linejoin:miter;stroke-miterlimit:10;stroke-dasharray:none;stroke-opacity:0"
       transform="matrix(1.3333333,0,0,-1.3333333,-68.46,-3.5866667)" />
    <path
       id="path3"
       d="m 55.03687,-95.0592 c 0,1.64088 1.22395,2.96794 2.73033,2.96794 1.51086,0 2.7348,-1.32706 2.7348,-2.96794 0,-1.63642 -1.22394,-2.96793 -2.7348,-2.96793 -1.50638,0 -2.73033,1.33151 -2.73033,2.96793 z"
       style="fill:#9013fe;fill-opacity:1;fill-rule:nonzero;stroke:#9013fe;stroke-width:0.74721;stroke-linecap:butt;stroke-linejoin:miter;stroke-miterlimit:10;stroke-dasharray:none;stroke-opacity:1"
       transform="matrix(1.3333333,0,0,-1.3333333,-68.46,-3.5866667)" />
    <path
       id="path4"
       d="m 170.23056,-6.03001 c 0,1.64088 1.22394,2.96794 2.73032,2.96794 1.51086,0 2.73482,-1.32706 2.73482,-2.96794 0,-1.6364 -1.22396,-2.96795 -2.73482,-2.96795 -1.50638,0 -2.73032,1.33155 -2.73032,2.96795 z"
       style="fill:#9013fe;fill-opacity:1;fill-rule:nonzero;stroke:#9013fe;stroke-width:0.74721;stroke-linecap:butt;stroke-linejoin:miter;stroke-miterlimit:10;stroke-dasharray:none;stroke-opacity:1"
       transform="matrix(1.3333333,0,0,-1.3333333,-68.46,-3.5866667)" />
    <path
       id="path5"
       d="m 65.79677,-67.48697 c 0,1.64089 1.22393,2.96794 2.73031,2.96794 1.51087,0 2.73482,-1.32705 2.73482,-2.96794 0,-1.6364 -1.22395,-2.96793 -2.73482,-2.96793 -1.50638,0 -2.73031,1.33153 -2.73031,2.96793 z"
       style="fill:#9013fe;fill-opacity:1;fill-rule:nonzero;stroke:#9013fe;stroke-width:0.74721;stroke-linecap:butt;stroke-linejoin:miter;stroke-miterlimit:10;stroke-dasharray:none;stroke-opacity:1"
       transform="matrix(1.3333333,0,0,-1.3333333,-68.46,-3.5866667)" />
    <path
       id="path6"
       d="m 80.8158,-55.83041 c 0,1.64088 1.22393,2.96794 2.73031,2.96794 1.51088,0 2.7348,-1.32706 2.7348,-2.96794 0,-1.6364 -1.22392,-2.96793 -2.7348,-2.96793 -1.50638,0 -2.73031,1.33153 -2.73031,2.96793 z"
       style="fill:#9013fe;fill-opacity:1;fill-rule:nonzero;stroke:#9013fe;stroke-width:0.74721;stroke-linecap:butt;stroke-linejoin:miter;stroke-miterlimit:10;stroke-dasharray:none;stroke-opacity:1"
       transform="matrix(1.3333333,0,0,-1.3333333,-68.46,-3.5866667)" />
    <path
       id="path7"
       d="m 126.99368,-41.48389 c 0,1.6409 1.22394,2.96796 2.73035,2.96796 1.51087,0 2.7348,-1.32706 2.7348,-2.96796 0,-1.6364 -1.22393,-2.96792 -2.7348,-2.96792 -1.50641,0 -2.73035,1.33152 -2.73035,2.96792 z"
       style="fill:#9013fe;fill-opacity:1;fill-rule:nonzero;stroke:#9013fe;stroke-width:0.74721;stroke-linecap:butt;stroke-linejoin:miter;stroke-miterlimit:10;stroke-dasharray:none;stroke-opacity:1"
       transform="matrix(1.3333333,0,0,-1.3333333,-68.46,-3.5866667)" />
    <path
       id="path8"
       d="m 162.18753,-17.04994 c 0,1.64088 1.22394,2.96794 2.73033,2.96794 1.51087,0 2.7348,-1.32706 2.7348,-2.96794 0,-1.6364 -1.22393,-2.96793 -2.7348,-2.96793 -1.50639,0 -2.73033,1.33153 -2.73033,2.96793 z"
       style="fill:#9013fe;fill-opacity:1;fill-rule:nonzero;stroke:#9013fe;stroke-width:0.74721;stroke-linecap:butt;stroke-linejoin:miter;stroke-miterlimit:10;stroke-dasharray:none;stroke-opacity:1"
       transform="matrix(1.3333333,0,0,-1.3333333,-68.46,-3.5866667)" />
    <g
       id="g8"
       aria-label="z&#10;1"
       transform="matrix(1.3333333,0,0,1.3333333,26.197333,95.642667)">
      <path
         id="path9"
         d="M 1.3256328,-0.83063281 C 1.8646953,-1.4048516 2.1576641,-1.6509453 2.5092266,-1.9556328 c 0,-0.011719 0.6210937,-0.5390625 0.984375,-0.9023438 0.9375,-0.9257812 1.1601562,-1.40625 1.1601562,-1.4414062 0,-0.1054688 -0.09375,-0.1054688 -0.1054687,-0.1054688 -0.070312,0 -0.1054688,0.023437 -0.1523438,0.1171875 -0.3046875,0.46875 -0.5039062,0.6328125 -0.75,0.6328125 -0.234375,0 -0.3515625,-0.1523437 -0.5039062,-0.3164062 -0.1875,-0.234375 -0.3632813,-0.4335938 -0.6914063,-0.4335938 -0.75,0 -1.2070312,0.9257813 -1.2070312,1.1367188 0,0.046875 0.035156,0.1171875 0.1171875,0.1171875 0.09375,0 0.1171875,-0.058594 0.140625,-0.1171875 0.1875,-0.4570313 0.7617187,-0.46875 0.84375,-0.46875 0.2109375,0 0.3984375,0.070312 0.6210937,0.1523437 0.3984375,0.1523438 0.515625,0.1523438 0.7734375,0.1523438 -0.3632812,0.421875 -1.1953125,1.1367187 -1.3828125,1.3007812 l -0.9023437,0.8320313 c -0.67968754,0.66796874 -1.01953129,1.24218749 -1.01953129,1.31249999 0,0.09375 0.09375,0.09375 0.1171875,0.09375 0.0820313,0 0.09375,-0.01171875 0.15234375,-0.12890625 0.234375,-0.33984375 0.52734374,-0.609375 0.85546874,-0.609375 0.2226563,0 0.328125,0.0820313 0.5742188,0.375 0.1640625,0.2109375 0.3515625,0.36328125 0.6328125,0.36328125 0.984375,0 1.5703125,-1.26562499 1.5703125,-1.53515629 0,-0.046875 -0.046875,-0.09375 -0.1171875,-0.09375 -0.09375,0 -0.1171875,0.058594 -0.140625,0.1289063 -0.234375,0.64453124 -0.8671875,0.83203124 -1.1953125,0.83203124 -0.1992188,0 -0.3867188,-0.0585938 -0.5859375,-0.12890625 -0.3398438,-0.12890625 -0.4921875,-0.1640625 -0.703125,-0.1640625 -0.023437,0 -0.1757813,0 -0.2695313,0.0234375 z m 0,0"
         style="fill:#9013fe;fill-opacity:1;fill-rule:nonzero;stroke:none" />
      <path
         id="path10"
         d="m 6.9652812,-2.9370781 c 0,-0.1875 -0.011719,-0.1992188 -0.2109375,-0.1992188 -0.4453125,0.4335938 -1.078125,0.4453125 -1.359375,0.4453125 v 0.2460938 c 0.1640625,0 0.6210938,0 1.0078125,-0.1875 v 3.55078123 c 0,0.23437497 0,0.32812497 -0.6914062,0.32812497 H 5.4418437 v 0.2460938 c 0.1289063,-0.011719 0.984375,-0.023437 1.2421875,-0.023437 0.2109375,0 1.0898438,0.011719 1.2421875,0.023437 V 1.2465156 H 7.6684062 c -0.703125,0 -0.703125,-0.09375 -0.703125,-0.32812497 z m 0,0"
         style="fill:#9013fe;fill-opacity:1;fill-rule:nonzero;stroke:none" />
    </g>
    <g
       id="g10"
       aria-label="z&#10;0"
       transform="matrix(1.3333333,0,0,1.3333333,14.666667,134.53333)">
      <path
         id="path11"
         d="M 1.3251953,-0.83066406 C 1.8642578,-1.4048828 2.1572266,-1.6509766 2.5087891,-1.9556641 c 0,-0.011719 0.6210937,-0.5390625 0.984375,-0.9023437 0.9375,-0.9257813 1.1601562,-1.40625 1.1601562,-1.4414063 0,-0.1054687 -0.09375,-0.1054687 -0.1054687,-0.1054687 -0.070312,0 -0.1054688,0.023437 -0.1523438,0.1171875 -0.3046875,0.46875 -0.5039062,0.6328125 -0.75,0.6328125 -0.234375,0 -0.3515625,-0.1523438 -0.5039062,-0.3164063 -0.1875,-0.234375 -0.3632813,-0.4335937 -0.6914063,-0.4335937 -0.75,0 -1.2070312,0.9257812 -1.2070312,1.1367187 0,0.046875 0.035156,0.1171875 0.1171875,0.1171875 0.09375,0 0.1171875,-0.058594 0.140625,-0.1171875 0.1875,-0.4570312 0.7617187,-0.46875 0.84375,-0.46875 0.2109375,0 0.3984375,0.070312 0.6210937,0.1523438 0.3984375,0.1523437 0.515625,0.1523437 0.7734375,0.1523437 -0.3632812,0.421875 -1.1953125,1.1367188 -1.3828125,1.3007813 l -0.9023437,0.8320312 c -0.67968754,0.66796879 -1.01953129,1.24218754 -1.01953129,1.31250004 0,0.09375 0.09375,0.09375 0.1171875,0.09375 0.0820313,0 0.09375,-0.01171875 0.15234375,-0.12890625 0.234375,-0.33984375 0.52734374,-0.609375 0.85546874,-0.609375 0.2226563,0 0.328125,0.0820313 0.5742188,0.375 0.1640625,0.2109375 0.3515625,0.36328125 0.6328125,0.36328125 0.984375,0 1.5703125,-1.26562504 1.5703125,-1.53515624 0,-0.046875 -0.046875,-0.09375 -0.1171875,-0.09375 -0.09375,0 -0.1171875,0.058594 -0.140625,0.1289062 -0.234375,0.64453129 -0.8671875,0.83203129 -1.1953125,0.83203129 -0.1992188,0 -0.3867188,-0.0585938 -0.5859375,-0.12890625 -0.3398438,-0.12890625 -0.4921875,-0.1640625 -0.703125,-0.1640625 -0.023437,0 -0.1757813,0 -0.2695313,0.0234375 z m 0,0"
         style="fill:#9013fe;fill-opacity:1;fill-rule:nonzero;stroke:none" />
      <path
         id="path12"
         d="m 8.2304687,-0.73398438 c 0,-0.76171872 -0.09375,-1.31250002 -0.4101562,-1.80468752 -0.2226563,-0.3164062 -0.6445313,-0.5976562 -1.2070313,-0.5976562 -1.6171875,0 -1.6171875,1.8984375 -1.6171875,2.40234372 0,0.50390625 0,2.36718748 1.6171875,2.36718748 1.6171875,0 1.6171875,-1.86328123 1.6171875,-2.36718748 z M 6.6132812,1.4339844 c -0.3164062,0 -0.75,-0.1875 -0.890625,-0.76171878 -0.09375,-0.41015625 -0.09375,-0.984375 -0.09375,-1.5 0,-0.50390622 0,-1.03125002 0.1054688,-1.41796872 0.1523437,-0.5507813 0.5976562,-0.6914063 0.8789062,-0.6914063 0.375,0 0.7382813,0.2226563 0.8671875,0.6328125 0.1054688,0.375 0.1171875,0.8789063 0.1171875,1.47656252 0,0.515625 0,1.04296875 -0.09375,1.4765625 C 7.3632812,1.2816406 6.8945312,1.4339844 6.6132812,1.4339844 Z m 0,0"
         style="fill:#9013fe;fill-opacity:1;fill-rule:nonzero;stroke:none" />
    </g>
    <g
       id="g12"
       aria-label="z&#10;n"
       transform="matrix(1.3333333,0,0,1.3333333,167.59467,15.828)">
      <path
         id="path13"
         d="m 1.3235312,-0.8319375 c 0.5390625,-0.5742188 0.8320313,-0.8203125 1.1835938,-1.125 0,-0.011719 0.6210937,-0.5390625 0.984375,-0.9023438 0.9375,-0.9257812 1.1601562,-1.40625 1.1601562,-1.4414062 0,-0.1054688 -0.09375,-0.1054688 -0.1054687,-0.1054688 -0.070312,0 -0.1054688,0.023437 -0.1523438,0.1171875 -0.3046875,0.46875 -0.5039062,0.6328125 -0.75,0.6328125 -0.234375,0 -0.3515625,-0.1523437 -0.5039062,-0.3164062 -0.1875,-0.234375 -0.3632813,-0.4335938 -0.6914063,-0.4335938 -0.75,0 -1.2070312,0.9257813 -1.2070312,1.1367188 0,0.046875 0.035156,0.1171875 0.1171875,0.1171875 0.09375,0 0.1171875,-0.058594 0.140625,-0.1171875 0.1875,-0.4570313 0.7617187,-0.46875 0.84375,-0.46875 0.2109375,0 0.3984375,0.070312 0.6210937,0.1523437 C 3.3625937,-3.4335 3.4797812,-3.4335 3.7375937,-3.4335 3.3743125,-3.011625 2.5422812,-2.2967813 2.3547812,-2.1327188 L 1.4524375,-1.3006875 C 0.77275,-0.63271875 0.43290625,-0.0585 0.43290625,0.0118125 c 0,0.09375 0.09375,0.09375 0.1171875,0.09375 0.0820313,0 0.09375,-0.01171875 0.15234375,-0.12890625 0.234375,-0.33984375 0.5273437,-0.609375 0.8554687,-0.609375 0.2226563,0 0.328125,0.0820313 0.5742188,0.375 0.1640625,0.2109375 0.3515625,0.36328125 0.6328125,0.36328125 0.984375,0 1.5703125,-1.265625 1.5703125,-1.5351563 0,-0.046875 -0.046875,-0.09375 -0.1171875,-0.09375 -0.09375,0 -0.1171875,0.058594 -0.140625,0.1289063 C 3.8430625,-0.74990625 3.21025,-0.56240625 2.882125,-0.56240625 2.6829062,-0.56240625 2.4954062,-0.621 2.2961875,-0.6913125 1.9563437,-0.82021875 1.804,-0.855375 1.5930625,-0.855375 c -0.023437,0 -0.1757813,0 -0.2695313,0.0234375 z m 0,0"
         style="fill:#9013fe;fill-opacity:1;fill-rule:nonzero;stroke:none" />
      <path
         id="path14"
         d="m 5.4895469,1.0606406 c -0.035156,0.082031 -0.070312,0.2578125 -0.070312,0.28125 0,0.1523438 0.1171875,0.2226563 0.234375,0.2226563 0.1289062,0 0.234375,-0.09375 0.2695312,-0.1523438 0.035156,-0.058594 0.09375,-0.2929687 0.1289063,-0.43359373 0.035156,-0.12890625 0.1054687,-0.45703125 0.1523437,-0.6328125 0.035156,-0.15234375 0.082031,-0.3046875 0.1171875,-0.45703125 0.082031,-0.29296875 0.09375,-0.3515625 0.2929688,-0.6328125 0.1992187,-0.28125002 0.5273437,-0.64453122 1.0429687,-0.64453122 0.4101563,0 0.4101563,0.3632812 0.4101563,0.49218747 0,0.421875 -0.2929688,1.1953125 -0.4101563,1.48828125 -0.070312,0.1875 -0.1054687,0.2578125 -0.1054687,0.375 0,0.36328128 0.3046875,0.59765628 0.6679687,0.59765628 0.6914063,0 1.0078125,-0.96093753 1.0078125,-1.06640628 0,-0.09375 -0.09375,-0.09375 -0.1171875,-0.09375 -0.09375,0 -0.1054687,0.046875 -0.1289062,0.1171875 -0.1640625,0.56249998 -0.46875,0.84374998 -0.7382813,0.84374998 -0.1523437,0 -0.1757812,-0.09375 -0.1757812,-0.2460937 0,-0.15234378 0.035156,-0.24609378 0.1523437,-0.56250003 0.09375,-0.2109375 0.375,-0.94921875 0.375,-1.34765625 0,-0.66796872 -0.5390625,-0.78515622 -0.9023437,-0.78515622 -0.5859375,0 -0.9726563,0.3515625 -1.1835938,0.63281247 -0.046875,-0.48046877 -0.4570312,-0.63281247 -0.75,-0.63281247 -0.2929687,0 -0.4570312,0.2109375 -0.5507812,0.375 -0.1523438,0.25781247 -0.2460938,0.65624997 -0.2460938,0.69140622 0,0.0820312 0.09375,0.0820312 0.1171875,0.0820312 0.09375,0 0.1054688,-0.0117188 0.1523438,-0.19921875 0.1054687,-0.42187507 0.234375,-0.76171877 0.515625,-0.76171877 0.1757812,0 0.2226562,0.1523437 0.2226562,0.3398437 0,0.14062507 -0.058594,0.39843757 -0.1054687,0.58593757 -0.046875,0.1875 -0.1171875,0.46875 -0.1523438,0.62109375 z m 0,0"
         style="fill:#9013fe;fill-opacity:1;fill-rule:nonzero;stroke:none" />
    </g>
    <g
       id="g14"
       aria-label="z&#10;2"
       transform="matrix(1.3333333,0,0,1.3333333,46.222667,80.1)">
      <path
         id="path15"
         d="M 1.3242109,-0.83085937 C 1.8632734,-1.4050781 2.1562422,-1.6511719 2.5078047,-1.9558594 c 0,-0.011719 0.6210937,-0.5390625 0.984375,-0.9023437 0.9375,-0.9257813 1.1601562,-1.40625 1.1601562,-1.4414063 0,-0.1054687 -0.09375,-0.1054687 -0.1054687,-0.1054687 -0.070312,0 -0.1054688,0.023437 -0.1523438,0.1171875 -0.3046875,0.46875 -0.5039062,0.6328125 -0.75,0.6328125 -0.234375,0 -0.3515625,-0.1523438 -0.5039062,-0.3164063 -0.1875,-0.234375 -0.3632813,-0.4335937 -0.6914063,-0.4335937 -0.75,0 -1.2070312,0.9257812 -1.2070312,1.1367187 0,0.046875 0.035156,0.1171875 0.1171875,0.1171875 0.09375,0 0.1171875,-0.058594 0.140625,-0.1171875 0.1875,-0.4570312 0.7617187,-0.46875 0.84375,-0.46875 0.2109375,0 0.3984375,0.070312 0.6210937,0.1523438 0.3984375,0.1523437 0.515625,0.1523437 0.7734375,0.1523437 -0.3632812,0.421875 -1.1953125,1.1367188 -1.3828125,1.3007813 l -0.9023437,0.8320312 c -0.67968751,0.66796878 -1.01953126,1.24218753 -1.01953126,1.31250003 0,0.09375 0.09375,0.09375 0.1171875,0.09375 0.0820313,0 0.09375,-0.01171875 0.15234375,-0.12890625 0.234375,-0.33984375 0.52734371,-0.609375 0.85546871,-0.609375 0.2226563,0 0.328125,0.0820313 0.5742188,0.375 0.1640625,0.2109375 0.3515625,0.36328125 0.6328125,0.36328125 0.984375,0 1.5703125,-1.26562503 1.5703125,-1.53515623 0,-0.046875 -0.046875,-0.09375 -0.1171875,-0.09375 -0.09375,0 -0.1171875,0.058594 -0.140625,0.1289062 -0.234375,0.64453128 -0.8671875,0.83203128 -1.1953125,0.83203128 -0.1992188,0 -0.3867188,-0.0585938 -0.5859375,-0.12890625 -0.3398438,-0.12890625 -0.4921875,-0.1640625 -0.703125,-0.1640625 -0.023437,0 -0.1757813,0 -0.2695313,0.0234375 z m 0,0"
         style="fill:#9013fe;fill-opacity:1;fill-rule:nonzero;stroke:none" />
      <path
         id="path16"
         d="M 8.1474531,0.2296875 H 7.9130781 C 7.8896406,0.38203125 7.8310469,0.7921875 7.7372969,0.8625 7.6787031,0.89765625 7.1396406,0.89765625 7.0458906,0.89765625 H 5.7568281 c 0.7382813,-0.64453125 0.984375,-0.84375 1.3945313,-1.171875 0.515625,-0.41015625 0.9960937,-0.84374995 0.9960937,-1.49999995 0,-0.84375 -0.7382812,-1.359375 -1.6289062,-1.359375 -0.8671875,0 -1.453125,0.609375 -1.453125,1.2421875 0,0.3632812 0.3046875,0.3984375 0.375,0.3984375 0.1640625,0 0.375,-0.1171875 0.375,-0.375 0,-0.1289063 -0.058594,-0.3632813 -0.421875,-0.3632813 0.2226562,-0.5039062 0.6914062,-0.65625 1.0195312,-0.65625 0.703125,0 1.0664063,0.5507813 1.0664063,1.1132813 0,0.609375 -0.4335938,1.0898437 -0.65625,1.33593745 l -1.6875,1.66406255 c -0.070312,0.058594 -0.070312,0.070312 -0.070312,0.2695312 h 2.8828125 z m 0,0"
         style="fill:#9013fe;fill-opacity:1;fill-rule:nonzero;stroke:none" />
    </g>
    <g
       id="g16"
       aria-label="z&#10;n−1"
       transform="matrix(1.3333333,0,0,1.3333333,154.12,28.393333)">
      <path
         id="path17"
         d="M 1.3250391,-0.83113281 C 1.8641016,-1.4053516 2.1570703,-1.6514453 2.5086328,-1.9561328 c 0,-0.011719 0.6210938,-0.5390625 0.984375,-0.9023438 0.9375,-0.9257812 1.1601563,-1.40625 1.1601563,-1.4414062 0,-0.1054688 -0.09375,-0.1054688 -0.1054688,-0.1054688 -0.070312,0 -0.1054687,0.023437 -0.1523437,0.1171875 -0.3046875,0.46875 -0.5039063,0.6328125 -0.75,0.6328125 -0.234375,0 -0.3515625,-0.1523437 -0.5039063,-0.3164062 -0.1875,-0.234375 -0.3632812,-0.4335938 -0.6914062,-0.4335938 -0.75,0 -1.2070313,0.9257813 -1.2070313,1.1367188 0,0.046875 0.035156,0.1171875 0.1171875,0.1171875 0.09375,0 0.1171875,-0.058594 0.140625,-0.1171875 0.1875,-0.4570313 0.7617188,-0.46875 0.84375,-0.46875 0.2109375,0 0.3984375,0.070312 0.6210938,0.1523437 0.3984375,0.1523438 0.515625,0.1523438 0.7734375,0.1523438 -0.3632813,0.421875 -1.1953125,1.1367187 -1.3828125,1.3007812 l -0.9023438,0.8320313 c -0.67968749,0.66796874 -1.01953124,1.24218749 -1.01953124,1.31249999 0,0.09375 0.09375,0.09375 0.1171875,0.09375 0.0820313,0 0.09375,-0.01171875 0.15234375,-0.12890625 0.234375,-0.33984375 0.52734379,-0.609375 0.85546879,-0.609375 0.2226562,0 0.328125,0.0820313 0.5742187,0.375 0.1640625,0.2109375 0.3515625,0.36328125 0.6328125,0.36328125 0.984375,0 1.5703125,-1.26562499 1.5703125,-1.53515629 0,-0.046875 -0.046875,-0.09375 -0.1171875,-0.09375 -0.09375,0 -0.1171875,0.058594 -0.140625,0.1289063 -0.234375,0.64453124 -0.8671875,0.83203124 -1.1953125,0.83203124 -0.1992187,0 -0.3867187,-0.0585938 -0.5859375,-0.12890625 -0.3398437,-0.12890625 -0.4921875,-0.1640625 -0.703125,-0.1640625 -0.023437,0 -0.1757812,0 -0.2695312,0.0234375 z m 0,0"
         style="fill:#9013fe;fill-opacity:1;fill-rule:nonzero;stroke:none" />
      <path
         id="path18"
         d="m 5.488125,1.0614453 c -0.035156,0.082031 -0.070312,0.2578125 -0.070312,0.28125 0,0.1523438 0.1171875,0.2226563 0.234375,0.2226563 0.1289062,0 0.234375,-0.09375 0.2695312,-0.1523438 C 5.956875,1.3544141 6.0154687,1.1200391 6.050625,0.97941406 6.0857812,0.85050781 6.1560937,0.52238281 6.2029687,0.34660156 6.238125,0.19425781 6.285,0.04191406 6.3201562,-0.11042969 c 0.082031,-0.29296875 0.09375,-0.3515625 0.2929688,-0.6328125 0.1992187,-0.28125001 0.5273437,-0.64453121 1.0429687,-0.64453121 0.4101563,0 0.4101563,0.3632812 0.4101563,0.49218746 0,0.421875 -0.2929688,1.1953125 -0.4101563,1.48828125 -0.070312,0.1875 -0.1054687,0.2578125 -0.1054687,0.375 0,0.36328129 0.3046875,0.59765629 0.6679687,0.59765629 0.6914063,0 1.0078125,-0.96093754 1.0078125,-1.06640629 0,-0.09375 -0.09375,-0.09375 -0.1171875,-0.09375 -0.09375,0 -0.1054687,0.046875 -0.1289062,0.1171875 C 8.81625,1.0848828 8.5115625,1.3661328 8.2420312,1.3661328 c -0.1523437,0 -0.1757812,-0.09375 -0.1757812,-0.2460937 0,-0.15234379 0.035156,-0.24609379 0.1523437,-0.56250004 0.09375,-0.2109375 0.375,-0.94921875 0.375,-1.34765625 0,-0.66796871 -0.5390625,-0.78515621 -0.9023437,-0.78515621 -0.5859375,0 -0.9726563,0.3515625 -1.1835938,0.63281246 -0.046875,-0.48046876 -0.4570312,-0.63281246 -0.75,-0.63281246 -0.2929687,0 -0.4570312,0.2109375 -0.5507812,0.375 -0.1523438,0.25781246 -0.2460938,0.65624996 -0.2460938,0.69140621 0,0.0820313 0.09375,0.0820313 0.1171875,0.0820313 0.09375,0 0.1054688,-0.0117188 0.1523438,-0.19921875 0.1054687,-0.42187506 0.234375,-0.76171876 0.515625,-0.76171876 0.1757812,0 0.2226562,0.1523437 0.2226562,0.3398437 0,0.14062506 -0.058594,0.39843756 -0.1054687,0.58593756 -0.046875,0.1875 -0.1171875,0.46875 -0.1523438,0.62109375 z m 0,0"
         style="fill:#9013fe;fill-opacity:1;fill-rule:nonzero;stroke:none" />
      <path
         id="path19"
         d="m 14.748867,-0.07527344 c 0.105469,0 0.269531,0 0.269531,-0.17578125 0,-0.17578125 -0.152343,-0.17578125 -0.269531,-0.17578125 h -4.160156 c -0.105469,0 -0.28125,0 -0.28125,0.17578125 0,0.17578125 0.164062,0.17578125 0.28125,0.17578125 z m 0,0"
         style="fill:#9013fe;fill-opacity:1;fill-rule:nonzero;stroke:none" />
      <path
         id="path20"
         d="m 18.118008,-2.9346484 c 0,-0.1875 -0.01172,-0.1992188 -0.210938,-0.1992188 -0.445312,0.4335938 -1.078125,0.4453125 -1.359375,0.4453125 v 0.2460938 c 0.164063,0 0.621094,0 1.007813,-0.1875 v 3.55078121 c 0,0.23437499 0,0.32812499 -0.691406,0.32812499 H 16.59457 v 0.2460938 c 0.128907,-0.011719 0.984375,-0.023437 1.242188,-0.023437 0.210937,0 1.089844,0.011719 1.242187,0.023437 V 1.2489453 h -0.257812 c -0.703125,0 -0.703125,-0.09375 -0.703125,-0.32812499 z m 0,0"
         style="fill:#9013fe;fill-opacity:1;fill-rule:nonzero;stroke:none" />
    </g>
    <path
       id="path21"
       d="m 1.9070575,-2.4987885 c -0.00269,-0.285369 -0.2316073,-0.5233683 -0.5169764,-0.5206812 -0.2853691,0.00269 -0.53821843,0.2389663 -0.53553134,0.5243353 -0.001059,0.2964736 0.25007074,0.5419641 0.53543984,0.539277 0.285369,-0.00269 0.5160094,-0.2464575 0.5170679,-0.5429311 z m 4.4119506,9.285e-4 c -0.00269,-0.2853691 -0.2316073,-0.5233683 -0.5169764,-0.5206812 -0.285369,0.00269 -0.5382184,0.2389662 -0.5355313,0.5243353 -0.00106,0.2964736 0.2500707,0.541964 0.5354398,0.539277 0.2853691,-0.00269 0.5160094,-0.2464575 0.5170679,-0.5429311 z m 4.4249279,-8.782e-4 c -0.0027,-0.285369 -0.231607,-0.5233683 -0.516976,-0.5206812 -0.2853694,0.00269 -0.5382188,0.2389662 -0.5355317,0.5243353 -0.00106,0.2964736 0.2500708,0.5419641 0.5354397,0.539277 0.285369,-0.00269 0.51601,-0.2464575 0.517068,-0.5429311 z m 0,0"
       style="fill:#000000;fill-opacity:1;fill-rule:nonzero;stroke:none"
       aria-label="···"
       transform="matrix(1.2633467,-0.42613333,0.42613333,1.2633467,103.18679,68.563247)" />
  </g>
</svg>
