<?xml version="1.0" encoding="UTF-8" standalone="no"?>
<!-- Created with Inkscape (http://www.inkscape.org/) -->

<svg
   version="1.1"
   id="svg1"
   width="225.46667"
   height="159.12"
   viewBox="0 0 225.46667 159.12"
   sodipodi:docname="curve-parametrization.pdf"
   xmlns:inkscape="http://www.inkscape.org/namespaces/inkscape"
   xmlns:sodipodi="http://sodipodi.sourceforge.net/DTD/sodipodi-0.dtd"
   xmlns="http://www.w3.org/2000/svg"
   xmlns:svg="http://www.w3.org/2000/svg">
  <defs
     id="defs1" />
  <sodipodi:namedview
     id="namedview1"
     pagecolor="#ffffff"
     bordercolor="#000000"
     borderopacity="0.25"
     inkscape:showpageshadow="2"
     inkscape:pageopacity="0.0"
     inkscape:pagecheckerboard="0"
     inkscape:deskcolor="#d1d1d1">
    <inkscape:page
       x="0"
       y="0"
       inkscape:label="1"
       id="page1"
       width="225.46667"
       height="159.12"
       margin="0"
       bleed="0" />
  </sodipodi:namedview>
  <g
     id="g1"
     inkscape:groupmode="layer"
     inkscape:label="1">
    <path
       id="path1"
       d="m 67.91713,-110.9008 c 14.66612,81.70979 87.9706,29.08119 133.86763,103.86589"
       style="fill:none;stroke:#000000;stroke-width:1.49442;stroke-linecap:butt;stroke-linejoin:miter;stroke-miterlimit:10;stroke-dasharray:none;stroke-opacity:1"
       transform="matrix(1.3333333,0,0,-1.3333333,-81.386667,-4.2613333)" />
    <path
       id="path2"
       d="m 126.61505,-58.9919 5.99725,4.94588 -7.61178,1.5889 3.0928,-2.7054 z"
       style="fill:#000000;fill-opacity:1;fill-rule:nonzero;stroke:#000000;stroke-width:0.0797;stroke-linecap:butt;stroke-linejoin:miter;stroke-miterlimit:10;stroke-dasharray:none;stroke-opacity:0"
       transform="matrix(1.3333333,0,0,-1.3333333,-81.386667,-4.2613333)" />
    <path
       id="path3"
       d="m 64.7318,-110.9008 c 0,1.91433 1.4279,3.46254 3.18533,3.46254 1.76265,0 3.19055,-1.54821 3.19055,-3.46254 0,-1.9091 -1.4279,-3.46256 -3.19055,-3.46256 -1.75743,0 -3.18533,1.55346 -3.18533,3.46256 z"
       style="fill:#000000;fill-opacity:1;fill-rule:nonzero;stroke:#000000;stroke-width:0.74721;stroke-linecap:butt;stroke-linejoin:miter;stroke-miterlimit:10;stroke-dasharray:none;stroke-opacity:1"
       transform="matrix(1.3333333,0,0,-1.3333333,-81.386667,-4.2613333)" />
    <path
       id="path4"
       d="m 198.59943,-7.03491 c 0,1.91435 1.4279,3.46254 3.18533,3.46254 1.76266,0 3.19058,-1.54819 3.19058,-3.46254 0,-1.90911 -1.42792,-3.46256 -3.19058,-3.46256 -1.75743,0 -3.18533,1.55345 -3.18533,3.46256 z"
       style="fill:#000000;fill-opacity:1;fill-rule:nonzero;stroke:#000000;stroke-width:0.74721;stroke-linecap:butt;stroke-linejoin:miter;stroke-miterlimit:10;stroke-dasharray:none;stroke-opacity:1"
       transform="matrix(1.3333333,0,0,-1.3333333,-81.386667,-4.2613333)" />
    <g
       id="g4"
       aria-label="z=z(t)"
       transform="matrix(1.3333333,0,0,1.3333333,118.836,108.37333)">
      <path
         id="path5"
         d="M 1.3241719,-0.83078125 C 1.8632344,-1.405 2.1562031,-1.6510938 2.5077656,-1.9557813 c 0,-0.011719 0.6210938,-0.5390625 0.984375,-0.9023437 0.9375,-0.9257813 1.1601563,-1.40625 1.1601563,-1.4414063 0,-0.1054687 -0.09375,-0.1054687 -0.1054688,-0.1054687 -0.070312,0 -0.1054687,0.023437 -0.1523437,0.1171875 -0.3046875,0.46875 -0.5039063,0.6328125 -0.75,0.6328125 -0.234375,0 -0.3515625,-0.1523438 -0.5039063,-0.3164063 C 2.9530781,-4.2057813 2.7772969,-4.405 2.4491719,-4.405 c -0.75,0 -1.2070313,0.9257812 -1.2070313,1.1367187 0,0.046875 0.035156,0.1171875 0.1171875,0.1171875 0.09375,0 0.1171875,-0.058594 0.140625,-0.1171875 0.1875,-0.4570312 0.7617188,-0.46875 0.84375,-0.46875 0.2109375,0 0.3984375,0.070312 0.6210938,0.1523438 0.3984375,0.1523437 0.515625,0.1523437 0.7734375,0.1523437 -0.3632813,0.421875 -1.1953125,1.1367188 -1.3828125,1.3007813 l -0.9023438,0.8320312 c -0.67968748,0.6679688 -1.01953123,1.24218755 -1.01953123,1.31250005 0,0.09375 0.09375,0.09375 0.1171875,0.09375 0.0820313,0 0.09375,-0.01171875 0.15234375,-0.12890625 0.234375,-0.33984375 0.52734378,-0.609375 0.85546878,-0.609375 0.2226562,0 0.328125,0.0820313 0.5742187,0.375 0.1640625,0.2109375 0.3515625,0.36328125 0.6328125,0.36328125 0.984375,0 1.5703125,-1.26562505 1.5703125,-1.53515625 0,-0.046875 -0.046875,-0.09375 -0.1171875,-0.09375 -0.09375,0 -0.1171875,0.058594 -0.140625,0.1289062 C 3.8437031,-0.74875 3.2108906,-0.56125 2.8827656,-0.56125 c -0.1992187,0 -0.3867187,-0.0585938 -0.5859375,-0.12890625 -0.3398437,-0.12890625 -0.4921875,-0.1640625 -0.703125,-0.1640625 -0.023437,0 -0.1757812,0 -0.2695312,0.0234375 z m 0,0"
         style="fill:#000000;fill-opacity:1;fill-rule:nonzero;stroke:none" />
      <path
         id="path6"
         d="m 14.683547,-3.2565625 c 0.152344,0 0.339844,0 0.339844,-0.1992188 C 15.023391,-3.655 14.835891,-3.655 14.695266,-3.655 H 8.7304219 c -0.140625,0 -0.328125,0 -0.328125,0.1992187 0,0.1992188 0.1875,0.1992188 0.3398437,0.1992188 z m 0.01172,1.9335937 c 0.140625,0 0.328125,0 0.328125,-0.1992187 0,-0.1992188 -0.1875,-0.1992188 -0.339844,-0.1992188 H 8.7421406 c -0.1523437,0 -0.3398437,0 -0.3398437,0.1992188 0,0.1992187 0.1875,0.1992187 0.328125,0.1992187 z m 0,0"
         style="fill:#000000;fill-opacity:1;fill-rule:nonzero;stroke:none" />
      <path
         id="path7"
         d="M 19.678664,-0.83078125 C 20.217727,-1.405 20.510695,-1.6510938 20.862258,-1.9557813 c 0,-0.011719 0.621094,-0.5390625 0.984375,-0.9023437 0.9375,-0.9257813 1.160156,-1.40625 1.160156,-1.4414063 0,-0.1054687 -0.09375,-0.1054687 -0.105469,-0.1054687 -0.07031,0 -0.105468,0.023437 -0.152343,0.1171875 -0.304688,0.46875 -0.503907,0.6328125 -0.75,0.6328125 -0.234375,0 -0.351563,-0.1523438 -0.503907,-0.3164063 C 21.30757,-4.2057813 21.131789,-4.405 20.803664,-4.405 c -0.75,0 -1.207031,0.9257812 -1.207031,1.1367187 0,0.046875 0.03516,0.1171875 0.117187,0.1171875 0.09375,0 0.117188,-0.058594 0.140625,-0.1171875 0.1875,-0.4570312 0.761719,-0.46875 0.84375,-0.46875 0.210938,0 0.398438,0.070312 0.621094,0.1523438 0.398438,0.1523437 0.515625,0.1523437 0.773438,0.1523437 -0.363282,0.421875 -1.195313,1.1367188 -1.382813,1.3007813 l -0.902344,0.8320312 c -0.679687,0.6679688 -1.019531,1.24218755 -1.019531,1.31250005 0,0.09375 0.09375,0.09375 0.117188,0.09375 0.08203,0 0.09375,-0.01171875 0.152343,-0.12890625 0.234375,-0.33984375 0.527344,-0.609375 0.855469,-0.609375 0.222656,0 0.328125,0.0820313 0.574219,0.375 0.164062,0.2109375 0.351562,0.36328125 0.632812,0.36328125 0.984375,0 1.570313,-1.26562505 1.570313,-1.53515625 0,-0.046875 -0.04687,-0.09375 -0.117188,-0.09375 -0.09375,0 -0.117187,0.058594 -0.140625,0.1289062 -0.234375,0.6445313 -0.867187,0.8320313 -1.195312,0.8320313 -0.199219,0 -0.386719,-0.0585938 -0.585938,-0.12890625 -0.339843,-0.12890625 -0.492187,-0.1640625 -0.703125,-0.1640625 -0.02344,0 -0.175781,0 -0.269531,0.0234375 z m 0,0"
         style="fill:#000000;fill-opacity:1;fill-rule:nonzero;stroke:none" />
      <path
         id="path8"
         d="m 26.718703,2.391875 c 0,-0.035156 0,-0.046875 -0.164062,-0.2226563 -1.242188,-1.2539062 -1.570313,-3.1289062 -1.570313,-4.6640625 0,-1.7226562 0.386719,-3.4570312 1.605469,-4.7109375 0.128906,-0.1171875 0.128906,-0.1289062 0.128906,-0.1640625 0,-0.070312 -0.03516,-0.1054687 -0.09375,-0.1054687 -0.105469,0 -0.996094,0.6796875 -1.582031,1.9453125 -0.515625,1.1015625 -0.632813,2.203125 -0.632813,3.0351562 0,0.7851563 0.117188,1.99218755 0.65625,3.11718755 0.597657,1.21874995 1.453125,1.87499995 1.558594,1.87499995 0.05859,0 0.09375,-0.035156 0.09375,-0.1054687 z m 0,0"
         style="fill:#000000;fill-opacity:1;fill-rule:nonzero;stroke:none" />
      <path
         id="path9"
         d="m 29.352492,-3.983125 h 0.9375 c 0.199219,0 0.304688,0 0.304688,-0.1992188 0,-0.1054687 -0.105469,-0.1054687 -0.28125,-0.1054687 H 29.434523 C 29.797805,-5.7057813 29.84468,-5.905 29.84468,-5.9635938 c 0,-0.1757812 -0.117188,-0.2695312 -0.292969,-0.2695312 -0.02344,0 -0.304688,0.011719 -0.398438,0.3515625 l -0.386718,1.59375 h -0.9375 c -0.199219,0 -0.292969,0 -0.292969,0.1875 0,0.1171875 0.07031,0.1171875 0.269531,0.1171875 h 0.878906 c -0.714843,2.8242187 -0.75,3 -0.75,3.17578125 0,0.5390625 0.375,0.9140625 0.914063,0.9140625 1.007812,0 1.582031,-1.45312505 1.582031,-1.53515625 0,-0.09375 -0.08203,-0.09375 -0.117187,-0.09375 -0.09375,0 -0.105469,0.023437 -0.152344,0.140625 -0.433594,1.03125 -0.960938,1.27734375 -1.300781,1.27734375 -0.199219,0 -0.304688,-0.12890625 -0.304688,-0.45703125 0,-0.24609375 0.02344,-0.31640625 0.05859,-0.4804688 z m 0,0"
         style="fill:#000000;fill-opacity:1;fill-rule:nonzero;stroke:none" />
      <path
         id="path10"
         d="m 33.78218,-2.4948438 c 0,-0.7734375 -0.117188,-1.9804687 -0.65625,-3.1054687 -0.597657,-1.21875 -1.464844,-1.875 -1.558594,-1.875 -0.05859,0 -0.105469,0.046875 -0.105469,0.1054687 0,0.035156 0,0.046875 0.199219,0.234375 0.972656,0.984375 1.535156,2.5664063 1.535156,4.640625 0,1.71093755 -0.363281,3.4570313 -1.59375,4.7226563 C 31.461867,2.345 31.461867,2.3567187 31.461867,2.391875 c 0,0.058594 0.04687,0.1054687 0.105469,0.1054687 0.09375,0 0.996094,-0.6796875 1.582031,-1.94531245 0.503906,-1.1015625 0.632813,-2.20312505 0.632813,-3.04687505 z m 0,0"
         style="fill:#000000;fill-opacity:1;fill-rule:nonzero;stroke:none" />
    </g>
    <g
       id="g10"
       aria-label="t=α"
       transform="matrix(1.3333333,0,0,1.3333333,15.344,158.12533)">
      <path
         id="path11"
         d="m 2.0505938,-3.984625 h 0.9375 c 0.1992187,0 0.3046875,0 0.3046875,-0.1992188 0,-0.1054687 -0.1054688,-0.1054687 -0.28125,-0.1054687 H 2.132625 C 2.4959063,-5.7072813 2.5427813,-5.9065 2.5427813,-5.9650938 c 0,-0.1757812 -0.1171875,-0.2695312 -0.2929688,-0.2695312 -0.023437,0 -0.3046875,0.011719 -0.3984375,0.3515625 l -0.3867187,1.59375 H 0.52715625 c -0.19921875,0 -0.29296875,0 -0.29296875,0.1875 0,0.1171875 0.0703125,0.1171875 0.26953125,0.1171875 H 1.382625 c -0.71484375,2.8242187 -0.75,3 -0.75,3.17578125 0,0.5390625 0.375,0.9140625 0.9140625,0.9140625 1.0078125,0 1.5820313,-1.45312505 1.5820313,-1.53515625 0,-0.09375 -0.082031,-0.09375 -0.1171875,-0.09375 -0.09375,0 -0.1054688,0.023437 -0.1523438,0.140625 -0.4335937,1.03125 -0.9609375,1.27734375 -1.3007812,1.27734375 -0.1992188,0 -0.3046875,-0.12890625 -0.3046875,-0.45703125 0,-0.24609375 0.023437,-0.31640625 0.058594,-0.4804688 z m 0,0"
         style="fill:#000000;fill-opacity:1;fill-rule:nonzero;stroke:none" />
      <path
         id="path12"
         d="m 13.209773,-3.2580625 c 0.152344,0 0.339844,0 0.339844,-0.1992188 0,-0.1992187 -0.1875,-0.1992187 -0.328125,-0.1992187 H 7.2566484 c -0.140625,0 -0.328125,0 -0.328125,0.1992187 0,0.1992188 0.1875,0.1992188 0.3398438,0.1992188 z m 0.01172,1.9335937 c 0.140625,0 0.328125,0 0.328125,-0.1992187 0,-0.1992188 -0.1875,-0.1992188 -0.339844,-0.1992188 H 7.2683672 c -0.1523438,0 -0.3398438,0 -0.3398438,0.1992188 0,0.1992187 0.1875,0.1992187 0.328125,0.1992187 z m 0,0"
         style="fill:#000000;fill-opacity:1;fill-rule:nonzero;stroke:none" />
      <path
         id="path13"
         d="m 21.626766,-2.3557188 c 0,-1.5585937 -0.925782,-2.0507812 -1.652344,-2.0507812 -1.371094,0 -2.683594,1.4296875 -2.683594,2.8359375 0,0.92578125 0.597656,1.67578125 1.617188,1.67578125 0.621093,0 1.335937,-0.22265625 2.097656,-0.83203125 0.128906,0.52734375 0.457031,0.83203125 0.902344,0.83203125 0.527343,0 0.84375,-0.5390625 0.84375,-0.703125 0,-0.0703125 -0.05859,-0.10546875 -0.128907,-0.10546875 -0.05859,0 -0.09375,0.0351563 -0.128906,0.10546875 -0.175781,0.4921875 -0.527344,0.4921875 -0.550781,0.4921875 -0.316406,0 -0.316406,-0.78515625 -0.316406,-1.01953125 0,-0.2109375 0,-0.234375 0.105468,-0.3515625 0.9375,-1.171875 1.148438,-2.3320313 1.148438,-2.34375 0,-0.011719 -0.01172,-0.09375 -0.117188,-0.09375 -0.105468,0 -0.105468,0.023437 -0.152343,0.2109375 -0.1875,0.6210937 -0.515625,1.3828125 -0.984375,1.96875 z m -0.65625,1.3710938 c -0.878907,0.76171875 -1.652344,0.87890625 -2.050782,0.87890625 -0.597656,0 -0.890625,-0.45703125 -0.890625,-1.08984375 0,-0.4921875 0.257813,-1.5585938 0.574219,-2.0742188 0.46875,-0.7265625 1.007813,-0.9140625 1.359375,-0.9140625 0.984375,0 0.984375,1.3007813 0.984375,2.0859375 0,0.3632813 0,0.9375 0.02344,1.1132813 z m 0,0"
         style="fill:#000000;fill-opacity:1;fill-rule:nonzero;stroke:none" />
    </g>
    <g
       id="g13"
       aria-label="t=β"
       transform="matrix(1.3333333,0,0,1.3333333,193.75733,20.692)">
      <path
         id="path14"
         d="m 2.0511406,-3.9848203 h 0.9375 c 0.1992188,0 0.3046875,0 0.3046875,-0.1992188 0,-0.1054687 -0.1054687,-0.1054687 -0.28125,-0.1054687 H 2.1331719 c 0.3632812,-1.4179688 0.4101562,-1.6171875 0.4101562,-1.6757813 0,-0.1757812 -0.1171875,-0.2695312 -0.2929687,-0.2695312 -0.023437,0 -0.3046875,0.011719 -0.3984375,0.3515625 l -0.3867188,1.59375 H 0.52770312 c -0.19921875,0 -0.29296875,0 -0.29296875,0.1875 0,0.1171875 0.0703125,0.1171875 0.26953125,0.1171875 H 1.3831719 c -0.71484378,2.8242187 -0.75000003,2.99999999 -0.75000003,3.17578124 0,0.5390625 0.37500003,0.9140625 0.91406253,0.9140625 1.0078125,0 1.5820312,-1.45312504 1.5820312,-1.53515624 0,-0.09375 -0.082031,-0.09375 -0.1171875,-0.09375 -0.09375,0 -0.1054687,0.023437 -0.1523437,0.140625 -0.4335938,1.03124999 -0.9609375,1.27734374 -1.3007813,1.27734374 -0.1992187,0 -0.3046875,-0.12890625 -0.3046875,-0.45703125 0,-0.24609375 0.023437,-0.31640625 0.058594,-0.48046879 z m 0,0"
         style="fill:#000000;fill-opacity:1;fill-rule:nonzero;stroke:none" />
      <path
         id="path15"
         d="m 13.207391,-3.2582578 c 0.152343,0 0.339843,0 0.339843,-0.1992188 0,-0.1992187 -0.1875,-0.1992187 -0.328125,-0.1992187 H 7.2542656 c -0.140625,0 -0.328125,0 -0.328125,0.1992187 0,0.1992188 0.1875,0.1992188 0.3398438,0.1992188 z m 0.01172,1.9335937 c 0.140625,0 0.328125,0 0.328125,-0.1992187 0,-0.1992188 -0.1875,-0.1992188 -0.339843,-0.1992188 H 7.2659844 c -0.1523438,0 -0.3398438,0 -0.3398438,0.1992188 0,0.1992187 0.1875,0.1992187 0.328125,0.1992187 z m 0,0"
         style="fill:#000000;fill-opacity:1;fill-rule:nonzero;stroke:none" />
      <path
         id="path16"
         d="m 22.611687,-5.6723203 c 0,-0.7382813 -0.550781,-1.359375 -1.359375,-1.359375 -0.574218,0 -0.855468,0.1523437 -1.207031,0.421875 -0.539062,0.3984375 -1.089844,1.359375 -1.277344,2.1210937 l -1.582031,6.3164063 c -0.01172,0.046875 0.03516,0.1054687 0.117188,0.1054687 0.08203,0 0.105468,-0.023437 0.117187,-0.046875 l 0.691406,-2.75390621 c 0.199219,0.59765625 0.632813,0.97265625 1.359375,0.97265625 0.726563,0 1.476563,-0.3515625 1.921875,-0.796875 0.480469,-0.45703124 0.796875,-1.08984374 0.796875,-1.82812504 0,-0.7148437 -0.363281,-1.2304687 -0.726562,-1.4882812 0.574219,-0.328125 1.148437,-0.9375 1.148437,-1.6640625 z m -1.792968,1.6523437 c -0.128907,0.058594 -0.246094,0.070312 -0.480469,0.070312 -0.140625,0 -0.339844,0.011719 -0.433594,-0.035156 0.01172,-0.1054688 0.375,-0.082031 0.480469,-0.082031 0.210937,0 0.304687,0 0.433594,0.046875 z m 1.230468,-1.875 c 0,0.6914063 -0.375,1.40625 -0.890625,1.7226563 -0.269531,-0.1054688 -0.46875,-0.1171875 -0.773437,-0.1171875 -0.210938,0 -0.761719,-0.011719 -0.761719,0.3164062 -0.01172,0.28125 0.503906,0.2460938 0.679688,0.2460938 0.375,0 0.527343,-0.011719 0.820312,-0.1289063 0.375,0.3632813 0.433594,0.6679688 0.445313,1.125 0.01172,0.5742188 -0.222657,1.3242188 -0.503907,1.7109375 -0.386718,0.53906254 -1.054687,0.90234379 -1.628906,0.90234379 -0.75,0 -1.125,-0.5859375 -1.125,-1.28906249 0,-0.09375 0,-0.2460938 0.04687,-0.4335938 l 0.632813,-2.5195312 c 0.222656,-0.8554688 0.9375,-2.4492188 2.132812,-2.4492188 0.574219,0 0.925781,0.3164063 0.925781,0.9140625 z m 0,0"
         style="fill:#000000;fill-opacity:1;fill-rule:nonzero;stroke:none" />
    </g>
  </g>
</svg>
