<?xml version="1.0" encoding="UTF-8" standalone="no"?>
<!-- Created with Inkscape (http://www.inkscape.org/) -->

<svg
   version="1.1"
   id="svg1"
   width="502.17334"
   height="176.64"
   viewBox="0 0 502.17334 176.64"
   sodipodi:docname="ex-1.pdf"
   xmlns:inkscape="http://www.inkscape.org/namespaces/inkscape"
   xmlns:sodipodi="http://sodipodi.sourceforge.net/DTD/sodipodi-0.dtd"
   xmlns="http://www.w3.org/2000/svg"
   xmlns:svg="http://www.w3.org/2000/svg">
  <defs
     id="defs1" />
  <sodipodi:namedview
     id="namedview1"
     pagecolor="#ffffff"
     bordercolor="#000000"
     borderopacity="0.25"
     inkscape:showpageshadow="2"
     inkscape:pageopacity="0.0"
     inkscape:pagecheckerboard="0"
     inkscape:deskcolor="#d1d1d1">
    <inkscape:page
       x="0"
       y="0"
       inkscape:label="1"
       id="page1"
       width="502.17334"
       height="176.64"
       margin="0"
       bleed="0" />
  </sodipodi:namedview>
  <g
     id="g1"
     inkscape:groupmode="layer"
     inkscape:label="1">
    <path
       id="path1"
       d="M 27.99039,-110.43727 H 399.8084 m -185.25521,63.60231 v -130.98549 m 180.02475,71.11922 5.23046,-3.73604 -5.23046,-3.73604 m -183.76079,62.1079 3.73604,5.23045 3.73604,-5.23045 m 40.34921,-54.63582 v -7.47208 m 44.08526,7.47208 v -7.47208 m 44.08524,7.47208 v -7.47208 m -176.341,7.47208 v -7.47208 m -44.08525,7.47208 v -7.47208 m -44.08525,7.47208 v -7.47208 m -44.08525,7.47208 v -7.47208 m 172.60496,47.82129 h 7.47208 m -7.47208,-88.1705 h 7.47208"
       style="fill:none;stroke:#9b9b9b;stroke-width:1.49442;stroke-linecap:butt;stroke-linejoin:miter;stroke-miterlimit:10;stroke-dasharray:none;stroke-opacity:1"
       transform="matrix(1.3333333,0,0,-1.3333333,-31.9,-61.446667)" />
    <path
       id="path2"
       d="m 167.39691,-110.21312 c 0,1.65135 1.33751,2.98883 2.98883,2.98883 1.65134,0 2.98883,-1.33748 2.98883,-2.98883 0,-1.65134 -1.33749,-2.98883 -2.98883,-2.98883 -1.65132,0 -2.98883,1.33749 -2.98883,2.98883 z"
       style="fill:#d0021b;fill-opacity:1;fill-rule:nonzero;stroke:#d0021b;stroke-width:0.74721;stroke-linecap:butt;stroke-linejoin:miter;stroke-miterlimit:10;stroke-dasharray:none;stroke-opacity:1"
       transform="matrix(1.3333333,0,0,-1.3333333,-31.9,-61.446667)" />
    <path
       id="path3"
       d="m 255.47028,-110.21312 c 0,1.65135 1.33751,2.98883 2.98882,2.98883 1.65133,0 2.98884,-1.33748 2.98884,-2.98883 0,-1.65134 -1.33751,-2.98883 -2.98884,-2.98883 -1.65131,0 -2.98882,1.33749 -2.98882,2.98883 z"
       style="fill:#d0021b;fill-opacity:1;fill-rule:nonzero;stroke:#d0021b;stroke-width:0.74721;stroke-linecap:butt;stroke-linejoin:miter;stroke-miterlimit:10;stroke-dasharray:none;stroke-opacity:1"
       transform="matrix(1.3333333,0,0,-1.3333333,-31.9,-61.446667)" />
    <path
       id="path4"
       d="m 244.45644,-109.68259 c 0,24.26929 19.6665,43.94329 43.93582,43.94329 24.26182,0 43.93579,-19.674 43.93579,-43.94329 0,-24.26184 -19.67397,-43.93582 -43.93579,-43.93582 -24.26932,0 -43.93582,19.67398 -43.93582,43.93582 z"
       style="fill:none;stroke:#f5a623;stroke-width:2.24162;stroke-linecap:butt;stroke-linejoin:miter;stroke-miterlimit:10;stroke-dasharray:none;stroke-opacity:1"
       transform="matrix(1.3333333,0,0,-1.3333333,-31.9,-61.446667)" />
    <path
       id="path5"
       d="m 285.40343,-109.68259 c 0,1.65132 1.33749,2.98883 2.98883,2.98883 1.6513,0 2.98883,-1.33751 2.98883,-2.98883 0,-1.64386 -1.33753,-2.98883 -2.98883,-2.98883 -1.65134,0 -2.98883,1.34497 -2.98883,2.98883 z"
       style="fill:#4a4a4a;fill-opacity:1;fill-rule:nonzero;stroke:#4a4a4a;stroke-width:0.74721;stroke-linecap:butt;stroke-linejoin:miter;stroke-miterlimit:10;stroke-dasharray:none;stroke-opacity:1"
       transform="matrix(1.3333333,0,0,-1.3333333,-31.9,-61.446667)" />
    <g
       id="g5"
       aria-label="−1"
       transform="matrix(1.3333333,0,0,1.3333333,186.31467,102.932)">
      <path
         id="path6"
         d="m 6.5638047,-2.2956797 c 0.1757812,0 0.3515625,0 0.3515625,-0.1992187 0,-0.1992188 -0.1757813,-0.1992188 -0.3515625,-0.1992188 h -5.390625 c -0.1640625,0 -0.33984376,0 -0.33984376,0.1992188 0,0.1992187 0.17578126,0.1992187 0.33984376,0.1992187 z m 0,0"
         style="fill:#d0021b;fill-opacity:1;fill-rule:nonzero;stroke:none" />
      <path
         id="path7"
         d="m 10.677086,-6.3738047 c 0,-0.234375 0,-0.2578125 -0.234375,-0.2578125 -0.6093751,0.6328125 -1.4882813,0.6328125 -1.8046876,0.6328125 v 0.3164063 c 0.1992188,0 0.7851563,0 1.3007813,-0.2578125 v 5.15624996 c 0,0.3515625 -0.035156,0.48046875 -0.9257813,0.48046875 H 8.6966172 v 0.3046875 c 0.3515625,-0.03515625 1.2070312,-0.03515625 1.6054688,-0.03515625 0.398437,0 1.265625,0 1.617187,0.03515625 v -0.3046875 h -0.316406 c -0.902344,0 -0.925781,-0.1171875 -0.925781,-0.48046875 z m 0,0"
         style="fill:#d0021b;fill-opacity:1;fill-rule:nonzero;stroke:none" />
    </g>
    <path
       id="path8"
       d="m 4.0793047,-2.2956797 h 2.7773437 c 0.140625,0 0.328125,0 0.328125,-0.1992187 0,-0.1992188 -0.1875,-0.1992188 -0.328125,-0.1992188 H 4.0793047 v -2.7890625 c 0,-0.1289062 0,-0.328125 -0.1992188,-0.328125 -0.1992187,0 -0.1992187,0.1992188 -0.1992187,0.328125 v 2.7890625 H 0.89180469 c -0.140625,0 -0.328125,0 -0.328125,0.1992188 0,0.1992187 0.1875,0.1992187 0.328125,0.1992187 H 3.6808672 v 2.80078126 c 0,0.12890625 0,0.328125 0.1992187,0.328125 0.1992188,0 0.1992188,-0.19921875 0.1992188,-0.328125 z m 6.5917973,-4.078125 c 0,-0.234375 0,-0.2578125 -0.234375,-0.2578125 -0.6093754,0.6328125 -1.4882817,0.6328125 -1.8046879,0.6328125 v 0.3164063 c 0.1992187,0 0.7851562,0 1.3007812,-0.2578125 v 5.15624996 c 0,0.3515625 -0.035156,0.48046875 -0.9257812,0.48046875 H 8.6906328 v 0.3046875 c 0.3515625,-0.03515625 1.2070313,-0.03515625 1.6054692,-0.03515625 0.398437,0 1.265625,0 1.617187,0.03515625 v -0.3046875 h -0.316406 c -0.902344,0 -0.925781,-0.1171875 -0.925781,-0.48046875 z m 0,0"
       style="fill:#d0021b;fill-opacity:1;fill-rule:nonzero;stroke:none"
       aria-label="+1"
       transform="matrix(1.3333333,0,0,1.3333333,303.37733,102.932)" />
    <path
       id="path9"
       d="m 3.7157656,-3.7623359 c -0.1757812,-0.375 -0.46875,-0.6445313 -0.9140625,-0.6445313 -1.171875,0 -2.40234373,1.4648438 -2.40234373,2.9179688 0,0.93749996 0.55078125,1.59374996 1.32421873,1.59374996 0.1992188,0 0.703125,-0.03515625 1.3007813,-0.73828125 0.070312,0.41015625 0.421875,0.73828125 0.9023437,0.73828125 0.3515625,0 0.5742188,-0.22265625 0.7382813,-0.5390625 0.1640625,-0.36328125 0.2929687,-0.97265626 0.2929687,-0.99609376 0,-0.09375 -0.082031,-0.09375 -0.1171875,-0.09375 -0.09375,0 -0.1054687,0.035156 -0.140625,0.1757813 -0.1640625,0.64453121 -0.3515625,1.24218746 -0.75,1.24218746 -0.2695312,0 -0.3046875,-0.2578125 -0.3046875,-0.45703125 0,-0.22265625 0.023437,-0.3046875 0.1289063,-0.73828121 0.1171875,-0.421875 0.1289062,-0.5273438 0.2226562,-0.9023438 l 0.3515625,-1.3945312 c 0.070312,-0.28125 0.070312,-0.2929688 0.070312,-0.3398438 0,-0.1640625 -0.1171875,-0.2695312 -0.28125,-0.2695312 -0.2460937,0 -0.3867187,0.2226562 -0.4218745,0.4453125 z m -0.6445312,2.578125 c -0.046875,0.1757812 -0.046875,0.19921871 -0.1992188,0.36328121 -0.4453125,0.55078125 -0.84375,0.71484375 -1.125,0.71484375 -0.5039062,0 -0.6445312,-0.55078125 -0.6445312,-0.93749996 0,-0.5039063 0.328125,-1.7226563 0.5507812,-2.1796875 0.3046875,-0.5976563 0.7617188,-0.9609375 1.1601563,-0.9609375 0.6445312,0 0.7851562,0.8203125 0.7851562,0.8789062 0,0.058594 -0.023437,0.1171875 -0.035156,0.1640625 z m 0,0"
       style="fill:#4a4a4a;fill-opacity:1;fill-rule:nonzero;stroke:none"
       aria-label="a"
       transform="matrix(1.3333333,0,0,1.3333333,349.22533,100.09067)" />
    <path
       id="path10"
       d="m 4.0793359,-2.2956797 h 2.7773438 c 0.140625,0 0.328125,0 0.328125,-0.1992187 0,-0.1992188 -0.1875,-0.1992188 -0.328125,-0.1992188 H 4.0793359 v -2.7890625 c 0,-0.1289062 0,-0.328125 -0.1992187,-0.328125 -0.1992188,0 -0.1992188,0.1992188 -0.1992188,0.328125 v 2.7890625 H 0.89183594 c -0.140625,0 -0.328125,0 -0.328125,0.1992188 0,0.1992187 0.1875,0.1992187 0.328125,0.1992187 H 3.6808984 v 2.80078126 c 0,0.12890625 0,0.328125 0.1992188,0.328125 0.1992187,0 0.1992187,-0.19921875 0.1992187,-0.328125 z m 4.9277344,1.53515626 1.0546877,-1.03124996 c 1.558594,-1.3710938 2.15625,-1.9101563 2.15625,-2.90625 0,-1.1367188 -0.902344,-1.9335938 -2.121094,-1.9335938 -1.1249999,0 -1.8515624,0.9140625 -1.8515624,1.8046875 0,0.5507813 0.4921875,0.5507813 0.5273437,0.5507813 0.1640625,0 0.515625,-0.1171875 0.515625,-0.5273438 0,-0.2578125 -0.1875,-0.515625 -0.5273437,-0.515625 -0.082031,0 -0.1054688,0 -0.1289063,0.011719 0.2226563,-0.6445313 0.7617188,-1.0195313 1.3359375,-1.0195313 0.9140622,0 1.3359372,0.8085938 1.3359372,1.6289063 0,0.796875 -0.492187,1.5820312 -1.042968,2.203125 L 8.3508203,-0.36208594 C 8.2453516,-0.25661719 8.2453516,-0.23317969 8.2453516,0.00119531 h 3.6914064 l 0.28125,-1.73437501 h -0.257813 c -0.04687,0.3046875 -0.117187,0.73828126 -0.210937,0.89062501 -0.07031,0.0820313 -0.726563,0.0820313 -0.949219,0.0820313 z m 0,0"
       style="fill:#808080;fill-opacity:1;fill-rule:nonzero;stroke:none"
       aria-label="+2"
       transform="matrix(1.3333333,0,0,1.3333333,362.48667,102.932)" />
    <g
       id="g10"
       aria-label="−2"
       transform="matrix(1.3333333,0,0,1.3333333,127.36533,102.932)">
      <path
         id="path11"
         d="m 6.5638906,-2.2956797 c 0.1757813,0 0.3515625,0 0.3515625,-0.1992187 0,-0.1992188 -0.1757812,-0.1992188 -0.3515625,-0.1992188 h -5.390625 c -0.1640625,0 -0.33984373,0 -0.33984373,0.1992188 0,0.1992187 0.17578123,0.1992187 0.33984373,0.1992187 z m 0,0"
         style="fill:#808080;fill-opacity:1;fill-rule:nonzero;stroke:none" />
      <path
         id="path12"
         d="M 9.0131094,-0.76052344 10.067797,-1.7917734 c 1.558594,-1.3710938 2.15625,-1.9101563 2.15625,-2.90625 0,-1.1367188 -0.902344,-1.9335938 -2.121094,-1.9335938 -1.1249999,0 -1.8515624,0.9140625 -1.8515624,1.8046875 0,0.5507813 0.4921875,0.5507813 0.5273438,0.5507813 0.1640625,0 0.515625,-0.1171875 0.515625,-0.5273438 0,-0.2578125 -0.1875,-0.515625 -0.5273438,-0.515625 -0.082031,0 -0.1054687,0 -0.1289062,0.011719 0.2226562,-0.6445313 0.7617187,-1.0195313 1.3359375,-1.0195313 0.9140621,0 1.3359371,0.8085938 1.3359371,1.6289063 0,0.796875 -0.492187,1.5820312 -1.042968,2.203125 L 8.3568594,-0.36208594 C 8.2513906,-0.25661719 8.2513906,-0.23317969 8.2513906,0.00119531 h 3.6914064 l 0.28125,-1.73437501 h -0.257813 c -0.04687,0.3046875 -0.117187,0.73828126 -0.210937,0.89062501 -0.07031,0.0820313 -0.726563,0.0820313 -0.949219,0.0820313 z m 0,0"
         style="fill:#808080;fill-opacity:1;fill-rule:nonzero;stroke:none" />
    </g>
  </g>
</svg>
