<?xml version="1.0" encoding="UTF-8" standalone="no"?>
<!-- Created with Inkscape (http://www.inkscape.org/) -->

<svg
   version="1.1"
   id="svg1"
   width="289.44"
   height="224.88"
   viewBox="0 0 289.44 224.88"
   sodipodi:docname="interpolation.pdf"
   xmlns:inkscape="http://www.inkscape.org/namespaces/inkscape"
   xmlns:sodipodi="http://sodipodi.sourceforge.net/DTD/sodipodi-0.dtd"
   xmlns="http://www.w3.org/2000/svg"
   xmlns:svg="http://www.w3.org/2000/svg">
  <defs
     id="defs1" />
  <sodipodi:namedview
     id="namedview1"
     pagecolor="#ffffff"
     bordercolor="#000000"
     borderopacity="0.25"
     inkscape:showpageshadow="2"
     inkscape:pageopacity="0.0"
     inkscape:pagecheckerboard="0"
     inkscape:deskcolor="#d1d1d1">
    <inkscape:page
       x="0"
       y="0"
       inkscape:label="1"
       id="page1"
       width="289.44"
       height="224.88"
       margin="0"
       bleed="0" />
  </sodipodi:namedview>
  <g
     id="g1"
     inkscape:groupmode="layer"
     inkscape:label="1">
    <path
       id="path1"
       d="m 97.0249,-158.43042 c 20.95171,116.72878 125.67284,41.54474 191.24031,148.38049"
       style="fill:none;stroke:#000000;stroke-width:1.49442;stroke-linecap:butt;stroke-linejoin:miter;stroke-miterlimit:10;stroke-dasharray:none;stroke-opacity:1"
       transform="matrix(1.3333333,0,0,-1.3333333,-117.38,-6.304)" />
    <path
       id="path2"
       d="m 91.72719,-158.43042 c 0,2.73477 2.03988,4.94652 4.55051,4.94652 2.51808,0 4.55796,-2.21175 4.55796,-4.94652 0,-2.72731 -2.03988,-4.94652 -4.55796,-4.94652 -2.51063,0 -4.55051,2.21921 -4.55051,4.94652 z"
       style="fill:#9013fe;fill-opacity:1;fill-rule:nonzero;stroke:#9013fe;stroke-width:0.74721;stroke-linecap:butt;stroke-linejoin:miter;stroke-miterlimit:10;stroke-dasharray:none;stroke-opacity:1"
       transform="matrix(1.3333333,0,0,-1.3333333,-117.38,-6.304)" />
    <path
       id="path3"
       d="m 283.71472,-10.04993 c 0,2.73479 2.03989,4.94651 4.55049,4.94651 2.5181,0 4.55799,-2.21172 4.55799,-4.94651 0,-2.72731 -2.03989,-4.94653 -4.55799,-4.94653 -2.5106,0 -4.55049,2.21922 -4.55049,4.94653 z"
       style="fill:#9013fe;fill-opacity:1;fill-rule:nonzero;stroke:#9013fe;stroke-width:0.74721;stroke-linecap:butt;stroke-linejoin:miter;stroke-miterlimit:10;stroke-dasharray:none;stroke-opacity:1"
       transform="matrix(1.3333333,0,0,-1.3333333,-117.38,-6.304)" />
    <path
       id="path4"
       d="m 134.69164,-93.04976 c 0,2.73479 2.03986,4.94652 4.55049,4.94652 2.51809,0 4.55797,-2.21173 4.55797,-4.94652 0,-2.72731 -2.03988,-4.9465 -4.55797,-4.9465 -2.51063,0 -4.55049,2.21919 -4.55049,4.9465 z"
       style="fill:#9013fe;fill-opacity:1;fill-rule:nonzero;stroke:#9013fe;stroke-width:0.74721;stroke-linecap:butt;stroke-linejoin:miter;stroke-miterlimit:10;stroke-dasharray:none;stroke-opacity:1"
       transform="matrix(1.3333333,0,0,-1.3333333,-117.38,-6.304)" />
    <path
       id="path5"
       d="m 211.65402,-69.13911 c 0,2.73478 2.03988,4.94651 4.55049,4.94651 2.5181,0 4.55797,-2.21173 4.55797,-4.94651 0,-2.72731 -2.03987,-4.94651 -4.55797,-4.94651 -2.51061,0 -4.55049,2.2192 -4.55049,4.94651 z"
       style="fill:#9013fe;fill-opacity:1;fill-rule:nonzero;stroke:#9013fe;stroke-width:0.74721;stroke-linecap:butt;stroke-linejoin:miter;stroke-miterlimit:10;stroke-dasharray:none;stroke-opacity:1"
       transform="matrix(1.3333333,0,0,-1.3333333,-117.38,-6.304)" />
    <path
       id="path6"
       d="m 270.30981,-28.41629 c 0,2.73477 2.03989,4.94652 4.55051,4.94652 2.51808,0 4.55797,-2.21175 4.55797,-4.94652 0,-2.72731 -2.03989,-4.94652 -4.55797,-4.94652 -2.51062,0 -4.55051,2.21921 -4.55051,4.94652 z"
       style="fill:#9013fe;fill-opacity:1;fill-rule:nonzero;stroke:#9013fe;stroke-width:0.74721;stroke-linecap:butt;stroke-linejoin:miter;stroke-miterlimit:10;stroke-dasharray:none;stroke-opacity:1"
       transform="matrix(1.3333333,0,0,-1.3333333,-117.38,-6.304)" />
    <path
       id="path7"
       d="m 149.63579,-86.69849 c 0,2.73478 2.03987,4.94652 4.55049,4.94652 2.5181,0 4.55797,-2.21174 4.55797,-4.94652 0,-2.72731 -2.03987,-4.94651 -4.55797,-4.94651 -2.51062,0 -4.55049,2.2192 -4.55049,4.94651 z"
       style="fill:#9013fe;fill-opacity:1;fill-rule:nonzero;stroke:#9013fe;stroke-width:0.74721;stroke-linecap:butt;stroke-linejoin:miter;stroke-miterlimit:10;stroke-dasharray:none;stroke-opacity:1"
       transform="matrix(1.3333333,0,0,-1.3333333,-117.38,-6.304)" />
    <path
       id="path8"
       d="m 162.33832,-82.96245 c 0,2.73477 2.03987,4.94652 4.55049,4.94652 2.51809,0 4.55797,-2.21175 4.55797,-4.94652 0,-2.72731 -2.03988,-4.94652 -4.55797,-4.94652 -2.51062,0 -4.55049,2.21921 -4.55049,4.94652 z"
       style="fill:#9013fe;fill-opacity:1;fill-rule:nonzero;stroke:#9013fe;stroke-width:0.74721;stroke-linecap:butt;stroke-linejoin:miter;stroke-miterlimit:10;stroke-dasharray:none;stroke-opacity:1"
       transform="matrix(1.3333333,0,0,-1.3333333,-117.38,-6.304)" />
    <path
       id="path9"
       d="m 179.15048,-78.1056 c 0,2.73478 2.03989,4.94651 4.55051,4.94651 2.51808,0 4.55797,-2.21173 4.55797,-4.94651 0,-2.72732 -2.03989,-4.94651 -4.55797,-4.94651 -2.51062,0 -4.55051,2.21919 -4.55051,4.94651 z"
       style="fill:#9013fe;fill-opacity:1;fill-rule:nonzero;stroke:#9013fe;stroke-width:0.74721;stroke-linecap:butt;stroke-linejoin:miter;stroke-miterlimit:10;stroke-dasharray:none;stroke-opacity:1"
       transform="matrix(1.3333333,0,0,-1.3333333,-117.38,-6.304)" />
    <path
       id="path10"
       d="m 261.71693,-38.12999 c 0,2.73477 2.03987,4.94652 4.5505,4.94652 2.51809,0 4.55797,-2.21175 4.55797,-4.94652 0,-2.72731 -2.03988,-4.94651 -4.55797,-4.94651 -2.51063,0 -4.5505,2.2192 -4.5505,4.94651 z"
       style="fill:#9013fe;fill-opacity:1;fill-rule:nonzero;stroke:#9013fe;stroke-width:0.74721;stroke-linecap:butt;stroke-linejoin:miter;stroke-miterlimit:10;stroke-dasharray:none;stroke-opacity:1"
       transform="matrix(1.3333333,0,0,-1.3333333,-117.38,-6.304)" />
    <path
       id="path11"
       d="m 116.1833,-171.25998 c 3.01125,-1.75593 5.40232,-1.1208 7.15827,1.89044 l 11.3426,19.47223 c 2.51061,4.30391 5.27529,5.58164 8.28652,3.8257 -3.01123,1.75594 -3.26529,4.78214 -0.76213,9.08604 m -1.1283,-1.93525 12.47836,21.41496 c 1.75594,3.01126 1.1283,5.39485 -1.88296,7.15077"
       style="fill:none;stroke:#000000;stroke-width:0.74721;stroke-linecap:butt;stroke-linejoin:miter;stroke-miterlimit:10;stroke-dasharray:none;stroke-opacity:1"
       transform="matrix(1.3333333,0,0,-1.3333333,-117.38,-6.304)" />
    <g
       id="g11"
       aria-label="z&#10;0"
       transform="matrix(1.3333333,0,0,1.3333333,20.165333,219.084)">
      <path
         id="path12"
         d="M 1.3232656,-0.83057812 C 1.8623281,-1.4047969 2.1552969,-1.6508906 2.5068594,-1.9555781 c 0,-0.011719 0.6210937,-0.5390625 0.984375,-0.9023438 0.9375,-0.9257812 1.1601562,-1.40625 1.1601562,-1.4414062 0,-0.1054688 -0.09375,-0.1054688 -0.1054687,-0.1054688 -0.070312,0 -0.1054688,0.023437 -0.1523438,0.1171875 -0.3046875,0.46875 -0.5039062,0.6328125 -0.75,0.6328125 -0.234375,0 -0.3515625,-0.1523437 -0.5039062,-0.3164062 -0.1875,-0.234375 -0.3632813,-0.4335938 -0.6914063,-0.4335938 -0.75,0 -1.2070312,0.9257813 -1.2070312,1.1367188 0,0.046875 0.035156,0.1171875 0.1171875,0.1171875 0.09375,0 0.1171875,-0.058594 0.140625,-0.1171875 0.1875,-0.4570313 0.7617187,-0.46875 0.84375,-0.46875 0.2109375,0 0.3984375,0.070312 0.6210937,0.1523437 0.3984375,0.1523438 0.515625,0.1523438 0.7734375,0.1523438 -0.3632812,0.421875 -1.1953125,1.1367187 -1.3828125,1.3007812 l -0.9023437,0.8320313 c -0.67968752,0.66796873 -1.01953127,1.24218748 -1.01953127,1.31249998 0,0.09375 0.09375,0.09375 0.1171875,0.09375 0.0820313,0 0.09375,-0.01171875 0.15234375,-0.12890625 0.234375,-0.33984375 0.52734372,-0.609375 0.85546872,-0.609375 0.2226563,0 0.328125,0.0820313 0.5742188,0.375 0.1640625,0.2109375 0.3515625,0.36328125 0.6328125,0.36328125 0.984375,0 1.5703125,-1.26562498 1.5703125,-1.53515628 0,-0.046875 -0.046875,-0.09375 -0.1171875,-0.09375 -0.09375,0 -0.1171875,0.058594 -0.140625,0.1289063 -0.234375,0.64453123 -0.8671875,0.83203123 -1.1953125,0.83203123 -0.1992188,0 -0.3867188,-0.0585938 -0.5859375,-0.12890625 -0.3398438,-0.12890625 -0.4921875,-0.1640625 -0.703125,-0.1640625 -0.023437,0 -0.1757813,0 -0.2695313,0.0234375 z m 0,0"
         style="fill:#9013fe;fill-opacity:1;fill-rule:nonzero;stroke:none" />
      <path
         id="path13"
         d="m 8.2314688,-0.73096875 c 0,-0.76171875 -0.09375,-1.31249995 -0.4101563,-1.80468745 -0.2226562,-0.3164063 -0.6445312,-0.5976563 -1.2070312,-0.5976563 -1.6171875,0 -1.6171875,1.8984375 -1.6171875,2.40234375 0,0.50390625 0,2.36718755 1.6171875,2.36718755 1.6171875,0 1.6171875,-1.8632813 1.6171875,-2.36718755 z M 6.6142813,1.437 c -0.3164063,0 -0.75,-0.1875 -0.890625,-0.76171875 -0.09375,-0.41015625 -0.09375,-0.984375 -0.09375,-1.5 0,-0.50390625 0,-1.03124995 0.1054687,-1.41796875 0.1523438,-0.5507812 0.5976563,-0.6914062 0.8789063,-0.6914062 0.375,0 0.7382812,0.2226562 0.8671875,0.6328125 0.1054687,0.375 0.1171875,0.8789062 0.1171875,1.47656245 0,0.515625 0,1.04296875 -0.09375,1.4765625 C 7.3642813,1.2846563 6.8955313,1.437 6.6142813,1.437 Z m 0,0"
         style="fill:#9013fe;fill-opacity:1;fill-rule:nonzero;stroke:none" />
    </g>
    <g
       id="g13"
       aria-label="z&#10;n"
       transform="matrix(1.3333333,0,0,1.3333333,275.044,21.244)">
      <path
         id="path14"
         d="M 1.3234453,-0.83339063 C 1.8625078,-1.4076094 2.1554766,-1.6537031 2.5070391,-1.9583906 c 0,-0.011719 0.6210937,-0.5390625 0.984375,-0.9023438 0.9375,-0.9257812 1.1601562,-1.40625 1.1601562,-1.4414062 0,-0.1054688 -0.09375,-0.1054688 -0.1054687,-0.1054688 -0.070312,0 -0.1054688,0.023437 -0.1523438,0.1171875 -0.3046875,0.46875 -0.5039062,0.6328125 -0.75,0.6328125 -0.234375,0 -0.3515625,-0.1523437 -0.5039062,-0.3164062 -0.1875,-0.234375 -0.3632813,-0.4335938 -0.6914063,-0.4335938 -0.75,0 -1.2070312,0.9257813 -1.2070312,1.1367188 0,0.046875 0.035156,0.1171875 0.1171875,0.1171875 0.09375,0 0.1171875,-0.058594 0.140625,-0.1171875 0.1875,-0.4570313 0.7617187,-0.46875 0.84375,-0.46875 0.2109375,0 0.3984375,0.070312 0.6210937,0.1523437 0.3984375,0.1523438 0.515625,0.1523438 0.7734375,0.1523438 -0.3632812,0.421875 -1.1953125,1.1367187 -1.3828125,1.3007812 l -0.9023437,0.8320313 c -0.67968754,0.66796872 -1.01953129,1.24218747 -1.01953129,1.31249997 0,0.09375 0.09375,0.09375 0.1171875,0.09375 0.0820313,0 0.09375,-0.01171875 0.15234375,-0.12890625 0.234375,-0.33984375 0.52734374,-0.609375 0.85546874,-0.609375 0.2226563,0 0.328125,0.0820313 0.5742188,0.375 0.1640625,0.2109375 0.3515625,0.36328125 0.6328125,0.36328125 0.984375,0 1.5703125,-1.26562497 1.5703125,-1.53515627 0,-0.046875 -0.046875,-0.09375 -0.1171875,-0.09375 -0.09375,0 -0.1171875,0.058594 -0.140625,0.1289063 -0.234375,0.64453122 -0.8671875,0.83203122 -1.1953125,0.83203122 -0.1992188,0 -0.3867188,-0.0585938 -0.5859375,-0.12890625 -0.3398438,-0.12890625 -0.4921875,-0.1640625 -0.703125,-0.1640625 -0.023437,0 -0.1757813,0 -0.2695313,0.0234375 z m 0,0"
         style="fill:#9013fe;fill-opacity:1;fill-rule:nonzero;stroke:none" />
      <path
         id="path15"
         d="m 5.4894609,1.0621172 c -0.035156,0.082031 -0.070312,0.2578125 -0.070312,0.28125 0,0.1523437 0.1171875,0.2226562 0.234375,0.2226562 0.1289063,0 0.234375,-0.09375 0.2695313,-0.1523437 0.035156,-0.058594 0.09375,-0.2929688 0.1289062,-0.43359376 0.035156,-0.12890625 0.1054688,-0.45703125 0.1523438,-0.6328125 0.035156,-0.15234375 0.082031,-0.3046875 0.1171875,-0.45703125 0.082031,-0.29296875 0.09375,-0.3515625 0.2929687,-0.6328125 0.1992188,-0.28124999 0.5273438,-0.64453129 1.0429688,-0.64453129 0.4101562,0 0.4101562,0.3632813 0.4101562,0.49218754 0,0.421875 -0.2929687,1.1953125 -0.4101562,1.48828125 -0.070312,0.1875 -0.1054688,0.2578125 -0.1054688,0.375 0,0.36328121 0.3046875,0.59765621 0.6679688,0.59765621 0.6914062,0 1.0078125,-0.96093746 1.0078125,-1.06640621 0,-0.09375 -0.09375,-0.09375 -0.1171875,-0.09375 -0.09375,0 -0.1054688,0.046875 -0.1289063,0.1171875 -0.1640625,0.56250001 -0.46875,0.84375001 -0.7382812,0.84375001 -0.1523438,0 -0.1757813,-0.09375 -0.1757813,-0.2460938 0,-0.15234371 0.035156,-0.24609371 0.1523438,-0.56249996 0.09375,-0.2109375 0.375,-0.94921875 0.375,-1.34765625 0,-0.66796879 -0.5390625,-0.78515629 -0.9023438,-0.78515629 -0.5859375,0 -0.9726562,0.3515625 -1.1835937,0.63281254 -0.046875,-0.48046874 -0.4570313,-0.63281254 -0.75,-0.63281254 -0.2929688,0 -0.4570313,0.2109375 -0.5507813,0.375 -0.1523437,0.25781254 -0.2460937,0.65625004 -0.2460937,0.69140629 0,0.0820312 0.09375,0.0820312 0.1171875,0.0820312 0.09375,0 0.1054687,-0.0117188 0.1523437,-0.19921875 0.1054688,-0.42187494 0.234375,-0.76171874 0.515625,-0.76171874 0.1757813,0 0.2226563,0.1523438 0.2226563,0.3398438 0,0.14062494 -0.058594,0.39843744 -0.1054688,0.58593744 -0.046875,0.1875 -0.1171875,0.46875 -0.1523437,0.62109375 z m 0,0"
         style="fill:#9013fe;fill-opacity:1;fill-rule:nonzero;stroke:none" />
    </g>
    <g
       id="g15"
       aria-label="z&#10;1"
       transform="matrix(1.3333333,0,0,1.3333333,71.762667,128.364)">
      <path
         id="path16"
         d="M 1.3235078,-0.83257031 C 1.8625703,-1.4067891 2.1555391,-1.6528828 2.5071016,-1.9575703 c 0,-0.011719 0.6210937,-0.5390625 0.984375,-0.9023438 0.9375,-0.9257812 1.1601562,-1.40625 1.1601562,-1.4414062 0,-0.1054688 -0.09375,-0.1054688 -0.1054687,-0.1054688 -0.070312,0 -0.1054688,0.023437 -0.1523438,0.1171875 -0.3046875,0.46875 -0.5039062,0.6328125 -0.75,0.6328125 -0.234375,0 -0.3515625,-0.1523437 -0.5039062,-0.3164062 -0.1875,-0.234375 -0.3632813,-0.4335938 -0.6914063,-0.4335938 -0.75,0 -1.2070312,0.9257813 -1.2070312,1.1367188 0,0.046875 0.035156,0.1171875 0.1171875,0.1171875 0.09375,0 0.1171875,-0.058594 0.140625,-0.1171875 0.1875,-0.4570313 0.7617187,-0.46875 0.84375,-0.46875 0.2109375,0 0.3984375,0.070312 0.6210937,0.1523437 0.3984375,0.1523438 0.515625,0.1523438 0.7734375,0.1523438 -0.3632812,0.421875 -1.1953125,1.1367187 -1.3828125,1.3007812 l -0.9023437,0.8320313 c -0.67968754,0.66796874 -1.01953129,1.24218749 -1.01953129,1.31249999 0,0.09375 0.09375,0.09375 0.1171875,0.09375 0.0820313,0 0.09375,-0.01171875 0.15234375,-0.12890625 0.234375,-0.33984375 0.52734374,-0.609375 0.85546874,-0.609375 0.2226563,0 0.328125,0.0820313 0.5742188,0.375 0.1640625,0.2109375 0.3515625,0.36328125 0.6328125,0.36328125 0.984375,0 1.5703125,-1.26562499 1.5703125,-1.53515629 0,-0.046875 -0.046875,-0.09375 -0.1171875,-0.09375 -0.09375,0 -0.1171875,0.058594 -0.140625,0.1289063 -0.234375,0.64453124 -0.8671875,0.83203124 -1.1953125,0.83203124 -0.1992188,0 -0.3867188,-0.0585938 -0.5859375,-0.12890625 -0.3398438,-0.12890625 -0.4921875,-0.1640625 -0.703125,-0.1640625 -0.023437,0 -0.1757813,0 -0.2695313,0.0234375 z m 0,0"
         style="fill:#9013fe;fill-opacity:1;fill-rule:nonzero;stroke:none" />
      <path
         id="path17"
         d="m 6.9660859,-2.9360859 c 0,-0.1875 -0.011719,-0.1992188 -0.2109375,-0.1992188 -0.4453125,0.4335938 -1.078125,0.4453125 -1.359375,0.4453125 v 0.2460938 c 0.1640625,0 0.6210938,0 1.0078125,-0.1875 v 3.55078121 c 0,0.23437499 0,0.32812499 -0.6914062,0.32812499 H 5.4426484 v 0.2460938 c 0.1289063,-0.011719 0.984375,-0.023437 1.2421875,-0.023437 0.2109375,0 1.0898438,0.011719 1.2421875,0.023437 V 1.2475078 H 7.6692109 c -0.703125,0 -0.703125,-0.09375 -0.703125,-0.32812499 z m 0,0"
         style="fill:#9013fe;fill-opacity:1;fill-rule:nonzero;stroke:none" />
    </g>
    <g
       id="g17"
       aria-label="z&#10;n−1"
       transform="matrix(1.3333333,0,0,1.3333333,252.588,42.185333)">
      <path
         id="path18"
         d="M 1.3256016,-0.83333594 C 1.8646641,-1.4075547 2.1576328,-1.6536484 2.5091953,-1.9583359 c 0,-0.011719 0.6210938,-0.5390625 0.984375,-0.9023438 0.9375,-0.9257812 1.1601563,-1.40625 1.1601563,-1.4414062 0,-0.1054688 -0.09375,-0.1054688 -0.1054688,-0.1054688 -0.070312,0 -0.1054687,0.023437 -0.1523437,0.1171875 -0.3046875,0.46875 -0.5039063,0.6328125 -0.75,0.6328125 -0.234375,0 -0.3515625,-0.1523437 -0.5039063,-0.3164062 -0.1875,-0.234375 -0.3632812,-0.4335938 -0.6914062,-0.4335938 -0.75,0 -1.2070313,0.9257813 -1.2070313,1.1367188 0,0.046875 0.035156,0.1171875 0.1171875,0.1171875 0.09375,0 0.1171875,-0.058594 0.140625,-0.1171875 0.1875,-0.4570313 0.7617188,-0.46875 0.84375,-0.46875 0.2109375,0 0.3984375,0.070312 0.6210938,0.1523437 0.3984375,0.1523438 0.515625,0.1523438 0.7734375,0.1523438 -0.3632813,0.421875 -1.1953125,1.1367187 -1.3828125,1.3007812 l -0.9023438,0.8320313 c -0.67968749,0.66796871 -1.01953124,1.24218746 -1.01953124,1.31249996 0,0.09375 0.09375,0.09375 0.1171875,0.09375 0.0820313,0 0.09375,-0.01171875 0.15234375,-0.12890625 0.234375,-0.33984375 0.52734379,-0.609375 0.85546879,-0.609375 0.2226562,0 0.328125,0.0820313 0.5742187,0.375 0.1640625,0.2109375 0.3515625,0.36328125 0.6328125,0.36328125 0.984375,0 1.5703125,-1.26562496 1.5703125,-1.53515626 0,-0.046875 -0.046875,-0.09375 -0.1171875,-0.09375 -0.09375,0 -0.1171875,0.058594 -0.140625,0.1289063 -0.234375,0.64453121 -0.8671875,0.83203121 -1.1953125,0.83203121 -0.1992187,0 -0.3867187,-0.0585938 -0.5859375,-0.12890625 -0.3398437,-0.12890625 -0.4921875,-0.1640625 -0.703125,-0.1640625 -0.023437,0 -0.1757812,0 -0.2695312,0.0234375 z m 0,0"
         style="fill:#9013fe;fill-opacity:1;fill-rule:nonzero;stroke:none" />
      <path
         id="path19"
         d="m 5.4886875,1.0621719 c -0.035156,0.082031 -0.070312,0.2578125 -0.070312,0.28125 0,0.1523437 0.1171875,0.2226562 0.234375,0.2226562 0.1289063,0 0.234375,-0.09375 0.2695313,-0.1523437 0.035156,-0.058594 0.09375,-0.2929688 0.1289062,-0.43359378 0.035156,-0.12890625 0.1054688,-0.45703125 0.1523438,-0.6328125 0.035156,-0.15234375 0.082031,-0.3046875 0.1171875,-0.45703125 0.082031,-0.29296875 0.09375,-0.3515625 0.2929687,-0.6328125 0.1992188,-0.28124997 0.5273438,-0.64453127 1.0429688,-0.64453127 0.4101562,0 0.4101562,0.3632813 0.4101562,0.49218752 0,0.421875 -0.2929687,1.1953125 -0.4101562,1.48828125 -0.070312,0.1875 -0.1054688,0.2578125 -0.1054688,0.375 0,0.36328123 0.3046875,0.59765623 0.6679688,0.59765623 0.6914062,0 1.0078125,-0.96093748 1.0078125,-1.06640623 0,-0.09375 -0.09375,-0.09375 -0.1171875,-0.09375 -0.09375,0 -0.1054688,0.046875 -0.1289063,0.1171875 C 8.8168125,1.0856094 8.512125,1.3668594 8.2425938,1.3668594 c -0.1523438,0 -0.1757813,-0.09375 -0.1757813,-0.2460938 0,-0.15234373 0.035156,-0.24609373 0.1523438,-0.56249998 0.09375,-0.2109375 0.375,-0.94921875 0.375,-1.34765625 0,-0.66796877 -0.5390625,-0.78515627 -0.9023438,-0.78515627 -0.5859375,0 -0.9726562,0.3515625 -1.1835937,0.63281252 -0.046875,-0.48046872 -0.4570313,-0.63281252 -0.75,-0.63281252 -0.2929688,0 -0.4570313,0.2109375 -0.5507813,0.375 -0.1523437,0.25781252 -0.2460937,0.65625002 -0.2460937,0.69140627 0,0.0820313 0.09375,0.0820313 0.1171875,0.0820313 0.09375,0 0.1054687,-0.0117188 0.1523437,-0.19921875 C 5.3363438,-1.0472031 5.46525,-1.3870469 5.7465,-1.3870469 c 0.1757813,0 0.2226563,0.1523438 0.2226563,0.3398438 0,0.14062497 -0.058594,0.39843747 -0.1054688,0.58593747 -0.046875,0.1875 -0.1171875,0.46875 -0.1523437,0.62109375 z m 0,0"
         style="fill:#9013fe;fill-opacity:1;fill-rule:nonzero;stroke:none" />
      <path
         id="path20"
         d="m 14.74943,-0.07454688 c 0.105468,0 0.269531,0 0.269531,-0.17578125 0,-0.17578125 -0.152344,-0.17578125 -0.269531,-0.17578125 h -4.160157 c -0.105468,0 -0.28125,0 -0.28125,0.17578125 0,0.17578125 0.164063,0.17578125 0.28125,0.17578125 z m 0,0"
         style="fill:#9013fe;fill-opacity:1;fill-rule:nonzero;stroke:none" />
      <path
         id="path21"
         d="m 18.115641,-2.9339219 c 0,-0.1875 -0.01172,-0.1992187 -0.210938,-0.1992187 -0.445312,0.4335937 -1.078125,0.4453125 -1.359375,0.4453125 v 0.2460937 c 0.164063,0 0.621094,0 1.007813,-0.1875 v 3.55078127 c 0,0.23437503 0,0.32812503 -0.691407,0.32812503 h -0.269531 v 0.2460937 c 0.128906,-0.011719 0.984375,-0.023437 1.242188,-0.023437 0.210937,0 1.089843,0.011719 1.242187,0.023437 V 1.2496719 h -0.257812 c -0.703125,0 -0.703125,-0.09375 -0.703125,-0.32812503 z m 0,0"
         style="fill:#9013fe;fill-opacity:1;fill-rule:nonzero;stroke:none" />
    </g>
    <g
       id="g21"
       aria-label="z&#10;2"
       transform="matrix(1.3333333,0,0,1.3333333,70.585333,99.430667)">
      <path
         id="path22"
         d="M 1.3246719,-0.83276563 C 1.8637344,-1.4069844 2.1567031,-1.6530781 2.5082656,-1.9577656 c 0,-0.011719 0.6210938,-0.5390625 0.984375,-0.9023438 0.9375,-0.9257812 1.1601563,-1.40625 1.1601563,-1.4414062 0,-0.1054688 -0.09375,-0.1054688 -0.1054688,-0.1054688 -0.070312,0 -0.1054687,0.023437 -0.1523437,0.1171875 -0.3046875,0.46875 -0.5039063,0.6328125 -0.75,0.6328125 -0.234375,0 -0.3515625,-0.1523437 -0.5039063,-0.3164062 -0.1875,-0.234375 -0.3632812,-0.4335938 -0.6914062,-0.4335938 -0.75,0 -1.2070313,0.9257813 -1.2070313,1.1367188 0,0.046875 0.035156,0.1171875 0.1171875,0.1171875 0.09375,0 0.1171875,-0.058594 0.140625,-0.1171875 0.1875,-0.4570313 0.7617188,-0.46875 0.84375,-0.46875 0.2109375,0 0.3984375,0.070312 0.6210938,0.1523437 0.3984375,0.1523438 0.515625,0.1523438 0.7734375,0.1523438 -0.3632813,0.421875 -1.1953125,1.1367187 -1.3828125,1.3007812 l -0.9023438,0.8320313 c -0.67968747,0.66796872 -1.01953122,1.24218747 -1.01953122,1.31249997 0,0.09375 0.09375,0.09375 0.1171875,0.09375 0.0820313,0 0.09375,-0.01171875 0.15234375,-0.12890625 0.234375,-0.33984375 0.52734377,-0.609375 0.85546877,-0.609375 0.2226562,0 0.328125,0.0820313 0.5742187,0.375 0.1640625,0.2109375 0.3515625,0.36328125 0.6328125,0.36328125 0.984375,0 1.5703125,-1.26562497 1.5703125,-1.53515627 0,-0.046875 -0.046875,-0.09375 -0.1171875,-0.09375 -0.09375,0 -0.1171875,0.058594 -0.140625,0.1289063 -0.234375,0.64453122 -0.8671875,0.83203122 -1.1953125,0.83203122 -0.1992187,0 -0.3867187,-0.0585938 -0.5859375,-0.12890625 -0.3398437,-0.12890625 -0.4921875,-0.1640625 -0.703125,-0.1640625 -0.023437,0 -0.1757812,0 -0.2695312,0.0234375 z m 0,0"
         style="fill:#9013fe;fill-opacity:1;fill-rule:nonzero;stroke:none" />
      <path
         id="path23"
         d="m 8.1479141,0.23071094 h -0.234375 c -0.023437,0.15234375 -0.082031,0.5625 -0.1757813,0.6328125 -0.058594,0.0351563 -0.5976562,0.0351563 -0.6914062,0.0351563 H 5.7572891 c 0.7382812,-0.64453125 0.984375,-0.84375 1.3945312,-1.171875 0.515625,-0.41015625 0.9960938,-0.84374994 0.9960938,-1.50000004 0,-0.84375 -0.7382813,-1.359375 -1.6289063,-1.359375 -0.8671875,0 -1.453125,0.609375 -1.453125,1.2421875 0,0.3632813 0.3046875,0.3984375 0.375,0.3984375 0.1640625,0 0.375,-0.1171875 0.375,-0.375 0,-0.1289062 -0.058594,-0.3632813 -0.421875,-0.3632813 0.2226563,-0.5039062 0.6914063,-0.65625 1.0195313,-0.65625 0.703125,0 1.0664062,0.5507813 1.0664062,1.1132813 0,0.609375 -0.4335937,1.08984379 -0.65625,1.33593754 l -1.6875,1.66406246 c -0.070312,0.058594 -0.070312,0.070312 -0.070312,0.2695312 h 2.8828125 z m 0,0"
         style="fill:#9013fe;fill-opacity:1;fill-rule:nonzero;stroke:none" />
    </g>
    <path
       id="path24"
       d="m 5.25025,9.375e-5 v -0.3046875 c -0.6679687,0 -0.7734375,0 -0.7734375,-0.45703125 v -3.65625 l -1.2539062,0.09375 c -0.1640625,0.011719 -0.1875,0.023437 -0.1875,0.023437 -0.011719,0.011719 -0.035156,0.011719 -0.1757813,0.011719 H 1.68775 v -1.125 c 0,-0.9960937 0.8554688,-1.3945312 1.4648438,-1.3945312 0.3046875,0 0.6679687,0.1054687 0.8671875,0.328125 -0.4101563,0.023437 -0.46875,0.3046875 -0.46875,0.46875 0,0.328125 0.2578125,0.4570312 0.4453125,0.4570312 0.2226562,0 0.4570312,-0.1640625 0.4570312,-0.4570312 0,-0.5976563 -0.5507812,-1.0078125 -1.2890625,-1.0078125 -0.9257812,0 -2.109375,0.5039062 -2.109375,1.59375 V -4.288969 H 0.26978125 v 0.3046875 H 1.0549375 v 3.2226563 c 0,0.45703125 -0.10546875,0.45703125 -0.7734375,0.45703125 V 9.375e-5 L 1.3830625,-0.0350625 2.4963438,9.375e-5 v -0.3046875 c -0.6679688,0 -0.7851563,0 -0.7851563,-0.45703125 v -3.2226563 h 1.5820313 c 0.4570312,0 0.5273437,0.1289063 0.5273437,0.5390625 v 2.6835938 c 0,0.45703125 -0.1171875,0.45703125 -0.7851562,0.45703125 V 9.375e-5 L 4.1486875,-0.0350625 Z m 5.43457,0 v -0.3046875 c -0.539062,0 -0.7265622,-0.0234375 -0.9492184,-0.31640625 L 8.3996641,-2.3436563 c 0.2929687,-0.375 0.6796875,-0.8671875 0.9140625,-1.125 0.3164062,-0.3515625 0.7148434,-0.5039062 1.1835934,-0.515625 v -0.3046875 c -0.257812,0.011719 -0.5507809,0.023437 -0.8085934,0.023437 -0.3046875,0 -0.8320313,-0.023437 -0.9609375,-0.023437 v 0.3046875 c 0.2109375,0.023437 0.2929687,0.1523438 0.2929687,0.3046875 0,0.1640625 -0.1054687,0.2929688 -0.1523437,0.3515625 L 8.2473203,-2.5545938 7.4738828,-3.5506875 c -0.09375,-0.1054688 -0.09375,-0.1289063 -0.09375,-0.1875 0,-0.1523438 0.1523438,-0.234375 0.3515625,-0.2460938 v -0.3046875 l -1.078125,0.023437 c -0.2109375,0 -0.6796875,-0.011719 -0.9492187,-0.023437 v 0.3046875 c 0.703125,0 0.7148437,0.011719 1.1835937,0.609375 l 0.984375,1.2773438 c -0.46875,0.5976562 -0.46875,0.6210937 -0.9375,1.1953125 -0.4804687,0.57421875 -1.0664062,0.59765625 -1.2773437,0.59765625 V 9.375e-5 C 5.9152891,-0.02334375 6.2316953,-0.0350625 6.4895078,-0.0350625 L 7.4387266,9.375e-5 v -0.3046875 C 7.2160703,-0.33975 7.1457578,-0.46865625 7.1457578,-0.621 c 0,-0.2109375 0.2929688,-0.5390625 0.890625,-1.265625 l 0.7617188,0.99609375 c 0.082031,0.1171875 0.2109375,0.26953125 0.2109375,0.328125 0,0.09375 -0.09375,0.24609375 -0.3632813,0.2578125 V 9.375e-5 l 1.078125,-0.03515625 c 0.2695313,0 0.6562502,0.01171875 0.9609372,0.03515625 z M 14.935797,-1.1835 c 0,-0.1054688 -0.08203,-0.1171875 -0.128906,-0.1171875 -0.09375,0 -0.117188,0.058594 -0.128907,0.140625 -0.351562,1.01953125 -1.253906,1.01953125 -1.347656,1.01953125 -0.503906,0 -0.902344,-0.29296875 -1.125,-0.66796875 -0.304687,-0.4804688 -0.304687,-1.1367188 -0.304687,-1.4882813 h 2.789062 c 0.210938,0 0.246094,0 0.246094,-0.2109375 0,-0.984375 -0.539063,-1.9570312 -1.78125,-1.9570312 -1.160156,0 -2.074219,1.03125 -2.074219,2.2734375 0,1.3359375 1.042969,2.296875 2.191406,2.296875 1.21875,0 1.664063,-1.1015625 1.664063,-1.2890625 z m -0.65625,-1.3242188 h -2.367188 c 0.05859,-1.4882812 0.902344,-1.734375 1.242188,-1.734375 1.019531,0 1.125,1.3476563 1.125,1.734375 z M 20.472906,9.375e-5 v -0.3046875 c -0.703125,0 -0.773437,-0.0703125 -0.773437,-0.5625 V -6.9139688 L 18.258063,-6.8085 v 0.3164062 c 0.703125,0 0.785156,0.070312 0.785156,0.5507813 v 2.15625 c -0.292969,-0.3632813 -0.726563,-0.6210938 -1.265625,-0.6210938 -1.171875,0 -2.214844,0.984375 -2.214844,2.2617188 0,1.265625 0.972656,2.25 2.109375,2.25 0.644531,0 1.089844,-0.33984375 1.335938,-0.65625 v 0.65625 z M 19.008063,-1.1717813 c 0,0.1757813 0,0.1992188 -0.105469,0.3632813 -0.304688,0.48046875 -0.75,0.703125 -1.183594,0.703125 -0.445312,0 -0.796875,-0.2578125 -1.042969,-0.64453125 -0.257812,-0.41015625 -0.292968,-0.97265625 -0.292968,-1.38281255 0,-0.3632812 0.02344,-0.9609375 0.316406,-1.4179687 0.210937,-0.3046875 0.585937,-0.6328125 1.125,-0.6328125 0.351562,0 0.761719,0.1523437 1.078125,0.5976562 0.105469,0.1640625 0.105469,0.1875 0.105469,0.3632813 z m 0,0"
       style="fill:#000000;fill-opacity:1;fill-rule:nonzero;stroke:none"
       aria-label="fxed"
       transform="matrix(1.3333333,0,0,1.3333333,79.374667,199.328)" />
  </g>
</svg>
