<?xml version="1.0" encoding="UTF-8" standalone="no"?>
<!-- Created with Inkscape (http://www.inkscape.org/) -->

<svg
   version="1.1"
   id="svg1"
   width="296.33466"
   height="245.67999"
   viewBox="0 0 296.33466 245.67999"
   sodipodi:docname="multiply-connected-region.pdf"
   xmlns:inkscape="http://www.inkscape.org/namespaces/inkscape"
   xmlns:sodipodi="http://sodipodi.sourceforge.net/DTD/sodipodi-0.dtd"
   xmlns="http://www.w3.org/2000/svg"
   xmlns:svg="http://www.w3.org/2000/svg">
  <defs
     id="defs1" />
  <sodipodi:namedview
     id="namedview1"
     pagecolor="#ffffff"
     bordercolor="#000000"
     borderopacity="0.25"
     inkscape:showpageshadow="2"
     inkscape:pageopacity="0.0"
     inkscape:pagecheckerboard="0"
     inkscape:deskcolor="#d1d1d1">
    <inkscape:page
       x="0"
       y="0"
       inkscape:label="1"
       id="page1"
       width="296.33466"
       height="245.67999"
       margin="0"
       bleed="0" />
  </sodipodi:namedview>
  <g
     id="g1"
     inkscape:groupmode="layer"
     inkscape:label="1">
    <path
       id="path1"
       d="m 117.76036,-41.84377 c 28.54942,28.7945 105.06377,53.90075 112.83475,-11.85374 7.77099,-65.75453 29.29065,-36.46388 44.23486,-69.9389 14.94422,-33.47504 -147.05102,-47.82148 -175.14613,-27.49735 -28.09511,20.32411 -10.4729,80.4955 18.07652,109.28999 z"
       style="fill:#f5a623;fill-opacity:0.19;fill-rule:nonzero;stroke:#f5a623;stroke-width:0.74721;stroke-linecap:butt;stroke-linejoin:miter;stroke-miterlimit:10;stroke-dasharray:0.83687, 2.50064;stroke-dashoffset:0;stroke-opacity:1"
       transform="matrix(1.3333333,0,0,-1.3333333,-90.524,16.574667)" />
    <path
       id="path2"
       d="m 138.68227,-105.20723 c 0,6.60535 9.367,11.95537 20.92189,11.95537 11.55485,0 20.92189,-5.35002 20.92189,-11.95537 0,-6.60532 -9.36704,-11.95537 -20.92189,-11.95537 -11.55489,0 -20.92189,5.35005 -20.92189,11.95537 z"
       style="fill:#ff8796;fill-opacity:1;fill-rule:nonzero;stroke:#f08181;stroke-width:0.74721;stroke-linecap:butt;stroke-linejoin:miter;stroke-miterlimit:10;stroke-dasharray:none;stroke-opacity:1"
       transform="matrix(1.3333333,0,0,-1.3333333,-90.524,16.574667)" />
    <path
       id="path3"
       d="m 114.92694,-132.90182 c 33.47502,10.16206 -5.08104,30.56388 8.96652,46.02816 14.04755,15.46426 34.96944,-3.21002 54.6958,33.25386"
       style="fill:none;stroke:#8b572a;stroke-width:1.49442;stroke-linecap:butt;stroke-linejoin:miter;stroke-miterlimit:10;stroke-dasharray:none;stroke-opacity:1"
       transform="matrix(1.3333333,0,0,-1.3333333,-90.524,16.574667)" />
    <path
       id="path4"
       d="m 132.25539,-114.7684 -6.84959,5.65776 -0.13332,-8.88568 2.36552,4.05679 z"
       style="fill:#8b572a;fill-opacity:1;fill-rule:nonzero;stroke:#000000;stroke-width:0.0797;stroke-linecap:butt;stroke-linejoin:miter;stroke-miterlimit:10;stroke-dasharray:none;stroke-opacity:0"
       transform="matrix(1.3333333,0,0,-1.3333333,-90.524,16.574667)" />
    <path
       id="path5"
       d="m 153.13876,-81.62444 5.8198,6.71212 -8.8797,0.34579 3.99894,-2.46179 z"
       style="fill:#8b572a;fill-opacity:1;fill-rule:nonzero;stroke:#000000;stroke-width:0.0797;stroke-linecap:butt;stroke-linejoin:miter;stroke-miterlimit:10;stroke-dasharray:none;stroke-opacity:0"
       transform="matrix(1.3333333,0,0,-1.3333333,-90.524,16.574667)" />
    <path
       id="path6"
       d="m 114.92694,-132.90182 c 5.67879,24.8851 -17.75372,38.54409 -3.70618,54.00239 14.05354,15.46428 36.58344,4.6566 67.3685,25.27963"
       style="fill:none;stroke:#8b572a;stroke-width:1.49442;stroke-linecap:butt;stroke-linejoin:miter;stroke-miterlimit:10;stroke-dasharray:none;stroke-opacity:0.3"
       transform="matrix(1.3333333,0,0,-1.3333333,-90.524,16.574667)" />
    <path
       id="path7"
       d="m 116.09053,-107.35347 -6.55547,5.99588 -0.58122,-8.86752 2.56705,3.93229 z"
       style="fill:#8b572a;fill-opacity:0.3;fill-rule:nonzero;stroke:#000000;stroke-width:0.0797;stroke-linecap:butt;stroke-linejoin:miter;stroke-miterlimit:10;stroke-dasharray:none;stroke-opacity:0"
       transform="matrix(1.3333333,0,0,-1.3333333,-90.524,16.574667)" />
    <path
       id="path8"
       d="m 142.25949,-71.60927 7.04511,5.41242 -8.63132,2.11518 3.42576,-3.21209 z"
       style="fill:#8b572a;fill-opacity:0.3;fill-rule:nonzero;stroke:#000000;stroke-width:0.0797;stroke-linecap:butt;stroke-linejoin:miter;stroke-miterlimit:10;stroke-dasharray:none;stroke-opacity:0"
       transform="matrix(1.3333333,0,0,-1.3333333,-90.524,16.574667)" />
    <path
       id="path9"
       d="m 114.92694,-132.90182 c 33.47502,10.16206 58.87421,1.05804 72.92774,16.51634 14.04754,15.46426 -28.99178,26.3018 -9.26542,62.76568"
       style="fill:none;stroke:#417505;stroke-width:1.49442;stroke-linecap:butt;stroke-linejoin:miter;stroke-miterlimit:10;stroke-dasharray:none;stroke-opacity:1"
       transform="matrix(1.3333333,0,0,-1.3333333,-90.524,16.574667)" />
    <path
       id="path10"
       d="m 149.07683,-131.13109 7.73573,4.36833 -8.24814,3.30732 2.9402,-3.66166 z"
       style="fill:#417505;fill-opacity:1;fill-rule:nonzero;stroke:#000000;stroke-width:0.0797;stroke-linecap:butt;stroke-linejoin:miter;stroke-miterlimit:10;stroke-dasharray:none;stroke-opacity:0"
       transform="matrix(1.3333333,0,0,-1.3333333,-90.524,16.574667)" />
    <path
       id="path11"
       d="m 182.19008,-88.49117 -6.79888,5.71821 -0.2122,-8.8839 2.40138,4.03552 z"
       style="fill:#417505;fill-opacity:1;fill-rule:nonzero;stroke:#000000;stroke-width:0.0797;stroke-linecap:butt;stroke-linejoin:miter;stroke-miterlimit:10;stroke-dasharray:none;stroke-opacity:0"
       transform="matrix(1.3333333,0,0,-1.3333333,-90.524,16.574667)" />
    <path
       id="path12"
       d="m 114.92694,-132.90182 c 34.37167,-1.30314 62.16791,-17.74177 89.06748,16.9288 26.89958,34.67056 -25.70405,26.60069 -25.40516,62.35322"
       style="fill:none;stroke:#417505;stroke-width:1.49442;stroke-linecap:butt;stroke-linejoin:miter;stroke-miterlimit:10;stroke-dasharray:none;stroke-opacity:0.3"
       transform="matrix(1.3333333,0,0,-1.3333333,-90.524,16.574667)" />
    <path
       id="path13"
       d="m 159.2418,-141.98271 7.80456,4.24495 -8.19484,3.43817 2.88171,-3.70809 z"
       style="fill:#417505;fill-opacity:0.3;fill-rule:nonzero;stroke:#000000;stroke-width:0.0797;stroke-linecap:butt;stroke-linejoin:miter;stroke-miterlimit:10;stroke-dasharray:none;stroke-opacity:0"
       transform="matrix(1.3333333,0,0,-1.3333333,-90.524,16.574667)" />
    <path
       id="path14"
       d="m 204.87215,-82.9946 -8.7862,1.31555 4.46775,-7.68202 -0.0652,4.69568 4.38361,1.67079 z"
       style="fill:#417505;fill-opacity:0.3;fill-rule:nonzero;stroke:#000000;stroke-width:0.0797;stroke-linecap:butt;stroke-linejoin:miter;stroke-miterlimit:10;stroke-dasharray:none;stroke-opacity:0"
       transform="matrix(1.3333333,0,0,-1.3333333,-90.524,16.574667)" />
    <path
       id="path15"
       d="m 176.49707,-53.6198 c 0,1.15967 0.93254,2.09218 2.09219,2.09218 1.15371,0 2.09218,-0.93251 2.09218,-2.09218 0,-1.15371 -0.93847,-2.09219 -2.09218,-2.09219 -1.15965,0 -2.09219,0.93848 -2.09219,2.09219 z"
       style="fill:#000000;fill-opacity:1;fill-rule:nonzero;stroke:#000000;stroke-width:0.74721;stroke-linecap:butt;stroke-linejoin:miter;stroke-miterlimit:10;stroke-dasharray:none;stroke-opacity:1"
       transform="matrix(1.3333333,0,0,-1.3333333,-90.524,16.574667)" />
    <path
       id="path16"
       d="m 112.83475,-132.90182 c 0,1.15368 0.93849,2.09217 2.09219,2.09217 1.15369,0 2.09218,-0.93849 2.09218,-2.09217 0,-1.15371 -0.93849,-2.0922 -2.09218,-2.0922 -1.1537,0 -2.09219,0.93849 -2.09219,2.0922 z"
       style="fill:#000000;fill-opacity:1;fill-rule:nonzero;stroke:#000000;stroke-width:0.74721;stroke-linecap:butt;stroke-linejoin:miter;stroke-miterlimit:10;stroke-dasharray:none;stroke-opacity:1"
       transform="matrix(1.3333333,0,0,-1.3333333,-90.524,16.574667)" />
    <path
       id="path17"
       d="m 109.42746,-82.05565 13.15091,-6.10919"
       style="fill:none;stroke:#9b9b9b;stroke-width:0.74721;stroke-linecap:butt;stroke-linejoin:miter;stroke-miterlimit:10;stroke-dasharray:none;stroke-opacity:1"
       transform="matrix(1.3333333,0,0,-1.3333333,-90.524,16.574667)" />
    <path
       id="path18"
       d="m 122.87724,-72.19247 8.66766,-8.20137"
       style="fill:none;stroke:#9b9b9b;stroke-width:0.74721;stroke-linecap:butt;stroke-linejoin:miter;stroke-miterlimit:10;stroke-dasharray:none;stroke-opacity:1"
       transform="matrix(1.3333333,0,0,-1.3333333,-90.524,16.574667)" />
    <path
       id="path19"
       d="m 150.6735,-65.61702 8.66763,-8.20137"
       style="fill:none;stroke:#9b9b9b;stroke-width:0.74721;stroke-linecap:butt;stroke-linejoin:miter;stroke-miterlimit:10;stroke-dasharray:none;stroke-opacity:1"
       transform="matrix(1.3333333,0,0,-1.3333333,-90.524,16.574667)" />
    <path
       id="path20"
       d="m 114.20961,-114.63402 9.86319,7.34059"
       style="fill:none;stroke:#9b9b9b;stroke-width:0.74721;stroke-linecap:butt;stroke-linejoin:miter;stroke-miterlimit:10;stroke-dasharray:none;stroke-opacity:1"
       transform="matrix(1.3333333,0,0,-1.3333333,-90.524,16.574667)" />
    <path
       id="path21"
       d="m 174.28534,-77.57239 13.44978,2.25959"
       style="fill:none;stroke:#9b9b9b;stroke-width:0.74721;stroke-linecap:butt;stroke-linejoin:miter;stroke-miterlimit:10;stroke-dasharray:none;stroke-opacity:1"
       transform="matrix(1.3333333,0,0,-1.3333333,-90.524,16.574667)" />
    <path
       id="path22"
       d="m 184.74628,-97.8965 25.10627,5.2484"
       style="fill:none;stroke:#9b9b9b;stroke-width:0.74721;stroke-linecap:butt;stroke-linejoin:miter;stroke-miterlimit:10;stroke-dasharray:none;stroke-opacity:1"
       transform="matrix(1.3333333,0,0,-1.3333333,-90.524,16.574667)" />
    <path
       id="path23"
       d="m 190.12619,-113.1396 11.35761,-6.1092"
       style="fill:none;stroke:#9b9b9b;stroke-width:0.74721;stroke-linecap:butt;stroke-linejoin:miter;stroke-miterlimit:10;stroke-dasharray:none;stroke-opacity:1"
       transform="matrix(1.3333333,0,0,-1.3333333,-90.524,16.574667)" />
    <path
       id="path24"
       d="m 168.90543,-125.69275 4.78213,-10.59245"
       style="fill:none;stroke:#9b9b9b;stroke-width:0.74721;stroke-linecap:butt;stroke-linejoin:miter;stroke-miterlimit:10;stroke-dasharray:none;stroke-opacity:1"
       transform="matrix(1.3333333,0,0,-1.3333333,-90.524,16.574667)" />
    <path
       id="path25"
       d="m 142.6036,-128.08382 3.28774,-8.50026"
       style="fill:none;stroke:#9b9b9b;stroke-width:0.74721;stroke-linecap:butt;stroke-linejoin:miter;stroke-miterlimit:10;stroke-dasharray:none;stroke-opacity:1"
       transform="matrix(1.3333333,0,0,-1.3333333,-90.524,16.574667)" />
    <g
       id="g25"
       aria-label="z&#10;1"
       transform="matrix(1.3333333,0,0,1.3333333,65.797333,203.69733)">
      <path
         id="path26"
         d="M 1.323875,-0.83061719 C 1.8629375,-1.4048359 2.1559062,-1.6509297 2.5074687,-1.9556172 c 0,-0.011719 0.6210938,-0.5390625 0.984375,-0.9023437 0.9375,-0.9257813 1.1601563,-1.40625 1.1601563,-1.4414063 0,-0.1054687 -0.09375,-0.1054687 -0.1054688,-0.1054687 -0.070312,0 -0.1054687,0.023437 -0.1523437,0.1171875 -0.3046875,0.46875 -0.5039063,0.6328125 -0.75,0.6328125 -0.234375,0 -0.3515625,-0.1523438 -0.5039063,-0.3164063 -0.1875,-0.234375 -0.3632812,-0.4335937 -0.6914062,-0.4335937 -0.75,0 -1.2070313,0.9257812 -1.2070313,1.1367187 0,0.046875 0.035156,0.1171875 0.1171875,0.1171875 0.09375,0 0.1171875,-0.058594 0.140625,-0.1171875 0.1875,-0.4570312 0.7617188,-0.46875 0.84375,-0.46875 0.2109375,0 0.3984375,0.070312 0.6210938,0.1523438 0.3984375,0.1523437 0.515625,0.1523437 0.7734375,0.1523437 -0.3632813,0.421875 -1.1953125,1.1367188 -1.3828125,1.3007813 L 1.4527812,-1.2993672 C 0.77309375,-0.63139844 0.43325,-0.05717969 0.43325,0.01313281 c 0,0.09375 0.09375,0.09375 0.1171875,0.09375 0.0820313,0 0.09375,-0.01171875 0.15234375,-0.12890625 0.234375,-0.33984375 0.52734375,-0.609375 0.85546875,-0.609375 0.2226562,0 0.328125,0.0820313 0.5742187,0.375 0.1640625,0.2109375 0.3515625,0.36328125 0.6328125,0.36328125 0.984375,0 1.5703125,-1.26562501 1.5703125,-1.53515621 0,-0.046875 -0.046875,-0.09375 -0.1171875,-0.09375 -0.09375,0 -0.1171875,0.058594 -0.140625,0.1289062 -0.234375,0.64453126 -0.8671875,0.83203126 -1.1953125,0.83203126 -0.1992187,0 -0.3867187,-0.0585938 -0.5859375,-0.12890625 -0.3398437,-0.12890625 -0.4921875,-0.1640625 -0.703125,-0.1640625 -0.023437,0 -0.1757812,0 -0.2695312,0.0234375 z m 0,0"
         style="fill:#000000;fill-opacity:1;fill-rule:nonzero;stroke:none" />
      <path
         id="path27"
         d="m 6.9664531,-2.9341328 c 0,-0.1875 -0.011719,-0.1992188 -0.2109375,-0.1992188 -0.4453125,0.4335938 -1.078125,0.4453125 -1.359375,0.4453125 v 0.2460938 c 0.1640625,0 0.6210938,0 1.0078125,-0.1875 v 3.55078124 c 0,0.23437496 0,0.32812496 -0.6914062,0.32812496 H 5.4430156 v 0.2460938 c 0.1289063,-0.011719 0.984375,-0.023437 1.2421875,-0.023437 0.2109375,0 1.0898438,0.011719 1.2421875,0.023437 V 1.2494609 H 7.6695781 c -0.703125,0 -0.703125,-0.09375 -0.703125,-0.32812496 z m 0,0"
         style="fill:#000000;fill-opacity:1;fill-rule:nonzero;stroke:none" />
    </g>
    <g
       id="g27"
       aria-label="z&#10;2"
       transform="matrix(1.3333333,0,0,1.3333333,150.68,81.869333)">
      <path
         id="path28"
         d="M 1.3239844,-0.83071094 C 1.8630469,-1.4049297 2.1560156,-1.6510234 2.5075781,-1.9557109 c 0,-0.011719 0.6210938,-0.5390625 0.984375,-0.9023438 0.9375,-0.9257812 1.1601563,-1.40625 1.1601563,-1.4414062 0,-0.1054688 -0.09375,-0.1054688 -0.1054688,-0.1054688 -0.070312,0 -0.1054687,0.023437 -0.1523437,0.1171875 -0.3046875,0.46875 -0.5039063,0.6328125 -0.75,0.6328125 -0.234375,0 -0.3515625,-0.1523437 -0.5039063,-0.3164062 -0.1875,-0.234375 -0.3632812,-0.4335938 -0.6914062,-0.4335938 -0.75,0 -1.2070313,0.9257813 -1.2070313,1.1367188 0,0.046875 0.035156,0.1171875 0.1171875,0.1171875 0.09375,0 0.1171875,-0.058594 0.140625,-0.1171875 0.1875,-0.4570313 0.7617188,-0.46875 0.84375,-0.46875 0.2109375,0 0.3984375,0.070312 0.6210938,0.1523437 0.3984375,0.1523438 0.515625,0.1523438 0.7734375,0.1523438 -0.3632813,0.421875 -1.1953125,1.1367187 -1.3828125,1.3007812 l -0.9023438,0.8320313 c -0.67968747,0.66796871 -1.01953122,1.24218746 -1.01953122,1.31249996 0,0.09375 0.09375,0.09375 0.1171875,0.09375 0.0820313,0 0.09375,-0.01171875 0.15234375,-0.12890625 0.234375,-0.33984375 0.52734377,-0.609375 0.85546877,-0.609375 0.2226562,0 0.328125,0.0820313 0.5742187,0.375 0.1640625,0.2109375 0.3515625,0.36328125 0.6328125,0.36328125 0.984375,0 1.5703125,-1.26562496 1.5703125,-1.53515626 0,-0.046875 -0.046875,-0.09375 -0.1171875,-0.09375 -0.09375,0 -0.1171875,0.058594 -0.140625,0.1289063 -0.234375,0.64453121 -0.8671875,0.83203121 -1.1953125,0.83203121 -0.1992187,0 -0.3867187,-0.0585938 -0.5859375,-0.12890625 -0.3398437,-0.12890625 -0.4921875,-0.1640625 -0.703125,-0.1640625 -0.023437,0 -0.1757812,0 -0.2695312,0.0234375 z m 0,0"
         style="fill:#000000;fill-opacity:1;fill-rule:nonzero;stroke:none" />
      <path
         id="path29"
         d="m 8.1472266,0.22983594 h -0.234375 c -0.023437,0.15234375 -0.082031,0.5625 -0.1757813,0.6328125 -0.058594,0.0351563 -0.5976562,0.0351563 -0.6914062,0.0351563 H 5.7566016 c 0.7382812,-0.64453125 0.984375,-0.84375 1.3945312,-1.171875 0.515625,-0.41015625 0.9960938,-0.84374994 0.9960938,-1.49999994 0,-0.8437501 -0.7382813,-1.3593751 -1.6289063,-1.3593751 -0.8671875,0 -1.453125,0.609375 -1.453125,1.2421875 0,0.3632812 0.3046875,0.3984375 0.375,0.3984375 0.1640625,0 0.375,-0.1171875 0.375,-0.375 0,-0.1289063 -0.058594,-0.3632813 -0.421875,-0.3632813 0.2226563,-0.5039062 0.6914063,-0.65625 1.0195313,-0.65625 0.703125,0 1.0664062,0.5507813 1.0664062,1.1132813 0,0.609375 -0.4335937,1.08984379 -0.65625,1.33593754 l -1.6875,1.66406246 c -0.070312,0.058594 -0.070312,0.070312 -0.070312,0.2695312 h 2.8828125 z m 0,0"
         style="fill:#000000;fill-opacity:1;fill-rule:nonzero;stroke:none" />
    </g>
  </g>
</svg>
