<?xml version="1.0" encoding="UTF-8" standalone="no"?>
<!-- Created with Inkscape (http://www.inkscape.org/) -->

<svg
   version="1.1"
   id="svg1"
   width="381.77332"
   height="189.12"
   viewBox="0 0 381.77332 189.12"
   sodipodi:docname="non-examples-of-images-of-f.pdf"
   xmlns:inkscape="http://www.inkscape.org/namespaces/inkscape"
   xmlns:sodipodi="http://sodipodi.sourceforge.net/DTD/sodipodi-0.dtd"
   xmlns="http://www.w3.org/2000/svg"
   xmlns:svg="http://www.w3.org/2000/svg">
  <defs
     id="defs1" />
  <sodipodi:namedview
     id="namedview1"
     pagecolor="#ffffff"
     bordercolor="#000000"
     borderopacity="0.25"
     inkscape:showpageshadow="2"
     inkscape:pageopacity="0.0"
     inkscape:pagecheckerboard="0"
     inkscape:deskcolor="#d1d1d1">
    <inkscape:page
       x="0"
       y="0"
       inkscape:label="1"
       id="page1"
       width="381.77332"
       height="189.12"
       margin="0"
       bleed="0" />
  </sodipodi:namedview>
  <g
     id="g1"
     inkscape:groupmode="layer"
     inkscape:label="1">
    <path
       id="path1"
       d="m 58.2822,-104.48204 h 138.80127 m -68.74311,70.8577 v -141.09522 m 63.51265,73.97356 5.23046,-3.73604 -5.23046,-3.73604 m -67.24869,69.36328 3.73604,5.23046 3.73604,-5.23046"
       style="fill:none;stroke:#9b9b9b;stroke-width:0.74721;stroke-linecap:butt;stroke-linejoin:miter;stroke-miterlimit:10;stroke-dasharray:none;stroke-opacity:1"
       transform="matrix(1.3333333,0,0,-1.3333333,-72.786667,-44.334667)" />
    <path
       id="path2"
       d="m 59.403,-88.1705 h 133.57083 v -33.49732 H 59.403 Z"
       style="fill:#8b572a;fill-opacity:0.3;fill-rule:nonzero;stroke:#000000;stroke-width:0.74721;stroke-linecap:butt;stroke-linejoin:miter;stroke-miterlimit:10;stroke-dasharray:none;stroke-opacity:0"
       transform="matrix(1.3333333,0,0,-1.3333333,-72.786667,-44.334667)" />
    <path
       id="path3"
       d="M 59.403,-121.66782 H 192.97383"
       style="fill:none;stroke:#8b572a;stroke-width:0.74721;stroke-linecap:butt;stroke-linejoin:miter;stroke-miterlimit:10;stroke-dasharray:none;stroke-opacity:1"
       transform="matrix(1.3333333,0,0,-1.3333333,-72.786667,-44.334667)" />
    <path
       id="path4"
       d="M 59.403,-88.1705 H 192.97383"
       style="fill:none;stroke:#8b572a;stroke-width:0.74721;stroke-linecap:butt;stroke-linejoin:miter;stroke-miterlimit:10;stroke-dasharray:none;stroke-opacity:1"
       transform="matrix(1.3333333,0,0,-1.3333333,-72.786667,-44.334667)" />
    <path
       id="path5"
       d="m 201.74606,-104.48204 h 138.80127 m -68.7431,70.8577 v -141.09522 m 63.51265,73.97356 5.23045,-3.73604 -5.23045,-3.73604 m -67.24869,69.36328 3.73604,5.23046 3.73604,-5.23046"
       style="fill:none;stroke:#9b9b9b;stroke-width:0.74721;stroke-linecap:butt;stroke-linejoin:miter;stroke-miterlimit:10;stroke-dasharray:none;stroke-opacity:1"
       transform="matrix(1.3333333,0,0,-1.3333333,-72.786667,-44.334667)" />
    <path
       id="path6"
       d="m 254.21497,-171.55887 1.12081,133.56337 33.48984,-0.27646 -1.11334,-133.57083 z"
       style="fill:#8b572a;fill-opacity:0.3;fill-rule:nonzero;stroke:#000000;stroke-width:0.74721;stroke-linecap:butt;stroke-linejoin:miter;stroke-miterlimit:10;stroke-dasharray:none;stroke-opacity:0"
       transform="matrix(1.3333333,0,0,-1.3333333,-72.786667,-44.334667)" />
    <path
       id="path7"
       d="m 287.71228,-171.84279 1.11334,133.57083"
       style="fill:none;stroke:#8b572a;stroke-width:0.74721;stroke-linecap:butt;stroke-linejoin:miter;stroke-miterlimit:10;stroke-dasharray:none;stroke-opacity:1"
       transform="matrix(1.3333333,0,0,-1.3333333,-72.786667,-44.334667)" />
    <path
       id="path8"
       d="m 254.21497,-171.55887 1.12081,133.56337"
       style="fill:none;stroke:#8b572a;stroke-width:0.74721;stroke-linecap:butt;stroke-linejoin:miter;stroke-miterlimit:10;stroke-dasharray:none;stroke-opacity:1"
       transform="matrix(1.3333333,0,0,-1.3333333,-72.786667,-44.334667)" />
  </g>
</svg>
