<?xml version="1.0" encoding="UTF-8" standalone="no"?>
<!-- Created with Inkscape (http://www.inkscape.org/) -->

<svg
   version="1.1"
   id="svg1"
   width="245.74667"
   height="181.57333"
   viewBox="0 0 245.74667 181.57333"
   sodipodi:docname="path-independence.pdf"
   xmlns:inkscape="http://www.inkscape.org/namespaces/inkscape"
   xmlns:sodipodi="http://sodipodi.sourceforge.net/DTD/sodipodi-0.dtd"
   xmlns="http://www.w3.org/2000/svg"
   xmlns:svg="http://www.w3.org/2000/svg">
  <defs
     id="defs1" />
  <sodipodi:namedview
     id="namedview1"
     pagecolor="#ffffff"
     bordercolor="#000000"
     borderopacity="0.25"
     inkscape:showpageshadow="2"
     inkscape:pageopacity="0.0"
     inkscape:pagecheckerboard="0"
     inkscape:deskcolor="#d1d1d1">
    <inkscape:page
       x="0"
       y="0"
       inkscape:label="1"
       id="page1"
       width="245.74667"
       height="181.57333"
       margin="0"
       bleed="0" />
  </sodipodi:namedview>
  <g
     id="g1"
     inkscape:groupmode="layer"
     inkscape:label="1">
    <path
       id="path1"
       d="m 74.31055,-54.3285 c 20.23309,19.75785 75.46724,35.86633 81.29551,-13.44988 5.82828,-49.31621 33.92955,-5.22304 45.13778,-30.32947 11.20823,-25.10643 -110.28898,-35.86633 -131.36044,-20.62314 -21.07148,15.24319 -15.31045,44.64014 4.92715,64.40249 z"
       style="fill:#f5a623;fill-opacity:0.19;fill-rule:nonzero;stroke:#f5a623;stroke-width:0.74721;stroke-linecap:butt;stroke-linejoin:miter;stroke-miterlimit:10;stroke-dasharray:0.83687, 2.50064;stroke-dashoffset:0;stroke-opacity:1"
       transform="matrix(1.3333333,0,0,-1.3333333,-50.633333,-10.838667)" />
    <path
       id="path2"
       d="m 84.0303,-103.7882 c 32.77288,10.64783 22.56441,46.4783 57.08577,48.27161"
       style="fill:none;stroke:#417505;stroke-width:1.49442;stroke-linecap:butt;stroke-linejoin:miter;stroke-miterlimit:10;stroke-dasharray:none;stroke-opacity:1"
       transform="matrix(1.3333333,0,0,-1.3333333,-50.633333,-10.838667)" />
    <path
       id="path3"
       d="m 112.54945,-81.1031 0.42949,6.64909 -5.45947,-3.82297 3.5051,0.34459 z"
       style="fill:#417505;fill-opacity:1;fill-rule:nonzero;stroke:#000000;stroke-width:0.0797;stroke-linecap:butt;stroke-linejoin:miter;stroke-miterlimit:10;stroke-dasharray:none;stroke-opacity:0"
       transform="matrix(1.3333333,0,0,-1.3333333,-50.633333,-10.838667)" />
    <path
       id="path4"
       d="m 82.46117,-103.7882 c 0,0.86977 0.69938,1.56916 1.56913,1.56916 0.8653,0 1.56916,-0.69939 1.56916,-1.56916 0,-0.86526 -0.70386,-1.56913 -1.56916,-1.56913 -0.86975,0 -1.56913,0.70387 -1.56913,1.56913 z"
       style="fill:#000000;fill-opacity:1;fill-rule:nonzero;stroke:#000000;stroke-width:0.74721;stroke-linecap:butt;stroke-linejoin:miter;stroke-miterlimit:10;stroke-dasharray:none;stroke-opacity:1"
       transform="matrix(1.3333333,0,0,-1.3333333,-50.633333,-10.838667)" />
    <path
       id="path5"
       d="m 139.5469,-55.51659 c 0,0.86529 0.70388,1.56916 1.56917,1.56916 0.86528,0 1.56914,-0.70387 1.56914,-1.56916 0,-0.86526 -0.70386,-1.56915 -1.56914,-1.56915 -0.86529,0 -1.56917,0.70389 -1.56917,1.56915 z"
       style="fill:#000000;fill-opacity:1;fill-rule:nonzero;stroke:#000000;stroke-width:0.74721;stroke-linecap:butt;stroke-linejoin:miter;stroke-miterlimit:10;stroke-dasharray:none;stroke-opacity:1"
       transform="matrix(1.3333333,0,0,-1.3333333,-50.633333,-10.838667)" />
    <path
       id="path6"
       d="m 7.5715703,-6.9248438 c 0,-0.023437 -0.023437,-0.09375 -0.1054687,-0.09375 -0.035156,0 -0.046875,0.011719 -0.1523438,0.1171875 l -0.703125,0.7617188 c -0.082031,-0.140625 -0.5390625,-0.8789063 -1.6523437,-0.8789063 -2.2148438,0 -4.45312504,2.203125 -4.45312504,4.5117188 0,1.640625 1.17187504,2.73046875 2.69531254,2.73046875 0.8671875,0 1.6171875,-0.3984375 2.1445312,-0.85546875 0.9375,-0.8203125 1.1015625,-1.7226563 1.1015625,-1.7578125 0,-0.1054688 -0.1054687,-0.1054688 -0.1171875,-0.1054688 -0.058594,0 -0.1171875,0.023437 -0.1289062,0.1054688 -0.09375,0.2929687 -0.3164063,0.9960937 -1.0078125,1.5703125 -0.6914063,0.5625 -1.3125,0.7265625 -1.8398438,0.7265625 -0.890625,0 -1.9453125,-0.515625 -1.9453125,-2.0625 0,-0.5742188 0.2109375,-2.1914063 1.2070313,-3.3515625 0.609375,-0.703125 1.5351562,-1.2070313 2.4257812,-1.2070313 1.0195313,0 1.6054688,0.7734375 1.6054688,1.921875 0,0.3984375 -0.035156,0.4101563 -0.035156,0.5039063 0,0.1054687 0.1171875,0.1054687 0.1523438,0.1054687 0.1289062,0 0.1289062,-0.023437 0.1757812,-0.1992187 z m 0,0"
       style="fill:#417505;fill-opacity:1;fill-rule:nonzero;stroke:none"
       aria-label="C"
       transform="matrix(1.3333333,0,0,1.3333333,113.15067,92.28)" />
    <g
       id="g6"
       aria-label="z&#10;1"
       transform="matrix(1.3333333,0,0,1.3333333,64.097333,136.792)">
      <path
         id="path7"
         d="M 1.3244609,-0.83130469 C 1.8635234,-1.4055234 2.1564922,-1.6516172 2.5080547,-1.9563047 c 0,-0.011719 0.6210937,-0.5390625 0.984375,-0.9023437 0.9375,-0.9257813 1.1601562,-1.40625 1.1601562,-1.4414063 0,-0.1054687 -0.09375,-0.1054687 -0.1054687,-0.1054687 -0.070312,0 -0.1054688,0.023437 -0.1523438,0.1171875 -0.3046875,0.46875 -0.5039062,0.6328125 -0.75,0.6328125 -0.234375,0 -0.3515625,-0.1523438 -0.5039062,-0.3164063 -0.1875,-0.234375 -0.3632813,-0.4335937 -0.6914063,-0.4335937 -0.75,0 -1.2070312,0.9257812 -1.2070312,1.1367187 0,0.046875 0.035156,0.1171875 0.1171875,0.1171875 0.09375,0 0.1171875,-0.058594 0.140625,-0.1171875 0.1875,-0.4570312 0.7617187,-0.46875 0.84375,-0.46875 0.2109375,0 0.3984375,0.070312 0.6210937,0.1523438 0.3984375,0.1523437 0.515625,0.1523437 0.7734375,0.1523437 -0.3632812,0.421875 -1.1953125,1.1367188 -1.3828125,1.3007813 l -0.9023437,0.8320312 c -0.67968751,0.66796876 -1.01953126,1.24218751 -1.01953126,1.31250001 0,0.09375 0.09375,0.09375 0.1171875,0.09375 0.0820313,0 0.09375,-0.01171875 0.15234375,-0.12890625 0.234375,-0.33984375 0.52734371,-0.609375 0.85546871,-0.609375 0.2226563,0 0.328125,0.0820313 0.5742188,0.375 0.1640625,0.2109375 0.3515625,0.36328125 0.6328125,0.36328125 0.984375,0 1.5703125,-1.26562501 1.5703125,-1.53515621 0,-0.046875 -0.046875,-0.09375 -0.1171875,-0.09375 -0.09375,0 -0.1171875,0.058594 -0.140625,0.1289062 -0.234375,0.64453126 -0.8671875,0.83203126 -1.1953125,0.83203126 -0.1992188,0 -0.3867188,-0.0585938 -0.5859375,-0.12890625 -0.3398438,-0.12890625 -0.4921875,-0.1640625 -0.703125,-0.1640625 -0.023437,0 -0.1757813,0 -0.2695313,0.0234375 z m 0,0"
         style="fill:#000000;fill-opacity:1;fill-rule:nonzero;stroke:none" />
      <path
         id="path8"
         d="m 6.9641094,-2.9348203 c 0,-0.1875 -0.011719,-0.1992188 -0.2109375,-0.1992188 -0.4453125,0.4335938 -1.078125,0.4453125 -1.359375,0.4453125 v 0.2460938 c 0.1640625,0 0.6210937,0 1.0078125,-0.1875 v 3.55078124 c 0,0.23437496 0,0.32812496 -0.6914063,0.32812496 H 5.4406719 v 0.2460938 c 0.1289062,-0.011719 0.984375,-0.023437 1.2421875,-0.023437 0.2109375,0 1.0898437,0.011719 1.2421875,0.023437 V 1.2487734 H 7.6672344 c -0.703125,0 -0.703125,-0.09375 -0.703125,-0.32812496 z m 0,0"
         style="fill:#000000;fill-opacity:1;fill-rule:nonzero;stroke:none" />
    </g>
    <g
       id="g8"
       aria-label="z&#10;2"
       transform="matrix(1.3333333,0,0,1.3333333,140.212,72.429333)">
      <path
         id="path9"
         d="M 1.3234219,-0.83176563 C 1.8624844,-1.4059844 2.1554531,-1.6520781 2.5070156,-1.9567656 c 0,-0.011719 0.6210938,-0.5390625 0.984375,-0.9023438 0.9375,-0.9257812 1.1601563,-1.40625 1.1601563,-1.4414062 0,-0.1054688 -0.09375,-0.1054688 -0.1054688,-0.1054688 -0.070312,0 -0.1054687,0.023437 -0.1523437,0.1171875 -0.3046875,0.46875 -0.5039063,0.6328125 -0.75,0.6328125 -0.234375,0 -0.3515625,-0.1523437 -0.5039063,-0.3164062 -0.1875,-0.234375 -0.3632812,-0.4335938 -0.6914062,-0.4335938 -0.75,0 -1.2070313,0.9257813 -1.2070313,1.1367188 0,0.046875 0.035156,0.1171875 0.1171875,0.1171875 0.09375,0 0.1171875,-0.058594 0.140625,-0.1171875 0.1875,-0.4570313 0.7617188,-0.46875 0.84375,-0.46875 0.2109375,0 0.3984375,0.070312 0.6210938,0.1523437 0.3984375,0.1523438 0.515625,0.1523438 0.7734375,0.1523438 -0.3632813,0.421875 -1.1953125,1.1367187 -1.3828125,1.3007812 l -0.9023438,0.8320313 c -0.67968747,0.66796872 -1.01953122,1.24218747 -1.01953122,1.31249997 0,0.09375 0.09375,0.09375 0.1171875,0.09375 0.0820313,0 0.09375,-0.01171875 0.15234375,-0.12890625 0.234375,-0.33984375 0.52734377,-0.609375 0.85546877,-0.609375 0.2226562,0 0.328125,0.0820313 0.5742187,0.375 0.1640625,0.2109375 0.3515625,0.36328125 0.6328125,0.36328125 0.984375,0 1.5703125,-1.26562497 1.5703125,-1.53515627 0,-0.046875 -0.046875,-0.09375 -0.1171875,-0.09375 -0.09375,0 -0.1171875,0.058594 -0.140625,0.1289063 -0.234375,0.64453122 -0.8671875,0.83203122 -1.1953125,0.83203122 -0.1992187,0 -0.3867187,-0.0585938 -0.5859375,-0.12890625 -0.3398437,-0.12890625 -0.4921875,-0.1640625 -0.703125,-0.1640625 -0.023437,0 -0.1757812,0 -0.2695312,0.0234375 z m 0,0"
         style="fill:#000000;fill-opacity:1;fill-rule:nonzero;stroke:none" />
      <path
         id="path10"
         d="M 8.1495938,0.22878125 H 7.9152188 C 7.8917813,0.381125 7.8331875,0.79128125 7.7394375,0.86159375 7.6808438,0.89675 7.1417813,0.89675 7.0480313,0.89675 H 5.7589688 C 6.49725,0.25221875 6.7433438,0.053 7.1535,-0.275125 c 0.515625,-0.41015625 0.9960938,-0.84375 0.9960938,-1.5 0,-0.84375 -0.7382813,-1.359375 -1.6289063,-1.359375 -0.8671875,0 -1.453125,0.609375 -1.453125,1.2421875 0,0.3632812 0.3046875,0.3984375 0.375,0.3984375 0.1640625,0 0.375,-0.1171875 0.375,-0.375 0,-0.1289063 -0.058594,-0.3632813 -0.421875,-0.3632813 0.2226563,-0.5039062 0.6914063,-0.65625 1.0195313,-0.65625 0.703125,0 1.0664062,0.5507813 1.0664062,1.1132813 0,0.609375 -0.4335937,1.08984375 -0.65625,1.3359375 L 5.137875,1.224875 C 5.067563,1.283469 5.067563,1.295187 5.067563,1.4944062 h 2.882812 z m 0,0"
         style="fill:#000000;fill-opacity:1;fill-rule:nonzero;stroke:none" />
    </g>
  </g>
</svg>
