<?xml version="1.0" encoding="UTF-8" standalone="no"?>
<!-- Created with Inkscape (http://www.inkscape.org/) -->

<svg
   version="1.1"
   id="svg1"
   width="226.78667"
   height="74.453331"
   viewBox="0 0 226.78667 74.453331"
   sodipodi:docname="polygon-proof.pdf"
   xmlns:inkscape="http://www.inkscape.org/namespaces/inkscape"
   xmlns:sodipodi="http://sodipodi.sourceforge.net/DTD/sodipodi-0.dtd"
   xmlns="http://www.w3.org/2000/svg"
   xmlns:svg="http://www.w3.org/2000/svg">
  <defs
     id="defs1" />
  <sodipodi:namedview
     id="namedview1"
     pagecolor="#ffffff"
     bordercolor="#000000"
     borderopacity="0.25"
     inkscape:showpageshadow="2"
     inkscape:pageopacity="0.0"
     inkscape:pagecheckerboard="0"
     inkscape:deskcolor="#d1d1d1">
    <inkscape:page
       x="0"
       y="0"
       inkscape:label="1"
       id="page1"
       width="226.78667"
       height="74.453331"
       margin="0"
       bleed="0" />
  </sodipodi:namedview>
  <g
     id="g1"
     inkscape:groupmode="layer"
     inkscape:label="1">
    <path
       id="path1"
       d="m 80.55525,-87.17255 c 42.44155,25.70405 88.46971,22.7152 114.77153,22.7152"
       style="fill:none;stroke:#8b572a;stroke-width:1.49442;stroke-linecap:butt;stroke-linejoin:miter;stroke-miterlimit:10;stroke-dasharray:none;stroke-opacity:1"
       transform="matrix(1.3333333,0,0,-1.3333333,-77.324,-58.745333)" />
    <path
       id="path2"
       d="m 78.16417,-87.17255 c 0,1.32108 1.07001,2.39107 2.39108,2.39107 1.32106,0 2.39107,-1.06999 2.39107,-2.39107 0,-1.32105 -1.07001,-2.39106 -2.39107,-2.39106 -1.32107,0 -2.39108,1.07001 -2.39108,2.39106 z"
       style="fill:#8b572a;fill-opacity:1;fill-rule:nonzero;stroke:#8b572a;stroke-width:0.74721;stroke-linecap:butt;stroke-linejoin:miter;stroke-miterlimit:10;stroke-dasharray:none;stroke-opacity:1"
       transform="matrix(1.3333333,0,0,-1.3333333,-77.324,-58.745333)" />
    <path
       id="path3"
       d="m 192.9357,-64.45735 c 0,1.32106 1.07,2.39107 2.39108,2.39107 1.32106,0 2.39107,-1.07001 2.39107,-2.39107 0,-1.32106 -1.07001,-2.39108 -2.39107,-2.39108 -1.32108,0 -2.39108,1.07002 -2.39108,2.39108 z"
       style="fill:#8b572a;fill-opacity:1;fill-rule:nonzero;stroke:#8b572a;stroke-width:0.74721;stroke-linecap:butt;stroke-linejoin:miter;stroke-miterlimit:10;stroke-dasharray:none;stroke-opacity:1"
       transform="matrix(1.3333333,0,0,-1.3333333,-77.324,-58.745333)" />
    <path
       id="path4"
       d="m 80.55525,-87.17255 114.77153,22.7152"
       style="fill:none;stroke:#bd10e0;stroke-width:1.49442;stroke-linecap:butt;stroke-linejoin:miter;stroke-miterlimit:10;stroke-dasharray:none;stroke-opacity:1"
       transform="matrix(1.3333333,0,0,-1.3333333,-77.324,-58.745333)" />
    <g
       id="g4"
       aria-label="z&#10;k"
       transform="matrix(1.3333333,0,0,1.3333333,14.281333,51.288)">
      <path
         id="path5"
         d="M 1.3241562,-0.83123437 C 1.8632187,-1.4054531 2.1561875,-1.6515469 2.50775,-1.9562344 c 0,-0.011719 0.6210937,-0.5390625 0.984375,-0.9023437 0.9375,-0.9257813 1.1601562,-1.40625 1.1601562,-1.4414063 0,-0.1054687 -0.09375,-0.1054687 -0.1054687,-0.1054687 -0.070312,0 -0.1054688,0.023437 -0.1523438,0.1171875 -0.3046875,0.46875 -0.5039062,0.6328125 -0.75,0.6328125 -0.234375,0 -0.3515625,-0.1523438 -0.5039062,-0.3164063 -0.1875,-0.234375 -0.3632813,-0.4335937 -0.6914063,-0.4335937 -0.75,0 -1.2070312,0.9257812 -1.2070312,1.1367187 0,0.046875 0.035156,0.1171875 0.1171875,0.1171875 0.09375,0 0.1171875,-0.058594 0.140625,-0.1171875 0.1875,-0.4570312 0.7617187,-0.46875 0.84375,-0.46875 0.2109375,0 0.3984375,0.070312 0.6210937,0.1523438 0.3984375,0.1523437 0.515625,0.1523437 0.7734375,0.1523437 -0.3632812,0.421875 -1.1953125,1.1367188 -1.3828125,1.3007813 l -0.9023437,0.8320312 c -0.6796875,0.66796878 -1.01953125,1.24218753 -1.01953125,1.31250003 0,0.09375 0.09375,0.09375 0.1171875,0.09375 0.0820313,0 0.09375,-0.01171875 0.15234375,-0.12890625 0.234375,-0.33984375 0.5273437,-0.609375 0.8554687,-0.609375 0.2226563,0 0.328125,0.0820313 0.5742188,0.375 0.1640625,0.2109375 0.3515625,0.36328125 0.6328125,0.36328125 0.984375,0 1.5703125,-1.26562503 1.5703125,-1.53515623 0,-0.046875 -0.046875,-0.09375 -0.1171875,-0.09375 -0.09375,0 -0.1171875,0.058594 -0.140625,0.1289062 -0.234375,0.64453128 -0.8671875,0.83203128 -1.1953125,0.83203128 -0.1992188,0 -0.3867188,-0.0585938 -0.5859375,-0.12890625 -0.3398438,-0.12890625 -0.4921875,-0.1640625 -0.703125,-0.1640625 -0.023437,0 -0.1757813,0 -0.2695313,0.0234375 z m 0,0"
         style="fill:#8b572a;fill-opacity:1;fill-rule:nonzero;stroke:none" />
      <path
         id="path6"
         d="m 6.8114609,-3.1339687 c 0.011719,-0.011719 0.035156,-0.1054688 0.035156,-0.1171875 0,-0.035156 -0.035156,-0.09375 -0.1171875,-0.09375 -0.140625,0 -0.7148438,0.058594 -0.890625,0.070312 -0.058594,0.011719 -0.1523438,0.011719 -0.1523438,0.1640625 0,0.09375 0.09375,0.09375 0.1757813,0.09375 0.3398437,0 0.3398437,0.046875 0.3398437,0.1054687 0,0.046875 -0.011719,0.09375 -0.035156,0.1523438 L 5.1942734,1.19025 c -0.035156,0.1289063 -0.035156,0.140625 -0.035156,0.1523438 0,0.1054687 0.082031,0.2226562 0.234375,0.2226562 0.1875,0 0.28125,-0.140625 0.3164062,-0.2929687 0.011719,-0.023437 0.3164063,-1.2539063 0.3398438,-1.3476563 0.5039062,0.046875 0.9023437,0.19921875 0.9023437,0.5625 0,0.0351563 0,0.0703125 -0.023437,0.140625 -0.023437,0.10546875 -0.023437,0.140625 -0.023437,0.22265625 0,0.49218755 0.3984375,0.71484375 0.7382813,0.71484375 0.6796875,0 0.890625,-1.0546875 0.890625,-1.06640625 0,-0.09375 -0.09375,-0.09375 -0.1171875,-0.09375 -0.09375,0 -0.1054688,0.0351563 -0.140625,0.1640625 -0.082031,0.3046875 -0.2695313,0.79687505 -0.609375,0.79687505 -0.1875,0 -0.2460938,-0.1757813 -0.2460938,-0.3632813 0,-0.1171875 0,-0.12890625 0.046875,-0.3046875 0,-0.0234375 0.035156,-0.140625 0.035156,-0.22265625 0,-0.62109375 -0.84375,-0.71484375 -1.1367188,-0.73828125 C 6.5653672,-0.39178125 6.8231797,-0.6144375 6.9520859,-0.71990625 7.3036484,-1.05975 7.6552109,-1.387875 8.0419297,-1.387875 c 0.082031,0 0.1757812,0.023437 0.234375,0.09375 -0.3046875,0.046875 -0.3632813,0.28125 -0.3632813,0.38671875 0,0.15234375 0.1171875,0.2578125 0.2695313,0.2578125 0.1992187,0 0.3984375,-0.15234375 0.3984375,-0.44531245 0,-0.2226563 -0.1640625,-0.4804688 -0.5273438,-0.4804688 -0.3984375,0 -0.7617187,0.28125 -1.125,0.609375 -0.2929687,0.28125 -0.515625,0.4921875 -0.8085937,0.609375 z m 0,0"
         style="fill:#8b572a;fill-opacity:1;fill-rule:nonzero;stroke:none" />
    </g>
    <g
       id="g6"
       aria-label="z&#10;k−1"
       transform="matrix(1.3333333,0,0,1.3333333,186.2,37.121333)">
      <path
         id="path7"
         d="M 1.3236328,-0.83221094 C 1.8626953,-1.4064297 2.1556641,-1.6525234 2.5072266,-1.9572109 c 0,-0.011719 0.6210937,-0.5390625 0.984375,-0.9023438 0.9375,-0.9257812 1.1601562,-1.40625 1.1601562,-1.4414062 0,-0.1054688 -0.09375,-0.1054688 -0.1054687,-0.1054688 -0.070312,0 -0.1054688,0.023437 -0.1523438,0.1171875 -0.3046875,0.46875 -0.5039062,0.6328125 -0.75,0.6328125 -0.234375,0 -0.3515625,-0.1523437 -0.5039062,-0.3164062 -0.1875,-0.234375 -0.3632813,-0.4335938 -0.6914063,-0.4335938 -0.75,0 -1.2070312,0.9257813 -1.2070312,1.1367188 0,0.046875 0.035156,0.1171875 0.1171875,0.1171875 0.09375,0 0.1171875,-0.058594 0.140625,-0.1171875 0.1875,-0.4570313 0.7617187,-0.46875 0.84375,-0.46875 0.2109375,0 0.3984375,0.070312 0.6210937,0.1523437 0.3984375,0.1523438 0.515625,0.1523438 0.7734375,0.1523438 -0.3632812,0.421875 -1.1953125,1.1367187 -1.3828125,1.3007812 l -0.9023437,0.8320313 c -0.67968754,0.66796871 -1.01953129,1.24218746 -1.01953129,1.31249996 0,0.09375 0.09375,0.09375 0.1171875,0.09375 0.0820313,0 0.09375,-0.01171875 0.15234375,-0.12890625 0.234375,-0.33984375 0.52734374,-0.609375 0.85546874,-0.609375 0.2226563,0 0.328125,0.0820313 0.5742188,0.375 0.1640625,0.2109375 0.3515625,0.36328125 0.6328125,0.36328125 0.984375,0 1.5703125,-1.26562496 1.5703125,-1.53515626 0,-0.046875 -0.046875,-0.09375 -0.1171875,-0.09375 -0.09375,0 -0.1171875,0.058594 -0.140625,0.1289063 -0.234375,0.64453121 -0.8671875,0.83203121 -1.1953125,0.83203121 -0.1992188,0 -0.3867188,-0.0585938 -0.5859375,-0.12890625 -0.3398438,-0.12890625 -0.4921875,-0.1640625 -0.703125,-0.1640625 -0.023437,0 -0.1757813,0 -0.2695313,0.0234375 z m 0,0"
         style="fill:#8b572a;fill-opacity:1;fill-rule:nonzero;stroke:none" />
      <path
         id="path8"
         d="m 6.8138672,-3.1349453 c 0.011719,-0.011719 0.035156,-0.1054688 0.035156,-0.1171875 0,-0.035156 -0.035156,-0.09375 -0.1171875,-0.09375 -0.140625,0 -0.7148437,0.058594 -0.890625,0.070312 -0.058594,0.011719 -0.1523437,0.011719 -0.1523437,0.1640625 0,0.09375 0.09375,0.09375 0.1757812,0.09375 0.3398438,0 0.3398438,0.046875 0.3398438,0.1054687 0,0.046875 -0.011719,0.09375 -0.035156,0.1523438 L 5.1966797,1.1892734 c -0.035156,0.1289063 -0.035156,0.140625 -0.035156,0.1523438 0,0.1054687 0.082031,0.2226562 0.234375,0.2226562 0.1875,0 0.28125,-0.140625 0.3164063,-0.2929687 0.011719,-0.023437 0.3164062,-1.25390626 0.3398437,-1.34765626 0.5039063,0.046875 0.9023438,0.19921875 0.9023438,0.5625 0,0.0351563 0,0.0703125 -0.023437,0.140625 -0.023437,0.10546875 -0.023437,0.140625 -0.023437,0.22265625 0,0.49218751 0.3984375,0.71484371 0.7382812,0.71484371 0.6796875,0 0.890625,-1.05468746 0.890625,-1.06640621 0,-0.09375 -0.09375,-0.09375 -0.1171875,-0.09375 -0.09375,0 -0.1054687,0.0351563 -0.140625,0.1640625 -0.082031,0.3046875 -0.2695312,0.79687501 -0.609375,0.79687501 -0.1875,0 -0.2460937,-0.1757813 -0.2460937,-0.3632813 0,-0.11718746 0,-0.12890621 0.046875,-0.30468746 0,-0.0234375 0.035156,-0.140625 0.035156,-0.22265625 0,-0.62109375 -0.84375,-0.71484375 -1.1367187,-0.73828125 0.1992187,-0.12890625 0.4570312,-0.3515625 0.5859375,-0.45703125 0.3515625,-0.33984379 0.703125,-0.66796879 1.0898437,-0.66796879 0.082031,0 0.1757813,0.023437 0.234375,0.09375 -0.3046875,0.046875 -0.3632812,0.28125 -0.3632812,0.38671879 0,0.15234375 0.1171875,0.2578125 0.2695312,0.2578125 0.1992188,0 0.3984375,-0.15234375 0.3984375,-0.44531249 0,-0.2226563 -0.1640625,-0.4804688 -0.5273437,-0.4804688 -0.3984375,0 -0.7617188,0.28125 -1.125,0.60937504 -0.2929688,0.28125 -0.515625,0.4921875 -0.8085938,0.609375 z m 0,0"
         style="fill:#8b572a;fill-opacity:1;fill-rule:nonzero;stroke:none" />
      <path
         id="path9"
         d="m 14.228906,-0.07635156 c 0.105469,0 0.269532,0 0.269532,-0.17578125 0,-0.17578125 -0.152344,-0.17578125 -0.269532,-0.17578125 H 10.06875 c -0.1054687,0 -0.28125,0 -0.28125,0.17578125 0,0.17578125 0.1640625,0.17578125 0.28125,0.17578125 z m 0,0"
         style="fill:#8b572a;fill-opacity:1;fill-rule:nonzero;stroke:none" />
      <path
         id="path10"
         d="m 17.595117,-2.9357266 c 0,-0.1875 -0.01172,-0.1992187 -0.210937,-0.1992187 -0.445313,0.4335937 -1.078125,0.4453125 -1.359375,0.4453125 v 0.2460937 c 0.164062,0 0.621093,0 1.007812,-0.1875 v 3.55078129 c 0,0.23437501 0,0.32812501 -0.691406,0.32812501 H 16.07168 v 0.2460937 c 0.128906,-0.011719 0.984375,-0.023437 1.242187,-0.023437 0.210938,0 1.089844,0.011719 1.242188,0.023437 V 1.2478672 h -0.257813 c -0.703125,0 -0.703125,-0.09375 -0.703125,-0.32812501 z m 0,0"
         style="fill:#8b572a;fill-opacity:1;fill-rule:nonzero;stroke:none" />
    </g>
    <g
       id="g10"
       aria-label="C&#10;k"
       transform="matrix(1.3333333,0,0,1.3333333,88.892,24.356)">
      <path
         id="path11"
         d="m 7.5692812,-6.9261797 c 0,-0.023437 -0.023437,-0.09375 -0.1054687,-0.09375 -0.035156,0 -0.046875,0.011719 -0.1523438,0.1171875 l -0.703125,0.7617188 C 6.5263125,-6.2816484 6.0692812,-7.0199297 4.956,-7.0199297 c -2.2148438,0 -4.453125,2.203125 -4.453125,4.5117188 0,1.64062496 1.171875,2.73046871 2.6953125,2.73046871 0.8671875,0 1.6171875,-0.3984375 2.1445312,-0.85546875 0.9375,-0.82031246 1.1015625,-1.72265626 1.1015625,-1.75781246 0,-0.1054688 -0.1054687,-0.1054688 -0.1171875,-0.1054688 -0.058594,0 -0.1171875,0.023437 -0.1289062,0.1054688 -0.09375,0.2929687 -0.3164063,0.9960937 -1.0078125,1.57031246 -0.6914063,0.5625 -1.3125,0.7265625 -1.8398438,0.7265625 -0.890625,0 -1.9453125,-0.515625 -1.9453125,-2.06249996 0,-0.5742188 0.2109375,-2.1914063 1.2070313,-3.3515625 0.609375,-0.703125 1.5351562,-1.2070313 2.4257812,-1.2070313 1.0195313,0 1.6054688,0.7734375 1.6054688,1.921875 0,0.3984375 -0.035156,0.4101563 -0.035156,0.5039063 0,0.1054687 0.1171875,0.1054687 0.1523438,0.1054687 0.1289062,0 0.1289062,-0.023437 0.1757812,-0.1992187 z m 0,0"
         style="fill:#8b572a;fill-opacity:1;fill-rule:nonzero;stroke:none" />
      <path
         id="path12"
         d="m 9.3007266,-3.1351641 c 0.011719,-0.011719 0.035156,-0.1054687 0.035156,-0.1171875 0,-0.035156 -0.035156,-0.09375 -0.1171875,-0.09375 -0.140625,0 -0.7148437,0.058594 -0.890625,0.070312 -0.058594,0.011719 -0.1523437,0.011719 -0.1523437,0.1640625 0,0.09375 0.09375,0.09375 0.1757812,0.09375 0.3398438,0 0.3398438,0.046875 0.3398438,0.1054688 0,0.046875 -0.011719,0.09375 -0.035156,0.1523437 L 7.6835391,1.1890547 c -0.035156,0.1289062 -0.035156,0.140625 -0.035156,0.1523437 0,0.1054688 0.082031,0.2226563 0.234375,0.2226563 0.1875,0 0.28125,-0.140625 0.3164063,-0.2929688 0.011719,-0.023437 0.3164062,-1.25390621 0.3398437,-1.34765621 0.5039063,0.046875 0.9023438,0.19921875 0.9023438,0.5625 0,0.0351562 0,0.0703125 -0.023437,0.140625 -0.023437,0.10546875 -0.023437,0.140625 -0.023437,0.22265625 0,0.49218746 0.3984375,0.71484376 0.7382811,0.71484376 0.679687,0 0.890625,-1.05468751 0.890625,-1.06640626 0,-0.09375 -0.09375,-0.09375 -0.117188,-0.09375 -0.09375,0 -0.105468,0.0351563 -0.140625,0.1640625 -0.08203,0.3046875 -0.269531,0.79687496 -0.609375,0.79687496 -0.1874994,0 -0.2460931,-0.1757812 -0.2460931,-0.3632812 0,-0.11718751 0,-0.12890626 0.046875,-0.30468751 0,-0.0234375 0.035156,-0.140625 0.035156,-0.22265625 0,-0.62109375 -0.84375,-0.71484375 -1.1367187,-0.73828125 0.1992187,-0.12890625 0.4570312,-0.3515625 0.5859375,-0.45703125 0.3515625,-0.33984374 0.7031253,-0.66796874 1.0898433,-0.66796874 0.08203,0 0.175782,0.023437 0.234375,0.09375 -0.304687,0.046875 -0.363281,0.28125 -0.363281,0.38671874 0,0.15234375 0.117188,0.2578125 0.269531,0.2578125 0.199219,0 0.398438,-0.15234375 0.398438,-0.44531254 0,-0.2226562 -0.164063,-0.4804687 -0.527344,-0.4804687 -0.398437,0 -0.7617186,0.28125 -1.1249998,0.60937499 -0.2929688,0.28125 -0.515625,0.4921875 -0.8085938,0.609375 z m 0,0"
         style="fill:#8b572a;fill-opacity:1;fill-rule:nonzero;stroke:none" />
    </g>
    <g
       id="g12"
       aria-label="P&#10;k"
       transform="matrix(1.3333333,0,0,1.3333333,102.28133,57.193333)">
      <path
         id="path13"
         d="m 3.023375,-3.1537891 h 1.6875 c 1.4179688,0 2.8007813,-1.03125 2.8007813,-2.1445312 0,-0.7734375 -0.65625,-1.5117188 -1.96875,-1.5117188 H 2.32025 c -0.1875,0 -0.2929687,0 -0.2929687,0.1992188 0,0.1171875 0.082031,0.1171875 0.28125,0.1171875 0.1289062,0 0.3164062,0.011719 0.4335937,0.011719 0.1523438,0.023437 0.2109375,0.058594 0.2109375,0.1640625 0,0.035156 0,0.070312 -0.035156,0.1875 L 1.581969,-0.77488251 c -0.09375,0.38671875 -0.1171875,0.46875 -0.9023438,0.46875 -0.17578125,0 -0.28125,0 -0.28125,0.1875 0,0.1171875 0.1171875,0.1171875 0.15234375,0.1171875 0.28125,0 0.98437505,-0.03515625 1.26562505,-0.03515625 0.2109375,0 0.421875,0.01171875 0.6328125,0.01171875 0.2226562,0 0.4453125,0.0234375 0.6445312,0.0234375 0.070312,0 0.1992188,0 0.1992188,-0.19921875 0,-0.10546875 -0.082031,-0.10546875 -0.2695313,-0.10546875 -0.375,0 -0.65625,0 -0.65625,-0.1875 0,-0.0585938 0.023437,-0.10546875 0.035156,-0.1640625 z m 0.7148438,-2.9648437 c 0.082031,-0.3515625 0.1054687,-0.375 0.5390625,-0.375 H 5.2265 c 0.8320313,0 1.359375,0.2695312 1.359375,0.9492187 0,0.3984375 -0.1992187,1.2539063 -0.5859375,1.6054688 -0.5039062,0.4453125 -1.1015625,0.5273437 -1.5351562,0.5273437 h -1.40625 z m 0,0"
         style="fill:#bd10e0;fill-opacity:1;fill-rule:nonzero;stroke:none" />
      <path
         id="path14"
         d="m 8.5751328,-3.1362109 c 0.011719,-0.011719 0.035156,-0.1054688 0.035156,-0.1171875 0,-0.035156 -0.035156,-0.09375 -0.1171875,-0.09375 -0.140625,0 -0.7148438,0.058594 -0.890625,0.070312 -0.058594,0.011719 -0.1523438,0.011719 -0.1523438,0.1640625 0,0.09375 0.09375,0.09375 0.1757813,0.09375 0.3398437,0 0.3398437,0.046875 0.3398437,0.1054687 0,0.046875 -0.011719,0.09375 -0.035156,0.1523438 L 6.9579453,1.1880078 c -0.035156,0.1289063 -0.035156,0.140625 -0.035156,0.1523438 0,0.1054687 0.082031,0.2226562 0.234375,0.2226562 0.1875,0 0.28125,-0.140625 0.3164062,-0.2929687 0.011719,-0.023437 0.3164063,-1.25390629 0.3398438,-1.34765629 0.5039062,0.046875 0.9023437,0.19921875 0.9023437,0.5625 0,0.0351563 0,0.0703125 -0.023437,0.140625 -0.023437,0.10546875 -0.023437,0.140625 -0.023437,0.22265625 0,0.49218754 0.3984375,0.71484374 0.7382813,0.71484374 0.6796877,0 0.8906247,-1.05468749 0.8906247,-1.06640624 0,-0.09375 -0.09375,-0.09375 -0.117187,-0.09375 -0.09375,0 -0.105469,0.0351563 -0.140625,0.1640625 -0.082032,0.3046875 -0.2695315,0.79687504 -0.6093752,0.79687504 -0.1875,0 -0.2460938,-0.1757813 -0.2460938,-0.3632813 0,-0.11718749 0,-0.12890624 0.046875,-0.30468749 0,-0.0234375 0.035156,-0.140625 0.035156,-0.22265625 0,-0.62109375 -0.84375,-0.71484375 -1.1367188,-0.73828125 0.1992188,-0.12890625 0.4570313,-0.3515625 0.5859375,-0.45703125 0.3515625,-0.33984376 0.703125,-0.66796876 1.0898438,-0.66796876 0.082031,0 0.1757812,0.023437 0.2343755,0.09375 -0.304688,0.046875 -0.3632818,0.28125 -0.3632818,0.38671876 0,0.15234375 0.1171875,0.2578125 0.2695313,0.2578125 0.1992185,0 0.3984375,-0.15234375 0.3984375,-0.44531246 0,-0.2226563 -0.164062,-0.4804688 -0.5273438,-0.4804688 -0.3984375,0 -0.7617187,0.28125 -1.125,0.60937501 -0.2929687,0.28125 -0.515625,0.4921875 -0.8085937,0.609375 z m 0,0"
         style="fill:#bd10e0;fill-opacity:1;fill-rule:nonzero;stroke:none" />
    </g>
  </g>
</svg>
