<?xml version="1.0" encoding="UTF-8" standalone="no"?>
<!-- Created with Inkscape (http://www.inkscape.org/) -->

<svg
   version="1.1"
   id="svg1"
   width="332.69333"
   height="278.56"
   viewBox="0 0 332.69333 278.56"
   sodipodi:docname="polygon-approximation.pdf"
   xmlns:inkscape="http://www.inkscape.org/namespaces/inkscape"
   xmlns:sodipodi="http://sodipodi.sourceforge.net/DTD/sodipodi-0.dtd"
   xmlns="http://www.w3.org/2000/svg"
   xmlns:svg="http://www.w3.org/2000/svg">
  <defs
     id="defs1" />
  <sodipodi:namedview
     id="namedview1"
     pagecolor="#ffffff"
     bordercolor="#000000"
     borderopacity="0.25"
     inkscape:showpageshadow="2"
     inkscape:pageopacity="0.0"
     inkscape:pagecheckerboard="0"
     inkscape:deskcolor="#d1d1d1">
    <inkscape:page
       x="0"
       y="0"
       inkscape:label="1"
       id="page1"
       width="332.69333"
       height="278.56"
       margin="0"
       bleed="0" />
  </sodipodi:namedview>
  <g
     id="g1"
     inkscape:groupmode="layer"
     inkscape:label="1">
    <path
       id="path1"
       d="m 89.44014,-55.81601 c 32.11775,32.39346 118.19548,60.63768 126.93774,-13.33534 8.74228,-73.97305 32.95165,-41.02141 49.76369,-78.68042 16.81207,-37.65901 -165.43065,-53.79859 -197.03731,-30.93419 -31.60667,22.86441 -11.78189,90.55649 20.33588,122.94995 z"
       style="fill:#f5a623;fill-opacity:0.19;fill-rule:nonzero;stroke:#f5a623;stroke-width:0.74721;stroke-linecap:butt;stroke-linejoin:miter;stroke-miterlimit:10;stroke-dasharray:0.83687, 2.50064;stroke-dashoffset:0;stroke-opacity:1"
       transform="matrix(1.3333333,0,0,-1.3333333,-45.074667,6.9333333)" />
    <path
       id="path2"
       d="m 183.42625,-48.30438 c 36.31405,-45.05632 72.6281,-154.67093 7.39731,-118.35689 -65.23079,36.31404 -87.42271,-19.502 -114.322,0.67247 -26.8993,20.17447 70.61065,162.74072 106.92469,117.68442 z"
       style="fill:#8b572a;fill-opacity:0.25;fill-rule:nonzero;stroke:#54351a;stroke-width:1.49442;stroke-linecap:butt;stroke-linejoin:miter;stroke-miterlimit:10;stroke-dasharray:none;stroke-opacity:0.25"
       transform="matrix(1.3333333,0,0,-1.3333333,-45.074667,6.9333333)" />
    <path
       id="path3"
       d="m 169.30412,-69.15135 c 4.16941,-47.29567 17.74681,-26.72445 41.55942,-50.34874 23.80588,-23.62431 -80.7046,-43.08594 -105.44524,-21.78842 -24.74734,21.29751 59.71644,119.43284 63.88582,72.13716 z"
       style="fill:none;stroke:#8b572a;stroke-width:1.49442;stroke-linecap:butt;stroke-linejoin:miter;stroke-miterlimit:10;stroke-dasharray:none;stroke-opacity:1"
       transform="matrix(1.3333333,0,0,-1.3333333,-45.074667,6.9333333)" />
    <path
       id="path4"
       d="m 143.965,-63.00485 23.94035,1.34497"
       style="fill:none;stroke:#bd10e0;stroke-width:1.49442;stroke-linecap:butt;stroke-linejoin:miter;stroke-miterlimit:10;stroke-dasharray:none;stroke-opacity:1"
       transform="matrix(1.3333333,0,0,-1.3333333,-45.074667,6.9333333)" />
    <path
       id="path5"
       d="m 143.965,-63.00485 -42.50087,-64.55831"
       style="fill:none;stroke:#bd10e0;stroke-width:1.49442;stroke-linecap:butt;stroke-linejoin:miter;stroke-miterlimit:10;stroke-dasharray:none;stroke-opacity:1"
       transform="matrix(1.3333333,0,0,-1.3333333,-45.074667,6.9333333)" />
    <path
       id="path6"
       d="m 127.28743,-149.08258 -25.8233,21.51942"
       style="fill:none;stroke:#bd10e0;stroke-width:1.49442;stroke-linecap:butt;stroke-linejoin:miter;stroke-miterlimit:10;stroke-dasharray:none;stroke-opacity:1"
       transform="matrix(1.3333333,0,0,-1.3333333,-45.074667,6.9333333)" />
    <path
       id="path7"
       d="m 213.67451,-129.81595 -86.38708,-19.26663"
       style="fill:none;stroke:#bd10e0;stroke-width:1.49442;stroke-linecap:butt;stroke-linejoin:miter;stroke-miterlimit:10;stroke-dasharray:none;stroke-opacity:1"
       transform="matrix(1.3333333,0,0,-1.3333333,-45.074667,6.9333333)" />
    <path
       id="path8"
       d="m 213.67451,-129.81595 -35.35241,29.4009"
       style="fill:none;stroke:#bd10e0;stroke-width:1.49442;stroke-linecap:butt;stroke-linejoin:miter;stroke-miterlimit:10;stroke-dasharray:none;stroke-opacity:1"
       transform="matrix(1.3333333,0,0,-1.3333333,-45.074667,6.9333333)" />
    <path
       id="path9"
       d="m 178.3221,-100.41505 -10.41675,38.75517"
       style="fill:none;stroke:#bd10e0;stroke-width:1.49442;stroke-linecap:butt;stroke-linejoin:miter;stroke-miterlimit:10;stroke-dasharray:none;stroke-opacity:1"
       transform="matrix(1.3333333,0,0,-1.3333333,-45.074667,6.9333333)" />
    <path
       id="path10"
       d="m 142.2838,-63.00485 c 0,0.92802 0.75317,1.6812 1.6812,1.6812 0.92802,0 1.68121,-0.75318 1.68121,-1.6812 0,-0.92804 -0.75319,-1.68122 -1.68121,-1.68122 -0.92803,0 -1.6812,0.75318 -1.6812,1.68122 z"
       style="fill:#8b572a;fill-opacity:1;fill-rule:nonzero;stroke:#8b572a;stroke-width:0.74721;stroke-linecap:butt;stroke-linejoin:miter;stroke-miterlimit:10;stroke-dasharray:none;stroke-opacity:1"
       transform="matrix(1.3333333,0,0,-1.3333333,-45.074667,6.9333333)" />
    <path
       id="path11"
       d="m 166.22415,-61.65988 c 0,0.92801 0.75319,1.6812 1.6812,1.6812 0.92804,0 1.68123,-0.75319 1.68123,-1.6812 0,-0.92804 -0.75319,-1.68123 -1.68123,-1.68123 -0.92801,0 -1.6812,0.75319 -1.6812,1.68123 z"
       style="fill:#8b572a;fill-opacity:1;fill-rule:nonzero;stroke:#8b572a;stroke-width:0.74721;stroke-linecap:butt;stroke-linejoin:miter;stroke-miterlimit:10;stroke-dasharray:none;stroke-opacity:1"
       transform="matrix(1.3333333,0,0,-1.3333333,-45.074667,6.9333333)" />
    <path
       id="path12"
       d="m 99.78291,-127.56316 c 0,0.92803 0.75318,1.6812 1.68122,1.6812 0.92801,0 1.68119,-0.75317 1.68119,-1.6812 0,-0.92802 -0.75318,-1.68121 -1.68119,-1.68121 -0.92804,0 -1.68122,0.75319 -1.68122,1.68121 z"
       style="fill:#8b572a;fill-opacity:1;fill-rule:nonzero;stroke:#8b572a;stroke-width:0.74721;stroke-linecap:butt;stroke-linejoin:miter;stroke-miterlimit:10;stroke-dasharray:none;stroke-opacity:1"
       transform="matrix(1.3333333,0,0,-1.3333333,-45.074667,6.9333333)" />
    <path
       id="path13"
       d="m 125.60622,-149.08258 c 0,0.92801 0.75318,1.6812 1.68121,1.6812 0.92802,0 1.68121,-0.75319 1.68121,-1.6812 0,-0.92804 -0.75319,-1.68123 -1.68121,-1.68123 -0.92803,0 -1.68121,0.75319 -1.68121,1.68123 z"
       style="fill:#8b572a;fill-opacity:1;fill-rule:nonzero;stroke:#8b572a;stroke-width:0.74721;stroke-linecap:butt;stroke-linejoin:miter;stroke-miterlimit:10;stroke-dasharray:none;stroke-opacity:1"
       transform="matrix(1.3333333,0,0,-1.3333333,-45.074667,6.9333333)" />
    <path
       id="path14"
       d="m 211.9933,-129.81595 c 0,0.92801 0.75318,1.6812 1.68121,1.6812 0.92803,0 1.6812,-0.75319 1.6812,-1.6812 0,-0.92804 -0.75317,-1.68121 -1.6812,-1.68121 -0.92803,0 -1.68121,0.75317 -1.68121,1.68121 z"
       style="fill:#8b572a;fill-opacity:1;fill-rule:nonzero;stroke:#8b572a;stroke-width:0.74721;stroke-linecap:butt;stroke-linejoin:miter;stroke-miterlimit:10;stroke-dasharray:none;stroke-opacity:1"
       transform="matrix(1.3333333,0,0,-1.3333333,-45.074667,6.9333333)" />
    <path
       id="path15"
       d="m 176.6409,-100.41505 c 0,0.92804 0.75319,1.68121 1.6812,1.68121 0.92804,0 1.68123,-0.75317 1.68123,-1.68121 0,-0.93475 -0.75319,-1.6812 -1.68123,-1.6812 -0.92801,0 -1.6812,0.74645 -1.6812,1.6812 z"
       style="fill:#8b572a;fill-opacity:1;fill-rule:nonzero;stroke:#8b572a;stroke-width:0.74721;stroke-linecap:butt;stroke-linejoin:miter;stroke-miterlimit:10;stroke-dasharray:none;stroke-opacity:1"
       transform="matrix(1.3333333,0,0,-1.3333333,-45.074667,6.9333333)" />
    <g
       id="g15"
       aria-label="z&#10;1"
       transform="matrix(1.3333333,0,0,1.3333333,239.52533,190.284)">
      <path
         id="path16"
         d="M 1.3227969,-0.83116406 C 1.8618594,-1.4053828 2.1548281,-1.6514766 2.5063906,-1.9561641 c 0,-0.011719 0.6210938,-0.5390625 0.984375,-0.9023437 0.9375,-0.9257813 1.1601563,-1.40625 1.1601563,-1.4414063 0,-0.1054687 -0.09375,-0.1054687 -0.1054688,-0.1054687 -0.070312,0 -0.1054687,0.023437 -0.1523437,0.1171875 -0.3046875,0.46875 -0.5039063,0.6328125 -0.75,0.6328125 -0.234375,0 -0.3515625,-0.1523438 -0.5039063,-0.3164063 -0.1875,-0.234375 -0.3632812,-0.4335937 -0.6914062,-0.4335937 -0.75,0 -1.2070313,0.9257812 -1.2070313,1.1367187 0,0.046875 0.035156,0.1171875 0.1171875,0.1171875 0.09375,0 0.1171875,-0.058594 0.140625,-0.1171875 0.1875,-0.4570312 0.7617188,-0.46875 0.84375,-0.46875 0.2109375,0 0.3984375,0.070312 0.6210938,0.1523438 0.3984375,0.1523437 0.515625,0.1523437 0.7734375,0.1523437 -0.3632813,0.421875 -1.1953125,1.1367188 -1.3828125,1.3007813 l -0.9023438,0.8320312 c -0.67968748,0.66796879 -1.01953123,1.24218754 -1.01953123,1.31250004 0,0.09375 0.09375,0.09375 0.1171875,0.09375 0.0820313,0 0.09375,-0.01171875 0.15234375,-0.12890625 0.234375,-0.33984375 0.52734378,-0.609375 0.85546878,-0.609375 0.2226562,0 0.328125,0.0820313 0.5742187,0.375 0.1640625,0.2109375 0.3515625,0.36328125 0.6328125,0.36328125 0.984375,0 1.5703125,-1.26562504 1.5703125,-1.53515624 0,-0.046875 -0.046875,-0.09375 -0.1171875,-0.09375 -0.09375,0 -0.1171875,0.058594 -0.140625,0.1289062 -0.234375,0.64453129 -0.8671875,0.83203129 -1.1953125,0.83203129 -0.1992187,0 -0.3867187,-0.0585938 -0.5859375,-0.12890625 -0.3398437,-0.12890625 -0.4921875,-0.1640625 -0.703125,-0.1640625 -0.023437,0 -0.1757812,0 -0.2695312,0.0234375 z m 0,0"
         style="fill:#8b572a;fill-opacity:1;fill-rule:nonzero;stroke:none" />
      <path
         id="path17"
         d="m 6.965375,-2.9346797 c 0,-0.1875 -0.011719,-0.1992187 -0.2109375,-0.1992187 -0.4453125,0.4335937 -1.078125,0.4453125 -1.359375,0.4453125 v 0.2460937 c 0.1640625,0 0.6210937,0 1.0078125,-0.1875 v 3.55078126 c 0,0.23437504 0,0.32812504 -0.6914063,0.32812504 H 5.4419375 v 0.2460937 c 0.1289062,-0.011719 0.984375,-0.023437 1.2421875,-0.023437 0.2109375,0 1.0898437,0.011719 1.2421875,0.023437 V 1.2489141 H 7.6685 c -0.703125,0 -0.703125,-0.09375 -0.703125,-0.32812504 z m 0,0"
         style="fill:#8b572a;fill-opacity:1;fill-rule:nonzero;stroke:none" />
    </g>
    <g
       id="g17"
       aria-label="z&#10;2"
       transform="matrix(1.3333333,0,0,1.3333333,177.264,151.08267)">
      <path
         id="path18"
         d="M 1.3254375,-0.83250781 C 1.8645,-1.4067266 2.1574687,-1.6528203 2.5090312,-1.9575078 c 0,-0.011719 0.6210938,-0.5390625 0.984375,-0.9023438 0.9375,-0.9257812 1.1601563,-1.40625 1.1601563,-1.4414062 0,-0.1054688 -0.09375,-0.1054688 -0.1054688,-0.1054688 -0.070312,0 -0.1054687,0.023437 -0.1523437,0.1171875 -0.3046875,0.46875 -0.5039063,0.6328125 -0.75,0.6328125 -0.234375,0 -0.3515625,-0.1523437 -0.5039063,-0.3164062 -0.1875,-0.234375 -0.3632812,-0.4335938 -0.6914062,-0.4335938 -0.75,0 -1.2070313,0.9257813 -1.2070313,1.1367188 0,0.046875 0.035156,0.1171875 0.1171875,0.1171875 0.09375,0 0.1171875,-0.058594 0.140625,-0.1171875 0.1875,-0.4570313 0.7617188,-0.46875 0.84375,-0.46875 0.2109375,0 0.3984375,0.070312 0.6210938,0.1523437 0.3984375,0.1523438 0.515625,0.1523438 0.7734375,0.1523438 -0.3632813,0.421875 -1.1953125,1.1367187 -1.3828125,1.3007812 l -0.9023438,0.8320313 c -0.67968745,0.66796874 -1.0195312,1.24218749 -1.0195312,1.31249999 0,0.09375 0.09375,0.09375 0.1171875,0.09375 0.0820313,0 0.09375,-0.01171875 0.15234375,-0.12890625 0.234375,-0.33984375 0.52734375,-0.609375 0.85546875,-0.609375 0.2226562,0 0.328125,0.0820313 0.5742187,0.375 0.1640625,0.2109375 0.3515625,0.36328125 0.6328125,0.36328125 0.984375,0 1.5703125,-1.26562499 1.5703125,-1.53515629 0,-0.046875 -0.046875,-0.09375 -0.1171875,-0.09375 -0.09375,0 -0.1171875,0.058594 -0.140625,0.1289063 -0.234375,0.64453124 -0.8671875,0.83203124 -1.1953125,0.83203124 -0.1992187,0 -0.3867187,-0.0585938 -0.5859375,-0.12890625 -0.3398437,-0.12890625 -0.4921875,-0.1640625 -0.703125,-0.1640625 -0.023437,0 -0.1757812,0 -0.2695312,0.0234375 z m 0,0"
         style="fill:#8b572a;fill-opacity:1;fill-rule:nonzero;stroke:none" />
      <path
         id="path19"
         d="m 8.1486797,0.22803906 h -0.234375 c -0.023437,0.15234375 -0.082031,0.5625 -0.1757813,0.6328125 -0.058594,0.0351563 -0.5976562,0.0351563 -0.6914062,0.0351563 H 5.7580547 c 0.7382812,-0.64453125 0.984375,-0.84375 1.3945312,-1.171875 0.515625,-0.41015625 0.9960938,-0.84374996 0.9960938,-1.49999996 0,-0.84375 -0.7382813,-1.359375 -1.6289063,-1.359375 -0.8671875,0 -1.453125,0.609375 -1.453125,1.2421875 0,0.3632813 0.3046875,0.3984375 0.375,0.3984375 0.1640625,0 0.375,-0.1171875 0.375,-0.375 0,-0.1289062 -0.058594,-0.3632812 -0.421875,-0.3632812 0.2226563,-0.5039063 0.6914063,-0.65625 1.0195313,-0.65625 0.703125,0 1.0664062,0.5507812 1.0664062,1.1132812 0,0.609375 -0.4335937,1.08984371 -0.65625,1.33593746 l -1.6875,1.66406254 c -0.070312,0.058594 -0.070312,0.070312 -0.070312,0.2695313 h 2.8828125 z m 0,0"
         style="fill:#8b572a;fill-opacity:1;fill-rule:nonzero;stroke:none" />
    </g>
    <g
       id="g19"
       aria-label="z&#10;3"
       transform="matrix(1.3333333,0,0,1.3333333,163.37467,99.409333)">
      <path
         id="path20"
         d="M 1.3244687,-0.83141406 C 1.8635312,-1.4056328 2.1565,-1.6517266 2.5080625,-1.9564141 c 0,-0.011719 0.6210937,-0.5390625 0.984375,-0.9023437 0.9375,-0.9257813 1.1601562,-1.40625 1.1601562,-1.4414063 0,-0.1054687 -0.09375,-0.1054687 -0.1054687,-0.1054687 -0.070312,0 -0.1054688,0.023437 -0.1523438,0.1171875 -0.3046875,0.46875 -0.5039062,0.6328125 -0.75,0.6328125 -0.234375,0 -0.3515625,-0.1523438 -0.5039062,-0.3164063 -0.1875,-0.234375 -0.3632813,-0.4335937 -0.6914063,-0.4335937 -0.75,0 -1.2070312,0.9257812 -1.2070312,1.1367187 0,0.046875 0.035156,0.1171875 0.1171875,0.1171875 0.09375,0 0.1171875,-0.058594 0.140625,-0.1171875 0.1875,-0.4570312 0.7617187,-0.46875 0.84375,-0.46875 0.2109375,0 0.3984375,0.070312 0.6210937,0.1523438 0.3984375,0.1523437 0.515625,0.1523437 0.7734375,0.1523437 -0.3632812,0.421875 -1.1953125,1.1367188 -1.3828125,1.3007813 L 1.453375,-1.3001641 c -0.6796875,0.66796879 -1.01953125,1.24218754 -1.01953125,1.31250004 0,0.09375 0.09375,0.09375 0.1171875,0.09375 0.0820313,0 0.09375,-0.01171875 0.15234375,-0.12890625 0.234375,-0.33984375 0.5273437,-0.609375 0.8554687,-0.609375 0.2226563,0 0.328125,0.0820313 0.5742188,0.375 0.1640625,0.2109375 0.3515625,0.36328125 0.6328125,0.36328125 0.984375,0 1.5703125,-1.26562504 1.5703125,-1.53515624 0,-0.046875 -0.046875,-0.09375 -0.1171875,-0.09375 -0.09375,0 -0.1171875,0.058594 -0.140625,0.1289062 -0.234375,0.64453129 -0.8671875,0.83203129 -1.1953125,0.83203129 -0.1992188,0 -0.3867188,-0.0585938 -0.5859375,-0.12890625 -0.3398438,-0.12890625 -0.4921875,-0.1640625 -0.703125,-0.1640625 -0.023437,0 -0.1757813,0 -0.2695313,0.0234375 z m 0,0"
         style="fill:#8b572a;fill-opacity:1;fill-rule:nonzero;stroke:none" />
      <path
         id="path21"
         d="m 6.5305234,-0.83727344 c 0.5507813,0 0.9375,0.375 0.9375,1.125 0,0.86718754 -0.5039062,1.12500004 -0.9023437,1.12500004 -0.28125,0 -0.890625,-0.082031 -1.1835938,-0.49218754 0.328125,-0.0117188 0.3984375,-0.24609375 0.3984375,-0.38671875 0,-0.22265625 -0.1640625,-0.38671875 -0.3867187,-0.38671875 -0.1875,0 -0.3867188,0.1171875 -0.3867188,0.41015625 0,0.65624999 0.7265625,1.07812499 1.5703125,1.07812499 0.9726563,0 1.640625,-0.64453124 1.640625,-1.34765624 0,-0.5390625 -0.4453125,-1.08984375 -1.21875,-1.2421875 0.7382813,-0.26953126 0.9960938,-0.79687496 0.9960938,-1.21874996 0,-0.5507813 -0.6328125,-0.9609375 -1.40625,-0.9609375 -0.7734375,0 -1.359375,0.375 -1.359375,0.9375 0,0.234375 0.1523437,0.3632812 0.3632812,0.3632812 0.2109375,0 0.3515625,-0.1640625 0.3515625,-0.3515625 0,-0.1992187 -0.140625,-0.3515625 -0.3515625,-0.3632812 0.234375,-0.3046875 0.7148438,-0.3867188 0.9726563,-0.3867188 0.3164062,0 0.7617187,0.1523438 0.7617187,0.7617188 0,0.2929687 -0.1054687,0.609375 -0.28125,0.8320312 -0.234375,0.2578125 -0.421875,0.28125 -0.7734375,0.2929688 -0.1757812,0.023437 -0.1875,0.023437 -0.2226562,0.023437 -0.011719,0 -0.070312,0.011719 -0.070312,0.09375 0,0.09375 0.058594,0.09375 0.1757812,0.09375 z m 0,0"
         style="fill:#8b572a;fill-opacity:1;fill-rule:nonzero;stroke:none" />
    </g>
    <path
       id="path22"
       d="m 12.855484,-11.966305 c 0,-0.152343 -0.117187,-0.152343 -0.152343,-0.152343 -0.03516,0 -0.105469,0 -0.234375,0.175781 l -1.195313,1.441406 c -0.597656,-1.03125 -1.5468749,-1.617187 -2.8359374,-1.617187 -3.7148437,0 -7.58203122,3.7734371 -7.58203122,7.8164058 0,2.8710938 2.01562502,4.66406251 4.53515622,4.66406251 1.3710938,0 2.578125,-0.5859375 3.5742188,-1.42968751 1.4999996,-1.2539062 1.9453126,-2.9296875 1.9453126,-3.0703125 0,-0.1523437 -0.128906,-0.1523437 -0.1875,-0.1523437 -0.152344,0 -0.175781,0.1054687 -0.199219,0.1757812 -0.7968749,2.6835938 -3.1171874,3.97265626 -4.8398436,3.97265626 -1.828125,0 -3.4101563,-1.17187496 -3.4101563,-3.60937496 0,-0.5507813 0.1757813,-3.5507813 2.1210938,-5.8007813 0.9375,-1.1015628 2.5546875,-2.0742188 4.1953125,-2.0742188 1.8984376,0 2.7421876,1.570313 2.7421876,3.3281251 0,0.4453125 -0.05859,0.8203125 -0.05859,0.890625 0,0.1640625 0.175781,0.1640625 0.222656,0.1640625 0.1875,0 0.210938,-0.023437 0.28125,-0.328125 z m 0,0"
       style="fill:#8b572a;fill-opacity:1;fill-rule:nonzero;stroke:none"
       aria-label="C"
       transform="matrix(1.3333333,0,0,1.3333333,214.55467,216.13867)" />
    <path
       id="path23"
       d="m 5.0983281,-5.4716719 h 2.8945313 c 2.3671876,0 4.7460936,-1.7578125 4.7460936,-3.7148437 0,-1.3476564 -1.136719,-2.5664064 -3.3046874,-2.5664064 H 4.1139531 c -0.328125,0 -0.4804687,0 -0.4804687,0.328125 0,0.164063 0.1523437,0.164063 0.4101562,0.164063 1.0546875,0 1.0546875,0.140625 1.0546875,0.328125 0,0.03516 0,0.140625 -0.070312,0.398437 l -2.3203125,9.2578126 c -0.1640625,0.60937502 -0.1992187,0.77343752 -1.3945312,0.77343752 -0.32812503,0 -0.50390628,0 -0.50390628,0.31640625 0,0.187500005 0.15234375,0.187500005 0.25781248,0.187500005 0.328125,0 0.6679688,-0.035156255 0.9960938,-0.035156255 h 2.015625 c 0.328125,0 0.6914062,0.035156255 1.0195312,0.035156255 0.140625,0 0.328125,0 0.328125,-0.328125005 0,-0.17578125 -0.1523437,-0.17578125 -0.421875,-0.17578125 -1.03125,0 -1.0429687,-0.1171875 -1.0429687,-0.29296875 0,-0.0820313 0.011719,-0.19921875 0.035156,-0.29296877 z m 1.2421875,-5.1093751 c 0.1523438,-0.644531 0.2226563,-0.679687 0.890625,-0.679687 h 1.6992188 c 1.3007816,0 2.3671876,0.421875 2.3671876,1.7109371 0,0.4453125 -0.222656,1.9101563 -1.019531,2.6953125 -0.2929691,0.3164063 -1.1132816,0.9726563 -2.6835941,0.9726563 H 5.1686406 Z m 0,0"
       style="fill:#bd10e0;fill-opacity:1;fill-rule:nonzero;stroke:none"
       aria-label="P"
       transform="matrix(1.3333333,0,0,1.3333333,109.35067,174.444)" />
    <path
       id="path24"
       d="m 1.5815469,-0.77226563 c -0.09375,0.38671875 -0.1171875,0.46875 -0.90234378,0.46875 -0.17578125,0 -0.28125,0 -0.28125,0.1875 0,0.1171875 0.09375,0.1171875 0.28125,0.1171875 H 3.9721719 c 2.0742187,0 4.03125,-2.09765627 4.03125,-4.28906247 0,-1.3945313 -0.84375,-2.5195313 -2.3320313,-2.5195313 H 2.3198281 c -0.1875,0 -0.2929687,0 -0.2929687,0.1992188 0,0.1171875 0.082031,0.1171875 0.28125,0.1171875 0.1289062,0 0.3164062,0.011719 0.4335937,0.011719 0.1523438,0.023437 0.2109375,0.058594 0.2109375,0.1640625 0,0.035156 0,0.070312 -0.035156,0.1875 z m 2.15625,-5.34374997 c 0.082031,-0.3515625 0.1054687,-0.375 0.5390625,-0.375 h 1.0664062 c 0.9726563,0 1.7929688,0.5273437 1.7929688,1.8398437 0,0.4921875 -0.1992188,2.1210938 -1.0429688,3.2226563 -0.28125,0.3632812 -1.078125,1.12499997 -2.296875,1.12499997 h -1.125 c -0.140625,0 -0.1640625,0 -0.2226562,-0.0117188 -0.09375,-0.0117188 -0.1289063,-0.0234375 -0.1289063,-0.10546875 0,-0.0234375 0,-0.046875 0.046875,-0.22265625 z m 0,0"
       style="fill:#f5a623;fill-opacity:1;fill-rule:nonzero;stroke:none"
       aria-label="D"
       transform="matrix(1.3333333,0,0,1.3333333,13.805333,141.6)" />
    <path
       id="path25"
       d="m -105.806,75.007 h 11.32"
       style="fill:none;stroke:#8b572a;stroke-width:0.3985;stroke-linecap:butt;stroke-linejoin:miter;stroke-miterlimit:10;stroke-dasharray:none;stroke-opacity:0.5"
       transform="matrix(1.3333333,0,0,-1.3333333,202.69733,308.648)" />
    <g
       id="g25"
       aria-label="D&#10;′"
       transform="matrix(1.3333333,0,0,1.3333333,61.622667,219.57467)">
      <path
         id="path26"
         d="m 1.5808516,-0.77377344 c -0.09375,0.38671875 -0.1171875,0.46875 -0.90234379,0.46875 -0.17578125,0 -0.28125,0 -0.28125,0.1875 0,0.1171875025 0.09375,0.1171875025 0.28125,0.1171875025 H 3.9714766 c 2.0742187,0 4.03125,-2.0976562625 4.03125,-4.2890624625 0,-1.3945313 -0.84375,-2.5195313 -2.3320313,-2.5195313 H 2.3191328 c -0.1875,0 -0.2929687,0 -0.2929687,0.1992188 0,0.1171875 0.082031,0.1171875 0.28125,0.1171875 0.1289062,0 0.3164062,0.011719 0.4335937,0.011719 0.1523438,0.023437 0.2109375,0.058594 0.2109375,0.1640625 0,0.035156 0,0.070312 -0.035156,0.1875 z m 2.15625,-5.34374996 c 0.082031,-0.3515625 0.1054687,-0.375 0.5390625,-0.375 h 1.0664062 c 0.9726563,0 1.7929688,0.5273437 1.7929688,1.8398437 0,0.4921875 -0.1992188,2.1210938 -1.0429688,3.2226563 -0.28125,0.3632812 -1.078125,1.12499996 -2.296875,1.12499996 h -1.125 c -0.140625,0 -0.1640625,0 -0.2226562,-0.0117188 -0.09375,-0.0117188 -0.1289063,-0.0234375 -0.1289063,-0.10546875 0,-0.0234375 0,-0.046875 0.046875,-0.22265625 z m 0,0"
         style="fill:#8b572a;fill-opacity:0.5;fill-rule:nonzero;stroke:none" />
      <path
         id="path27"
         d="m 10.551555,-6.1702578 c 0.04687,-0.1171875 0.05859,-0.1757813 0.05859,-0.2226563 0,-0.2109375 -0.199218,-0.3867187 -0.410156,-0.3867187 -0.2695311,0 -0.3515623,0.2226562 -0.3867186,0.328125 l -0.9140625,3.0234375 c -0.011719,0.011719 -0.035156,0.1054687 -0.035156,0.1171875 0,0.082031 0.2109375,0.1523437 0.2695312,0.1523437 0.046875,0 0.058594,-0.023437 0.1054688,-0.1289062 z m 0,0"
         style="fill:#8b572a;fill-opacity:0.5;fill-rule:nonzero;stroke:none" />
    </g>
  </g>
</svg>
