<?xml version="1.0" encoding="UTF-8" standalone="no"?>
<!-- Created with Inkscape (http://www.inkscape.org/) -->

<svg
   version="1.1"
   id="svg1"
   width="243.94667"
   height="98.09333"
   viewBox="0 0 243.94667 98.09333"
   sodipodi:docname="subdivide-triangle.pdf"
   xmlns:inkscape="http://www.inkscape.org/namespaces/inkscape"
   xmlns:sodipodi="http://sodipodi.sourceforge.net/DTD/sodipodi-0.dtd"
   xmlns="http://www.w3.org/2000/svg"
   xmlns:svg="http://www.w3.org/2000/svg">
  <defs
     id="defs1" />
  <sodipodi:namedview
     id="namedview1"
     pagecolor="#ffffff"
     bordercolor="#000000"
     borderopacity="0.25"
     inkscape:showpageshadow="2"
     inkscape:pageopacity="0.0"
     inkscape:pagecheckerboard="0"
     inkscape:deskcolor="#d1d1d1">
    <inkscape:page
       x="0"
       y="0"
       inkscape:label="1"
       id="page1"
       width="243.94667"
       height="98.09333"
       margin="0"
       bleed="0" />
  </sodipodi:namedview>
  <g
     id="g1"
     inkscape:groupmode="layer"
     inkscape:label="1">
    <path
       id="path1"
       d="M 114.70947,-25.7296 59.17944,-97.73575"
       style="fill:none;stroke:#bd10e0;stroke-width:0.74721;stroke-linecap:butt;stroke-linejoin:miter;stroke-miterlimit:10;stroke-dasharray:none;stroke-opacity:1"
       transform="matrix(1.3333333,0,0,-1.3333333,-73.984,-33.813333)" />
    <path
       id="path2"
       d="M 140.34492,-97.73575 H 59.17944"
       style="fill:none;stroke:#bd10e0;stroke-width:0.74721;stroke-linecap:butt;stroke-linejoin:miter;stroke-miterlimit:10;stroke-dasharray:none;stroke-opacity:1"
       transform="matrix(1.3333333,0,0,-1.3333333,-73.984,-33.813333)" />
    <path
       id="path3"
       d="m 114.70947,-25.7296 25.63545,-72.00615"
       style="fill:none;stroke:#bd10e0;stroke-width:0.74721;stroke-linecap:butt;stroke-linejoin:miter;stroke-miterlimit:10;stroke-dasharray:none;stroke-opacity:1"
       transform="matrix(1.3333333,0,0,-1.3333333,-73.984,-33.813333)" />
    <path
       id="path4"
       d="M 86.94446,-61.73491 H 127.5272"
       style="fill:none;stroke:#bd10e0;stroke-width:0.74721;stroke-linecap:butt;stroke-linejoin:miter;stroke-miterlimit:10;stroke-dasharray:4.48325, 4.48325;stroke-dashoffset:0;stroke-opacity:1"
       transform="matrix(1.3333333,0,0,-1.3333333,-73.984,-33.813333)" />
    <path
       id="path5"
       d="M 86.94446,-61.73491 99.76219,-97.73575"
       style="fill:none;stroke:#bd10e0;stroke-width:0.74721;stroke-linecap:butt;stroke-linejoin:miter;stroke-miterlimit:10;stroke-dasharray:4.48325, 4.48325;stroke-dashoffset:0;stroke-opacity:1"
       transform="matrix(1.3333333,0,0,-1.3333333,-73.984,-33.813333)" />
    <path
       id="path6"
       d="M 127.5272,-61.73491 99.76219,-97.73575"
       style="fill:none;stroke:#bd10e0;stroke-width:0.74721;stroke-linecap:butt;stroke-linejoin:miter;stroke-miterlimit:10;stroke-dasharray:4.48325, 4.48325;stroke-dashoffset:0;stroke-opacity:1"
       transform="matrix(1.3333333,0,0,-1.3333333,-73.984,-33.813333)" />
    <path
       id="path7"
       d="M 212.44522,-26.17792 156.91519,-98.18407"
       style="fill:none;stroke:#bd10e0;stroke-width:0.74721;stroke-linecap:butt;stroke-linejoin:miter;stroke-miterlimit:10;stroke-dasharray:none;stroke-opacity:1"
       transform="matrix(1.3333333,0,0,-1.3333333,-73.984,-33.813333)" />
    <path
       id="path8"
       d="m 238.08069,-98.18407 h -81.1655"
       style="fill:none;stroke:#bd10e0;stroke-width:0.74721;stroke-linecap:butt;stroke-linejoin:miter;stroke-miterlimit:10;stroke-dasharray:none;stroke-opacity:1"
       transform="matrix(1.3333333,0,0,-1.3333333,-73.984,-33.813333)" />
    <path
       id="path9"
       d="m 212.44522,-26.17792 25.63547,-72.00615"
       style="fill:none;stroke:#bd10e0;stroke-width:0.74721;stroke-linecap:butt;stroke-linejoin:miter;stroke-miterlimit:10;stroke-dasharray:none;stroke-opacity:1"
       transform="matrix(1.3333333,0,0,-1.3333333,-73.984,-33.813333)" />
    <path
       id="path10"
       d="m 156.91519,-98.18407 h 40.58275"
       style="fill:none;stroke:#8b572a;stroke-width:1.49442;stroke-linecap:butt;stroke-linejoin:miter;stroke-miterlimit:10;stroke-dasharray:none;stroke-opacity:1"
       transform="matrix(1.3333333,0,0,-1.3333333,-73.984,-33.813333)" />
    <path
       id="path11"
       d="m 184.6802,-62.18323 12.81774,-36.00084"
       style="fill:none;stroke:#8b572a;stroke-width:1.49442;stroke-linecap:butt;stroke-linejoin:miter;stroke-miterlimit:10;stroke-dasharray:none;stroke-opacity:1"
       transform="matrix(1.3333333,0,0,-1.3333333,-73.984,-33.813333)" />
    <path
       id="path12"
       d="M 184.6802,-62.18323 156.91519,-98.18407"
       style="fill:none;stroke:#8b572a;stroke-width:1.49442;stroke-linecap:butt;stroke-linejoin:miter;stroke-miterlimit:10;stroke-dasharray:none;stroke-opacity:1"
       transform="matrix(1.3333333,0,0,-1.3333333,-73.984,-33.813333)" />
    <g
       id="g12"
       aria-label="∆&#10;1"
       transform="matrix(1.3333333,0,0,1.3333333,62.522667,37.844)">
      <path
         id="path13"
         d="m 4.4068281,-6.9494062 c -0.070312,-0.1289063 -0.09375,-0.1875 -0.2578125,-0.1875 -0.1757812,0 -0.1992187,0.058594 -0.2578125,0.1875 l -3.37499998,6.74999995 c -0.046875,0.09375 -0.046875,0.10546875 -0.046875,0.1171875 0,0.08203125 0.0585938,0.08203125 0.22265625,0.08203125 H 7.6060469 c 0.1523437,0 0.2109375,0 0.2109375,-0.08203125 0,-0.01171875 0,-0.0234375 -0.046875,-0.1171875 z m -0.5859375,0.8085937 2.6835938,5.37890625 H 1.1372969 Z m 0,0"
         style="fill:#9b9b9b;fill-opacity:1;fill-rule:nonzero;stroke:none" />
      <path
         id="path14"
         d="m 10.635344,-2.9357344 c 0,-0.1875 -0.01172,-0.1992187 -0.210938,-0.1992187 -0.4453123,0.4335937 -1.0781248,0.4453125 -1.3593748,0.4453125 v 0.2460937 c 0.1640625,0 0.6210938,0 1.0078128,-0.1875 v 3.55078128 c 0,0.23437502 0,0.32812502 -0.6914065,0.32812502 H 9.1119062 v 0.2460937 c 0.1289063,-0.011719 0.9843748,-0.023437 1.2421878,-0.023437 0.210937,0 1.089843,0.011719 1.242187,0.023437 V 1.2478594 h -0.257812 c -0.703125,0 -0.703125,-0.09375 -0.703125,-0.32812502 z m 0,0"
         style="fill:#9b9b9b;fill-opacity:1;fill-rule:nonzero;stroke:none" />
    </g>
    <g
       id="g14"
       aria-label="∆&#10;2"
       transform="matrix(1.3333333,0,0,1.3333333,55.110667,67.972)">
      <path
         id="path15"
         d="m 4.4052812,-6.9487266 c -0.070312,-0.1289062 -0.09375,-0.1875 -0.2578125,-0.1875 -0.1757812,0 -0.1992187,0.058594 -0.2578125,0.1875 l -3.37499995,6.75000004 c -0.046875,0.09375 -0.046875,0.10546875 -0.046875,0.1171875 0,0.0820312475 0.0585938,0.0820312475 0.22265625,0.0820312475 H 7.6045 c 0.1523437,0 0.2109375,0 0.2109375,-0.0820312475 0,-0.01171875 0,-0.0234375 -0.046875,-0.1171875 z m -0.5859375,0.8085938 2.6835938,5.37890624 H 1.13575 Z m 0,0"
         style="fill:#9b9b9b;fill-opacity:1;fill-rule:nonzero;stroke:none" />
      <path
         id="path16"
         d="m 11.817391,0.22900781 h -0.234375 c -0.02344,0.15234375 -0.08203,0.5625 -0.175782,0.6328125 -0.05859,0.0351563 -0.597656,0.0351563 -0.691406,0.0351563 H 9.4267656 c 0.7382814,-0.64453125 0.9843754,-0.84375 1.3945314,-1.171875 0.515625,-0.41015625 0.996094,-0.84374991 0.996094,-1.49999991 0,-0.8437501 -0.738282,-1.3593751 -1.628907,-1.3593751 -0.8671871,0 -1.4531246,0.609375 -1.4531246,1.2421876 0,0.3632812 0.3046875,0.3984375 0.375,0.3984375 0.1640625,0 0.375,-0.1171875 0.375,-0.375 0,-0.1289063 -0.058594,-0.3632814 -0.421875,-0.3632814 0.2226562,-0.5039062 0.6914062,-0.65625 1.0195316,-0.65625 0.703125,0 1.066406,0.5507813 1.066406,1.1132813 0,0.609375 -0.433594,1.08984376 -0.65625,1.33593751 L 8.8056719,1.2251016 c -0.070312,0.058594 -0.070312,0.070312 -0.070312,0.2695312 h 2.8828131 z m 0,0"
         style="fill:#9b9b9b;fill-opacity:1;fill-rule:nonzero;stroke:none" />
    </g>
    <g
       id="g16"
       aria-label="∆&#10;3"
       transform="matrix(1.3333333,0,0,1.3333333,25.461333,83.914667)">
      <path
         id="path17"
         d="m 4.4059531,-6.9496719 c -0.070312,-0.1289062 -0.09375,-0.1875 -0.2578125,-0.1875 -0.1757812,0 -0.1992187,0.058594 -0.2578125,0.1875 l -3.37499998,6.75000002 c -0.046875,0.09375 -0.046875,0.10546875 -0.046875,0.1171875 0,0.082031255 0.0585937,0.082031255 0.22265625,0.082031255 H 7.6051719 c 0.1523437,0 0.2109375,0 0.2109375,-0.082031255 0,-0.01171875 0,-0.0234375 -0.046875,-0.1171875 z m -0.5859375,0.8085938 2.6835938,5.37890622 H 1.1364219 Z m 0,0"
         style="fill:#9b9b9b;fill-opacity:1;fill-rule:nonzero;stroke:none" />
      <path
         id="path18"
         d="m 10.200875,-0.83834375 c 0.550781,0 0.9375,0.375 0.9375,1.125 0,0.86718745 -0.503906,1.12499995 -0.902344,1.12499995 -0.2812498,0 -0.8906248,-0.082031 -1.1835935,-0.49218745 C 9.3805625,0.90775 9.450875,0.673375 9.450875,0.53275 c 0,-0.22265625 -0.1640625,-0.38671875 -0.3867188,-0.38671875 -0.1875,0 -0.3867187,0.1171875 -0.3867187,0.41015625 0,0.65625 0.7265625,1.078125 1.5703125,1.078125 0.972656,0 1.640625,-0.64453125 1.640625,-1.34765625 0,-0.5390625 -0.445313,-1.08984375 -1.21875,-1.2421875 0.738281,-0.26953125 0.996094,-0.79687505 0.996094,-1.21875005 0,-0.5507812 -0.632813,-0.9609375 -1.40625,-0.9609375 -0.7734378,0 -1.3593753,0.375 -1.3593753,0.9375 0,0.234375 0.1523438,0.3632813 0.3632813,0.3632813 0.2109375,0 0.3515625,-0.1640625 0.3515625,-0.3515625 0,-0.1992188 -0.140625,-0.3515625 -0.3515625,-0.3632813 C 9.49775,-2.8539688 9.9782187,-2.936 10.236031,-2.936 c 0.316406,0 0.761719,0.1523437 0.761719,0.7617187 0,0.2929688 -0.105469,0.609375 -0.28125,0.8320313 -0.234375,0.2578125 -0.421875,0.28125 -0.7734375,0.2929687 -0.1757813,0.023437 -0.1875,0.023437 -0.2226563,0.023437 -0.011719,0 -0.070312,0.011719 -0.070312,0.0937501 0,0.09375 0.058594,0.09375 0.1757813,0.09375 z m 0,0"
         style="fill:#9b9b9b;fill-opacity:1;fill-rule:nonzero;stroke:none" />
    </g>
    <g
       id="g18"
       aria-label="∆&#10;4"
       transform="matrix(1.3333333,0,0,1.3333333,79.021333,89.253333)">
      <path
         id="path19"
         d="m 4.4048984,-6.9487891 c -0.070312,-0.1289062 -0.09375,-0.1875 -0.2578125,-0.1875 -0.1757812,0 -0.1992187,0.058594 -0.2578125,0.1875 l -3.37499996,6.75000004 c -0.046875,0.09375 -0.046875,0.10546875 -0.046875,0.1171875 0,0.0820312475 0.0585937,0.0820312475 0.22265625,0.0820312475 H 7.6041172 c 0.1523437,0 0.2109375,0 0.2109375,-0.0820312475 0,-0.01171875 0,-0.0234375 -0.046875,-0.1171875 z m -0.5859375,0.8085938 2.6835938,5.37890624 H 1.1353672 Z m 0,0"
         style="fill:#9b9b9b;fill-opacity:1;fill-rule:nonzero;stroke:none" />
      <path
         id="path20"
         d="M 11.995719,0.34613281 V 0.10003906 H 11.222281 V -3.0054297 c 0,-0.1523437 0,-0.1992187 -0.152344,-0.1992187 -0.09375,0 -0.117187,0 -0.1875,0.09375 L 8.5738437,0.10003906 v 0.24609375 h 2.0507813 v 0.57421875 c 0,0.23437504 0,0.32812504 -0.5625,0.32812504 h -0.1875 v 0.2460937 c 0.351562,-0.011719 0.796875,-0.023437 1.042969,-0.023437 0.257812,0 0.703125,0.011719 1.054687,0.023437 V 1.2484766 h -0.1875 c -0.5625,0 -0.5625,-0.09375 -0.5625,-0.32812504 V 0.34613281 Z M 10.6715,-2.4546484 V 0.10003906 H 8.8316562 Z m 0,0"
         style="fill:#9b9b9b;fill-opacity:1;fill-rule:nonzero;stroke:none" />
    </g>
    <g
       id="g20"
       aria-label="∆&#10;(1)"
       transform="matrix(1.3333333,0,0,1.3333333,152.58933,90.416)">
      <path
         id="path21"
         d="m 4.4066328,-6.9506719 c -0.070312,-0.1289062 -0.09375,-0.1875 -0.2578125,-0.1875 -0.1757812,0 -0.1992187,0.058594 -0.2578125,0.1875 l -3.37499999,6.75000003 c -0.046875,0.09375 -0.046875,0.10546875 -0.046875,0.1171875 0,0.08203125 0.0585937,0.08203125 0.22265625,0.08203125 H 7.6058516 c 0.1523437,0 0.2109375,0 0.2109375,-0.08203125 0,-0.01171875 0,-0.0234375 -0.046875,-0.1171875 z m -0.5859375,0.8085938 2.6835938,5.37890623 H 1.1371016 Z m 0,0"
         style="fill:#8b572a;fill-opacity:1;fill-rule:nonzero;stroke:none" />
      <path
         id="path22"
         d="m 10.775773,-8.8403203 c -1.3242183,0.9257812 -1.6757808,2.4140625 -1.6757808,3.4804687 0,0.984375 0.2929687,2.5078125 1.6757808,3.4804688 0.05859,0 0.140625,0 0.140625,-0.082031 0,-0.046875 -0.02344,-0.058594 -0.07031,-0.1054687 -0.9257813,-0.8320313 -1.2656251,-2.015625 -1.2656251,-3.2929688 0,-1.875 0.7148441,-2.8007812 1.2890621,-3.3164062 0.02344,-0.023437 0.04687,-0.046875 0.04687,-0.082031 0,-0.082031 -0.08203,-0.082031 -0.140625,-0.082031 z m 2.970704,0.796875 c 0,-0.1875 -0.01172,-0.1992188 -0.210938,-0.1992188 -0.445312,0.4335938 -1.078125,0.4453125 -1.359375,0.4453125 v 0.2460938 c 0.164063,0 0.621094,0 1.007813,-0.1875 v 3.5507812 c 0,0.234375 0,0.328125 -0.691407,0.328125 h -0.269531 v 0.2460938 c 0.128906,-0.011719 0.984375,-0.023437 1.242188,-0.023437 0.210937,0 1.089843,0.011719 1.242187,0.023437 v -0.2460938 h -0.257812 c -0.703125,0 -0.703125,-0.09375 -0.703125,-0.328125 z m 2.267578,-0.796875 c -0.05859,0 -0.140625,0 -0.140625,0.082031 0,0.035156 0.02344,0.058594 0.07031,0.1054688 0.597656,0.5507812 1.265625,1.4882812 1.265625,3.2929687 0,1.453125 -0.457031,2.5546875 -1.207031,3.234375 -0.117188,0.1171875 -0.128906,0.1289063 -0.128906,0.1640625 0,0.035156 0.02344,0.082031 0.09375,0.082031 0.08203,0 0.75,-0.4570313 1.207031,-1.3242188 0.304687,-0.5859375 0.503906,-1.3359375 0.503906,-2.15625 0,-0.984375 -0.292969,-2.5078125 -1.664062,-3.4804687 z m 0,0"
         style="fill:#8b572a;fill-opacity:1;fill-rule:nonzero;stroke:none" />
    </g>
  </g>
</svg>
