<?xml version="1.0" encoding="UTF-8" standalone="no"?>
<!-- Created with Inkscape (http://www.inkscape.org/) -->

<svg
   version="1.1"
   id="svg1"
   width="420.97333"
   height="239.30667"
   viewBox="0 0 420.97333 239.30667"
   sodipodi:docname="top-invariance-3.pdf"
   xmlns:inkscape="http://www.inkscape.org/namespaces/inkscape"
   xmlns:sodipodi="http://sodipodi.sourceforge.net/DTD/sodipodi-0.dtd"
   xmlns="http://www.w3.org/2000/svg"
   xmlns:svg="http://www.w3.org/2000/svg">
  <defs
     id="defs1" />
  <sodipodi:namedview
     id="namedview1"
     pagecolor="#ffffff"
     bordercolor="#000000"
     borderopacity="0.25"
     inkscape:showpageshadow="2"
     inkscape:pageopacity="0.0"
     inkscape:pagecheckerboard="0"
     inkscape:deskcolor="#d1d1d1">
    <inkscape:page
       x="0"
       y="0"
       inkscape:label="1"
       id="page1"
       width="420.97333"
       height="239.30667"
       margin="0"
       bleed="0" />
  </sodipodi:namedview>
  <g
     id="g1"
     inkscape:groupmode="layer"
     inkscape:label="1">
    <path
       id="path1"
       d="m 135.13995,-57.38553 c 57.53499,29.97049 241.43027,34.49857 187.54912,-14.09234 -53.87367,-48.58344 -14.27167,-45.7067 4.40853,-87.55033 18.68019,-41.84363 -191.21044,-20.89938 -226.3292,4.50568 -35.11876,25.40506 -23.16343,67.16649 34.37155,97.13699 z"
       style="fill:#f5a623;fill-opacity:0.19;fill-rule:nonzero;stroke:#f5a623;stroke-width:1.49442;stroke-linecap:butt;stroke-linejoin:miter;stroke-miterlimit:10;stroke-dasharray:none;stroke-opacity:1"
       transform="matrix(1.3333333,0,0,-1.3333333,-82.112,-29.514667)" />
    <path
       id="path2"
       d="m 130.61188,-117.21445 c 0,14.30902 15.53445,25.90569 34.69284,25.90569 19.16589,0 34.69287,-11.59667 34.69287,-25.90569 0,-14.30903 -15.52698,-25.91316 -34.69287,-25.91316 -19.15839,0 -34.69284,11.60413 -34.69284,25.91316 z"
       style="fill:#ff8796;fill-opacity:0.5;fill-rule:nonzero;stroke:#d0021b;stroke-width:1.49442;stroke-linecap:butt;stroke-linejoin:miter;stroke-miterlimit:10;stroke-dasharray:none;stroke-opacity:1"
       transform="matrix(1.3333333,0,0,-1.3333333,-82.112,-29.514667)" />
    <path
       id="path3"
       d="m 194.1619,-124.06633 5.59657,11.21558 5.61154,-11.20065 -5.61154,5.59658 z"
       style="fill:#d0021b;fill-opacity:1;fill-rule:nonzero;stroke:#d0021b;stroke-width:0.74721;stroke-linecap:butt;stroke-linejoin:miter;stroke-miterlimit:10;stroke-dasharray:none;stroke-opacity:1"
       transform="matrix(1.3333333,0,0,-1.3333333,-82.112,-29.514667)" />
    <path
       id="path4"
       d="m 216.61548,-44.55598 -15.57179,4.84938 13.30775,9.42228 -6.08974,-8.27905 z"
       style="fill:#f5a623;fill-opacity:1;fill-rule:nonzero;stroke:#f5a623;stroke-width:0.74721;stroke-linecap:butt;stroke-linejoin:miter;stroke-miterlimit:10;stroke-dasharray:none;stroke-opacity:1"
       transform="matrix(1.3333333,0,0,-1.3333333,-82.112,-29.514667)" />
    <path
       id="path5"
       d="m 226.80739,-101.44838 c 0,10.7598 12.00763,19.47972 26.83223,19.47972 14.81712,0 26.83223,-8.71992 26.83223,-19.47972 0,-10.75977 -12.01511,-19.48717 -26.83223,-19.48717 -14.8246,0 -26.83223,8.7274 -26.83223,19.48717 z"
       style="fill:#ff8796;fill-opacity:0.5;fill-rule:nonzero;stroke:#d0021b;stroke-width:1.49442;stroke-linecap:butt;stroke-linejoin:miter;stroke-miterlimit:10;stroke-dasharray:none;stroke-opacity:1"
       transform="matrix(1.3333333,0,0,-1.3333333,-82.112,-29.514667)" />
    <path
       id="path6"
       d="m 274.7856,-108.67387 5.59659,11.21559 5.61152,-11.20064 -5.61152,5.59659 z"
       style="fill:#d0021b;fill-opacity:1;fill-rule:nonzero;stroke:#d0021b;stroke-width:0.74721;stroke-linecap:butt;stroke-linejoin:miter;stroke-miterlimit:10;stroke-dasharray:none;stroke-opacity:1"
       transform="matrix(1.3333333,0,0,-1.3333333,-82.112,-29.514667)" />
    <path
       id="path7"
       d="m 121.48848,-127.22704 c -3.82571,16.74494 12.68759,34.79747 36.88965,40.3268 24.20204,5.52934 46.91716,-3.55671 50.74286,-20.30162 3.83319,-16.74494 -12.68758,-34.80493 -36.88964,-40.33427 -24.19458,-5.52935 -46.91715,3.56418 -50.74287,20.30909 z"
       style="fill:none;stroke:#8b572a;stroke-width:1.49442;stroke-linecap:butt;stroke-linejoin:miter;stroke-miterlimit:10;stroke-dasharray:none;stroke-opacity:1"
       transform="matrix(1.3333333,0,0,-1.3333333,-82.112,-29.514667)" />
    <path
       id="path8"
       d="m 246.45149,-45.54977 c 19.72626,1.7933 94.17057,-0.2914 69.34087,-26.00281 -24.82225,-25.71141 -28.28182,-46.31194 -30.78496,-23.3129 -2.49568,22.99906 -51.10901,26.30173 -62.87007,1.61398 -11.76103,-24.69522 34.19972,-44.0479 48.84499,-31.4948 14.64526,12.5531 19.70385,19.7188 25.38264,-0.60523 5.67876,-20.32407 56.19002,-50.5262 -15.34766,-50.69058 -71.53766,-0.16439 -106.27534,4.07229 -141.24464,16.62538 -34.96933,12.55308 -60.68822,32.1075 -32.10753,66.46413 28.58069,34.35659 119.06007,45.60954 138.78636,47.40283 z"
       style="fill:none;stroke:#8b572a;stroke-width:1.49442;stroke-linecap:butt;stroke-linejoin:miter;stroke-miterlimit:10;stroke-dasharray:none;stroke-opacity:0.5"
       transform="matrix(1.3333333,0,0,-1.3333333,-82.112,-29.514667)" />
    <path
       id="path9"
       d="m 178.88148,-64.42422 -16.1322,2.40599 11.70874,11.35009 -4.75222,-9.11593 z"
       style="fill:#8b572a;fill-opacity:0.5;fill-rule:nonzero;stroke:#8b572a;stroke-width:0.74721;stroke-linecap:butt;stroke-linejoin:miter;stroke-miterlimit:10;stroke-dasharray:none;stroke-opacity:0.5"
       transform="matrix(1.3333333,0,0,-1.3333333,-82.112,-29.514667)" />
    <path
       id="path10"
       d="m 217.23566,-111.33394 2.70489,10.51323 6.79213,-8.47334 -5.76845,3.72857 z"
       style="fill:#8b572a;fill-opacity:1;fill-rule:nonzero;stroke:#8b572a;stroke-width:0.74721;stroke-linecap:butt;stroke-linejoin:miter;stroke-miterlimit:10;stroke-dasharray:none;stroke-opacity:0.5"
       transform="matrix(1.3333333,0,0,-1.3333333,-82.112,-29.514667)" />
    <g
       id="g10"
       aria-label="C&#10;0"
       transform="matrix(1.3333333,0,0,1.3333333,344.792,105.99067)">
      <path
         id="path11"
         d="m 7.5710391,-6.9246406 c 0,-0.023437 -0.023437,-0.09375 -0.1054688,-0.09375 -0.035156,0 -0.046875,0.011719 -0.1523437,0.1171875 l -0.703125,0.7617187 c -0.082031,-0.140625 -0.5390625,-0.8789062 -1.6523438,-0.8789062 -2.2148437,0 -4.45312499,2.203125 -4.45312499,4.5117187 0,1.64062503 1.17187499,2.73046878 2.69531249,2.73046878 0.8671875,0 1.6171875,-0.3984375 2.1445313,-0.85546875 0.9375,-0.82031253 1.1015625,-1.72265623 1.1015625,-1.75781253 0,-0.1054687 -0.1054688,-0.1054687 -0.1171875,-0.1054687 -0.058594,0 -0.1171875,0.023437 -0.1289063,0.1054687 -0.09375,0.2929688 -0.3164062,0.9960938 -1.0078125,1.57031253 -0.6914062,0.5625 -1.3125,0.7265625 -1.8398437,0.7265625 -0.890625,0 -1.9453125,-0.515625 -1.9453125,-2.06250003 0,-0.5742187 0.2109375,-2.1914062 1.2070312,-3.3515625 0.609375,-0.703125 1.5351563,-1.2070312 2.4257813,-1.2070312 1.0195312,0 1.6054687,0.7734375 1.6054687,1.921875 0,0.3984375 -0.035156,0.4101562 -0.035156,0.5039062 0,0.1054688 0.1171875,0.1054688 0.1523437,0.1054688 0.1289063,0 0.1289063,-0.023437 0.1757813,-0.1992188 z m 0,0"
         style="fill:#f5a623;fill-opacity:1;fill-rule:nonzero;stroke:none" />
      <path
         id="path12"
         d="M 10.717523,-0.73128125 C 10.717523,-1.493 10.623773,-2.0437812 10.307367,-2.5359687 10.084711,-2.852375 9.6628359,-3.133625 9.1003359,-3.133625 c -1.6171875,0 -1.6171875,1.8984375 -1.6171875,2.40234375 0,0.50390625 0,2.36718755 1.6171875,2.36718755 1.6171871,0 1.6171871,-1.8632813 1.6171871,-2.36718755 z M 9.1003359,1.4366875 c -0.3164062,0 -0.75,-0.1875 -0.890625,-0.76171875 -0.09375,-0.41015625 -0.09375,-0.984375 -0.09375,-1.5 0,-0.50390625 0,-1.03124995 0.1054688,-1.41796875 0.1523437,-0.5507812 0.5976562,-0.6914062 0.8789062,-0.6914062 0.375,0 0.7382813,0.2226562 0.8671875,0.6328125 0.1054686,0.375 0.1171876,0.8789062 0.1171876,1.47656245 0,0.515625 0,1.04296875 -0.09375,1.4765625 C 9.8503359,1.2843438 9.3815859,1.4366875 9.1003359,1.4366875 Z m 0,0"
         style="fill:#f5a623;fill-opacity:1;fill-rule:nonzero;stroke:none" />
    </g>
    <g
       id="g12"
       aria-label="C&#10;1"
       transform="matrix(1.3333333,0,0,1.3333333,117.64133,149.82667)">
      <path
         id="path13"
         d="m 7.5697813,-6.9246875 c 0,-0.023437 -0.023437,-0.09375 -0.1054688,-0.09375 -0.035156,0 -0.046875,0.011719 -0.1523437,0.1171875 l -0.703125,0.7617188 C 6.5268125,-6.2801562 6.0697813,-7.0184375 4.9565,-7.0184375 c -2.2148437,0 -4.453125,2.203125 -4.453125,4.5117188 0,1.64062495 1.171875,2.7304687 2.6953125,2.7304687 0.8671875,0 1.6171875,-0.3984375 2.1445313,-0.85546875 C 6.2807188,-1.4520312 6.4447813,-2.354375 6.4447813,-2.3895312 6.4447813,-2.495 6.3393125,-2.495 6.3275938,-2.495 c -0.058594,0 -0.1171875,0.023437 -0.1289063,0.1054688 -0.09375,0.2929687 -0.3164062,0.9960937 -1.0078125,1.57031245 -0.6914062,0.5625 -1.3125,0.7265625 -1.8398437,0.7265625 -0.890625,0 -1.9453125,-0.515625 -1.9453125,-2.06249995 0,-0.5742188 0.2109375,-2.1914063 1.2070312,-3.3515625 0.609375,-0.703125 1.5351563,-1.2070313 2.4257813,-1.2070313 1.0195312,0 1.6054687,0.7734375 1.6054687,1.921875 0,0.3984375 -0.035156,0.4101563 -0.035156,0.5039063 0,0.1054687 0.1171875,0.1054687 0.1523437,0.1054687 0.1289063,0 0.1289063,-0.023437 0.1757813,-0.1992187 z m 0,0"
         style="fill:#d0021b;fill-opacity:1;fill-rule:nonzero;stroke:none" />
      <path
         id="path14"
         d="m 9.4506406,-2.9344531 c 0,-0.1875 -0.011719,-0.1992188 -0.2109375,-0.1992188 -0.4453125,0.4335938 -1.078125,0.4453125 -1.359375,0.4453125 v 0.2460938 c 0.1640625,0 0.6210938,0 1.0078125,-0.1875 v 3.55078123 c 0,0.23437497 0,0.32812497 -0.6914062,0.32812497 H 7.9272031 v 0.2460938 c 0.1289063,-0.011719 0.984375,-0.023437 1.2421875,-0.023437 0.2109375,0 1.0898434,0.011719 1.2421874,0.023437 V 1.2491406 h -0.257812 c -0.7031254,0 -0.7031254,-0.09375 -0.7031254,-0.32812497 z m 0,0"
         style="fill:#d0021b;fill-opacity:1;fill-rule:nonzero;stroke:none" />
    </g>
    <g
       id="g14"
       aria-label="C&#10;2"
       transform="matrix(1.3333333,0,0,1.3333333,248.652,119.93733)">
      <path
         id="path15"
         d="m 7.5705703,-6.9256563 c 0,-0.023437 -0.023437,-0.09375 -0.1054687,-0.09375 -0.035156,0 -0.046875,0.011719 -0.1523438,0.1171875 L 6.6096328,-6.1405 c -0.082031,-0.140625 -0.5390625,-0.8789063 -1.6523437,-0.8789063 -2.2148438,0 -4.45312504,2.203125 -4.45312504,4.5117188 0,1.640625 1.17187504,2.73046875 2.69531254,2.73046875 0.8671875,0 1.6171875,-0.3984375 2.1445312,-0.85546875 0.9375,-0.8203125 1.1015625,-1.7226563 1.1015625,-1.7578125 0,-0.1054688 -0.1054687,-0.1054688 -0.1171875,-0.1054688 -0.058594,0 -0.1171875,0.023437 -0.1289062,0.1054688 -0.09375,0.2929687 -0.3164063,0.9960937 -1.0078125,1.5703125 -0.6914063,0.5625 -1.3125,0.7265625 -1.8398438,0.7265625 -0.890625,0 -1.9453125,-0.515625 -1.9453125,-2.0625 0,-0.5742188 0.2109375,-2.1914063 1.2070313,-3.3515625 0.609375,-0.703125 1.5351562,-1.2070313 2.4257812,-1.2070313 1.0195313,0 1.6054688,0.7734375 1.6054688,1.921875 0,0.3984375 -0.035156,0.4101563 -0.035156,0.5039063 0,0.1054687 0.1171875,0.1054687 0.1523438,0.1054687 0.1289062,0 0.1289062,-0.023437 0.1757812,-0.1992187 z m 0,0"
         style="fill:#d0021b;fill-opacity:1;fill-rule:nonzero;stroke:none" />
      <path
         id="path16"
         d="m 10.635023,0.22864062 h -0.234375 c -0.02344,0.15234375 -0.08203,0.5625 -0.175781,0.6328125 -0.05859,0.0351563 -0.5976561,0.0351563 -0.6914061,0.0351563 H 8.2443984 c 0.7382813,-0.64453125 0.984375,-0.84375 1.3945313,-1.171875 0.5156253,-0.41015625 0.9960933,-0.84374992 0.9960933,-1.49999992 0,-0.84375 -0.7382808,-1.359375 -1.6289058,-1.359375 -0.8671875,0 -1.453125,0.609375 -1.453125,1.2421875 0,0.3632812 0.3046875,0.3984375 0.375,0.3984375 0.1640625,0 0.375,-0.1171875 0.375,-0.375 0,-0.1289063 -0.058594,-0.3632814 -0.421875,-0.3632814 0.2226562,-0.5039061 0.6914062,-0.65625 1.0195312,-0.65625 0.703125,0 1.0664063,0.5507814 1.0664063,1.1132814 0,0.609375 -0.4335938,1.08984367 -0.65625,1.33593742 l -1.6875,1.66406248 c -0.070312,0.058594 -0.070312,0.070312 -0.070312,0.2695312 h 2.8828133 z m 0,0"
         style="fill:#d0021b;fill-opacity:1;fill-rule:nonzero;stroke:none" />
    </g>
  </g>
</svg>
