<?xml version="1.0" encoding="UTF-8" standalone="no"?>
<!-- Created with Inkscape (http://www.inkscape.org/) -->

<svg
   version="1.1"
   id="svg1"
   width="160.97333"
   height="180.92"
   viewBox="0 0 160.97333 180.92"
   sodipodi:docname="triangle-subdivision-example.pdf"
   xmlns:inkscape="http://www.inkscape.org/namespaces/inkscape"
   xmlns:sodipodi="http://sodipodi.sourceforge.net/DTD/sodipodi-0.dtd"
   xmlns="http://www.w3.org/2000/svg"
   xmlns:svg="http://www.w3.org/2000/svg">
  <defs
     id="defs1" />
  <sodipodi:namedview
     id="namedview1"
     pagecolor="#ffffff"
     bordercolor="#000000"
     borderopacity="0.25"
     inkscape:showpageshadow="2"
     inkscape:pageopacity="0.0"
     inkscape:pagecheckerboard="0"
     inkscape:deskcolor="#d1d1d1">
    <inkscape:page
       x="0"
       y="0"
       inkscape:label="1"
       id="page1"
       width="160.97333"
       height="180.92"
       margin="0"
       bleed="0" />
  </sodipodi:namedview>
  <g
     id="g1"
     inkscape:groupmode="layer"
     inkscape:label="1">
    <path
       id="path1"
       d="m 69.93935,-30.48637 c 21.41217,21.59602 78.79831,40.42581 84.62658,-8.89037 5.82828,-49.31621 -23.71661,-12.99707 -35.82148,-49.31172 -12.10491,-36.31467 -49.71076,-32.91632 -62.3626,-23.76592 -12.65184,9.15488 -7.85472,60.372 13.5575,81.96801 z"
       style="fill:#f5a623;fill-opacity:0.19;fill-rule:nonzero;stroke:#f5a623;stroke-width:0.74721;stroke-linecap:butt;stroke-linejoin:miter;stroke-miterlimit:10;stroke-dasharray:0.83687, 2.50064;stroke-dashoffset:0;stroke-opacity:1"
       transform="matrix(1.3333333,0,0,-1.3333333,-53.384,13.753333)" />
    <path
       id="path2"
       d="m 86.19574,-99.677 c 25.10643,7.6216 -3.81081,22.92306 6.72493,34.52135 10.53575,11.59826 26.22726,-2.40752 41.02213,24.94055"
       style="fill:none;stroke:#8b572a;stroke-width:1.49442;stroke-linecap:butt;stroke-linejoin:miter;stroke-miterlimit:10;stroke-dasharray:none;stroke-opacity:1"
       transform="matrix(1.3333333,0,0,-1.3333333,-53.384,13.753333)" />
    <path
       id="path3"
       d="m 99.19205,-86.07687 -5.1371,4.24336 -0.10007,-6.66422 1.77415,3.04256 z"
       style="fill:#8b572a;fill-opacity:1;fill-rule:nonzero;stroke:#000000;stroke-width:0.0797;stroke-linecap:butt;stroke-linejoin:miter;stroke-miterlimit:10;stroke-dasharray:none;stroke-opacity:0"
       transform="matrix(1.3333333,0,0,-1.3333333,-53.384,13.753333)" />
    <path
       id="path4"
       d="m 114.85487,-61.21867 4.3648,5.03408 -6.65975,0.25928 2.99922,-1.84631 z"
       style="fill:#8b572a;fill-opacity:1;fill-rule:nonzero;stroke:#000000;stroke-width:0.0797;stroke-linecap:butt;stroke-linejoin:miter;stroke-miterlimit:10;stroke-dasharray:none;stroke-opacity:0"
       transform="matrix(1.3333333,0,0,-1.3333333,-53.384,13.753333)" />
    <path
       id="path5"
       d="m 86.19574,-99.677 c 4.25912,18.66395 -13.31537,28.90826 -2.77964,40.50206 10.54021,11.59828 27.43774,3.49248 50.5267,18.95984"
       style="fill:none;stroke:#8b572a;stroke-width:1.49442;stroke-linecap:butt;stroke-linejoin:miter;stroke-miterlimit:10;stroke-dasharray:none;stroke-opacity:0.3"
       transform="matrix(1.3333333,0,0,-1.3333333,-53.384,13.753333)" />
    <path
       id="path6"
       d="m 87.06833,-80.51563 -4.91651,4.49695 -0.436,-6.65059 1.92531,2.94917 z"
       style="fill:#8b572a;fill-opacity:0.3;fill-rule:nonzero;stroke:#000000;stroke-width:0.0797;stroke-linecap:butt;stroke-linejoin:miter;stroke-miterlimit:10;stroke-dasharray:none;stroke-opacity:0"
       transform="matrix(1.3333333,0,0,-1.3333333,-53.384,13.753333)" />
    <path
       id="path7"
       d="m 106.69528,-53.70718 5.28386,4.05923 -6.47344,1.58645 2.56928,-2.4091 z"
       style="fill:#8b572a;fill-opacity:0.3;fill-rule:nonzero;stroke:#000000;stroke-width:0.0797;stroke-linecap:butt;stroke-linejoin:miter;stroke-miterlimit:10;stroke-dasharray:none;stroke-opacity:0"
       transform="matrix(1.3333333,0,0,-1.3333333,-53.384,13.753333)" />
    <path
       id="path8"
       d="m 132.37364,-40.2151 c 0,0.86976 0.6994,1.56913 1.56916,1.56913 0.86527,0 1.56915,-0.69937 1.56915,-1.56913 0,-0.86528 -0.70388,-1.56916 -1.56915,-1.56916 -0.86976,0 -1.56916,0.70388 -1.56916,1.56916 z"
       style="fill:#000000;fill-opacity:1;fill-rule:nonzero;stroke:#000000;stroke-width:0.74721;stroke-linecap:butt;stroke-linejoin:miter;stroke-miterlimit:10;stroke-dasharray:none;stroke-opacity:1"
       transform="matrix(1.3333333,0,0,-1.3333333,-53.384,13.753333)" />
    <path
       id="path9"
       d="m 84.62659,-99.677 c 0,0.86528 0.70388,1.56915 1.56915,1.56915 0.86528,0 1.56916,-0.70387 1.56916,-1.56915 0,-0.86528 -0.70388,-1.56915 -1.56916,-1.56915 -0.86527,0 -1.56915,0.70387 -1.56915,1.56915 z"
       style="fill:#000000;fill-opacity:1;fill-rule:nonzero;stroke:#000000;stroke-width:0.74721;stroke-linecap:butt;stroke-linejoin:miter;stroke-miterlimit:10;stroke-dasharray:none;stroke-opacity:1"
       transform="matrix(1.3333333,0,0,-1.3333333,-53.384,13.753333)" />
    <g
       id="g9"
       aria-label="z&#10;0"
       transform="matrix(1.3333333,0,0,1.3333333,64.233333,155.90267)">
      <path
         id="path10"
         d="M 1.325,-0.83227344 C 1.8640625,-1.4064922 2.1570312,-1.6525859 2.5085937,-1.9572734 c 0,-0.011719 0.6210938,-0.5390625 0.984375,-0.9023438 0.9375,-0.9257812 1.1601563,-1.40625 1.1601563,-1.4414062 0,-0.1054688 -0.09375,-0.1054688 -0.1054688,-0.1054688 -0.070312,0 -0.1054687,0.023437 -0.1523437,0.1171875 -0.3046875,0.46875 -0.5039063,0.6328125 -0.75,0.6328125 -0.234375,0 -0.3515625,-0.1523437 -0.5039063,-0.3164062 C 2.9539062,-4.2072734 2.778125,-4.4064922 2.45,-4.4064922 c -0.75,0 -1.2070313,0.9257813 -1.2070313,1.1367188 0,0.046875 0.035156,0.1171875 0.1171875,0.1171875 0.09375,0 0.1171875,-0.058594 0.140625,-0.1171875 0.1875,-0.4570313 0.7617188,-0.46875 0.84375,-0.46875 0.2109375,0 0.3984375,0.070312 0.6210938,0.1523437 0.3984375,0.1523438 0.515625,0.1523438 0.7734375,0.1523438 C 3.3757812,-3.0119609 2.54375,-2.2971172 2.35625,-2.1330547 L 1.4539062,-1.3010234 C 0.77421875,-0.63305469 0.434375,-0.05883594 0.434375,0.01147656 c 0,0.09375 0.09375,0.09375 0.1171875,0.09375 0.0820313,0 0.09375,-0.01171875 0.15234375,-0.12890625 0.234375,-0.33984375 0.52734375,-0.609375 0.85546875,-0.609375 0.2226562,0 0.328125,0.0820313 0.5742187,0.375 0.1640625,0.2109375 0.3515625,0.36328125 0.6328125,0.36328125 0.984375,0 1.5703125,-1.26562496 1.5703125,-1.53515626 0,-0.046875 -0.046875,-0.09375 -0.1171875,-0.09375 -0.09375,0 -0.1171875,0.058594 -0.140625,0.1289063 -0.234375,0.64453121 -0.8671875,0.83203121 -1.1953125,0.83203121 -0.1992187,0 -0.3867187,-0.0585938 -0.5859375,-0.12890625 -0.3398437,-0.12890625 -0.4921875,-0.1640625 -0.703125,-0.1640625 -0.023437,0 -0.1757812,0 -0.2695312,0.0234375 z m 0,0"
         style="fill:#000000;fill-opacity:1;fill-rule:nonzero;stroke:none" />
      <path
         id="path11"
         d="m 8.2302734,-0.73266406 c 0,-0.76171874 -0.09375,-1.31250004 -0.4101562,-1.80468754 -0.2226563,-0.3164062 -0.6445313,-0.5976562 -1.2070313,-0.5976562 -1.6171875,0 -1.6171875,1.8984375 -1.6171875,2.40234374 0,0.50390625 0,2.36718746 1.6171875,2.36718746 1.6171875,0 1.6171875,-1.86328121 1.6171875,-2.36718746 z M 6.6130859,1.4353047 c -0.3164062,0 -0.75,-0.1875 -0.890625,-0.76171876 -0.09375,-0.41015625 -0.09375,-0.984375 -0.09375,-1.5 0,-0.50390624 0,-1.03125004 0.1054688,-1.41796874 0.1523437,-0.5507813 0.5976562,-0.6914063 0.8789062,-0.6914063 0.375,0 0.7382813,0.2226563 0.8671875,0.6328125 0.1054688,0.375 0.1171875,0.8789063 0.1171875,1.47656254 0,0.515625 0,1.04296875 -0.09375,1.4765625 C 7.3630859,1.2829609 6.8943359,1.4353047 6.6130859,1.4353047 Z m 0,0"
         style="fill:#000000;fill-opacity:1;fill-rule:nonzero;stroke:none" />
    </g>
    <path
       id="path12"
       d="M 1.3231172,-0.83128906 C 1.8621797,-1.4055078 2.1551484,-1.6516016 2.5067109,-1.9562891 c 0,-0.011719 0.6210938,-0.5390625 0.984375,-0.9023437 0.9375,-0.9257813 1.1601563,-1.40625 1.1601563,-1.4414063 0,-0.1054687 -0.09375,-0.1054687 -0.1054688,-0.1054687 -0.070312,0 -0.1054687,0.023437 -0.1523437,0.1171875 -0.3046875,0.46875 -0.5039063,0.6328125 -0.75,0.6328125 -0.234375,0 -0.3515625,-0.1523438 -0.5039063,-0.3164063 -0.1875,-0.234375 -0.3632812,-0.4335937 -0.6914062,-0.4335937 -0.75,0 -1.2070313,0.9257812 -1.2070313,1.1367187 0,0.046875 0.035156,0.1171875 0.1171875,0.1171875 0.09375,0 0.1171875,-0.058594 0.140625,-0.1171875 0.1875,-0.4570312 0.7617188,-0.46875 0.84375,-0.46875 0.2109375,0 0.3984375,0.070312 0.6210938,0.1523438 0.3984375,0.1523437 0.515625,0.1523437 0.7734375,0.1523437 -0.3632813,0.421875 -1.1953125,1.1367188 -1.3828125,1.3007813 l -0.9023438,0.8320312 c -0.67968746,0.66796879 -1.01953121,1.24218754 -1.01953121,1.31250004 0,0.09375 0.09375,0.09375 0.1171875,0.09375 0.0820313,0 0.09375,-0.01171875 0.15234375,-0.12890625 0.234375,-0.33984375 0.52734376,-0.609375 0.85546876,-0.609375 0.2226562,0 0.328125,0.0820313 0.5742187,0.375 0.1640625,0.2109375 0.3515625,0.36328125 0.6328125,0.36328125 0.984375,0 1.5703125,-1.26562504 1.5703125,-1.53515624 0,-0.046875 -0.046875,-0.09375 -0.1171875,-0.09375 -0.09375,0 -0.1171875,0.058594 -0.140625,0.1289062 -0.234375,0.64453129 -0.8671875,0.83203129 -1.1953125,0.83203129 -0.1992187,0 -0.3867187,-0.0585938 -0.5859375,-0.12890625 -0.3398437,-0.12890625 -0.4921875,-0.1640625 -0.703125,-0.1640625 -0.023437,0 -0.1757812,0 -0.2695312,0.0234375 z m 0,0"
       style="fill:#000000;fill-opacity:1;fill-rule:nonzero;stroke:none"
       aria-label="z"
       transform="matrix(1.3333333,0,0,1.3333333,127.896,63.846667)" />
  </g>
</svg>
