<?xml version="1.0" encoding="UTF-8" standalone="no"?>
<!-- Created with Inkscape (http://www.inkscape.org/) -->

<svg
   version="1.1"
   id="svg1"
   width="254.48"
   height="218.18668"
   viewBox="0 0 254.48 218.18668"
   sodipodi:docname="uniformly-convergent.pdf"
   xmlns:inkscape="http://www.inkscape.org/namespaces/inkscape"
   xmlns:sodipodi="http://sodipodi.sourceforge.net/DTD/sodipodi-0.dtd"
   xmlns="http://www.w3.org/2000/svg"
   xmlns:svg="http://www.w3.org/2000/svg">
  <defs
     id="defs1" />
  <sodipodi:namedview
     id="namedview1"
     pagecolor="#ffffff"
     bordercolor="#000000"
     borderopacity="0.25"
     inkscape:showpageshadow="2"
     inkscape:pageopacity="0.0"
     inkscape:pagecheckerboard="0"
     inkscape:deskcolor="#d1d1d1">
    <inkscape:page
       x="0"
       y="0"
       inkscape:label="1"
       id="page1"
       width="254.48"
       height="218.18668"
       margin="0"
       bleed="0" />
  </sodipodi:namedview>
  <g
     id="g1"
     inkscape:groupmode="layer"
     inkscape:label="1">
    <path
       id="path1"
       d="m 104.60907,-56.04057 c 20.35393,22.28923 61.09167,42.71786 74.54141,-4.35622 13.44974,-47.07408 39.60201,-24.65785 58.2822,-66.50148 18.68019,-41.84363 -97.8842,-49.3157 -133.00296,-23.91064 -35.11876,25.40506 -20.17461,72.47914 0.17935,94.76834 z"
       style="fill:#f5a623;fill-opacity:0.19;fill-rule:nonzero;stroke:#f5a623;stroke-width:0.74721;stroke-linecap:butt;stroke-linejoin:miter;stroke-miterlimit:10;stroke-dasharray:0.83687, 2.50064;stroke-dashoffset:0;stroke-opacity:1"
       transform="matrix(1.3333333,0,0,-1.3333333,-87.492,-17.26)" />
    <path
       id="path2"
       d="m 158.14648,-69.28108 c 41.00676,-20.83962 44.16744,-91.98874 9.04868,-59.1116 -35.11876,32.87713 -23.91064,-17.93299 -47.82129,-2.98884 -23.91064,14.94416 -2.24162,82.94005 38.77261,62.10044 z"
       style="fill:#8b572a;fill-opacity:1;fill-rule:nonzero;stroke:#54351a;stroke-width:1.49442;stroke-linecap:butt;stroke-linejoin:miter;stroke-miterlimit:10;stroke-dasharray:none;stroke-opacity:1"
       transform="matrix(1.3333333,0,0,-1.3333333,-87.492,-17.26)" />
    <path
       id="path3"
       d="m 2.2494766,-1.0663125 c -0.1289063,0.50390625 -0.1523438,0.65625 -1.1601563,0.65625 -0.26953124,0 -0.41015624,0 -0.41015624,0.2578125 0,0.15234375 0.0820313,0.15234375 0.36328124,0.15234375 h 4.546875 c 2.90625,0 5.7304687,-2.99999995 5.7304687,-6.19921875 0,-2.0625 -1.242187,-3.5976562 -3.2929687,-3.5976562 h -4.59375 c -0.28125,0 -0.4101562,0 -0.4101562,0.2695312 0,0.1523438 0.1289062,0.1523438 0.3515625,0.1523438 0.8671875,0 0.8671875,0.1054687 0.8671875,0.2695312 0,0.023437 0,0.1171875 -0.058594,0.328125 z M 5.2729141,-8.824125 c 0.1289062,-0.5273437 0.1875,-0.5507812 0.75,-0.5507812 h 1.5820312 c 1.3476563,0 2.5781247,0.7265625 2.5781247,2.7070312 0,0.7148438 -0.2812497,3.2109375 -1.6757809,4.7929688 -0.3984375,0.46875 -1.4882813,1.4648437 -3.140625,1.4648437 h -1.640625 c -0.1992188,0 -0.2226563,0 -0.3164063,-0.0234375 -0.1523437,-0.0117188 -0.1640625,-0.0351563 -0.1640625,-0.15234375 0,-0.10546875 0.023437,-0.1875 0.058594,-0.31640625 z m 0,0"
       style="fill:#f5a623;fill-opacity:1;fill-rule:nonzero;stroke:none"
       aria-label="D"
       transform="matrix(1.3333333,0,0,1.3333333,203.91867,98.328)" />
    <path
       id="path4"
       d="m -137.619,93.151 h 11.32"
       style="fill:none;stroke:#8b572a;stroke-width:0.3985;stroke-linecap:butt;stroke-linejoin:miter;stroke-miterlimit:10;stroke-dasharray:none;stroke-opacity:1"
       transform="matrix(1.3333333,0,0,-1.3333333,222.35733,225.868)" />
    <g
       id="g4"
       aria-label="D&#10;′"
       transform="matrix(1.3333333,0,0,1.3333333,38.865333,112.60267)">
      <path
         id="path5"
         d="m 1.5834219,-0.77426562 c -0.09375,0.38671875 -0.1171875,0.46875 -0.90234378,0.46875 -0.17578125,0 -0.28125,0 -0.28125,0.1875 0,0.117187495 0.09375,0.117187495 0.28125,0.117187495 H 3.9740469 c 2.0742187,0 4.03125,-2.097656275 4.03125,-4.289062475 0,-1.3945313 -0.84375,-2.5195313 -2.3320313,-2.5195313 H 2.3217031 c -0.1875,0 -0.2929687,0 -0.2929687,0.1992188 0,0.1171875 0.082031,0.1171875 0.28125,0.1171875 0.1289062,0 0.3164062,0.011719 0.4335937,0.011719 0.1523438,0.023437 0.2109375,0.058594 0.2109375,0.1640625 0,0.035156 0,0.070312 -0.035156,0.1875 z m 2.15625,-5.34374998 c 0.082031,-0.3515625 0.1054687,-0.375 0.5390625,-0.375 h 1.0664062 c 0.9726563,0 1.7929688,0.5273437 1.7929688,1.8398437 0,0.4921875 -0.1992188,2.1210938 -1.0429688,3.2226563 -0.28125,0.3632812 -1.078125,1.12499998 -2.296875,1.12499998 h -1.125 c -0.140625,0 -0.1640625,0 -0.2226562,-0.0117188 -0.09375,-0.0117188 -0.1289063,-0.0234375 -0.1289063,-0.10546875 0,-0.0234375 0,-0.046875 0.046875,-0.22265625 z m 0,0"
         style="fill:#8b572a;fill-opacity:1;fill-rule:nonzero;stroke:none" />
      <path
         id="path6"
         d="m 10.551195,-6.17075 c 0.04687,-0.1171875 0.05859,-0.1757812 0.05859,-0.2226562 0,-0.2109375 -0.199219,-0.3867188 -0.410156,-0.3867188 -0.2695314,0 -0.3515627,0.2226563 -0.3867189,0.328125 l -0.9140625,3.0234375 c -0.011719,0.011719 -0.035156,0.1054688 -0.035156,0.1171875 0,0.082031 0.2109375,0.1523438 0.2695313,0.1523438 0.046875,0 0.058594,-0.023437 0.1054687,-0.1289063 z m 0,0"
         style="fill:#8b572a;fill-opacity:1;fill-rule:nonzero;stroke:none" />
    </g>
    <path
       id="path7"
       d="m 4.1371797,-1.1846641 c 0,-0.1054687 -0.1054688,-0.1054687 -0.1289063,-0.1054687 -0.09375,0 -0.1171875,0.046875 -0.1289062,0.1054687 -0.2929688,0.92578129 -0.9375,1.04296879 -1.3125,1.04296879 -0.5273438,0 -1.40625,-0.421875 -1.40625,-2.02734379 0,-1.6289062 0.8203125,-2.0507812 1.3476562,-2.0507812 0.09375,0 0.7148438,0.011719 1.0664063,0.375 -0.4101563,0.023437 -0.46875,0.328125 -0.46875,0.4570312 0,0.2578125 0.1875,0.4570313 0.4570312,0.4570313 0.2578125,0 0.4570313,-0.1640625 0.4570313,-0.46875 0,-0.6796875 -0.75,-1.0664063 -1.5234375,-1.0664063 -1.2421875,0 -2.15625001,1.078125 -2.15625001,2.3085938 0,1.27734374 0.98437501,2.26171874 2.14453121,2.26171874 1.3359375,0 1.6523438,-1.19531254 1.6523438,-1.28906254 z m 4.9746094,-0.9492187 c 0,-1.2773438 -0.9960938,-2.3320313 -2.1914063,-2.3320313 -1.2539062,0 -2.2148437,1.0898438 -2.2148437,2.3320313 0,1.28906249 1.03125,2.23828124 2.203125,2.23828124 1.2070312,0 2.203125,-0.97265625 2.203125,-2.23828124 z m -0.8203125,-0.082031 c 0,0.3632813 0,0.9023438 -0.2226563,1.33593754 -0.2226562,0.4453125 -0.65625,0.73828125 -1.1484375,0.73828125 -0.4335937,0 -0.8671875,-0.2109375 -1.1367187,-0.66796875 C 5.5258516,-1.2432578 5.5258516,-1.8526328 5.5258516,-2.2159141 c 0,-0.3867187 0,-0.9257812 0.2460937,-1.359375 0.2695313,-0.4570312 0.7382813,-0.6679687 1.1367188,-0.6679687 0.4335937,0 0.8671875,0.2226562 1.125,0.6445312 0.2578125,0.4335938 0.2578125,1.0078125 0.2578125,1.3828128 z m 6.4453124,2.21484379 v -0.3046875 c -0.515625,0 -0.773437,0 -0.785156,-0.3046875 V -2.5088828 c 0,-0.8554688 0,-1.171875 -0.304688,-1.5234375 -0.140625,-0.1757813 -0.46875,-0.375 -1.042968,-0.375 -0.726563,0 -1.195313,0.4335937 -1.476563,1.0546875 v -1.0546875 l -1.4062499,0.1171875 v 0.3046875 c 0.7031249,0 0.7851559,0.070312 0.7851559,0.5625 v 2.66015624 c 0,0.45703125 -0.117187,0.45703125 -0.7851559,0.45703125 v 0.3046875 l 1.1249999,-0.03515625 1.113281,0.03515625 v -0.3046875 c -0.65625,0 -0.773437,0 -0.773437,-0.45703125 V -2.5909141 c 0,-1.03125 0.714844,-1.59375 1.347656,-1.59375 0.621094,0 0.738281,0.5390625 0.738281,1.1015625 v 2.32031254 c 0,0.45703125 -0.117187,0.45703125 -0.773437,0.45703125 v 0.3046875 l 1.125,-0.03515625 z m 3.243164,-1.23046879 v -0.5742187 h -0.246094 v 0.5507812 c 0,0.73828129 -0.304687,1.11328129 -0.667968,1.11328129 -0.667969,0 -0.667969,-0.90234379 -0.667969,-1.07812499 v -2.765625 h 1.429687 v -0.3046875 h -1.429687 v -1.8398438 h -0.246094 c -0.01172,0.8203125 -0.316406,1.8867188 -1.289062,1.921875 v 0.2226563 h 0.84375 v 2.7539062 c 0,1.21875004 0.925781,1.33593754 1.289062,1.33593754 0.703125,0 0.984375,-0.703125 0.984375,-1.33593754 z m 2.481445,0.70312504 c 0,-0.29296875 -0.234375,-0.52734374 -0.527343,-0.52734374 -0.28125,0 -0.527344,0.23437499 -0.527344,0.52734374 0,0.29296875 0.246094,0.52734375 0.527344,0.52734375 0.292968,0 0.527343,-0.234375 0.527343,-0.52734375 z m 0,0"
       style="fill:#000000;fill-opacity:1;fill-rule:nonzero;stroke:none"
       aria-label="cont."
       transform="matrix(1.3333333,0,0,1.3333333,85.362667,53.505333)" />
    <path
       id="path8"
       d="M 5.3312578,-1.40625e-4 V -0.30482812 c -0.703125,0 -0.7851562,-0.0703125 -0.7851562,-0.5625 V -4.4063906 l -1.453125,0.1171875 v 0.3046875 c 0.6914062,0 0.7734375,0.070312 0.7734375,0.5625 v 1.7695312 c 0,0.86718753 -0.4804688,1.54687503 -1.2070313,1.54687503 -0.8320312,0 -0.8789062,-0.46875 -0.8789062,-0.99609373 v -3.3046875 l -1.46484379,0.1171875 v 0.3046875 c 0.78515629,0 0.78515629,0.035156 0.78515629,0.9140625 v 1.5 c 0,0.77343748 0,1.67578123 1.5117187,1.67578123 0.5507813,0 0.9960938,-0.26953125 1.2773438,-0.890625 v 0.890625 z m 5.5400392,0 V -0.30482812 c -0.515625,0 -0.773438,0 -0.785156,-0.3046875 V -2.5079531 c 0,-0.8554688 0,-1.171875 -0.3046879,-1.5234375 -0.140625,-0.1757813 -0.46875,-0.375 -1.0429687,-0.375 -0.7265625,0 -1.1953125,0.4335937 -1.4765625,1.0546875 v -1.0546875 l -1.40625,0.1171875 v 0.3046875 c 0.703125,0 0.7851562,0.070312 0.7851562,0.5625 v 2.66015623 c 0,0.45703125 -0.1171875,0.45703125 -0.7851562,0.45703125 v 0.304687495 l 1.125,-0.035156245 1.1132812,0.035156245 V -0.30482812 c -0.65625,0 -0.7734375,0 -0.7734375,-0.45703125 V -2.5899844 c 0,-1.03125 0.7148438,-1.59375 1.3476563,-1.59375 0.6210937,0 0.7382812,0.5390625 0.7382812,1.1015625 v 2.32031253 c 0,0.45703125 -0.1171875,0.45703125 -0.7734375,0.45703125 v 0.304687495 l 1.125,-0.035156245 z m 2.668945,0 V -0.30482812 c -0.65625,0 -0.703125,-0.0585938 -0.703125,-0.4453125 V -4.4063906 l -1.394531,0.1171875 v 0.3046875 c 0.65625,0 0.738281,0.058594 0.738281,0.5507812 v 2.67187503 c 0,0.45703125 -0.105469,0.45703125 -0.773437,0.45703125 v 0.304687495 l 1.101562,-0.035156245 c 0.339844,0 0.691406,0.0234375 1.03125,0.035156245 z M 12.989461,-6.0118594 c 0,-0.2695312 -0.222656,-0.5273437 -0.527344,-0.5273437 -0.339844,0 -0.539062,0.2695312 -0.539062,0.5273437 0,0.2695313 0.234375,0.5273438 0.527343,0.5273438 0.339844,0 0.539063,-0.28125 0.539063,-0.5273438 z m 2.768555,5.48437503 c 0,-0.29296875 -0.234375,-0.52734373 -0.527344,-0.52734373 -0.28125,0 -0.527344,0.23437498 -0.527344,0.52734373 0,0.29296875 0.246094,0.527343745 0.527344,0.527343745 0.292969,0 0.527344,-0.234374995 0.527344,-0.527343745 z m 9.418945,-0.65625003 c 0,-0.1054687 -0.105469,-0.1054687 -0.128906,-0.1054687 -0.09375,0 -0.117188,0.046875 -0.128907,0.1054687 -0.292968,0.92578128 -0.9375,1.04296878 -1.3125,1.04296878 -0.527343,0 -1.40625,-0.421875 -1.40625,-2.02734378 0,-1.6289062 0.820313,-2.0507812 1.347657,-2.0507812 0.09375,0 0.714843,0.011719 1.066406,0.375 -0.410156,0.023437 -0.46875,0.328125 -0.46875,0.4570312 0,0.2578125 0.1875,0.4570313 0.457031,0.4570313 0.257813,0 0.457031,-0.1640625 0.457031,-0.46875 0,-0.6796875 -0.75,-1.0664063 -1.523437,-1.0664063 -1.242188,0 -2.15625,1.078125 -2.15625,2.3085938 0,1.27734373 0.984375,2.26171873 2.144531,2.26171873 1.335938,0 1.652344,-1.19531253 1.652344,-1.28906253 z m 4.974609,-0.9492187 c 0,-1.2773438 -0.996093,-2.3320313 -2.191406,-2.3320313 -1.253906,0 -2.214844,1.0898438 -2.214844,2.3320313 0,1.28906248 1.03125,2.23828123 2.203125,2.23828123 1.207032,0 2.203125,-0.97265625 2.203125,-2.23828123 z m -0.820312,-0.082031 c 0,0.3632813 0,0.9023438 -0.222656,1.33593753 -0.222657,0.4453125 -0.65625,0.73828125 -1.148438,0.73828125 -0.433594,0 -0.867187,-0.2109375 -1.136719,-0.66796875 -0.257812,-0.43359373 -0.257812,-1.04296873 -0.257812,-1.40625003 0,-0.3867187 0,-0.9257812 0.246094,-1.359375 0.269531,-0.4570312 0.738281,-0.6679687 1.136718,-0.6679687 0.433594,0 0.867188,0.2226562 1.125,0.6445312 0.257813,0.4335938 0.257813,1.0078125 0.257813,1.3828125 z M 35.77657,-1.40625e-4 V -0.30482812 c -0.515625,0 -0.773437,0 -0.785156,-0.3046875 V -2.5079531 c 0,-0.8554688 0,-1.171875 -0.304687,-1.5234375 -0.140625,-0.1757813 -0.46875,-0.375 -1.042969,-0.375 -0.726563,0 -1.195313,0.4335937 -1.476563,1.0546875 v -1.0546875 l -1.40625,0.1171875 v 0.3046875 c 0.703125,0 0.785157,0.070312 0.785157,0.5625 v 2.66015623 c 0,0.45703125 -0.117188,0.45703125 -0.785157,0.45703125 v 0.304687495 l 1.125,-0.035156245 1.113282,0.035156245 V -0.30482812 c -0.65625,0 -0.773438,0 -0.773438,-0.45703125 V -2.5899844 c 0,-1.03125 0.714844,-1.59375 1.347656,-1.59375 0.621094,0 0.738282,0.5390625 0.738282,1.1015625 v 2.32031253 c 0,0.45703125 -0.117188,0.45703125 -0.773438,0.45703125 v 0.304687495 l 1.125,-0.035156245 z M 39.019734,-1.2306094 v -0.5742187 h -0.246093 v 0.5507812 c 0,0.73828128 -0.304688,1.11328128 -0.667969,1.11328128 -0.667969,0 -0.667969,-0.90234378 -0.667969,-1.07812498 v -2.765625 h 1.429688 v -0.3046875 h -1.429688 v -1.8398438 h -0.246094 c -0.01172,0.8203125 -0.316406,1.8867188 -1.289062,1.921875 v 0.2226563 h 0.84375 v 2.7539062 c 0,1.21875003 0.925781,1.33593753 1.289062,1.33593753 0.703125,0 0.984375,-0.703125 0.984375,-1.33593753 z m 2.481446,0.70312503 c 0,-0.29296875 -0.234375,-0.52734373 -0.527344,-0.52734373 -0.28125,0 -0.527344,0.23437498 -0.527344,0.52734373 0,0.29296875 0.246094,0.527343745 0.527344,0.527343745 0.292969,0 0.527344,-0.234374995 0.527344,-0.527343745 z m 0,0"
       style="fill:#ffffff;fill-opacity:1;fill-rule:nonzero;stroke:none"
       aria-label="uni.cont."
       transform="matrix(1.3333333,0,0,1.3333333,82.044,114.508)" />
  </g>
</svg>
