<?xml version="1.0" encoding="UTF-8" standalone="no"?>
<!-- Created with Inkscape (http://www.inkscape.org/) -->

<svg
   version="1.1"
   id="svg1"
   width="363.88"
   height="145.21333"
   viewBox="0 0 363.88 145.21333"
   xmlns="http://www.w3.org/2000/svg"
   xmlns:svg="http://www.w3.org/2000/svg">
  <defs
     id="defs1" />
  <g
     id="g1">
    <path
       id="path1"
       d="m 57.97408,-29.92851 c 10.46086,5.23044 104.60861,-7.38536 98.85513,-31.96839 -5.75348,-24.58302 -65.69421,0.49166 -64.12508,-27.75265 1.56914,-28.24434 -19.22706,-26.88443 -32.95172,-17.78348 -13.72462,9.10094 -12.2392,72.27409 -1.77833,77.50452 z"
       style="fill:#f3ff00;fill-opacity:0.37;fill-rule:nonzero;stroke:#000000;stroke-width:0.74721;stroke-linecap:butt;stroke-linejoin:miter;stroke-miterlimit:10;stroke-dasharray:0.83687, 2.50064;stroke-dashoffset:0;stroke-opacity:1"
       transform="matrix(1.3333333,0,0,-1.3333333,-31.928,-12.474667)" />
    <path
       id="path2"
       d="m 66.42645,-49.10327 c 0,0.89964 0.73225,1.63191 1.6319,1.63191 0.89963,0 1.6319,-0.73227 1.6319,-1.63191 0,-0.89963 -0.73227,-1.6319 -1.6319,-1.6319 -0.89965,0 -1.6319,0.73227 -1.6319,1.6319 z"
       style="fill:#000000;fill-opacity:1;fill-rule:nonzero;stroke:#000000;stroke-width:0.74721;stroke-linecap:butt;stroke-linejoin:miter;stroke-miterlimit:10;stroke-dasharray:none;stroke-opacity:1"
       transform="matrix(1.3333333,0,0,-1.3333333,-31.928,-12.474667)" />
    <path
       id="path3"
       d="m 27.63757,-45.96501 c 0,20.01164 16.2248,36.23642 36.23644,36.23642 20.01163,0 36.2364,-16.22478 36.2364,-36.23642 0,-20.01163 -16.22477,-36.23642 -36.2364,-36.23642 -20.01164,0 -36.23644,16.22479 -36.23644,36.23642 z"
       style="fill:none;stroke:#000000;stroke-width:0.74721;stroke-linecap:butt;stroke-linejoin:miter;stroke-miterlimit:10;stroke-dasharray:0.83687, 2.50064;stroke-dashoffset:0;stroke-opacity:1"
       transform="matrix(1.3333333,0,0,-1.3333333,-31.928,-12.474667)" />
    <path
       id="path4"
       d="m 68.05835,-49.10327 30.46202,10.95253"
       style="fill:none;stroke:#000000;stroke-width:0.74721;stroke-linecap:butt;stroke-linejoin:miter;stroke-miterlimit:10;stroke-dasharray:none;stroke-opacity:1"
       transform="matrix(1.3333333,0,0,-1.3333333,-31.928,-12.474667)" />
    <path
       id="path5"
       d="m 94.70619,-41.35313 c 1.62453,1.6343 3.22145,2.81963 4.79751,3.55282 -1.68217,-0.43791 -3.6683,-0.54045 -5.96152,-0.31431"
       style="fill:none;stroke:#000000;stroke-width:0.74721;stroke-linecap:butt;stroke-linejoin:miter;stroke-miterlimit:10;stroke-dasharray:none;stroke-opacity:1"
       transform="matrix(1.3333333,0,0,-1.3333333,-31.928,-12.474667)" />
    <path
       id="path6"
       d="m 60.14993,-79.43977 c 0,0.89964 0.73226,1.63191 1.6319,1.63191 0.89963,0 1.6319,-0.73227 1.6319,-1.63191 0,-0.89962 -0.73227,-1.63189 -1.6319,-1.63189 -0.89964,0 -1.6319,0.73227 -1.6319,1.63189 z"
       style="fill:#000000;fill-opacity:1;fill-rule:nonzero;stroke:#000000;stroke-width:0.74721;stroke-linecap:butt;stroke-linejoin:miter;stroke-miterlimit:10;stroke-dasharray:none;stroke-opacity:1"
       transform="matrix(1.3333333,0,0,-1.3333333,-31.928,-12.474667)" />
    <path
       id="path7"
       d="m 191.87311,-29.92851 c 10.46086,5.23044 104.60861,-7.38536 98.85513,-31.96839 -5.75348,-24.58302 -65.69421,0.49166 -64.12508,-27.75265 1.56913,-28.24434 -19.22706,-26.88443 -32.95172,-17.78348 -13.72464,9.10094 -12.23921,72.27409 -1.77833,77.50452 z"
       style="fill:#f3ff00;fill-opacity:0.37;fill-rule:nonzero;stroke:#000000;stroke-width:0.74721;stroke-linecap:butt;stroke-linejoin:miter;stroke-miterlimit:10;stroke-dasharray:0.83687, 2.50064;stroke-dashoffset:0;stroke-opacity:1"
       transform="matrix(1.3333333,0,0,-1.3333333,-31.928,-12.474667)" />
    <path
       id="path8"
       d="m 200.32547,-49.10327 c 0,0.89964 0.73225,1.63191 1.63191,1.63191 0.89962,0 1.63188,-0.73227 1.63188,-1.63191 0,-0.89963 -0.73226,-1.6319 -1.63188,-1.6319 -0.89966,0 -1.63191,0.73227 -1.63191,1.6319 z"
       style="fill:#000000;fill-opacity:1;fill-rule:nonzero;stroke:#000000;stroke-width:0.74721;stroke-linecap:butt;stroke-linejoin:miter;stroke-miterlimit:10;stroke-dasharray:none;stroke-opacity:1"
       transform="matrix(1.3333333,0,0,-1.3333333,-31.928,-12.474667)" />
    <path
       id="path9"
       d="m 178.21643,-49.10327 c 0,13.1127 10.62825,23.74093 23.74095,23.74093 13.11269,0 23.74091,-10.62823 23.74091,-23.74093 0,-13.11269 -10.62822,-23.74093 -23.74091,-23.74093 -13.1127,0 -23.74095,10.62824 -23.74095,23.74093 z"
       style="fill:none;stroke:#000000;stroke-width:0.74721;stroke-linecap:butt;stroke-linejoin:miter;stroke-miterlimit:10;stroke-dasharray:0.83687, 2.50064;stroke-dashoffset:0;stroke-opacity:1"
       transform="matrix(1.3333333,0,0,-1.3333333,-31.928,-12.474667)" />
    <path
       id="path10"
       d="m 201.95738,-49.10327 21.05248,7.8038"
       style="fill:none;stroke:#000000;stroke-width:0.74721;stroke-linecap:butt;stroke-linejoin:miter;stroke-miterlimit:10;stroke-dasharray:none;stroke-opacity:1"
       transform="matrix(1.3333333,0,0,-1.3333333,-31.928,-12.474667)" />
    <path
       id="path11"
       d="m 219.22594,-44.53886 c 1.60824,1.65033 3.19331,2.85148 4.76201,3.60029 -1.67775,-0.45459 -3.66277,-0.57686 -5.95813,-0.3735"
       style="fill:none;stroke:#000000;stroke-width:0.74721;stroke-linecap:butt;stroke-linejoin:miter;stroke-miterlimit:10;stroke-dasharray:none;stroke-opacity:1"
       transform="matrix(1.3333333,0,0,-1.3333333,-31.928,-12.474667)" />
    <path
       id="path12"
       d="m 191.95679,-58.51805 c 0,0.89964 0.73225,1.63191 1.63189,1.63191 0.89963,0 1.6319,-0.73227 1.6319,-1.63191 0,-0.89961 -0.73227,-1.63188 -1.6319,-1.63188 -0.89964,0 -1.63189,0.73227 -1.63189,1.63188 z"
       style="fill:#000000;fill-opacity:1;fill-rule:nonzero;stroke:#000000;stroke-width:0.74721;stroke-linecap:butt;stroke-linejoin:miter;stroke-miterlimit:10;stroke-dasharray:none;stroke-opacity:1"
       transform="matrix(1.3333333,0,0,-1.3333333,-31.928,-12.474667)" />
    <path
       id="path13"
       d="m 6.4219297,-6.9245078 c 0,-0.023437 -0.011719,-0.09375 -0.1054688,-0.09375 -0.046875,0 -0.058594,0.011719 -0.1757812,0.140625 l -0.4804688,0.5742187 c -0.2578125,-0.46875 -0.7734375,-0.7148437 -1.4296875,-0.7148437 -1.265625,0 -2.4609375,1.1367187 -2.4609375,2.34375 0,0.8085937 0.5273438,1.265625 1.0429688,1.4179687 l 1.0664062,0.28125 c 0.3632813,0.082031 0.9140625,0.234375 0.9140625,1.0546875 0,0.890625 -0.8203125,1.82812504 -1.7929687,1.82812504 -0.6445313,0 -1.7460938,-0.2109375 -1.7460938,-1.45312504 0,-0.234375 0.046875,-0.4804687 0.058594,-0.5390625 0.011719,-0.035156 0.023437,-0.046875 0.023437,-0.070312 0,-0.09375 -0.070312,-0.1054687 -0.1171875,-0.1054687 -0.058594,0 -0.070312,0.011719 -0.1054688,0.035156 -0.035156,0.046875 -0.59765621,2.32031254 -0.59765621,2.34375004 0,0.0585937 0.046875,0.10546875 0.1171875,0.10546875 0.046875,0 0.0585938,-0.0117188 0.17578125,-0.15234375 L 1.3008359,-0.50263281 c 0.421875,0.5859375 1.1015625,0.7265625 1.6757813,0.7265625 1.359375,0 2.53125,-1.32421879 2.53125,-2.56640629 0,-0.6796875 -0.3398438,-1.0195312 -0.4921875,-1.1601562 -0.2226563,-0.234375 -0.375,-0.2695313 -1.265625,-0.5039063 -0.2109375,-0.058594 -0.5742188,-0.1523437 -0.65625,-0.1757812 -0.2695313,-0.09375 -0.609375,-0.375 -0.609375,-0.9023438 0,-0.8085937 0.796875,-1.6523437 1.734375,-1.6523437 0.8320312,0 1.4414062,0.421875 1.4414062,1.5351562 0,0.3164063 -0.046875,0.5039063 -0.046875,0.5625 0,0.011719 0,0.09375 0.1289063,0.09375 0.09375,0 0.1054687,-0.023437 0.140625,-0.1992187 z m 0,0"
       style="fill:#000000;fill-opacity:1;fill-rule:nonzero;stroke:none"
       aria-label="S"
       transform="matrix(1.3333333,0,0,1.3333333,163.44133,76.205333)" />
    <g
       id="g13"
       aria-label="z&#10;0"
       transform="matrix(1.3333333,0,0,1.3333333,61.705333,62.302667)">
      <path
         id="path14"
         d="M 1.3254922,-0.83344531 C 1.8645547,-1.4076641 2.1575234,-1.6537578 2.5090859,-1.9584453 c 0,-0.011719 0.6210938,-0.5390625 0.984375,-0.9023438 0.9375,-0.9257812 1.1601563,-1.40625 1.1601563,-1.4414062 0,-0.1054688 -0.09375,-0.1054688 -0.1054688,-0.1054688 -0.070312,0 -0.1054687,0.023437 -0.1523437,0.1171875 -0.3046875,0.46875 -0.5039063,0.6328125 -0.75,0.6328125 -0.234375,0 -0.3515625,-0.1523437 -0.5039063,-0.3164062 -0.1875,-0.234375 -0.3632812,-0.4335938 -0.6914062,-0.4335938 -0.75,0 -1.2070313,0.9257813 -1.2070313,1.1367188 0,0.046875 0.035156,0.1171875 0.1171875,0.1171875 0.09375,0 0.1171875,-0.058594 0.140625,-0.1171875 0.1875,-0.4570313 0.7617188,-0.46875 0.84375,-0.46875 0.2109375,0 0.3984375,0.070312 0.6210938,0.1523437 0.3984375,0.1523438 0.515625,0.1523438 0.7734375,0.1523438 -0.3632813,0.421875 -1.1953125,1.1367187 -1.3828125,1.3007812 l -0.9023438,0.8320313 c -0.67968746,0.66796874 -1.01953121,1.24218749 -1.01953121,1.31249999 0,0.09375 0.09375,0.09375 0.1171875,0.09375 0.0820313,0 0.09375,-0.01171875 0.15234375,-0.12890625 0.234375,-0.33984375 0.52734376,-0.609375 0.85546876,-0.609375 0.2226562,0 0.328125,0.0820313 0.5742187,0.375 0.1640625,0.2109375 0.3515625,0.36328125 0.6328125,0.36328125 0.984375,0 1.5703125,-1.26562499 1.5703125,-1.53515629 0,-0.046875 -0.046875,-0.09375 -0.1171875,-0.09375 -0.09375,0 -0.1171875,0.058594 -0.140625,0.1289063 -0.234375,0.64453124 -0.8671875,0.83203124 -1.1953125,0.83203124 -0.1992187,0 -0.3867187,-0.0585938 -0.5859375,-0.12890625 -0.3398437,-0.12890625 -0.4921875,-0.1640625 -0.703125,-0.1640625 -0.023437,0 -0.1757812,0 -0.2695312,0.0234375 z m 0,0"
         style="fill:#000000;fill-opacity:1;fill-rule:nonzero;stroke:none" />
      <path
         id="path15"
         d="m 8.2307656,-0.73090625 c 0,-0.76171875 -0.09375,-1.31250005 -0.4101562,-1.80468755 C 7.5979531,-2.852 7.1760781,-3.13325 6.6135781,-3.13325 c -1.6171875,0 -1.6171875,1.8984375 -1.6171875,2.40234375 0,0.50390625 0,2.36718745 1.6171875,2.36718745 1.6171875,0 1.6171875,-1.8632812 1.6171875,-2.36718745 z M 6.6135781,1.4370625 c -0.3164062,0 -0.75,-0.1875 -0.890625,-0.76171875 -0.09375,-0.41015625 -0.09375,-0.984375 -0.09375,-1.5 0,-0.50390625 0,-1.03125005 0.1054688,-1.41796875 0.1523437,-0.5507813 0.5976562,-0.6914063 0.8789062,-0.6914063 0.375,0 0.7382813,0.2226563 0.8671875,0.6328125 0.1054688,0.375 0.1171875,0.8789063 0.1171875,1.47656255 0,0.515625 0,1.04296875 -0.09375,1.4765625 C 7.3635781,1.2847187 6.8948281,1.4370625 6.6135781,1.4370625 Z m 0,0"
         style="fill:#000000;fill-opacity:1;fill-rule:nonzero;stroke:none" />
    </g>
    <path
       id="path16"
       d="m 2.9661172,-2.2514219 c 0.1640625,0 0.3398437,0 0.3398437,-0.1757812 0,-0.1289063 -0.1171875,-0.1289063 -0.28125,-0.1289063 H 1.4075234 c 0.234375,-0.8554687 0.796875,-1.4296875 1.6992188,-1.4296875 h 0.3164062 c 0.1640625,0 0.328125,0 0.328125,-0.1640625 0,-0.140625 -0.1289062,-0.140625 -0.3046875,-0.140625 H 3.0950234 c -1.2890625,0 -2.62499996,0.9960938 -2.62499996,2.5195313 0,1.08984372 0.74999996,1.87499997 1.80468746,1.87499997 0.6445313,0 1.2890625,-0.3984375 1.2890625,-0.50390625 0,-0.0351563 -0.011719,-0.140625 -0.09375,-0.140625 -0.023437,0 -0.046875,0 -0.1289062,0.0585938 -0.3164063,0.19921875 -0.6796875,0.375 -1.0429688,0.375 -0.5859375,0 -1.078125,-0.421875 -1.078125,-1.30078132 0,-0.3515625 0.082031,-0.7265625 0.1054688,-0.84375 z m 0,0"
       style="fill:#000000;fill-opacity:1;fill-rule:nonzero;stroke:none"
       aria-label="ϵ"
       transform="matrix(1.3333333,0,0,1.3333333,61.705333,39.525333)" />
    <path
       id="path17"
       d="m 1.3235703,-0.831625 c 0.5390625,-0.5742188 0.8320313,-0.8203125 1.1835938,-1.125 0,-0.011719 0.6210937,-0.5390625 0.984375,-0.9023438 0.9375,-0.9257812 1.1601562,-1.40625 1.1601562,-1.4414062 0,-0.1054688 -0.09375,-0.1054688 -0.1054687,-0.1054688 -0.070312,0 -0.1054688,0.023437 -0.1523438,0.1171875 -0.3046875,0.46875 -0.5039062,0.6328125 -0.75,0.6328125 -0.234375,0 -0.3515625,-0.1523437 -0.5039062,-0.3164062 -0.1875,-0.234375 -0.3632813,-0.4335938 -0.6914063,-0.4335938 -0.75,0 -1.2070312,0.9257813 -1.2070312,1.1367188 0,0.046875 0.035156,0.1171875 0.1171875,0.1171875 0.09375,0 0.1171875,-0.058594 0.140625,-0.1171875 0.1875,-0.4570313 0.7617187,-0.46875 0.84375,-0.46875 0.2109375,0 0.3984375,0.070312 0.6210937,0.1523437 0.3984375,0.1523438 0.515625,0.1523438 0.7734375,0.1523438 -0.3632812,0.421875 -1.1953125,1.1367187 -1.3828125,1.3007812 L 1.4524766,-1.300375 c -0.67968754,0.66796875 -1.01953129,1.2421875 -1.01953129,1.3125 0,0.09375 0.09375,0.09375 0.1171875,0.09375 0.0820313,0 0.09375,-0.01171875 0.15234375,-0.12890625 0.234375,-0.33984375 0.52734374,-0.609375 0.85546874,-0.609375 0.2226563,0 0.328125,0.0820313 0.5742188,0.375 0.1640625,0.2109375 0.3515625,0.36328125 0.6328125,0.36328125 0.984375,0 1.5703125,-1.265625 1.5703125,-1.5351563 0,-0.046875 -0.046875,-0.09375 -0.1171875,-0.09375 -0.09375,0 -0.1171875,0.058594 -0.140625,0.1289063 -0.234375,0.64453125 -0.8671875,0.83203125 -1.1953125,0.83203125 -0.1992188,0 -0.3867188,-0.0585938 -0.5859375,-0.12890625 -0.3398438,-0.12890625 -0.4921875,-0.1640625 -0.703125,-0.1640625 -0.023437,0 -0.1757813,0 -0.2695313,0.0234375 z m 0,0"
       style="fill:#000000;fill-opacity:1;fill-rule:nonzero;stroke:none"
       aria-label="z"
       transform="matrix(1.3333333,0,0,1.3333333,41.481333,83.921333)" />
    <path
       id="path18"
       d="m 6.4213672,-6.9245078 c 0,-0.023437 -0.011719,-0.09375 -0.1054688,-0.09375 -0.046875,0 -0.058594,0.011719 -0.1757812,0.140625 l -0.4804688,0.5742187 c -0.2578125,-0.46875 -0.7734375,-0.7148437 -1.4296875,-0.7148437 -1.265625,0 -2.4609375,1.1367187 -2.4609375,2.34375 0,0.8085937 0.5273438,1.265625 1.0429688,1.4179687 l 1.0664062,0.28125 c 0.3632813,0.082031 0.9140625,0.234375 0.9140625,1.0546875 0,0.890625 -0.8203125,1.82812504 -1.7929687,1.82812504 -0.6445313,0 -1.7460938,-0.2109375 -1.7460938,-1.45312504 0,-0.234375 0.046875,-0.4804687 0.058594,-0.5390625 0.011719,-0.035156 0.023437,-0.046875 0.023437,-0.070312 0,-0.09375 -0.070312,-0.1054687 -0.1171875,-0.1054687 -0.058594,0 -0.070312,0.011719 -0.1054688,0.035156 -0.035156,0.046875 -0.59765621,2.32031254 -0.59765621,2.34375004 0,0.0585937 0.046875,0.10546875 0.1171875,0.10546875 0.046875,0 0.0585938,-0.0117188 0.17578125,-0.15234375 L 1.3002734,-0.50263281 c 0.421875,0.5859375 1.1015625,0.7265625 1.6757813,0.7265625 1.359375,0 2.53125,-1.32421879 2.53125,-2.56640629 0,-0.6796875 -0.3398438,-1.0195312 -0.4921875,-1.1601562 -0.2226563,-0.234375 -0.375,-0.2695313 -1.265625,-0.5039063 -0.2109375,-0.058594 -0.5742188,-0.1523437 -0.65625,-0.1757812 -0.2695313,-0.09375 -0.609375,-0.375 -0.609375,-0.9023438 0,-0.8085937 0.796875,-1.6523437 1.734375,-1.6523437 0.8320312,0 1.4414062,0.421875 1.4414062,1.5351562 0,0.3164063 -0.046875,0.5039063 -0.046875,0.5625 0,0.011719 0,0.09375 0.1289063,0.09375 0.09375,0 0.1054687,-0.023437 0.140625,-0.1992187 z m 0,0"
       style="fill:#000000;fill-opacity:1;fill-rule:nonzero;stroke:none"
       aria-label="S"
       transform="matrix(1.3333333,0,0,1.3333333,341.97333,76.205333)" />
    <g
       id="g18"
       aria-label="z&#10;0"
       transform="matrix(1.3333333,0,0,1.3333333,240.23733,62.302667)">
      <path
         id="path19"
         d="M 1.3249297,-0.83344531 C 1.8639922,-1.4076641 2.1569609,-1.6537578 2.5085234,-1.9584453 c 0,-0.011719 0.6210938,-0.5390625 0.984375,-0.9023438 0.9375,-0.9257812 1.1601563,-1.40625 1.1601563,-1.4414062 0,-0.1054688 -0.09375,-0.1054688 -0.1054688,-0.1054688 -0.070312,0 -0.1054687,0.023437 -0.1523437,0.1171875 -0.3046875,0.46875 -0.5039063,0.6328125 -0.75,0.6328125 -0.234375,0 -0.3515625,-0.1523437 -0.5039063,-0.3164062 -0.1875,-0.234375 -0.3632812,-0.4335938 -0.6914062,-0.4335938 -0.75,0 -1.2070313,0.9257813 -1.2070313,1.1367188 0,0.046875 0.035156,0.1171875 0.1171875,0.1171875 0.09375,0 0.1171875,-0.058594 0.140625,-0.1171875 0.1875,-0.4570313 0.7617188,-0.46875 0.84375,-0.46875 0.2109375,0 0.3984375,0.070312 0.6210938,0.1523437 0.3984375,0.1523438 0.515625,0.1523438 0.7734375,0.1523438 -0.3632813,0.421875 -1.1953125,1.1367187 -1.3828125,1.3007812 l -0.9023438,0.8320313 c -0.67968746,0.66796874 -1.01953121,1.24218749 -1.01953121,1.31249999 0,0.09375 0.09375,0.09375 0.1171875,0.09375 0.0820313,0 0.09375,-0.01171875 0.15234375,-0.12890625 0.234375,-0.33984375 0.52734376,-0.609375 0.85546876,-0.609375 0.2226562,0 0.328125,0.0820313 0.5742187,0.375 0.1640625,0.2109375 0.3515625,0.36328125 0.6328125,0.36328125 0.984375,0 1.5703125,-1.26562499 1.5703125,-1.53515629 0,-0.046875 -0.046875,-0.09375 -0.1171875,-0.09375 -0.09375,0 -0.1171875,0.058594 -0.140625,0.1289063 -0.234375,0.64453124 -0.8671875,0.83203124 -1.1953125,0.83203124 -0.1992187,0 -0.3867187,-0.0585938 -0.5859375,-0.12890625 -0.3398437,-0.12890625 -0.4921875,-0.1640625 -0.703125,-0.1640625 -0.023437,0 -0.1757812,0 -0.2695312,0.0234375 z m 0,0"
         style="fill:#000000;fill-opacity:1;fill-rule:nonzero;stroke:none" />
      <path
         id="path20"
         d="m 8.2302031,-0.73090625 c 0,-0.76171875 -0.09375,-1.31250005 -0.4101562,-1.80468755 C 7.5973906,-2.852 7.1755156,-3.13325 6.6130156,-3.13325 c -1.6171875,0 -1.6171875,1.8984375 -1.6171875,2.40234375 0,0.50390625 0,2.36718745 1.6171875,2.36718745 1.6171875,0 1.6171875,-1.8632812 1.6171875,-2.36718745 z M 6.6130156,1.4370625 c -0.3164062,0 -0.75,-0.1875 -0.890625,-0.76171875 -0.09375,-0.41015625 -0.09375,-0.984375 -0.09375,-1.5 0,-0.50390625 0,-1.03125005 0.1054688,-1.41796875 0.1523437,-0.5507813 0.5976562,-0.6914063 0.8789062,-0.6914063 0.375,0 0.7382813,0.2226563 0.8671875,0.6328125 0.1054688,0.375 0.1171875,0.8789063 0.1171875,1.47656255 0,0.515625 0,1.04296875 -0.09375,1.4765625 C 7.3630156,1.2847187 6.8942656,1.4370625 6.6130156,1.4370625 Z m 0,0"
         style="fill:#000000;fill-opacity:1;fill-rule:nonzero;stroke:none" />
    </g>
    <path
       id="path21"
       d="m 2.9655547,-2.2514219 c 0.1640625,0 0.3398437,0 0.3398437,-0.1757812 0,-0.1289063 -0.1171875,-0.1289063 -0.28125,-0.1289063 H 1.4069609 c 0.234375,-0.8554687 0.796875,-1.4296875 1.6992188,-1.4296875 h 0.3164062 c 0.1640625,0 0.328125,0 0.328125,-0.1640625 0,-0.140625 -0.1289062,-0.140625 -0.3046875,-0.140625 H 3.0944609 c -1.2890625,0 -2.62499996,0.9960938 -2.62499996,2.5195313 0,1.08984372 0.74999996,1.87499997 1.80468746,1.87499997 0.6445313,0 1.2890625,-0.3984375 1.2890625,-0.50390625 0,-0.0351563 -0.011719,-0.140625 -0.09375,-0.140625 -0.023437,0 -0.046875,0 -0.1289062,0.0585938 -0.3164063,0.19921875 -0.6796875,0.375 -1.0429688,0.375 -0.5859375,0 -1.078125,-0.421875 -1.078125,-1.30078132 0,-0.3515625 0.082031,-0.7265625 0.1054688,-0.84375 z m 0,0"
       style="fill:#000000;fill-opacity:1;fill-rule:nonzero;stroke:none"
       aria-label="ϵ"
       transform="matrix(1.3333333,0,0,1.3333333,240.23733,39.525333)" />
    <path
       id="path22"
       d="M 1.3245234,-0.83182813 C 1.8635859,-1.4060469 2.1565547,-1.6521406 2.5081172,-1.9568281 c 0,-0.011719 0.6210937,-0.5390625 0.984375,-0.9023438 0.9375,-0.9257812 1.1601562,-1.40625 1.1601562,-1.4414062 0,-0.1054688 -0.09375,-0.1054688 -0.1054687,-0.1054688 -0.070312,0 -0.1054688,0.023437 -0.1523438,0.1171875 -0.3046875,0.46875 -0.5039062,0.6328125 -0.75,0.6328125 -0.234375,0 -0.3515625,-0.1523437 -0.5039062,-0.3164062 -0.1875,-0.234375 -0.3632813,-0.4335938 -0.6914063,-0.4335938 -0.75,0 -1.2070312,0.9257813 -1.2070312,1.1367188 0,0.046875 0.035156,0.1171875 0.1171875,0.1171875 0.09375,0 0.1171875,-0.058594 0.140625,-0.1171875 0.1875,-0.4570313 0.7617187,-0.46875 0.84375,-0.46875 0.2109375,0 0.3984375,0.070312 0.6210937,0.1523437 0.3984375,0.1523438 0.515625,0.1523438 0.7734375,0.1523438 -0.3632812,0.421875 -1.1953125,1.1367187 -1.3828125,1.3007812 l -0.9023437,0.8320313 c -0.67968751,0.66796872 -1.01953126,1.24218747 -1.01953126,1.31249997 0,0.09375 0.09375,0.09375 0.1171875,0.09375 0.0820313,0 0.09375,-0.01171875 0.15234375,-0.12890625 0.234375,-0.33984375 0.52734371,-0.609375 0.85546871,-0.609375 0.2226563,0 0.328125,0.0820313 0.5742188,0.375 0.1640625,0.2109375 0.3515625,0.36328125 0.6328125,0.36328125 0.984375,0 1.5703125,-1.26562497 1.5703125,-1.53515627 0,-0.046875 -0.046875,-0.09375 -0.1171875,-0.09375 -0.09375,0 -0.1171875,0.058594 -0.140625,0.1289063 -0.234375,0.64453122 -0.8671875,0.83203122 -1.1953125,0.83203122 -0.1992188,0 -0.3867188,-0.0585938 -0.5859375,-0.12890625 -0.3398438,-0.12890625 -0.4921875,-0.1640625 -0.703125,-0.1640625 -0.023437,0 -0.1757813,0 -0.2695313,0.0234375 z m 0,0"
       style="fill:#000000;fill-opacity:1;fill-rule:nonzero;stroke:none"
       aria-label="z"
       transform="matrix(1.3333333,0,0,1.3333333,219.316,60.210667)" />
  </g>
</svg>
