<?xml version="1.0" encoding="UTF-8" standalone="no"?>
<!-- Created with Inkscape (http://www.inkscape.org/) -->

<svg
   version="1.1"
   id="svg1"
   width="318.22668"
   height="152.77333"
   viewBox="0 0 318.22668 152.77333"
   xmlns="http://www.w3.org/2000/svg"
   xmlns:svg="http://www.w3.org/2000/svg">
  <defs
     id="defs1" />
  <g
     id="g1">
    <path
       id="path1"
       d="m 97.19676,-92.16057 c 0,1.1731 0.94894,2.12206 2.12206,2.12206 1.17312,0 2.12956,-0.94896 2.12956,-2.12206 0,-1.18059 -0.95644,-2.12956 -2.12956,-2.12956 -1.17312,0 -2.12206,0.94897 -2.12206,2.12956 z"
       style="fill:#000000;fill-opacity:1;fill-rule:nonzero;stroke:#000000;stroke-width:0.74721;stroke-linecap:butt;stroke-linejoin:miter;stroke-miterlimit:10;stroke-dasharray:none;stroke-opacity:1"
       transform="matrix(1.3333333,0,0,-1.3333333,-49.405333,-46.698667)" />
    <path
       id="path2"
       d="m 99.31882,-92.16057 c 29.8883,22.41623 74.16784,-56.69812 163.08555,-30.54585"
       style="fill:none;stroke:#d0021b;stroke-width:1.49442;stroke-linecap:butt;stroke-linejoin:miter;stroke-miterlimit:10;stroke-dasharray:1.6837, 2.74971;stroke-dashoffset:0;stroke-opacity:1"
       transform="matrix(1.3333333,0,0,-1.3333333,-49.405333,-46.698667)" />
    <path
       id="path3"
       d="m 153.22987,-109.97401 c -7.46461,-22.62545 -28.78245,-38.95194 -53.91105,-38.95194 -31.34536,0 -56.75788,25.41254 -56.75788,56.76538 0,31.34535 25.41252,56.75787 56.75788,56.75787 31.35284,0 56.76538,-25.41252 56.76538,-56.75787 0,-2.93653 -0.22417,-5.81329 -0.65007,-8.63026 l -56.11531,8.63026 z"
       style="fill:none;stroke:#000000;stroke-width:0.74721;stroke-linecap:butt;stroke-linejoin:miter;stroke-miterlimit:10;stroke-dasharray:none;stroke-opacity:0"
       transform="matrix(1.3333333,0,0,-1.3333333,-49.405333,-46.698667)" />
    <path
       id="path4"
       d="m 153.22987,-109.97401 c -7.46461,-22.62545 -28.78245,-38.95194 -53.91105,-38.95194 -31.34536,0 -56.75788,25.41254 -56.75788,56.76538 0,31.34535 25.41252,56.75787 56.75788,56.75787 31.35284,0 56.76538,-25.41252 56.76538,-56.75787 0,-2.93653 -0.22417,-5.81329 -0.65007,-8.63026"
       style="fill:none;stroke:#000000;stroke-width:0.74721;stroke-linecap:butt;stroke-linejoin:miter;stroke-miterlimit:10;stroke-dasharray:none;stroke-opacity:1"
       transform="matrix(1.3333333,0,0,-1.3333333,-49.405333,-46.698667)" />
    <path
       id="path5"
       d="m 45.10892,-87.62503 -2.18186,-4.36368 -2.18184,4.36368 2.18184,-2.18185 z"
       style="fill:#000000;fill-opacity:1;fill-rule:nonzero;stroke:#000000;stroke-width:0.74721;stroke-linecap:butt;stroke-linejoin:miter;stroke-miterlimit:10;stroke-dasharray:none;stroke-opacity:1"
       transform="matrix(1.3333333,0,0,-1.3333333,-49.405333,-46.698667)" />
    <path
       id="path6"
       d="m 149.94962,-70.34212 c 0,1.17312 0.94895,2.12207 2.12207,2.12207 1.17311,0 2.12954,-0.94895 2.12954,-2.12207 0,-1.18058 -0.95643,-2.12953 -2.12954,-2.12953 -1.17312,0 -2.12207,0.94895 -2.12207,2.12953 z"
       style="fill:#f5a623;fill-opacity:1;fill-rule:nonzero;stroke:#f5a623;stroke-width:0.74721;stroke-linecap:butt;stroke-linejoin:miter;stroke-miterlimit:10;stroke-dasharray:none;stroke-opacity:1"
       transform="matrix(1.3333333,0,0,-1.3333333,-49.405333,-46.698667)" />
    <path
       id="path7"
       d="m 260.27483,-122.70642 c 0,1.17311 0.95642,2.12953 2.12954,2.12953 1.17311,0 2.12207,-0.95642 2.12207,-2.12953 0,-1.17311 -0.94896,-2.12208 -2.12207,-2.12208 -1.17312,0 -2.12954,0.94897 -2.12954,2.12208 z"
       style="fill:#000000;fill-opacity:1;fill-rule:nonzero;stroke:#000000;stroke-width:0.74721;stroke-linecap:butt;stroke-linejoin:miter;stroke-miterlimit:10;stroke-dasharray:none;stroke-opacity:1"
       transform="matrix(1.3333333,0,0,-1.3333333,-49.405333,-46.698667)" />
    <path
       id="path8"
       d="m 148.80638,-100.98509 10.53565,-10.53565 m 0,10.53565 -10.53565,-10.53565"
       style="fill:none;stroke:#d0021b;stroke-width:1.49442;stroke-linecap:butt;stroke-linejoin:miter;stroke-miterlimit:10;stroke-dasharray:none;stroke-opacity:1"
       transform="matrix(1.3333333,0,0,-1.3333333,-49.405333,-46.698667)" />
    <path
       id="path9"
       d="m 3.7157031,-3.7606797 c -0.1757812,-0.375 -0.46875,-0.6445312 -0.9140625,-0.6445312 -1.171875,0 -2.40234373,1.4648437 -2.40234373,2.9179687 0,0.93750001 0.55078125,1.59375001 1.32421873,1.59375001 0.1992188,0 0.703125,-0.03515625 1.3007813,-0.73828125 0.070312,0.41015625 0.421875,0.73828125 0.9023437,0.73828125 0.3515625,0 0.5742188,-0.22265625 0.7382813,-0.5390625 0.1640625,-0.36328125 0.2929687,-0.97265621 0.2929687,-0.99609371 0,-0.09375 -0.082031,-0.09375 -0.1171875,-0.09375 -0.09375,0 -0.1054687,0.035156 -0.140625,0.1757812 -0.1640625,0.64453126 -0.3515625,1.24218751 -0.75,1.24218751 -0.2695312,0 -0.3046875,-0.2578125 -0.3046875,-0.45703125 0,-0.22265625 0.023437,-0.3046875 0.1289063,-0.73828126 0.1171875,-0.421875 0.1289062,-0.5273437 0.2226562,-0.9023437 l 0.3515625,-1.3945313 c 0.070312,-0.28125 0.070312,-0.2929687 0.070312,-0.3398437 0,-0.1640625 -0.1171875,-0.2695313 -0.28125,-0.2695313 -0.2460937,0 -0.3867187,0.2226563 -0.4218745,0.4453125 z m -0.6445312,2.578125 c -0.046875,0.1757813 -0.046875,0.19921876 -0.1992188,0.36328126 -0.4453125,0.55078125 -0.84375,0.71484375 -1.125,0.71484375 -0.5039062,0 -0.6445312,-0.55078125 -0.6445312,-0.93750001 0,-0.5039062 0.328125,-1.7226562 0.5507812,-2.1796875 0.3046875,-0.5976562 0.7617188,-0.9609375 1.1601563,-0.9609375 0.6445312,0 0.7851562,0.8203125 0.7851562,0.8789063 0,0.058594 -0.023437,0.1171875 -0.035156,0.1640625 z m 0,0"
       style="fill:#000000;fill-opacity:1;fill-rule:nonzero;stroke:none"
       aria-label="a"
       transform="matrix(1.3333333,0,0,1.3333333,86.506667,86.385333)" />
    <path
       id="path10"
       d="M 5.0613438,-2.6943516 C 4.5222813,-3.3740391 4.4050938,-3.5263828 4.0886875,-3.7724766 3.5379063,-4.2177891 2.9754063,-4.4052891 2.4715,-4.4052891 c -1.171875,0 -1.921875,1.1015625 -1.921875,2.2617188 0,1.14843749 0.7382813,2.24999999 1.875,2.24999999 1.1484375,0 1.9804688,-0.90234375 2.4609375,-1.69921879 0.5390625,0.67968754 0.65625,0.83203129 0.9726563,1.07812504 C 6.409,-0.06935156 6.9715,0.10642969 7.4754063,0.10642969 c 1.171875,0 1.921875,-1.08984375 1.921875,-2.26171879 0,-1.1367187 -0.7265625,-2.25 -1.875,-2.25 -1.1484375,0 -1.9804688,0.9140625 -2.4609375,1.7109375 z m 0.2578125,0.3398438 c 0.4101562,-0.7265625 1.1484375,-1.734375 2.2734375,-1.734375 1.0546875,0 1.59375,1.0429687 1.59375,1.9335937 0,0.984375 -0.6679688,1.79296879 -1.546875,1.79296879 -0.5742188,0 -1.03125,-0.421875 -1.2304688,-0.6328125 C 6.1511875,-1.2646641 5.9285313,-1.5693516 5.3191563,-2.3545078 Z M 4.62775,-1.9326328 c -0.4101562,0.7148437 -1.1367187,1.72265624 -2.2734375,1.72265624 -1.0546875,0 -1.59375,-1.03125004 -1.59375,-1.93359374 0,-0.9726563 0.6679688,-1.78125 1.546875,-1.78125 0.5859375,0 1.03125,0.421875 1.2421875,0.6328125 0.2460938,0.2695312 0.46875,0.5742187 1.078125,1.359375 z m 0,0"
       style="fill:#000000;fill-opacity:1;fill-rule:nonzero;stroke:none"
       aria-label="∞"
       transform="matrix(1.3333333,0,0,1.3333333,303.95467,127.112)" />
  </g>
</svg>
