<?xml version="1.0" encoding="UTF-8" standalone="no"?>
<!-- Created with Inkscape (http://www.inkscape.org/) -->

<svg
   version="1.1"
   id="svg1"
   width="387.07999"
   height="214.94667"
   viewBox="0 0 387.07999 214.94667"
   xmlns="http://www.w3.org/2000/svg"
   xmlns:svg="http://www.w3.org/2000/svg">
  <defs
     id="defs1" />
  <g
     id="g1">
    <path
       id="path1"
       d="m 9.97964,-47.77473 c 0,0.82116 0.66428,1.48543 1.48545,1.48543 0.82116,0 1.49066,-0.66427 1.49066,-1.48543 0,-0.82642 -0.6695,-1.49068 -1.49066,-1.49068 -0.82117,0 -1.48545,0.66426 -1.48545,1.49068 z"
       style="fill:#000000;fill-opacity:1;fill-rule:nonzero;stroke:#000000;stroke-width:0.74721;stroke-linecap:butt;stroke-linejoin:miter;stroke-miterlimit:10;stroke-dasharray:none;stroke-opacity:1"
       transform="matrix(1.3333333,0,0,-1.3333333,-1.864,-25.66)" />
    <path
       id="path2"
       d="m 75.49078,-35.68199 c 0,0.82118 0.6695,1.49068 1.49068,1.49068 0.82118,0 1.48544,-0.6695 1.48544,-1.49068 0,-0.82115 -0.66426,-1.48544 -1.48544,-1.48544 -0.82118,0 -1.49068,0.66429 -1.49068,1.48544 z"
       style="fill:#000000;fill-opacity:1;fill-rule:nonzero;stroke:#000000;stroke-width:0.74721;stroke-linecap:butt;stroke-linejoin:miter;stroke-miterlimit:10;stroke-dasharray:none;stroke-opacity:1"
       transform="matrix(1.3333333,0,0,-1.3333333,-1.864,-25.66)" />
    <path
       id="path3"
       d="m 11.46509,-47.77473 c 45.11769,1.2239 54.53247,-47.41909 116.7746,-29.11258"
       style="fill:none;stroke:#d0021b;stroke-width:1.49442;stroke-linecap:butt;stroke-linejoin:miter;stroke-miterlimit:10;stroke-dasharray:1.6837, 2.74971;stroke-dashoffset:0;stroke-opacity:1"
       transform="matrix(1.3333333,0,0,-1.3333333,-1.864,-25.66)" />
    <path
       id="path4"
       d="m 126.74901,-76.88731 c 0,0.82118 0.66949,1.48544 1.49068,1.48544 0.82118,0 1.48544,-0.66426 1.48544,-1.48544 0,-0.8264 -0.66426,-1.49068 -1.48544,-1.49068 -0.82119,0 -1.49068,0.66428 -1.49068,1.49068 z"
       style="fill:#000000;fill-opacity:1;fill-rule:nonzero;stroke:#000000;stroke-width:0.74721;stroke-linecap:butt;stroke-linejoin:miter;stroke-miterlimit:10;stroke-dasharray:none;stroke-opacity:1"
       transform="matrix(1.3333333,0,0,-1.3333333,-1.864,-25.66)" />
    <path
       id="path5"
       d="m 9.97964,-47.67014 c 0,0.82117 0.66428,1.48546 1.48545,1.48546 0.82116,0 1.49066,-0.66429 1.49066,-1.48546 0,-0.8264 -0.6695,-1.49066 -1.49066,-1.49066 -0.82117,0 -1.48545,0.66426 -1.48545,1.49066 z"
       style="fill:#000000;fill-opacity:1;fill-rule:nonzero;stroke:#000000;stroke-width:0.74721;stroke-linecap:butt;stroke-linejoin:miter;stroke-miterlimit:10;stroke-dasharray:none;stroke-opacity:1"
       transform="matrix(1.3333333,0,0,-1.3333333,-1.864,-25.66)" />
    <path
       id="path6"
       d="m 75.49078,-35.57738 c 0,0.82118 0.6695,1.49069 1.49068,1.49069 0.82118,0 1.48544,-0.66951 1.48544,-1.49069 0,-0.82116 -0.66426,-1.48542 -1.48544,-1.48542 -0.82118,0 -1.49068,0.66426 -1.49068,1.48542 z"
       style="fill:#000000;fill-opacity:1;fill-rule:nonzero;stroke:#000000;stroke-width:0.74721;stroke-linecap:butt;stroke-linejoin:miter;stroke-miterlimit:10;stroke-dasharray:none;stroke-opacity:1"
       transform="matrix(1.3333333,0,0,-1.3333333,-1.864,-25.66)" />
    <path
       id="path7"
       d="m 11.46509,-47.67014 c 45.11769,1.22394 54.53247,-47.41906 116.7746,-29.11257"
       style="fill:none;stroke:#d0021b;stroke-width:1.49442;stroke-linecap:butt;stroke-linejoin:miter;stroke-miterlimit:10;stroke-dasharray:1.6837, 2.74971;stroke-dashoffset:0;stroke-opacity:1"
       transform="matrix(1.3333333,0,0,-1.3333333,-1.864,-25.66)" />
    <path
       id="path8"
       d="m 126.74901,-76.78271 c 0,0.82118 0.66949,1.48545 1.49068,1.48545 0.82118,0 1.48544,-0.66427 1.48544,-1.48545 0,-0.82641 -0.66426,-1.49065 -1.48544,-1.49065 -0.82119,0 -1.49068,0.66424 -1.49068,1.49065 z"
       style="fill:#000000;fill-opacity:1;fill-rule:nonzero;stroke:#000000;stroke-width:0.74721;stroke-linecap:butt;stroke-linejoin:miter;stroke-miterlimit:10;stroke-dasharray:none;stroke-opacity:1"
       transform="matrix(1.3333333,0,0,-1.3333333,-1.864,-25.66)" />
    <path
       id="path9"
       d="m 160.5742,-47.67014 c 0,0.82117 0.66426,1.48546 1.48545,1.48546 0.8264,0 1.49067,-0.66429 1.49067,-1.48546 0,-0.8264 -0.66427,-1.49066 -1.49067,-1.49066 -0.82119,0 -1.48545,0.66426 -1.48545,1.49066 z"
       style="fill:#000000;fill-opacity:1;fill-rule:nonzero;stroke:#000000;stroke-width:0.74721;stroke-linecap:butt;stroke-linejoin:miter;stroke-miterlimit:10;stroke-dasharray:none;stroke-opacity:1"
       transform="matrix(1.3333333,0,0,-1.3333333,-1.864,-25.66)" />
    <path
       id="path10"
       d="m 226.09058,-35.57738 c 0,0.82118 0.66427,1.49069 1.48544,1.49069 0.82117,0 1.49066,-0.66951 1.49066,-1.49069 0,-0.82116 -0.66949,-1.48542 -1.49066,-1.48542 -0.82117,0 -1.48544,0.66426 -1.48544,1.48542 z"
       style="fill:#000000;fill-opacity:1;fill-rule:nonzero;stroke:#000000;stroke-width:0.74721;stroke-linecap:butt;stroke-linejoin:miter;stroke-miterlimit:10;stroke-dasharray:none;stroke-opacity:1"
       transform="matrix(1.3333333,0,0,-1.3333333,-1.864,-25.66)" />
    <path
       id="path11"
       d="m 227.57602,-35.57738 c 45.11769,1.22393 -10.9839,-59.51182 51.25822,-41.20533"
       style="fill:none;stroke:#d0021b;stroke-width:1.49442;stroke-linecap:butt;stroke-linejoin:miter;stroke-miterlimit:10;stroke-dasharray:1.6837, 2.74971;stroke-dashoffset:0;stroke-opacity:1"
       transform="matrix(1.3333333,0,0,-1.3333333,-1.864,-25.66)" />
    <path
       id="path12"
       d="m 277.34879,-76.78271 c 0,0.82118 0.66427,1.48545 1.48545,1.48545 0.82119,0 1.49068,-0.66427 1.49068,-1.48545 0,-0.82641 -0.66949,-1.49065 -1.49068,-1.49065 -0.82118,0 -1.48545,0.66424 -1.48545,1.49065 z"
       style="fill:#000000;fill-opacity:1;fill-rule:nonzero;stroke:#000000;stroke-width:0.74721;stroke-linecap:butt;stroke-linejoin:miter;stroke-miterlimit:10;stroke-dasharray:none;stroke-opacity:1"
       transform="matrix(1.3333333,0,0,-1.3333333,-1.864,-25.66)" />
    <path
       id="path13"
       d="M 143.6956,-97.54752 H 5.08919 v 73.74907 H 143.6956 Z"
       style="fill:#4a90e2;fill-opacity:0.06;fill-rule:nonzero;stroke:#000000;stroke-width:0.74721;stroke-linecap:butt;stroke-linejoin:miter;stroke-miterlimit:10;stroke-dasharray:none;stroke-opacity:0"
       transform="matrix(1.3333333,0,0,-1.3333333,-1.864,-25.66)" />
    <path
       id="path14"
       d="M 291.19374,-97.54752 H 152.58733 v 73.74907 h 138.60641 z"
       style="fill:#f5a623;fill-opacity:0.05;fill-rule:nonzero;stroke:#000000;stroke-width:0.74721;stroke-linecap:butt;stroke-linejoin:miter;stroke-miterlimit:10;stroke-dasharray:none;stroke-opacity:0"
       transform="matrix(1.3333333,0,0,-1.3333333,-1.864,-25.66)" />
    <path
       id="path15"
       d="m 76.98146,-35.68199 c 20.92172,15.6913 40.56198,-30.48294 51.25823,-41.10072"
       style="fill:none;stroke:#d0021b;stroke-width:1.49442;stroke-linecap:butt;stroke-linejoin:miter;stroke-miterlimit:10;stroke-dasharray:1.6837, 2.74971;stroke-dashoffset:0;stroke-opacity:1"
       transform="matrix(1.3333333,0,0,-1.3333333,-1.864,-25.66)" />
    <path
       id="path16"
       d="m 162.05965,-47.67014 c 20.92172,15.6913 44.59465,-3.59852 65.51637,12.09276"
       style="fill:none;stroke:#d0021b;stroke-width:1.49442;stroke-linecap:butt;stroke-linejoin:miter;stroke-miterlimit:10;stroke-dasharray:1.6837, 2.74971;stroke-dashoffset:0;stroke-opacity:1"
       transform="matrix(1.3333333,0,0,-1.3333333,-1.864,-25.66)" />
    <path
       id="path17"
       d="m 13.07607,-125.60355 c 0,0.82117 0.66426,1.48545 1.48543,1.48545 0.82641,0 1.49067,-0.66428 1.49067,-1.48545 0,-0.8264 -0.66426,-1.49067 -1.49067,-1.49067 -0.82117,0 -1.48543,0.66427 -1.48543,1.49067 z"
       style="fill:#000000;fill-opacity:1;fill-rule:nonzero;stroke:#000000;stroke-width:0.74721;stroke-linecap:butt;stroke-linejoin:miter;stroke-miterlimit:10;stroke-dasharray:none;stroke-opacity:1"
       transform="matrix(1.3333333,0,0,-1.3333333,-1.864,-25.66)" />
    <path
       id="path18"
       d="m 78.59242,-113.51079 c 0,0.82119 0.66428,1.49069 1.48545,1.49069 0.82118,0 1.49067,-0.6695 1.49067,-1.49069 0,-0.82116 -0.66949,-1.48544 -1.49067,-1.48544 -0.82117,0 -1.48545,0.66428 -1.48545,1.48544 z"
       style="fill:#000000;fill-opacity:1;fill-rule:nonzero;stroke:#000000;stroke-width:0.74721;stroke-linecap:butt;stroke-linejoin:miter;stroke-miterlimit:10;stroke-dasharray:none;stroke-opacity:1"
       transform="matrix(1.3333333,0,0,-1.3333333,-1.864,-25.66)" />
    <path
       id="path19"
       d="m 42.74829,-119.5467 c 31.94748,-20.51376 26.34569,-53.47593 88.58781,-35.16943"
       style="fill:none;stroke:#d0021b;stroke-width:1.49442;stroke-linecap:butt;stroke-linejoin:miter;stroke-miterlimit:10;stroke-dasharray:1.6837, 2.74971;stroke-dashoffset:0;stroke-opacity:1"
       transform="matrix(1.3333333,0,0,-1.3333333,-1.864,-25.66)" />
    <path
       id="path20"
       d="m 129.85066,-154.71613 c 0,0.82119 0.66426,1.48545 1.48544,1.48545 0.82117,0 1.49067,-0.66426 1.49067,-1.48545 0,-0.8264 -0.6695,-1.49067 -1.49067,-1.49067 -0.82118,0 -1.48544,0.66427 -1.48544,1.49067 z"
       style="fill:#000000;fill-opacity:1;fill-rule:nonzero;stroke:#000000;stroke-width:0.74721;stroke-linecap:butt;stroke-linejoin:miter;stroke-miterlimit:10;stroke-dasharray:none;stroke-opacity:1"
       transform="matrix(1.3333333,0,0,-1.3333333,-1.864,-25.66)" />
    <path
       id="path21"
       d="m 14.5615,-125.60355 c 20.92172,15.69129 44.59464,-3.59852 65.51637,12.09276"
       style="fill:none;stroke:#d0021b;stroke-width:1.49442;stroke-linecap:butt;stroke-linejoin:miter;stroke-miterlimit:10;stroke-dasharray:1.6837, 2.74971;stroke-dashoffset:0;stroke-opacity:1"
       transform="matrix(1.3333333,0,0,-1.3333333,-1.864,-25.66)" />
    <path
       id="path22"
       d="M 143.6956,-180.08371 H 5.08919 v 73.74907 H 143.6956 Z"
       style="fill:#f5a623;fill-opacity:0.05;fill-rule:nonzero;stroke:#000000;stroke-width:0.74721;stroke-linecap:butt;stroke-linejoin:miter;stroke-miterlimit:10;stroke-dasharray:none;stroke-opacity:0"
       transform="matrix(1.3333333,0,0,-1.3333333,-1.864,-25.66)" />
    <path
       id="path23"
       d="m 3.7152187,-3.7629062 c -0.1757812,-0.375 -0.46875,-0.6445313 -0.9140625,-0.6445313 -1.171875,0 -2.4023437,1.4648438 -2.4023437,2.9179688 0,0.93749995 0.55078125,1.59374995 1.3242187,1.59374995 0.1992188,0 0.703125,-0.03515625 1.3007813,-0.73828125 0.070312,0.41015625 0.421875,0.73828125 0.9023437,0.73828125 0.3515625,0 0.5742188,-0.22265625 0.7382813,-0.5390625 C 4.8285,-0.7980625 4.9574062,-1.4074375 4.9574062,-1.430875 c 0,-0.09375 -0.082031,-0.09375 -0.1171875,-0.09375 -0.09375,0 -0.1054687,0.035156 -0.140625,0.1757813 -0.1640625,0.6445312 -0.3515625,1.24218745 -0.75,1.24218745 -0.2695312,0 -0.3046875,-0.2578125 -0.3046875,-0.45703125 0,-0.22265625 0.023437,-0.3046875 0.1289063,-0.7382812 C 3.891,-1.7238437 3.9027187,-1.8293125 3.9964687,-2.2043125 l 0.3515625,-1.3945312 c 0.070312,-0.28125 0.070312,-0.2929688 0.070312,-0.3398438 0,-0.1640625 -0.1171875,-0.2695312 -0.28125,-0.2695312 -0.2460937,0 -0.3867187,0.2226562 -0.4218745,0.4453125 z m -0.6445312,2.578125 C 3.0238125,-1.009 3.0238125,-0.9855625 2.8714687,-0.8215 c -0.4453125,0.55078125 -0.84375,0.71484375 -1.125,0.71484375 -0.5039062,0 -0.6445312,-0.55078125 -0.6445312,-0.93749995 0,-0.5039063 0.328125,-1.7226563 0.5507812,-2.1796875 0.3046875,-0.5976563 0.7617188,-0.9609375 1.1601563,-0.9609375 0.6445312,0 0.7851562,0.8203125 0.7851562,0.8789062 0,0.058594 -0.023437,0.1171875 -0.035156,0.1640625 z m 0,0"
       style="fill:#000000;fill-opacity:1;fill-rule:nonzero;stroke:none"
       aria-label="a"
       transform="matrix(1.3333333,0,0,1.3333333,16.312,47.345333)" />
    <path
       id="path24"
       d="m 2.3798828,-6.8086719 c 0,0 0,-0.1054687 -0.1289062,-0.1054687 -0.2226563,0 -0.9492188,0.082031 -1.21875,0.1054687 -0.0703125,0 -0.18750004,0.011719 -0.18750004,0.1992188 0,0.1171875 0.09375,0.1171875 0.24609374,0.1171875 0.46875,0 0.4921875,0.070312 0.4921875,0.1640625 0,0.070312 -0.082031,0.4101562 -0.140625,0.6210937 l -0.80859374,3.2460938 c -0.12890625,0.5039062 -0.1640625,0.65625 -0.1640625,1.0078125 0,0.94921873 0.52734375,1.55859373 1.26562504,1.55859373 1.171875,0 2.4023437,-1.47656253 2.4023437,-2.91796873 0,-0.9023438 -0.5273437,-1.59375 -1.3242187,-1.59375 -0.4570313,0 -0.8671875,0.2929687 -1.171875,0.5976562 z m -0.9375,3.7734375 c 0.058594,-0.2226562 0.058594,-0.2460937 0.1523438,-0.3515625 0.4921875,-0.6445312 0.9375,-0.796875 1.1953125,-0.796875 0.3632812,0 0.6328125,0.2929688 0.6328125,0.9375 0,0.5859375 -0.328125,1.734375 -0.515625,2.109375 -0.328125,0.66796878 -0.7851563,1.03125003 -1.171875,1.03125003 -0.3398438,0 -0.6679688,-0.26953125 -0.6679688,-1.00781253 0,-0.1875 0,-0.3867187 0.1640625,-1.0078125 z m 0,0"
       style="fill:#000000;fill-opacity:1;fill-rule:nonzero;stroke:none"
       aria-label="b"
       transform="matrix(1.3333333,0,0,1.3333333,103.66667,34.726667)" />
    <path
       id="path25"
       d="M 5.0622891,-2.6942656 C 4.5232266,-3.3739531 4.4060391,-3.5262969 4.0896328,-3.7723906 3.5388516,-4.2177031 2.9763516,-4.4052031 2.4724453,-4.4052031 c -1.171875,0 -1.92187499,1.1015625 -1.92187499,2.2617187 0,1.14843753 0.73828129,2.25000003 1.87499999,2.25000003 1.1484375,0 1.9804688,-0.90234375 2.4609375,-1.69921873 0.5390625,0.67968748 0.65625,0.83203123 0.9726563,1.07812498 0.5507812,0.4453125 1.1132812,0.62109375 1.6171875,0.62109375 1.171875,0 1.921875,-1.08984375 1.921875,-2.26171873 0,-1.1367188 -0.7265625,-2.25 -1.875,-2.25 -1.1484375,0 -1.9804688,0.9140625 -2.4609375,1.7109375 z m 0.2578125,0.3398437 c 0.4101562,-0.7265625 1.1484375,-1.734375 2.2734375,-1.734375 1.0546875,0 1.59375,1.0429688 1.59375,1.9335938 0,0.984375 -0.6679688,1.79296873 -1.546875,1.79296873 -0.5742188,0 -1.03125,-0.421875 -1.2304688,-0.6328125 C 6.1521328,-1.2645781 5.9294766,-1.5692656 5.3201016,-2.3544219 Z m -0.6914063,0.421875 c -0.4101562,0.7148438 -1.1367187,1.72265628 -2.2734375,1.72265628 -1.0546875,0 -1.59374999,-1.03124998 -1.59374999,-1.93359378 0,-0.9726562 0.66796879,-1.78125 1.54687499,-1.78125 0.5859375,0 1.03125,0.421875 1.2421875,0.6328125 0.2460938,0.2695313 0.46875,0.5742188 1.078125,1.359375 z m 0,0"
       style="fill:#000000;fill-opacity:1;fill-rule:nonzero;stroke:none"
       aria-label="∞"
       transform="matrix(1.3333333,0,0,1.3333333,172.012,86.162667)" />
    <path
       id="path26"
       d="m 3.7152187,-3.7614453 c -0.1757812,-0.375 -0.46875,-0.6445313 -0.9140625,-0.6445313 -1.171875,0 -2.4023437,1.4648438 -2.4023437,2.9179688 0,0.93749999 0.55078125,1.59374999 1.3242187,1.59374999 0.1992188,0 0.703125,-0.03515625 1.3007813,-0.73828125 0.070312,0.41015625 0.421875,0.73828125 0.9023437,0.73828125 0.3515625,0 0.5742188,-0.22265625 0.7382813,-0.5390625 C 4.8285,-0.79660156 4.9574062,-1.4059766 4.9574062,-1.4294141 c 0,-0.09375 -0.082031,-0.09375 -0.1171875,-0.09375 -0.09375,0 -0.1054687,0.035156 -0.140625,0.1757813 -0.1640625,0.64453124 -0.3515625,1.24218749 -0.75,1.24218749 -0.2695312,0 -0.3046875,-0.2578125 -0.3046875,-0.45703125 0,-0.22265625 0.023437,-0.3046875 0.1289063,-0.73828124 C 3.891,-1.7223828 3.9027187,-1.8278516 3.9964687,-2.2028516 l 0.3515625,-1.3945312 c 0.070312,-0.28125 0.070312,-0.2929688 0.070312,-0.3398438 0,-0.1640625 -0.1171875,-0.2695312 -0.28125,-0.2695312 -0.2460937,0 -0.3867187,0.2226562 -0.4218745,0.4453125 z m -0.6445312,2.578125 c -0.046875,0.1757812 -0.046875,0.19921874 -0.1992188,0.36328124 -0.4453125,0.55078125 -0.84375,0.71484375 -1.125,0.71484375 -0.5039062,0 -0.6445312,-0.55078125 -0.6445312,-0.93749999 0,-0.5039063 0.328125,-1.7226563 0.5507812,-2.1796875 0.3046875,-0.5976563 0.7617188,-0.9609375 1.1601563,-0.9609375 0.6445312,0 0.7851562,0.8203125 0.7851562,0.8789062 0,0.058594 -0.023437,0.1171875 -0.035156,0.1640625 z m 0,0"
       style="fill:#000000;fill-opacity:1;fill-rule:nonzero;stroke:none"
       aria-label="a"
       transform="matrix(1.3333333,0,0,1.3333333,16.312,47.206667)" />
    <path
       id="path27"
       d="m 2.3798828,-6.8072109 c 0,0 0,-0.1054688 -0.1289062,-0.1054688 -0.2226563,0 -0.9492188,0.082031 -1.21875,0.1054688 -0.0703125,0 -0.18750004,0.011719 -0.18750004,0.1992187 0,0.1171875 0.09375,0.1171875 0.24609374,0.1171875 0.46875,0 0.4921875,0.070312 0.4921875,0.1640625 0,0.070312 -0.082031,0.4101563 -0.140625,0.6210938 l -0.80859374,3.2460937 c -0.12890625,0.5039063 -0.1640625,0.65625 -0.1640625,1.0078125 0,0.94921876 0.52734375,1.55859376 1.26562504,1.55859376 1.171875,0 2.4023437,-1.47656246 2.4023437,-2.91796876 0,-0.9023437 -0.5273437,-1.59375 -1.3242187,-1.59375 -0.4570313,0 -0.8671875,0.2929688 -1.171875,0.5976563 z m -0.9375,3.7734375 c 0.058594,-0.2226563 0.058594,-0.2460938 0.1523438,-0.3515625 0.4921875,-0.6445313 0.9375,-0.796875 1.1953125,-0.796875 0.3632812,0 0.6328125,0.2929687 0.6328125,0.9375 0,0.5859375 -0.328125,1.734375 -0.515625,2.109375 -0.328125,0.66796871 -0.7851563,1.03124996 -1.171875,1.03124996 -0.3398438,0 -0.6679688,-0.26953125 -0.6679688,-1.00781246 0,-0.1875 0,-0.3867188 0.1640625,-1.0078125 z m 0,0"
       style="fill:#000000;fill-opacity:1;fill-rule:nonzero;stroke:none"
       aria-label="b"
       transform="matrix(1.3333333,0,0,1.3333333,103.66667,34.588)" />
    <path
       id="path28"
       d="M 5.0622891,-2.6947344 C 4.5232266,-3.3744219 4.4060391,-3.5267656 4.0896328,-3.7728594 3.5388516,-4.2181719 2.9763516,-4.4056719 2.4724453,-4.4056719 c -1.171875,0 -1.92187499,1.1015625 -1.92187499,2.2617188 0,1.14843748 0.73828129,2.24999998 1.87499999,2.24999998 1.1484375,0 1.9804688,-0.90234375 2.4609375,-1.69921878 0.5390625,0.67968753 0.65625,0.83203128 0.9726563,1.07812503 0.5507812,0.4453125 1.1132812,0.62109375 1.6171875,0.62109375 1.171875,0 1.921875,-1.08984375 1.921875,-2.26171878 0,-1.1367187 -0.7265625,-2.25 -1.875,-2.25 -1.1484375,0 -1.9804688,0.9140625 -2.4609375,1.7109375 z m 0.2578125,0.3398438 c 0.4101562,-0.7265625 1.1484375,-1.734375 2.2734375,-1.734375 1.0546875,0 1.59375,1.0429687 1.59375,1.9335937 0,0.984375 -0.6679688,1.79296878 -1.546875,1.79296878 -0.5742188,0 -1.03125,-0.421875 -1.2304688,-0.6328125 C 6.1521328,-1.2650469 5.9294766,-1.5697344 5.3201016,-2.3548906 Z m -0.6914063,0.421875 c -0.4101562,0.7148437 -1.1367187,1.72265623 -2.2734375,1.72265623 -1.0546875,0 -1.59374999,-1.03125003 -1.59374999,-1.93359373 0,-0.9726563 0.66796879,-1.78125 1.54687499,-1.78125 0.5859375,0 1.03125,0.421875 1.2421875,0.6328125 0.2460938,0.2695312 0.46875,0.5742187 1.078125,1.359375 z m 0,0"
       style="fill:#000000;fill-opacity:1;fill-rule:nonzero;stroke:none"
       aria-label="∞"
       transform="matrix(1.3333333,0,0,1.3333333,172.012,86.022667)" />
    <path
       id="path29"
       d="m 3.7149453,-3.7614453 c -0.1757812,-0.375 -0.46875,-0.6445313 -0.9140625,-0.6445313 -1.171875,0 -2.40234374,1.4648438 -2.40234374,2.9179688 0,0.93749999 0.55078125,1.59374999 1.32421874,1.59374999 0.1992188,0 0.703125,-0.03515625 1.3007813,-0.73828125 0.070312,0.41015625 0.421875,0.73828125 0.9023437,0.73828125 0.3515625,0 0.5742188,-0.22265625 0.7382813,-0.5390625 0.1640625,-0.36328125 0.2929687,-0.97265629 0.2929687,-0.99609379 0,-0.09375 -0.082031,-0.09375 -0.1171875,-0.09375 -0.09375,0 -0.1054687,0.035156 -0.140625,0.1757813 -0.1640625,0.64453124 -0.3515625,1.24218749 -0.75,1.24218749 -0.2695312,0 -0.3046875,-0.2578125 -0.3046875,-0.45703125 0,-0.22265625 0.023437,-0.3046875 0.1289063,-0.73828124 0.1171875,-0.421875 0.1289062,-0.5273438 0.2226562,-0.9023438 l 0.3515625,-1.3945312 c 0.070312,-0.28125 0.070312,-0.2929688 0.070312,-0.3398438 0,-0.1640625 -0.1171875,-0.2695312 -0.28125,-0.2695312 -0.2460937,0 -0.3867187,0.2226562 -0.4218745,0.4453125 z m -0.6445312,2.578125 c -0.046875,0.1757812 -0.046875,0.19921874 -0.1992188,0.36328124 -0.4453125,0.55078125 -0.84375,0.71484375 -1.125,0.71484375 -0.5039062,0 -0.6445312,-0.55078125 -0.6445312,-0.93749999 0,-0.5039063 0.328125,-1.7226563 0.5507812,-2.1796875 0.3046875,-0.5976563 0.7617188,-0.9609375 1.1601563,-0.9609375 0.6445312,0 0.7851562,0.8203125 0.7851562,0.8789062 0,0.058594 -0.023437,0.1171875 -0.035156,0.1640625 z m 0,0"
       style="fill:#000000;fill-opacity:1;fill-rule:nonzero;stroke:none"
       aria-label="a"
       transform="matrix(1.3333333,0,0,1.3333333,217.10533,47.206667)" />
    <path
       id="path30"
       d="m 2.3796094,-6.8072109 c 0,0 0,-0.1054688 -0.1289063,-0.1054688 -0.2226562,0 -0.9492187,0.082031 -1.21875,0.1054688 -0.0703125,0 -0.18749997,0.011719 -0.18749997,0.1992187 0,0.1171875 0.09375,0.1171875 0.24609377,0.1171875 0.46875,0 0.4921875,0.070312 0.4921875,0.1640625 0,0.070312 -0.082031,0.4101563 -0.140625,0.6210938 l -0.80859377,3.2460937 c -0.12890625,0.5039063 -0.1640625,0.65625 -0.1640625,1.0078125 0,0.94921876 0.52734375,1.55859376 1.26562497,1.55859376 1.171875,0 2.4023438,-1.47656246 2.4023438,-2.91796876 0,-0.9023437 -0.5273438,-1.59375 -1.3242188,-1.59375 -0.4570312,0 -0.8671875,0.2929688 -1.171875,0.5976563 z m -0.9375,3.7734375 c 0.058594,-0.2226563 0.058594,-0.2460938 0.1523437,-0.3515625 0.4921875,-0.6445313 0.9375,-0.796875 1.1953125,-0.796875 0.3632813,0 0.6328125,0.2929687 0.6328125,0.9375 0,0.5859375 -0.328125,1.734375 -0.515625,2.109375 -0.328125,0.66796871 -0.7851562,1.03124996 -1.171875,1.03124996 -0.3398437,0 -0.6679687,-0.26953125 -0.6679687,-1.00781246 0,-0.1875 0,-0.3867188 0.1640625,-1.0078125 z m 0,0"
       style="fill:#000000;fill-opacity:1;fill-rule:nonzero;stroke:none"
       aria-label="b"
       transform="matrix(1.3333333,0,0,1.3333333,304.46,34.588)" />
    <path
       id="path31"
       d="M 5.0630156,-2.6947344 C 4.5239531,-3.3744219 4.4067656,-3.5267656 4.0903594,-3.7728594 3.5395781,-4.2181719 2.9770781,-4.4056719 2.4731719,-4.4056719 c -1.171875,0 -1.92187502,1.1015625 -1.92187502,2.2617188 0,1.14843748 0.73828122,2.24999998 1.87500002,2.24999998 1.1484375,0 1.9804687,-0.90234375 2.4609375,-1.69921878 0.5390625,0.67968753 0.65625,0.83203128 0.9726562,1.07812503 0.5507813,0.4453125 1.1132813,0.62109375 1.6171875,0.62109375 1.171875,0 1.921875,-1.08984375 1.921875,-2.26171878 0,-1.1367187 -0.7265625,-2.25 -1.875,-2.25 -1.1484375,0 -1.9804687,0.9140625 -2.4609375,1.7109375 z m 0.2578125,0.3398438 c 0.4101563,-0.7265625 1.1484375,-1.734375 2.2734375,-1.734375 1.0546875,0 1.59375,1.0429687 1.59375,1.9335937 0,0.984375 -0.6679687,1.79296878 -1.546875,1.79296878 -0.5742187,0 -1.03125,-0.421875 -1.2304687,-0.6328125 C 6.1528594,-1.2650469 5.9302031,-1.5697344 5.3208281,-2.3548906 Z m -0.6914062,0.421875 c -0.4101563,0.7148437 -1.1367188,1.72265623 -2.2734375,1.72265623 -1.0546875,0 -1.59375002,-1.03125003 -1.59375002,-1.93359373 0,-0.9726563 0.66796872,-1.78125 1.54687502,-1.78125 0.5859375,0 1.03125,0.421875 1.2421875,0.6328125 0.2460937,0.2695312 0.46875,0.5742187 1.078125,1.359375 z m 0,0"
       style="fill:#000000;fill-opacity:1;fill-rule:nonzero;stroke:none"
       aria-label="∞"
       transform="matrix(1.3333333,0,0,1.3333333,372.804,86.022667)" />
    <path
       id="path32"
       d="m 3.7158984,-3.7618281 c -0.1757812,-0.375 -0.46875,-0.6445313 -0.9140625,-0.6445313 -1.171875,0 -2.40234371,1.4648438 -2.40234371,2.9179688 0,0.93749998 0.55078125,1.59374998 1.32421871,1.59374998 0.1992188,0 0.703125,-0.03515625 1.3007813,-0.73828125 0.070312,0.41015625 0.421875,0.73828125 0.9023437,0.73828125 0.3515625,0 0.5742188,-0.22265625 0.7382813,-0.5390625 0.1640625,-0.36328125 0.2929687,-0.97265628 0.2929687,-0.99609378 0,-0.09375 -0.082031,-0.09375 -0.1171875,-0.09375 -0.09375,0 -0.1054687,0.035156 -0.140625,0.1757813 -0.1640625,0.64453123 -0.3515625,1.24218748 -0.75,1.24218748 -0.2695312,0 -0.3046875,-0.2578125 -0.3046875,-0.45703125 0,-0.22265625 0.023437,-0.3046875 0.1289063,-0.73828123 0.1171875,-0.421875 0.1289062,-0.5273438 0.2226562,-0.9023438 l 0.3515625,-1.3945312 c 0.070312,-0.28125 0.070312,-0.2929688 0.070312,-0.3398438 0,-0.1640625 -0.1171875,-0.2695312 -0.28125,-0.2695312 -0.2460937,0 -0.3867187,0.2226562 -0.4218745,0.4453125 z m -0.6445312,2.578125 c -0.046875,0.1757812 -0.046875,0.19921873 -0.1992188,0.36328123 -0.4453125,0.55078125 -0.84375,0.71484375 -1.125,0.71484375 -0.5039062,0 -0.6445312,-0.55078125 -0.6445312,-0.93749998 0,-0.5039063 0.328125,-1.7226563 0.5507812,-2.1796875 0.3046875,-0.5976563 0.7617188,-0.9609375 1.1601563,-0.9609375 0.6445312,0 0.7851562,0.8203125 0.7851562,0.8789062 0,0.058594 -0.023437,0.1171875 -0.035156,0.1640625 z m 0,0"
       style="fill:#000000;fill-opacity:1;fill-rule:nonzero;stroke:none"
       aria-label="a"
       transform="matrix(1.3333333,0,0,1.3333333,20.44,151.11733)" />
    <path
       id="path33"
       d="m 2.3795625,-6.8075937 c 0,0 0,-0.1054688 -0.1289063,-0.1054688 -0.2226562,0 -0.9492187,0.082031 -1.21875,0.1054688 -0.0703125,0 -0.18749995,0.011719 -0.18749995,0.1992187 0,0.1171875 0.09375,0.1171875 0.24609375,0.1171875 0.46875,0 0.4921875,0.070312 0.4921875,0.1640625 0,0.070312 -0.082031,0.4101563 -0.140625,0.6210938 l -0.80859375,3.2460937 c -0.12890625,0.5039063 -0.1640625,0.65625 -0.1640625,1.0078125 0,0.94921875 0.52734375,1.55859375 1.26562495,1.55859375 1.171875,0 2.4023438,-1.47656245 2.4023438,-2.91796875 0,-0.9023437 -0.5273438,-1.59375 -1.3242188,-1.59375 -0.4570312,0 -0.8671875,0.2929688 -1.171875,0.5976563 z m -0.9375,3.7734375 c 0.058594,-0.2226563 0.058594,-0.2460938 0.1523437,-0.3515625 0.4921875,-0.6445313 0.9375,-0.796875 1.1953125,-0.796875 0.3632813,0 0.6328125,0.2929687 0.6328125,0.9375 0,0.5859375 -0.328125,1.734375 -0.515625,2.109375 -0.328125,0.6679687 -0.7851562,1.03124995 -1.171875,1.03124995 -0.3398437,0 -0.6679687,-0.26953125 -0.6679687,-1.00781245 0,-0.1875 0,-0.3867188 0.1640625,-1.0078125 z m 0,0"
       style="fill:#000000;fill-opacity:1;fill-rule:nonzero;stroke:none"
       aria-label="b"
       transform="matrix(1.3333333,0,0,1.3333333,107.796,138.49867)" />
    <path
       id="path34"
       d="M 5.0629688,-2.6961172 C 4.5239063,-3.3758047 4.4067188,-3.5281484 4.0903125,-3.7742422 3.5395313,-4.2195547 2.9770313,-4.4070547 2.473125,-4.4070547 c -1.171875,0 -1.921875,1.1015625 -1.921875,2.2617188 0,1.14843746 0.7382813,2.24999996 1.875,2.24999996 1.1484375,0 1.9804688,-0.90234375 2.4609375,-1.69921876 0.5390625,0.67968751 0.65625,0.83203126 0.9726563,1.07812501 0.5507812,0.4453125 1.1132812,0.62109375 1.6171875,0.62109375 1.171875,0 1.921875,-1.08984375 1.921875,-2.26171876 0,-1.1367187 -0.7265625,-2.25 -1.875,-2.25 -1.1484375,0 -1.9804688,0.9140625 -2.4609375,1.7109375 z m 0.2578125,0.3398438 c 0.4101562,-0.7265625 1.1484375,-1.734375 2.2734375,-1.734375 1.0546875,0 1.59375,1.0429687 1.59375,1.9335937 0,0.984375 -0.6679688,1.79296876 -1.546875,1.79296876 -0.5742188,0 -1.03125,-0.421875 -1.2304688,-0.6328125 C 6.1528125,-1.2664297 5.9301563,-1.5711172 5.3207813,-2.3562734 Z m -0.6914063,0.421875 c -0.4101562,0.7148437 -1.1367187,1.72265621 -2.2734375,1.72265621 -1.0546875,0 -1.59375,-1.03125001 -1.59375,-1.93359371 0,-0.9726563 0.6679688,-1.78125 1.546875,-1.78125 0.5859375,0 1.03125,0.421875 1.2421875,0.6328125 0.2460938,0.2695312 0.46875,0.5742187 1.078125,1.359375 z m 0,0"
       style="fill:#000000;fill-opacity:1;fill-rule:nonzero;stroke:none"
       aria-label="∞"
       transform="matrix(1.3333333,0,0,1.3333333,176.14,189.93467)" />
  </g>
</svg>
