<?xml version="1.0" encoding="UTF-8" standalone="no"?>
<!-- Created with Inkscape (http://www.inkscape.org/) -->

<svg
   version="1.1"
   id="svg1"
   width="376.81332"
   height="171.75999"
   viewBox="0 0 376.81332 171.75999"
   xmlns="http://www.w3.org/2000/svg"
   xmlns:svg="http://www.w3.org/2000/svg">
  <defs
     id="defs1" />
  <g
     id="g1">
    <path
       id="path1"
       d="m 206.28908,-80.20525 c 0,1.1731 0.94894,2.12206 2.12205,2.12206 1.17313,0 2.12957,-0.94896 2.12957,-2.12206 0,-1.18058 -0.95644,-2.12956 -2.12957,-2.12956 -1.17311,0 -2.12205,0.94898 -2.12205,2.12956 z"
       style="fill:#000000;fill-opacity:1;fill-rule:nonzero;stroke:#000000;stroke-width:0.74721;stroke-linecap:butt;stroke-linejoin:miter;stroke-miterlimit:10;stroke-dasharray:none;stroke-opacity:1"
       transform="matrix(1.3333333,0,0,-1.3333333,-65.773333,-11.362667)" />
    <path
       id="path2"
       d="m 152.251,-71.93367 c 4.00506,27.42252 27.62427,48.4863 56.16013,48.4863 31.35285,0 56.76538,-25.41253 56.76538,-56.75788 0,-31.35284 -25.41253,-56.76538 -56.76538,-56.76538 -28.83473,0 -52.64823,21.49718 -56.27966,49.3456 l 56.27966,7.41978 z"
       style="fill:none;stroke:#000000;stroke-width:0.74721;stroke-linecap:butt;stroke-linejoin:miter;stroke-miterlimit:10;stroke-dasharray:none;stroke-opacity:0"
       transform="matrix(1.3333333,0,0,-1.3333333,-65.773333,-11.362667)" />
    <path
       id="path3"
       d="m 152.251,-71.93367 c 4.00506,27.42252 27.62427,48.4863 56.16013,48.4863 31.35285,0 56.76538,-25.41253 56.76538,-56.75788 0,-31.35284 -25.41253,-56.76538 -56.76538,-56.76538 -28.83473,0 -52.64823,21.49718 -56.27966,49.3456"
       style="fill:none;stroke:#000000;stroke-width:0.74721;stroke-linecap:butt;stroke-linejoin:miter;stroke-miterlimit:10;stroke-dasharray:none;stroke-opacity:1"
       transform="matrix(1.3333333,0,0,-1.3333333,-65.773333,-11.362667)" />
    <path
       id="path4"
       d="m 168.15906,-42.7328 -4.40853,-2.09217 0.97138,4.78212 0.37361,-3.06355 z"
       style="fill:#000000;fill-opacity:1;fill-rule:nonzero;stroke:#000000;stroke-width:0.74721;stroke-linecap:butt;stroke-linejoin:miter;stroke-miterlimit:10;stroke-dasharray:none;stroke-opacity:1"
       transform="matrix(1.3333333,0,0,-1.3333333,-65.773333,-11.362667)" />
    <path
       id="path5"
       d="m 262.77797,-80.20525 c 0,1.1731 0.94896,2.12206 2.12207,2.12206 1.17311,0 2.12955,-0.94896 2.12955,-2.12206 0,-1.18058 -0.95644,-2.12956 -2.12955,-2.12956 -1.17311,0 -2.12207,0.94898 -2.12207,2.12956 z"
       style="fill:#9013fe;fill-opacity:1;fill-rule:nonzero;stroke:#9013fe;stroke-width:0.74721;stroke-linecap:butt;stroke-linejoin:miter;stroke-miterlimit:10;stroke-dasharray:none;stroke-opacity:1"
       transform="matrix(1.3333333,0,0,-1.3333333,-65.773333,-11.362667)" />
    <path
       id="path6"
       d="M 63.85635,-80.20525 H 208.41113"
       style="fill:none;stroke:#d0021b;stroke-width:1.49442;stroke-linecap:butt;stroke-linejoin:miter;stroke-miterlimit:10;stroke-dasharray:1.6837, 2.74971;stroke-dashoffset:0;stroke-opacity:1"
       transform="matrix(1.3333333,0,0,-1.3333333,-65.773333,-11.362667)" />
    <path
       id="path7"
       d="m 238.86732,-33.50478 c 0,1.17311 0.94896,2.12206 2.12208,2.12206 1.1731,0 2.12954,-0.94895 2.12954,-2.12206 0,-1.18058 -0.95644,-2.12954 -2.12954,-2.12954 -1.17312,0 -2.12208,0.94896 -2.12208,2.12954 z"
       style="fill:#f5a623;fill-opacity:1;fill-rule:nonzero;stroke:#f5a623;stroke-width:0.74721;stroke-linecap:butt;stroke-linejoin:miter;stroke-miterlimit:10;stroke-dasharray:none;stroke-opacity:1"
       transform="matrix(1.3333333,0,0,-1.3333333,-65.773333,-11.362667)" />
    <path
       id="path8"
       d="m 221.72638,-62.17514 c 5.52188,-4.07974 9.10098,-10.64023 9.10098,-18.03011 h -22.41623 z"
       style="fill:#f5a623;fill-opacity:0.1;fill-rule:nonzero;stroke:#000000;stroke-width:0.74721;stroke-linecap:butt;stroke-linejoin:miter;stroke-miterlimit:10;stroke-dasharray:none;stroke-opacity:0"
       transform="matrix(1.3333333,0,0,-1.3333333,-65.773333,-11.362667)" />
    <path
       id="path9"
       d="m 221.72638,-62.17514 c 5.52188,-4.07974 9.10098,-10.64023 9.10098,-18.03011"
       style="fill:none;stroke:#000000;stroke-width:0.74721;stroke-linecap:butt;stroke-linejoin:miter;stroke-miterlimit:10;stroke-dasharray:none;stroke-opacity:1"
       transform="matrix(1.3333333,0,0,-1.3333333,-65.773333,-11.362667)" />
    <path
       id="path10"
       d="M 240.9894,-33.50478 208.41113,-80.20525"
       style="fill:none;stroke:#9b9b9b;stroke-width:0.74721;stroke-linecap:butt;stroke-linejoin:miter;stroke-miterlimit:10;stroke-dasharray:none;stroke-opacity:0.26"
       transform="matrix(1.3333333,0,0,-1.3333333,-65.773333,-11.362667)" />
    <path
       id="path11"
       d="m 150.12148,-71.93367 c 0,1.17313 0.95643,2.12207 2.12952,2.12207 1.17313,0 2.1221,-0.94894 2.1221,-2.12207 0,-1.17311 -0.94897,-2.12955 -2.1221,-2.12955 -1.17309,0 -2.12952,0.95644 -2.12952,2.12955 z"
       style="fill:#4a90e2;fill-opacity:1;fill-rule:nonzero;stroke:#4a90e2;stroke-width:0.74721;stroke-linecap:butt;stroke-linejoin:miter;stroke-miterlimit:10;stroke-dasharray:none;stroke-opacity:1"
       transform="matrix(1.3333333,0,0,-1.3333333,-65.773333,-11.362667)" />
    <path
       id="path12"
       d="m 150.00938,-87.62503 c 0,1.17313 0.94896,2.12207 2.12209,2.12207 1.1731,0 2.12207,-0.94894 2.12207,-2.12207 0,-1.18059 -0.94897,-2.12955 -2.12207,-2.12955 -1.17313,0 -2.12209,0.94896 -2.12209,2.12955 z"
       style="fill:#417505;fill-opacity:1;fill-rule:nonzero;stroke:#417505;stroke-width:0.74721;stroke-linecap:butt;stroke-linejoin:miter;stroke-miterlimit:10;stroke-dasharray:none;stroke-opacity:1"
       transform="matrix(1.3333333,0,0,-1.3333333,-65.773333,-11.362667)" />
    <path
       id="path13"
       d="m 4.5813437,-3.1876797 c 0,-0.796875 -0.046875,-1.59375 -0.3984375,-2.3320312 -0.4570312,-0.9609375 -1.2773437,-1.1132813 -1.6875,-1.1132813 -0.5976562,0 -1.3359375,0.2578125 -1.73437495,1.1835938 -0.328125,0.6914062 -0.375,1.4648437 -0.375,2.2617187 0,0.75 0.046875,1.640625 0.4453125,2.40234376 0.43359375,0.80859375 1.16015625,1.0078125 1.65234375,1.0078125 0.5390625,0 1.2890625,-0.2109375 1.734375,-1.16015625 C 4.5344687,-1.6290859 4.5813437,-2.4025234 4.5813437,-3.1876797 Z M 2.4836875,-1.796875e-4 c -0.3867188,0 -0.984375,-0.2460937525 -1.1601563,-1.2070312125 -0.1054687,-0.5976563 -0.1054687,-1.5117188 -0.1054687,-2.0976563 0,-0.6445312 0,-1.3007812 0.082031,-1.8398437 0.1875,-1.1835938 0.9257813,-1.265625 1.1835938,-1.265625 0.328125,0 0.984375,0.1757812 1.171875,1.1601562 0.09375,0.5625 0.09375,1.3125 0.09375,1.9453125 0,0.75 0,1.4179688 -0.1054688,2.0625 C 3.4915,-0.30486719 2.929,-1.796875e-4 2.4836875,-1.796875e-4 Z m 0,0"
       style="fill:#000000;fill-opacity:1;fill-rule:nonzero;stroke:none"
       aria-label="0"
       transform="matrix(1.3333333,0,0,1.3333333,215.59467,108.62133)" />
    <g
       id="g13"
       aria-label="f(1)=1"
       transform="matrix(1.3333333,0,0,1.3333333,306.056,105.00267)">
      <path
         id="path14"
         d="m 6.3974531,-5.7646953 c 0.28125,0 0.3984375,0 0.3984375,-0.2695313 0,-0.1523437 -0.1171875,-0.1523437 -0.375,-0.1523437 H 5.2607344 c 0.2695312,-1.4765625 0.4804687,-2.4960938 0.5859375,-2.953125 0.09375,-0.3398438 0.3867187,-0.6679688 0.7617187,-0.6679688 0.3046875,0 0.609375,0.1289063 0.75,0.2578125 -0.5625,0.058594 -0.7382812,0.46875 -0.7382812,0.7148438 0,0.28125 0.2226562,0.4570312 0.4921875,0.4570312 0.2929687,0 0.7148437,-0.2460937 0.7148437,-0.7851562 0,-0.609375 -0.5976562,-0.9375002 -1.2304687,-0.9375002 -0.6210938,0 -1.21875,0.4570314 -1.5,1.0195314 -0.2695313,0.5039063 -0.4101563,1.0195313 -0.7382813,2.8945313 H 3.3974531 c -0.2695312,0 -0.4101562,0 -0.4101562,0.2578125 0,0.1640625 0.082031,0.1640625 0.3632812,0.1640625 H 4.2763594 C 4.0185469,-4.4287578 3.4326094,-1.1943828 3.0927656,0.34077344 2.8583906,1.5946797 2.6357344,2.6376484 1.9208906,2.6376484 c -0.046875,0 -0.4570312,0 -0.7148437,-0.2695312 0.7265625,-0.058594 0.7265625,-0.6914063 0.7265625,-0.703125 0,-0.28125 -0.2109375,-0.4570313 -0.4804688,-0.4570313 -0.2929687,0 -0.72656247,0.2460938 -0.72656247,0.7851563 0,0.6210937 0.63281247,0.9375 1.19531247,0.9375 1.4648438,0 2.0625,-2.62500001 2.2265625,-3.33984376 0.2578125,-1.11328124 0.9609375,-4.92187504 1.03125,-5.35546874 z m 0,0"
         style="fill:#9013fe;fill-opacity:1;fill-rule:nonzero;stroke:none" />
      <path
         id="path15"
         d="m 13.121086,3.4813984 c 0,-0.035156 0,-0.070312 -0.246094,-0.3046875 -1.429687,-1.453125 -2.238281,-3.82031246 -2.238281,-6.75 0,-2.7773437 0.679687,-5.1796875 2.34375,-6.8671879 0.140625,-0.128906 0.140625,-0.164062 0.140625,-0.199218 0,-0.09375 -0.07031,-0.117188 -0.128906,-0.117188 -0.1875,0 -1.359375,1.0312502 -2.0625,2.4375002 -0.738282,1.453125 -1.0664066,2.9882812 -1.0664066,4.7460937 0,1.2773438 0.1992186,2.98828129 0.9492186,4.52343754 0.84375,1.72265626 2.015625,2.64843746 2.179688,2.64843746 0.05859,0 0.128906,-0.023437 0.128906,-0.1171875 z m 4.921875,-12.6796875 c 0,-0.328125 0,-0.3398437 -0.292969,-0.3398437 -0.339844,0.3867187 -1.066406,0.9140625 -2.542969,0.9140625 v 0.421875 c 0.339844,0 1.054688,0 1.839844,-0.375 v 7.4765625 c 0,0.51562499 -0.04687,0.69140624 -1.300781,0.69140624 H 15.300773 V 9.296875e-4 c 0.386719,-0.0234374975 1.78125,-0.0234374975 2.25,-0.0234374975 0.46875,0 1.851563,0 2.238282,0.0234374975 V -0.40922656 h -0.445313 c -1.265625,0 -1.300781,-0.17578125 -1.300781,-0.69140624 z m 6.922852,5.625 c 0,-1.0898437 -0.140625,-2.8710937 -0.949219,-4.5351562 -0.84375,-1.7109375 -2.015625,-2.6484377 -2.179688,-2.6484377 -0.05859,0 -0.128906,0.02344 -0.128906,0.117188 0,0.03516 0,0.07031 0.246094,0.316406 1.441406,1.4414062 2.238281,3.8085937 2.238281,6.7382812 0,2.77734374 -0.667969,5.1796875 -2.332031,6.8671875 C 21.708,3.4110859 21.708,3.4462422 21.708,3.4813984 c 0,0.09375 0.07031,0.1171875 0.128906,0.1171875 0.1875,0 1.371094,-1.03125 2.074219,-2.4375 0.726563,-1.46484371 1.054688,-3.0117187 1.054688,-4.734375 z m 15.061523,-1.078125 c 0.199219,0 0.457031,0 0.457031,-0.2578125 0,-0.2695312 -0.234375,-0.2695312 -0.457031,-0.2695312 h -8.449219 c -0.199219,0 -0.457031,0 -0.457031,0.2578125 0,0.2695312 0.246094,0.2695312 0.457031,0.2695312 z m 0,2.671875 c 0.199219,0 0.457031,0 0.457031,-0.2578125 0,-0.2695312 -0.234375,-0.2695312 -0.457031,-0.2695312 h -8.449219 c -0.199219,0 -0.457031,0 -0.457031,0.2578125 0,0.2695312 0.246094,0.2695312 0.457031,0.2695312 z m 9.363281,-7.21875 c 0,-0.328125 0,-0.3398437 -0.292969,-0.3398437 -0.339843,0.3867187 -1.066406,0.9140625 -2.542968,0.9140625 v 0.421875 c 0.339843,0 1.054687,0 1.839843,-0.375 v 7.4765625 c 0,0.51562499 -0.04687,0.69140624 -1.300781,0.69140624 H 46.64843 V 9.296875e-4 c 0.386718,-0.0234374975 1.78125,-0.0234374975 2.25,-0.0234374975 0.46875,0 1.851562,0 2.238281,0.0234374975 V -0.40922656 h -0.445313 c -1.265625,0 -1.300781,-0.17578125 -1.300781,-0.69140624 z m 0,0"
         style="fill:#9013fe;fill-opacity:1;fill-rule:nonzero;stroke:none" />
    </g>
    <g
       id="g15"
       aria-label="f&#10;(&#10;e&#10;iθ&#10;)&#10;=e&#10;iθ"
       transform="matrix(1.3333333,0,0,1.3333333,271.42667,20.616)">
      <path
         id="path16"
         d="m 6.3977734,-5.7647344 c 0.28125,0 0.3984375,0 0.3984375,-0.2695312 0,-0.1523438 -0.1171875,-0.1523438 -0.375,-0.1523438 H 5.2610547 c 0.2695312,-1.4765625 0.4804687,-2.4960937 0.5859375,-2.953125 0.09375,-0.3398437 0.3867187,-0.6679687 0.7617187,-0.6679687 0.3046875,0 0.609375,0.1289062 0.75,0.2578125 -0.5625,0.058594 -0.7382812,0.46875 -0.7382812,0.7148437 0,0.28125 0.2226562,0.4570313 0.4921875,0.4570313 0.2929687,0 0.7148437,-0.2460938 0.7148437,-0.7851563 0,-0.609375 -0.5976562,-0.9375001 -1.2304687,-0.9375001 -0.6210938,0 -1.21875,0.4570314 -1.5,1.0195314 -0.2695313,0.5039062 -0.4101563,1.0195312 -0.7382813,2.8945312 H 3.3977734 c -0.2695312,0 -0.4101562,0 -0.4101562,0.2578125 0,0.1640625 0.082031,0.1640625 0.3632812,0.1640625 H 4.2766797 C 4.0188672,-4.4287969 3.4329297,-1.1944219 3.0930859,0.34073437 2.8587109,1.5946406 2.6360547,2.6376094 1.9212109,2.6376094 c -0.046875,0 -0.4570312,0 -0.7148437,-0.2695313 0.7265625,-0.058594 0.7265625,-0.6914062 0.7265625,-0.703125 0,-0.28125 -0.2109375,-0.4570312 -0.4804688,-0.4570312 -0.2929687,0 -0.72656246,0.2460937 -0.72656246,0.7851562 0,0.6210938 0.63281246,0.9375 1.19531246,0.9375 1.4648438,0 2.0625,-2.62499998 2.2265625,-3.33984373 0.2578125,-1.11328127 0.9609375,-4.92187497 1.03125,-5.35546877 z m 0,0"
         style="fill:#000000;fill-opacity:1;fill-rule:nonzero;stroke:none" />
      <path
         id="path17"
         d="m 16.777656,4.8553828 c 0,-0.058594 -0.03516,-0.082031 -0.05859,-0.1289062 -0.667969,-0.703125 -1.640625,-1.8632813 -2.238282,-4.19531254 -0.328125,-1.3125 -0.457031,-2.78906246 -0.457031,-4.12499996 0,-3.7617188 0.902344,-6.4101561 2.613281,-8.2734371 0.140625,-0.128907 0.140625,-0.152344 0.140625,-0.1875 0,-0.140625 -0.117187,-0.140625 -0.175781,-0.140625 -0.222656,0 -0.996094,0.855468 -1.183594,1.078125 -1.453125,1.7343746 -2.390625,4.3124996 -2.390625,7.5117183 0,2.0390625 0.363282,4.921875 2.238282,7.3476563 0.140625,0.1757812 1.078125,1.265625 1.335937,1.265625 0.05859,0 0.175781,0 0.175781,-0.1523438 z m 0,0"
         style="fill:#000000;fill-opacity:1;fill-rule:nonzero;stroke:none" />
      <path
         id="path18"
         d="m 19.988594,-3.3272344 c 0.386719,0 1.359375,-0.023437 2.050781,-0.28125 1.089844,-0.421875 1.195313,-1.2539062 1.195313,-1.5117187 0,-0.6328125 -0.550782,-1.2070313 -1.5,-1.2070313 -1.5,0 -3.667969,1.359375 -3.667969,3.9140625 0,1.51171877 0.867187,2.55468752 2.167969,2.55468752 1.945312,0 3.1875,-1.52343752 3.1875,-1.69921872 0,-0.09375 -0.09375,-0.1640625 -0.152344,-0.1640625 -0.03516,0 -0.05859,0.011719 -0.1875,0.140625 -0.914063,1.21874997 -2.273438,1.44140622 -2.824219,1.44140622 -0.808594,0 -1.242187,-0.64453125 -1.242187,-1.71093752 0,-0.1992187 0,-0.5625 0.210937,-1.4765625 z m -0.691406,-0.28125 c 0.621093,-2.2148437 1.980468,-2.4257812 2.4375,-2.4257812 0.632812,0 1.066406,0.375 1.066406,0.9140625 0,1.5117187 -2.296875,1.5117187 -2.894531,1.5117187 z m 0,0"
         style="fill:#000000;fill-opacity:1;fill-rule:nonzero;stroke:none" />
      <path
         id="path19"
         d="m 26.756172,-11.42782 c 0,-0.199219 -0.128906,-0.363282 -0.363281,-0.363282 -0.269532,0 -0.539063,0.257813 -0.539063,0.527344 0,0.1875 0.140625,0.363281 0.375,0.363281 0.234375,0 0.527344,-0.234375 0.527344,-0.527343 z m -0.75,3.7382809 c 0.117187,-0.28125 0.117187,-0.3046875 0.222656,-0.5742187 0.07031,-0.1992188 0.128906,-0.3398438 0.128906,-0.5273438 0,-0.4453125 -0.328125,-0.8203125 -0.820312,-0.8203125 -0.9375,0 -1.3125,1.453125 -1.3125,1.5351563 0,0.1054687 0.09375,0.1054687 0.117187,0.1054687 0.09375,0 0.105469,-0.023437 0.152344,-0.1875 0.269531,-0.9375 0.667969,-1.2304687 1.007813,-1.2304687 0.08203,0 0.257812,0 0.257812,0.3164062 0,0.2109375 -0.07031,0.421875 -0.117187,0.515625 -0.08203,0.2578125 -0.527344,1.4179688 -0.679688,1.8515625 -0.105469,0.2578125 -0.234375,0.5859375 -0.234375,0.796875 0,0.46875 0.339844,0.8085938 0.820313,0.8085938 0.9375,0 1.300781,-1.4414063 1.300781,-1.5351563 0,-0.09375 -0.09375,-0.09375 -0.117188,-0.09375 -0.105468,0 -0.105468,0.023437 -0.152343,0.1757813 -0.175782,0.6328125 -0.503907,1.2421875 -1.019532,1.2421875 -0.164062,0 -0.234375,-0.1054688 -0.234375,-0.328125 0,-0.2578125 0.05859,-0.3984375 0.292969,-0.9960938 z m 5.888672,-2.4960939 c 0,-0.65625 -0.1875,-2.039062 -1.195313,-2.039062 -1.382812,0 -2.917968,2.8007809 -2.917968,5.0859372 0,0.9375 0.28125,2.0390625 1.195312,2.0390625 1.40625,0 2.917969,-2.859375 2.917969,-5.0859377 z m -3.058594,1.3593752 c 0.164063,-0.6328125 0.363281,-1.4296872 0.761719,-2.1328122 0.269531,-0.492188 0.644531,-1.054688 1.089844,-1.054688 0.492187,0 0.550781,0.644531 0.550781,1.207031 0,0.492188 -0.08203,0.9960942 -0.328125,1.9804692 z m 1.992188,0.328125 c -0.117188,0.4570312 -0.316407,1.3007812 -0.703125,2.015625 -0.339844,0.6796875 -0.726563,1.171875 -1.148438,1.171875 -0.328125,0 -0.539062,-0.2929688 -0.539062,-1.21875 0,-0.421875 0.05859,-0.9960938 0.316406,-1.96875 z m 0,0"
         style="fill:#000000;fill-opacity:1;fill-rule:nonzero;stroke:none" />
      <path
         id="path20"
         d="m 37.188789,-3.5938359 c 0,-2.0273438 -0.351562,-4.9101563 -2.238281,-7.3359371 -0.140625,-0.175782 -1.066406,-1.265625 -1.324219,-1.265625 -0.08203,0 -0.175781,0.02344 -0.175781,0.140625 0,0.05859 0.02344,0.105468 0.08203,0.152343 0.691406,0.738282 1.628906,1.898438 2.214844,4.1835941 0.328125,1.3007812 0.457031,2.7773437 0.457031,4.1132812 0,1.453125 -0.128906,2.91796876 -0.503906,4.32421876 -0.539063,2.00390624 -1.394531,3.15234374 -2.121094,3.94921874 -0.128906,0.1289063 -0.128906,0.1640625 -0.128906,0.1875 0,0.1171875 0.09375,0.1523438 0.175781,0.1523438 0.210938,0 0.996094,-0.8789063 1.171875,-1.078125 1.464844,-1.734375 2.390625,-4.32421879 2.390626,-7.5234375 z m 0,0"
         style="fill:#000000;fill-opacity:1;fill-rule:nonzero;stroke:none" />
      <path
         id="path21"
         d="m 53.055977,-4.6514531 c 0.199218,0 0.457031,0 0.457031,-0.2578125 0,-0.2695313 -0.234375,-0.2695313 -0.457031,-0.2695313 h -8.449219 c -0.199219,0 -0.457031,0 -0.457031,0.2578125 0,0.2695313 0.246093,0.2695313 0.457031,0.2695313 z m 0,2.671875 c 0.199218,0 0.457031,0 0.457031,-0.2578125 0,-0.2695313 -0.234375,-0.2695313 -0.457031,-0.2695313 h -8.449219 c -0.199219,0 -0.457031,0 -0.457031,0.2578125 0,0.2695313 0.246093,0.2695313 0.457031,0.2695313 z m 0,0"
         style="fill:#000000;fill-opacity:1;fill-rule:nonzero;stroke:none" />
      <path
         id="path22"
         d="m 60.854805,-3.3272344 c 0.386718,0 1.359375,-0.023437 2.050781,-0.28125 1.089844,-0.421875 1.195312,-1.2539062 1.195312,-1.5117187 0,-0.6328125 -0.550781,-1.2070313 -1.5,-1.2070313 -1.5,0 -3.667968,1.359375 -3.667968,3.9140625 0,1.51171877 0.867187,2.55468752 2.167968,2.55468752 1.945313,0 3.1875,-1.52343752 3.1875,-1.69921872 0,-0.09375 -0.09375,-0.1640625 -0.152343,-0.1640625 -0.03516,0 -0.05859,0.011719 -0.1875,0.140625 -0.914063,1.21874997 -2.273438,1.44140622 -2.824219,1.44140622 -0.808594,0 -1.242188,-0.64453125 -1.242188,-1.71093752 0,-0.1992187 0,-0.5625 0.210938,-1.4765625 z m -0.691407,-0.28125 c 0.621094,-2.2148437 1.980469,-2.4257812 2.4375,-2.4257812 0.632813,0 1.066407,0.375 1.066407,0.9140625 0,1.5117187 -2.296875,1.5117187 -2.894532,1.5117187 z m 0,0"
         style="fill:#000000;fill-opacity:1;fill-rule:nonzero;stroke:none" />
      <path
         id="path23"
         d="m 68.255195,-13.487391 c 0,-0.105468 -0.08203,-0.257812 -0.28125,-0.257812 -0.1875,0 -0.386718,0.175781 -0.386718,0.375 0,0.117187 0.08203,0.269531 0.269531,0.269531 0.210937,0 0.398437,-0.199219 0.398437,-0.386719 z m -1.429687,3.5390629 c -0.02344,0.09375 -0.05859,0.1757812 -0.05859,0.2929687 0,0.328125 0.28125,0.5976563 0.667969,0.5976563 0.691406,0 0.996094,-0.9609379 0.996094,-1.0664059 0,-0.09375 -0.08203,-0.09375 -0.105469,-0.09375 -0.105469,0 -0.105469,0.04687 -0.140625,0.117187 -0.152344,0.5625001 -0.457031,0.8437501 -0.738281,0.8437501 -0.140625,0 -0.175782,-0.082031 -0.175782,-0.2460937 0,-0.1523438 0.05859,-0.2929688 0.117188,-0.4453125 0.07031,-0.1874999 0.140625,-0.3749999 0.222656,-0.5507809 0.05859,-0.164063 0.316406,-0.808594 0.339844,-0.890625 0.02344,-0.07031 0.04687,-0.152344 0.04687,-0.222657 0,-0.328125 -0.28125,-0.585937 -0.667969,-0.585937 -0.691406,0 -1.007812,0.949219 -1.007812,1.066406 0,0.08203 0.09375,0.08203 0.117187,0.08203 0.09375,0 0.105469,-0.03516 0.128906,-0.105468 0.175782,-0.597657 0.480469,-0.855469 0.738282,-0.855469 0.117187,0 0.175781,0.05859 0.175781,0.246094 0,0.164062 -0.03516,0.269531 -0.210938,0.703125 z m 5.548828,-2.5781249 c 0,-0.726563 -0.28125,-1.511719 -0.960938,-1.511719 -1.042968,0 -2.167968,1.875 -2.167968,3.46875 0,0.8320314 0.328125,1.5117189 0.972656,1.5117189 1.054687,0 2.15625,-1.8984379 2.15625,-3.4687499 z m -2.332031,0.855469 c 0.351562,-1.511719 0.949218,-2.167969 1.359375,-2.167969 0.445312,0 0.445312,0.773437 0.445312,0.902344 0,0.269531 -0.04687,0.679687 -0.199219,1.265625 z m 1.546875,0.246093 c -0.199219,0.761719 -0.363282,1.136719 -0.5625,1.4765629 -0.222657,0.3632812 -0.503907,0.6914062 -0.808594,0.6914062 -0.386719,0 -0.445313,-0.5273437 -0.445313,-0.9023441 0,-0.457031 0.128907,-1.007812 0.199219,-1.265625 z m 0,0"
         style="fill:#000000;fill-opacity:1;fill-rule:nonzero;stroke:none" />
    </g>
    <path
       id="path24"
       d="m -55.336,88.215 h 6.828"
       style="fill:none;stroke:#000000;stroke-width:0.3985;stroke-linecap:butt;stroke-linejoin:miter;stroke-miterlimit:10;stroke-dasharray:none;stroke-opacity:1"
       transform="matrix(1.3333333,0,0,-1.3333333,433.2,127.97333)" />
    <path
       id="path25"
       d="m 3.5167891,-1.2661953 h -0.234375 c -0.023437,0.1523437 -0.082031,0.56249999 -0.1757813,0.63281249 -0.058594,0.0351563 -0.5976562,0.0351563 -0.6914062,0.0351563 H 1.1261641 c 0.7382812,-0.64453119 0.984375,-0.84374999 1.3945312,-1.17187499 0.515625,-0.4101563 0.9960938,-0.84375 0.9960938,-1.5 0,-0.84375 -0.7382813,-1.359375 -1.6289063,-1.359375 -0.8671875,0 -1.45312499,0.609375 -1.45312499,1.2421875 0,0.3632813 0.3046875,0.3984375 0.375,0.3984375 0.1640625,0 0.37499999,-0.1171875 0.37499999,-0.375 0,-0.1289062 -0.058594,-0.3632812 -0.42187499,-0.3632812 0.22265625,-0.5039063 0.69140629,-0.65625 1.01953129,-0.65625 0.703125,0 1.0664062,0.5507812 1.0664062,1.1132812 0,0.609375 -0.4335937,1.0898438 -0.65625,1.3359375 l -1.68749999,1.66406249 c -0.0703125,0.0585938 -0.0703125,0.0703125 -0.0703125,0.2695312475 H 3.3175703 Z m 0,0"
       style="fill:#000000;fill-opacity:1;fill-rule:nonzero;stroke:none"
       aria-label="2"
       transform="matrix(1.3333333,0,0,1.3333333,361.32267,18.254667)" />
    <g
       id="g25"
       aria-label="f&#10;(&#10;e&#10;iπ&#10;)&#10;=e&#10;iπ"
       transform="matrix(1.3333333,0,0,1.3333333,15.422667,76.601333)">
      <path
         id="path26"
         d="m 6.3978437,-5.7654531 c 0.28125,0 0.3984375,0 0.3984375,-0.2695313 0,-0.1523437 -0.1171875,-0.1523437 -0.375,-0.1523437 H 5.261125 c 0.2695312,-1.4765625 0.4804687,-2.4960938 0.5859375,-2.953125 0.09375,-0.3398438 0.3867187,-0.6679688 0.7617187,-0.6679688 0.3046875,0 0.609375,0.1289063 0.75,0.2578125 -0.5625,0.058594 -0.7382812,0.46875 -0.7382812,0.7148438 0,0.28125 0.2226562,0.4570312 0.4921875,0.4570312 0.2929687,0 0.7148437,-0.2460937 0.7148437,-0.7851562 0,-0.609375 -0.5976562,-0.9375004 -1.2304687,-0.9375004 -0.6210938,0 -1.21875,0.4570316 -1.5,1.0195316 -0.2695313,0.5039063 -0.4101563,1.0195313 -0.7382813,2.8945313 H 3.3978437 c -0.2695312,0 -0.4101562,0 -0.4101562,0.2578125 0,0.1640625 0.082031,0.1640625 0.3632812,0.1640625 H 4.27675 C 4.0189375,-4.4295156 3.433,-1.1951406 3.0931562,0.34001562 2.8587812,1.5939219 2.636125,2.6368906 1.9212812,2.6368906 c -0.046875,0 -0.4570312,0 -0.7148437,-0.2695312 C 1.933,2.3087656 1.933,1.6759531 1.933,1.6642344 c 0,-0.28125 -0.2109375,-0.4570313 -0.4804688,-0.4570313 -0.2929687,0 -0.72656245,0.2460938 -0.72656245,0.7851563 0,0.6210937 0.63281245,0.9375 1.19531245,0.9375 1.4648438,0 2.0625,-2.62500003 2.2265625,-3.33984378 0.2578125,-1.11328122 0.9609375,-4.92187502 1.03125,-5.35546872 z m 0,0"
         style="fill:#4a90e2;fill-opacity:1;fill-rule:nonzero;stroke:none" />
      <path
         id="path27"
         d="m 16.777727,4.8546641 c 0,-0.058594 -0.03516,-0.082031 -0.05859,-0.1289063 -0.667969,-0.703125 -1.640625,-1.8632812 -2.238281,-4.19531249 -0.328125,-1.3125 -0.457032,-2.78906251 -0.457032,-4.12500001 0,-3.7617187 0.902344,-6.4101563 2.613282,-8.2734373 0.140625,-0.128906 0.140625,-0.152344 0.140625,-0.1875 0,-0.140625 -0.117188,-0.140625 -0.175782,-0.140625 -0.222656,0 -0.996093,0.855469 -1.183593,1.078125 -1.453125,1.7343748 -2.390625,4.3124998 -2.390625,7.5117186 0,2.0390625 0.363281,4.921875 2.238281,7.3476562 0.140625,0.1757813 1.078125,1.265625 1.335937,1.265625 0.05859,0 0.175782,0 0.175782,-0.1523437 z m 0,0"
         style="fill:#4a90e2;fill-opacity:1;fill-rule:nonzero;stroke:none" />
      <path
         id="path28"
         d="m 19.988664,-3.3279531 c 0.386719,0 1.359375,-0.023437 2.050781,-0.28125 1.089844,-0.421875 1.195313,-1.2539063 1.195313,-1.5117188 0,-0.6328125 -0.550781,-1.2070312 -1.5,-1.2070312 -1.5,0 -3.667969,1.359375 -3.667969,3.9140625 0,1.51171872 0.867188,2.55468747 2.167969,2.55468747 1.945312,0 3.1875,-1.52343747 3.1875,-1.69921877 0,-0.09375 -0.09375,-0.1640625 -0.152344,-0.1640625 -0.03516,0 -0.05859,0.011719 -0.1875,0.140625 -0.914062,1.21875002 -2.273437,1.44140627 -2.824219,1.44140627 -0.808593,0 -1.242187,-0.64453125 -1.242187,-1.71093747 0,-0.1992188 0,-0.5625 0.210937,-1.4765625 z m -0.691406,-0.28125 c 0.621094,-2.2148438 1.980469,-2.4257813 2.4375,-2.4257813 0.632812,0 1.066406,0.375 1.066406,0.9140625 0,1.5117188 -2.296875,1.5117188 -2.894531,1.5117188 z m 0,0"
         style="fill:#4a90e2;fill-opacity:1;fill-rule:nonzero;stroke:none" />
      <path
         id="path29"
         d="m 26.756242,-11.428539 c 0,-0.199219 -0.128906,-0.363281 -0.363281,-0.363281 -0.269531,0 -0.539063,0.257812 -0.539063,0.527343 0,0.1875 0.140625,0.363282 0.375,0.363282 0.234375,0 0.527344,-0.234375 0.527344,-0.527344 z m -0.75,3.7382812 c 0.117188,-0.28125 0.117188,-0.3046875 0.222656,-0.5742188 0.07031,-0.1992187 0.128907,-0.3398437 0.128907,-0.5273437 0,-0.4453125 -0.328125,-0.8203125 -0.820313,-0.8203125 -0.9375,0 -1.3125,1.453125 -1.3125,1.5351562 0,0.1054688 0.09375,0.1054688 0.117188,0.1054688 0.09375,0 0.105468,-0.023437 0.152343,-0.1875 0.269532,-0.9375 0.667969,-1.2304688 1.007813,-1.2304688 0.08203,0 0.257812,0 0.257812,0.3164063 0,0.2109375 -0.07031,0.421875 -0.117187,0.515625 -0.08203,0.2578125 -0.527344,1.4179687 -0.679688,1.8515625 -0.105468,0.2578125 -0.234375,0.5859375 -0.234375,0.796875 0,0.46875 0.339844,0.8085937 0.820313,0.8085937 0.9375,0 1.300781,-1.4414062 1.300781,-1.5351562 0,-0.09375 -0.09375,-0.09375 -0.117187,-0.09375 -0.105469,0 -0.105469,0.023437 -0.152344,0.1757812 -0.175781,0.6328125 -0.503906,1.2421875 -1.019531,1.2421875 -0.164063,0 -0.234375,-0.1054687 -0.234375,-0.328125 0,-0.2578125 0.05859,-0.3984375 0.292968,-0.9960937 z m 3.990235,-1.2304688 h 1.125 c -0.328125,1.4765625 -0.410157,1.8984375 -0.410157,2.5664063 0,0.1523437 0,0.421875 0.07031,0.7617187 0.105469,0.4335938 0.210937,0.4921875 0.363281,0.4921875 0.199219,0 0.410156,-0.1757812 0.410156,-0.375 0,-0.058594 0,-0.082031 -0.05859,-0.2226562 -0.292969,-0.7148438 -0.292969,-1.359375 -0.292969,-1.640625 0,-0.5273438 0.07031,-1.0664063 0.175781,-1.5820313 h 1.136719 c 0.128906,0 0.492187,0 0.492187,-0.3398437 0,-0.234375 -0.210937,-0.234375 -0.398437,-0.234375 h -3.339844 c -0.210937,0 -0.597656,0 -1.03125,0.46875 -0.351562,0.3867187 -0.609375,0.84375 -0.609375,0.890625 0,0.011719 0,0.1054687 0.117188,0.1054687 0.08203,0 0.105468,-0.046875 0.164062,-0.1289062 0.480469,-0.7617188 1.066406,-0.7617188 1.265625,-0.7617188 h 0.5625 c -0.316406,1.2070313 -0.855469,2.4140625 -1.277344,3.3164063 -0.07031,0.1523437 -0.07031,0.1640625 -0.07031,0.234375 0,0.1992187 0.152344,0.2695312 0.28125,0.2695312 0.304687,0 0.386719,-0.2695312 0.503906,-0.6445312 0.140625,-0.4570313 0.140625,-0.4804688 0.269531,-0.9726563 z m 0,0"
         style="fill:#4a90e2;fill-opacity:1;fill-rule:nonzero;stroke:none" />
      <path
         id="path30"
         d="m 38.269914,-3.5945547 c 0,-2.0273437 -0.351562,-4.9101562 -2.238281,-7.3359373 -0.140625,-0.175781 -1.066406,-1.265625 -1.324219,-1.265625 -0.08203,0 -0.175781,0.02344 -0.175781,0.140625 0,0.05859 0.02344,0.105469 0.08203,0.152344 0.691406,0.738281 1.628906,1.898437 2.214844,4.1835933 0.328125,1.3007813 0.457031,2.7773438 0.457031,4.1132813 0,1.453125 -0.128906,2.91796871 -0.503906,4.32421871 -0.539063,2.00390629 -1.394531,3.15234379 -2.121094,3.94921879 -0.128906,0.1289062 -0.128906,0.1640625 -0.128906,0.1875 0,0.1171875 0.09375,0.1523437 0.175781,0.1523437 0.210938,0 0.996094,-0.8789062 1.171875,-1.078125 1.464844,-1.734375 2.390625,-4.32421874 2.390626,-7.5234375 z m 0,0"
         style="fill:#4a90e2;fill-opacity:1;fill-rule:nonzero;stroke:none" />
      <path
         id="path31"
         d="m 54.140031,-4.6521719 c 0.199219,0 0.457031,0 0.457031,-0.2578125 0,-0.2695312 -0.234375,-0.2695312 -0.457031,-0.2695312 h -8.449219 c -0.199218,0 -0.457031,0 -0.457031,0.2578125 0,0.2695312 0.246094,0.2695312 0.457031,0.2695312 z m 0,2.671875 c 0.199219,0 0.457031,0 0.457031,-0.2578125 0,-0.2695312 -0.234375,-0.2695312 -0.457031,-0.2695312 h -8.449219 c -0.199218,0 -0.457031,0 -0.457031,0.2578125 0,0.2695312 0.246094,0.2695312 0.457031,0.2695312 z m 0,0"
         style="fill:#4a90e2;fill-opacity:1;fill-rule:nonzero;stroke:none" />
      <path
         id="path32"
         d="m 61.93593,-3.3279531 c 0.386718,0 1.359375,-0.023437 2.050781,-0.28125 1.089844,-0.421875 1.195312,-1.2539063 1.195312,-1.5117188 0,-0.6328125 -0.550781,-1.2070312 -1.5,-1.2070312 -1.5,0 -3.667968,1.359375 -3.667968,3.9140625 0,1.51171872 0.867187,2.55468747 2.167968,2.55468747 1.945313,0 3.1875,-1.52343747 3.1875,-1.69921877 0,-0.09375 -0.09375,-0.1640625 -0.152343,-0.1640625 -0.03516,0 -0.05859,0.011719 -0.1875,0.140625 -0.914063,1.21875002 -2.273438,1.44140627 -2.824219,1.44140627 -0.808594,0 -1.242188,-0.64453125 -1.242188,-1.71093747 0,-0.1992188 0,-0.5625 0.210938,-1.4765625 z m -0.691407,-0.28125 c 0.621094,-2.2148438 1.980469,-2.4257813 2.4375,-2.4257813 0.632813,0 1.066407,0.375 1.066407,0.9140625 0,1.5117188 -2.296875,1.5117188 -2.894532,1.5117188 z m 0,0"
         style="fill:#4a90e2;fill-opacity:1;fill-rule:nonzero;stroke:none" />
      <path
         id="path33"
         d="m 69.33632,-13.488109 c 0,-0.105469 -0.08203,-0.257813 -0.28125,-0.257813 -0.1875,0 -0.386718,0.175781 -0.386718,0.375 0,0.117188 0.08203,0.269531 0.269531,0.269531 0.210937,0 0.398437,-0.199218 0.398437,-0.386718 z m -1.429687,3.5390621 c -0.02344,0.09375 -0.05859,0.1757813 -0.05859,0.2929688 0,0.328125 0.28125,0.5976562 0.667969,0.5976562 0.691406,0 0.996094,-0.9609371 0.996094,-1.0664061 0,-0.09375 -0.08203,-0.09375 -0.105469,-0.09375 -0.105469,0 -0.105469,0.04687 -0.140625,0.117187 -0.152344,0.5625004 -0.457031,0.8437504 -0.738281,0.8437504 -0.140625,0 -0.175782,-0.082031 -0.175782,-0.2460938 0,-0.1523437 0.05859,-0.2929687 0.117188,-0.4453125 0.07031,-0.1875001 0.140625,-0.3750001 0.222656,-0.5507811 0.05859,-0.164063 0.316406,-0.808594 0.339844,-0.890625 0.02344,-0.07031 0.04687,-0.152344 0.04687,-0.222656 0,-0.328125 -0.28125,-0.585938 -0.667969,-0.585938 -0.691406,0 -1.007812,0.949219 -1.007812,1.066406 0,0.08203 0.09375,0.08203 0.117187,0.08203 0.09375,0 0.105469,-0.03516 0.128906,-0.105469 0.175782,-0.597656 0.480469,-0.855469 0.738282,-0.855469 0.117187,0 0.175781,0.05859 0.175781,0.246094 0,0.164062 -0.03516,0.269531 -0.210938,0.703125 z m 4.154297,-1.7109371 h 0.832031 c -0.105469,0.421875 -0.257813,1.054687 -0.257813,1.605468 0,0.2812504 0.03516,0.4687504 0.07031,0.6210941 0.117187,0.3515625 0.210937,0.375 0.316406,0.375 0.164063,0 0.328125,-0.1523437 0.328125,-0.3164062 0,-0.058594 -0.01172,-0.082031 -0.05859,-0.1523438 -0.128906,-0.2578125 -0.257812,-0.6562501 -0.257812,-1.2304691 0,-0.128906 0,-0.410156 0.105469,-0.902343 h 0.867187 c 0.128906,0 0.1875,0 0.257813,-0.05859 0.09375,-0.07031 0.117187,-0.175781 0.117187,-0.210938 0,-0.199218 -0.175781,-0.199218 -0.292969,-0.199218 h -2.636718 c -0.28125,0 -0.480469,0.05859 -0.796875,0.351562 -0.175782,0.164063 -0.445313,0.539063 -0.445313,0.597656 0,0.08203 0.09375,0.08203 0.117188,0.08203 0.07031,0 0.08203,-0.01172 0.128906,-0.07031 0.351562,-0.492187 0.785156,-0.492187 0.9375,-0.492187 h 0.421875 c -0.210938,0.761718 -0.585938,1.59375 -0.796875,2.0039059 -0.04687,0.09375 -0.117188,0.2460937 -0.140625,0.2695312 0,0.023437 -0.01172,0.058594 -0.01172,0.1054688 0,0.1054687 0.08203,0.2226562 0.246094,0.2226562 0.269531,0 0.351562,-0.3164062 0.515625,-0.9375 z m 0,0"
         style="fill:#4a90e2;fill-opacity:1;fill-rule:nonzero;stroke:none" />
    </g>
    <path
       id="path34"
       d="m -54.254,88.215 h 7.728"
       style="fill:none;stroke:#4a90e2;stroke-width:0.3985;stroke-linecap:butt;stroke-linejoin:miter;stroke-miterlimit:10;stroke-dasharray:none;stroke-opacity:1"
       transform="matrix(1.3333333,0,0,-1.3333333,177.196,183.95867)" />
    <path
       id="path35"
       d="m 3.5160859,-1.2669141 h -0.234375 c -0.023437,0.1523438 -0.082031,0.56250004 -0.1757812,0.63281254 -0.058594,0.0351563 -0.5976563,0.0351563 -0.6914063,0.0351563 H 1.1254609 c 0.7382813,-0.64453124 0.984375,-0.84374994 1.3945313,-1.17187494 0.515625,-0.4101564 0.9960937,-0.8437501 0.9960937,-1.5000001 0,-0.8437499 -0.7382812,-1.3593749 -1.6289062,-1.3593749 -0.8671875,0 -1.45312501,0.609375 -1.45312501,1.2421874 0,0.3632812 0.3046875,0.3984375 0.375,0.3984375 0.1640625,0 0.37500001,-0.1171875 0.37500001,-0.375 0,-0.1289063 -0.058594,-0.3632813 -0.42187501,-0.3632813 0.22265625,-0.5039061 0.69140621,-0.65625 1.01953121,-0.65625 0.703125,0 1.0664063,0.5507813 1.0664063,1.1132813 0,0.609375 -0.4335938,1.0898437 -0.65625,1.3359375 l -1.68750001,1.66406254 c -0.0703125,0.0585938 -0.0703125,0.0703125 -0.0703125,0.26953125 H 3.3168672 Z m 0,0"
       style="fill:#4a90e2;fill-opacity:1;fill-rule:nonzero;stroke:none"
       aria-label="2"
       transform="matrix(1.3333333,0,0,1.3333333,107.36267,74.24)" />
    <g
       id="g35"
       aria-label="f&#10;(&#10;e&#10;−iπ&#10;)&#10;=e&#10;−&#10;iπ"
       transform="matrix(1.3333333,0,0,1.3333333,6.4173333,119.44133)">
      <path
         id="path36"
         d="m 6.3989141,-5.7655703 c 0.28125,0 0.3984375,0 0.3984375,-0.2695313 0,-0.1523437 -0.1171875,-0.1523437 -0.375,-0.1523437 H 5.2621953 c 0.2695313,-1.4765625 0.4804688,-2.4960938 0.5859375,-2.953125 0.09375,-0.3398438 0.3867188,-0.6679688 0.7617188,-0.6679688 0.3046875,0 0.609375,0.1289063 0.75,0.2578125 -0.5625,0.058594 -0.7382813,0.46875 -0.7382813,0.7148438 0,0.28125 0.2226563,0.4570312 0.4921875,0.4570312 0.2929688,0 0.7148438,-0.2460937 0.7148438,-0.7851562 0,-0.609375 -0.5976563,-0.9375002 -1.2304688,-0.9375002 -0.6210937,0 -1.21875,0.4570314 -1.5,1.0195314 -0.2695312,0.5039063 -0.4101562,1.0195313 -0.7382812,2.8945313 H 3.3989141 c -0.2695313,0 -0.4101563,0 -0.4101563,0.2578125 0,0.1640625 0.082031,0.1640625 0.3632813,0.1640625 H 4.2778203 C 4.0200078,-4.4296328 3.4340703,-1.1952578 3.0942266,0.33989844 2.8598516,1.5938047 2.6371953,2.6367734 1.9223516,2.6367734 c -0.046875,0 -0.4570313,0 -0.7148438,-0.2695312 0.7265625,-0.058594 0.7265625,-0.6914063 0.7265625,-0.703125 0,-0.28125 -0.2109375,-0.4570313 -0.4804687,-0.4570313 -0.2929688,0 -0.72656254,0.2460938 -0.72656254,0.7851563 0,0.6210937 0.63281254,0.9375 1.19531254,0.9375 1.4648437,0 2.0625,-2.62500001 2.2265625,-3.33984376 0.2578125,-1.11328124 0.9609375,-4.92187504 1.03125,-5.35546874 z m 0,0"
         style="fill:#417505;fill-opacity:1;fill-rule:nonzero;stroke:none" />
      <path
         id="path37"
         d="m 16.775867,4.8545469 c 0,-0.058594 -0.03516,-0.082031 -0.05859,-0.1289063 -0.667968,-0.703125 -1.640625,-1.8632812 -2.238281,-4.19531248 -0.328125,-1.3125 -0.457031,-2.78906252 -0.457031,-4.12500002 0,-3.7617187 0.902344,-6.4101561 2.613281,-8.2734371 0.140625,-0.128907 0.140625,-0.152344 0.140625,-0.1875 0,-0.140625 -0.117187,-0.140625 -0.175781,-0.140625 -0.222656,0 -0.996094,0.855468 -1.183594,1.078125 -1.453125,1.7343746 -2.390625,4.3124996 -2.390625,7.5117184 0,2.0390625 0.363281,4.921875 2.238281,7.3476562 0.140625,0.1757813 1.078125,1.265625 1.335938,1.265625 0.05859,0 0.175781,0 0.175781,-0.1523437 z m 0,0"
         style="fill:#417505;fill-opacity:1;fill-rule:nonzero;stroke:none" />
      <path
         id="path38"
         d="m 19.989734,-3.3280703 c 0.386719,0 1.359375,-0.023437 2.050782,-0.28125 1.089843,-0.421875 1.195312,-1.2539063 1.195312,-1.5117188 0,-0.6328125 -0.550781,-1.2070312 -1.5,-1.2070312 -1.5,0 -3.667969,1.359375 -3.667969,3.9140625 0,1.51171874 0.867188,2.55468749 2.167969,2.55468749 1.945313,0 3.1875,-1.52343749 3.1875,-1.69921879 0,-0.09375 -0.09375,-0.1640625 -0.152344,-0.1640625 -0.03516,0 -0.05859,0.011719 -0.1875,0.140625 -0.914062,1.21875004 -2.273437,1.44140629 -2.824218,1.44140629 -0.808594,0 -1.242188,-0.64453125 -1.242188,-1.71093749 0,-0.1992188 0,-0.5625 0.210938,-1.4765625 z m -0.691406,-0.28125 c 0.621094,-2.2148438 1.980469,-2.4257813 2.4375,-2.4257813 0.632813,0 1.066406,0.375 1.066406,0.9140625 0,1.5117188 -2.296875,1.5117188 -2.894531,1.5117188 z m 0,0"
         style="fill:#417505;fill-opacity:1;fill-rule:nonzero;stroke:none" />
      <path
         id="path39"
         d="m 30.495594,-7.502875 c 0.175781,0 0.351562,0 0.351562,-0.1992188 0,-0.1992187 -0.175781,-0.1992187 -0.351562,-0.1992187 h -5.390625 c -0.164063,0 -0.339844,0 -0.339844,0.1992187 0,0.1992188 0.175781,0.1992188 0.339844,0.1992188 z m 0,0"
         style="fill:#417505;fill-opacity:1;fill-rule:nonzero;stroke:none" />
      <path
         id="path40"
         d="m 34.506336,-11.428656 c 0,-0.199219 -0.128906,-0.363282 -0.363281,-0.363282 -0.269532,0 -0.539063,0.257813 -0.539063,0.527344 0,0.1875 0.140625,0.363281 0.375,0.363281 0.234375,0 0.527344,-0.234375 0.527344,-0.527343 z m -0.75,3.738281 c 0.117187,-0.28125 0.117187,-0.3046875 0.222656,-0.5742188 0.07031,-0.1992187 0.128906,-0.3398437 0.128906,-0.5273437 0,-0.4453125 -0.328125,-0.8203125 -0.820312,-0.8203125 -0.9375,0 -1.3125,1.453125 -1.3125,1.5351562 0,0.1054688 0.09375,0.1054688 0.117187,0.1054688 0.09375,0 0.105469,-0.023437 0.152344,-0.1875 0.269531,-0.9375 0.667969,-1.2304688 1.007813,-1.2304688 0.08203,0 0.257812,0 0.257812,0.3164063 0,0.2109375 -0.07031,0.421875 -0.117187,0.515625 -0.08203,0.2578125 -0.527344,1.4179687 -0.679688,1.8515625 -0.105469,0.2578125 -0.234375,0.5859375 -0.234375,0.796875 0,0.46875 0.339844,0.8085937 0.820313,0.8085937 0.9375,0 1.300781,-1.4414062 1.300781,-1.5351562 0,-0.09375 -0.09375,-0.09375 -0.117188,-0.09375 -0.105468,0 -0.105468,0.023437 -0.152343,0.1757812 -0.175782,0.6328125 -0.503907,1.2421875 -1.019532,1.2421875 -0.164062,0 -0.234375,-0.1054687 -0.234375,-0.328125 0,-0.2578125 0.05859,-0.3984375 0.292969,-0.9960937 z m 3.987305,-1.2304688 h 1.125 c -0.328125,1.4765625 -0.410157,1.8984375 -0.410157,2.5664063 0,0.1523437 0,0.421875 0.07031,0.7617187 0.105469,0.4335938 0.210937,0.4921875 0.363281,0.4921875 0.199219,0 0.410156,-0.1757812 0.410156,-0.375 0,-0.058594 0,-0.082031 -0.05859,-0.2226562 -0.292969,-0.7148438 -0.292969,-1.359375 -0.292969,-1.640625 0,-0.5273438 0.07031,-1.0664063 0.175781,-1.5820313 h 1.136719 c 0.128906,0 0.492187,0 0.492187,-0.3398437 0,-0.234375 -0.210937,-0.234375 -0.398437,-0.234375 h -3.339844 c -0.210937,0 -0.597656,0 -1.03125,0.46875 -0.351562,0.3867187 -0.609375,0.84375 -0.609375,0.890625 0,0.011719 0,0.1054687 0.117188,0.1054687 0.08203,0 0.105468,-0.046875 0.164062,-0.1289062 0.480469,-0.7617188 1.066406,-0.7617188 1.265625,-0.7617188 h 0.5625 c -0.316406,1.2070313 -0.855469,2.4140625 -1.277344,3.3164063 -0.07031,0.1523437 -0.07031,0.1640625 -0.07031,0.234375 0,0.1992187 0.152344,0.2695312 0.28125,0.2695312 0.304687,0 0.386719,-0.2695312 0.503906,-0.6445312 0.140625,-0.4570313 0.140625,-0.4804688 0.269531,-0.9726563 z m 0,0"
         style="fill:#417505;fill-opacity:1;fill-rule:nonzero;stroke:none" />
      <path
         id="path41"
         d="m 46.020008,-3.5946719 c 0,-2.0273437 -0.351563,-4.9101562 -2.238281,-7.3359371 -0.140625,-0.175782 -1.066407,-1.265625 -1.324219,-1.265625 -0.08203,0 -0.175781,0.02344 -0.175781,0.140625 0,0.05859 0.02344,0.105468 0.08203,0.152343 0.691406,0.738282 1.628906,1.898438 2.214844,4.1835941 0.328125,1.3007813 0.457031,2.7773438 0.457031,4.1132813 0,1.453125 -0.128906,2.91796872 -0.503906,4.32421872 -0.539063,2.00390628 -1.394532,3.15234378 -2.121094,3.94921878 -0.128906,0.1289062 -0.128906,0.1640625 -0.128906,0.1875 0,0.1171875 0.09375,0.1523437 0.175781,0.1523437 0.210937,0 0.996094,-0.8789062 1.171875,-1.078125 1.464844,-1.734375 2.390625,-4.32421873 2.390626,-7.5234375 z m 0,0"
         style="fill:#417505;fill-opacity:1;fill-rule:nonzero;stroke:none" />
      <path
         id="path42"
         d="m 61.887195,-4.6522891 c 0.199219,0 0.457032,0 0.457032,-0.2578125 0,-0.2695312 -0.234375,-0.2695312 -0.457032,-0.2695312 h -8.449218 c -0.199219,0 -0.457032,0 -0.457032,0.2578125 0,0.2695312 0.246094,0.2695312 0.457032,0.2695312 z m 0,2.671875 c 0.199219,0 0.457032,0 0.457032,-0.2578125 0,-0.2695312 -0.234375,-0.2695312 -0.457032,-0.2695312 h -8.449218 c -0.199219,0 -0.457032,0 -0.457032,0.2578125 0,0.2695312 0.246094,0.2695312 0.457032,0.2695312 z m 0,0"
         style="fill:#417505;fill-opacity:1;fill-rule:nonzero;stroke:none" />
      <path
         id="path43"
         d="m 69.686023,-3.3280703 c 0.386719,0 1.359375,-0.023437 2.050782,-0.28125 1.089843,-0.421875 1.195312,-1.2539063 1.195312,-1.5117188 0,-0.6328125 -0.550781,-1.2070312 -1.5,-1.2070312 -1.5,0 -3.667969,1.359375 -3.667969,3.9140625 0,1.51171874 0.867188,2.55468749 2.167969,2.55468749 1.945313,0 3.1875,-1.52343749 3.1875,-1.69921879 0,-0.09375 -0.09375,-0.1640625 -0.152344,-0.1640625 -0.03516,0 -0.05859,0.011719 -0.1875,0.140625 -0.914062,1.21875004 -2.273437,1.44140629 -2.824218,1.44140629 -0.808594,0 -1.242188,-0.64453125 -1.242188,-1.71093749 0,-0.1992188 0,-0.5625 0.210938,-1.4765625 z m -0.691406,-0.28125 c 0.621094,-2.2148438 1.980469,-2.4257813 2.4375,-2.4257813 0.632813,0 1.066406,0.375 1.066406,0.9140625 0,1.5117188 -2.296875,1.5117188 -2.894531,1.5117188 z m 0,0"
         style="fill:#417505;fill-opacity:1;fill-rule:nonzero;stroke:none" />
      <path
         id="path44"
         d="m 80.191883,-7.502875 c 0.175781,0 0.351562,0 0.351562,-0.1992188 0,-0.1992187 -0.175781,-0.1992187 -0.351562,-0.1992187 h -5.390625 c -0.164063,0 -0.339844,0 -0.339844,0.1992187 0,0.1992188 0.175781,0.1992188 0.339844,0.1992188 z m 0,0"
         style="fill:#417505;fill-opacity:1;fill-rule:nonzero;stroke:none" />
      <path
         id="path45"
         d="m 84.835437,-13.488227 c 0,-0.105468 -0.08203,-0.257812 -0.28125,-0.257812 -0.1875,0 -0.386718,0.175781 -0.386718,0.375 0,0.117187 0.08203,0.269531 0.269531,0.269531 0.210937,0 0.398437,-0.199219 0.398437,-0.386719 z m -1.429687,3.5390629 c -0.02344,0.09375 -0.05859,0.1757813 -0.05859,0.2929688 0,0.328125 0.28125,0.5976562 0.667969,0.5976562 0.691406,0 0.996094,-0.9609379 0.996094,-1.0664059 0,-0.09375 -0.08203,-0.09375 -0.105469,-0.09375 -0.105469,0 -0.105469,0.04687 -0.140625,0.117187 -0.152344,0.5625002 -0.457031,0.8437502 -0.738281,0.8437502 -0.140625,0 -0.175782,-0.082031 -0.175782,-0.2460938 0,-0.1523437 0.05859,-0.2929687 0.117188,-0.4453125 0.07031,-0.1874999 0.140625,-0.3749999 0.222656,-0.5507809 0.05859,-0.164063 0.316406,-0.808594 0.339844,-0.890625 0.02344,-0.07031 0.04687,-0.152344 0.04687,-0.222657 0,-0.328125 -0.28125,-0.585937 -0.667969,-0.585937 -0.691406,0 -1.007812,0.949219 -1.007812,1.066406 0,0.08203 0.09375,0.08203 0.117187,0.08203 0.09375,0 0.105469,-0.03516 0.128906,-0.105468 0.175782,-0.597657 0.480469,-0.855469 0.738282,-0.855469 0.117187,0 0.175781,0.05859 0.175781,0.246094 0,0.164062 -0.03516,0.269531 -0.210938,0.703125 z m 4.154297,-1.7109379 h 0.832031 c -0.105469,0.421875 -0.257812,1.054688 -0.257812,1.605469 0,0.2812502 0.03516,0.4687502 0.07031,0.6210939 0.117188,0.3515625 0.210938,0.375 0.316406,0.375 0.164063,0 0.328125,-0.1523437 0.328125,-0.3164062 0,-0.058594 -0.01172,-0.082031 -0.05859,-0.1523438 -0.128907,-0.2578125 -0.257813,-0.6562499 -0.257813,-1.2304689 0,-0.128906 0,-0.410156 0.105469,-0.902344 h 0.867187 c 0.128907,0 0.1875,0 0.257813,-0.05859 0.09375,-0.07031 0.117187,-0.175782 0.117187,-0.210938 0,-0.199219 -0.175781,-0.199219 -0.292968,-0.199219 h -2.636719 c -0.28125,0 -0.480469,0.05859 -0.796875,0.351563 -0.175781,0.164062 -0.445313,0.539062 -0.445313,0.597656 0,0.08203 0.09375,0.08203 0.117188,0.08203 0.07031,0 0.08203,-0.01172 0.128906,-0.07031 0.351563,-0.492188 0.785156,-0.492188 0.9375,-0.492188 h 0.421875 c -0.210937,0.761719 -0.585937,1.59375 -0.796875,2.0039067 -0.04687,0.09375 -0.117187,0.2460937 -0.140625,0.2695312 0,0.023437 -0.01172,0.058594 -0.01172,0.1054688 0,0.1054687 0.08203,0.2226562 0.246094,0.2226562 0.269531,0 0.351563,-0.3164062 0.515625,-0.9375 z m 0,0"
         style="fill:#417505;fill-opacity:1;fill-rule:nonzero;stroke:none" />
    </g>
    <path
       id="path46"
       d="m -38.756,88.215 h 7.728"
       style="fill:none;stroke:#417505;stroke-width:0.3985;stroke-linecap:butt;stroke-linejoin:miter;stroke-miterlimit:10;stroke-dasharray:none;stroke-opacity:1"
       transform="matrix(1.3333333,0,0,-1.3333333,168.19067,226.79867)" />
    <path
       id="path47"
       d="m 3.5152734,-1.2670313 h -0.234375 c -0.023437,0.1523438 -0.082031,0.56250005 -0.1757812,0.63281255 -0.058594,0.0351563 -0.5976563,0.0351563 -0.6914063,0.0351563 H 1.1246484 c 0.7382813,-0.64453125 0.984375,-0.84374995 1.3945313,-1.17187495 0.515625,-0.4101564 0.9960937,-0.8437501 0.9960937,-1.5000001 0,-0.8437499 -0.7382812,-1.3593749 -1.6289062,-1.3593749 -0.8671875,0 -1.45312501,0.609375 -1.45312501,1.2421874 0,0.3632812 0.3046875,0.3984375 0.375,0.3984375 0.1640625,0 0.37500001,-0.1171875 0.37500001,-0.375 0,-0.1289063 -0.058594,-0.3632813 -0.42187501,-0.3632813 0.22265625,-0.5039061 0.69140621,-0.65625 1.01953121,-0.65625 0.703125,0 1.0664063,0.5507813 1.0664063,1.1132813 0,0.609375 -0.4335938,1.0898437 -0.65625,1.3359375 l -1.68750001,1.66406255 c -0.0703125,0.0585938 -0.0703125,0.0703125 -0.0703125,0.26953125 H 3.3160547 Z m 0,0"
       style="fill:#417505;fill-opacity:1;fill-rule:nonzero;stroke:none"
       aria-label="2"
       transform="matrix(1.3333333,0,0,1.3333333,119.02,117.08)" />
  </g>
</svg>
