<?xml version="1.0" encoding="UTF-8" standalone="no"?>
<!-- Created with Inkscape (http://www.inkscape.org/) -->

<svg
   version="1.1"
   id="svg1"
   width="353.06668"
   height="117.73333"
   viewBox="0 0 353.06668 117.73333"
   xmlns="http://www.w3.org/2000/svg"
   xmlns:svg="http://www.w3.org/2000/svg">
  <defs
     id="defs1" />
  <g
     id="g1">
    <path
       id="path1"
       d="m 32.03114,-58.16237 c 0,11.2088 12.73609,20.29408 28.44309,20.29408 15.70697,0 28.44308,-9.08528 28.44308,-20.29408 0,-11.20883 -12.73611,-20.29408 -28.44308,-20.29408 -15.707,0 -28.44309,9.08525 -28.44309,20.29408 z"
       style="fill:#fcfa00;fill-opacity:0.35;fill-rule:nonzero;stroke:#000000;stroke-width:0.74721;stroke-linecap:butt;stroke-linejoin:miter;stroke-miterlimit:10;stroke-dasharray:0.83687, 2.50064;stroke-dashoffset:0;stroke-opacity:1"
       transform="matrix(1.3333333,0,0,-1.3333333,-37.786667,-38.866667)" />
    <path
       id="path2"
       d="m 108.3222,-63.56018 c 11.18265,21.20941 28.52155,34.03964 38.72089,28.65755 10.19934,-5.38213 9.4043,-26.93151 -1.78359,-48.1409 -11.18789,-21.20417 -28.52152,-34.03441 -38.72611,-28.65754 -10.19934,5.38212 -9.39908,26.93673 1.78881,48.14089 z"
       style="fill:#fcfa00;fill-opacity:0.35;fill-rule:nonzero;stroke:#000000;stroke-width:0.74721;stroke-linecap:butt;stroke-linejoin:miter;stroke-miterlimit:10;stroke-dasharray:0.83687, 2.50064;stroke-dashoffset:0;stroke-opacity:1"
       transform="matrix(1.3333333,0,0,-1.3333333,-37.786667,-38.866667)" />
    <path
       id="path3"
       d="m 52.3043,-63.2882 c 20.92173,15.6913 14.90673,-15.61283 35.82845,0.07845"
       style="fill:none;stroke:#000000;stroke-width:0.74721;stroke-linecap:butt;stroke-linejoin:miter;stroke-miterlimit:10;stroke-dasharray:none;stroke-opacity:1"
       transform="matrix(1.3333333,0,0,-1.3333333,-37.786667,-38.866667)" />
    <path
       id="path4"
       d="m 88.13275,-63.20975 c 8.24315,10.08951 16.02603,3.86008 20.18945,-0.35043"
       style="fill:none;stroke:#ff0000;stroke-width:0.74721;stroke-linecap:butt;stroke-linejoin:miter;stroke-miterlimit:10;stroke-dasharray:none;stroke-opacity:1"
       transform="matrix(1.3333333,0,0,-1.3333333,-37.786667,-38.866667)" />
    <path
       id="path5"
       d="m 108.3222,-63.56018 c 14.77074,-14.85442 5.57564,-20.35161 26.49736,-4.66029"
       style="fill:none;stroke:#000000;stroke-width:0.74721;stroke-linecap:butt;stroke-linejoin:miter;stroke-miterlimit:10;stroke-dasharray:none;stroke-opacity:1"
       transform="matrix(1.3333333,0,0,-1.3333333,-37.786667,-38.866667)" />
    <path
       id="path6"
       d="m 192.0823,-57.63933 c 0,11.20882 12.7361,20.29408 28.44309,20.29408 15.70699,0 28.4431,-9.08526 28.4431,-20.29408 0,-11.20881 -12.73611,-20.29408 -28.4431,-20.29408 -15.70699,0 -28.44309,9.08527 -28.44309,20.29408 z"
       style="fill:#417505;fill-opacity:0.3;fill-rule:nonzero;stroke:#417505;stroke-width:0.74721;stroke-linecap:butt;stroke-linejoin:miter;stroke-miterlimit:10;stroke-dasharray:0.83687, 2.50064;stroke-dashoffset:0;stroke-opacity:1"
       transform="matrix(1.3333333,0,0,-1.3333333,-37.786667,-38.866667)" />
    <path
       id="path7"
       d="m 248.18391,-62.68669 c 7.6469,14.49353 22.11426,21.88412 32.3136,16.50201 10.19934,-5.37689 12.2706,-21.49185 4.62371,-35.98536 -7.64689,-14.49877 -22.10903,-21.88413 -32.3136,-16.50724 -10.19934,5.38211 -12.27059,21.49182 -4.62371,35.99059 z"
       style="fill:#417505;fill-opacity:0.3;fill-rule:nonzero;stroke:#417505;stroke-width:0.74721;stroke-linecap:butt;stroke-linejoin:miter;stroke-miterlimit:10;stroke-dasharray:0.83687, 2.50064;stroke-dashoffset:0;stroke-opacity:1"
       transform="matrix(1.3333333,0,0,-1.3333333,-37.786667,-38.866667)" />
    <path
       id="path8"
       d="m 212.35547,-62.76517 c 12.2549,14.87014 27.16687,7.07158 35.82844,0.07848"
       style="fill:none;stroke:#000000;stroke-width:0.74721;stroke-linecap:butt;stroke-linejoin:miter;stroke-miterlimit:10;stroke-dasharray:none;stroke-opacity:1"
       transform="matrix(1.3333333,0,0,-1.3333333,-37.786667,-38.866667)" />
    <path
       id="path9"
       d="m 248.18391,-62.68669 c 14.77074,-14.85443 16.38695,-9.89598 26.5026,-4.66031"
       style="fill:none;stroke:#000000;stroke-width:0.74721;stroke-linecap:butt;stroke-linejoin:miter;stroke-miterlimit:10;stroke-dasharray:none;stroke-opacity:1"
       transform="matrix(1.3333333,0,0,-1.3333333,-37.786667,-38.866667)" />
    <path
       id="path10"
       d="m 246.87633,-62.68669 c 0,0.72179 0.58578,1.3076 1.30758,1.3076 0.72182,0 1.30762,-0.58581 1.30762,-1.3076 0,-0.72181 -0.5858,-1.30762 -1.30762,-1.30762 -0.7218,0 -1.30758,0.58581 -1.30758,1.30762 z"
       style="fill:#417505;fill-opacity:1;fill-rule:nonzero;stroke:#417505;stroke-width:0.74721;stroke-linecap:butt;stroke-linejoin:miter;stroke-miterlimit:10;stroke-dasharray:none;stroke-opacity:1"
       transform="matrix(1.3333333,0,0,-1.3333333,-37.786667,-38.866667)" />
  </g>
</svg>
