<?xml version="1.0" encoding="UTF-8" standalone="no"?>
<!-- Created with Inkscape (http://www.inkscape.org/) -->

<svg
   version="1.1"
   id="svg1"
   width="184.53333"
   height="113.05333"
   viewBox="0 0 184.53333 113.05333"
   xmlns="http://www.w3.org/2000/svg"
   xmlns:svg="http://www.w3.org/2000/svg">
  <defs
     id="defs1" />
  <g
     id="g1">
    <path
       id="path1"
       d="m 152.23607,-128.6542 c 0,1.17312 0.95643,2.12208 2.12955,2.12208 1.17311,0 2.12207,-0.94896 2.12207,-2.12208 0,-1.17312 -0.94896,-2.12954 -2.12207,-2.12954 -1.17312,0 -2.12955,0.95642 -2.12955,2.12954 z"
       style="fill:#000000;fill-opacity:1;fill-rule:nonzero;stroke:#000000;stroke-width:0.74721;stroke-linecap:butt;stroke-linejoin:miter;stroke-miterlimit:10;stroke-dasharray:none;stroke-opacity:1"
       transform="matrix(1.3333333,0,0,-1.3333333,-198.05733,-69.681333)" />
    <path
       id="path2"
       d="m 231.44008,-101.00752 c 0,1.17312 0.95643,2.12208 2.12955,2.12208 1.17311,0 2.12207,-0.94896 2.12207,-2.12208 0,-1.17311 -0.94896,-2.12953 -2.12207,-2.12953 -1.17312,0 -2.12955,0.95642 -2.12955,2.12953 z"
       style="fill:#000000;fill-opacity:1;fill-rule:nonzero;stroke:#000000;stroke-width:0.74721;stroke-linecap:butt;stroke-linejoin:miter;stroke-miterlimit:10;stroke-dasharray:none;stroke-opacity:1"
       transform="matrix(1.3333333,0,0,-1.3333333,-198.05733,-69.681333)" />
    <path
       id="path3"
       d="m 225.46242,-60.65831 c 0,1.17313 0.95643,2.12209 2.12954,2.12209 1.17312,0 2.12208,-0.94896 2.12208,-2.12209 0,-1.17311 -0.94896,-2.12953 -2.12208,-2.12953 -1.17311,0 -2.12954,0.95642 -2.12954,2.12953 z"
       style="fill:#000000;fill-opacity:1;fill-rule:nonzero;stroke:#000000;stroke-width:0.74721;stroke-linecap:butt;stroke-linejoin:miter;stroke-miterlimit:10;stroke-dasharray:none;stroke-opacity:1"
       transform="matrix(1.3333333,0,0,-1.3333333,-198.05733,-69.681333)" />
    <path
       id="path4"
       d="M 234.26453,-128.6542 H 154.36562"
       style="fill:none;stroke:#000000;stroke-width:0.74721;stroke-linecap:butt;stroke-linejoin:miter;stroke-miterlimit:10;stroke-dasharray:0.83687, 2.50064;stroke-dashoffset:0;stroke-opacity:1"
       transform="matrix(1.3333333,0,0,-1.3333333,-198.05733,-69.681333)" />
    <path
       id="path5"
       d="M 286.56906,-101.00752 H 233.56963"
       style="fill:none;stroke:#000000;stroke-width:0.74721;stroke-linecap:butt;stroke-linejoin:miter;stroke-miterlimit:10;stroke-dasharray:0.83687, 2.50064;stroke-dashoffset:0;stroke-opacity:1"
       transform="matrix(1.3333333,0,0,-1.3333333,-198.05733,-69.681333)" />
    <path
       id="path6"
       d="m 154.36562,-128.6542 72.12796,66.9797"
       style="fill:none;stroke:#000000;stroke-width:0.74721;stroke-linecap:butt;stroke-linejoin:miter;stroke-miterlimit:10;stroke-dasharray:none;stroke-opacity:1"
       transform="matrix(1.3333333,0,0,-1.3333333,-198.05733,-69.681333)" />
    <path
       id="path7"
       d="m 223.28029,-68.01685 c 1.2182,3.05841 2.6519,5.51139 4.31167,7.35854 -1.96481,-1.51868 -4.51707,-2.76711 -7.65715,-3.75589"
       style="fill:none;stroke:#000000;stroke-width:0.74721;stroke-linecap:butt;stroke-linejoin:miter;stroke-miterlimit:10;stroke-dasharray:none;stroke-opacity:1"
       transform="matrix(1.3333333,0,0,-1.3333333,-198.05733,-69.681333)" />
    <path
       id="path8"
       d="m 233.56963,-101.00752 -5.76098,38.86975"
       style="fill:none;stroke:#000000;stroke-width:0.74721;stroke-linecap:butt;stroke-linejoin:miter;stroke-miterlimit:10;stroke-dasharray:none;stroke-opacity:1"
       transform="matrix(1.3333333,0,0,-1.3333333,-198.05733,-69.681333)" />
    <path
       id="path9"
       d="m 231.22075,-68.37617 c -1.83283,2.73455 -3.04454,5.30435 -3.62879,7.71786 0.14084,-2.47922 -0.27345,-5.28999 -1.23439,-8.4386"
       style="fill:none;stroke:#000000;stroke-width:0.74721;stroke-linecap:butt;stroke-linejoin:miter;stroke-miterlimit:10;stroke-dasharray:none;stroke-opacity:1"
       transform="matrix(1.3333333,0,0,-1.3333333,-198.05733,-69.681333)" />
    <path
       id="path10"
       d="m 230.15489,-78.85281 c 1.11333,0.17186 2.25655,0.26151 3.41474,0.26151 12.21684,0 22.14721,-9.77346 22.40875,-21.92306 l -22.40875,-0.49316 z"
       style="fill:#f5a623;fill-opacity:0.16;fill-rule:nonzero;stroke:#000000;stroke-width:0.74721;stroke-linecap:butt;stroke-linejoin:miter;stroke-miterlimit:10;stroke-dasharray:none;stroke-opacity:0"
       transform="matrix(1.3333333,0,0,-1.3333333,-198.05733,-69.681333)" />
    <path
       id="path11"
       d="m 230.15489,-78.85281 c 1.11333,0.17186 2.25655,0.26151 3.41474,0.26151 12.21684,0 22.14721,-9.77346 22.40875,-21.92306"
       style="fill:none;stroke:#000000;stroke-width:0.74721;stroke-linecap:butt;stroke-linejoin:miter;stroke-miterlimit:10;stroke-dasharray:none;stroke-opacity:1"
       transform="matrix(1.3333333,0,0,-1.3333333,-198.05733,-69.681333)" />
    <path
       id="path12"
       d="m 170.75935,-113.3738 c 3.63143,-3.89295 5.89547,-9.07858 6.01502,-14.78724 l -22.40875,-0.49316 z"
       style="fill:#9013fe;fill-opacity:0.18;fill-rule:nonzero;stroke:#000000;stroke-width:0.74721;stroke-linecap:butt;stroke-linejoin:miter;stroke-miterlimit:10;stroke-dasharray:none;stroke-opacity:0"
       transform="matrix(1.3333333,0,0,-1.3333333,-198.05733,-69.681333)" />
    <path
       id="path13"
       d="m 170.75935,-113.3738 c 3.63143,-3.89295 5.89547,-9.07858 6.01502,-14.78724"
       style="fill:none;stroke:#000000;stroke-width:0.74721;stroke-linecap:butt;stroke-linejoin:miter;stroke-miterlimit:10;stroke-dasharray:none;stroke-opacity:1"
       transform="matrix(1.3333333,0,0,-1.3333333,-198.05733,-69.681333)" />
    <path
       id="path14"
       d="m 3.7143437,-3.7627734 c -0.1757812,-0.375 -0.46875,-0.6445313 -0.9140625,-0.6445313 -1.171875,0 -2.4023437,1.4648438 -2.4023437,2.9179688 0,0.93749996 0.55078125,1.59374996 1.3242187,1.59374996 0.1992188,0 0.703125,-0.03515625 1.3007813,-0.73828125 0.070312,0.41015625 0.421875,0.73828125 0.9023437,0.73828125 0.3515625,0 0.5742188,-0.22265625 0.7382813,-0.5390625 0.1640625,-0.36328125 0.2929687,-0.97265626 0.2929687,-0.99609376 0,-0.09375 -0.082031,-0.09375 -0.1171875,-0.09375 -0.09375,0 -0.1054687,0.035156 -0.140625,0.1757813 -0.1640625,0.64453121 -0.3515625,1.24218746 -0.75,1.24218746 -0.2695312,0 -0.3046875,-0.2578125 -0.3046875,-0.45703125 0,-0.22265625 0.023437,-0.3046875 0.1289063,-0.73828121 0.1171875,-0.421875 0.1289062,-0.5273438 0.2226562,-0.9023438 l 0.3515625,-1.3945312 c 0.070312,-0.28125 0.070312,-0.2929688 0.070312,-0.3398438 0,-0.1640625 -0.1171875,-0.2695312 -0.28125,-0.2695312 -0.2460937,0 -0.3867187,0.2226562 -0.4218745,0.4453125 z m -0.6445312,2.578125 c -0.046875,0.1757812 -0.046875,0.19921871 -0.1992188,0.36328121 -0.4453125,0.55078125 -0.84375,0.71484375 -1.125,0.71484375 -0.5039062,0 -0.6445312,-0.55078125 -0.6445312,-0.93749996 0,-0.5039063 0.328125,-1.7226563 0.5507812,-2.1796875 0.3046875,-0.5976563 0.7617188,-0.9609375 1.1601563,-0.9609375 0.6445312,0 0.7851562,0.8203125 0.7851562,0.8789062 0,0.058594 -0.023437,0.1171875 -0.035156,0.1640625 z m 0,0"
       style="fill:#000000;fill-opacity:1;fill-rule:nonzero;stroke:none"
       aria-label="a"
       transform="matrix(1.3333333,0,0,1.3333333,11.250667,112.06)" />
    <path
       id="path15"
       d="m 2.3785078,-6.80925 c 0,0 0,-0.1054688 -0.1289062,-0.1054688 -0.2226563,0 -0.9492188,0.082031 -1.21875,0.1054688 -0.0703125,0 -0.18750004,0.011719 -0.18750004,0.1992187 0,0.1171875 0.09375,0.1171875 0.24609374,0.1171875 0.46875,0 0.4921875,0.070312 0.4921875,0.1640625 0,0.070312 -0.082031,0.4101563 -0.140625,0.6210938 l -0.80859374,3.2460937 c -0.12890625,0.5039063 -0.1640625,0.65625 -0.1640625,1.0078125 0,0.9492188 0.52734375,1.5585938 1.26562504,1.5585938 1.171875,0 2.4023437,-1.4765625 2.4023437,-2.9179688 0,-0.9023437 -0.5273437,-1.59375 -1.3242187,-1.59375 -0.4570313,0 -0.8671875,0.2929688 -1.171875,0.5976563 z m -0.9375,3.7734375 c 0.058594,-0.2226563 0.058594,-0.2460938 0.1523438,-0.3515625 0.4921875,-0.6445313 0.9375,-0.796875 1.1953125,-0.796875 0.3632812,0 0.6328125,0.2929687 0.6328125,0.9375 0,0.5859375 -0.328125,1.734375 -0.515625,2.109375 -0.328125,0.66796875 -0.7851563,1.03125 -1.171875,1.03125 -0.3398438,0 -0.6679688,-0.26953125 -0.6679688,-1.0078125 0,-0.1875 0,-0.3867188 0.1640625,-1.0078125 z m 0,0"
       style="fill:#000000;fill-opacity:1;fill-rule:nonzero;stroke:none"
       aria-label="b"
       transform="matrix(1.3333333,0,0,1.3333333,116.856,78.704)" />
    <path
       id="path16"
       d="M 1.3252578,-0.83089844 C 1.8643203,-1.4051172 2.1572891,-1.6512109 2.5088516,-1.9558984 c 0,-0.011719 0.6210937,-0.5390625 0.984375,-0.9023438 0.9375,-0.9257812 1.1601562,-1.40625 1.1601562,-1.4414062 0,-0.1054688 -0.09375,-0.1054688 -0.1054687,-0.1054688 -0.070312,0 -0.1054688,0.023437 -0.1523438,0.1171875 -0.3046875,0.46875 -0.5039062,0.6328125 -0.75,0.6328125 -0.234375,0 -0.3515625,-0.1523437 -0.5039062,-0.3164062 -0.1875,-0.234375 -0.3632813,-0.4335938 -0.6914063,-0.4335938 -0.75,0 -1.2070312,0.9257813 -1.2070312,1.1367188 0,0.046875 0.035156,0.1171875 0.1171875,0.1171875 0.09375,0 0.1171875,-0.058594 0.140625,-0.1171875 0.1875,-0.4570313 0.7617187,-0.46875 0.84375,-0.46875 0.2109375,0 0.3984375,0.070312 0.6210937,0.1523437 0.3984375,0.1523438 0.515625,0.1523438 0.7734375,0.1523438 -0.3632812,0.421875 -1.1953125,1.1367187 -1.3828125,1.3007812 l -0.9023437,0.8320313 c -0.67968754,0.66796871 -1.01953129,1.24218746 -1.01953129,1.31249996 0,0.09375 0.09375,0.09375 0.1171875,0.09375 0.0820313,0 0.09375,-0.01171875 0.15234375,-0.12890625 0.234375,-0.33984375 0.52734374,-0.609375 0.85546874,-0.609375 0.2226563,0 0.328125,0.0820313 0.5742188,0.375 0.1640625,0.2109375 0.3515625,0.36328125 0.6328125,0.36328125 0.984375,0 1.5703125,-1.26562496 1.5703125,-1.53515626 0,-0.046875 -0.046875,-0.09375 -0.1171875,-0.09375 -0.09375,0 -0.1171875,0.058594 -0.140625,0.1289063 -0.234375,0.64453121 -0.8671875,0.83203121 -1.1953125,0.83203121 -0.1992188,0 -0.3867188,-0.0585938 -0.5859375,-0.12890625 -0.3398438,-0.12890625 -0.4921875,-0.1640625 -0.703125,-0.1640625 -0.023437,0 -0.1757813,0 -0.2695313,0.0234375 z m 0,0"
       style="fill:#000000;fill-opacity:1;fill-rule:nonzero;stroke:none"
       aria-label="z"
       transform="matrix(1.3333333,0,0,1.3333333,108.88533,6.7133333)" />
    <g
       id="g16"
       aria-label="r&#10;a"
       transform="matrix(1.3333333,0,0,1.3333333,40.421333,44.772)">
      <path
         id="path17"
         d="m 0.8793125,-0.58485938 c -0.0351563,0.15234375 -0.09375,0.375 -0.09375,0.421875 0,0.1875 0.140625,0.26953125 0.2929687,0.26953125 0.1171875,0 0.2929688,-0.0703125 0.3632813,-0.26953125 0.023437,-0.046875 0.3632812,-1.39453122 0.3984375,-1.58203122 0.082031,-0.328125 0.2578125,-1.0195313 0.3164062,-1.2890625 0.046875,-0.1289063 0.328125,-0.5976563 0.5625,-0.8203125 0.082031,-0.070312 0.375,-0.328125 0.796875,-0.328125 0.2578125,0 0.4101563,0.1171875 0.421875,0.1171875 -0.3046875,0.046875 -0.515625,0.2929687 -0.515625,0.5507812 0,0.1640625 0.1054688,0.3515625 0.375,0.3515625 0.2695313,0 0.5507813,-0.234375 0.5507813,-0.5859375 0,-0.3515625 -0.328125,-0.65625 -0.8320313,-0.65625 -0.6445312,0 -1.0898437,0.4921875 -1.2773437,0.7734375 -0.082031,-0.4570312 -0.4335938,-0.7734375 -0.9023438,-0.7734375 -0.4570312,0 -0.6445312,0.3867188 -0.7382812,0.5742188 -0.17578125,0.3398437 -0.3046875,0.9375 -0.3046875,0.9609375 0,0.1054687 0.09375,0.1054687 0.1171875,0.1054687 0.09375,0 0.10546875,-0.011719 0.1640625,-0.234375 0.17578125,-0.703125 0.375,-1.1835937 0.7265625,-1.1835937 0.1757812,0 0.3164062,0.082031 0.3164062,0.4570312 0,0.2109375 -0.035156,0.3164063 -0.1640625,0.8320313 z m 0,0"
         style="fill:#000000;fill-opacity:1;fill-rule:nonzero;stroke:none" />
      <path
         id="path18"
         d="m 7.4359531,-1.1649375 c -0.140625,-0.234375 -0.3867187,-0.4101563 -0.7148437,-0.4101563 -0.890625,0 -1.8046875,0.9726563 -1.8046875,1.9804688 0,0.6796875 0.4570312,1.1601562 1.0546875,1.1601562 0.375,0 0.7148437,-0.2109375 0.9960937,-0.4921875 0.1289063,0.421875 0.5273438,0.4921875 0.7148438,0.4921875 0.2460937,0 0.421875,-0.1523437 0.5507812,-0.375 C 8.3851719,0.921 8.4789219,0.5225625 8.4789219,0.499125 c 0,-0.09375 -0.09375,-0.09375 -0.1171875,-0.09375 -0.09375,0 -0.1054688,0.0351563 -0.1523438,0.22265625 -0.082031,0.328125 -0.2109375,0.73828125 -0.5039062,0.73828125 -0.1875,0 -0.234375,-0.1523438 -0.234375,-0.3398438 0,-0.11718745 0.058594,-0.3632812 0.1054687,-0.5507812 0.046875,-0.1875 0.1171875,-0.46875 0.1523438,-0.62109375 l 0.140625,-0.5390625 C 7.9164219,-0.86025 7.9984531,-1.188375 7.9984531,-1.2235313 c 0,-0.1523437 -0.1289062,-0.2226562 -0.2460937,-0.2226562 -0.1171875,0 -0.2695313,0.082031 -0.3164063,0.28125 z M 6.9906406,0.62803125 c -0.046875,0.1875 -0.1992187,0.328125 -0.3515625,0.45703125 -0.070312,0.058594 -0.3398437,0.28125 -0.6445312,0.28125 -0.2578125,0 -0.515625,-0.1757813 -0.515625,-0.66796875 0,-0.375 0.2109375,-1.13671875 0.3632812,-1.41796875 0.328125,-0.5625 0.6796875,-0.6679688 0.8789063,-0.6679688 0.4804687,0 0.6210937,0.5273438 0.6210937,0.60937505 0,0.0234375 -0.011719,0.0820313 -0.023437,0.09375 z m 0,0"
         style="fill:#000000;fill-opacity:1;fill-rule:nonzero;stroke:none" />
    </g>
    <g
       id="g18"
       aria-label="r&#10;b"
       transform="matrix(1.3333333,0,0,1.3333333,95.924,40.497333)">
      <path
         id="path19"
         d="m 0.88024219,-0.58686719 c -0.0351563,0.15234375 -0.09375,0.375 -0.09375,0.421875 0,0.1875 0.140625,0.26953125 0.29296871,0.26953125 0.1171875,0 0.2929688,-0.0703125 0.3632813,-0.26953125 0.023437,-0.046875 0.3632812,-1.39453121 0.3984375,-1.58203121 0.082031,-0.328125 0.2578125,-1.0195313 0.3164062,-1.2890625 0.046875,-0.1289063 0.328125,-0.5976563 0.5625,-0.8203125 0.082031,-0.070312 0.375,-0.328125 0.796875,-0.328125 0.2578125,0 0.4101563,0.1171875 0.421875,0.1171875 -0.3046875,0.046875 -0.515625,0.2929687 -0.515625,0.5507812 0,0.1640625 0.1054688,0.3515625 0.375,0.3515625 0.2695313,0 0.5507813,-0.234375 0.5507813,-0.5859375 0,-0.3515625 -0.328125,-0.65625 -0.8320313,-0.65625 -0.6445312,0 -1.0898437,0.4921875 -1.2773437,0.7734375 -0.082031,-0.4570312 -0.4335938,-0.7734375 -0.9023438,-0.7734375 -0.45703121,0 -0.64453121,0.3867188 -0.73828121,0.5742188 -0.17578125,0.3398437 -0.3046875,0.9375 -0.3046875,0.9609375 0,0.1054687 0.09375,0.1054687 0.1171875,0.1054687 0.09375,0 0.10546875,-0.011719 0.1640625,-0.234375 0.17578125,-0.703125 0.375,-1.1835937 0.72656251,-1.1835937 0.1757812,0 0.3164062,0.082031 0.3164062,0.4570312 0,0.2109375 -0.035156,0.3164063 -0.1640625,0.8320313 z m 0,0"
         style="fill:#000000;fill-opacity:1;fill-rule:nonzero;stroke:none" />
      <path
         id="path20"
         d="m 6.3353203,-3.1356953 c 0.011719,-0.011719 0.023437,-0.1054688 0.023437,-0.1171875 0,-0.035156 -0.023437,-0.09375 -0.1054687,-0.09375 -0.140625,0 -0.7148438,0.058594 -0.890625,0.070312 -0.058594,0.011719 -0.1523438,0.011719 -0.1523438,0.1640625 0,0.09375 0.09375,0.09375 0.1757813,0.09375 0.3398437,0 0.3398437,0.046875 0.3398437,0.1054687 0,0.046875 -0.070312,0.328125 -0.1171875,0.4921875 l -0.1523437,0.6328125 c -0.070312,0.2460938 -0.4570313,1.76953129 -0.46875,1.86328129 -0.035156,0.1640625 -0.035156,0.2578125 -0.035156,0.33984375 0,0.70312496 0.4453125,1.14843746 1.03125,1.14843746 0.8671875,0 1.7929688,-0.94921871 1.7929688,-1.98046871 0,-0.82031249 -0.5625,-1.16015629 -1.0429688,-1.16015629 -0.3632812,0 -0.6679687,0.1992188 -0.8789062,0.375 z m -0.3515625,4.5 c -0.3398437,0 -0.5273437,-0.2929688 -0.5273437,-0.70312501 0,-0.2578125 0.058594,-0.50390625 0.2578125,-1.2890625 0.035156,-0.12890625 0.035156,-0.140625 0.1640625,-0.29296875 0.2695312,-0.31640624 0.5859375,-0.46875004 0.8320312,-0.46875004 0.2695313,0 0.515625,0.2109375 0.515625,0.67968754 0,0.28125 -0.1523437,0.99609375 -0.3632812,1.40625 C 6.6868828,1.0361797 6.3470391,1.3643047 5.9837578,1.3643047 Z m 0,0"
         style="fill:#000000;fill-opacity:1;fill-rule:nonzero;stroke:none" />
    </g>
    <g
       id="g20"
       aria-label="θ&#10;a"
       transform="matrix(1.3333333,0,0,1.3333333,44.696,88.696)">
      <path
         id="path21"
         d="m 4.5346406,-4.9809844 c 0,-0.65625 -0.1875,-2.0390625 -1.1953125,-2.0390625 -1.3828125,0 -2.91796873,2.8007813 -2.91796873,5.0859375 0,0.93750002 0.28125,2.03906252 1.19531253,2.03906252 1.40625,0 2.9179687,-2.85937502 2.9179687,-5.08593752 z m -3.0585937,1.359375 c 0.1640625,-0.6328125 0.3632812,-1.4296875 0.7617187,-2.1328125 0.2695313,-0.4921875 0.6445313,-1.0546875 1.0898438,-1.0546875 0.4921875,0 0.5507812,0.6445313 0.5507812,1.2070313 0,0.4921875 -0.082031,0.9960937 -0.328125,1.9804687 z m 1.9921875,0.328125 c -0.1171875,0.4570313 -0.3164063,1.3007813 -0.703125,2.015625 -0.3398438,0.67968752 -0.7265625,1.17187502 -1.1484375,1.17187502 -0.328125,0 -0.5390625,-0.29296875 -0.5390625,-1.21875002 0,-0.421875 0.058594,-0.9960937 0.3164062,-1.96875 z m 0,0"
         style="fill:#000000;fill-opacity:1;fill-rule:nonzero;stroke:none" />
      <path
         id="path22"
         d="m 7.6196016,-1.1665313 c -0.140625,-0.234375 -0.3867188,-0.4101562 -0.7148438,-0.4101562 -0.890625,0 -1.8046875,0.97265625 -1.8046875,1.98046875 0,0.67968745 0.4570313,1.16015625 1.0546875,1.16015625 0.375,0 0.7148438,-0.2109375 0.9960938,-0.4921875 0.1289062,0.421875 0.5273437,0.4921875 0.7148437,0.4921875 0.2460938,0 0.421875,-0.1523438 0.5507813,-0.375 0.1523437,-0.26953125 0.2460937,-0.66796875 0.2460937,-0.69140625 0,-0.09375 -0.09375,-0.09375 -0.1171875,-0.09375 -0.09375,0 -0.1054687,0.0351563 -0.1523437,0.22265625 -0.082031,0.328125 -0.2109375,0.7382812 -0.5039063,0.7382812 -0.1875,0 -0.234375,-0.1523437 -0.234375,-0.3398437 0,-0.1171875 0.058594,-0.36328125 0.1054688,-0.55078125 0.046875,-0.1875 0.1171875,-0.46875 0.1523437,-0.62109375 l 0.140625,-0.5390625 c 0.046875,-0.17578125 0.1289063,-0.5039063 0.1289063,-0.5390625 0,-0.1523438 -0.1289063,-0.2226563 -0.2460938,-0.2226563 -0.1171875,0 -0.2695312,0.082031 -0.3164062,0.28125 z M 7.1742891,0.6264375 c -0.046875,0.1875 -0.1992188,0.328125 -0.3515625,0.4570312 -0.070312,0.058594 -0.3398438,0.28125 -0.6445313,0.28125 -0.2578125,0 -0.515625,-0.1757812 -0.515625,-0.6679687 0,-0.375 0.2109375,-1.13671875 0.3632813,-1.41796875 0.328125,-0.56250005 0.6796875,-0.66796875 0.8789062,-0.66796875 0.4804688,0 0.6210938,0.52734375 0.6210938,0.609375 0,0.0234375 -0.011719,0.0820313 -0.023437,0.09375 z m 0,0"
         style="fill:#000000;fill-opacity:1;fill-rule:nonzero;stroke:none" />
    </g>
    <g
       id="g22"
       aria-label="θ&#10;b"
       transform="matrix(1.3333333,0,0,1.3333333,138.91333,35.176)">
      <path
         id="path23"
         d="m 4.5357031,-4.9806328 c 0,-0.65625 -0.1875,-2.0390625 -1.1953125,-2.0390625 -1.3828125,0 -2.91796873,2.8007812 -2.91796873,5.0859375 0,0.93749999 0.28125,2.03906249 1.19531253,2.03906249 1.40625,0 2.9179687,-2.85937499 2.9179687,-5.08593749 z m -3.0585937,1.359375 c 0.1640625,-0.6328125 0.3632812,-1.4296875 0.7617187,-2.1328125 0.2695313,-0.4921875 0.6445313,-1.0546875 1.0898438,-1.0546875 0.4921875,0 0.5507812,0.6445312 0.5507812,1.2070312 0,0.4921875 -0.082031,0.9960938 -0.328125,1.9804688 z m 1.9921875,0.328125 c -0.1171875,0.4570312 -0.3164063,1.3007812 -0.703125,2.015625 -0.3398438,0.67968749 -0.7265625,1.17187499 -1.1484375,1.17187499 -0.328125,0 -0.5390625,-0.29296875 -0.5390625,-1.21874999 0,-0.421875 0.058594,-0.9960938 0.3164062,-1.96875 z m 0,0"
         style="fill:#000000;fill-opacity:1;fill-rule:nonzero;stroke:none" />
      <path
         id="path24"
         d="m 6.5161719,-3.1349297 c 0.011719,-0.011719 0.023437,-0.1054687 0.023437,-0.1171875 0,-0.035156 -0.023437,-0.09375 -0.1054688,-0.09375 -0.140625,0 -0.7148437,0.058594 -0.890625,0.070312 -0.058594,0.011719 -0.1523437,0.011719 -0.1523437,0.1640625 0,0.09375 0.09375,0.09375 0.1757812,0.09375 0.3398438,0 0.3398438,0.046875 0.3398438,0.1054688 0,0.046875 -0.070312,0.328125 -0.1171875,0.4921875 l -0.1523438,0.6328125 c -0.070312,0.2460937 -0.4570312,1.76953121 -0.46875,1.86328121 -0.035156,0.1640625 -0.035156,0.2578125 -0.035156,0.33984375 0,0.70312504 0.4453125,1.14843754 1.03125,1.14843754 0.8671875,0 1.7929687,-0.94921879 1.7929687,-1.98046879 0,-0.82031251 -0.5625,-1.16015621 -1.0429687,-1.16015621 -0.3632813,0 -0.6679688,0.1992187 -0.8789063,0.375 z m -0.3515625,4.5 c -0.3398438,0 -0.5273438,-0.2929687 -0.5273438,-0.70312499 0,-0.2578125 0.058594,-0.50390625 0.2578125,-1.2890625 0.035156,-0.12890625 0.035156,-0.140625 0.1640625,-0.29296875 0.2695313,-0.31640626 0.5859375,-0.46874996 0.8320313,-0.46874996 0.2695312,0 0.515625,0.2109375 0.515625,0.67968746 0,0.28125 -0.1523438,0.99609375 -0.3632813,1.40625 C 6.8677344,1.0369453 6.5278906,1.3650703 6.1646094,1.3650703 Z m 0,0"
         style="fill:#000000;fill-opacity:1;fill-rule:nonzero;stroke:none" />
    </g>
  </g>
</svg>
