<?xml version="1.0" encoding="UTF-8" standalone="no"?>
<!-- Created with Inkscape (http://www.inkscape.org/) -->

<svg
   version="1.1"
   id="svg1"
   width="180.36"
   height="223.29333"
   viewBox="0 0 180.36 223.29333"
   xmlns="http://www.w3.org/2000/svg"
   xmlns:svg="http://www.w3.org/2000/svg">
  <defs
     id="defs1" />
  <g
     id="g1">
    <path
       id="path1"
       d="m 82.34854,-137.98286 h 130.457 M 111.6392,-9.61209 v -165.98236 m 96.98195,40.60043 4.18439,-2.98884 -4.18439,-2.98885 m -99.97079,127.17523 2.98884,4.18439 2.98885,-4.18439"
       style="fill:none;stroke:#9b9b9b;stroke-width:1.49442;stroke-linecap:butt;stroke-linejoin:miter;stroke-miterlimit:10;stroke-dasharray:none;stroke-opacity:1"
       transform="matrix(1.3333333,0,0,-1.3333333,-104.37733,-11.826667)" />
    <path
       id="path2"
       d="M 199.86981,-20.34203 111.6392,-137.98286"
       style="fill:none;stroke:#8b572a;stroke-width:1.49442;stroke-linecap:butt;stroke-linejoin:miter;stroke-miterlimit:10;stroke-dasharray:none;stroke-opacity:1"
       transform="matrix(1.3333333,0,0,-1.3333333,-104.37733,-11.826667)" />
    <path
       id="path3"
       d="m 199.5734,-27.14299 1.73107,8.71381 -7.88537,-4.09806 4.69343,-0.15782 z"
       style="fill:#8b572a;fill-opacity:1;fill-rule:nonzero;stroke:#000000;stroke-width:0.0797;stroke-linecap:butt;stroke-linejoin:miter;stroke-miterlimit:10;stroke-dasharray:none;stroke-opacity:0"
       transform="matrix(1.3333333,0,0,-1.3333333,-104.37733,-11.826667)" />
    <path
       id="path4"
       d="M 201.30447,-18.42918 V -137.98286"
       style="fill:none;stroke:#808080;stroke-width:0.74721;stroke-linecap:butt;stroke-linejoin:miter;stroke-miterlimit:10;stroke-dasharray:0.83687, 2.50064;stroke-dashoffset:0;stroke-opacity:1"
       transform="matrix(1.3333333,0,0,-1.3333333,-104.37733,-11.826667)" />
    <path
       id="path5"
       d="M 201.30447,-18.42918 H 111.6392"
       style="fill:none;stroke:#808080;stroke-width:0.74721;stroke-linecap:butt;stroke-linejoin:miter;stroke-miterlimit:10;stroke-dasharray:0.83687, 2.50064;stroke-dashoffset:0;stroke-opacity:1"
       transform="matrix(1.3333333,0,0,-1.3333333,-104.37733,-11.826667)" />
    <path
       id="path6"
       d="m 122.0643,-123.39133 c 4.44142,-3.18013 7.37643,-8.33887 7.50198,-14.18504 l -17.92708,-0.40649 z"
       style="fill:none;stroke:#000000;stroke-width:1.49442;stroke-linecap:butt;stroke-linejoin:miter;stroke-miterlimit:10;stroke-dasharray:none;stroke-opacity:0"
       transform="matrix(1.3333333,0,0,-1.3333333,-104.37733,-11.826667)" />
    <path
       id="path7"
       d="m 122.0643,-123.39133 c 4.44142,-3.18013 7.37643,-8.33887 7.50198,-14.18504"
       style="fill:none;stroke:#4a4a4a;stroke-width:1.49442;stroke-linecap:butt;stroke-linejoin:miter;stroke-miterlimit:10;stroke-dasharray:none;stroke-opacity:1"
       transform="matrix(1.3333333,0,0,-1.3333333,-104.37733,-11.826667)" />
    <path
       id="path8"
       d="m 2.8944219,-3.5043594 c 0.8085937,-0.2695312 1.3945312,-0.9726562 1.3945312,-1.7578125 0,-0.8203125 -0.8789062,-1.3710937 -1.8398437,-1.3710937 -1.0078125,0 -1.75781253,0.5976562 -1.75781253,1.3476562 0,0.3398438 0.2109375,0.5273438 0.50390623,0.5273438 0.3046875,0 0.5039063,-0.2226563 0.5039063,-0.515625 0,-0.4921875 -0.46875,-0.4921875 -0.609375,-0.4921875 0.3046875,-0.4921875 0.9609375,-0.6210938 1.3242187,-0.6210938 0.4101563,0 0.9492188,0.2226563 0.9492188,1.1132813 0,0.1289062 -0.011719,0.703125 -0.2695313,1.1367187 -0.3046875,0.4804688 -0.6445312,0.515625 -0.890625,0.515625 -0.082031,0.011719 -0.3164062,0.035156 -0.3867187,0.035156 -0.082031,0.011719 -0.1523438,0.023437 -0.1523438,0.1171875 0,0.1171875 0.070312,0.1171875 0.234375,0.1171875 h 0.4453125 c 0.8085938,0 1.1835938,0.6679687 1.1835938,1.6523437 0,1.34765627 -0.6914063,1.64062502 -1.125,1.64062502 -0.4335938,0 -1.171875,-0.17578125 -1.52343753,-0.76171875 0.35156253,0.0585938 0.65625003,-0.1640625 0.65625003,-0.53906247 0,-0.3632813 -0.2695313,-0.5625 -0.56250003,-0.5625 -0.234375,0 -0.55078125,0.140625 -0.55078125,0.5742187 0,0.91406252 0.92578128,1.57031252 2.00390628,1.57031252 1.21875,0 2.1210937,-0.9140625 2.1210937,-1.92187502 0,-0.8203125 -0.6210937,-1.59375 -1.6523437,-1.8046872 z m 0,0"
       style="fill:#000000;fill-opacity:1;fill-rule:nonzero;stroke:none"
       aria-label="3"
       transform="matrix(1.3333333,0,0,1.3333333,167.11733,184.91467)" />
    <path
       id="path9"
       d="m 2.9283281,-1.6398359 v 0.86718746 c 0,0.3515625 -0.023437,0.46875 -0.7617187,0.46875 H 1.9556719 V 7.890625e-4 C 2.3658281,-0.03436719 2.8931719,-0.03436719 3.3033281,-0.03436719 c 0.421875,0 0.9492188,0 1.359375,0.0351562525 V -0.30389844 H 4.4517656 c -0.7382812,0 -0.7617187,-0.1171875 -0.7617187,-0.46875 V -1.6398359 H 4.6861406 V -1.9562422 H 3.6900469 v -4.5234375 c 0,-0.1992187 0,-0.2578125 -0.1523438,-0.2578125 -0.09375,0 -0.1171875,0 -0.1992187,0.1171875 l -3.05859378,4.6640625 v 0.3164063 z m 0.058594,-0.3164063 H 0.56114062 L 2.9869219,-5.6710859 Z m 0,0"
       style="fill:#000000;fill-opacity:1;fill-rule:nonzero;stroke:none"
       aria-label="4"
       transform="matrix(1.3333333,0,0,1.3333333,34.744,25.510667)" />
    <path
       id="path10"
       d="m 4.5343516,-4.9819219 c 0,-0.65625 -0.1875,-2.0390625 -1.1953125,-2.0390625 -1.3828125,0 -2.91796879,2.8007813 -2.91796879,5.0859375 0,0.93750003 0.28125,2.03906253 1.19531249,2.03906253 1.40625,0 2.9179688,-2.85937503 2.9179688,-5.08593753 z m -3.0585938,1.359375 c 0.1640625,-0.6328125 0.3632813,-1.4296875 0.7617188,-2.1328125 0.2695312,-0.4921875 0.6445312,-1.0546875 1.0898437,-1.0546875 0.4921875,0 0.5507813,0.6445313 0.5507813,1.2070313 0,0.4921875 -0.082031,0.9960937 -0.328125,1.9804687 z m 1.9921875,0.328125 c -0.1171875,0.4570313 -0.3164062,1.3007813 -0.703125,2.015625 -0.3398437,0.67968753 -0.7265625,1.17187503 -1.1484375,1.17187503 -0.328125,0 -0.5390625,-0.29296875 -0.5390625,-1.21875003 0,-0.421875 0.058594,-0.9960937 0.3164063,-1.96875 z m 0,0"
       style="fill:#4a4a4a;fill-opacity:1;fill-rule:nonzero;stroke:none"
       aria-label="θ"
       transform="matrix(1.3333333,0,0,1.3333333,78.934667,163.916)" />
  </g>
</svg>
