<?xml version="1.0" encoding="UTF-8" standalone="no"?>
<!-- Created with Inkscape (http://www.inkscape.org/) -->

<svg
   version="1.1"
   id="svg1"
   width="391.60001"
   height="129.70667"
   viewBox="0 0 391.60001 129.70667"
   xmlns="http://www.w3.org/2000/svg"
   xmlns:svg="http://www.w3.org/2000/svg">
  <defs
     id="defs1" />
  <g
     id="g1">
    <path
       id="path1"
       d="m 124.7196,-47.29875 c 0,3.1487 14.68705,5.69594 32.80526,5.69594 18.12346,0 32.81048,-2.54724 32.81048,-5.69594 0,-3.14351 -14.68702,-5.69595 -32.81048,-5.69595 -18.11821,0 -32.80526,2.55244 -32.80526,5.69595 z"
       style="fill:none;stroke:#9b9b9b;stroke-width:0.74721;stroke-linecap:butt;stroke-linejoin:miter;stroke-miterlimit:10;stroke-dasharray:4.48325, 4.48325;stroke-dashoffset:0;stroke-opacity:0.5"
       transform="matrix(1.3333333,0,0,-1.3333333,-12.513333,-29.676)" />
    <path
       id="path2"
       d="m 99.96921,-55.96559 h 202.74717 l -86.89312,-63.1993 H 13.07607 Z"
       style="fill:#f5a623;fill-opacity:0.3;fill-rule:nonzero;stroke:#000000;stroke-width:0.74721;stroke-linecap:butt;stroke-linejoin:miter;stroke-miterlimit:10;stroke-dasharray:0.83687, 2.50064;stroke-dashoffset:0;stroke-opacity:1"
       transform="matrix(1.3333333,0,0,-1.3333333,-12.513333,-29.676)" />
    <path
       id="path3"
       d="m 123.67351,-55.09734 c 0,17.92991 15.31993,32.47051 34.22271,32.47051 18.90278,0 34.22271,-14.5406 34.22271,-32.47051 0,-17.92991 -15.31993,-32.46528 -34.22271,-32.46528 -18.90278,0 -34.22271,14.53537 -34.22271,32.46528 z"
       style="fill:#7ed321;fill-opacity:0.2;fill-rule:nonzero;stroke:#000000;stroke-width:0.74721;stroke-linecap:butt;stroke-linejoin:miter;stroke-miterlimit:10;stroke-dasharray:none;stroke-opacity:1"
       transform="matrix(1.3333333,0,0,-1.3333333,-12.513333,-29.676)" />
    <path
       id="path4"
       d="m 123.67351,-55.09734 c 0,3.81823 15.31993,6.9094 34.22271,6.9094 18.90278,0 34.22271,-3.09117 34.22271,-6.9094 0,-3.813 -15.31993,-6.90939 -34.22271,-6.90939 -18.90278,0 -34.22271,3.09639 -34.22271,6.90939 z"
       style="fill:none;stroke:#9b9b9b;stroke-width:0.74721;stroke-linecap:butt;stroke-linejoin:miter;stroke-miterlimit:10;stroke-dasharray:4.48325, 4.48325;stroke-dashoffset:0;stroke-opacity:1"
       transform="matrix(1.3333333,0,0,-1.3333333,-12.513333,-29.676)" />
    <path
       id="path5"
       d="m 156.58862,-25.36758 c 0,0.72181 0.58582,1.30761 1.3076,1.30761 0.72181,0 1.30762,-0.5858 1.30762,-1.30761 0,-0.72179 -0.58581,-1.30759 -1.30762,-1.30759 -0.72178,0 -1.3076,0.5858 -1.3076,1.30759 z"
       style="fill:#417505;fill-opacity:1;fill-rule:nonzero;stroke:#417505;stroke-width:0.74721;stroke-linecap:butt;stroke-linejoin:miter;stroke-miterlimit:10;stroke-dasharray:none;stroke-opacity:1"
       transform="matrix(1.3333333,0,0,-1.3333333,-12.513333,-29.676)" />
    <path
       id="path6"
       d="m 157.89622,-25.36758 53.68516,-90.26154"
       style="fill:none;stroke:#417505;stroke-width:0.74721;stroke-linecap:butt;stroke-linejoin:miter;stroke-miterlimit:10;stroke-dasharray:none;stroke-opacity:1"
       transform="matrix(1.3333333,0,0,-1.3333333,-12.513333,-29.676)" />
    <path
       id="path7"
       d="m 172.80296,-52.3043 c 0,0.72181 0.5858,1.30761 1.30761,1.30761 0.72178,0 1.30761,-0.5858 1.30761,-1.30761 0,-0.7218 -0.58583,-1.3076 -1.30761,-1.3076 -0.72181,0 -1.30761,0.5858 -1.30761,1.3076 z"
       style="fill:#417505;fill-opacity:1;fill-rule:nonzero;stroke:#417505;stroke-width:0.74721;stroke-linecap:butt;stroke-linejoin:miter;stroke-miterlimit:10;stroke-dasharray:none;stroke-opacity:1"
       transform="matrix(1.3333333,0,0,-1.3333333,-12.513333,-29.676)" />
    <path
       id="path8"
       d="m 210.27376,-115.62912 c 0,0.7218 0.5858,1.3076 1.30762,1.3076 0.72178,0 1.30758,-0.5858 1.30758,-1.3076 0,-0.7218 -0.5858,-1.3076 -1.30758,-1.3076 -0.72182,0 -1.30762,0.5858 -1.30762,1.3076 z"
       style="fill:#8b572a;fill-opacity:1;fill-rule:nonzero;stroke:#8b572a;stroke-width:0.74721;stroke-linecap:butt;stroke-linejoin:miter;stroke-miterlimit:10;stroke-dasharray:none;stroke-opacity:1"
       transform="matrix(1.3333333,0,0,-1.3333333,-12.513333,-29.676)" />
  </g>
</svg>
