<?xml version="1.0" encoding="UTF-8" standalone="no"?>
<!-- Created with Inkscape (http://www.inkscape.org/) -->

<svg
   version="1.1"
   id="svg1"
   width="448.56"
   height="137.18668"
   viewBox="0 0 448.56 137.18668"
   xmlns="http://www.w3.org/2000/svg"
   xmlns:svg="http://www.w3.org/2000/svg">
  <defs
     id="defs1" />
  <g
     id="g1">
    <path
       id="path1"
       d="m 66.98592,-70.42308 c 24.50848,13.74867 57.70854,18.30366 50.37394,-10.27564 -7.33462,-28.57931 22.73311,-26.98922 34.68848,-44.92228 11.95537,-17.93305 -82.67136,-27.89188 -94.62672,-9.95883 -11.95537,17.93306 -14.94422,51.40808 9.5643,65.15675 z"
       style="fill:none;stroke:#000000;stroke-width:1.49442;stroke-linecap:butt;stroke-linejoin:miter;stroke-miterlimit:10;stroke-dasharray:none;stroke-opacity:1"
       transform="matrix(1.3333333,0,0,-1.3333333,-4.9933333,-68.492)" />
    <path
       id="path2"
       d="M 118.39398,-76.40076 79.53903,-105.6914"
       style="fill:none;stroke:#000000;stroke-width:1.49442;stroke-linecap:butt;stroke-linejoin:miter;stroke-miterlimit:10;stroke-dasharray:none;stroke-opacity:1"
       transform="matrix(1.3333333,0,0,-1.3333333,-4.9933333,-68.492)" />
    <path
       id="path3"
       d="m 116.69632,-76.40076 c 0,0.94449 0.75917,1.70365 1.69766,1.70365 0.93852,0 1.70365,-0.75916 1.70365,-1.70365 0,-0.9385 -0.76513,-1.69764 -1.70365,-1.69764 -0.93849,0 -1.69766,0.75914 -1.69766,1.69764 z"
       style="fill:#000000;fill-opacity:1;fill-rule:nonzero;stroke:#000000;stroke-width:0.74721;stroke-linecap:butt;stroke-linejoin:miter;stroke-miterlimit:10;stroke-dasharray:none;stroke-opacity:1"
       transform="matrix(1.3333333,0,0,-1.3333333,-4.9933333,-68.492)" />
    <path
       id="path4"
       d="m 62.75969,-136.64983 3.40727,-4.45338 -5.60706,-0.0598 3.35346,1.15965 -1.15367,3.3535 z"
       style="fill:#000000;fill-opacity:1;fill-rule:nonzero;stroke:#000000;stroke-width:0.74721;stroke-linecap:butt;stroke-linejoin:miter;stroke-miterlimit:10;stroke-dasharray:none;stroke-opacity:1"
       transform="matrix(1.3333333,0,0,-1.3333333,-4.9933333,-68.492)" />
    <path
       id="path5"
       d="m 220.81561,-70.42308 c 24.50852,13.74867 57.70859,18.30366 50.37395,-10.27564 -7.33463,-28.57931 22.72717,-26.98922 34.68254,-44.92228 11.95537,-17.93305 -82.6654,-27.89188 -94.62077,-9.95883 -11.95537,17.93306 -14.9442,51.40808 9.56428,65.15675 z"
       style="fill:none;stroke:#000000;stroke-width:1.49442;stroke-linecap:butt;stroke-linejoin:miter;stroke-miterlimit:10;stroke-dasharray:none;stroke-opacity:1"
       transform="matrix(1.3333333,0,0,-1.3333333,-4.9933333,-68.492)" />
    <path
       id="path6"
       d="M 272.22371,-76.40076 233.36876,-105.6914"
       style="fill:#f8e71c;fill-opacity:1;fill-rule:nonzero;stroke:#8b572a;stroke-width:1.49442;stroke-linecap:butt;stroke-linejoin:miter;stroke-miterlimit:10;stroke-dasharray:none;stroke-opacity:1"
       transform="matrix(1.3333333,0,0,-1.3333333,-4.9933333,-68.492)" />
    <path
       id="path7"
       d="m 270.52007,-76.40076 c 0,0.94449 0.76515,1.70365 1.70364,1.70365 0.93849,0 1.69766,-0.75916 1.69766,-1.70365 0,-0.9385 -0.75917,-1.69764 -1.69766,-1.69764 -0.93849,0 -1.70364,0.75914 -1.70364,1.69764 z"
       style="fill:#8b572a;fill-opacity:1;fill-rule:nonzero;stroke:#000000;stroke-width:0.74721;stroke-linecap:butt;stroke-linejoin:miter;stroke-miterlimit:10;stroke-dasharray:none;stroke-opacity:1"
       transform="matrix(1.3333333,0,0,-1.3333333,-4.9933333,-68.492)" />
    <path
       id="path8"
       d="m 207.38377,-122.35721 -0.29889,-5.60107 -4.30394,3.59857 3.2997,-1.29718 z"
       style="fill:#000000;fill-opacity:1;fill-rule:nonzero;stroke:#000000;stroke-width:0.74721;stroke-linecap:butt;stroke-linejoin:miter;stroke-miterlimit:10;stroke-dasharray:none;stroke-opacity:1"
       transform="matrix(1.3333333,0,0,-1.3333333,-4.9933333,-68.492)" />
    <path
       id="path9"
       d="m 50.84018,-126.41006 c 0,0.9385 0.76515,1.69766 1.70364,1.69766 0.9385,0 1.69767,-0.75916 1.69767,-1.69766 0,-0.93848 -0.75917,-1.70365 -1.69767,-1.70365 -0.93849,0 -1.70364,0.76517 -1.70364,1.70365 z"
       style="fill:#f5a623;fill-opacity:1;fill-rule:nonzero;stroke:#000000;stroke-width:0.74721;stroke-linecap:butt;stroke-linejoin:miter;stroke-miterlimit:10;stroke-dasharray:none;stroke-opacity:1"
       transform="matrix(1.3333333,0,0,-1.3333333,-4.9933333,-68.492)" />
    <path
       id="path10"
       d="m 52.54382,-126.41006 26.99521,20.71866"
       style="fill:none;stroke:#f5a623;stroke-width:1.49442;stroke-linecap:butt;stroke-linejoin:miter;stroke-miterlimit:10;stroke-dasharray:none;stroke-opacity:1"
       transform="matrix(1.3333333,0,0,-1.3333333,-4.9933333,-68.492)" />
    <path
       id="path11"
       d="m 93.65833,-94.62671 c 2.39108,-3.04863 3.81376,-6.88631 3.81376,-11.06469 0,-0.0179 0,-0.0359 0,-0.0538 l -17.93306,0.0538 z"
       style="fill:#000000;fill-opacity:0.2;fill-rule:nonzero;stroke:#000000;stroke-width:0.74721;stroke-linecap:butt;stroke-linejoin:miter;stroke-miterlimit:10;stroke-dasharray:none;stroke-opacity:0"
       transform="matrix(1.3333333,0,0,-1.3333333,-4.9933333,-68.492)" />
    <path
       id="path12"
       d="m 93.65833,-94.62671 c 2.39108,-3.04863 3.81376,-6.88631 3.81376,-11.06469 0,-0.0179 0,-0.0359 0,-0.0538"
       style="fill:none;stroke:#000000;stroke-width:0.74721;stroke-linecap:butt;stroke-linejoin:miter;stroke-miterlimit:10;stroke-dasharray:none;stroke-opacity:1"
       transform="matrix(1.3333333,0,0,-1.3333333,-4.9933333,-68.492)" />
    <path
       id="path13"
       d="m 69.2395,-113.91672 c -1.79927,2.2536 -2.88124,5.11692 -2.88124,8.22532 0,7.2808 5.89998,13.18676 13.18077,13.18676 7.28082,0 13.18678,-5.90596 13.18678,-13.18676 0,-0.0119 0,-0.0239 0,-0.0359 l -13.18678,0.0359 z"
       style="fill:#f5a623;fill-opacity:0.32;fill-rule:nonzero;stroke:#000000;stroke-width:0.74721;stroke-linecap:butt;stroke-linejoin:miter;stroke-miterlimit:10;stroke-dasharray:none;stroke-opacity:0"
       transform="matrix(1.3333333,0,0,-1.3333333,-4.9933333,-68.492)" />
    <path
       id="path14"
       d="m 69.2395,-113.91672 c -1.79927,2.2536 -2.88124,5.11692 -2.88124,8.22532 0,7.2808 5.89998,13.18676 13.18077,13.18676 7.28082,0 13.18678,-5.90596 13.18678,-13.18676 0,-0.0119 0,-0.0239 0,-0.0359"
       style="fill:none;stroke:#000000;stroke-width:0.74721;stroke-linecap:butt;stroke-linejoin:miter;stroke-miterlimit:10;stroke-dasharray:none;stroke-opacity:1"
       transform="matrix(1.3333333,0,0,-1.3333333,-4.9933333,-68.492)" />
    <path
       id="path15"
       d="m 95.05113,-103.27045 0.74124,5.55924 3.99907,-3.92732 -3.18611,1.55418 z"
       style="fill:#000000;fill-opacity:1;fill-rule:nonzero;stroke:#000000;stroke-width:0.74721;stroke-linecap:butt;stroke-linejoin:miter;stroke-miterlimit:10;stroke-dasharray:none;stroke-opacity:1"
       transform="matrix(1.3333333,0,0,-1.3333333,-4.9933333,-68.492)" />
    <path
       id="path16"
       d="m 85.70204,-96.3483 -4.04092,3.8855 5.53534,0.90265 -3.14427,-1.64985 z"
       style="fill:#000000;fill-opacity:1;fill-rule:nonzero;stroke:#000000;stroke-width:0.74721;stroke-linecap:butt;stroke-linejoin:miter;stroke-miterlimit:10;stroke-dasharray:none;stroke-opacity:1"
       transform="matrix(1.3333333,0,0,-1.3333333,-4.9933333,-68.492)" />
    <path
       id="path17"
       d="m 244.25412,-97.60359 c 1.63191,-1.83516 2.68996,-3.96919 3.18013,-6.4021 0.49614,-2.49867 0.3228,-4.96147 -0.52603,-7.40039 -0.87276,-2.49268 -2.3313,-4.62074 -4.37569,-6.36624 -2.09218,-1.79329 -4.51912,-2.94699 -7.26883,-3.46108 -2.8155,-0.52603 -5.59512,-0.31084 -8.32693,0.63962 -2.79157,0.98033 -5.16471,2.59433 -7.10745,4.8479 -1.99059,2.30739 -3.26384,4.96745 -3.81975,7.98022 -0.56789,3.0785 -0.30486,6.1032 0.7711,9.0801 1.09991,3.03666 2.91115,5.60109 5.42775,7.70523 2.57042,2.14001 5.52338,3.50293 8.85892,4.08873 3.4073,0.59778 6.74882,0.30487 10.02459,-0.87872 3.25783,-1.17758 6.01355,-3.07251 8.27909,-5.68476"
       style="fill:#f8e71c;fill-opacity:0.27;fill-rule:nonzero;stroke:#000000;stroke-width:0.74721;stroke-linecap:butt;stroke-linejoin:miter;stroke-miterlimit:10;stroke-dasharray:none;stroke-opacity:1"
       transform="matrix(1.3333333,0,0,-1.3333333,-4.9933333,-68.492)" />
    <path
       id="path18"
       d="m 243.14825,-114.46664 4.03493,3.89744 0.6994,-5.56523 -1.53628,3.19807 z"
       style="fill:#000000;fill-opacity:1;fill-rule:nonzero;stroke:#000000;stroke-width:0.74721;stroke-linecap:butt;stroke-linejoin:miter;stroke-miterlimit:10;stroke-dasharray:none;stroke-opacity:1"
       transform="matrix(1.3333333,0,0,-1.3333333,-4.9933333,-68.492)" />
    <path
       id="path19"
       d="m 79.53903,-105.6914 h 80.77048"
       style="fill:none;stroke:#000000;stroke-width:0.74721;stroke-linecap:butt;stroke-linejoin:miter;stroke-miterlimit:10;stroke-dasharray:0.83687, 2.50064;stroke-dashoffset:0;stroke-opacity:1"
       transform="matrix(1.3333333,0,0,-1.3333333,-4.9933333,-68.492)" />
    <path
       id="path20"
       d="m 233.36876,-105.6914 h 80.7645"
       style="fill:none;stroke:#000000;stroke-width:0.74721;stroke-linecap:butt;stroke-linejoin:miter;stroke-miterlimit:10;stroke-dasharray:0.83687, 2.50064;stroke-dashoffset:0;stroke-opacity:1"
       transform="matrix(1.3333333,0,0,-1.3333333,-4.9933333,-68.492)" />
    <path
       id="path21"
       d="m 4.5352422,-4.9816797 c 0,-0.65625 -0.1875,-2.0390625 -1.1953125,-2.0390625 -1.3828125,0 -2.91796876,2.8007813 -2.91796876,5.0859375 0,0.93750001 0.28125,2.03906251 1.19531246,2.03906251 1.40625,0 2.9179688,-2.85937501 2.9179688,-5.08593751 z m -3.0585938,1.359375 c 0.1640625,-0.6328125 0.3632813,-1.4296875 0.7617188,-2.1328125 0.2695312,-0.4921875 0.6445312,-1.0546875 1.0898437,-1.0546875 0.4921875,0 0.5507813,0.6445313 0.5507813,1.2070313 0,0.4921875 -0.082031,0.9960937 -0.328125,1.9804687 z m 1.9921875,0.328125 c -0.1171875,0.4570313 -0.3164062,1.3007813 -0.703125,2.015625 -0.3398437,0.67968751 -0.7265625,1.17187501 -1.1484375,1.17187501 -0.328125,0 -0.5390625,-0.29296875 -0.5390625,-1.21875001 0,-0.421875 0.058594,-0.9960937 0.3164063,-1.96875 z m 0,0"
       style="fill:#000000;fill-opacity:1;fill-rule:nonzero;stroke:none"
       aria-label="θ"
       transform="matrix(1.3333333,0,0,1.3333333,130.05067,66.013333)" />
    <g
       id="g21"
       aria-label="w=&#10;√"
       transform="matrix(1.3333333,0,0,1.3333333,159.84267,24.689333)">
      <path
         id="path22"
         d="m 4.6062812,-3.376375 c 0.046875,-0.2226563 0.140625,-0.5859375 0.140625,-0.6445313 0,-0.1875 -0.1289062,-0.2695312 -0.28125,-0.2695312 -0.1171875,0 -0.3046875,0.070312 -0.375,0.2695312 -0.023437,0.070312 -0.4921875,1.9804688 -0.5625,2.2382813 -0.070312,0.2929687 -0.09375,0.4804687 -0.09375,0.65625 0,0.1054687 0,0.12890625 0.011719,0.17578125 -0.2226563,0.52734375 -0.5273438,0.84375 -0.9140625,0.84375 -0.796875,0 -0.796875,-0.73828125 -0.796875,-0.91406255 0,-0.3164062 0.046875,-0.703125 0.515625,-1.9335937 0.1054687,-0.2929688 0.1757812,-0.4335938 0.1757812,-0.6328125 0,-0.4453125 -0.328125,-0.8203125 -0.8203125,-0.8203125 -0.9492187,0 -1.31249995,1.453125 -1.31249995,1.5351562 0,0.1054688 0.09375,0.1054688 0.1171875,0.1054688 0.09375,0 0.10546875,-0.023437 0.15234375,-0.1875 0.26953125,-0.9257813 0.6679687,-1.2304688 1.0078125,-1.2304688 0.09375,0 0.2578125,0.011719 0.2578125,0.328125 0,0.2460938 -0.1171875,0.5273438 -0.1875,0.703125 -0.4335938,1.171875 -0.5507813,1.6289063 -0.5507813,2.0039063 0,0.9140625 0.6679688,1.25390625 1.40625,1.25390625 0.1757813,0 0.6445313,0 1.0429688,-0.69140625 0.2578125,0.6328125 0.9492187,0.69140625 1.2421875,0.69140625 0.75,0 1.1835937,-0.62109375 1.4414062,-1.21875005 0.3398438,-0.7851562 0.65625,-2.109375 0.65625,-2.5898437 0,-0.5507813 -0.2695312,-0.703125 -0.4335937,-0.703125 -0.2460938,0 -0.5039063,0.2578125 -0.5039063,0.4804687 0,0.1289063 0.070312,0.1875 0.1523438,0.2695313 0.1171875,0.1054687 0.3632812,0.3632812 0.3632812,0.84375 0,0.3398437 -0.2929687,1.3125 -0.5507812,1.828125 -0.2578125,0.52734375 -0.609375,0.87890625 -1.0898438,0.87890625 -0.46875,0 -0.7382812,-0.3046875 -0.7382812,-0.8671875 0,-0.28125005 0.070312,-0.58593755 0.1054687,-0.72656255 z m 0,0"
         style="fill:#000000;fill-opacity:1;fill-rule:nonzero;stroke:none" />
      <path
         id="path23"
         d="m 17.010578,-3.2591875 c 0.152344,0 0.339844,0 0.339844,-0.1992188 0,-0.1992187 -0.1875,-0.1992187 -0.328125,-0.1992187 h -5.964844 c -0.140625,0 -0.328125,0 -0.328125,0.1992187 0,0.1992188 0.1875,0.1992188 0.339844,0.1992188 z m 0.01172,1.9335937 c 0.140625,0 0.328125,0 0.328125,-0.1992187 0,-0.1992188 -0.1875,-0.1992188 -0.339844,-0.1992188 h -5.941406 c -0.152344,0 -0.339844,0 -0.339844,0.1992188 0,0.1992187 0.1875,0.1992187 0.328125,0.1992187 z m 0,0"
         style="fill:#000000;fill-opacity:1;fill-rule:nonzero;stroke:none" />
      <path
         id="path24"
         d="M 24.563312,0.85702344 22.8055,-3.0218828 c -0.07031,-0.1523438 -0.117188,-0.1523438 -0.152344,-0.1523438 -0.01172,0 -0.05859,0 -0.164062,0.070312 l -0.949219,0.7265625 c -0.128906,0.09375 -0.128906,0.1289063 -0.128906,0.1523438 0,0.046875 0.03516,0.1054687 0.105468,0.1054687 0.05859,0 0.222657,-0.1289062 0.328125,-0.2109375 0.07031,-0.046875 0.210938,-0.1640625 0.328125,-0.2460937 l 1.957032,4.3125 c 0.07031,0.1640625 0.117187,0.1640625 0.210937,0.1640625 0.152344,0 0.175781,-0.058594 0.246094,-0.1992188 l 4.523437,-9.3632812 c 0.07031,-0.140625 0.07031,-0.1757813 0.07031,-0.1992188 0,-0.1054687 -0.08203,-0.1992187 -0.199219,-0.1992187 -0.08203,0 -0.152344,0.046875 -0.222656,0.2109375 z m 0,0"
         style="fill:#000000;fill-opacity:1;fill-rule:nonzero;stroke:none" />
    </g>
    <path
       id="path25"
       d="m -46.759,131.233 h 4.772"
       style="fill:none;stroke:#000000;stroke-width:0.3985;stroke-linecap:butt;stroke-linejoin:miter;stroke-miterlimit:10;stroke-dasharray:none;stroke-opacity:1"
       transform="matrix(1.3333333,0,0,-1.3333333,260.836,189.18533)" />
    <g
       id="g25"
       aria-label="re&#10;i&#10;θ"
       transform="matrix(1.3333333,0,0,1.3333333,198.49067,24.689333)">
      <path
         id="path26"
         d="m 0.88004687,-0.5873125 c -0.0351563,0.15234375 -0.09375,0.375 -0.09375,0.421875 0,0.1875 0.140625,0.26953125 0.29296873,0.26953125 0.1171875,0 0.2929688,-0.0703125 0.3632813,-0.26953125 0.023437,-0.046875 0.3632812,-1.3945313 0.3984375,-1.5820313 0.082031,-0.328125 0.2578125,-1.0195312 0.3164062,-1.2890625 0.046875,-0.1289062 0.328125,-0.5976562 0.5625,-0.8203125 0.082031,-0.070312 0.375,-0.328125 0.796875,-0.328125 0.2578125,0 0.4101563,0.1171875 0.421875,0.1171875 -0.3046875,0.046875 -0.515625,0.2929688 -0.515625,0.5507813 0,0.1640625 0.1054688,0.3515625 0.375,0.3515625 0.2695313,0 0.5507813,-0.234375 0.5507813,-0.5859375 0,-0.3515625 -0.328125,-0.65625 -0.8320313,-0.65625 -0.6445312,0 -1.0898437,0.4921875 -1.2773437,0.7734375 -0.082031,-0.4570313 -0.4335938,-0.7734375 -0.9023438,-0.7734375 -0.45703123,0 -0.64453123,0.3867187 -0.73828123,0.5742187 -0.17578125,0.3398438 -0.3046875,0.9375 -0.3046875,0.9609375 0,0.1054688 0.09375,0.1054688 0.1171875,0.1054688 0.09375,0 0.10546875,-0.011719 0.1640625,-0.234375 0.17578125,-0.703125 0.375,-1.1835938 0.72656253,-1.1835938 0.1757812,0 0.3164062,0.082031 0.3164062,0.4570313 0,0.2109375 -0.035156,0.3164062 -0.1640625,0.8320312 z M 6.6251641,-2.29825 c 0.2929687,0 1.03125,-0.023437 1.5234375,-0.234375 0.703125,-0.2929688 0.75,-0.890625 0.75,-1.0195313 0,-0.4453125 -0.3867188,-0.8554687 -1.0664063,-0.8554687 -1.1132812,0 -2.6132812,0.9726562 -2.6132812,2.7070312 0,1.0195313 0.5859375,1.80468755 1.5703125,1.80468755 1.4179687,0 2.2617187,-1.0546875 2.2617187,-1.17187505 0,-0.058594 -0.070312,-0.1289062 -0.1289062,-0.1289062 -0.046875,0 -0.070312,0.023437 -0.1289063,0.09375 -0.7851562,0.99609375 -1.875,0.99609375 -1.9921875,0.99609375 -0.7734375,0 -0.8671875,-0.84375 -0.8671875,-1.16015625 0,-0.1171875 0.011719,-0.4335938 0.1640625,-1.03125 z m -0.46875,-0.2226563 c 0.3867187,-1.5117187 1.4179687,-1.6640625 1.6757812,-1.6640625 0.46875,0 0.7382813,0.2929688 0.7382813,0.6328125 0,1.03125 -1.59375,1.03125 -2.0039063,1.03125 z m 0,0"
         style="fill:#000000;fill-opacity:1;fill-rule:nonzero;stroke:none" />
      <path
         id="path27"
         d="m 11.673016,-8.4711016 c 0,-0.1054687 -0.08203,-0.2578125 -0.28125,-0.2578125 -0.1875,0 -0.386719,0.1757813 -0.386719,0.375 0,0.1171875 0.08203,0.2695313 0.269531,0.2695313 0.210938,0 0.398438,-0.1992188 0.398438,-0.3867188 z m -1.429688,3.5390625 c -0.02344,0.09375 -0.05859,0.1757813 -0.05859,0.2929688 0,0.328125 0.28125,0.5976562 0.667969,0.5976562 0.691406,0 0.996094,-0.9609375 0.996094,-1.0664062 0,-0.09375 -0.08203,-0.09375 -0.105469,-0.09375 -0.105469,0 -0.105469,0.046875 -0.140625,0.1171875 -0.152344,0.5625 -0.457031,0.84375 -0.738281,0.84375 -0.140625,0 -0.175781,-0.082031 -0.175781,-0.2460938 0,-0.1523437 0.05859,-0.2929687 0.117187,-0.4453125 0.07031,-0.1875 0.140625,-0.375 0.222656,-0.5507812 0.05859,-0.1640625 0.316407,-0.8085938 0.339844,-0.890625 0.02344,-0.070312 0.04687,-0.1523438 0.04687,-0.2226563 0,-0.328125 -0.28125,-0.5859375 -0.667969,-0.5859375 -0.691406,0 -1.0078121,0.9492188 -1.0078121,1.0664063 0,0.082031 0.09375,0.082031 0.1171875,0.082031 0.09375,0 0.1054687,-0.035156 0.1289062,-0.1054687 0.1757814,-0.5976563 0.4804684,-0.8554688 0.7382814,-0.8554688 0.117187,0 0.175781,0.058594 0.175781,0.2460938 0,0.1640625 -0.03516,0.2695312 -0.210937,0.703125 z m 0,0"
         style="fill:#000000;fill-opacity:1;fill-rule:nonzero;stroke:none" />
      <path
         id="path28"
         d="m 16.436687,-9.1449297 c 0,-0.609375 -0.28125,-1.1601563 -0.820312,-1.1601563 -0.796875,0 -1.652344,1.2539063 -1.652344,2.4140626 0,0.6796875 0.316406,1.1601562 0.808594,1.1601562 0.808594,0 1.664062,-1.2890625 1.664062,-2.4140625 z m -1.875,0.515625 c 0.316407,-1.2421875 0.820313,-1.5000003 1.054688,-1.5000003 0.28125,0 0.398437,0.3164066 0.398437,0.7031253 0,0.1523438 -0.01172,0.3515625 -0.128906,0.796875 z m 1.265625,0.2226563 c -0.292968,1.1953125 -0.796875,1.5 -1.042968,1.5 -0.375,0 -0.398438,-0.5507813 -0.398438,-0.703125 0,-0.1875 0.03516,-0.421875 0.117188,-0.796875 z m 0,0"
         style="fill:#000000;fill-opacity:1;fill-rule:nonzero;stroke:none" />
    </g>
    <path
       id="path29"
       d="m -33.334,129.229 h 3.546"
       style="fill:none;stroke:#000000;stroke-width:0.3387;stroke-linecap:butt;stroke-linejoin:miter;stroke-miterlimit:10;stroke-dasharray:none;stroke-opacity:1"
       transform="matrix(1.3333333,0,0,-1.3333333,260.836,189.18533)" />
    <path
       id="path30"
       d="M 2.9307578,-0.96025 H 2.7198203 c -0.011719,0.09375 -0.058594,0.3984375 -0.140625,0.45703125 -0.035156,0.0234375 -0.4570312,0.0234375 -0.5273437,0.0234375 h -0.984375 c 0.328125,-0.24609375 0.703125,-0.515625 0.9960937,-0.71484375 0.4570313,-0.3164063 0.8671875,-0.5976563 0.8671875,-1.125 0,-0.6445313 -0.5976562,-0.9960938 -1.3125,-0.9960938 -0.66796874,0 -1.16015624,0.3867188 -1.16015624,0.8789063 0,0.2578125 0.2109375,0.3046875 0.28125,0.3046875 0.140625,0 0.29296874,-0.09375 0.29296874,-0.2929688 0,-0.1875 -0.12890624,-0.28125 -0.28124999,-0.2929687 0.140625,-0.234375 0.43359379,-0.375 0.76171879,-0.375 0.4804687,0 0.890625,0.28125 0.890625,0.7734375 0,0.421875 -0.2929688,0.7382812 -0.6796875,1.0546875 l -1.20703129,1.03125 c -0.046875,0.046875 -0.0585938,0.046875 -0.0585938,0.0820313 V 6.875e-4 H 2.7666953 Z m 0,0"
       style="fill:#000000;fill-opacity:1;fill-rule:nonzero;stroke:none"
       aria-label="2"
       transform="matrix(1.3333333,0,0,1.3333333,216.49467,22.405333)" />
    <g
       id="g30"
       aria-label="w=&#10;√"
       transform="matrix(1.3333333,0,0,1.3333333,366.93467,25.229333)">
      <path
         id="path31"
         d="m 4.6046641,-3.3741484 c 0.046875,-0.2226563 0.140625,-0.5859375 0.140625,-0.6445313 0,-0.1875 -0.1289063,-0.2695312 -0.28125,-0.2695312 -0.1171875,0 -0.3046875,0.070312 -0.375,0.2695312 -0.023437,0.070312 -0.4921875,1.9804688 -0.5625,2.2382813 -0.070312,0.2929687 -0.09375,0.4804687 -0.09375,0.65625 0,0.1054687 0,0.12890621 0.011719,0.17578121 -0.2226562,0.52734375 -0.5273437,0.84375 -0.9140625,0.84375 -0.796875,0 -0.796875,-0.73828125 -0.796875,-0.91406251 0,-0.3164062 0.046875,-0.703125 0.515625,-1.9335937 0.1054688,-0.2929688 0.1757813,-0.4335938 0.1757813,-0.6328125 0,-0.4453125 -0.328125,-0.8203125 -0.8203125,-0.8203125 -0.94921879,0 -1.31250004,1.453125 -1.31250004,1.5351562 0,0.1054688 0.09375,0.1054688 0.1171875,0.1054688 0.09375,0 0.10546875,-0.023437 0.15234375,-0.1875 0.26953125,-0.9257813 0.66796879,-1.2304688 1.00781249,-1.2304688 0.09375,0 0.2578125,0.011719 0.2578125,0.328125 0,0.2460938 -0.1171875,0.5273438 -0.1875,0.703125 -0.4335937,1.171875 -0.5507812,1.6289063 -0.5507812,2.0039063 0,0.91406246 0.6679687,1.25390621 1.40625,1.25390621 0.1757812,0 0.6445312,0 1.0429687,-0.69140625 0.2578125,0.6328125 0.9492188,0.69140625 1.2421875,0.69140625 0.75,0 1.1835938,-0.62109375 1.4414063,-1.21875001 0.3398437,-0.7851562 0.65625,-2.109375 0.65625,-2.5898437 0,-0.5507813 -0.2695313,-0.703125 -0.4335938,-0.703125 -0.2460937,0 -0.5039062,0.2578125 -0.5039062,0.4804687 0,0.1289063 0.070312,0.1875 0.1523437,0.2695313 0.1171875,0.1054687 0.3632813,0.3632812 0.3632813,0.84375 0,0.3398437 -0.2929688,1.3125 -0.5507813,1.82812496 -0.2578125,0.52734375 -0.609375,0.87890625 -1.0898437,0.87890625 -0.46875,0 -0.7382813,-0.3046875 -0.7382813,-0.8671875 0,-0.28125001 0.070312,-0.58593751 0.1054688,-0.72656251 z m 0,0"
         style="fill:#000000;fill-opacity:1;fill-rule:nonzero;stroke:none" />
      <path
         id="path32"
         d="m 17.011891,-3.2569609 c 0.152343,0 0.339843,0 0.339843,-0.1992188 0,-0.1992187 -0.1875,-0.1992187 -0.328125,-0.1992187 h -5.964843 c -0.140625,0 -0.328125,0 -0.328125,0.1992187 0,0.1992188 0.1875,0.1992188 0.339843,0.1992188 z m 0.01172,1.9335937 c 0.140625,0 0.328125,0 0.328125,-0.1992187 0,-0.1992188 -0.1875,-0.1992188 -0.339843,-0.1992188 h -5.941407 c -0.152343,0 -0.339843,0 -0.339843,0.1992188 0,0.1992187 0.1875,0.1992187 0.328125,0.1992187 z m 0,0"
         style="fill:#000000;fill-opacity:1;fill-rule:nonzero;stroke:none" />
      <path
         id="path33"
         d="M 24.561695,0.85632031 22.803883,-3.0225859 c -0.07031,-0.1523438 -0.117188,-0.1523438 -0.152344,-0.1523438 -0.01172,0 -0.05859,0 -0.164062,0.070312 l -0.949219,0.7265625 c -0.128906,0.09375 -0.128906,0.1289063 -0.128906,0.1523438 0,0.046875 0.03516,0.1054687 0.105468,0.1054687 0.05859,0 0.222657,-0.1289062 0.328125,-0.2109375 0.07031,-0.046875 0.210938,-0.1640625 0.328125,-0.2460937 l 1.957032,4.3125 c 0.07031,0.1640625 0.117187,0.1640625 0.210937,0.1640625 0.152344,0 0.175781,-0.058594 0.246094,-0.1992188 l 4.523437,-9.3632812 c 0.07031,-0.140625 0.07031,-0.1757813 0.07031,-0.1992188 0,-0.1054687 -0.08203,-0.1992187 -0.199219,-0.1992187 -0.08203,0 -0.152344,0.046875 -0.222656,0.2109375 z m 0,0"
         style="fill:#000000;fill-opacity:1;fill-rule:nonzero;stroke:none" />
    </g>
    <path
       id="path34"
       d="m -46.759,131.233 h 4.772"
       style="fill:none;stroke:#000000;stroke-width:0.3985;stroke-linecap:butt;stroke-linejoin:miter;stroke-miterlimit:10;stroke-dasharray:none;stroke-opacity:1"
       transform="matrix(1.3333333,0,0,-1.3333333,467.928,189.72533)" />
    <g
       id="g34"
       aria-label="re&#10;i&#10;θ+2π"
       transform="matrix(1.3333333,0,0,1.3333333,405.58267,25.229333)">
      <path
         id="path35"
         d="m 0.87842969,-0.58508594 c -0.0351563,0.15234375 -0.09375,0.375 -0.09375,0.421875 0,0.1875 0.140625,0.26953125 0.29296871,0.26953125 0.1171875,0 0.2929688,-0.0703125 0.3632813,-0.26953125 0.023437,-0.046875 0.3632812,-1.39453126 0.3984375,-1.58203126 0.082031,-0.328125 0.2578125,-1.0195312 0.3164062,-1.2890625 0.046875,-0.1289062 0.328125,-0.5976562 0.5625,-0.8203125 0.082031,-0.070312 0.375,-0.328125 0.796875,-0.328125 0.2578125,0 0.4101563,0.1171875 0.421875,0.1171875 -0.3046875,0.046875 -0.515625,0.2929688 -0.515625,0.5507813 0,0.1640625 0.1054688,0.3515625 0.375,0.3515625 0.2695313,0 0.5507813,-0.234375 0.5507813,-0.5859375 0,-0.3515625 -0.328125,-0.65625 -0.8320313,-0.65625 -0.6445312,0 -1.0898437,0.4921875 -1.2773437,0.7734375 -0.082031,-0.4570313 -0.4335938,-0.7734375 -0.9023438,-0.7734375 -0.45703121,0 -0.64453121,0.3867187 -0.73828121,0.5742187 -0.17578125,0.3398438 -0.3046875,0.9375 -0.3046875,0.9609375 0,0.1054688 0.09375,0.1054688 0.1171875,0.1054688 0.09375,0 0.10546875,-0.011719 0.1640625,-0.234375 0.17578125,-0.703125 0.375,-1.1835938 0.72656251,-1.1835938 0.1757812,0 0.3164062,0.082031 0.3164062,0.4570313 0,0.2109375 -0.035156,0.3164062 -0.1640625,0.8320312 z M 6.6264766,-2.2960234 c 0.2929687,0 1.03125,-0.023437 1.5234375,-0.234375 0.703125,-0.2929688 0.75,-0.890625 0.75,-1.0195313 0,-0.4453125 -0.3867188,-0.8554687 -1.0664063,-0.8554687 -1.1132812,0 -2.6132812,0.9726562 -2.6132812,2.7070312 0,1.01953126 0.5859375,1.80468751 1.5703125,1.80468751 1.4179687,0 2.2617187,-1.0546875 2.2617187,-1.17187501 0,-0.058594 -0.070312,-0.1289062 -0.1289062,-0.1289062 -0.046875,0 -0.070312,0.023437 -0.1289063,0.09375 -0.7851562,0.99609371 -1.875,0.99609371 -1.9921875,0.99609371 -0.7734375,0 -0.8671875,-0.84375 -0.8671875,-1.16015621 0,-0.1171875 0.011719,-0.4335938 0.1640625,-1.03125 z m -0.46875,-0.2226563 c 0.3867187,-1.5117187 1.4179687,-1.6640625 1.6757812,-1.6640625 0.46875,0 0.7382813,0.2929688 0.7382813,0.6328125 0,1.03125 -1.59375,1.03125 -2.0039063,1.03125 z m 0,0"
         style="fill:#000000;fill-opacity:1;fill-rule:nonzero;stroke:none" />
      <path
         id="path36"
         d="m 11.671398,-8.4718047 c 0,-0.1054687 -0.08203,-0.2578125 -0.28125,-0.2578125 -0.1875,0 -0.386718,0.1757813 -0.386718,0.375 0,0.1171875 0.08203,0.2695313 0.269531,0.2695313 0.210937,0 0.398437,-0.1992188 0.398437,-0.3867188 z m -1.429687,3.5390625 c -0.02344,0.09375 -0.05859,0.1757813 -0.05859,0.2929688 0,0.328125 0.28125,0.5976562 0.667969,0.5976562 0.691406,0 0.996094,-0.9609375 0.996094,-1.0664062 0,-0.09375 -0.08203,-0.09375 -0.105469,-0.09375 -0.105469,0 -0.105469,0.046875 -0.140625,0.1171875 -0.152344,0.5625 -0.457031,0.84375 -0.738281,0.84375 -0.140625,0 -0.175782,-0.082031 -0.175782,-0.2460938 0,-0.1523437 0.05859,-0.2929687 0.117188,-0.4453125 0.07031,-0.1875 0.140625,-0.375 0.222656,-0.5507812 0.05859,-0.1640625 0.316406,-0.8085938 0.339844,-0.890625 0.02344,-0.070312 0.04687,-0.1523438 0.04687,-0.2226563 0,-0.328125 -0.28125,-0.5859375 -0.667969,-0.5859375 -0.691406,0 -1.0078123,0.9492188 -1.0078123,1.0664063 0,0.082031 0.09375,0.082031 0.1171875,0.082031 0.09375,0 0.1054687,-0.035156 0.1289062,-0.1054687 0.1757816,-0.5976563 0.4804686,-0.8554688 0.7382816,-0.8554688 0.117187,0 0.175781,0.058594 0.175781,0.2460938 0,0.1640625 -0.03516,0.2695312 -0.210938,0.703125 z m 0,0"
         style="fill:#000000;fill-opacity:1;fill-rule:nonzero;stroke:none" />
      <path
         id="path37"
         d="m 16.438,-9.5499297 c 0,-0.6093753 -0.28125,-1.1601563 -0.820312,-1.1601563 -0.796875,0 -1.652344,1.2539063 -1.652344,2.4140626 0,0.6796875 0.316406,1.1601562 0.808594,1.1601562 0.808593,0 1.664062,-1.2890625 1.664062,-2.4140625 z m -1.875,0.515625 c 0.316406,-1.2421873 0.820313,-1.5000003 1.054688,-1.5000003 0.28125,0 0.398437,0.316407 0.398437,0.7031253 0,0.1523438 -0.01172,0.3515625 -0.128906,0.796875 z m 1.265625,0.2226563 c -0.292969,1.1953125 -0.796875,1.5 -1.042969,1.5 -0.375,0 -0.398437,-0.5507813 -0.398437,-0.703125 0,-0.1875 0.03516,-0.421875 0.117187,-0.796875 z m 0,0"
         style="fill:#000000;fill-opacity:1;fill-rule:nonzero;stroke:none" />
      <path
         id="path38"
         d="m 19.666516,-8.2960234 h 1.734375 c 0.07031,0 0.199218,0 0.199218,-0.140625 0,-0.140625 -0.128906,-0.140625 -0.199218,-0.140625 h -1.734375 v -1.7343746 c 0,-0.07031 0,-0.199219 -0.140625,-0.199219 -0.128907,0 -0.128907,0.128906 -0.128907,0.199219 v 1.7343746 h -1.746093 c -0.05859,0 -0.199219,0 -0.199219,0.140625 0,0.140625 0.140625,0.140625 0.199219,0.140625 h 1.746093 v 1.734375 c 0,0.070312 0,0.1992187 0.128907,0.1992187 0.140625,0 0.140625,-0.1289062 0.140625,-0.1992187 z m 5.349609,0.140625 h -0.210937 c -0.01172,0.09375 -0.05859,0.3984375 -0.140625,0.4570312 -0.03516,0.023437 -0.457032,0.023437 -0.527344,0.023437 h -0.984375 c 0.328125,-0.2460937 0.703125,-0.515625 0.996094,-0.7148437 0.457031,-0.3164063 0.867187,-0.5976563 0.867187,-1.125 0,-0.6445311 -0.597656,-0.9960931 -1.3125,-0.9960931 -0.667969,0 -1.160156,0.386719 -1.160156,0.8789056 0,0.2578125 0.210937,0.3046875 0.28125,0.3046875 0.140625,0 0.292969,-0.09375 0.292969,-0.2929688 0,-0.1875 -0.128907,-0.28125 -0.28125,-0.2929687 0.140625,-0.2343746 0.433593,-0.3749996 0.761718,-0.3749996 0.480469,0 0.890625,0.28125 0.890625,0.7734371 0,0.421875 -0.292968,0.7382812 -0.679687,1.0546875 l -1.207031,1.03125 c -0.04687,0.046875 -0.05859,0.046875 -0.05859,0.082031 v 0.1523438 h 2.308594 z m 0,0"
         style="fill:#000000;fill-opacity:1;fill-rule:nonzero;stroke:none" />
      <path
         id="path39"
         d="m 28.994641,-8.9639922 c 0.08203,0 0.140625,0 0.199218,-0.046875 0.03516,-0.035156 0.08203,-0.1054687 0.08203,-0.1757812 0,-0.1523438 -0.140625,-0.1523438 -0.234375,-0.1523438 h -2.132813 c -0.105469,0 -0.328125,0 -0.632812,0.2460938 -0.128907,0.1171875 -0.351563,0.375 -0.351563,0.4335937 0,0.070312 0.07031,0.070312 0.09375,0.070312 0.07031,0 0.07031,0 0.117188,-0.046875 0.164062,-0.2226562 0.410156,-0.328125 0.703125,-0.328125 h 0.363281 c -0.1875,0.6210938 -0.433594,1.1367188 -0.609375,1.453125 -0.08203,0.1289063 -0.08203,0.140625 -0.08203,0.1875 0,0.1171875 0.09375,0.1875 0.199218,0.1875 0.199219,0 0.269532,-0.234375 0.386719,-0.6328125 0.117188,-0.3867187 0.210938,-0.75 0.316406,-1.1953125 h 0.65625 c -0.02344,0.070312 -0.164062,0.6210938 -0.164062,1.0078125 0,0.3515625 0.128906,0.8203125 0.351562,0.8203125 0.117188,0 0.257813,-0.1171875 0.257813,-0.2460937 0,-0.058594 -0.02344,-0.082031 -0.05859,-0.140625 -0.222656,-0.375 -0.222656,-0.8085938 -0.222656,-0.9023438 0,-0.1640625 0.02344,-0.3632812 0.04687,-0.5390625 z m 0,0"
         style="fill:#000000;fill-opacity:1;fill-rule:nonzero;stroke:none" />
    </g>
    <path
       id="path40"
       d="M -33.334,129.229 H -16.96"
       style="fill:none;stroke:#000000;stroke-width:0.3387;stroke-linecap:butt;stroke-linejoin:miter;stroke-miterlimit:10;stroke-dasharray:none;stroke-opacity:1"
       transform="matrix(1.3333333,0,0,-1.3333333,467.928,189.72533)" />
    <path
       id="path41"
       d="M 2.9282266,-0.96095313 H 2.7172891 c -0.011719,0.09375 -0.058594,0.3984375 -0.140625,0.45703125 -0.035156,0.0234375 -0.4570313,0.0234375 -0.5273438,0.0234375 h -0.984375 c 0.328125,-0.24609375 0.703125,-0.515625 0.9960938,-0.71484372 0.4570312,-0.3164063 0.8671875,-0.5976563 0.8671875,-1.125 0,-0.6445313 -0.5976563,-0.9960938 -1.3125,-0.9960938 -0.66796879,0 -1.16015629,0.3867188 -1.16015629,0.8789063 0,0.2578125 0.2109375,0.3046875 0.28125,0.3046875 0.140625,0 0.29296879,-0.09375 0.29296879,-0.2929688 0,-0.1875 -0.12890629,-0.28125 -0.28125004,-0.2929687 0.140625,-0.234375 0.43359374,-0.375 0.76171874,-0.375 0.4804688,0 0.890625,0.28125 0.890625,0.7734375 0,0.421875 -0.2929687,0.7382812 -0.6796875,1.0546875 l -1.20703124,1.03124997 c -0.046875,0.046875 -0.0585938,0.046875 -0.0585938,0.0820313 V -1.5625e-5 H 2.7641641 Z m 0,0"
       style="fill:#000000;fill-opacity:1;fill-rule:nonzero;stroke:none"
       aria-label="2"
       transform="matrix(1.3333333,0,0,1.3333333,432.13867,22.945333)" />
    <path
       id="path42"
       d="M 3.8774531,8.5207031 2.1196406,4.6417969 C 2.0493281,4.4894531 2.0024531,4.4894531 1.9672969,4.4894531 c -0.011719,0 -0.058594,0 -0.1640625,0.070312 l -0.94921877,0.726563 c -0.12890625,0.09375 -0.12890625,0.1289063 -0.12890625,0.1523438 0,0.046875 0.0351563,0.1054687 0.10546875,0.1054687 0.0585938,0 0.22265627,-0.1289062 0.32812497,-0.2109375 0.070312,-0.046875 0.2109375,-0.1640625 0.328125,-0.2460937 l 1.9570313,4.3125 c 0.070312,0.1640625 0.1171875,0.1640625 0.2109375,0.1640625 0.1523437,0 0.1757812,-0.058594 0.2460937,-0.1992188 L 8.4243281,0.00117187 c 0.070312,-0.140625 0.070312,-0.17578125 0.070312,-0.19921875 0,-0.10546875 -0.082031,-0.19921875 -0.1992187,-0.19921875 -0.082031,0 -0.1523438,0.046875 -0.2226563,0.2109375 z m 0,0"
       style="fill:#000000;fill-opacity:1;fill-rule:nonzero;stroke:none"
       aria-label="√"
       transform="matrix(1.3333333,0,0,1.3333333,6.416,99.1)" />
    <path
       id="path43"
       d="m -67.443,131.233 h 4.772"
       style="fill:none;stroke:#000000;stroke-width:0.3985;stroke-linecap:butt;stroke-linejoin:miter;stroke-miterlimit:10;stroke-dasharray:none;stroke-opacity:1"
       transform="matrix(1.3333333,0,0,-1.3333333,107.40933,273.812)" />
    <g
       id="g43"
       aria-label="re&#10;i&#10;θ+π"
       transform="matrix(1.3333333,0,0,1.3333333,17.485333,109.316)">
      <path
         id="path44"
         d="m 0.8781875,-0.58563281 c -0.0351563,0.15234375 -0.09375,0.375 -0.09375,0.421875 0,0.1875 0.140625,0.26953125 0.2929688,0.26953125 0.1171875,0 0.2929687,-0.0703125 0.3632812,-0.26953125 0.023437,-0.046875 0.3632813,-1.39453129 0.3984375,-1.58203129 0.082031,-0.328125 0.2578125,-1.0195312 0.3164063,-1.2890625 0.046875,-0.1289062 0.328125,-0.5976562 0.5625,-0.8203125 0.082031,-0.070312 0.375,-0.328125 0.796875,-0.328125 0.2578125,0 0.4101562,0.1171875 0.421875,0.1171875 -0.3046875,0.046875 -0.515625,0.2929688 -0.515625,0.5507813 0,0.1640625 0.1054687,0.3515625 0.375,0.3515625 0.2695312,0 0.5507812,-0.234375 0.5507812,-0.5859375 0,-0.3515625 -0.328125,-0.65625 -0.8320312,-0.65625 -0.6445313,0 -1.0898438,0.4921875 -1.2773438,0.7734375 -0.082031,-0.4570313 -0.4335937,-0.7734375 -0.9023437,-0.7734375 -0.4570313,0 -0.6445313,0.3867187 -0.7382813,0.5742187 -0.17578125,0.3398438 -0.3046875,0.9375 -0.3046875,0.9609375 0,0.1054688 0.09375,0.1054688 0.1171875,0.1054688 0.09375,0 0.10546875,-0.011719 0.1640625,-0.234375 0.17578125,-0.703125 0.375,-1.1835938 0.7265625,-1.1835938 0.1757813,0 0.3164063,0.082031 0.3164063,0.4570313 0,0.2109375 -0.035156,0.3164062 -0.1640625,0.8320312 z M 6.6262344,-2.2965703 c 0.2929687,0 1.03125,-0.023437 1.5234375,-0.234375 0.703125,-0.2929688 0.75,-0.890625 0.75,-1.0195313 0,-0.4453125 -0.3867188,-0.8554687 -1.0664063,-0.8554687 -1.1132812,0 -2.6132812,0.9726562 -2.6132812,2.7070312 0,1.01953129 0.5859375,1.80468754 1.5703125,1.80468754 1.4179687,0 2.2617187,-1.0546875 2.2617187,-1.17187504 0,-0.058594 -0.070312,-0.1289062 -0.1289062,-0.1289062 -0.046875,0 -0.070312,0.023437 -0.1289063,0.09375 -0.7851562,0.99609374 -1.875,0.99609374 -1.9921875,0.99609374 -0.7734375,0 -0.8671875,-0.84375 -0.8671875,-1.16015624 0,-0.1171875 0.011719,-0.4335938 0.1640625,-1.03125 z m -0.46875,-0.2226563 c 0.3867187,-1.5117187 1.4179687,-1.6640625 1.6757812,-1.6640625 0.46875,0 0.7382813,0.2929688 0.7382813,0.6328125 0,1.03125 -1.59375,1.03125 -2.0039063,1.03125 z m 0,0"
         style="fill:#000000;fill-opacity:1;fill-rule:nonzero;stroke:none" />
      <path
         id="path45"
         d="m 11.674086,-8.4723516 c 0,-0.1054687 -0.08203,-0.2578125 -0.28125,-0.2578125 -0.1875,0 -0.386719,0.1757813 -0.386719,0.375 0,0.1171875 0.08203,0.2695313 0.269531,0.2695313 0.210938,0 0.398438,-0.1992188 0.398438,-0.3867188 z m -1.429688,3.5390625 c -0.02344,0.09375 -0.05859,0.1757813 -0.05859,0.2929688 0,0.328125 0.28125,0.5976562 0.667968,0.5976562 0.691407,0 0.996094,-0.9609375 0.996094,-1.0664062 0,-0.09375 -0.08203,-0.09375 -0.105469,-0.09375 -0.105468,0 -0.105468,0.046875 -0.140625,0.1171875 -0.152343,0.5625 -0.457031,0.84375 -0.738281,0.84375 -0.140625,0 -0.175781,-0.082031 -0.175781,-0.2460938 0,-0.1523437 0.05859,-0.2929687 0.117187,-0.4453125 0.07031,-0.1875 0.140625,-0.375 0.222657,-0.5507812 0.05859,-0.1640625 0.316406,-0.8085938 0.339843,-0.890625 0.02344,-0.070312 0.04687,-0.1523438 0.04687,-0.2226563 0,-0.328125 -0.28125,-0.5859375 -0.667968,-0.5859375 -0.691407,0 -1.0078128,0.9492188 -1.0078128,1.0664063 0,0.082031 0.09375,0.082031 0.1171875,0.082031 0.09375,0 0.1054687,-0.035156 0.1289062,-0.1054687 0.1757811,-0.5976563 0.4804691,-0.8554688 0.7382811,-0.8554688 0.117188,0 0.175781,0.058594 0.175781,0.2460938 0,0.1640625 -0.03516,0.2695312 -0.210937,0.703125 z m 0,0"
         style="fill:#000000;fill-opacity:1;fill-rule:nonzero;stroke:none" />
      <path
         id="path46"
         d="m 16.437758,-9.5504766 c 0,-0.6093754 -0.28125,-1.1601564 -0.820313,-1.1601564 -0.796875,0 -1.652343,1.2539064 -1.652343,2.4140627 0,0.6796875 0.316406,1.1601562 0.808593,1.1601562 0.808594,0 1.664063,-1.2890625 1.664063,-2.4140625 z m -1.875,0.515625 c 0.316406,-1.2421874 0.820312,-1.5000004 1.054687,-1.5000004 0.28125,0 0.398438,0.316407 0.398438,0.7031254 0,0.1523438 -0.01172,0.3515625 -0.128906,0.796875 z m 1.265625,0.2226563 c -0.292969,1.1953125 -0.796875,1.5 -1.042969,1.5 -0.375,0 -0.398437,-0.5507813 -0.398437,-0.703125 0,-0.1875 0.03516,-0.421875 0.117187,-0.796875 z m 0,0"
         style="fill:#000000;fill-opacity:1;fill-rule:nonzero;stroke:none" />
      <path
         id="path47"
         d="m 19.666273,-8.2965703 h 1.734375 c 0.07031,0 0.199219,0 0.199219,-0.140625 0,-0.140625 -0.128906,-0.140625 -0.199219,-0.140625 h -1.734375 v -1.7343747 c 0,-0.07031 0,-0.199219 -0.140625,-0.199219 -0.128906,0 -0.128906,0.128906 -0.128906,0.199219 v 1.7343747 h -1.746094 c -0.05859,0 -0.199218,0 -0.199218,0.140625 0,0.140625 0.140625,0.140625 0.199218,0.140625 h 1.746094 v 1.734375 c 0,0.070312 0,0.1992187 0.128906,0.1992187 0.140625,0 0.140625,-0.1289062 0.140625,-0.1992187 z m 0,0"
         style="fill:#000000;fill-opacity:1;fill-rule:nonzero;stroke:none" />
      <path
         id="path48"
         d="m 25.60475,-8.9645391 c 0.08203,0 0.140625,0 0.199219,-0.046875 0.03516,-0.035156 0.08203,-0.1054687 0.08203,-0.1757812 0,-0.1523438 -0.140625,-0.1523438 -0.234375,-0.1523438 h -2.132812 c -0.105469,0 -0.328125,0 -0.632813,0.2460938 -0.128906,0.1171875 -0.351562,0.375 -0.351562,0.4335937 0,0.070312 0.07031,0.070312 0.09375,0.070312 0.07031,0 0.07031,0 0.117187,-0.046875 0.164063,-0.2226562 0.410156,-0.328125 0.703125,-0.328125 h 0.363281 c -0.1875,0.6210938 -0.433593,1.1367188 -0.609375,1.453125 -0.08203,0.1289063 -0.08203,0.140625 -0.08203,0.1875 0,0.1171875 0.09375,0.1875 0.199219,0.1875 0.199219,0 0.269531,-0.234375 0.386719,-0.6328125 0.117187,-0.3867187 0.210937,-0.75 0.316406,-1.1953125 h 0.65625 c -0.02344,0.070312 -0.164063,0.6210938 -0.164063,1.0078125 0,0.3515625 0.128907,0.8203125 0.351563,0.8203125 0.117187,0 0.257812,-0.1171875 0.257812,-0.2460937 0,-0.058594 -0.02344,-0.082031 -0.05859,-0.140625 -0.222657,-0.375 -0.222657,-0.8085938 -0.222657,-0.9023438 0,-0.1640625 0.02344,-0.3632812 0.04687,-0.5390625 z m 0,0"
         style="fill:#000000;fill-opacity:1;fill-rule:nonzero;stroke:none" />
    </g>
    <path
       id="path49"
       d="m -54.018,129.229 h 12.984"
       style="fill:none;stroke:#000000;stroke-width:0.3387;stroke-linecap:butt;stroke-linejoin:miter;stroke-miterlimit:10;stroke-dasharray:none;stroke-opacity:1"
       transform="matrix(1.3333333,0,0,-1.3333333,107.40933,273.812)" />
    <path
       id="path50"
       d="M 2.929625,-0.9615 H 2.7186875 c -0.011719,0.09375 -0.058594,0.3984375 -0.140625,0.45703125 -0.035156,0.0234375 -0.4570313,0.0234375 -0.5273438,0.0234375 h -0.984375 c 0.328125,-0.24609375 0.703125,-0.515625 0.9960938,-0.71484375 0.4570312,-0.3164063 0.8671875,-0.5976563 0.8671875,-1.125 0,-0.6445313 -0.5976563,-0.9960938 -1.3125,-0.9960938 -0.66796875,0 -1.16015625,0.3867188 -1.16015625,0.8789063 0,0.2578125 0.2109375,0.3046875 0.28125,0.3046875 0.140625,0 0.29296875,-0.09375 0.29296875,-0.2929688 0,-0.1875 -0.12890625,-0.28125 -0.28125,-0.2929687 0.140625,-0.234375 0.4335937,-0.375 0.7617187,-0.375 0.4804688,0 0.890625,0.28125 0.890625,0.7734375 0,0.421875 -0.2929687,0.7382812 -0.6796875,1.0546875 l -1.2070312,1.03125 c -0.046875,0.046875 -0.0585938,0.046875 -0.0585938,0.0820313 v 0.1523437 h 2.3085938 z m 0,0"
       style="fill:#000000;fill-opacity:1;fill-rule:nonzero;stroke:none"
       aria-label="2"
       transform="matrix(1.3333333,0,0,1.3333333,41.781333,107.032)" />
    <path
       id="path51"
       d="m 3.7161719,-3.7613516 c -0.1757813,-0.375 -0.46875,-0.6445312 -0.9140625,-0.6445312 -1.171875,0 -2.40234377,1.4648437 -2.40234377,2.9179687 0,0.93750004 0.55078125,1.59375004 1.32421877,1.59375004 0.1992187,0 0.703125,-0.03515625 1.3007812,-0.73828125 0.070312,0.41015625 0.421875,0.73828125 0.9023438,0.73828125 0.3515625,0 0.5742187,-0.22265625 0.7382812,-0.5390625 0.1640625,-0.36328125 0.2929688,-0.97265624 0.2929688,-0.99609374 0,-0.09375 -0.082031,-0.09375 -0.1171875,-0.09375 -0.09375,0 -0.1054688,0.035156 -0.140625,0.1757812 -0.1640625,0.64453129 -0.3515625,1.24218754 -0.75,1.24218754 -0.2695313,0 -0.3046875,-0.2578125 -0.3046875,-0.45703125 0,-0.22265625 0.023437,-0.3046875 0.1289062,-0.73828129 0.1171875,-0.421875 0.1289063,-0.5273437 0.2226563,-0.9023437 l 0.3515625,-1.3945313 c 0.070312,-0.28125 0.070312,-0.2929687 0.070312,-0.3398437 0,-0.1640625 -0.1171875,-0.2695313 -0.28125,-0.2695313 -0.2460938,0 -0.3867188,0.2226563 -0.4218745,0.4453125 z m -0.6445313,2.578125 c -0.046875,0.1757813 -0.046875,0.19921879 -0.1992187,0.36328129 -0.4453125,0.55078125 -0.84375,0.71484375 -1.125,0.71484375 -0.5039063,0 -0.6445313,-0.55078125 -0.6445313,-0.93750004 0,-0.5039062 0.328125,-1.7226562 0.5507813,-2.1796875 0.3046875,-0.5976562 0.7617187,-0.9609375 1.1601562,-0.9609375 0.6445313,0 0.7851563,0.8203125 0.7851563,0.8789063 0,0.058594 -0.023437,0.1171875 -0.035156,0.1640625 z m 0,0"
       style="fill:#000000;fill-opacity:1;fill-rule:nonzero;stroke:none"
       aria-label="a"
       transform="matrix(1.3333333,0,0,1.3333333,104.14667,82.034667)" />
    <path
       id="path52"
       d="m 3.7152734,-3.7613516 c -0.1757812,-0.375 -0.46875,-0.6445312 -0.9140625,-0.6445312 -1.171875,0 -2.40234371,1.4648437 -2.40234371,2.9179687 0,0.93750004 0.55078125,1.59375004 1.32421871,1.59375004 0.1992188,0 0.703125,-0.03515625 1.3007813,-0.73828125 0.070312,0.41015625 0.421875,0.73828125 0.9023437,0.73828125 0.3515625,0 0.5742188,-0.22265625 0.7382813,-0.5390625 0.1640625,-0.36328125 0.2929687,-0.97265624 0.2929687,-0.99609374 0,-0.09375 -0.082031,-0.09375 -0.1171875,-0.09375 -0.09375,0 -0.1054687,0.035156 -0.140625,0.1757812 -0.1640625,0.64453129 -0.3515625,1.24218754 -0.75,1.24218754 -0.2695312,0 -0.3046875,-0.2578125 -0.3046875,-0.45703125 0,-0.22265625 0.023437,-0.3046875 0.1289063,-0.73828129 0.1171875,-0.421875 0.1289062,-0.5273437 0.2226562,-0.9023437 l 0.3515625,-1.3945313 c 0.070312,-0.28125 0.070312,-0.2929687 0.070312,-0.3398437 0,-0.1640625 -0.1171875,-0.2695313 -0.28125,-0.2695313 -0.2460937,0 -0.3867187,0.2226563 -0.4218745,0.4453125 z m -0.6445312,2.578125 c -0.046875,0.1757813 -0.046875,0.19921879 -0.1992188,0.36328129 -0.4453125,0.55078125 -0.84375,0.71484375 -1.125,0.71484375 -0.5039062,0 -0.6445312,-0.55078125 -0.6445312,-0.93750004 0,-0.5039062 0.328125,-1.7226562 0.5507812,-2.1796875 0.3046875,-0.5976562 0.7617188,-0.9609375 1.1601563,-0.9609375 0.6445312,0 0.7851562,0.8203125 0.7851562,0.8789063 0,0.058594 -0.023437,0.1171875 -0.035156,0.1640625 z m 0,0"
       style="fill:#000000;fill-opacity:1;fill-rule:nonzero;stroke:none"
       aria-label="a"
       transform="matrix(1.3333333,0,0,1.3333333,309.25333,82.034667)" />
  </g>
</svg>
