<?xml version="1.0" encoding="UTF-8" standalone="no"?>
<!-- Created with Inkscape (http://www.inkscape.org/) -->

<svg
   version="1.1"
   id="svg1"
   width="210.06667"
   height="232.73334"
   viewBox="0 0 210.06667 232.73334"
   xmlns="http://www.w3.org/2000/svg"
   xmlns:svg="http://www.w3.org/2000/svg">
  <defs
     id="defs1" />
  <g
     id="g1">
    <path
       id="path1"
       d="m 175.27995,-67.80908 c 0.007,-32.92945 -26.67531,-59.62717 -59.59727,-59.64212 -32.92945,-0.007 -59.62717,26.67532 -59.64211,59.59729 l 59.61968,0.02241 z"
       style="fill:#f5a623;fill-opacity:0.2;fill-rule:nonzero;stroke:#000000;stroke-width:1.49442;stroke-linecap:butt;stroke-linejoin:miter;stroke-miterlimit:10;stroke-dasharray:none;stroke-opacity:0"
       transform="matrix(1.3333333,0,0,-1.3333333,-69.290667,-9.936)" />
    <path
       id="path2"
       d="m 175.27995,-67.80908 c 0.007,-32.92945 -26.67531,-59.62717 -59.59727,-59.64212 -32.92945,-0.007 -59.62717,26.67532 -59.64211,59.59729"
       style="fill:none;stroke:#f5a623;stroke-width:1.49442;stroke-linecap:butt;stroke-linejoin:miter;stroke-miterlimit:10;stroke-dasharray:none;stroke-opacity:1"
       transform="matrix(1.3333333,0,0,-1.3333333,-69.290667,-9.936)" />
    <path
       id="path3"
       d="m 56.04057,-67.85391 c -0.0075,32.92944 26.6753,59.62716 59.59726,59.64212 32.92946,0.00747 59.62718,-26.67533 59.64212,-59.59729 l -59.6197,-0.02242 z"
       style="fill:#f5a623;fill-opacity:0.2;fill-rule:nonzero;stroke:#000000;stroke-width:1.49442;stroke-linecap:butt;stroke-linejoin:miter;stroke-miterlimit:10;stroke-dasharray:1.6837, 2.74971;stroke-dashoffset:0;stroke-opacity:0"
       transform="matrix(1.3333333,0,0,-1.3333333,-69.290667,-9.936)" />
    <path
       id="path4"
       d="m 56.04057,-67.85391 c -0.0075,32.92944 26.6753,59.62716 59.59726,59.64212 32.92946,0.00747 59.62718,-26.67533 59.64212,-59.59729"
       style="fill:none;stroke:#f5a623;stroke-width:1.49442;stroke-linecap:butt;stroke-linejoin:miter;stroke-miterlimit:10;stroke-dasharray:1.6837, 2.74971;stroke-dashoffset:0;stroke-opacity:1"
       transform="matrix(1.3333333,0,0,-1.3333333,-69.290667,-9.936)" />
    <path
       id="path5"
       d="m 115.69762,-181.25761 -0.0149,53.79895"
       style="fill:#dcdcdc;fill-opacity:0.16;fill-rule:nonzero;stroke:#f5a623;stroke-width:1.49442;stroke-linecap:butt;stroke-linejoin:miter;stroke-miterlimit:10;stroke-dasharray:none;stroke-opacity:1"
       transform="matrix(1.3333333,0,0,-1.3333333,-69.290667,-9.936)" />
    <path
       id="path6"
       d="m 166.6273,-39.9756 c 0,1.03114 0.83687,1.86801 1.86802,1.86801 1.03114,0 1.86802,-0.83687 1.86802,-1.86801 0,-1.03114 -0.83688,-1.86803 -1.86802,-1.86803 -1.03115,0 -1.86802,0.83689 -1.86802,1.86803 z"
       style="fill:#000000;fill-opacity:1;fill-rule:nonzero;stroke:#000000;stroke-width:0.74721;stroke-linecap:butt;stroke-linejoin:miter;stroke-miterlimit:10;stroke-dasharray:none;stroke-opacity:1"
       transform="matrix(1.3333333,0,0,-1.3333333,-69.290667,-9.936)" />
    <path
       id="path7"
       d="m 113.82213,-154.35814 c 0,1.03114 0.83687,1.86801 1.86803,1.86801 1.03114,0 1.86801,-0.83687 1.86801,-1.86801 0,-1.03116 -0.83687,-1.86803 -1.86801,-1.86803 -1.03116,0 -1.86803,0.83687 -1.86803,1.86803 z"
       style="fill:#000000;fill-opacity:1;fill-rule:nonzero;stroke:#000000;stroke-width:0.74721;stroke-linecap:butt;stroke-linejoin:miter;stroke-miterlimit:10;stroke-dasharray:none;stroke-opacity:1"
       transform="matrix(1.3333333,0,0,-1.3333333,-69.290667,-9.936)" />
    <path
       id="path8"
       d="m 82.06581,-64.69322 c 0,1.03114 0.83687,1.86801 1.86801,1.86801 1.03116,0 1.86803,-0.83687 1.86803,-1.86801 0,-1.03116 -0.83687,-1.86803 -1.86803,-1.86803 -1.03114,0 -1.86801,0.83687 -1.86801,1.86803 z"
       style="fill:#000000;fill-opacity:1;fill-rule:nonzero;stroke:#000000;stroke-width:0.74721;stroke-linecap:butt;stroke-linejoin:miter;stroke-miterlimit:10;stroke-dasharray:none;stroke-opacity:1"
       transform="matrix(1.3333333,0,0,-1.3333333,-69.290667,-9.936)" />
    <path
       id="path9"
       d="m 194.14696,-69.17647 c 0,1.03115 0.83687,1.86801 1.86801,1.86801 1.03116,0 1.86803,-0.83686 1.86803,-1.86801 0,-1.03116 -0.83687,-1.86803 -1.86803,-1.86803 -1.03114,0 -1.86801,0.83687 -1.86801,1.86803 z"
       style="fill:#000000;fill-opacity:1;fill-rule:nonzero;stroke:#000000;stroke-width:0.74721;stroke-linecap:butt;stroke-linejoin:miter;stroke-miterlimit:10;stroke-dasharray:none;stroke-opacity:1"
       transform="matrix(1.3333333,0,0,-1.3333333,-69.290667,-9.936)" />
    <path
       id="path10"
       d="M 10.067437,4.921875e-4 V -0.40966406 c -0.9257808,0 -1.1835933,0 -1.382812,-0.59765624 L 5.5557187,-9.9838828 C 5.497125,-10.159664 5.4619687,-10.241695 5.26275,-10.241695 c -0.1992188,0 -0.2226563,0.04687 -0.2929688,0.2695309 l -3,8.578125 c -0.1992187,0.58593754 -0.609375,0.96093754 -1.52343745,0.98437504 V 4.921875e-4 L 1.8174375,-0.02294531 c 0.4101562,0 1.0898437,0 1.4648437,0.0234374975 V -0.40966406 C 2.684625,-0.43310156 2.3213437,-0.72607031 2.3213437,-1.1362266 c 0,-0.082031 0,-0.1054687 0.070312,-0.2929687 L 3.059625,-3.3393516 H 6.669 l 0.7851562,2.25 c 0.082031,0.17578129 0.082031,0.19921879 0.082031,0.24609379 0,0.43359375 -0.7382813,0.43359375 -1.0898438,0.43359375 V 4.921875e-4 C 6.7744687,-0.02294531 7.8994687,-0.02294531 8.309625,-0.02294531 c 0.3984375,0 1.4296875,0 1.757812,0.0234374975 z M 6.528375,-3.7612266 H 3.20025 l 1.6640625,-4.7695312 z m 0,0"
       style="fill:#f5a623;fill-opacity:1;fill-rule:nonzero;stroke:none"
       aria-label="A"
       transform="matrix(1.3333333,0,0,1.3333333,46.108,91.972)" />
    <path
       id="path11"
       d="m 9.151875,-2.6254219 c 0,-1.1601562 -1.0429688,-2.3085937 -2.7539063,-2.4960937 1.359375,-0.2578125 2.3554688,-1.171875 2.3554688,-2.25 0,-1.2304688 -1.2539063,-2.4257813 -3.1289063,-2.4257813 H 0.620625 v 0.421875 h 0.28125 c 1.03125,0 1.078125,0.140625 1.078125,0.6679688 v 7.6171875 c 0,0.52734372 -0.046875,0.67968747 -1.078125,0.67968747 H 0.620625 V -4.21875e-4 H 6.01125 c 1.8515625,0 3.140625,-1.242187525 3.140625,-2.625000025 z M 7.4878125,-7.3715156 c 0,0.9492187 -0.75,2.1328125 -2.34375,2.1328125 H 3.0698437 v -3.5742188 c 0,-0.46875 0.023437,-0.5625 0.65625,-0.5625 h 1.8046875 c 1.4414063,0 1.9570313,1.2304688 1.9570313,2.0039063 z m 0.3632812,4.734375 c 0,1.1601562 -0.8789062,2.22656247 -2.2851562,2.22656247 H 3.7260937 c -0.6328125,0 -0.65625,-0.10546875 -0.65625,-0.57421875 V -4.9457344 h 2.6835938 c 1.3710937,0 2.0976562,1.2070313 2.0976562,2.3085938 z m 0,0"
       style="fill:#000000;fill-opacity:1;fill-rule:nonzero;stroke:none"
       aria-label="B"
       transform="matrix(1.3333333,0,0,1.3333333,157.86,31.024)" />
    <path
       id="path12"
       d="m 9.3526484,-3.327625 c 0,-0.1523438 0,-0.2460938 -0.1523437,-0.2460938 -0.1523438,0 -0.1640625,0.070312 -0.1640625,0.1757813 -0.1289063,2.2851562 -1.7929688,3.28125 -3.1875,3.28125 -0.9960938,0 -3.7382813,-0.59765625 -3.7382813,-4.7929688 0,-4.1367187 2.6953125,-4.7695312 3.7265625,-4.7695312 1.5117188,0 2.8242188,1.2773437 3.1171875,3.421875 0.023437,0.1757812 0.023437,0.2226562 0.1992188,0.2226562 0.1992187,0 0.1992187,-0.046875 0.1992187,-0.328125 v -3.4101562 c 0,-0.2578125 0,-0.3281255 -0.140625,-0.3281255 -0.09375,0 -0.1054687,0.03516 -0.1875,0.1757817 l -0.703125,1.1367188 C 7.6768672,-9.5971563 6.7042109,-10.101063 5.6612422,-10.101063 c -2.625,0 -4.88671876,2.273438 -4.88671876,5.1914067 0,2.9765625 2.29687496,5.2148438 4.88671876,5.2148438 2.3554687,0 3.6914062,-2.0507813 3.6914062,-3.6328125 z m 0,0"
       style="fill:#f5a623;fill-opacity:1;fill-rule:nonzero;stroke:none"
       aria-label="C"
       transform="matrix(1.3333333,0,0,1.3333333,195.54933,100.24933)" />
    <path
       id="path13"
       d="m 9.9378359,-4.8034063 c 0,-2.765625 -1.9335937,-4.9921875 -4.3125,-4.9921875 H 0.59799219 v 0.421875 h 0.29296875 c 1.03124996,0 1.07812496,0.140625 1.07812496,0.6679688 v 7.6171875 c 0,0.52734375 -0.046875,0.6796875 -1.07812496,0.6796875 H 0.59799219 V 0.00128125 H 5.6253359 c 2.390625,0 4.3125,-2.15625005 4.3125,-4.80468755 z M 8.6370547,-4.815125 c 0,0.796875 -0.011719,2.1445312 -0.8320313,3.2109375 -0.4804687,0.5976562 -1.3359375,1.1953125 -2.5429687,1.1953125 h -1.5 c -0.6328125,0 -0.6679688,-0.10546875 -0.6679688,-0.57421875 V -8.8112188 c 0,-0.46875 0.035156,-0.5625 0.6679688,-0.5625 h 1.5 c 1.1953125,0 2.1445312,0.5625 2.7304687,1.5117188 0.6445313,1.0195312 0.6445313,2.4726562 0.6445313,3.046875 z m 0,0"
       style="fill:#f5a623;fill-opacity:1;fill-rule:nonzero;stroke:none"
       aria-label="D"
       transform="matrix(1.3333333,0,0,1.3333333,94.925333,197.48267)" />
    <path
       id="path14"
       d="m 9.1061875,-9.9713828 c 0,-0.1289062 -0.09375,-0.1289062 -0.1289063,-0.1289062 -0.058594,0 -0.070312,0.02344 -0.2460937,0.2343749 -0.082031,0.09375 -0.6679688,0.84375 -0.6796875,0.8554688 -0.4804688,-0.9257813 -1.4296875,-1.0898437 -2.0273438,-1.0898437 -1.8164062,0 -3.46875,1.6640624 -3.46875,3.2929687 0,1.0664062 0.6445313,1.6992187 1.3476563,1.9453125 0.1523437,0.058594 1.0078125,0.2929687 1.4296875,0.3867187 0.7382812,0.1992188 0.9257812,0.2578125 1.21875,0.5742188 0.058594,0.070312 0.3515625,0.3984375 0.3515625,1.078125 0,1.3359375 -1.2421875,2.70703124 -2.671875,2.70703124 -1.171875,0 -2.484375,-0.50390625 -2.484375,-2.10937504 0,-0.2695312 0.058594,-0.609375 0.1054687,-0.7617187 0,-0.035156 0.011719,-0.1054688 0.011719,-0.140625 0,-0.058594 -0.023437,-0.1289063 -0.140625,-0.1289063 -0.1289063,0 -0.140625,0.035156 -0.1992188,0.2695313 L 0.785875,-0.04560156 c 0,0.0234375 -0.0585938,0.19921875 -0.0585938,0.22265625 0,0.12890625 0.1171875,0.12890625 0.15234375,0.12890625 0.0585938,0 0.0703125,-0.0234375 0.23437495,-0.234375 l 0.6679688,-0.85546875 c 0.3398438,0.515625 1.0898438,1.08984375 2.4257812,1.08984375 1.8515625,0 3.5390625,-1.79296874 3.5390625,-3.58593754 0,-0.609375 -0.140625,-1.1367187 -0.6914062,-1.6640625 -0.2929688,-0.3046875 -0.5625,-0.375 -1.875,-0.7148437 C 4.2194687,-5.9284141 4.0905625,-5.9635703 3.83275,-6.1979453 3.5866562,-6.4440391 3.3991562,-6.7838828 3.3991562,-7.2760703 c 0,-1.1953125 1.21875,-2.4375 2.578125,-2.4375 1.40625,0 2.0742188,0.8671875 2.0742188,2.2265625 0,0.375 -0.070313,0.7617187 -0.070313,0.8203125 0,0.1289062 0.1054687,0.1289062 0.1523437,0.1289062 0.1289063,0 0.140625,-0.046875 0.1992188,-0.2695312 z m 0,0"
       style="fill:#f5a623;fill-opacity:1;fill-rule:nonzero;stroke:none"
       aria-label="S"
       transform="matrix(1.3333333,0,0,1.3333333,116.51467,118.20533)" />
  </g>
</svg>
