<?xml version="1.0" encoding="UTF-8" standalone="no"?>
<!-- Created with Inkscape (http://www.inkscape.org/) -->

<svg
   version="1.1"
   id="svg1"
   width="400.62668"
   height="113.36"
   viewBox="0 0 400.62668 113.36"
   xmlns="http://www.w3.org/2000/svg"
   xmlns:svg="http://www.w3.org/2000/svg">
  <defs
     id="defs1" />
  <g
     id="g1">
    <path
       id="path1"
       d="m 12.50824,-101.75473 c 0,1.17313 0.95644,2.12209 2.12955,2.12209 1.17311,0 2.12207,-0.94896 2.12207,-2.12209 0,-1.17311 -0.94896,-2.12953 -2.12207,-2.12953 -1.17311,0 -2.12955,0.95642 -2.12955,2.12953 z"
       style="fill:#000000;fill-opacity:1;fill-rule:nonzero;stroke:#000000;stroke-width:0.74721;stroke-linecap:butt;stroke-linejoin:miter;stroke-miterlimit:10;stroke-dasharray:none;stroke-opacity:1"
       transform="matrix(1.3333333,0,0,-1.3333333,-11.756,-33.818667)" />
    <path
       id="path2"
       d="m 91.71225,-74.10805 c 0,1.17313 0.95644,2.12209 2.12955,2.12209 1.17311,0 2.12207,-0.94896 2.12207,-2.12209 0,-1.17311 -0.94896,-2.12953 -2.12207,-2.12953 -1.17311,0 -2.12955,0.95642 -2.12955,2.12953 z"
       style="fill:#000000;fill-opacity:1;fill-rule:nonzero;stroke:#000000;stroke-width:0.74721;stroke-linecap:butt;stroke-linejoin:miter;stroke-miterlimit:10;stroke-dasharray:none;stroke-opacity:1"
       transform="matrix(1.3333333,0,0,-1.3333333,-11.756,-33.818667)" />
    <path
       id="path3"
       d="m 85.73459,-33.75883 c 0,1.17312 0.95643,2.12208 2.12955,2.12208 1.17311,0 2.12206,-0.94896 2.12206,-2.12208 0,-1.17312 -0.94895,-2.12954 -2.12206,-2.12954 -1.17312,0 -2.12955,0.95642 -2.12955,2.12954 z"
       style="fill:#000000;fill-opacity:1;fill-rule:nonzero;stroke:#000000;stroke-width:0.74721;stroke-linecap:butt;stroke-linejoin:miter;stroke-miterlimit:10;stroke-dasharray:none;stroke-opacity:1"
       transform="matrix(1.3333333,0,0,-1.3333333,-11.756,-33.818667)" />
    <path
       id="path4"
       d="M 94.5367,-101.75473 H 14.63779"
       style="fill:none;stroke:#000000;stroke-width:0.74721;stroke-linecap:butt;stroke-linejoin:miter;stroke-miterlimit:10;stroke-dasharray:0.83687, 2.50064;stroke-dashoffset:0;stroke-opacity:1"
       transform="matrix(1.3333333,0,0,-1.3333333,-11.756,-33.818667)" />
    <path
       id="path5"
       d="M 146.84123,-74.10805 H 93.8418"
       style="fill:none;stroke:#000000;stroke-width:0.74721;stroke-linecap:butt;stroke-linejoin:miter;stroke-miterlimit:10;stroke-dasharray:0.83687, 2.50064;stroke-dashoffset:0;stroke-opacity:1"
       transform="matrix(1.3333333,0,0,-1.3333333,-11.756,-33.818667)" />
    <path
       id="path6"
       d="m 14.63779,-101.75473 72.12796,66.97971"
       style="fill:none;stroke:#000000;stroke-width:0.74721;stroke-linecap:butt;stroke-linejoin:miter;stroke-miterlimit:10;stroke-dasharray:4.48325, 4.48325;stroke-dashoffset:0;stroke-opacity:1"
       transform="matrix(1.3333333,0,0,-1.3333333,-11.756,-33.818667)" />
    <path
       id="path7"
       d="m 82.81917,-41.50264 5.04497,7.74381 -8.09559,-4.4587 z"
       style="fill:#000000;fill-opacity:1;fill-rule:nonzero;stroke:#000000;stroke-width:0.0797;stroke-linecap:butt;stroke-linejoin:miter;stroke-miterlimit:10;stroke-dasharray:none;stroke-opacity:0"
       transform="matrix(1.3333333,0,0,-1.3333333,-11.756,-33.818667)" />
    <path
       id="path8"
       d="M 93.8418,-74.10805 88.08083,-35.2383"
       style="fill:none;stroke:#f5a623;stroke-width:0.74721;stroke-linecap:butt;stroke-linejoin:miter;stroke-miterlimit:10;stroke-dasharray:4.48325, 4.48325;stroke-dashoffset:0;stroke-opacity:1"
       transform="matrix(1.3333333,0,0,-1.3333333,-11.756,-33.818667)" />
    <path
       id="path9"
       d="m 91.39581,-42.29932 -3.53167,8.54049 -0.90287,-9.19767 z"
       style="fill:#f5a623;fill-opacity:1;fill-rule:nonzero;stroke:#000000;stroke-width:0.0797;stroke-linecap:butt;stroke-linejoin:miter;stroke-miterlimit:10;stroke-dasharray:none;stroke-opacity:0"
       transform="matrix(1.3333333,0,0,-1.3333333,-11.756,-33.818667)" />
    <path
       id="path10"
       d="m 91.90654,-61.53253 c 0.62764,0.09713 1.27773,0.14197 1.93526,0.14197 6.93408,0 12.56802,-5.54428 12.71747,-12.44101 L 93.8418,-74.10805 Z"
       style="fill:#f5a623;fill-opacity:0.16;fill-rule:nonzero;stroke:#000000;stroke-width:0.74721;stroke-linecap:butt;stroke-linejoin:miter;stroke-miterlimit:10;stroke-dasharray:none;stroke-opacity:0"
       transform="matrix(1.3333333,0,0,-1.3333333,-11.756,-33.818667)" />
    <path
       id="path11"
       d="m 91.90654,-61.53253 c 0.62764,0.09713 1.27773,0.14197 1.93526,0.14197 6.93408,0 12.56802,-5.54428 12.71747,-12.44101"
       style="fill:none;stroke:#000000;stroke-width:0.74721;stroke-linecap:butt;stroke-linejoin:miter;stroke-miterlimit:10;stroke-dasharray:none;stroke-opacity:1"
       transform="matrix(1.3333333,0,0,-1.3333333,-11.756,-33.818667)" />
    <path
       id="path12"
       d="m 31.03152,-86.47432 c 3.63143,-3.89296 5.89547,-9.07858 6.01502,-14.78725 l -22.40875,-0.49316 z"
       style="fill:#9013fe;fill-opacity:0.18;fill-rule:nonzero;stroke:#000000;stroke-width:0.74721;stroke-linecap:butt;stroke-linejoin:miter;stroke-miterlimit:10;stroke-dasharray:none;stroke-opacity:0"
       transform="matrix(1.3333333,0,0,-1.3333333,-11.756,-33.818667)" />
    <path
       id="path13"
       d="m 31.03152,-86.47432 c 3.63143,-3.89296 5.89547,-9.07858 6.01502,-14.78725"
       style="fill:none;stroke:#000000;stroke-width:0.74721;stroke-linecap:butt;stroke-linejoin:miter;stroke-miterlimit:10;stroke-dasharray:none;stroke-opacity:1"
       transform="matrix(1.3333333,0,0,-1.3333333,-11.756,-33.818667)" />
    <path
       id="path14"
       d="m 69.55754,-38.8772 c 14.94416,7.47208 60.38933,11.77599 67.24869,0 6.85937,-11.77598 -22.92433,-19.23314 -7.98018,-41.64937 14.94415,-22.41623 -38.48119,-12.70253 -50.81012,-0.7472 -12.32892,11.95532 -23.40254,34.9245 -8.45839,42.39657 z"
       style="fill:none;stroke:#000000;stroke-width:0.74721;stroke-linecap:butt;stroke-linejoin:miter;stroke-miterlimit:10;stroke-dasharray:none;stroke-opacity:1"
       transform="matrix(1.3333333,0,0,-1.3333333,-11.756,-33.818667)" />
    <path
       id="path15"
       d="m 174.59253,-101.98636 c 0,1.17313 0.94894,2.12207 2.12207,2.12207 1.17313,0 2.12205,-0.94894 2.12205,-2.12207 0,-1.17312 -0.94892,-2.12953 -2.12205,-2.12953 -1.17313,0 -2.12207,0.95641 -2.12207,2.12953 z"
       style="fill:#000000;fill-opacity:1;fill-rule:nonzero;stroke:#000000;stroke-width:0.74721;stroke-linecap:butt;stroke-linejoin:miter;stroke-miterlimit:10;stroke-dasharray:none;stroke-opacity:1"
       transform="matrix(1.3333333,0,0,-1.3333333,-11.756,-33.818667)" />
    <path
       id="path16"
       d="m 253.79654,-74.33968 c 0,1.17313 0.94894,2.12208 2.12207,2.12208 1.17313,0 2.12205,-0.94895 2.12205,-2.12208 0,-1.17312 -0.94892,-2.12953 -2.12205,-2.12953 -1.17313,0 -2.12207,0.95641 -2.12207,2.12953 z"
       style="fill:#000000;fill-opacity:1;fill-rule:nonzero;stroke:#000000;stroke-width:0.74721;stroke-linecap:butt;stroke-linejoin:miter;stroke-miterlimit:10;stroke-dasharray:none;stroke-opacity:1"
       transform="matrix(1.3333333,0,0,-1.3333333,-11.756,-33.818667)" />
    <path
       id="path17"
       d="m 286.48686,-60.88994 c 0,1.17313 0.94896,2.12207 2.12209,2.12207 1.17311,0 2.12205,-0.94894 2.12205,-2.12207 0,-1.17312 -0.94894,-2.12953 -2.12205,-2.12953 -1.17313,0 -2.12209,0.95641 -2.12209,2.12953 z"
       style="fill:#000000;fill-opacity:1;fill-rule:nonzero;stroke:#000000;stroke-width:0.74721;stroke-linecap:butt;stroke-linejoin:miter;stroke-miterlimit:10;stroke-dasharray:none;stroke-opacity:1"
       transform="matrix(1.3333333,0,0,-1.3333333,-11.756,-33.818667)" />
    <path
       id="path18"
       d="M 256.61351,-101.98636 H 176.7146"
       style="fill:none;stroke:#000000;stroke-width:0.74721;stroke-linecap:butt;stroke-linejoin:miter;stroke-miterlimit:10;stroke-dasharray:0.83687, 2.50064;stroke-dashoffset:0;stroke-opacity:1"
       transform="matrix(1.3333333,0,0,-1.3333333,-11.756,-33.818667)" />
    <path
       id="path19"
       d="M 308.91805,-74.33968 H 255.91861"
       style="fill:none;stroke:#000000;stroke-width:0.74721;stroke-linecap:butt;stroke-linejoin:miter;stroke-miterlimit:10;stroke-dasharray:0.83687, 2.50064;stroke-dashoffset:0;stroke-opacity:1"
       transform="matrix(1.3333333,0,0,-1.3333333,-11.756,-33.818667)" />
    <path
       id="path20"
       d="m 176.7146,-101.98636 110.4896,40.58084"
       style="fill:none;stroke:#000000;stroke-width:0.74721;stroke-linecap:butt;stroke-linejoin:miter;stroke-miterlimit:10;stroke-dasharray:4.48325, 4.48325;stroke-dashoffset:0;stroke-opacity:1"
       transform="matrix(1.3333333,0,0,-1.3333333,-11.756,-33.818667)" />
    <path
       id="path21"
       d="m 280.96562,-66.08551 7.64333,5.19557 -9.1891,-0.98749 z"
       style="fill:#000000;fill-opacity:1;fill-rule:nonzero;stroke:#000000;stroke-width:0.0797;stroke-linecap:butt;stroke-linejoin:miter;stroke-miterlimit:10;stroke-dasharray:none;stroke-opacity:0"
       transform="matrix(1.3333333,0,0,-1.3333333,-11.756,-33.818667)" />
    <path
       id="path22"
       d="m 255.91861,-74.33968 31.30799,12.88186"
       style="fill:none;stroke:#f5a623;stroke-width:0.74721;stroke-linecap:butt;stroke-linejoin:miter;stroke-miterlimit:10;stroke-dasharray:4.48325, 4.48325;stroke-dashoffset:0;stroke-opacity:1"
       transform="matrix(1.3333333,0,0,-1.3333333,-11.756,-33.818667)" />
    <path
       id="path23"
       d="m 281.16978,-66.37363 7.43917,5.48369 -9.14453,-1.33776 z"
       style="fill:#f5a623;fill-opacity:1;fill-rule:nonzero;stroke:#000000;stroke-width:0.0797;stroke-linecap:butt;stroke-linejoin:miter;stroke-miterlimit:10;stroke-dasharray:none;stroke-opacity:0"
       transform="matrix(1.3333333,0,0,-1.3333333,-11.756,-33.818667)" />
    <path
       id="path24"
       d="m 231.63437,-39.10883 c 14.94415,7.47208 60.38931,11.77599 67.24869,0 6.85936,-11.776 -22.92434,-19.23313 -7.98018,-41.64937 14.94415,-22.41622 -38.4812,-12.70252 -50.81012,-0.7472 -12.32894,11.95532 -23.40254,34.9245 -8.45839,42.39657 z"
       style="fill:none;stroke:#000000;stroke-width:0.74721;stroke-linecap:butt;stroke-linejoin:miter;stroke-miterlimit:10;stroke-dasharray:none;stroke-opacity:1"
       transform="matrix(1.3333333,0,0,-1.3333333,-11.756,-33.818667)" />
    <path
       id="path25"
       d="m 204.95155,-91.36107 c 1.17313,-3.10838 1.84561,-6.46333 1.92034,-9.96028 l -30.15729,-0.66501 z"
       style="fill:#9013fe;fill-opacity:0.18;fill-rule:nonzero;stroke:#000000;stroke-width:0.74721;stroke-linecap:butt;stroke-linejoin:miter;stroke-miterlimit:10;stroke-dasharray:none;stroke-opacity:0"
       transform="matrix(1.3333333,0,0,-1.3333333,-11.756,-33.818667)" />
    <path
       id="path26"
       d="m 204.95155,-91.36107 c 1.17313,-3.10838 1.84561,-6.46333 1.92034,-9.96028"
       style="fill:none;stroke:#000000;stroke-width:0.74721;stroke-linecap:butt;stroke-linejoin:miter;stroke-miterlimit:10;stroke-dasharray:none;stroke-opacity:1"
       transform="matrix(1.3333333,0,0,-1.3333333,-11.756,-33.818667)" />
    <path
       id="path27"
       d="m 67.8315,-41.4999 -3.76593,-2.75718 0.0523,4.67004 0.89666,-2.80951 z"
       style="fill:#000000;fill-opacity:1;fill-rule:nonzero;stroke:#000000;stroke-width:0.74721;stroke-linecap:butt;stroke-linejoin:miter;stroke-miterlimit:10;stroke-dasharray:none;stroke-opacity:1"
       transform="matrix(1.3333333,0,0,-1.3333333,-11.756,-33.818667)" />
    <path
       id="path28"
       d="m 229.25076,-42.65807 -3.76591,-2.7572 0.0523,4.66258 0.90411,-2.80951 2.80951,0.90413 z"
       style="fill:#000000;fill-opacity:1;fill-rule:nonzero;stroke:#000000;stroke-width:0.74721;stroke-linecap:butt;stroke-linejoin:miter;stroke-miterlimit:10;stroke-dasharray:none;stroke-opacity:1"
       transform="matrix(1.3333333,0,0,-1.3333333,-11.756,-33.818667)" />
    <path
       id="path29"
       d="m 273.48546,-73.64478 c 0.1569,3.19806 -0.5081,6.23918 -2.00252,9.12342 -1.53924,2.97387 -3.7435,5.37242 -6.61279,7.1956 -2.95146,1.87549 -6.20182,2.88423 -9.74358,3.01872 -3.6389,0.14197 -7.091,-0.65006 -10.34883,-2.38359 -3.3475,-1.77089 -6.03744,-4.28897 -8.06238,-7.5468 -2.07722,-3.34749 -3.1831,-7.0088 -3.30264,-10.99142 -0.11957,-4.07976 0.7995,-7.93535 2.76466,-11.57424 2.01,-3.7211 4.84191,-6.69501 8.48828,-8.92915 3.73604,-2.28645 7.81579,-3.47452 12.23926,-3.57912 4.5206,-0.10459 8.78716,0.94149 12.79219,3.13826 4.0947,2.24912 7.35999,5.39486 9.79589,9.42978 2.48822,4.12458 3.78086,8.62278 3.87053,13.48711 0.0523,3.40726 -0.4782,6.67256 -1.60648,9.81082"
       style="fill:#f5a623;fill-opacity:0.19;fill-rule:nonzero;stroke:#000000;stroke-width:0.74721;stroke-linecap:butt;stroke-linejoin:miter;stroke-miterlimit:10;stroke-dasharray:none;stroke-opacity:1"
       transform="matrix(1.3333333,0,0,-1.3333333,-11.756,-33.818667)" />
    <path
       id="path30"
       d="m 3.7134141,-3.7607734 c -0.1757813,-0.375 -0.46875,-0.6445313 -0.9140625,-0.6445313 -1.171875,0 -2.40234379,1.4648438 -2.40234379,2.9179688 0,0.93749996 0.55078125,1.59374996 1.32421879,1.59374996 0.1992187,0 0.703125,-0.03515625 1.3007812,-0.73828125 0.070312,0.41015625 0.421875,0.73828125 0.9023438,0.73828125 0.3515625,0 0.5742187,-0.22265625 0.7382812,-0.5390625 0.1640625,-0.36328125 0.2929688,-0.97265626 0.2929688,-0.99609376 0,-0.09375 -0.082031,-0.09375 -0.1171875,-0.09375 -0.09375,0 -0.1054688,0.035156 -0.140625,0.1757813 -0.1640625,0.64453121 -0.3515625,1.24218746 -0.75,1.24218746 -0.2695313,0 -0.3046875,-0.2578125 -0.3046875,-0.45703125 0,-0.22265625 0.023437,-0.3046875 0.1289062,-0.73828121 0.1171875,-0.421875 0.1289063,-0.5273438 0.2226563,-0.9023438 l 0.3515625,-1.3945312 c 0.070312,-0.28125 0.070312,-0.2929688 0.070312,-0.3398438 0,-0.1640625 -0.1171875,-0.2695312 -0.28125,-0.2695312 -0.2460938,0 -0.3867188,0.2226562 -0.4218745,0.4453125 z m -0.6445313,2.578125 c -0.046875,0.1757812 -0.046875,0.19921871 -0.1992187,0.36328121 -0.4453125,0.55078125 -0.84375,0.71484375 -1.125,0.71484375 -0.5039063,0 -0.6445313,-0.55078125 -0.6445313,-0.93749996 0,-0.5039063 0.328125,-1.7226563 0.5507813,-2.1796875 0.3046875,-0.5976563 0.7617187,-0.9609375 1.1601562,-0.9609375 0.6445313,0 0.7851563,0.8203125 0.7851563,0.8789062 0,0.058594 -0.023437,0.1171875 -0.035156,0.1640625 z m 0,0"
       style="fill:#000000;fill-opacity:1;fill-rule:nonzero;stroke:none"
       aria-label="a"
       transform="matrix(1.3333333,0,0,1.3333333,11.248,112.05733)" />
    <path
       id="path31"
       d="m 2.3775781,-6.8091797 c 0,0 0,-0.1054687 -0.1289062,-0.1054687 -0.2226563,0 -0.9492188,0.082031 -1.21875,0.1054687 -0.0703125,0 -0.18750002,0.011719 -0.18750002,0.1992188 0,0.1171875 0.09375,0.1171875 0.24609372,0.1171875 0.46875,0 0.4921875,0.070312 0.4921875,0.1640625 0,0.070312 -0.082031,0.4101562 -0.140625,0.6210937 l -0.80859372,3.2460938 c -0.12890625,0.5039062 -0.1640625,0.65625 -0.1640625,1.0078125 0,0.94921871 0.52734375,1.55859371 1.26562502,1.55859371 1.171875,0 2.4023437,-1.47656251 2.4023437,-2.91796871 0,-0.9023438 -0.5273437,-1.59375 -1.3242187,-1.59375 -0.4570313,0 -0.8671875,0.2929687 -1.171875,0.5976562 z m -0.9375,3.7734375 c 0.058594,-0.2226562 0.058594,-0.2460937 0.1523438,-0.3515625 0.4921875,-0.6445312 0.9375,-0.796875 1.1953125,-0.796875 0.3632812,0 0.6328125,0.2929688 0.6328125,0.9375 0,0.5859375 -0.328125,1.734375 -0.515625,2.109375 -0.328125,0.66796876 -0.7851563,1.03125001 -1.171875,1.03125001 -0.3398438,0 -0.6679688,-0.26953125 -0.6679688,-1.00781251 0,-0.1875 0,-0.3867187 0.1640625,-1.0078125 z m 0,0"
       style="fill:#000000;fill-opacity:1;fill-rule:nonzero;stroke:none"
       aria-label="b"
       transform="matrix(1.3333333,0,0,1.3333333,116.85333,78.7)" />
    <path
       id="path32"
       d="M 1.3243281,-0.83082812 C 1.8633906,-1.4050469 2.1563594,-1.6511406 2.5079219,-1.9558281 c 0,-0.011719 0.6210937,-0.5390625 0.984375,-0.9023438 0.9375,-0.9257812 1.1601562,-1.40625 1.1601562,-1.4414062 0,-0.1054688 -0.09375,-0.1054688 -0.1054687,-0.1054688 -0.070312,0 -0.1054688,0.023437 -0.1523438,0.1171875 -0.3046875,0.46875 -0.5039062,0.6328125 -0.75,0.6328125 -0.234375,0 -0.3515625,-0.1523437 -0.5039062,-0.3164062 -0.1875,-0.234375 -0.3632813,-0.4335938 -0.6914063,-0.4335938 -0.75,0 -1.2070312,0.9257813 -1.2070312,1.1367188 0,0.046875 0.035156,0.1171875 0.1171875,0.1171875 0.09375,0 0.1171875,-0.058594 0.140625,-0.1171875 0.1875,-0.4570313 0.7617187,-0.46875 0.84375,-0.46875 0.2109375,0 0.3984375,0.070312 0.6210937,0.1523437 0.3984375,0.1523438 0.515625,0.1523438 0.7734375,0.1523438 -0.3632812,0.421875 -1.1953125,1.1367187 -1.3828125,1.3007812 l -0.9023437,0.8320313 c -0.67968753,0.66796873 -1.01953128,1.24218748 -1.01953128,1.31249998 0,0.09375 0.09375,0.09375 0.1171875,0.09375 0.0820313,0 0.09375,-0.01171875 0.15234375,-0.12890625 0.234375,-0.33984375 0.52734373,-0.609375 0.85546873,-0.609375 0.2226563,0 0.328125,0.0820313 0.5742188,0.375 0.1640625,0.2109375 0.3515625,0.36328125 0.6328125,0.36328125 0.984375,0 1.5703125,-1.26562498 1.5703125,-1.53515628 0,-0.046875 -0.046875,-0.09375 -0.1171875,-0.09375 -0.09375,0 -0.1171875,0.058594 -0.140625,0.1289063 -0.234375,0.64453123 -0.8671875,0.83203123 -1.1953125,0.83203123 -0.1992188,0 -0.3867188,-0.0585938 -0.5859375,-0.12890625 -0.3398438,-0.12890625 -0.4921875,-0.1640625 -0.703125,-0.1640625 -0.023437,0 -0.1757813,0 -0.2695313,0.0234375 z m 0,0"
       style="fill:#000000;fill-opacity:1;fill-rule:nonzero;stroke:none"
       aria-label="z"
       transform="matrix(1.3333333,0,0,1.3333333,108.88267,6.7093333)" />
    <path
       id="path33"
       d="m 3.7155156,-3.7603281 c -0.1757812,-0.375 -0.46875,-0.6445313 -0.9140625,-0.6445313 -1.171875,0 -2.40234373,1.4648438 -2.40234373,2.9179688 0,0.93749998 0.55078125,1.59374998 1.32421873,1.59374998 0.1992188,0 0.703125,-0.03515625 1.3007813,-0.73828125 0.070312,0.41015625 0.421875,0.73828125 0.9023437,0.73828125 0.3515625,0 0.5742188,-0.22265625 0.7382813,-0.5390625 0.1640625,-0.36328125 0.2929687,-0.97265628 0.2929687,-0.99609378 0,-0.09375 -0.082031,-0.09375 -0.1171875,-0.09375 -0.09375,0 -0.1054687,0.035156 -0.140625,0.1757813 -0.1640625,0.64453123 -0.3515625,1.24218748 -0.75,1.24218748 -0.2695312,0 -0.3046875,-0.2578125 -0.3046875,-0.45703125 0,-0.22265625 0.023437,-0.3046875 0.1289063,-0.73828123 0.1171875,-0.421875 0.1289062,-0.5273438 0.2226562,-0.9023438 l 0.3515625,-1.3945312 c 0.070312,-0.28125 0.070312,-0.2929688 0.070312,-0.3398438 0,-0.1640625 -0.1171875,-0.2695312 -0.28125,-0.2695312 -0.2460937,0 -0.3867187,0.2226562 -0.4218745,0.4453125 z m -0.6445312,2.578125 c -0.046875,0.1757812 -0.046875,0.19921873 -0.1992188,0.36328123 -0.4453125,0.55078125 -0.84375,0.71484375 -1.125,0.71484375 -0.5039062,0 -0.6445312,-0.55078125 -0.6445312,-0.93749998 0,-0.5039063 0.328125,-1.7226563 0.5507812,-2.1796875 0.3046875,-0.5976563 0.7617188,-0.9609375 1.1601563,-0.9609375 0.6445312,0 0.7851562,0.8203125 0.7851562,0.8789062 0,0.058594 -0.023437,0.1171875 -0.035156,0.1640625 z m 0,0"
       style="fill:#000000;fill-opacity:1;fill-rule:nonzero;stroke:none"
       aria-label="a"
       transform="matrix(1.3333333,0,0,1.3333333,227.35067,112.36533)" />
    <path
       id="path34"
       d="m 2.3796797,-6.8097344 c 0,0 0,-0.1054687 -0.1289063,-0.1054687 -0.2226562,0 -0.9492187,0.082031 -1.21875,0.1054687 -0.0703125,0 -0.18749996,0.011719 -0.18749996,0.1992188 0,0.1171875 0.09375,0.1171875 0.24609376,0.1171875 0.46875,0 0.4921875,0.070312 0.4921875,0.1640625 0,0.070312 -0.082031,0.4101562 -0.140625,0.6210937 l -0.80859376,3.2460938 c -0.12890625,0.5039062 -0.1640625,0.65625 -0.1640625,1.0078125 0,0.94921873 0.52734375,1.55859373 1.26562496,1.55859373 1.171875,0 2.4023438,-1.47656253 2.4023438,-2.91796873 0,-0.9023438 -0.5273438,-1.59375 -1.3242188,-1.59375 -0.4570312,0 -0.8671875,0.2929687 -1.171875,0.5976562 z m -0.9375,3.7734375 c 0.058594,-0.2226562 0.058594,-0.2460937 0.1523437,-0.3515625 0.4921875,-0.6445312 0.9375,-0.796875 1.1953125,-0.796875 0.3632813,0 0.6328125,0.2929688 0.6328125,0.9375 0,0.5859375 -0.328125,1.734375 -0.515625,2.109375 -0.328125,0.66796878 -0.7851562,1.03125003 -1.171875,1.03125003 -0.3398437,0 -0.6679687,-0.26953125 -0.6679687,-1.00781253 0,-0.1875 0,-0.3867187 0.1640625,-1.0078125 z m 0,0"
       style="fill:#000000;fill-opacity:1;fill-rule:nonzero;stroke:none"
       aria-label="b"
       transform="matrix(1.3333333,0,0,1.3333333,332.956,79.009333)" />
    <path
       id="path35"
       d="M 1.3274401,-0.83214844 C 1.8607604,-1.4063672 2.1512682,-1.6524609 2.5115026,-1.9571484 c -1.172e-4,-0.011719 0.6157031,-0.5390625 0.9753515,-0.9023438 0.939961,-0.9257812 1.1695313,-1.40625 1.1691797,-1.4414062 -0.00105,-0.1054688 -0.094805,-0.1054688 -0.1065234,-0.1054688 -0.070312,0 -0.1052344,0.023437 -0.1511719,0.1171875 -0.3117187,0.46875 -0.5092969,0.6328125 -0.7553906,0.6328125 -0.234375,0 -0.3530859,-0.1523437 -0.5070703,-0.3164062 -0.178125,-0.234375 -0.3558985,-0.4335938 -0.6840235,-0.4335938 -0.75,0 -1.2094921,0.9257813 -1.2073828,1.1367188 4.688e-4,0.046875 0.036328,0.1171875 0.1183594,0.1171875 0.09375,0 0.1166016,-0.058594 0.1394531,-0.1171875 0.1829297,-0.4570313 0.7570313,-0.46875 0.8390625,-0.46875 0.2109375,0 0.3991407,0.070312 0.6226172,0.1523437 0.399961,0.1523438 0.5171485,0.1523438 0.774961,0.1523438 -0.3590625,0.421875 -1.1956641,1.1367187 -1.3815235,1.3007812 l -0.9057422,0.8320313 c -0.67300778,0.66796871 -1.0188281,1.24218746 -1.01812497,1.31249996 9.375e-4,0.09375 0.0946875,0.09375 0.118125,0.09375 0.0820313,0 0.0936328,-0.01171875 0.15105469,-0.12890625 0.23097656,-0.33984375 0.53296878,-0.609375 0.86109378,-0.609375 0.2226562,0 0.3172265,0.0820313 0.56625,0.375 0.1661718,0.2109375 0.3551953,0.36328125 0.6364453,0.36328125 0.984375,0 1.569375,-1.26562496 1.5666797,-1.53515626 -4.688e-4,-0.046875 -0.047813,-0.09375 -0.118125,-0.09375 -0.09375,0 -0.1166016,0.058594 -0.139336,0.1289063 -0.2279297,0.64453121 -0.8705859,0.83203121 -1.1987109,0.83203121 -0.1992188,0 -0.3755859,-0.0585938 -0.5755078,-0.12890625 -0.3411328,-0.12890625 -0.4938281,-0.1640625 -0.7047656,-0.1640625 -0.023437,0 -0.1757813,0 -0.2692969,0.0234375 z m 0,0"
       style="fill:#000000;fill-opacity:1;fill-rule:nonzero;stroke:none"
       aria-label="z"
       transform="matrix(1.3333333,0,-0.01333333,1.3333333,386.69945,54.84)" />
  </g>
</svg>
