<?xml version="1.0" encoding="UTF-8" standalone="no"?>
<!-- Created with Inkscape (http://www.inkscape.org/) -->

<svg
   version="1.1"
   id="svg1"
   width="241.92"
   height="187.86667"
   viewBox="0 0 241.92 187.86667"
   xmlns="http://www.w3.org/2000/svg"
   xmlns:svg="http://www.w3.org/2000/svg">
  <defs
     id="defs1" />
  <g
     id="g1">
    <path
       id="path1"
       d="M 64.55898,-124.019 H 212.91313 M 107.70589,-25.10626 V -165.265 m 101.02285,44.23485 4.18439,-2.98885 -4.18439,-2.98883 m -104.0117,97.7172 2.98885,4.18437 2.98884,-4.18437"
       style="fill:none;stroke:#000000;stroke-width:0.74721;stroke-linecap:butt;stroke-linejoin:miter;stroke-miterlimit:10;stroke-dasharray:none;stroke-opacity:1"
       transform="matrix(1.3333333,0,0,-1.3333333,-81.156,-32.981333)" />
    <path
       id="path2"
       d="m 75.4264,-124.019 c 0,17.83144 14.45403,32.27951 32.27949,32.27951 17.82545,0 32.27949,-14.44807 32.27949,-32.27951 0,-17.82544 -14.45404,-32.27948 -32.27949,-32.27948 -17.82546,0 -32.27949,14.45404 -32.27949,32.27948 z"
       style="fill:none;stroke:#000000;stroke-width:1.49442;stroke-linecap:butt;stroke-linejoin:miter;stroke-miterlimit:10;stroke-dasharray:none;stroke-opacity:1"
       transform="matrix(1.3333333,0,0,-1.3333333,-81.156,-32.981333)" />
    <path
       id="path3"
       d="m 106.00224,-91.73949 c 0,0.93849 0.76516,1.70363 1.70365,1.70363 0.93851,0 1.69766,-0.76514 1.69766,-1.70363 0,-0.93851 -0.75915,-1.69767 -1.69766,-1.69767 -0.93849,0 -1.70365,0.75916 -1.70365,1.69767 z"
       style="fill:#f5a623;fill-opacity:1;fill-rule:nonzero;stroke:#f5a623;stroke-width:0.74721;stroke-linecap:butt;stroke-linejoin:miter;stroke-miterlimit:10;stroke-dasharray:none;stroke-opacity:1"
       transform="matrix(1.3333333,0,0,-1.3333333,-81.156,-32.981333)" />
    <path
       id="path4"
       d="m 166.3111,-87.75836 c 0,0.94449 0.75917,1.70363 1.69766,1.70363 0.93851,0 1.70364,-0.75914 1.70364,-1.70363 0,-0.93851 -0.76513,-1.69766 -1.70364,-1.69766 -0.93849,0 -1.69766,0.75915 -1.69766,1.69766 z"
       style="fill:#000000;fill-opacity:1;fill-rule:nonzero;stroke:#000000;stroke-width:0.74721;stroke-linecap:butt;stroke-linejoin:miter;stroke-miterlimit:10;stroke-dasharray:none;stroke-opacity:1"
       transform="matrix(1.3333333,0,0,-1.3333333,-81.156,-32.981333)" />
    <path
       id="path5"
       d="m 168.00876,-87.75836 -60.81098,-3.90341"
       style="fill:none;stroke:#f5a623;stroke-width:0.74721;stroke-linecap:butt;stroke-linejoin:miter;stroke-miterlimit:10;stroke-dasharray:none;stroke-opacity:1"
       transform="matrix(1.3333333,0,0,-1.3333333,-81.156,-32.981333)" />
    <path
       id="path6"
       d="m 112.39616,-89.35893 c -2.30177,-1.27964 -4.43095,-2.07501 -6.39392,-2.38056 1.98589,-0.05235 4.19924,-0.56926 6.64562,-1.54438"
       style="fill:none;stroke:#f5a623;stroke-width:0.74721;stroke-linecap:butt;stroke-linejoin:miter;stroke-miterlimit:10;stroke-dasharray:none;stroke-opacity:1"
       transform="matrix(1.3333333,0,0,-1.3333333,-81.156,-32.981333)" />
    <path
       id="path7"
       d="m 168.00876,-87.75836 h 73.92602"
       style="fill:none;stroke:#000000;stroke-width:0.74721;stroke-linecap:butt;stroke-linejoin:miter;stroke-miterlimit:10;stroke-dasharray:0.83687, 2.50064;stroke-dashoffset:0;stroke-opacity:1"
       transform="matrix(1.3333333,0,0,-1.3333333,-81.156,-32.981333)" />
    <path
       id="path8"
       d="M 168.00876,-87.75836 93.07849,-151.0441"
       style="fill:none;stroke:#4a90e2;stroke-width:0.74721;stroke-linecap:butt;stroke-linejoin:miter;stroke-miterlimit:10;stroke-dasharray:none;stroke-opacity:1"
       transform="matrix(1.3333333,0,0,-1.3333333,-81.156,-32.981333)" />
    <path
       id="path9"
       d="m 95.88661,-146.09769 c -1.0887,-2.39798 -2.3268,-4.30406 -3.7227,-5.71753 1.62727,1.1395 3.71378,2.04088 6.26021,2.71264"
       style="fill:none;stroke:#4a90e2;stroke-width:0.74721;stroke-linecap:butt;stroke-linejoin:miter;stroke-miterlimit:10;stroke-dasharray:none;stroke-opacity:1"
       transform="matrix(1.3333333,0,0,-1.3333333,-81.156,-32.981333)" />
    <path
       id="path10"
       d="m 90.46028,-151.81522 c 0,0.9385 0.76512,1.70365 1.70363,1.70365 0.93851,0 1.69768,-0.76515 1.69768,-1.70365 0,-0.93849 -0.75917,-1.69766 -1.69768,-1.69766 -0.93851,0 -1.70363,0.75917 -1.70363,1.69766 z"
       style="fill:#4a90e2;fill-opacity:1;fill-rule:nonzero;stroke:#4a90e2;stroke-width:0.74721;stroke-linecap:butt;stroke-linejoin:miter;stroke-miterlimit:10;stroke-dasharray:none;stroke-opacity:1"
       transform="matrix(1.3333333,0,0,-1.3333333,-81.156,-32.981333)" />
    <path
       id="path11"
       d="m 137.0862,-132.68663 c 0,0.93849 0.76515,1.70364 1.70364,1.70364 0.93851,0 1.69766,-0.76515 1.69766,-1.70364 0,-0.93849 -0.75915,-1.69767 -1.69766,-1.69767 -0.93849,0 -1.70364,0.75918 -1.70364,1.69767 z"
       style="fill:#417505;fill-opacity:1;fill-rule:nonzero;stroke:#417505;stroke-width:0.74721;stroke-linecap:butt;stroke-linejoin:miter;stroke-miterlimit:10;stroke-dasharray:none;stroke-opacity:1"
       transform="matrix(1.3333333,0,0,-1.3333333,-81.156,-32.981333)" />
    <path
       id="path12"
       d="m 168.00876,-87.75836 -28.56734,-43.92401"
       style="fill:#417505;fill-opacity:1;fill-rule:nonzero;stroke:#417505;stroke-width:0.74721;stroke-linecap:butt;stroke-linejoin:miter;stroke-miterlimit:10;stroke-dasharray:none;stroke-opacity:1"
       transform="matrix(1.3333333,0,0,-1.3333333,-81.156,-32.981333)" />
    <path
       id="path13"
       d="m 140.70343,-126.13773 c -0.35008,-2.61023 -0.98517,-4.7926 -1.91359,-6.5489 1.22902,1.56078 2.96648,3.0262 5.21059,4.40451"
       style="fill:none;stroke:#417505;stroke-width:0.74721;stroke-linecap:butt;stroke-linejoin:miter;stroke-miterlimit:10;stroke-dasharray:none;stroke-opacity:1"
       transform="matrix(1.3333333,0,0,-1.3333333,-81.156,-32.981333)" />
    <path
       id="path14"
       d="m 156.69899,-105.0757 c -5.356,3.75397 -8.88284,10.11424 -8.88284,17.31734 0,11.54889 9.04425,20.90993 20.19261,20.90993 11.15436,0 20.19263,-9.36104 20.19263,-20.90993 0,-0.01793 0,-0.04184 0,-0.05979 l -20.19263,0.05979 z"
       style="fill:#417505;fill-opacity:0.23;fill-rule:nonzero;stroke:#000000;stroke-width:0.74721;stroke-linecap:butt;stroke-linejoin:miter;stroke-miterlimit:10;stroke-dasharray:none;stroke-opacity:0"
       transform="matrix(1.3333333,0,0,-1.3333333,-81.156,-32.981333)" />
    <path
       id="path15"
       d="m 156.69899,-105.0757 c -5.356,3.75397 -8.88284,10.11424 -8.88284,17.31734 0,11.54889 9.04425,20.90993 20.19261,20.90993 11.15436,0 20.19263,-9.36104 20.19263,-20.90993 0,-0.01793 0,-0.04184 0,-0.05979"
       style="fill:none;stroke:#000000;stroke-width:0.74721;stroke-linecap:butt;stroke-linejoin:miter;stroke-miterlimit:10;stroke-dasharray:none;stroke-opacity:1"
       transform="matrix(1.3333333,0,0,-1.3333333,-81.156,-32.981333)" />
    <path
       id="path16"
       d="m 157.14731,-96.86237 c -1.94275,2.4867 -3.11437,5.65488 -3.11437,9.10401 0,7.99216 6.25862,14.47197 13.97582,14.47197 7.71719,0 13.97583,-6.47981 13.97583,-14.47197 0,-0.01196 0,-0.02391 0,-0.04184 l -13.97583,0.04184 z"
       style="fill:#4a90e2;fill-opacity:0.16;fill-rule:nonzero;stroke:#000000;stroke-width:0.74721;stroke-linecap:butt;stroke-linejoin:miter;stroke-miterlimit:10;stroke-dasharray:none;stroke-opacity:0"
       transform="matrix(1.3333333,0,0,-1.3333333,-81.156,-32.981333)" />
    <path
       id="path17"
       d="m 157.14731,-96.86237 c -1.94275,2.4867 -3.11437,5.65488 -3.11437,9.10401 0,7.99216 6.25862,14.47197 13.97582,14.47197 7.71719,0 13.97583,-6.47981 13.97583,-14.47197 0,-0.01196 0,-0.02391 0,-0.04184"
       style="fill:none;stroke:#000000;stroke-width:0.74721;stroke-linecap:butt;stroke-linejoin:miter;stroke-miterlimit:10;stroke-dasharray:none;stroke-opacity:1"
       transform="matrix(1.3333333,0,0,-1.3333333,-81.156,-32.981333)" />
    <path
       id="path18"
       d="m 159.53839,-88.08713 c 0,0.10761 -0.006,0.22118 -0.006,0.32877 0,4.97941 3.79581,9.00838 8.47635,9.00838 4.68054,0 8.47636,-4.02897 8.47636,-9.00838 0,-0.006 0,-0.01793 0,-0.02391 l -8.47636,0.02391 -8.47037,-0.32877 z"
       style="fill:#f5a623;fill-opacity:0.32;fill-rule:nonzero;stroke:#000000;stroke-width:0.74721;stroke-linecap:butt;stroke-linejoin:miter;stroke-miterlimit:10;stroke-dasharray:none;stroke-opacity:0"
       transform="matrix(1.3333333,0,0,-1.3333333,-81.156,-32.981333)" />
    <path
       id="path19"
       d="m 159.53839,-88.08713 c 0,0.10761 -0.006,0.22118 -0.006,0.32877 0,4.97941 3.79581,9.00838 8.47635,9.00838 4.68054,0 8.47636,-4.02897 8.47636,-9.00838 0,-0.006 0,-0.01793 0,-0.02391"
       style="fill:none;stroke:#000000;stroke-width:0.74721;stroke-linecap:butt;stroke-linejoin:miter;stroke-miterlimit:10;stroke-dasharray:none;stroke-opacity:1"
       transform="matrix(1.3333333,0,0,-1.3333333,-81.156,-32.981333)" />
    <path
       id="path20"
       d="m 3.7158281,-3.7631094 c -0.1757812,-0.375 -0.46875,-0.6445312 -0.9140625,-0.6445312 -1.171875,0 -2.40234373,1.4648437 -2.40234373,2.9179687 0,0.93750003 0.55078125,1.59375003 1.32421873,1.59375003 0.1992188,0 0.703125,-0.03515625 1.3007813,-0.73828125 0.070312,0.41015625 0.421875,0.73828125 0.9023437,0.73828125 0.3515625,0 0.5742188,-0.22265625 0.7382813,-0.5390625 0.1640625,-0.36328125 0.2929687,-0.97265623 0.2929687,-0.99609373 0,-0.09375 -0.082031,-0.09375 -0.1171875,-0.09375 -0.09375,0 -0.1054687,0.035156 -0.140625,0.1757812 -0.1640625,0.64453128 -0.3515625,1.24218753 -0.75,1.24218753 -0.2695312,0 -0.3046875,-0.2578125 -0.3046875,-0.45703125 0,-0.22265625 0.023437,-0.3046875 0.1289063,-0.73828128 0.1171875,-0.421875 0.1289062,-0.5273437 0.2226562,-0.9023437 l 0.3515625,-1.3945313 c 0.070312,-0.28125 0.070312,-0.2929687 0.070312,-0.3398437 0,-0.1640625 -0.1171875,-0.2695313 -0.28125,-0.2695313 -0.2460937,0 -0.3867187,0.2226563 -0.4218745,0.4453125 z m -0.6445312,2.578125 c -0.046875,0.1757813 -0.046875,0.19921878 -0.1992188,0.36328128 -0.4453125,0.55078125 -0.84375,0.71484375 -1.125,0.71484375 -0.5039062,0 -0.6445312,-0.55078125 -0.6445312,-0.93750003 0,-0.5039062 0.328125,-1.7226562 0.5507812,-2.1796875 0.3046875,-0.5976562 0.7617188,-0.9609375 1.1601563,-0.9609375 0.6445312,0 0.7851562,0.8203125 0.7851562,0.8789063 0,0.058594 -0.023437,0.1171875 -0.035156,0.1640625 z m 0,0"
       style="fill:#000000;fill-opacity:1;fill-rule:nonzero;stroke:none"
       aria-label="a"
       transform="matrix(1.3333333,0,0,1.3333333,145.944,93.634667)" />
    <g
       id="g20"
       aria-label="z−a"
       transform="matrix(1.33028,-0.08928,0.08928,1.33028,74.580121,82.009721)">
      <path
         id="path21"
         d="M 1.3263632,-0.84032354 C 1.8699687,-1.4146138 2.167865,-1.6530252 2.5172416,-1.9584553 c 7.848e-4,-0.011693 0.612194,-0.5461958 0.9764027,-0.8976132 0.9312002,-0.9241381 1.1637255,-1.4135953 1.1543868,-1.449459 0.00706,-0.1052368 -0.087266,-0.099822 -0.098959,-0.1006066 -0.070158,-0.00471 -0.107591,0.028016 -0.160641,0.1184209 C 4.0865327,-3.8146576 3.8876736,-3.651819 3.6413363,-3.656606 3.4059072,-3.648916 3.2874863,-3.8095563 3.1339864,-3.9725516 2.9501162,-4.2080591 2.7755847,-4.407703 2.4583047,-4.4055055 c -0.7514897,-0.00345 -1.2134013,0.9286899 -1.215834,1.1399483 0.00855,0.047557 0.038924,0.1200688 0.12156,0.1138691 0.093544,0.00628 0.1208536,-0.050617 0.1372551,-0.1199904 0.1950921,-0.4567326 0.7711871,-0.4650513 0.853038,-0.459558 0.2120431,-0.00926 0.383514,0.060976 0.6126651,0.1468291 0.3889289,0.1553045 0.5066435,0.1514592 0.7646738,0.1570309 -0.3572243,0.4223599 -1.1791855,1.1189165 -1.3671364,1.2942328 l -0.9015362,0.8321638 c -0.69098413,0.67011002 -1.02333133,1.24683299 -1.02803988,1.31699087 0.005415,0.09432859 0.0997435,0.08891369 0.12312946,0.09048321 0.0826356,-0.0062 0.0951133,-0.01710789 0.14973286,-0.13089865 0.2340164,-0.33666372 0.52257386,-0.61093875 0.85154686,-0.61235146 0.2229514,0.003217 0.3351726,0.0812229 0.5852769,0.37990387 0.1620538,0.21055204 0.3514173,0.3642087 0.6219254,0.35887219 0.9861341,0.007455 1.5651322,-1.26919893 1.5714887,-1.53892223 0.00314,-0.046772 -0.052187,-0.097468 -0.1231295,-0.090483 -0.093544,-0.00628 -0.1099454,0.063095 -0.1380399,0.1316834 -0.2310339,0.64225049 -0.866457,0.83451785 -1.19543,0.83593056 -0.1995654,-0.001648 -0.383514,-0.060976 -0.5783709,-0.13278179 -0.3437265,-0.12877958 -0.4941657,-0.16236741 -0.7054241,-0.16480009 -0.023386,-0.00157 -0.1761795,-7.841e-5 -0.2712928,0.0170295 z m 0,0"
         style="fill:#000000;fill-opacity:1;fill-rule:nonzero;stroke:none" />
      <path
         id="path22"
         d="m 13.850956,-2.296026 c 0.176179,7.84e-5 0.353143,-0.011536 0.354791,-0.2111016 8.64e-4,-0.1878724 -0.176101,-0.1762578 -0.35228,-0.1763362 l -5.3906204,-0.00941 c -0.1644865,7.063e-4 -0.340666,6.279e-4 -0.3415291,0.1885003 -0.00165,0.1995655 0.1745315,0.1996439 0.339018,0.1989375 z m 0,0"
         style="fill:#000000;fill-opacity:1;fill-rule:nonzero;stroke:none" />
      <path
         id="path23"
         d="m 20.964073,-3.7566703 c -0.186146,-0.376608 -0.472899,-0.6542573 -0.919586,-0.6489992 -1.163099,0.00416 -2.400906,1.4715114 -2.403887,2.9160259 0.0074,0.94014693 0.562127,1.59989755 1.337787,1.59322675 0.199565,0.001648 0.695379,-0.03555008 1.282696,-0.73610887 0.07856,0.40462413 0.432327,0.73375389 0.913308,0.74254305 0.352359,1.5681e-4 0.56762,-0.23205486 0.741602,-0.54925641 0.153735,-0.365543 0.288086,-0.96729982 0.289656,-0.99068582 -0.0054,-0.094329 -0.08727,-0.099822 -0.122345,-0.1021762 -0.09433,0.00541 -0.108376,0.039709 -0.141179,0.1784553 -0.160876,0.6469593 -0.353692,1.24479237 -0.752823,1.24149652 -0.270508,0.005337 -0.300016,-0.25504808 -0.298368,-0.45461349 0.0032,-0.22295137 0.0204,-0.30401747 0.132076,-0.74285733 0.110102,-0.415454 0.128858,-0.519906 0.21322,-0.9018506 l 0.351416,-1.3858928 c 0.0773,-0.2767077 0.07808,-0.2884007 0.08122,-0.3351726 -7.06e-4,-0.1644865 -0.122266,-0.2783557 -0.286753,-0.2776493 -0.247122,0.00691 -0.39144,0.2321333 -0.418043,0.4535151 z m -0.653629,2.5636663 c -0.04763,0.1847334 -0.0492,0.20811938 -0.201291,0.37409696 -0.436015,0.54627419 -0.834439,0.70746482 -1.11664,0.71201656 -0.505153,0.001334 -0.644449,-0.54831414 -0.641937,-0.93575202 -0.0013,-0.5051524 0.326618,-1.7164353 0.556789,-2.1708135 0.298837,-0.6024632 0.758159,-0.9709885 1.145597,-0.9684774 0.646253,-0.00361 0.790885,0.8165463 0.786962,0.8750112 -0.0039,0.058465 -0.02033,0.127838 -0.03516,0.1738252 z m 0,0"
         style="fill:#000000;fill-opacity:1;fill-rule:nonzero;stroke:none" />
    </g>
    <path
       id="path24"
       d="m 4.5337188,-4.9803359 c 0,-0.65625 -0.1875,-2.0390625 -1.1953125,-2.0390625 -1.3828125,0 -2.9179688,2.8007812 -2.9179688,5.0859375 0,0.93749996 0.28125,2.03906246 1.1953125,2.03906246 1.40625,0 2.9179688,-2.85937496 2.9179688,-5.08593746 z m -3.0585938,1.359375 c 0.1640625,-0.6328125 0.3632813,-1.4296875 0.7617188,-2.1328125 0.2695312,-0.4921875 0.6445312,-1.0546875 1.0898437,-1.0546875 0.4921875,0 0.5507813,0.6445312 0.5507813,1.2070312 0,0.4921875 -0.082031,0.9960938 -0.328125,1.9804688 z m 1.9921875,0.328125 c -0.1171875,0.4570312 -0.3164062,1.3007812 -0.703125,2.015625 -0.3398437,0.67968746 -0.7265625,1.17187496 -1.1484375,1.17187496 -0.328125,0 -0.5390625,-0.29296875 -0.5390625,-1.21874996 0,-0.421875 0.058594,-0.9960938 0.3164063,-1.96875 z m 0,0"
       style="fill:#000000;fill-opacity:1;fill-rule:nonzero;stroke:none"
       aria-label="θ"
       transform="matrix(1.3333333,0,0,1.3333333,138.97067,49.214667)" />
  </g>
</svg>
