<?xml version="1.0" encoding="UTF-8" standalone="no"?>
<!-- Created with Inkscape (http://www.inkscape.org/) -->

<svg
   version="1.1"
   id="svg1"
   width="384.92001"
   height="121.8"
   viewBox="0 0 384.92001 121.8"
   xmlns="http://www.w3.org/2000/svg"
   xmlns:svg="http://www.w3.org/2000/svg">
  <defs
     id="defs1" />
  <g
     id="g1">
    <path
       id="path1"
       d="m 55.82959,-73.92688 c 0,0.82117 0.66951,1.48543 1.49068,1.48543 0.82118,0 1.48544,-0.66426 1.48544,-1.48543 0,-0.82642 -0.66426,-1.49069 -1.48544,-1.49069 -0.82117,0 -1.49068,0.66427 -1.49068,1.49069 z"
       style="fill:#000000;fill-opacity:1;fill-rule:nonzero;stroke:#000000;stroke-width:0.74721;stroke-linecap:butt;stroke-linejoin:miter;stroke-miterlimit:10;stroke-dasharray:none;stroke-opacity:1"
       transform="matrix(1.3333333,0,0,-1.3333333,-39.013333,-15.497333)" />
    <path
       id="path2"
       d="m 111.27217,-54.5743 c 0,0.82117 0.6695,1.48545 1.49066,1.48545 0.82118,0 1.48545,-0.66428 1.48545,-1.48545 0,-0.8264 -0.66427,-1.49069 -1.48545,-1.49069 -0.82116,0 -1.49066,0.66429 -1.49066,1.49069 z"
       style="fill:#000000;fill-opacity:1;fill-rule:nonzero;stroke:#000000;stroke-width:0.74721;stroke-linecap:butt;stroke-linejoin:miter;stroke-miterlimit:10;stroke-dasharray:none;stroke-opacity:1"
       transform="matrix(1.3333333,0,0,-1.3333333,-39.013333,-15.497333)" />
    <path
       id="path3"
       d="m 97.93456,-19.35258 c 0,0.82118 0.6695,1.48544 1.49067,1.48544 0.82118,0 1.48545,-0.66426 1.48545,-1.48544 0,-0.82119 -0.66427,-1.48543 -1.48545,-1.48543 -0.82117,0 -1.49067,0.66424 -1.49067,1.48543 z"
       style="fill:#000000;fill-opacity:1;fill-rule:nonzero;stroke:#000000;stroke-width:0.74721;stroke-linecap:butt;stroke-linejoin:miter;stroke-miterlimit:10;stroke-dasharray:none;stroke-opacity:1"
       transform="matrix(1.3333333,0,0,-1.3333333,-39.013333,-15.497333)" />
    <path
       id="path4"
       d="m 113.24927,-73.92688 h -55.929"
       style="fill:none;stroke:#000000;stroke-width:0.74721;stroke-linecap:butt;stroke-linejoin:miter;stroke-miterlimit:10;stroke-dasharray:0.83687, 2.50064;stroke-dashoffset:0;stroke-opacity:1"
       transform="matrix(1.3333333,0,0,-1.3333333,-39.013333,-15.497333)" />
    <path
       id="path5"
       d="M 149.86227,-54.5743 H 112.76283"
       style="fill:none;stroke:#000000;stroke-width:0.74721;stroke-linecap:butt;stroke-linejoin:miter;stroke-miterlimit:10;stroke-dasharray:0.83687, 2.50064;stroke-dashoffset:0;stroke-opacity:1"
       transform="matrix(1.3333333,0,0,-1.3333333,-39.013333,-15.497333)" />
    <path
       id="path6"
       d="m 57.32027,-73.92688 41.46685,53.74789"
       style="fill:none;stroke:#000000;stroke-width:0.74721;stroke-linecap:butt;stroke-linejoin:miter;stroke-miterlimit:10;stroke-dasharray:4.48325, 4.48325;stroke-dashoffset:0;stroke-opacity:1"
       transform="matrix(1.3333333,0,0,-1.3333333,-39.013333,-15.497333)" />
    <path
       id="path7"
       d="m 96.83391,-25.28021 2.59132,5.92763 -5.07594,-4.01082 z"
       style="fill:#000000;fill-opacity:1;fill-rule:nonzero;stroke:#000000;stroke-width:0.0797;stroke-linecap:butt;stroke-linejoin:miter;stroke-miterlimit:10;stroke-dasharray:none;stroke-opacity:0"
       transform="matrix(1.3333333,0,0,-1.3333333,-39.013333,-15.497333)" />
    <path
       id="path8"
       d="M 112.76283,-54.5743 99.7966,-20.33066"
       style="fill:none;stroke:#f5a623;stroke-width:0.74721;stroke-linecap:butt;stroke-linejoin:miter;stroke-miterlimit:10;stroke-dasharray:4.48325, 4.48325;stroke-dashoffset:0;stroke-opacity:1"
       transform="matrix(1.3333333,0,0,-1.3333333,-39.013333,-15.497333)" />
    <path
       id="path9"
       d="m 103.11507,-24.66644 -3.68984,5.31386 0.7551,-6.4251 z"
       style="fill:#f5a623;fill-opacity:1;fill-rule:nonzero;stroke:#000000;stroke-width:0.0797;stroke-linecap:butt;stroke-linejoin:miter;stroke-miterlimit:10;stroke-dasharray:none;stroke-opacity:0"
       transform="matrix(1.3333333,0,0,-1.3333333,-39.013333,-15.497333)" />
    <path
       id="path10"
       d="m 110.6079,-48.40237 c 0.67472,0.23535 1.40174,0.36612 2.15493,0.36612 3.56192,0 6.4596,-2.85059 6.53804,-6.39682 l -6.53804,-0.14123 z"
       style="fill:#f5a623;fill-opacity:0.16;fill-rule:nonzero;stroke:#000000;stroke-width:0.74721;stroke-linecap:butt;stroke-linejoin:miter;stroke-miterlimit:10;stroke-dasharray:none;stroke-opacity:0"
       transform="matrix(1.3333333,0,0,-1.3333333,-39.013333,-15.497333)" />
    <path
       id="path11"
       d="m 110.6079,-48.40237 c 0.67472,0.23535 1.40174,0.36612 2.15493,0.36612 3.56192,0 6.4596,-2.85059 6.53804,-6.39682"
       style="fill:none;stroke:#000000;stroke-width:0.74721;stroke-linecap:butt;stroke-linejoin:miter;stroke-miterlimit:10;stroke-dasharray:none;stroke-opacity:1"
       transform="matrix(1.3333333,0,0,-1.3333333,-39.013333,-15.497333)" />
    <path
       id="path12"
       d="m 62.1741,-66.85011 c 2.32756,-1.50637 3.88622,-4.10067 3.95421,-7.06632 l -8.6302,-0.18829 z"
       style="fill:#9013fe;fill-opacity:0.18;fill-rule:nonzero;stroke:#000000;stroke-width:0.74721;stroke-linecap:butt;stroke-linejoin:miter;stroke-miterlimit:10;stroke-dasharray:none;stroke-opacity:0"
       transform="matrix(1.3333333,0,0,-1.3333333,-39.013333,-15.497333)" />
    <path
       id="path13"
       d="m 62.1741,-66.85011 c 2.32756,-1.50637 3.88622,-4.10067 3.95421,-7.06632"
       style="fill:none;stroke:#000000;stroke-width:0.74721;stroke-linecap:butt;stroke-linejoin:miter;stroke-miterlimit:10;stroke-dasharray:none;stroke-opacity:1"
       transform="matrix(1.3333333,0,0,-1.3333333,-39.013333,-15.497333)" />
    <path
       id="path14"
       d="m 32.95169,-60.97635 c 0,22.98773 29.76114,41.62377 66.47354,41.62377 36.7124,0 66.47356,-18.63604 66.47356,-41.62377 0,-22.98773 -29.76116,-41.62376 -66.47356,-41.62376 -36.7124,0 -66.47354,18.63603 -66.47354,41.62376 z"
       style="fill:none;stroke:#000000;stroke-width:0.74721;stroke-linecap:butt;stroke-linejoin:miter;stroke-miterlimit:10;stroke-dasharray:none;stroke-opacity:1"
       transform="matrix(1.3333333,0,0,-1.3333333,-39.013333,-15.497333)" />
    <path
       id="path15"
       d="m 207.51208,-73.92688 c 0,0.82117 0.6695,1.48543 1.49067,1.48543 0.82119,0 1.48544,-0.66426 1.48544,-1.48543 0,-0.82642 -0.66425,-1.49069 -1.48544,-1.49069 -0.82117,0 -1.49067,0.66427 -1.49067,1.49069 z"
       style="fill:#000000;fill-opacity:1;fill-rule:nonzero;stroke:#000000;stroke-width:0.74721;stroke-linecap:butt;stroke-linejoin:miter;stroke-miterlimit:10;stroke-dasharray:none;stroke-opacity:1"
       transform="matrix(1.3333333,0,0,-1.3333333,-39.013333,-15.497333)" />
    <path
       id="path16"
       d="m 262.95465,-54.5743 c 0,0.82117 0.66951,1.48545 1.49068,1.48545 0.82118,0 1.48544,-0.66428 1.48544,-1.48545 0,-0.8264 -0.66426,-1.49069 -1.48544,-1.49069 -0.82117,0 -1.49068,0.66429 -1.49068,1.49069 z"
       style="fill:#000000;fill-opacity:1;fill-rule:nonzero;stroke:#000000;stroke-width:0.74721;stroke-linecap:butt;stroke-linejoin:miter;stroke-miterlimit:10;stroke-dasharray:none;stroke-opacity:1"
       transform="matrix(1.3333333,0,0,-1.3333333,-39.013333,-15.497333)" />
    <path
       id="path17"
       d="M 264.93176,-73.92688 H 209.00275"
       style="fill:none;stroke:#000000;stroke-width:0.74721;stroke-linecap:butt;stroke-linejoin:miter;stroke-miterlimit:10;stroke-dasharray:0.83687, 2.50064;stroke-dashoffset:0;stroke-opacity:1"
       transform="matrix(1.3333333,0,0,-1.3333333,-39.013333,-15.497333)" />
    <path
       id="path18"
       d="M 301.54478,-54.5743 H 264.44533"
       style="fill:none;stroke:#000000;stroke-width:0.74721;stroke-linecap:butt;stroke-linejoin:miter;stroke-miterlimit:10;stroke-dasharray:0.83687, 2.50064;stroke-dashoffset:0;stroke-opacity:1"
       transform="matrix(1.3333333,0,0,-1.3333333,-39.013333,-15.497333)" />
    <path
       id="path19"
       d="M 209.00275,-73.92688 295.38333,-91.067"
       style="fill:none;stroke:#000000;stroke-width:0.74721;stroke-linecap:butt;stroke-linejoin:miter;stroke-miterlimit:10;stroke-dasharray:4.48325, 4.48325;stroke-dashoffset:0;stroke-opacity:1"
       transform="matrix(1.3333333,0,0,-1.3333333,-39.013333,-15.497333)" />
    <path
       id="path20"
       d="m 289.94713,-91.58905 6.46137,0.31805 -5.8509,2.75998 z"
       style="fill:#000000;fill-opacity:1;fill-rule:nonzero;stroke:#000000;stroke-width:0.0797;stroke-linecap:butt;stroke-linejoin:miter;stroke-miterlimit:10;stroke-dasharray:none;stroke-opacity:0"
       transform="matrix(1.3333333,0,0,-1.3333333,-39.013333,-15.497333)" />
    <path
       id="path21"
       d="m 264.44533,-54.5743 31.27275,-35.9069"
       style="fill:none;stroke:#f5a623;stroke-width:0.74721;stroke-linecap:butt;stroke-linejoin:miter;stroke-miterlimit:10;stroke-dasharray:4.48325, 4.48325;stroke-dashoffset:0;stroke-opacity:1"
       transform="matrix(1.3333333,0,0,-1.3333333,-39.013333,-15.497333)" />
    <path
       id="path22"
       d="m 291.10277,-87.56912 5.30573,-3.70188 -2.93949,5.76317 z"
       style="fill:#f5a623;fill-opacity:1;fill-rule:nonzero;stroke:#000000;stroke-width:0.0797;stroke-linecap:butt;stroke-linejoin:miter;stroke-miterlimit:10;stroke-dasharray:none;stroke-opacity:0"
       transform="matrix(1.3333333,0,0,-1.3333333,-39.013333,-15.497333)" />
    <path
       id="path23"
       d="m 184.63419,-60.97635 c 0,22.98773 29.76115,41.62377 66.47354,41.62377 36.71238,0 66.47354,-18.63604 66.47354,-41.62377 0,-22.98773 -29.76116,-41.62376 -66.47354,-41.62376 -36.71239,0 -66.47354,18.63603 -66.47354,41.62376 z"
       style="fill:none;stroke:#000000;stroke-width:0.74721;stroke-linecap:butt;stroke-linejoin:miter;stroke-miterlimit:10;stroke-dasharray:none;stroke-opacity:1"
       transform="matrix(1.3333333,0,0,-1.3333333,-39.013333,-15.497333)" />
    <path
       id="path24"
       d="m 294.91782,-91.271 c 0,0.82119 0.66951,1.49068 1.49068,1.49068 0.82116,0 1.48542,-0.66949 1.48542,-1.49068 0,-0.82118 -0.66426,-1.48542 -1.48542,-1.48542 -0.82117,0 -1.49068,0.66424 -1.49068,1.48542 z"
       style="fill:#000000;fill-opacity:1;fill-rule:nonzero;stroke:#000000;stroke-width:0.74721;stroke-linecap:butt;stroke-linejoin:miter;stroke-miterlimit:10;stroke-dasharray:none;stroke-opacity:1"
       transform="matrix(1.3333333,0,0,-1.3333333,-39.013333,-15.497333)" />
    <path
       id="path25"
       d="m 39.95001,-44.63646 -2.63614,-1.93005 0.03663,3.26904 0.62763,-1.96666 z"
       style="fill:#000000;fill-opacity:1;fill-rule:nonzero;stroke:#000000;stroke-width:0.74721;stroke-linecap:butt;stroke-linejoin:miter;stroke-miterlimit:10;stroke-dasharray:none;stroke-opacity:1"
       transform="matrix(1.3333333,0,0,-1.3333333,-39.013333,-15.497333)" />
    <path
       id="path26"
       d="m 191.9777,-43.93561 -2.63612,-1.93002 0.0366,3.26379 0.63288,-1.96664 1.96662,0.63287 z"
       style="fill:#000000;fill-opacity:1;fill-rule:nonzero;stroke:#000000;stroke-width:0.74721;stroke-linecap:butt;stroke-linejoin:miter;stroke-miterlimit:10;stroke-dasharray:none;stroke-opacity:1"
       transform="matrix(1.3333333,0,0,-1.3333333,-39.013333,-15.497333)" />
    <path
       id="path27"
       d="m 222.968,-77.03899 c -1.42267,-6.40728 -7.1343,-11.19313 -13.96525,-11.19313 -7.89794,0 -14.30521,6.40206 -14.30521,14.30524 0,7.89795 6.40727,14.29999 14.30521,14.29999 7.79336,0 14.13263,-6.23467 14.30001,-13.98618 l -14.30001,-0.31381 z"
       style="fill:#9013fe;fill-opacity:0.18;fill-rule:nonzero;stroke:#000000;stroke-width:0.74721;stroke-linecap:butt;stroke-linejoin:miter;stroke-miterlimit:10;stroke-dasharray:none;stroke-opacity:0"
       transform="matrix(1.3333333,0,0,-1.3333333,-39.013333,-15.497333)" />
    <path
       id="path28"
       d="m 222.968,-77.03899 c -1.42267,-6.40728 -7.1343,-11.19313 -13.96525,-11.19313 -7.89794,0 -14.30521,6.40206 -14.30521,14.30524 0,7.89795 6.40727,14.29999 14.30521,14.29999 7.79336,0 14.13263,-6.23467 14.30001,-13.98618"
       style="fill:none;stroke:#000000;stroke-width:0.74721;stroke-linecap:butt;stroke-linejoin:miter;stroke-miterlimit:10;stroke-dasharray:none;stroke-opacity:1"
       transform="matrix(1.3333333,0,0,-1.3333333,-39.013333,-15.497333)" />
    <path
       id="path29"
       d="m 271.73654,-64.37613 c -2.03464,-1.51681 -4.56093,-2.41122 -7.29121,-2.41122 -6.74202,0 -12.21306,5.4658 -12.21306,12.21305 0,6.74202 5.47104,12.20783 12.21306,12.20783 6.6531,0 12.06659,-5.31935 12.20782,-11.94107 l -12.20782,-0.26676 z"
       style="fill:#f5a623;fill-opacity:0.16;fill-rule:nonzero;stroke:#000000;stroke-width:0.74721;stroke-linecap:butt;stroke-linejoin:miter;stroke-miterlimit:10;stroke-dasharray:none;stroke-opacity:0"
       transform="matrix(1.3333333,0,0,-1.3333333,-39.013333,-15.497333)" />
    <path
       id="path30"
       d="m 271.73654,-64.37613 c -2.03464,-1.51681 -4.56093,-2.41122 -7.29121,-2.41122 -6.74202,0 -12.21306,5.4658 -12.21306,12.21305 0,6.74202 5.47104,12.20783 12.21306,12.20783 6.6531,0 12.06659,-5.31935 12.20782,-11.94107"
       style="fill:none;stroke:#000000;stroke-width:0.74721;stroke-linecap:butt;stroke-linejoin:miter;stroke-miterlimit:10;stroke-dasharray:none;stroke-opacity:1"
       transform="matrix(1.3333333,0,0,-1.3333333,-39.013333,-15.497333)" />
    <path
       id="path31"
       d="m 3.7134297,-3.7605391 c -0.1757813,-0.375 -0.46875,-0.6445312 -0.9140625,-0.6445312 -1.171875,0 -2.40234376,1.4648437 -2.40234376,2.9179687 0,0.93750004 0.55078125,1.59375004 1.32421876,1.59375004 0.1992187,0 0.703125,-0.03515625 1.3007812,-0.73828125 0.070312,0.41015625 0.421875,0.73828125 0.9023438,0.73828125 0.3515625,0 0.5742187,-0.22265625 0.7382812,-0.5390625 0.1640625,-0.36328125 0.2929688,-0.97265624 0.2929688,-0.99609374 0,-0.09375 -0.082031,-0.09375 -0.1171875,-0.09375 -0.09375,0 -0.1054688,0.035156 -0.140625,0.1757812 -0.1640625,0.64453129 -0.3515625,1.24218754 -0.75,1.24218754 -0.2695313,0 -0.3046875,-0.2578125 -0.3046875,-0.45703125 0,-0.22265625 0.023437,-0.3046875 0.1289062,-0.73828129 0.1171875,-0.421875 0.1289063,-0.5273437 0.2226563,-0.9023437 l 0.3515625,-1.3945313 c 0.070312,-0.28125 0.070312,-0.2929687 0.070312,-0.3398437 0,-0.1640625 -0.1171875,-0.2695313 -0.28125,-0.2695313 -0.2460938,0 -0.3867188,0.2226563 -0.4218745,0.4453125 z m -0.6445313,2.578125 c -0.046875,0.1757813 -0.046875,0.19921879 -0.1992187,0.36328129 -0.4453125,0.55078125 -0.84375,0.71484375 -1.125,0.71484375 -0.5039063,0 -0.6445313,-0.55078125 -0.6445313,-0.93750004 0,-0.5039062 0.328125,-1.7226562 0.5507813,-2.1796875 0.3046875,-0.5976562 0.7617187,-0.9609375 1.1601562,-0.9609375 0.6445313,0 0.7851563,0.8203125 0.7851563,0.8789063 0,0.058594 -0.023437,0.1171875 -0.035156,0.1640625 z m 0,0"
       style="fill:#000000;fill-opacity:1;fill-rule:nonzero;stroke:none"
       aria-label="a"
       transform="matrix(1.3333333,0,0,1.3333333,40.302667,92.377333)" />
    <path
       id="path32"
       d="m 2.3788281,-6.81 c 0,0 0,-0.1054687 -0.1289062,-0.1054687 -0.2226563,0 -0.9492188,0.082031 -1.21875,0.1054687 -0.0703125,0 -0.18750003,0.011719 -0.18750003,0.1992188 0,0.1171875 0.09375,0.1171875 0.24609373,0.1171875 0.46875,0 0.4921875,0.070312 0.4921875,0.1640625 0,0.070312 -0.082031,0.4101562 -0.140625,0.6210937 l -0.80859373,3.2460938 c -0.12890625,0.5039062 -0.1640625,0.65625 -0.1640625,1.0078125 0,0.9492187 0.52734375,1.5585937 1.26562503,1.5585937 1.171875,0 2.4023437,-1.4765625 2.4023437,-2.9179687 0,-0.9023438 -0.5273437,-1.59375 -1.3242187,-1.59375 -0.4570313,0 -0.8671875,0.2929687 -1.171875,0.5976562 z m -0.9375,3.7734375 c 0.058594,-0.2226562 0.058594,-0.2460937 0.1523438,-0.3515625 0.4921875,-0.6445312 0.9375,-0.796875 1.1953125,-0.796875 0.3632812,0 0.6328125,0.2929688 0.6328125,0.9375 0,0.5859375 -0.328125,1.734375 -0.515625,2.109375 -0.328125,0.66796875 -0.7851563,1.03125 -1.171875,1.03125 -0.3398438,0 -0.6679688,-0.26953125 -0.6679688,-1.0078125 0,-0.1875 0,-0.3867187 0.1640625,-1.0078125 z m 0,0"
       style="fill:#000000;fill-opacity:1;fill-rule:nonzero;stroke:none"
       aria-label="b"
       transform="matrix(1.3333333,0,0,1.3333333,114.22667,70.08)" />
    <path
       id="path33"
       d="M 1.3232734,-0.83296875 C 1.8623359,-1.4071875 2.1553047,-1.6532812 2.5068672,-1.9579687 c 0,-0.011719 0.6210937,-0.5390625 0.984375,-0.9023438 0.9375,-0.9257812 1.1601562,-1.40625 1.1601562,-1.4414062 0,-0.1054688 -0.09375,-0.1054688 -0.1054687,-0.1054688 -0.070312,0 -0.1054688,0.023437 -0.1523438,0.1171875 -0.3046875,0.46875 -0.5039062,0.6328125 -0.75,0.6328125 -0.234375,0 -0.3515625,-0.1523437 -0.5039062,-0.3164062 -0.1875,-0.234375 -0.3632813,-0.4335938 -0.6914063,-0.4335938 -0.75,0 -1.2070312,0.9257813 -1.2070312,1.1367188 0,0.046875 0.035156,0.1171875 0.1171875,0.1171875 0.09375,0 0.1171875,-0.058594 0.140625,-0.1171875 0.1875,-0.4570313 0.7617187,-0.46875 0.84375,-0.46875 0.2109375,0 0.3984375,0.070312 0.6210937,0.1523437 0.3984375,0.1523438 0.515625,0.1523438 0.7734375,0.1523438 -0.3632812,0.421875 -1.1953125,1.1367187 -1.3828125,1.3007812 L 1.4521797,-1.3017187 C 0.77249219,-0.63375 0.43264844,-0.05953125 0.43264844,0.01078125 c 0,0.09375 0.09375,0.09375 0.1171875,0.09375 0.0820313,0 0.09375,-0.01171875 0.15234375,-0.12890625 0.234375,-0.33984375 0.52734371,-0.609375 0.85546871,-0.609375 0.2226563,0 0.328125,0.0820313 0.5742188,0.375 0.1640625,0.2109375 0.3515625,0.36328125 0.6328125,0.36328125 0.984375,0 1.5703125,-1.26562495 1.5703125,-1.53515625 0,-0.046875 -0.046875,-0.09375 -0.1171875,-0.09375 -0.09375,0 -0.1171875,0.058594 -0.140625,0.1289063 -0.234375,0.6445312 -0.8671875,0.8320312 -1.1953125,0.8320312 -0.1992188,0 -0.3867188,-0.0585938 -0.5859375,-0.12890625 -0.3398438,-0.12890625 -0.4921875,-0.1640625 -0.703125,-0.1640625 -0.023437,0 -0.1757813,0 -0.2695313,0.0234375 z m 0,0"
       style="fill:#000000;fill-opacity:1;fill-rule:nonzero;stroke:none"
       aria-label="z"
       transform="matrix(1.3333333,0,0,1.3333333,96.442667,6.72)" />
    <path
       id="path34"
       d="m 3.715,-3.7605391 c -0.1757812,-0.375 -0.46875,-0.6445312 -0.9140625,-0.6445312 -1.171875,0 -2.40234375,1.4648437 -2.40234375,2.9179687 0,0.93750004 0.55078125,1.59375004 1.32421875,1.59375004 0.1992188,0 0.703125,-0.03515625 1.3007813,-0.73828125 0.070312,0.41015625 0.421875,0.73828125 0.9023437,0.73828125 0.3515625,0 0.5742188,-0.22265625 0.7382813,-0.5390625 0.1640625,-0.36328125 0.2929687,-0.97265624 0.2929687,-0.99609374 0,-0.09375 -0.082031,-0.09375 -0.1171875,-0.09375 -0.09375,0 -0.1054687,0.035156 -0.140625,0.1757812 -0.1640625,0.64453129 -0.3515625,1.24218754 -0.75,1.24218754 -0.2695312,0 -0.3046875,-0.2578125 -0.3046875,-0.45703125 0,-0.22265625 0.023437,-0.3046875 0.1289063,-0.73828129 C 3.8907813,-1.7214766 3.9025,-1.8269453 3.99625,-2.2019453 l 0.3515625,-1.3945313 c 0.070312,-0.28125 0.070312,-0.2929687 0.070312,-0.3398437 0,-0.1640625 -0.1171875,-0.2695313 -0.28125,-0.2695313 -0.2460937,0 -0.3867187,0.2226563 -0.4218745,0.4453125 z m -0.6445312,2.578125 c -0.046875,0.1757813 -0.046875,0.19921879 -0.1992188,0.36328129 -0.4453125,0.55078125 -0.84375,0.71484375 -1.125,0.71484375 -0.5039062,0 -0.6445312,-0.55078125 -0.6445312,-0.93750004 0,-0.5039062 0.328125,-1.7226562 0.5507812,-2.1796875 0.3046875,-0.5976562 0.7617188,-0.9609375 1.1601563,-0.9609375 0.6445312,0 0.7851562,0.8203125 0.7851562,0.8789063 0,0.058594 -0.023437,0.1171875 -0.035156,0.1640625 z m 0,0"
       style="fill:#000000;fill-opacity:1;fill-rule:nonzero;stroke:none"
       aria-label="a"
       transform="matrix(1.3333333,0,0,1.3333333,242.54667,92.377333)" />
    <path
       id="path35"
       d="m 2.3784687,-6.81 c 0,0 0,-0.1054687 -0.1289062,-0.1054687 -0.2226563,0 -0.9492188,0.082031 -1.21875,0.1054687 -0.0703125,0 -0.1875,0.011719 -0.1875,0.1992188 0,0.1171875 0.09375,0.1171875 0.2460937,0.1171875 0.46875,0 0.4921875,0.070312 0.4921875,0.1640625 0,0.070312 -0.082031,0.4101562 -0.140625,0.6210937 L 0.632375,-2.4623437 c -0.12890625,0.5039062 -0.1640625,0.65625 -0.1640625,1.0078125 0,0.9492187 0.52734375,1.5585937 1.265625,1.5585937 1.171875,0 2.4023437,-1.4765625 2.4023437,-2.9179687 0,-0.9023438 -0.5273437,-1.59375 -1.3242187,-1.59375 -0.4570313,0 -0.8671875,0.2929687 -1.171875,0.5976562 z m -0.9375,3.7734375 C 1.4995625,-3.2592187 1.4995625,-3.2826562 1.5933125,-3.388125 2.0855,-4.0326562 2.5308125,-4.185 2.788625,-4.185 c 0.3632812,0 0.6328125,0.2929688 0.6328125,0.9375 0,0.5859375 -0.328125,1.734375 -0.515625,2.109375 -0.328125,0.66796875 -0.7851563,1.03125 -1.171875,1.03125 -0.3398438,0 -0.6679688,-0.26953125 -0.6679688,-1.0078125 0,-0.1875 0,-0.3867187 0.1640625,-1.0078125 z m 0,0"
       style="fill:#000000;fill-opacity:1;fill-rule:nonzero;stroke:none"
       aria-label="b"
       transform="matrix(1.3333333,0,0,1.3333333,316.46933,70.08)" />
    <path
       id="path36"
       d="M 1.325375,-0.83329687 C 1.8644375,-1.4075156 2.1574063,-1.6536094 2.5089688,-1.9582969 c 0,-0.011719 0.6210937,-0.5390625 0.984375,-0.9023437 0.9375,-0.9257813 1.1601562,-1.40625 1.1601562,-1.4414063 0,-0.1054687 -0.09375,-0.1054687 -0.1054687,-0.1054687 -0.070312,0 -0.1054688,0.023437 -0.1523438,0.1171875 -0.3046875,0.46875 -0.5039062,0.6328125 -0.75,0.6328125 -0.234375,0 -0.3515625,-0.1523438 -0.5039062,-0.3164063 -0.1875,-0.234375 -0.3632813,-0.4335937 -0.6914063,-0.4335937 -0.75,0 -1.2070312,0.9257812 -1.2070312,1.1367187 0,0.046875 0.035156,0.1171875 0.1171875,0.1171875 0.09375,0 0.1171875,-0.058594 0.140625,-0.1171875 0.1875,-0.4570312 0.7617187,-0.46875 0.84375,-0.46875 0.2109375,0 0.3984375,0.070312 0.6210937,0.1523438 0.3984375,0.1523437 0.515625,0.1523437 0.7734375,0.1523437 -0.3632812,0.421875 -1.1953125,1.1367188 -1.3828125,1.3007813 L 1.4542813,-1.3020469 C 0.77459375,-0.63407812 0.43475,-0.05985937 0.43475,0.01045313 c 0,0.09375 0.09375,0.09375 0.1171875,0.09375 0.0820313,0 0.09375,-0.01171875 0.15234375,-0.12890625 0.234375,-0.33984375 0.52734375,-0.609375 0.85546875,-0.609375 0.2226563,0 0.328125,0.0820313 0.5742188,0.375 0.1640625,0.2109375 0.3515625,0.36328125 0.6328125,0.36328125 0.984375,0 1.5703125,-1.26562503 1.5703125,-1.53515623 0,-0.046875 -0.046875,-0.09375 -0.1171875,-0.09375 -0.09375,0 -0.1171875,0.058594 -0.140625,0.1289062 -0.234375,0.64453128 -0.8671875,0.83203128 -1.1953125,0.83203128 -0.1992188,0 -0.3867188,-0.0585938 -0.5859375,-0.12890625 -0.3398438,-0.12890625 -0.4921875,-0.1640625 -0.703125,-0.1640625 -0.023437,0 -0.1757813,0 -0.2695313,0.0234375 z m 0,0"
       style="fill:#000000;fill-opacity:1;fill-rule:nonzero;stroke:none"
       aria-label="z"
       transform="matrix(1.3333333,0,0,1.3333333,359.04533,118.072)" />
  </g>
</svg>
