<?xml version="1.0" encoding="UTF-8" standalone="no"?>
<!-- Created with Inkscape (http://www.inkscape.org/) -->

<svg
   version="1.1"
   id="svg1"
   width="254.72"
   height="250.30667"
   viewBox="0 0 254.72 250.30667"
   xmlns="http://www.w3.org/2000/svg"
   xmlns:svg="http://www.w3.org/2000/svg">
  <defs
     id="defs1" />
  <g
     id="g1">
    <path
       id="path1"
       d="m 70.23752,-102.07602 h 186.98123 m -93.0423,92.36232 v -186.98123 m 87.81185,98.35495 5.23045,-3.73604 -5.23045,-3.73604 m -91.54789,90.86791 3.73604,5.23045 3.73604,-5.23045"
       style="fill:none;stroke:#000000;stroke-width:0.74721;stroke-linecap:butt;stroke-linejoin:miter;stroke-miterlimit:10;stroke-dasharray:none;stroke-opacity:1"
       transform="matrix(1.3333333,0,0,-1.3333333,-88.726667,-12.448)" />
    <path
       id="path2"
       d="m 227.40515,-102.07602 -31.61435,-54.76285 h -63.22871 l -31.61435,54.76285 31.61435,54.75537 h 63.22871 z"
       style="fill:none;stroke:#000000;stroke-width:0.74721;stroke-linecap:butt;stroke-linejoin:miter;stroke-miterlimit:10;stroke-dasharray:none;stroke-opacity:0.18"
       transform="matrix(1.3333333,0,0,-1.3333333,-88.726667,-12.448)" />
    <path
       id="path3"
       d="m 100.94774,-102.07602 c 0,34.91701 28.31169,63.22872 63.22871,63.22872 34.92449,0 63.2287,-28.31171 63.2287,-63.22872 0,-34.92448 -28.30421,-63.2287 -63.2287,-63.2287 -34.91702,0 -63.22871,28.30422 -63.22871,63.2287 z"
       style="fill:none;stroke:#000000;stroke-width:0.74721;stroke-linecap:butt;stroke-linejoin:miter;stroke-miterlimit:10;stroke-dasharray:none;stroke-opacity:1"
       transform="matrix(1.3333333,0,0,-1.3333333,-88.726667,-12.448)" />
    <path
       id="path4"
       d="m 193.45952,-47.32065 c 0,1.2852 1.0461,2.33129 2.33128,2.33129 1.29267,0 2.33876,-1.04609 2.33876,-2.33129 0,-1.28518 -1.04609,-2.33128 -2.33876,-2.33128 -1.28518,0 -2.33128,1.0461 -2.33128,2.33128 z"
       style="fill:#9013fe;fill-opacity:1;fill-rule:nonzero;stroke:#9013fe;stroke-width:0.74721;stroke-linecap:butt;stroke-linejoin:miter;stroke-miterlimit:10;stroke-dasharray:none;stroke-opacity:1"
       transform="matrix(1.3333333,0,0,-1.3333333,-88.726667,-12.448)" />
    <path
       id="path5"
       d="m 130.23079,-47.32065 c 0,1.2852 1.04611,2.33129 2.3313,2.33129 1.29268,0 2.3313,-1.04609 2.3313,-2.33129 0,-1.28518 -1.03862,-2.33128 -2.3313,-2.33128 -1.28519,0 -2.3313,1.0461 -2.3313,2.33128 z"
       style="fill:#9013fe;fill-opacity:1;fill-rule:nonzero;stroke:#9013fe;stroke-width:0.74721;stroke-linecap:butt;stroke-linejoin:miter;stroke-miterlimit:10;stroke-dasharray:none;stroke-opacity:1"
       transform="matrix(1.3333333,0,0,-1.3333333,-88.726667,-12.448)" />
    <path
       id="path6"
       d="m 98.61644,-102.07602 c 0,1.28519 1.04611,2.33128 2.3313,2.33128 1.29268,0 2.33128,-1.04609 2.33128,-2.33128 0,-1.29266 -1.0386,-2.33128 -2.33128,-2.33128 -1.28519,0 -2.3313,1.03862 -2.3313,2.33128 z"
       style="fill:#9013fe;fill-opacity:1;fill-rule:nonzero;stroke:#9013fe;stroke-width:0.74721;stroke-linecap:butt;stroke-linejoin:miter;stroke-miterlimit:10;stroke-dasharray:none;stroke-opacity:1"
       transform="matrix(1.3333333,0,0,-1.3333333,-88.726667,-12.448)" />
    <path
       id="path7"
       d="m 130.23079,-156.83887 c 0,1.29268 1.04611,2.33129 2.3313,2.33129 1.29268,0 2.3313,-1.03861 2.3313,-2.33129 0,-1.2852 -1.03862,-2.3313 -2.3313,-2.3313 -1.28519,0 -2.3313,1.0461 -2.3313,2.3313 z"
       style="fill:#9013fe;fill-opacity:1;fill-rule:nonzero;stroke:#9013fe;stroke-width:0.74721;stroke-linecap:butt;stroke-linejoin:miter;stroke-miterlimit:10;stroke-dasharray:none;stroke-opacity:1"
       transform="matrix(1.3333333,0,0,-1.3333333,-88.726667,-12.448)" />
    <path
       id="path8"
       d="m 193.45952,-156.83887 c 0,1.29268 1.0461,2.33129 2.33128,2.33129 1.29267,0 2.33876,-1.03861 2.33876,-2.33129 0,-1.2852 -1.04609,-2.3313 -2.33876,-2.3313 -1.28518,0 -2.33128,1.0461 -2.33128,2.3313 z"
       style="fill:#9013fe;fill-opacity:1;fill-rule:nonzero;stroke:#9013fe;stroke-width:0.74721;stroke-linecap:butt;stroke-linejoin:miter;stroke-miterlimit:10;stroke-dasharray:none;stroke-opacity:1"
       transform="matrix(1.3333333,0,0,-1.3333333,-88.726667,-12.448)" />
    <path
       id="path9"
       d="m 225.07387,-102.07602 c 0,1.28519 1.04609,2.33128 2.33128,2.33128 1.2927,0 2.33876,-1.04609 2.33876,-2.33128 0,-1.29266 -1.04606,-2.33128 -2.33876,-2.33128 -1.28519,0 -2.33128,1.03862 -2.33128,2.33128 z"
       style="fill:#9013fe;fill-opacity:1;fill-rule:nonzero;stroke:#9013fe;stroke-width:0.74721;stroke-linecap:butt;stroke-linejoin:miter;stroke-miterlimit:10;stroke-dasharray:none;stroke-opacity:1"
       transform="matrix(1.3333333,0,0,-1.3333333,-88.726667,-12.448)" />
    <path
       id="path10"
       d="m 2.9283203,-6.3737578 c 0,-0.234375 0,-0.2578125 -0.234375,-0.2578125 -0.609375,0.6328125 -1.4882812,0.6328125 -1.80468749,0.6328125 v 0.3164062 c 0.19921879,0 0.78515629,0 1.30078129,-0.2578125 v 5.15625004 c 0,0.3515625 -0.035156,0.48046875 -0.9257813,0.48046875 H 0.94785156 v 0.3046875 C 1.2994141,-0.03391406 2.1548828,-0.03391406 2.5533203,-0.03391406 c 0.3984375,0 1.265625,0 1.6171875,0.03515625 v -0.3046875 H 3.8541016 c -0.9023438,0 -0.9257813,-0.1171875 -0.9257813,-0.48046875 z m 0,0"
       style="fill:#000000;fill-opacity:1;fill-rule:nonzero;stroke:none"
       aria-label="1"
       transform="matrix(1.3333333,0,0,1.3333333,217.96667,137.096)" />
    <g
       id="g10"
       aria-label="e&#10;2πi&#10;5"
       transform="matrix(1.3333333,0,0,1.3333333,175.81467,214.22267)">
      <path
         id="path11"
         d="m 1.8645859,-2.2968828 c 0.2929688,0 1.03125,-0.023437 1.5234375,-0.234375 0.703125,-0.2929688 0.75,-0.890625 0.75,-1.0195313 0,-0.4453125 -0.3867187,-0.8554687 -1.0664062,-0.8554687 -1.1132813,0 -2.61328126,0.9726562 -2.61328126,2.7070312 0,1.01953129 0.58593746,1.80468754 1.57031246,1.80468754 1.4179688,0 2.2617188,-1.0546875 2.2617188,-1.17187504 0,-0.058594 -0.070312,-0.1289062 -0.1289063,-0.1289062 -0.046875,0 -0.070312,0.023437 -0.1289062,0.09375 -0.7851563,0.99609374 -1.875,0.99609374 -1.9921875,0.99609374 -0.7734375,0 -0.8671875,-0.84375 -0.8671875,-1.16015624 0,-0.1171875 0.011719,-0.4335938 0.1640625,-1.03125 z m -0.46875,-0.2226563 c 0.3867188,-1.5117187 1.4179688,-1.6640625 1.6757813,-1.6640625 0.46875,0 0.7382812,0.2929688 0.7382812,0.6328125 0,1.03125 -1.59375,1.03125 -2.0039062,1.03125 z m 0,0"
         style="fill:#000000;fill-opacity:1;fill-rule:nonzero;stroke:none" />
      <path
         id="path12"
         d="M 8.154625,-4.8808672 H 7.92025 c -0.023437,0.1523438 -0.082031,0.5625 -0.1757813,0.6328125 -0.058594,0.035156 -0.5976562,0.035156 -0.6914062,0.035156 H 5.764 c 0.7382812,-0.6445313 0.984375,-0.84375 1.3945312,-1.171875 0.515625,-0.4101563 0.9960938,-0.84375 0.9960938,-1.5 0,-0.84375 -0.7382813,-1.359375 -1.6289063,-1.359375 -0.8671875,0 -1.453125,0.609375 -1.453125,1.2421875 0,0.3632812 0.3046875,0.3984375 0.375,0.3984375 0.1640625,0 0.375,-0.1171875 0.375,-0.375 0,-0.1289063 -0.058594,-0.3632813 -0.421875,-0.3632813 0.2226563,-0.5039062 0.6914063,-0.65625 1.0195313,-0.65625 0.703125,0 1.0664062,0.5507813 1.0664062,1.1132813 0,0.609375 -0.4335937,1.0898437 -0.65625,1.3359375 l -1.6875,1.6640625 c -0.070312,0.058594 -0.070312,0.070312 -0.070312,0.2695312 h 2.8828125 z m 0,0"
         style="fill:#000000;fill-opacity:1;fill-rule:nonzero;stroke:none" />
      <path
         id="path13"
         d="m 10.776695,-6.1464922 h 0.832032 c -0.105469,0.421875 -0.257813,1.0546875 -0.257813,1.6054688 0,0.28125 0.03516,0.46875 0.07031,0.6210937 0.117187,0.3515625 0.210937,0.375 0.316406,0.375 0.164062,0 0.328125,-0.1523437 0.328125,-0.3164062 0,-0.058594 -0.01172,-0.082031 -0.05859,-0.1523438 -0.128906,-0.2578125 -0.257812,-0.65625 -0.257812,-1.2304687 0,-0.1289063 0,-0.4101563 0.105468,-0.9023438 h 0.867188 c 0.128906,0 0.1875,0 0.257812,-0.058594 0.09375,-0.070312 0.117188,-0.1757813 0.117188,-0.2109375 0,-0.1992188 -0.175781,-0.1992188 -0.292969,-0.1992188 h -2.63672 c -0.2812497,0 -0.4804684,0.058594 -0.7968747,0.3515625 -0.1757812,0.1640625 -0.4453125,0.5390625 -0.4453125,0.5976563 0,0.082031 0.09375,0.082031 0.1171875,0.082031 0.070312,0 0.082031,-0.011719 0.1289063,-0.070312 0.3515625,-0.4921875 0.7851562,-0.4921875 0.9375004,-0.4921875 h 0.421875 c -0.210938,0.7617188 -0.5859379,1.59375 -0.7968754,2.0039063 -0.046875,0.09375 -0.1171875,0.2460937 -0.140625,0.2695312 0,0.023437 -0.011719,0.058594 -0.011719,0.1054688 0,0.1054687 0.082031,0.2226562 0.2460938,0.2226562 0.2695316,0 0.3515626,-0.3164062 0.5156256,-0.9375 z m 4.998047,-1.828125 c 0,-0.1054687 -0.08203,-0.2578125 -0.28125,-0.2578125 -0.1875,0 -0.386719,0.1757813 -0.386719,0.375 0,0.1171875 0.08203,0.2695313 0.269532,0.2695313 0.210937,0 0.398437,-0.1992188 0.398437,-0.3867188 z m -1.429687,3.5390625 c -0.02344,0.09375 -0.05859,0.1757813 -0.05859,0.2929688 0,0.328125 0.28125,0.5976562 0.667969,0.5976562 0.691406,0 0.996093,-0.9609375 0.996093,-1.0664062 0,-0.09375 -0.08203,-0.09375 -0.105468,-0.09375 -0.105469,0 -0.105469,0.046875 -0.140625,0.1171875 -0.152344,0.5625 -0.457032,0.84375 -0.738282,0.84375 -0.140625,0 -0.175781,-0.082031 -0.175781,-0.2460938 0,-0.1523437 0.05859,-0.2929687 0.117188,-0.4453125 0.07031,-0.1875 0.140625,-0.375 0.222656,-0.5507812 0.05859,-0.1640625 0.316406,-0.8085938 0.339844,-0.890625 0.02344,-0.070312 0.04687,-0.1523438 0.04687,-0.2226563 0,-0.328125 -0.28125,-0.5859375 -0.667969,-0.5859375 -0.691406,0 -1.007813,0.9492188 -1.007813,1.0664063 0,0.082031 0.09375,0.082031 0.117188,0.082031 0.09375,0 0.105469,-0.035156 0.128906,-0.1054687 0.175781,-0.5976563 0.480469,-0.8554688 0.738281,-0.8554688 0.117188,0 0.175782,0.058594 0.175782,0.2460938 0,0.1640625 -0.03516,0.2695312 -0.210938,0.703125 z m 0,0"
         style="fill:#000000;fill-opacity:1;fill-rule:nonzero;stroke:none" />
      <path
         id="path14"
         d="m 18.505211,-9.0351641 c 0.269531,0.058594 0.492187,0.058594 0.550781,0.058594 0.339844,0 0.585938,-0.09375 0.714844,-0.1640625 0.117187,-0.058594 0.457031,-0.2695313 0.457031,-0.3867188 0,-0.070312 -0.05859,-0.082031 -0.07031,-0.082031 -0.01172,0 -0.02344,0 -0.07031,0.023437 -0.199219,0.070312 -0.503906,0.140625 -0.832031,0.140625 -0.28125,0 -0.5625,-0.058594 -0.820313,-0.140625 -0.05859,-0.023437 -0.07031,-0.023437 -0.07031,-0.023437 -0.07031,0 -0.07031,0.058594 -0.07031,0.140625 v 1.4882812 c 0,0.09375 0,0.1523438 0.09375,0.1523438 0.04687,0 0.05859,-0.011719 0.105469,-0.058594 0.1875,-0.2226562 0.445313,-0.328125 0.785156,-0.328125 0.292969,0 0.445313,0.1640625 0.515625,0.2695313 0.117188,0.1640625 0.140625,0.3867187 0.140625,0.6328125 0,0.2109375 -0.01172,0.4921875 -0.210937,0.6796875 -0.222656,0.234375 -0.503906,0.2460937 -0.621094,0.2460937 -0.316406,0 -0.679687,-0.140625 -0.84375,-0.4335937 0.210938,-0.011719 0.28125,-0.1640625 0.28125,-0.28125 0,-0.1523438 -0.117187,-0.28125 -0.28125,-0.28125 -0.105469,0 -0.269531,0.070312 -0.269531,0.2929687 0,0.4921875 0.46875,0.9023438 1.125,0.9023438 0.738281,0 1.347656,-0.4921875 1.347656,-1.1132813 0,-0.5625 -0.480469,-1.0898437 -1.171875,-1.0898437 -0.316406,0 -0.5625,0.082031 -0.785156,0.2460937 z m 0,0"
         style="fill:#000000;fill-opacity:1;fill-rule:nonzero;stroke:none" />
    </g>
    <path
       id="path15"
       d="m -121.012,86.699 h 3.39"
       style="fill:none;stroke:#000000;stroke-width:0.3387;stroke-linecap:butt;stroke-linejoin:miter;stroke-miterlimit:10;stroke-dasharray:none;stroke-opacity:1"
       transform="matrix(1.3333333,0,0,-1.3333333,360.54133,322.676)" />
    <path
       id="path16"
       d="m 0.92533594,-1.6297344 c 0,-0.234375 0.0117188,-0.6328125 0.18749996,-0.9492187 0.1523438,-0.2695313 0.46875,-0.5507813 0.9375,-0.5507813 0.09375,0 0.3164063,0.011719 0.46875,0.1289063 -0.082031,0.023437 -0.2109375,0.09375 -0.2109375,0.2695312 0,0.1523438 0.1171875,0.2578125 0.2578125,0.2578125 0.09375,0 0.2695313,-0.046875 0.2695313,-0.28125 0,-0.2695312 -0.1875,-0.5625 -0.796875,-0.5625 -0.8554688,0 -1.64062501,0.703125 -1.64062501,1.734375 0,1.18359378 0.5859375,1.68750003 1.31250001,1.68750003 0.4921875,0 0.7265625,-0.17578125 0.890625,-0.31640625 0.3164062,-0.26953125 0.3867187,-0.5625 0.3867187,-0.80859378 0,-0.3046875 -0.09375,-0.5507812 -0.3632812,-0.7734375 -0.2109375,-0.1992187 -0.4453125,-0.3398437 -0.8789063,-0.3398437 -0.28125,0 -0.609375,0.140625 -0.82031246,0.5039062 z m 0.78515626,1.53515628 c -0.77343751,0 -0.77343751,-0.83203125 -0.77343751,-1.03124998 0,-0.3867188 0.28125001,-0.8320313 0.79687501,-0.8320313 0.2578125,0 0.421875,0.058594 0.5742187,0.2578125 0.1523438,0.1875 0.1523438,0.3984375 0.1523438,0.6679688 0,0.29296873 0,0.48046873 -0.1640625,0.67968748 -0.140625,0.1640625 -0.3046875,0.2578125 -0.5859375,0.2578125 z m 0,0"
       style="fill:#000000;fill-opacity:1;fill-rule:nonzero;stroke:none"
       aria-label="6"
       transform="matrix(1.3333333,0,0,1.3333333,199.192,212.60267)" />
    <g
       id="g16"
       aria-label="e&#10;2πi&#10;4"
       transform="matrix(1.3333333,0,0,1.3333333,54.378667,214.22267)">
      <path
         id="path17"
         d="m 1.8634609,-2.2968828 c 0.2929688,0 1.03125,-0.023437 1.5234375,-0.234375 0.703125,-0.2929688 0.75,-0.890625 0.75,-1.0195313 0,-0.4453125 -0.3867187,-0.8554687 -1.0664062,-0.8554687 -1.1132813,0 -2.61328126,0.9726562 -2.61328126,2.7070312 0,1.01953129 0.58593746,1.80468754 1.57031246,1.80468754 1.4179688,0 2.2617188,-1.0546875 2.2617188,-1.17187504 0,-0.058594 -0.070312,-0.1289062 -0.1289063,-0.1289062 -0.046875,0 -0.070312,0.023437 -0.1289062,0.09375 -0.7851563,0.99609374 -1.875,0.99609374 -1.9921875,0.99609374 -0.7734375,0 -0.8671875,-0.84375 -0.8671875,-1.16015624 0,-0.1171875 0.011719,-0.4335938 0.1640625,-1.03125 z m -0.46875,-0.2226563 c 0.3867188,-1.5117187 1.4179688,-1.6640625 1.6757813,-1.6640625 0.46875,0 0.7382812,0.2929688 0.7382812,0.6328125 0,1.03125 -1.59375,1.03125 -2.0039062,1.03125 z m 0,0"
         style="fill:#000000;fill-opacity:1;fill-rule:nonzero;stroke:none" />
      <path
         id="path18"
         d="M 8.1535,-4.8808672 H 7.919125 c -0.023437,0.1523438 -0.082031,0.5625 -0.1757813,0.6328125 -0.058594,0.035156 -0.5976562,0.035156 -0.6914062,0.035156 H 5.762875 c 0.7382812,-0.6445313 0.984375,-0.84375 1.3945312,-1.171875 0.515625,-0.4101563 0.9960938,-0.84375 0.9960938,-1.5 0,-0.84375 -0.7382813,-1.359375 -1.6289063,-1.359375 -0.8671875,0 -1.453125,0.609375 -1.453125,1.2421875 0,0.3632812 0.3046875,0.3984375 0.375,0.3984375 0.1640625,0 0.375,-0.1171875 0.375,-0.375 0,-0.1289063 -0.058594,-0.3632813 -0.421875,-0.3632813 C 5.62225,-7.8457112 6.091,-7.998055 6.419125,-7.998055 c 0.703125,0 1.0664062,0.5507813 1.0664062,1.1132813 0,0.609375 -0.4335937,1.0898437 -0.65625,1.3359375 l -1.6875,1.6640625 c -0.070312,0.058594 -0.070312,0.070312 -0.070312,0.2695312 h 2.8828125 z m 0,0"
         style="fill:#000000;fill-opacity:1;fill-rule:nonzero;stroke:none" />
      <path
         id="path19"
         d="m 10.7785,-6.1464922 h 0.832031 c -0.105469,0.421875 -0.257812,1.0546875 -0.257812,1.6054688 0,0.28125 0.03516,0.46875 0.07031,0.6210937 0.117188,0.3515625 0.210938,0.375 0.316406,0.375 0.164063,0 0.328125,-0.1523437 0.328125,-0.3164062 0,-0.058594 -0.01172,-0.082031 -0.05859,-0.1523438 -0.128907,-0.2578125 -0.257813,-0.65625 -0.257813,-1.2304687 0,-0.1289063 0,-0.4101563 0.105469,-0.9023438 h 0.867187 c 0.128907,0 0.1875,0 0.257813,-0.058594 0.09375,-0.070312 0.117187,-0.1757813 0.117187,-0.2109375 0,-0.1992188 -0.175781,-0.1992188 -0.292968,-0.1992188 h -2.636719 c -0.28125,0 -0.4804688,0.058594 -0.796875,0.3515625 -0.1757813,0.1640625 -0.4453125,0.5390625 -0.4453125,0.5976563 0,0.082031 0.09375,0.082031 0.1171875,0.082031 0.070312,0 0.082031,-0.011719 0.1289062,-0.070312 0.3515625,-0.4921875 0.7851563,-0.4921875 0.9374998,-0.4921875 h 0.421875 c -0.210937,0.7617188 -0.5859373,1.59375 -0.7968748,2.0039063 -0.046875,0.09375 -0.1171875,0.2460937 -0.140625,0.2695312 0,0.023437 -0.011719,0.058594 -0.011719,0.1054688 0,0.1054687 0.082031,0.2226562 0.2460937,0.2226562 0.2695311,0 0.3515631,-0.3164062 0.5156251,-0.9375 z m 4.995117,-1.828125 c 0,-0.1054687 -0.08203,-0.2578125 -0.28125,-0.2578125 -0.1875,0 -0.386719,0.1757813 -0.386719,0.375 0,0.1171875 0.08203,0.2695313 0.269532,0.2695313 0.210937,0 0.398437,-0.1992188 0.398437,-0.3867188 z m -1.429687,3.5390625 c -0.02344,0.09375 -0.05859,0.1757813 -0.05859,0.2929688 0,0.328125 0.28125,0.5976562 0.667969,0.5976562 0.691406,0 0.996093,-0.9609375 0.996093,-1.0664062 0,-0.09375 -0.08203,-0.09375 -0.105468,-0.09375 -0.105469,0 -0.105469,0.046875 -0.140625,0.1171875 -0.152344,0.5625 -0.457032,0.84375 -0.738282,0.84375 -0.140625,0 -0.175781,-0.082031 -0.175781,-0.2460938 0,-0.1523437 0.05859,-0.2929687 0.117188,-0.4453125 0.07031,-0.1875 0.140625,-0.375 0.222656,-0.5507812 0.05859,-0.1640625 0.316406,-0.8085938 0.339844,-0.890625 0.02344,-0.070312 0.04687,-0.1523438 0.04687,-0.2226563 0,-0.328125 -0.28125,-0.5859375 -0.667969,-0.5859375 -0.691406,0 -1.007813,0.9492188 -1.007813,1.0664063 0,0.082031 0.09375,0.082031 0.117188,0.082031 0.09375,0 0.105469,-0.035156 0.128906,-0.1054687 0.175781,-0.5976563 0.480469,-0.8554688 0.738281,-0.8554688 0.117188,0 0.175782,0.058594 0.175782,0.2460938 0,0.1640625 -0.03516,0.2695312 -0.210938,0.703125 z m 0,0"
         style="fill:#000000;fill-opacity:1;fill-rule:nonzero;stroke:none" />
      <path
         id="path20"
         d="m 20.604672,-7.1015703 v -0.2226563 h -0.621094 v -2.1914062 c 0,-0.1171875 0,-0.1523438 -0.128906,-0.1523438 -0.105469,0 -0.105469,0.011719 -0.164063,0.082031 l -1.839843,2.2617187 v 0.2226563 h 1.652343 v 0.3867187 c 0,0.1523438 0,0.1992188 -0.433593,0.1992188 h -0.175782 v 0.2226562 c 0.234375,-0.011719 0.5625,-0.023437 0.855469,-0.023437 0.28125,0 0.609375,0.011719 0.84375,0.023437 v -0.2226562 h -0.175781 c -0.433594,0 -0.433594,-0.046875 -0.433594,-0.1992188 v -0.3867187 z m -1.054688,-2.0273438 v 1.8046875 h -1.464843 z m 0,0"
         style="fill:#000000;fill-opacity:1;fill-rule:nonzero;stroke:none" />
    </g>
    <path
       id="path21"
       d="m -121.012,86.699 h 3.39"
       style="fill:none;stroke:#000000;stroke-width:0.3387;stroke-linecap:butt;stroke-linejoin:miter;stroke-miterlimit:10;stroke-dasharray:none;stroke-opacity:1"
       transform="matrix(1.3333333,0,0,-1.3333333,239.10533,322.676)" />
    <path
       id="path22"
       d="m 0.92714063,-1.6297344 c 0,-0.234375 0.0117188,-0.6328125 0.18749997,-0.9492187 0.1523438,-0.2695313 0.46875,-0.5507813 0.9375,-0.5507813 0.09375,0 0.3164063,0.011719 0.46875,0.1289063 -0.082031,0.023437 -0.2109375,0.09375 -0.2109375,0.2695312 0,0.1523438 0.1171875,0.2578125 0.2578125,0.2578125 0.09375,0 0.2695313,-0.046875 0.2695313,-0.28125 0,-0.2695312 -0.1875,-0.5625 -0.796875,-0.5625 -0.8554688,0 -1.64062502,0.703125 -1.64062502,1.734375 0,1.18359378 0.5859375,1.68750003 1.31250002,1.68750003 0.4921875,0 0.7265625,-0.17578125 0.890625,-0.31640625 0.3164062,-0.26953125 0.3867187,-0.5625 0.3867187,-0.80859378 0,-0.3046875 -0.09375,-0.5507812 -0.3632812,-0.7734375 -0.2109375,-0.1992187 -0.4453125,-0.3398437 -0.8789063,-0.3398437 -0.28125,0 -0.609375,0.140625 -0.82031247,0.5039062 z m 0.78515627,1.53515628 c -0.77343752,0 -0.77343752,-0.83203125 -0.77343752,-1.03124998 0,-0.3867188 0.28125002,-0.8320313 0.79687502,-0.8320313 0.2578125,0 0.421875,0.058594 0.5742187,0.2578125 0.1523438,0.1875 0.1523438,0.3984375 0.1523438,0.6679688 0,0.29296873 0,0.48046873 -0.1640625,0.67968748 -0.140625,0.1640625 -0.3046875,0.2578125 -0.5859375,0.2578125 z m 0,0"
       style="fill:#000000;fill-opacity:1;fill-rule:nonzero;stroke:none"
       aria-label="6"
       transform="matrix(1.3333333,0,0,1.3333333,77.756,212.60267)" />
    <g
       id="g22"
       aria-label="e&#10;2πi&#10;3"
       transform="matrix(1.3333333,0,0,1.3333333,12.226667,141.20533)">
      <path
         id="path23"
         d="m 1.8632031,-2.2956016 c 0.2929688,0 1.03125,-0.023437 1.5234375,-0.234375 0.703125,-0.2929687 0.75,-0.890625 0.75,-1.0195312 0,-0.4453125 -0.3867187,-0.8554688 -1.0664062,-0.8554688 -1.1132813,0 -2.61328128,0.9726563 -2.61328128,2.7070313 0,1.01953124 0.58593748,1.80468749 1.57031248,1.80468749 1.4179688,0 2.2617188,-1.0546875 2.2617188,-1.17187499 0,-0.058594 -0.070312,-0.1289063 -0.1289063,-0.1289063 -0.046875,0 -0.070312,0.023437 -0.1289062,0.09375 -0.7851563,0.99609379 -1.875,0.99609379 -1.9921875,0.99609379 -0.7734375,0 -0.8671875,-0.84375 -0.8671875,-1.16015629 0,-0.1171875 0.011719,-0.4335937 0.1640625,-1.03125 z m -0.46875,-0.2226562 c 0.3867188,-1.5117188 1.4179688,-1.6640625 1.6757813,-1.6640625 0.46875,0 0.7382812,0.2929687 0.7382812,0.6328125 0,1.03125 -1.59375,1.03125 -2.0039062,1.03125 z m 0,0"
         style="fill:#000000;fill-opacity:1;fill-rule:nonzero;stroke:none" />
      <path
         id="path24"
         d="m 8.1532422,-4.8795859 h -0.234375 c -0.023437,0.1523437 -0.082031,0.5625 -0.1757813,0.6328125 -0.058594,0.035156 -0.5976562,0.035156 -0.6914062,0.035156 H 5.7626172 c 0.7382812,-0.6445312 0.984375,-0.84375 1.3945312,-1.171875 0.515625,-0.4101562 0.9960938,-0.84375 0.9960938,-1.5 0,-0.84375 -0.7382813,-1.359375 -1.6289063,-1.359375 -0.8671875,0 -1.453125,0.609375 -1.453125,1.2421875 0,0.3632813 0.3046875,0.3984375 0.375,0.3984375 0.1640625,0 0.375,-0.1171875 0.375,-0.375 0,-0.1289062 -0.058594,-0.3632812 -0.421875,-0.3632812 0.2226563,-0.5039063 0.6914063,-0.65625 1.0195313,-0.65625 0.703125,0 1.0664062,0.5507812 1.0664062,1.1132812 0,0.609375 -0.4335937,1.0898438 -0.65625,1.3359375 l -1.6875,1.6640625 c -0.070312,0.058594 -0.070312,0.070312 -0.070312,0.2695313 h 2.8828125 z m 0,0"
         style="fill:#000000;fill-opacity:1;fill-rule:nonzero;stroke:none" />
      <path
         id="path25"
         d="m 10.778242,-6.1452109 h 0.832031 c -0.105468,0.421875 -0.257812,1.0546875 -0.257812,1.6054687 0,0.28125 0.03516,0.46875 0.07031,0.6210938 0.117188,0.3515625 0.210938,0.375 0.316407,0.375 0.164062,0 0.328125,-0.1523438 0.328125,-0.3164063 0,-0.058594 -0.01172,-0.082031 -0.05859,-0.1523437 -0.128906,-0.2578125 -0.257813,-0.65625 -0.257813,-1.2304688 0,-0.1289062 0,-0.4101562 0.105469,-0.9023437 h 0.867188 c 0.128906,0 0.1875,0 0.257812,-0.058594 0.09375,-0.070312 0.117188,-0.1757812 0.117188,-0.2109375 0,-0.1992187 -0.175782,-0.1992187 -0.292969,-0.1992187 h -2.636719 c -0.2812498,0 -0.4804686,0.058594 -0.7968748,0.3515625 -0.1757813,0.1640625 -0.4453125,0.5390625 -0.4453125,0.5976562 0,0.082031 0.09375,0.082031 0.1171875,0.082031 0.070312,0 0.082031,-0.011719 0.1289062,-0.070312 0.3515625,-0.4921875 0.7851563,-0.4921875 0.9374996,-0.4921875 h 0.421875 c -0.210937,0.7617187 -0.5859371,1.59375 -0.7968746,2.0039062 -0.046875,0.09375 -0.1171875,0.2460938 -0.140625,0.2695313 0,0.023437 -0.011719,0.058594 -0.011719,0.1054687 0,0.1054688 0.082031,0.2226563 0.2460937,0.2226563 0.2695319,0 0.3515629,-0.3164063 0.5156249,-0.9375 z m 4.995117,-1.828125 c 0,-0.1054688 -0.08203,-0.2578125 -0.28125,-0.2578125 -0.1875,0 -0.386718,0.1757812 -0.386718,0.375 0,0.1171875 0.08203,0.2695312 0.269531,0.2695312 0.210937,0 0.398437,-0.1992187 0.398437,-0.3867187 z m -1.429687,3.5390625 c -0.02344,0.09375 -0.05859,0.1757812 -0.05859,0.2929687 0,0.328125 0.28125,0.5976563 0.667969,0.5976563 0.691406,0 0.996094,-0.9609375 0.996094,-1.0664063 0,-0.09375 -0.08203,-0.09375 -0.105469,-0.09375 -0.105469,0 -0.105469,0.046875 -0.140625,0.1171875 -0.152344,0.5625 -0.457031,0.84375 -0.738281,0.84375 -0.140625,0 -0.175782,-0.082031 -0.175782,-0.2460937 0,-0.1523438 0.05859,-0.2929688 0.117188,-0.4453125 0.07031,-0.1875 0.140625,-0.375 0.222656,-0.5507813 0.05859,-0.1640625 0.316406,-0.8085937 0.339844,-0.890625 0.02344,-0.070312 0.04687,-0.1523437 0.04687,-0.2226562 0,-0.328125 -0.28125,-0.5859375 -0.667969,-0.5859375 -0.691406,0 -1.007812,0.9492187 -1.007812,1.0664062 0,0.082031 0.09375,0.082031 0.117187,0.082031 0.09375,0 0.105469,-0.035156 0.128906,-0.1054688 0.175782,-0.5976562 0.480469,-0.8554687 0.738282,-0.8554687 0.117187,0 0.175781,0.058594 0.175781,0.2460937 0,0.1640625 -0.03516,0.2695313 -0.210938,0.703125 z m 0,0"
         style="fill:#000000;fill-opacity:1;fill-rule:nonzero;stroke:none" />
      <path
         id="path26"
         d="m 19.174727,-7.9440391 c 0.457031,0 0.761718,0.2929688 0.761718,0.7851563 0,0.5039062 -0.304687,0.7734375 -0.75,0.7734375 -0.05859,0 -0.65625,0 -0.902343,-0.2578125 0.199218,-0.035156 0.257812,-0.1875 0.257812,-0.3046875 0,-0.1875 -0.140625,-0.3046875 -0.304687,-0.3046875 -0.152344,0 -0.304688,0.1054687 -0.304688,0.3164062 0,0.515625 0.585938,0.75 1.265625,0.75 0.820313,0 1.324219,-0.4921875 1.324219,-0.9726562 0,-0.4101563 -0.363281,-0.7617188 -0.925781,-0.890625 0.597656,-0.1875 0.75,-0.5625 0.75,-0.84375 0,-0.4101563 -0.503907,-0.7148438 -1.136719,-0.7148438 -0.609375,0 -1.101563,0.2578125 -1.101563,0.703125 0,0.234375 0.1875,0.2929688 0.28125,0.2929688 0.140625,0 0.28125,-0.1054688 0.28125,-0.28125 0,-0.1171875 -0.05859,-0.2578125 -0.234375,-0.28125 0.210938,-0.234375 0.65625,-0.2460938 0.761719,-0.2460938 0.363281,0 0.621094,0.1875 0.621094,0.5273438 0,0.28125 -0.1875,0.7382812 -0.714844,0.7734375 -0.140625,0 -0.152344,0 -0.28125,0.011719 -0.05859,0 -0.117187,0.011719 -0.117187,0.082031 0,0.082031 0.05859,0.082031 0.140625,0.082031 z m 0,0"
         style="fill:#000000;fill-opacity:1;fill-rule:nonzero;stroke:none" />
    </g>
    <path
       id="path27"
       d="m -121.012,86.699 h 3.39"
       style="fill:none;stroke:#000000;stroke-width:0.3387;stroke-linecap:butt;stroke-linejoin:miter;stroke-miterlimit:10;stroke-dasharray:none;stroke-opacity:1"
       transform="matrix(1.3333333,0,0,-1.3333333,196.95333,249.65867)" />
    <path
       id="path28"
       d="m 0.92688281,-1.6284531 c 0,-0.234375 0.0117188,-0.6328125 0.18749999,-0.9492188 0.1523438,-0.2695312 0.46875,-0.5507812 0.9375,-0.5507812 0.09375,0 0.3164063,0.011719 0.46875,0.1289062 -0.082031,0.023437 -0.2109375,0.09375 -0.2109375,0.2695313 0,0.1523437 0.1171875,0.2578125 0.2578125,0.2578125 0.09375,0 0.2695313,-0.046875 0.2695313,-0.28125 0,-0.2695313 -0.1875,-0.5625 -0.796875,-0.5625 -0.8554688,0 -1.64062504,0.703125 -1.64062504,1.734375 0,1.18359373 0.5859375,1.68749998 1.31250004,1.68749998 0.4921875,0 0.7265625,-0.17578125 0.890625,-0.31640625 0.3164062,-0.26953125 0.3867187,-0.5625 0.3867187,-0.80859373 0,-0.3046875 -0.09375,-0.5507813 -0.3632812,-0.7734375 -0.2109375,-0.1992188 -0.4453125,-0.3398438 -0.8789063,-0.3398438 -0.28125,0 -0.609375,0.140625 -0.82031249,0.5039063 z m 0.78515629,1.53515623 c -0.77343754,0 -0.77343754,-0.83203125 -0.77343754,-1.03125003 0,-0.3867187 0.28125004,-0.8320312 0.79687504,-0.8320312 0.2578125,0 0.421875,0.058594 0.5742187,0.2578125 0.1523438,0.1875 0.1523438,0.3984375 0.1523438,0.6679687 0,0.29296878 0,0.48046878 -0.1640625,0.67968753 -0.140625,0.1640625 -0.3046875,0.2578125 -0.5859375,0.2578125 z m 0,0"
       style="fill:#000000;fill-opacity:1;fill-rule:nonzero;stroke:none"
       aria-label="6"
       transform="matrix(1.3333333,0,0,1.3333333,35.604,139.58533)" />
    <g
       id="g28"
       aria-label="e&#10;2πi&#10;2"
       transform="matrix(1.3333333,0,0,1.3333333,54.378667,45.764)">
      <path
         id="path29"
         d="m 1.8634609,-2.2956562 c 0.2929688,0 1.03125,-0.023437 1.5234375,-0.234375 0.703125,-0.2929688 0.75,-0.890625 0.75,-1.0195313 0,-0.4453125 -0.3867187,-0.8554687 -1.0664062,-0.8554687 -1.1132813,0 -2.61328126,0.9726562 -2.61328126,2.7070312 0,1.01953125 0.58593746,1.8046875 1.57031246,1.8046875 1.4179688,0 2.2617188,-1.0546875 2.2617188,-1.171875 0,-0.058594 -0.070312,-0.1289062 -0.1289063,-0.1289062 -0.046875,0 -0.070312,0.023437 -0.1289062,0.09375 -0.7851563,0.9960937 -1.875,0.9960937 -1.9921875,0.9960937 -0.7734375,0 -0.8671875,-0.84375 -0.8671875,-1.1601562 0,-0.1171875 0.011719,-0.4335938 0.1640625,-1.03125 z m -0.46875,-0.2226563 c 0.3867188,-1.5117187 1.4179688,-1.6640625 1.6757813,-1.6640625 0.46875,0 0.7382812,0.2929688 0.7382812,0.6328125 0,1.03125 -1.59375,1.03125 -2.0039062,1.03125 z m 0,0"
         style="fill:#000000;fill-opacity:1;fill-rule:nonzero;stroke:none" />
      <path
         id="path30"
         d="M 8.1535,-4.8796406 H 7.919125 c -0.023437,0.1523437 -0.082031,0.5625 -0.1757813,0.6328125 -0.058594,0.035156 -0.5976562,0.035156 -0.6914062,0.035156 H 5.762875 c 0.7382812,-0.6445312 0.984375,-0.84375 1.3945312,-1.171875 0.515625,-0.4101562 0.9960938,-0.84375 0.9960938,-1.5 0,-0.84375 -0.7382813,-1.359375 -1.6289063,-1.359375 -0.8671875,0 -1.453125,0.609375 -1.453125,1.2421875 0,0.3632813 0.3046875,0.3984375 0.375,0.3984375 0.1640625,0 0.375,-0.1171875 0.375,-0.375 0,-0.1289062 -0.058594,-0.3632812 -0.421875,-0.3632812 0.2226563,-0.5039063 0.6914063,-0.65625 1.0195313,-0.65625 0.703125,0 1.0664062,0.5507812 1.0664062,1.1132812 0,0.609375 -0.4335937,1.0898438 -0.65625,1.3359375 l -1.6875,1.6640625 c -0.070312,0.058594 -0.070312,0.070312 -0.070312,0.2695313 h 2.8828125 z m 0,0"
         style="fill:#000000;fill-opacity:1;fill-rule:nonzero;stroke:none" />
      <path
         id="path31"
         d="m 10.7785,-6.1452656 h 0.832031 c -0.105469,0.421875 -0.257812,1.0546875 -0.257812,1.6054687 0,0.28125 0.03516,0.46875 0.07031,0.6210938 0.117188,0.3515625 0.210938,0.375 0.316406,0.375 0.164063,0 0.328125,-0.1523438 0.328125,-0.3164063 0,-0.058594 -0.01172,-0.082031 -0.05859,-0.1523437 -0.128907,-0.2578125 -0.257813,-0.65625 -0.257813,-1.2304688 0,-0.1289062 0,-0.4101562 0.105469,-0.9023437 h 0.867187 c 0.128907,0 0.1875,0 0.257813,-0.058594 0.09375,-0.070312 0.117187,-0.1757812 0.117187,-0.2109375 0,-0.1992187 -0.175781,-0.1992187 -0.292968,-0.1992187 h -2.636719 c -0.28125,0 -0.4804688,0.058594 -0.796875,0.3515625 -0.1757813,0.1640625 -0.4453125,0.5390625 -0.4453125,0.5976562 0,0.082031 0.09375,0.082031 0.1171875,0.082031 0.070312,0 0.082031,-0.011719 0.1289062,-0.070312 0.3515625,-0.4921875 0.7851563,-0.4921875 0.9374998,-0.4921875 h 0.421875 c -0.210937,0.7617187 -0.5859373,1.59375 -0.7968748,2.0039062 -0.046875,0.09375 -0.1171875,0.2460938 -0.140625,0.2695313 0,0.023437 -0.011719,0.058594 -0.011719,0.1054687 0,0.1054688 0.082031,0.2226563 0.2460937,0.2226563 0.2695311,0 0.3515631,-0.3164063 0.5156251,-0.9375 z m 4.995117,-1.828125 c 0,-0.1054688 -0.08203,-0.2578125 -0.28125,-0.2578125 -0.1875,0 -0.386719,0.1757812 -0.386719,0.375 0,0.1171875 0.08203,0.2695312 0.269532,0.2695312 0.210937,0 0.398437,-0.1992187 0.398437,-0.3867187 z m -1.429687,3.5390625 c -0.02344,0.09375 -0.05859,0.1757812 -0.05859,0.2929687 0,0.328125 0.28125,0.5976563 0.667969,0.5976563 0.691406,0 0.996093,-0.9609375 0.996093,-1.0664063 0,-0.09375 -0.08203,-0.09375 -0.105468,-0.09375 -0.105469,0 -0.105469,0.046875 -0.140625,0.1171875 -0.152344,0.5625 -0.457032,0.84375 -0.738282,0.84375 -0.140625,0 -0.175781,-0.082031 -0.175781,-0.2460937 0,-0.1523438 0.05859,-0.2929688 0.117188,-0.4453125 0.07031,-0.1875 0.140625,-0.375 0.222656,-0.5507813 0.05859,-0.1640625 0.316406,-0.8085937 0.339844,-0.890625 0.02344,-0.070312 0.04687,-0.1523437 0.04687,-0.2226562 0,-0.328125 -0.28125,-0.5859375 -0.667969,-0.5859375 -0.691406,0 -1.007813,0.9492187 -1.007813,1.0664062 0,0.082031 0.09375,0.082031 0.117188,0.082031 0.09375,0 0.105469,-0.035156 0.128906,-0.1054688 0.175781,-0.5976562 0.480469,-0.8554687 0.738281,-0.8554687 0.117188,0 0.175782,0.058594 0.175782,0.2460937 0,0.1640625 -0.03516,0.2695313 -0.210938,0.703125 z m 0,0"
         style="fill:#000000;fill-opacity:1;fill-rule:nonzero;stroke:none" />
      <path
         id="path32"
         d="m 20.464047,-7.2526875 h -0.210938 c -0.01172,0.09375 -0.05859,0.3984375 -0.140625,0.4570313 -0.03516,0.023437 -0.457031,0.023437 -0.527343,0.023437 h -0.984375 c 0.328125,-0.2460938 0.703125,-0.515625 0.996093,-0.7148438 0.457032,-0.3164062 0.867188,-0.5976562 0.867188,-1.125 0,-0.6445312 -0.597656,-0.9960937 -1.3125,-0.9960937 -0.667969,0 -1.160156,0.3867187 -1.160156,0.8789062 0,0.2578125 0.210937,0.3046875 0.28125,0.3046875 0.140625,0 0.292968,-0.09375 0.292968,-0.2929687 0,-0.1875 -0.128906,-0.28125 -0.28125,-0.2929688 0.140625,-0.234375 0.433594,-0.375 0.761719,-0.375 0.480469,0 0.890625,0.28125 0.890625,0.7734375 0,0.421875 -0.292969,0.7382813 -0.679687,1.0546875 l -1.207032,1.03125 c -0.04687,0.046875 -0.05859,0.046875 -0.05859,0.082031 V -6.29175 h 2.308593 z m 0,0"
         style="fill:#000000;fill-opacity:1;fill-rule:nonzero;stroke:none" />
    </g>
    <path
       id="path33"
       d="m -121.012,86.699 h 3.39"
       style="fill:none;stroke:#000000;stroke-width:0.3387;stroke-linecap:butt;stroke-linejoin:miter;stroke-miterlimit:10;stroke-dasharray:none;stroke-opacity:1"
       transform="matrix(1.3333333,0,0,-1.3333333,239.10533,154.21733)" />
    <path
       id="path34"
       d="m 0.92714063,-1.6285078 c 0,-0.234375 0.0117188,-0.6328125 0.18749997,-0.9492188 0.1523438,-0.2695312 0.46875,-0.5507812 0.9375,-0.5507812 0.09375,0 0.3164063,0.011719 0.46875,0.1289062 -0.082031,0.023437 -0.2109375,0.09375 -0.2109375,0.2695313 0,0.1523437 0.1171875,0.2578125 0.2578125,0.2578125 0.09375,0 0.2695313,-0.046875 0.2695313,-0.28125 0,-0.2695313 -0.1875,-0.5625 -0.796875,-0.5625 -0.8554688,0 -1.64062502,0.703125 -1.64062502,1.734375 0,1.18359374 0.5859375,1.68749999 1.31250002,1.68749999 0.4921875,0 0.7265625,-0.17578125 0.890625,-0.31640625 0.3164062,-0.26953125 0.3867187,-0.5625 0.3867187,-0.80859374 0,-0.3046875 -0.09375,-0.5507813 -0.3632812,-0.7734375 -0.2109375,-0.1992188 -0.4453125,-0.3398438 -0.8789063,-0.3398438 -0.28125,0 -0.609375,0.140625 -0.82031247,0.5039063 z m 0.78515627,1.53515624 c -0.77343752,0 -0.77343752,-0.83203125 -0.77343752,-1.03125004 0,-0.3867187 0.28125002,-0.8320312 0.79687502,-0.8320312 0.2578125,0 0.421875,0.058594 0.5742187,0.2578125 0.1523438,0.1875 0.1523438,0.3984375 0.1523438,0.6679687 0,0.29296879 0,0.48046879 -0.1640625,0.67968754 -0.140625,0.1640625 -0.3046875,0.2578125 -0.5859375,0.2578125 z m 0,0"
       style="fill:#000000;fill-opacity:1;fill-rule:nonzero;stroke:none"
       aria-label="6"
       transform="matrix(1.3333333,0,0,1.3333333,77.756,44.144)" />
    <g
       id="g34"
       aria-label="e&#10;2πi&#10;1"
       transform="matrix(1.3333333,0,0,1.3333333,175.81467,45.764)">
      <path
         id="path35"
         d="m 1.8645859,-2.2956562 c 0.2929688,0 1.03125,-0.023437 1.5234375,-0.234375 0.703125,-0.2929688 0.75,-0.890625 0.75,-1.0195313 0,-0.4453125 -0.3867187,-0.8554687 -1.0664062,-0.8554687 -1.1132813,0 -2.61328126,0.9726562 -2.61328126,2.7070312 0,1.01953125 0.58593746,1.8046875 1.57031246,1.8046875 1.4179688,0 2.2617188,-1.0546875 2.2617188,-1.171875 0,-0.058594 -0.070312,-0.1289062 -0.1289063,-0.1289062 -0.046875,0 -0.070312,0.023437 -0.1289062,0.09375 -0.7851563,0.9960937 -1.875,0.9960937 -1.9921875,0.9960937 -0.7734375,0 -0.8671875,-0.84375 -0.8671875,-1.1601562 0,-0.1171875 0.011719,-0.4335938 0.1640625,-1.03125 z m -0.46875,-0.2226563 c 0.3867188,-1.5117187 1.4179688,-1.6640625 1.6757813,-1.6640625 0.46875,0 0.7382812,0.2929688 0.7382812,0.6328125 0,1.03125 -1.59375,1.03125 -2.0039062,1.03125 z m 0,0"
         style="fill:#000000;fill-opacity:1;fill-rule:nonzero;stroke:none" />
      <path
         id="path36"
         d="M 8.154625,-4.8796406 H 7.92025 c -0.023437,0.1523437 -0.082031,0.5625 -0.1757813,0.6328125 -0.058594,0.035156 -0.5976562,0.035156 -0.6914062,0.035156 H 5.764 c 0.7382812,-0.6445312 0.984375,-0.84375 1.3945312,-1.171875 0.515625,-0.4101562 0.9960938,-0.84375 0.9960938,-1.5 0,-0.84375 -0.7382813,-1.359375 -1.6289063,-1.359375 -0.8671875,0 -1.453125,0.609375 -1.453125,1.2421875 0,0.3632813 0.3046875,0.3984375 0.375,0.3984375 0.1640625,0 0.375,-0.1171875 0.375,-0.375 0,-0.1289062 -0.058594,-0.3632812 -0.421875,-0.3632812 0.2226563,-0.5039063 0.6914063,-0.65625 1.0195313,-0.65625 0.703125,0 1.0664062,0.5507812 1.0664062,1.1132812 0,0.609375 -0.4335937,1.0898438 -0.65625,1.3359375 l -1.6875,1.6640625 c -0.070312,0.058594 -0.070312,0.070312 -0.070312,0.2695313 h 2.8828125 z m 0,0"
         style="fill:#000000;fill-opacity:1;fill-rule:nonzero;stroke:none" />
      <path
         id="path37"
         d="m 10.776695,-6.1452656 h 0.832032 c -0.105469,0.421875 -0.257813,1.0546875 -0.257813,1.6054687 0,0.28125 0.03516,0.46875 0.07031,0.6210938 0.117187,0.3515625 0.210937,0.375 0.316406,0.375 0.164062,0 0.328125,-0.1523438 0.328125,-0.3164063 0,-0.058594 -0.01172,-0.082031 -0.05859,-0.1523437 -0.128906,-0.2578125 -0.257812,-0.65625 -0.257812,-1.2304688 0,-0.1289062 0,-0.4101562 0.105468,-0.9023437 h 0.867188 c 0.128906,0 0.1875,0 0.257812,-0.058594 0.09375,-0.070312 0.117188,-0.1757812 0.117188,-0.2109375 0,-0.1992187 -0.175781,-0.1992187 -0.292969,-0.1992187 h -2.63672 c -0.2812497,0 -0.4804684,0.058594 -0.7968747,0.3515625 -0.1757812,0.1640625 -0.4453125,0.5390625 -0.4453125,0.5976562 0,0.082031 0.09375,0.082031 0.1171875,0.082031 0.070312,0 0.082031,-0.011719 0.1289063,-0.070312 0.3515625,-0.4921875 0.7851562,-0.4921875 0.9375004,-0.4921875 h 0.421875 c -0.210938,0.7617187 -0.5859379,1.59375 -0.7968754,2.0039062 -0.046875,0.09375 -0.1171875,0.2460938 -0.140625,0.2695313 0,0.023437 -0.011719,0.058594 -0.011719,0.1054687 0,0.1054688 0.082031,0.2226563 0.2460938,0.2226563 0.2695316,0 0.3515626,-0.3164063 0.5156256,-0.9375 z m 4.998047,-1.828125 c 0,-0.1054688 -0.08203,-0.2578125 -0.28125,-0.2578125 -0.1875,0 -0.386719,0.1757812 -0.386719,0.375 0,0.1171875 0.08203,0.2695312 0.269532,0.2695312 0.210937,0 0.398437,-0.1992187 0.398437,-0.3867187 z m -1.429687,3.5390625 c -0.02344,0.09375 -0.05859,0.1757812 -0.05859,0.2929687 0,0.328125 0.28125,0.5976563 0.667969,0.5976563 0.691406,0 0.996093,-0.9609375 0.996093,-1.0664063 0,-0.09375 -0.08203,-0.09375 -0.105468,-0.09375 -0.105469,0 -0.105469,0.046875 -0.140625,0.1171875 -0.152344,0.5625 -0.457032,0.84375 -0.738282,0.84375 -0.140625,0 -0.175781,-0.082031 -0.175781,-0.2460937 0,-0.1523438 0.05859,-0.2929688 0.117188,-0.4453125 0.07031,-0.1875 0.140625,-0.375 0.222656,-0.5507813 0.05859,-0.1640625 0.316406,-0.8085937 0.339844,-0.890625 0.02344,-0.070312 0.04687,-0.1523437 0.04687,-0.2226562 0,-0.328125 -0.28125,-0.5859375 -0.667969,-0.5859375 -0.691406,0 -1.007813,0.9492187 -1.007813,1.0664062 0,0.082031 0.09375,0.082031 0.117188,0.082031 0.09375,0 0.105469,-0.035156 0.128906,-0.1054688 0.175781,-0.5976562 0.480469,-0.8554687 0.738281,-0.8554687 0.117188,0 0.175782,0.058594 0.175782,0.2460937 0,0.1640625 -0.03516,0.2695313 -0.210938,0.703125 z m 0,0"
         style="fill:#000000;fill-opacity:1;fill-rule:nonzero;stroke:none" />
      <path
         id="path38"
         d="m 19.513023,-9.4558125 c 0,-0.1523437 -0.01172,-0.1523437 -0.175781,-0.1523437 C 18.98568,-9.29175 18.434898,-9.29175 18.32943,-9.29175 H 18.2474 v 0.2226563 h 0.08203 c 0.117187,0 0.433593,-0.011719 0.726562,-0.140625 v 2.484375 c 0,0.1640625 0,0.2109375 -0.527344,0.2109375 H 18.282555 V -6.29175 c 0.269531,-0.023437 0.714843,-0.023437 1.007812,-0.023437 0.28125,0 0.726563,0 0.996094,0.023437 v -0.2226562 h -0.246094 c -0.527344,0 -0.527344,-0.046875 -0.527344,-0.2109375 z m 0,0"
         style="fill:#000000;fill-opacity:1;fill-rule:nonzero;stroke:none" />
    </g>
    <path
       id="path39"
       d="m -121.012,86.699 h 3.39"
       style="fill:none;stroke:#000000;stroke-width:0.3387;stroke-linecap:butt;stroke-linejoin:miter;stroke-miterlimit:10;stroke-dasharray:none;stroke-opacity:1"
       transform="matrix(1.3333333,0,0,-1.3333333,360.54133,154.21733)" />
    <path
       id="path40"
       d="m 0.92533594,-1.6285078 c 0,-0.234375 0.0117188,-0.6328125 0.18749996,-0.9492188 0.1523438,-0.2695312 0.46875,-0.5507812 0.9375,-0.5507812 0.09375,0 0.3164063,0.011719 0.46875,0.1289062 -0.082031,0.023437 -0.2109375,0.09375 -0.2109375,0.2695313 0,0.1523437 0.1171875,0.2578125 0.2578125,0.2578125 0.09375,0 0.2695313,-0.046875 0.2695313,-0.28125 0,-0.2695313 -0.1875,-0.5625 -0.796875,-0.5625 -0.8554688,0 -1.64062501,0.703125 -1.64062501,1.734375 0,1.18359374 0.5859375,1.68749999 1.31250001,1.68749999 0.4921875,0 0.7265625,-0.17578125 0.890625,-0.31640625 0.3164062,-0.26953125 0.3867187,-0.5625 0.3867187,-0.80859374 0,-0.3046875 -0.09375,-0.5507813 -0.3632812,-0.7734375 -0.2109375,-0.1992188 -0.4453125,-0.3398438 -0.8789063,-0.3398438 -0.28125,0 -0.609375,0.140625 -0.82031246,0.5039063 z m 0.78515626,1.53515624 c -0.77343751,0 -0.77343751,-0.83203125 -0.77343751,-1.03125004 0,-0.3867187 0.28125001,-0.8320312 0.79687501,-0.8320312 0.2578125,0 0.421875,0.058594 0.5742187,0.2578125 0.1523438,0.1875 0.1523438,0.3984375 0.1523438,0.6679687 0,0.29296879 0,0.48046879 -0.1640625,0.67968754 -0.140625,0.1640625 -0.3046875,0.2578125 -0.5859375,0.2578125 z m 0,0"
       style="fill:#000000;fill-opacity:1;fill-rule:nonzero;stroke:none"
       aria-label="6"
       transform="matrix(1.3333333,0,0,1.3333333,199.192,44.144)" />
  </g>
</svg>
