<?xml version="1.0" encoding="UTF-8" standalone="no"?>
<!-- Created with Inkscape (http://www.inkscape.org/) -->

<svg
   version="1.1"
   id="svg1"
   width="193.02667"
   height="132.30667"
   viewBox="0 0 193.02667 132.30667"
   xmlns="http://www.w3.org/2000/svg"
   xmlns:svg="http://www.w3.org/2000/svg">
  <defs
     id="defs1" />
  <g
     id="g1">
    <path
       id="path1"
       d="m 45.71394,-46.20036 c 28.92951,12.893 76.84027,-3.84438 73.49279,-32.29792 -3.34748,-28.45355 17.36502,-17.15583 27.82588,-32.84712 10.46086,-15.6913 -98.33209,-16.73738 -108.79296,-1.04608 -10.46085,15.6913 -21.45521,53.29286 7.47429,66.19112 z"
       style="fill:#f5a623;fill-opacity:0.24;fill-rule:nonzero;stroke:#000000;stroke-width:0.74721;stroke-linecap:butt;stroke-linejoin:miter;stroke-miterlimit:10;stroke-dasharray:none;stroke-opacity:1"
       transform="matrix(1.3333333,0,0,-1.3333333,-17.457333,-38.966667)" />
    <path
       id="path2"
       d="m 66.6932,-60.59451 c 2.6309,4.59753 13.10224,3.54621 23.39573,-2.34323 10.29347,-5.88947 16.50723,-14.38892 13.87633,-18.98125 -2.62569,-4.59755 -13.10224,-3.54622 -23.39574,2.34325 -10.28824,5.88944 -16.50198,14.3889 -13.87632,18.98123 z"
       style="fill:#ffffff;fill-opacity:1;fill-rule:nonzero;stroke:#000000;stroke-width:0.74721;stroke-linecap:butt;stroke-linejoin:miter;stroke-miterlimit:10;stroke-dasharray:none;stroke-opacity:1"
       transform="matrix(1.3333333,0,0,-1.3333333,-17.457333,-38.966667)" />
    <path
       id="path3"
       d="m 36.46132,-63.83214 c 0,0.4341 0.35045,0.78456 0.78458,0.78456 0.4341,0 0.78454,-0.35046 0.78454,-0.78456 0,-0.43414 -0.35044,-0.78457 -0.78454,-0.78457 -0.43413,0 -0.78458,0.35043 -0.78458,0.78457 z"
       style="fill:#000000;fill-opacity:1;fill-rule:nonzero;stroke:#000000;stroke-width:0.74721;stroke-linecap:butt;stroke-linejoin:miter;stroke-miterlimit:10;stroke-dasharray:none;stroke-opacity:1"
       transform="matrix(1.3333333,0,0,-1.3333333,-17.457333,-38.966667)" />
    <path
       id="path4"
       d="m 83.5352,-108.25421 c 0,0.43413 0.35044,0.78457 0.78456,0.78457 0.4341,0 0.78455,-0.35044 0.78455,-0.78457 0,-0.43411 -0.35045,-0.78456 -0.78455,-0.78456 -0.43412,0 -0.78456,0.35045 -0.78456,0.78456 z"
       style="fill:#000000;fill-opacity:1;fill-rule:nonzero;stroke:#000000;stroke-width:0.74721;stroke-linecap:butt;stroke-linejoin:miter;stroke-miterlimit:10;stroke-dasharray:none;stroke-opacity:1"
       transform="matrix(1.3333333,0,0,-1.3333333,-17.457333,-38.966667)" />
    <path
       id="path5"
       d="m 37.2459,-63.83214 c -1.74175,-18.13392 26.15214,-60.11336 47.07386,-44.42207"
       style="fill:none;stroke:#9013fe;stroke-width:0.74721;stroke-linecap:butt;stroke-linejoin:miter;stroke-miterlimit:10;stroke-dasharray:none;stroke-opacity:1"
       transform="matrix(1.3333333,0,0,-1.3333333,-17.457333,-38.966667)" />
    <path
       id="path6"
       d="m 55.43916,-98.39471 -5.61409,2.67785 1.41816,-6.05623 0.91719,3.15572 z"
       style="fill:#9013fe;fill-opacity:1;fill-rule:nonzero;stroke:#000000;stroke-width:0.0797;stroke-linecap:butt;stroke-linejoin:miter;stroke-miterlimit:10;stroke-dasharray:none;stroke-opacity:0"
       transform="matrix(1.3333333,0,0,-1.3333333,-17.457333,-38.966667)" />
    <path
       id="path7"
       d="m 37.2459,-63.83214 c 15.90571,-33.76243 28.63134,-15.0166 47.07386,-44.42207"
       style="fill:none;stroke:#417505;stroke-width:0.74721;stroke-linecap:butt;stroke-linejoin:miter;stroke-miterlimit:10;stroke-dasharray:none;stroke-opacity:1"
       transform="matrix(1.3333333,0,0,-1.3333333,-17.457333,-38.966667)" />
    <path
       id="path8"
       d="m 62.48338,-85.95578 -6.21965,-0.08479 3.95328,-4.80237 -0.57497,3.23572 z"
       style="fill:#417505;fill-opacity:1;fill-rule:nonzero;stroke:#000000;stroke-width:0.0797;stroke-linecap:butt;stroke-linejoin:miter;stroke-miterlimit:10;stroke-dasharray:none;stroke-opacity:0"
       transform="matrix(1.3333333,0,0,-1.3333333,-17.457333,-38.966667)" />
    <path
       id="path9"
       d="m 37.2459,-63.83214 c 38.21873,34.23316 113.97628,-2.02942 47.07386,-44.42207"
       style="fill:none;stroke:#4a90e2;stroke-width:0.74721;stroke-linecap:butt;stroke-linejoin:miter;stroke-miterlimit:10;stroke-dasharray:none;stroke-opacity:1"
       transform="matrix(1.3333333,0,0,-1.3333333,-17.457333,-38.966667)" />
    <path
       id="path10"
       d="m 103.00278,-55.71466 -6.20845,0.38196 3.58191,-5.08533 -0.33063,3.2697 z"
       style="fill:#4a90e2;fill-opacity:1;fill-rule:nonzero;stroke:#000000;stroke-width:0.0797;stroke-linecap:butt;stroke-linejoin:miter;stroke-miterlimit:10;stroke-dasharray:none;stroke-opacity:0"
       transform="matrix(1.3333333,0,0,-1.3333333,-17.457333,-38.966667)" />
    <g
       id="g10"
       aria-label="(x&#10;0&#10;,y&#10;0&#10;)"
       transform="matrix(1.3333333,0,0,1.3333333,97.578667,117.876)">
      <path
         id="path11"
         d="m 3.2925625,2.389875 c 0,-0.035156 0,-0.046875 -0.1640625,-0.2226563 -1.2421875,-1.2539062 -1.5703125,-3.1289062 -1.5703125,-4.6640625 0,-1.7226562 0.3867188,-3.4570312 1.6054688,-4.7109375 0.1289062,-0.1171875 0.1289062,-0.1289062 0.1289062,-0.1640625 0,-0.070312 -0.035156,-0.1054687 -0.09375,-0.1054687 -0.1054687,0 -0.9960937,0.6796875 -1.5820312,1.9453125 -0.515625,1.1015625 -0.63281255,2.203125 -0.63281255,3.0351562 0,0.7851563 0.11718755,1.99218755 0.65625005,3.11718755 0.5976562,1.21874995 1.453125,1.87499995 1.5585937,1.87499995 0.058594,0 0.09375,-0.035156 0.09375,-0.1054687 z m 0,0"
         style="fill:#000000;fill-opacity:1;fill-rule:nonzero;stroke:none" />
      <path
         id="path12"
         d="m 7.2007656,-3.0124688 c 0.058594,-0.2578125 0.2929688,-1.171875 0.984375,-1.171875 0.046875,0 0.2929688,0 0.5039063,0.1289063 -0.28125,0.046875 -0.4804688,0.3046875 -0.4804688,0.5390625 0,0.1640625 0.1054688,0.3515625 0.375,0.3515625 0.2226563,0 0.5390625,-0.1875 0.5390625,-0.5859375 0,-0.515625 -0.5859375,-0.65625 -0.9257812,-0.65625 -0.5742188,0 -0.9257813,0.5273437 -1.0429688,0.7617187 C 6.8960781,-4.3015313 6.3687344,-4.407 6.0757656,-4.407 c -1.0429687,0 -1.6054687,1.2890625 -1.6054687,1.5351562 0,0.1054688 0.1054687,0.1054688 0.1171875,0.1054688 0.082031,0 0.1171875,-0.023437 0.1289062,-0.1171875 0.3398438,-1.0546875 0.9960938,-1.3007813 1.3359375,-1.3007813 0.1875,0 0.5390625,0.09375 0.5390625,0.6679688 0,0.3046875 -0.1640625,0.9726562 -0.5390625,2.3671875 -0.1523437,0.62109375 -0.5039062,1.04296875 -0.9492187,1.04296875 -0.058594,0 -0.28125,0 -0.4921875,-0.12890625 0.2460937,-0.0585937 0.46875,-0.26953125 0.46875,-0.5390625 0,-0.2695313 -0.2226563,-0.3515625 -0.375,-0.3515625 -0.2929688,0 -0.5390625,0.2578125 -0.5390625,0.57421875 0,0.45703125 0.4921875,0.65625 0.9375,0.65625 0.65625,0 1.0078125,-0.69140625 1.0429687,-0.75 0.1171875,0.36328125 0.4804688,0.75 1.078125,0.75 1.0195313,0 1.59375,-1.27734375 1.59375,-1.53515625 0,-0.09375 -0.09375,-0.09375 -0.1289062,-0.09375 -0.082031,0 -0.1054688,0.035156 -0.1289063,0.1054687 -0.328125,1.0664063 -0.9960937,1.31250005 -1.3242187,1.31250005 -0.3867188,0 -0.5390625,-0.328125 -0.5390625,-0.65625 0,-0.22265625 0.058594,-0.44531255 0.1640625,-0.87890625 z m 0,0"
         style="fill:#000000;fill-opacity:1;fill-rule:nonzero;stroke:none" />
      <path
         id="path13"
         d="m 13.165609,-0.73317188 c 0,-0.76171872 -0.09375,-1.31250002 -0.410156,-1.80468752 -0.222656,-0.3164062 -0.644531,-0.5976562 -1.207031,-0.5976562 -1.6171876,0 -1.6171876,1.8984375 -1.6171876,2.40234372 0,0.50390625 0,2.36718748 1.6171876,2.36718748 1.617187,0 1.617187,-1.86328123 1.617187,-2.36718748 z M 11.548422,1.4347969 c -0.316406,0 -0.75,-0.1875 -0.890625,-0.76171878 -0.09375,-0.41015625 -0.09375,-0.984375 -0.09375,-1.5 0,-0.50390622 0,-1.03125002 0.105469,-1.41796872 0.152343,-0.5507813 0.597656,-0.6914063 0.878906,-0.6914063 0.375,0 0.738281,0.2226563 0.867187,0.6328125 0.105469,0.375 0.117188,0.8789063 0.117188,1.47656252 0,0.515625 0,1.04296875 -0.09375,1.4765625 C 12.298422,1.2824531 11.829672,1.4347969 11.548422,1.4347969 Z m 0,0"
         style="fill:#000000;fill-opacity:1;fill-rule:nonzero;stroke:none" />
      <path
         id="path14"
         d="m 16.066,-0.01246875 c 0,-0.65625 -0.257812,-1.04296875 -0.644531,-1.04296875 -0.328125,0 -0.527344,0.24609375 -0.527344,0.52734375 0,0.26953125 0.199219,0.52734375 0.527344,0.52734375 0.117187,0 0.246094,-0.03515625 0.351562,-0.12890625 0.02344,-0.0234375 0.03516,-0.0351563 0.04687,-0.0351563 0.01172,0 0.02344,0.0117188 0.02344,0.15234375 0,0.73828125 -0.351563,1.3359375 -0.679688,1.6640625 -0.105468,0.1054687 -0.105468,0.1289062 -0.105468,0.1640625 0,0.070312 0.04687,0.1054687 0.09375,0.1054687 0.117187,0 0.914062,-0.7617187 0.914062,-1.9335937 z M 23.290609,-3.797625 c 0.04687,-0.140625 0.04687,-0.1523438 0.04687,-0.2226563 0,-0.1875 -0.140625,-0.2695312 -0.292968,-0.2695312 -0.105469,0 -0.257813,0.058594 -0.351563,0.1992187 -0.02344,0.058594 -0.09375,0.3632813 -0.140625,0.5390625 -0.07031,0.2578125 -0.140625,0.5273438 -0.199219,0.796875 l -0.445312,1.7929688 c -0.03516,0.15234375 -0.46875,0.85546875 -1.125,0.85546875 -0.503906,0 -0.621094,-0.4453125 -0.621094,-0.80859375 0,-0.4570313 0.175781,-1.078125 0.515625,-1.9570313 0.152344,-0.4101562 0.199219,-0.515625 0.199219,-0.7148437 0,-0.4453125 -0.328125,-0.8203125 -0.820313,-0.8203125 -0.949218,0 -1.3125,1.453125 -1.3125,1.5351562 0,0.1054688 0.09375,0.1054688 0.117188,0.1054688 0.09375,0 0.105469,-0.023437 0.152344,-0.1875 0.269531,-0.9375 0.667968,-1.2304688 1.007812,-1.2304688 0.08203,0 0.257813,0 0.257813,0.3164063 0,0.2460937 -0.105469,0.515625 -0.175782,0.703125 -0.398437,1.0546875 -0.574218,1.6171875 -0.574218,2.0859375 0,0.890625 0.621093,1.18359375 1.21875,1.18359375 0.386718,0 0.726562,-0.1640625 0.996093,-0.4453125 -0.128906,0.515625 -0.246093,1.0078125 -0.644531,1.53515625 -0.257812,0.3398437 -0.632812,0.6328125 -1.089844,0.6328125 -0.140625,0 -0.597656,-0.035156 -0.761718,-0.421875 0.164062,0 0.292968,0 0.433593,-0.1171875 0.09375,-0.09375 0.199219,-0.2226563 0.199219,-0.41015625 0,-0.31640625 -0.269531,-0.3515625 -0.375,-0.3515625 -0.222656,0 -0.550781,0.1640625 -0.550781,0.64453125 0,0.5039062 0.433594,0.8671875 1.054687,0.8671875 1.019532,0 2.050782,-0.9023438 2.332032,-2.02734375 z m 0,0"
         style="fill:#000000;fill-opacity:1;fill-rule:nonzero;stroke:none" />
      <path
         id="path15"
         d="m 26.946859,-0.73317188 c 0,-0.76171872 -0.09375,-1.31250002 -0.410156,-1.80468752 -0.222656,-0.3164062 -0.644531,-0.5976562 -1.207031,-0.5976562 -1.617188,0 -1.617188,1.8984375 -1.617188,2.40234372 0,0.50390625 0,2.36718748 1.617188,2.36718748 1.617187,0 1.617187,-1.86328123 1.617187,-2.36718748 z M 25.329672,1.4347969 c -0.316406,0 -0.75,-0.1875 -0.890625,-0.76171878 -0.09375,-0.41015625 -0.09375,-0.984375 -0.09375,-1.5 0,-0.50390622 0,-1.03125002 0.105469,-1.41796872 0.152343,-0.5507813 0.597656,-0.6914063 0.878906,-0.6914063 0.375,0 0.738281,0.2226563 0.867187,0.6328125 0.105469,0.375 0.117188,0.8789063 0.117188,1.47656252 0,0.515625 0,1.04296875 -0.09375,1.4765625 C 26.079672,1.2824531 25.610922,1.4347969 25.329672,1.4347969 Z m 0,0"
         style="fill:#000000;fill-opacity:1;fill-rule:nonzero;stroke:none" />
      <path
         id="path16"
         d="m 30.702719,-2.4968438 c 0,-0.7734375 -0.117188,-1.9804687 -0.65625,-3.1054687 -0.597656,-1.21875 -1.464844,-1.875 -1.558594,-1.875 -0.05859,0 -0.105469,0.046875 -0.105469,0.1054687 0,0.035156 0,0.046875 0.199219,0.234375 0.972656,0.984375 1.535156,2.5664063 1.535156,4.640625 0,1.71093755 -0.363281,3.4570313 -1.59375,4.7226563 C 28.382406,2.343 28.382406,2.3547187 28.382406,2.389875 c 0,0.058594 0.04687,0.1054687 0.105469,0.1054687 0.09375,0 0.996094,-0.6796875 1.582031,-1.94531245 0.503907,-1.1015625 0.632813,-2.20312505 0.632813,-3.04687505 z m 0,0"
         style="fill:#000000;fill-opacity:1;fill-rule:nonzero;stroke:none" />
    </g>
    <g
       id="g16"
       aria-label="(x,y)"
       transform="matrix(1.3333333,0,0,1.3333333,44.348,55.808)">
      <path
         id="path17"
         d="m 3.2927109,2.3910703 c 0,-0.035156 0,-0.046875 -0.1640625,-0.2226562 -1.2421875,-1.25390629 -1.5703125,-3.12890629 -1.5703125,-4.6640625 0,-1.7226563 0.3867188,-3.4570313 1.6054688,-4.7109375 0.1289062,-0.1171875 0.1289062,-0.1289063 0.1289062,-0.1640625 0,-0.070312 -0.035156,-0.1054688 -0.09375,-0.1054688 -0.1054687,0 -0.9960937,0.6796875 -1.5820312,1.9453125 -0.515625,1.1015625 -0.63281251,2.203125 -0.63281251,3.0351563 0,0.7851562 0.11718751,1.99218746 0.65625001,3.11718746 0.5976562,1.21875004 1.453125,1.87500004 1.5585937,1.87500004 0.058594,0 0.09375,-0.035156 0.09375,-0.1054688 z m 0,0"
         style="fill:#000000;fill-opacity:1;fill-rule:nonzero;stroke:none" />
      <path
         id="path18"
         d="m 7.2009141,-3.0112734 c 0.058594,-0.2578125 0.2929687,-1.171875 0.984375,-1.171875 0.046875,0 0.2929687,0 0.5039062,0.1289062 -0.28125,0.046875 -0.4804687,0.3046875 -0.4804687,0.5390625 0,0.1640625 0.1054687,0.3515625 0.375,0.3515625 0.2226562,0 0.5390625,-0.1875 0.5390625,-0.5859375 0,-0.515625 -0.5859375,-0.65625 -0.9257813,-0.65625 -0.5742187,0 -0.9257812,0.5273438 -1.0429687,0.7617188 -0.2578125,-0.65625 -0.7851563,-0.7617188 -1.078125,-0.7617188 -1.0429688,0 -1.6054688,1.2890625 -1.6054688,1.5351563 0,0.1054687 0.1054688,0.1054687 0.1171875,0.1054687 0.082031,0 0.1171875,-0.023437 0.1289063,-0.1171875 0.3398437,-1.0546875 0.9960937,-1.3007812 1.3359375,-1.3007812 0.1875,0 0.5390625,0.09375 0.5390625,0.6679687 0,0.3046875 -0.1640625,0.9726563 -0.5390625,2.3671875 -0.1523438,0.62109376 -0.5039063,1.04296876 -0.9492188,1.04296876 -0.058594,0 -0.28125,0 -0.4921875,-0.12890625 0.2460938,-0.0585938 0.46875,-0.26953125 0.46875,-0.5390625 0,-0.26953121 -0.2226562,-0.35156251 -0.375,-0.35156251 -0.2929687,0 -0.5390625,0.25781251 -0.5390625,0.57421876 0,0.45703125 0.4921875,0.65625 0.9375,0.65625 0.65625,0 1.0078125,-0.69140625 1.0429688,-0.75 0.1171875,0.36328125 0.4804687,0.75 1.078125,0.75 1.0195312,0 1.59375,-1.27734376 1.59375,-1.53515626 0,-0.09375 -0.09375,-0.09375 -0.1289063,-0.09375 -0.082031,0 -0.1054687,0.035156 -0.1289062,0.1054688 -0.328125,1.06640621 -0.9960938,1.31249996 -1.3242188,1.31249996 -0.3867187,0 -0.5390625,-0.328125 -0.5390625,-0.65625 0,-0.22265625 0.058594,-0.44531246 0.1640625,-0.87890626 z m 4.3886719,2.99999996 c 0,-0.65625 -0.257813,-1.04296876 -0.644531,-1.04296876 -0.328125,0 -0.527344,0.24609376 -0.527344,0.52734376 0,0.26953125 0.199219,0.5273437525 0.527344,0.5273437525 0.117187,0 0.246093,-0.0351562525 0.351562,-0.1289062525 0.02344,-0.0234375 0.03516,-0.0351563 0.04687,-0.0351563 0.01172,0 0.02344,0.0117188 0.02344,0.15234375 0,0.73828125 -0.351563,1.33593749 -0.679688,1.66406249 -0.105469,0.1054687 -0.105469,0.1289062 -0.105469,0.1640625 0,0.070312 0.04687,0.1054687 0.09375,0.1054687 0.117188,0 0.914063,-0.7617187 0.914063,-1.93359369 z m 7.227539,-3.78515626 c 0.04687,-0.140625 0.04687,-0.1523437 0.04687,-0.2226562 0,-0.1875 -0.140625,-0.2695313 -0.292969,-0.2695313 -0.105468,0 -0.257812,0.058594 -0.351562,0.1992188 -0.02344,0.058594 -0.09375,0.3632812 -0.140625,0.5390625 -0.07031,0.2578125 -0.140625,0.5273437 -0.199219,0.796875 l -0.445312,1.79296871 c -0.03516,0.15234375 -0.46875,0.85546875 -1.125,0.85546875 -0.503907,0 -0.621094,-0.4453125 -0.621094,-0.80859375 0,-0.45703121 0.175781,-1.07812501 0.515625,-1.95703121 0.152344,-0.4101563 0.199219,-0.515625 0.199219,-0.7148438 0,-0.4453125 -0.328125,-0.8203125 -0.820313,-0.8203125 -0.949219,0 -1.3125,1.453125 -1.3125,1.5351563 0,0.1054687 0.09375,0.1054687 0.117188,0.1054687 0.09375,0 0.105468,-0.023437 0.152343,-0.1875 0.269532,-0.9375 0.667969,-1.2304687 1.007813,-1.2304687 0.08203,0 0.257812,0 0.257812,0.3164062 0,0.2460938 -0.105468,0.515625 -0.175781,0.703125 -0.398437,1.0546875 -0.574219,1.6171875 -0.574219,2.0859375 0,0.89062501 0.621094,1.18359376 1.21875,1.18359376 0.386719,0 0.726563,-0.1640625 0.996094,-0.4453125 -0.128906,0.515625 -0.246094,1.0078125 -0.644531,1.53515624 -0.257813,0.3398438 -0.632813,0.6328125 -1.089844,0.6328125 -0.140625,0 -0.597656,-0.035156 -0.761719,-0.421875 0.164063,0 0.292969,0 0.433594,-0.1171875 0.09375,-0.09375 0.199219,-0.2226562 0.199219,-0.41015624 0,-0.31640625 -0.269531,-0.3515625 -0.375,-0.3515625 -0.222656,0 -0.550781,0.1640625 -0.550781,0.64453124 0,0.5039063 0.433593,0.8671875 1.054687,0.8671875 1.019531,0 2.050781,-0.9023437 2.332031,-2.02734374 z m 0,0"
         style="fill:#000000;fill-opacity:1;fill-rule:nonzero;stroke:none" />
      <path
         id="path19"
         d="m 22.121813,-2.4956484 c 0,-0.7734375 -0.117188,-1.9804688 -0.65625,-3.1054688 -0.597657,-1.21875 -1.464844,-1.875 -1.558594,-1.875 -0.05859,0 -0.105469,0.046875 -0.105469,0.1054688 0,0.035156 0,0.046875 0.199219,0.234375 0.972656,0.984375 1.535156,2.5664062 1.535156,4.640625 0,1.71093746 -0.363281,3.45703121 -1.59375,4.7226562 C 19.8015,2.3441953 19.8015,2.3559141 19.8015,2.3910703 c 0,0.058594 0.04687,0.1054688 0.105469,0.1054688 0.09375,0 0.996094,-0.6796875 1.582031,-1.94531254 0.503906,-1.1015625 0.632813,-2.20312496 0.632813,-3.04687496 z m 0,0"
         style="fill:#000000;fill-opacity:1;fill-rule:nonzero;stroke:none" />
    </g>
  </g>
</svg>
