<?xml version="1.0" encoding="UTF-8" standalone="no"?>
<!-- Created with Inkscape (http://www.inkscape.org/) -->

<svg
   version="1.1"
   id="svg1"
   width="371.02133"
   height="179.54933"
   viewBox="0 0 371.02133 179.54933"
   sodipodi:docname="irrep-decomposition-matrix.pdf"
   xmlns:inkscape="http://www.inkscape.org/namespaces/inkscape"
   xmlns:sodipodi="http://sodipodi.sourceforge.net/DTD/sodipodi-0.dtd"
   xmlns="http://www.w3.org/2000/svg"
   xmlns:svg="http://www.w3.org/2000/svg">
  <defs
     id="defs1" />
  <sodipodi:namedview
     id="namedview1"
     pagecolor="#ffffff"
     bordercolor="#000000"
     borderopacity="0.25"
     inkscape:showpageshadow="2"
     inkscape:pageopacity="0.0"
     inkscape:pagecheckerboard="0"
     inkscape:deskcolor="#d1d1d1">
    <inkscape:page
       x="0"
       y="0"
       inkscape:label="1"
       id="page1"
       width="371.02133"
       height="179.54933"
       margin="0"
       bleed="0" />
  </sodipodi:namedview>
  <g
     id="g1"
     inkscape:groupmode="layer"
     inkscape:label="1">
    <path
       id="path1"
       d="m 233.76292,-115.89365 h 103.34037 v -58.32437 H 233.76292 Z"
       style="fill:#f5a623;fill-opacity:0.2;fill-rule:nonzero;stroke:#f5a623;stroke-width:0.74721;stroke-linecap:butt;stroke-linejoin:miter;stroke-miterlimit:10;stroke-dasharray:none;stroke-opacity:1"
       transform="matrix(1.3333333,0,0,-1.3333333,-172.20933,-66.913333)" />
    <path
       id="path2"
       d="m 369.46925,-177.4892 c 3.48946,0 5.23045,1.741 5.23045,5.23046 v 18.50833 c 0,4.98387 1.74102,7.47207 5.23046,7.47207 -3.48944,0 -5.23046,2.48819 -5.23046,7.47208 m 0,-2.24162 v 20.74995 c 0,3.48946 -1.74099,5.23046 -5.23045,5.23046"
       style="fill:none;stroke:#ffffff;stroke-width:0.74721;stroke-linecap:butt;stroke-linejoin:miter;stroke-miterlimit:10;stroke-dasharray:none;stroke-opacity:1"
       transform="matrix(1.3333333,0,0,-1.3333333,-172.20933,-66.913333)" />
    <path
       id="path3"
       d="m 369.46925,-99.77711 c 3.48946,0 5.23045,1.74099 5.23045,5.23045 v 11.90301 c 0,4.98388 1.74102,7.47208 5.23046,7.47208 -3.48944,0 -5.23046,2.48821 -5.23046,7.47207 m 0,-2.24162 V -55.789 c 0,3.48945 -1.74099,5.23045 -5.23045,5.23045"
       style="fill:none;stroke:#000000;stroke-width:0.74721;stroke-linecap:butt;stroke-linejoin:miter;stroke-miterlimit:10;stroke-dasharray:none;stroke-opacity:1"
       transform="matrix(1.3333333,0,0,-1.3333333,-172.20933,-66.913333)" />
    <g
       id="g3"
       aria-label="&#10;&#10;&#10;&#10;&#10;&#10;&#10;&#10;&#10;&#10;&#10;&#10;&#10;&#10;&#10;&#10;&#10;R&#10;(1)&#10;···&#10;.&#10;.&#10;.&#10;R&#10;(1)&#10;.&#10;.&#10;.&#10;.&#10;.&#10;.&#10;R&#10;(α)&#10;&#10;.&#10;.&#10;.&#10;···&#10;R&#10;(α)&#10;&#10;.&#10;.&#10;.&#10;&#10;&#10;&#10;&#10;&#10;&#10;&#10;&#10;&#10;&#10;&#10;&#10;&#10;&#10;&#10;&#10;"
       transform="matrix(1.3333333,0,0,1.3333333,6.42,8.58)">
      <path
         id="path4"
         d="m 3.7279688,17.635313 c 0.2226562,0 0.28125,0 0.28125,-0.140625 0.011719,-6.984375 0.8203125,-12.7851567 4.3125,-17.66015675 0.070312,-0.0820313 0.070312,-0.10546875 0.070312,-0.12890625 0,-0.09375 -0.070312,-0.09375 -0.234375,-0.09375 -0.1523438,0 -0.1757813,0 -0.1992188,0.0234375 C 7.923281,-0.34125 6.6576558,1.111875 5.6498433,3.1157813 c -1.3125,2.625 -2.1445313,5.6484375 -2.5078125,9.2695317 -0.035156,0.316406 -0.2460938,2.390625 -0.2460938,4.746093 v 0.386719 c 0.011719,0.117188 0.070312,0.117188 0.28125,0.117188 z m 0.28125,0.06152 c 0,-0.257813 -0.011719,-0.269531 -0.28125,-0.269531 H 3.1771875 c -0.2695312,0 -0.28125,0.01172 -0.28125,0.269531 v 5.648437 c 0,0.257813 0.011719,0.269532 0.28125,0.269532 h 0.5507813 c 0.2695312,0 0.28125,-0.01172 0.28125,-0.269532 z m 0,5.979492 c 0,-0.257812 -0.011719,-0.269531 -0.28125,-0.269531 H 3.1771875 c -0.2695312,0 -0.28125,0.01172 -0.28125,0.269531 v 5.648438 c 0,0.257812 0.011719,0.269531 0.28125,0.269531 h 0.5507813 c 0.2695312,0 0.28125,-0.01172 0.28125,-0.269531 z m 0,5.976563 c 0,-0.257813 -0.011719,-0.269532 -0.28125,-0.269532 H 3.1771875 c -0.2695312,0 -0.28125,0.01172 -0.28125,0.269532 v 5.648437 c 0,0.257813 0.011719,0.269531 0.28125,0.269531 h 0.5507813 c 0.2695312,0 0.28125,-0.01172 0.28125,-0.269531 z m 0,5.979492 c 0,-0.257813 -0.011719,-0.269531 -0.28125,-0.269531 H 3.1771875 c -0.2695312,0 -0.28125,0.01172 -0.28125,0.269531 v 5.648437 c 0,0.257813 0.011719,0.269532 0.28125,0.269532 h 0.5507813 c 0.2695312,0 0.28125,-0.01172 0.28125,-0.269532 z m 0,5.976562 c 0,-0.257812 -0.011719,-0.269531 -0.28125,-0.269531 H 3.1771875 c -0.2695312,0 -0.28125,0.01172 -0.28125,0.269531 v 5.648438 c 0,0.257812 0.011719,0.269531 0.28125,0.269531 h 0.5507813 c 0.2695312,0 0.28125,-0.01172 0.28125,-0.269531 z m 0,5.976563 c 0,-0.257813 -0.011719,-0.269531 -0.28125,-0.269531 H 3.1771875 c -0.2695312,0 -0.28125,0.01172 -0.28125,0.269531 v 5.648437 c 0,0.257813 0.011719,0.269532 0.28125,0.269532 h 0.5507813 c 0.2695312,0 0.28125,-0.01172 0.28125,-0.269532 z m 0,5.979492 c 0,-0.257812 -0.011719,-0.269531 -0.28125,-0.269531 H 3.1771875 c -0.2695312,0 -0.28125,0.01172 -0.28125,0.269531 v 5.648438 c 0,0.257812 0.011719,0.269531 0.28125,0.269531 h 0.5507813 c 0.2695312,0 0.28125,-0.01172 0.28125,-0.269531 z m 0,5.976563 c 0,-0.257813 -0.011719,-0.269532 -0.28125,-0.269532 H 3.1771875 c -0.2695312,0 -0.28125,0.01172 -0.28125,0.269532 V 65.19 c 0,0.257813 0.011719,0.269531 0.28125,0.269531 h 0.5507813 c 0.2695312,0 0.28125,-0.01172 0.28125,-0.269531 z m 0,5.976562 c 0,-0.257812 -0.011719,-0.269531 -0.28125,-0.269531 H 3.1771875 c -0.2695312,0 -0.28125,0.01172 -0.28125,0.269531 v 5.648438 c 0,0.257812 0.011719,0.269531 0.28125,0.269531 h 0.5507813 c 0.2695312,0 0.28125,-0.01172 0.28125,-0.269531 z m 0,5.979492 c 0,-0.257812 -0.011719,-0.269531 -0.28125,-0.269531 H 3.1771875 c -0.2695312,0 -0.28125,0.01172 -0.28125,0.269531 v 5.648438 c 0,0.257812 0.011719,0.269531 0.28125,0.269531 h 0.5507813 c 0.2695312,0 0.28125,-0.01172 0.28125,-0.269531 z m 0,5.976563 c 0,-0.257813 -0.011719,-0.269532 -0.28125,-0.269532 H 3.1771875 c -0.2695312,0 -0.28125,0.01172 -0.28125,0.269532 v 5.648437 c 0,0.257813 0.011719,0.269531 0.28125,0.269531 h 0.5507813 c 0.2695312,0 0.28125,-0.01172 0.28125,-0.269531 z m 0,5.976562 c 0,-0.257812 -0.011719,-0.269531 -0.28125,-0.269531 H 3.1771875 c -0.2695312,0 -0.28125,0.01172 -0.28125,0.269531 v 5.648438 c 0,0.257812 0.011719,0.269531 0.28125,0.269531 h 0.5507813 c 0.2695312,0 0.28125,-0.01172 0.28125,-0.269531 z m 0,5.979492 c 0,-0.257812 -0.011719,-0.269531 -0.28125,-0.269531 H 3.1771875 c -0.2695312,0 -0.28125,0.01172 -0.28125,0.269531 v 5.648438 c 0,0.257812 0.011719,0.269531 0.28125,0.269531 h 0.5507813 c 0.2695312,0 0.28125,-0.01172 0.28125,-0.269531 z m 0,5.976563 c 0,-0.257813 -0.011719,-0.269531 -0.28125,-0.269531 H 3.1771875 c -0.2695312,0 -0.28125,0.01172 -0.28125,0.269531 v 5.648436 c 0,0.25782 0.011719,0.26954 0.28125,0.26954 h 0.5507813 c 0.2695312,0 0.28125,-0.0117 0.28125,-0.26954 z m 0,5.979496 c 0,-0.25781 -0.011719,-0.26953 -0.28125,-0.26953 H 3.1771875 c -0.2695312,0 -0.28125,0.0117 -0.28125,0.26953 v 5.64844 c 0,0.25781 0.011719,0.26953 0.28125,0.26953 h 0.5507813 c 0.2695312,0 0.28125,-0.0117 0.28125,-0.26953 z m -0.8320313,5.70703 c -0.2109375,0 -0.2695312,0 -0.28125,0.11719 v 0.38672 c 0,6.08203 1.0898438,9.65625 1.3945313,10.66406 0.6796875,2.20312 1.7929687,4.53516 3.4453125,6.58594 0.1523437,0.1875 0.1992187,0.23437 0.234375,0.24609 0.023437,0.0117 0.035156,0.0234 0.1875,0.0234 0.1640625,0 0.234375,0 0.234375,-0.0937 0,-0.0234 0,-0.0469 -0.058594,-0.12891 -3.3164062,-4.60547 -4.3125,-10.14844 -4.3242187,-17.66015 0,-0.14063 -0.058594,-0.14063 -0.28125,-0.14063 z m 0,0"
         style="fill:#000000;fill-opacity:1;fill-rule:nonzero;stroke:none" />
      <path
         id="path5"
         d="m 12.748477,-0.15960937 c 1.910156,0 2.414062,0.46875 2.414062,1.125 0,0.60937497 -0.480469,1.80468747 -2.121094,1.86328127 -0.492187,0.023437 -0.832031,0.375 -0.832031,0.4804687 0,0.058594 0.04687,0.058594 0.05859,0.058594 0.410156,0.070312 0.609375,0.2695312 1.136719,1.4414062 0.457031,1.0546875 0.714843,1.5117188 1.300781,1.5117188 1.207031,0 2.34375,-1.2304688 2.34375,-1.453125 0,-0.070312 -0.07031,-0.070312 -0.105469,-0.070312 -0.117187,0 -0.503906,0.140625 -0.714844,0.4335937 -0.164062,0.234375 -0.375,0.5390625 -0.867187,0.5390625 -0.503906,0 -0.820313,-0.703125 -1.160156,-1.4882812 -0.199219,-0.4921875 -0.386719,-0.8671875 -0.609375,-1.1367188 1.441406,-0.5273437 2.414062,-1.5703125 2.414062,-2.60156247 0,-1.25390625 -1.675781,-1.25390625 -3.175781,-1.25390625 -0.996094,0 -1.558594,0 -2.390625,0.36328125 -1.3359377,0.5859375 -1.5117189,1.41796877 -1.5117189,1.49999997 0,0.058594 0.035156,0.070312 0.09375,0.070312 0.1640625,0 0.3984375,-0.140625 0.46875,-0.1875 0.2109375,-0.14062497 0.2460937,-0.19921872 0.3046875,-0.38671872 0.140625,-0.3984375 0.4218754,-0.75 1.6757814,-0.80859375 -0.05859,0.609375 -0.140625,1.53515627 -0.480469,2.98828127 -0.269531,1.1132812 -0.644531,2.2148437 -1.0781249,3.28125 -0.046875,0.1054687 -0.046875,0.1289062 -0.046875,0.140625 0,0.070312 0.082031,0.070312 0.09375,0.070312 0.1992189,0 0.6210939,-0.2460938 0.7265629,-0.4335938 0.02344,-0.046875 1.289062,-2.859375 1.59375,-6.04687497 z m 0,0"
         style="fill:#000000;fill-opacity:1;fill-rule:nonzero;stroke:none" />
      <path
         id="path6"
         d="m 19.633242,-2.7435937 c -1.324219,0.9257812 -1.675781,2.41406245 -1.675781,3.4804687 0,0.984375 0.292969,2.5078125 1.675781,3.4804688 0.05859,0 0.140625,0 0.140625,-0.082031 0,-0.046875 -0.02344,-0.058594 -0.07031,-0.1054687 C 18.777773,3.1978125 18.43793,2.0142188 18.43793,0.736875 c 0,-1.875 0.714843,-2.8007812 1.289062,-3.3164062 0.02344,-0.023437 0.04687,-0.046875 0.04687,-0.082031 0,-0.082031 -0.08203,-0.082031 -0.140625,-0.082031 z m 2.973633,0.796875 c 0,-0.1875 -0.01172,-0.1992188 -0.210937,-0.1992188 -0.445313,0.4335938 -1.078125,0.4453125 -1.359375,0.4453125 v 0.2460938 c 0.164062,0 0.621093,0 1.007812,-0.1875 V 1.90875 c 0,0.234375 0,0.328125 -0.691406,0.328125 h -0.269531 v 0.2460938 c 0.128906,-0.011719 0.984375,-0.023437 1.242187,-0.023437 0.210938,0 1.089844,0.011719 1.242188,0.023437 V 2.236875 H 23.31 c -0.703125,0 -0.703125,-0.09375 -0.703125,-0.328125 z m 2.270508,-0.796875 c -0.05859,0 -0.140625,0 -0.140625,0.082031 0,0.035156 0.02344,0.058594 0.07031,0.1054688 0.597657,0.5507812 1.265625,1.4882812 1.265625,3.2929687 0,1.453125 -0.457031,2.5546875 -1.207031,3.234375 -0.117187,0.1171875 -0.128906,0.1289063 -0.128906,0.1640625 0,0.035156 0.02344,0.082031 0.09375,0.082031 0.08203,0 0.75,-0.4570313 1.207031,-1.3242188 0.304688,-0.5859375 0.503906,-1.3359375 0.503906,-2.15625 0,-0.984375 -0.292968,-2.5078125 -1.664062,-3.4804687 z m 0,0"
         style="fill:#000000;fill-opacity:1;fill-rule:nonzero;stroke:none" />
      <path
         id="path7"
         d="m 64.243594,3.6021094 c 0,-0.28125 -0.234375,-0.5273438 -0.527344,-0.5273438 -0.28125,0 -0.527344,0.2460938 -0.527344,0.5273438 0,0.2929687 0.246094,0.5390625 0.527344,0.5390625 0.292969,0 0.527344,-0.2460938 0.527344,-0.5390625 z m 4.429687,0 c 0,-0.28125 -0.234375,-0.5273438 -0.527343,-0.5273438 -0.28125,0 -0.527344,0.2460938 -0.527344,0.5273438 0,0.2929687 0.246094,0.5390625 0.527344,0.5390625 0.292968,0 0.527343,-0.2460938 0.527343,-0.5390625 z m 4.423828,0 c 0,-0.28125 -0.234375,-0.5273438 -0.527343,-0.5273438 -0.28125,0 -0.527344,0.2460938 -0.527344,0.5273438 0,0.2929687 0.246094,0.5390625 0.527344,0.5390625 0.292968,0 0.527343,-0.2460938 0.527343,-0.5390625 z m 0,0"
         style="fill:#000000;fill-opacity:1;fill-rule:nonzero;stroke:none" />
      <path
         id="path8"
         d="m 40.284609,17.184141 c 0,-0.292969 -0.234375,-0.527344 -0.527343,-0.527344 -0.28125,0 -0.527344,0.234375 -0.527344,0.527344 0,0.292968 0.246094,0.527343 0.527344,0.527343 0.292968,0 0.527343,-0.234375 0.527343,-0.527343 z m 3.873047,2.988281 c 0,-0.292969 -0.234375,-0.527344 -0.527343,-0.527344 -0.28125,0 -0.527344,0.234375 -0.527344,0.527344 0,0.292969 0.246094,0.527344 0.527344,0.527344 0.292968,0 0.527343,-0.234375 0.527343,-0.527344 z m 3.873047,2.988281 c 0,-0.292969 -0.234375,-0.527344 -0.527344,-0.527344 -0.28125,0 -0.527343,0.234375 -0.527343,0.527344 0,0.292969 0.246093,0.527344 0.527343,0.527344 0.292969,0 0.527344,-0.234375 0.527344,-0.527344 z m 0,0"
         style="fill:#000000;fill-opacity:1;fill-rule:nonzero;stroke:none" />
      <path
         id="path9"
         d="m 63.435,30.859922 c 1.910156,0 2.414063,0.46875 2.414063,1.125 0,0.609375 -0.480469,1.804687 -2.121094,1.863281 -0.492188,0.02344 -0.832031,0.375 -0.832031,0.480469 0,0.05859 0.04687,0.05859 0.05859,0.05859 0.410157,0.07031 0.609375,0.269531 1.136719,1.441406 0.457031,1.054687 0.714844,1.511719 1.300781,1.511719 1.207032,0 2.34375,-1.230469 2.34375,-1.453125 0,-0.07031 -0.07031,-0.07031 -0.105468,-0.07031 -0.117188,0 -0.503907,0.140625 -0.714844,0.433594 -0.164063,0.234375 -0.375,0.539062 -0.867188,0.539062 -0.503906,0 -0.820312,-0.703125 -1.160156,-1.488281 -0.199219,-0.492187 -0.386719,-0.867187 -0.609375,-1.136719 1.441406,-0.527343 2.414063,-1.570312 2.414063,-2.601562 0,-1.253906 -1.675782,-1.253906 -3.175782,-1.253906 -0.996093,0 -1.558593,0 -2.390625,0.363281 -1.335937,0.585937 -1.511718,1.417969 -1.511718,1.5 0,0.05859 0.03516,0.07031 0.09375,0.07031 0.164062,0 0.398437,-0.140625 0.46875,-0.1875 0.210937,-0.140625 0.246093,-0.199218 0.304687,-0.386718 0.140625,-0.398438 0.421875,-0.75 1.675781,-0.808594 -0.05859,0.609375 -0.140625,1.535156 -0.480468,2.988281 -0.269532,1.113281 -0.644532,2.214844 -1.078125,3.28125 -0.04687,0.105469 -0.04687,0.128906 -0.04687,0.140625 0,0.07031 0.08203,0.07031 0.09375,0.07031 0.199218,0 0.621093,-0.246094 0.726562,-0.433594 0.02344,-0.04687 1.289063,-2.859375 1.59375,-6.046875 z m 0,0"
         style="fill:#000000;fill-opacity:1;fill-rule:nonzero;stroke:none" />
      <path
         id="path10"
         d="m 70.322695,28.275938 c -1.324218,0.925781 -1.675781,2.414062 -1.675781,3.480468 0,0.984375 0.292969,2.507813 1.675781,3.480469 0.05859,0 0.140625,0 0.140625,-0.08203 0,-0.04687 -0.02344,-0.05859 -0.07031,-0.105469 -0.925781,-0.832031 -1.265625,-2.015625 -1.265625,-3.292969 0,-1.875 0.714844,-2.800781 1.289062,-3.316406 0.02344,-0.02344 0.04687,-0.04687 0.04687,-0.08203 0,-0.08203 -0.08203,-0.08203 -0.140625,-0.08203 z m 2.970703,0.796875 c 0,-0.1875 -0.01172,-0.199219 -0.210937,-0.199219 -0.445313,0.433594 -1.078125,0.445312 -1.359375,0.445312 V 29.565 c 0.164062,0 0.621094,0 1.007812,-0.1875 v 3.550781 c 0,0.234375 0,0.328125 -0.691406,0.328125 H 71.769961 V 33.5025 c 0.128906,-0.01172 0.984375,-0.02344 1.242187,-0.02344 0.210938,0 1.089844,0.01172 1.242188,0.02344 v -0.246094 h -0.257813 c -0.703125,0 -0.703125,-0.09375 -0.703125,-0.328125 z m 2.273438,-0.796875 c -0.05859,0 -0.140625,0 -0.140625,0.08203 0,0.03516 0.02344,0.05859 0.07031,0.105469 0.597657,0.550781 1.265625,1.488281 1.265625,3.292968 0,1.453125 -0.457031,2.554688 -1.207031,3.234375 -0.117187,0.117188 -0.128906,0.128907 -0.128906,0.164063 0,0.03516 0.02344,0.08203 0.09375,0.08203 0.08203,0 0.75,-0.457031 1.207031,-1.324219 0.304688,-0.585937 0.503906,-1.335937 0.503906,-2.15625 0,-0.984375 -0.292968,-2.507812 -1.664062,-3.480468 z m 0,0"
         style="fill:#000000;fill-opacity:1;fill-rule:nonzero;stroke:none" />
      <path
         id="path11"
         d="m 90.971133,48.200742 c 0,-0.292969 -0.234375,-0.527344 -0.527344,-0.527344 -0.28125,0 -0.527344,0.234375 -0.527344,0.527344 0,0.292969 0.246094,0.527344 0.527344,0.527344 0.292969,0 0.527344,-0.234375 0.527344,-0.527344 z m 3.873047,2.991211 c 0,-0.292969 -0.234375,-0.527344 -0.527344,-0.527344 -0.28125,0 -0.527344,0.234375 -0.527344,0.527344 0,0.292969 0.246094,0.527344 0.527344,0.527344 0.292969,0 0.527344,-0.234375 0.527344,-0.527344 z m 3.875976,2.988281 c 0,-0.292968 -0.234375,-0.527343 -0.527343,-0.527343 -0.28125,0 -0.527344,0.234375 -0.527344,0.527343 0,0.292969 0.246094,0.527344 0.527344,0.527344 0.292968,0 0.527343,-0.234375 0.527343,-0.527344 z M 18.81293,65.790586 c 0,-0.292969 -0.234375,-0.527344 -0.527344,-0.527344 -0.28125,0 -0.527344,0.234375 -0.527344,0.527344 0,0.292969 0.246094,0.527344 0.527344,0.527344 0.292969,0 0.527344,-0.234375 0.527344,-0.527344 z m 0,3.987305 c 0,-0.292969 -0.234375,-0.527344 -0.527344,-0.527344 -0.28125,0 -0.527344,0.234375 -0.527344,0.527344 0,0.292968 0.246094,0.527343 0.527344,0.527343 0.292969,0 0.527344,-0.234375 0.527344,-0.527343 z m 0,3.984375 c 0,-0.292969 -0.234375,-0.527344 -0.527344,-0.527344 -0.28125,0 -0.527344,0.234375 -0.527344,0.527344 0,0.292968 0.246094,0.527343 0.527344,0.527343 0.292969,0 0.527344,-0.234375 0.527344,-0.527343 z m 0,0"
         style="fill:#000000;fill-opacity:1;fill-rule:nonzero;stroke:none" />
      <path
         id="path12"
         d="m 118.27582,68.031797 c 1.91016,0 2.41406,0.46875 2.41406,1.125 0,0.609375 -0.48047,1.804687 -2.12109,1.863281 -0.49219,0.02344 -0.83203,0.375 -0.83203,0.480469 0,0.05859 0.0469,0.05859 0.0586,0.05859 0.41016,0.07031 0.60938,0.269531 1.13672,1.441406 0.45703,1.054687 0.71484,1.511719 1.30078,1.511719 1.20703,0 2.34375,-1.230469 2.34375,-1.453125 0,-0.07031 -0.0703,-0.07031 -0.10547,-0.07031 -0.11718,0 -0.5039,0.140625 -0.71484,0.433594 -0.16406,0.234375 -0.375,0.539062 -0.86719,0.539062 -0.5039,0 -0.82031,-0.703125 -1.16015,-1.488281 -0.19922,-0.492187 -0.38672,-0.867187 -0.60938,-1.136719 1.44141,-0.527343 2.41406,-1.570312 2.41406,-2.601562 0,-1.253906 -1.67578,-1.253906 -3.17578,-1.253906 -0.99609,0 -1.55859,0 -2.39062,0.363281 -1.33594,0.585937 -1.51172,1.417969 -1.51172,1.5 0,0.05859 0.0352,0.07031 0.0937,0.07031 0.16406,0 0.39844,-0.140625 0.46875,-0.1875 0.21094,-0.140625 0.24609,-0.199218 0.30469,-0.386718 0.14062,-0.398438 0.42187,-0.75 1.67578,-0.808594 -0.0586,0.609375 -0.14063,1.535156 -0.48047,2.988281 -0.26953,1.113281 -0.64453,2.214844 -1.07813,3.28125 -0.0469,0.105469 -0.0469,0.128906 -0.0469,0.140625 0,0.07031 0.082,0.07031 0.0937,0.07031 0.19922,0 0.62109,-0.246094 0.72656,-0.433594 0.0234,-0.04687 1.28906,-2.859375 1.59375,-6.046875 z m 0,0"
         style="fill:#000000;fill-opacity:1;fill-rule:nonzero;stroke:none" />
      <path
         id="path13"
         d="m 125.16059,65.447813 c -1.32422,0.925781 -1.67579,2.414062 -1.67579,3.480468 0,0.984375 0.29297,2.507813 1.67579,3.480469 0.0586,0 0.14062,0 0.14062,-0.08203 0,-0.04687 -0.0234,-0.05859 -0.0703,-0.105469 -0.92578,-0.832031 -1.26563,-2.015625 -1.26563,-3.292969 0,-1.875 0.71485,-2.800781 1.28907,-3.316406 0.0234,-0.02344 0.0469,-0.04687 0.0469,-0.08203 0,-0.08203 -0.082,-0.08203 -0.14062,-0.08203 z m 0,0"
         style="fill:#000000;fill-opacity:1;fill-rule:nonzero;stroke:none" />
      <path
         id="path14"
         d="m 129.61078,69.69 c 0.64453,-0.65625 0.90234,-1.59375 0.90234,-1.664062 0,-0.09375 -0.082,-0.09375 -0.11718,-0.09375 -0.0937,0 -0.0937,0.02344 -0.14063,0.175781 -0.1289,0.457031 -0.36328,0.890625 -0.65625,1.265625 0,-0.105469 -0.0234,-0.574219 -0.0352,-0.632813 -0.10547,-0.691406 -0.6211,-1.136718 -1.32422,-1.136718 -1.01953,0 -2.00391,0.949218 -2.00391,1.921875 0,0.644531 0.46875,1.21875 1.27735,1.21875 0.64453,0 1.21874,-0.292969 1.60546,-0.597657 0.16407,0.515625 0.51563,0.597657 0.72657,0.597657 0.41015,0 0.65625,-0.339844 0.65625,-0.492188 0,-0.08203 -0.082,-0.08203 -0.11719,-0.08203 -0.0937,0 -0.10547,0.03516 -0.11719,0.07031 -0.10547,0.269532 -0.31641,0.304688 -0.39844,0.304688 -0.0937,0 -0.22265,0 -0.25781,-0.855469 z m -0.53906,0.234375 c -0.67969,0.5625 -1.27734,0.621094 -1.53516,0.621094 -0.46875,0 -0.72656,-0.304688 -0.72656,-0.773438 0,-0.199218 0.10547,-0.960937 0.46875,-1.441406 0.31641,-0.421875 0.71484,-0.539062 0.96094,-0.539062 0.55078,0 0.71484,0.539062 0.77343,0.972656 0.0352,0.304687 0.0234,0.796875 0.0586,1.160156 z m 0,0"
         style="fill:#000000;fill-opacity:1;fill-rule:nonzero;stroke:none" />
      <path
         id="path15"
         d="m 131.61176,65.447813 c -0.0586,0 -0.14063,0 -0.14063,0.08203 0,0.03516 0.0234,0.05859 0.0703,0.105469 0.59765,0.550781 1.26562,1.488281 1.26562,3.292968 0,1.453125 -0.45703,2.554688 -1.20703,3.234375 -0.11719,0.117188 -0.12891,0.128907 -0.12891,0.164063 0,0.03516 0.0234,0.08203 0.0937,0.08203 0.082,0 0.75,-0.457031 1.20703,-1.324219 0.30469,-0.585937 0.50391,-1.335937 0.50391,-2.15625 0,-0.984375 -0.29297,-2.507812 -1.66406,-3.480468 z m 0,0"
         style="fill:#000000;fill-opacity:1;fill-rule:nonzero;stroke:none" />
      <path
         id="path16"
         d="m 151.17035,85.372617 c 0,-0.292969 -0.23437,-0.527344 -0.52734,-0.527344 -0.28125,0 -0.52735,0.234375 -0.52735,0.527344 0,0.292969 0.2461,0.527344 0.52735,0.527344 0.29297,0 0.52734,-0.234375 0.52734,-0.527344 z m 3.87305,2.991211 c 0,-0.292969 -0.23438,-0.527344 -0.52735,-0.527344 -0.28125,0 -0.52734,0.234375 -0.52734,0.527344 0,0.292969 0.24609,0.527344 0.52734,0.527344 0.29297,0 0.52735,-0.234375 0.52735,-0.527344 z m 3.87597,2.988281 c 0,-0.292968 -0.23437,-0.527343 -0.52734,-0.527343 -0.28125,0 -0.52734,0.234375 -0.52734,0.527343 0,0.292969 0.24609,0.527344 0.52734,0.527344 0.29297,0 0.52734,-0.234375 0.52734,-0.527344 z m 0,0"
         style="fill:#000000;fill-opacity:1;fill-rule:nonzero;stroke:none" />
      <path
         id="path17"
         d="m 119.685,102.81012 c 0,-0.28125 -0.23437,-0.52735 -0.52734,-0.52735 -0.28125,0 -0.52735,0.2461 -0.52735,0.52735 0,0.29297 0.2461,0.53906 0.52735,0.53906 0.29297,0 0.52734,-0.24609 0.52734,-0.53906 z m 4.43262,0 c 0,-0.28125 -0.23438,-0.52735 -0.52735,-0.52735 -0.28125,0 -0.52734,0.2461 -0.52734,0.52735 0,0.29297 0.24609,0.53906 0.52734,0.53906 0.29297,0 0.52735,-0.24609 0.52735,-0.53906 z m 4.4209,0 c 0,-0.28125 -0.23438,-0.52735 -0.52735,-0.52735 -0.28125,0 -0.52734,0.2461 -0.52734,0.52735 0,0.29297 0.24609,0.53906 0.52734,0.53906 0.29297,0 0.52735,-0.24609 0.52735,-0.53906 z m 0,0"
         style="fill:#000000;fill-opacity:1;fill-rule:nonzero;stroke:none" />
      <path
         id="path18"
         d="m 178.47211,99.048398 c 1.91016,0 2.41406,0.46875 2.41406,1.125002 0,0.60937 -0.48047,1.80469 -2.12109,1.86328 -0.49219,0.0234 -0.83203,0.375 -0.83203,0.48047 0,0.0586 0.0469,0.0586 0.0586,0.0586 0.41016,0.0703 0.60938,0.26953 1.13672,1.44141 0.45703,1.05469 0.71484,1.51172 1.30078,1.51172 1.20703,0 2.34375,-1.23047 2.34375,-1.45313 0,-0.0703 -0.0703,-0.0703 -0.10547,-0.0703 -0.11719,0 -0.5039,0.14062 -0.71484,0.43359 -0.16406,0.23438 -0.375,0.53907 -0.86719,0.53907 -0.50391,0 -0.82031,-0.70313 -1.16016,-1.48829 -0.19921,-0.49218 -0.38671,-0.86718 -0.60937,-1.13671 1.44141,-0.52735 2.41406,-1.57032 2.41406,-2.601567 0,-1.253906 -1.67578,-1.253906 -3.17578,-1.253906 -0.99609,0 -1.55859,0 -2.39062,0.363281 -1.33594,0.585938 -1.51172,1.417972 -1.51172,1.500002 0,0.0586 0.0351,0.0703 0.0937,0.0703 0.16406,0 0.39843,-0.14062 0.46875,-0.1875 0.21093,-0.14062 0.24609,-0.19922 0.30468,-0.386718 0.14063,-0.398437 0.42188,-0.75 1.67579,-0.808594 -0.0586,0.609375 -0.14063,1.535152 -0.48047,2.988282 -0.26953,1.11328 -0.64453,2.21484 -1.07813,3.28125 -0.0469,0.10547 -0.0469,0.12891 -0.0469,0.14062 0,0.0703 0.082,0.0703 0.0937,0.0703 0.19922,0 0.62109,-0.2461 0.72656,-0.4336 0.0234,-0.0469 1.28906,-2.85937 1.59375,-6.046872 z m 0,0"
         style="fill:#000000;fill-opacity:1;fill-rule:nonzero;stroke:none" />
      <path
         id="path19"
         d="m 185.3598,96.464414 c -1.32421,0.925781 -1.67578,2.414063 -1.67578,3.480469 0,0.984377 0.29297,2.507817 1.67578,3.480467 0.0586,0 0.14063,0 0.14063,-0.082 0,-0.0469 -0.0234,-0.0586 -0.0703,-0.10547 -0.92578,-0.83203 -1.26563,-2.01562 -1.26563,-3.292967 0,-1.875 0.71485,-2.800781 1.28906,-3.316406 0.0234,-0.02344 0.0469,-0.04687 0.0469,-0.08203 0,-0.08203 -0.082,-0.08203 -0.14063,-0.08203 z m 0,0"
         style="fill:#000000;fill-opacity:1;fill-rule:nonzero;stroke:none" />
      <path
         id="path20"
         d="m 189.80707,100.7066 c 0.64453,-0.65625 0.90234,-1.593748 0.90234,-1.664061 0,-0.09375 -0.082,-0.09375 -0.11718,-0.09375 -0.0937,0 -0.0937,0.02344 -0.14063,0.175781 -0.1289,0.457032 -0.36328,0.89063 -0.65625,1.26563 0,-0.10547 -0.0234,-0.574223 -0.0352,-0.632817 -0.10547,-0.691406 -0.6211,-1.136719 -1.32422,-1.136719 -1.01953,0 -2.00391,0.949219 -2.00391,1.921876 0,0.64453 0.46875,1.21875 1.27734,1.21875 0.64454,0 1.21875,-0.29297 1.60547,-0.59766 0.16407,0.51563 0.51563,0.59766 0.72657,0.59766 0.41015,0 0.65625,-0.33984 0.65625,-0.49219 0,-0.082 -0.082,-0.082 -0.11719,-0.082 -0.0937,0 -0.10547,0.0352 -0.11719,0.0703 -0.10547,0.26953 -0.31641,0.30469 -0.39844,0.30469 -0.0937,0 -0.22265,0 -0.25781,-0.85547 z m -0.53906,0.23438 c -0.67969,0.5625 -1.27735,0.62109 -1.53516,0.62109 -0.46875,0 -0.72656,-0.30469 -0.72656,-0.77344 0,-0.19922 0.10547,-0.960935 0.46875,-1.441403 0.31641,-0.421875 0.71484,-0.539063 0.96094,-0.539063 0.55078,0 0.71484,0.539063 0.77343,0.972656 0.0352,0.30469 0.0234,0.79688 0.0586,1.16016 z m 0,0"
         style="fill:#000000;fill-opacity:1;fill-rule:nonzero;stroke:none" />
      <path
         id="path21"
         d="m 191.81098,96.464414 c -0.0586,0 -0.14063,0 -0.14063,0.08203 0,0.03516 0.0234,0.05859 0.0703,0.105469 0.59766,0.550781 1.26563,1.488281 1.26563,3.292969 0,1.453128 -0.45703,2.554688 -1.20703,3.234378 -0.11719,0.11719 -0.12891,0.1289 -0.12891,0.16406 0,0.0352 0.0234,0.082 0.0937,0.082 0.082,0 0.75,-0.45703 1.20703,-1.32422 0.30469,-0.58593 0.50391,-1.33593 0.50391,-2.156248 0,-0.984375 -0.29297,-2.507813 -1.66406,-3.480469 z m 0,0"
         style="fill:#000000;fill-opacity:1;fill-rule:nonzero;stroke:none" />
      <path
         id="path22"
         d="m 211.36664,116.39215 c 0,-0.29297 -0.23437,-0.52735 -0.52734,-0.52735 -0.28125,0 -0.52735,0.23438 -0.52735,0.52735 0,0.29297 0.2461,0.52734 0.52735,0.52734 0.29297,0 0.52734,-0.23437 0.52734,-0.52734 z m 3.87598,2.98828 c 0,-0.29297 -0.23438,-0.52734 -0.52735,-0.52734 -0.28125,0 -0.52734,0.23437 -0.52734,0.52734 0,0.29297 0.24609,0.52734 0.52734,0.52734 0.29297,0 0.52735,-0.23437 0.52735,-0.52734 z m 3.87304,2.98828 c 0,-0.29297 -0.23437,-0.52734 -0.52734,-0.52734 -0.28125,0 -0.52734,0.23437 -0.52734,0.52734 0,0.29297 0.24609,0.52734 0.52734,0.52734 0.29297,0 0.52734,-0.23437 0.52734,-0.52734 z m 0,0"
         style="fill:#000000;fill-opacity:1;fill-rule:nonzero;stroke:none" />
      <path
         id="path23"
         d="m 226.33734,17.131406 c 0,-6.082031 -1.08984,-9.6562497 -1.39453,-10.6523435 -0.67969,-2.2148437 -1.79297,-4.546875 -3.45703,-6.59765625 -0.14062,-0.1875 -0.1875,-0.234375 -0.22266,-0.24609375 -0.0234,-0.0117188 -0.0351,-0.0234375 -0.1875,-0.0234375 -0.15234,0 -0.23437,0 -0.23437,0.09375 0,0.0234375 0,0.046875 0.12891,0.22265625 3.46875,4.83984375 4.24218,10.81640675 4.2539,17.56640675 0,0.140625 0.0586,0.140625 0.28125,0.140625 h 0.55078 c 0.21094,0 0.26953,0 0.28125,-0.117188 z m 0,0.56543 c 0,-0.257813 -0.0117,-0.269531 -0.28125,-0.269531 h -0.55078 c -0.26953,0 -0.28125,0.01172 -0.28125,0.269531 v 5.648437 c 0,0.257813 0.0117,0.269532 0.28125,0.269532 h 0.55078 c 0.26953,0 0.28125,-0.01172 0.28125,-0.269532 z m 0,5.979492 c 0,-0.257812 -0.0117,-0.269531 -0.28125,-0.269531 h -0.55078 c -0.26953,0 -0.28125,0.01172 -0.28125,0.269531 v 5.648438 c 0,0.257812 0.0117,0.269531 0.28125,0.269531 h 0.55078 c 0.26953,0 0.28125,-0.01172 0.28125,-0.269531 z m 0,5.976563 c 0,-0.257813 -0.0117,-0.269532 -0.28125,-0.269532 h -0.55078 c -0.26953,0 -0.28125,0.01172 -0.28125,0.269532 v 5.648437 c 0,0.257813 0.0117,0.269531 0.28125,0.269531 h 0.55078 c 0.26953,0 0.28125,-0.01172 0.28125,-0.269531 z m 0,5.979492 c 0,-0.257813 -0.0117,-0.269531 -0.28125,-0.269531 h -0.55078 c -0.26953,0 -0.28125,0.01172 -0.28125,0.269531 v 5.648437 c 0,0.257813 0.0117,0.269532 0.28125,0.269532 h 0.55078 c 0.26953,0 0.28125,-0.01172 0.28125,-0.269532 z m 0,5.976562 c 0,-0.257812 -0.0117,-0.269531 -0.28125,-0.269531 h -0.55078 c -0.26953,0 -0.28125,0.01172 -0.28125,0.269531 v 5.648438 c 0,0.257812 0.0117,0.269531 0.28125,0.269531 h 0.55078 c 0.26953,0 0.28125,-0.01172 0.28125,-0.269531 z m 0,5.976563 c 0,-0.257813 -0.0117,-0.269531 -0.28125,-0.269531 h -0.55078 c -0.26953,0 -0.28125,0.01172 -0.28125,0.269531 v 5.648437 c 0,0.257813 0.0117,0.269532 0.28125,0.269532 h 0.55078 c 0.26953,0 0.28125,-0.01172 0.28125,-0.269532 z m 0,5.979492 c 0,-0.257812 -0.0117,-0.269531 -0.28125,-0.269531 h -0.55078 c -0.26953,0 -0.28125,0.01172 -0.28125,0.269531 v 5.648438 c 0,0.257812 0.0117,0.269531 0.28125,0.269531 h 0.55078 c 0.26953,0 0.28125,-0.01172 0.28125,-0.269531 z m 0,5.976563 c 0,-0.257813 -0.0117,-0.269532 -0.28125,-0.269532 h -0.55078 c -0.26953,0 -0.28125,0.01172 -0.28125,0.269532 V 65.19 c 0,0.257813 0.0117,0.269531 0.28125,0.269531 h 0.55078 c 0.26953,0 0.28125,-0.01172 0.28125,-0.269531 z m 0,5.976562 c 0,-0.257812 -0.0117,-0.269531 -0.28125,-0.269531 h -0.55078 c -0.26953,0 -0.28125,0.01172 -0.28125,0.269531 v 5.648438 c 0,0.257812 0.0117,0.269531 0.28125,0.269531 h 0.55078 c 0.26953,0 0.28125,-0.01172 0.28125,-0.269531 z m 0,5.979492 c 0,-0.257812 -0.0117,-0.269531 -0.28125,-0.269531 h -0.55078 c -0.26953,0 -0.28125,0.01172 -0.28125,0.269531 v 5.648438 c 0,0.257812 0.0117,0.269531 0.28125,0.269531 h 0.55078 c 0.26953,0 0.28125,-0.01172 0.28125,-0.269531 z m 0,5.976563 c 0,-0.257813 -0.0117,-0.269532 -0.28125,-0.269532 h -0.55078 c -0.26953,0 -0.28125,0.01172 -0.28125,0.269532 v 5.648437 c 0,0.257813 0.0117,0.269531 0.28125,0.269531 h 0.55078 c 0.26953,0 0.28125,-0.01172 0.28125,-0.269531 z m 0,5.976562 c 0,-0.257812 -0.0117,-0.269531 -0.28125,-0.269531 h -0.55078 c -0.26953,0 -0.28125,0.01172 -0.28125,0.269531 v 5.648438 c 0,0.257812 0.0117,0.269531 0.28125,0.269531 h 0.55078 c 0.26953,0 0.28125,-0.01172 0.28125,-0.269531 z m 0,5.979492 c 0,-0.257812 -0.0117,-0.269531 -0.28125,-0.269531 h -0.55078 c -0.26953,0 -0.28125,0.01172 -0.28125,0.269531 v 5.648438 c 0,0.257812 0.0117,0.269531 0.28125,0.269531 h 0.55078 c 0.26953,0 0.28125,-0.01172 0.28125,-0.269531 z m 0,5.976563 c 0,-0.257813 -0.0117,-0.269531 -0.28125,-0.269531 h -0.55078 c -0.26953,0 -0.28125,0.01172 -0.28125,0.269531 v 5.648433 c 0,0.25782 0.0117,0.26954 0.28125,0.26954 h 0.55078 c 0.26953,0 0.28125,-0.0117 0.28125,-0.26954 z m 0,5.979493 c 0,-0.25781 -0.0117,-0.26953 -0.28125,-0.26953 h -0.55078 c -0.26953,0 -0.28125,0.0117 -0.28125,0.26953 v 5.64844 c 0,0.25781 0.0117,0.26953 0.28125,0.26953 h 0.55078 c 0.26953,0 0.28125,-0.0117 0.28125,-0.26953 z m 0,5.82422 c -0.0117,-0.11719 -0.0703,-0.11719 -0.28125,-0.11719 h -0.55078 c -0.22265,0 -0.28125,0 -0.28125,0.14063 0,1.03125 -0.0117,3.39843 -0.26953,5.88281 -0.53906,5.14453 -1.86328,8.71875 -4.04297,11.77734 -0.0703,0.082 -0.0703,0.10547 -0.0703,0.12891 0,0.0937 0.082,0.0937 0.23437,0.0937 0.15235,0 0.17579,0 0.19922,-0.0234 0.0352,-0.0234 1.30078,-1.47656 2.3086,-3.48047 1.3125,-2.625 2.14453,-5.64844 2.50781,-9.26953 0.0352,-0.31641 0.24609,-2.39062 0.24609,-4.74609 z m 0,0"
         style="fill:#000000;fill-opacity:1;fill-rule:nonzero;stroke:none" />
    </g>
    <g
       id="g23"
       aria-label="m&#10;(α)"
       transform="matrix(1.3333333,0,0,1.3333333,342.49067,130.416)">
      <path
         id="path24"
         d="m 0.88004688,-0.58739062 c -0.0351563,0.15234375 -0.09375,0.375 -0.09375,0.421875 0,0.1875 0.140625,0.26953125 0.29296872,0.26953125 0.1171875,0 0.2929688,-0.0703125 0.3632813,-0.26953125 0.011719,-0.0234375 0.1289062,-0.4921875 0.1875,-0.73828125 L 1.8527031,-1.8061406 c 0.058594,-0.2226563 0.1171875,-0.4335938 0.1757813,-0.6679688 0.035156,-0.1640625 0.1171875,-0.4570312 0.1289062,-0.4921875 0.140625,-0.3164062 0.6679688,-1.21875 1.6171875,-1.21875 0.4453125,0 0.5390625,0.3632813 0.5390625,0.6914063 0,0.2578125 -0.070312,0.5390625 -0.1523437,0.8320312 l -0.2695313,1.1601563 -0.1992187,0.74999998 c -0.046875,0.19921875 -0.140625,0.5390625 -0.140625,0.5859375 0,0.1875 0.140625,0.26953125 0.2929687,0.26953125 0.3046875,0 0.375,-0.24609375 0.4453125,-0.5625 0.140625,-0.56250003 0.515625,-2.01562503 0.5976563,-2.40234373 0.035156,-0.1289063 0.5625,-1.3242188 1.6523437,-1.3242188 0.421875,0 0.5390625,0.3398438 0.5390625,0.6914063 0,0.5742187 -0.421875,1.7109375 -0.6210937,2.2382812 -0.09375,0.234375 -0.1289063,0.35156253 -0.1289063,0.55078128 0,0.46875 0.3515625,0.80859375 0.8085938,0.80859375 0.9375,0 1.3125,-1.45312503 1.3125,-1.53515623 0,-0.09375 -0.09375,-0.09375 -0.1171875,-0.09375 -0.1054688,0 -0.1054688,0.023437 -0.1523438,0.1757812 -0.1523437,0.52734378 -0.46875,1.24218753 -1.0195312,1.24218753 -0.1640625,0 -0.234375,-0.10546875 -0.234375,-0.328125 0,-0.2578125 0.082031,-0.4921875 0.1757812,-0.71484373 0.1875,-0.515625 0.609375,-1.6171875 0.609375,-2.1914063 0,-0.6445312 -0.3984375,-1.0664062 -1.1484375,-1.0664062 -0.75,0 -1.2539062,0.4453125 -1.6171875,0.9726562 -0.011719,-0.1289062 -0.046875,-0.46875 -0.328125,-0.7148437 -0.2460937,-0.1992188 -0.5625,-0.2578125 -0.8085937,-0.2578125 -0.9023438,0 -1.3828125,0.6445312 -1.5585938,0.8671875 -0.046875,-0.5625 -0.46875,-0.8671875 -0.9140625,-0.8671875 -0.45703122,0 -0.64453122,0.3867187 -0.73828122,0.5742187 -0.17578125,0.3398438 -0.3046875,0.9375 -0.3046875,0.9609375 0,0.1054688 0.09375,0.1054688 0.1171875,0.1054688 0.09375,0 0.10546875,-0.011719 0.1640625,-0.234375 0.17578125,-0.703125 0.375,-1.1835938 0.72656252,-1.1835938 0.1640625,0 0.3164062,0.082031 0.3164062,0.4570313 0,0.2109375 -0.035156,0.3164062 -0.1640625,0.8320312 z m 0,0"
         style="fill:#ffffff;fill-opacity:1;fill-rule:nonzero;stroke:none" />
      <path
         id="path25"
         d="m 11.218914,-8.84325 c -1.3242187,0.9257813 -1.6757812,2.4140625 -1.6757812,3.4804688 0,0.984375 0.2929688,2.5078125 1.6757812,3.4804687 0.05859,0 0.140625,0 0.140625,-0.082031 0,-0.046875 -0.02344,-0.058594 -0.07031,-0.1054688 -0.925782,-0.8320312 -1.265625,-2.015625 -1.265625,-3.2929687 0,-1.875 0.714843,-2.8007813 1.289062,-3.3164063 0.02344,-0.023437 0.04687,-0.046875 0.04687,-0.082031 0,-0.082031 -0.08203,-0.082031 -0.140625,-0.082031 z m 0,0"
         style="fill:#ffffff;fill-opacity:1;fill-rule:nonzero;stroke:none" />
      <path
         id="path26"
         d="m 15.669109,-4.6010625 c 0.644532,-0.65625 0.902344,-1.59375 0.902344,-1.6640625 0,-0.09375 -0.08203,-0.09375 -0.117187,-0.09375 -0.09375,0 -0.09375,0.023437 -0.140625,0.1757813 -0.128907,0.4570312 -0.363282,0.890625 -0.65625,1.265625 0,-0.1054688 -0.02344,-0.5742188 -0.03516,-0.6328125 C 15.516766,-6.2416875 15.001141,-6.687 14.298016,-6.687 c -1.019532,0 -2.003907,0.9492188 -2.003907,1.921875 0,0.6445313 0.46875,1.21875 1.277344,1.21875 0.644531,0 1.21875,-0.2929687 1.605469,-0.5976562 0.164062,0.515625 0.515625,0.5976562 0.726562,0.5976562 0.410157,0 0.65625,-0.3398437 0.65625,-0.4921875 0,-0.082031 -0.08203,-0.082031 -0.117187,-0.082031 -0.09375,0 -0.105469,0.035156 -0.117188,0.070312 -0.105468,0.2695312 -0.316406,0.3046875 -0.398437,0.3046875 -0.09375,0 -0.222656,0 -0.257813,-0.8554685 z m -0.539062,0.234375 c -0.679688,0.5625 -1.277344,0.6210938 -1.535156,0.6210938 -0.46875,0 -0.726563,-0.3046875 -0.726563,-0.7734375 0,-0.1992188 0.105469,-0.9609375 0.46875,-1.4414063 0.316406,-0.421875 0.714844,-0.5390625 0.960938,-0.5390625 0.550781,0 0.714843,0.5390625 0.773437,0.9726563 0.03516,0.3046875 0.02344,0.796875 0.05859,1.1601562 z m 0,0"
         style="fill:#ffffff;fill-opacity:1;fill-rule:nonzero;stroke:none" />
      <path
         id="path27"
         d="m 17.673016,-8.84325 c -0.05859,0 -0.140625,0 -0.140625,0.082031 0,0.035156 0.02344,0.058594 0.07031,0.1054687 0.597656,0.5507813 1.265625,1.4882813 1.265625,3.2929688 0,1.453125 -0.457031,2.5546875 -1.207031,3.234375 -0.117188,0.1171875 -0.128906,0.1289062 -0.128906,0.1640625 0,0.035156 0.02344,0.082031 0.09375,0.082031 0.08203,0 0.75,-0.4570312 1.207031,-1.3242187 0.304687,-0.5859375 0.503906,-1.3359375 0.503906,-2.15625 0,-0.984375 -0.292969,-2.5078125 -1.664062,-3.4804688 z m 0,0"
         style="fill:#ffffff;fill-opacity:1;fill-rule:nonzero;stroke:none" />
    </g>
    <g
       id="g27"
       aria-label="m&#10;(1)"
       transform="matrix(1.3333333,0,0,1.3333333,342.49067,40.752)">
      <path
         id="path28"
         d="m 0.88004688,-0.58450781 c -0.0351563,0.15234375 -0.09375,0.375 -0.09375,0.421875 0,0.1875 0.140625,0.26953125 0.29296872,0.26953125 0.1171875,0 0.2929688,-0.0703125 0.3632813,-0.26953125 0.011719,-0.0234375 0.1289062,-0.4921875 0.1875,-0.73828125 L 1.8527031,-1.8032578 c 0.058594,-0.2226563 0.1171875,-0.4335938 0.1757813,-0.6679688 0.035156,-0.1640625 0.1171875,-0.4570312 0.1289062,-0.4921875 0.140625,-0.3164062 0.6679688,-1.21875 1.6171875,-1.21875 0.4453125,0 0.5390625,0.3632813 0.5390625,0.6914063 0,0.2578125 -0.070312,0.5390625 -0.1523437,0.8320312 l -0.2695313,1.1601563 -0.1992187,0.74999999 c -0.046875,0.19921875 -0.140625,0.5390625 -0.140625,0.5859375 0,0.1875 0.140625,0.26953125 0.2929687,0.26953125 0.3046875,0 0.375,-0.24609375 0.4453125,-0.5625 0.140625,-0.56250004 0.515625,-2.01562504 0.5976563,-2.40234374 0.035156,-0.1289063 0.5625,-1.3242188 1.6523437,-1.3242188 0.421875,0 0.5390625,0.3398438 0.5390625,0.6914063 0,0.5742187 -0.421875,1.7109375 -0.6210937,2.2382812 -0.09375,0.234375 -0.1289063,0.35156254 -0.1289063,0.55078129 0,0.46875 0.3515625,0.80859375 0.8085938,0.80859375 0.9375,0 1.3125,-1.45312504 1.3125,-1.53515624 0,-0.09375 -0.09375,-0.09375 -0.1171875,-0.09375 -0.1054688,0 -0.1054688,0.023437 -0.1523438,0.1757812 -0.1523437,0.52734379 -0.46875,1.24218754 -1.0195312,1.24218754 -0.1640625,0 -0.234375,-0.10546875 -0.234375,-0.328125 0,-0.2578125 0.082031,-0.4921875 0.1757812,-0.71484374 0.1875,-0.515625 0.609375,-1.6171875 0.609375,-2.1914063 0,-0.6445312 -0.3984375,-1.0664062 -1.1484375,-1.0664062 -0.75,0 -1.2539062,0.4453125 -1.6171875,0.9726562 -0.011719,-0.1289062 -0.046875,-0.46875 -0.328125,-0.7148437 -0.2460937,-0.1992188 -0.5625,-0.2578125 -0.8085937,-0.2578125 -0.9023438,0 -1.3828125,0.6445312 -1.5585938,0.8671875 -0.046875,-0.5625 -0.46875,-0.8671875 -0.9140625,-0.8671875 -0.45703122,0 -0.64453122,0.3867187 -0.73828122,0.5742187 -0.17578125,0.3398438 -0.3046875,0.9375 -0.3046875,0.9609375 0,0.1054688 0.09375,0.1054688 0.1171875,0.1054688 0.09375,0 0.10546875,-0.011719 0.1640625,-0.234375 0.17578125,-0.703125 0.375,-1.1835938 0.72656252,-1.1835938 0.1640625,0 0.3164062,0.082031 0.3164062,0.4570313 0,0.2109375 -0.035156,0.3164062 -0.1640625,0.8320312 z m 0,0"
         style="fill:#ffffff;fill-opacity:1;fill-rule:nonzero;stroke:none" />
      <path
         id="path29"
         d="m 11.218914,-8.8403672 c -1.3242187,0.9257813 -1.6757812,2.4140625 -1.6757812,3.4804688 0,0.984375 0.2929688,2.5078125 1.6757812,3.4804687 0.05859,0 0.140625,0 0.140625,-0.082031 0,-0.046875 -0.02344,-0.058594 -0.07031,-0.1054688 -0.925782,-0.8320312 -1.265625,-2.015625 -1.265625,-3.2929687 0,-1.875 0.714843,-2.8007813 1.289062,-3.3164063 0.02344,-0.023437 0.04687,-0.046875 0.04687,-0.082031 0,-0.082031 -0.08203,-0.082031 -0.140625,-0.082031 z m 2.973633,0.796875 c 0,-0.1875 -0.01172,-0.1992187 -0.210938,-0.1992187 -0.445312,0.4335937 -1.078125,0.4453125 -1.359375,0.4453125 v 0.2460937 c 0.164063,0 0.621094,0 1.007813,-0.1875 v 3.5507813 c 0,0.234375 0,0.328125 -0.691406,0.328125 h -0.269532 v 0.2460937 c 0.128907,-0.011719 0.984375,-0.023437 1.242188,-0.023437 0.210937,0 1.089844,0.011719 1.242187,0.023437 v -0.2460937 h -0.257812 c -0.703125,0 -0.703125,-0.09375 -0.703125,-0.328125 z m 2.270508,-0.796875 c -0.05859,0 -0.140625,0 -0.140625,0.082031 0,0.035156 0.02344,0.058594 0.07031,0.1054687 0.597656,0.5507813 1.265625,1.4882813 1.265625,3.2929688 0,1.453125 -0.457031,2.5546875 -1.207031,3.234375 -0.117188,0.1171875 -0.128906,0.1289062 -0.128906,0.1640625 0,0.035156 0.02344,0.082031 0.09375,0.082031 0.08203,0 0.75,-0.4570312 1.207031,-1.3242187 0.304687,-0.5859375 0.503906,-1.3359375 0.503906,-2.15625 0,-0.984375 -0.292969,-2.5078125 -1.664062,-3.4804688 z m 0,0"
         style="fill:#ffffff;fill-opacity:1;fill-rule:nonzero;stroke:none" />
    </g>
  </g>
</svg>
