<?xml version="1.0" encoding="UTF-8" standalone="no"?>
<!-- Created with Inkscape (http://www.inkscape.org/) -->

<svg
   version="1.1"
   id="svg1"
   width="400.35999"
   height="123.93333"
   viewBox="0 0 400.35999 123.93333"
   sodipodi:docname="matrix-element-orthogonality-white.pdf"
   xmlns:inkscape="http://www.inkscape.org/namespaces/inkscape"
   xmlns:sodipodi="http://sodipodi.sourceforge.net/DTD/sodipodi-0.dtd"
   xmlns="http://www.w3.org/2000/svg"
   xmlns:svg="http://www.w3.org/2000/svg">
  <defs
     id="defs1" />
  <sodipodi:namedview
     id="namedview1"
     pagecolor="#ffffff"
     bordercolor="#000000"
     borderopacity="0.25"
     inkscape:showpageshadow="2"
     inkscape:pageopacity="0.0"
     inkscape:pagecheckerboard="0"
     inkscape:deskcolor="#d1d1d1">
    <inkscape:page
       x="0"
       y="0"
       inkscape:label="1"
       id="page1"
       width="400.35999"
       height="123.93333"
       margin="0"
       bleed="0" />
  </sodipodi:namedview>
  <g
     id="g1"
     inkscape:groupmode="layer"
     inkscape:label="1">
    <g
       id="g2"
       aria-label="&#10;&#10;&#10;&#10;&#10;&#10;&#10;&#10;&#10;&#10;.&#10;.&#10;.&#10;···&#10;R&#10;(α)&#10;ij&#10;.&#10;.&#10;.&#10;.&#10;.&#10;.&#10;R&#10;(α)&#10;i&#10;′&#10;j&#10;′&#10;···&#10;&#10;&#10;&#10;&#10;&#10;&#10;&#10;&#10;&#10;"
       transform="matrix(1.3333333,0,0,1.3333333,6.656,3.1506667)">
      <path
         id="path2"
         d="m 3.9259687,18.587195 c 0.234375,0 0.2929688,0 0.2929688,-0.152343 0.023437,-7.359375 0.8789062,-13.4648442 4.546875,-18.59765669 0.070312,-0.09375 0.070312,-0.1171875 0.070312,-0.140625 0,-0.10546875 -0.070312,-0.10546875 -0.234375,-0.10546875 -0.1757813,0 -0.1875,0 -0.2109375,0.0234375 C 8.343937,-0.35030464 7.0197182,1.1731328 5.953312,3.2825078 4.5705,6.0598516 3.6915937,9.2356328 3.304875,13.067664 3.2814375,13.38407 3.0587812,15.575477 3.0587812,18.059852 v 0.410156 c 0.011719,0.117187 0.070312,0.117187 0.2929688,0.117187 z m 0.2929688,0.06738 c 0,-0.269531 -0.011719,-0.28125 -0.2929688,-0.28125 H 3.35175 c -0.28125,0 -0.2929688,0.01172 -0.2929688,0.28125 v 5.941406 c 0,0.28125 0.011719,0.292969 0.2929688,0.292969 h 0.5742187 c 0.28125,0 0.2929688,-0.01172 0.2929688,-0.292969 z m 0,6.301758 c 0,-0.269531 -0.011719,-0.28125 -0.2929688,-0.28125 H 3.35175 c -0.28125,0 -0.2929688,0.01172 -0.2929688,0.28125 v 5.941406 c 0,0.28125 0.011719,0.292969 0.2929688,0.292969 h 0.5742187 c 0.28125,0 0.2929688,-0.01172 0.2929688,-0.292969 z m 0,6.301758 c 0,-0.269532 -0.011719,-0.28125 -0.2929688,-0.28125 H 3.35175 c -0.28125,0 -0.2929688,0.01172 -0.2929688,0.28125 V 37.1995 c 0,0.28125 0.011719,0.292969 0.2929688,0.292969 h 0.5742187 c 0.28125,0 0.2929688,-0.01172 0.2929688,-0.292969 z m 0,6.298828 c 0,-0.269531 -0.011719,-0.28125 -0.2929688,-0.28125 H 3.35175 c -0.28125,0 -0.2929688,0.01172 -0.2929688,0.28125 v 5.941406 c 0,0.28125 0.011719,0.292969 0.2929688,0.292969 h 0.5742187 c 0.28125,0 0.2929688,-0.01172 0.2929688,-0.292969 z m 0,6.298828 c 0,-0.269531 -0.011719,-0.28125 -0.2929688,-0.28125 H 3.35175 c -0.28125,0 -0.2929688,0.01172 -0.2929688,0.28125 v 5.941406 c 0,0.28125 0.011719,0.292969 0.2929688,0.292969 h 0.5742187 c 0.28125,0 0.2929688,-0.01172 0.2929688,-0.292969 z m 0,6.301758 c 0,-0.269531 -0.011719,-0.28125 -0.2929688,-0.28125 H 3.35175 c -0.28125,0 -0.2929688,0.01172 -0.2929688,0.28125 v 5.941406 c 0,0.28125 0.011719,0.292969 0.2929688,0.292969 h 0.5742187 c 0.28125,0 0.2929688,-0.01172 0.2929688,-0.292969 z m 0,6.298828 c 0,-0.269531 -0.011719,-0.28125 -0.2929688,-0.28125 H 3.35175 c -0.28125,0 -0.2929688,0.01172 -0.2929688,0.28125 v 5.941406 c 0,0.28125 0.011719,0.292969 0.2929688,0.292969 h 0.5742187 c 0.28125,0 0.2929688,-0.01172 0.2929688,-0.292969 z m 0,6.301758 c 0,-0.269532 -0.011719,-0.28125 -0.2929688,-0.28125 H 3.35175 c -0.28125,0 -0.2929688,0.01172 -0.2929688,0.28125 V 68.6995 c 0,0.28125 0.011719,0.292969 0.2929688,0.292969 h 0.5742187 c 0.28125,0 0.2929688,-0.01172 0.2929688,-0.292969 z M 3.35175,68.772742 c -0.2226563,0 -0.28125,0 -0.2929688,0.117188 v 0.410156 c 0,6.410156 1.1367188,10.171875 1.4648438,11.238281 0.7148437,2.332031 1.8867187,4.78125 3.6328125,6.949219 0.1640625,0.1875 0.1992187,0.234375 0.2460937,0.257812 0.023437,0.01172 0.023437,0.02344 0.1992188,0.02344 0.1640625,0 0.234375,0 0.234375,-0.105469 0,-0.02344 0,-0.03516 -0.058594,-0.140625 -3.4921875,-4.851562 -4.546875,-10.6875 -4.5585937,-18.597656 0,-0.152344 -0.058594,-0.152344 -0.2929688,-0.152344 z m 0,0"
         style="fill:#ffffff;fill-opacity:1;fill-rule:nonzero;stroke:none" />
      <path
         id="path3"
         d="m 11.78632,6.6721563 c 0,-0.3046875 -0.246093,-0.5625 -0.550781,-0.5625 -0.304687,0 -0.5625,0.2578125 -0.5625,0.5625 0,0.2929687 0.257813,0.5507812 0.5625,0.5507812 0.304688,0 0.550781,-0.2578125 0.550781,-0.5507812 z m 4.083985,2.9882812 c 0,-0.3046875 -0.246094,-0.5625 -0.550782,-0.5625 -0.304687,0 -0.5625,0.2578125 -0.5625,0.5625 0,0.2929688 0.257813,0.5507815 0.5625,0.5507815 0.304688,0 0.550782,-0.2578127 0.550782,-0.5507815 z m 4.086914,2.9882815 c 0,-0.304688 -0.246094,-0.5625 -0.550782,-0.5625 -0.304687,0 -0.5625,0.257812 -0.5625,0.5625 0,0.292969 0.257813,0.550781 0.5625,0.550781 0.304688,0 0.550782,-0.257812 0.550782,-0.550781 z m 0,0"
         style="fill:#ffffff;fill-opacity:1;fill-rule:nonzero;stroke:none" />
      <path
         id="path4"
         d="m 64.189641,11.570594 c 0,-0.304688 -0.246094,-0.550781 -0.550782,-0.550781 -0.304687,0 -0.5625,0.246093 -0.5625,0.550781 0,0.304687 0.257813,0.550781 0.5625,0.550781 0.304688,0 0.550782,-0.246094 0.550782,-0.550781 z m 4.649414,0 c 0,-0.304688 -0.246094,-0.550781 -0.550782,-0.550781 -0.304687,0 -0.5625,0.246093 -0.5625,0.550781 0,0.304687 0.257813,0.550781 0.5625,0.550781 0.304688,0 0.550782,-0.246094 0.550782,-0.550781 z m 4.664062,0 c 0,-0.304688 -0.246094,-0.550781 -0.550781,-0.550781 -0.304688,0 -0.5625,0.246093 -0.5625,0.550781 0,0.304687 0.257812,0.550781 0.5625,0.550781 0.304687,0 0.550781,-0.246094 0.550781,-0.550781 z M 35.660344,23.98075 c 2.015625,0 2.542968,0.492187 2.542968,1.195312 0,0.632813 -0.503906,1.898438 -2.238281,1.957032 -0.515625,0.02344 -0.878906,0.386718 -0.878906,0.503906 0,0.05859 0.04687,0.05859 0.05859,0.05859 0.445312,0.08203 0.65625,0.292968 1.195312,1.523437 0.480469,1.101563 0.761719,1.59375 1.371094,1.59375 1.277344,0 2.484375,-1.289062 2.484375,-1.523437 0,-0.07031 -0.08203,-0.07031 -0.117188,-0.07031 -0.128906,0 -0.539062,0.140625 -0.75,0.445313 -0.175781,0.246093 -0.398437,0.5625 -0.914062,0.5625 -0.539063,0 -0.867188,-0.738282 -1.21875,-1.558594 -0.222656,-0.527344 -0.410156,-0.914063 -0.65625,-1.195313 1.523437,-0.5625 2.554687,-1.664062 2.554687,-2.753906 0,-1.3125 -1.769531,-1.3125 -3.351562,-1.3125 -1.054688,0 -1.640625,0 -2.519531,0.375 -1.40625,0.621094 -1.59375,1.5 -1.59375,1.582031 0,0.05859 0.03516,0.08203 0.105468,0.08203 0.164063,0 0.410157,-0.152344 0.492188,-0.199219 0.222656,-0.152344 0.246094,-0.210938 0.316406,-0.410156 0.140625,-0.421875 0.433594,-0.785157 1.757813,-0.855469 -0.04687,0.644531 -0.140625,1.617187 -0.503907,3.152344 -0.28125,1.171875 -0.667968,2.332031 -1.125,3.457031 -0.05859,0.117187 -0.05859,0.140625 -0.05859,0.140625 0,0.08203 0.08203,0.08203 0.105468,0.08203 0.210938,0 0.65625,-0.257812 0.761719,-0.457031 0.02344,-0.04687 1.359375,-3.011719 1.6875,-6.375 z m 0,0"
         style="fill:#ffffff;fill-opacity:1;fill-rule:nonzero;stroke:none" />
      <path
         id="path5"
         d="m 42.779484,19.990516 c -1.324218,0.925781 -1.675781,2.414062 -1.675781,3.480468 0,0.984375 0.292969,2.507813 1.675781,3.480469 0.05859,0 0.140625,0 0.140625,-0.08203 0,-0.04687 -0.02344,-0.05859 -0.07031,-0.105469 -0.925781,-0.832031 -1.265625,-2.015625 -1.265625,-3.292969 0,-1.875 0.714844,-2.800781 1.289062,-3.316406 0.02344,-0.02344 0.04687,-0.04687 0.04687,-0.08203 0,-0.08203 -0.08203,-0.08203 -0.140625,-0.08203 z m 0,0"
         style="fill:#ffffff;fill-opacity:1;fill-rule:nonzero;stroke:none" />
      <path
         id="path6"
         d="m 47.22675,24.232703 c 0.644531,-0.65625 0.902344,-1.59375 0.902344,-1.664062 0,-0.09375 -0.08203,-0.09375 -0.117188,-0.09375 -0.09375,0 -0.09375,0.02344 -0.140625,0.175781 -0.128906,0.457031 -0.363281,0.890625 -0.65625,1.265625 0,-0.105469 -0.02344,-0.574219 -0.03516,-0.632813 -0.105469,-0.691406 -0.621094,-1.136718 -1.324219,-1.136718 -1.019531,0 -2.003906,0.949218 -2.003906,1.921875 0,0.644531 0.46875,1.21875 1.277344,1.21875 0.644531,0 1.21875,-0.292969 1.605468,-0.597657 0.164063,0.515625 0.515625,0.597657 0.726563,0.597657 0.410156,0 0.65625,-0.339844 0.65625,-0.492188 0,-0.08203 -0.08203,-0.08203 -0.117188,-0.08203 -0.09375,0 -0.105468,0.03516 -0.117187,0.07031 -0.105469,0.269532 -0.316406,0.304688 -0.398438,0.304688 -0.09375,0 -0.222656,0 -0.257812,-0.855469 z m -0.539063,0.234375 c -0.679687,0.5625 -1.277343,0.621094 -1.535156,0.621094 -0.46875,0 -0.726562,-0.304688 -0.726562,-0.773438 0,-0.199218 0.105468,-0.960937 0.46875,-1.441406 0.316406,-0.421875 0.714843,-0.539062 0.960937,-0.539062 0.550781,0 0.714844,0.539062 0.773438,0.972656 0.03516,0.304687 0.02344,0.796875 0.05859,1.160156 z m 0,0"
         style="fill:#ffffff;fill-opacity:1;fill-rule:nonzero;stroke:none" />
      <path
         id="path7"
         d="m 49.230656,19.990516 c -0.05859,0 -0.140625,0 -0.140625,0.08203 0,0.03516 0.02344,0.05859 0.07031,0.105469 0.597656,0.550781 1.265625,1.488281 1.265625,3.292968 0,1.453125 -0.457032,2.554688 -1.207032,3.234375 -0.117187,0.117188 -0.128906,0.128907 -0.128906,0.164063 0,0.03516 0.02344,0.08203 0.09375,0.08203 0.08203,0 0.75,-0.457031 1.207031,-1.324219 0.304688,-0.585937 0.503907,-1.335937 0.503907,-2.15625 0,-0.984375 -0.292969,-2.507812 -1.664063,-3.480468 z m 0,0"
         style="fill:#ffffff;fill-opacity:1;fill-rule:nonzero;stroke:none" />
      <path
         id="path8"
         d="m 42.568547,28.896766 c 0,-0.105469 -0.08203,-0.257813 -0.28125,-0.257813 -0.1875,0 -0.386719,0.175781 -0.386719,0.375 0,0.117188 0.08203,0.269531 0.269531,0.269531 0.210938,0 0.398438,-0.199218 0.398438,-0.386718 z m -1.429688,3.539062 c -0.02344,0.09375 -0.05859,0.175781 -0.05859,0.292969 0,0.328125 0.28125,0.597656 0.667968,0.597656 0.691407,0 0.996094,-0.960937 0.996094,-1.066406 0,-0.09375 -0.08203,-0.09375 -0.105469,-0.09375 -0.105468,0 -0.105468,0.04687 -0.140625,0.117187 -0.152343,0.5625 -0.457031,0.84375 -0.738281,0.84375 -0.140625,0 -0.175781,-0.08203 -0.175781,-0.246093 0,-0.152344 0.05859,-0.292969 0.117187,-0.445313 0.07031,-0.1875 0.140625,-0.375 0.222657,-0.550781 0.05859,-0.164063 0.316406,-0.808594 0.339843,-0.890625 0.02344,-0.07031 0.04687,-0.152344 0.04687,-0.222656 0,-0.328125 -0.28125,-0.585938 -0.667968,-0.585938 -0.691407,0 -1.007813,0.949219 -1.007813,1.066406 0,0.08203 0.09375,0.08203 0.117188,0.08203 0.09375,0 0.105468,-0.03516 0.128906,-0.105469 0.175781,-0.597656 0.480469,-0.855469 0.738281,-0.855469 0.117188,0 0.175781,0.05859 0.175781,0.246094 0,0.164062 -0.03516,0.269531 -0.210937,0.703125 z m 5.041993,-3.539062 c 0,-0.117188 -0.09375,-0.257813 -0.28125,-0.257813 -0.199219,0 -0.386719,0.1875 -0.386719,0.375 0,0.117188 0.08203,0.269531 0.28125,0.269531 0.1875,0 0.386719,-0.1875 0.386719,-0.386718 z m -1.476563,4.699218 c -0.117187,0.480469 -0.492187,0.890625 -0.902344,0.890625 -0.08203,0 -0.175781,-0.01172 -0.246093,-0.04687 0.175781,-0.08203 0.234375,-0.246093 0.234375,-0.351562 0,-0.164063 -0.128907,-0.257813 -0.269532,-0.257813 -0.222656,0 -0.398437,0.1875 -0.398437,0.410157 0,0.269531 0.269531,0.433593 0.691406,0.433593 0.421875,0 1.230469,-0.246093 1.453125,-1.101562 l 0.621094,-2.496094 c 0.02344,-0.07031 0.03516,-0.140625 0.03516,-0.234375 0,-0.386719 -0.328125,-0.65625 -0.738281,-0.65625 -0.785156,0 -1.230469,0.960938 -1.230469,1.066406 0,0.08203 0.105469,0.08203 0.128906,0.08203 0.08203,0 0.08203,-0.01172 0.128907,-0.117188 0.175781,-0.410156 0.539062,-0.84375 0.949218,-0.84375 0.175782,0 0.234375,0.117188 0.234375,0.339844 0,0.08203 -0.01172,0.175781 -0.02344,0.210937 z m 0,0"
         style="fill:#ffffff;fill-opacity:1;fill-rule:nonzero;stroke:none" />
      <path
         id="path9"
         d="m 15.870305,42.030555 c 0,-0.304688 -0.246094,-0.5625 -0.550782,-0.5625 -0.304687,0 -0.5625,0.257812 -0.5625,0.5625 0,0.292968 0.257813,0.550781 0.5625,0.550781 0.304688,0 0.550782,-0.257813 0.550782,-0.550781 z m 0,3.984375 c 0,-0.304688 -0.246094,-0.5625 -0.550782,-0.5625 -0.304687,0 -0.5625,0.257812 -0.5625,0.5625 0,0.292968 0.257813,0.550781 0.5625,0.550781 0.304688,0 0.550782,-0.257813 0.550782,-0.550781 z m 0,3.984375 c 0,-0.304688 -0.246094,-0.5625 -0.550782,-0.5625 -0.304687,0 -0.5625,0.257812 -0.5625,0.5625 0,0.292968 0.257813,0.550781 0.5625,0.550781 0.304688,0 0.550782,-0.257813 0.550782,-0.550781 z m 49.772461,-6.972657 c 0,-0.304687 -0.246094,-0.5625 -0.550782,-0.5625 -0.304687,0 -0.5625,0.257813 -0.5625,0.5625 0,0.292969 0.257813,0.550782 0.5625,0.550782 0.304688,0 0.550782,-0.257813 0.550782,-0.550782 z m 4.086914,2.988282 c 0,-0.304688 -0.246094,-0.5625 -0.550782,-0.5625 -0.304687,0 -0.5625,0.257812 -0.5625,0.5625 0,0.292968 0.257813,0.550781 0.5625,0.550781 0.304688,0 0.550782,-0.257813 0.550782,-0.550781 z m 4.083984,2.988281 c 0,-0.304688 -0.246094,-0.5625 -0.550781,-0.5625 -0.304688,0 -0.5625,0.257812 -0.5625,0.5625 0,0.292969 0.257812,0.550781 0.5625,0.550781 0.304687,0 0.550781,-0.257812 0.550781,-0.550781 z m 0,0"
         style="fill:#ffffff;fill-opacity:1;fill-rule:nonzero;stroke:none" />
      <path
         id="path10"
         d="m 90.389836,60.332312 c 2.015625,0 2.542969,0.492188 2.542969,1.195313 0,0.632812 -0.503907,1.898437 -2.238282,1.957031 -0.515625,0.02344 -0.878906,0.386719 -0.878906,0.503906 0,0.05859 0.04687,0.05859 0.05859,0.05859 0.445312,0.08203 0.65625,0.292969 1.195312,1.523438 0.480469,1.101562 0.761719,1.59375 1.371094,1.59375 1.277344,0 2.484375,-1.289063 2.484375,-1.523438 0,-0.07031 -0.08203,-0.07031 -0.117187,-0.07031 -0.128907,0 -0.539063,0.140625 -0.75,0.445312 -0.175782,0.246094 -0.398438,0.5625 -0.914063,0.5625 -0.539062,0 -0.867187,-0.738281 -1.21875,-1.558594 -0.222656,-0.527343 -0.410156,-0.914062 -0.65625,-1.195312 1.523438,-0.5625 2.554688,-1.664063 2.554688,-2.753906 0,-1.3125 -1.769532,-1.3125 -3.351563,-1.3125 -1.054687,0 -1.640625,0 -2.519531,0.375 -1.40625,0.621093 -1.59375,1.5 -1.59375,1.582031 0,0.05859 0.03516,0.08203 0.105469,0.08203 0.164062,0 0.410156,-0.152344 0.492187,-0.199219 0.222656,-0.152343 0.246094,-0.210937 0.316406,-0.410156 0.140625,-0.421875 0.433594,-0.785156 1.757813,-0.855469 -0.04687,0.644532 -0.140625,1.617188 -0.503906,3.152344 -0.28125,1.171875 -0.667969,2.332031 -1.125,3.457031 -0.05859,0.117188 -0.05859,0.140625 -0.05859,0.140625 0,0.08203 0.08203,0.08203 0.105469,0.08203 0.210937,0 0.65625,-0.257813 0.761718,-0.457032 0.02344,-0.04687 1.359375,-3.011718 1.6875,-6.375 z m 0,0"
         style="fill:#ffffff;fill-opacity:1;fill-rule:nonzero;stroke:none" />
      <path
         id="path11"
         d="m 97.506047,56.345008 c -1.324219,0.925781 -1.675781,2.414062 -1.675781,3.480469 0,0.984375 0.292968,2.507812 1.675781,3.480468 0.05859,0 0.140625,0 0.140625,-0.08203 0,-0.04687 -0.02344,-0.05859 -0.07031,-0.105469 -0.925781,-0.832031 -1.265625,-2.015625 -1.265625,-3.292968 0,-1.875 0.714844,-2.800782 1.289063,-3.316407 0.02344,-0.02344 0.04687,-0.04687 0.04687,-0.08203 0,-0.08203 -0.08203,-0.08203 -0.140625,-0.08203 z m 0,0"
         style="fill:#ffffff;fill-opacity:1;fill-rule:nonzero;stroke:none" />
      <path
         id="path12"
         d="m 101.95624,60.587195 c 0.64453,-0.65625 0.90235,-1.59375 0.90235,-1.664062 0,-0.09375 -0.082,-0.09375 -0.11719,-0.09375 -0.0937,0 -0.0937,0.02344 -0.14063,0.175781 -0.1289,0.457031 -0.36328,0.890625 -0.65625,1.265625 0,-0.105469 -0.0234,-0.574219 -0.0352,-0.632812 -0.10547,-0.691407 -0.6211,-1.136719 -1.32422,-1.136719 -1.019533,0 -2.003908,0.949219 -2.003908,1.921875 0,0.644531 0.46875,1.21875 1.277344,1.21875 0.644534,0 1.218754,-0.292969 1.605464,-0.597656 0.16407,0.515625 0.51563,0.597656 0.72657,0.597656 0.41015,0 0.65625,-0.339844 0.65625,-0.492188 0,-0.08203 -0.082,-0.08203 -0.11719,-0.08203 -0.0937,0 -0.10547,0.03516 -0.11719,0.07031 -0.10547,0.269531 -0.3164,0.304687 -0.39844,0.304687 -0.0937,0 -0.22265,0 -0.25781,-0.855469 z m -0.53906,0.234375 c -0.67969,0.5625 -1.27734,0.621094 -1.535157,0.621094 -0.46875,0 -0.726562,-0.304687 -0.726562,-0.773437 0,-0.199219 0.105469,-0.960938 0.46875,-1.441407 0.316406,-0.421875 0.714839,-0.539062 0.960939,-0.539062 0.55078,0 0.71484,0.539062 0.77344,0.972656 0.0351,0.304688 0.0234,0.796875 0.0586,1.160156 z m 0,0"
         style="fill:#ffffff;fill-opacity:1;fill-rule:nonzero;stroke:none" />
      <path
         id="path13"
         d="m 103.96015,56.345008 c -0.0586,0 -0.14063,0 -0.14063,0.08203 0,0.03516 0.0234,0.05859 0.0703,0.105469 0.59765,0.550781 1.26562,1.488281 1.26562,3.292969 0,1.453125 -0.45703,2.554687 -1.20703,3.234375 -0.11719,0.117187 -0.12891,0.128906 -0.12891,0.164062 0,0.03516 0.0234,0.08203 0.0937,0.08203 0.082,0 0.75,-0.457031 1.20703,-1.324218 0.30469,-0.585938 0.50391,-1.335938 0.50391,-2.15625 0,-0.984375 -0.29297,-2.507813 -1.66406,-3.480469 z m 0,0"
         style="fill:#ffffff;fill-opacity:1;fill-rule:nonzero;stroke:none" />
      <path
         id="path14"
         d="m 97.295109,65.394812 c 0,-0.105468 -0.08203,-0.257812 -0.28125,-0.257812 -0.1875,0 -0.386718,0.175781 -0.386718,0.375 0,0.117187 0.08203,0.269531 0.269531,0.269531 0.210937,0 0.398437,-0.199219 0.398437,-0.386719 z m -1.429687,3.539063 c -0.02344,0.09375 -0.05859,0.175781 -0.05859,0.292969 0,0.328125 0.28125,0.597656 0.667969,0.597656 0.691406,0 0.996094,-0.960938 0.996094,-1.066406 0,-0.09375 -0.08203,-0.09375 -0.105469,-0.09375 -0.105469,0 -0.105469,0.04687 -0.140625,0.117187 -0.152344,0.5625 -0.457031,0.84375 -0.738281,0.84375 -0.140625,0 -0.175782,-0.08203 -0.175782,-0.246094 0,-0.152343 0.05859,-0.292968 0.117188,-0.445312 0.07031,-0.1875 0.140625,-0.375 0.222656,-0.550781 0.05859,-0.164063 0.316406,-0.808594 0.339844,-0.890625 0.02344,-0.07031 0.04687,-0.152344 0.04687,-0.222657 0,-0.328125 -0.28125,-0.585937 -0.667969,-0.585937 -0.691406,0 -1.007812,0.949219 -1.007812,1.066406 0,0.08203 0.09375,0.08203 0.117187,0.08203 0.09375,0 0.105469,-0.03516 0.128906,-0.105468 0.175782,-0.597657 0.480469,-0.855469 0.738282,-0.855469 0.117187,0 0.175781,0.05859 0.175781,0.246094 0,0.164062 -0.03516,0.269531 -0.210938,0.703125 z m 0,0"
         style="fill:#ffffff;fill-opacity:1;fill-rule:nonzero;stroke:none" />
      <path
         id="path15"
         d="m 99.644719,65.441687 c 0,0 0.04687,-0.09375 0.04687,-0.175781 0,-0.175781 -0.152344,-0.292969 -0.304688,-0.292969 -0.210937,0 -0.257812,0.164063 -0.28125,0.234375 l -0.773437,2.15625 c -0.01172,0.05859 -0.01172,0.07031 -0.01172,0.08203 0,0.08203 0.199219,0.128906 0.210937,0.128906 0.04687,0 0.04687,-0.02344 0.08203,-0.08203 z m 0,0"
         style="fill:#ffffff;fill-opacity:1;fill-rule:nonzero;stroke:none" />
      <path
         id="path16"
         d="m 103.60566,65.394812 c 0,-0.117187 -0.0937,-0.257812 -0.28125,-0.257812 -0.19922,0 -0.38672,0.1875 -0.38672,0.375 0,0.117187 0.082,0.269531 0.28125,0.269531 0.1875,0 0.38672,-0.1875 0.38672,-0.386719 z m -1.47657,4.699219 c -0.11718,0.480469 -0.49218,0.890625 -0.90234,0.890625 -0.082,0 -0.17578,-0.01172 -0.24609,-0.04687 0.17578,-0.08203 0.23437,-0.246094 0.23437,-0.351562 0,-0.164063 -0.12891,-0.257813 -0.26953,-0.257813 -0.22266,0 -0.39844,0.1875 -0.39844,0.410156 0,0.269532 0.26953,0.433594 0.69141,0.433594 0.42187,0 1.23047,-0.246094 1.45312,-1.101562 l 0.6211,-2.496094 c 0.0234,-0.07031 0.0352,-0.140625 0.0352,-0.234375 0,-0.386719 -0.32812,-0.65625 -0.73828,-0.65625 -0.78515,0 -1.23047,0.960937 -1.23047,1.066406 0,0.08203 0.10547,0.08203 0.12891,0.08203 0.082,0 0.082,-0.01172 0.12891,-0.117187 0.17578,-0.410156 0.53906,-0.84375 0.94921,-0.84375 0.17579,0 0.23438,0.117187 0.23438,0.339844 0,0.08203 -0.0117,0.175781 -0.0234,0.210937 z m 0,0"
         style="fill:#ffffff;fill-opacity:1;fill-rule:nonzero;stroke:none" />
      <path
         id="path17"
         d="m 106.04023,65.441687 c 0,0 0.0469,-0.09375 0.0469,-0.175781 0,-0.175781 -0.15234,-0.292969 -0.30469,-0.292969 -0.21093,0 -0.25781,0.164063 -0.28125,0.234375 l -0.77343,2.15625 c -0.0117,0.05859 -0.0117,0.07031 -0.0117,0.08203 0,0.08203 0.19922,0.128906 0.21094,0.128906 0.0469,0 0.0469,-0.02344 0.082,-0.08203 z m 0,0"
         style="fill:#ffffff;fill-opacity:1;fill-rule:nonzero;stroke:none" />
      <path
         id="path18"
         d="m 64.189641,80.684852 c 0,-0.304688 -0.246094,-0.550782 -0.550782,-0.550782 -0.304687,0 -0.5625,0.246094 -0.5625,0.550782 0,0.304687 0.257813,0.550781 0.5625,0.550781 0.304688,0 0.550782,-0.246094 0.550782,-0.550781 z m 4.649414,0 c 0,-0.304688 -0.246094,-0.550782 -0.550782,-0.550782 -0.304687,0 -0.5625,0.246094 -0.5625,0.550782 0,0.304687 0.257813,0.550781 0.5625,0.550781 0.304688,0 0.550782,-0.246094 0.550782,-0.550781 z m 4.664062,0 c 0,-0.304688 -0.246094,-0.550782 -0.550781,-0.550782 -0.304688,0 -0.5625,0.246094 -0.5625,0.550782 0,0.304687 0.257812,0.550781 0.5625,0.550781 0.304687,0 0.550781,-0.246094 0.550781,-0.550781 z m 0,0"
         style="fill:#ffffff;fill-opacity:1;fill-rule:nonzero;stroke:none" />
      <path
         id="path19"
         d="m 123.51874,18.059852 c 0,-6.410157 -1.13672,-10.1718754 -1.46484,-11.2382817 -0.71485,-2.3320312 -1.875,-4.78125 -3.63281,-6.94921874 -0.16407,-0.1875 -0.19922,-0.234375 -0.2461,-0.2578125 -0.0117,-0.0117188 -0.0234,-0.0234375 -0.19922,-0.0234375 -0.15234,0 -0.23437,0 -0.23437,0.10546875 0,0.0234375 0,0.046875 0.1289,0.234375 3.65625,5.09765629 4.47657,11.40234369 4.48829,18.50390669 0,0.152343 0.0586,0.152343 0.29296,0.152343 h 0.57422 c 0.22266,0 0.28125,0 0.29297,-0.117187 z m 0,0.594726 c 0,-0.269531 -0.0117,-0.28125 -0.29297,-0.28125 h -0.57422 c -0.28125,0 -0.29296,0.01172 -0.29296,0.28125 v 5.941406 c 0,0.28125 0.0117,0.292969 0.29296,0.292969 h 0.57422 c 0.28125,0 0.29297,-0.01172 0.29297,-0.292969 z m 0,6.301758 c 0,-0.269531 -0.0117,-0.28125 -0.29297,-0.28125 h -0.57422 c -0.28125,0 -0.29296,0.01172 -0.29296,0.28125 v 5.941406 c 0,0.28125 0.0117,0.292969 0.29296,0.292969 h 0.57422 c 0.28125,0 0.29297,-0.01172 0.29297,-0.292969 z m 0,6.301758 c 0,-0.269532 -0.0117,-0.28125 -0.29297,-0.28125 h -0.57422 c -0.28125,0 -0.29296,0.01172 -0.29296,0.28125 V 37.1995 c 0,0.28125 0.0117,0.292969 0.29296,0.292969 h 0.57422 c 0.28125,0 0.29297,-0.01172 0.29297,-0.292969 z m 0,6.298828 c 0,-0.269531 -0.0117,-0.28125 -0.29297,-0.28125 h -0.57422 c -0.28125,0 -0.29296,0.01172 -0.29296,0.28125 v 5.941406 c 0,0.28125 0.0117,0.292969 0.29296,0.292969 h 0.57422 c 0.28125,0 0.29297,-0.01172 0.29297,-0.292969 z m 0,6.298828 c 0,-0.269531 -0.0117,-0.28125 -0.29297,-0.28125 h -0.57422 c -0.28125,0 -0.29296,0.01172 -0.29296,0.28125 v 5.941406 c 0,0.28125 0.0117,0.292969 0.29296,0.292969 h 0.57422 c 0.28125,0 0.29297,-0.01172 0.29297,-0.292969 z m 0,6.301758 c 0,-0.269531 -0.0117,-0.28125 -0.29297,-0.28125 h -0.57422 c -0.28125,0 -0.29296,0.01172 -0.29296,0.28125 v 5.941406 c 0,0.28125 0.0117,0.292969 0.29296,0.292969 h 0.57422 c 0.28125,0 0.29297,-0.01172 0.29297,-0.292969 z m 0,6.298828 c 0,-0.269531 -0.0117,-0.28125 -0.29297,-0.28125 h -0.57422 c -0.28125,0 -0.29296,0.01172 -0.29296,0.28125 v 5.941406 c 0,0.28125 0.0117,0.292969 0.29296,0.292969 h 0.57422 c 0.28125,0 0.29297,-0.01172 0.29297,-0.292969 z m 0,6.301758 c 0,-0.269532 -0.0117,-0.28125 -0.29297,-0.28125 h -0.57422 c -0.28125,0 -0.29296,0.01172 -0.29296,0.28125 V 68.6995 c 0,0.28125 0.0117,0.292969 0.29296,0.292969 h 0.57422 c 0.28125,0 0.29297,-0.01172 0.29297,-0.292969 z m 0,6.131836 c -0.0117,-0.117188 -0.0703,-0.117188 -0.29297,-0.117188 h -0.57422 c -0.23437,0 -0.29296,0 -0.29296,0.152344 0,1.078125 -0.0117,3.574219 -0.28125,6.1875 -0.57422,5.4375 -1.96875,9.1875 -4.26563,12.410156 -0.0703,0.105469 -0.0703,0.117188 -0.0703,0.140625 0,0.105469 0.082,0.105469 0.23437,0.105469 0.17578,0 0.1875,0 0.21094,-0.02344 0.0469,-0.02344 1.38281,-1.558593 2.4375,-3.667968 1.38281,-2.777344 2.26172,-5.953125 2.64844,-9.785157 0.0352,-0.316406 0.24609,-2.507812 0.24609,-4.992187 z m 0,0"
         style="fill:#ffffff;fill-opacity:1;fill-rule:nonzero;stroke:none" />
    </g>
    <g
       id="g19"
       aria-label="&#10;&#10;&#10;&#10;&#10;&#10;&#10;&#10;&#10;&#10;.&#10;.&#10;.&#10;···&#10;R&#10;(β)&#10;˜&#10;i,&#10;˜&#10;j&#10;.&#10;.&#10;.&#10;.&#10;.&#10;.&#10;R&#10;(β)&#10;˜&#10;i&#10;′&#10;,&#10;˜&#10;j&#10;′&#10;···&#10;&#10;&#10;&#10;&#10;&#10;&#10;&#10;&#10;&#10;"
       transform="matrix(1.3333333,0,0,1.3333333,227.82933,4.228)">
      <path
         id="path20"
         d="m 3.924875,18.584859 c 0.234375,0 0.2929688,0 0.2929688,-0.152343 0.023437,-7.359375 0.8789062,-13.4648441 4.546875,-18.59765663 0.070312,-0.09375 0.070312,-0.1171875 0.070312,-0.140625 0,-0.10546875 -0.070312,-0.10546875 -0.234375,-0.10546875 -0.1757813,0 -0.1875,0 -0.2109375,0.0234375 C 8.3428438,-0.35264063 7.018625,1.1707969 5.9522188,3.2801719 4.5694063,6.0575156 3.6905,9.2332969 3.3037813,13.065328 3.2803438,13.381734 3.0576875,15.573141 3.0576875,18.057516 v 0.410156 c 0.011719,0.117187 0.070312,0.117187 0.2929688,0.117187 z m 0.2929688,0.07031 c 0,-0.269531 -0.011719,-0.28125 -0.2929688,-0.28125 H 3.3506563 c -0.28125,0 -0.2929688,0.01172 -0.2929688,0.28125 v 5.941406 c 0,0.28125 0.011719,0.292969 0.2929688,0.292969 H 3.924875 c 0.28125,0 0.2929688,-0.01172 0.2929688,-0.292969 z m 0,6.301758 c 0,-0.269532 -0.011719,-0.28125 -0.2929688,-0.28125 H 3.3506563 c -0.28125,0 -0.2929688,0.01172 -0.2929688,0.28125 v 5.941406 c 0,0.28125 0.011719,0.292969 0.2929688,0.292969 H 3.924875 c 0.28125,0 0.2929688,-0.01172 0.2929688,-0.292969 z m 0,6.298828 c 0,-0.269531 -0.011719,-0.28125 -0.2929688,-0.28125 H 3.3506563 c -0.28125,0 -0.2929688,0.01172 -0.2929688,0.28125 v 5.941406 c 0,0.28125 0.011719,0.292969 0.2929688,0.292969 H 3.924875 c 0.28125,0 0.2929688,-0.01172 0.2929688,-0.292969 z m 0,6.301758 c 0,-0.269532 -0.011719,-0.28125 -0.2929688,-0.28125 H 3.3506563 c -0.28125,0 -0.2929688,0.01172 -0.2929688,0.28125 v 5.941406 c 0,0.28125 0.011719,0.292969 0.2929688,0.292969 H 3.924875 c 0.28125,0 0.2929688,-0.01172 0.2929688,-0.292969 z m 0,6.298828 c 0,-0.269532 -0.011719,-0.28125 -0.2929688,-0.28125 H 3.3506563 c -0.28125,0 -0.2929688,0.01172 -0.2929688,0.28125 v 5.941406 c 0,0.28125 0.011719,0.292969 0.2929688,0.292969 H 3.924875 c 0.28125,0 0.2929688,-0.01172 0.2929688,-0.292969 z m 0,6.301758 c 0,-0.269532 -0.011719,-0.28125 -0.2929688,-0.28125 H 3.3506563 c -0.28125,0 -0.2929688,0.01172 -0.2929688,0.28125 v 5.941406 c 0,0.28125 0.011719,0.292969 0.2929688,0.292969 H 3.924875 c 0.28125,0 0.2929688,-0.01172 0.2929688,-0.292969 z m 0,6.298828 c 0,-0.269532 -0.011719,-0.28125 -0.2929688,-0.28125 H 3.3506563 c -0.28125,0 -0.2929688,0.01172 -0.2929688,0.28125 v 5.941406 c 0,0.28125 0.011719,0.292969 0.2929688,0.292969 H 3.924875 c 0.28125,0 0.2929688,-0.01172 0.2929688,-0.292969 z m 0,6.298828 c 0,-0.269531 -0.011719,-0.28125 -0.2929688,-0.28125 H 3.3506563 c -0.28125,0 -0.2929688,0.01172 -0.2929688,0.28125 v 5.941406 c 0,0.28125 0.011719,0.292969 0.2929688,0.292969 H 3.924875 c 0.28125,0 0.2929688,-0.01172 0.2929688,-0.292969 z m -0.8671875,6.017578 c -0.2226563,0 -0.28125,0 -0.2929688,0.117187 v 0.410157 c 0,6.410156 1.1367188,10.171875 1.4648438,11.238281 0.7148437,2.332031 1.8867187,4.78125 3.6328125,6.949219 0.1640625,0.1875 0.1992187,0.234375 0.2460937,0.257812 0.023437,0.01172 0.023437,0.02344 0.1992188,0.02344 0.1640625,0 0.234375,0 0.234375,-0.105469 0,-0.02344 0,-0.03516 -0.058594,-0.140625 C 5.28425,82.671773 4.2295625,76.835836 4.2178438,68.92568 c 0,-0.152344 -0.058594,-0.152344 -0.2929688,-0.152344 z m 0,0"
         style="fill:#ffffff;fill-opacity:1;fill-rule:nonzero;stroke:none" />
      <path
         id="path21"
         d="m 11.785227,5.8641562 c 0,-0.3046875 -0.246094,-0.5625 -0.550782,-0.5625 -0.304687,0 -0.5625,0.2578125 -0.5625,0.5625 0,0.2929688 0.257813,0.5507813 0.5625,0.5507813 0.304688,0 0.550782,-0.2578125 0.550782,-0.5507813 z m 4.086914,2.9882813 c 0,-0.3046875 -0.246094,-0.5625 -0.550782,-0.5625 -0.304687,0 -0.5625,0.2578125 -0.5625,0.5625 0,0.2929687 0.257813,0.5507812 0.5625,0.5507812 0.304688,0 0.550782,-0.2578125 0.550782,-0.5507812 z m 4.086914,2.9882815 c 0,-0.304688 -0.246094,-0.5625 -0.550782,-0.5625 -0.304687,0 -0.5625,0.257812 -0.5625,0.5625 0,0.292968 0.257813,0.550781 0.5625,0.550781 0.304688,0 0.550782,-0.257813 0.550782,-0.550781 z m 0,0"
         style="fill:#ffffff;fill-opacity:1;fill-rule:nonzero;stroke:none" />
      <path
         id="path22"
         d="m 63.883859,10.762594 c 0,-0.304688 -0.246093,-0.550782 -0.550781,-0.550782 -0.304687,0 -0.5625,0.246094 -0.5625,0.550782 0,0.304687 0.257813,0.550781 0.5625,0.550781 0.304688,0 0.550781,-0.246094 0.550781,-0.550781 z m 4.652344,0 c 0,-0.304688 -0.246094,-0.550782 -0.550781,-0.550782 -0.304688,0 -0.5625,0.246094 -0.5625,0.550782 0,0.304687 0.257812,0.550781 0.5625,0.550781 0.304687,0 0.550781,-0.246094 0.550781,-0.550781 z m 4.661133,0 c 0,-0.304688 -0.246094,-0.550782 -0.550781,-0.550782 -0.304688,0 -0.5625,0.246094 -0.5625,0.550782 0,0.304687 0.257812,0.550781 0.5625,0.550781 0.304687,0 0.550781,-0.246094 0.550781,-0.550781 z M 35.66218,23.17275 c 2.015625,0 2.542968,0.492187 2.542968,1.195312 0,0.632813 -0.503906,1.898438 -2.238281,1.957032 -0.515625,0.02344 -0.878906,0.386718 -0.878906,0.503906 0,0.05859 0.04687,0.05859 0.05859,0.05859 0.445312,0.08203 0.65625,0.292968 1.195312,1.523437 0.480469,1.101563 0.761719,1.59375 1.371094,1.59375 1.277344,0 2.484375,-1.289062 2.484375,-1.523437 0,-0.07031 -0.08203,-0.07031 -0.117188,-0.07031 -0.128906,0 -0.539062,0.140625 -0.75,0.445313 -0.175781,0.246093 -0.398437,0.5625 -0.914062,0.5625 -0.539063,0 -0.867188,-0.738282 -1.21875,-1.558594 -0.222656,-0.527344 -0.410156,-0.914063 -0.65625,-1.195313 1.523437,-0.5625 2.554687,-1.664062 2.554687,-2.753906 0,-1.3125 -1.769531,-1.3125 -3.351562,-1.3125 -1.054688,0 -1.640625,0 -2.519531,0.375 -1.40625,0.621094 -1.59375,1.5 -1.59375,1.582031 0,0.05859 0.03516,0.08203 0.105468,0.08203 0.164063,0 0.410157,-0.152344 0.492188,-0.199219 0.222656,-0.152344 0.246094,-0.210938 0.316406,-0.410156 0.140625,-0.421875 0.433594,-0.785157 1.757813,-0.855469 -0.04687,0.644531 -0.140625,1.617187 -0.503907,3.152344 -0.28125,1.171875 -0.667968,2.332031 -1.125,3.457031 -0.05859,0.117187 -0.05859,0.140625 -0.05859,0.140625 0,0.08203 0.08203,0.08203 0.105468,0.08203 0.210938,0 0.65625,-0.257812 0.761719,-0.457031 0.02344,-0.04687 1.359375,-3.011719 1.6875,-6.375 z m 0,0"
         style="fill:#ffffff;fill-opacity:1;fill-rule:nonzero;stroke:none" />
      <path
         id="path23"
         d="m 42.778391,19.182516 c -1.324219,0.925781 -1.675782,2.414062 -1.675782,3.480468 0,0.984375 0.292969,2.507813 1.675782,3.480469 0.05859,0 0.140625,0 0.140625,-0.08203 0,-0.04687 -0.02344,-0.05859 -0.07031,-0.105469 -0.925781,-0.832031 -1.265625,-2.015625 -1.265625,-3.292969 0,-1.875 0.714844,-2.800781 1.289063,-3.316406 0.02344,-0.02344 0.04687,-0.04687 0.04687,-0.08203 0,-0.08203 -0.08203,-0.08203 -0.140625,-0.08203 z m 0,0"
         style="fill:#ffffff;fill-opacity:1;fill-rule:nonzero;stroke:none" />
      <path
         id="path24"
         d="m 47.837961,20.459859 c 0,-0.609375 -0.539063,-0.960937 -1.148438,-0.960937 -0.949218,0 -1.664062,1.078125 -1.828125,1.78125 l -1.101562,4.394531 c -0.01172,0.04687 0.05859,0.08203 0.09375,0.08203 0.07031,0 0.128906,0 0.140625,-0.04687 l 0.46875,-1.863281 c 0.140625,0.328125 0.480469,0.621094 1.042969,0.621094 0.972656,0 2.074218,-0.703125 2.074218,-1.769531 0,-0.410157 -0.1875,-0.832032 -0.539062,-1.054688 0.339844,-0.222656 0.796875,-0.621094 0.796875,-1.183594 z m -1.382813,1.171875 c -0.105468,0.02344 -0.152343,0.04687 -0.363281,0.04687 -0.105469,0 -0.269531,0 -0.316406,-0.03516 0.05859,-0.03516 0.257812,-0.04687 0.316406,-0.04687 0.105469,0 0.257813,0.01172 0.363281,0.03516 z m 0.914063,-1.289062 c 0,0.363281 -0.175781,0.902344 -0.609375,1.148437 -0.128906,-0.03516 -0.269531,-0.08203 -0.65625,-0.08203 -0.246094,0 -0.585938,0.01172 -0.585938,0.257813 0,0.175781 0.210938,0.199218 0.5625,0.199218 0.246094,0 0.445313,-0.03516 0.667969,-0.09375 0.210938,0.152344 0.316406,0.433594 0.316406,0.738282 0,1.007812 -0.691406,1.769531 -1.535156,1.769531 -0.539062,0 -0.925781,-0.328125 -0.925781,-0.878906 0,-0.07031 0.01172,-0.140625 0.02344,-0.210938 l 0.457032,-1.851562 c 0.164062,-0.65625 0.785156,-1.652344 1.59375,-1.652344 0.410156,0 0.691406,0.222656 0.691406,0.65625 z m 0,0"
         style="fill:#ffffff;fill-opacity:1;fill-rule:nonzero;stroke:none" />
      <path
         id="path25"
         d="m 48.927805,19.182516 c -0.05859,0 -0.140625,0 -0.140625,0.08203 0,0.03516 0.02344,0.05859 0.07031,0.105469 0.597656,0.550781 1.265625,1.488281 1.265625,3.292968 0,1.453125 -0.457031,2.554688 -1.207031,3.234375 -0.117188,0.117188 -0.128906,0.128907 -0.128906,0.164063 0,0.03516 0.02344,0.08203 0.09375,0.08203 0.08203,0 0.75,-0.457031 1.207031,-1.324219 0.304687,-0.585937 0.503906,-1.335937 0.503906,-2.15625 0,-0.984375 -0.292969,-2.507812 -1.664062,-3.480468 z m -6.070313,8.654296 c -0.210937,0.210938 -0.410156,0.316407 -0.609375,0.316407 -0.175781,0 -0.386719,-0.105469 -0.445312,-0.140625 -0.246094,-0.117188 -0.398438,-0.175782 -0.550782,-0.175782 -0.28125,0 -0.386718,0.105469 -0.820312,0.550782 l 0.128906,0.140625 c 0.210938,-0.210938 0.410156,-0.316407 0.609375,-0.316407 0.175781,0 0.386719,0.105469 0.445313,0.140625 0.246093,0.117188 0.398437,0.175782 0.550781,0.175782 0.28125,0 0.386719,-0.105469 0.820312,-0.5625 z m 0,0"
         style="fill:#ffffff;fill-opacity:1;fill-rule:nonzero;stroke:none" />
      <path
         id="path26"
         d="m 42.567453,29.776266 c 0,-0.105469 -0.08203,-0.257813 -0.28125,-0.257813 -0.1875,0 -0.386719,0.175781 -0.386719,0.375 0,0.117188 0.08203,0.269531 0.269532,0.269531 0.210937,0 0.398437,-0.199218 0.398437,-0.386718 z m -1.429687,3.539062 c -0.02344,0.09375 -0.05859,0.175781 -0.05859,0.292969 0,0.328125 0.28125,0.597656 0.667969,0.597656 0.691406,0 0.996093,-0.960937 0.996093,-1.066406 0,-0.09375 -0.08203,-0.09375 -0.105468,-0.09375 -0.105469,0 -0.105469,0.04687 -0.140625,0.117187 -0.152344,0.5625 -0.457032,0.84375 -0.738282,0.84375 -0.140625,0 -0.175781,-0.08203 -0.175781,-0.246093 0,-0.152344 0.05859,-0.292969 0.117188,-0.445313 0.07031,-0.1875 0.140625,-0.375 0.222656,-0.550781 0.05859,-0.164063 0.316406,-0.808594 0.339844,-0.890625 0.02344,-0.07031 0.04687,-0.152344 0.04687,-0.222656 0,-0.328125 -0.28125,-0.585938 -0.667969,-0.585938 -0.691406,0 -1.007813,0.949219 -1.007813,1.066406 0,0.08203 0.09375,0.08203 0.117188,0.08203 0.09375,0 0.105469,-0.03516 0.128906,-0.105469 0.175781,-0.597656 0.480469,-0.855469 0.738281,-0.855469 0.117188,0 0.175782,0.05859 0.175782,0.246094 0,0.164062 -0.03516,0.269531 -0.210938,0.703125 z m 3.46289,0.703125 c 0,0.386719 -0.07031,0.832031 -0.550781,1.277344 -0.02344,0.03516 -0.04687,0.05859 -0.04687,0.09375 0,0.04687 0.05859,0.09375 0.09375,0.09375 0.105469,0 0.691406,-0.5625 0.691406,-1.394531 0,-0.421875 -0.164062,-0.75 -0.480468,-0.75 -0.234375,0 -0.398438,0.175781 -0.398438,0.386718 0,0.234375 0.152344,0.410157 0.398438,0.410157 0.164062,0 0.28125,-0.117188 0.292968,-0.117188 z m 0,0"
         style="fill:#ffffff;fill-opacity:1;fill-rule:nonzero;stroke:none" />
      <path
         id="path27"
         d="m 48.482492,27.836812 c -0.210937,0.210938 -0.410156,0.316407 -0.609375,0.316407 -0.175781,0 -0.386719,-0.105469 -0.445312,-0.140625 -0.246094,-0.117188 -0.398438,-0.175782 -0.550782,-0.175782 -0.28125,0 -0.386718,0.105469 -0.820312,0.550782 l 0.128906,0.140625 c 0.210938,-0.210938 0.410156,-0.316407 0.609375,-0.316407 0.175781,0 0.386719,0.105469 0.445313,0.140625 0.246093,0.117188 0.398437,0.175782 0.550781,0.175782 0.28125,0 0.386719,-0.105469 0.820312,-0.5625 z m 0,0"
         style="fill:#ffffff;fill-opacity:1;fill-rule:nonzero;stroke:none" />
      <path
         id="path28"
         d="m 48.549875,29.776266 c 0,-0.117188 -0.09375,-0.257813 -0.28125,-0.257813 -0.199219,0 -0.386719,0.1875 -0.386719,0.375 0,0.117188 0.08203,0.269531 0.28125,0.269531 0.1875,0 0.386719,-0.1875 0.386719,-0.386718 z m -1.476562,4.699218 c -0.117188,0.480469 -0.492188,0.890625 -0.902344,0.890625 -0.08203,0 -0.175781,-0.01172 -0.246094,-0.04687 0.175781,-0.08203 0.234375,-0.246093 0.234375,-0.351562 0,-0.164063 -0.128906,-0.257813 -0.269531,-0.257813 -0.222656,0 -0.398438,0.1875 -0.398438,0.410157 0,0.269531 0.269532,0.433593 0.691407,0.433593 0.421875,0 1.230468,-0.246093 1.453125,-1.101562 l 0.621093,-2.496094 c 0.02344,-0.07031 0.03516,-0.140625 0.03516,-0.234375 0,-0.386719 -0.328125,-0.65625 -0.738282,-0.65625 -0.785156,0 -1.230468,0.960938 -1.230468,1.066406 0,0.08203 0.105468,0.08203 0.128906,0.08203 0.08203,0 0.08203,-0.01172 0.128906,-0.117188 0.175781,-0.410156 0.539063,-0.84375 0.949219,-0.84375 0.175781,0 0.234375,0.117188 0.234375,0.339844 0,0.08203 -0.01172,0.175781 -0.02344,0.210937 z m 0,0"
         style="fill:#ffffff;fill-opacity:1;fill-rule:nonzero;stroke:none" />
      <path
         id="path29"
         d="m 15.872141,42.031148 c 0,-0.304687 -0.246094,-0.5625 -0.550782,-0.5625 -0.304687,0 -0.5625,0.257813 -0.5625,0.5625 0,0.292969 0.257813,0.550782 0.5625,0.550782 0.304688,0 0.550782,-0.257813 0.550782,-0.550782 z m 0,3.984375 c 0,-0.304687 -0.246094,-0.5625 -0.550782,-0.5625 -0.304687,0 -0.5625,0.257813 -0.5625,0.5625 0,0.292969 0.257813,0.550782 0.5625,0.550782 0.304688,0 0.550782,-0.257813 0.550782,-0.550782 z m 0,3.984375 c 0,-0.304687 -0.246094,-0.5625 -0.550782,-0.5625 -0.304687,0 -0.5625,0.257813 -0.5625,0.5625 0,0.292969 0.257813,0.550782 0.5625,0.550782 0.304688,0 0.550782,-0.257813 0.550782,-0.550782 z m 49.467773,-6.972656 c 0,-0.304687 -0.246094,-0.5625 -0.550781,-0.5625 -0.304688,0 -0.5625,0.257813 -0.5625,0.5625 0,0.292969 0.257812,0.550781 0.5625,0.550781 0.304687,0 0.550781,-0.257812 0.550781,-0.550781 z m 4.086914,2.988281 c 0,-0.304687 -0.246094,-0.5625 -0.550781,-0.5625 -0.304688,0 -0.5625,0.257813 -0.5625,0.5625 0,0.292969 0.257812,0.550782 0.5625,0.550782 0.304687,0 0.550781,-0.257813 0.550781,-0.550782 z m 4.083985,2.988282 c 0,-0.304688 -0.246094,-0.5625 -0.550782,-0.5625 -0.304687,0 -0.5625,0.257812 -0.5625,0.5625 0,0.292968 0.257813,0.550781 0.5625,0.550781 0.304688,0 0.550782,-0.257813 0.550782,-0.550781 z m 0,0"
         style="fill:#ffffff;fill-opacity:1;fill-rule:nonzero;stroke:none" />
      <path
         id="path30"
         d="m 90.086984,60.332906 c 2.015625,0 2.542969,0.492188 2.542969,1.195313 0,0.632812 -0.503906,1.898437 -2.238281,1.957031 -0.515625,0.02344 -0.878906,0.386719 -0.878906,0.503906 0,0.05859 0.04687,0.05859 0.05859,0.05859 0.445313,0.08203 0.65625,0.292969 1.195313,1.523437 0.480469,1.101563 0.761719,1.59375 1.371094,1.59375 1.277343,0 2.484375,-1.289062 2.484375,-1.523437 0,-0.07031 -0.08203,-0.07031 -0.117188,-0.07031 -0.128906,0 -0.539062,0.140625 -0.75,0.445313 -0.175781,0.246094 -0.398437,0.5625 -0.914062,0.5625 -0.539063,0 -0.867188,-0.738281 -1.21875,-1.558594 -0.222657,-0.527344 -0.410157,-0.914062 -0.65625,-1.195312 1.523437,-0.5625 2.554687,-1.664063 2.554687,-2.753907 0,-1.3125 -1.769531,-1.3125 -3.351562,-1.3125 -1.054688,0 -1.640625,0 -2.519532,0.375 -1.40625,0.621094 -1.59375,1.5 -1.59375,1.582032 0,0.05859 0.03516,0.08203 0.105469,0.08203 0.164063,0 0.410156,-0.152344 0.492188,-0.199219 0.222656,-0.152344 0.246093,-0.210937 0.316406,-0.410156 0.140625,-0.421875 0.433594,-0.785156 1.757812,-0.855469 -0.04687,0.644531 -0.140625,1.617188 -0.503906,3.152344 -0.28125,1.171875 -0.667969,2.332031 -1.125,3.457031 -0.05859,0.117188 -0.05859,0.140625 -0.05859,0.140625 0,0.08203 0.08203,0.08203 0.105469,0.08203 0.210938,0 0.65625,-0.257812 0.761719,-0.457031 0.02344,-0.04687 1.359375,-3.011719 1.6875,-6.375 z m 0,0"
         style="fill:#ffffff;fill-opacity:1;fill-rule:nonzero;stroke:none" />
      <path
         id="path31"
         d="m 97.203195,56.345602 c -1.324218,0.925781 -1.675781,2.414062 -1.675781,3.480468 0,0.984375 0.292969,2.507813 1.675781,3.480469 0.05859,0 0.140625,0 0.140625,-0.08203 0,-0.04687 -0.02344,-0.05859 -0.07031,-0.105469 -0.925781,-0.832031 -1.265625,-2.015625 -1.265625,-3.292969 0,-1.875 0.714844,-2.800781 1.289062,-3.316406 0.02344,-0.02344 0.04687,-0.04687 0.04687,-0.08203 0,-0.08203 -0.08203,-0.08203 -0.140625,-0.08203 z m 0,0"
         style="fill:#ffffff;fill-opacity:1;fill-rule:nonzero;stroke:none" />
      <path
         id="path32"
         d="m 102.26277,57.622945 c 0,-0.609375 -0.53907,-0.960937 -1.14844,-0.960937 -0.94922,0 -1.664064,1.078125 -1.828127,1.78125 l -1.101562,4.394531 c -0.01172,0.04687 0.05859,0.08203 0.09375,0.08203 0.07031,0 0.128906,0 0.140625,-0.04687 l 0.46875,-1.863281 c 0.140625,0.328125 0.480468,0.621094 1.042968,0.621094 0.972656,0 2.074216,-0.703125 2.074216,-1.769531 0,-0.410157 -0.1875,-0.832032 -0.53906,-1.054688 0.33984,-0.222656 0.79688,-0.621094 0.79688,-1.183594 z m -1.38282,1.171875 c -0.10547,0.02344 -0.15234,0.04687 -0.36328,0.04687 -0.10547,0 -0.26953,0 -0.3164,-0.03516 0.0586,-0.03516 0.25781,-0.04687 0.3164,-0.04687 0.10547,0 0.25781,0.01172 0.36328,0.03516 z m 0.91407,-1.289062 c 0,0.363281 -0.17579,0.902344 -0.60938,1.148437 -0.12891,-0.03516 -0.26953,-0.08203 -0.65625,-0.08203 -0.24609,0 -0.585937,0.01172 -0.585937,0.257813 0,0.175781 0.210937,0.199218 0.562497,0.199218 0.2461,0 0.44532,-0.03516 0.66797,-0.09375 0.21094,0.152344 0.31641,0.433594 0.31641,0.738282 0,1.007812 -0.69141,1.769531 -1.535158,1.769531 -0.539063,0 -0.925781,-0.328125 -0.925781,-0.878906 0,-0.07031 0.01172,-0.140625 0.02344,-0.210938 l 0.457031,-1.851562 c 0.164063,-0.65625 0.785158,-1.652344 1.593748,-1.652344 0.41016,0 0.69141,0.222656 0.69141,0.65625 z m 0,0"
         style="fill:#ffffff;fill-opacity:1;fill-rule:nonzero;stroke:none" />
      <path
         id="path33"
         d="m 103.35261,56.345602 c -0.0586,0 -0.14063,0 -0.14063,0.08203 0,0.03516 0.0234,0.05859 0.0703,0.105469 0.59765,0.550781 1.26562,1.488281 1.26562,3.292968 0,1.453125 -0.45703,2.554688 -1.20703,3.234375 -0.11719,0.117188 -0.12891,0.128907 -0.12891,0.164063 0,0.03516 0.0234,0.08203 0.0937,0.08203 0.082,0 0.75,-0.457031 1.20704,-1.324219 0.30468,-0.585937 0.5039,-1.335937 0.5039,-2.15625 0,-0.984375 -0.29297,-2.507812 -1.66406,-3.480468 z m -6.070313,8.651367 c -0.210938,0.210937 -0.410156,0.316406 -0.609375,0.316406 -0.175781,0 -0.386719,-0.105469 -0.445313,-0.140625 -0.246093,-0.117188 -0.398437,-0.175781 -0.550781,-0.175781 -0.28125,0 -0.386719,0.105468 -0.820312,0.550781 l 0.128906,0.140625 c 0.210937,-0.210938 0.410156,-0.316406 0.609375,-0.316406 0.175781,0 0.386719,0.105468 0.445312,0.140625 0.246094,0.117187 0.398438,0.175781 0.550782,0.175781 0.28125,0 0.386718,-0.105469 0.820312,-0.5625 z m 0,0"
         style="fill:#ffffff;fill-opacity:1;fill-rule:nonzero;stroke:none" />
      <path
         id="path34"
         d="m 96.992258,66.936422 c 0,-0.105469 -0.08203,-0.257813 -0.28125,-0.257813 -0.1875,0 -0.386719,0.175782 -0.386719,0.375 0,0.117188 0.08203,0.269532 0.269531,0.269532 0.210938,0 0.398438,-0.199219 0.398438,-0.386719 z m -1.429688,3.539062 c -0.02344,0.09375 -0.05859,0.175782 -0.05859,0.292969 0,0.328125 0.28125,0.597656 0.667968,0.597656 0.691407,0 0.996094,-0.960937 0.996094,-1.066406 0,-0.09375 -0.08203,-0.09375 -0.105469,-0.09375 -0.105468,0 -0.105468,0.04687 -0.140625,0.117188 -0.152343,0.5625 -0.457031,0.84375 -0.738281,0.84375 -0.140625,0 -0.175781,-0.08203 -0.175781,-0.246094 0,-0.152344 0.05859,-0.292969 0.117187,-0.445313 0.07031,-0.1875 0.140625,-0.375 0.222657,-0.550781 0.05859,-0.164062 0.316406,-0.808594 0.339843,-0.890625 0.02344,-0.07031 0.04687,-0.152344 0.04687,-0.222656 0,-0.328125 -0.28125,-0.585938 -0.667968,-0.585938 -0.691407,0 -1.007813,0.949219 -1.007813,1.066407 0,0.08203 0.09375,0.08203 0.117188,0.08203 0.09375,0 0.105468,-0.03516 0.128906,-0.105469 0.175781,-0.597656 0.480469,-0.855469 0.738281,-0.855469 0.117188,0 0.175781,0.05859 0.175781,0.246094 0,0.164063 -0.03516,0.269531 -0.210937,0.703125 z m 0,0"
         style="fill:#ffffff;fill-opacity:1;fill-rule:nonzero;stroke:none" />
      <path
         id="path35"
         d="m 99.341867,66.983297 c 0,0 0.04687,-0.09375 0.04687,-0.175781 0,-0.175782 -0.152344,-0.292969 -0.304687,-0.292969 -0.210938,0 -0.257813,0.164062 -0.28125,0.234375 l -0.773438,2.15625 c -0.01172,0.05859 -0.01172,0.07031 -0.01172,0.08203 0,0.08203 0.199219,0.128906 0.210938,0.128906 0.04687,0 0.04687,-0.02344 0.08203,-0.08203 z m 0,0"
         style="fill:#ffffff;fill-opacity:1;fill-rule:nonzero;stroke:none" />
      <path
         id="path36"
         d="m 101.72077,71.178609 c 0,0.386719 -0.0703,0.832032 -0.55078,1.277344 -0.0234,0.03516 -0.0469,0.05859 -0.0469,0.09375 0,0.04687 0.0586,0.09375 0.0937,0.09375 0.10547,0 0.6914,-0.5625 0.6914,-1.394531 0,-0.421875 -0.16406,-0.75 -0.48047,-0.75 -0.23437,0 -0.39843,0.175781 -0.39843,0.386719 0,0.234375 0.15234,0.410156 0.39843,0.410156 0.16407,0 0.28125,-0.117188 0.29297,-0.117188 z m 0,0"
         style="fill:#ffffff;fill-opacity:1;fill-rule:nonzero;stroke:none" />
      <path
         id="path37"
         d="m 105.60261,64.996969 c -0.21094,0.210937 -0.41016,0.316406 -0.60938,0.316406 -0.17578,0 -0.38671,-0.105469 -0.44531,-0.140625 -0.24609,-0.117188 -0.39844,-0.175781 -0.55078,-0.175781 -0.28125,0 -0.38672,0.105468 -0.82031,0.550781 l 0.1289,0.140625 c 0.21094,-0.210938 0.41016,-0.316406 0.60938,-0.316406 0.17578,0 0.38672,0.105468 0.44531,0.140625 0.2461,0.117187 0.39844,0.175781 0.55078,0.175781 0.28125,0 0.38672,-0.105469 0.82032,-0.5625 z m 0,0"
         style="fill:#ffffff;fill-opacity:1;fill-rule:nonzero;stroke:none" />
      <path
         id="path38"
         d="m 105.66999,66.936422 c 0,-0.117188 -0.0937,-0.257813 -0.28125,-0.257813 -0.19922,0 -0.38672,0.1875 -0.38672,0.375 0,0.117188 0.082,0.269532 0.28125,0.269532 0.1875,0 0.38672,-0.1875 0.38672,-0.386719 z m -1.47656,4.699219 c -0.11719,0.480468 -0.49219,0.890625 -0.90234,0.890625 -0.082,0 -0.17579,-0.01172 -0.2461,-0.04687 0.17578,-0.08203 0.23438,-0.246094 0.23438,-0.351563 0,-0.164062 -0.12891,-0.257812 -0.26953,-0.257812 -0.22266,0 -0.39844,0.1875 -0.39844,0.410156 0,0.269531 0.26953,0.433594 0.6914,0.433594 0.42188,0 1.23047,-0.246094 1.45313,-1.101563 l 0.62109,-2.496094 c 0.0234,-0.07031 0.0352,-0.140625 0.0352,-0.234375 0,-0.386718 -0.32813,-0.65625 -0.73828,-0.65625 -0.78516,0 -1.23047,0.960938 -1.23047,1.066407 0,0.08203 0.10547,0.08203 0.12891,0.08203 0.082,0 0.082,-0.01172 0.1289,-0.117188 0.17578,-0.410156 0.53906,-0.84375 0.94922,-0.84375 0.17578,0 0.23438,0.117188 0.23438,0.339844 0,0.08203 -0.0117,0.175781 -0.0234,0.210938 z m 0,0"
         style="fill:#ffffff;fill-opacity:1;fill-rule:nonzero;stroke:none" />
      <path
         id="path39"
         d="m 108.10163,66.983297 c 0,0 0.0469,-0.09375 0.0469,-0.175781 0,-0.175782 -0.15235,-0.292969 -0.30469,-0.292969 -0.21094,0 -0.25781,0.164062 -0.28125,0.234375 l -0.77344,2.15625 c -0.0117,0.05859 -0.0117,0.07031 -0.0117,0.08203 0,0.08203 0.19922,0.128906 0.21094,0.128906 0.0469,0 0.0469,-0.02344 0.082,-0.08203 z m 0,0"
         style="fill:#ffffff;fill-opacity:1;fill-rule:nonzero;stroke:none" />
      <path
         id="path40"
         d="m 63.883859,81.494039 c 0,-0.304687 -0.246093,-0.550781 -0.550781,-0.550781 -0.304687,0 -0.5625,0.246094 -0.5625,0.550781 0,0.304688 0.257813,0.550781 0.5625,0.550781 0.304688,0 0.550781,-0.246093 0.550781,-0.550781 z m 4.652344,0 c 0,-0.304687 -0.246094,-0.550781 -0.550781,-0.550781 -0.304688,0 -0.5625,0.246094 -0.5625,0.550781 0,0.304688 0.257812,0.550781 0.5625,0.550781 0.304687,0 0.550781,-0.246093 0.550781,-0.550781 z m 4.661133,0 c 0,-0.304687 -0.246094,-0.550781 -0.550781,-0.550781 -0.304688,0 -0.5625,0.246094 -0.5625,0.550781 0,0.304688 0.257812,0.550781 0.5625,0.550781 0.304687,0 0.550781,-0.246093 0.550781,-0.550781 z m 0,0"
         style="fill:#ffffff;fill-opacity:1;fill-rule:nonzero;stroke:none" />
      <path
         id="path41"
         d="m 125.58308,18.057516 c 0,-6.410157 -1.13672,-10.1718754 -1.46485,-11.2382816 -0.71484,-2.3320313 -1.875,-4.78125 -3.63281,-6.94921878 -0.16406,-0.1875 -0.19922,-0.234375 -0.24609,-0.2578125 -0.0117,-0.0117188 -0.0234,-0.0234375 -0.19922,-0.0234375 -0.15234,0 -0.23438,0 -0.23438,0.10546875 0,0.0234375 0,0.046875 0.12891,0.234375 3.65625,5.09765623 4.47656,11.40234363 4.48828,18.50390663 0,0.152343 0.0586,0.152343 0.29297,0.152343 h 0.57422 c 0.22266,0 0.28125,0 0.29297,-0.117187 z m 0,0.597656 c 0,-0.269531 -0.0117,-0.28125 -0.29297,-0.28125 h -0.57422 c -0.28125,0 -0.29297,0.01172 -0.29297,0.28125 v 5.941406 c 0,0.28125 0.0117,0.292969 0.29297,0.292969 h 0.57422 c 0.28125,0 0.29297,-0.01172 0.29297,-0.292969 z m 0,6.301758 c 0,-0.269532 -0.0117,-0.28125 -0.29297,-0.28125 h -0.57422 c -0.28125,0 -0.29297,0.01172 -0.29297,0.28125 v 5.941406 c 0,0.28125 0.0117,0.292969 0.29297,0.292969 h 0.57422 c 0.28125,0 0.29297,-0.01172 0.29297,-0.292969 z m 0,6.298828 c 0,-0.269531 -0.0117,-0.28125 -0.29297,-0.28125 h -0.57422 c -0.28125,0 -0.29297,0.01172 -0.29297,0.28125 v 5.941406 c 0,0.28125 0.0117,0.292969 0.29297,0.292969 h 0.57422 c 0.28125,0 0.29297,-0.01172 0.29297,-0.292969 z m 0,6.301758 c 0,-0.269532 -0.0117,-0.28125 -0.29297,-0.28125 h -0.57422 c -0.28125,0 -0.29297,0.01172 -0.29297,0.28125 v 5.941406 c 0,0.28125 0.0117,0.292969 0.29297,0.292969 h 0.57422 c 0.28125,0 0.29297,-0.01172 0.29297,-0.292969 z m 0,6.298828 c 0,-0.269532 -0.0117,-0.28125 -0.29297,-0.28125 h -0.57422 c -0.28125,0 -0.29297,0.01172 -0.29297,0.28125 v 5.941406 c 0,0.28125 0.0117,0.292969 0.29297,0.292969 h 0.57422 c 0.28125,0 0.29297,-0.01172 0.29297,-0.292969 z m 0,6.301758 c 0,-0.269532 -0.0117,-0.28125 -0.29297,-0.28125 h -0.57422 c -0.28125,0 -0.29297,0.01172 -0.29297,0.28125 v 5.941406 c 0,0.28125 0.0117,0.292969 0.29297,0.292969 h 0.57422 c 0.28125,0 0.29297,-0.01172 0.29297,-0.292969 z m 0,6.298828 c 0,-0.269532 -0.0117,-0.28125 -0.29297,-0.28125 h -0.57422 c -0.28125,0 -0.29297,0.01172 -0.29297,0.28125 v 5.941406 c 0,0.28125 0.0117,0.292969 0.29297,0.292969 h 0.57422 c 0.28125,0 0.29297,-0.01172 0.29297,-0.292969 z m 0,6.298828 c 0,-0.269531 -0.0117,-0.28125 -0.29297,-0.28125 h -0.57422 c -0.28125,0 -0.29297,0.01172 -0.29297,0.28125 v 5.941406 c 0,0.28125 0.0117,0.292969 0.29297,0.292969 h 0.57422 c 0.28125,0 0.29297,-0.01172 0.29297,-0.292969 z m 0,6.134765 c -0.0117,-0.117187 -0.0703,-0.117187 -0.29297,-0.117187 h -0.57422 c -0.23437,0 -0.29297,0 -0.29297,0.152344 0,1.078125 -0.0117,3.574218 -0.28125,6.1875 -0.57422,5.4375 -1.96875,9.1875 -4.26562,12.410156 -0.0703,0.105469 -0.0703,0.117187 -0.0703,0.140625 0,0.105469 0.082,0.105469 0.23438,0.105469 0.17578,0 0.1875,0 0.21094,-0.02344 0.0469,-0.02344 1.38281,-1.558594 2.4375,-3.667969 1.38281,-2.777343 2.26172,-5.953125 2.64843,-9.785156 0.0352,-0.316406 0.2461,-2.507812 0.2461,-4.992187 z m 0,0"
         style="fill:#ffffff;fill-opacity:1;fill-rule:nonzero;stroke:none" />
    </g>
    <path
       id="path42"
       d="m 122.54913,-141.28778 c -14.03117,2.13718 -26.07171,11.76942 -31.2366,24.98928"
       style="fill:none;stroke:#ffffff;stroke-width:0.74721;stroke-linecap:butt;stroke-linejoin:miter;stroke-miterlimit:10;stroke-dasharray:none;stroke-opacity:1"
       transform="matrix(1.3333333,0,0,-1.3333333,-63.382667,-98.725333)" />
    <path
       id="path43"
       d="M 4.52798,0 C 3.18633,0.25154 1.00621,1.00621 -0.5031,1.88664 V -1.88664 C 1.00621,-1.00621 3.18633,-0.25154 4.52798,0"
       style="fill:#ffffff;fill-opacity:1;fill-rule:nonzero;stroke:none"
       transform="matrix(1.31808,0.20072,0.20072,-1.31808,100.01617,89.658373)" />
    <path
       id="path44"
       d="M 4.52798,0 C 3.18633,0.25154 1.00621,1.00621 -0.5031,1.88664 V -1.88664 C 1.00621,-1.00621 3.18633,-0.25154 4.52798,0"
       style="fill:#ffffff;fill-opacity:1;fill-rule:nonzero;stroke:none"
       transform="matrix(-0.48517333,-1.2418667,-1.2418667,0.48517333,58.367373,56.339333)" />
    <path
       id="path45"
       d="m 5.1687734,-7.2888047 v 7.13671876 H 2.9656484 V -5.1911484 H 2.2273672 v 5.03906246 H 0.57502344 V 0.58619531 H 9.9383047 V -0.15208594 H 5.9304922 V -3.5036484 H 8.9539297 V -4.2302109 H 5.9304922 v -3.0585938 h 3.5625 v -0.7382812 h -8.296875 v 0.7382812 z m 5.9414066,-0.035156 v 0.7148437 h 9.292968 V -7.3239609 H 16.26643 c -0.1875,-0.4921875 -0.398438,-0.9257813 -0.609375,-1.3242188 l -0.84375,0.140625 c 0.234375,0.3632813 0.445312,0.75 0.632812,1.1835938 z m 6.304687,1.03125 -0.515625,0.4921875 c 1.21875,1.0078125 2.191406,1.9453125 2.882813,2.8242187 l 0.5625,-0.5507812 C 19.54768,-4.452867 18.575023,-5.3669295 17.414867,-6.2927107 Z m 0.105469,1.96875 c -0.457031,0.8789062 -1.042969,1.6523437 -1.757813,2.3203125 -0.75,-0.6445313 -1.359375,-1.3828125 -1.816406,-2.25 l -0.65625,0.3632812 c 0.492188,0.890625 1.125,1.6875 1.898438,2.3789063 -1.101563,0.84374996 -2.484375,1.46484371 -4.136719,1.88671871 l 0.457031,0.69140629 c 1.675781,-0.43359379 3.105469,-1.12500004 4.289063,-2.0742188 1.125,0.87890626 2.542968,1.55859376 4.242187,2.0390625 l 0.480469,-0.70312499 c -1.640625,-0.421875 -3.011719,-1.03125 -4.148438,-1.85156251 0.726563,-0.703125 1.335938,-1.5351562 1.839844,-2.4960937 z M 14.028148,-6.280992 c -0.785156,0.984375 -1.757812,1.8398438 -2.894531,2.578125 l 0.480469,0.6328125 c 1.171875,-0.7734375 2.167969,-1.6875 2.964844,-2.7304687 z m 0,0"
       style="fill:#ffffff;fill-opacity:1;fill-rule:nonzero;stroke:none"
       aria-label="正交"
       transform="matrix(1.3333333,0,0,1.3333333,42.065333,94.652)" />
    <path
       id="path46"
       d="m 191.3299,-112.08115 h 20.83232"
       style="fill:none;stroke:#ffffff;stroke-width:0.74721;stroke-linecap:butt;stroke-linejoin:miter;stroke-miterlimit:10;stroke-dasharray:none;stroke-opacity:1"
       transform="matrix(1.3333333,0,0,-1.3333333,-63.382667,-98.725333)" />
    <path
       id="path47"
       d="M 4.52798,0 C 3.18633,0.25154 1.00621,1.00621 -0.5031,1.88664 V -1.88664 C 1.00621,-1.00621 3.18633,-0.25154 4.52798,0"
       style="fill:#ffffff;fill-opacity:1;fill-rule:nonzero;stroke:none"
       transform="matrix(-1.3333333,0,0,1.3333333,191.72387,50.7162)" />
    <path
       id="path48"
       d="M 4.52798,0 C 3.18633,0.25154 1.00621,1.00621 -0.5031,1.88664 V -1.88664 C 1.00621,-1.00621 3.18633,-0.25154 4.52798,0"
       style="fill:#ffffff;fill-opacity:1;fill-rule:nonzero;stroke:none"
       transform="matrix(1.3333333,0,0,-1.3333333,219.50029,50.7162)" />
    <path
       id="path49"
       d="m 5.1689297,-7.2883125 v 7.13671875 H 2.9658047 V -5.1906563 H 2.2275234 v 5.03906255 H 0.57517969 V 0.5866875 H 9.9384609 V -0.15159375 H 5.9306484 V -3.5031563 H 8.9540859 V -4.2297188 H 5.9306484 v -3.0585937 h 3.5625 v -0.7382813 h -8.296875 v 0.7382813 z m 5.9414063,-0.035156 v 0.7148438 h 9.292969 v -0.7148438 h -4.136719 c -0.1875,-0.4921875 -0.398438,-0.9257812 -0.609375,-1.3242187 l -0.84375,0.140625 c 0.234375,0.3632812 0.445312,0.75 0.632812,1.1835937 z m 6.304687,1.03125 -0.515625,0.4921875 c 1.21875,1.0078125 2.191407,1.9453125 2.882813,2.8242188 l 0.5625,-0.5507813 c -0.796875,-0.9257815 -1.769531,-1.839844 -2.929688,-2.765625 z m 0.105469,1.96875 c -0.457031,0.8789063 -1.042969,1.6523438 -1.757812,2.3203125 -0.75,-0.6445312 -1.359375,-1.3828125 -1.816407,-2.25 l -0.65625,0.3632813 c 0.492188,0.890625 1.125,1.6875 1.898438,2.3789062 -1.101563,0.84375005 -2.484375,1.4648438 -4.136719,1.8867188 l 0.457031,0.6914062 c 1.675782,-0.4335937 3.105469,-1.12499995 4.289063,-2.0742187 1.125,0.87890625 2.542969,1.55859375 4.242187,2.0390625 l 0.480469,-0.703125 c -1.640625,-0.421875 -3.011719,-1.03125 -4.148437,-1.8515625 0.726562,-0.703125 1.335937,-1.5351563 1.839843,-2.4960938 z M 14.028305,-6.2805 c -0.785157,0.984375 -1.757813,1.8398437 -2.894532,2.578125 l 0.480469,0.6328125 c 1.171875,-0.7734375 2.167969,-1.6875 2.964844,-2.7304688 z m 0,0"
       style="fill:#ffffff;fill-opacity:1;fill-rule:nonzero;stroke:none"
       aria-label="正交"
       transform="matrix(1.3333333,0,0,1.3333333,191.612,44.124)" />
  </g>
</svg>
