<?xml version="1.0" encoding="utf-8" standalone="no"?>
<!DOCTYPE svg PUBLIC "-//W3C//DTD SVG 1.1//EN"
  "http://www.w3.org/Graphics/SVG/1.1/DTD/svg11.dtd">
<svg xmlns:xlink="http://www.w3.org/1999/xlink" width="432pt" height="144pt" viewBox="0 0 432 144" xmlns="http://www.w3.org/2000/svg" version="1.1">
 <metadata>
  <rdf:RDF xmlns:dc="http://purl.org/dc/elements/1.1/" xmlns:cc="http://creativecommons.org/ns#" xmlns:rdf="http://www.w3.org/1999/02/22-rdf-syntax-ns#">
   <cc:Work>
    <dc:type rdf:resource="http://purl.org/dc/dcmitype/StillImage"/>
    <dc:date>2025-11-25T22:13:11.397002</dc:date>
    <dc:format>image/svg+xml</dc:format>
    <dc:creator>
     <cc:Agent>
      <dc:title>Matplotlib v3.10.6, https://matplotlib.org/</dc:title>
     </cc:Agent>
    </dc:creator>
   </cc:Work>
  </rdf:RDF>
 </metadata>
 <defs>
  <style type="text/css">*{stroke-linejoin: round; stroke-linecap: butt}</style>
 </defs>
 <g id="figure_1">
  <g id="patch_1">
   <path d="M 0 144 
L 432 144 
L 432 0 
L 0 0 
L 0 144 
z
" style="fill: none"/>
  </g>
  <g id="axes_1">
   <g id="patch_2">
    <path d="M 94.9 45.4 
L 112.2 45.4 
L 112.2 28.1 
L 94.9 28.1 
L 94.9 45.4 
z
" clip-path="url(#pac4ae5dfd9)" style="fill: none; stroke: #000000; stroke-linejoin: miter"/>
   </g>
   <g id="patch_3">
    <path d="M 112.2 45.4 
L 129.5 45.4 
L 129.5 28.1 
L 112.2 28.1 
L 112.2 45.4 
z
" clip-path="url(#pac4ae5dfd9)" style="fill: none; stroke: #000000; stroke-linejoin: miter"/>
   </g>
   <g id="patch_4">
    <path d="M 129.5 45.4 
L 146.8 45.4 
L 146.8 28.1 
L 129.5 28.1 
L 129.5 45.4 
z
" clip-path="url(#pac4ae5dfd9)" style="fill: none; stroke: #000000; stroke-linejoin: miter"/>
   </g>
   <g id="patch_5">
    <path d="M 198.7 45.4 
L 216 45.4 
L 216 28.1 
L 198.7 28.1 
L 198.7 45.4 
z
" clip-path="url(#pac4ae5dfd9)" style="fill: none; stroke: #000000; stroke-linejoin: miter"/>
   </g>
   <g id="patch_6">
    <path d="M 216 45.4 
L 233.3 45.4 
L 233.3 28.1 
L 216 28.1 
L 216 45.4 
z
" clip-path="url(#pac4ae5dfd9)" style="fill: none; stroke: #000000; stroke-linejoin: miter"/>
   </g>
   <g id="patch_7">
    <path d="M 198.7 62.7 
L 216 62.7 
L 216 45.4 
L 198.7 45.4 
L 198.7 62.7 
z
" clip-path="url(#pac4ae5dfd9)" style="fill: none; stroke: #000000; stroke-linejoin: miter"/>
   </g>
   <g id="patch_8">
    <path d="M 302.5 45.4 
L 319.8 45.4 
L 319.8 28.1 
L 302.5 28.1 
L 302.5 45.4 
z
" clip-path="url(#pac4ae5dfd9)" style="fill: none; stroke: #000000; stroke-linejoin: miter"/>
   </g>
   <g id="patch_9">
    <path d="M 302.5 62.7 
L 319.8 62.7 
L 319.8 45.4 
L 302.5 45.4 
L 302.5 62.7 
z
" clip-path="url(#pac4ae5dfd9)" style="fill: none; stroke: #000000; stroke-linejoin: miter"/>
   </g>
   <g id="patch_10">
    <path d="M 302.5 80 
L 319.8 80 
L 319.8 62.7 
L 302.5 62.7 
L 302.5 80 
z
" clip-path="url(#pac4ae5dfd9)" style="fill: none; stroke: #000000; stroke-linejoin: miter"/>
   </g>
   <g id="text_1">
    <!-- $\lambda=(3)$ -->
    <g transform="translate(101.41 82.198125) scale(0.12 -0.12)">
     <defs>
      <path id="DejaVuSans-Oblique-3bb" d="M 2350 4316 
L 3125 0 
L 2516 0 
L 2038 2588 
L 328 0 
L -281 0 
L 1903 3356 
L 1794 3975 
Q 1725 4369 1391 4369 
L 1091 4369 
L 1184 4863 
L 1550 4856 
Q 2253 4847 2350 4316 
z
" transform="scale(0.015625)"/>
      <path id="DejaVuSans-3d" d="M 678 2906 
L 4684 2906 
L 4684 2381 
L 678 2381 
L 678 2906 
z
M 678 1631 
L 4684 1631 
L 4684 1100 
L 678 1100 
L 678 1631 
z
" transform="scale(0.015625)"/>
      <path id="DejaVuSans-28" d="M 1984 4856 
Q 1566 4138 1362 3434 
Q 1159 2731 1159 2009 
Q 1159 1288 1364 580 
Q 1569 -128 1984 -844 
L 1484 -844 
Q 1016 -109 783 600 
Q 550 1309 550 2009 
Q 550 2706 781 3412 
Q 1013 4119 1484 4856 
L 1984 4856 
z
" transform="scale(0.015625)"/>
      <path id="DejaVuSans-33" d="M 2597 2516 
Q 3050 2419 3304 2112 
Q 3559 1806 3559 1356 
Q 3559 666 3084 287 
Q 2609 -91 1734 -91 
Q 1441 -91 1130 -33 
Q 819 25 488 141 
L 488 750 
Q 750 597 1062 519 
Q 1375 441 1716 441 
Q 2309 441 2620 675 
Q 2931 909 2931 1356 
Q 2931 1769 2642 2001 
Q 2353 2234 1838 2234 
L 1294 2234 
L 1294 2753 
L 1863 2753 
Q 2328 2753 2575 2939 
Q 2822 3125 2822 3475 
Q 2822 3834 2567 4026 
Q 2313 4219 1838 4219 
Q 1578 4219 1281 4162 
Q 984 4106 628 3988 
L 628 4550 
Q 988 4650 1302 4700 
Q 1616 4750 1894 4750 
Q 2613 4750 3031 4423 
Q 3450 4097 3450 3541 
Q 3450 3153 3228 2886 
Q 3006 2619 2597 2516 
z
" transform="scale(0.015625)"/>
      <path id="DejaVuSans-29" d="M 513 4856 
L 1013 4856 
Q 1481 4119 1714 3412 
Q 1947 2706 1947 2009 
Q 1947 1309 1714 600 
Q 1481 -109 1013 -844 
L 513 -844 
Q 928 -128 1133 580 
Q 1338 1288 1338 2009 
Q 1338 2731 1133 3434 
Q 928 4138 513 4856 
z
" transform="scale(0.015625)"/>
     </defs>
     <use xlink:href="#DejaVuSans-Oblique-3bb" transform="translate(0 0.015625)"/>
     <use xlink:href="#DejaVuSans-3d" transform="translate(78.662109 0.015625)"/>
     <use xlink:href="#DejaVuSans-28" transform="translate(181.933594 0.015625)"/>
     <use xlink:href="#DejaVuSans-33" transform="translate(220.947266 0.015625)"/>
     <use xlink:href="#DejaVuSans-29" transform="translate(284.570312 0.015625)"/>
    </g>
    <!-- $\mathrm{Dim}=1$ -->
    <g transform="translate(97.51 95.6355) scale(0.12 -0.12)">
     <defs>
      <path id="DejaVuSans-44" d="M 1259 4147 
L 1259 519 
L 2022 519 
Q 2988 519 3436 956 
Q 3884 1394 3884 2338 
Q 3884 3275 3436 3711 
Q 2988 4147 2022 4147 
L 1259 4147 
z
M 628 4666 
L 1925 4666 
Q 3281 4666 3915 4102 
Q 4550 3538 4550 2338 
Q 4550 1131 3912 565 
Q 3275 0 1925 0 
L 628 0 
L 628 4666 
z
" transform="scale(0.015625)"/>
      <path id="DejaVuSans-69" d="M 603 3500 
L 1178 3500 
L 1178 0 
L 603 0 
L 603 3500 
z
M 603 4863 
L 1178 4863 
L 1178 4134 
L 603 4134 
L 603 4863 
z
" transform="scale(0.015625)"/>
      <path id="DejaVuSans-6d" d="M 3328 2828 
Q 3544 3216 3844 3400 
Q 4144 3584 4550 3584 
Q 5097 3584 5394 3201 
Q 5691 2819 5691 2113 
L 5691 0 
L 5113 0 
L 5113 2094 
Q 5113 2597 4934 2840 
Q 4756 3084 4391 3084 
Q 3944 3084 3684 2787 
Q 3425 2491 3425 1978 
L 3425 0 
L 2847 0 
L 2847 2094 
Q 2847 2600 2669 2842 
Q 2491 3084 2119 3084 
Q 1678 3084 1418 2786 
Q 1159 2488 1159 1978 
L 1159 0 
L 581 0 
L 581 3500 
L 1159 3500 
L 1159 2956 
Q 1356 3278 1631 3431 
Q 1906 3584 2284 3584 
Q 2666 3584 2933 3390 
Q 3200 3197 3328 2828 
z
" transform="scale(0.015625)"/>
      <path id="DejaVuSans-31" d="M 794 531 
L 1825 531 
L 1825 4091 
L 703 3866 
L 703 4441 
L 1819 4666 
L 2450 4666 
L 2450 531 
L 3481 531 
L 3481 0 
L 794 0 
L 794 531 
z
" transform="scale(0.015625)"/>
     </defs>
     <use xlink:href="#DejaVuSans-44" transform="translate(0 0.015625)"/>
     <use xlink:href="#DejaVuSans-69" transform="translate(77.001953 0.015625)"/>
     <use xlink:href="#DejaVuSans-6d" transform="translate(104.785156 0.015625)"/>
     <use xlink:href="#DejaVuSans-3d" transform="translate(221.679688 0.015625)"/>
     <use xlink:href="#DejaVuSans-31" transform="translate(324.951172 0.015625)"/>
    </g>
   </g>
   <g id="text_2">
    <!-- $\lambda=(2,1)$ -->
    <g transform="translate(189.66 99.498125) scale(0.12 -0.12)">
     <defs>
      <path id="DejaVuSans-32" d="M 1228 531 
L 3431 531 
L 3431 0 
L 469 0 
L 469 531 
Q 828 903 1448 1529 
Q 2069 2156 2228 2338 
Q 2531 2678 2651 2914 
Q 2772 3150 2772 3378 
Q 2772 3750 2511 3984 
Q 2250 4219 1831 4219 
Q 1534 4219 1204 4116 
Q 875 4013 500 3803 
L 500 4441 
Q 881 4594 1212 4672 
Q 1544 4750 1819 4750 
Q 2544 4750 2975 4387 
Q 3406 4025 3406 3419 
Q 3406 3131 3298 2873 
Q 3191 2616 2906 2266 
Q 2828 2175 2409 1742 
Q 1991 1309 1228 531 
z
" transform="scale(0.015625)"/>
      <path id="DejaVuSans-2c" d="M 750 794 
L 1409 794 
L 1409 256 
L 897 -744 
L 494 -744 
L 750 256 
L 750 794 
z
" transform="scale(0.015625)"/>
     </defs>
     <use xlink:href="#DejaVuSans-Oblique-3bb" transform="translate(0 0.015625)"/>
     <use xlink:href="#DejaVuSans-3d" transform="translate(78.662109 0.015625)"/>
     <use xlink:href="#DejaVuSans-28" transform="translate(181.933594 0.015625)"/>
     <use xlink:href="#DejaVuSans-32" transform="translate(220.947266 0.015625)"/>
     <use xlink:href="#DejaVuSans-2c" transform="translate(284.570312 0.015625)"/>
     <use xlink:href="#DejaVuSans-31" transform="translate(335.839844 0.015625)"/>
     <use xlink:href="#DejaVuSans-29" transform="translate(399.462891 0.015625)"/>
    </g>
    <!-- $\mathrm{Dim}=2$ -->
    <g transform="translate(192.66 112.9355) scale(0.12 -0.12)">
     <use xlink:href="#DejaVuSans-44" transform="translate(0 0.015625)"/>
     <use xlink:href="#DejaVuSans-69" transform="translate(77.001953 0.015625)"/>
     <use xlink:href="#DejaVuSans-6d" transform="translate(104.785156 0.015625)"/>
     <use xlink:href="#DejaVuSans-3d" transform="translate(221.679688 0.015625)"/>
     <use xlink:href="#DejaVuSans-32" transform="translate(324.951172 0.015625)"/>
    </g>
   </g>
   <g id="text_3">
    <!-- $\lambda=(1,1,1)$ -->
    <g transform="translate(277.91 116.798125) scale(0.12 -0.12)">
     <use xlink:href="#DejaVuSans-Oblique-3bb" transform="translate(0 0.015625)"/>
     <use xlink:href="#DejaVuSans-3d" transform="translate(78.662109 0.015625)"/>
     <use xlink:href="#DejaVuSans-28" transform="translate(181.933594 0.015625)"/>
     <use xlink:href="#DejaVuSans-31" transform="translate(220.947266 0.015625)"/>
     <use xlink:href="#DejaVuSans-2c" transform="translate(284.570312 0.015625)"/>
     <use xlink:href="#DejaVuSans-31" transform="translate(335.839844 0.015625)"/>
     <use xlink:href="#DejaVuSans-2c" transform="translate(399.462891 0.015625)"/>
     <use xlink:href="#DejaVuSans-31" transform="translate(450.732422 0.015625)"/>
     <use xlink:href="#DejaVuSans-29" transform="translate(514.355469 0.015625)"/>
    </g>
    <!-- $\mathrm{Dim}=1$ -->
    <g transform="translate(287.81 130.2355) scale(0.12 -0.12)">
     <use xlink:href="#DejaVuSans-44" transform="translate(0 0.015625)"/>
     <use xlink:href="#DejaVuSans-69" transform="translate(77.001953 0.015625)"/>
     <use xlink:href="#DejaVuSans-6d" transform="translate(104.785156 0.015625)"/>
     <use xlink:href="#DejaVuSans-3d" transform="translate(221.679688 0.015625)"/>
     <use xlink:href="#DejaVuSans-31" transform="translate(324.951172 0.015625)"/>
    </g>
   </g>
  </g>
 </g>
 <defs>
  <clipPath id="pac4ae5dfd9">
   <rect x="60.3" y="10.8" width="311.4" height="103.8"/>
  </clipPath>
 </defs>
</svg>
