<?xml version="1.0" encoding="utf-8" standalone="no"?>
<!DOCTYPE svg PUBLIC "-//W3C//DTD SVG 1.1//EN"
  "http://www.w3.org/Graphics/SVG/1.1/DTD/svg11.dtd">
<svg xmlns:xlink="http://www.w3.org/1999/xlink" width="864pt" height="432pt" viewBox="0 0 864 432" xmlns="http://www.w3.org/2000/svg" version="1.1">
 <metadata>
  <rdf:RDF xmlns:dc="http://purl.org/dc/elements/1.1/" xmlns:cc="http://creativecommons.org/ns#" xmlns:rdf="http://www.w3.org/1999/02/22-rdf-syntax-ns#">
   <cc:Work>
    <dc:type rdf:resource="http://purl.org/dc/dcmitype/StillImage"/>
    <dc:date>2025-12-15T07:30:22.824853</dc:date>
    <dc:format>image/svg+xml</dc:format>
    <dc:creator>
     <cc:Agent>
      <dc:title>Matplotlib v3.10.6, https://matplotlib.org/</dc:title>
     </cc:Agent>
    </dc:creator>
   </cc:Work>
  </rdf:RDF>
 </metadata>
 <defs>
  <style type="text/css">*{stroke-linejoin: round; stroke-linecap: butt}</style>
 </defs>
 <g id="figure_1">
  <g id="patch_1">
   <path d="M 0 432 
L 864 432 
L 864 0 
L 0 0 
z
" style="fill: #ffffff"/>
  </g>
  <g id="axes_1">
   <g id="patch_2">
    <path d="M 45.9 257.04 
L 256.5 257.04 
Q 263.52 257.04 263.52 250.2 
L 263.52 113.4 
Q 263.52 106.56 256.5 106.56 
L 45.9 106.56 
Q 38.88 106.56 38.88 113.4 
L 38.88 250.2 
Q 38.88 257.04 45.9 257.04 
z
" clip-path="url(#p8d70657eee)" style="fill: #e6f3ff; stroke: #000000; stroke-width: 2; stroke-linejoin: miter"/>
   </g>
   <g id="patch_3">
    <path d="M 502.2 188.64 
L 712.8 188.64 
Q 719.82 188.64 719.82 181.8 
L 719.82 79.2 
Q 719.82 72.36 712.8 72.36 
L 502.2 72.36 
Q 495.18 72.36 495.18 79.2 
L 495.18 181.8 
Q 495.18 188.64 502.2 188.64 
z
" clip-path="url(#p8d70657eee)" style="fill: #e6ffe6; stroke: #000000; stroke-width: 2; stroke-linejoin: miter"/>
   </g>
   <g id="patch_4">
    <path d="M 502.2 359.64 
L 712.8 359.64 
Q 719.82 359.64 719.82 352.8 
L 719.82 250.2 
Q 719.82 243.36 712.8 243.36 
L 502.2 243.36 
Q 495.18 243.36 495.18 250.2 
L 495.18 352.8 
Q 495.18 359.64 502.2 359.64 
z
" clip-path="url(#p8d70657eee)" style="fill: #fff0e6; stroke: #000000; stroke-width: 2; stroke-linejoin: miter"/>
   </g>
   <g id="text_1">
    <!-- Original Problem -->
    <g transform="translate(84.599375 110.379063) scale(0.14 -0.14)">
     <defs>
      <path id="DejaVuSans-Bold-4f" d="M 2719 3878 
Q 2169 3878 1866 3472 
Q 1563 3066 1563 2328 
Q 1563 1594 1866 1187 
Q 2169 781 2719 781 
Q 3272 781 3575 1187 
Q 3878 1594 3878 2328 
Q 3878 3066 3575 3472 
Q 3272 3878 2719 3878 
z
M 2719 4750 
Q 3844 4750 4481 4106 
Q 5119 3463 5119 2328 
Q 5119 1197 4481 553 
Q 3844 -91 2719 -91 
Q 1597 -91 958 553 
Q 319 1197 319 2328 
Q 319 3463 958 4106 
Q 1597 4750 2719 4750 
z
" transform="scale(0.015625)"/>
      <path id="DejaVuSans-Bold-72" d="M 3138 2547 
Q 2991 2616 2845 2648 
Q 2700 2681 2553 2681 
Q 2122 2681 1889 2404 
Q 1656 2128 1656 1613 
L 1656 0 
L 538 0 
L 538 3500 
L 1656 3500 
L 1656 2925 
Q 1872 3269 2151 3426 
Q 2431 3584 2822 3584 
Q 2878 3584 2943 3579 
Q 3009 3575 3134 3559 
L 3138 2547 
z
" transform="scale(0.015625)"/>
      <path id="DejaVuSans-Bold-69" d="M 538 3500 
L 1656 3500 
L 1656 0 
L 538 0 
L 538 3500 
z
M 538 4863 
L 1656 4863 
L 1656 3950 
L 538 3950 
L 538 4863 
z
" transform="scale(0.015625)"/>
      <path id="DejaVuSans-Bold-67" d="M 2919 594 
Q 2688 288 2409 144 
Q 2131 0 1766 0 
Q 1125 0 706 504 
Q 288 1009 288 1791 
Q 288 2575 706 3076 
Q 1125 3578 1766 3578 
Q 2131 3578 2409 3434 
Q 2688 3291 2919 2981 
L 2919 3500 
L 4044 3500 
L 4044 353 
Q 4044 -491 3511 -936 
Q 2978 -1381 1966 -1381 
Q 1638 -1381 1331 -1331 
Q 1025 -1281 716 -1178 
L 716 -306 
Q 1009 -475 1290 -558 
Q 1572 -641 1856 -641 
Q 2406 -641 2662 -400 
Q 2919 -159 2919 353 
L 2919 594 
z
M 2181 2772 
Q 1834 2772 1640 2515 
Q 1447 2259 1447 1791 
Q 1447 1309 1634 1061 
Q 1822 813 2181 813 
Q 2531 813 2725 1069 
Q 2919 1325 2919 1791 
Q 2919 2259 2725 2515 
Q 2531 2772 2181 2772 
z
" transform="scale(0.015625)"/>
      <path id="DejaVuSans-Bold-6e" d="M 4056 2131 
L 4056 0 
L 2931 0 
L 2931 347 
L 2931 1631 
Q 2931 2084 2911 2256 
Q 2891 2428 2841 2509 
Q 2775 2619 2662 2680 
Q 2550 2741 2406 2741 
Q 2056 2741 1856 2470 
Q 1656 2200 1656 1722 
L 1656 0 
L 538 0 
L 538 3500 
L 1656 3500 
L 1656 2988 
Q 1909 3294 2193 3439 
Q 2478 3584 2822 3584 
Q 3428 3584 3742 3212 
Q 4056 2841 4056 2131 
z
" transform="scale(0.015625)"/>
      <path id="DejaVuSans-Bold-61" d="M 2106 1575 
Q 1756 1575 1579 1456 
Q 1403 1338 1403 1106 
Q 1403 894 1545 773 
Q 1688 653 1941 653 
Q 2256 653 2472 879 
Q 2688 1106 2688 1447 
L 2688 1575 
L 2106 1575 
z
M 3816 1997 
L 3816 0 
L 2688 0 
L 2688 519 
Q 2463 200 2181 54 
Q 1900 -91 1497 -91 
Q 953 -91 614 226 
Q 275 544 275 1050 
Q 275 1666 698 1953 
Q 1122 2241 2028 2241 
L 2688 2241 
L 2688 2328 
Q 2688 2594 2478 2717 
Q 2269 2841 1825 2841 
Q 1466 2841 1156 2769 
Q 847 2697 581 2553 
L 581 3406 
Q 941 3494 1303 3539 
Q 1666 3584 2028 3584 
Q 2975 3584 3395 3211 
Q 3816 2838 3816 1997 
z
" transform="scale(0.015625)"/>
      <path id="DejaVuSans-Bold-6c" d="M 538 4863 
L 1656 4863 
L 1656 0 
L 538 0 
L 538 4863 
z
" transform="scale(0.015625)"/>
      <path id="DejaVuSans-Bold-20" transform="scale(0.015625)"/>
      <path id="DejaVuSans-Bold-50" d="M 588 4666 
L 2584 4666 
Q 3475 4666 3951 4270 
Q 4428 3875 4428 3144 
Q 4428 2409 3951 2014 
Q 3475 1619 2584 1619 
L 1791 1619 
L 1791 0 
L 588 0 
L 588 4666 
z
M 1791 3794 
L 1791 2491 
L 2456 2491 
Q 2806 2491 2997 2661 
Q 3188 2831 3188 3144 
Q 3188 3456 2997 3625 
Q 2806 3794 2456 3794 
L 1791 3794 
z
" transform="scale(0.015625)"/>
      <path id="DejaVuSans-Bold-6f" d="M 2203 2784 
Q 1831 2784 1636 2517 
Q 1441 2250 1441 1747 
Q 1441 1244 1636 976 
Q 1831 709 2203 709 
Q 2569 709 2762 976 
Q 2956 1244 2956 1747 
Q 2956 2250 2762 2517 
Q 2569 2784 2203 2784 
z
M 2203 3584 
Q 3106 3584 3614 3096 
Q 4122 2609 4122 1747 
Q 4122 884 3614 396 
Q 3106 -91 2203 -91 
Q 1297 -91 786 396 
Q 275 884 275 1747 
Q 275 2609 786 3096 
Q 1297 3584 2203 3584 
z
" transform="scale(0.015625)"/>
      <path id="DejaVuSans-Bold-62" d="M 2400 722 
Q 2759 722 2948 984 
Q 3138 1247 3138 1747 
Q 3138 2247 2948 2509 
Q 2759 2772 2400 2772 
Q 2041 2772 1848 2508 
Q 1656 2244 1656 1747 
Q 1656 1250 1848 986 
Q 2041 722 2400 722 
z
M 1656 2988 
Q 1888 3294 2169 3439 
Q 2450 3584 2816 3584 
Q 3463 3584 3878 3070 
Q 4294 2556 4294 1747 
Q 4294 938 3878 423 
Q 3463 -91 2816 -91 
Q 2450 -91 2169 54 
Q 1888 200 1656 506 
L 1656 0 
L 538 0 
L 538 4863 
L 1656 4863 
L 1656 2988 
z
" transform="scale(0.015625)"/>
      <path id="DejaVuSans-Bold-65" d="M 4031 1759 
L 4031 1441 
L 1416 1441 
Q 1456 1047 1700 850 
Q 1944 653 2381 653 
Q 2734 653 3104 758 
Q 3475 863 3866 1075 
L 3866 213 
Q 3469 63 3072 -14 
Q 2675 -91 2278 -91 
Q 1328 -91 801 392 
Q 275 875 275 1747 
Q 275 2603 792 3093 
Q 1309 3584 2216 3584 
Q 3041 3584 3536 3087 
Q 4031 2591 4031 1759 
z
M 2881 2131 
Q 2881 2450 2695 2645 
Q 2509 2841 2209 2841 
Q 1884 2841 1681 2658 
Q 1478 2475 1428 2131 
L 2881 2131 
z
" transform="scale(0.015625)"/>
      <path id="DejaVuSans-Bold-6d" d="M 3781 2919 
Q 3994 3244 4286 3414 
Q 4578 3584 4928 3584 
Q 5531 3584 5847 3212 
Q 6163 2841 6163 2131 
L 6163 0 
L 5038 0 
L 5038 1825 
Q 5041 1866 5042 1909 
Q 5044 1953 5044 2034 
Q 5044 2406 4934 2573 
Q 4825 2741 4581 2741 
Q 4263 2741 4089 2478 
Q 3916 2216 3909 1719 
L 3909 0 
L 2784 0 
L 2784 1825 
Q 2784 2406 2684 2573 
Q 2584 2741 2328 2741 
Q 2006 2741 1831 2477 
Q 1656 2213 1656 1722 
L 1656 0 
L 531 0 
L 531 3500 
L 1656 3500 
L 1656 2988 
Q 1863 3284 2130 3434 
Q 2397 3584 2719 3584 
Q 3081 3584 3359 3409 
Q 3638 3234 3781 2919 
z
" transform="scale(0.015625)"/>
     </defs>
     <use xlink:href="#DejaVuSans-Bold-4f"/>
     <use xlink:href="#DejaVuSans-Bold-72" transform="translate(85.009766 0)"/>
     <use xlink:href="#DejaVuSans-Bold-69" transform="translate(134.326172 0)"/>
     <use xlink:href="#DejaVuSans-Bold-67" transform="translate(168.603516 0)"/>
     <use xlink:href="#DejaVuSans-Bold-69" transform="translate(240.185547 0)"/>
     <use xlink:href="#DejaVuSans-Bold-6e" transform="translate(274.462891 0)"/>
     <use xlink:href="#DejaVuSans-Bold-61" transform="translate(345.654297 0)"/>
     <use xlink:href="#DejaVuSans-Bold-6c" transform="translate(413.134766 0)"/>
     <use xlink:href="#DejaVuSans-Bold-20" transform="translate(447.412109 0)"/>
     <use xlink:href="#DejaVuSans-Bold-50" transform="translate(482.226562 0)"/>
     <use xlink:href="#DejaVuSans-Bold-72" transform="translate(555.517578 0)"/>
     <use xlink:href="#DejaVuSans-Bold-6f" transform="translate(604.833984 0)"/>
     <use xlink:href="#DejaVuSans-Bold-62" transform="translate(673.535156 0)"/>
     <use xlink:href="#DejaVuSans-Bold-6c" transform="translate(745.117188 0)"/>
     <use xlink:href="#DejaVuSans-Bold-65" transform="translate(779.394531 0)"/>
     <use xlink:href="#DejaVuSans-Bold-6d" transform="translate(847.216797 0)"/>
    </g>
   </g>
   <g id="text_2">
    <!-- $-\nabla^2 u = f(\mathbf{r})$ -->
    <g transform="translate(118.32 178.620375) scale(0.12 -0.12)">
     <defs>
      <path id="DejaVuSans-2212" d="M 678 2272 
L 4684 2272 
L 4684 1741 
L 678 1741 
L 678 2272 
z
" transform="scale(0.015625)"/>
      <path id="DejaVuSans-2207" d="M 2138 659 
L 3444 4047 
L 831 4047 
L 2138 659 
z
M 1791 0 
L -19 4603 
L 4300 4603 
L 2491 0 
L 1791 0 
z
" transform="scale(0.015625)"/>
      <path id="DejaVuSans-32" d="M 1228 531 
L 3431 531 
L 3431 0 
L 469 0 
L 469 531 
Q 828 903 1448 1529 
Q 2069 2156 2228 2338 
Q 2531 2678 2651 2914 
Q 2772 3150 2772 3378 
Q 2772 3750 2511 3984 
Q 2250 4219 1831 4219 
Q 1534 4219 1204 4116 
Q 875 4013 500 3803 
L 500 4441 
Q 881 4594 1212 4672 
Q 1544 4750 1819 4750 
Q 2544 4750 2975 4387 
Q 3406 4025 3406 3419 
Q 3406 3131 3298 2873 
Q 3191 2616 2906 2266 
Q 2828 2175 2409 1742 
Q 1991 1309 1228 531 
z
" transform="scale(0.015625)"/>
      <path id="DejaVuSans-Oblique-75" d="M 428 1388 
L 838 3500 
L 1416 3500 
L 1006 1409 
Q 975 1256 961 1147 
Q 947 1038 947 966 
Q 947 700 1109 554 
Q 1272 409 1569 409 
Q 2031 409 2368 721 
Q 2706 1034 2809 1563 
L 3194 3500 
L 3769 3500 
L 3091 0 
L 2516 0 
L 2631 550 
Q 2388 244 2052 76 
Q 1716 -91 1338 -91 
Q 878 -91 622 161 
Q 366 413 366 863 
Q 366 956 381 1097 
Q 397 1238 428 1388 
z
" transform="scale(0.015625)"/>
      <path id="DejaVuSans-3d" d="M 678 2906 
L 4684 2906 
L 4684 2381 
L 678 2381 
L 678 2906 
z
M 678 1631 
L 4684 1631 
L 4684 1100 
L 678 1100 
L 678 1631 
z
" transform="scale(0.015625)"/>
      <path id="DejaVuSans-Oblique-66" d="M 3059 4863 
L 2969 4384 
L 2419 4384 
Q 2106 4384 1964 4261 
Q 1822 4138 1753 3809 
L 1691 3500 
L 2638 3500 
L 2553 3053 
L 1606 3053 
L 1013 0 
L 434 0 
L 1031 3053 
L 481 3053 
L 563 3500 
L 1113 3500 
L 1159 3744 
Q 1278 4363 1576 4613 
Q 1875 4863 2516 4863 
L 3059 4863 
z
" transform="scale(0.015625)"/>
      <path id="DejaVuSans-28" d="M 1984 4856 
Q 1566 4138 1362 3434 
Q 1159 2731 1159 2009 
Q 1159 1288 1364 580 
Q 1569 -128 1984 -844 
L 1484 -844 
Q 1016 -109 783 600 
Q 550 1309 550 2009 
Q 550 2706 781 3412 
Q 1013 4119 1484 4856 
L 1984 4856 
z
" transform="scale(0.015625)"/>
      <path id="DejaVuSans-29" d="M 513 4856 
L 1013 4856 
Q 1481 4119 1714 3412 
Q 1947 2706 1947 2009 
Q 1947 1309 1714 600 
Q 1481 -109 1013 -844 
L 513 -844 
Q 928 -128 1133 580 
Q 1338 1288 1338 2009 
Q 1338 2731 1133 3434 
Q 928 4138 513 4856 
z
" transform="scale(0.015625)"/>
     </defs>
     <use xlink:href="#DejaVuSans-2212" transform="translate(0 0.765625)"/>
     <use xlink:href="#DejaVuSans-2207" transform="translate(83.789062 0.765625)"/>
     <use xlink:href="#DejaVuSans-32" transform="translate(151.640625 39.046875) scale(0.7)"/>
     <use xlink:href="#DejaVuSans-Oblique-75" transform="translate(198.911133 0.765625)"/>
     <use xlink:href="#DejaVuSans-3d" transform="translate(281.772461 0.765625)"/>
     <use xlink:href="#DejaVuSans-Oblique-66" transform="translate(385.043945 0.765625)"/>
     <use xlink:href="#DejaVuSans-28" transform="translate(420.249023 0.765625)"/>
     <use xlink:href="#DejaVuSans-Bold-72" transform="translate(459.262695 0.765625)"/>
     <use xlink:href="#DejaVuSans-29" transform="translate(508.579102 0.765625)"/>
    </g>
    <!-- $u|_S = \varphi(\mathbf{r})$ -->
    <g transform="translate(123.48 192.204) scale(0.12 -0.12)">
     <defs>
      <path id="DejaVuSans-7c" d="M 1344 4891 
L 1344 -1509 
L 813 -1509 
L 813 4891 
L 1344 4891 
z
" transform="scale(0.015625)"/>
      <path id="DejaVuSans-Oblique-53" d="M 3859 4513 
L 3738 3897 
Q 3422 4066 3111 4152 
Q 2800 4238 2509 4238 
Q 1944 4238 1609 3991 
Q 1275 3744 1275 3334 
Q 1275 3109 1398 2989 
Q 1522 2869 2034 2731 
L 2413 2638 
Q 3053 2472 3303 2217 
Q 3553 1963 3553 1503 
Q 3553 797 2998 353 
Q 2444 -91 1538 -91 
Q 1166 -91 791 -17 
Q 416 56 38 206 
L 166 856 
Q 513 641 861 531 
Q 1209 422 1556 422 
Q 2147 422 2503 684 
Q 2859 947 2859 1369 
Q 2859 1650 2717 1795 
Q 2575 1941 2106 2059 
L 1728 2156 
Q 1081 2325 845 2545 
Q 609 2766 609 3163 
Q 609 3859 1145 4304 
Q 1681 4750 2541 4750 
Q 2875 4750 3203 4690 
Q 3531 4631 3859 4513 
z
" transform="scale(0.015625)"/>
      <path id="DejaVuSans-Oblique-3c6" d="M 2969 3034 
Q 2766 3034 2675 2581 
L 2259 438 
Q 2553 438 2916 763 
Q 3244 1053 3375 1750 
Q 3497 2400 3300 2750 
Q 3138 3034 2969 3034 
z
M 3063 3525 
Q 3513 3525 3819 3113 
Q 4147 2672 3981 1750 
Q 3828 903 3291 400 
Q 2784 -75 2159 -75 
L 1916 -1331 
L 1344 -1331 
L 1588 -78 
Q 963 -78 641 400 
Q 309 888 475 1747 
Q 647 2641 1166 3097 
Q 1556 3438 2084 3525 
L 1984 3016 
Q 1766 2944 1538 2700 
Q 1194 2341 1081 1747 
Q 963 1116 1156 756 
Q 1334 434 1688 434 
L 2103 2581 
Q 2288 3525 3063 3525 
z
" transform="scale(0.015625)"/>
     </defs>
     <use xlink:href="#DejaVuSans-Oblique-75" transform="translate(0 0.578125)"/>
     <use xlink:href="#DejaVuSans-7c" transform="translate(63.378906 0.578125)"/>
     <use xlink:href="#DejaVuSans-Oblique-53" transform="translate(98.027344 -15.828125) scale(0.7)"/>
     <use xlink:href="#DejaVuSans-3d" transform="translate(164.677734 0.578125)"/>
     <use xlink:href="#DejaVuSans-Oblique-3c6" transform="translate(267.949219 0.578125)"/>
     <use xlink:href="#DejaVuSans-28" transform="translate(333.916016 0.578125)"/>
     <use xlink:href="#DejaVuSans-Bold-72" transform="translate(372.929688 0.578125)"/>
     <use xlink:href="#DejaVuSans-29" transform="translate(422.246094 0.578125)"/>
    </g>
   </g>
   <g id="patch_5">
    <path d="M 272.54244 181.8 
Q 316.170178 181.8 357.561847 181.8 
" style="fill: none; stroke: #000000; stroke-width: 2; stroke-linecap: round"/>
    <path d="M 353.561847 179.8 
L 357.561847 181.8 
L 353.561847 183.8 
" style="fill: none; stroke: #000000; stroke-width: 2; stroke-linecap: round"/>
   </g>
   <g id="text_3">
    <!-- Decompose -->
    <g transform="translate(283.697656 168.12) scale(0.11 -0.11)">
     <defs>
      <path id="DejaVuSans-44" d="M 1259 4147 
L 1259 519 
L 2022 519 
Q 2988 519 3436 956 
Q 3884 1394 3884 2338 
Q 3884 3275 3436 3711 
Q 2988 4147 2022 4147 
L 1259 4147 
z
M 628 4666 
L 1925 4666 
Q 3281 4666 3915 4102 
Q 4550 3538 4550 2338 
Q 4550 1131 3912 565 
Q 3275 0 1925 0 
L 628 0 
L 628 4666 
z
" transform="scale(0.015625)"/>
      <path id="DejaVuSans-65" d="M 3597 1894 
L 3597 1613 
L 953 1613 
Q 991 1019 1311 708 
Q 1631 397 2203 397 
Q 2534 397 2845 478 
Q 3156 559 3463 722 
L 3463 178 
Q 3153 47 2828 -22 
Q 2503 -91 2169 -91 
Q 1331 -91 842 396 
Q 353 884 353 1716 
Q 353 2575 817 3079 
Q 1281 3584 2069 3584 
Q 2775 3584 3186 3129 
Q 3597 2675 3597 1894 
z
M 3022 2063 
Q 3016 2534 2758 2815 
Q 2500 3097 2075 3097 
Q 1594 3097 1305 2825 
Q 1016 2553 972 2059 
L 3022 2063 
z
" transform="scale(0.015625)"/>
      <path id="DejaVuSans-63" d="M 3122 3366 
L 3122 2828 
Q 2878 2963 2633 3030 
Q 2388 3097 2138 3097 
Q 1578 3097 1268 2742 
Q 959 2388 959 1747 
Q 959 1106 1268 751 
Q 1578 397 2138 397 
Q 2388 397 2633 464 
Q 2878 531 3122 666 
L 3122 134 
Q 2881 22 2623 -34 
Q 2366 -91 2075 -91 
Q 1284 -91 818 406 
Q 353 903 353 1747 
Q 353 2603 823 3093 
Q 1294 3584 2113 3584 
Q 2378 3584 2631 3529 
Q 2884 3475 3122 3366 
z
" transform="scale(0.015625)"/>
      <path id="DejaVuSans-6f" d="M 1959 3097 
Q 1497 3097 1228 2736 
Q 959 2375 959 1747 
Q 959 1119 1226 758 
Q 1494 397 1959 397 
Q 2419 397 2687 759 
Q 2956 1122 2956 1747 
Q 2956 2369 2687 2733 
Q 2419 3097 1959 3097 
z
M 1959 3584 
Q 2709 3584 3137 3096 
Q 3566 2609 3566 1747 
Q 3566 888 3137 398 
Q 2709 -91 1959 -91 
Q 1206 -91 779 398 
Q 353 888 353 1747 
Q 353 2609 779 3096 
Q 1206 3584 1959 3584 
z
" transform="scale(0.015625)"/>
      <path id="DejaVuSans-6d" d="M 3328 2828 
Q 3544 3216 3844 3400 
Q 4144 3584 4550 3584 
Q 5097 3584 5394 3201 
Q 5691 2819 5691 2113 
L 5691 0 
L 5113 0 
L 5113 2094 
Q 5113 2597 4934 2840 
Q 4756 3084 4391 3084 
Q 3944 3084 3684 2787 
Q 3425 2491 3425 1978 
L 3425 0 
L 2847 0 
L 2847 2094 
Q 2847 2600 2669 2842 
Q 2491 3084 2119 3084 
Q 1678 3084 1418 2786 
Q 1159 2488 1159 1978 
L 1159 0 
L 581 0 
L 581 3500 
L 1159 3500 
L 1159 2956 
Q 1356 3278 1631 3431 
Q 1906 3584 2284 3584 
Q 2666 3584 2933 3390 
Q 3200 3197 3328 2828 
z
" transform="scale(0.015625)"/>
      <path id="DejaVuSans-70" d="M 1159 525 
L 1159 -1331 
L 581 -1331 
L 581 3500 
L 1159 3500 
L 1159 2969 
Q 1341 3281 1617 3432 
Q 1894 3584 2278 3584 
Q 2916 3584 3314 3078 
Q 3713 2572 3713 1747 
Q 3713 922 3314 415 
Q 2916 -91 2278 -91 
Q 1894 -91 1617 61 
Q 1341 213 1159 525 
z
M 3116 1747 
Q 3116 2381 2855 2742 
Q 2594 3103 2138 3103 
Q 1681 3103 1420 2742 
Q 1159 2381 1159 1747 
Q 1159 1113 1420 752 
Q 1681 391 2138 391 
Q 2594 391 2855 752 
Q 3116 1113 3116 1747 
z
" transform="scale(0.015625)"/>
      <path id="DejaVuSans-73" d="M 2834 3397 
L 2834 2853 
Q 2591 2978 2328 3040 
Q 2066 3103 1784 3103 
Q 1356 3103 1142 2972 
Q 928 2841 928 2578 
Q 928 2378 1081 2264 
Q 1234 2150 1697 2047 
L 1894 2003 
Q 2506 1872 2764 1633 
Q 3022 1394 3022 966 
Q 3022 478 2636 193 
Q 2250 -91 1575 -91 
Q 1294 -91 989 -36 
Q 684 19 347 128 
L 347 722 
Q 666 556 975 473 
Q 1284 391 1588 391 
Q 1994 391 2212 530 
Q 2431 669 2431 922 
Q 2431 1156 2273 1281 
Q 2116 1406 1581 1522 
L 1381 1569 
Q 847 1681 609 1914 
Q 372 2147 372 2553 
Q 372 3047 722 3315 
Q 1072 3584 1716 3584 
Q 2034 3584 2315 3537 
Q 2597 3491 2834 3397 
z
" transform="scale(0.015625)"/>
     </defs>
     <use xlink:href="#DejaVuSans-44"/>
     <use xlink:href="#DejaVuSans-65" transform="translate(77.001953 0)"/>
     <use xlink:href="#DejaVuSans-63" transform="translate(138.525391 0)"/>
     <use xlink:href="#DejaVuSans-6f" transform="translate(193.505859 0)"/>
     <use xlink:href="#DejaVuSans-6d" transform="translate(254.6875 0)"/>
     <use xlink:href="#DejaVuSans-70" transform="translate(352.099609 0)"/>
     <use xlink:href="#DejaVuSans-6f" transform="translate(415.576172 0)"/>
     <use xlink:href="#DejaVuSans-73" transform="translate(476.757812 0)"/>
     <use xlink:href="#DejaVuSans-65" transform="translate(528.857422 0)"/>
    </g>
   </g>
   <g id="text_4">
    <!-- Sub-problem 1 -->
    <g transform="translate(549.529063 62.608438) scale(0.14 -0.14)">
     <defs>
      <path id="DejaVuSans-Bold-53" d="M 3834 4519 
L 3834 3531 
Q 3450 3703 3084 3790 
Q 2719 3878 2394 3878 
Q 1963 3878 1756 3759 
Q 1550 3641 1550 3391 
Q 1550 3203 1689 3098 
Q 1828 2994 2194 2919 
L 2706 2816 
Q 3484 2659 3812 2340 
Q 4141 2022 4141 1434 
Q 4141 663 3683 286 
Q 3225 -91 2284 -91 
Q 1841 -91 1394 -6 
Q 947 78 500 244 
L 500 1259 
Q 947 1022 1364 901 
Q 1781 781 2169 781 
Q 2563 781 2772 912 
Q 2981 1044 2981 1288 
Q 2981 1506 2839 1625 
Q 2697 1744 2272 1838 
L 1806 1941 
Q 1106 2091 782 2419 
Q 459 2747 459 3303 
Q 459 4000 909 4375 
Q 1359 4750 2203 4750 
Q 2588 4750 2994 4692 
Q 3400 4634 3834 4519 
z
" transform="scale(0.015625)"/>
      <path id="DejaVuSans-Bold-75" d="M 500 1363 
L 500 3500 
L 1625 3500 
L 1625 3150 
Q 1625 2866 1622 2436 
Q 1619 2006 1619 1863 
Q 1619 1441 1641 1255 
Q 1663 1069 1716 984 
Q 1784 875 1895 815 
Q 2006 756 2150 756 
Q 2500 756 2700 1025 
Q 2900 1294 2900 1772 
L 2900 3500 
L 4019 3500 
L 4019 0 
L 2900 0 
L 2900 506 
Q 2647 200 2364 54 
Q 2081 -91 1741 -91 
Q 1134 -91 817 281 
Q 500 653 500 1363 
z
" transform="scale(0.015625)"/>
      <path id="DejaVuSans-Bold-2d" d="M 347 2297 
L 2309 2297 
L 2309 1388 
L 347 1388 
L 347 2297 
z
" transform="scale(0.015625)"/>
      <path id="DejaVuSans-Bold-70" d="M 1656 506 
L 1656 -1331 
L 538 -1331 
L 538 3500 
L 1656 3500 
L 1656 2988 
Q 1888 3294 2169 3439 
Q 2450 3584 2816 3584 
Q 3463 3584 3878 3070 
Q 4294 2556 4294 1747 
Q 4294 938 3878 423 
Q 3463 -91 2816 -91 
Q 2450 -91 2169 54 
Q 1888 200 1656 506 
z
M 2400 2772 
Q 2041 2772 1848 2508 
Q 1656 2244 1656 1747 
Q 1656 1250 1848 986 
Q 2041 722 2400 722 
Q 2759 722 2948 984 
Q 3138 1247 3138 1747 
Q 3138 2247 2948 2509 
Q 2759 2772 2400 2772 
z
" transform="scale(0.015625)"/>
      <path id="DejaVuSans-Bold-31" d="M 750 831 
L 1813 831 
L 1813 3847 
L 722 3622 
L 722 4441 
L 1806 4666 
L 2950 4666 
L 2950 831 
L 4013 831 
L 4013 0 
L 750 0 
L 750 831 
z
" transform="scale(0.015625)"/>
     </defs>
     <use xlink:href="#DejaVuSans-Bold-53"/>
     <use xlink:href="#DejaVuSans-Bold-75" transform="translate(72.021484 0)"/>
     <use xlink:href="#DejaVuSans-Bold-62" transform="translate(143.212891 0)"/>
     <use xlink:href="#DejaVuSans-Bold-2d" transform="translate(214.794922 0)"/>
     <use xlink:href="#DejaVuSans-Bold-70" transform="translate(256.298828 0)"/>
     <use xlink:href="#DejaVuSans-Bold-72" transform="translate(327.880859 0)"/>
     <use xlink:href="#DejaVuSans-Bold-6f" transform="translate(377.197266 0)"/>
     <use xlink:href="#DejaVuSans-Bold-62" transform="translate(445.898438 0)"/>
     <use xlink:href="#DejaVuSans-Bold-6c" transform="translate(517.480469 0)"/>
     <use xlink:href="#DejaVuSans-Bold-65" transform="translate(551.757812 0)"/>
     <use xlink:href="#DejaVuSans-Bold-6d" transform="translate(619.580078 0)"/>
     <use xlink:href="#DejaVuSans-Bold-20" transform="translate(723.779297 0)"/>
     <use xlink:href="#DejaVuSans-Bold-31" transform="translate(758.59375 0)"/>
    </g>
   </g>
   <g id="text_5">
    <!-- $-\nabla^2 u_1 = f(\mathbf{r})$ -->
    <g transform="translate(571.8 127.500375) scale(0.12 -0.12)">
     <defs>
      <path id="DejaVuSans-31" d="M 794 531 
L 1825 531 
L 1825 4091 
L 703 3866 
L 703 4441 
L 1819 4666 
L 2450 4666 
L 2450 531 
L 3481 531 
L 3481 0 
L 794 0 
L 794 531 
z
" transform="scale(0.015625)"/>
     </defs>
     <use xlink:href="#DejaVuSans-2212" transform="translate(0 0.765625)"/>
     <use xlink:href="#DejaVuSans-2207" transform="translate(83.789062 0.765625)"/>
     <use xlink:href="#DejaVuSans-32" transform="translate(151.640625 39.046875) scale(0.7)"/>
     <use xlink:href="#DejaVuSans-Oblique-75" transform="translate(198.911133 0.765625)"/>
     <use xlink:href="#DejaVuSans-31" transform="translate(262.290039 -15.640625) scale(0.7)"/>
     <use xlink:href="#DejaVuSans-3d" transform="translate(329.042969 0.765625)"/>
     <use xlink:href="#DejaVuSans-Oblique-66" transform="translate(432.314453 0.765625)"/>
     <use xlink:href="#DejaVuSans-28" transform="translate(467.519531 0.765625)"/>
     <use xlink:href="#DejaVuSans-Bold-72" transform="translate(506.533203 0.765625)"/>
     <use xlink:href="#DejaVuSans-29" transform="translate(555.849609 0.765625)"/>
    </g>
    <!-- $u_1|_S = 0$ -->
    <g transform="translate(584.76 141.084) scale(0.12 -0.12)">
     <defs>
      <path id="DejaVuSans-30" d="M 2034 4250 
Q 1547 4250 1301 3770 
Q 1056 3291 1056 2328 
Q 1056 1369 1301 889 
Q 1547 409 2034 409 
Q 2525 409 2770 889 
Q 3016 1369 3016 2328 
Q 3016 3291 2770 3770 
Q 2525 4250 2034 4250 
z
M 2034 4750 
Q 2819 4750 3233 4129 
Q 3647 3509 3647 2328 
Q 3647 1150 3233 529 
Q 2819 -91 2034 -91 
Q 1250 -91 836 529 
Q 422 1150 422 2328 
Q 422 3509 836 4129 
Q 1250 4750 2034 4750 
z
" transform="scale(0.015625)"/>
     </defs>
     <use xlink:href="#DejaVuSans-Oblique-75" transform="translate(0 0.578125)"/>
     <use xlink:href="#DejaVuSans-31" transform="translate(63.378906 -15.828125) scale(0.7)"/>
     <use xlink:href="#DejaVuSans-7c" transform="translate(110.649414 0.578125)"/>
     <use xlink:href="#DejaVuSans-Oblique-53" transform="translate(145.297852 -15.828125) scale(0.7)"/>
     <use xlink:href="#DejaVuSans-3d" transform="translate(211.948242 0.578125)"/>
     <use xlink:href="#DejaVuSans-30" transform="translate(315.219727 0.578125)"/>
    </g>
   </g>
   <g id="text_6">
    <!-- Sub-problem 2 -->
    <g transform="translate(549.529063 233.608438) scale(0.14 -0.14)">
     <defs>
      <path id="DejaVuSans-Bold-32" d="M 1844 884 
L 3897 884 
L 3897 0 
L 506 0 
L 506 884 
L 2209 2388 
Q 2438 2594 2547 2791 
Q 2656 2988 2656 3200 
Q 2656 3528 2436 3728 
Q 2216 3928 1850 3928 
Q 1569 3928 1234 3808 
Q 900 3688 519 3450 
L 519 4475 
Q 925 4609 1322 4679 
Q 1719 4750 2100 4750 
Q 2938 4750 3402 4381 
Q 3866 4013 3866 3353 
Q 3866 2972 3669 2642 
Q 3472 2313 2841 1759 
L 1844 884 
z
" transform="scale(0.015625)"/>
     </defs>
     <use xlink:href="#DejaVuSans-Bold-53"/>
     <use xlink:href="#DejaVuSans-Bold-75" transform="translate(72.021484 0)"/>
     <use xlink:href="#DejaVuSans-Bold-62" transform="translate(143.212891 0)"/>
     <use xlink:href="#DejaVuSans-Bold-2d" transform="translate(214.794922 0)"/>
     <use xlink:href="#DejaVuSans-Bold-70" transform="translate(256.298828 0)"/>
     <use xlink:href="#DejaVuSans-Bold-72" transform="translate(327.880859 0)"/>
     <use xlink:href="#DejaVuSans-Bold-6f" transform="translate(377.197266 0)"/>
     <use xlink:href="#DejaVuSans-Bold-62" transform="translate(445.898438 0)"/>
     <use xlink:href="#DejaVuSans-Bold-6c" transform="translate(517.480469 0)"/>
     <use xlink:href="#DejaVuSans-Bold-65" transform="translate(551.757812 0)"/>
     <use xlink:href="#DejaVuSans-Bold-6d" transform="translate(619.580078 0)"/>
     <use xlink:href="#DejaVuSans-Bold-20" transform="translate(723.779297 0)"/>
     <use xlink:href="#DejaVuSans-Bold-32" transform="translate(758.59375 0)"/>
    </g>
   </g>
   <g id="text_7">
    <!-- $-\nabla^2 u_2 = 0$ -->
    <g transform="translate(577.74 298.500375) scale(0.12 -0.12)">
     <use xlink:href="#DejaVuSans-2212" transform="translate(0 0.765625)"/>
     <use xlink:href="#DejaVuSans-2207" transform="translate(83.789062 0.765625)"/>
     <use xlink:href="#DejaVuSans-32" transform="translate(151.640625 39.046875) scale(0.7)"/>
     <use xlink:href="#DejaVuSans-Oblique-75" transform="translate(198.911133 0.765625)"/>
     <use xlink:href="#DejaVuSans-32" transform="translate(262.290039 -15.640625) scale(0.7)"/>
     <use xlink:href="#DejaVuSans-3d" transform="translate(329.042969 0.765625)"/>
     <use xlink:href="#DejaVuSans-30" transform="translate(432.314453 0.765625)"/>
    </g>
    <!-- $u_2|_S = \varphi(\mathbf{r})$ -->
    <g transform="translate(576.96 312.084) scale(0.12 -0.12)">
     <use xlink:href="#DejaVuSans-Oblique-75" transform="translate(0 0.578125)"/>
     <use xlink:href="#DejaVuSans-32" transform="translate(63.378906 -15.828125) scale(0.7)"/>
     <use xlink:href="#DejaVuSans-7c" transform="translate(110.649414 0.578125)"/>
     <use xlink:href="#DejaVuSans-Oblique-53" transform="translate(145.297852 -15.828125) scale(0.7)"/>
     <use xlink:href="#DejaVuSans-3d" transform="translate(211.948242 0.578125)"/>
     <use xlink:href="#DejaVuSans-Oblique-3c6" transform="translate(315.219727 0.578125)"/>
     <use xlink:href="#DejaVuSans-28" transform="translate(381.186523 0.578125)"/>
     <use xlink:href="#DejaVuSans-Bold-72" transform="translate(420.200195 0.578125)"/>
     <use xlink:href="#DejaVuSans-29" transform="translate(469.516602 0.578125)"/>
    </g>
   </g>
   <g id="patch_6">
    <path d="M 363.795566 181.8517 
Q 442.006164 183.541074 499.446276 132.937478 
" style="fill: none; stroke: #000000; stroke-width: 1.5; stroke-linecap: round"/>
    <path d="M 495.122797 134.08095 
L 499.446276 132.937478 
L 497.766966 137.082344 
" style="fill: none; stroke: #000000; stroke-width: 1.5; stroke-linecap: round"/>
   </g>
   <g id="patch_7">
    <path d="M 363.694133 182.446581 
Q 455.46299 214.131079 500.471853 298.25521 
" style="fill: none; stroke: #000000; stroke-width: 1.5; stroke-linecap: round"/>
    <path d="M 500.348307 293.784781 
L 500.471853 298.25521 
L 496.821382 295.671788 
" style="fill: none; stroke: #000000; stroke-width: 1.5; stroke-linecap: round"/>
   </g>
   <g id="text_8">
    <g id="patch_8">
     <path d="M 349.62 399.5425 
L 444.18 399.5425 
L 444.18 374.4575 
L 349.62 374.4575 
z
" style="fill: #ffffff"/>
    </g>
    <!-- $u = u_1 + u_2$ -->
    <g transform="translate(354.42 391.415) scale(0.16 -0.16)">
     <defs>
      <path id="DejaVuSans-2b" d="M 2944 4013 
L 2944 2272 
L 4684 2272 
L 4684 1741 
L 2944 1741 
L 2944 0 
L 2419 0 
L 2419 1741 
L 678 1741 
L 678 2272 
L 2419 2272 
L 2419 4013 
L 2944 4013 
z
" transform="scale(0.015625)"/>
     </defs>
     <use xlink:href="#DejaVuSans-Oblique-75" transform="translate(0 0.296875)"/>
     <use xlink:href="#DejaVuSans-3d" transform="translate(82.861328 0.296875)"/>
     <use xlink:href="#DejaVuSans-Oblique-75" transform="translate(186.132812 0.296875)"/>
     <use xlink:href="#DejaVuSans-31" transform="translate(249.511719 -16.109375) scale(0.7)"/>
     <use xlink:href="#DejaVuSans-2b" transform="translate(316.264648 0.296875)"/>
     <use xlink:href="#DejaVuSans-Oblique-75" transform="translate(419.536133 0.296875)"/>
     <use xlink:href="#DejaVuSans-32" transform="translate(482.915039 -16.109375) scale(0.7)"/>
    </g>
   </g>
  </g>
 </g>
 <defs>
  <clipPath id="p8d70657eee">
   <rect x="10.8" y="10.8" width="842.4" height="410.4"/>
  </clipPath>
 </defs>
</svg>
