<?xml version="1.0" encoding="utf-8" standalone="no"?>
<!DOCTYPE svg PUBLIC "-//W3C//DTD SVG 1.1//EN"
  "http://www.w3.org/Graphics/SVG/1.1/DTD/svg11.dtd">
<svg xmlns:xlink="http://www.w3.org/1999/xlink" width="720pt" height="360pt" viewBox="0 0 720 360" xmlns="http://www.w3.org/2000/svg" version="1.1">
 <metadata>
  <rdf:RDF xmlns:dc="http://purl.org/dc/elements/1.1/" xmlns:cc="http://creativecommons.org/ns#" xmlns:rdf="http://www.w3.org/1999/02/22-rdf-syntax-ns#">
   <cc:Work>
    <dc:type rdf:resource="http://purl.org/dc/dcmitype/StillImage"/>
    <dc:date>2025-12-15T07:30:22.880675</dc:date>
    <dc:format>image/svg+xml</dc:format>
    <dc:creator>
     <cc:Agent>
      <dc:title>Matplotlib v3.10.6, https://matplotlib.org/</dc:title>
     </cc:Agent>
    </dc:creator>
   </cc:Work>
  </rdf:RDF>
 </metadata>
 <defs>
  <style type="text/css">*{stroke-linejoin: round; stroke-linecap: butt}</style>
 </defs>
 <g id="figure_1">
  <g id="patch_1">
   <path d="M 0 360 
L 720 360 
L 720 0 
L 0 0 
z
" style="fill: #ffffff"/>
  </g>
  <g id="axes_1">
   <g id="patch_2">
    <path d="M 339.048 180 
L 341.999863 170.355586 
L 342.838194 160.529274 
L 341.634421 150.819574 
L 338.61265 141.47629 
L 334.110242 132.669398 
L 328.5266 124.472895 
L 322.267627 116.865651 
L 315.693698 109.748599 
L 309.078184 102.975099 
L 302.581873 96.389244 
L 296.246124 89.865686 
L 290.004809 83.344273 
L 283.71229 76.8536 
L 277.182399 70.519231 
L 270.231864 64.554739 
L 262.721095 59.236317 
L 254.585798 54.864347 
L 245.85442 51.71741 
L 236.648699 50.005551 
L 227.167258 49.829973 
L 217.654882 51.15562 
L 208.362392 53.801419 
L 199.503566 57.450547 
L 191.216144 61.68027 
L 183.533452 66.00808 
L 176.371676 69.948459 
L 169.535554 73.072918 
L 162.742506 75.065344 
L 155.662412 75.765079 
L 147.96781 75.191735 
L 139.387561 73.548027 
L 129.756253 71.199885 
L 119.052 68.636061 
L 107.416667 66.41225 
L 95.154915 65.086786 
L 82.711273 65.156122 
L 70.627516 66.9983 
L 59.485392 70.831528 
L 49.841851 76.692927 
L 42.165096 84.439774 
L 36.779816 93.772564 
L 33.828797 104.276327 
L 33.256061 115.474257 
L 34.813805 126.886228 
L 38.092295 138.084291 
L 42.568846 148.737888 
L 47.669495 158.643162 
L 52.835386 167.733111 
L 57.585314 176.068146 
L 61.566537 183.809383 
L 64.58765 191.179392 
L 66.629827 198.416801 
L 67.835729 205.731833 
L 68.478411 213.269484 
L 68.915183 221.085759 
L 69.533328 229.140197 
L 70.695449 237.30541 
L 72.69203 245.391651 
L 75.707506 253.182159 
L 79.804009 260.473308 
L 84.924242 267.112887 
L 90.912115 273.030065 
L 97.547151 278.251893 
L 104.586767 282.903203 
L 111.809466 287.189356 
L 119.052 291.363939 
L 126.234635 295.685929 
L 133.370566 300.372576 
L 140.558081 305.555137 
L 147.95677 311.244408 
L 155.751637 317.311778 
L 164.110908 323.489439 
L 173.144396 329.390745 
L 182.869358 334.548819 
L 193.189722 338.468872 
L 203.892682 340.6876 
L 214.664072 340.831867 
L 225.121115 338.668771 
L 234.858486 334.140174 
L 243.501459 327.376757 
L 250.758694 318.689321 
L 256.466961 308.538094 
L 260.621036 297.483713 
L 263.383874 286.126027 
L 265.074826 275.038497 
L 266.136634 264.706532 
L 267.084926 255.477562 
L 268.446426 247.529043 
L 270.693722 240.858156 
L 274.18511 235.294023 
L 279.117389 230.530286 
L 285.497938 226.173213 
L 293.139796 221.798513 
L 301.680524 217.009066 
L 310.622409 211.485858 
L 319.388814 205.02554 
L 327.389348 197.560133 
L 334.085445 189.156994 
L 339.048 180 
z
" clip-path="url(#pf85b09c380)" style="fill: #0000ff; opacity: 0.1; stroke: #000000; stroke-linejoin: miter"/>
   </g>
   <g id="patch_3">
    <path d="M 688.248 180 
L 691.199863 170.355586 
L 692.038194 160.529274 
L 690.834421 150.819574 
L 687.81265 141.47629 
L 683.310242 132.669398 
L 677.7266 124.472895 
L 671.467627 116.865651 
L 664.893698 109.748599 
L 658.278184 102.975099 
L 651.781873 96.389244 
L 645.446124 89.865686 
L 639.204809 83.344273 
L 632.91229 76.8536 
L 626.382399 70.519231 
L 619.431864 64.554739 
L 611.921095 59.236317 
L 603.785798 54.864347 
L 595.05442 51.71741 
L 585.848699 50.005551 
L 576.367258 49.829973 
L 566.854882 51.15562 
L 557.562392 53.801419 
L 548.703566 57.450547 
L 540.416144 61.68027 
L 532.733452 66.00808 
L 525.571676 69.948459 
L 518.735554 73.072918 
L 511.942506 75.065344 
L 504.862412 75.765079 
L 497.16781 75.191735 
L 488.587561 73.548027 
L 478.956253 71.199885 
L 468.252 68.636061 
L 456.616667 66.41225 
L 444.354915 65.086786 
L 431.911273 65.156122 
L 419.827516 66.9983 
L 408.685392 70.831528 
L 399.041851 76.692927 
L 391.365096 84.439774 
L 385.979816 93.772564 
L 383.028797 104.276327 
L 382.456061 115.474257 
L 384.013805 126.886228 
L 387.292295 138.084291 
L 391.768846 148.737888 
L 396.869495 158.643162 
L 402.035386 167.733111 
L 406.785314 176.068146 
L 410.766537 183.809383 
L 413.78765 191.179392 
L 415.829827 198.416801 
L 417.035729 205.731833 
L 417.678411 213.269484 
L 418.115183 221.085759 
L 418.733328 229.140197 
L 419.895449 237.30541 
L 421.89203 245.391651 
L 424.907506 253.182159 
L 429.004009 260.473308 
L 434.124242 267.112887 
L 440.112115 273.030065 
L 446.747151 278.251893 
L 453.786767 282.903203 
L 461.009466 287.189356 
L 468.252 291.363939 
L 475.434635 295.685929 
L 482.570566 300.372576 
L 489.758081 305.555137 
L 497.15677 311.244408 
L 504.951637 317.311778 
L 513.310908 323.489439 
L 522.344396 329.390745 
L 532.069358 334.548819 
L 542.389722 338.468872 
L 553.092682 340.6876 
L 563.864072 340.831867 
L 574.321115 338.668771 
L 584.058486 334.140174 
L 592.701459 327.376757 
L 599.958694 318.689321 
L 605.666961 308.538094 
L 609.821036 297.483713 
L 612.583874 286.126027 
L 614.274826 275.038497 
L 615.336634 264.706532 
L 616.284926 255.477562 
L 617.646426 247.529043 
L 619.893722 240.858156 
L 623.38511 235.294023 
L 628.317389 230.530286 
L 634.697938 226.173213 
L 642.339796 221.798513 
L 650.880524 217.009066 
L 659.822409 211.485858 
L 668.588814 205.02554 
L 676.589348 197.560133 
L 683.285445 189.156994 
L 688.248 180 
z
" clip-path="url(#pf85b09c380)" style="fill: #0000ff; opacity: 0.1; stroke: #000000; stroke-linejoin: miter"/>
   </g>
   <g id="line2d_1">
    <defs>
     <path id="m900c557ad0" d="M 0 3 
C 0.795609 3 1.55874 2.683901 2.12132 2.12132 
C 2.683901 1.55874 3 0.795609 3 0 
C 3 -0.795609 2.683901 -1.55874 2.12132 -2.12132 
C 1.55874 -2.683901 0.795609 -3 0 -3 
C -0.795609 -3 -1.55874 -2.683901 -2.12132 -2.12132 
C -2.683901 -1.55874 -3 -0.795609 -3 0 
C -3 0.795609 -2.683901 1.55874 -2.12132 2.12132 
C -1.55874 2.683901 -0.795609 3 0 3 
z
" style="stroke: #ff0000"/>
    </defs>
    <g clip-path="url(#pf85b09c380)">
     <use xlink:href="#m900c557ad0" x="150.48" y="180" style="fill: #ff0000; stroke: #ff0000"/>
    </g>
   </g>
   <g id="line2d_2">
    <defs>
     <path id="m562bafd92f" d="M 0 3 
C 0.795609 3 1.55874 2.683901 2.12132 2.12132 
C 2.683901 1.55874 3 0.795609 3 0 
C 3 -0.795609 2.683901 -1.55874 2.12132 -2.12132 
C 1.55874 -2.683901 0.795609 -3 0 -3 
C -0.795609 -3 -1.55874 -2.683901 -2.12132 -2.12132 
C -2.683901 -1.55874 -3 -0.795609 -3 0 
C -3 0.795609 -2.683901 1.55874 -2.12132 2.12132 
C -1.55874 2.683901 -0.795609 3 0 3 
z
" style="stroke: #800080"/>
    </defs>
    <g clip-path="url(#pf85b09c380)">
     <use xlink:href="#m562bafd92f" x="220.32" y="180" style="fill: #800080; stroke: #800080"/>
    </g>
   </g>
   <g id="line2d_3">
    <g clip-path="url(#pf85b09c380)">
     <use xlink:href="#m900c557ad0" x="499.68" y="180" style="fill: #ff0000; stroke: #ff0000"/>
    </g>
   </g>
   <g id="line2d_4">
    <g clip-path="url(#pf85b09c380)">
     <use xlink:href="#m562bafd92f" x="569.52" y="180" style="fill: #800080; stroke: #800080"/>
    </g>
   </g>
   <g id="line2d_5">
    <defs>
     <path id="m8e9140e3d1" d="M 0 -7.5 
L -1.683855 -2.317627 
L -7.132924 -2.317627 
L -2.724534 0.885255 
L -4.408389 6.067627 
L -0 2.864745 
L 4.408389 6.067627 
L 2.724534 0.885255 
L 7.132924 -2.317627 
L 1.683855 -2.317627 
z
" style="stroke: #000000; stroke-linejoin: bevel"/>
    </defs>
    <g clip-path="url(#pf85b09c380)">
     <use xlink:href="#m8e9140e3d1" x="220.32" y="180" style="fill: #ffd700; stroke: #000000; stroke-linejoin: bevel"/>
    </g>
   </g>
   <g id="line2d_6">
    <g clip-path="url(#pf85b09c380)">
     <use xlink:href="#m8e9140e3d1" x="499.68" y="180" style="fill: #ffd700; stroke: #000000; stroke-linejoin: bevel"/>
    </g>
   </g>
   <g id="text_1">
    <!-- Scenario A -->
    <g transform="translate(147.955469 44.64) scale(0.14 -0.14)">
     <defs>
      <path id="DejaVuSans-53" d="M 3425 4513 
L 3425 3897 
Q 3066 4069 2747 4153 
Q 2428 4238 2131 4238 
Q 1616 4238 1336 4038 
Q 1056 3838 1056 3469 
Q 1056 3159 1242 3001 
Q 1428 2844 1947 2747 
L 2328 2669 
Q 3034 2534 3370 2195 
Q 3706 1856 3706 1288 
Q 3706 609 3251 259 
Q 2797 -91 1919 -91 
Q 1588 -91 1214 -16 
Q 841 59 441 206 
L 441 856 
Q 825 641 1194 531 
Q 1563 422 1919 422 
Q 2459 422 2753 634 
Q 3047 847 3047 1241 
Q 3047 1584 2836 1778 
Q 2625 1972 2144 2069 
L 1759 2144 
Q 1053 2284 737 2584 
Q 422 2884 422 3419 
Q 422 4038 858 4394 
Q 1294 4750 2059 4750 
Q 2388 4750 2728 4690 
Q 3069 4631 3425 4513 
z
" transform="scale(0.015625)"/>
      <path id="DejaVuSans-63" d="M 3122 3366 
L 3122 2828 
Q 2878 2963 2633 3030 
Q 2388 3097 2138 3097 
Q 1578 3097 1268 2742 
Q 959 2388 959 1747 
Q 959 1106 1268 751 
Q 1578 397 2138 397 
Q 2388 397 2633 464 
Q 2878 531 3122 666 
L 3122 134 
Q 2881 22 2623 -34 
Q 2366 -91 2075 -91 
Q 1284 -91 818 406 
Q 353 903 353 1747 
Q 353 2603 823 3093 
Q 1294 3584 2113 3584 
Q 2378 3584 2631 3529 
Q 2884 3475 3122 3366 
z
" transform="scale(0.015625)"/>
      <path id="DejaVuSans-65" d="M 3597 1894 
L 3597 1613 
L 953 1613 
Q 991 1019 1311 708 
Q 1631 397 2203 397 
Q 2534 397 2845 478 
Q 3156 559 3463 722 
L 3463 178 
Q 3153 47 2828 -22 
Q 2503 -91 2169 -91 
Q 1331 -91 842 396 
Q 353 884 353 1716 
Q 353 2575 817 3079 
Q 1281 3584 2069 3584 
Q 2775 3584 3186 3129 
Q 3597 2675 3597 1894 
z
M 3022 2063 
Q 3016 2534 2758 2815 
Q 2500 3097 2075 3097 
Q 1594 3097 1305 2825 
Q 1016 2553 972 2059 
L 3022 2063 
z
" transform="scale(0.015625)"/>
      <path id="DejaVuSans-6e" d="M 3513 2113 
L 3513 0 
L 2938 0 
L 2938 2094 
Q 2938 2591 2744 2837 
Q 2550 3084 2163 3084 
Q 1697 3084 1428 2787 
Q 1159 2491 1159 1978 
L 1159 0 
L 581 0 
L 581 3500 
L 1159 3500 
L 1159 2956 
Q 1366 3272 1645 3428 
Q 1925 3584 2291 3584 
Q 2894 3584 3203 3211 
Q 3513 2838 3513 2113 
z
" transform="scale(0.015625)"/>
      <path id="DejaVuSans-61" d="M 2194 1759 
Q 1497 1759 1228 1600 
Q 959 1441 959 1056 
Q 959 750 1161 570 
Q 1363 391 1709 391 
Q 2188 391 2477 730 
Q 2766 1069 2766 1631 
L 2766 1759 
L 2194 1759 
z
M 3341 1997 
L 3341 0 
L 2766 0 
L 2766 531 
Q 2569 213 2275 61 
Q 1981 -91 1556 -91 
Q 1019 -91 701 211 
Q 384 513 384 1019 
Q 384 1609 779 1909 
Q 1175 2209 1959 2209 
L 2766 2209 
L 2766 2266 
Q 2766 2663 2505 2880 
Q 2244 3097 1772 3097 
Q 1472 3097 1187 3025 
Q 903 2953 641 2809 
L 641 3341 
Q 956 3463 1253 3523 
Q 1550 3584 1831 3584 
Q 2591 3584 2966 3190 
Q 3341 2797 3341 1997 
z
" transform="scale(0.015625)"/>
      <path id="DejaVuSans-72" d="M 2631 2963 
Q 2534 3019 2420 3045 
Q 2306 3072 2169 3072 
Q 1681 3072 1420 2755 
Q 1159 2438 1159 1844 
L 1159 0 
L 581 0 
L 581 3500 
L 1159 3500 
L 1159 2956 
Q 1341 3275 1631 3429 
Q 1922 3584 2338 3584 
Q 2397 3584 2469 3576 
Q 2541 3569 2628 3553 
L 2631 2963 
z
" transform="scale(0.015625)"/>
      <path id="DejaVuSans-69" d="M 603 3500 
L 1178 3500 
L 1178 0 
L 603 0 
L 603 3500 
z
M 603 4863 
L 1178 4863 
L 1178 4134 
L 603 4134 
L 603 4863 
z
" transform="scale(0.015625)"/>
      <path id="DejaVuSans-6f" d="M 1959 3097 
Q 1497 3097 1228 2736 
Q 959 2375 959 1747 
Q 959 1119 1226 758 
Q 1494 397 1959 397 
Q 2419 397 2687 759 
Q 2956 1122 2956 1747 
Q 2956 2369 2687 2733 
Q 2419 3097 1959 3097 
z
M 1959 3584 
Q 2709 3584 3137 3096 
Q 3566 2609 3566 1747 
Q 3566 888 3137 398 
Q 2709 -91 1959 -91 
Q 1206 -91 779 398 
Q 353 888 353 1747 
Q 353 2609 779 3096 
Q 1206 3584 1959 3584 
z
" transform="scale(0.015625)"/>
      <path id="DejaVuSans-20" transform="scale(0.015625)"/>
      <path id="DejaVuSans-41" d="M 2188 4044 
L 1331 1722 
L 3047 1722 
L 2188 4044 
z
M 1831 4666 
L 2547 4666 
L 4325 0 
L 3669 0 
L 3244 1197 
L 1141 1197 
L 716 0 
L 50 0 
L 1831 4666 
z
" transform="scale(0.015625)"/>
     </defs>
     <use xlink:href="#DejaVuSans-53"/>
     <use xlink:href="#DejaVuSans-63" transform="translate(63.476562 0)"/>
     <use xlink:href="#DejaVuSans-65" transform="translate(118.457031 0)"/>
     <use xlink:href="#DejaVuSans-6e" transform="translate(179.980469 0)"/>
     <use xlink:href="#DejaVuSans-61" transform="translate(243.359375 0)"/>
     <use xlink:href="#DejaVuSans-72" transform="translate(304.638672 0)"/>
     <use xlink:href="#DejaVuSans-69" transform="translate(345.751953 0)"/>
     <use xlink:href="#DejaVuSans-6f" transform="translate(373.535156 0)"/>
     <use xlink:href="#DejaVuSans-20" transform="translate(434.716797 0)"/>
     <use xlink:href="#DejaVuSans-41" transform="translate(466.503906 0)"/>
    </g>
   </g>
   <g id="text_2">
    <!-- Scenario B -->
    <g transform="translate(497.14125 44.64) scale(0.14 -0.14)">
     <defs>
      <path id="DejaVuSans-42" d="M 1259 2228 
L 1259 519 
L 2272 519 
Q 2781 519 3026 730 
Q 3272 941 3272 1375 
Q 3272 1813 3026 2020 
Q 2781 2228 2272 2228 
L 1259 2228 
z
M 1259 4147 
L 1259 2741 
L 2194 2741 
Q 2656 2741 2882 2914 
Q 3109 3088 3109 3444 
Q 3109 3797 2882 3972 
Q 2656 4147 2194 4147 
L 1259 4147 
z
M 628 4666 
L 2241 4666 
Q 2963 4666 3353 4366 
Q 3744 4066 3744 3513 
Q 3744 3084 3544 2831 
Q 3344 2578 2956 2516 
Q 3422 2416 3680 2098 
Q 3938 1781 3938 1306 
Q 3938 681 3513 340 
Q 3088 0 2303 0 
L 628 0 
L 628 4666 
z
" transform="scale(0.015625)"/>
     </defs>
     <use xlink:href="#DejaVuSans-53"/>
     <use xlink:href="#DejaVuSans-63" transform="translate(63.476562 0)"/>
     <use xlink:href="#DejaVuSans-65" transform="translate(118.457031 0)"/>
     <use xlink:href="#DejaVuSans-6e" transform="translate(179.980469 0)"/>
     <use xlink:href="#DejaVuSans-61" transform="translate(243.359375 0)"/>
     <use xlink:href="#DejaVuSans-72" transform="translate(304.638672 0)"/>
     <use xlink:href="#DejaVuSans-69" transform="translate(345.751953 0)"/>
     <use xlink:href="#DejaVuSans-6f" transform="translate(373.535156 0)"/>
     <use xlink:href="#DejaVuSans-20" transform="translate(434.716797 0)"/>
     <use xlink:href="#DejaVuSans-42" transform="translate(466.503906 0)"/>
    </g>
   </g>
   <g id="text_3">
    <!-- $\mathbf{r}$ -->
    <g transform="translate(131.512 180) scale(0.1 -0.1)">
     <defs>
      <path id="DejaVuSans-Bold-72" d="M 3138 2547 
Q 2991 2616 2845 2648 
Q 2700 2681 2553 2681 
Q 2122 2681 1889 2404 
Q 1656 2128 1656 1613 
L 1656 0 
L 538 0 
L 538 3500 
L 1656 3500 
L 1656 2925 
Q 1872 3269 2151 3426 
Q 2431 3584 2822 3584 
Q 2878 3584 2943 3579 
Q 3009 3575 3134 3559 
L 3138 2547 
z
" transform="scale(0.015625)"/>
     </defs>
     <use xlink:href="#DejaVuSans-Bold-72"/>
    </g>
   </g>
   <g id="text_4">
    <!-- $\mathbf{r}_0$ -->
    <g transform="translate(234.288 180) scale(0.1 -0.1)">
     <defs>
      <path id="DejaVuSans-30" d="M 2034 4250 
Q 1547 4250 1301 3770 
Q 1056 3291 1056 2328 
Q 1056 1369 1301 889 
Q 1547 409 2034 409 
Q 2525 409 2770 889 
Q 3016 1369 3016 2328 
Q 3016 3291 2770 3770 
Q 2525 4250 2034 4250 
z
M 2034 4750 
Q 2819 4750 3233 4129 
Q 3647 3509 3647 2328 
Q 3647 1150 3233 529 
Q 2819 -91 2034 -91 
Q 1250 -91 836 529 
Q 422 1150 422 2328 
Q 422 3509 836 4129 
Q 1250 4750 2034 4750 
z
" transform="scale(0.015625)"/>
     </defs>
     <use xlink:href="#DejaVuSans-Bold-72"/>
     <use xlink:href="#DejaVuSans-30" transform="translate(50.273438 -16.40625) scale(0.7)"/>
    </g>
   </g>
   <g id="text_5">
    <!-- $\mathbf{r}$ -->
    <g transform="translate(480.712 180) scale(0.1 -0.1)">
     <use xlink:href="#DejaVuSans-Bold-72"/>
    </g>
   </g>
   <g id="text_6">
    <!-- $\mathbf{r}_0$ -->
    <g transform="translate(583.488 180) scale(0.1 -0.1)">
     <use xlink:href="#DejaVuSans-Bold-72"/>
     <use xlink:href="#DejaVuSans-30" transform="translate(50.273438 -16.40625) scale(0.7)"/>
    </g>
   </g>
   <g id="patch_4">
    <path d="M 218.320796 180 
Q 185.400371 180 154.716013 180 
" style="fill: none; stroke: #800080; stroke-width: 2; stroke-linecap: round"/>
    <path d="M 158.716013 182 
L 154.716013 180 
L 158.716013 178 
" style="fill: none; stroke: #800080; stroke-width: 2; stroke-linecap: round"/>
   </g>
   <g id="text_7">
    <!-- $G(\mathbf{r}, \mathbf{r}_0)$ -->
    <g style="fill: #800080" transform="translate(167.7 200.304) scale(0.1 -0.1)">
     <defs>
      <path id="DejaVuSans-Oblique-47" d="M 3494 697 
L 3738 1919 
L 2700 1919 
L 2797 2438 
L 4453 2438 
L 4050 384 
Q 3634 156 3143 32 
Q 2653 -91 2156 -91 
Q 1278 -91 783 396 
Q 288 884 288 1753 
Q 288 2475 589 3126 
Q 891 3778 1422 4213 
Q 1756 4484 2153 4617 
Q 2550 4750 3034 4750 
Q 3472 4750 3873 4639 
Q 4275 4528 4641 4306 
L 4513 3634 
Q 4231 3928 3853 4083 
Q 3475 4238 3047 4238 
Q 2550 4238 2172 4048 
Q 1794 3859 1497 3463 
Q 1244 3125 1098 2667 
Q 953 2209 953 1734 
Q 953 1081 1287 751 
Q 1622 422 2284 422 
Q 2616 422 2925 492 
Q 3234 563 3494 697 
z
" transform="scale(0.015625)"/>
      <path id="DejaVuSans-28" d="M 1984 4856 
Q 1566 4138 1362 3434 
Q 1159 2731 1159 2009 
Q 1159 1288 1364 580 
Q 1569 -128 1984 -844 
L 1484 -844 
Q 1016 -109 783 600 
Q 550 1309 550 2009 
Q 550 2706 781 3412 
Q 1013 4119 1484 4856 
L 1984 4856 
z
" transform="scale(0.015625)"/>
      <path id="DejaVuSans-2c" d="M 750 794 
L 1409 794 
L 1409 256 
L 897 -744 
L 494 -744 
L 750 256 
L 750 794 
z
" transform="scale(0.015625)"/>
      <path id="DejaVuSans-29" d="M 513 4856 
L 1013 4856 
Q 1481 4119 1714 3412 
Q 1947 2706 1947 2009 
Q 1947 1309 1714 600 
Q 1481 -109 1013 -844 
L 513 -844 
Q 928 -128 1133 580 
Q 1338 1288 1338 2009 
Q 1338 2731 1133 3434 
Q 928 4138 513 4856 
z
" transform="scale(0.015625)"/>
     </defs>
     <use xlink:href="#DejaVuSans-Oblique-47" transform="translate(0 0.125)"/>
     <use xlink:href="#DejaVuSans-28" transform="translate(77.490234 0.125)"/>
     <use xlink:href="#DejaVuSans-Bold-72" transform="translate(116.503906 0.125)"/>
     <use xlink:href="#DejaVuSans-2c" transform="translate(165.820312 0.125)"/>
     <use xlink:href="#DejaVuSans-Bold-72" transform="translate(217.089844 0.125)"/>
     <use xlink:href="#DejaVuSans-30" transform="translate(267.363281 -16.28125) scale(0.7)"/>
     <use xlink:href="#DejaVuSans-29" transform="translate(314.633789 0.125)"/>
    </g>
   </g>
   <g id="patch_5">
    <path d="M 501.679204 180 
Q 534.599629 180 565.283987 180 
" style="fill: none; stroke: #ff0000; stroke-width: 2; stroke-linecap: round"/>
    <path d="M 561.283987 178 
L 565.283987 180 
L 561.283987 182 
" style="fill: none; stroke: #ff0000; stroke-width: 2; stroke-linecap: round"/>
   </g>
   <g id="text_8">
    <!-- $G(\mathbf{r}_0, \mathbf{r})$ -->
    <g style="fill: #ff0000" transform="translate(516.9 200.304) scale(0.1 -0.1)">
     <use xlink:href="#DejaVuSans-Oblique-47" transform="translate(0 0.125)"/>
     <use xlink:href="#DejaVuSans-28" transform="translate(77.490234 0.125)"/>
     <use xlink:href="#DejaVuSans-Bold-72" transform="translate(116.503906 0.125)"/>
     <use xlink:href="#DejaVuSans-30" transform="translate(166.777344 -16.28125) scale(0.7)"/>
     <use xlink:href="#DejaVuSans-2c" transform="translate(214.047852 0.125)"/>
     <use xlink:href="#DejaVuSans-Bold-72" transform="translate(265.317383 0.125)"/>
     <use xlink:href="#DejaVuSans-29" transform="translate(314.633789 0.125)"/>
    </g>
   </g>
   <g id="text_9">
    <!-- = -->
    <g transform="translate(347.430469 188.278125) scale(0.3 -0.3)">
     <defs>
      <path id="DejaVuSans-3d" d="M 678 2906 
L 4684 2906 
L 4684 2381 
L 678 2381 
L 678 2906 
z
M 678 1631 
L 4684 1631 
L 4684 1100 
L 678 1100 
L 678 1631 
z
" transform="scale(0.015625)"/>
     </defs>
     <use xlink:href="#DejaVuSans-3d"/>
    </g>
   </g>
  </g>
 </g>
 <defs>
  <clipPath id="pf85b09c380">
   <rect x="10.8" y="10.8" width="698.4" height="338.4"/>
  </clipPath>
 </defs>
</svg>
